<svg xmlns="http://www.w3.org/2000/svg" width="24" height="24" viewBox="0 0 24 24">
    <g fill="none" fill-rule="evenodd">
        <g fill="#7786FF" fill-rule="nonzero">
            <g>
                <g>
                    <g>
                        <path d="M1.76 8.186l6.918 4.532.193.122c1.952 1.176 4.411 1.148 6.34-.091l7.032-4.515c.171 1.55.257 2.811.257 3.784 0 1.448-.19 3.526-.569 6.234l-.069.485c-.065.45-.425.8-.877.85-3.908.442-6.885.663-8.932.663-1.96 0-4.8-.202-8.523-.607l-.513-.056c-.453-.05-.815-.4-.88-.852C1.714 15.782 1.5 13.537 1.5 12c0-.982.087-2.254.26-3.814zM12.003 3.75c1.948 0 4.771.202 8.47.606l.51.057c.453.05.814.4.879.852.065.455.125.893.18 1.314L14.4 11.487l-.168.102c-1.468.856-3.301.813-4.732-.125l-7.536-4.94c.033-.252.068-.51.105-.774l.069-.486c.064-.45.426-.8.878-.851 3.955-.442 6.95-.663 8.987-.663z" transform="translate(-306 -4297) translate(0 4020) translate(298 192) translate(8 85)"/>
                    </g>
                </g>
            </g>
        </g>
    </g>
</svg>
