<svg xmlns="http://www.w3.org/2000/svg" width="164" height="49" viewBox="0 0 164 49">
    <g fill="none" fill-rule="evenodd">
        <g fill-rule="nonzero">
            <g>
                <g>
                    <path fill="#000" d="M150.94 0H13.067c-.502 0-.999 0-1.5.002-.42.003-.836.01-1.26.016-.92.01-1.838.082-2.746.216-.906.138-1.785.397-2.605.769-.82.374-1.568.862-2.218 1.443-.654.58-1.2 1.251-1.615 1.986-.417.734-.705 1.52-.857 2.332-.152.81-.234 1.63-.245 2.452-.013.376-.014.753-.021 1.128V38.66c.007.38.008.75.02 1.13.012.821.094 1.641.246 2.452.151.812.44 1.599.857 2.333.415.733.96 1.4 1.615 1.977.648.585 1.397 1.072 2.218 1.444.82.373 1.698.633 2.605.773.908.133 1.826.206 2.747.216.423.009.84.014 1.259.014.501.002.998.002 1.5.002H150.94c.493 0 .993 0 1.486-.002.417 0 .846-.005 1.263-.014.919-.01 1.835-.082 2.741-.216.91-.14 1.791-.401 2.615-.773.82-.372 1.57-.86 2.217-1.444.652-.579 1.199-1.246 1.62-1.977.413-.735.7-1.521.848-2.333.152-.81.237-1.63.254-2.452.005-.38.005-.75.005-1.13.011-.445.011-.887.011-1.34V11.682c0-.449 0-.894-.01-1.338 0-.375 0-.752-.006-1.128-.017-.822-.102-1.642-.254-2.452-.15-.811-.435-1.598-.849-2.332-.846-1.473-2.187-2.673-3.836-3.43-.824-.37-1.705-.63-2.615-.768-.906-.135-1.822-.207-2.74-.216-.418-.006-.847-.013-1.264-.016C151.933 0 151.433 0 150.94 0z"/>
                    <g fill="#FFF">
                        <g>
                            <path d="M18.3 15.068c.026-2.078 1.114-3.997 2.883-5.086C20.063 8.38 18.253 7.4 16.3 7.34c-2.056-.216-4.048 1.23-5.095 1.23-1.068 0-2.68-1.209-4.417-1.173-2.284.074-4.362 1.343-5.474 3.342-2.367 4.102-.601 10.13 1.666 13.445 1.134 1.624 2.46 3.438 4.195 3.373 1.698-.07 2.332-1.083 4.38-1.083 2.03 0 2.626 1.083 4.396 1.042 1.821-.03 2.969-1.63 4.064-3.27.815-1.156 1.442-2.435 1.858-3.788-2.163-.916-3.57-3.037-3.573-5.389zM14.956 5.158c.993-1.193 1.483-2.727 1.364-4.276-1.517.16-2.919.886-3.926 2.033-.994 1.133-1.497 2.614-1.4 4.118 1.538.016 2.998-.675 3.962-1.875z" transform="translate(12.015 9.8)"/>
                        </g>
                        <g>
                            <path d="M10.161 11.421H4.368l-1.391 4.112H.523L6.01.32h2.55l5.487 15.212H11.55l-1.39-4.112zM4.968 9.524H9.56L7.296 2.85h-.063L4.968 9.524zM25.897 9.988c0 3.446-1.843 5.66-4.624 5.66-1.438.076-2.792-.678-3.487-1.94h-.052v5.494h-2.275V4.442h2.202v1.845h.042c.725-1.255 2.08-2.008 3.528-1.961 2.812 0 4.666 2.225 4.666 5.662zm-2.338 0c0-2.246-1.16-3.722-2.928-3.722-1.738 0-2.907 1.508-2.907 3.722 0 2.235 1.17 3.731 2.907 3.731 1.769 0 2.928-1.465 2.928-3.731zM38.093 9.988c0 3.446-1.843 5.66-4.625 5.66-1.437.076-2.791-.678-3.486-1.94h-.053v5.494h-2.274V4.442h2.202v1.845h.041c.726-1.255 2.082-2.008 3.529-1.961 2.812 0 4.666 2.225 4.666 5.662zm-2.338 0c0-2.246-1.16-3.722-2.928-3.722-1.738 0-2.907 1.508-2.907 3.722 0 2.235 1.169 3.731 2.907 3.731 1.769 0 2.928-1.465 2.928-3.731zM46.153 11.294c.169 1.509 1.633 2.5 3.634 2.5 1.917 0 3.296-.991 3.296-2.351 0-1.181-.832-1.888-2.802-2.373l-1.97-.475c-2.79-.674-4.086-1.98-4.086-4.1 0-2.625 2.285-4.428 5.53-4.428 3.212 0 5.413 1.803 5.488 4.427h-2.296c-.138-1.518-1.392-2.434-3.224-2.434-1.832 0-3.086.927-3.086 2.277 0 1.075.8 1.708 2.76 2.192l1.674.412c3.119.738 4.414 1.992 4.414 4.217 0 2.846-2.265 4.628-5.867 4.628-3.37 0-5.646-1.74-5.793-4.492h2.328zM60.394 1.817v2.625H62.5v1.803h-2.107v6.114c0 .95.422 1.392 1.348 1.392.25-.004.5-.022.748-.052v1.792c-.416.078-.84.113-1.263.105-2.243 0-3.118-.843-3.118-2.994V6.245h-1.611V4.442h1.61V1.817h2.286zM63.721 9.988c0-3.49 2.054-5.682 5.256-5.682 3.212 0 5.256 2.192 5.256 5.682 0 3.5-2.033 5.682-5.256 5.682-3.223 0-5.256-2.183-5.256-5.682zm8.195 0c0-2.394-1.096-3.807-2.94-3.807-1.842 0-2.937 1.424-2.937 3.807 0 2.403 1.095 3.805 2.938 3.805 1.843 0 2.939-1.402 2.939-3.805zM76.108 4.442h2.17V6.33h.052c.303-1.216 1.415-2.052 2.666-2.004.262-.001.523.027.779.085v2.13c-.331-.102-.676-.148-1.022-.138-.669-.028-1.316.24-1.772.73-.455.49-.674 1.156-.598 1.821v6.579h-2.275V4.442zM92.261 12.275c-.306 2.014-2.265 3.395-4.77 3.395-3.224 0-5.225-2.161-5.225-5.63 0-3.478 2.011-5.734 5.129-5.734 3.065 0 4.993 2.107 4.993 5.47v.78h-7.826v.138c-.073.825.212 1.643.782 2.244.57.6 1.371.928 2.199.897 1.104.104 2.144-.53 2.559-1.56h2.16zm-7.688-3.31h5.54c.04-.742-.23-1.467-.745-2.002-.516-.534-1.231-.829-1.973-.813-.749-.004-1.467.29-1.997.82-.53.528-.827 1.246-.825 1.995z" transform="translate(12.015 9.8) translate(29.597 12.025)"/>
                        </g>
                    </g>
                </g>
                <g fill="#FFF">
                    <path d="M3.459.895c.965-.069 1.911.299 2.577 1.002.666.704.98 1.67.86 2.63 0 2.336-1.262 3.678-3.437 3.678H.82V.895H3.46zM1.955 7.171h1.377c.69.041 1.362-.23 1.83-.74.467-.51.68-1.204.579-1.889.093-.681-.123-1.37-.589-1.875-.466-.506-1.133-.777-1.82-.739H1.955v5.243zM8.176 5.444c-.094-.988.38-1.945 1.223-2.469.843-.524 1.91-.524 2.753 0 .843.524 1.317 1.48 1.222 2.47.097.99-.377 1.948-1.22 2.473-.845.524-1.913.524-2.757 0-.844-.525-1.317-1.484-1.22-2.474zm4.08 0c0-1.195-.537-1.895-1.479-1.895-.945 0-1.477.7-1.477 1.895 0 1.206.532 1.9 1.477 1.9.942 0 1.479-.7 1.479-1.9zM20.284 8.205L19.155 8.205 18.016 4.142 17.93 4.142 16.796 8.205 15.679 8.205 14.16 2.689 15.263 2.689 16.25 6.898 16.331 6.898 17.464 2.689 18.508 2.689 19.641 6.898 19.727 6.898 20.709 2.689 21.797 2.689zM23.074 2.689h1.047v.876h.082c.282-.645.943-1.04 1.644-.983.544-.04 1.076.168 1.447.567.371.4.54.945.46 1.485v3.57h-1.087V4.908c0-.886-.385-1.327-1.189-1.327-.368-.017-.726.127-.979.396s-.376.635-.337 1.002v3.227h-1.088V2.689zM29.488.535L30.576.535 30.576 8.205 29.488 8.205zM32.087 5.444c-.094-.988.38-1.945 1.223-2.47.843-.523 1.91-.523 2.753 0 .844.525 1.317 1.482 1.223 2.47.096.99-.377 1.949-1.221 2.474-.844.524-1.912.524-2.756 0-.844-.525-1.318-1.484-1.222-2.474zm4.08 0c0-1.195-.537-1.895-1.479-1.895-.945 0-1.477.7-1.477 1.895 0 1.206.532 1.9 1.477 1.9.942 0 1.479-.7 1.479-1.9zM38.431 6.645c0-.993.739-1.566 2.05-1.647l1.493-.086v-.476c0-.583-.385-.912-1.129-.912-.607 0-1.028.223-1.148.613h-1.053c.11-.947 1.001-1.555 2.251-1.555 1.382 0 2.161.689 2.161 1.854v3.769H42.01V7.43h-.086c-.355.566-.988.897-1.655.866-.468.048-.934-.103-1.284-.418-.35-.314-.551-.762-.553-1.233zm3.543-.472v-.46l-1.346.085c-.76.051-1.103.31-1.103.796 0 .496.43.785 1.021.785.35.036.7-.073.97-.3.268-.227.434-.554.458-.906zM44.486 5.444c0-1.743.895-2.847 2.287-2.847.704-.032 1.362.345 1.69.968h.082V.535h1.087v7.67H48.59v-.872h-.086c-.353.618-1.02.989-1.73.963-1.403 0-2.288-1.105-2.288-2.852zm1.123 0c0 1.17.551 1.874 1.473 1.874.917 0 1.483-.714 1.483-1.869 0-1.15-.572-1.874-1.483-1.874-.916 0-1.473.709-1.473 1.87zM54.132 5.444c-.094-.988.38-1.945 1.223-2.469.843-.524 1.91-.524 2.753 0 .843.524 1.317 1.48 1.222 2.47.096.99-.377 1.948-1.22 2.473-.845.524-1.913.524-2.757 0-.844-.525-1.317-1.484-1.22-2.474zm4.08 0c0-1.195-.537-1.895-1.479-1.895-.945 0-1.477.7-1.477 1.895 0 1.206.532 1.9 1.477 1.9.942 0 1.478-.7 1.478-1.9zM60.79 2.689h1.046v.876h.082c.282-.645.943-1.04 1.644-.983.544-.04 1.076.168 1.447.567.371.4.54.945.46 1.485v3.57h-1.087V4.908c0-.886-.385-1.327-1.189-1.327-.368-.017-.726.127-.979.396s-.376.635-.337 1.002v3.227H60.79V2.689zM71.616 1.315v1.399h1.194v.917h-1.194v2.836c0 .578.237.831.779.831.138 0 .277-.009.415-.025v.907c-.196.035-.394.053-.592.055-1.21 0-1.691-.426-1.691-1.49V3.632h-.875v-.917h.875V1.315h1.089zM74.295.535h1.078v3.04h.086c.297-.65.969-1.046 1.68-.988.54-.03 1.066.184 1.433.581.367.398.538.939.466 1.475v3.562h-1.089V4.912c0-.881-.41-1.327-1.179-1.327-.378-.031-.75.106-1.018.376s-.403.644-.37 1.022v3.222h-1.087V.535zM85.38 6.715c-.306 1.04-1.312 1.713-2.389 1.596-.734.02-1.44-.285-1.93-.834-.491-.548-.716-1.284-.615-2.013-.098-.73.126-1.468.613-2.021.488-.553 1.19-.867 1.928-.86 1.533 0 2.458 1.048 2.458 2.78v.38h-3.891v.06c-.035.41.105.815.384 1.116.28.3.673.47 1.083.465.532.064 1.05-.2 1.311-.669h1.047zm-3.826-1.777h2.783c.028-.375-.104-.743-.362-1.015-.258-.273-.62-.423-.994-.414-.38-.005-.746.144-1.015.413-.269.27-.417.635-.412 1.016z" transform="translate(42.836 9.8)"/>
                </g>
            </g>
        </g>
    </g>
</svg>
