<svg xmlns="http://www.w3.org/2000/svg" width="165" height="49" viewBox="0 0 165 49">
    <g fill="none" fill-rule="evenodd">
        <g>
            <g>
                <g>
                    <g>
                        <path fill="#FFF" fill-rule="nonzero" d="M151.827 0H13.144c-.505 0-1.005 0-1.51.003-.421.002-.84.01-1.266.015-.926.01-1.85.082-2.762.217-.912.137-1.796.396-2.62.768-.825.375-1.578.862-2.232 1.444-.658.58-1.207 1.25-1.624 1.985-.42.734-.71 1.52-.862 2.332-.154.81-.236 1.63-.247 2.452-.013.376-.014.753-.021 1.128V38.66c.007.38.008.75.02 1.13.012.822.094 1.642.248 2.452.152.812.442 1.599.862 2.333.417.733.966 1.4 1.624 1.977.652.585 1.405 1.072 2.231 1.444.825.373 1.709.634 2.62.773.914.133 1.837.206 2.763.217.426.008.845.013 1.267.013.504.002 1.004.002 1.51.002h138.682c.495 0 .999 0 1.494-.002.42 0 .851-.005 1.271-.013.924-.01 1.846-.083 2.757-.217.915-.14 1.802-.4 2.63-.773.826-.372 1.579-.86 2.23-1.444.656-.579 1.206-1.246 1.629-1.977.416-.735.704-1.521.853-2.333.154-.81.24-1.63.256-2.452.006-.38.006-.75.006-1.13.01-.445.01-.887.01-1.34V11.683c0-.449 0-.894-.01-1.338 0-.375 0-.752-.006-1.128-.016-.822-.102-1.641-.256-2.452-.15-.811-.437-1.597-.853-2.332-.85-1.473-2.2-2.673-3.858-3.43-.83-.37-1.716-.63-2.63-.767-.912-.135-1.834-.208-2.758-.217-.42-.006-.85-.013-1.27-.016-.496-.002-1-.002-1.495-.002z" transform="translate(-549 -5131) translate(0 4720) translate(408 225) translate(141 186)"/>
                        <path fill="#000" d="M56.863 12.548c0 1.026-.305 1.845-.914 2.454-.69.725-1.59 1.087-2.7 1.087-1.06 0-1.962-.367-2.704-1.103-.743-.735-1.114-1.648-1.114-2.736 0-1.089.371-2 1.114-2.735.742-.736 1.644-1.104 2.705-1.104.526 0 1.03.103 1.509.307.477.206.862.48 1.149.822l-.646.646c-.487-.58-1.156-.87-2.012-.87-.775 0-1.442.27-2.007.815-.565.544-.848 1.25-.848 2.12 0 .868.283 1.575.848 2.118.565.546 1.232.816 2.007.816.82 0 1.505-.273 2.053-.82.355-.356.56-.852.616-1.489h-2.67v-.882h3.563c.034.191.051.376.051.554" transform="translate(-549 -5131) translate(0 4720) translate(408 225) translate(141 186)"/>
                        <path fill="#000" d="M56.863 12.548h-.122c-.001 1.003-.294 1.782-.877 2.367h-.002v.002c-.67.7-1.53 1.049-2.612 1.05-1.033-.001-1.897-.354-2.618-1.068-.72-.715-1.077-1.588-1.078-2.649 0-1.06.357-1.934 1.078-2.648.721-.714 1.585-1.067 2.618-1.068.51 0 .997.099 1.46.297.464.2.831.462 1.105.788l.093-.079-.087-.087-.646.647.087.086.093-.078c-.508-.61-1.223-.918-2.105-.915-.803-.002-1.508.285-2.093.85-.589.566-.885 1.312-.884 2.207-.001.896.295 1.642.884 2.208.585.564 1.29.851 2.093.851.847.001 1.57-.287 2.14-.858.38-.38.595-.907.651-1.564l.011-.133h-2.68v-.639h3.44v-.12l-.121.02c.033.186.05.363.05.533h.245c0-.186-.019-.377-.054-.576l-.019-.1h-3.786v1.127h2.792v-.123l-.123-.01c-.054.617-.25 1.08-.58 1.413-.527.524-1.173.784-1.966.785-.745-.001-1.377-.258-1.922-.782-.54-.523-.809-1.189-.81-2.032.001-.843.27-1.509.81-2.032.545-.523 1.177-.78 1.922-.78.829 0 1.454.275 1.918.828l.086.101.74-.74.08-.08-.072-.086c-.301-.36-.703-.643-1.196-.855-.493-.21-1.014-.317-1.556-.317-1.09-.002-2.03.38-2.791 1.139-.766.756-1.152 1.706-1.15 2.822-.002 1.116.384 2.067 1.15 2.824.762.757 1.701 1.139 2.79 1.138 1.135.001 2.076-.376 2.79-1.126l-.09-.084.087.086c.635-.634.95-1.49.95-2.54h-.123M62.509 9.478L59.161 9.478 59.161 11.809 62.18 11.809 62.18 12.691 59.161 12.691 59.161 15.022 62.509 15.022 62.509 15.925 58.218 15.925 58.218 8.575 62.509 8.575 62.509 9.478" transform="translate(-549 -5131) translate(0 4720) translate(408 225) translate(141 186)"/>
                        <path fill="#000" d="M62.509 9.478L62.509 9.355 59.039 9.355 59.039 11.932 62.057 11.932 62.057 12.569 59.039 12.569 59.039 15.145 62.387 15.145 62.387 15.803 58.341 15.803 58.341 8.698 62.387 8.698 62.387 9.478 62.509 9.478 62.509 9.355 62.509 9.478 62.632 9.478 62.632 8.453 58.096 8.453 58.096 16.048 62.632 16.048 62.632 14.9 59.284 14.9 59.284 12.814 62.302 12.814 62.302 11.687 59.284 11.687 59.284 9.6 62.632 9.6 62.632 9.478 62.509 9.478M66.492 15.925L65.546 15.925 65.546 9.478 63.494 9.478 63.494 8.575 68.545 8.575 68.545 9.478 66.492 9.478 66.492 15.925" transform="translate(-549 -5131) translate(0 4720) translate(408 225) translate(141 186)"/>
                        <path fill="#000" d="M66.492 15.925L66.492 15.803 65.669 15.803 65.669 9.355 63.615 9.355 63.615 8.698 68.422 8.698 68.422 9.355 66.369 9.355 66.369 15.925 66.492 15.925 66.492 15.803 66.492 15.925 66.614 15.925 66.614 9.6 68.667 9.6 68.667 8.453 63.37 8.453 63.37 9.6 65.424 9.6 65.424 16.048 66.614 16.048 66.614 15.925 66.492 15.925M72.199 15.925L73.144 15.925 73.144 8.575 72.199 8.575z" transform="translate(-549 -5131) translate(0 4720) translate(408 225) translate(141 186)"/>
                        <path fill="#000" d="M72.199 15.925L72.322 15.925 72.322 8.698 73.02 8.698 73.02 15.803 72.199 15.803 72.199 15.925 72.322 15.925 72.199 15.925 72.199 16.048 73.266 16.048 73.266 8.453 72.077 8.453 72.077 16.048 72.199 16.048 72.199 15.925M77.332 15.925L76.387 15.925 76.387 9.478 74.334 9.478 74.334 8.575 79.385 8.575 79.385 9.478 77.332 9.478 77.332 15.925" transform="translate(-549 -5131) translate(0 4720) translate(408 225) translate(141 186)"/>
                        <path fill="#000" d="M77.332 15.925L77.332 15.803 76.51 15.803 76.51 9.355 74.457 9.355 74.457 8.698 79.262 8.698 79.262 9.355 77.209 9.355 77.209 15.925 77.332 15.925 77.332 15.803 77.332 15.925 77.454 15.925 77.454 9.6 79.507 9.6 79.507 8.453 74.212 8.453 74.212 9.6 76.265 9.6 76.265 16.048 77.454 16.048 77.454 15.925 77.332 15.925M84.254 14.36c.545.55 1.21.825 1.997.825.788 0 1.454-.274 1.997-.825.544-.552.817-1.255.817-2.11s-.273-1.558-.817-2.11c-.543-.55-1.21-.825-1.997-.825-.786 0-1.452.274-1.997.826-.542.551-.816 1.254-.816 2.11 0 .854.274 1.557.816 2.109zm4.692.616c-.721.742-1.62 1.113-2.695 1.113-1.074 0-1.972-.37-2.694-1.113s-1.083-1.652-1.083-2.726.36-1.983 1.083-2.725c.722-.743 1.62-1.114 2.694-1.114 1.068 0 1.965.372 2.69 1.118.725.746 1.088 1.653 1.088 2.721 0 1.074-.361 1.983-1.083 2.726z" transform="translate(-549 -5131) translate(0 4720) translate(408 225) translate(141 186)"/>
                        <path fill="#000" d="M84.254 14.36l-.087.085c.565.574 1.268.865 2.084.864.816.001 1.52-.29 2.084-.864.568-.572.854-1.314.852-2.195.002-.88-.284-1.622-.852-2.195-.564-.573-1.268-.864-2.084-.862-.816-.002-1.519.289-2.084.862-.566.573-.852 1.314-.851 2.195-.001.88.285 1.623.851 2.195l.175-.171c-.52-.528-.78-1.195-.781-2.024.001-.83.26-1.496.781-2.024.525-.529 1.15-.787 1.909-.788.76 0 1.387.26 1.91.788.52.53.78 1.195.781 2.024 0 .83-.26 1.495-.781 2.024-.523.53-1.15.789-1.91.79-.758-.002-1.384-.26-1.91-.79l-.087.086zm4.692.616l-.087-.086c-.702.72-1.562 1.076-2.608 1.077-1.046-.001-1.905-.357-2.606-1.077l-.003-.004.003.004c-.7-.721-1.047-1.592-1.048-2.64.001-1.047.348-1.918 1.048-2.64.701-.72 1.56-1.075 2.606-1.076 1.04 0 1.896.358 2.603 1.081.703.725 1.051 1.595 1.052 2.635 0 1.048-.347 1.919-1.047 2.64l.175.17c.744-.762 1.119-1.709 1.117-2.81.002-1.095-.376-2.04-1.122-2.805-.746-.77-1.682-1.158-2.778-1.156-1.102-.002-2.04.385-2.782 1.151-.744.763-1.118 1.709-1.117 2.81-.001 1.101.373 2.048 1.117 2.81l.004.004-.004-.004c.742.767 1.68 1.153 2.782 1.152 1.103.001 2.04-.385 2.783-1.152l-.088-.084zM91.354 15.925L91.354 8.575 92.505 8.575 96.077 14.292 96.117 14.292 96.077 12.876 96.077 8.575 97.021 8.575 97.021 15.925 96.035 15.925 92.299 9.93 92.257 9.93 92.299 11.347 92.299 15.925 91.354 15.925" transform="translate(-549 -5131) translate(0 4720) translate(408 225) translate(141 186)"/>
                        <path fill="#000" d="M91.354 15.925L91.477 15.925 91.477 8.698 92.436 8.698 96.008 14.416 96.243 14.416 96.199 12.875 96.199 8.698 96.899 8.698 96.899 15.803 96.104 15.803 92.366 9.808 92.132 9.808 92.176 11.349 92.176 15.803 91.354 15.803 91.354 15.925 91.477 15.925 91.354 15.925 91.354 16.048 92.421 16.048 92.421 11.345 92.38 9.928 92.257 9.93 92.257 10.053 92.299 10.053 92.299 9.93 92.195 9.995 95.968 16.048 97.144 16.048 97.144 8.453 95.954 8.453 95.954 12.879 95.995 14.296 96.117 14.292 96.117 14.171 96.077 14.171 96.077 14.292 96.181 14.229 92.572 8.453 91.232 8.453 91.232 16.048 91.354 16.048 91.354 15.925M129.772 36.75h2.285V21.436h-2.285V36.75zm20.588-9.797l-2.62 6.64h-.079l-2.719-6.64h-2.462l4.078 9.279-2.325 5.162h2.385l6.284-14.441h-2.542zm-12.963 8.058c-.75 0-1.793-.374-1.793-1.3 0-1.182 1.3-1.635 2.423-1.635 1.006 0 1.477.216 2.089.512-.178 1.418-1.4 2.423-2.719 2.423zm.276-8.393c-1.655 0-3.369.73-4.078 2.345l2.028.846c.434-.846 1.241-1.123 2.09-1.123 1.181 0 2.383.71 2.403 1.971v.157c-.415-.237-1.3-.59-2.384-.59-2.187 0-4.414 1.201-4.414 3.447 0 2.049 1.793 3.37 3.802 3.37 1.538 0 2.384-.69 2.917-1.499h.078v1.182h2.207v-5.87c0-2.72-2.029-4.236-4.65-4.236zm-14.127 2.2h-3.251v-5.25h3.251c1.709 0 2.68 1.415 2.68 2.624 0 1.187-.971 2.625-2.68 2.625zm-.059-7.382h-5.477V36.75h2.285V30.95h3.192c2.534 0 5.024-1.835 5.024-4.757 0-2.922-2.49-4.756-5.024-4.756zM93.621 35.013c-1.58 0-2.901-1.322-2.901-3.137 0-1.835 1.322-3.178 2.9-3.178 1.56 0 2.783 1.343 2.783 3.178 0 1.815-1.223 3.137-2.782 3.137zm2.624-7.203h-.079c-.513-.611-1.5-1.164-2.743-1.164-2.605 0-4.993 2.289-4.993 5.23 0 2.92 2.388 5.19 4.993 5.19 1.244 0 2.23-.552 2.743-1.184h.079v.75c0 1.994-1.065 3.06-2.782 3.06-1.402 0-2.27-1.008-2.626-1.856l-1.993.829c.572 1.382 2.093 3.078 4.619 3.078 2.684 0 4.954-1.579 4.954-5.426V26.96h-2.172v.85zm3.75 8.94h2.29V21.435h-2.29V36.75zm5.664-5.052c-.06-2.012 1.56-3.039 2.723-3.039.909 0 1.678.453 1.934 1.105l-4.657 1.934zm7.105-1.737c-.434-1.164-1.757-3.315-4.46-3.315-2.684 0-4.914 2.111-4.914 5.21 0 2.92 2.21 5.21 5.17 5.21 2.388 0 3.77-1.46 4.342-2.309l-1.776-1.184c-.592.868-1.402 1.44-2.567 1.44-1.163 0-1.993-.533-2.525-1.578l6.966-2.88-.236-.594zM57.26 28.245v2.21h5.289c-.158 1.243-.572 2.151-1.203 2.783-.77.77-1.975 1.617-4.086 1.617-3.256 0-5.802-2.624-5.802-5.88 0-3.257 2.546-5.881 5.802-5.881 1.757 0 3.04.69 3.987 1.579l1.559-1.56c-1.323-1.263-3.078-2.23-5.546-2.23-4.46 0-8.21 3.632-8.21 8.092 0 4.46 3.75 8.091 8.21 8.091 2.408 0 4.223-.789 5.644-2.27 1.46-1.46 1.915-3.512 1.915-5.17 0-.514-.04-.987-.12-1.381h-7.439zm13.572 6.768c-1.579 0-2.941-1.302-2.941-3.157 0-1.875 1.362-3.158 2.941-3.158 1.578 0 2.94 1.283 2.94 3.158 0 1.855-1.362 3.157-2.94 3.157zm0-8.367c-2.882 0-5.23 2.19-5.23 5.21 0 3 2.348 5.21 5.23 5.21 2.881 0 5.23-2.21 5.23-5.21 0-3.02-2.349-5.21-5.23-5.21zm11.409 8.367c-1.58 0-2.942-1.302-2.942-3.157 0-1.875 1.363-3.158 2.942-3.158 1.579 0 2.94 1.283 2.94 3.158 0 1.855-1.361 3.157-2.94 3.157zm0-8.367c-2.882 0-5.23 2.19-5.23 5.21 0 3 2.348 5.21 5.23 5.21 2.88 0 5.23-2.21 5.23-5.21 0-3.02-2.35-5.21-5.23-5.21z" transform="translate(-549 -5131) translate(0 4720) translate(408 225) translate(141 186)"/>
                        <g fill="#000" stroke="#FFF" stroke-width="1.225">
                            <path d="M.658 30.751l-.092-.088C.21 30.286 0 29.701 0 28.942v.179V2.029v-.007.187C0 1.387.245.769.657.397l15.176 15.178L.658 30.75M20.894 20.635l-5.06-5.06 5.06-5.06L27 13.984c.776.44 1.212 1.009 1.284 1.588v.003c-.072.58-.508 1.148-1.284 1.589l-6.107 3.47" transform="translate(-549 -5131) translate(0 4720) translate(408 225) translate(141 186) translate(11.025 9.8)"/>
                            <path d="M1.74 31.15c-.424 0-.794-.14-1.082-.399l15.175-15.176 5.06 5.06-17.78 10.103c-.493.279-.958.411-1.373.411" transform="translate(-549 -5131) translate(0 4720) translate(408 225) translate(141 186) translate(11.025 9.8)"/>
                            <path d="M15.833 15.575h0L.657.397C.944.137 1.314 0 1.738 0c.414 0 .881.132 1.375.412l17.78 10.102-5.06 5.06" transform="translate(-549 -5131) translate(0 4720) translate(408 225) translate(141 186) translate(11.025 9.8)"/>
                        </g>
                    </g>
                </g>
            </g>
        </g>
    </g>
</svg>
