<svg xmlns="http://www.w3.org/2000/svg" width="131" height="60" viewBox="0 0 131 60">
    <g fill="none" fill-rule="evenodd">
        <g>
            <path fill="#121A2F" d="M35.273 23.48c3.693 0 5.904 2.752 6.398 4.68h-2.705c-.4-.822-1.34-2.445-3.67-2.445-3.151 0-4.28 2.634-4.28 4.61 0 2.258 1.435 4.633 4.234 4.633 1.834 0 3.08-1.058 3.692-2.399h2.729c-.988 2.893-3.528 4.634-6.421 4.634-4.281 0-6.68-3.505-6.68-6.868 0-3.528 2.587-6.845 6.703-6.845zm14.607 0c3.952 0 7.033 3.105 7.033 6.821 0 3.175-2.61 6.892-7.033 6.892-4.375 0-7.032-3.646-7.032-6.939 0-3.551 2.987-6.774 7.032-6.774zm60.146 0c3.952 0 7.033 3.105 7.033 6.821 0 3.175-2.61 6.892-7.033 6.892-4.375 0-7.032-3.646-7.032-6.939 0-3.551 2.987-6.774 7.032-6.774zm-36.695 0c2.188 0 3.74.894 4.586 2.353.471.846.73 1.904.73 3.175v7.855H76.2V29.62c0-1.105-.142-3.904-3.082-3.904-3.128 0-3.08 2.799-3.104 3.88v7.268h-2.446V29.62c.023-1.082-.024-1.811-.541-2.681-.612-.941-1.529-1.223-2.423-1.223-3.06 0-3.214 2.632-3.222 3.722v7.426h-2.446v-13.03h2.258v1.411h.047c.47-.54 1.317-1.764 3.74-1.764 1.575 0 3.386.753 4.045 2.188.423-.659 1.388-2.188 4.304-2.188zm22.37 0c2.187 0 3.74.894 4.586 2.353.47.846.729 1.904.729 3.175v7.855H98.57V29.62c0-1.105-.141-3.904-3.081-3.904-3.128 0-3.081 2.799-3.105 3.88v7.268h-2.446V29.62c.024-1.082-.023-1.811-.54-2.681-.612-.941-1.53-1.223-2.423-1.223-3.142 0-3.22 2.772-3.222 3.805v7.343h-2.447v-13.03h2.258v1.411h.047c.47-.54 1.317-1.764 3.74-1.764 1.576 0 3.387.753 4.045 2.188.424-.659 1.388-2.188 4.305-2.188zm29.497 0c2.023 0 3.669.87 4.61 2.329.517.847.8 1.882.823 3.34v7.714h-2.446v-7.241c-.008-1.14-.159-3.907-3.246-3.907-2.046 0-3.434 1.435-3.434 4.045v7.103h-2.446v-13.03h2.282v1.388h.046c1.223-1.616 3.014-1.732 3.678-1.74h.133zM49.88 25.715c-2.752 0-4.586 2.281-4.586 4.61 0 2.352 1.858 4.633 4.586 4.633 2.634 0 4.587-2.187 4.587-4.657 0-2.305-1.835-4.586-4.587-4.586zm60.146 0c-2.752 0-4.586 2.281-4.586 4.61 0 2.352 1.858 4.633 4.586 4.633 2.634 0 4.586-2.187 4.586-4.657 0-2.305-1.834-4.586-4.586-4.586z"/>
            <g>
                <path fill="#9A9EC3" d="M36.603 56.543c.706-.092 1.354.404 1.447 1.11.092.703-.406 1.349-1.113 1.44-.056.009-.112.011-.168.011-.638 0-1.194-.472-1.279-1.119-.092-.704.406-1.35 1.113-1.442zm-8.815-.342c.183-.687.89-1.094 1.58-.91.688.182 1.098.886.914 1.573-.154.575-.676.954-1.246.954-.11 0-.222-.013-.333-.044-.69-.183-1.099-.886-.915-1.573zm20.363-2.24c.712 0 1.29.574 1.29 1.285.002.71-.576 1.286-1.288 1.286-.714 0-1.29-.575-1.292-1.284 0-.711.577-1.288 1.29-1.288zm-27.385.502c.434-.563 1.243-.669 1.81-.238.564.433.67 1.24.237 1.804-.254.33-.636.503-1.025.503-.273 0-.55-.087-.783-.266-.567-.433-.673-1.239-.239-1.803zm4.117-1.717c.271-.656 1.026-.968 1.684-.697.66.272.972 1.024.699 1.68-.205.495-.686.795-1.192.795-.165 0-.332-.032-.493-.098-.66-.271-.972-1.025-.698-1.68zm7.63-.895l.131.01c.706.092 1.205.737 1.113 1.442-.084.647-.64 1.12-1.278 1.12-.055 0-.111-.004-.167-.011-.708-.091-1.206-.736-1.114-1.44.092-.706.739-1.202 1.446-1.111zm5.802.007c.706-.092 1.354.404 1.447 1.109.093.703-.405 1.35-1.113 1.442-.056.007-.112.01-.168.01-.638 0-1.193-.472-1.278-1.12-.093-.703.405-1.349 1.112-1.441zm2.784-.55c.69-.184 1.397.223 1.58.91.186.685-.223 1.39-.912 1.575-.112.028-.223.044-.334.044-.57 0-1.091-.38-1.246-.955-.183-.685.225-1.39.912-1.575zm2.689-.91c.659-.272 1.413.038 1.686.694.274.656-.038 1.409-.696 1.681-.163.067-.33.099-.495.099-.506 0-.985-.298-1.192-.793-.273-.657.04-1.409.697-1.681zm-28.497.073c.564-.435 1.375-.329 1.81.234.435.563.329 1.37-.236 1.803-.234.18-.512.266-.786.266-.386 0-.768-.172-1.023-.5-.435-.565-.33-1.37.235-1.803zm20.905-1.44c.712-.028 1.312.526 1.34 1.235.027.71-.53 1.307-1.241 1.335l-.05.001c-.69 0-1.262-.544-1.289-1.237-.027-.71.528-1.307 1.24-1.335zm-13.34.592c.357-.614 1.146-.824 1.764-.469.616.355.827 1.141.47 1.757-.238.411-.672.643-1.117.643-.22 0-.441-.056-.645-.173-.616-.355-.827-1.142-.472-1.758zm10.344-.707l.132.008c.709.08 1.217.718 1.137 1.424-.075.657-.633 1.14-1.281 1.14-.049 0-.098-.002-.146-.008-.71-.08-1.218-.717-1.137-1.422.08-.705.72-1.214 1.427-1.134zm5.843-.21c.7-.135 1.375.32 1.512 1.017.135.698-.324 1.372-1.024 1.507-.082.017-.164.024-.246.024-.605 0-1.146-.428-1.266-1.042-.135-.697.324-1.372 1.024-1.507zM8.755 47.662c.565-.434 1.376-.328 1.81.235.435.563.33 1.369-.236 1.803-.233.18-.51.266-.786.266-.385 0-.768-.172-1.023-.5-.434-.565-.33-1.371.235-1.804zm39.936-.094c.565-.433 1.375-.327 1.81.236.434.563.328 1.37-.237 1.803-.234.18-.51.267-.785.267-.387 0-.771-.173-1.025-.503-.434-.562-.328-1.37.237-1.803zm-4.28-.788c.626-.34 1.41-.11 1.751.513.342.623.11 1.405-.515 1.744-.197.107-.408.157-.618.157-.456 0-.898-.242-1.133-.67-.342-.623-.111-1.404.516-1.744zm-9.637-.788c.712.03 1.263.63 1.232 1.34-.03.69-.6 1.23-1.288 1.23-.018 0-.038 0-.056-.002-.712-.03-1.265-.63-1.235-1.34.032-.71.635-1.26 1.347-1.228zm-11.25.447c.387-.596 1.186-.766 1.784-.38.598.387.77 1.182.382 1.778-.247.38-.662.587-1.085.587-.24 0-.483-.066-.7-.207-.598-.386-.768-1.183-.381-1.778zm16.792-1.195c.677-.22 1.406.15 1.626.826.22.675-.15 1.4-.827 1.62-.134.043-.267.064-.4.064-.545 0-1.05-.346-1.228-.89-.22-.674.15-1.4.83-1.62zm6.497-.018c.567-.431 1.375-.323 1.808.24.433.566.325 1.373-.243 1.804-.233.178-.508.263-.782.263-.388 0-.772-.174-1.026-.505-.432-.564-.324-1.37.243-1.802zm-19.186.21c.281-.653 1.038-.956 1.694-.677.656.28.96 1.034.68 1.688-.21.489-.686.78-1.187.78-.17 0-.341-.033-.507-.102-.656-.28-.96-1.035-.68-1.689zm15.267-1.293c.627-.337 1.41-.103 1.749.522.338.625.104 1.404-.523 1.741-.196.106-.405.155-.611.155-.46 0-.904-.244-1.137-.675-.339-.625-.105-1.406.522-1.743zm-26.46-.791c.566-.434 1.376-.329 1.81.234.436.563.33 1.37-.235 1.803-.234.18-.511.267-.786.267-.386 0-.768-.173-1.023-.5-.434-.565-.33-1.371.235-1.804zm19.724-.397c.712-.037 1.32.507 1.357 1.215.04.71-.507 1.316-1.218 1.354-.023.002-.048.002-.07.002-.682 0-1.251-.531-1.288-1.217-.038-.71.507-1.316 1.22-1.354zm-24.852.116c.616-.356 1.406-.147 1.764.467.357.614.147 1.401-.47 1.758-.204.118-.426.174-.646.174-.445 0-.879-.23-1.117-.641-.358-.615-.147-1.401.47-1.758zm27.544-.553c.688-.19 1.398.21 1.59.894.189.686-.213 1.394-.9 1.584-.115.032-.232.047-.346.047-.564 0-1.083-.374-1.241-.942-.192-.684.21-1.394.897-1.583zm-9.723.29c.264-.66 1.014-.983 1.676-.721.662.263.985 1.01.72 1.67-.2.505-.685.811-1.198.811-.158 0-.32-.029-.477-.09-.662-.264-.985-1.011-.721-1.67zm-9.902-.707c.548-.453 1.362-.376 1.816.17.453.548.378 1.36-.172 1.811-.241.199-.531.295-.821.295-.372 0-.741-.158-.996-.466-.454-.547-.377-1.358.173-1.81zm3.604-.371c.491-.513 1.308-.533 1.824-.04.515.49.535 1.303.041 1.816-.253.265-.592.398-.933.398-.319 0-.64-.118-.89-.356-.516-.49-.534-1.304-.042-1.818zm3.772-.573c.4-.589 1.202-.742 1.791-.344.59.4.744 1.2.345 1.787-.25.366-.656.564-1.07.564-.25 0-.501-.072-.723-.222-.59-.398-.744-1.198-.343-1.785zm17.038-1.176c.542-.46 1.357-.393 1.819.147.461.541.396 1.352-.148 1.812-.242.206-.539.307-.834.307-.366 0-.73-.154-.984-.452-.462-.542-.396-1.354.147-1.814zm-26.019-.486c.612-.364 1.404-.164 1.769.445.366.61.165 1.4-.446 1.764-.207.123-.435.182-.66.182-.44 0-.867-.224-1.109-.627-.366-.61-.165-1.399.446-1.764zm3.38-.195c.575-.417 1.382-.292 1.803.283.419.574.293 1.379-.283 1.796-.23.166-.496.247-.76.247-.398 0-.79-.183-1.043-.528-.42-.574-.293-1.378.282-1.798zM4.704 37.568c.705-.092 1.353.404 1.448 1.107.092.705-.406 1.351-1.112 1.444-.057.007-.113.01-.17.01-.637 0-1.193-.47-1.278-1.118-.092-.705.404-1.35 1.112-1.443zm14.93-.98c.642-.31 1.413-.043 1.723.597.311.64.042 1.408-.6 1.717-.18.088-.372.129-.56.129-.48 0-.94-.268-1.163-.727-.31-.638-.042-1.408.6-1.717zm3.25-.132c.61-.368 1.402-.173 1.771.435.37.609.173 1.398-.437 1.766-.208.125-.439.186-.666.186-.436 0-.862-.222-1.105-.622-.37-.608-.173-1.398.437-1.765zm-9.977-1.34c.69-.185 1.397.222 1.58.909.186.685-.222 1.39-.91 1.574-.112.03-.225.044-.336.044-.569 0-1.09-.378-1.244-.953-.185-.685.223-1.39.91-1.575zm2.79-1.405c.694-.163 1.39.267 1.552.958.162.691-.269 1.384-.962 1.546-.099.023-.198.033-.295.033-.586 0-1.117-.399-1.255-.992-.163-.691.267-1.383.96-1.545zm6.174-.092c.676-.227 1.408.135 1.635.808.23.672-.133 1.402-.809 1.63-.136.045-.276.067-.413.067-.537 0-1.04-.339-1.222-.874-.227-.673.135-1.402.81-1.63zm-9.384-1.478c.706-.092 1.354.404 1.448 1.108.093.704-.405 1.35-1.11 1.443-.059.007-.115.01-.171.01-.637 0-1.193-.47-1.278-1.118-.093-.705.404-1.35 1.111-1.443zm5.98-1.49c.71-.064 1.337.458 1.4 1.165.064.708-.46 1.333-1.17 1.396-.038.005-.077.006-.117.006-.66 0-1.222-.504-1.282-1.17-.064-.709.46-1.333 1.169-1.397zm3.033-.018c.707-.077 1.344.434 1.42 1.139.078.706-.434 1.342-1.143 1.418-.047.006-.094.007-.14.007-.65 0-1.21-.489-1.282-1.147-.076-.706.435-1.34 1.145-1.417zm-13.018-.696c.712 0 1.29.574 1.292 1.284 0 .711-.577 1.287-1.289 1.287-.715 0-1.292-.574-1.292-1.284-.001-.71.576-1.286 1.29-1.287zm10.077-2.32l.132.005c.71.062 1.236.687 1.173 1.394-.059.67-.622 1.174-1.284 1.174-.038 0-.075-.002-.113-.005-.711-.062-1.236-.685-1.174-1.393.062-.708.69-1.232 1.398-1.17zm-3.074-.005l.132.003c.71.053 1.245.67 1.192 1.378-.052.675-.616 1.19-1.286 1.19-.032 0-.065-.001-.097-.004-.71-.051-1.243-.669-1.192-1.377.053-.71.673-1.24 1.383-1.187zm-2.803-1.466l.131.01c.708.091 1.206.737 1.115 1.44-.084.65-.64 1.122-1.279 1.122-.054 0-.11-.004-.166-.011-.706-.09-1.206-.735-1.115-1.44.091-.704.74-1.201 1.445-1.11zm-8.145-.534c.69-.185 1.397.222 1.58.91.186.684-.223 1.39-.91 1.574-.113.03-.225.044-.336.044-.57 0-1.091-.378-1.245-.953-.185-.686.224-1.39.911-1.575zm16.515-.035c.227-.673.959-1.036 1.635-.81.675.226 1.038.955.812 1.628-.181.537-.683.878-1.224.876-.135 0-.275-.02-.41-.066-.675-.226-1.04-.955-.813-1.628zm-6.327.014c.16-.692.854-1.123 1.548-.963.694.16 1.126.852.965 1.543-.138.595-.67.996-1.255.996-.097 0-.194-.01-.293-.034-.694-.16-1.126-.85-.965-1.542zm-2.743-1.432c.183-.686.89-1.095 1.578-.912.69.183 1.1.887.916 1.573-.154.575-.676.957-1.247.955-.109 0-.221-.013-.332-.042-.69-.183-1.098-.887-.915-1.574zm7.034-1.63c.31-.64 1.08-.91 1.723-.601.642.307.912 1.075.603 1.715-.222.46-.684.73-1.163.73-.188 0-.378-.041-.559-.128-.642-.308-.912-1.077-.604-1.717zm-3.312-.04c.265-.658 1.017-.979 1.679-.714.66.266.982 1.015.716 1.673-.203.503-.688.807-1.197.807-.162 0-.324-.03-.482-.093-.662-.264-.982-1.013-.716-1.673zm8.714-2.495c.49-.517 1.306-.54 1.824-.05.517.486.54 1.3.051 1.816-.253.268-.595.404-.938.404-.317 0-.636-.117-.886-.353-.518-.487-.54-1.3-.05-1.817zm-3.726-.264c.419-.575 1.226-.702 1.803-.285.576.416.705 1.221.286 1.796-.252.347-.645.531-1.045.531-.262 0-.528-.08-.757-.245-.577-.417-.704-1.222-.287-1.797zm-3.543-.153c.364-.611 1.157-.813 1.768-.45.614.364.815 1.152.451 1.763-.241.404-.67.63-1.11.63-.224 0-.452-.06-.658-.182-.613-.362-.814-1.151-.451-1.761zm9.768-1.707c.59-.399 1.392-.248 1.793.34.402.586.249 1.387-.34 1.786-.222.151-.475.224-.724.224-.413 0-.818-.197-1.069-.563-.4-.587-.249-1.387.34-1.787zm-19.626.573c.272-.656 1.026-.97 1.685-.697.66.27.973 1.023.7 1.68-.205.494-.686.794-1.193.794-.164 0-.331-.03-.492-.097-.659-.271-.972-1.023-.7-1.68zm5.568-.749c.356-.614 1.145-.826 1.763-.47.616.355.829 1.14.472 1.756-.239.413-.673.643-1.119.643-.219 0-.44-.054-.644-.17-.617-.356-.828-1.143-.472-1.759zm32.142-1.326c.444-.555 1.256-.647 1.813-.205.558.441.651 1.25.206 1.806-.253.319-.63.486-1.01.486-.282 0-.565-.091-.802-.28-.557-.442-.65-1.252-.207-1.807zm-7.08.322c.188-.685.899-1.087 1.587-.898.687.187 1.091.895.901 1.58-.158.571-.677.945-1.243.945-.114 0-.23-.015-.343-.046-.688-.189-1.091-.897-.902-1.58zm-4.936-1.239c.702-.116 1.367.359 1.483 1.06.115.702-.361 1.362-1.064 1.477-.072.013-.141.017-.211.017-.621 0-1.168-.446-1.272-1.077-.116-.7.36-1.362 1.064-1.477zm3.279-.181c.712.036 1.258.641 1.222 1.35-.037.688-.606 1.22-1.29 1.22l-.066-.001c-.712-.037-1.258-.642-1.222-1.351.036-.71.644-1.254 1.356-1.218zm-14.985-.693c.532-.474 1.347-.428 1.822.101.475.53.43 1.342-.102 1.816-.246.22-.552.327-.859.327-.355 0-.707-.144-.962-.429-.475-.53-.43-1.341.101-1.815zm21.057.318c.337-.627 1.118-.861 1.747-.525.628.336.864 1.115.527 1.741-.233.433-.679.678-1.139.678-.205 0-.414-.048-.609-.153-.628-.336-.863-1.115-.526-1.741zm-14.068-1.208c.655-.28 1.414.022 1.696.675.28.652-.021 1.409-.677 1.689-.166.07-.339.104-.509.104-.5 0-.976-.29-1.185-.778-.283-.653.021-1.408.675-1.69zm-10.005-.391c.502-.503 1.32-.504 1.825-.002.504.5.505 1.316.003 1.819-.254.25-.583.378-.914.378-.331 0-.66-.126-.912-.377-.504-.5-.506-1.315-.002-1.818zm13.116-.62c.693-.158 1.386.275 1.545.966.16.693-.275 1.383-.97 1.542-.097.02-.193.032-.288.032-.59 0-1.12-.403-1.257-1-.16-.692.274-1.382.97-1.54zm-7.513-.073c.597-.388 1.397-.218 1.785.376.389.595.22 1.392-.378 1.78-.217.14-.461.208-.703.208-.42 0-.835-.205-1.082-.585-.389-.595-.219-1.392.378-1.78zm13.884-.238l.132.01c.706.095 1.204.74 1.11 1.444-.087.647-.641 1.118-1.277 1.118-.058 0-.114-.004-.172-.012-.707-.092-1.203-.74-1.11-1.443.093-.705.743-1.2 1.449-1.106zm6.105-.112c.34-.625 1.124-.856 1.75-.517.626.339.858 1.12.518 1.744-.234.428-.677.672-1.135.672-.207 0-.418-.05-.614-.156-.627-.339-.859-1.118-.519-1.743zm-29.613-.567c.434-.563 1.243-.67 1.81-.238.566.431.672 1.24.24 1.802-.255.331-.638.504-1.027.504-.273 0-.55-.087-.783-.265-.566-.433-.672-1.24-.24-1.803zm6.406-.481c.565-.433 1.374-.328 1.81.234.435.562.329 1.37-.236 1.804-.234.18-.511.267-.786.267-.386 0-.768-.172-1.023-.502-.435-.563-.33-1.369.235-1.803zm29.275-.107c.433-.562 1.243-.67 1.808-.239.566.433.674 1.24.242 1.804-.256.33-.638.503-1.027.503-.273 0-.55-.086-.783-.264-.566-.432-.674-1.24-.24-1.804zm-8.946.092c.24-.67.98-1.018 1.65-.78.671.24 1.02.975.782 1.644-.19.526-.686.854-1.216.854-.144 0-.29-.024-.434-.075-.671-.24-1.02-.975-.782-1.643zM29.792 9.943c.688-.189 1.398.212 1.586.897.19.684-.212 1.392-.9 1.581-.114.032-.23.047-.343.047-.566 0-1.085-.373-1.243-.944-.19-.684.212-1.393.9-1.58zm8.18.636c.134-.698.81-1.155 1.51-1.022.7.134 1.159.807 1.025 1.504-.118.616-.658 1.046-1.266 1.046-.08 0-.16-.008-.242-.023-.7-.133-1.16-.808-1.027-1.505zm-4.98-1.256c.707-.082 1.348.424 1.43 1.129.082.705-.425 1.343-1.134 1.425-.05.006-.1.009-.149.009-.647 0-1.205-.483-1.281-1.138-.082-.707.425-1.343 1.134-1.425zm-9.706.118c.616-.357 1.405-.148 1.764.466.358.614.148 1.4-.468 1.758-.205.118-.428.174-.647.174-.444 0-.879-.23-1.117-.64-.358-.614-.149-1.403.468-1.758zm22.535.434c.355-.616 1.144-.827 1.76-.473.618.355.83 1.142.474 1.756-.238.413-.673.644-1.119.644-.219 0-.44-.056-.642-.172-.618-.354-.83-1.14-.473-1.755zM17.406 7.371c.565-.432 1.374-.328 1.81.235.435.561.329 1.369-.236 1.803-.234.18-.511.268-.786.268-.386 0-.768-.173-1.023-.502-.435-.563-.33-1.37.235-1.804zm22.73.533c.183-.687.89-1.095 1.578-.914.69.183 1.1.887.917 1.574-.153.575-.675.956-1.246.956-.11 0-.222-.014-.333-.044-.689-.182-1.099-.885-.916-1.572zM32.257 6.39c.706-.092 1.354.402 1.448 1.107.093.704-.404 1.35-1.11 1.444-.057.007-.115.01-.171.01-.637 0-1.192-.47-1.277-1.118-.094-.703.404-1.35 1.11-1.443zm6.206-.02l.132.01c.707.09 1.207.735 1.116 1.44-.084.649-.64 1.122-1.279 1.122-.054 0-.11-.004-.165-.01-.708-.091-1.207-.736-1.116-1.44.091-.704.738-1.202 1.444-1.111zm8.496-.351c.272-.657 1.026-.97 1.685-.7.659.272.971 1.024.7 1.68-.205.496-.686.796-1.193.796-.164 0-.331-.032-.492-.097-.66-.27-.972-1.023-.7-1.68zM27.52 4.038c.714-.002 1.292.573 1.294 1.284.001.71-.576 1.286-1.29 1.288-.713 0-1.29-.575-1.291-1.285-.002-.71.575-1.286 1.287-1.287zM36.278 0l.132.01c.707.09 1.206.734 1.115 1.44-.083.649-.639 1.122-1.278 1.122-.055 0-.11-.005-.165-.01-.708-.091-1.207-.736-1.116-1.44.091-.704.738-1.202 1.444-1.111z"/>
                <path fill="#99CA80" d="M23.115 58.065c.355-.615 1.14-.826 1.756-.47.613.355.823 1.143.468 1.76-.237.413-.67.645-1.112.645-.22 0-.44-.056-.642-.173-.614-.356-.824-1.145-.47-1.762zm11.972-6.008c.708 0 1.284.576 1.284 1.289.002.71-.574 1.289-1.283 1.289-.71 0-1.284-.577-1.286-1.288 0-.712.575-1.29 1.285-1.29zm10.803-2.905c.613-.356 1.399-.145 1.754.47.355.616.147 1.404-.467 1.76-.204.119-.425.175-.644.175-.442 0-.873-.23-1.112-.643-.355-.617-.146-1.406.469-1.762zm-17.318.144c.188-.687.893-1.09 1.578-.903.685.188 1.088.897.9 1.583-.155.572-.673.95-1.237.95-.113 0-.227-.015-.34-.047-.684-.186-1.088-.896-.9-1.583zm-8.448-1.474c.432-.564 1.237-.67 1.801-.238.562.434.668 1.244.236 1.808-.253.33-.633.505-1.02.505-.272 0-.547-.088-.78-.267-.563-.434-.67-1.242-.237-1.808zm17.054-1.954c.703-.095 1.35.399 1.445 1.105.095.705-.4 1.354-1.102 1.448-.059.01-.116.012-.174.012-.633 0-1.184-.47-1.27-1.115-.096-.707.398-1.356 1.101-1.45zm-7.1.726c.157-.694.844-1.13 1.536-.971.692.157 1.126.847.969 1.541-.135.598-.665 1.004-1.251 1.004-.095 0-.19-.01-.286-.032-.692-.157-1.126-.847-.968-1.542zm-9.198-2.162c.47-.532 1.284-.579 1.813-.106.53.473.577 1.289.105 1.82-.253.286-.605.432-.959.432-.304 0-.609-.108-.854-.326-.53-.473-.577-1.289-.105-1.82zm20.082-2.929c.627-.335 1.405-.096 1.738.532.332.63.095 1.409-.532 1.744-.192.101-.398.15-.602.15-.459 0-.903-.247-1.134-.684-.333-.628-.096-1.408.53-1.742zm-26.361-.744c.613-.357 1.4-.147 1.756.468.355.616.146 1.404-.469 1.762-.202.118-.423.174-.642.174-.443 0-.875-.23-1.112-.643-.357-.615-.147-1.404.467-1.761zm9.544-1.767c.514-.49 1.327-.468 1.815.049.488.515.467 1.331-.047 1.82-.25.237-.567.355-.884.355-.34 0-.68-.134-.932-.401-.488-.517-.467-1.333.048-1.823zm-15.21-.769c.686-.185 1.39.223 1.573.911.184.687-.222 1.394-.907 1.579-.112.03-.224.044-.334.044-.567 0-1.086-.38-1.24-.956-.183-.686.223-1.393.908-1.578zm7.194-1.564c.658-.267 1.406.051 1.672.711.266.661-.051 1.412-.708 1.678-.158.064-.32.094-.48.094-.509 0-.99-.303-1.193-.805-.266-.66.051-1.411.709-1.678zm-1.004-6.025c.707-.055 1.325.476 1.38 1.185.054.71-.475 1.33-1.182 1.385l-.1.003c-.664 0-1.228-.514-1.28-1.19-.054-.71.475-1.329 1.182-1.383zm-13.842-.731c.708 0 1.284.576 1.286 1.287 0 .713-.574 1.29-1.283 1.29C.574 32.48 0 31.904 0 31.193c-.002-.711.573-1.289 1.283-1.29zm20.027-2.314l.131.008c.706.076 1.217.71 1.141 1.417-.069.661-.627 1.153-1.275 1.153-.045 0-.09-.002-.137-.006-.706-.076-1.217-.711-1.141-1.42.075-.706.707-1.22 1.412-1.144zm.789-5.038c.366-.61 1.154-.807 1.762-.44.607.367.804 1.159.44 1.77-.242.402-.667.624-1.103.624-.226 0-.454-.06-.66-.185-.608-.367-.805-1.158-.44-1.77zm-9.389-1.448c.271-.658 1.022-.972 1.678-.699.656.272.968 1.025.696 1.683-.204.496-.683.796-1.187.796-.164 0-.33-.03-.49-.097-.656-.271-.967-1.025-.697-1.683zm30.33-2.176c.458-.544 1.268-.61 1.81-.151.54.46.607 1.273.15 1.816-.254.302-.617.457-.981.457-.293 0-.588-.1-.83-.305-.54-.461-.609-1.274-.15-1.817zm-20.533-1.714c.512-.493 1.325-.475 1.816.037.49.515.473 1.33-.04 1.823-.247.24-.567.36-.888.36-.337 0-.675-.134-.926-.398-.491-.514-.474-1.33.038-1.822zm6.945-.946c.657-.264 1.405.056 1.67.717.263.66-.058 1.411-.715 1.675-.157.064-.319.093-.477.093-.51 0-.992-.307-1.193-.81-.264-.661.056-1.41.715-1.675zm-13.586-.654c.432-.564 1.237-.672 1.801-.238.563.432.67 1.242.239 1.806-.254.332-.635.505-1.022.505-.272 0-.547-.087-.78-.266-.563-.433-.67-1.241-.238-1.807zm23.172-1.76c.218-.678.942-1.05 1.617-.831.676.218 1.046.945.828 1.622-.175.546-.68.893-1.222.893-.13 0-.263-.02-.395-.062-.675-.218-1.045-.946-.828-1.622zM26.372 10.97c.647-.293 1.407-.005 1.699.644.291.649.004 1.413-.642 1.706-.173.077-.351.113-.528.113-.49 0-.958-.282-1.172-.76-.292-.648-.004-1.41.643-1.703zm9.476-1.856c.71.026 1.264.623 1.238 1.334-.026.696-.595 1.242-1.283 1.242h-.047c-.709-.026-1.263-.623-1.237-1.334.025-.711.62-1.268 1.33-1.242zm6.769-.493c.27-.658 1.021-.972 1.677-.7.656.271.967 1.024.696 1.682-.204.498-.682.798-1.187.798-.163 0-.33-.032-.49-.097-.656-.271-.967-1.025-.696-1.683zm11.031-3.388c.27-.658 1.021-.972 1.677-.7.656.271.967 1.025.697 1.683-.204.497-.683.797-1.188.797-.163 0-.33-.032-.49-.097-.655-.271-.967-1.025-.696-1.683zM19.528 1.37c.614-.358 1.4-.149 1.757.467.356.615.148 1.404-.466 1.761-.204.119-.426.175-.644.175-.442 0-.874-.23-1.112-.641-.356-.616-.148-1.406.466-1.762z"/>
                <path fill="#E689AA" d="M41.5 54.84c.656-.271 1.408.039 1.68.695.272.655-.037 1.408-.694 1.68-.162.067-.328.098-.493.098-.504 0-.982-.298-1.188-.792-.272-.656.04-1.408.695-1.68zm-13.418-2.525c.183-.686.888-1.093 1.575-.91.685.183 1.093.886.91 1.572-.153.575-.673.955-1.242.955-.109 0-.22-.014-.331-.044-.687-.183-1.095-.886-.912-1.573zm25.072-2.425c.563-.433 1.37-.327 1.804.236.432.562.326 1.37-.236 1.802-.233.18-.509.266-.782.266-.386 0-.769-.172-1.022-.502-.432-.562-.326-1.37.236-1.802zm-11.596-1.85c.667-.24 1.404.107 1.644.776.24.667-.106 1.403-.774 1.644-.144.05-.29.077-.434.077-.528 0-1.023-.327-1.21-.852-.241-.668.105-1.405.774-1.645zm-15.627.123c.29-.648 1.051-.938 1.699-.648.647.29.937 1.051.647 1.698-.213.478-.682.761-1.174.761-.175 0-.354-.036-.525-.113-.647-.29-.938-1.05-.647-1.698zm-7.796-2.357c.502-.502 1.316-.502 1.818-.001.502.502.502 1.315.001 1.82-.25.25-.58.376-.91.376-.329 0-.657-.126-.908-.377-.504-.5-.504-1.314-.001-1.818zm6.741-1.914c.39-.593 1.19-.756 1.782-.365.592.39.755 1.19.363 1.78-.246.375-.656.578-1.073.578-.242 0-.49-.068-.707-.213-.593-.39-.756-1.187-.365-1.78zm6.865.077c.115-.7.774-1.177 1.475-1.063.702.113 1.178.774 1.063 1.474-.101.63-.647 1.08-1.267 1.08-.069 0-.137-.004-.206-.017-.702-.113-1.178-.774-1.065-1.474zm13.239-1.275c.553-.443 1.362-.354 1.806.201.443.555.352 1.364-.201 1.807-.238.19-.52.282-.802.282-.378 0-.752-.167-1.006-.484-.443-.554-.353-1.363.203-1.806zm-31.407-4.59c.654-.273 1.408.037 1.68.693.272.655-.038 1.408-.693 1.68-.161.068-.33.1-.493.1-.504 0-.983-.3-1.189-.792-.272-.657.038-1.408.695-1.68zm5.046-4.335c.685-.189 1.393.212 1.582.895.19.685-.212 1.393-.897 1.582-.115.032-.23.047-.343.047-.563 0-1.08-.373-1.238-.944-.19-.683.212-1.39.896-1.58zm-6.302-4.532c.71 0 1.286.575 1.287 1.284 0 .71-.575 1.287-1.284 1.287-.712 0-1.287-.575-1.287-1.284-.002-.71.573-1.286 1.284-1.287zm5.394-3.554c.188-.683.896-1.087 1.58-.9.685.188 1.089.896.901 1.58-.157.57-.675.946-1.24.946-.112 0-.227-.015-.34-.046-.684-.187-1.088-.895-.9-1.58zm-9.31-.706c.183-.687.887-1.095 1.574-.912.686.183 1.095.886.912 1.573-.153.575-.673.955-1.242.954-.11 0-.221-.014-.331-.042-.687-.183-1.094-.887-.913-1.573zm32.18-7.339c.331-.627 1.11-.866 1.738-.535.628.332.867 1.11.535 1.737-.231.436-.677.685-1.139.685-.202 0-.408-.048-.599-.15-.627-.33-.868-1.11-.535-1.737zm-21.72-.615c.45-.55 1.261-.626 1.809-.176.549.45.626 1.261.175 1.81-.254.309-.621.468-.993.468-.288 0-.577-.096-.816-.294-.549-.45-.627-1.26-.175-1.808zm6.347-1.68c.591-.392 1.388-.232 1.782.361.392.591.231 1.388-.362 1.781-.218.145-.464.215-.71.215-.415 0-.824-.203-1.072-.575-.391-.592-.231-1.39.362-1.782zm21.066-1.493c.43-.566 1.236-.676 1.802-.245.566.43.675 1.235.245 1.801-.253.331-.637.507-1.024.507-.27 0-.545-.085-.777-.262-.566-.431-.675-1.237-.246-1.801zM34.4 12.342c.71-.031 1.31.516 1.343 1.225.032.71-.517 1.311-1.225 1.343l-.06.002c-.684 0-1.253-.537-1.283-1.227-.033-.71.516-1.31 1.225-1.343zM10.312 10.13c.5-.502 1.316-.504 1.818-.002.502.5.504 1.316.003 1.818-.253.25-.58.378-.91.378-.33 0-.658-.126-.91-.377-.502-.5-.503-1.314-.001-1.817zm15.63-1.989c.656-.272 1.41.038 1.682.693.273.655-.037 1.408-.693 1.682-.162.066-.329.098-.493.098-.504 0-.982-.298-1.188-.791-.274-.656.036-1.408.693-1.682zm2.999-1.022c.685-.184 1.39.222 1.575.907.184.687-.221 1.392-.908 1.576-.112.03-.224.044-.334.044-.567 0-1.086-.378-1.24-.951-.185-.685.22-1.391.907-1.576zm6.262-.829c.711-.001 1.288.574 1.29 1.284 0 .71-.574 1.286-1.285 1.287-.71 0-1.286-.574-1.287-1.284-.002-.709.573-1.285 1.282-1.287zm7.83-2.807c.27-.657 1.022-.97 1.679-.7.656.272.968 1.023.697 1.68-.204.496-.683.795-1.189.795-.163 0-.33-.032-.49-.097-.656-.27-.968-1.022-.697-1.678z"/>
            </g>
        </g>
    </g>
</svg>
