<svg width="48" height="48" viewBox="0 0 48 48" xmlns="http://www.w3.org/2000/svg">
    <g fill="none" fill-rule="evenodd">
        <circle stroke="#7786FF" fill="#F4F6FF" cx="24" cy="24" r="23.5"/>
        <path d="M24 13c6.075 0 11 4.925 11 11s-4.925 11-11 11-11-4.925-11-11 4.925-11 11-11zm.863 3.667h-1.618v1.757c-.836.167-1.512.551-2.029 1.152-.516.602-.775 1.32-.775 2.157 0 .722.155 1.3.465 1.734.31.434.681.755 1.112.964.345.168.765.328 1.26.482l.385.114c.458.136.811.254 1.058.353.247.1.452.233.614.4a.887.887 0 0 1 .242.644c0 .428-.146.76-.438.996-.292.235-.712.353-1.26.353-.911 0-1.768-.286-2.573-.856l-.299-.227-.674 1.741a4.46 4.46 0 0 0 1.315.816c.38.157.783.27 1.207.338l.43.054v1.694h1.618v-1.757c.845-.167 1.517-.54 2.016-1.121.498-.58.748-1.294.748-2.141 0-.711-.15-1.276-.452-1.694a2.803 2.803 0 0 0-1.085-.926 10.014 10.014 0 0 0-1.23-.467l-.374-.113a12.353 12.353 0 0 1-1.092-.361 1.725 1.725 0 0 1-.647-.44c-.171-.188-.256-.428-.256-.72 0-.43.146-.764.438-1.005.292-.24.68-.36 1.166-.36.775 0 1.557.285 2.346.855l.296.227.674-1.741c-.288-.304-.66-.557-1.119-.761a5.782 5.782 0 0 0-1.084-.358l-.385-.074v-1.71z" fill="#7786FF" fill-rule="nonzero"/>
    </g>
</svg>
