<svg width="32" height="32" viewBox="0 0 32 32" xmlns="http://www.w3.org/2000/svg">
    <g fill="none" fill-rule="evenodd">
        <circle stroke="#D5DEE4" fill="#FCFAF9" cx="16" cy="16" r="15.5"/>
        <path d="M16 8a8 8 0 1 1 0 16 8 8 0 0 1 0-16zm.627 2.667h-1.176v1.277c-.608.122-1.1.402-1.476.839-.375.437-.563.96-.563 1.569 0 .524.113.944.338 1.26.225.316.495.55.809.702.25.121.556.238.916.35l.28.083c.333.1.59.185.77.257.18.072.328.17.446.29a.645.645 0 0 1 .176.469c0 .311-.106.553-.319.724-.212.171-.518.257-.916.257-.663 0-1.286-.208-1.871-.622l-.217-.165-.49 1.266c.267.243.586.44.955.593.277.114.57.196.878.246l.313.04v1.231h1.177v-1.277c.614-.122 1.103-.394 1.466-.816.362-.422.544-.941.544-1.557 0-.517-.11-.928-.329-1.232a2.038 2.038 0 0 0-.789-.673 7.283 7.283 0 0 0-.894-.34l-.273-.083a8.984 8.984 0 0 1-.794-.262 1.254 1.254 0 0 1-.47-.32.751.751 0 0 1-.187-.524c0-.312.107-.555.319-.73.212-.175.495-.263.848-.263.564 0 1.132.208 1.706.622l.216.165.49-1.266a2.51 2.51 0 0 0-.814-.553 4.205 4.205 0 0 0-.789-.26l-.28-.054v-1.243z" fill="#D5DEE4"/>
    </g>
</svg>
