<svg width="48" height="48" viewBox="0 0 48 48" xmlns="http://www.w3.org/2000/svg">
    <g fill="none" fill-rule="evenodd">
        <circle stroke="#7786FF" fill="#F4F6FF" cx="24" cy="24" r="23.5"/>
        <path d="M24.004 13c1.657 0 3.001 1.374 3.001 3.068v1.98l.61.025c2.505.109 4.499.34 4.834.696.356.377.516 2.565.551 5.23L31.94 24c-1.62 0-2.934 1.343-2.934 3 0 1.593 1.215 2.896 2.75 2.994l.185.006h.97l-.041.937c-.108 2.228-.264 3.962-.42 4.294-.485 1.025-15.757 1.025-16.724 0-.968-1.026-.968-15.436 0-16.462.354-.376 2.567-.614 5.276-.714v-1.987c0-1.694 1.344-3.068 3.002-3.068z" fill="#7786FF" fill-rule="nonzero"/>
    </g>
</svg>
