<svg width="32" height="32" viewBox="0 0 32 32" xmlns="http://www.w3.org/2000/svg">
    <g fill="none" fill-rule="evenodd">
        <circle stroke="#D5DEE4" fill="#FCFAF9" cx="16" cy="16" r="15.5"/>
        <path d="M11.03 14.536a.363.363 0 0 1 .448-.052l.065.052 5.898 5.898a.363.363 0 0 1 .052.448l-.052.066-2.604 2.604a1.443 1.443 0 0 1-1.027.425 1.44 1.44 0 0 1-.92-.328l-.107-.097-2.737-2.737a.363.363 0 0 1-.091-.36l.03-.073.711-1.28-1.28.711a.362.362 0 0 1-.37-.01l-.063-.05-.557-.559A1.443 1.443 0 0 1 8 18.167c0-.34.116-.66.328-.92l.098-.107 2.604-2.604zM21.678 8c1.268 0 2.3 1.032 2.3 2.3 0 .66-.29 1.293-.782 1.726l-.139.113-3.841 2.7a.827.827 0 0 0-.151 1.16l.071.082.755.754c.257.257.413.588.448.945l.007.155v.102c0 .363-.124.708-.351.985l-.104.114-1.104 1.104a.362.362 0 0 1-.456.046l-.057-.046-6.536-6.536a.363.363 0 0 1-.053-.448l.053-.066 1.103-1.103c.257-.257.588-.413.945-.448l.154-.008h.103c.363 0 .707.124.984.352l.115.104.754.754c.312.312.868.298 1.177-.007l.072-.082 2.686-3.823A2.315 2.315 0 0 1 21.678 8zm.12 1.452a.727.727 0 0 0 0 1.453.727.727 0 0 0 0-1.453z" fill="#D5DEE4"/>
    </g>
</svg>
