<svg width="47" height="48" viewBox="0 0 47 48" xmlns="http://www.w3.org/2000/svg">
    <g transform="translate(.142)" fill="none" fill-rule="evenodd">
        <ellipse stroke="#7786FF" fill="#F4F6FF" cx="23.417" cy="24" rx="22.917" ry="23.5"/>
        <path d="M17.355 22.17a.435.435 0 0 1 .626 0l7.193 7.373a.462.462 0 0 1 0 .641l-3.176 3.256a1.738 1.738 0 0 1-2.505 0l-3.338-3.42a.462.462 0 0 1-.074-.542l.867-1.6-1.56.888a.434.434 0 0 1-.529-.075l-.68-.698a1.826 1.826 0 0 1-.52-1.284c0-.485.185-.94.52-1.283zM30.34 14c1.547 0 2.805 1.29 2.805 2.875 0 .9-.42 1.76-1.122 2.3l-4.685 3.374a1.056 1.056 0 0 0-.097 1.552l.92.943c.358.367.555.855.555 1.374v.128c0 .52-.197 1.007-.555 1.374l-1.346 1.38a.436.436 0 0 1-.626 0l-7.972-8.17a.462.462 0 0 1 0-.642l1.346-1.38a1.86 1.86 0 0 1 1.34-.569h.125c.507 0 .983.202 1.341.57l.92.942c.412.423 1.174.367 1.523-.11l3.276-4.78A2.801 2.801 0 0 1 30.341 14zm.148 1.816a.898.898 0 0 0-.886.907c0 .5.397.908.886.908a.898.898 0 0 0 .885-.908c0-.5-.397-.907-.885-.907z" fill="#7786FF" fill-rule="nonzero"/>
    </g>
</svg>
