<svg width="48" height="48" viewBox="0 0 48 48" xmlns="http://www.w3.org/2000/svg">
    <g fill="none" fill-rule="evenodd">
        <circle stroke="#7786FF" fill="#F4F6FF" cx="24" cy="24" r="23.5"/>
        <path d="M31 26a3 3 0 0 1 2.04 5.2l.617 3.085a.774.774 0 0 1-1.157.815l-.986-.591a1 1 0 0 0-1.028 0l-.986.591a.774.774 0 0 1-1.157-.815l.617-3.086A3 3 0 0 1 31 26zm.442-13.23c.502.532.613 6.026.536 11.327A5 5 0 0 0 26 29l.007.263c.045.872.316 1.702.773 2.42l.033.048-.431 2.162c-.07.35-.071.707-.007 1.052l-.595.02c-4.618.133-10.468-.112-11.055-.734-.967-1.026-.967-20.436 0-21.462.967-1.025 15.75-1.025 16.717 0zM23 25h-5l-.117.007a1 1 0 0 0 0 1.986L18 27h5l.117-.007A1 1 0 0 0 23 25zm5-4H18l-.117.007a1 1 0 0 0 0 1.986L18 23h10l.117-.007A1 1 0 0 0 28 21zm0-4H18l-.117.007a1 1 0 0 0 0 1.986L18 19h10l.117-.007A1 1 0 0 0 28 17z" fill="#7786FF" fill-rule="nonzero"/>
    </g>
</svg>
