<svg width="32" height="32" viewBox="0 0 32 32" xmlns="http://www.w3.org/2000/svg">
    <g fill="none" fill-rule="evenodd">
        <circle stroke="#D5DEE4" fill="#FCFAF9" cx="16" cy="16" r="15.5"/>
        <path d="M20.9 17.65c1.16 0 2.1.927 2.1 2.069 0 .599-.259 1.138-.672 1.516l.432 2.127a.534.534 0 0 1-.425.628.549.549 0 0 1-.385-.066l-.69-.408a.71.71 0 0 0-.72 0l-.69.408a.546.546 0 0 1-.743-.183.527.527 0 0 1-.067-.38l.432-2.126a2.048 2.048 0 0 1-.672-1.516c0-1.142.94-2.068 2.1-2.068zm.31-9.12c.35.368.428 4.155.374 7.809a3.492 3.492 0 0 0-.684-.067c-1.933 0-3.5 1.543-3.5 3.447l.005.181a3.4 3.4 0 0 0 .541 1.668l.023.033-.302 1.49c-.049.242-.05.488-.004.726l-.417.013c-3.233.092-7.328-.076-7.738-.505-.677-.707-.677-14.088 0-14.795.677-.707 11.024-.707 11.701 0zm-5.91 8.432h-3.5l-.082.004a.693.693 0 0 0-.618.685c0 .353.27.645.618.685l.082.004h3.5l.082-.004A.693.693 0 0 0 16 17.65c0-.38-.313-.69-.7-.69zm3.5-2.758h-7l-.082.005a.693.693 0 0 0-.618.684c0 .354.27.645.618.685l.082.005h7l.082-.005a.693.693 0 0 0 .618-.685c0-.38-.313-.689-.7-.689zm0-2.757h-7l-.082.004a.693.693 0 0 0-.618.685c0 .354.27.645.618.685l.082.004h7l.082-.004a.693.693 0 0 0 .618-.685c0-.38-.313-.69-.7-.69z" fill="#D5DEE4"/>
    </g>
</svg>
