<svg xmlns="http://www.w3.org/2000/svg" width="324" height="324" viewBox="0 0 324 324">
    <g fill="none" fill-rule="evenodd">
        <g fill-rule="nonzero">
            <g>
                <g>
                    <g>
                        <g fill="#7786FF" opacity=".1">
                            <path d="M51.638 262.713C29.25 249.905 3.867 232.338.658 202.044c-1.458-13.78 2.207-27.52 3.27-41.35 2.026-26.811-5.69-54.22-.89-80.474 4.89-26.669 23.6-48.6 45.38-53.206 21.971-4.628 88.087-21.83 99.782-24.3 30.962-6.582 64.182-1.479 89.829 20.979 10.398 9.112 21.171 46.2 32.4 53.53 12.059 7.827 27.246 12.211 33.787 27.064 3.2 7.25 3.675 15.826 3.746 24.088.21 23.443-2.314 46.832-7.523 69.69-4.192 18.276-10.408 36.521-21.546 49.613-12.747 14.964-30.375 21.434-47.233 27.428-36.45 12.92-74.925 25.91-111.659 14.287l-68.364-26.68z" transform="translate(-995 -1228) translate(121 1228) translate(874) translate(8.1 15.188)"/>
                        </g>
                        <path fill="#D4DAFF" d="M37.847 229.595c24.766-7.817 51.81-16.2 78.358-15.836 17.81.253 74.793-2.815 82.012-3.655 10.378-1.195 46.393-1.195 49.683-.385 3.564.87 20.797 6.652 24.422 7.35 14.499 2.755 52.812 20.646 8.475 29.363-7.574 1.489-15.188 2.744-22.7 4.476-5.964 1.387-11.806 3.33-17.972 3.817-8.1.648-16.281-1.286-24.422-.83-9.366.526-18.083 4.171-27.388 5.214-7.594.85-15.289-.06-22.923-.557-22.113-1.458-44.317.466-66.47 1.458-3.365.3-6.754.14-10.075-.476-5.812-1.357-10.125-5.275-14.813-8.333-5.913-3.807-12.849-6.399-18.964-9.973-5.576-3.26-10.513-7.508-14.57-12.535" transform="translate(-995 -1228) translate(121 1228) translate(874) translate(8.1 15.188)"/>
                        <path fill="#000" d="M238.343 89.667l.486 6.683c1.012 5.062 3.989 9.406 6.925 13.587.526.857 1.214 1.603 2.025 2.197 1.38.836 3.134.723 4.394-.283.422-.432.88-.829 1.367-1.185.679-.395 4.85-3.746 5.518-5.406 1.63-4.05 1.519-7.726.83-12.05-.122-1.25-.483-2.467-1.063-3.584-.57-.933-1.36-1.715-2.298-2.278-9.234-5.71-18.184 2.319-18.184 2.319z" transform="translate(-995 -1228) translate(121 1228) translate(874) translate(8.1 15.188)"/>
                        <path fill="#FFF" d="M246.696 116.205c.976-.846 1.392-2.17 1.073-3.423-.517-1.873-2.511-2.906-3.716-4.444-.778-1.095-1.338-2.33-1.65-3.635-.8-2.775-3.109-10.865-.132-14.631 2.764-3.503 11.138-5.943 15.025 1.822 1.904 3.818 2.471 8.576.598 12.444-.689 1.448-1.772 2.683-2.562 4.05-.902 1.346-1.155 3.025-.688 4.577.344.86 1.012 1.863.435 2.602-.203.222-.456.392-.739.496-1.488.709-7.644.142-7.644.142z" transform="translate(-995 -1228) translate(121 1228) translate(874) translate(8.1 15.188)"/>
                        <path fill="#000" d="M246.959 116.438c1.863-1.772 1.488-4.202-.152-5.944-1.073-1.134-2.329-2.025-3.037-3.402-.565-1.177-.997-2.413-1.286-3.685-1.145-4.172-2.805-10.682.951-14.003 3.332-2.947 8.738-3.19 11.877.152 2.26 2.656 3.467 6.05 3.392 9.537.016 1.878-.429 3.731-1.296 5.397-.81 1.539-2.025 2.835-2.724 4.425-.662 1.282-.793 2.773-.364 4.15.344 1.013 1.103 2.168-.324 2.725-.53.148-1.08.217-1.63.202-1.88.054-3.76-.014-5.63-.203-.486 0-.486.72 0 .76 2.218.202 10.51 1.438 8.647-2.936-.523-1.003-.67-2.16-.415-3.26.312-1.038.794-2.017 1.427-2.896 1.1-1.458 1.968-3.077 2.572-4.8.857-3.282.579-6.757-.79-9.861-.917-2.587-2.836-4.696-5.325-5.853-2.11-.79-4.432-.79-6.541 0-1.836.573-3.44 1.72-4.577 3.27-1.468 2.208-1.417 5.175-1.134 7.706.31 2.802.949 5.559 1.904 8.211.619 1.572 1.621 2.965 2.916 4.05 1.7 1.56 3.118 3.736 1.012 5.72-.394.375.173.912.527.537z" transform="translate(-995 -1228) translate(121 1228) translate(874) translate(8.1 15.188)"/>
                        <path fill="#CBCDE5" d="M256.547 212.868c-1.457 1.114-2.475 2.705-2.875 4.495-.506 3.099 23.399.082 23.287-2.349-.111-2.43-2.865-5.67-4.272-7.39-.02 0-12.333 1.964-16.14 5.244z" transform="translate(-995 -1228) translate(121 1228) translate(874) translate(8.1 15.188)"/>
                        <path fill="#000" d="M256.274 212.625c-1.284 1.026-2.256 2.39-2.805 3.939-.172.556-.324 1.093.081 1.559.668.77 2.147.82 3.038.89 4.131.204 8.272-.092 12.332-.88 1.875-.278 3.729-.684 5.548-1.215.81-.263 2.258-.608 2.704-1.448.344-.658-.101-1.65-.344-2.258-.683-1.516-1.569-2.933-2.633-4.212-.425-.557-1.012-1.66-1.721-1.71-.474.03-.943.114-1.397.252-2.585.475-5.143 1.083-7.665 1.823-2.583.606-5.022 1.713-7.179 3.26-.374.304.173.84.537.537 1.709-1.238 3.63-2.151 5.67-2.694 2.12-.678 4.272-1.249 6.45-1.71.79-.173 1.59-.335 2.39-.487.434-.144.888-.226 1.346-.243h.09c-.343-.162 0 .334.051.395.375.618.942 1.165 1.367 1.752.949 1.169 1.691 2.49 2.197 3.908.183.607.345.891-.1 1.276-.385.277-.818.48-1.276.597-1.417.487-2.87.863-4.344 1.124-3.704.733-7.464 1.15-11.239 1.245-1.52.113-3.049 0-4.536-.334-.273-.08-.719-.182-.84-.486-.193-.516.557-1.71.81-2.116.538-.835 1.2-1.582 1.964-2.217.405-.355-.121-.891-.496-.547z" transform="translate(-995 -1228) translate(121 1228) translate(874) translate(8.1 15.188)"/>
                        <path fill="#CBCDE5" d="M239.193 214.964c-1.454 1.112-2.472 2.7-2.876 4.485-.506 3.109 23.4.081 23.288-2.339-.111-2.42-2.865-5.67-4.273-7.39-.02 0-12.332 1.994-16.139 5.244z" transform="translate(-995 -1228) translate(121 1228) translate(874) translate(8.1 15.188)"/>
                        <path fill="#000" d="M238.95 214.65c-1.284 1.03-2.256 2.397-2.805 3.949-.172.547-.324 1.093.081 1.559.669.77 2.147.81 3.038.88 4.13.202 8.27-.09 12.332-.87 1.876-.277 3.73-.686 5.549-1.225.81-.253 2.257-.597 2.703-1.448.344-.658-.101-1.64-.344-2.258-.681-1.517-1.567-2.934-2.633-4.212-.425-.547-1.012-1.66-1.71-1.71-.478.033-.95.118-1.408.252-2.582.496-5.144 1.084-7.665 1.833-2.521.75-5.113 1.62-7.138 3.25-.375.314.172.85.547.537 1.704-1.24 3.623-2.153 5.66-2.694 2.119-.678 4.271-1.246 6.45-1.7.789-.173 1.589-.335 2.389-.487.432-.154.887-.236 1.346-.243h.091c-.344-.151 0 .335.051.395.375.628.942 1.175 1.367 1.762.946 1.167 1.689 2.485 2.197 3.898.182.618.344.891-.101 1.286-.387.273-.819.476-1.276.597-1.417.484-2.869.856-4.344 1.114-3.703.738-7.463 1.155-11.238 1.245-1.52.117-3.05.005-4.536-.334-.274-.08-.72-.182-.83-.476-.203-.516.546-1.71.8-2.116.538-.84 1.204-1.591 1.974-2.227.334-.304-.203-.84-.547-.557z" transform="translate(-995 -1228) translate(121 1228) translate(874) translate(8.1 15.188)"/>
                        <path fill="#FFF" d="M261.316 175.082L274.691 206.327 263.706 210.073 252.011 182.685z" transform="translate(-995 -1228) translate(121 1228) translate(874) translate(8.1 15.188)"/>
                        <path fill="#221F20" d="M260.921 175.304l11.715 27.338 1.66 3.888.274-.668-10.986 3.726.517.212-10.247-23.986-1.448-3.402-.08.547 9.304-7.594c.456-.375-.192-1.013-.638-.648l-9.305 7.604c-.147.144-.176.37-.07.547l10.236 23.986 1.458 3.402c.1.183.315.272.516.212l10.986-3.736c.134-.043.243-.144.295-.275.053-.13.045-.279-.022-.403l-11.714-27.338-1.671-3.877c-.223-.527-1.013-.061-.78.465z" transform="translate(-995 -1228) translate(121 1228) translate(874) translate(8.1 15.188)"/>
                        <path fill="#FFF" d="M246.037 173.867c-.86-6.642-4.363-21.708-4.363-21.708l24.543-6.734c1.209 2.716 2.204 5.523 2.976 8.394 1.762 7.493 1.418 11.31-2.976 17.466-1.013 1.397-8.475 7.857-8.475 9.618 0 2.117.901 24.786 1.347 31.803l-11.138-2.987s-4.333-29.889-1.913-35.852c2.024-4.972 11.704-16.504 14.741-19.238" transform="translate(-995 -1228) translate(121 1228) translate(874) translate(8.1 15.188)"/>
                        <path fill="#221F20" d="M246.493 173.867c-1.012-7.341-2.703-14.621-4.374-21.83l-.324.567 21.455-5.893 3.088-.85-.557-.314c2.45 6.075 5.498 13.385 3.129 19.966-.87 2.447-2.25 4.68-4.05 6.551-1.62 1.64-3.311 3.21-4.9 4.89-1.013 1.013-2.552 2.42-2.714 3.909-.044 1.067-.017 2.136.08 3.2.163 4.603.345 9.203.548 13.8.202 4.95.405 9.902.718 14.843l.578-.435-5.063-1.367-3.787-1.013c-.354-.101-1.802-.739-2.156-.587-.193.091.121.304.202.223.081-.081-.05-.324-.05-.385-.05-.591-.132-1.18-.243-1.762-.284-2.136-.557-4.283-.81-6.419-.669-5.781-1.256-11.593-1.458-17.415-.127-2.363-.083-4.731.131-7.088.29-1.987 1.047-3.878 2.207-5.518 2.072-3.21 4.352-6.281 6.825-9.193 1.877-2.398 3.924-4.659 6.125-6.764.436-.394-.212-1.012-.648-.648-3.386 3.286-6.473 6.868-9.224 10.702-1.644 2.09-3.156 4.282-4.525 6.561-.772 1.24-1.302 2.614-1.56 4.05-.425 3.995-.425 8.024 0 12.019.304 4.769.8 9.507 1.357 14.246.324 2.652.658 5.295 1.013 7.938.039.158.164.28.324.314l11.137 3.037c.138.034.284.003.396-.083.113-.087.18-.22.181-.362-.577-9.113-.89-18.276-1.225-27.419 0-1.336-.152-2.683-.121-4.05.03-1.367 1.6-2.774 2.541-3.766 1.58-1.671 3.27-3.22 4.88-4.86 1.65-1.77 2.957-3.83 3.858-6.075 2.906-6.976-.192-14.742-2.815-21.263-.073-.241-.322-.383-.567-.324l-21.455 5.863-3.088.85c-.239.069-.379.317-.314.557 1.65 7.087 3.392 14.327 4.344 21.586.07.578 1.012.578.911 0v.01z" transform="translate(-995 -1228) translate(121 1228) translate(874) translate(8.1 15.188)"/>
                        <path fill="#221F20" d="M239.325 124.062c1.65 6.51.678 13.355.79 20.007l.202 11.502c.001.141.068.274.181.36.113.085.26.113.396.075l22.842-8.019 3.22-1.134c.24-.069.382-.314.324-.557-3.21-7.999-2.299-17.06-2.299-25.484v-3.483c0-.252-.204-.456-.455-.456-.252 0-.456.204-.456.456 0 6.014-.223 12.069 0 18.083.134 3.816.914 7.582 2.309 11.137l.313-.557-22.852 8.03-3.21 1.123.578.446-.203-11.715c-.121-6.662.83-13.507-.82-20.037-.067-.243-.318-.386-.562-.32-.243.068-.386.32-.319.563l.02-.02z" transform="translate(-995 -1228) translate(121 1228) translate(874) translate(8.1 15.188)"/>
                        <path fill="#D4DAFF" d="M263.766 134.5c.486-.688 2.43-2.024 2.744-2.855 1.998-5.301 2.814-10.975 2.39-16.625-.002-.627-.162-1.244-.466-1.792-.688-.756-1.661-1.19-2.683-1.195l-6.743-.901s-3.109 6.571-13.315 3.655l-7.958 2.734s-4.627 14.55-6.956 16.301c-2.329 1.752-10.054 4.172-13.091 4.404l1.61 8.212c4.353.79 15.774-2.693 16.888-3.321 2.116-1.195 3.969-6.267 4.84-8.991l.253 5.72v-.759.901c-.385.25-.796.456-1.225.618l.111 8.454c.334 0 .486-.283.952-.425l.152 6.288 24.796-8.516c-1.357-3.34-2.299-11.907-2.299-11.907z" transform="translate(-995 -1228) translate(121 1228) translate(874) translate(8.1 15.188)"/>
                        <path fill="#221F20" d="M258.38 120.153c-.152 1.954-.324 3.898-.506 5.853-.051.496-.142 1.012-.152 1.498 0 .668-.061 0 .162 0-.172 0-.699.537-.84.638l-1.894 1.458c-3.817 2.865-7.644 5.73-11.563 8.444-1.35 1.11-2.841 2.036-4.434 2.754-.197.054-.333.232-.335.436l.162 8.231c0 .252.204.456.456.456 2.845-.314 5.7-2.076 8.181-3.382 3.503-1.853 6.946-3.878 10.297-5.994 3.038-1.913 6.268-3.949 7.857-7.3 1.264-2.869 2.097-5.909 2.47-9.021.486-2.959.578-5.968.274-8.95-.334-2.664-2.43-2.917-4.698-3.21l-5.62-.76c-.164-.001-.316.088-.394.233-1.154 2.4-4.05 3.766-6.53 4.05-1.484.16-2.983.092-4.446-.203-.755-.3-1.57-.415-2.38-.334-1.71.486-3.391 1.165-5.062 1.742-.77.273-2.44.486-2.895 1.225-.441 1.034-.78 2.11-1.013 3.21-1.336 3.898-2.643 8.039-4.769 11.583-1.134 1.893-3.32 2.592-5.305 3.33-2.71 1.114-5.557 1.863-8.465 2.228-.141.001-.274.068-.36.181-.085.114-.113.26-.075.396l1.61 8.212c.038.157.158.28.314.324 2.143.228 4.31.095 6.409-.395 2.526-.462 5.024-1.067 7.482-1.813 1.39-.256 2.715-.786 3.898-1.559 1.65-1.377 2.552-3.665 3.331-5.599.664-1.632 1.228-3.302 1.691-5.002.067-.243-.075-.494-.319-.562-.243-.067-.495.076-.562.32-.565 2.124-1.3 4.2-2.197 6.206-.529 1.368-1.305 2.628-2.288 3.716-.656.557-1.438.946-2.278 1.134-2.944.967-5.952 1.728-9.001 2.278-1.54.317-3.106.483-4.678.496-.292-.037-.586-.054-.88-.05-.294 0 .08.374-.072.151-.119-.346-.187-.707-.202-1.073l-1.418-7.017-.435.578c2.089-.243 4.145-.708 6.136-1.387 2.138-.61 4.21-1.431 6.186-2.45 2.592-1.428 3.584-4.709 4.627-7.29 1.235-3.038 2.329-6.187 3.351-9.326 0-.101.223-.476.193-.577.142.375-.628.304 0 .203.283-.079.56-.177.83-.294l4.88-1.68c.55-.243 1.119-.436 1.701-.578.935.07 1.858.243 2.754.516 2.063.344 4.179.184 6.166-.465 1.324-.461 2.528-1.212 3.524-2.198.324-.313 1.326-1.225 1.337-1.73 0-.112-.365 0-.213.181.152.183.709.102.85.122l3.321.445c1.232.07 2.453.263 3.645.578 2.025.688 1.58 3.634 1.58 5.325-.013 3.57-.524 7.122-1.519 10.55-.392 1.597-.998 3.133-1.802 4.567-.977 1.476-2.228 2.751-3.686 3.756-3.254 2.282-6.634 4.378-10.125 6.278-2.116 1.205-4.252 2.369-6.45 3.412-1.47.827-3.062 1.415-4.718 1.741l.456.456-.162-8.232-.344.446c1.338-.57 2.595-1.316 3.736-2.218 2.116-1.437 4.182-2.936 6.247-4.444 2.066-1.509 3.959-2.916 5.923-4.395 1.082-.665 2.1-1.432 3.038-2.288.374-.405.314-1.012.374-1.539.216-2.207.409-4.414.577-6.622 0-.587-.87-.577-.91 0h-.031z" transform="translate(-995 -1228) translate(121 1228) translate(874) translate(8.1 15.188)"/>
                        <path fill="#221F20" d="M239.325 124.062c1.387 5.366.962 10.914.719 16.392 0 .587.89.587.91 0 .254-5.569.659-11.138-.749-16.635-.141-.567-1.012-.324-.88.243z" transform="translate(-995 -1228) translate(121 1228) translate(874) translate(8.1 15.188)"/>
                        <path fill="#FFF" d="M216.371 146.893c-1.61-.516-2.723-2.156-3.614-3.746-1.056-1.854-1.967-3.787-2.724-5.781-.304-.79-.526-1.853.07-2.39.245-.188.535-.307.841-.344l2.653-.597c.296-.117.625-.117.921 0 .232.186.404.436.496.719.715 1.593 1.554 3.126 2.511 4.586.223.345.537.72.912.648l-.608-3.23c-.03-.133-.03-.271 0-.405.045-.141.148-.257.284-.317.135-.06.29-.059.425.004.266.144.484.362.628.627 1.185 1.676 1.822 3.678 1.822 5.731-.111 2.025-1.387 4.151-3.21 4.495h-1.407z" transform="translate(-995 -1228) translate(121 1228) translate(874) translate(8.1 15.188)"/>
                        <path fill="#221F20" d="M216.493 146.448c-1.883-.658-2.916-2.703-3.797-4.354-.527-.972-1.013-1.964-1.458-2.976-.519-.943-.862-1.973-1.013-3.038-.04-.24.021-.484.169-.677.148-.192.37-.314.611-.335.547-.132 1.104-.244 1.66-.365.557-.121 1.408-.496 1.762-.121.288.434.519.904.689 1.397.467 1.005.988 1.986 1.559 2.936.405.648.85 1.6 1.752 1.57.141-.002.274-.069.36-.182.085-.113.113-.26.075-.396l-.516-2.734c0-.182-.183-.445 0-.536.182-.091.273.152.374.304.223.324.415.678.608 1.012.823 1.413 1.22 3.034 1.144 4.668-.087 1.38-.78 2.652-1.894 3.473-.689.353-1.475.47-2.237.334-.577 0-.577.89 0 .911.577.02.921.07 1.367 0 .748-.111 1.44-.467 1.964-1.012 1.329-1.37 1.95-3.276 1.68-5.164-.133-1.055-.437-2.08-.9-3.038-.314-.927-.857-1.76-1.58-2.42-.278-.184-.63-.22-.94-.094-.31.125-.538.396-.609.722-.003.6.086 1.198.263 1.772l.375 2.025.445-.577c-.435 0-.79-.83-.962-1.124-.172-.294-.536-.88-.78-1.326-.505-.912-.91-1.884-1.396-2.805-.314-.642-1.051-.957-1.732-.74-1.012.193-2.025.396-3.037.68-1.742.506-1.286 2.389-.78 3.675.732 1.875 1.598 3.696 2.592 5.447.921 1.63 2.025 3.3 3.888 3.949.608.212.85-.669.294-.861z" transform="translate(-995 -1228) translate(121 1228) translate(874) translate(8.1 15.188)"/>
                        <path fill="#FFF" d="M240.661 145.658c.174-2.262.072-4.536-.304-6.773-.173-.417-.412-.804-.708-1.144-.589-.712-1.24-1.37-1.944-1.965-.416-.334-.942-.648-1.347-.304-.276.325-.44.73-.466 1.155-.354 2.246-.374 4.532-.06 6.784.06.455 0 1.144-.345 1.133-.202 0-.334-.273-.425-.526-.334-.942-.496-2.025-.901-2.896-.405-.87-1.185-1.63-1.944-1.377-.115.028-.212.106-.263.213-.042.142-.042.293 0 .435.461 2.976 1.442 5.848 2.895 8.485.669 1.407 4.79 2.48 5.812-3.22z" transform="translate(-995 -1228) translate(121 1228) translate(874) translate(8.1 15.188)"/>
                        <path fill="#221F20" d="M241.107 145.8c.167-1.433.167-2.88 0-4.313.053-1.217-.209-2.427-.76-3.514-.614-.876-1.342-1.666-2.167-2.349-.587-.506-1.458-1.093-2.166-.455-.709.638-.658 1.792-.74 2.602-.133 1.213-.17 2.436-.11 3.655 0 .587.09 1.164.161 1.752.032.221.05.444.05.668v.182c.045-.142.045-.294 0-.435-.218-1.048-.558-2.068-1.012-3.038-.375-.777-1.161-1.272-2.025-1.275-1.063.1-.941 1.073-.82 1.873.413 2.266 1.139 4.464 2.157 6.53.496 1.013.84 2.025 1.954 2.521.987.418 2.114.343 3.038-.202 1.339-1.006 2.197-2.526 2.369-4.192.111-.577-.77-.82-.881-.243-.355 1.863-1.499 4.577-3.888 3.908-.8-.222-1.083-.698-1.428-1.417-.918-1.787-1.641-3.667-2.156-5.61-.122-.465-.213-.941-.294-1.417-.081-.476-.152-1.073.486-.709.88.517 1.104 1.833 1.347 2.724.162.597.283 1.64.931 1.914.648.273.952-.243 1.013-.73.051-.853-.003-1.71-.162-2.55-.081-1.09-.081-2.183 0-3.271 0-.405 0-2.663.759-2.572.395.05.88.638 1.154.891.392.375.764.77 1.114 1.185.453.478.752 1.081.86 1.731.082.587.132 1.174.173 1.772.162 1.379.162 2.772 0 4.151.07.537.911.79 1.043.233z" transform="translate(-995 -1228) translate(121 1228) translate(874) translate(8.1 15.188)"/>
                        <path fill="#000" d="M255.9 88.725c-3.046-1.624-6.57-2.112-9.944-1.377-1.744.419-3.369 1.233-4.748 2.38-.891.668-1.853 1.67-1.55 2.754.108.348.3.664.558.921 1.51 1.355 3.539 1.977 5.548 1.701 2.025-.142 3.949-.709 5.944-.78.8-.057 1.605.057 2.359.335.85.38 1.575.99 2.096 1.761 1.478 2.076 1.832 4.729 2.136 7.26 1.286-2.086 1.822-6.865.75-10.824l-3.15-4.13z" transform="translate(-995 -1228) translate(121 1228) translate(874) translate(8.1 15.188)"/>
                        <path fill="#FFF" d="M215.278 175.922l-20.615-29.555-15.987-22.953c-4.121-2.582-11.138-6.248-11.138-6.248l.446 15.593h-.06l.06.091.729 25.535c4.647 9.437 27.925 49.066 28.512 49.613.587.547 25.91 12.423 35.842 19.085l10.905-11.947c-10.085-12.636-19.42-25.94-28.694-39.214z" transform="translate(-995 -1228) translate(121 1228) translate(874) translate(8.1 15.188)"/>
                        <path fill="#D4DAFF" d="M179.729 125.54L169.756 134.521 234.11 229.2 243.952 218.427z" transform="translate(-995 -1228) translate(121 1228) translate(874) translate(8.1 15.188)"/>
                        <path fill="#221F20" d="M169.29 135.25c3.574-3.038 6.794-6.622 10.672-9.315l-.618-.162c16.868 24.209 33.473 48.6 50.777 72.545 4.718 6.52 9.558 12.97 14.58 19.238v-.648l-10.915 11.947h.648c-9.318-11.552-18.04-23.572-26.132-36.014-2.579-3.97-5.184-7.925-7.817-11.867-8.14-12.15-16.298-24.3-24.472-36.45l-6.652-9.862c-.324-.475-1.114 0-.78.466 5.846 8.674 11.685 17.358 17.517 26.052 6.368 9.477 12.889 18.863 19.065 28.461 8.828 13.782 18.382 27.085 28.623 39.852.086.087.203.136.324.136.122 0 .239-.05.324-.136l10.905-11.937c.17-.183.17-.465 0-.648-9.052-11.36-17.466-23.207-25.788-35.103-8.323-11.897-16.767-23.987-25.151-36.005l-14.276-20.493c-.128-.213-.402-.285-.618-.162-3.949 2.744-7.23 6.338-10.854 9.457-.445.385.203 1.073.638.648z" transform="translate(-995 -1228) translate(121 1228) translate(874) translate(8.1 15.188)"/>
                        <path fill="#221F20" d="M169.36 160.775c2.654 5.366 5.691 10.55 8.648 15.744 3.948 6.94 7.944 13.844 11.988 20.716 2.49 4.242 4.88 8.586 7.583 12.697.648.75 1.488 1.31 2.43 1.62 2.906 1.458 5.832 2.895 8.738 4.343 8.495 4.253 17.213 8.424 25.13 13.7.496.323.952-.456.466-.79-6.976-4.648-14.61-8.384-22.082-12.15-3.301-1.66-6.605-3.308-9.913-4.941-1.012-.486-2.025-1.013-2.956-1.478-.243-.122-.496-.243-.73-.385-.232-.142 0 0-.09-.061-.818-1.117-1.536-2.302-2.147-3.544-1.512-2.51-3.004-5.025-4.475-7.543-3.962-6.75-7.88-13.5-11.755-20.25-3.423-5.994-6.966-11.958-10.014-18.144-.263-.526-1.013-.07-.79.456l-.03.01zM168.348 119.688c3.777 1.964 7.554 3.989 11.138 6.247.496.314.952-.476.456-.79-3.605-2.258-7.371-4.283-11.138-6.247-.526-.273-1.012.516-.466.79h.01z" transform="translate(-995 -1228) translate(121 1228) translate(874) translate(8.1 15.188)"/>
                        <path fill="#221F20" d="M177.086 174.616c7.189 2.116 14.58 3.402 21.79 5.427.242.067.494-.076.561-.32.067-.242-.076-.494-.319-.561-7.209-2.025-14.61-3.311-21.789-5.417-.227-.033-.443.107-.505.328-.062.221.05.454.262.543zM194.876 205.173c4.725 2.025 9.467 4.05 14.225 6.075l6.875 2.977c2.289 1.012 5.063 1.792 6.976 3.432.152.122.365-.091.223-.213-1.731-1.478-4.05-2.186-6.125-3.037l-7.341-3.18-14.681-6.307c-.183-.081-.334.182-.152.263v-.01zM193.387 202.065c7.448 3.497 15.088 6.57 22.883 9.203.052.015.109 0 .147-.038.04-.038.055-.094.04-.147-.013-.053-.054-.094-.106-.108-7.771-2.624-15.388-5.687-22.812-9.174-.182-.08-.334.173-.151.264zM191.22 198.45c2.061.197 4.078.72 5.975 1.55l5.578 2.024 11.594 4.222c.192.071.263-.222.08-.293l-12.018-4.385-6.004-2.106c-1.654-.688-3.408-1.108-5.194-1.245-.084 0-.152.068-.152.152 0 .084.068.152.152.152l-.01-.071zM188.325 194.046c3.31 1.954 7.088 2.956 10.743 4.15l12.15 4.05c.182.062.263-.232.08-.293l-11.765-3.868c-3.736-1.235-7.695-2.247-11.137-4.262-.073-.045-.168-.022-.213.05-.044.073-.022.168.05.213l.092-.04zM187.1 190.735c7.272 1.658 14.426 3.8 21.414 6.409.182.07.263-.223.081-.294-6.988-2.61-14.142-4.75-21.414-6.409-.193 0-.274.253-.081.294zM183.93 186.179c7.095 2.605 14.267 4.984 21.516 7.138.183.06.264-.233.081-.294-7.25-2.153-14.421-4.533-21.515-7.138-.183-.071-.263.223-.081.294zM181.916 182.331c6.331 2.167 12.744 4.04 19.237 5.62.193 0 .274-.254.081-.294-6.5-1.58-12.912-3.453-19.237-5.62-.182-.06-.263.233-.081.294zM179.547 178.737l16.878 4.87c.081.022.165-.025.187-.107.023-.08-.025-.165-.106-.187l-16.828-4.87c-.052-.014-.108 0-.147.038-.039.039-.054.094-.04.147.013.053.054.094.106.109h-.05zM173.654 168.561c5.872 1.408 11.66 3.15 17.334 5.214.182.071.263-.222.08-.293-5.674-2.065-11.461-3.806-17.333-5.215-.193 0-.274.254-.081.294zM172.824 165.959c4.995 1.35 10.027 2.464 15.096 3.341.192 0 .273-.253.081-.294-5.076-.91-10.108-2.024-15.096-3.34-.081-.023-.165.024-.188.106-.022.08.026.165.107.187zM170.697 163.012c2.261.562 4.549 1.008 6.855 1.337 1.013.162 2.116.284 3.18.395 1.225-.024 2.448.14 3.624.486.182.08.334-.182.152-.263-.92-.307-1.885-.457-2.855-.446-1.256-.101-2.511-.243-3.757-.425-2.384-.338-4.75-.798-7.087-1.377-.081-.022-.165.025-.188.106-.022.081.026.165.107.188h-.03zM169.573 159.975c2.91.566 5.847.985 8.8 1.256.192 0 .192-.284 0-.304-2.926-.263-5.836-.68-8.718-1.246-.193 0-.274.254-.082.294zM168.581 157.08c2.529.058 5.045.366 7.513.92.182 0 .273-.252.081-.293-2.495-.558-5.038-.87-7.594-.931-.192 0-.192.293 0 .303zM168.46 154.264l.111-.151.112.1c-.061.102 0 .143.07.102h4.708c.193 0 .193-.293 0-.304h-4.12c-.253-.025-.507-.025-.76 0-.283.061-.243.456 0 .385.067-.014.113-.074.112-.142 0-.192-.294-.192-.304 0l.07.01zM168.48 151.966l3.473.304c.192 0 .192-.284 0-.304l-3.473-.304c-.192 0-.192.284 0 .304zM168.743 148.392c.357-.248.8-.34 1.225-.253.08.014.158-.034.183-.112.012-.037.008-.078-.011-.113-.02-.034-.052-.06-.09-.069-.505-.111-1.033-.009-1.459.284-.071.04-.098.13-.06.202.044.073.136.1.212.061zM168.207 145.628c.49-.065.989-.017 1.458.142.192.07.263-.223.08-.284-.519-.182-1.075-.234-1.62-.152-.038.01-.07.035-.09.07-.02.034-.023.075-.01.113.02.08.1.13.182.11z" transform="translate(-995 -1228) translate(121 1228) translate(874) translate(8.1 15.188)"/>
                        <path fill="#221F20" d="M169.088 151.197c-.156.441-.126.926.08 1.346 1.124 1.813 2.147 4.374 4.729 4.597 2.248.203-.344-4.222-1.57-5.326 0 0-2.733-2.845-3.24-.617zM182.108 178.575c-.161.47-.121.987.112 1.427 1.225 1.894 2.369 4.577 5.113 4.759 2.38.162-.456-4.465-1.792-5.61 0 0-2.957-2.976-3.433-.576zM196.77 203.583c-.048.485.082.97.364 1.367 1.478 1.772 3.037 4.303 5.558 4.435 2.208.101-1.245-4.252-2.673-5.316 0 0-3.24-2.754-3.25-.486zM194.319 181.865c-.158.459-.129.96.081 1.397 1.225 1.894 2.38 4.577 5.113 4.76 2.38.161-.456-4.466-1.792-5.61.03.03-2.916-2.916-3.402-.547zM211.096 208.858c-.047.48.079.962.355 1.357 1.478 1.782 3.037 4.314 5.558 4.435 2.207.111-1.235-4.242-2.663-5.305 0 0-3.25-2.795-3.25-.487zM243.152 215.308c-2.126 2.207-4.36 4.31-6.703 6.308-.142.121.071.334.223.213 2.329-2.025 4.56-4.125 6.692-6.298.062-.059.064-.156.006-.218-.06-.061-.157-.064-.218-.005zM241.471 213.253c-.329.77-.819 1.46-1.438 2.025l-1.923 1.974-3.868 3.97c-.142.14.08.364.213.222l4.05-4.202c.648-.668 1.296-1.316 1.933-2.025.56-.532.998-1.177 1.286-1.893.071-.193-.222-.274-.293-.081l.04.01zM239.071 210.134l-7.502 7.827c-.059.061-.057.159.005.218.061.058.159.056.218-.006l7.492-7.816c.142-.142-.08-.364-.213-.223zM236.348 206.742c-2.671 1.805-5.025 4.039-6.966 6.612-.122.142.091.364.213.213 2.024-2.43 4.14-4.911 6.905-6.561.162-.102 0-.365-.152-.264zM233.371 202.247c-.23-.035-.46.053-.607.233-.274.273-.517.577-.77.87l-1.66 1.853-3.26 3.655c-.132.142.09.355.212.213l2.967-3.31 1.427-1.61.74-.83c.172-.193.587-.841.88-.78.294.06.263-.254.071-.294zM230.728 198.52c-2.956 1.874-4.505 5.266-7.452 7.139-.162.111 0 .375.162.263 2.937-1.883 4.486-5.275 7.442-7.138.073-.042.098-.135.056-.207-.042-.073-.135-.098-.208-.056zM228.228 195.686c-1.479 2.582-4.962 3.3-6.156 6.075-.071.172.192.334.263.152 1.184-2.785 4.678-3.524 6.156-6.075.042-.073.017-.166-.056-.208-.073-.042-.165-.017-.207.056zM226.435 192.78c-.857 1.023-1.817 1.956-2.865 2.784l-3.169 2.785c-.152.131.07.344.213.212l3.26-2.855c1.032-.828 1.978-1.757 2.825-2.774.111-.162-.152-.314-.264-.152zM224.39 189.661c-1.46 1.73-3.126 3.273-4.961 4.597-.162.112 0 .375.152.263 1.872-1.335 3.572-2.896 5.062-4.647.132-.152-.08-.364-.212-.213h-.04zM221.626 186.3c-1.428 1.428-2.916 2.805-4.465 4.1-.152.132.07.345.213.213 1.552-1.296 3.04-2.663 4.465-4.1.142-.142-.081-.355-.213-.213zM219.166 182.25l-4.232 2.825c-.162.101 0 .364.151.253l4.233-2.815c.162-.111 0-.374-.152-.263zM216.766 178.99c-1.213 1.202-2.531 2.293-3.939 3.26-.161.101 0 .364.152.263 1.449-.966 2.804-2.064 4.05-3.28.048-.036.07-.096.058-.154-.013-.058-.058-.103-.116-.116-.058-.013-.119.01-.154.057l-.05-.03zM214.437 175.618c-.865 1.334-1.885 2.56-3.037 3.655-.142.132.07.345.213.213 1.178-1.11 2.218-2.357 3.098-3.716.101-.162-.162-.314-.264-.152h-.01zM212.372 172.449c-.69.692-1.5 1.254-2.39 1.66-.182.081 0 .345.152.264.913-.42 1.742-1 2.45-1.711.048-.036.07-.096.058-.154-.013-.058-.058-.104-.116-.116-.058-.013-.118.01-.154.057zM209.922 169.3c-.305.643-.815 1.166-1.448 1.488-.172.092 0 .355.152.264.682-.347 1.23-.91 1.559-1.6.038-.073.01-.162-.06-.202-.071-.04-.16-.018-.203.05z" transform="translate(-995 -1228) translate(121 1228) translate(874) translate(8.1 15.188)"/>
                        <path fill="#FFF" d="M171.031 230.486c-1.123-20.099-2.237-109.158-3.553-135.433-.112-2.197-.254-4.394-.578-6.57-9.112-5.225-30.952-21.506-31.65-21.607-.699-.102-10.733 3.037-14.115 4.222l.567 137.882 12.06 9.77c2.905 2.44 12.443 9.74 21.667 14.105 3.28-1.063 15.602-2.37 15.602-2.37z" transform="translate(-995 -1228) translate(121 1228) translate(874) translate(8.1 15.188)"/>
                        <path fill="#D4DAFF" d="M151.429 95.54L167.032 92.026 169.27 230.405 155.52 231.863z" transform="translate(-995 -1228) translate(121 1228) translate(874) translate(8.1 15.188)"/>
                        <path fill="#221F20" d="M150.336 93.727c5.063-1.782 10.408-2.51 15.613-3.584.174-.052.301-.202.323-.382.022-.18-.065-.357-.222-.448-7.27-4.192-14.084-9.255-20.918-14.105-2.856-2.025-5.7-4.05-8.576-6.075-.634-.501-1.312-.945-2.025-1.326-.661-.159-1.356-.09-1.975.192-4.262 1.124-8.494 2.46-12.656 3.899-.547.192-.314 1.073.243.88 3.726-1.285 7.503-2.44 11.28-3.523.678-.192 1.346-.385 2.024-.547.185-.06.375-.101.567-.121.213 0-.182-.071 0 0 .664.319 1.281.727 1.833 1.215 6.318 4.384 12.525 8.94 18.873 13.304 3.534 2.43 7.088 4.88 10.814 7.027l.111-.83c-5.194 1.063-10.59 1.792-15.603 3.574-.556.192-.314 1.073.233.88l.061-.03z" transform="translate(-995 -1228) translate(121 1228) translate(874) translate(8.1 15.188)"/>
                        <path fill="#221F20" d="M132.374 220.29c6.624 5.621 13.932 10.384 21.749 14.175.14.083.313.085.455.006.142-.08.23-.229.233-.391l-1.508-56.204c-.392-14.722-.79-29.44-1.195-44.155-.314-11.198-.608-22.397-1.013-33.595-.06-1.6-.121-3.2-.212-4.789.045-.713-.013-1.43-.172-2.126-.223-.598-1.013-1.013-1.489-1.347-1.336-1.012-2.703-1.893-4.05-2.815-7.755-5.224-15.795-10.125-23.227-15.845-.506-.385-1.012-.78-1.488-1.205-.129-.13-.324-.171-.494-.102-.17.068-.283.232-.285.416l.07 16.919.162 38.95.183 43.923.121 31.975v3.999c-.053.674-.053 1.35 0 2.025.142 1.012 1.813 1.812 2.511 2.39l7.979 6.46 1.71 1.376c.446.375 1.094-.273.639-.638l-5.741-4.657-4.05-3.25c-.667-.696-1.419-1.305-2.238-1.813.172.071 0 .436.071.05.035-.278.035-.56 0-.84v-3.24l-.121-29.453-.173-43.305-.172-40.358-.05-13.578v-4.384c.08-.75.08-1.507 0-2.258-.01-.097-.01-.196 0-.293l-.78.324c2.76 2.292 5.662 4.41 8.687 6.338 4.222 2.886 8.495 5.71 12.748 8.546 2.764 1.852 5.68 3.604 8.282 5.69.108.08.21.167.304.263.08.111-.081-.182 0 0 .045.264.069.532.07.8.092 1.276.142 2.551.193 3.837.456 10.591.729 21.202 1.012 31.813.399 13.871.777 27.746 1.134 41.624l1.489 55.444.192 7.088.689-.395c-7.75-3.76-14.998-8.474-21.577-14.033-.455-.375-1.103.263-.648.638z" transform="translate(-995 -1228) translate(121 1228) translate(874) translate(8.1 15.188)"/>
                        <path fill="#221F20" d="M165.382 89.829c.533 4.463.824 8.952.87 13.446.142 3.962.267 7.924.375 11.887.284 10.074.506 20.138.73 30.213.242 11.137.475 22.275.698 33.412.216 10.125.445 20.274.688 30.446.183 6.956.345 13.912.679 20.858 0 .536 0 1.073.08 1.61l.456-.456-14.964 2.025c-.578.08-.578 1.012 0 .911l14.964-1.974c.25-.006.45-.206.456-.456-.354-6.45-.506-12.92-.678-19.38-.264-9.881-.476-19.773-.689-29.655-.236-11.178-.47-22.36-.699-33.544-.222-10.338-.445-20.686-.729-31.023-.202-7.594-.374-15.188-.8-22.772-.11-1.923-.283-3.837-.556-5.75-.081-.578-1.013-.335-.881.243v-.041zM120.093 143.178c10.287 6.783 20.88 13.091 31.782 18.923.516.274 1.012-.506.456-.79-10.861-5.818-21.438-12.126-31.732-18.923-.496-.324-.952.466-.466.79h-.04zM121.672 204.363c4.35 3.386 9.003 6.362 13.902 8.89 4.87 2.653 9.76 5.326 13.901 9.052.142.131.355-.082.213-.213-3.939-3.554-8.566-6.166-13.162-8.687-5.138-2.63-10.022-5.728-14.59-9.255-.153-.121-.375.091-.223.213h-.04zM121.085 200.404c0-.526 2.278.79 2.44.891l1.752 1.013 3.037 1.782 6.328 3.685 12.87 7.493c.072.042.165.017.207-.056.042-.073.017-.166-.056-.208l-15.704-9.112-7.634-4.455c-.233-.132-3.675-2.531-3.554-1.013 0 .193.324.193.304 0l.01-.02zM119.93 193.762c9.341 4.329 18.126 9.768 26.164 16.2.151.122.364-.091.212-.212-8.059-6.434-16.863-11.873-26.224-16.2-.182-.082-.334.172-.151.263v-.05zM119.374 188.112c8.538 4.665 17.24 9.005 26.102 13.021.172.081.334-.182.152-.263-8.856-4.01-17.557-8.35-26.102-13.02-.172-.092-.324.171-.152.262zM119.364 183.89c4.448 1.146 8.734 2.847 12.757 5.063 4.172 2.187 8.292 4.465 12.434 6.713.172.09.334-.172.162-.264-4.283-2.318-8.536-4.677-12.849-6.925-3.913-2.133-8.076-3.773-12.393-4.88-.081-.023-.165.025-.187.106-.023.081.025.165.106.187h-.03zM120.487 164.36l25.08 12.028c.172.08.324-.183.152-.264l-25.08-12.028c-.172-.091-.334.172-.151.263zM120.133 158.264c7.095 4.106 14.447 7.748 22.012 10.904.172.071.253-.222.08-.293-7.536-3.148-14.862-6.78-21.93-10.874-.073-.045-.168-.022-.213.05-.044.073-.022.168.051.213zM121.034 153.9c3.205 1.032 6.296 2.389 9.224 4.05l9.386 4.91c.172.092.324-.161.152-.253l-9.72-5.062c-2.844-1.62-5.846-2.943-8.96-3.949-.082-.022-.166.025-.188.107-.022.08.025.165.106.187v.01zM120.346 147.653l18.71 10.074c.173.101.325-.162.153-.253L120.487 147.4c-.172-.102-.323.162-.151.253h.01zM120.913 134.855s1.012.678 1.195.75l1.012.586c.699.395 1.387.8 2.076 1.205 1.326.79 2.642 1.61 3.938 2.44 1.296.83 2.592 1.691 3.858 2.572l1.964 1.387s1.701 1.215 1.732.82c0-.192-.284-.192-.304 0v.071c-.004.054.024.105.07.132.173.07.406.07.446-.162.071-.436-.89-.496-1.073-.597-.886-.556-1.739-1.165-2.552-1.823-.86-.597-1.731-1.185-2.602-1.762-1.71-1.124-3.442-2.217-5.204-3.26-.891-.537-1.802-1.063-2.713-1.58-.507-.273-1.367-1.012-2.025-.91-.05.012-.089.05-.102.1-.042.093-.021.202.05.274.035.06.106.09.173.07h.06c.082-.022.13-.105.107-.187-.022-.08-.106-.128-.187-.106l.08-.02zM120.295 129.408c4.942 2.963 9.678 6.258 14.175 9.861.152.122.365-.1.213-.222-4.498-3.615-9.234-6.923-14.175-9.903-.073-.044-.168-.022-.213.051-.045.073-.022.168.05.213h-.05zM121.004 120.234c4.425 2.276 8.706 4.822 12.818 7.625.162.11.324-.152.162-.264-4.117-2.8-8.4-5.346-12.828-7.624-.172-.08-.324.172-.152.263zM120.366 114.412c3.598 1.722 7.111 3.602 10.54 5.64.047.027.105.027.152 0s.076-.077.076-.132c0-.054-.029-.104-.076-.131-3.429-2.025-6.942-3.905-10.54-5.64-.172-.08-.324.183-.152.263zM120.548 109.715l6.875 2.986c.182.071.334-.192.152-.263l-6.875-3.037c-.182-.071-.334.192-.152.263v.05zM120.548 104.227l5.518 2.622c.172.081.324-.182.152-.263l-5.518-2.623c-.182-.08-.334.173-.152.264z" transform="translate(-995 -1228) translate(121 1228) translate(874) translate(8.1 15.188)"/>
                        <path fill="#221F20" d="M170.1 227.266c-4.01.337-8.012.752-12.008 1.245-.193 0-.193.324 0 .304 3.989-.5 7.992-.915 12.008-1.245.192 0 .192-.325 0-.304zM169.725 223.297c-3.74-.092-7.48.07-11.198.486-.192 0-.202.324 0 .304 3.718-.415 7.459-.578 11.198-.486.084 0 .152-.068.152-.152 0-.084-.068-.152-.152-.152zM169.928 219.176c-3.53.022-7.04.516-10.439 1.468-.081.022-.129.106-.106.187.022.081.106.129.187.107 3.373-.944 6.856-1.435 10.358-1.458.202 0 .202-.314 0-.304zM169.32 214.275l-9.578.689c-.192 0-.202.324 0 .304l9.578-.689c.193 0 .193-.324 0-.304zM169.088 209.253c-3.29-.15-6.588.03-9.842.537-.192 0-.111.324.081.294 3.228-.494 6.499-.66 9.76-.496.193 0 .193-.294 0-.304v-.03zM169.088 203.512c-3.625.019-7.244.276-10.834.77-.193 0-.112.314.08.294 3.565-.486 7.157-.74 10.754-.76.083 0 .151-.068.151-.152 0-.084-.068-.151-.151-.151zM169.088 198.622l-8.556 1.083c-.193 0-.193.325 0 .304l8.555-1.083c.193 0 .193-.324 0-.304zM168.672 194.34l-6.51.94c-.192 0-.111.315.081.294l6.51-.941c.193 0 .102-.314-.08-.294zM168.298 190.876c-2.11.046-4.219-.035-6.318-.243-.193 0-.193.284 0 .304 2.099.208 4.209.289 6.318.243.084 0 .152-.068.152-.152 0-.084-.068-.151-.152-.151zM168.5 186.23l-4.688-.254c-.192 0-.192.294 0 .304l4.688.253c.203 0 .193-.294 0-.304zM168.703 182.25c-1.502-.537-3.096-.768-4.688-.678-.203 0-.203.314 0 .303 1.565-.087 3.131.14 4.607.669.182.06.263-.233.08-.294zM168.075 177.501c-1.001.243-2.049.218-3.037-.07-.082-.023-.165.025-.188.106-.022.08.025.165.107.187 1.03.292 2.117.316 3.159.071.192 0 .11-.334-.082-.294h.041zM120.487 178.686c.375-.466 2.471.689 2.886.87l2.238.942 5.366 2.268c3.28 1.398 6.564 2.802 9.852 4.212.172.071.334-.192.151-.263-3.833-1.654-7.678-3.294-11.532-4.92l-5.245-2.218c-.988-.474-2.002-.894-3.037-1.256-.375-.1-.678-.182-.942.152-.121.152.091.365.213.213h.05zM120.558 173.006c6.847 2.532 13.562 5.408 20.119 8.616.172.081.324-.182.152-.263-6.581-3.218-13.32-6.104-20.19-8.647-.192-.07-.263.223-.08.294zM120.579 168.642c6.207 2.168 12.189 4.935 17.86 8.262.073.045.168.022.213-.05.044-.073.022-.169-.05-.213-5.698-3.34-11.707-6.117-17.942-8.293-.183-.06-.264.233-.081.294zM119.971 138.591c4.77 2.198 9.32 4.846 13.588 7.908.162.111.314-.152.162-.264-4.272-3.061-8.825-5.709-13.598-7.907-.172-.081-.324.182-.152.263zM120.326 124.345c.158.151.343.272.546.355l.405.202.618.314 1.428.719 2.774 1.397 5.63 2.835c.181.091.333-.172.161-.263l-6.156-3.099-3.037-1.539-1.438-.729c-.334-.162-.658-.425-1.013-.354-.052.015-.091.058-.1.111-.06.09-.06.205 0 .294.028.045.078.072.13.071h.082c.192 0 .192-.324 0-.304l-.03-.01zM126.228 148.351c-.472.342-.787.861-.87 1.438-.102 2.623-.82 5.964 1.66 7.989 2.157 1.762 2.582-4.566 2.086-6.551 0 0-.82-4.81-2.876-2.876zM143.947 136.323c-.473.342-.787.86-.87 1.438-.102 2.632-.82 5.963 1.66 7.988 2.156 1.762 2.582-4.566 2.086-6.55-.01 0-.82-4.8-2.876-2.876zM126.228 88.179c-.472.337-.786.853-.87 1.427-.102 2.633-.82 5.964 1.66 7.989 2.157 1.762 2.582-4.556 2.086-6.54 0 0-.82-4.81-2.876-2.876zM145.324 161.94c-.473.341-.787.86-.87 1.437-.102 2.632-.82 5.964 1.66 7.989 2.156 1.761 2.582-4.567 2.086-6.551 0 0-.82-4.84-2.876-2.876z" transform="translate(-995 -1228) translate(121 1228) translate(874) translate(8.1 15.188)"/>
                        <path fill="#221F20" d="M133.559 179.78c-.47.344-.783.862-.87 1.437-.102 2.633-.821 5.964 1.66 7.989 2.156 1.762 2.582-4.566 2.085-6.551 0 0-.82-4.8-2.875-2.875zM133.559 112.884c-.469.34-.782.854-.87 1.427-.102 2.633-.821 5.964 1.66 7.989 2.156 1.762 2.582-4.556 2.085-6.54 0 0-.82-4.81-2.875-2.876zM126.228 196.425c-.472.338-.786.853-.87 1.428-.102 2.632-.82 5.963 1.66 7.998 2.157 1.752 2.582-4.566 2.086-6.55 0-.051-.82-4.901-2.876-2.876zM145.324 209.962c-.473.342-.787.86-.87 1.438-.102 2.622-.82 5.963 1.66 7.988 2.156 1.752 2.582-4.566 2.086-6.55 0 0-.82-4.81-2.876-2.876z" transform="translate(-995 -1228) translate(121 1228) translate(874) translate(8.1 15.188)"/>
                        <path fill="#FFF" d="M126.674 245.076c-1.124-20.099-2.238-109.158-3.554-135.432-.08-2.2-.273-4.392-.577-6.572-9.113-5.224-30.952-21.515-31.65-21.606-.7-.091-10.733 3.037-14.115 4.212l.567 137.882 12.059 9.78c2.906 2.44 12.443 9.741 21.667 14.105 3.28-1.063 15.603-2.37 15.603-2.37z" transform="translate(-995 -1228) translate(121 1228) translate(874) translate(8.1 15.188)"/>
                        <path fill="#D4DAFF" d="M107.072 110.13L122.674 106.616 124.912 244.995 111.162 246.442z" transform="translate(-995 -1228) translate(121 1228) translate(874) translate(8.1 15.188)"/>
                        <path fill="#221F20" d="M105.989 108.338c5.011-1.782 10.408-2.511 15.602-3.585.17-.056.292-.203.316-.38.023-.177-.056-.351-.204-.45-7.28-4.192-14.094-9.254-20.929-14.104-2.855-2.025-5.7-4.05-8.576-6.075-.63-.508-1.308-.952-2.025-1.326-.66-.16-1.356-.091-1.974.192-4.263 1.124-8.485 2.46-12.656 3.898-.547.192-.314 1.073.243.88 3.726-1.285 7.502-2.45 11.289-3.523.668-.192 1.337-.384 2.025-.546.183-.066.373-.107.567-.122.213 0-.182-.08 0 0 .66.326 1.275.734 1.833 1.215 6.318 4.394 12.524 8.95 18.873 13.314 3.533 2.43 7.087 4.88 10.813 7.027l.111-.84c-5.194 1.073-10.59 1.802-15.602 3.584-.557.192-.314 1.073.243.881l.05-.04z" transform="translate(-995 -1228) translate(121 1228) translate(874) translate(8.1 15.188)"/>
                        <path fill="#221F20" d="M88.017 234.9c6.627 5.622 13.938 10.384 21.758 14.175.14.078.31.078.448-.001.139-.079.226-.224.23-.384l-1.508-56.204c-.391-14.721-.79-29.44-1.195-44.155-.314-11.198-.607-22.396-1.012-33.594-.061-1.6-.122-3.2-.213-4.8.045-.71-.013-1.422-.172-2.116-.223-.597-1.012-1.012-1.488-1.346-1.337-1.013-2.704-1.894-4.05-2.815-7.756-5.225-15.795-10.125-23.227-15.846-.506-.385-1.013-.79-1.488-1.205-.13-.13-.324-.17-.495-.102-.17.068-.283.233-.285.416l.07 16.919.163 38.95.182 43.923.132 31.975v4c-.053.673-.053 1.35 0 2.024.141.962 1.812 1.813 2.51 2.39l7.98 6.46 1.71 1.376c.446.365 1.104-.273.638-.637l-5.74-4.658-4.05-3.25c-.665-.698-1.417-1.308-2.238-1.812.172.07 0 .435.07.05.03-.28.03-.56 0-.84v-3.2l-.121-29.453-.213-43.315-.162-40.358-.06-13.578v-4.384c.08-.75.08-1.507 0-2.258-.01-.097-.01-.196 0-.293l-.78.324c2.779 2.304 5.7 4.432 8.748 6.368 4.222 2.886 8.495 5.71 12.747 8.546 2.764 1.842 5.68 3.604 8.283 5.69.11.077.212.165.303.263.091.112-.08-.182 0 0 .046.264.07.532.071.8.091 1.276.142 2.552.203 3.827.445 10.601.719 21.212 1.012 31.823.398 13.871.776 27.746 1.134 41.624l1.438 55.394.192 7.087.689-.394c-7.75-3.76-14.998-8.475-21.576-14.034-.446-.385-1.094.233-.638.628z" transform="translate(-995 -1228) translate(121 1228) translate(874) translate(8.1 15.188)"/>
                        <path fill="#221F20" d="M121.024 104.42c.533 4.462.824 8.95.87 13.445.143 3.956.267 7.918.375 11.887.284 10.07.527 20.142.73 30.213.243 11.137.475 22.275.698 33.412.223 10.125.452 20.274.689 30.446.182 6.956.344 13.912.678 20.858 0 .536 0 1.073.081 1.61l.456-.456-14.965 1.974c-.577.081-.577 1.013 0 .912l14.965-2.025c.249-.006.45-.207.455-.456-.354-6.45-.506-12.92-.678-19.38-.263-9.881-.49-19.767-.678-29.655-.243-11.178-.48-22.36-.71-33.544-.222-10.338-.445-20.686-.728-31.024-.203-7.593-.375-15.187-.8-22.77-.112-1.924-.273-3.848-.557-5.752-.081-.577-1.013-.334-.88.243v.061zM75.735 157.768c10.287 6.784 20.868 13.091 31.742 18.923.516.274 1.012-.516.456-.79-10.861-5.818-21.439-12.126-31.732-18.923-.496-.324-.952.466-.466.79zM77.314 218.953c4.353 3.372 9.007 6.338 13.902 8.86 4.87 2.652 9.76 5.325 13.902 9.051.142.132.354-.08.212-.212-3.938-3.554-8.565-6.166-13.162-8.688-5.152-2.63-10.05-5.732-14.63-9.264-.153-.121-.375.091-.224.213v.04zM76.737 214.994c-.05-.526 2.268.79 2.44.881l1.742 1.013 3.038 1.782 6.328 3.685 12.868 7.493c.073.042.166.017.208-.056.042-.073.017-.166-.056-.208l-15.704-9.112-7.634-4.455c-.233-.132-3.675-2.531-3.543-1.013 0 .193.313.193.303 0l.01-.01zM75.573 208.342c9.338 4.333 18.122 9.772 26.163 16.2.152.122.364-.091.213-.213-8.057-6.436-16.862-11.876-26.224-16.2-.182-.08-.334.173-.152.254v-.04zM75.016 202.702c8.532 4.672 17.233 9.012 26.102 13.021.172.081.335-.182.152-.263-8.856-4.01-17.556-8.35-26.102-13.02-.172-.092-.324.171-.152.262zM75.006 198.45c4.45 1.162 8.737 2.88 12.757 5.113 4.172 2.187 8.293 4.465 12.434 6.703.172.101.334-.162.162-.253-4.283-2.319-8.535-4.678-12.849-6.926-3.92-2.15-8.094-3.802-12.423-4.92-.182-.051-.263.243-.081.283zM76.13 178.95l25.12 12.028c.172.08.324-.183.152-.264l-25.08-12.028c-.172-.091-.334.172-.152.263h-.04zM75.775 172.854c7.097 4.102 14.45 7.744 22.012 10.905.172.07.253-.223.081-.294-7.537-3.148-14.862-6.78-21.93-10.874-.073-.045-.168-.022-.213.05-.045.073-.022.168.05.213zM76.677 168.44c3.204 1.031 6.295 2.388 9.223 4.05l9.386 4.91c.172.091.324-.172.152-.263l-9.72-5.063c-2.843-1.62-5.846-2.943-8.96-3.948-.081-.023-.165.025-.188.106-.022.081.026.165.107.187v.02zM75.988 162.243L94.7 172.317c.073.042.166.017.208-.055.042-.073.017-.166-.056-.208L76.14 162c-.172-.091-.324.172-.152.263v-.02zM76.555 149.445s1.013.678 1.195.75l1.012.587c.699.394 1.388.8 2.076 1.204 1.35.79 2.663 1.603 3.939 2.44 1.306.84 2.592 1.691 3.867 2.572l1.954 1.387s1.701 1.215 1.732.82c0-.202-.284-.192-.304 0v.071c.002.053.029.101.071.132.182.07.405.07.446-.172.07-.425-.892-.496-1.064-.587-.89-.554-1.746-1.162-2.561-1.823-.86-.597-1.732-1.184-2.602-1.762-1.708-1.134-3.44-2.22-5.195-3.26-.9-.536-1.812-1.063-2.723-1.58-.506-.283-1.367-1.012-1.974-.91-.05.012-.089.051-.102.1-.056.083-.056.192 0 .274.037.058.106.086.172.07h.061c.081-.021.129-.105.106-.186-.022-.082-.106-.13-.187-.107l.081-.02zM75.938 143.998c4.94 2.98 9.676 6.288 14.174 9.902.152.121.375-.091.213-.213-4.498-3.614-9.233-6.923-14.175-9.902-.073-.045-.168-.022-.213.05-.044.073-.022.169.051.213l-.05-.05zM76.646 134.825c4.428 2.277 8.712 4.823 12.829 7.624.162.111.314-.152.151-.264-4.116-2.8-8.4-5.346-12.828-7.624-.172-.09-.324.172-.152.263zM76.008 128.952c3.598 1.721 7.112 3.601 10.54 5.64.073.042.166.017.208-.056.042-.073.017-.166-.056-.208-3.422-2.025-6.945-3.918-10.54-5.64-.172-.08-.324.173-.152.264zM76.19 124.305l6.876 2.986c.182.071.334-.192.151-.263l-6.874-3.037c-.173-.071-.335.182-.152.263v.05zM76.19 118.817l5.519 2.622c.172.081.324-.182.152-.263l-5.519-2.622c-.182-.081-.334.172-.151.263z" transform="translate(-995 -1228) translate(121 1228) translate(874) translate(8.1 15.188)"/>
                        <path fill="#221F20" d="M125.773 241.856c-4.01.337-8.013.752-12.008 1.245-.193 0-.193.324 0 .304 3.989-.493 7.992-.908 12.008-1.245.192 0 .192-.324 0-.304zM125.368 237.938c-3.74-.092-7.481.07-11.198.486-.193 0-.203.323 0 .303 3.717-.415 7.458-.577 11.198-.486.084 0 .152-.068.152-.152 0-.084-.068-.151-.152-.151zM125.55 233.756c-3.53.03-7.04.527-10.439 1.478-.081.022-.129.106-.106.187.022.082.106.13.187.107 3.373-.943 6.856-1.436 10.358-1.468.084 0 .152-.068.152-.152 0-.084-.068-.152-.152-.152zM124.963 228.825l-9.578.689c-.193 0-.203.313 0 .303l9.578-.688c.192 0 .192-.324 0-.304zM124.76 223.844c-3.29-.151-6.587.029-9.841.536-.193 0-.102.324.08.294 3.228-.504 6.498-.68 9.761-.527.084 0 .152-.068.152-.152 0-.084-.068-.151-.152-.151zM124.76 218.062c-3.624.019-7.243.276-10.834.77-.192 0-.11.314.081.293 3.565-.486 7.156-.74 10.753-.76.084 0 .152-.067.152-.151 0-.084-.068-.152-.152-.152zM124.76 213.212l-8.555 1.074c-.193 0-.193.334 0 .303l8.555-1.073c.193 0 .193-.324 0-.304zM124.315 208.93l-6.51.941c-.193 0-.112.314.08.294l6.51-.942c.193 0 .112-.314-.08-.294zM123.94 205.467c-2.109.04-4.218-.041-6.318-.243-.192 0-.192.283 0 .303 2.1.203 4.21.284 6.318.243.084 0 .152-.068.152-.151 0-.084-.068-.152-.152-.152zM124.143 200.82l-4.688-.254c-.193 0-.193.294 0 .304l4.688.253c.202 0 .202-.294 0-.304zM124.345 196.84c-1.501-.538-3.095-.768-4.688-.678-.192 0-.202.314 0 .303 1.565-.088 3.132.14 4.607.669.182.06.263-.233.081-.294zM123.717 192.091c-1 .243-2.048.218-3.037-.07-.081-.023-.165.025-.187.106-.023.081.025.165.106.187 1.03.292 2.117.316 3.159.071.192 0 .111-.334-.081-.293h.04zM76.17 193.276c.375-.466 2.47.689 2.886.87l2.238.943 5.366 2.268c3.28 1.397 6.564 2.8 9.852 4.212.172.07.334-.193.151-.264-3.834-1.647-7.678-3.287-11.532-4.92l-5.245-2.218c-.986-.479-2-.898-3.037-1.255-.375-.112-.679-.183-.942.151-.121.152.091.365.213.213h.05zM76.2 187.596c6.847 2.532 13.562 5.408 20.12 8.616.171.081.323-.182.151-.263-6.581-3.215-13.32-6.097-20.19-8.637-.181-.07-.263.223-.08.294v-.01zM76.221 183.262c6.212 2.166 12.197 4.933 17.87 8.262.163.102.315-.161.153-.263-5.698-3.34-11.707-6.116-17.942-8.292-.182-.071-.263.223-.081.293zM75.614 153.181c4.775 2.195 9.328 4.843 13.597 7.908.152.111.304-.152.152-.263-4.27-3.072-8.823-5.73-13.598-7.939-.172-.08-.324.183-.151.264v.03zM75.938 138.935c.16.148.345.268.546.355l.405.202.618.314 1.438.719 2.764 1.397 5.64 2.835c.171.091.323-.172.151-.263l-6.156-3.098-3.037-1.54-1.438-.728c-.334-.162-.658-.426-1.013-.355-.052.015-.091.058-.1.112-.06.088-.06.204 0 .293.028.045.078.072.13.071h.052c.192 0 .192-.324 0-.304v-.01zM81.87 162.942c-.469.345-.782.862-.87 1.437-.101 2.623-.82 5.964 1.66 7.989 2.157 1.752 2.582-4.566 2.086-6.55 0 0-.82-4.83-2.875-2.876zM99.59 150.913c-.473.342-.787.86-.871 1.438-.101 2.632-.82 5.964 1.66 7.988 2.157 1.762 2.582-4.566 2.086-6.55 0 0-.82-4.8-2.876-2.876zM81.87 102.759c-.467.346-.78.862-.87 1.437-.101 2.633-.82 5.964 1.66 7.989 2.157 1.762 2.582-4.566 2.086-6.55 0 0-.82-4.8-2.875-2.876zM100.966 176.53c-.472.341-.786.86-.87 1.437-.102 2.633-.82 5.964 1.66 7.989 2.157 1.762 2.582-4.567 2.086-6.551 0 0-.82-4.81-2.876-2.876z" transform="translate(-995 -1228) translate(121 1228) translate(874) translate(8.1 15.188)"/>
                        <path fill="#221F20" d="M89.201 194.4c-.47.343-.78.862-.86 1.438-.112 2.632-.83 5.963 1.65 7.988 2.157 1.762 2.582-4.566 2.086-6.55 0-.03-.82-4.83-2.876-2.876zM89.201 127.464c-.468.344-.778.862-.86 1.437-.112 2.633-.83 5.964 1.65 7.989 2.157 1.762 2.582-4.566 2.086-6.55 0 0-.82-4.79-2.876-2.876zM81.87 210.964c-.468.341-.781.855-.87 1.428-.101 2.633-.82 5.964 1.66 7.989 2.157 1.762 2.582-4.556 2.086-6.541 0 0-.82-4.81-2.875-2.876zM100.966 224.552c-.47.34-.784.854-.87 1.428-.102 2.632-.82 5.964 1.66 7.999 2.157 1.751 2.582-4.567 2.086-6.551 0 0-.82-4.81-2.876-2.876z" transform="translate(-995 -1228) translate(121 1228) translate(874) translate(8.1 15.188)"/>
                        <path fill="#FFF" d="M85.415 259.392C84.3 239.284 83.177 150.235 81.87 123.96c-.084-2.202-.28-4.398-.587-6.58-9.113-5.225-30.943-21.506-31.641-21.597-.699-.092-10.743 3.037-14.114 4.212l.556 137.882 12.07 9.77c6.69 5.491 13.971 10.222 21.707 14.105 3.23-1.053 15.553-2.36 15.553-2.36z" transform="translate(-995 -1228) translate(121 1228) translate(874) translate(8.1 15.188)"/>
                        <path fill="#D4DAFF" d="M63.109 121.085L79.066 117.501 81.354 258.613 67.291 260.101z" transform="translate(-995 -1228) translate(121 1228) translate(874) translate(8.1 15.188)"/>
                        <path fill="#221F20" d="M64.73 122.624c5.011-1.782 10.408-2.511 15.602-3.574.174-.053.302-.204.326-.385.024-.18-.06-.359-.215-.456-7.27-4.191-14.084-9.244-20.918-14.104-2.855-2.025-5.7-4.05-8.576-6.075-.634-.505-1.312-.952-2.025-1.336-.677-.165-1.39-.097-2.025.192-4.263 1.124-8.495 2.47-12.656 3.898-.557.193-.314 1.073.243.881 3.716-1.276 7.492-2.44 11.279-3.523.678-.183 1.347-.385 2.025-.547.189-.056.382-.097.577-.122.203 0-.192-.07 0 0 .663.32 1.28.729 1.833 1.215 6.328 4.395 12.534 8.95 18.873 13.315 3.544 2.43 7.087 4.87 10.823 7.016l.112-.83c-5.204 1.013-10.591 1.802-15.613 3.584-.547.193-.314 1.074.243.871l.091-.02z" transform="translate(-995 -1228) translate(121 1228) translate(874) translate(8.1 15.188)"/>
                        <path fill="#221F20" d="M46.757 249.196c6.633 5.615 13.943 10.377 21.759 14.176.142.077.314.075.455-.005.14-.08.228-.229.233-.39l-1.518-56.204-1.195-44.145c-.314-11.198-.608-22.407-1.013-33.605-.06-1.6-.121-3.19-.212-4.79.044-.713-.014-1.429-.172-2.126-.223-.587-1.013-1.012-1.489-1.346-1.336-1.013-2.713-1.883-4.05-2.805-7.755-5.234-15.795-10.125-23.287-15.856-.507-.384-1.013-.78-1.479-1.204-.133-.122-.325-.156-.493-.087-.167.07-.278.23-.286.41l.07 16.92.153 38.94.192 43.933.132 31.964v4.05c-.051.657-.051 1.317 0 1.975.141 1.012 1.802 1.822 2.51 2.39l7.98 6.459 1.7 1.387c.456.364 1.104-.273.648-.648l-5.74-4.647-4.05-3.26c-.649-.7-1.376-1.322-2.167-1.853.172.07 0 .445.07.05.026-.276.026-.554 0-.83V234.9l-.121-29.454-.182-43.314-.162-40.349v-17.971c.08-.747.08-1.501 0-2.248-.01-.098-.01-.196 0-.294l-.78.324c2.778 2.3 5.696 4.423 8.738 6.359 4.232 2.885 8.495 5.71 12.757 8.545 2.764 1.853 5.68 3.605 8.283 5.7.11.077.212.166.303.264.081.101-.08-.193 0 0 .04.265.063.532.071.8.091 1.275.142 2.561.193 3.837.455 10.601.718 21.212 1.012 31.813.392 13.871.77 27.746 1.134 41.624l1.489 55.444.192 7.088.688-.395c-7.75-3.757-15-8.471-21.576-14.033-.587-.466-1.235.172-.79.556z" transform="translate(-995 -1228) translate(121 1228) translate(874) translate(8.1 15.188)"/>
                        <path fill="#221F20" d="M79.775 118.726c.525 4.467.812 8.958.86 13.456.156 3.962.284 7.921.385 11.877.284 10.074.507 20.148.73 30.223.242 11.137.475 22.275.698 33.412.21 10.125.439 20.277.688 30.456.172 6.946.345 13.902.669 20.858l.09 1.6.456-.456-14.964 2.025c-.578.07-.588 1.012 0 .911l14.964-2.025c.25-.005.45-.206.456-.456-.365-6.45-.506-12.92-.678-19.379-.264-9.882-.476-19.764-.689-29.656l-.698-33.534c-.223-10.348-.466-20.692-.73-31.033-.212-7.584-.374-15.188-.81-22.761-.1-1.934-.273-3.848-.546-5.761-.081-.577-1.013-.324-.881.243zM34.486 172.125c10.287 6.75 20.864 13.041 31.732 18.873.516.284 1.012-.506.465-.78-10.867-5.832-21.448-12.143-31.742-18.933-.486-.324-.941.465-.455.79v.05zM35.812 234.738l15.927 9.76c.162.102.314-.151.152-.263l-15.917-9.76c-.073-.045-.168-.022-.212.05-.045.073-.023.168.05.213zM35.853 230.85l-.446-.233c-.047-.029-.106-.03-.154-.004-.049.026-.08.076-.081.131-.002.056.026.107.073.136 5.366 3.2 10.766 6.376 16.2 9.528.162.091.324-.172.152-.263-5.4-3.153-10.78-6.328-16.14-9.528l-.161.263.455.233c.172.091.335-.172.152-.263h-.05zM35.438 226.8l-.395-.516-.183.243 17.122 8.788c.172.081.324-.182.152-.263l-17.122-8.789c-.162-.08-.283.102-.182.243l.395.507c.121.151.334-.061.212-.213zM34.536 221.646l15.076 8.192c.073.041.166.017.208-.056.042-.073.017-.166-.056-.208l-15.045-8.221c-.172-.091-.324.172-.152.263l-.03.03zM35.114 217.202c4.333 2.57 8.904 4.72 13.648 6.419.182.07.263-.223.081-.294-4.717-1.688-9.261-3.828-13.568-6.389-.072-.044-.167-.022-.212.05-.045.074-.022.169.05.214zM35.184 213.202c4.105 2.417 8.395 4.506 12.829 6.247.182.071.263-.223.08-.293-4.404-1.732-8.667-3.807-12.747-6.207-.172-.101-.324.162-.162.253zM34.952 207.563c3.746 1.802 7.522 3.523 11.33 5.163.182.081.334-.182.151-.263-3.807-1.63-7.583-3.362-11.32-5.164-.182-.08-.334.183-.161.263zM34.05 202.814c3.294 1.721 6.67 3.274 10.125 4.657.183.071.254-.222.081-.293-3.42-1.373-6.769-2.917-10.034-4.627-.172-.091-.324.172-.151.263h-.02zM34.627 200.789c.167.093.34.174.517.243l.577.192 1.013.345 2.217.759 4.343 1.508c.183.061.264-.232.082-.293l-5.58-1.924-2.703-.941c-.202-.061-.496-.213-.668 0-.057.057-.08.14-.065.218.017.08.071.146.146.176.172.091.324-.172.152-.263l-.03-.02zM35.103 195.27c1.691.669 3.392 1.327 5.063 1.975l2.51 1.013c.244.09 1.013.303.872-.233 0-.183-.334-.112-.294.08l-.952-.313-1.012-.415-2.025-.76-4.05-1.6c-.183-.07-.264.223-.081.294l-.03-.04zM34.668 191.616l-.243-.254-.182.233c2.358 1.234 4.866 2.157 7.462 2.744.192 0 .273-.253.08-.293-2.57-.578-5.056-1.49-7.39-2.714-.044-.032-.101-.04-.151-.018-.05.021-.085.068-.091.121-.007.054.016.108.06.14l.263.294c.131.152.354-.071.222-.213l-.03-.04zM34.972 186.735l.131-.07c.02.108.113.189.223.192l.223.101.324.152.77.344 1.437.638 2.967 1.337c.182.08.334-.183.152-.264l-4.455-2.025-1.104-.486c-.182-.09-.466-.283-.678-.151-.213.131.1.637.293.334.193-.304-.162-.314-.263-.152l-.02.05zM34.243 182.139c2.38.798 4.704 1.755 6.956 2.865.172.081.324-.182.151-.263-2.273-1.12-4.621-2.085-7.026-2.886-.182-.07-.264.223-.081.284zM33.777 177.714l4.698 1.65c.192.071.273-.222.081-.293l-4.698-1.65c-.182-.061-.263.232-.081.293zM33.919 174.535c1.446.334 2.868.77 4.252 1.306.193.07.264-.223.081-.294-1.384-.536-2.806-.972-4.252-1.306-.193 0-.274.253-.081.294zM34.678 168.075l.091-.577-.192.101c1.507.564 2.984 1.206 4.425 1.924.182.08.334-.172.151-.263-1.464-.728-2.964-1.38-4.495-1.954-.081-.02-.162.03-.182.11l-.091.578c0 .182.273.273.293.081zM33.301 163.306l.132-.07c0 .1 0 .161.111.171l.193.081.283.122.668.273 1.225.517 2.562 1.093c.182.081.263-.213.081-.293l-3.736-1.57-.901-.374c-.172-.071-.446-.254-.638-.102-.192.152.111.577.304.304.192-.273-.142-.314-.264-.152h-.02zM33.888 159.975l3.463 1.509c.172.07.324-.183.152-.264l-3.463-1.508c-.182-.071-.334.182-.152.263zM34.82 156.877l2.602.749c.081.022.165-.025.187-.106.023-.081-.025-.165-.106-.188l-2.602-.749c-.053-.014-.109 0-.148.038-.038.039-.054.095-.04.147.014.053.054.094.107.109zM34.516 154.396c.58.18 1.14.417 1.67.709.073.042.166.017.208-.056.042-.073.017-.165-.055-.207-.555-.304-1.138-.552-1.742-.74-.182-.06-.263.233-.08.294z" transform="translate(-995 -1228) translate(121 1228) translate(874) translate(8.1 15.188)"/>
                        <path fill="#221F20" d="M39.7 178.078c-.47.343-.78.862-.86 1.438-.102 2.633-.83 5.964 1.66 7.989 2.147 1.762 2.572-4.566 2.025-6.551.05 0-.77-4.779-2.825-2.876zM57.419 166.05c-.47.343-.78.862-.86 1.438-.112 2.632-.831 5.963 1.66 7.988 2.146 1.762 2.572-4.566 2.025-6.55.05 0-.77-4.8-2.825-2.876zM39.7 117.906c-.47.339-.78.854-.86 1.427-.102 2.633-.83 5.964 1.66 7.999 2.147 1.752 2.572-4.566 2.025-6.55.05 0-.77-4.81-2.825-2.876zM58.796 191.666c-.47.343-.78.862-.86 1.438-.112 2.632-.831 5.964 1.65 7.989 2.156 1.761 2.581-4.567 2.085-6.551 0 0-.82-4.8-2.875-2.876zM39.7 203.411c-.47.34-.78.855-.86 1.428-.102 2.632-.83 5.964 1.66 7.988 2.147 1.762 2.572-4.556 2.025-6.54.05 0-.77-4.8-2.825-2.876zM58.796 217.82c-.47.342-.78.86-.86 1.437-.112 2.632-.831 5.963 1.65 7.988 2.156 1.762 2.581-4.566 2.085-6.55 0 .03-.82-4.81-2.875-2.876zM39.7 226.101c-.467.34-.778.856-.86 1.428-.102 2.632-.83 5.964 1.66 7.999 2.147 1.751 2.572-4.567 2.025-6.551.05 0-.77-4.81-2.825-2.876zM58.796 239.69c-.47.342-.78.86-.86 1.437-.112 2.622-.831 5.963 1.65 7.988 2.156 1.762 2.581-4.566 2.085-6.55 0 0-.82-4.81-2.875-2.876zM72.232 257.965l11.006.09c.084 0 .151-.067.151-.151 0-.084-.067-.152-.151-.152l-11.006-.091c-.084 0-.152.068-.152.152 0 .084.068.152.152.152zM73.619 254.735h-.142c-.162 0-.132.314 0 .304l9.933-1.013c.192 0 .192-.324 0-.304l-9.933 1.013v.293h.142c.081-.022.129-.106.106-.187-.022-.08-.106-.128-.187-.106h.08zM74.267 249.126c2.687-.124 5.363-.432 8.009-.922.192 0 .111-.334-.081-.293-2.619.486-5.268.79-7.928.91-.192 0-.192.315 0 .305zM75.087 243.425c2.954-.018 5.903-.265 8.819-.739.192 0 .111-.324-.081-.293-2.89.465-5.811.709-8.738.728-.203 0-.203.314 0 .304zM76.707 239.254c2.22.21 4.459-.018 6.591-.668.081-.023.13-.107.107-.188-.023-.08-.107-.128-.188-.106-2.107.638-4.318.861-6.51.658-.203 0-.203.284 0 .304zM76.09 235.356c2.436.31 4.911.004 7.198-.891.183-.071.102-.365-.08-.294-2.251.886-4.69 1.19-7.088.88-.193 0-.193.284 0 .305h-.03zM77.335 230.85l6.166-1.205c.192 0 .111-.324-.081-.294l-6.166 1.205c-.193 0-.112.334.08.294zM77.385 226.172l5.286-.87c.192 0 .111-.325-.081-.294l-5.286.87c-.192 0-.111.325.081.294zM76.332 222.143c1.987-.54 4.022-.878 6.075-1.013.193 0 .193-.314 0-.304-2.087.134-4.155.473-6.176 1.013-.081.022-.129.106-.106.187.022.081.106.129.187.106l.02.01zM77.537 215.723l5.508-.324c.193 0 .193-.314 0-.304l-5.508.325c-.202 0-.202.313 0 .303zM78.378 210.904c1.222-.75 2.617-1.172 4.05-1.225.192 0 .192-.314 0-.304-1.486.054-2.933.49-4.202 1.266-.172.1 0 .364.152.263zM78.752 204.242c1.337.118 2.684-.037 3.96-.456.08-.022.128-.106.105-.187-.022-.082-.106-.13-.187-.107-1.248.416-2.568.568-3.878.446-.192 0-.192.293 0 .304zM77.74 200.607l4.485-.304c.193 0 .203-.324 0-.304l-4.485.304c-.203 0-.203.324 0 .304zM78.975 195.291h2.653c.084 0 .152-.068.152-.152 0-.084-.068-.152-.152-.152h-2.653c-.084 0-.152.068-.152.152 0 .084.068.152.152.152zM80.18 191.008h2.653c.084 0 .151-.068.151-.152 0-.084-.067-.152-.151-.152H80.18c-.084 0-.152.068-.152.152 0 .084.068.152.152.152zM78.135 186.432c1.427.13 2.862.153 4.293.07.192 0 .192-.313 0-.303-1.431.083-2.866.059-4.293-.071-.203 0-.193.283 0 .304zM79.37 183.262h3.037c.084 0 .152-.067.152-.151 0-.084-.068-.152-.152-.152H79.37c-.084 0-.152.068-.152.152 0 .084.068.151.152.151zM181.744 107.882c.053-.686.178-1.365.374-2.025.264-.82.507-1.64.75-2.46.465-1.59.91-3.17 1.316-4.77.783-3.054 1.395-6.15 1.833-9.274.935-6.163.573-12.453-1.064-18.468-.067-.243-.318-.386-.562-.319-.243.067-.386.319-.319.562 2.025 7.088 1.813 14.54.456 21.739-.69 3.544-1.558 7.052-2.602 10.51-.162.556-2.37 6.145.06 5.345.558-.182.325-1.012-.242-.88v.04zM175.71 89.799c.09-7.614-.933-15.2-3.038-22.518-.067-.244-.319-.386-.562-.32-.243.068-.386.32-.32.563 2.095 7.237 3.119 14.741 3.038 22.275 0 .251.204.455.456.455s.456-.204.456-.455h-.03zM222.81 155.672c-.181-.77 4.446-.577 4.992-.557 1.66 0 3.311.121 4.972.273 3.337.297 6.65.828 9.912 1.59 6.506 1.521 12.774 3.923 18.63 7.138.517.284 1.013-.506.456-.79-6.718-3.694-13.97-6.32-21.496-7.786-3.673-.721-7.397-1.154-11.137-1.296-1.909-.197-3.832-.197-5.741 0-.88.162-1.721.658-1.488 1.65.131.568 1.012.325.88-.242l.02.02zM223.266 163.711c9.626 3.604 18.077 9.782 24.432 17.86.364.456 1.012-.192.648-.647-6.47-8.188-15.06-14.446-24.837-18.094-.546-.202-.78.679-.243.881z" transform="translate(-995 -1228) translate(121 1228) translate(874) translate(8.1 15.188)"/>
                    </g>
                </g>
            </g>
        </g>
    </g>
</svg>
