<svg xmlns="http://www.w3.org/2000/svg" width="1440" height="703" viewBox="0 0 1440 703">
    <g fill="none" fill-opacity=".1" fill-rule="evenodd">
        <g fill="#7786FF" fill-rule="nonzero">
            <g>
                <path d="M782.455 11.592c-151.5 36.864-213.988 36.864-374.076 64.722-57.285 9.969-76.189 65.947-157.595 96.44-202.61 75.892-94.138 35.64-171.89 102.242C-55.77 390.39-14.133 480.26 173.955 578.986c38.715 20.398 67.42 21.155 123.363 30.119 49.232 7.906 62.556 3.95 114.82 6.595 31.458 1.585 94.068 38.54 150.607 40.336C656.159 659.004 735.955 703 845.955 703c110 0 132.59-31.072 237-31.398 156.461-.489 391.516 26.248 547.445 6.595 96.335-12.197 266.793 22.23 339.413 0 72.619-22.23 117.834-24.561 129.965-51.896 45.812-103.253 120.846-336.13 43.998-435.474-17.68-22.837-71.075-62.964-176.302-73.792-105.227-10.827-81.148-8.77-132.519-40.72-71.965-44.761-76.684-30.767-223-31.952-146.315-1.184-157.088-48.244-275.643-26.539-118.555 21.706-402.357-43.097-553.857-6.232z" transform="translate(0 -1798) translate(-506.955 1798)"/>
            </g>
        </g>
    </g>
</svg>
