<svg xmlns="http://www.w3.org/2000/svg" xmlns:xlink="http://www.w3.org/1999/xlink" width="237" height="239" viewBox="0 0 237 239">
    <defs>
        <linearGradient id="ywbunhzezb" x1="57.873%" x2=".833%" y1="22.886%" y2="88.984%">
            <stop offset="0%" stop-color="#FFF" stop-opacity="0"/>
            <stop offset="100%" stop-color="#FFF"/>
        </linearGradient>
        <path id="ibcfue6rta" d="M0 0H237V239H0z"/>
    </defs>
    <g fill="none" fill-rule="evenodd">
        <g>
            <g>
                <g>
                    <g transform="translate(-602.000000, -201.000000) translate(326.000000, 145.000000) translate(205.000000, 24.000000) translate(71.000000, 32.000000)">
                        <mask id="e0zgyz4z2c" fill="#fff">
                            <use xlink:href="#ibcfue6rta"/>
                        </mask>
                        <path fill="url(#ywbunhzezb)" d="M0 0H237V239H0z" mask="url(#e0zgyz4z2c)"/>
                        <g mask="url(#e0zgyz4z2c)">
                            <g>
                                <g opacity=".1">
                                    <path fill="#7582FF" fill-rule="nonzero" d="M73.188 1.27C58.297 6.225 46.145 8.794 32.823 18.22 19.5 27.648 14.956 49.006 7.703 65.398c-12.57 28.398-9.035 65.89 8.52 90.181 3.621 5.03 7.919 9.61 13.14 11.824 4.599 1.945 9.584 1.924 14.419 2.569 7.79 1.075 15.331 3.837 22.981 5.912 24.458 6.65 50.337 5.901 74.37-2.15 8.982-3 18.265-7.524 23.562-16.779 3.223-5.686 4.534-12.554 5.662-19.283 4.297-25.41 6.618-52.346-.548-76.8-1.655-5.62-3.857-11.146-7.381-15.348-2.815-3.365-6.35-5.708-9.605-8.46-10.186-8.599-17.545-21.304-27.28-30.666C115.81-2.965 73.189 1.27 73.189 1.27z" transform="translate(19.592000, 29.084656) translate(11.186400, 0.000000)"/>
                                </g>
                                <path fill="#D2D8FF" fill-rule="nonzero" d="M71.16 94.02c-.178-2.898-1.059-5.71-2.568-8.19l113.628 5.901 15.095 6.686L71.16 94.02z" transform="translate(19.592000, 29.084656)"/>
                                <path fill="#231F20" fill-rule="nonzero" d="M71.965 94.02c-.211-3.036-1.131-5.981-2.686-8.598l-.687 1.214 14.461.753 33.306 1.72 37.024 1.923 25.302 1.312 2.74.15c.221.027.445.027.666 0 .387-.075-.28-.172-.14 0 .641.374 1.323.673 2.031.892l3.836 1.71 7.714 3.418 1.407.623.409-1.505-12.646-.451-29.997-1.075-36.53-1.28-31.48-1.074-10.346-.355c-1.633 0-3.32-.236-4.953-.172h-.215c-.445 0-.806.361-.806.806 0 .446.36.806.806.806l12.603.441 30.008 1.075 36.53 1.28 31.48 1.074 10.346.355c1.633 0 3.33.258 4.953.172h.225c.752 0 1.15-1.172.398-1.505l-13.033-5.783c-.807-.472-1.674-.834-2.578-1.075-.559-.075-1.15 0-1.72-.086l-22.648-1.128-36.357-1.892-34.843-1.806-11.905-.602c-1.912-.097-3.889-.365-5.801-.3h-.247c-.287.004-.55.16-.693.409-.143.248-.145.554-.006.805 1.417 2.366 2.26 5.031 2.46 7.782.076.978 1.687.978 1.612-.032z" transform="translate(19.592000, 29.084656)"/>
                                <path fill="#D2D8FF" fill-rule="nonzero" d="M197.315 98.417c-8.595 5.944-55.525 18.53-69.137 22.572-15.73 4.73-34.21 8.76-49.938 13.5-1.408-4.224-3.664-10.275-6.07-13.973l125.145-22.1z" transform="translate(19.592000, 29.084656)"/>
                                <path fill="#231F20" fill-rule="nonzero" d="M196.907 97.718c-1.719 1.1-3.544 2.026-5.447 2.763-2.858 1.203-5.77 2.257-8.703 3.224-7.38 2.58-14.859 4.87-22.347 7.105-14.408 4.3-28.859 8.599-43.384 12.5-12.99 3.505-26.108 6.547-39.001 10.416l.988.56c-1.478-4.968-3.541-9.741-6.145-14.221l-.484 1.182 12.517-2.214 29.76-5.256 36.262-6.45 31.157-5.503 10.347-1.827c1.65-.2 3.29-.487 4.91-.86h.215c1.01-.183.58-1.73-.43-1.548l-12.517 2.15-29.771 5.256-36.25 6.45-31.158 5.492-10.347 1.827c-1.6.29-3.341.42-4.91.87-.071.007-.143.007-.215 0-.239.07-.433.245-.525.476-.093.231-.073.492.053.707 2.54 4.407 4.545 9.102 5.973 13.984.13.424.57.67 1 .559 11.485-3.45 23.164-6.234 34.756-9.276 7.876-2.064 15.665-4.396 23.487-6.643 14.87-4.3 29.793-8.405 44.448-13.382 3.406-1.16 6.8-2.365 10.142-3.73 2.256-.846 4.417-1.926 6.446-3.224.839-.58.033-1.924-.827-1.387z" transform="translate(19.592000, 29.084656)"/>
                                <path fill="#FFF" fill-rule="nonzero" d="M52.658 94.107c-12.226 11.128-24.976 21.647-38.248 31.558 1.246-1.505 78.205-8.051 90.12-9.835 10.626-1.591 43.653-6.364 49.562-7.664 4.427-.968 8.96-1.387 13.452-2.032 10.174-1.451 20.153-4.04 29.75-7.717l-52.646-.914c-29.245-.505-91.99-3.396-91.99-3.396z" transform="translate(19.592000, 29.084656)"/>
                                <path fill="#231F20" fill-rule="nonzero" d="M52.089 93.537c-12.177 11.071-24.865 21.547-38.066 31.429l.978 1.268c-.097.097-.119.086-.14.086.136-.019.27-.055.397-.107.409-.108.828-.183 1.236-.258 1.397-.237 2.804-.43 4.212-.613 4.705-.602 9.411-1.075 14.128-1.601 12.893-1.355 25.7-2.57 38.56-3.827 9.82-.956 19.662-1.795 29.45-3.042 12.301-1.58 24.56-3.59 36.808-5.482 5.072-.773 10.164-1.504 15.182-2.547 5.92-1.247 11.98-1.655 17.931-2.73 5.63-1.02 11.192-2.387 16.654-4.095 2.729-.86 5.432-1.803 8.111-2.827.383-.112.627-.487.573-.883-.053-.396-.389-.692-.788-.697-25.248-.441-50.496-.699-75.723-1.527-18.749-.623-37.497-1.397-56.245-2.214l-12.689-.57c-1.074 0-1.074 1.559 0 1.613 11.61.537 23.232 1.039 34.865 1.505 19.006.773 38.012 1.558 57.029 1.891l52.763.914-.214-1.58c-11.036 4.11-22.519 6.899-34.21 8.309-6.328.817-12.57 2.15-18.877 3.138-13.28 2.15-26.59 4.063-39.892 5.998-9.003 1.3-18.19 1.988-27.268 2.88-13.043 1.269-26.087 2.505-39.12 3.86-5.07.526-10.142 1.074-15.202 1.676-2.671.161-5.322.568-7.918 1.215-.282.058-.545.188-.763.376-.591.634.215 1.838.978 1.268 13.33-9.939 26.129-20.501 38.399-31.687.762-.72-.376-1.795-1.14-1.14z" transform="translate(19.592000, 29.084656)"/>
                                <path fill="#FFF" fill-rule="nonzero" d="M112.814 61.183c1.751-.344 64.679 28.656 84.501 37.234-4.856.258-124.888-12.221-129.84-12.995l45.339-24.239z" transform="translate(19.592000, 29.084656)"/>
                                <path fill="#231F20" fill-rule="nonzero" d="M113.029 61.968c-.183 0-.355-.086-.13 0 .169.065.341.119.517.161.526.172 1.074.376 1.579.58 1.697.667 3.395 1.377 5.071 2.15 5.576 2.387 11.12 4.848 16.664 7.32 14.128 6.256 28.16 12.64 42.245 18.972 5.963 2.676 11.926 5.374 17.932 7.964l.408-1.504c-1.511.001-3.022-.088-4.523-.27-3.223-.257-6.51-.558-9.766-.859-10.11-.924-20.22-1.924-30.33-2.934-11.97-1.204-23.96-2.426-35.971-3.666-10.558-1.082-21.12-2.185-31.684-3.31-5.652-.602-11.325-1.161-16.976-1.881-.125.01-.25.01-.376 0l.193 1.472 15.354-8.2 24.346-13.028 5.64-3.01c.924-.494.108-1.881-.806-1.397l-15.353 8.169-24.346 13.006-5.662 3.02c-.27.168-.419.478-.38.795.04.316.26.58.563.678 4.78.741 9.67 1.074 14.45 1.633l30.32 3.225c12.033 1.247 24.07 2.476 36.11 3.687 10.587 1.067 21.17 2.103 31.75 3.106 5.586.527 11.27 1.333 16.889 1.419h.537c.72 0 1.193-1.16.397-1.505-12.387-5.374-24.71-10.996-36.98-16.542-12.936-5.89-25.883-11.791-38.947-17.36-2.074-.891-4.148-1.783-6.243-2.6-.892-.5-1.89-.78-2.911-.817-1.032.118-.591 1.666.419 1.526z" transform="translate(19.592000, 29.084656)"/>
                                <path fill="#000" fill-rule="nonzero" d="M46.223 81.058l-19.533-6.45c-.59-.193-.849.742-.258.936l19.533 6.449c.59.193.849-.742.258-.935zM21.135 104.587L.54 104.08c-.623 0-.623.946 0 .968l20.596.505c.613 0 .613-.946 0-.967zM84.718 149.645c-7.11 3.7-14.487 6.866-22.068 9.47-.58.204-.333 1.139.258.935 7.66-2.629 15.113-5.83 22.294-9.577.559-.28.064-1.075-.484-.828zM43.01 59.56c-4.31-2.408-8.42-5.157-12.291-8.222-.483-.387-1.171.29-.688.677 3.93 3.128 8.109 5.928 12.496 8.373.537.312 1.074-.527.483-.828zM156.854 68.621c-4.866-4.398-9.425-9.124-13.645-14.145-.398-.473-1.075.215-.688.688 4.242 5.02 8.822 9.742 13.71 14.135.461.419 1.138-.27.676-.678h-.053z" transform="translate(19.592000, 29.084656)"/>
                                <path fill="#231F20" fill-rule="nonzero" d="M80.926 132.651c-1.587-2.074-2.831-4.39-3.685-6.857-.065-.194-.377-.108-.312.086.867 2.495 2.122 4.838 3.717 6.943.119.162.398 0 .28-.172zM83.644 133.146l-3.298-5.794c-.045-.077-.144-.103-.22-.059-.078.045-.104.143-.06.22l3.299 5.794c.044.077.143.104.22.06.077-.045.103-.144.059-.221zM84.933 131.705c-.333.248.13.667.398.42.268-.248.096-.42 0-.613-.097-.194-.409-.623-.602-.935l-2.525-3.923c-.107-.172-.387 0-.28.16l1.634 2.537.784 1.215c.097.161.935 1.28.752 1.419.162-.13 0-.409-.16-.28zM86.491 130.9c-.3.182 0 .59.312.461.472-.214-.086-.956-.226-1.203l-1.826-3.225c-.045-.077-.144-.104-.22-.06-.078.045-.104.144-.06.221l1.16 2.064.57 1.021c.064.118.602.935.451 1.075.064-.02.109-.077.113-.144.004-.067-.033-.129-.094-.157-.06-.027-.132-.015-.18.032v-.086zM92.1 129.781c-1.214-.88-2.2-2.038-2.88-3.375-.086-.193-.365 0-.28.162.704 1.388 1.733 2.587 2.998 3.493.161.118.323-.161.161-.28zM94.603 128.997l-2.224-2.741c-.14-.161-.365.064-.237.226l2.224 2.74c.14.162.366-.075.237-.225z" transform="translate(19.592000, 29.084656)"/>
                                <g opacity=".1">
                                    <path fill="#7582FF" fill-rule="nonzero" d="M11.937 3.41C7.043 4.084 2.78 7.093.505 11.48c-.33.52-.495 1.127-.473 1.742.214 1.142.827 2.17 1.73 2.902 3.32 3.01 7.134 2.676 10.411 2.15 5.608-.957 13.312-.527 18.845-1.688 2.858-.591 17.094-4.45 19.34-6.18C53.967 7.666 42.17.517 43.91.292 52.87-.944 11.937 3.41 11.937 3.41z" transform="translate(19.592000, 29.084656) translate(81.022400, 92.438624)"/>
                                </g>
                                <path fill="#231F20" fill-rule="nonzero" d="M107.968 126.933c-.754-1.387-1.682-2.673-2.76-3.827-.14-.15-.366.076-.226.226 1.055 1.137 1.964 2.4 2.707 3.762.045.077.143.104.22.06.077-.045.104-.144.06-.221zM109.88 126.202l-1.546-2.795c-.097-.182-.376 0-.269.162l1.547 2.794c.097.183.376 0 .269-.16zM115.951 124.117l-2.826-3.407c-.128-.162-.354.064-.225.225l2.826 3.408c.14.16.365-.065.225-.226zM119.765 123.644l-2.406-2.956c-.13-.161-.366.075-.226.237l2.407 2.945c.129.16.354-.065.225-.226zM122.312 122.698c-.257-.968-.698-1.877-1.3-2.676-.119-.162-.398 0-.28.16.59.776 1.02 1.66 1.268 2.602.024.086.113.137.199.113.086-.024.136-.113.113-.199zM126.985 122.085c-.45-1.211-1.158-2.311-2.073-3.224-.14-.14-.376.086-.226.225.88.883 1.559 1.947 1.988 3.118.075.193.386.107.311-.086v-.033zM132.486 120.946l-1.407-2.537c-.097-.182-.376 0-.28.162l1.408 2.536c.029.05.082.08.14.08.057 0 .11-.03.14-.08.028-.05.028-.111 0-.161zM138.632 118.904c-.32-.86-.853-1.626-1.547-2.225-.162-.13-.387.097-.226.236.652.559 1.155 1.272 1.461 2.075.075.193.387.107.312-.086zM140.114 118.065c-.858-1.56-1.944-2.984-3.223-4.224-.038-.05-.101-.074-.163-.06-.062.013-.11.06-.123.123-.014.061.01.125.06.163 1.256 1.223 2.324 2.625 3.17 4.16.097.182.376 0 .28-.162zM141.844 118.12c-.384-.934-.958-1.776-1.687-2.473-.15-.15-.386.086-.236.226.693.657 1.242 1.451 1.612 2.332.025.082.11.129.193.108.075 0 .15-.119.118-.194zM143.499 117.485l-.849-1.526c-.097-.172-.376 0-.28.172l.85 1.515c.096.183.375 0 .279-.161zM146.174 117.861l.71-.451c.054-.062.054-.154 0-.215l-1.075-2.021c-.045-.077-.143-.104-.22-.06-.078.045-.104.144-.06.221l1.075 2.021.064-.226-.709.452c-.172.118 0 .397.161.28h.054zM75.156 93.16c-.674-1.625-1.494-3.186-2.45-4.664-.118-.172-.397 0-.279.161.94 1.455 1.75 2.991 2.418 4.59.086.193.397.107.311-.086zM77.713 93.333c-.676-1.397-1.452-2.744-2.32-4.031-.119-.172-.398 0-.28.161.869 1.287 1.644 2.634 2.32 4.03.087.194.366 0 .28-.16zM78.626 93.16l-1.547-2.794c-.096-.183-.376 0-.279.161l1.547 2.795c.045.077.143.104.22.059.078-.044.104-.143.06-.22z" transform="translate(19.592000, 29.084656)"/>
                                <path fill="#CCCDE4" fill-rule="nonzero" d="M136.322 93.698c1.173.549 2.124 1.482 2.697 2.644.848 2.053-15.88 3.397-16.192 1.73-.311-1.665 1.01-4.299 1.687-5.642 0 0 8.692-.398 11.808 1.268z" transform="translate(19.592000, 29.084656)"/>
                                <path fill="#000" fill-rule="nonzero" d="M136.118 94.042c.686.355 1.307.824 1.837 1.387.239.275.445.578.612.903.13.225.086.16.075.182-.24.228-.531.398-.848.495-1.426.49-2.905.812-4.405.956-1.828.25-3.668.397-5.512.441-1.383.115-2.775.035-4.136-.236-.742-.183-.634-.366-.516-1.215.324-1.508.874-2.957 1.633-4.3l-.344.194c1.515-.065 3.03 0 4.545 0 2.288.086 4.974.14 7.059 1.204.462.247.87-.452.408-.688-2.149-1.075-4.76-1.204-7.091-1.311-1.633-.076-3.288-.086-4.92 0-.146.003-.28.08-.355.204-.759 1.37-1.326 2.839-1.687 4.364-.118.666-.312 1.644.354 2.15.477.244 1.001.383 1.537.408.86.1 1.724.147 2.589.14 2.156-.016 4.31-.17 6.446-.463 1.74-.13 3.447-.532 5.06-1.193 2.397-1.171-.687-3.514-1.976-4.224-.408-.344-.817.355-.365.602z" transform="translate(19.592000, 29.084656)"/>
                                <path fill="#CCCDE4" fill-rule="nonzero" d="M134.86 98.084c1.258.307 2.375 1.03 3.17 2.053 1.236 1.838-14.891 6.449-15.536 4.912-.644-1.537.15-4.396.537-5.87 0 0 8.488-2.117 11.83-1.095z" transform="translate(19.592000, 29.084656)"/>
                                <path fill="#000" fill-rule="nonzero" d="M134.742 98.47c.779.218 1.508.583 2.15 1.075.312.212.573.491.762.817-.075.248-.494.516-.741.677-1.31.767-2.706 1.377-4.158 1.817-1.739.61-3.51 1.12-5.308 1.526-1.334.385-2.716.58-4.104.58-.168-.002-.335-.031-.494-.085-.097 0 0 0 0 0-.132-.343-.19-.709-.172-1.075.04-1.511.294-3.01.752-4.45l-.28.28c1.473-.366 2.966-.656 4.47-.904 2.256-.365 4.9-.838 7.145-.193.208.037.41-.09.466-.294.055-.204-.053-.417-.251-.49-2.289-.646-4.921-.216-7.22.15-1.623.247-3.223.559-4.824.956-.135.04-.24.145-.28.28-.447 1.444-.71 2.94-.784 4.45 0 .71 0 1.816.774 2.15 1.181.473 2.933 0 4.115-.28 2.121-.428 4.21-1.003 6.253-1.72 1.662-.48 3.244-1.205 4.695-2.15.397-.3.88-.73.784-1.29-.185-.505-.528-.939-.978-1.235-.754-.589-1.615-1.027-2.535-1.29-.505-.237-.72.537-.237.699z" transform="translate(19.592000, 29.084656)"/>
                                <path fill="#FFF" fill-rule="nonzero" d="M87.394 100.921c-1.124.501-2.034 1.385-2.568 2.494-.766 1.243-1.442 2.54-2.02 3.88-.226.538-.408 1.247 0 1.623.158.126.347.208.548.237l1.783.43c.2.08.424.08.624 0 .165-.123.292-.291.365-.484.535-1.067 1.145-2.094 1.826-3.074.172-.226.387-.484.645-.43l-.516 2.15c-.021.088-.021.18 0 .268.026.098.093.18.184.223.091.043.197.044.289.003.184-.094.337-.24.44-.42.853-1.111 1.344-2.458 1.408-3.858.087-1.364-.742-2.62-2.03-3.074l-.978.032z" transform="translate(19.592000, 29.084656)"/>
                                <path fill="#231F20" fill-rule="nonzero" d="M87.265 100.459c-1.103.445-2.018 1.257-2.59 2.3-.769 1.178-1.444 2.414-2.02 3.698-.397.86-1.074 2.343 0 2.977.604.258 1.24.432 1.891.516.591.14 1.215.323 1.676-.204.205-.281.378-.584.516-.903.172-.322.344-.645.527-.957.182-.311.408-.666.623-.989.215-.322.43-.849.655-.838l-.473-.602-.311 1.333c-.142.398-.221.814-.236 1.236.036.29.22.539.484.66.265.12.574.094.816-.069.534-.454.948-1.034 1.203-1.687.36-.671.603-1.398.72-2.15.23-1.306-.168-2.644-1.075-3.612-.376-.4-.875-.66-1.418-.741h-.924c-.267 0-.483.216-.483.483 0 .268.216.484.483.484.464-.087.943-.019 1.365.194.685.543 1.081 1.372 1.074 2.246-.003 1.057-.3 2.092-.86 2.988-.134.237-.28.467-.44.688 0 0-.215.237-.204.258.107.43.236-.236.236-.226l.43-1.848c.036-.145.004-.298-.085-.417-.09-.119-.228-.19-.377-.196-.677 0-1.074.634-1.364 1.075-.29.44-.806 1.268-1.172 1.935-.116.324-.275.631-.472.913-.204.204-.71 0-.967-.097l-1.14-.268c-.29-.075-.44-.14-.418-.473.122-.66.366-1.29.72-1.86.333-.688.687-1.354 1.074-2.01.645-1.075 1.397-2.536 2.697-2.966.677-.14.43-1.064-.161-.871z" transform="translate(19.592000, 29.084656)"/>
                                <path fill="#000" fill-rule="nonzero" d="M89.822 42.287l1.246 3.225c.903 3.515.322 7.18-.258 10.748-.062.7-.263 1.38-.59 2-.616.932-1.759 1.366-2.837 1.075-.387-.156-.786-.282-1.193-.377-.548 0-4.147-1.01-5.06-1.88-2.235-2.15-16.986-4.72-18.856-8.062-1-1.784 4.18-9.448 5.834-10.34 3.341-1.806 5.512 3.547 8.359 2.569 5.662-1.946 8.971-1.828 10.83-1.301 1.165.336 2.102 1.206 2.525 2.343z" transform="translate(19.592000, 29.084656)"/>
                                <path fill="#FFF" fill-rule="nonzero" d="M92.11 60.57s-1.547-1.074-1.697-1.891c-.237-1.354.698-2.59.988-3.923.161-.93.14-1.884-.064-2.806-.323-2.01-1.3-7.868-4.298-9.437-2.772-1.451-8.724-.613-8.82 5.492-.14 3.08 1.082 6.063 3.34 8.159.86.73 1.913 1.214 2.816 1.892.902.677.795 2.805 1.074 3.88.559 1.634 6.661-1.365 6.661-1.365z" transform="translate(19.592000, 29.084656)"/>
                                <path fill="#000" fill-rule="nonzero" d="M92.314 60.227c-.967-.656-1.74-1.408-1.45-2.666.29-1.258 1.074-2.537 1.074-4.03-.1-1.967-.46-3.912-1.074-5.783-.436-1.928-1.417-3.689-2.826-5.074-1.202-.898-2.697-1.312-4.19-1.16-1.618.064-3.152.736-4.298 1.88-1.321 1.56-1.925 3.604-1.665 5.633.112 2.53 1.1 4.943 2.794 6.825.999 1.075 2.363 1.537 3.427 2.483.88.774.73 2.246.956 3.31.333 1.677 2.224 1.172 3.438.817 1.323-.407 2.61-.925 3.847-1.547.462-.226 0-.925-.409-.688-.953.462-1.932.868-2.933 1.214-.62.236-1.26.412-1.912.527-.817.118-1.15.097-1.3-.752-.069-.933-.264-1.851-.58-2.73-.452-.936-1.515-1.355-2.332-1.882-2.207-1.445-3.692-3.764-4.083-6.374-.376-2.15-.279-4.61 1.29-6.266 1.106-1.092 2.604-1.692 4.158-1.666 1.494-.073 2.938.55 3.91 1.687 1.131 1.579 1.898 3.389 2.246 5.3.193.827.354 1.676.494 2.515.282 1.442.14 2.936-.408 4.3-.408 1.074-.838 2.246-.204 3.224.427.608.976 1.12 1.611 1.505.44.376.838-.312.42-.602z" transform="translate(19.592000, 29.084656)"/>
                                <path fill="#FFF" fill-rule="nonzero" d="M98.567 69.772s6.63 17.068 9.111 15.316l3.6-3.966c-1.988.742-10.057-21.637-12.528-22.11-1.943-.21-3.907-.03-5.78.527-5.49 4.804-9.39 1.472-9.39 1.472l-4.062 2.623" transform="translate(19.592000, 29.084656)"/>
                                <path fill="#231F20" fill-rule="nonzero" d="M98.105 69.9c1.182 3.053 2.504 6.084 3.954 9.008.645 1.279 3.503 8.061 5.866 6.578.646-.548 1.223-1.173 1.72-1.86l1.976-2.15c.147-.158.172-.394.064-.581-.108-.188-.326-.283-.536-.235-.14 0-.892-1.075-1.075-1.365-.644-1.075-1.192-2.15-1.73-3.225-1.472-2.945-2.804-5.944-4.2-8.921-1.053-2.511-2.319-4.928-3.782-7.223-.315-.585-.803-1.058-1.397-1.355-1.612-.601-3.954 0-5.566.344-.878.374-1.694.882-2.417 1.505-1.145.772-2.478 1.218-3.857 1.29-1.151.028-2.281-.315-3.223-.978-.157-.158-.4-.189-.591-.075l-4.04 2.558c-.516.333 0 1.171.494.838l4.062-2.622-.591-.076c2.03 1.699 5.07 1.505 7.316.409.957-.473 1.73-1.355 2.643-1.795.913-.324 1.87-.506 2.837-.538 1.547-.15 2.6-.28 3.502.99 1.543 2.41 2.87 4.954 3.965 7.599 1.44 3.063 2.804 6.159 4.297 9.168.473.935 1.988 4.837 3.567 4.396l-.472-.806-1.977 2.15c-.322.344-1.225 1.698-1.633 1.763-.409.064-1.236-.914-1.504-1.269-.673-.913-1.277-1.876-1.805-2.88-1.902-3.528-3.563-7.18-4.975-10.932-.226-.57-1.16-.322-.935.258l.043.033z" transform="translate(19.592000, 29.084656)"/>
                                <path fill="#000" fill-rule="nonzero" d="M77.617 45.275c1.409-1.912 3.468-3.243 5.79-3.74 1.221-.231 2.48-.176 3.675.161.763.183 1.655.548 1.794 1.333.034.253.008.51-.075.752-.53 1.293-1.616 2.277-2.955 2.677-1.289.483-2.675.688-3.943 1.214-.518.193-.988.497-1.375.892-.41.496-.678 1.094-.773 1.731-.152 1.801.136 3.612.838 5.278-1.43-.979-3.224-3.891-3.696-6.74l.72-3.558z" transform="translate(19.592000, 29.084656)"/>
                                <path fill="#D2D8FF" fill-rule="nonzero" d="M115.178 75.425c-1.999-4.3-10.325 3.967-10.325 3.967l-16.815 4.89 6.06 12.007 21.08-20.864z" transform="translate(19.592000, 29.084656)"/>
                                <path fill="#D2D8FF" fill-rule="nonzero" d="M88.038 84.282l16.815-4.89c1.88-1.333 12.226-11.233 14.407-4.784l11.099 16.768-6.103 5.214-10.088-17.295" transform="translate(19.592000, 29.084656)"/>
                                <path fill="#231F20" fill-rule="nonzero" d="M88.167 84.755l10.196-2.966 5.695-1.656c.93-.293 1.779-.797 2.481-1.472 1.8-1.568 3.726-2.985 5.76-4.235 1.514-.882 4.372-2.462 5.876-.785.324.466.6.963.827 1.483.28.484.624.946.935 1.42l3.503 5.277 6.446 9.803.075-.58-6.092 5.202.753.096-10.1-17.294c-.149-.191-.416-.242-.625-.12-.209.122-.295.38-.202.603l10.089 17.295c.078.127.21.212.358.23.148.02.297-.03.404-.133l6.103-5.203c.152-.154.183-.392.075-.58l-5.77-8.706c-1.901-2.86-3.996-5.676-5.608-8.696-2.331-4.364-8.488.28-10.916 2.15-1.176 1.103-2.437 2.113-3.77 3.02-1.392.554-2.83.982-4.298 1.279L87.909 83.82c-.258.071-.41.338-.338.597.071.258.338.41.596.338z" transform="translate(19.592000, 29.084656)"/>
                                <path fill="#D2D8FF" fill-rule="nonzero" d="M95.645 90.592c2.793.526 16.492-17.424 19.533-15.167 3.653 2.709 12.355 22.229 12.355 22.229l-5.372 5.858c-2.374-4.386-9.38-15.887-10.174-17.198-.667-1.075-2.375 13.812-14.236 13.468-5.308-.15-6.511-4.3-8.295-9.405-.509-1.641-.868-3.325-1.074-5.03" transform="translate(19.592000, 29.084656)"/>
                                <path fill="#231F20" fill-rule="nonzero" d="M95.516 91.054c.959-.016 1.875-.401 2.557-1.075 1.354-1.102 2.639-2.286 3.846-3.547 2.944-2.891 5.76-5.966 8.94-8.599.87-.72 2.288-2.085 3.524-2.15 1.074 0 1.933 1.634 2.438 2.354 2.355 3.608 4.448 7.38 6.264 11.286 1.397 2.817 2.75 5.665 4.03 8.6l.074-.592-5.372 5.858.763.097c-2.224-4.095-4.673-8.072-7.08-12.06-.924-1.534-1.859-3.07-2.804-4.611-.344-.56-.752-1.075-1.322-.43-.419.75-.726 1.558-.913 2.397-.525 1.49-1.187 2.93-1.977 4.3-2.149 3.718-5.63 6.384-10.067 6.448-3.298.065-5.372-1.558-6.769-4.482-1.33-3.067-2.258-6.293-2.761-9.598-.107-.613-1.074-.355-.935.247.203 1.551.504 3.088.903 4.6.44 1.42.945 2.838 1.515 4.214.66 2.039 1.975 3.803 3.739 5.02 3.706 2.15 8.917.677 11.968-1.968 2.448-2.345 4.266-5.269 5.286-8.502.194-.505.366-1.075.56-1.537.075-.146.133-.302.171-.462 0 0 .075-.108.065-.15v-.087c-.13.183-.344.162-.634 0 .197.401.43.782.698 1.14l1.429 2.343c2.74 4.515 5.522 9.029 8.047 13.672.079.127.21.212.358.231.149.019.297-.03.405-.134l5.372-5.858c.146-.158.176-.39.075-.58-2.922-6.557-5.963-13.275-9.927-19.273-.632-1.22-1.51-2.296-2.579-3.16-.866-.38-1.869-.269-2.632.29-3.33 1.763-6.07 4.977-8.692 7.61-1.633 1.634-3.223 3.29-4.953 4.837-.655.602-2.342 2.516-3.374 2.376-.612-.075-.87.849-.257.935h.021z" transform="translate(19.592000, 29.084656)"/>
                                <path fill="#FFF" fill-rule="nonzero" d="M98.589 61.613c.73 3.902 6.006 18.198 6.006 18.198l-15.837 6.847C84.965 83.433 78.755 66.17 78.755 66.17" transform="translate(19.592000, 29.084656)"/>
                                <path fill="#231F20" fill-rule="nonzero" d="M98.116 61.71c.825 3.59 1.902 7.117 3.223 10.555.892 2.558 1.795 5.106 2.73 7.643l.225-.549-15.75 6.88.58.075c-1.291-1.322-2.345-2.857-3.116-4.536-1.193-2.225-2.235-4.515-3.224-6.836-1.267-2.924-2.45-5.901-3.534-8.9-.215-.58-1.15-.333-.935.258 1.117 3.088 2.328 6.134 3.631 9.136 1.01 2.354 2.074 4.687 3.288 6.944.804 1.712 1.894 3.275 3.223 4.622.158.146.39.176.58.075l15.837-6.858c.19-.106.283-.327.226-.537-.939-2.537-1.848-5.08-2.73-7.632-1.319-3.442-2.396-6.973-3.222-10.566-.119-.602-1.075-.344-.935.258l-.097-.032z" transform="translate(19.592000, 29.084656)"/>
                                <path fill="#FFF" fill-rule="nonzero" d="M83.032 61.355s-2.085 1.322-3.396 2.15c-3.524 2.311 3.374 39.663 5.888 38.781l5.093-.365c-1.676.215-7.306-24.496-5.372-30.462" transform="translate(19.592000, 29.084656)"/>
                                <path fill="#231F20" fill-rule="nonzero" d="M82.784 60.947c-1.074.656-2.073 1.3-3.094 1.978-.378.213-.687.53-.892.913-.422 1.021-.623 2.12-.59 3.225-.083 3.846.18 7.691.784 11.49.601 4.515 1.375 9.018 2.353 13.48.551 3.21 1.456 6.35 2.696 9.361.355.731.699 1.387 1.558 1.43 1.311.064 3.45-.247 5.018-.355.612 0 .634-.978 0-.967.15 0 .096 0 0-.108-.13-.176-.239-.367-.323-.57-.306-.657-.565-1.336-.773-2.031-.655-1.978-1.171-4.01-1.644-6.04-1.214-4.943-2.026-9.976-2.428-15.049-.263-2.001-.157-4.034.312-5.998.182-.59-.753-.849-.935-.258-.445 1.802-.576 3.668-.387 5.514.153 2.605.447 5.2.881 7.772.703 5.06 1.864 10.047 3.47 14.897.247.71.774 2.817 1.827 2.795v-.946c-1.558.108-3.127.204-4.685.333-.178.027-.359.027-.537 0h.097c-.217-.207-.386-.46-.494-.741-1.164-2.658-1.998-5.448-2.482-8.309-1.966-7.845-3.097-15.876-3.374-23.959-.09-1.364.026-2.734.344-4.063.064-.294.2-.568.398-.795 1.048-.84 2.187-1.562 3.395-2.15.204-.146.262-.425.133-.641-.129-.216-.402-.297-.628-.187v-.021z" transform="translate(19.592000, 29.084656)"/>
                            </g>
                        </g>
                    </g>
                </g>
            </g>
        </g>
    </g>
</svg>
