<svg xmlns="http://www.w3.org/2000/svg" width="232" height="231" viewBox="0 0 232 231">
    <g fill="none" fill-rule="evenodd">
        <g fill-rule="nonzero">
            <g>
                <g>
                    <g>
                        <g>
                            <g>
                                <g fill="#7786FF" opacity=".1">
                                    <path d="M73.766.039C61.88.662 53.13 10.289 45.903 19.127l-27.4 33.523C8.882 64.369-1.225 77.637.121 92.38c.369 4.088 1.633 8.056 2.505 12.074 2.762 12.674 1.674 25.766 2.042 38.697.37 12.931 2.452 26.434 10.534 36.912 8.428 10.902 22.075 16.973 35.114 22.604 2.522 1.086 11.388 1.104 13.056.515 11.266-3.95 23.72-2.716 35.746-2.79 17.246-.114 35.113-3.316 48.954-12.937 16.971-11.788 25.574-31.413 40.925-44.99 3.283-2.904 6.882-5.528 9.808-8.752 6.15-6.763 8.925-15.641 10.534-24.382.585-3.224 1.042-6.529.45-9.747-.754-4.128-3.154-7.798-5.506-11.36-7.362-11.153-17.96-39.096-35.47-61.5C151.302 4.322 84.082-.497 73.765.04z" transform="translate(-111 -3593) translate(0 3321) translate(80 104) translate(0 136) translate(32 32) translate(12.994 13.716)"/>
                                </g>
                                <path fill="#FFF" d="M46.325 100.34c-.613 4.246 1.14 8.412 2.85 12.341 3.634 8.357 8.856 18.284 12.49 26.64l23.516-9.587-11.307-22.85-27.55-6.543z" transform="translate(-111 -3593) translate(0 3321) translate(80 104) translate(0 136) translate(32 32) translate(12.994 13.716)"/>
                                <path fill="#D4DAFF" d="M77.105 107.56s-8.541 20.858-12.502 31.458c-.322.858-.607 1.95 0 2.623.28.288.65.476 1.051.534 3.372.745 21.693-10.924 21.693-10.924" transform="translate(-111 -3593) translate(0 3321) translate(80 104) translate(0 136) translate(32 32) translate(12.994 13.716)"/>
                                <path fill="#FFF" d="M78.684 106.838c2.597 6.902 16.544 37.945 19.02 43.312l23.571-13.07-8.759-20.636-33.832-9.606zM85.885 106.838C69.17 103.71 52.608 99.985 36.202 95.66c-.777-.205-1.75-.727-1.517-1.478.132-.308.367-.562.667-.72 5.767-3.898 16.738-9.67 23.074-12.613l49.133 10.865-21.674 15.123zM88.79 106.146c11.567 3.736 23.365 6.73 35.32 8.963 1.64.309 3.353.606 4.968.176 1.22-.39 2.363-.982 3.383-1.752l20.44-13.72c.453-.308.967-.75.838-1.266-.098-.376-.495-.606-.862-.751-1.92-.85-3.965-1.395-6.057-1.612L115.99 88.79l-27.2 17.355z" transform="translate(-111 -3593) translate(0 3321) translate(80 104) translate(0 136) translate(32 32) translate(12.994 13.716)"/>
                                <path fill="#FFF" d="M68.578 62.837c.093 8.533 12.42 36.854 16.411 42.17.407.545.943 1.115 1.62 1.109.349-.033.686-.142.986-.318 4.928-2.481 20.901-10.787 21.357-13.957.26-1.858-.517-3.68-1.275-5.393L92.08 51.253" transform="translate(-111 -3593) translate(0 3321) translate(80 104) translate(0 136) translate(32 32) translate(12.994 13.716)"/>
                                <path fill="#D4DAFF" d="M102.442 70.022c-.855 2.045-12.396 23.59-16.251 32.815-.232.43-.327.918-.273 1.401.244.72.95 1.192 1.723 1.154.754-.058 1.485-.282 2.139-.656 6.665-3.176 13.313-6.382 19.945-9.62M67.792 63.525c-.855 2.051-12.396 23.59-16.251 32.814-.232.43-.327.919-.273 1.402.243.722.949 1.194 1.723 1.153.755-.055 1.486-.28 2.139-.655 6.665-3.172 13.313-6.378 19.945-9.62" transform="translate(-111 -3593) translate(0 3321) translate(80 104) translate(0 136) translate(32 32) translate(12.994 13.716)"/>
                                <path fill="#231F20" d="M75.764 107.094c-3.849 8.57-7.633 17.165-11.353 25.787-.571 1.341-1.14 2.685-1.707 4.03-.522 1.22-1.41 2.726-1.34 4.098.11 2.256 2.712 2.091 4.288 1.658 2-.605 3.948-1.367 5.823-2.28 2.303-1.055 4.568-2.195 6.828-3.366 3.215-1.675 6.393-3.419 9.534-5.232.223-.128.298-.409.168-.628-.13-.219-.417-.292-.64-.164-2.408 1.396-4.847 2.737-7.3 4.054-4.14 2.22-8.348 4.47-12.774 6.098-1.142.42-2.793 1.152-3.985.835-1.974-.524-.447-3.048.05-4.225.496-1.177 1.03-2.44 1.558-3.695 2.358-5.537 4.78-11.043 7.219-16.55 1.477-3.328 2.96-6.654 4.45-9.975.236-.536-.564-1-.807-.463l-.012.018z" transform="translate(-111 -3593) translate(0 3321) translate(80 104) translate(0 136) translate(32 32) translate(12.994 13.716)"/>
                                <path fill="#FFF" d="M106.116 70.777c.097 8.534 12.642 36.855 16.702 42.17.419.546.959 1.115 1.65 1.11.355-.03.697-.138 1.002-.318 5.037-2.481 21.278-10.787 21.74-13.957.266-1.858-.523-3.68-1.293-5.394-5.3-11.733-10.595-23.465-15.883-35.194" transform="translate(-111 -3593) translate(0 3321) translate(80 104) translate(0 136) translate(32 32) translate(12.994 13.716)"/>
                                <path fill="#FFF" d="M115.5 116.48l12.045 29.691c1.177 2.91 2.36 5.82 3.545 8.73.553 1.354 1.311 2.893 2.744 3.185 1.433.292 26.9-13.513 27.544-14.908.777-1.67 0-3.614-.765-5.284l-14.23-31.056" transform="translate(-111 -3593) translate(0 3321) translate(80 104) translate(0 136) translate(32 32) translate(12.994 13.716)"/>
                                <path fill="#231F20" d="M103.228 70.922c.043 2.656.812 5.323 1.562 7.846 1.088 3.693 2.416 7.314 3.824 10.899 2.723 7.089 5.876 14.011 9.444 20.73.614 1.098 1.23 2.184 1.875 3.234.645 1.05 1.684 2.795 3.246 2.571.745-.196 1.456-.501 2.109-.905l2.029-1.014c1.66-.837 3.311-1.696 4.955-2.577 3.547-1.826 6.987-3.845 10.304-6.047 1.225-.796 2.37-1.706 3.419-2.715.947-.832 1.409-2.073 1.23-3.307-.212-1.46-.66-2.875-1.329-4.195-.7-1.545-1.405-3.092-2.115-4.64l-4.125-9.053-8.441-18.515-2.066-4.526c-.24-.531-1.033-.073-.793.458l16.126 35.383c.733 1.4 1.306 2.876 1.71 4.4.16.766.313 1.744-.105 2.462-.643.917-1.454 1.709-2.392 2.335-2.99 2.195-6.147 4.162-9.443 5.884-3.044 1.684-6.148 3.283-9.222 4.828-.615.314-1.697 1.05-2.374.845-.676-.205-1.13-.978-1.506-1.527-.615-.911-1.168-1.864-1.71-2.824-3.413-6.26-6.43-12.722-9.03-19.348-1.44-3.536-2.792-7.103-3.966-10.724-.975-2.746-1.692-5.574-2.14-8.449-.065-.49-.101-.984-.11-1.478 0-.25-.207-.453-.462-.453-.254 0-.46.203-.46.453l-.044-.03z" transform="translate(-111 -3593) translate(0 3321) translate(80 104) translate(0 136) translate(32 32) translate(12.994 13.716)"/>
                                <path fill="#231F20" d="M101.88 70.321c-.768 1.782-2.047 3.932-3.035 5.79-1.952 3.624-3.892 7.235-5.781 10.84-2.021 3.854-4.024 7.72-5.92 11.623-.755 1.55-1.492 3.106-2.178 4.68-.416.956-.894 2.06 0 2.922.894.86 2.317.778 3.45.338 1.764-.683 3.464-1.574 5.177-2.375l5.453-2.536c3.72-1.743 7.44-3.49 11.159-5.245.547-.255.069-1.027-.473-.772-6.225 2.946-12.464 5.864-18.715 8.755-.749.344-1.492.694-2.241 1.033-.75.338-1.587.754-2.425.552-1.6-.386-.667-1.972-.245-2.922.699-1.568 1.448-3.118 2.204-4.668 3.545-7.228 7.367-14.337 11.164-21.446 1.115-2.09 2.355-4.158 3.3-6.337.233-.529-.68-.76-.907-.232h.013z" transform="translate(-111 -3593) translate(0 3321) translate(80 104) translate(0 136) translate(32 32) translate(12.994 13.716)"/>
                                <path fill="#FFF" d="M91.48 45.478c-6.028 3.015-23.73 10.613-26.511 14.387l42.163 8.81c1.878.493 3.822.696 5.764.603 1.939-.287 3.81-.911 5.524-1.845 5.15-2.52 9.95-5.692 14.732-8.852.558-.368 1.184-.874 1.11-1.538-.097-.898-1.294-1.11-2.203-1.236-2.013-.283-40.58-10.329-40.58-10.329z" transform="translate(-111 -3593) translate(0 3321) translate(80 104) translate(0 136) translate(32 32) translate(12.994 13.716)"/>
                                <path fill="#231F20" d="M68.42 63.103c-.975 2.461-.547 5.124.237 7.579.891 2.813 2.067 5.554 3.13 8.301l6.611 17.152 3.73 9.68c.202.532 1.063.299.855-.239-4.282-11.12-8.683-22.21-12.853-33.371-1.051-2.813-2.013-5.93-.85-8.863.215-.537-.647-.77-.86-.239z" transform="translate(-111 -3593) translate(0 3321) translate(80 104) translate(0 136) translate(32 32) translate(12.994 13.716)"/>
                                <path fill="#231F20" d="M67.48 63.02L54.522 88.257l-3.308 6.354c-.672 1.323-1.654 2.795-1.345 4.339.08.549.443 1.022.963 1.257.833.358 1.66-.071 2.4-.435 2.142-1.043 4.32-2.08 6.45-3.093 4.764-2.233 9.573-4.381 14.428-6.443.55-.227.074-1.002-.463-.77-4.028 1.71-8.029 3.48-12.003 5.311-1.938.894-3.87 1.804-5.795 2.73-.946.453-1.884.908-2.814 1.365-.76.37-2.105 1.073-2.277-.203-.048-.666.09-1.333.4-1.93.476-1.02 1.031-2.003 1.543-2.98l2.913-5.705 5.943-11.556 6.702-13.018c.266-.512-.536-.965-.802-.447l.025-.011zM90.688 44.81c-8.173 4.027-16.808 7.31-24.55 12.118-1.424.883-2.971 1.839-3.994 3.173-.072.121-.083.268-.028.397.054.13.167.227.305.264l41.821 8.602c3.23.66 6.67 1.719 9.998 1.274 3.082-.409 5.979-2.002 8.679-3.438 2.909-1.557 5.726-3.264 8.5-5.031 1.448-.92 2.909-1.803 4.314-2.795.814-.547 1.757-1.376 1.307-2.446-.45-1.07-1.973-1.154-3.039-1.383-.666-.138-1.325-.294-1.99-.457-2.466-.6-4.932-1.202-7.397-1.803-6.818-1.695-13.626-3.41-20.427-5.145-4.315-1.1-8.63-2.296-12.944-3.306l-.203-.054c-.247-.066-.502.075-.57.316-.069.24.076.49.323.556l10.226 2.608c6.574 1.671 13.15 3.334 19.724 4.99 4.358 1.093 8.728 2.331 13.14 3.203.358.072.722.108 1.08.186.505.108 1.399.325 1.232 1.016-.166.691-1.232 1.148-1.781 1.49-2.675 1.744-5.362 3.475-8.118 5.104-2.7 1.648-5.51 3.118-8.413 4.4-1.51.69-3.138 1.098-4.802 1.201-1.69-.004-3.375-.206-5.017-.6-13.486-2.745-26.973-5.514-40.46-8.307l-4.93-1.016.271.661c.97-1.082 2.122-1.992 3.409-2.693 1.849-1.202 3.815-2.224 5.781-3.24 4.364-2.247 8.833-4.297 13.29-6.352 1.922-.878 3.846-1.756 5.738-2.687.524-.295.055-1.07-.475-.806z" transform="translate(-111 -3593) translate(0 3321) translate(80 104) translate(0 136) translate(32 32) translate(12.994 13.716)"/>
                                <path fill="#FFF" d="M67.658 157.369c-6.028 3.576-23.73 12.524-26.511 16.987l42.163 10.4c1.903.463 3.836.939 5.764.704 1.927-.235 3.769-1.174 5.524-2.173 5.15-2.977 9.95-6.723 14.732-10.458.559-.434 1.185-1.027 1.11-1.808-.097-1.063-1.294-1.31-2.203-1.462-2.013-.335-40.58-12.19-40.58-12.19z" transform="translate(-111 -3593) translate(0 3321) translate(80 104) translate(0 136) translate(32 32) translate(12.994 13.716)"/>
                                <path fill="#231F20" d="M66.139 156.713c-8.173 4.844-16.943 8.896-24.56 14.575-1.449 1.079-3.014 2.247-3.982 3.772-.07.12-.079.265-.025.393.054.127.165.224.302.263l42.163 10.404c3.174.787 6.6 2.008 9.916 1.406 3.224-.596 6.164-2.622 8.838-4.356 2.675-1.734 5.375-3.712 7.97-5.684 1.368-1.043 2.723-2.104 4.073-3.159.906-.709 1.985-1.56 1.744-2.824-.27-1.424-1.849-1.573-3.038-1.865-.647-.161-1.294-.352-1.941-.53-2.466-.698-4.857-1.425-7.285-2.146-6.854-2.05-13.701-4.125-20.542-6.227-4.351-1.329-8.678-2.789-13.066-4.004l-.21-.06c-.567-.179-.813.685-.246.858l10.298 3.158c6.628 2.026 13.26 4.043 19.895 6.049 2.79.838 5.584 1.67 8.382 2.496 1.522.447 3.05.948 4.598 1.3.447.076.89.175 1.325.297.733.257 1.19.835.777 1.592-.454.611-1.026 1.133-1.683 1.537-2.595 2.026-5.202 4.046-7.889 5.959-2.616 1.918-5.363 3.664-8.222 5.226-1.446.846-3.057 1.396-4.733 1.615-1.746.074-3.493-.14-5.165-.632-13.559-3.283-27.118-6.686-40.677-10.029l-5.047-1.245.27.655c.926-1.258 2.066-2.354 3.372-3.241 1.849-1.413 3.809-2.676 5.787-3.904 4.314-2.687 8.814-5.154 13.282-7.633 1.935-1.067 3.877-2.127 5.775-3.247.184-.137.236-.384.12-.578-.115-.195-.362-.276-.576-.191z" transform="translate(-111 -3593) translate(0 3321) translate(80 104) translate(0 136) translate(32 32) translate(12.994 13.716)"/>
                                <path fill="#D4DAFF" d="M113.092 114.778c-1.28 1.695-2.007 3.79-2.716 5.844l-7.705 22.327-2.158 6.251c-.219.43-.23.933-.03 1.371.375.533 1.145.258 1.685-.06l4.668-2.742 15.883-9.334" transform="translate(-111 -3593) translate(0 3321) translate(80 104) translate(0 136) translate(32 32) translate(12.994 13.716)"/>
                                <path fill="#231F20" d="M57.782 80.177c-4.155 1.965-8.231 4.114-12.24 6.342-2.153 1.194-4.283 2.419-6.406 3.674-1.806 1.014-3.55 2.137-5.22 3.36-.729.57-1.004 1.458-.306 2.18.838.864 2.294 1.023 3.39 1.317 3.096.816 6.199 1.62 9.308 2.412 6.168 1.555 12.355 3.026 18.56 4.414 7.038 1.575 14.097 3.04 21.18 4.396.581.11.826-.778.245-.888-11.831-2.27-23.62-4.843-35.365-7.72-2.921-.714-5.834-1.449-8.739-2.204-1.505-.386-3.004-.784-4.51-1.182-.569-.153-3.91-.655-3.519-1.69.135-.355.857-.685 1.17-.893.415-.282.838-.557 1.26-.833.869-.555 1.746-1.102 2.631-1.64 1.958-1.188 3.947-2.333 5.948-3.448 4.284-2.4 8.641-4.701 13.084-6.807.532-.251.067-1.041-.465-.79h-.006z" transform="translate(-111 -3593) translate(0 3321) translate(80 104) translate(0 136) translate(32 32) translate(12.994 13.716)"/>
                                <path fill="#231F20" d="M86.207 107.935c10.906 3.506 22.021 6.388 33.287 8.631 2.57.506 5.425 1.37 8.076 1.017 2.65-.352 4.863-2.28 6.984-3.704l14.406-9.63c1.375-.918 2.755-1.835 4.13-2.764.74-.494 1.794-1.281 1.233-2.263-.304-.406-.736-.709-1.233-.865-.666-.282-1.344-.535-2.028-.752-1.387-.427-2.817-.719-4.266-.87-.616-.065-.585.817 0 .882 1.23.135 2.442.377 3.625.723.567.164 1.128.353 1.677.588.333.108.655.246.961.411.198.118.21.083.34.341.129.259.098.377-.16.635-.495.416-1.03.786-1.597 1.106l-1.628 1.087-3.384 2.264-13.149 8.79c-2.09 1.4-4.198 3.192-6.88 3.233-1.37-.039-2.734-.214-4.068-.523-1.27-.235-2.533-.482-3.79-.74-5.15-1.04-10.26-2.215-15.332-3.528-5.7-1.466-11.348-3.1-16.946-4.904-.56-.182-.807.67-.24.853l-.018-.018z" transform="translate(-111 -3593) translate(0 3321) translate(80 104) translate(0 136) translate(32 32) translate(12.994 13.716)"/>
                                <path fill="#D4DAFF" d="M45.674 100.34c-4.181 10.03-8.21 20.137-12.088 30.32-.307.636-.432 1.346-.36 2.05.222.88.985 1.513 1.881 1.559.84-.012 1.663-.235 2.396-.65 5.23-2.455 10.734-4.85 15.916-7.78" transform="translate(-111 -3593) translate(0 3321) translate(80 104) translate(0 136) translate(32 32) translate(12.994 13.716)"/>
                                <path fill="#231F20" d="M76.552 107.376c2.177 5.365 4.757 10.624 7.233 15.83 3.168 6.716 6.372 13.418 9.613 20.107 1.064 2.207 2.127 4.415 3.216 6.61.25.514 1.046.065.789-.448-2.416-4.899-4.77-9.827-7.13-14.755-3.216-6.71-6.426-13.433-9.539-20.19-1.131-2.45-2.287-4.9-3.296-7.396-.214-.525-1.1-.295-.886.236v.006zM46.317 100.016c-.735 5.5 2.153 10.867 4.425 15.733 2.359 5.06 4.892 10.046 7.344 15.093 1.332 2.73 2.639 5.47 3.871 8.241.237.537 1.04.073.803-.459-2.172-4.89-4.575-9.66-6.946-14.489-2.371-4.83-4.886-9.738-6.908-14.767-1.19-2.976-2.085-6.104-1.656-9.321.081-.574-.853-.568-.933 0v-.03z" transform="translate(-111 -3593) translate(0 3321) translate(80 104) translate(0 136) translate(32 32) translate(12.994 13.716)"/>
                                <path fill="#231F20" d="M44.934 99.862c-3.796 7.74-7.482 15.527-11.058 23.36-.902 1.983-1.8 3.966-2.694 5.95-.624 1.385-1.516 3.059-.131 4.306 1.385 1.246 3.118.782 4.615.216 1.977-.758 3.942-1.56 5.913-2.336 4.366-1.735 8.788-3.505 13.048-5.54.536-.26.062-1.042-.474-.783-3.574 1.71-7.235 3.233-10.927 4.703-1.753.698-3.512 1.385-5.27 2.077-.849.338-1.691.68-2.54 1.006-.847.325-1.939.723-2.912.434-2.457-.717-.549-3.553.094-4.98.81-1.807 1.63-3.614 2.457-5.42 1.6-3.513 3.229-7.014 4.884-10.503 1.904-4.015 3.837-8.03 5.8-12.044.256-.524-.549-.982-.805-.458v.012zM111.133 114.188c-1.193 1.54-2.135 3.248-2.79 5.064-.857 2.163-1.683 4.332-2.527 6.5l-5.06 13.055-2.556 6.584c-.388.995-.777 1.984-1.159 2.98-.252.655-.548 1.46 0 2.067.529.477 1.315.57 1.947.232.98-.428 1.933-.911 2.853-1.448l6.372-3.33 14.277-7.46c.524-.274.055-1.049-.469-.775l-11.578 6.054-5.927 3.098c-1.849.954-3.63 1.99-5.497 2.866-.443.215-1.337.596-1.33-.25.084-.474.244-.932.474-1.359l1.152-2.979 2.243-5.767 4.634-11.917 2.581-6.667c.801-2.056 1.596-4.17 3.032-5.893.37-.447-.283-1.084-.653-.631l-.019-.024z" transform="translate(-111 -3593) translate(0 3321) translate(80 104) translate(0 136) translate(32 32) translate(12.994 13.716)"/>
                                <path fill="#231F20" d="M113.37 116.561c4.622 11.053 9.248 22.109 13.878 33.166l1.759 4.178c.436 1.153.934 2.282 1.49 3.384.556 1.003 1.704 2.477 3.054 2.215 1.478-.287 2.969-1.158 4.312-1.791 5.357-2.519 10.61-5.276 15.802-8.111 2.21-1.194 4.416-2.423 6.56-3.736.61-.382 1.27-.776 1.862-1.194.717-.55 1.11-1.41 1.05-2.298-.03-1.208-.33-2.396-.879-3.48-.61-1.33-1.221-2.637-1.832-3.956l-3.897-8.23-7.72-16.33-1.93-4.029c-.245-.525-1.039-.071-.794.448l14.805 31.31c.686 1.212 1.137 2.537 1.332 3.91.067.555-.03 1.119-.281 1.623 0-.03 0 0-.067.071-.393.353-.825.661-1.29.92-1.832 1.193-3.762 2.243-5.673 3.306-5.088 2.823-10.262 5.533-15.496 8.087-1.735.842-3.476 1.719-5.277 2.387-.226.09-.457.167-.69.233-.056 0-.27.048-.123.036h-.08.086c-.194-.042-.383-.106-.562-.191-.965-.483-1.496-1.57-1.905-2.495-.58-1.301-1.106-2.62-1.655-3.933-4.439-10.588-8.87-21.176-13.291-31.764l-1.662-3.975c-.22-.525-1.111-.292-.885.239zM52.405 97.039l-.33.123c-.173.06-.104.342.075.283 4.19-1.4 8.225-3.244 12.037-5.5.06-.045.078-.128.04-.194-.037-.065-.117-.09-.184-.06-3.792 2.242-7.803 4.076-11.968 5.471l.075.283.33-.124c.174-.064.098-.347-.075-.282zM52.202 95.993l12.694-6.208c.174-.083 0-.343-.15-.254l-12.7 6.207c-.17.083 0 .338.156.255zM52.891 93.824c4.072-2.19 8.32-4.013 12.697-5.448.181-.062.103-.361-.085-.299-4.389 1.447-8.649 3.28-12.733 5.48-.175.093 0 .36.151.267h-.03zM53.651 91.663c3.875-1.574 7.861-2.924 11.933-4.042.188-.056.107-.322-.087-.267-4.096 1.126-8.105 2.486-12.002 4.07-.182.073 0 .317.156.24zM55.72 88.758l4.535-2.087 2.234-1.027 1.078-.49c.21-.1.54-.16.65-.411.04-.061.04-.145 0-.206s-.108-.09-.174-.072c-.066-.003-.126.046-.145.119v.04c-.035.205.244.298.279.086v-.04l-.14.126h-.029v-.206c-.063.16-.499.272-.632.332l-.464.212-1.073.497-2.001.914-4.16 1.909c-.168.079-.092.404.082.324l-.04-.02zM57.3 85.862l3.416-1.647 1.645-.798.886-.425.38-.183c.15-.108.318-.18.495-.216L64 82.517v.05-.19h.04l.12.077v-.032c-.085-.184-.333 0-.246.159.025.063.08.106.142.114.063.008.124-.021.162-.076.037-.057.037-.134 0-.19-.069-.14-.155-.153-.287-.12-.35.127-.69.29-1.013.487l-1.898.919-3.923 1.9c-.167.083 0 .355.144.273l.057-.026zM58.65 83.006c1.948-.811 3.806-1.908 5.53-3.264.16-.12 0-.434-.148-.306-1.702 1.342-3.535 2.426-5.46 3.229-.177.07-.1.412.078.34zM58.573 80.094c.409.09.829 0 1.193-.26l1.48-.74 2.9-1.463c.178-.086.1-.464-.078-.378l-2.703 1.362-1.324.66c-.421.33-.908.483-1.396.441-.076-.016-.148.046-.168.143-.02.097.02.199.09.235h.006z" transform="translate(-111 -3593) translate(0 3321) translate(80 104) translate(0 136) translate(32 32) translate(12.994 13.716)"/>
                                <path fill="#231F20" d="M60.853 78.675c1.405-.462 2.758-1.076 4.037-1.833.189-.111 0-.41-.175-.299-1.255.745-2.583 1.347-3.963 1.799-.202.069-.115.402.094.333h.007zM62.144 75.694v-.128c.088-.134.168-.108.236.09l.074-.032.141-.058.323-.127.674-.268 1.292-.524c.202-.083 0-.357-.168-.28l-1.94.797-.464.185c-.128.051-.249.14-.229.287.04.307.566.122.384-.115-.182-.236-.41 0-.29.16l-.033.013zM63.004 72.896c.688-.147 1.337-.51 1.89-1.055.07-.058.095-.177.056-.273-.02-.047-.054-.082-.095-.096-.04-.014-.084-.005-.12.023-.529.527-1.152.878-1.813 1.022-.04.012-.076.044-.097.09-.022.045-.028.1-.016.152.024.107.11.17.195.145v-.008zM84.688 104.655c5.858-2.89 11.772-5.682 17.741-8.374.185-.078 0-.335-.154-.257-5.969 2.68-11.883 5.471-17.741 8.374-.179.084 0 .341.154.257zM87.553 102.452c2.37-1.386 4.825-2.616 7.35-3.682 1.209-.509 2.435-.978 3.678-1.407.585-.207 1.24-.378 1.842-.591.3-.072.54-.296.638-.591.012-.075-.034-.147-.106-.166-.073-.02-.148.018-.175.089-.152.538-1.462.721-1.924.88-.462.16-1.087.379-1.625.592-1.088.407-2.17.839-3.234 1.306-2.26.987-4.46 2.108-6.59 3.357-.06.045-.078.128-.04.194.037.065.118.091.186.06v-.041zM86.854 101.769c3.553-1.708 7.062-3.53 10.526-5.464.175-.096 0-.372-.15-.276-3.465 1.922-6.975 3.743-10.532 5.464-.175.084 0 .36.156.276zM88.98 98.173c1.923-.315 3.593-1.346 5.324-2.273 1.9-1.03 3.89-1.856 5.94-2.467.072-.03.111-.113.091-.192-.02-.08-.092-.13-.168-.117-1.951.58-3.848 1.354-5.665 2.312-1.797.953-3.593 2.093-5.605 2.422-.186.032-.108.341.083.315zM90.413 95.275c3.053-1.306 6.088-2.637 9.104-3.991.18-.078.102-.398-.077-.314-3.017 1.372-6.052 2.703-9.104 3.991-.179.079-.101.392.077.314zM92.652 92.349l7.614-3.966c.178-.09 0-.387-.147-.298l-7.645 3.994c-.177.09 0 .395.148.305l.03-.035zM93.307 90.21c1.946-.845 3.799-1.939 5.521-3.26.166-.123 0-.42-.153-.295-1.699 1.313-3.529 2.397-5.453 3.231-.178.083-.099.413.085.337v-.014zM94.062 87.336c1.432-.452 2.788-1.071 4.035-1.842.189-.123 0-.401-.19-.285-1.216.758-2.541 1.37-3.94 1.817-.218.071-.123.381.095.31zM96.282 83.002l3.249-1.166c.21-.075 0-.326-.182-.25l-3.248 1.165c-.218.076 0 .326.181.25zM97.704 79.406c.79-.449 1.625-.836 2.495-1.156.064-.01.116-.048.134-.101.02-.053 0-.11-.046-.148-.048-.037-.116-.049-.176-.029-.897.322-1.761.709-2.582 1.157-.182.104 0 .352.175.254v.023zM99.823 77.963c1.172-.267 2.291-.664 3.326-1.18.19-.096 0-.338-.176-.242-1.01.494-2.101.874-3.242 1.128-.084.026-.13.099-.106.169.023.07.109.113.198.102v.023zM98.39 148.678c4.215-3.191 8.71-5.986 13.428-8.35.174-.092 0-.352-.15-.268-4.717 2.367-9.212 5.162-13.428 8.351-.156.116 0 .382.15.267zM98.426 146.506c3.895-3.03 8.148-5.595 12.67-7.64.175-.076 0-.328-.157-.252-4.537 2.059-8.805 4.639-12.712 7.686-.15.117.06.323.211.206h-.012zM100.512 142.18c1.13-.505 2.204-1.028 3.289-1.578l1.639-.846.813-.44c.198-.11.475-.187.566-.42.025-.05.025-.111 0-.161-.027-.072-.085-.122-.153-.13-.062-.018-.128.01-.164.071v.04c-.102.167.141.329.249.16v-.031l-.158.07v-.16c-.057.122-.272.186-.373.245l-.328.174-.758.407-1.531.789c-1.044.53-2.1 1.034-3.17 1.512-.164.078-.091.388.079.317v-.02zM101.279 139.306c2.683-1.37 5.247-2.963 7.664-4.76.146-.11 0-.36-.151-.25-2.413 1.799-4.975 3.39-7.659 4.754-.169.087 0 .337.146.256zM102.715 137.858c2.09-1.319 4.167-2.662 6.231-4.03.058-.047.074-.135.038-.204-.035-.069-.111-.096-.176-.063-2.068 1.368-4.145 2.709-6.23 4.023-.068.043-.092.139-.053.214.038.076.123.102.19.06zM103.453 134.25l5.479-3.246c.17-.099 0-.425-.148-.326l-5.485 3.239c-.17.106 0 .432.154.333zM105.58 130.648c1.634-.745 3.235-1.593 4.793-2.542.176-.109 0-.42-.152-.311-1.535.937-3.113 1.77-4.727 2.498-.176.087-.103.434.085.355zM106.329 126.3c1.293-.967 2.646-1.813 4.047-2.532.17-.093 0-.398-.148-.313-1.399.725-2.752 1.574-4.046 2.54-.16.121 0 .426.147.305zM106.944 124.756v-.142l.11-.051.098.07c0 .09 0 .11.078.052l.117-.058.168-.09.396-.211.83-.443 1.623-.86c.079-.045.106-.144.061-.222-.044-.078-.145-.105-.223-.061l-2.252 1.2-.545.29c-.18.069-.348.164-.5.282-.227.25.176.532.318.263.03-.05.03-.111 0-.16-.116-.174-.395 0-.279.16v-.02zM108.576 122.705l2.102-.808c.147-.044.285-.11.407-.193.112-.102.112-.265 0-.366-.22-.187-.626.082-.383.297.242.214.445-.083.273-.242l.055.076v.09c0 .062-.125.117-.188.055l-.047-.076v-.048h-.054l-.125.048-.32.124-.642.242-1.282.49c-.09.053-.118.16-.062.242.057.078.172.105.266.062v.007zM109.23 119.797c1.367-.318 2.709-.702 4.019-1.149.205-.074 0-.321-.185-.247-1.281.447-2.595.83-3.933 1.149-.094.022-.148.102-.12.178.027.076.125.12.22.097v-.028zM61.579 141.466c3.925-2.202 7.92-4.271 11.983-6.208.166-.082 0-.333-.144-.251-4.064 1.948-8.06 4.018-11.989 6.208-.068.042-.09.132-.049.202.042.069.13.091.199.05zM63.006 139.309c3.977-2.345 7.977-4.655 12-6.93.166-.093 0-.345-.144-.258-4.023 2.271-8.023 4.583-12 6.936-.06.044-.076.127-.04.192.038.065.117.09.184.06zM62.295 137.865c3.611-2.08 7.367-3.905 11.238-5.463.176-.072.097-.36-.085-.287-3.895 1.565-7.672 3.4-11.304 5.493-.063.045-.081.13-.042.196s.122.092.193.06zM64.419 132.101c2.966-.905 5.47-2.966 8.39-4.015.177-.068.1-.368-.078-.306-2.925 1.05-5.417 3.122-8.39 4.021-.07.03-.109.11-.089.187.02.077.092.126.167.113zM65.888 129.896c2.244-1.476 4.557-2.796 6.926-3.956.168-.08.095-.401-.072-.321-2.394 1.176-4.729 2.517-6.994 4.016-.058.05-.074.145-.038.22.036.073.112.103.178.068v-.027zM67.344 125.571l7.662-4.017c.165-.086 0-.347-.141-.262l-7.662 4.036c-.164.085 0 .347.141.261v-.018zM68.773 123.427l5.473-2.512c.187-.087.11-.435-.083-.348l-5.48 2.512c-.187.08-.103.435.09.348zM69.556 120.535l3.992-1.838c.2-.094 0-.38-.173-.293l-3.991 1.844c-.2.094 0 .38.172.287zM70.263 117.633c1.028-.715 2.128-1.333 3.287-1.844.195-.088 0-.36-.17-.272-1.157.512-2.258 1.13-3.285 1.845-.176.12 0 .398.168.271zM72.43 114.038c1.292-.685 2.618-1.274 3.971-1.765.087-.03.136-.138.111-.242-.025-.103-.116-.163-.203-.133-1.376.501-2.726 1.101-4.042 1.796-.19.102 0 .445.163.344zM31.264 132.805c4.753-2.723 9.47-5.513 14.153-8.37.062-.045.08-.13.041-.197-.038-.067-.12-.094-.188-.062-4.683 2.852-9.4 5.64-14.154 8.363-.071.042-.097.135-.056.209.04.073.132.099.204.057zM31.27 129.196c3.64-2.01 7.395-3.848 11.248-5.508.174-.076 0-.308-.15-.232-3.857 1.656-7.614 3.495-11.255 5.508-.07.039-.094.122-.05.186.043.064.135.085.207.046zM33.415 125.59c2.245-1.209 4.55-2.3 6.914-3.271.169-.07.096-.382-.073-.312-2.368.989-4.696 2.092-6.982 3.31-.163.083 0 .357.14.274zM34.143 123.418c2.04-1.388 4.111-2.713 6.213-3.974.166-.103 0-.417-.143-.314-2.098 1.256-4.17 2.58-6.218 3.974-.16.11 0 .423.148.314zM34.826 119.095c1.887-.956 3.733-2.04 5.53-3.245.166-.114 0-.44-.15-.326-1.774 1.188-3.596 2.259-5.457 3.207-.173.09-.101.455.077.364zM36.323 116.924l5.473-3.256c.174-.102 0-.416-.15-.313l-5.48 3.255c-.174.102 0 .416.157.314zM37.02 114.056c1.495-.308 2.892-.96 4.071-1.903.164-.127-.072-.355-.229-.222-1.142.895-2.489 1.51-3.927 1.795-.21.045-.118.35.085.311v.02zM39.182 112.599l4.021-1.791c.195-.087.107-.439-.087-.345l-4.02 1.79c-.202.087-.115.432.086.346zM39.26 110.429c1.356-.57 2.68-1.187 3.975-1.853.078-.049.1-.141.052-.214-.049-.072-.152-.1-.24-.066-1.295.665-2.62 1.283-3.975 1.852-.218.092 0 .372.189.28zM41.992 105.974c0-.243.08-.272.198-.074l.075-.051.16-.103.335-.213.62-.404 1.301-.838c.18-.11 0-.433-.155-.316l-1.989 1.264c-.16.103-.328.198-.49.316-.128.068-.2.233-.173.397.087.323.546.117.39-.177-.154-.294-.377 0-.272.184v.015zM42.845 103.922c.774-.478 1.62-.846 2.51-1.094.218-.059.12-.378-.091-.313-.921.252-1.796.632-2.594 1.127-.19.117 0 .397.175.28z" transform="translate(-111 -3593) translate(0 3321) translate(80 104) translate(0 136) translate(32 32) translate(12.994 13.716)"/>
                                <path fill="#D4DAFF" d="M66.412 168.405c.185.717 1 1.237 1.59 1.8 1.178 1.157 1.436 2.703 2.019 4.107.583 1.404 1.84 2.907 3.681 3.03.899.085 1.784-.263 2.387-.94.224-.42.507-.806.84-1.144.909-.668 2.541-.068 3.229.829.687.897.803 1.967 1.282 2.938l4.031-5.27c.295-.377.614-.853.307-1.268-.43-.618-1.601-.383-2.35-.05-.749.335-1.927.576-2.344-.061-.258-.396 0-.854.374-1.157.4-.246.766-.546 1.086-.89.522-.749-.098-1.794-1.043-2.277-1.01-.427-2.102-.621-3.197-.569-2.092-.03-4.184.067-6.265.291l-5.627.631zM45.478 171.396c.067.274.372.463.588.68.353.46.609.99.749 1.558.212.611.735 1.05 1.358 1.142.334.03.661-.1.888-.354.082-.16.186-.306.31-.434.421-.2.921-.069 1.198.314.197.353.357.726.477 1.114l1.497-1.999c.106-.142.217-.325.111-.48-.16-.239-.593-.148-.87 0-.278.15-.716.218-.871 0-.094-.148 0-.319.139-.433.149-.095.285-.21.404-.343.195-.28-.038-.673-.388-.862-.375-.16-.78-.232-1.187-.211-.776-.013-1.552.024-2.323.108l-2.08.2zM98.175 170.685c.067.268.372.456.588.678.354.458.61.99.749 1.557.213.61.735 1.048 1.358 1.14.333.031.66-.102.882-.359.111-.142.16-.319.316-.427.42-.199.918-.07 1.198.308.196.352.354.725.472 1.112l1.497-1.99c.11-.143.222-.326.116-.485-.105-.16-.593-.143-.876 0-.283.142-.715.222-.87 0-.095-.149 0-.325.144-.44.147-.093.281-.206.399-.336.194-.285-.033-.679-.383-.861-.375-.161-.78-.235-1.187-.217-.776-.01-1.552.027-2.323.114l-2.08.206z" transform="translate(-111 -3593) translate(0 3321) translate(80 104) translate(0 136) translate(32 32) translate(12.994 13.716)"/>
                                <path fill="#231F20" d="M46.933 169.082c.943 1.995 2.284 3.868 3.977 5.556.137.135.445 0 .31-.136-1.677-1.668-3.006-3.52-3.942-5.49-.072-.164-.424-.093-.345.07zM49.103 166.924c.958 1.896 2.05 3.744 3.271 5.535.104.165.41 0 .299-.142-1.203-1.772-2.283-3.597-3.237-5.467-.083-.17-.424-.097-.333.074zM54.165 166.98c1.463 3.46 3.295 6.75 5.463 9.814.115.157.374 0 .26-.151-2.174-3.063-4.01-6.354-5.476-9.814-.072-.181-.331 0-.259.151h.012zM54.879 164.089c2.093 4.349 4.404 8.588 6.922 12.703.096.162.359 0 .257-.15-2.518-4.115-4.828-8.355-6.922-12.703-.083-.175-.34 0-.257.15zM86.638 169.142c1.63 3.605 3.459 7.124 5.478 10.543.048.062.136.08.206.041.07-.038.097-.121.064-.192-2.02-3.418-3.848-6.937-5.478-10.542-.075-.175-.345 0-.27.15zM91.695 171.307l4.037 8.367c.085.174.346 0 .26-.156l-4.036-8.36c-.085-.175-.346 0-.261.15zM95.3 173.457c.48 1.178 1.094 2.295 1.83 3.328.122.179.42 0 .292-.17-.727-1.008-1.33-2.1-1.796-3.254-.082-.198-.407-.11-.326.096zM96.021 169.114c1.207 2.609 2.535 5.167 3.986 7.674.1.171.41 0 .316-.148-1.436-2.499-2.753-5.04-3.95-7.62-.086-.178-.431-.101-.352.076v.018zM100.368 170.625c.668 1.049 1.273 2.137 1.813 3.26.1.21.405 0 .306-.182-.54-1.122-1.146-2.21-1.813-3.26-.12-.195-.426 0-.306.182zM102.534 170.595c.908 1.31 1.75 2.65 2.528 4.024.108.18.417 0 .31-.167-.778-1.365-1.62-2.704-2.528-4.017-.122-.174-.432 0-.31.16z" transform="translate(-111 -3593) translate(0 3321) translate(80 104) translate(0 136) translate(32 32) translate(12.994 13.716)"/>
                            </g>
                        </g>
                    </g>
                </g>
            </g>
        </g>
    </g>
</svg>
