<svg xmlns="http://www.w3.org/2000/svg" width="168" height="196" viewBox="0 0 168 196">
    <g fill="none" fill-rule="evenodd">
        <g fill-rule="nonzero">
            <g>
                <g>
                    <g>
                        <g fill="#7582FF" opacity=".1">
                            <path d="M69.858.192C55.593 1.2 43.969 1.728 31.21 3.642c-12.758 1.913-17.1 6.266-24.042 9.603-12.037 5.78-8.644 13.41 8.148 18.353 3.476 1.023 7.591 1.955 12.583 2.414 4.405.397 9.17.39 13.811.522 7.447.22 14.667.781 21.98 1.205 23.407 1.35 48.169 1.197 71.169-.44 8.602-.61 17.534-1.535 22.547-3.415 3.094-1.154 4.342-2.554 5.425-3.923 4.126-5.172 6.333-10.655-.526-15.631-1.578-1.143-3.693-2.27-7.065-3.124-2.703-.685-6.086-1.161-9.19-1.723-9.758-1.755-16.802-4.335-26.116-6.242C110.62-.665 69.858.192 69.858.192z" transform="translate(-636.000000, -162.000000) translate(530.000000, 162.000000) translate(92.000000, 0.000000) translate(14.957408, 0.462912) translate(0.000000, 158.186740)"/>
                        </g>
                        <path fill="#D2D8FF" d="M52.19 172.042c-9.341-.846-18.748-.609-28.035.707-.87.077-1.724.28-2.537.602-.897.468-.516 1.102.206 1.59 2.909 2.005 9.974 2.743 16.287 3.262 10.83.88 21.694 1.718 32.593 2.515 5.675.502 11.373.706 17.07.613 9.046-.301 33.006-1.808 36.275-1.507 16.988 1.559 22.032-7.335 20.567-7.387-29.942-1.029-92.426-.395-92.426-.395z" transform="translate(-636.000000, -162.000000) translate(530.000000, 162.000000) translate(92.000000, 0.000000) translate(14.957408, 0.462912)"/>
                        <path fill="#FFF" d="M94.953 62.829c.127.24.21.5.247.769.475.29 2.888.8 3.744 1.87.36.421.36 1.044 0 1.465-.227.28-6.673.395-7.663.333-.225.001-.445-.068-.63-.198-.14-.163-.227-.366-.247-.582-.247-1.153-.443-2.525.371-3.377.38-.357.846-.608 1.352-.727.961-.036 1.921.116 2.826.447z" transform="translate(-636.000000, -162.000000) translate(530.000000, 162.000000) translate(92.000000, 0.000000) translate(14.957408, 0.462912)"/>
                        <path fill="#000" d="M94.56 63.078c.186.302.104.717.403.935.25.14.518.248.794.323.775.227 1.522.54 2.228.935.33.207.763.509.763.935.011.09.011.18 0 .27 0 .104-.072.166 0 .083.073-.083.103 0 0 0-.04-.005-.082-.005-.123 0-.351.052-.898.094-1.362.125-1.444.083-2.888.114-4.332.124h-1.465c-.102.016-.206.016-.309 0-.278-.072-.278-.405-.33-.665-.117-.507-.162-1.028-.134-1.548.087-1.02.965-1.785 1.98-1.725.419.026.836.078 1.248.156.186 0 .372.073.557.125l.186.062c.062 0 .051 0 0 0 .185.14.443.121.607-.043.163-.165.181-.425.043-.611-.232-.187-.51-.306-.805-.343-.433-.094-.877-.166-1.31-.218-.94-.175-1.906.097-2.62.737-.777.905-1.048 2.144-.722 3.294.093.55.165 1.257.702 1.57.323.148.677.216 1.031.197 1.496 0 2.991 0 4.477-.073.722 0 1.444 0 2.166-.125.546 0 1.031-.062 1.3-.613.628-1.236-.496-2.234-1.507-2.733-.506-.241-1.026-.453-1.557-.633-.354-.095-.7-.22-1.032-.374l.217.28c-.042-.308-.143-.604-.3-.873-.319-.56-1.123-.093-.793.426z" transform="translate(-636.000000, -162.000000) translate(530.000000, 162.000000) translate(92.000000, 0.000000) translate(14.957408, 0.462912)"/>
                        <path fill="#FFF" d="M75.737 63.64c-.128.235-.212.492-.247.758-.465.301-2.888.81-3.734 1.87-.356.423-.356 1.043 0 1.465.237.28 6.683.395 7.674.333.226.01.449-.06.629-.198.138-.16.225-.36.247-.571.248-1.164.444-2.525-.37-3.377-.382-.361-.852-.613-1.362-.727-.966-.041-1.93.11-2.837.446z" transform="translate(-636.000000, -162.000000) translate(530.000000, 162.000000) translate(92.000000, 0.000000) translate(14.957408, 0.462912)"/>
                        <path fill="#000" d="M75.335 63.4c-.153.27-.25.566-.289.873l.217-.28c-.265.13-.541.234-.825.311-.454.167-.908.322-1.352.52-.866.384-1.97.987-2.062 2.078-.054.489.144.971.526 1.278.156.081.329.127.505.135.66.094 1.32.125 1.98.156 1.578.073 3.156.114 4.735.104.763 0 1.63 0 1.908-.883.423-1.125.423-2.367 0-3.492-.559-1-1.65-1.575-2.785-1.465-.503.043-1.002.115-1.496.219-.353.037-.69.166-.98.374-.412.426.238 1.039.66.665-.113.104 0 0 0 0h.166c.148-.05.3-.088.453-.115.363-.096.732-.169 1.104-.218.84-.148 1.677.274 2.063 1.04.184.467.238.978.155 1.475 0 .363-.052 1.34-.454 1.454-.435.052-.875.052-1.31 0-1.434 0-2.868 0-4.301-.104-.557 0-1.124 0-1.671-.124-.112-.031-.226-.055-.34-.073 0 0 .113.093.123.073-.046-.082-.08-.17-.103-.26-.038-.28.076-.557.3-.727.72-.572 1.553-.983 2.444-1.206.334-.088.659-.21.97-.363.391-.219.278-.634.484-.977.3-.51-.505-.977-.825-.468zM77.924 1.775v3.117c.435 2.37 1.351 4.623 2.692 6.619.207.417.49.79.835 1.101.601.436 1.41.436 2.012 0 .205-.19.426-.364.66-.52 1.024-.63 1.932-1.434 2.681-2.379.782-1.776 1.054-3.738.784-5.662-.014-.593-.136-1.177-.36-1.725-.23-.452-.563-.844-.97-1.143-4.002-2.972-8.334.592-8.334.592z" transform="translate(-636.000000, -162.000000) translate(530.000000, 162.000000) translate(92.000000, 0.000000) translate(14.957408, 0.462912)"/>
                        <path fill="#FFF" d="M80.832 14.503c.474-.379.704-.989.599-1.59-.176-.893-1.032-1.444-1.537-2.213-.319-.54-.532-1.135-.63-1.755-.268-1.34-1.03-5.196.434-6.91C80.634.966 82.062.477 83.45.748c1.39.271 2.532 1.263 3.004 2.607.814 1.888.765 4.042-.134 5.89-.372.655-.898 1.206-1.31 1.85-.397.634-.561 1.388-.464 2.13.082.634 1.093.832.794 1.164-.093.104-1.65.644-1.785.696-.69.27-2.723-.582-2.723-.582z" transform="translate(-636.000000, -162.000000) translate(530.000000, 162.000000) translate(92.000000, 0.000000) translate(14.957408, 0.462912)"/>
                        <path fill="#000" d="M81.1 14.774c1.145-1.04.774-2.36-.103-3.357-.558-.544-.976-1.219-1.217-1.963-.144-.53-.237-1.04-.33-1.6-.371-2.151-.722-5.196 1.568-6.328.879-.466 1.902-.574 2.857-.302 1.256.49 2.177 1.59 2.445 2.92.568 1.686.404 3.535-.454 5.091-.753 1.237-2.228 2.588-1.66 4.23.103.261.278.488.505.654 0 0 .247.229.278.218l.134-.26-.103.052c-.274.062-.538.164-.784.302l-.63.228c-.938.126-1.891-.064-2.712-.54-.464-.187-.66.571-.206.758.859.457 1.825.67 2.795.613.42-.109.83-.251 1.228-.426.33-.124.845-.228 1.031-.592.217-.55-.413-.738-.68-1.039-.192-.444-.192-.948 0-1.392.195-.533.485-1.026.855-1.455 1.154-1.42 1.693-3.246 1.496-5.07-.289-2.67-1.898-5.455-4.91-5.195-1.016.088-1.979.495-2.754 1.163-.885.905-1.36 2.139-1.31 3.408-.016 1.4.136 2.795.454 4.156.163.928.573 1.794 1.186 2.505.692.779 1.517 1.766.475 2.67-.371.332.175.883.547.55z" transform="translate(-636.000000, -162.000000) translate(530.000000, 162.000000) translate(92.000000, 0.000000) translate(14.957408, 0.462912)"/>
                        <path fill="#000" d="M85.928 1.775C84.605.917 83.016.577 81.462.82c-.811.148-1.577.482-2.239.977-.423.29-.897.738-.794 1.257.038.166.116.319.227.447.628.683 1.533 1.04 2.455.966.918 0 1.815-.208 2.733-.176.356.002.708.08 1.032.228.372.21.68.519.887.894.515 1.089.766 2.285.732 3.491.791-1.567 1.035-3.357.691-5.08l-1.258-2.048z" transform="translate(-636.000000, -162.000000) translate(530.000000, 162.000000) translate(92.000000, 0.000000) translate(14.957408, 0.462912)"/>
                        <path fill="#FFF" d="M76.665 32.188c.145 7.44-1.268 29.488-1.093 30.568.03.305.149.594.34.831.268.236.598.387.95.437 1.28.153 2.574.128 3.847-.073.204-.134.348-.343.402-.582.247-.79 2.145-16.707 2.661-23.804 2.063 7.17 5.951 22.91 6.426 23.295.474.385 3.373.395 3.981.447.256.051.52.014.753-.104.237-.203.38-.497.392-.81.413-2.432-5.91-22.516-6.364-30.475-3.383-.634-12.295.27-12.295.27z" transform="translate(-636.000000, -162.000000) translate(530.000000, 162.000000) translate(92.000000, 0.000000) translate(14.957408, 0.462912)"/>
                        <path fill="#000" d="M76.273 32.188c.166 9.07-.618 18.162-1.03 27.223-.1 1.077-.128 2.16-.083 3.241.196 2.234 2.98 1.933 4.6 1.808.804-.062 1.413-.093 1.702-1.039.09-.34.152-.688.185-1.039.268-1.829.485-3.657.702-5.496.69-5.767 1.361-11.534 1.784-17.331l-.753.103c1.444 4.905 2.692 9.871 3.992 14.807.536 2.078 1.031 4.156 1.66 6.234.207.717.361 2.078 1.032 2.577.736.281 1.524.398 2.31.343.753 0 2.166.374 2.816-.115.877-.675.464-2.254.299-3.117-.763-4.301-2.063-8.53-3.094-12.77-1.269-5.101-2.775-10.39-3.095-15.637-.003-.176-.12-.328-.288-.374-4.013-.696-8.376-.156-12.378.25-.495 0-.495.83 0 .779 3.94-.395 8.252-.956 12.192-.281l-.279-.374c.387 4.074 1.122 8.106 2.197 12.053 1.032 4.395 2.218 8.748 3.25 13.144.382 1.428.678 2.878.886 4.343.083.675.196 1.247-.794 1.454-.953.078-1.912.015-2.846-.187-.722-.093-.733 0-.96-.581-.198-.549-.367-1.107-.505-1.673-.557-1.954-1.032-3.928-1.589-5.892-1.33-5.05-2.599-10.11-4.074-15.118-.06-.18-.237-.292-.424-.266-.187.025-.329.18-.339.37-.32 4.655-.846 9.352-1.423 14.1-.238 2.161-.495 4.312-.774 6.473-.093.707-.175 1.403-.278 2.078 0 .343-.062 1.102-.372 1.34-.31.24-.907.094-1.175.115-.601.041-1.205.041-1.805 0-1.032-.073-1.589-.499-1.62-1.392 0-1.175.072-2.37.124-3.533.186-4.229.413-8.458.598-12.687.206-4.623.464-9.278.382-13.912-.054-.155-.197-.26-.36-.265-.162-.005-.31.092-.373.244z" transform="translate(-636.000000, -162.000000) translate(530.000000, 162.000000) translate(92.000000, 0.000000) translate(14.957408, 0.462912)"/>
                        <path fill="#FFF" d="M71.828 40.968c.124.135.67 0 .743-.385.154-.665.123-2.629.216-2.91.096-.28.355-.471.65-.477.44.324.864.67 1.269 1.039.072 0 .742.073.443-.51-.124-.249-1.588-2.077-1.836-2.358-.165-.235-.38-.43-.629-.571-.252-.078-.521-.078-.773 0-.35.078-.695.178-1.032.301-.107.026-.204.084-.278.166-.046.09-.067.19-.062.291.041.405.732 4.832 1.289 5.414z" transform="translate(-636.000000, -162.000000) translate(530.000000, 162.000000) translate(92.000000, 0.000000) translate(14.957408, 0.462912)"/>
                        <path fill="#000" d="M71.611 41.31c.358.145.767.054 1.032-.228.228-.296.341-.665.32-1.04 0-.404 0-.82.061-1.236-.022-.31-.022-.623 0-.935V37.8c0-.01.155-.125.217-.198.062-.073-.113-.083 0 0l.248.218c.175.156.34.322.526.478.14.153.313.274.505.354.315.118.67.001.855-.282.185-.284.151-.658-.081-.903-.372-.571-.826-1.101-1.248-1.631-.423-.53-.753-1.278-1.403-1.434-.62-.053-1.242.058-1.805.322-.41.095-.696.47-.68.894.04.499.112.995.216 1.485.144.821.299 1.652.505 2.463.096.607.325 1.186.67 1.694.34.374.888-.187.547-.551 0 0 0 .062 0 0 .004-.031.004-.063 0-.094-.04-.068-.071-.141-.093-.218-.092-.26-.175-.509-.247-.769-.165-.623-.3-1.247-.423-1.88-.124-.634-.206-1.123-.289-1.694-.007-.128-.007-.256 0-.384v-.146c.116-.063.241-.105.371-.125l.454-.124c.224-.085.465-.114.702-.083.206 0 .34.26.464.415.124.156.278.312.412.478.392.478.774.956 1.145 1.455.094.152.197.298.31.436.062.063 0 .063.062 0h-.083c.072 0 .062.063.062 0 0-.062-.155-.124-.155-.124-.299-.26-.577-.551-.887-.79-.298-.251-.733-.251-1.031 0-.62.426-.506 1.299-.537 1.953 0 .385 0 .78-.061 1.164.003.13-.014.26-.052.384 0 .063-.083.073-.134.104-.052.031-.103 0 0 0-.475-.332-.856.343-.475.644z" transform="translate(-636.000000, -162.000000) translate(530.000000, 162.000000) translate(92.000000, 0.000000) translate(14.957408, 0.462912)"/>
                        <path fill="#D2D8FF" d="M76.696 22.462c0 1.87-.887 8.718-.216 10.474 4.383-.073 7.931.166 12.315.083 1.279 0-.113-10.39.279-14.09.165-1.6 1.454 16.002 1.227 15.067l4.322 1.205s.36-11.918-1.238-16.625c-1.393-4.156-6.86-6.442-9.582-4.499-1.33.946-2.331.5-4.58-.239-9.613-3.117-9.375 21.082-9.5 21.072-1.03-.104 5.065.561 4.044.457 0-.02 2.785-20.282 2.93-12.905z" transform="translate(-636.000000, -162.000000) translate(530.000000, 162.000000) translate(92.000000, 0.000000) translate(14.957408, 0.462912)"/>
                        <path fill="#FFF" d="M92.312 40.417c-.415.146-.872.108-1.258-.104-.206-.208 2.32-4.156.773-4.665-.165-.052-1.485.976-1.567.82-.413-.664 1.227-2.14 1.392-2.316.164-.193.409-.297.66-.281.723.122 1.42.364 2.063.717.285.315.414.742.35 1.164-.312 1.766-1.154 3.395-2.413 4.665z" transform="translate(-636.000000, -162.000000) translate(530.000000, 162.000000) translate(92.000000, 0.000000) translate(14.957408, 0.462912)"/>
                        <path fill="#000" d="M92.24 40.043c-.193.063-.397.084-.598.062-.079-.009-.159-.009-.237 0-.062 0-.093-.166 0 .104 0 0 .082.135 0 .177.022-.061.039-.124.051-.187 0-.094 0-.125.114-.25.247-.571.515-1.132.742-1.714.26-.574.39-1.198.382-1.829 0-.488-.433-1.226-1.032-1.039-.254.097-.494.23-.711.395l-.444.28c-.096.047-.189.1-.278.156-.145 0 0 .094.36.177 0 0 0-.062 0 0v-.125c.048-.156.12-.304.217-.436.194-.287.416-.555.66-.8.155-.166.32-.343.496-.499.175-.156.515-.083.804 0 .38.084.75.21 1.104.374.356.213.532.635.433 1.04-.159.935-.51 1.827-1.032 2.618-.215.4-.456.785-.722 1.153-.087.112-.18.22-.278.322l-.124.135s-.093.052 0 0c-.454.187-.258.946.206.759.242-.116.451-.291.609-.51.265-.333.513-.68.743-1.039.543-.851.95-1.784 1.206-2.763.14-.503.14-1.035 0-1.538-.175-.467-.556-.824-1.031-.966-.41-.162-.83-.294-1.258-.395-.409-.138-.859-.069-1.207.187-.556.455-1.033.999-1.413 1.61-.22.299-.316.671-.268 1.04.103.425.453.488.804.321.316-.17.622-.358.918-.56l.217-.125.093-.052c.639.405-.155 0-.155 0h.134c.108.203.137.44.082.665-.059.355-.156.704-.288 1.039-.258.706-.62 1.36-.887 2.078-.14.207-.14.478 0 .686.471.346 1.084.428 1.63.218.608-.166.412-.915-.042-.77z" transform="translate(-636.000000, -162.000000) translate(530.000000, 162.000000) translate(92.000000, 0.000000) translate(14.957408, 0.462912)"/>
                        <path fill="#000" d="M76.315 22.462c0 1.808-.248 3.627-.361 5.435-.103 1.62-.382 3.574.154 5.195.046.17.198.288.372.29 2.867 0 5.724 0 8.592.084 1.253.156 2.521.156 3.775 0 .254-.05.469-.22.577-.457.35-1.053.456-2.173.31-3.273 0-1.725-.134-3.45-.217-5.196-.122-1.666-.156-3.338-.103-5.008v-.53c-3.228-3.522-.64 0-.691.052-.052.052 0 .094 0 .125-.004.315.034.63.113.935.279 2.504.454 5.019.64 7.523.113 1.434.206 2.868.299 4.301 0 .458 0 .925.072 1.382 0 .219-.062.8.062.551l.536-.135.155.197-.474.478 4.321 1.206c.117.032.242.008.339-.065.096-.074.154-.188.156-.31.185-4.412.012-8.832-.515-13.216-.34-2.535-.908-4.956-2.868-6.743-1.763-1.6-4.466-2.775-6.859-2.078-.497.194-.974.437-1.423.727-.9.388-1.921.37-2.806-.052-.984-.406-2.031-.638-3.094-.686-1.454.081-2.803.79-3.703 1.943-2.444 2.94-3.177 7.273-3.682 10.962-.282 2.016-.47 4.035-.567 6.058 0 .654-.062 1.298-.083 1.943 0 .135-.082.467 0 .581.165.323-.216-.218.248-.197-.423 0-.537.707-.103.769 1.382.197 3.094.301 4.27.478l.103-.769h-.114l.372.499c.371-2.73.784-5.459 1.238-8.188.278-1.662.546-3.335.948-4.966.142-.377.259-.762.351-1.154-.299-.509-.433 0-.464 0-.031 0 .052.208 0 .26-.009.347.012.695.062 1.039.03.19.195.331.387.331s.355-.14.386-.331c0-.426.114-2.172-.732-1.995-.608.125-.753 1.486-.856 1.953-.732 3.263-1.145 6.66-1.64 9.996-.144.949-.278 1.894-.402 2.837-.028.116-.003.238.07.333.072.095.182.152.301.155h.114c.422 0 .536-.707.103-.769-1.382-.187-3.095-.301-4.27-.468l-.104.759c.681 0 .537-.831.547-1.299 0-1.34.124-2.68.227-4.01.173-3.974.97-7.895 2.362-11.617.539-1.575 1.561-2.936 2.919-3.886 1.98-1.153 3.796.083 5.807.457 1.31.25 1.97-.322 3.094-.831 1.26-.457 2.646-.416 3.878.114 2.722 1.048 4.658 3.512 5.044 6.422.768 4.825 1.017 9.72.743 14.598l.484-.374-4.321-1.205c-.134-.034-.274.006-.371.104-.097.098-.137.24-.104.374.03.11.1.207.196.27.186.102.419.038.526-.146.12-.516.12-1.053 0-1.569-.062-1.163-.144-2.327-.227-3.49-.196-2.817-.402-5.622-.68-8.427.021-.664-.062-1.327-.248-1.964-.33-.613-.701-.24-.825.25-.222 1.616-.222 3.256 0 4.872.093 1.933.217 3.855.247 5.777.042.791.01 1.584-.092 2.37 0 .155 0 .477-.155.592-.155.114-1.733 0-2.063 0-3.393 0-6.787-.146-10.18-.094l.371.28c-.536-1.579-.216-3.605-.103-5.195.114-1.59.35-3.418.34-5.122-.055-.144-.19-.242-.342-.251-.153-.009-.298.073-.37.21zM72.395 56.543v2.171c-.34 2.536-2.063 9.227-2.444 9.518-.619.447-6.56.914-6.818.78-.258-.136-1.155-9.186-.949-11.368.016-.632.148-1.256.392-1.839.236-.481.591-.893 1.032-1.195 2.335-1.556 5.368-1.556 7.704 0 .689.393 1.106 1.136 1.083 1.933z" transform="translate(-636.000000, -162.000000) translate(530.000000, 162.000000) translate(92.000000, 0.000000) translate(14.957408, 0.462912)"/>
                        <path fill="#FFF" d="M69.92 68.273c-.712-.155-1.537-.488-1.413-1.1.206-.946 1.134-1.518 1.67-2.308.345-.57.58-1.201.692-1.86.32-1.402 1.207-5.496-.33-7.273-1.537-1.776-5.518-2.701-7.169 1.268-.907 1.977-.907 4.257 0 6.234.372.707.929 1.299 1.341 1.974.471.657.64 1.485.464 2.276-.495.747-1.22 1.309-2.063 1.6.493.666 1.243 1.089 2.063 1.164.403 0 2.156.633 3.095.239.392-.156 2.784-1.393 3.094-1.528.31-.135-.722-.571-1.444-.686z" transform="translate(-636.000000, -162.000000) translate(530.000000, 162.000000) translate(92.000000, 0.000000) translate(14.957408, 0.462912)"/>
                        <path fill="#000" d="M70.023 67.847c-.578-.135-1.372-.332-.96-1.039.3-.457.645-.882 1.032-1.267.604-.761 1.002-1.667 1.155-2.629.411-1.603.568-3.262.465-4.915-.054-1.414-.805-2.708-2.001-3.45-1.147-.693-2.521-.895-3.817-.56-3.785 1.101-4.497 6.889-2.62 9.819.62.966 1.847 2.078 1.558 3.366-.114.478-.578.769-.97 1.04-.392.27-1.031.363-1.145.685-.278.52.609 1.039.95 1.236.677.347 1.41.57 2.165.655.86.265 1.78.265 2.64 0 .671-.27 1.321-.644 1.981-.977.33-.166 1.248-.426 1.341-.862.175-.748-1.382-.946-1.815-1.04-.433-.093-.691.645-.207.76.227.051 1.218.166 1.32.384v-.395c0-.094-.195.073-.298.125l-.733.363c-.577.291-1.145.603-1.733.863-.621.245-1.305.282-1.949.104-.6-.083-1.192-.208-1.774-.374-.223-.087-.437-.195-.64-.323-.113-.083-.309-.311-.443-.342l-.083-.084c0 .333.062.395.29.187.223-.082.433-.202.618-.353.595-.304 1.045-.835 1.248-1.475.413-1.933-1.526-3.263-2.145-4.873-1.114-2.889.093-8.074 3.909-7.845 1.098.05 2.13.54 2.867 1.361.97 1.205.825 3.117.65 4.561-.035 1.758-.627 3.459-1.691 4.853-.485.52-1.228 1.257-1.104 2.078.124.82 1.031 1.039 1.691 1.215.234.07.479-.066.547-.3.068-.236-.065-.483-.299-.552z" transform="translate(-636.000000, -162.000000) translate(530.000000, 162.000000) translate(92.000000, 0.000000) translate(14.957408, 0.462912)"/>
                        <path fill="#000" d="M63.938 54.974c1.398-.917 3.092-1.259 4.734-.956.86.184 1.666.568 2.352 1.122.453.333.938.831.825 1.403-.04.184-.125.356-.248.498-.662.743-1.633 1.128-2.62 1.04-.959 0-1.908-.27-2.877-.26-.864-.058-1.678.414-2.063 1.195-.66 1.122-.537 2.992-.279 4.717-1.165-.82-1.62-4.416-1.217-6.504l1.393-2.255z" transform="translate(-636.000000, -162.000000) translate(530.000000, 162.000000) translate(92.000000, 0.000000) translate(14.957408, 0.462912)"/>
                        <path fill="#FFF" d="M79.017 117.794c.12.241.201.501.237.769.475.29 2.899.8 3.744 1.86.36.42.36 1.044 0 1.465-.227.29-6.673.405-7.663.332-.226.011-.45-.059-.63-.197-.138-.16-.224-.36-.247-.572-.247-1.153-.443-2.525.371-3.377.381-.355.847-.605 1.352-.727.965-.04 1.929.112 2.836.447z" transform="translate(-636.000000, -162.000000) translate(530.000000, 162.000000) translate(92.000000, 0.000000) translate(14.957408, 0.462912)"/>
                        <path fill="#000" d="M78.615 118.033c.185.29.103.717.412.925.246.141.51.25.784.322.775.233 1.522.55 2.228.945.33.198.763.499.763.935.01.09.01.18 0 .27 0 .104-.072.167 0 .084.073-.083.104 0 0 0-.04-.005-.082-.005-.123 0-.351 0-.898.093-1.352.114-1.444.093-2.898.125-4.342.135h-1.464c-.1.01-.2.01-.3 0-.288-.083-.288-.416-.34-.665-.117-.51-.162-1.035-.134-1.558.088-1.02.965-1.785 1.98-1.725.42.024.837.08 1.248.166.191.032.38.073.568.125h.175c.062 0 0 .052 0 0 .423.426 1.031-.24.65-.665-.233-.184-.511-.299-.805-.333-.432-.099-.87-.171-1.31-.218-.939-.165-1.902.106-2.62.738-.778.904-1.047 2.145-.711 3.293.082.551.155 1.258.69 1.57.323.15.678.215 1.032.186 1.496 0 2.991 0 4.487-.062.712 0 1.444-.062 2.156-.135.546 0 1.031-.062 1.3-.603.639-1.246-.496-2.234-1.507-2.732-.503-.248-1.024-.46-1.557-.634-.354-.094-.7-.22-1.031-.374l.216.28c-.042-.31-.143-.61-.299-.883-.32-.426-1.124-.01-.794.499z" transform="translate(-636.000000, -162.000000) translate(530.000000, 162.000000) translate(92.000000, 0.000000) translate(14.957408, 0.462912)"/>
                        <path fill="#FFF" d="M60.802 117.794c-.12.241-.2.501-.237.769-.475.29-2.899.8-3.744 1.86-.36.42-.36 1.044 0 1.465.227.29 6.673.405 7.663.332.227.011.45-.059.63-.197.138-.16.224-.36.247-.572.248-1.153.443-2.525-.371-3.377-.381-.355-.847-.605-1.352-.727-.965-.04-1.929.112-2.836.447z" transform="translate(-636.000000, -162.000000) translate(530.000000, 162.000000) translate(92.000000, 0.000000) translate(14.957408, 0.462912)"/>
                        <path fill="#000" d="M60.41 117.555c-.157.271-.259.572-.299.883l.217-.28c-.267.126-.543.23-.826.311-.453.156-.907.322-1.35.51-.867.384-1.97 1.038-2.064 2.078-.051.488.147.97.526 1.278.16.082.337.128.516.135.65.093 1.31.124 1.97.155 1.578.073 3.167.115 4.734.104.774 0 1.63 0 1.919-.883.418-1.122.418-2.358 0-3.48-.554-1.002-1.642-1.58-2.775-1.476-.506.045-1.009.121-1.506.229-.35.027-.686.153-.97.363-.422.426.228 1.04.65.665-.102.115 0 0 0 0h.145l.454-.114c.382-.073.774-.135 1.165-.177.839-.137 1.67.281 2.063 1.04.176.473.229.985.155 1.485 0 .353-.062 1.33-.464 1.444-.435.052-.875.052-1.31 0-1.434 0-2.867 0-4.301-.104-.557 0-1.114 0-1.671-.124-.111-.032-.225-.052-.34-.063 0 0 .113.084.123.063-.046-.078-.08-.162-.103-.25-.035-.281.078-.561.3-.737.715-.564 1.541-.968 2.423-1.185.354-.095.699-.22 1.032-.374.381-.218.268-.634.474-.966.227-.561-.567-.977-.887-.53z" transform="translate(-636.000000, -162.000000) translate(530.000000, 162.000000) translate(92.000000, 0.000000) translate(14.957408, 0.462912)"/>
                        <path fill="#FFF" d="M61.73 86.342c.145 7.44-1.268 29.488-1.093 30.569.03.304.149.593.34.831.27.237.604.389.96.436 1.28.153 2.574.128 3.847-.072.202-.134.343-.343.392-.582.258-.78 2.145-16.708 2.66-23.794 2.064 7.159 4.941 23.71 5.416 24.095.474.385 3.373.395 3.981.447.256.046.52.01.753-.104.234-.206.375-.498.392-.81.413-2.442-4.9-23.316-5.353-31.286-3.383-.634-12.295.27-12.295.27z" transform="translate(-636.000000, -162.000000) translate(530.000000, 162.000000) translate(92.000000, 0.000000) translate(14.957408, 0.462912)"/>
                        <path fill="#000" d="M61.297 86.342c.165 9.071-.619 18.173-1.031 27.223-.095 1.078-.122 2.16-.083 3.242.196 2.234 2.981 1.932 4.61 1.808.805 0 1.403-.094 1.692-1.04.091-.34.153-.687.186-1.038.268-1.829.485-3.658.701-5.497.691-5.756 1.362-11.533 1.785-17.32l-.753.103c1.444 4.925 2.403 10.017 3.414 15.056.443 2.192.876 4.395 1.35 6.577.145.696.217 2.203.826 2.691.609.489 1.753.353 2.393.405.64.052 2.166.374 2.816-.124.887-.676.474-2.38.34-3.294-.63-4.426-1.67-8.811-2.558-13.196-1.031-5.195-2.31-10.536-2.63-15.876-.003-.176-.12-.328-.289-.374-4.002-.696-8.375-.146-12.377.26-.495 0-.495.82 0 .779 3.94-.395 8.252-.967 12.192-.28l-.207-.375c.36 4.129.993 8.228 1.898 12.271.887 4.562 1.877 9.102 2.744 13.664.315 1.46.55 2.938.701 4.426.062.706.144 1.267-.877 1.434-1.06.107-2.133.027-3.166-.24-.485-.124-.423-.093-.567-.623-.145-.53-.279-1.163-.403-1.745-.433-1.985-.814-3.97-1.217-5.964-1.031-5.196-2.063-10.536-3.548-15.669-.06-.18-.238-.292-.424-.267-.187.026-.33.181-.34.37-.34 4.708-.866 9.352-1.402 14.1-.247 2.162-.509 4.32-.784 6.474-.082.706-.175 1.413-.278 2.078-.052.343-.062 1.112-.372 1.34-.38.114-.78.153-1.175.114-.602.037-1.204.037-1.805 0-1.032-.083-1.589-.509-1.62-1.402 0-1.174.072-2.359.124-3.533.186-4.229.413-8.458.598-12.687.207-4.623.464-9.278.382-13.912-.007-.152-.095-.29-.23-.359-.134-.07-.295-.062-.422.021s-.201.227-.194.38z" transform="translate(-636.000000, -162.000000) translate(530.000000, 162.000000) translate(92.000000, 0.000000) translate(14.957408, 0.462912)"/>
                        <path fill="#FFF" d="M56.893 95.133c.124.124.67 0 .753-.395.144-.665.113-2.629.206-2.91.095-.284.362-.474.66-.467.444.32.868.666 1.269 1.039.062.052.743.073.433-.51-.124-.249-1.578-2.077-1.826-2.347-.165-.241-.384-.44-.639-.582-.251-.084-.522-.084-.774 0-.349.077-.693.174-1.031.29-.105.033-.2.09-.278.167-.048.093-.069.197-.062.301 0 .374.732 4.821 1.289 5.414z" transform="translate(-636.000000, -162.000000) translate(530.000000, 162.000000) translate(92.000000, 0.000000) translate(14.957408, 0.462912)"/>
                        <path fill="#000" d="M56.697 95.465c.32.239.835 0 1.031-.218.226-.297.339-.666.32-1.04 0-.415.02-.83.062-1.246-.005-.313.012-.625.052-.935v-.063c0-.062.154-.135.216-.207.062-.073-.103-.083 0 0l.248.207.526.478c.135.16.31.282.505.354.316.118.67.001.855-.282.185-.283.151-.658-.081-.903-.372-.571-.825-1.101-1.248-1.631-.423-.53-.877-1.278-1.527-1.424-.618-.058-1.24.05-1.805.312-.418.091-.71.473-.69.904.041.49.113.975.216 1.455.144.831.299 1.652.505 2.462.095.611.324 1.194.67 1.704.34.374.888-.176.558-.55 0 0 0 .062 0 0l-.062-.094-.093-.218c-.095-.251-.174-.508-.237-.769-.176-.613-.31-1.247-.434-1.88-.123-.634-.206-1.123-.288-1.684-.007-.131-.007-.263 0-.395v-.145c.115-.063.24-.105.37-.125l.455-.125c.224-.083.464-.112.701-.083.206 0 .34.26.475.416l.402.478c.392.478.773.966 1.145 1.455.094.15.198.297.31.436.061.073 0 .073.061 0 .062-.073 0 0 0 0h-.093.062c-.044-.053-.096-.099-.155-.135-.299-.26-.577-.55-.887-.79-.298-.251-.733-.251-1.031 0-.619.426-.506 1.299-.526 1.964 0 .384 0 .769-.062 1.153 0 .134-.021.268-.062.395l-.134.104c-.052.042-.103 0 0 0-.34-.301-.722.374-.33.665z" transform="translate(-636.000000, -162.000000) translate(530.000000, 162.000000) translate(92.000000, 0.000000) translate(14.957408, 0.462912)"/>
                        <path fill="#D2D8FF" d="M61.761 76.586c0 1.87-.887 8.728-.216 10.484 4.383-.083 7.055 0 11.438-.083 1.28 0 2.94-10.578 3.321-14.225.176-1.6 4.425-.27 6.643-5.05 1.283-2.871 1.644-6.076 1.031-9.164-1.227.06-2.447-.209-3.538-.78-.938 1.736-.103 4.728-1.908 7.534-2.341 3.657-6.941.945-9.664 2.888-1.32.946-2.331.489-4.57-.249-9.623-3.128-9.385 21.113-9.499 21.113-1.031-.104 5.054.561 4.033.457 0-.01 2.795-20.271 2.93-12.925z" transform="translate(-636.000000, -162.000000) translate(530.000000, 162.000000) translate(92.000000, 0.000000) translate(14.957408, 0.462912)"/>
                        <path fill="#FFF" d="M82.802 51.857c-.364-.242-.813-.321-1.237-.218-.258.145 1.206 4.571-.444 4.706-.165 0-1.176-1.32-1.3-1.195-.567.54.64 2.39.764 2.608.107.229.32.388.567.426.72.066 1.445.01 2.146-.166.35-.236.581-.616.629-1.039.145-1.782-.247-3.568-1.125-5.122z" transform="translate(-636.000000, -162.000000) translate(530.000000, 162.000000) translate(92.000000, 0.000000) translate(14.957408, 0.462912)"/>
                        <path fill="#000" d="M82.957 51.524c-.505-.322-1.908-.665-1.846.322 0 .613.206 1.237.289 1.85.155.645.155 1.318 0 1.964-.024.083-.07.159-.134.218h-.062s-.176 0 0 0c.175 0 .072 0 0 0l-.155-.073-.433-.468c-.196-.207-.454-.56-.774-.56s-.567.509-.557.841c.1.788.394 1.538.856 2.182.176.403.533.697.96.79.343.029.688.029 1.031 0 .44.011.877-.063 1.29-.219.46-.273.771-.744.845-1.278.164-1.128.069-2.28-.278-3.366-.121-.486-.28-.962-.475-1.424-.098-.31-.28-.587-.526-.8-.392-.3-.784.374-.392.665-.082-.062 0 0 0 0l.083.125c.062.125.123.25.175.374.141.339.262.686.361 1.04.26.848.4 1.73.413 2.618.019.408-.081.812-.29 1.163-.216.28-.618.28-.958.302-.344.029-.689.029-1.032 0-.258 0-.35-.219-.474-.426-.397-.523-.656-1.137-.753-1.788.004-.048.004-.097 0-.145 0 0-.114-.177 0 0 0 0-.392.104-.392.083h.072l.175.177c.227.228.434.488.67.717.172.218.453.32.723.26.264-.068.495-.23.65-.458.281-.516.39-1.11.309-1.693-.05-.726-.146-1.448-.289-2.162 0-.26-.062-.415-.093-.613-.03-.197 0 0 0 0s-.154.177-.144.187h.124c.252.025.497.1.722.219.381.311.773-.364.31-.624z" transform="translate(-636.000000, -162.000000) translate(530.000000, 162.000000) translate(92.000000, 0.000000) translate(14.957408, 0.462912)"/>
                        <path fill="#000" d="M61.38 76.586c0 1.808-.248 3.636-.361 5.444-.27 1.727-.218 3.489.154 5.195.047.168.2.283.372.281h9.984c.616.095 1.245.042 1.836-.156.598-.353.835-1.371 1.031-1.974.417-1.341.761-2.705 1.032-4.083.31-1.559.577-3.118.815-4.707l.278-1.943c0-.571.07-1.14.206-1.694.33-.769 1.774-.841 2.496-1.112 1.211-.432 2.282-1.19 3.095-2.192 2.3-2.91 2.867-7.533 2.063-11.097-.053-.169-.206-.286-.382-.29-1.161.096-2.324-.158-3.342-.728-.089-.053-.194-.066-.293-.039-.1.028-.183.094-.233.184-1.3 2.494-.268 5.621-2.331 7.949-1.733 1.984-4.57 1.205-6.859 1.465-.816.098-1.603.367-2.31.79-1.496.862-2.754.176-4.27-.28-1.121-.404-2.346-.404-3.466 0-2.393.976-3.61 3.698-4.384 5.994-.958 3.097-1.56 6.294-1.794 9.528-.124 1.372-.217 2.754-.269 4.156 0 .416 0 .842-.051 1.258 0 .727 0 .083.237.104-.423 0-.536.706-.103.758 1.392.187 3.022.312 4.27.478l.103-.769h-.113l.371.499c.385-2.77.801-5.542 1.248-8.312.279-1.642.547-3.305.949-4.925 0-.156.371-1.04.34-1.112-.608-.977-.423.332-.412.28-.02.346-.02.693 0 1.04.03.19.195.33.387.33s.355-.14.386-.33c0-.437.124-2.079-.69-1.996-.64.073-.785 1.476-.888 1.933-.753 3.263-1.206 6.608-1.702 9.923-.144.977-.278 1.943-.412 2.92-.033.116-.009.241.064.337.073.096.187.152.307.15h.114c.433 0 .536-.706.103-.758-1.393-.187-3.012-.311-4.27-.478l-.103.77c.938 0 .629-3.222.67-3.814.152-3.206.59-6.391 1.31-9.518.64-2.628 1.64-6.234 4.229-7.584 1.526-.8 2.98-.24 4.517.238.884.371 1.86.459 2.796.25.386-.164.756-.366 1.103-.603.702-.366 1.48-.562 2.27-.571 2.196-.135 4.672.332 6.466-1.31 1.049-1.055 1.735-2.42 1.96-3.896.3-1.517.103-3.22.774-4.634l-.526.146c1.165.665 2.503.959 3.837.841l-.372-.28c.753 3.325.217 7.71-1.939 10.39-.89 1.068-2.092 1.828-3.434 2.172-.75.096-1.462.39-2.063.852-.464.53-.382 1.506-.464 2.16-.186 1.383-.403 2.765-.63 4.157-.276 2.584-.865 5.124-1.753 7.564-.279.644-.35.675-1.093.686H61.545l.381.29c-.546-1.6-.227-3.615-.113-5.257.113-1.641.35-3.418.34-5.122-.041-.191-.215-.323-.409-.31-.193.013-.349.167-.364.362z" transform="translate(-636.000000, -162.000000) translate(530.000000, 162.000000) translate(92.000000, 0.000000) translate(14.957408, 0.462912)"/>
                        <path fill="#FFF" d="M90.9 117.794c-.128.24-.212.5-.248.769-.465.29-2.888.8-3.744 1.86-.36.42-.36 1.044 0 1.465.226.29 6.683.405 7.673.332.223.01.442-.06.62-.197.138-.162.227-.36.257-.572.237-1.153.433-2.525-.382-3.377-.38-.357-.845-.608-1.35-.727-.963-.04-1.923.112-2.827.447z" transform="translate(-636.000000, -162.000000) translate(530.000000, 162.000000) translate(92.000000, 0.000000) translate(14.957408, 0.462912)"/>
                        <path fill="#000" d="M90.497 117.555c-.159.27-.257.571-.289.883l.206-.28c-.262.127-.534.232-.814.311-.465.156-.908.322-1.352.51-.876.384-1.97 1.038-2.062 2.078-.06.487.135.97.515 1.278.16.08.337.127.516.135.65.093 1.32.124 1.98.155 1.578.073 3.156.115 4.735.104.763 0 1.619 0 1.908-.883.417-1.122.417-2.358 0-3.48-.56-1.001-1.65-1.579-2.785-1.476-.506.045-1.01.121-1.506.229-.35.03-.686.155-.97.363-.182.184-.182.482 0 .665.183.184.478.184.66 0-.113.115 0 0-.061 0l.165-.052.453-.114c.392-.073.784-.135 1.176-.177.84-.144 1.675.276 2.063 1.04.176.473.229.985.155 1.485 0 .353-.062 1.33-.454 1.444-.438.052-.882.052-1.32 0-1.434 0-2.868 0-4.301-.103-.557 0-1.114 0-1.671-.125-.111-.032-.225-.052-.34-.062 0 0 .113.083.134.062.02-.02-.104-.229-.114-.25-.035-.281.078-.561.3-.737.718-.564 1.548-.968 2.433-1.185.333-.098.657-.223.97-.374.382-.218.268-.634.485-.966.31-.51-.495-.925-.815-.478z" transform="translate(-636.000000, -162.000000) translate(530.000000, 162.000000) translate(92.000000, 0.000000) translate(14.957408, 0.462912)"/>
                        <path fill="#FFF" d="M109.94 116.495c.127.24.21.5.247.769.474.291 2.898.8 3.744 1.87.36.421.36 1.044 0 1.465-.227.28-6.673.395-7.664.333-.225.001-.444-.068-.629-.198-.14-.163-.227-.366-.247-.581-.248-1.154-.444-2.525.371-3.377.381-.356.846-.606 1.351-.728.962-.036 1.922.116 2.826.447z" transform="translate(-636.000000, -162.000000) translate(530.000000, 162.000000) translate(92.000000, 0.000000) translate(14.957408, 0.462912)"/>
                        <path fill="#000" d="M109.547 116.734c.186.301.104.717.413.935.247.14.51.248.784.322.775.225 1.523.54 2.228.935.33.208.763.51.763.936-.006.091-.024.182-.052.27 0 .104-.072.166 0 .083.073-.083.104 0 0 0h-.123c-.351 0-.898.093-1.362.125-1.434.083-2.888.114-4.332.124h-1.464c-.1.016-.2.016-.3 0-.288-.072-.288-.405-.34-.665-.117-.507-.162-1.028-.134-1.548.088-1.02.965-1.785 1.98-1.725.42.026.836.078 1.248.156.186 0 .382.073.568.125l.175.062c.062 0 .052 0 0 0 .185.14.443.121.607-.043.163-.165.181-.425.043-.611-.232-.187-.51-.306-.805-.343-.433-.094-.876-.167-1.31-.218-.939-.166-1.902.105-2.62.737-.777.905-1.048 2.144-.721 3.294.092.55.165 1.257.7 1.569.324.149.678.216 1.032.197 1.496 0 2.991 0 4.477-.072.722 0 1.454 0 2.166-.125.546-.062 1.031-.062 1.3-.613.639-1.237-.496-2.234-1.507-2.733-.506-.241-1.026-.453-1.557-.634-.354-.094-.7-.22-1.031-.374l.216.28c-.042-.307-.143-.604-.299-.872-.268-.55-1.073-.083-.743.426zM97.727 55.805v3.117c.433 2.37 1.35 4.624 2.692 6.619.204.419.488.793.836 1.101.611.46 1.451.46 2.063 0 .202-.19.42-.364.65-.52 1.03-.625 1.941-1.431 2.691-2.379.782-1.776 1.054-3.738.784-5.662-.02-.592-.141-1.176-.36-1.725-.23-.453-.563-.844-.97-1.143-4.054-2.92-8.386.592-8.386.592z" transform="translate(-636.000000, -162.000000) translate(530.000000, 162.000000) translate(92.000000, 0.000000) translate(14.957408, 0.462912)"/>
                        <path fill="#FFF" d="M100.626 68.585c.479-.375.713-.987.608-1.59-.175-.893-1.031-1.444-1.537-2.202-.317-.545-.53-1.144-.629-1.767-.268-1.34-1.031-5.195.423-6.91.938-1.067 2.367-1.556 3.757-1.285 1.39.271 2.534 1.262 3.01 2.605.815 1.89.762 4.045-.145 5.892-.361.654-.887 1.215-1.3 1.85-.398.636-.562 1.393-.464 2.14.072.623 1.093.83.794 1.153-.093.104-1.65.644-1.784.696-.691.27-2.733-.582-2.733-.582z" transform="translate(-636.000000, -162.000000) translate(530.000000, 162.000000) translate(92.000000, 0.000000) translate(14.957408, 0.462912)"/>
                        <path fill="#000" d="M100.904 68.855c1.135-1.039.774-2.358-.103-3.356-.56-.543-.979-1.218-1.217-1.964-.145-.519-.237-1.039-.33-1.6-.372-2.15-.722-5.195 1.568-6.327.875-.466 1.894-.574 2.846-.302 1.254.495 2.177 1.593 2.455 2.92.568 1.69.403 3.541-.454 5.102-.753 1.236-2.228 2.576-1.66 4.218.103.262.279.489.505.655 0 0 .248.228.279.218l.134-.26h-.104c-.274.062-.538.164-.783.302l-.64.228c-.924.113-1.859-.073-2.671-.53-.454-.197-.66.561-.196.748.858.46 1.824.676 2.795.624.42-.113.83-.259 1.227-.437.33-.124.846-.228 1.032-.592.216-.55-.423-.738-.681-1.039-.197-.443-.197-.95 0-1.392.191-.535.482-1.029.856-1.455 1.154-1.415 1.693-3.24 1.496-5.06-.29-2.68-1.898-5.465-4.91-5.195-1.015.085-1.978.488-2.754 1.153-.905.895-1.395 2.131-1.351 3.408-.017 1.399.136 2.795.454 4.156.155.928.562 1.795 1.176 2.504.69.78 1.526 1.767.484 2.67-.381.385.134.936.547.603z" transform="translate(-636.000000, -162.000000) translate(530.000000, 162.000000) translate(92.000000, 0.000000) translate(14.957408, 0.462912)"/>
                        <path fill="#000" d="M105.731 55.899c-1.322-.858-2.913-1.195-4.466-.946-.811.14-1.578.47-2.238.966-.433.291-.898.738-.794 1.258.035.164.11.317.216.446.635.682 1.54 1.04 2.465.977.908 0 1.816-.208 2.723-.187.357 0 .708.078 1.032.229.374.206.682.516.887.893.525 1.086.776 2.285.732 3.491.8-1.564 1.048-3.356.701-5.08l-1.258-2.047z" transform="translate(-636.000000, -162.000000) translate(530.000000, 162.000000) translate(92.000000, 0.000000) translate(14.957408, 0.462912)"/>
                        <path fill="#D2D8FF" d="M108.743 86.27c-.155 7.44 1.568 28.261 1.392 29.352-.032.301-.15.586-.34.821-.265.245-.601.398-.96.437-1.279.155-2.573.134-3.847-.063-.198-.137-.338-.345-.391-.582-.258-.79-2.445-15.492-2.96-22.588-2.125 7.17-5.488 23.794-5.962 24.178-.475.385-3.373.395-3.982.447-.255.046-.519.01-.753-.104-.233-.206-.374-.498-.392-.81-.412-2.442 5.446-23.39 5.9-31.359 3.363-.633 12.295.27 12.295.27z" transform="translate(-636.000000, -162.000000) translate(530.000000, 162.000000) translate(92.000000, 0.000000) translate(14.957408, 0.462912)"/>
                        <path fill="#231F20" d="M108.258 86.27c-.144 8.073.66 16.198 1.155 24.25.093 1.372.186 2.744.227 4.157.031.293.031.59 0 .883-.247 1.205-1.805 1.039-2.733 1.039-.507.048-1.019.016-1.516-.093-.29-.125-.32-.208-.433-.51-.124-.448-.206-.907-.248-1.371-.278-1.715-.536-3.44-.784-5.195-.743-5.195-1.475-10.463-1.867-15.731-.022-.222-.194-.399-.414-.426-.22-.027-.428.102-.504.311-1.33 4.551-2.351 9.206-3.414 13.84-.505 2.203-1.031 4.416-1.516 6.619-.175.727-.35 1.455-.536 2.172-.047.47-.18.928-.392 1.35-.703.142-1.418.212-2.135.208-.784 0-2.063.343-2.197-.738-.001-1.268.19-2.53.567-3.74.887-4.406 1.94-8.77 2.898-13.154 1.183-4.625 2.004-9.336 2.455-14.09l-.34.458c3.92-.686 8.251-.115 12.17.28.599.062.589-.873 0-.935-4.032-.405-8.406-.946-12.377-.25-.2.056-.338.239-.34.447-.456 4.726-1.277 9.41-2.455 14.007-1.031 4.634-2.166 9.257-3.094 13.933-.308 1.112-.444 2.265-.402 3.418.268 2.079 3.424 1.362 4.899 1.133 1.227-.187 1.3-.81 1.588-1.922.506-1.902.929-3.824 1.362-5.746 1.31-5.694 2.506-11.43 4.126-17.05l-.908-.125c.371 5.039 1.031 10.058 1.774 15.055.279 1.974.557 3.949.877 5.912.165.956.165 2.328 1.237 2.692.921.204 1.87.254 2.806.145.939 0 2.063-.156 2.548-1.122.25-.882.297-1.81.134-2.712-.217-4.219-.526-8.437-.784-12.645-.289-4.894-.64-9.809-.557-14.702-.053-.193-.222-.33-.42-.342-.198-.012-.382.105-.457.29z" transform="translate(-636.000000, -162.000000) translate(530.000000, 162.000000) translate(92.000000, 0.000000) translate(14.957408, 0.462912)"/>
                        <path fill="#FFF" d="M113.56 95.06c-.124.125-.67 0-.753-.395-.155-.665-.114-2.629-.217-2.91-.09-.284-.353-.478-.65-.477-.44.324-.864.67-1.268 1.039-.062 0-.743.073-.434-.51.124-.249 1.579-2.077 1.826-2.348.166-.24.385-.44.64-.581.25-.084.522-.084.773 0 .35.072.695.17 1.032.29.104.026.198.085.268.167.055.09.08.195.072.301-.01.457-.732 4.832-1.29 5.424z" transform="translate(-636.000000, -162.000000) translate(530.000000, 162.000000) translate(92.000000, 0.000000) translate(14.957408, 0.462912)"/>
                        <path fill="#000" d="M113.364 94.717s-.114 0-.145-.083c-.03-.083-.062-.187-.072-.28 0-.344-.051-.697-.072-1.04.037-.564-.005-1.13-.124-1.683-.144-.446-.566-.74-1.031-.717-.32 0-.588.333-.815.54l-.464.426-.103.084h-.052c.027-.01.056-.01.083 0h-.093c-.02 0 0 0 0 0s.072.093.062.093c-.01 0 0 0 0 0s.082-.145.113-.177c.32-.467.691-.914 1.031-1.36.165-.209.34-.427.516-.624.176-.198.371-.53.63-.634.228-.042.463-.02.68.062.297.034.587.119.856.25.062 0 .062 0 .052.145.005.066.005.132 0 .198v.207l-.062.354c0 .28-.093.56-.145.852-.134.717-.278 1.434-.453 2.15-.083.291-.165.582-.258.863l-.114.28-.062.115c-.051.083 0 0 0 0-.33.374.217.924.547.55.315-.433.524-.935.609-1.465.196-.717.35-1.444.484-2.171.134-.728.217-1.185.279-1.787.047-.223.026-.455-.062-.665-.118-.204-.31-.353-.536-.416-.338-.121-.682-.222-1.032-.301-.525-.164-1.097-.03-1.495.353-.207.218-.392.447-.578.675-.454.551-.908 1.123-1.33 1.694-.172.192-.302.419-.382.665-.047.175-.02.362.074.517.093.155.245.265.421.304.34.054.685-.067.918-.322l.526-.478.227-.198s.155.083.216.208c.062.125 0 .083 0 .073v.509c0 .457 0 .925.062 1.382-.023.4.051.8.217 1.164.206.343.835.654 1.207.384.371-.27.072-.997-.33-.696z" transform="translate(-636.000000, -162.000000) translate(530.000000, 162.000000) translate(92.000000, 0.000000) translate(14.957408, 0.462912)"/>
                        <path fill="#FFF" d="M108.743 76.586c0 1.87.887 8.717.206 10.484-4.383-.083-7.044 0-11.428-.083-1.279 0-2.94-10.578-3.321-14.225-.176-1.6-3.971-2.577-6.189-7.356-1.286-2.871-1.647-6.076-1.031-9.165 1.228.06 2.45-.212 3.538-.79.948 1.746.103 4.739 1.908 7.544 2.351 3.658 6.487 3.242 9.21 5.195 1.32.946 2.331.489 4.57-.249 9.623-3.117 9.375 21.082 9.499 21.072 1.031-.104-5.054.56-4.033.457-.051-.042-2.847-20.303-2.93-12.884zM86.124 49.779c.303-.32.726-.498 1.165-.489.268.083-.175 4.718 1.454 4.489.165 0 .867-1.548 1.032-1.455.67.405-.103 2.473-.165 2.712-.06.247-.232.45-.464.55-.687.22-1.405.321-2.125.302-.399-.14-.71-.459-.846-.862-.544-1.704-.562-3.533-.051-5.247z" transform="translate(-636.000000, -162.000000) translate(530.000000, 162.000000) translate(92.000000, 0.000000) translate(14.957408, 0.462912)"/>
                        <path fill="#000" d="M86.392 50.049c.157-.148.343-.261.546-.333.055.006.11.006.165 0 0-.052.073.104 0 0-.072-.104-.134-.145-.123-.145v.093c0 .01 0-.072 0 0v.312c0 .592 0 1.195.123 1.787.037.625.199 1.237.475 1.798.247.426.846.883 1.351.602.218-.172.388-.397.495-.654l.248-.426c.094-.124.177-.256.247-.395-.11.08-.26.08-.371 0v.073c.011.141.011.284 0 .426-.033.352-.103.7-.206 1.039-.062.239-.134.478-.217.706-.082.229-.382.354-.701.426-.385.104-.779.166-1.176.187-.454 0-.701-.322-.867-.717-.303-.92-.419-1.891-.34-2.857.017-.42.055-.84.114-1.257 0-.156.061-.322.103-.478.041-.156 0-.114 0-.166 0-.052.082-.104 0 0 .32-.374-.227-.936-.547-.551-.16.224-.263.485-.3.758-.08.426-.136.856-.164 1.289-.085.998-.019 2.003.196 2.982.104.516.347.994.701 1.382.365.336.868.475 1.351.374.453-.048.901-.131 1.341-.25.453-.085.824-.411.97-.852.268-.662.428-1.364.474-2.078.05-.382-.079-.766-.35-1.039-.351-.311-.65 0-.856.27-.207.27-.382.655-.578.977 0 0-.083.146-.072.104.01-.042-.145.083 0 0 .144-.083.062 0 0 0s-.124 0-.227-.073c-.054-.065-.102-.135-.145-.207-.068-.114-.12-.236-.154-.364-.111-.337-.184-.686-.217-1.04-.082-.716-.072-1.433-.144-2.15 0-.229 0-.51-.279-.634-.505-.29-1.279.198-1.63.54-.148.213-.097.506.114.655.21.15.502.098.65-.114z" transform="translate(-636.000000, -162.000000) translate(530.000000, 162.000000) translate(92.000000, 0.000000) translate(14.957408, 0.462912)"/>
                        <path fill="#000" d="M108.3 76.586c0 1.704.226 3.418.34 5.122.113 1.704.423 3.658-.114 5.258l.372-.291H99.83c-.588 0-1.98.218-2.413-.125-.433-.343-.774-1.932-.95-2.587-.34-1.32-.608-2.66-.855-4-.248-1.34-.495-2.795-.702-4.157-.076-1.046-.214-2.087-.412-3.117-.295-.715-.799-1.324-1.444-1.745-1.06-.813-2.043-1.72-2.94-2.712-2.66-3.276-3.695-7.593-2.816-11.73l-.37.28c1.298.1 2.597-.19 3.733-.831l-.526-.146c.418 1.242.638 2.543.65 3.855.159 1.501.707 2.935 1.588 4.156 1.393 1.86 3.455 2.66 5.58 3.356 1.099.238 2.165.608 3.177 1.101.752.58 1.703.83 2.64.697 1.754-.28 3.353-1.413 5.158-.832 2.733.863 3.909 4.375 4.6 6.858.815 3.146 1.32 6.365 1.506 9.611.082 1.195.144 2.38.185 3.574 0 .447-.103 1.154.537 1.123l-.093-.759c-1.259.166-2.878.28-4.27.478-.434 0-.33.78.103.759h.113c.119-.003.23-.06.302-.155.072-.095.098-.218.07-.334-.33-2.431-.702-4.863-1.094-7.273-.268-1.683-.546-3.367-.907-5.029-.114-.571-.217-1.974-.764-2.348-1.031-.686-.918 1.475-.928 1.88.031.191.195.331.387.331s.356-.14.387-.33c.038-.346.055-.693.051-1.04 0 0 .206-1.267-.423-.28 0 0 .31.966.351 1.101.402 1.632.67 3.294.939 4.936.464 2.743.876 5.496 1.258 8.26l.371-.499h-.113l.103.77c1.248-.167 2.878-.292 4.26-.479.433-.062.33-.79-.103-.769.515 0 .134.634.247 0 .038-.345.038-.693 0-1.039-.051-1.132-.113-2.275-.196-3.408-.2-3.159-.705-6.29-1.506-9.351-.68-2.452-1.712-5.34-3.92-6.816-.93-.62-2.048-.886-3.155-.748-.923.184-1.83.441-2.713.769-.569.216-1.18.291-1.784.218-.61-.23-1.186-.54-1.713-.925-2.32-1.247-5.157-1.413-7.168-3.242-1.378-1.354-2.205-3.176-2.32-5.112-.025-1.284-.262-2.555-.702-3.761-.118-.177-.35-.235-.536-.135-1.02.567-2.182.82-3.342.727-.174.003-.326.122-.372.291-.696 3.332-.253 6.804 1.259 9.85.776 1.519 1.825 2.879 3.094 4.01.805.739 2.115 1.424 2.671 2.38.557.956.403 2.307.547 3.263.227 1.548.475 3.117.763 4.634.29 1.517.568 2.91.97 4.333.15.849.476 1.656.96 2.369.145.199.358.339.597.394 1.231.136 2.473.136 3.703 0h7.777c.173-.003.326-.115.382-.28.372-1.707.425-3.469.155-5.195-.114-1.808-.372-3.637-.361-5.445-.077-.22-.317-.337-.537-.26-.22.078-.335.32-.258.54z" transform="translate(-636.000000, -162.000000) translate(530.000000, 162.000000) translate(92.000000, 0.000000) translate(14.957408, 0.462912)"/>
                        <path fill="#FFF" d="M94.55 171.522c.129.236.212.493.248.759.464.301 2.888.8 3.744 1.87.356.423.356 1.043 0 1.465-.227.28-6.684.395-7.674.333-.223.01-.442-.06-.619-.198-.139-.165-.228-.367-.258-.581-.237-1.154-.433-2.515.382-3.367.377-.36.844-.612 1.351-.727.962-.04 1.923.111 2.826.446z" transform="translate(-636.000000, -162.000000) translate(530.000000, 162.000000) translate(92.000000, 0.000000) translate(14.957408, 0.462912)"/>
                        <path fill="#000" d="M94.148 171.751c.196.301.103.717.413.935.25.14.517.248.794.322.775.227 1.522.541 2.228.935.33.208.763.51.763.946.005.086.005.173 0 .26 0 .104-.082.166 0 .083.083-.083.114 0 0 0h-.113c-.361.062-.908.093-1.362.125-1.444.083-2.888.114-4.332.124h-1.465c-.102.01-.206.01-.309 0-.278-.073-.278-.405-.33-.665-.117-.507-.162-1.028-.134-1.548.082-1.023.964-1.79 1.98-1.725.42.024.837.08 1.248.167.188.031.374.073.557.124h.186c.062 0 0 0 0 0 .183.164.46.157.634-.016s.186-.452.026-.638c-.233-.183-.511-.298-.804-.333-.433-.098-.87-.17-1.31-.218-.938-.178-1.905.09-2.62.727-.781.903-1.053 2.144-.722 3.294.093.55.165 1.257.69 1.569.323.152.677.22 1.032.197 1.496 0 2.991 0 4.477-.072.722 0 1.444-.052 2.166-.125.546-.052 1.031-.062 1.289-.603.64-1.247-.495-2.244-1.496-2.743-.509-.243-1.032-.455-1.567-.634-.355-.09-.7-.215-1.032-.374l.206.28c-.033-.307-.131-.605-.288-.872-.32-.499-1.125-.031-.805.478z" transform="translate(-636.000000, -162.000000) translate(530.000000, 162.000000) translate(92.000000, 0.000000) translate(14.957408, 0.462912)"/>
                        <path fill="#FFF" d="M77.996 171.522c-.128.236-.212.493-.248.759-.464.301-2.888.8-3.744 1.87-.355.423-.355 1.043 0 1.465.227.28 6.684.395 7.674.333.223.011.443-.059.619-.198.139-.165.228-.367.258-.581.247-1.154.433-2.515-.371-3.367-.383-.36-.852-.61-1.362-.727-.962-.04-1.922.111-2.826.446z" transform="translate(-636.000000, -162.000000) translate(530.000000, 162.000000) translate(92.000000, 0.000000) translate(14.957408, 0.462912)"/>
                        <path fill="#000" d="M77.594 171.284c-.157.266-.256.564-.29.872l.207-.28c-.26.132-.533.236-.815.311-.453.156-.907.323-1.35.52-.867.384-1.97.977-2.064 2.078-.06.49.135.977.516 1.288.161.08.337.126.516.136.66.093 1.32.124 1.98.155 1.578.073 3.156.115 4.734.104.764 0 1.63 0 1.909-.883.417-1.126.417-2.365 0-3.491-.559-1-1.651-1.575-2.785-1.465-.503.04-1.002.113-1.496.218-.356.027-.696.157-.98.374-.16.187-.148.466.026.639s.452.18.634.016c-.113.114 0 0-.051 0l.165-.063.443-.103c.388-.085.78-.144 1.176-.177.84-.148 1.677.273 2.063 1.039.18.47.233.978.155 1.475 0 .364-.062 1.34-.454 1.445-.438.057-.882.057-1.32 0-1.434 0-2.868 0-4.291-.115-.557 0-1.124-.052-1.681-.114-.11-.038-.225-.062-.34-.073 0 0 .123.083.133.063.01-.021-.103-.219-.113-.25-.03-.28.088-.555.31-.727.713-.569 1.54-.976 2.423-1.195.334-.09.659-.212.97-.364.381-.218.268-.633.485-.976.309-.5-.496-.967-.815-.457zM80.183 109.606v3.117c.435 2.37 1.351 4.623 2.692 6.62.203.418.487.793.835 1.1.612.461 1.451.461 2.063 0 .202-.19.42-.364.65-.519 1.028-.629 1.939-1.434 2.692-2.38.782-1.776 1.053-3.738.784-5.662-.02-.592-.142-1.176-.361-1.725-.23-.452-.562-.844-.97-1.143-4.053-2.92-8.385.592-8.385.592z" transform="translate(-636.000000, -162.000000) translate(530.000000, 162.000000) translate(92.000000, 0.000000) translate(14.957408, 0.462912)"/>
                        <path fill="#FFF" d="M83.08 122.376c.48-.37.715-.98.61-1.58-.176-.893-1.032-1.444-1.537-2.212-.325-.541-.539-1.142-.63-1.767-.278-1.33-1.031-5.195.423-6.899.939-1.068 2.367-1.557 3.757-1.285 1.39.27 2.534 1.261 3.01 2.605.816 1.885.763 4.038-.145 5.88-.36.666-.887 1.216-1.3 1.86-.384.62-.548 1.353-.464 2.079.073.623 1.094.83.795 1.163-.093.104-1.65.644-1.785.696-.69.322-2.733-.54-2.733-.54z" transform="translate(-636.000000, -162.000000) translate(530.000000, 162.000000) translate(92.000000, 0.000000) translate(14.957408, 0.462912)"/>
                        <path fill="#000" d="M83.36 122.657c1.134-1.04.773-2.359-.104-3.356-.558-.545-.976-1.22-1.217-1.964-.144-.53-.237-1.04-.33-1.61-.371-2.141-.722-5.196 1.568-6.328.878-.457 1.895-.561 2.847-.291 1.256.492 2.18 1.59 2.454 2.92.563 1.683.395 3.528-.464 5.08-.753 1.237-2.228 2.587-1.66 4.229.104.262.279.489.505.655 0 0 .248.228.279.218l.134-.27-.114.062c-.27.064-.53.165-.773.301l-.64.229c-.925.109-1.86-.08-2.671-.54-.454-.187-.66.56-.207.758.863.456 1.833.668 2.806.613.42-.11.83-.253 1.227-.426.32-.125.846-.228 1.032-.592.216-.55-.423-.738-.681-1.04-.197-.442-.197-.949 0-1.391.192-.535.482-1.03.856-1.455 1.153-1.42 1.692-3.247 1.496-5.07-.29-2.681-1.898-5.456-4.92-5.196-1.052.067-2.055.475-2.857 1.164-.87.904-1.33 2.13-1.269 3.387-.023 1.4.13 2.796.454 4.156.155.932.562 1.802 1.176 2.515.69.78 1.526 1.766.484 2.67-.34.353.186.894.588.572z" transform="translate(-636.000000, -162.000000) translate(530.000000, 162.000000) translate(92.000000, 0.000000) translate(14.957408, 0.462912)"/>
                        <path fill="#000" d="M88.186 109.7c-1.32-.862-2.91-1.202-4.466-.956-.812.143-1.579.478-2.238.977-.433.29-.897.727-.804 1.257.044.163.12.315.227.447.636.677 1.54 1.032 2.465.966.907 0 1.815-.208 2.723-.177.356 0 .708.078 1.031.229.377.203.685.514.887.893.525 1.086.776 2.285.732 3.492.8-1.565 1.047-3.357.702-5.081l-1.259-2.047z" transform="translate(-636.000000, -162.000000) translate(530.000000, 162.000000) translate(92.000000, 0.000000) translate(14.957408, 0.462912)"/>
                        <path fill="#FFF" d="M92.518 102.76c.083-.157.65-.136.815.197.31.602.753 2.514.918 2.763.16.254.464.376.753.302.348-.432.671-.883.97-1.351 0-.062.701-.26.546.384-.061.27-1.031 2.41-1.206 2.733-.1.274-.262.52-.475.717-.222.138-.48.207-.742.197-.344.02-.688.02-1.032 0-.111 0-.22-.037-.31-.104-.075-.07-.123-.166-.133-.27-.134-.395-.506-4.862-.104-5.569z" transform="translate(-636.000000, -162.000000) translate(530.000000, 162.000000) translate(92.000000, 0.000000) translate(14.957408, 0.462912)"/>
                        <path fill="#000" d="M92.787 103.03c0 .072.082 0 .175.072.093.073.093.166.124.25.134.332.227.675.33 1.038.103.364.185.655.289 1.04.053.238.15.463.288.664.267.36.733.507 1.156.364.272-.188.49-.446.629-.748.113-.166.216-.333.34-.499.124-.166.186-.26.072-.135-.113.125 0 0 0 0s-.175-.125-.082-.073c.093.052 0-.083 0 0-.027.075-.048.151-.062.229-.196.53-.454 1.039-.691 1.58-.103.249-.217.498-.34.737-.124.239-.248.655-.496.8-.186.074-.387.106-.587.094-.282.015-.565.015-.846 0-.155 0-.155 0-.186-.135-.005-.021-.005-.042 0-.063 0-.104 0 .052 0 0-.062-.499-.093-1.039-.134-1.486 0-.737-.082-1.465-.072-2.192v-.956-.405-.052c.237-.447-.433-.842-.67-.395-.19.5-.268 1.036-.228 1.569 0 .759 0 1.517.062 2.276 0 .56.083 1.132.155 1.693.001.275.1.54.279.748.216.155.477.231.742.218.316.021.633.021.95 0 .531.024 1.034-.247 1.309-.706.144-.26.279-.53.402-.8.31-.665.609-1.34.898-2.016.107-.22.17-.46.185-.706-.008-.184-.089-.357-.224-.48-.136-.123-.315-.186-.498-.175-.402 0-.577.26-.784.571-.206.312-.268.395-.402.593-.049.083-.104.163-.165.239-.082.135 0 0 0 0h-.103c-.057-.03-.11-.068-.155-.115-.062-.072 0 0 0-.062s-.103-.312-.144-.468c-.134-.436-.258-.883-.392-1.33-.079-.415-.26-.805-.526-1.132-.289-.26-.96-.405-1.248 0-.289.405.34.748.65.353z" transform="translate(-636.000000, -162.000000) translate(530.000000, 162.000000) translate(92.000000, 0.000000) translate(14.957408, 0.462912)"/>
                        <path fill="#FFF" d="M76.13 100.203c-.312-.313-.737-.482-1.177-.468-.268.084.217 4.718-1.423 4.5-.165 0-.877-1.549-1.032-1.455-.67.415.124 2.473.196 2.712.06.246.233.45.465.55.692.21 1.412.309 2.135.291.39-.152.693-.472.825-.872.53-1.712.533-3.545.01-5.258z" transform="translate(-636.000000, -162.000000) translate(530.000000, 162.000000) translate(92.000000, 0.000000) translate(14.957408, 0.462912)"/>
                        <path fill="#000" d="M76.397 99.933c-.423-.416-1.722-1.04-1.887-.104-.093.582-.062 1.185-.103 1.777.005.663-.125 1.321-.382 1.932-.045.092-.108.174-.186.24l-.175.072h-.083l.176.073-.072-.104c-.104-.166-.207-.333-.3-.499-.138-.316-.342-.6-.598-.831-.381-.239-.722.145-.835.488-.14.8-.032 1.623.31 2.359.077.38.276.723.567.977.343.17.713.278 1.093.322.441.11.897.149 1.351.114.556-.113 1.016-.505 1.217-1.04.392-1.06.537-2.198.423-3.324-.02-.501-.072-1.001-.155-1.496-.034-.326-.15-.638-.34-.904-.32-.385-.867.166-.547.55-.072-.093 0 0 0 0v.084c.04.129.072.26.093.395.07.363.115.731.134 1.1.082.886.033 1.78-.144 2.65-.06.443-.276.849-.609 1.143-.278.187-.742.073-1.031 0-.351-.033-.697-.107-1.032-.218-.216-.104-.268-.374-.34-.592-.072-.218-.196-.655-.268-1.04-.036-.303-.036-.61 0-.913 0-.094.196-.073-.134-.063-.33.01-.196-.062-.165 0 .03.063.154.25.216.353.165.27.31.551.495.81.169.208.42.328.686.328.266 0 .518-.12.686-.327.359-.46.574-1.017.619-1.6.094-.69.15-1.383.165-2.078v-.385-.145c0-.052 0 0 0 0-.01-.03-.01-.063 0-.094-.024.048-.051.093-.082.135-.093.104-.145 0 0 .094.239.094.464.22.67.374.382.29.939-.26.567-.613z" transform="translate(-636.000000, -162.000000) translate(530.000000, 162.000000) translate(92.000000, 0.000000) translate(14.957408, 0.462912)"/>
                        <path fill="#D2D8FF" d="M95.004 120.838c-2.248 6.91-4.125 4.79-4.239 11.96 0 1.828.35 5.35-.32 7.055-4.383-.083-7.044 0-11.428-.094-1.279 0-2.259-10.328-2.64-13.871-.33-2.91-4.126-17.487-3.641-19.44 1.224.053 2.441-.208 3.537-.759 2.177 3.897.145 12.469 5.281 16.355 1.393 1.039 4.662.509 6.189-.28 4.641-2.432 4.332-13.311 4.456-13.321l3.094-.302s.64 9.85-.289 12.697z" transform="translate(-636.000000, -162.000000) translate(530.000000, 162.000000) translate(92.000000, 0.000000) translate(14.957408, 0.462912)"/>
                        <path fill="#000" d="M94.963 121.264c-.566 1.793-1.352 3.507-2.341 5.102-.664.95-1.17 2.003-1.496 3.117-.388 1.762-.53 3.57-.423 5.372 0 1.933.31 4.063-.33 5.933l.371-.291H83.39c-1.175 0-2.413.083-3.579 0-.588 0-.629-.156-.876-.707-1.248-2.69-1.702-5.901-2.26-8.79-1.03-5.195-1.66-10.577-2.433-15.856-.258-1.776-.516-3.543-.702-5.33-.196-1.027-.234-2.078-.113-3.117l-.382.28c1.302.1 2.604-.19 3.744-.83l-.536-.146c2.589 5.018.33 12.406 5.343 16.24 2.362 1.818 5.961.946 7.797-1.205 1.836-2.151 2.476-4.842 2.93-7.419.216-1.226.36-2.473.464-3.72-.036-.348-.011-.7.072-1.039.124-.187 0 0 .412.063.778.022 1.554-.058 2.31-.24l-.391-.384c.113 1.756.186 3.522.227 5.278 0 2.484.258 5.279-.454 7.679-.057.207.063.42.268.478.205.057.418-.064.475-.27.711-2.39.536-5.133.484-7.585 0-1.86-.103-3.72-.227-5.58 0-.214-.169-.39-.381-.395l-1.795.187c-.465-.027-.932.022-1.382.146-.139.064-.244.185-.289.332-.127.548-.173 1.112-.134 1.673-.165 2.437-.65 4.84-1.444 7.149-1.155 3.117-3.847 6.026-7.488 4.758-2.98-1.039-3.858-5.06-4.311-7.792-.454-2.733-.444-6.12-1.816-8.76-.107-.183-.34-.247-.526-.145-1.02.572-2.188.825-3.352.728-.173.006-.322.123-.371.29-.129.868-.129 1.75 0 2.619.134 1.486.33 2.971.536 4.447.464 3.325 1.032 6.64 1.516 9.964.392 2.556.691 5.112 1.176 7.648.567 2.971 1.032 6.306 2.362 9.05.702 1.444 1.898 1.039 3.383 1.039 3.022 0 6.044 0 9.066.052.173.001.325-.114.372-.281.446-1.725.576-3.517.381-5.289-.15-2.013-.025-4.037.372-6.016.358-1.156.898-2.247 1.598-3.231.944-1.573 1.695-3.254 2.239-5.008.185-.478-.557-.686-.712-.198z" transform="translate(-636.000000, -162.000000) translate(530.000000, 162.000000) translate(92.000000, 0.000000) translate(14.957408, 0.462912)"/>
                        <path fill="#FFF" d="M78.914 140.07c.155 7.44-1.269 29.478-1.031 30.57.028.303.143.591.33.83.27.235.604.383.959.427 1.279.16 2.574.14 3.847-.063.204-.134.348-.342.402-.582.248-.79 2.135-16.718 2.651-23.804 2.125 7.17 3.3 23.71 3.775 24.106.475.394 3.373.384 3.981.436.256.051.52.015.753-.104.235-.2.377-.49.392-.8.413-2.442-3.259-23.326-3.703-31.285-3.445-.634-12.356.27-12.356.27z" transform="translate(-636.000000, -162.000000) translate(530.000000, 162.000000) translate(92.000000, 0.000000) translate(14.957408, 0.462912)"/>
                        <path fill="#000" d="M78.532 140.07c.165 9.061-.619 18.163-1.031 27.224-.098 1.074-.129 2.153-.093 3.231.206 2.244 2.98 1.943 4.61 1.818.805-.062 1.414-.104 1.702-.987.09-.34.153-.688.186-1.039.258-1.828.475-3.668.701-5.496.691-5.767 1.352-11.544 1.785-17.331l-.763.103c1.271 5.009 2.134 10.114 2.578 15.264.258 2.161.495 4.312.763 6.473.083.644 0 2.016.526 2.535.526.52 1.62.395 2.187.437.774.062 2.32.415 3.022 0 .939-.603.609-2.4.526-3.304-.371-4.333-1.031-8.656-1.691-12.957-.753-5.362-1.64-10.754-1.96-16.168-.005-.171-.117-.32-.279-.374-4.012-.696-8.385-.155-12.377.25-.485.052-.495.831 0 .779 3.95-.395 8.252-.956 12.202-.28l-.289-.375c.516 8.77 2.26 17.467 3.332 26.184.206 1.42.34 2.848.402 4.281 0 .758-.113 1.205-1.031 1.32-1.007.085-2.02.008-3.002-.229-.485-.125-.412-.094-.516-.634-.103-.54-.196-1.361-.278-2.078-.248-2.078-.475-4.104-.722-6.161-.446-5.119-1.305-10.192-2.568-15.17-.06-.18-.238-.292-.425-.267-.186.026-.329.181-.339.37-.35 4.718-.876 9.414-1.413 14.11-.247 2.151-.495 4.313-.773 6.474-.093.706-.186 1.403-.289 2.078 0 .343 0 1.101-.371 1.34-.372.24-.898.094-1.166.115-.6.041-1.204.041-1.805 0-.98-.073-1.588-.5-1.62-1.393 0-1.174.073-2.369.125-3.532.185-4.23.412-8.458.598-12.687.206-4.634.464-9.279.381-13.913.003-.23-.18-.418-.407-.42-.228-.003-.415.18-.418.41z" transform="translate(-636.000000, -162.000000) translate(530.000000, 162.000000) translate(92.000000, 0.000000) translate(14.957408, 0.462912)"/>
                        <path fill="#FFF" d="M111.022 153.87c-.423 5.628-.474 11.279-.154 16.915-.009.155.035.309.123.436.123.128.289.205.465.218l1.505.291c.13.047.273.047.403 0 .117-.09.191-.226.206-.374.874-3.918 1.22-7.937 1.031-11.949-.208-1.818-.173-3.656.104-5.465-.876-.573-1.927-.809-2.96-.665" transform="translate(-636.000000, -162.000000) translate(530.000000, 162.000000) translate(92.000000, 0.000000) translate(14.957408, 0.462912)"/>
                        <path fill="#000" d="M110.558 153.87c-.268 3.584-.392 7.19-.36 10.795 0 1.797.071 3.595.164 5.392 0 .53 0 1.185.392 1.57.594.33 1.26.51 1.94.519 1.443.25 1.423-1.112 1.64-2.255.647-3.422.896-6.91.742-10.39-.195-1.836-.167-3.688.082-5.517.051-.203-.032-.417-.206-.53-.956-.594-2.08-.85-3.197-.728-.588 0-.599 1.04 0 .935.949-.116 1.91.096 2.723.603l-.217-.53c-.567 2.878 0 5.86-.082 8.78-.032 1.532-.145 3.062-.34 4.582-.104.78-.228 1.548-.362 2.317-.072.354-.134.696-.206 1.04-.114.54 0 .747-.64.685-.305-.023-.606-.082-.897-.177-.505-.187-.413-.457-.443-.956l-.093-2.15c0-1.57-.073-3.117-.073-4.686 0-3.117.124-6.235.361-9.352 0-.602-.887-.602-.928 0v.052z" transform="translate(-636.000000, -162.000000) translate(530.000000, 162.000000) translate(92.000000, 0.000000) translate(14.957408, 0.462912)"/>
                        <path fill="#FFF" d="M125.442 153.817c.629 5.608.887 11.252.773 16.895.014.156-.022.313-.103.447-.12.134-.286.216-.464.228l-1.485.354c-.133.052-.28.052-.413 0-.117-.091-.191-.226-.206-.374-1.03-3.88-1.529-7.882-1.485-11.897.135-1.824.031-3.659-.31-5.455.853-.604 1.892-.88 2.93-.78" transform="translate(-636.000000, -162.000000) translate(530.000000, 162.000000) translate(92.000000, 0.000000) translate(14.957408, 0.462912)"/>
                        <path fill="#000" d="M124.978 153.817c.337 3.104.57 6.22.701 9.352.062 1.569.093 3.117.093 4.686v2.338c0 .56 0 .644-.537.841-.286.105-.584.175-.887.208-.443 0-.299.156-.443-.333-.093-.332-.165-.685-.248-1.039-.185-.8-.35-1.61-.484-2.42-.278-1.585-.464-3.184-.557-4.79-.186-2.91.268-5.923-.413-8.77l-.206.52c.792-.535 1.741-.784 2.692-.707.598 0 .598-.904 0-.935-1.12-.08-2.233.215-3.167.842-.174.109-.26.317-.216.519.32 1.76.421 3.555.299 5.34-.023 1.77.063 3.54.258 5.3.182 1.683.457 3.355.825 5.008.247 1.132.268 2.691 1.753 2.39.677-.045 1.334-.247 1.919-.593.392-.353.33-.893.34-1.392v-5.403c-.093-3.657-.35-7.273-.753-10.951-.072-.593-1.031-.603-.928 0l-.041-.01z" transform="translate(-636.000000, -162.000000) translate(530.000000, 162.000000) translate(92.000000, 0.000000) translate(14.957408, 0.462912)"/>
                        <path fill="#C7CDFF" d="M111.363 139.634c-.052 5.383-1.867 17.176-1.712 17.976.031.239.144.46.32.623.237.208 15.295-.582 15.914-.509.251.058.512.058.763 0 .226-.104.384-.315.423-.561.485-1.735-2.97-11.118-3.218-16.895-3.424-.706-12.49-.634-12.49-.634z" transform="translate(-636.000000, -162.000000) translate(530.000000, 162.000000) translate(92.000000, 0.000000) translate(14.957408, 0.462912)"/>
                        <path fill="#000" d="M110.403 139.572c-.175 4.633-.598 9.253-1.268 13.84-.267 1.345-.402 2.712-.402 4.084.113 1.298 1.031 1.194 2 1.184 3.528 0 7.045-.239 10.562-.374 1.33-.062 2.651-.125 3.971-.146.568 0 1.187.156 1.661-.228.444-.48.611-1.154.443-1.787-.363-2.353-.898-4.677-1.598-6.951-.853-2.93-1.416-5.937-1.681-8.978-.001-.211-.14-.397-.34-.457-4.265-.623-8.578-.842-12.883-.654-.257 0-.465.209-.465.467s.208.468.465.468c1.66 0 3.31 0 4.96.062 2.57-.021 5.136.166 7.675.561l-.34-.447c.247 4.76 1.846 9.352 2.908 13.955.196.746.33 1.507.402 2.275 0 .675-.33.8-.97.78-1.03 0-2.155.062-3.217.103-3.414.135-6.839.291-10.253.385H110.3c-.164.02-.33.02-.495 0-.227-.063-.154.114-.144-.28 0-1.04.206-2.36.33-3.471.704-4.78 1.152-9.594 1.34-14.422-.008-.258-.223-.46-.479-.452-.256.009-.457.225-.449.483zM112.683 110.344v2.161c.33 2.546 2.063 9.237 2.444 9.518.609.457 6.56.925 6.818.78.258-.146 1.155-9.176.939-11.358-.022-.627-.162-1.244-.413-1.818-.243-.473-.597-.88-1.031-1.184-2.338-1.564-5.378-1.564-7.715 0-.657.403-1.053 1.126-1.042 1.901z" transform="translate(-636.000000, -162.000000) translate(530.000000, 162.000000) translate(92.000000, 0.000000) translate(14.957408, 0.462912)"/>
                        <path fill="#FFF" d="M115.169 122.023c.711-.156 1.537-.478 1.402-1.04-.196-.945-1.124-1.516-1.66-2.316-.348-.566-.586-1.194-.702-1.85-.309-1.402-1.196-5.496.33-7.273.97-1.17 2.484-1.73 3.974-1.468 1.49.261 2.728 1.305 3.247 2.736.911 1.976.911 4.257 0 6.234-.382.706-.929 1.309-1.352 1.984-.463.656-.628 1.48-.453 2.265.502.762 1.248 1.327 2.114 1.6-.487.674-1.239 1.103-2.063 1.175-.402 0-2.166.634-3.094.239-.382-.167-2.775-1.393-3.094-1.528-.32-.135.629-.602 1.35-.758z" transform="translate(-636.000000, -162.000000) translate(530.000000, 162.000000) translate(92.000000, 0.000000) translate(14.957408, 0.462912)"/>
                        <path fill="#000" d="M115.272 122.397c.577-.135 1.351-.353 1.62-.966.267-.613-.217-1.362-.61-1.83-.71-.679-1.252-1.52-1.577-2.451-.155-.582-.269-1.174-.382-1.767-.361-1.533-.361-3.131 0-4.665.403-1.12 1.35-1.952 2.506-2.203 3.662-1.039 5.467 3.117 5.157 6.235-.118 1.04-.51 2.03-1.134 2.867-.595.699-1.05 1.507-1.341 2.38-.198.63-.087 1.316.3 1.85.216.244.462.46.731.643.189.134.385.255.588.364l.444.229c.124-.312.124-.385 0-.219-.124 0-.32.26-.444.343-.253.169-.532.295-.825.374-.268.073-.536.094-.804.146-.802.28-1.663.341-2.496.176-.575-.235-1.133-.51-1.671-.82l-.918-.458c-.114-.062-.433-.27-.403-.176v.395c.104-.219 1.094-.343 1.32-.395.485-.104.28-.852-.206-.748-.484.104-1.609.228-1.794.8-.186.571.464.675.804.852 1.197.592 2.455 1.517 3.847 1.423.746-.087 1.486-.215 2.218-.384.792-.12 1.52-.51 2.063-1.102.588-.706-.402-.924-.908-1.226-.42-.205-.776-.52-1.031-.914-.159-.73.02-1.495.485-2.078.678-.871 1.246-1.824 1.691-2.837.343-1.097.431-2.26.258-3.397-.143-1.883-1.126-3.598-2.671-4.666-2.26-1.371-5.756-.26-6.56 2.338-.423 1.87-.381 3.815.123 5.663.137 1.003.489 1.964 1.032 2.816.34.457.784.82 1.134 1.278.217.301.485.686.186 1.039-.278.205-.606.33-.949.364-.474.093-.268.852.217.727z" transform="translate(-636.000000, -162.000000) translate(530.000000, 162.000000) translate(92.000000, 0.000000) translate(14.957408, 0.462912)"/>
                        <path fill="#000" d="M121.12 108.796c-1.399-.916-3.093-1.259-4.734-.956-.862.18-1.668.564-2.352 1.122-.454.333-.938.831-.825 1.403.04.182.122.352.237.499.665.738 1.634 1.122 2.62 1.039.97 0 1.918-.27 2.878-.26.39-.014.779.065 1.134.228.403.223.733.559.95.967.66 1.122.536 2.992.278 4.717 1.165-.831 1.619-4.416 1.206-6.504l-1.392-2.255z" transform="translate(-636.000000, -162.000000) translate(530.000000, 162.000000) translate(92.000000, 0.000000) translate(14.957408, 0.462912)"/>
                        <path fill="#FFF" d="M127.309 171.522c.128.236.212.493.247.759.464.301 2.888.8 3.744 1.87.356.423.356 1.043 0 1.465-.227.28-6.683.395-7.674.333-.223.01-.442-.06-.618-.198-.14-.165-.229-.367-.258-.581-.248-1.154-.434-2.515.371-3.367.382-.36.852-.61 1.361-.727.963-.04 1.923.111 2.827.446z" transform="translate(-636.000000, -162.000000) translate(530.000000, 162.000000) translate(92.000000, 0.000000) translate(14.957408, 0.462912)"/>
                        <path fill="#000" d="M126.927 171.751c.186.301.103.717.413.935.25.14.517.248.794.322.775.227 1.522.541 2.228.935.33.208.763.51.763.946-.01.089-.032.176-.062.26 0 .104-.072.166 0 .083s.103 0 0 0h-.113c-.361.062-.908.093-1.362.125-1.444.083-2.888.114-4.332.124h-1.465c-.102.011-.206.011-.309 0-.289-.073-.289-.405-.33-.665-.12-.506-.169-1.028-.144-1.548.087-1.024.971-1.79 1.99-1.725.42.025.837.08 1.248.167.188.031.374.073.557.124h.186c.182.164.46.157.634-.016s.186-.452.026-.638c-.233-.183-.511-.298-.805-.333-.435-.099-.876-.172-1.32-.218-.938-.178-1.904.09-2.62.727-.773.907-1.04 2.145-.711 3.294.093.55.165 1.257.69 1.569.323.152.677.22 1.032.197 1.485 0 2.991 0 4.477-.072.722 0 1.444-.052 2.166-.125.546-.052 1.031-.062 1.289-.603.64-1.247-.495-2.244-1.496-2.743-.509-.243-1.033-.455-1.567-.634-.357-.086-.702-.212-1.032-.374l.206.28c-.033-.307-.131-.605-.288-.872-.258-.499-1.063-.031-.743.478z" transform="translate(-636.000000, -162.000000) translate(530.000000, 162.000000) translate(92.000000, 0.000000) translate(14.957408, 0.462912)"/>
                        <path fill="#FFF" d="M110.084 171.522c-.128.236-.212.493-.248.759-.474.301-2.888.8-3.744 1.87-.36.421-.36 1.044 0 1.465.227.28 6.673.395 7.664.333.226.01.449-.059.629-.198.14-.163.227-.366.247-.581.248-1.154.444-2.515-.371-3.367-.377-.36-.844-.612-1.351-.727-.962-.043-1.923.11-2.826.446z" transform="translate(-636.000000, -162.000000) translate(530.000000, 162.000000) translate(92.000000, 0.000000) translate(14.957408, 0.462912)"/>
                        <path fill="#000" d="M109.681 171.284c-.155.268-.257.564-.299.872l.217-.28c-.26.13-.534.235-.815.311-.464.156-.918.323-1.361.52-.867.384-1.97.977-2.063 2.078-.06.49.135.977.516 1.288.16.081.336.127.515.136.65.093 1.32.124 1.98.155 1.568.073 3.157.115 4.735.104.763 0 1.62 0 1.908-.883.417-1.126.417-2.365 0-3.491-.56-.999-1.651-1.573-2.785-1.465-.506.041-1.009.114-1.506.218-.352.028-.689.158-.97.374-.422.426.238 1.04.65.655-.103.114 0 0 0 0l.166-.063.453-.103c.388-.085.78-.144 1.176-.177.84-.148 1.677.273 2.063 1.039.175.47.228.978.155 1.475 0 .364-.062 1.34-.454 1.445-.438.057-.882.057-1.32 0-1.434 0-2.868 0-4.301-.115-.557 0-1.114-.052-1.671-.114-.111-.036-.225-.06-.34-.073 0 0 .113.083.133.063.021-.021-.103-.219-.113-.25-.034-.278.08-.554.3-.727.718-.567 1.547-.974 2.433-1.195.334-.09.659-.212.97-.364.381-.218.268-.633.474-.976.279-.5-.526-.967-.846-.457z" transform="translate(-636.000000, -162.000000) translate(530.000000, 162.000000) translate(92.000000, 0.000000) translate(14.957408, 0.462912)"/>
                        <path fill="#FFF" d="M129.031 149.038c-.103.135-.66.052-.794-.28-.248-.645-.475-2.598-.609-2.848-.128-.271-.416-.427-.711-.384-.397.384-.77.794-1.114 1.226-.062.062-.722.187-.506-.437.093-.26 1.28-2.285 1.496-2.587.127-.247.303-.466.516-.644.238-.112.504-.148.763-.104.347.024.691.073 1.031.146.109.015.212.058.3.124.06.086.095.187.103.291.113.354 0 4.832-.475 5.497z" transform="translate(-636.000000, -162.000000) translate(530.000000, 162.000000) translate(92.000000, 0.000000) translate(14.957408, 0.462912)"/>
                        <path fill="#000" d="M128.763 148.757c.082-.083.093 0 0-.052s-.103 0-.144 0c-.068-.082-.107-.184-.114-.29-.093-.333-.155-.676-.217-1.04l-.185-1.039c-.028-.236-.098-.464-.206-.675-.23-.385-.68-.578-1.114-.478-.3.093-.516.436-.702.665-.185.228-.268.332-.412.488l-.083.094c-.062.114 0 0 0 0h-.072s.144.104.113.093c-.03-.01 0-.156 0 0 .017-.043.038-.085.062-.124.258-.53.568-1.04.867-1.538.134-.24.278-.468.423-.696.123-.271.302-.512.526-.707.222-.062.458-.062.68 0 .163.01.325.03.485.062.114 0 .35 0 .433.084.083.083 0 .145 0 .083 0-.063 0 0 0 0v1.693c0 .728-.072 1.465-.154 2.193 0 .29-.083.582-.145.872 0 .104-.051.208-.082.312-.031.104 0 .115 0 .073-.011.037-.029.073-.052.104-.289.415.382.8.66.395.24-.481.37-1.01.382-1.548.093-.749.144-1.497.175-2.245 0-.571.052-1.132 0-1.704.012-.244-.049-.487-.175-.696-.175-.21-.43-.334-.702-.343-.34-.071-.684-.116-1.031-.135-.543-.07-1.078.176-1.382.634-.165.239-.32.499-.475.748-.36.592-.722 1.205-1.031 1.818-.157.224-.253.486-.278.759 0 .18.072.352.2.478.128.125.302.192.48.187.392 0 .588-.208.836-.489.247-.28.299-.374.454-.55.053-.07.111-.137.175-.198l.072-.083c-.113 0-.134.052-.072.052l.144.073s.134.177.093.104c-.041-.073 0 .073 0 .093 0 .021.072.354.103.53.083.447.155.904.248 1.361.03.406.173.795.412 1.123.322.35.854.404 1.238.124.118-.078.186-.213.178-.355-.008-.142-.091-.269-.217-.333-.126-.063-.276-.055-.394.023z" transform="translate(-636.000000, -162.000000) translate(530.000000, 162.000000) translate(92.000000, 0.000000) translate(14.957408, 0.462912)"/>
                        <path fill="#FFF" d="M123.307 130.418c0 1.87.887 8.728.216 10.484-4.383-.083-7.055 0-11.438-.083-1.28 0-2.93-10.577-3.321-14.214-.166-1.61-3.961-2.587-6.19-7.367-1.283-2.872-1.643-6.076-1.03-9.164 1.226.06 2.447-.209 3.537-.78.939 1.736.103 4.728 1.908 7.534 2.342 3.657 6.478 3.252 9.2 5.195 1.331.945 2.342.488 4.58-.25 9.613-3.117 9.376 21.082 9.5 21.072 1.031-.104-5.065.561-4.033.457.041 0-2.785-20.26-2.93-12.884z" transform="translate(-636.000000, -162.000000) translate(530.000000, 162.000000) translate(92.000000, 0.000000) translate(14.957408, 0.462912)"/>
                        <path fill="#FFF" d="M103.514 103.195c.415-.145.872-.108 1.258.104.206.198-2.3 4.157-.743 4.666.155 0 1.475-.977 1.558-.832.412.665-1.217 2.151-1.382 2.328-.163.195-.408.3-.66.28-.722-.119-1.42-.357-2.063-.706-.286-.31-.419-.734-.361-1.153.308-1.77 1.142-3.405 2.393-4.687z" transform="translate(-636.000000, -162.000000) translate(530.000000, 162.000000) translate(92.000000, 0.000000) translate(14.957408, 0.462912)"/>
                        <path fill="#000" d="M103.586 103.6c.19-.062.39-.083.588-.062.082.01.165.01.247 0 .062 0 .093.156 0-.104 0 0-.082-.135 0-.176-.024.06-.042.123-.051.187-.034.085-.071.168-.114.25-.247.57-.516 1.132-.732 1.714-.25.576-.377 1.2-.371 1.828 0 .489.443 1.226 1.031 1.04.258-.097.501-.23.722-.395l.433-.281.165-.104h.083c.144 0 0-.093-.361-.177 0 0 0 .063 0 0v.125c-.043.157-.113.304-.207.437-.194.29-.415.562-.66.81-.154.166-.32.343-.495.499-.175.156-.515.093-.804 0-.38-.089-.749-.214-1.104-.374-.412-.198-.474-.613-.443-1.04.14-.93.47-1.821.97-2.618.212-.401.453-.787.721-1.153.08-.118.17-.23.268-.333l.114-.072s.093-.063 0 0c.454-.187.247-.946-.207-.748-.241.116-.45.29-.608.509-.27.327-.514.674-.732 1.039-.54.856-.945 1.792-1.197 2.774-.139.5-.139 1.028 0 1.527.171.47.555.829 1.032.967.41.158.83.286 1.258.384.408.146.861.076 1.207-.187.558-.456 1.036-1.004 1.413-1.62.216-.3.312-.672.268-1.04-.114-.426-.464-.488-.815-.322-.315.174-.622.365-.918.572l-.206.124c-.072 0-.093.063-.103 0-.64-.415.154 0 .154 0h-.072s-.072-.073-.062 0c-.104-.212-.133-.454-.082-.686.06-.354.154-.702.278-1.039.258-.706.609-1.371.877-2.078.14-.21.14-.485 0-.696-.475-.339-1.088-.413-1.63-.197-.505.083-.31.841.145.717z" transform="translate(-636.000000, -162.000000) translate(530.000000, 162.000000) translate(92.000000, 0.000000) translate(14.957408, 0.462912)"/>
                        <path fill="#000" d="M122.925 130.418c0 1.704.217 3.419.33 5.123.114 1.704.433 3.657-.103 5.257l.371-.29h-9.076c-.588 0-1.97.217-2.404-.115-.433-.333-.773-1.943-.948-2.598-.351-1.32-.62-2.65-.867-3.99-.247-1.34-.485-2.805-.69-4.218-.08-1.064-.22-2.122-.424-3.17-.288-.716-.788-1.326-1.433-1.745-1.06-.815-2.048-1.722-2.95-2.712-2.66-3.276-3.692-7.594-2.806-11.73l-.371.28c1.299.1 2.597-.19 3.734-.83l-.537-.136c.418 1.239.64 2.536.66 3.844.16 1.5.704 2.932 1.578 4.157 1.403 1.86 3.456 2.66 5.58 3.356 1.113.314 2.183.764 3.188 1.34.747.58 1.696.831 2.63.696 1.763-.27 3.362-1.403 5.157-.831 2.723.862 3.909 4.385 4.6 6.858.816 3.145 1.32 6.365 1.506 9.61.082 1.196.134 2.38.186 3.575 0 .447-.104 1.164.536 1.132l-.103-.768c-1.248.166-2.878.29-4.27.478-.434 0-.33.779.103.758h.175c.119-.003.23-.06.302-.155.072-.094.098-.217.07-.333-.344-2.432-.709-4.856-1.094-7.274-.278-1.683-.557-3.366-.907-5.028-.124-.572-.227-1.964-.764-2.349-1.031-.685-.918 1.476-.928 1.881.031.19.195.331.387.331s.356-.14.387-.331c0-.333.082-.696.051-1.04 0 0 .196-1.256-.423-.28 0 0 .31.967.34 1.112.403 1.621.671 3.284.95 4.925.453 2.77.87 5.524 1.248 8.26l.381-.498h-.124l.104.769c1.248-.167 2.877-.291 4.27-.478.433-.052.33-.78-.103-.759.505 0 .123.624.247 0 .043-.345.043-.694 0-1.039 0-1.132-.103-2.275-.196-3.408-.198-3.158-.698-6.29-1.495-9.351-.681-2.452-1.713-5.34-3.92-6.816-.935-.617-2.056-.882-3.166-.748-.92.183-1.824.44-2.703.769-.572.216-1.187.29-1.794.218-.608-.227-1.18-.539-1.702-.925-2.331-1.247-5.157-1.403-7.22-3.242-1.37-1.359-2.197-3.179-2.321-5.112-.018-1.281-.256-2.55-.701-3.75-.05-.091-.134-.158-.233-.185-.099-.027-.205-.014-.293.039-1.018.57-2.181.823-3.342.727-.176.005-.33.122-.382.291-.698 3.337-.25 6.813 1.269 9.86.778 1.514 1.827 2.87 3.094 4 .815.738 2.115 1.424 2.682 2.39.567.967.402 2.297.536 3.253.227 1.548.485 3.117.774 4.634.289 1.517.557 2.91.959 4.333.16.849.486 1.658.96 2.379.15.192.361.327.597.384 1.234.136 2.48.136 3.714 0h7.777c.17-.001.321-.115.37-.28.537-1.58.259-3.522.156-5.143-.114-1.808-.361-3.637-.351-5.445-.023-.227-.224-.392-.449-.369-.225.023-.389.226-.366.452z" transform="translate(-636.000000, -162.000000) translate(530.000000, 162.000000) translate(92.000000, 0.000000) translate(14.957408, 0.462912)"/>
                        <path fill="#FFF" d="M61.895 154.181c.425 5.643.477 11.307.155 16.957.008.155-.035.309-.124.436-.123.128-.288.205-.464.219l-1.506.29c-.135.06-.29.048-.414-.034-.123-.082-.196-.222-.194-.37-.88-3.918-1.226-7.938-1.032-11.95.2-1.818.162-3.656-.113-5.465.875-.573 1.926-.809 2.96-.665" transform="translate(-636.000000, -162.000000) translate(530.000000, 162.000000) translate(92.000000, 0.000000) translate(14.957408, 0.462912)"/>
                        <path fill="#000" d="M61.431 154.181c.237 3.117.361 6.234.361 9.351 0 1.559 0 3.117-.072 4.686l-.093 2.151c0 .405.052.686-.289.925-.33.125-.678.196-1.031.208-.526.062-.495 0-.598-.51l-.248-1.215c-.134-.769-.258-1.538-.36-2.317-.197-1.52-.31-3.05-.341-4.582-.072-2.91.485-5.902-.083-8.78l-.216.53c.813-.507 1.773-.72 2.723-.603.598.062.598-.873 0-.935-1.116-.114-2.239.141-3.198.727-.174.114-.257.327-.206.53.248 1.77.28 3.564.093 5.34-.167 3.48.068 6.967.701 10.391.206 1.164.175 2.691 1.681 2.432.677-.006 1.34-.185 1.93-.52.391-.343.35-.894.38-1.382.094-1.797.155-3.605.166-5.403 0-3.657-.072-7.325-.35-10.972 0-.603-.97-.603-.93 0l-.02-.052z" transform="translate(-636.000000, -162.000000) translate(530.000000, 162.000000) translate(92.000000, 0.000000) translate(14.957408, 0.462912)"/>
                        <path fill="#FFF" d="M47.476 154.129c-.629 5.608-.887 11.252-.774 16.895-.013.16.023.319.104.457.125.126.288.207.464.229l1.485.342c.133.053.28.053.413 0 .116-.09.191-.226.206-.374 1.03-3.879 1.53-7.881 1.485-11.897-.136-1.824-.032-3.658.31-5.455-.853-.603-1.892-.88-2.93-.779" transform="translate(-636.000000, -162.000000) translate(530.000000, 162.000000) translate(92.000000, 0.000000) translate(14.957408, 0.462912)"/>
                        <path fill="#000" d="M47.012 154.129c-.392 3.585-.65 7.18-.753 10.775-.052 1.797-.062 3.605 0 5.403 0 .53-.093 1.184.34 1.569.585.345 1.242.548 1.919.592 1.423.29 1.464-1.101 1.722-2.213.371-1.652.65-3.325.836-5.008.196-1.76.289-3.529.278-5.3-.122-1.84-.022-3.69.3-5.506.045-.205-.042-.417-.217-.53-.934-.626-2.048-.922-3.167-.842-.598 0-.598.977 0 .935.952-.074 1.9.179 2.692.717l-.206-.53c-.68 2.847-.237 5.86-.413 8.77-.093 1.606-.279 3.205-.557 4.79-.123.748-.278 1.506-.443 2.254-.093.395-.175.81-.289 1.195-.113.385 0 .385-.443.333-.302-.043-.598-.113-.887-.208-.496-.166-.444-.218-.537-.655-.077-.84-.077-1.685 0-2.524 0-1.559.031-3.117.093-4.676.124-3.117.361-6.234.701-9.351.073-.593-.856-.593-.928 0l-.041.01z" transform="translate(-636.000000, -162.000000) translate(530.000000, 162.000000) translate(92.000000, 0.000000) translate(14.957408, 0.462912)"/>
                        <path fill="#C7CDFF" d="M61.555 139.967c0 5.382 1.867 17.186 1.712 17.975-.031.24-.144.46-.32.624-.237.208-15.296-.582-15.915-.51-.25.063-.512.063-.763 0-.225-.104-.383-.314-.423-.56-.484-1.736 2.97-11.118 3.218-16.895 3.425-.717 12.491-.634 12.491-.634z" transform="translate(-636.000000, -162.000000) translate(530.000000, 162.000000) translate(92.000000, 0.000000) translate(14.957408, 0.462912)"/>
                        <path fill="#000" d="M61.586 139.884c.154 4.361.547 8.711 1.176 13.03.175 1.485.402 2.971.485 4.467 0 .426.113.613-.135.676-.418.046-.84.046-1.258 0-3.331-.073-6.653-.24-9.984-.364-1.32-.052-2.64-.114-3.96-.146-.317.021-.634.021-.95 0-.846-.145-.474-1.267-.371-1.849.939-5.091 2.898-9.985 3.166-15.19l-.34.446c2.54-.385 5.105-.572 7.674-.561 1.65 0 3.3-.062 4.961-.062.256 0 .464-.21.464-.468s-.208-.468-.464-.468c-4.25 0-8.695-.135-12.882.665-.202.053-.343.237-.34.447-.269 5.06-2.146 9.84-3.095 14.775-.168.648-.234 1.317-.196 1.985.134 1.039.825 1.205 1.743 1.184.918-.02 2.063.052 3.094.094 3.63.135 7.22.312 10.902.405.65 0 1.93.28 2.497-.145.907-.686.34-2.733.237-3.627-.744-5.076-1.226-10.188-1.444-15.315-.006-.273-.23-.489-.5-.483-.271.006-.486.231-.48.504zM60.266 110.656v2.161c-.33 2.546-2.063 9.237-2.445 9.518-.608.457-6.56.924-6.818.79-.257-.136-1.227-9.134-1.052-11.368.028-.626.168-1.242.413-1.818.244-.473.598-.88 1.031-1.185 2.338-1.564 5.378-1.564 7.715 0 .704.371 1.148 1.102 1.156 1.902z" transform="translate(-636.000000, -162.000000) translate(530.000000, 162.000000) translate(92.000000, 0.000000) translate(14.957408, 0.462912)"/>
                        <path fill="#FFF" d="M57.749 122.303c-.712-.156-1.537-.478-1.403-1.039.196-.945 1.125-1.517 1.66-2.306.349-.57.587-1.201.702-1.86.31-1.403 1.197-5.497-.33-7.273-.968-1.17-2.484-1.73-3.973-1.469-1.49.262-2.728 1.305-3.247 2.736-.907 1.978-.907 4.257 0 6.234.382.697.928 1.3 1.351 1.975.464.66.63 1.486.454 2.275-.495.747-1.22 1.31-2.063 1.6.492.666 1.243 1.089 2.063 1.164.402 0 2.166.634 3.094.239.382-.166 2.775-1.392 3.095-1.528.32-.135-.681-.56-1.403-.748z" transform="translate(-636.000000, -162.000000) translate(530.000000, 162.000000) translate(92.000000, 0.000000) translate(14.957408, 0.462912)"/>
                        <path fill="#000" d="M57.852 121.96c-.577-.135-1.372-.332-.96-1.039.3-.457.645-.882 1.032-1.267.604-.761 1.002-1.667 1.156-2.629.41-1.603.567-3.262.464-4.915-.048-1.415-.8-2.712-2.001-3.45-1.147-.693-2.521-.895-3.817-.56-3.785 1.039-4.497 6.889-2.61 9.819.61.966 1.837 2.078 1.548 3.356-.113.488-.578.779-.97 1.039-.391.26-1.03.353-1.144.686-.279.519.608 1.039.949 1.236.682.342 1.418.564 2.176.655.857.264 1.773.264 2.63 0 .68-.27 1.33-.645 1.98-.977.33-.166 1.248-.426 1.341-.863.176-.748-1.382-.945-1.815-1.039-.433-.093-.691.645-.206.759.227 0 1.217.166 1.32.384v-.394c0-.094-.196.072-.3.124l-.732.364c-.577.29-1.144.603-1.722.862-.623.242-1.305.278-1.95.104-.603-.085-1.199-.213-1.784-.384-.222-.077-.433-.181-.629-.312-.124-.083-.32-.312-.444-.343l-.092-.083c0 .333.062.395.288.187.225-.083.434-.202.62-.353.598-.303 1.05-.834 1.258-1.476.402-1.932-1.537-3.273-2.156-4.883-1.114-2.878.093-8.063 3.91-7.834 1.097.05 2.129.54 2.866 1.36.98 1.206.826 3.118.66 4.562-.206 1.714-.484 3.554-1.701 4.842-.485.53-1.217 1.257-1.104 2.078.114.82 1.031 1.04 1.692 1.216.66.176.732-.717.247-.832z" transform="translate(-636.000000, -162.000000) translate(530.000000, 162.000000) translate(92.000000, 0.000000) translate(14.957408, 0.462912)"/>
                        <path fill="#000" d="M51.767 109.087c1.402-.917 3.1-1.26 4.744-.956.858.181 1.66.566 2.342 1.122.453.333.938.831.825 1.403-.036.183-.118.355-.237.498-.665.74-1.634 1.123-2.62 1.04-.97 0-1.919-.27-2.878-.26-.39-.014-.78.064-1.135.228-.402.223-.732.558-.948.967-.66 1.122-.537 2.992-.279 4.717-1.165-.821-1.62-4.416-1.207-6.504l1.393-2.255z" transform="translate(-636.000000, -162.000000) translate(530.000000, 162.000000) translate(92.000000, 0.000000) translate(14.957408, 0.462912)"/>
                        <path fill="#FFF" d="M45.588 171.834c-.128.236-.212.493-.247.759-.464.301-2.888.81-3.744 1.87-.356.423-.356 1.042 0 1.465.227.28 6.683.395 7.674.332.223.012.443-.058.619-.197.142-.16.232-.359.257-.571.248-1.164.434-2.525-.37-3.377-.383-.36-.853-.61-1.362-.728-.962-.04-1.923.112-2.827.447z" transform="translate(-636.000000, -162.000000) translate(530.000000, 162.000000) translate(92.000000, 0.000000) translate(14.957408, 0.462912)"/>
                        <path fill="#000" d="M45.186 171.595c-.157.267-.255.565-.289.873l.217-.28c-.264.13-.54.234-.825.311-.454.166-.908.322-1.351.52-.867.384-1.97.987-2.063 2.078-.058.487.137.97.516 1.278.16.08.336.126.515.135.66.093 1.32.125 1.98.156 1.579.072 3.157.114 4.735.104.763 0 1.63 0 1.908-.884.418-1.125.418-2.365 0-3.49-.558-1.001-1.65-1.576-2.785-1.466-.502.04-1.002.114-1.495.218-.354.038-.691.167-.98.374-.183.184-.183.482 0 .665.182.184.478.184.66 0-.114.104 0 0-.052 0l.165-.051c.145-.048.294-.086.444-.115.388-.084.78-.143 1.176-.176.84-.148 1.676.273 2.062 1.039.18.47.233.978.155 1.475 0 .364-.062 1.34-.454 1.455-.438.052-.881.052-1.32 0-1.423 0-2.867 0-4.29-.104-.558 0-1.125-.052-1.682-.125-.111-.033-.225-.057-.34-.073 0 0 .124.094.134.073-.046-.083-.084-.17-.114-.26-.029-.28.088-.555.31-.727.716-.565 1.542-.972 2.424-1.195.334-.09.658-.212.97-.364.38-.218.267-.633.484-.976.31-.51-.495-.925-.815-.468z" transform="translate(-636.000000, -162.000000) translate(530.000000, 162.000000) translate(92.000000, 0.000000) translate(14.957408, 0.462912)"/>
                        <path fill="#FFF" d="M62.834 171.834c.128.236.212.493.247.759.475.301 2.899.81 3.745 1.87.36.42.36 1.044 0 1.465-.227.28-6.674.395-7.664.332-.226.012-.45-.058-.63-.197-.138-.16-.224-.36-.247-.571-.247-1.164-.443-2.525.372-3.377.377-.361.843-.613 1.35-.728.963-.042 1.924.11 2.827.447z" transform="translate(-636.000000, -162.000000) translate(530.000000, 162.000000) translate(92.000000, 0.000000) translate(14.957408, 0.462912)"/>
                        <path fill="#000" d="M62.442 172.063c.186.301.103.727.402.935.251.14.518.247.794.322.778.224 1.526.542 2.228.946.33.197.764.498.764.935.01.086.01.173 0 .26 0 .114-.073.166 0 .083.072-.084.103 0 0 0h-.124c-.451.067-.906.109-1.362.124-1.444.083-2.888.115-4.332.135h-1.774c-.278-.083-.278-.415-.33-.675-.117-.507-.162-1.028-.134-1.548.088-1.02.966-1.785 1.98-1.725.42.024.837.08 1.249.166.178.042.353.094.526.156l.185.052c.062 0 0 0 0 0 .413.426 1.032-.239.65-.665-.23-.223-.521-.371-.835-.426-.433-.098-.87-.17-1.31-.218-.938-.178-1.905.09-2.62.727-.777.905-1.049 2.144-.722 3.294.093.561.165 1.257.701 1.569.321.154.677.222 1.032.197 1.495 0 2.99 0 4.476-.062.722 0 1.444-.062 2.166-.135.547 0 1.031-.062 1.3-.603.64-1.247-.495-2.234-1.506-2.743-.507-.241-1.027-.453-1.558-.634-.355-.09-.7-.214-1.031-.374l.216.28c-.041-.307-.143-.604-.299-.872-.258-.426-1.062-.01-.732.499z" transform="translate(-636.000000, -162.000000) translate(530.000000, 162.000000) translate(92.000000, 0.000000) translate(14.957408, 0.462912)"/>
                        <path fill="#FFF" d="M43.887 149.318c.103.135.67.052.794-.28.247-.644.474-2.598.619-2.847.121-.272.408-.43.701-.385.394.387.766.797 1.114 1.226.062.063.722.187.505-.436-.092-.26-1.279-2.286-1.485-2.587-.137-.259-.327-.486-.557-.665-.238-.112-.504-.149-.763-.104-.347.024-.692.072-1.032.145-.11.015-.214.062-.299.135-.061.081-.097.18-.103.281-.082.405.031 4.883.506 5.517z" transform="translate(-636.000000, -162.000000) translate(530.000000, 162.000000) translate(92.000000, 0.000000) translate(14.957408, 0.462912)"/>
                        <path fill="#000" d="M43.608 149.62c.311.213.72.213 1.032 0 .3-.235.49-.585.526-.967.165-.737.257-1.486.422-2.223 0-.052.073-.135 0 0 0-.094.176-.135.227-.208l.01-.02.073.062c.062.083.144.155.206.239.233.365.526.688.867.955.286.147.631.115.887-.083.243-.264.281-.66.092-.966-.29-.584-.61-1.153-.959-1.704-.155-.25-.299-.499-.454-.738-.186-.378-.471-.698-.825-.924-.585-.18-1.21-.18-1.794 0-.516.083-.877.29-.929.852-.03.46-.03.921 0 1.381 0 .832.072 1.663.165 2.494 0 .63.14 1.252.413 1.818.278.406.949 0 .66-.394v-.073c0-.083 0 0 0 0-.038-.097-.066-.198-.083-.301-.06-.236-.105-.476-.134-.717-.082-.645-.123-1.3-.165-1.943-.04-.645-.051-1.123-.051-1.684v-.55c0 .156 0 0 0 0 .106-.04.217-.06.33-.063.177-.035.356-.06.536-.072.23-.058.471-.058.702 0 .206.093.309.322.433.509l.31.488c.33.54.649 1.04.958 1.642l.155.29v.115c-.062-.135 0 0 0 0s.062 0 .083-.062c.02-.063 0 0 0 0 .103.052 0 0 0-.104-.454-.499-.898-1.445-1.702-1.102-.805.343-.743 1.174-.867 1.84-.072.405-.134.81-.237 1.205-.012.126-.047.25-.103.363-.04.041-.09.07-.144.084-.104.051-.124 0 0 .062-.137-.178-.391-.21-.568-.073-.176.138-.209.394-.072.572z" transform="translate(-636.000000, -162.000000) translate(530.000000, 162.000000) translate(92.000000, 0.000000) translate(14.957408, 0.462912)"/>
                        <path fill="#FFF" d="M49.611 130.73c0 1.87-.887 8.728-.217 10.484 4.384-.073 7.055 0 11.439-.083 1.279 0 2.93-10.578 3.321-14.214.165-1.6 3.96-2.588 6.189-7.367 1.283-2.872 1.644-6.076 1.031-9.164-1.227.06-2.448-.21-3.538-.78-.938 1.736-.103 4.728-1.897 7.533-2.352 3.658-6.488 3.253-9.211 5.196-1.33.945-2.341.488-4.58-.24-9.613-3.117-9.375 21.083-9.5 21.062-1.03-.104 5.065.56 4.044.457-.01 0 2.775-20.272 2.919-12.884z" transform="translate(-636.000000, -162.000000) translate(530.000000, 162.000000) translate(92.000000, 0.000000) translate(14.957408, 0.462912)"/>
                        <path fill="#FFF" d="M69.404 103.507c-.415-.146-.872-.108-1.258.104-.206.198 2.3 4.156.742 4.665-.154 0-1.464-.976-1.557-.83-.413.664 1.217 2.15 1.382 2.327.162.195.408.3.66.28.722-.119 1.419-.358 2.063-.706.286-.311.418-.734.361-1.154-.308-1.77-1.143-3.404-2.393-4.686z" transform="translate(-636.000000, -162.000000) translate(530.000000, 162.000000) translate(92.000000, 0.000000) translate(14.957408, 0.462912)"/>
                        <path fill="#000" d="M69.549 103.133c-.568-.187-1.991-.166-1.713.769.176.571.495 1.112.722 1.652.326.621.495 1.313.495 2.016-.015.08-.043.157-.082.228 0 0-.062 0 0 0h-.072c.05-.021.105-.021.154 0h-.072l-.216-.124-.506-.333c-.247-.156-.588-.426-.897-.343-.31.083-.413.634-.33.956.295.738.77 1.388 1.382 1.891.248.324.625.522 1.031.54.351-.046.696-.126 1.032-.238.434-.1.847-.28 1.217-.53.42-.384.625-.952.547-1.517-.143-1.108-.523-2.172-1.114-3.117-.234-.429-.5-.839-.795-1.226-.177-.289-.43-.523-.732-.676-.454-.197-.66.561-.206.748-.103 0 0 0 0 0 .04.032.078.067.113.104.087.086.167.18.238.28.234.302.444.622.629.957.456.735.803 1.533 1.031 2.369.14.41.14.856 0 1.267-.144.333-.567.437-.887.54-.335.12-.68.208-1.031.26-.258 0-.403-.135-.578-.301-.507-.407-.904-.936-1.155-1.538v-.145c0-.021-.114-.125 0 0 0 0-.361.218-.361.187s0 0 .082 0l.207.124c.278.167.536.354.815.52.226.173.53.201.783.073.239-.132.422-.346.516-.603.14-.58.096-1.19-.124-1.745-.234-.689-.51-1.362-.825-2.016-.103-.229-.124-.364-.227-.572-.103-.207 0 0 0 0-.237.354-.082.208.083.177.227-.057.464-.057.69 0 .382.27.589-.488.156-.634z" transform="translate(-636.000000, -162.000000) translate(530.000000, 162.000000) translate(92.000000, 0.000000) translate(14.957408, 0.462912)"/>
                        <path fill="#000" d="M49.22 130.73c0 1.818-.238 3.637-.352 5.444-.103 1.621-.381 3.564.155 5.196.047.167.199.282.371.28h9.985c.615.1 1.246.047 1.836-.156.536-.332.773-1.215.959-1.776.427-1.303.772-2.633 1.031-3.98.578-2.795.825-5.642 1.341-8.447.206-1.04 1.248-1.663 2.063-2.317 1.185-.957 2.227-2.08 3.094-3.336 2.152-3.323 2.894-7.374 2.063-11.252-.053-.17-.206-.286-.381-.291-1.161.096-2.325-.157-3.342-.728-.089-.052-.195-.066-.294-.038-.099.027-.183.093-.232.184-.39.954-.603 1.971-.63 3.003-.057 1.686-.563 3.326-1.464 4.748-1.64 2.255-4.29 2.733-6.725 3.657-.97.374-1.836 1.123-2.806 1.445-1.248.415-2.61-.374-3.785-.707-1.128-.355-2.343-.3-3.435.156-2.351 1.039-3.537 3.824-4.29 6.14-.916 3.044-1.494 6.18-1.723 9.352-.124 1.372-.216 2.753-.278 4.156v1.257c0 .738-.062.084.237.104-.423 0-.536.707-.103.759 1.392.197 3.022.312 4.27.478l.103-.759h-.113l.37.499c.386-2.77.802-5.52 1.249-8.25.278-1.652.547-3.314.949-4.935 0-.156.371-1.04.34-1.112-.608-.977-.423.332-.423.28 0 .333.052.697.052 1.04.031.19.195.33.387.33s.355-.14.386-.33c0-.437.135-2.079-.68-1.996-.64.073-.784 1.476-.898 1.933-.742 3.263-1.206 6.608-1.691 9.923-.145.977-.289 1.943-.423 2.92-.029.117-.002.242.073.337.074.096.188.15.309.15h.113c.423 0 .536-.706.103-.768-1.392-.187-3.022-.312-4.27-.478l-.103.769c.928 0 .63-3.117.66-3.72.156-3.2.587-6.381 1.29-9.507.629-2.629 1.608-6.151 4.125-7.606 1.423-.82 2.816-.436 4.28 0 .88.385 1.84.546 2.796.468 1.093-.198 2.011-1.04 3.042-1.476 2.393-.945 5.003-1.402 6.808-3.418.961-1.1 1.607-2.444 1.867-3.886.299-1.517.103-3.221.784-4.624l-.537.135c1.136.642 2.435.931 3.734.832l-.371-.28c.743 3.545.104 7.243-1.785 10.327-.877 1.332-1.96 2.514-3.207 3.502-.77.507-1.446 1.143-2.001 1.88-.306.825-.463 1.697-.465 2.577-.185 1.361-.391 2.702-.629 4.052-.268 2.516-.861 4.985-1.763 7.346-.32.676-.526.572-1.29.582H49.498l.37.291c-.535-1.59-.216-3.616-.102-5.257.113-1.642.34-3.419.33-5.123-.006-.244-.207-.437-.449-.431-.242.006-.434.208-.428.452z" transform="translate(-636.000000, -162.000000) translate(530.000000, 162.000000) translate(92.000000, 0.000000) translate(14.957408, 0.462912)"/>
                    </g>
                </g>
            </g>
        </g>
    </g>
</svg>
