<svg xmlns="http://www.w3.org/2000/svg" xmlns:xlink="http://www.w3.org/1999/xlink" width="908" height="334" viewBox="0 0 908 334">
    <defs>
        <path id="mb8okff31a" d="M10 .837h888c5.523 0 10 4.477 10 10v323.009H0V10.836c0-5.522 4.477-10 10-10z"/>
        <path id="z2hnahuzad" d="M25.911-123.578c66.998 5.01 140.527 12.249 205.932 10.658 122.697-2.984 129.454-16.5 272.47 13.25 46.546 9.684 22.044 24.819 55.684 32.327 24.235 5.409 100.895 10.405 106.917 13.399 10.62 5.28 25.06 20.745 30.245 24.776 9.216 7.165 18.786 14.314 29.87 21.01 12.561 7.59 28.289 14.086 40.807 21.688 114.969 69.82 8.386 13.102 86.266 50.967 3.843 1.868 10.083 11.323 13.758 13.965 71.954 51.754-3.092-1.933 48.051 29.916 2.306 1.437 3.918 3.107 4.85 4.728 11.648 20.251 22.845 41.949 21.524 61.705-1.572 23.505-6.945-3.776-2.08 28.459 2.258 14.97 7.063 30.15 8.784 45.074 3.5 30.345-46.42 41.101-103.155 42.073-10.755.185-21.81-.137-32.871-.603-44.858-1.89-89.597-3.197-134.836-6.464-57.91-4.18-116.095-9.252-174.28-15.854-106.24-12.055-200.765-33.63-303.613-56.497-68.779-15.291-137.83-32.413-197.261-57.303-64.926-27.19-71.354-51.19-98.156-89.443-4.182-5.969-7.049-11.276-7.26-16.949-.625-16.732 3.811-6.46 6.4-33.06 4.132-42.452-4.193-31.479 4.665-60.929.55-1.827 1.633-3.563 2.984-5.21 6.132-7.482 13.468-14.632 19.443-22.155 2.675-3.368 10.454-18.812 19.39-24.337 10.835-6.698 30.983-8.161 46.124-12.484l29.348-12.707z"/>
        <path id="ln451fqfif" d="M62.916-103.102c79.378-1.885 167.088-1.945 242.365-11.261 141.215-17.477 144.434-33.843 320.383-15.882 57.264 5.846 34.028 26.108 75.589 30.92 29.94 3.468 120.514.463 128.517 3.228 14.114 4.875 36.134 21.064 43.521 25.12 13.13 7.211 26.664 14.364 41.8 20.82 17.153 7.318 37.604 13.014 54.71 20.351 157.117 67.39 14.195 14.154 117.406 48.925 5.093 1.716 15.555 11.908 20.717 14.536 101.083 51.47-4.244-1.876 65.918 29.014 3.164 1.393 5.602 3.135 7.236 4.898 20.418 22.03 40.807 45.778 46.02 68.718 6.204 27.294-9.34-3.561 7.306 33.067 7.73 17.012 18.484 33.973 25.574 50.99 14.418 34.606-39.777 52.723-105.216 60.334-12.405 1.443-25.329 2.337-38.311 3.064-52.647 2.95-104.956 6.56-158.514 7.968-68.56 1.8-137.742 2.606-207.446 1.646-127.275-1.753-244.219-15.83-371.252-30.443-84.953-9.772-170.845-21.625-248.24-43.538-84.548-23.939-100.194-50.89-144.326-91.95-6.886-6.407-12.021-12.201-14.204-18.721-6.437-19.23 2.213-7.888-3.868-38.869C-41.104 20.39-47.008 34-46.8-.985c.019-2.171.683-4.297 1.686-6.353 4.553-9.332 10.617-18.418 14.974-27.78 1.951-4.192 5.696-22.897 14.169-30.292C-5.7-74.376 17.157-78.368 33.234-85.087l29.682-18.015z"/>
        <path id="rbqieypeah" d="M262.176 10.137c52.856-27.927 111.903-56.452 159.64-91.627 89.552-65.985 86.525-85.917 210.714-122.271 40.418-11.832 31.201 19.092 60.716 11.163 21.264-5.712 81.304-38.565 87.57-37.97 11.053 1.047 31.02 12.587 37.282 14.872 11.13 4.063 22.514 7.926 34.757 10.468 13.873 2.88 29.452 2.819 43.301 5.737 127.194 26.804 14.051 11.73 94.591 18.376 3.974.328 14.254 8.697 18.565 10.056 84.406 26.609-3.454-.79 53.598 12.099 2.573.581 4.768 1.801 6.428 3.306 20.74 18.8 42.008 39.594 52.8 64.379 12.84 29.488-7.42-1.08 15.413 35.794 10.605 17.125 23.229 33.211 33.405 50.552 20.692 35.261-10.055 73.754-51.708 103.768-7.896 5.69-16.315 10.914-24.827 15.966-34.517 20.485-68.598 41.622-104.22 60.622-45.597 24.321-91.93 47.695-139.176 69.201-86.266 39.269-169.487 60.963-259.672 85.31-60.31 16.284-121.914 30.47-180.987 30.29-64.535-.199-83.625-26.228-126.375-59.3-6.67-5.16-11.967-10.181-15.506-16.998-10.438-20.106-1.013-9.821-14.94-43.604-22.228-53.916-21.884-36.292-32.844-76.739-.68-2.51-.908-5.179-.885-7.877.105-12.247 1.305-24.7 1.268-36.92-.016-5.47-3.43-28.273-.072-39.557 4.073-13.681 18.198-25.704 26.892-38.674l14.272-30.422z"/>
        <filter id="5u4wt2ikmc" width="119.6%" height="149.8%" x="-9.8%" y="-24.4%" filterUnits="objectBoundingBox">
            <feOffset dy="2" in="SourceAlpha" result="shadowOffsetOuter1"/>
            <feGaussianBlur in="shadowOffsetOuter1" result="shadowBlurOuter1" stdDeviation="34"/>
            <feColorMatrix in="shadowBlurOuter1" values="0 0 0 0 0.2419233 0 0 0 0 0.289452948 0 0 0 0 0.659505208 0 0 0 0.670836976 0"/>
        </filter>
        <filter id="jxs42nb7qe" width="115.7%" height="147.7%" x="-7.9%" y="-23.4%" filterUnits="objectBoundingBox">
            <feOffset dy="2" in="SourceAlpha" result="shadowOffsetOuter1"/>
            <feGaussianBlur in="shadowOffsetOuter1" result="shadowBlurOuter1" stdDeviation="34"/>
            <feColorMatrix in="shadowBlurOuter1" values="0 0 0 0 0.2419233 0 0 0 0 0.289452948 0 0 0 0 0.659505208 0 0 0 0.670836976 0"/>
        </filter>
        <filter id="373wuy3oqg" width="121.5%" height="134.9%" x="-10.8%" y="-17.1%" filterUnits="objectBoundingBox">
            <feOffset dy="2" in="SourceAlpha" result="shadowOffsetOuter1"/>
            <feGaussianBlur in="shadowOffsetOuter1" result="shadowBlurOuter1" stdDeviation="34"/>
            <feColorMatrix in="shadowBlurOuter1" values="0 0 0 0 0.2419233 0 0 0 0 0.289452948 0 0 0 0 0.659505208 0 0 0 0.670836976 0"/>
        </filter>
    </defs>
    <g fill="none" fill-rule="evenodd">
        <g>
            <g>
                <g transform="translate(259 -180) translate(24 245) translate(-283 -65)">
                    <mask id="k1vjw1q76b" fill="#fff">
                        <use xlink:href="#mb8okff31a"/>
                    </mask>
                    <g mask="url(#k1vjw1q76b)" opacity=".8" transform="matrix(-1 0 0 1 846.66 0)">
                        <use fill="#000" filter="url(#5u4wt2ikmc)" xlink:href="#z2hnahuzad"/>
                        <use fill="#7786FF" xlink:href="#z2hnahuzad"/>
                    </g>
                    <g mask="url(#k1vjw1q76b)" opacity=".7" transform="scale(1 -1) rotate(-7 -665.24 0)">
                        <use fill="#000" filter="url(#jxs42nb7qe)" xlink:href="#ln451fqfif"/>
                        <use fill="#7786FF" xlink:href="#ln451fqfif"/>
                    </g>
                    <g mask="url(#k1vjw1q76b)" opacity=".8" transform="rotate(30 698.555 64.826)">
                        <use fill="#000" filter="url(#373wuy3oqg)" xlink:href="#rbqieypeah"/>
                        <use fill="#7786FF" xlink:href="#rbqieypeah"/>
                    </g>
                </g>
            </g>
        </g>
    </g>
</svg>
