<svg xmlns="http://www.w3.org/2000/svg" width="232" height="231" viewBox="0 0 232 231">
    <g fill="none" fill-rule="evenodd">
        <g fill-rule="nonzero">
            <g>
                <g>
                    <g>
                        <g>
                            <g>
                                <g>
                                    <path fill="#D4DAFF" d="M53.916 125.329c-5.777-1.917-10.282-6.348-13.015-11.412-2.732-5.064-3.845-10.749-4.393-16.374-1.179-12.23.165-24.573 3.946-36.247 3.592-11.12 9.357-21.653 11.777-33.04 1.814-8.564 1.679-17.366 1.537-26.09C56.2 9.17 60.635 15.405 64.74 21.71c11.378 17.45 20.753 36.582 22.378 56.88.736 8.992-.253 18.165-3.616 26.632-11.053 27.893-29.585 20.107-29.585 20.107z" transform="translate(-438 -3593) translate(0 3321) translate(80 104) translate(0 136) translate(327) translate(32 32) translate(4.331)"/>
                                    <path fill="#231F20" d="M52.958 125.816c-7.582-2.631-12.666-9.525-15.006-17.05-1.217-4.186-1.955-8.501-2.199-12.86-.334-4.557-.334-9.134 0-13.692.718-9.041 2.692-17.934 5.864-26.414 3.02-8.227 6.744-16.205 9.043-24.694C53.369 21.08 53.316 10.704 53.152.393l-.862.12c2.128 6.226 5.653 11.787 9.183 17.264 3.53 5.477 6.966 11.174 10.074 16.996 6.075 11.43 10.966 23.658 13.1 36.517 1.156 6.627 1.401 13.385.728 20.08-.731 6.675-2.625 13.163-5.595 19.164-3.46 6.995-8.825 13.817-16.648 15.776-3.304.856-6.783.716-10.01-.405-.058 0-.293-.119-.058 0-.516-.226-.968.548-.446.768 2.657 1.143 5.864 1.292 8.673.911 7.26-.982 12.942-6.144 16.795-12.204 7.101-11.156 9.44-24.801 8.239-37.887-1.202-13.085-5.46-25.73-11.142-37.505-2.944-6.027-6.2-11.892-9.758-17.568-3.553-5.715-7.482-11.228-10.367-17.336-.736-1.548-1.384-3.139-1.941-4.762-.061-.213-.266-.348-.482-.318-.216.03-.378.216-.38.437.152 9.584.275 19.276-1.994 28.647-2.117 8.721-5.894 16.889-9.037 25.247-3.262 8.507-5.352 17.43-6.21 26.516-.403 4.553-.472 9.13-.205 13.693.188 4.46.843 8.89 1.953 13.21 2.287 8.364 7.623 16.074 15.991 18.96.504.174.739-.69.205-.898z" transform="translate(-438 -3593) translate(0 3321) translate(80 104) translate(0 136) translate(327) translate(32 32) translate(4.331)"/>
                                    <path fill="#231F20" d="M39.75 84.57c-2.011 9.468-.033 19.369 5.445 27.255.107.158.368 0 .255-.153-5.436-7.816-7.404-17.632-5.416-27.022.042-.19-.243-.275-.285-.08z" transform="translate(-438 -3593) translate(0 3321) translate(80 104) translate(0 136) translate(327) translate(32 32) translate(4.331)"/>
                                    <path fill="#231F20" d="M41.324 89.618c-.66 2.866.659 5.94 1.743 8.522 1.295 2.955 2.739 5.838 4.324 8.638.042.06.121.077.183.04s.087-.117.057-.185c-1.413-2.594-2.832-5.21-4.022-7.908-.623-1.397-1.164-2.832-1.62-4.296-.554-1.51-.697-3.148-.414-4.736.04-.18-.229-.26-.268-.075h.017z" transform="translate(-438 -3593) translate(0 3321) translate(80 104) translate(0 136) translate(327) translate(32 32) translate(4.331)"/>
                                    <path fill="#231F20" d="M41.873 91.144c1.03 4.173 3.474 7.903 6.95 10.606.151.116.364-.088.212-.204-3.437-2.671-5.853-6.358-6.87-10.484-.043-.186-.335-.105-.292.076v.006zM43.323 89.693c.882 2.324 2.26 4.458 4.053 6.27.139.14.36-.07.227-.206-1.76-1.773-3.114-3.862-3.978-6.14-.07-.182-.372-.106-.302.076zM55.607 12.423c3.586 9.191 10.975 16.33 14.123 25.73.06.185.343.108.284-.077-3.148-9.407-10.538-16.54-14.135-25.707-.065-.173-.354-.096-.284.083l.012-.03zM57.037 20.386c2.292 6.452 7.78 11.196 9.815 17.775.051.173.332.098.275-.075-2.034-6.585-7.494-11.324-9.815-17.775-.063-.174-.338-.099-.275.075zM57.792 29.143c2.64 2.703 4.962 5.74 6.913 9.043.04.072.128.095.195.051.067-.043.089-.136.048-.208-1.962-3.328-4.298-6.387-6.958-9.11-.13-.138-.328.079-.198.212v.012zM59.256 34.918c1.964 1.44 3.58 3.298 4.73 5.439.085.163.328 0 .243-.14-1.175-2.183-2.826-4.076-4.832-5.54-.147-.107-.288.134-.141.241z" transform="translate(-438 -3593) translate(0 3321) translate(80 104) translate(0 136) translate(327) translate(32 32) translate(4.331)"/>
                                    <g fill="#7786FF" opacity=".1">
                                        <path d="M110.781 1.533C82.376-4.601 53.787 8.799 27.961 21.8c-4.198 2.114-8.576 4.384-11.21 8.208-5.874 8.583-.359 19.898-.062 30.196.516 17.905-15.216 32.969-16.365 50.828-.437 6.867 1.322 13.683 1.608 20.556.465 11.384-3.133 22.797-1.507 34.077 3.687 25.541 31.672 40.333 57.268 47.149 19.023 5.071 40.68 7.682 57.392-2.495 7.69-4.685 13.558-11.65 20.306-17.553 18.064-15.803 42.792-24.259 57.493-43.094 17.745-22.71 15.9-55.847 1.867-80.897-14.035-25.05-38.146-43.232-63.233-58.035l-20.737-9.207z" transform="translate(-438 -3593) translate(0 3321) translate(80 104) translate(0 136) translate(327) translate(32 32) translate(4.331) translate(0 2.888)"/>
                                    </g>
                                    <path fill="#FFF" d="M78.712 174.536c-.404-.135-.759-.391-1.016-.735-.287-.544-.533-1.11-.739-1.69-1.288-2.815-3.546-1.954-5.242-3.729 0 0-1.436-34.416-.774-45.105.183-2.922.437-5.826.686-8.724.514-5.921 1.04-11.902 2.204-17.417.59-2.85 1.365-5.54 2.157-8.18.847-2.82 1.72-5.599 2.618-8.335l-1.655-3.442c-1.343 3.35-2.687 6.704-4.03 10.062-.345.974-.793 1.908-1.336 2.784-.526.747-1.182 1.195-1.802.92-.386-.2-.67-.556-.78-.98-.234-.959-.284-1.955-.148-2.933.46-5.874 1.182-11.657 2.14-17.268l-2.985.382c-.899 7.93-2.051 15.739-3.434 23.369-.034.296-.12.583-.254.848-.343.49-.78-.233-1.017-.926-1.512-4.308-2.163-9.638-2.535-14.89-.372-5.252-.508-10.593-1.135-15.744l-4.213 1.13c1.46 5.698 2.551 11.486 3.268 17.327.666 4.548.829 9.158.484 13.743-.006.24-.062.476-.165.693-.165.245-.39.06-.591-.138-3.386-3.74-6.394-8.908-8.782-15.093l-2.128 3.585c2.223 3.15 3.93 7.63 5.213 12.5 1.255 5.088 2.228 10.242 2.913 15.44l.355 4.875c-.148 11.198-.431 22.389-.768 33.568-.148 4.78-.302 9.56-.503 14.34-.065 1.482.077 5.031-.395 6.292-1.088 2.886-3.452.848-5.042 2.492-.398.5-.77 1.02-1.117 1.559-1.442 1.912-3.374 1.59-4.852 3.364l5.981.335c1.726.095 3.499.173 5.148-.92-.077.226-.183.597-.349 1.153-.384 1.332-.561 3.107-1.247 3.788-.685.68-1.678-.174-2.364.759 2.057.914 4.255.525 6.205-1.112.426-.364 1.667-1.649 3.08-2.934.738.311 1.554 1.25 2.174 1.68.664.41 1.421.64 2.199.669l4.775.555c1.412.162 2.89.305 4.172-.908-1.02.033-1.991-.445-2.594-1.279-.591-.71-1.129-1.69-1.744-2.39l.26.072c1.437 1.327 3.103-.502 4.67-.125 1.093.269 2.085 1.613 3.185 1.762 1.861.251 3.61-2.951 5.43-2.127-.966-1.228-2.189-2.226-3.58-2.922z" transform="translate(-438 -3593) translate(0 3321) translate(80 104) translate(0 136) translate(327) translate(32 32) translate(4.331)"/>
                                    <path fill="#231F20" d="M57.046 161.777c.46 4.307.507 9.451-2.103 13.106-.583.801-1.218 1.55-1.748 2.392-.53.89-.924 1.859-1.166 2.872-.192.777-.36 2.392-1.165 2.745-.402.18-.885 0-1.316.084-.414.056-.793.27-1.06.598-.106.114-.147.277-.108.429.04.152.153.273.3.319 1.942.751 4.106.612 5.942-.383 1.033-.584 1.973-1.324 2.79-2.195.808-.76 1.55-1.588 2.22-2.477 1.26-1.794 1.34-4.187 1.451-6.316.14-2.68.222-5.384.257-8.058.043-3.082.015-6.163-.082-9.241 0-.248-.195-.449-.437-.449-.241 0-.437.201-.437.449.247 6.205.161 12.42-.256 18.615-.019 1.41-.341 2.8-.944 4.067-.752 1.144-1.654 2.177-2.68 3.069-2.115 2.046-4.754 3.152-7.574 2.052l.192.753c.647-.712 1.818-.054 2.57-.76.658-.598.88-1.65 1.09-2.494.233-1.16.65-2.273 1.234-3.296.542-.867 1.224-1.639 1.806-2.476 2.587-3.739 2.564-9.02 2.098-13.381-.064-.568-.938-.598-.874 0v-.024z" transform="translate(-438 -3593) translate(0 3321) translate(80 104) translate(0 136) translate(327) translate(32 32) translate(4.331)"/>
                                    <path fill="#231F20" d="M64.01 164.317c0 2.025 0 4.06.12 6.085.127 1.76.335 3.696 1.154 5.28.374.753.958 1.377 1.678 1.795.9.398 1.716.972 2.4 1.69 1.245 1.514 2.358 3.297 4.55 3.18l-.306-.75c-1.154.92-2.515.932-3.899.803-1.47-.147-2.947-.311-4.417-.464-.736-.046-1.468-.14-2.192-.281-.643-.17-1.241-.48-1.753-.91-.802-.622-1.661-1.25-2.659-.698-.49.27-.052 1.033.438.757.606-.334 1.24.276 1.696.634.472.398 1.004.717 1.574.944 1.327.47 2.884.446 4.262.587 2.532.264 5.393 1.015 7.567-.74.294-.234.046-.768-.306-.75-2.197.117-3.045-2.083-4.377-3.42-.614-.526-1.3-.957-2.036-1.28-.75-.412-1.332-1.085-1.638-1.895-.6-1.67-.908-3.432-.91-5.21-.093-1.79-.076-3.579-.082-5.368 0-.243-.193-.44-.432-.44-.24 0-.433.197-.433.44v.011zM64.366 140.185c.043 6.4.084 12.802.123 19.203 0 .08.08.146.18.146.1 0 .18-.065.18-.146-.043-6.401-.084-12.802-.122-19.203 0-.188-.368-.188-.361 0zM68.78 128.662v41.55c0 .083.081.15.18.15.1 0 .181-.067.181-.15-.137-4.594-.043-9.2-.043-13.812v-20.862-6.894c0-.083-.08-.15-.18-.15-.1 0-.181.067-.181.15l.043.018zM58.753 123.593c-.072 6.914-.125 13.828-.158 20.742v4.225c0 .195.368.195.36 0-.209-7.386.044-14.797.116-22.177v-2.79c0-.084-.08-.152-.18-.152-.1 0-.18.068-.18.152h.042zM63.085 106.99c-.073 6.917-.125 13.833-.16 20.746v4.219c0 .194.369.2.362 0-.21-7.38.05-14.79.115-22.175v-2.79c0-.084-.08-.152-.18-.152-.1 0-.18.068-.18.151h.043zM45.304 84.535c2.135 2.885 3.78 6.098 4.869 9.513 1.235 3.669 2.213 7.418 2.927 11.22.61 2.747 1.058 5.527 1.345 8.325l.227 2.777c.101 1.248 0 2.509 0 3.757-.172 8.285-.387 16.57-.646 24.855-.239 7.504-.597 15.007-.782 22.511 0 1.296.095 3.211-1.034 4.133-.956.779-2.431.368-3.584.654-1.757.446-2.277 2.348-3.734 3.228-1.458.88-3.107 1.148-4.344 2.379-.122.13-.157.318-.088.482.068.164.226.273.405.279 2.39.119 4.732.244 7.103.35 2.008.09 3.973 0 5.748-1.046.138-.08.224-.227.224-.386 0-.16-.085-.307-.224-.387-.139-.08-.31-.08-.448 0-1.793 1.053-3.8 1-5.82.904l-6.571-.327.316.761c1.195-1.19 2.784-1.421 4.182-2.253.591-.362 1.112-.828 1.536-1.374.597-.737 1.027-1.522 1.99-1.784 1.057-.273 2.192 0 3.226-.44 1.036-.512 1.73-1.523 1.834-2.67.167-1.32.233-2.652.197-3.983 0-1.653.113-3.306.185-4.965.185-4.234.329-8.473.472-12.707.287-8.52.538-17.041.699-25.568.114-2.683.09-5.37-.072-8.05-.21-2.416-.543-4.82-.997-7.201-.749-4.43-1.815-8.802-3.19-13.081-1.255-3.734-2.862-7.433-5.318-10.548-.352-.452-.986.184-.633.63v.012zM47.667 80.982c1.353 3.252 2.993 6.369 4.899 9.31.831 1.26 1.726 2.473 2.68 3.635.451.557.925 1.102 1.411 1.63.363.393.831 1.102 1.387 1.168.556.067.802-.448.89-.939.125-.874.197-1.756.217-2.64.08-1.953.048-3.91-.094-5.858-.285-3.721-.763-7.424-1.434-11.092-.726-4.172-1.662-8.303-2.804-12.375-.08-.221-.309-.342-.529-.28-.22.064-.356.29-.314.522 1.87 6.64 3.19 13.433 3.945 20.305.416 3.442.498 6.918.246 10.377 0 .175-.029.932-.129.969-.099.036-.526-.551-.585-.636-.491-.521-.96-1.06-1.416-1.618-.936-1.13-1.812-2.313-2.623-3.543-1.937-2.97-3.601-6.122-4.969-9.414-.228-.533-.983-.072-.76.46l-.018.019zM58.488 63.395c1.048 7.908.82 15.952 2.248 23.813.314 1.785.75 3.546 1.305 5.27.228.707.977 3.565 2.218 2.62.539-.404.586-1.396.691-1.99.207-1.022.402-2.046.585-3.072.37-1.96.72-3.933 1.048-5.906.78-4.496 1.444-9.011 1.99-13.546.077-.565-.807-.559-.878 0-.932 7.375-2.115 14.703-3.547 21.983-.048.457-.138.909-.27 1.349-.216.528-.391-.036-.526-.363-.315-.79-.586-1.597-.814-2.418-.465-1.638-.834-3.302-1.106-4.985-.542-3.533-.904-7.093-1.083-10.665-.263-4.123-.48-8.252-1.024-12.346-.076-.594-.92-.327-.849.232l.012.024zM71.075 69.616c-1.057 5.568-1.845 11.178-2.366 16.83-.138 1.54-.6 5.019 1.724 5.224 2.323.205 3.434-3.545 4.143-5.139l4.065-9.058c.234-.532-.54-.99-.78-.46l-3.94 8.8c-.52 1.396-1.183 2.734-1.981 3.991-.42.568-1.201 1.365-1.91.755-.546-.471-.558-1.407-.558-2.071.052-1.52.182-3.036.39-4.542.168-1.624.366-3.248.6-4.867.4-3.084.901-6.155 1.502-9.215.108-.568-.757-.81-.871-.236l-.018-.012z" transform="translate(-438 -3593) translate(0 3321) translate(80 104) translate(0 136) translate(327) translate(32 32) translate(4.331)"/>
                                    <path fill="#231F20" d="M79.604 81.166c-1.782 4.993-3.559 10.04-4.853 15.2-1.17 5.094-1.967 10.273-2.384 15.492-.441 4.487-.945 8.997-1.146 13.508-.103 2.508-.109 5.023-.103 7.531 0 6.441.189 12.877.395 19.312.153 4.89.335 9.783.545 14.681 0 .513.04 1.031.063 1.55-.017.442.204.857.573 1.078 1.323 1.013 3.168.971 4.377 2.151.802.78.94 1.907 1.57 2.789.573.768 1.513.965 2.292 1.412 1.046.64 1.991 1.443 2.802 2.383l.418-.745c-1.083-.399-2.109.131-3.02.74-1.025.678-2.183 1.787-3.472 1.19-1.289-.595-2.137-1.715-3.58-1.638-1.445.078-2.866 1.228-4.16.233-.447-.34-.877.435-.436.774 1.186.918 2.464.405 3.753.048.73-.252 1.53-.172 2.2.22.634.438 1.292.836 1.971 1.192 1.106.47 2.149.054 3.117-.596s2.16-1.787 3.404-1.352c.424.155.693-.447.418-.751-.765-.863-1.63-1.622-2.579-2.258-.825-.543-2.097-.787-2.59-1.71-.492-.924-.738-1.86-1.483-2.598-.561-.522-1.224-.912-1.943-1.144-.745-.213-1.47-.496-2.166-.846-.097-.06-.75-.555-.573-.233v-.083c-.051-.365-.068-.734-.051-1.103-.191-4.472-.361-8.95-.51-13.43-.212-6.381-.39-12.763-.447-19.15 0-2.688 0-5.363.04-8.056.092-3.623.441-7.228.78-10.833.4-5.356 1.06-10.688 1.976-15.974.991-5.143 2.653-10.13 4.338-15.034.424-1.245.859-2.49 1.3-3.724.19-.542-.642-.774-.83-.238l-.006.012z" transform="translate(-438 -3593) translate(0 3321) translate(80 104) translate(0 136) translate(327) translate(32 32) translate(4.331)"/>
                                    <path fill="#FFF" d="M126.655 189.6c-.485-.187-.988-.338-1.468-.536-.791-.42-1.618-.767-2.469-1.036-.22-.074-.42-.2-.585-.367h.1c-.227-.757-.601-1.457-1.1-2.06-.502-.6-1.212-.975-1.978-1.047-4.516-.301-5.973-5.304-6.342-12.294 0 0-1.51-2.62-11.25-2.62-9.741 0-11.245 2.59-11.245 2.59-.123 4.214-.205 6.34-.28 6.689-.282 1.282-.913 2.474-1.042 3.787.001.63-.075 1.256-.228 1.866-.428.912-1.26 1.554-2.23 1.722-.935.235-1.912.223-2.854.446-1.301.31-2.472 1.04-3.34 2.083-.348.509-.762.967-1.23 1.36-.759.4-1.605.592-2.457.56-1.536.12-3.044.488-4.47 1.09.76.763 1.824 1.115 2.873.951 1.036-.084 2.054-.409 3.095-.451.587-.008 1.174.032 1.755.12 2.51.343 5.034.544 7.565.602-.083.272-.192.535-.328.783-.353.54-.806 1.002-1.334 1.36l-3.294 2.596 5.681-.38c.671.011 1.334-.154 1.925-.481.464-.42.892-.88 1.281-1.373 1.083-1.06 2.692-1.204 4.096-1.577.478-.117.932-.32 1.34-.602 2.562 1.703 6.5 2.841 9.495 2.312.62-.156 1.257-.235 1.895-.235.803.136 1.588.366 2.34.686 1.637.515 3.398.419 4.973-.27-1.234-.17-2.384-.739-3.282-1.626-.503-.506-.924-1.102-1.45-1.584-.326-.284-.674-.538-1.042-.759 1.966-.072 3.996-.156 4.75-.168 1.19-.078 2.386.028 3.546.313.86.355 1.742.654 2.638.897 2.34.385 9.233-1.126 9.233-1.126-.92-.983-2.042-1.742-3.283-2.222z" transform="translate(-438 -3593) translate(0 3321) translate(80 104) translate(0 136) translate(327) translate(32 32) translate(4.331)"/>
                                    <path fill="#231F20" d="M90.076 171.529c.068 1.619-.066 3.24-.4 4.825-.35 1.039-.632 2.1-.843 3.176-.157 1.093.058 2.31-.807 3.152-.866.842-2.016.883-3.09 1.03-1.942.16-3.712 1.18-4.834 2.783-.254.398-.544.772-.865 1.117-.512.416-1.15.645-1.807.65-.967.073-1.915.314-2.8.713-1.005.462-1.952 1.035-2.95 1.503-.402.193-.187.819.22.819h15.626c.24 0 .436-.197.436-.439s-.195-.438-.436-.438H71.9l.22.818c.93-.438 1.813-.97 2.742-1.403.944-.413 1.95-.662 2.975-.737.948-.078 1.82-.553 2.405-1.31.617-.945 1.405-1.764 2.323-2.416 1.836-1.11 4.258-.497 5.925-1.936.7-.64 1.103-1.545 1.116-2.497.078-1.192.299-2.37.656-3.509.513-1.925.744-3.915.685-5.907 0-.242-.195-.439-.435-.439s-.436.197-.436.439v.006z" transform="translate(-438 -3593) translate(0 3321) translate(80 104) translate(0 136) translate(327) translate(32 32) translate(4.331)"/>
                                    <path fill="#231F20" d="M92.904 181.501c-.366.997-.838 1.953-1.408 2.853-.318.517-.688.935-.965 1.481-.235.555-.502 1.096-.801 1.62-.43.628-1.284.832-1.82 1.36-.496.583-.835 1.28-.983 2.028-.278.895-.84 1.679-1.601 2.236-1.308 1.034-3.033 1.371-4.34 2.417-.312.25-.035.732.312.744 2.442.163 4.892.145 7.33-.053.88-.063 1.692-.484 2.244-1.161.73-.883 1.296-1.563 2.426-1.947 1.796-.58 3.792-.65 4.787-2.503 1.178-2.225.73-4.898.719-7.309 0-.24-.198-.436-.442-.436s-.441.196-.441.436c0 1.389.147 2.783.064 4.171-.082 1.389-.394 3.01-1.619 3.77-.972.582-2.232.669-3.303 1.029-.988.313-1.853.923-2.473 1.743-.342.576-.877 1.016-1.514 1.243-.5.11-1.012.164-1.525.163-.842.035-1.678.035-2.52.035-1.242 0-2.49-.03-3.733-.064l.312.743c1.33-1.063 3.11-1.382 4.422-2.486.69-.526 1.23-1.221 1.566-2.016.348-.9.424-1.865 1.29-2.452.62-.306 1.168-.737 1.607-1.266.33-.523.548-1.162.837-1.696.288-.535.73-1.04 1.042-1.61.539-.912 1.001-1.866 1.384-2.852.188-.529-.666-.761-.854-.232v.011z" transform="translate(-438 -3593) translate(0 3321) translate(80 104) translate(0 136) translate(327) translate(32 32) translate(4.331)"/>
                                    <path fill="#231F20" d="M104.948 183.91c.464 1.445 1.174 2.796 2.098 3.992 1 1.204 2.37 1.848 3.554 2.805 1.185.957 1.86 2.264 3.052 3.16 1.01.832 2.193 1.418 3.46 1.717l.118-.891c-1.066.054-2.139.054-3.205 0-.748-.01-1.493-.087-2.228-.23-.906-.198-1.712-.722-2.63-.878-1.06-.187-2.074.229-3.123.331-.99.076-1.988.014-2.962-.187-2.055-.41-4.001-1.257-5.711-2.486-.462-.337-.907.446-.445.777 1.71 1.231 3.65 2.092 5.7 2.528.914.209 1.848.31 2.784.301 1.126 0 2.281-.512 3.395-.41.996.097 1.855.711 2.826.91.73.137 1.469.217 2.21.24 1.126.055 2.263.049 3.389 0 .468 0 .634-.794.118-.884-1.157-.268-2.24-.802-3.163-1.56-1.15-.848-1.807-2.149-2.903-3.046-1.096-.897-2.37-1.445-3.324-2.498-.98-1.15-1.72-2.489-2.174-3.938-.19-.541-1.049-.307-.853.241l.017.006zM103.95 176.284c.115 1.606.33 3.206.531 4.794.024.195.212.116.189-.079-.197-1.558-.393-3.133-.523-4.715 0-.195-.212-.195-.196 0zM112.616 171.526c-.018 1.166.036 2.332.162 3.492.112 1.261.372 2.506.773 3.71.426 1.095 1.487 1.725 2.315 2.525.827.801 1.66 1.467 2.794 1.372.6-.053.6-.936 0-.883-1.032.089-1.8-.748-2.447-1.401-.335-.324-.69-.589-1.049-.89-.494-.42-.828-.993-.947-1.625-.485-2.065-.72-4.18-.702-6.3 0-.244-.201-.442-.45-.442-.248 0-.45.198-.45.442z" transform="translate(-438 -3593) translate(0 3321) translate(80 104) translate(0 136) translate(327) translate(32 32) translate(4.331)"/>
                                    <path fill="#231F20" d="M115.44 183.895c.691-.444 1.412-.842 2.156-1.19.699-.322 1.54-.75 2.33-.637 1.492.208 2.239 1.886 2.627 3.142.173.547 1.033.315.866-.238-.484-1.553-1.391-3.356-3.141-3.743-.897-.12-1.809.046-2.604.476-.936.395-1.835.871-2.688 1.422-.484.31-.036 1.083.454.768z" transform="translate(-438 -3593) translate(0 3321) translate(80 104) translate(0 136) translate(327) translate(32 32) translate(4.331)"/>
                                    <path fill="#231F20" d="M110.15 190.73c2.206-.035 4.453-.176 6.653-.047 1.324.071 2.368.59 3.582 1.055.397.163.82.253 1.249.265 2.299.035 4.597 0 6.89 0h2.428c.174-.005.329-.114.396-.276.066-.163.032-.35-.087-.478-.706-.854-1.342-1.768-2.1-2.58-.745-.776-1.664-1.358-2.679-1.698-1.167-.46-2.194-1.331-3.454-1.431-.959-.117-1.897.344-2.398 1.178-.122.212-.052.483.158.607s.478.052.6-.16c.584-1.024 1.786-.854 2.702-.423.916.43 1.914.93 2.917 1.343 1.588.666 2.591 2.48 3.647 3.765l.31-.754h-9.074c-1.476 0-2.73-1.02-4.195-1.232-1.242-.126-2.493-.156-3.74-.088-1.266 0-2.526 0-3.792.047-.242 0-.438.198-.438.442s.196.442.438.442l-.012.023zM90.265 171.41c.625 1.688 2.7 2.164 4.233 2.526 1.387.325 2.796.54 4.215.642 2.543.186 5.097.148 7.633-.113 1.972-.184 4.28-.451 5.98-1.593.809-.54 1.48-1.54.577-2.342-1.104-.969-2.972-1.32-4.36-1.587-4.938-.951-10.27-1.094-15.173.166-.757.197-3.527.91-3.088 2.3.174.548 1.007.316.839-.237v.042s.052-.113.064-.125c.479-.445 1.06-.758 1.688-.91 1.683-.49 3.412-.794 5.158-.91 2.653-.228 5.323-.162 7.962.197 1.6.166 3.18.493 4.719.975.399.137 1.561.416 1.735.88.104.261-.185.499-.382.66-1.301 1.052-3.342 1.313-4.927 1.51-2.302.276-4.622.37-6.939.279-1.615-.043-3.225-.225-4.81-.547-.457-.095-.903-.202-1.348-.321-.96-.244-2.527-.654-2.926-1.73-.196-.529-1.052-.315-.85.238z" transform="translate(-438 -3593) translate(0 3321) translate(80 104) translate(0 136) translate(327) translate(32 32) translate(4.331)"/>
                                    <path fill="#231F20" d="M91.722 170.594c1.389 1.248 3.05 2.157 4.854 2.656.068.005.13-.038.15-.104.019-.066-.012-.135-.073-.167-1.758-.48-3.378-1.363-4.731-2.578-.133-.121-.333.072-.2.193zM93.188 170.59c1.755 1.04 3.609 1.927 5.538 2.65.17.064.243-.196.079-.254-1.907-.707-3.74-1.579-5.476-2.603-.153-.09-.294.138-.141.228v-.021zM96.055 170.612c1.207 1.162 2.605 2.055 4.118 2.63.168.06.238-.228.076-.288-1.472-.556-2.831-1.423-4.004-2.553-.13-.126-.325.084-.19.21zM97.518 169.942c1.55 1.179 3.143 2.274 4.782 3.286.155.103.294-.18.138-.277-1.634-1.007-3.228-2.102-4.782-3.285-.15-.11-.288.167-.138.276zM99.658 169.876c1.355 1.46 3.01 2.607 4.85 3.363.162.068.235-.202.073-.269-1.792-.743-3.404-1.863-4.728-3.285-.123-.134-.318.067-.195.196v-.005zM101.127 169.2c1.756 1.247 3.594 2.354 5.5 3.314.161.077.3-.18.139-.257-1.905-.96-3.743-2.068-5.5-3.313-.15-.107-.289.15-.14.257zM103.307 169.189l.21-.201-.056-.03-.111.248s.21.172.24.2l.273.19.692.47c.445.294.903.575 1.372.85.47.276.903.517 1.372.752l.742.374c.255.089.482.234.661.424.118.15.39 0 .272-.149-.349-.333-.77-.593-1.236-.763-.538-.27-1.07-.574-1.588-.861-.52-.287-1.008-.575-1.496-.93-.247-.161-.488-.328-.73-.5-.141-.097-.352-.339-.55-.344-.06.003-.112.038-.135.09-.022.05-.01.11.03.15.037.03.076.058.118.081.062.035.141.026.192-.022.05-.048.058-.122.018-.179l-.05-.051c-.148-.115-.37.086-.216.206l-.024-.005zM106.905 169.92c1.313.923 2.662 1.786 4.045 2.589.046.026.101.026.147-.001.045-.027.072-.076.072-.129 0-.053-.029-.101-.074-.127-1.393-.795-2.746-1.66-4.046-2.584-.156-.111-.3.146-.144.251zM109.025 179.916c.38 1.109.814 2.2 1.299 3.275.183.453.439.88.76 1.268.384.391.82.739 1.299 1.035.162.11.325-.14.162-.25-.457-.28-.872-.613-1.234-.989-.348-.438-.622-.92-.812-1.43-.442-.978-.831-1.979-1.182-2.985-.03-.07-.114-.108-.194-.088-.08.02-.131.09-.118.164h.02zM94.876 178.943c.211-.642.349-1.298.411-1.96 0-.165-.302-.165-.32 0-.066.639-.199 1.272-.4 1.893-.012.065.038.127.117.145.08.017.163-.017.192-.078z" transform="translate(-438 -3593) translate(0 3321) translate(80 104) translate(0 136) translate(327) translate(32 32) translate(4.331)"/>
                                    <path fill="#D4DAFF" d="M175.743 168.506c-.486-.192-.989-.342-1.469-.545-.79-.43-1.616-.786-2.468-1.066-.222-.071-.423-.197-.586-.366h.1c-.225-.77-.599-1.488-1.1-2.107-.498-.608-1.207-.992-1.977-1.072-8.67-.6-6.062-26.888-6.167-28.535-.117-1.928-11.748-3.802-14.883-3.371-6.962.958-7.378 3.88-7.378 3.88 0 .886-.503 21.409-.69 22.265-.281 1.311-.913 2.533-1.042 3.868.002.644-.075 1.286-.228 1.91-.418.924-1.25 1.58-2.229 1.761-.936.24-1.913.228-2.855.455-1.309.32-2.48 1.066-3.34 2.126-.347.521-.763.99-1.235 1.395-.754.407-1.6.603-2.451.57-1.539.123-3.048.5-4.47 1.113.749.778 1.818 1.14 2.873.97 1.035-.084 2.053-.413 3.094-.455.588-.01 1.175.028 1.756.114 2.508.349 5.034.549 7.564.599-.081.278-.19.547-.327.802-.352.55-.805 1.024-1.334 1.396l-3.294 2.646 5.68-.389c.672.013 1.334-.157 1.92-.49.468-.428.9-.897 1.287-1.402 1.076-1.084 2.685-1.198 4.095-1.611.479-.114.933-.317 1.34-.599 2.562 1.743 6.494 2.904 9.495 2.36.62-.156 1.257-.234 1.896-.234.804.139 1.59.374 2.34.7 1.636.526 3.403.426 4.973-.28-1.242-.173-2.394-.755-3.282-1.66-.503-.515-.925-1.125-1.451-1.616-.322-.292-.67-.551-1.042-.773 1.96-.078 3.996-.162 4.751-.174 1.19-.08 2.386.027 3.545.318.86.36 1.742.666 2.639.916 2.34.395 9.232-1.15 9.232-1.15-.914-.999-2.036-1.774-3.282-2.27z" transform="translate(-438 -3593) translate(0 3321) translate(80 104) translate(0 136) translate(327) translate(32 32) translate(4.331)"/>
                                    <path fill="#231F20" d="M138.439 133.296c.035 4.516.048 9.036.04 13.56 0 1.51 0 3.019-.029 4.535 0 .752 0 1.504-.058 2.256-.103 1.173-.343 2.329-.714 3.443-.282.856-.463 1.744-.54 2.644-.088 1.241-.146 2.315-1.308 2.984-.883.513-1.929.525-2.905.68-.896.127-1.756.444-2.527.93-.835.562-1.555 1.286-2.12 2.131-.309.562-.774 1.016-1.337 1.301-.486.157-.99.243-1.499.257-1.987.179-3.631 1.384-5.397 2.238-.401.19-.186.83.22.83h15.63c.24 0 .435-.201.435-.448s-.195-.448-.436-.448h-15.628l.22.836c1.708-.818 3.265-1.964 5.189-2.13.856-.003 1.69-.278 2.387-.789.715-.596 1.116-1.527 1.778-2.196.736-.75 1.659-1.279 2.667-1.527 1.028-.245 2.115-.21 3.114-.597.714-.256 1.336-.729 1.784-1.355.58-.817.54-1.79.58-2.721.14-1.116.397-2.212.768-3.27.29-1.002.458-2.036.5-3.08.075-1.57.057-3.145.069-4.714v-9.609c0-1.921-.01-3.843-.03-5.764 0-.248-.194-.448-.435-.448-.24 0-.436.2-.436.448l.018.023zM147.83 158.667c0-5.673.202-11.37-.115-17.038 0-.186-.376-.192-.361 0 .317 5.668.151 11.365.115 17.038 0 .08.081.145.18.145.1 0 .181-.065.181-.145z" transform="translate(-438 -3593) translate(0 3321) translate(80 104) translate(0 136) translate(327) translate(32 32) translate(4.331)"/>
                                    <path fill="#231F20" d="M141.991 161.286c-.368.996-.84 1.952-1.407 2.853-.318.517-.689.936-.966 1.482-.235.555-.502 1.096-.8 1.62-.436.628-1.284.832-1.82 1.36-.495.585-.833 1.282-.983 2.028-.277.897-.838 1.68-1.602 2.237-1.307 1.035-3.032 1.372-4.34 2.418-.312.255-.035.737.313.743 2.441.163 4.891.146 7.33-.052.88-.064 1.691-.485 2.244-1.162.73-.878 1.295-1.563 2.426-1.947 1.796-.58 3.792-.65 4.787-2.498 1.178-2.231.73-4.904.718-7.315 0-.241-.197-.436-.441-.436s-.442.195-.442.436c0 1.388.147 2.783.059 4.171-.088 1.39-.389 3.01-1.613 3.771-.972.581-2.232.669-3.304 1.029-.987.315-1.85.924-2.473 1.743-.345.574-.879 1.013-1.513 1.243-.503.11-1.016.165-1.531.163-.836.035-1.678.035-2.514.035-1.243 0-2.491-.03-3.733-.064l.312.744c1.33-1.064 3.109-1.383 4.422-2.487.69-.527 1.23-1.222 1.566-2.016.347-.9.424-1.865 1.29-2.452.617-.305 1.163-.735 1.601-1.261.336-.529.554-1.162.842-1.697.289-.534.73-1.046 1.042-1.61.54-.914 1.002-1.87 1.384-2.858.188-.529-.665-.755-.854-.232v.011zM143.151 146.666c.082 1.323.116 2.641.13 3.976.102 2.187-.014 4.378-.347 6.55-.034.176.292.255.326.073.337-2.152.458-4.323.36-6.492 0-1.364-.047-2.733-.129-4.096 0-.182-.347-.182-.34 0v-.011z" transform="translate(-438 -3593) translate(0 3321) translate(80 104) translate(0 136) translate(327) translate(32 32) translate(4.331)"/>
                                    <path fill="#231F20" d="M151.546 154.915c.143 2.543.56 5.064 1.244 7.521.455 2.018 1.357 3.913 2.642 5.555.69.766 1.502 1.419 2.405 1.932.598.334 1.156.732 1.664 1.186.407.427.791.875 1.15 1.342 1.246 1.46 2.952 2.477 4.851 2.893l.09-.822c-1.061.047-2.133.053-3.2 0-.747-.012-1.492-.085-2.227-.22-.906-.196-1.712-.694-2.63-.85-1.06-.173-2.074.226-3.122.318-.991.077-1.988.016-2.962-.179-2.056-.392-4.002-1.206-5.711-2.39-.468-.323-.912.429-.444.753 1.71 1.177 3.646 2.004 5.693 2.43.914.195 1.848.29 2.784.283 1.131 0 2.287-.492 3.4-.388.996.087 1.855.677 2.826.874.73.133 1.468.208 2.21.226 1.125.052 2.257.046 3.382 0 .474 0 .64-.77.119-.857-1.834-.416-3.464-1.438-4.615-2.892-.673-.868-1.492-1.617-2.423-2.216-.924-.51-1.767-1.149-2.5-1.898-1.362-1.516-2.067-3.512-2.577-5.433-.648-2.342-1.045-4.745-1.185-7.168 0-.578-.912-.578-.888 0h.024zM151.803 143.795c0 2.552-.02 5.105-.058 7.657 0 .078.081.142.18.142.1 0 .181-.064.181-.142 0-2.549.02-5.1.058-7.657 0-.078-.08-.142-.18-.142-.1 0-.18.064-.18.142zM158.154 141.634c0 5.042-.143 10.108 0 15.15.02.886.099 1.769.234 2.644.12.717.262 1.84.929 2.25.068.043.156.02.197-.05.04-.069.019-.16-.049-.202-.65-.4-.747-1.687-.844-2.35-.108-.78-.17-1.564-.188-2.351V141.634c0-.08-.063-.146-.142-.146-.079 0-.143.065-.143.146h.006zM161.007 133.994c.042 5.804-.113 11.613.042 17.417.029 1.422.132 2.842.31 4.253.156 1.193.27 2.618 1.01 3.614.334.378.708.718 1.117 1.014.37.323.692.692 1.05 1.02.636.706 1.541 1.109 2.491 1.11.597-.042.597-.937 0-.895-1.021.072-1.738-.722-2.389-1.384-.788-.781-1.672-1.288-1.983-2.433-.698-2.571-.692-5.368-.722-8.01-.054-5.238.03-10.475 0-15.706 0-.247-.2-.447-.448-.447s-.448.2-.448.447h-.03z" transform="translate(-438 -3593) translate(0 3321) translate(80 104) translate(0 136) translate(327) translate(32 32) translate(4.331)"/>
                                    <path fill="#231F20" d="M163.806 164.404c.69-.444 1.411-.842 2.156-1.19.698-.321 1.54-.75 2.329-.637 1.493.208 2.24 1.887 2.628 3.142.167.548 1.033.316.866-.238-.484-1.553-1.392-3.35-3.142-3.743-.896-.12-1.808.046-2.604.476-.934.398-1.833.874-2.687 1.422-.484.31-.036 1.083.454.768z" transform="translate(-438 -3593) translate(0 3321) translate(80 104) translate(0 136) translate(327) translate(32 32) translate(4.331)"/>
                                    <path fill="#231F20" d="M158.517 170.515c2.2-.035 4.452-.176 6.652-.047 1.319.077 2.363.589 3.577 1.054.399.166.824.257 1.254.271 2.294.03 4.593 0 6.892 0h2.422c.175-.006.33-.115.398-.278.068-.163.035-.351-.083-.482-.706-.853-1.342-1.766-2.101-2.573-.742-.779-1.662-1.363-2.678-1.702-1.167-.453-2.195-1.325-3.455-1.43-.96-.117-1.897.344-2.398 1.177-.123.211-.052.483.157.606.21.124.479.053.601-.159.584-1.024 1.786-.848 2.702-.424.916.424 1.914.93 2.918 1.343 1.587.666 2.585 2.485 3.641 3.77l.31-.755H170.256c-1.476 0-2.73-1.024-4.195-1.236-1.243-.124-2.494-.154-3.74-.089l-3.794.047c-.241 0-.437.198-.437.442s.196.442.437.442l-.011.023zM138.631 133.872c.625 1.689 2.695 2.164 4.228 2.527 1.39.324 2.8.538 4.222.642 2.543.185 5.097.147 7.634-.113 1.972-.184 4.273-.452 5.98-1.593.803-.541 1.474-1.534.578-2.342-1.11-.97-2.973-1.32-4.36-1.588-4.945-.95-10.272-1.093-15.176.167-.758.196-3.528.91-3.088 2.3.167.547 1.006.315.832-.231.002.011.002.023 0 .035 0 0 .052-.113.064-.125.48-.444 1.06-.757 1.689-.91 1.683-.489 3.412-.794 5.158-.909 2.654-.229 5.324-.163 7.964.197 1.6.17 3.18.496 4.72.974.398.137 1.555.417 1.734.88.104.262-.185.5-.382.66-1.307 1.052-3.342 1.314-4.927 1.51-2.303.277-4.623.37-6.94.28-1.618-.043-3.23-.226-4.817-.548-.451-.095-.897-.202-1.348-.32-.96-.244-2.521-.654-2.926-1.724-.203-.535-1.041-.304-.839.231z" transform="translate(-438 -3593) translate(0 3321) translate(80 104) translate(0 136) translate(327) translate(32 32) translate(4.331)"/>
                                    <path fill="#231F20" d="M140.81 133.06c1.385 1.25 3.045 2.158 4.848 2.65.07.012.137-.031.156-.1.018-.068-.018-.139-.084-.164-1.757-.48-3.376-1.366-4.726-2.585-.133-.116-.327.077-.194.199zM143 133.052c1.753 1.044 3.607 1.931 5.536 2.65.17.064.244-.19.074-.254-1.905-.706-3.736-1.577-5.468-2.602-.158-.09-.3.137-.141.233v-.027zM145.14 132.358c1.208 1.163 2.609 2.054 4.125 2.623.163.066.234-.222.07-.288-1.47-.556-2.831-1.422-4.004-2.551-.13-.126-.32.084-.19.216zM147.327 132.407c1.552 1.179 3.146 2.274 4.78 3.285.155.097.299-.18.138-.276-1.63-1.016-3.223-2.111-4.78-3.286-.15-.115-.288.168-.138.277zM148.745 131.62c1.356 1.456 3.009 2.603 4.847 3.36.167.067.24-.202.072-.269-1.79-.742-3.4-1.864-4.718-3.288-.128-.129-.324.067-.2.202v-.006zM150.215 131.663c1.757 1.244 3.595 2.35 5.5 3.311.16.084.3-.173.138-.256-1.904-.961-3.742-2.068-5.5-3.311-.15-.107-.288.15-.138.256zM152.652 130.913c.178.164.375.308.588.427.211.162.43.318.647.468.423.295.858.578 1.294.85.435.271.882.531 1.335.774l.706.37c.225.088.426.227.588.404.112.15.364 0 .253-.144-.242-.258-.542-.456-.877-.578-.382-.196-.758-.404-1.135-.618-.776-.445-1.535-.936-2.264-1.456-.194-.133-.383-.272-.588-.41-.127-.128-.272-.237-.43-.324-.147-.047-.308.008-.394.134-.087.127-.077.294.022.41.1.116.266.154.407.091.094-.063.154-.164.166-.275.011-.111-.028-.222-.107-.302-.13-.139-.335.063-.211.202v-.023zM155.989 131.659c1.315.934 2.67 1.8 4.062 2.597.068.03.148.005.186-.06.037-.065.02-.148-.04-.192-1.4-.804-2.757-1.665-4.063-2.597-.151-.106-.296.146-.145.252z" transform="translate(-438 -3593) translate(0 3321) translate(80 104) translate(0 136) translate(327) translate(32 32) translate(4.331)"/>
                                    <path fill="#FFF" d="M125.124 62.682c-2.4.369-4.527 1.752-5.837 3.797-.532.79-.842 1.708-.899 2.66-.046 2.204 1.88 4.082 4.01 4.665 2.131.583 4.402.152 6.538-.408.545-.184 1.119-.263 1.693-.233 1.091.128 1.909 1.02 2.89 1.522 1.064.484 2.278.519 3.369.098 1.09-.422 1.965-1.264 2.427-2.338 2.264 1.132 5.393.508 6.7-1.656 1.308-2.164.053-5.535-2.44-5.961-.799-.14-1.674 0-2.38-.402-.707-.403-1.046-1.208-1.542-1.844-.891-1.113-2.287-1.697-3.706-1.551-.425.104-.866.117-1.296.04-.278-.107-.53-.272-.742-.483-1.103-.951-2.194-1.977-3.549-2.514-1.354-.537-3.076-.455-4.086.612-.899.969-1.15 3.996-1.15 3.996z" transform="translate(-438 -3593) translate(0 3321) translate(80 104) translate(0 136) translate(327) translate(32 32) translate(4.331)"/>
                                    <path fill="#231F20" d="M124.256 62.2c-2.544.396-4.808 1.819-6.251 3.93-1.45 2.13-1.497 4.683.372 6.569 1.869 1.885 4.773 2.254 7.399 1.867.763-.117 1.514-.28 2.265-.468.875-.217 1.774-.521 2.65-.193 1.182.433 2.004 1.428 3.228 1.756 2.35.558 4.764-.645 5.713-2.845l-.432.175c2.325 1.095 5.435.738 7.097-1.311 1.41-1.853 1.26-4.444-.355-6.124-.934-.955-2.016-1.095-3.288-1.206-1.153-.1-1.68-.586-2.289-1.493-.386-.635-.9-1.184-1.508-1.616-.577-.382-1.23-.636-1.916-.744-.318-.05-.642-.066-.964-.047-.498.115-1.013.136-1.52.065-.792-.252-1.496-1.171-2.14-1.686-.643-.53-1.35-.977-2.106-1.33-1.354-.585-3.087-.72-4.359.147-1.454.978-1.502 2.869-2.436 4.21-.213.316.296.585.509.298.78-1.118.875-2.64 1.815-3.648.94-1.007 2.644-1.071 3.921-.585 1.449.533 2.567 1.634 3.726 2.6.383.385.897.617 1.443.65.72-.085 1.447-.103 2.17-.053.716.14 1.383.463 1.934.937.51.538.964 1.127 1.355 1.756.786 1.019 1.744 1.112 2.957 1.206 2.442.193 3.926 2.723 3.294 5.006-.81 2.927-4.613 3.671-7.097 2.512-.08-.043-.174-.048-.258-.014-.084.034-.147.104-.174.19-.886 1.954-3.087 2.969-5.169 2.382-1.035-.316-1.774-1.17-2.78-1.575-1.005-.404-2.04-.222-3.104.047-2.514.638-5.43 1.142-7.824-.17-2.396-1.311-3.383-3.764-2.112-6.182 1.303-2.365 3.65-3.988 6.34-4.386.373-.058.213-.62-.16-.585l.054-.041z" transform="translate(-438 -3593) translate(0 3321) translate(80 104) translate(0 136) translate(327) translate(32 32) translate(4.331)"/>
                                </g>
                            </g>
                        </g>
                    </g>
                </g>
            </g>
        </g>
    </g>
</svg>
