<svg xmlns="http://www.w3.org/2000/svg" width="231" height="231" viewBox="0 0 231 231">
    <g fill="none" fill-rule="evenodd">
        <g fill-rule="nonzero">
            <g>
                <g>
                    <g>
                        <g>
                            <g>
                                <g>
                                    <g fill="#7786FF" opacity=".1">
                                        <path d="M123.065 7.72c5.237 2.599 23.813 13.907 28.589 14.006 19.436.402 37.916 20.74 52.346 42.705 5.03 7.656 9.891 15.832 12.904 25.246 3.072 9.593 4.042 19.979 3.99 29.962-.118 22.448-5.342 43.746-14.682 59.88-5.212 9.012-11.879 16.563-20.11 19.076-6.09 1.857-12.672.854-19.042 1.139-11.515.514-22.297 5.205-33.267 8.745-23.152 7.477-44.85 13.617-70.911 6.109-74.147-21.297-65.244-119.1-58.577-131.954 8.121-15.677 20.285-44.94 32.891-52.8 5.97-3.72 35.48-47.113 85.87-22.115z" transform="translate(-1095 -3593) translate(0 3321) translate(80 104) translate(0 136) translate(983) translate(32 32) translate(4.331 6.497)"/>
                                    </g>
                                    <path fill="#D7DFFF" d="M213.931 19.094L214.141 19.166 214.141 19.115z" transform="translate(-1095 -3593) translate(0 3321) translate(80 104) translate(0 136) translate(983) translate(32 32) translate(4.331 6.497)"/>
                                    <path fill="#FFF" d="M36.514 209.947c2.47-24.163 3.768-48.474 3.88-72.786 0-3.451 0-6.987-1.099-10.22-.887-2.62-4.894-7.93-5.867-10.516-1.484-3.956-.769-5.807-.788-10.085l-.12-28.75c0-3.381.047-7.046 1.928-9.73 1.556 0 2.185 2.18 2.364 3.871l2.649 24.963 1.695-35.764c.073-1.445.55-3.355 1.868-3.335 2.331 2.851 2.57 7.032 2.689 10.871l.808 26.454c1.516-6.981 1.192-14.266 1.669-21.434.476-7.168 3.596-21.143 6.258-20.001 2.662 1.142 1.417 26.279-.311 39.273.41-11.536 4.046-34.602 7.728-32.937 3.683 1.664-6.828 27.26-4.457 40.822 2.484-2.368 3.312-6.162 4.444-9.543 1.133-3.38 3.358-6.955 6.623-7.207 1.212 12.904-8.557 23.673-12.398 35.964-2.291 7.33-3.238 17.11-3.37 24.866-.385 23.318-1.822 44.32.483 67.508M107.908 209.188c1.757-34.197 3.076-68.42 3.954-102.669.125-5.045.244-10.096 0-15.128-.422-7.942-2.86-15.316-3.664-23.226-.824-8.07-1.055-16.206-1.285-24.328-.1-3.361-.442-9.09 1.944-9.542 2.386-.452 1.977 5.09 1.898 7.961-.119 6.215.642 12.415 2.26 18.426 1.088-6.045.7-12.297 1.029-18.465.33-6.167 2.524-17.528 5.16-17.128 2.637.4.462 22.625 0 33.928-.237-13 1.694-38.883 5.194-38.064 3.5.82 2.142 26.348-.923 39l3.638-20.852c.66-3.787 3.104-11.4 5.154-9.141 2.05 2.258-.119 22.67-1.41 33.896 5.648-2.013 6.729-12.6 12.568-13.639.976 6.587-1.318 13.226-4.238 19-2.92 5.774-6.439 11.206-8.304 17.522-1.457 4.936-1.819 10.2-2.142 15.393-2.263 35.918-3.372 71.896-3.328 107.934" transform="translate(-1095 -3593) translate(0 3321) translate(80 104) translate(0 136) translate(983) translate(32 32) translate(4.331 6.497)"/>
                                    <path fill="#D4DAFF" d="M148.59 210.066l2.314-31.497c.22-2.993.426-6.064-.425-8.929-1.238-4.148-5.51-7.219-7.824-10.825-5.675-8.84-13.566-28.62-10.645-29.852 6.28 2.058 11.563 7.22 13.925 13.671 1.177-5.264.226-10.761-.034-16.161-.26-5.4 1.63-16.07 3.959-15.193 2.328.877 2.774 18.8 4.158 28.2l.665-22.581c.113-3.871 2.382-11.613 4.318-9.787 1.936 1.826.48 21.71.586 32.567 3.233-1.47 1.43-30.967 4.617-30.058 3.187.91 1.663 20.858 2.495 31.284 1.33-7.69 1.956-22.47 4.071-23.07 2.116-.6 2.11 2.186 2.316 3.8 1.277 9.857 2.495 18.838.711 28.605-.858 4.678-4.577 9.265-5.395 13.949-.858 4.954-.892 10.025-.925 15.064-.066 9.927-.13 19.856-.193 29.787" transform="translate(-1095 -3593) translate(0 3321) translate(80 104) translate(0 136) translate(983) translate(32 32) translate(4.331 6.497)"/>
                                    <path fill="#FFF" d="M198.89 207.75l-2.59-76.93c-.145-1.675-.029-3.361.346-5.002.663-2.366 3.79-3.82 5.21-5.754 5.15-7.002 7.493-16.004 8.058-24.908.564-8.905-.545-17.817-1.646-26.664-.246-1.98-1.328-4.597-3.12-3.992-3.027 8.917 1.832 19.674-2.376 28.013-2.224-3.112-1.48-7.51-.903-11.38.828-5.599 1.07-11.264.724-16.91-.246-3.935-1.494-8.731-5.098-9.503-.463-.137-.966-.077-1.38.168-.664.462-.697 1.459-.664 2.301l.617 19.218c.186 5.787.2 12.107-3.225 16.563 1.875-9.313 2.489-18.824 1.825-28.29-.306-4.372-3.498-13.804-5.635-10.615-2.137 3.189-.604 23.069-.903 34.603 0 0-1.991-12.344-1.918-18.858 0-3.028-1.812-17.649-5.974-13.502-4.161 4.147 2.323 30.168-.51 36.996-2.383-5.954-7.594-17.36-10.361-15.759-2.768 1.601 8.097 24.734 10.62 37.78.889 4.623.816 9.387.716 14.106-.558 26.657-1.878 53.288-3.2 79.913" transform="translate(-1095 -3593) translate(0 3321) translate(80 104) translate(0 136) translate(983) translate(32 32) translate(4.331 6.497)"/>
                                    <path fill="#231F20" d="M34.35 209.193c1.915-16.57 3.214-33.193 3.9-49.866.337-8.24.563-16.487.55-24.734 0-3.669-.279-7.32-1.897-10.686-.822-1.706-1.87-3.296-2.731-4.983-.844-1.674-1.438-3.455-1.764-5.291-.584-3.187-.497-6.438-.55-9.657 0-1.931-.1-3.862-.166-5.794-.166-4.86-.338-9.714-.372-14.575 0-4.255-.066-8.594.584-12.81.09-1.234.44-2.437 1.028-3.535.404-.643.895-.643 1.445 0 .935 1.101 1.273 2.769 1.591 4.12.49 2.242.857 4.507 1.101 6.786.57 4.84.869 9.708 1.326 14.562.086.894.173 1.79.279 2.678 0 .266.222.482.497.482s.497-.216.497-.482c.325-6.135.246-12.296.378-18.444.066-3.219.166-6.49.391-9.727.12-2.549.443-5.084.968-7.584.206-.882.663-3.09 1.718-3.219.144.006.284.05.404.129.18.128.332.287.451.47.41.646.708 1.353.882 2.092.598 2.322.976 4.693 1.127 7.082.272 3.045.411 6.096.497 9.154.166 5.633.106 11.272.22 16.905 0 .457 0 .914.039 1.365.003.239.186.44.43.472.244.032.476-.114.545-.343 1.107-4.539 1.545-9.277 2.208-13.886.888-6.193 1.763-12.4 3.05-18.528.422-2.255 1.011-4.477 1.763-6.65.217-.683.532-1.333.935-1.931.111-.142.235-.274.372-.393.065-.06.157-.085.245-.064.384.096.663.734.782 1.216.256.98.396 1.984.418 2.994.114 3.139.038 6.281-.225 9.412-.511 7.686-1.413 15.347-1.744 23.046 0 .818-.06 1.642-.073 2.466.003.215.152.402.366.459.214.056.44-.03.555-.214.614-1.258 1.045-2.593 1.28-3.966.51-2.163.928-4.339 1.326-6.515.955-4.976 1.824-9.985 3.13-14.89.413-1.826 1.024-3.604 1.823-5.305.233-.52.571-.991.995-1.384.182-.224.516-.264.749-.09.398.264.524.96.59 1.404.1.943.1 1.895 0 2.839-.252 2.934-.695 5.85-1.326 8.729-1.797 8.948-4.064 17.794-5.749 26.761-.051.21.045.429.238.537.193.109.436.081.598-.067.881-.892 1.603-1.921 2.135-3.045.921-1.635 1.757-3.309 2.652-4.963.895-1.655 1.837-3.47 2.904-5.118.776-1.204 1.651-2.575 2.891-3.38.61-.393 1.585-.644 1.916.07.332.715.047 1.932-.152 2.75-.915 3.598-2.652 7.036-4.284 10.377-2.081 4.307-4.276 8.569-6.345 12.875-2.069 4.307-4.058 8.627-5.178 13.23-1.598 6.56-1.691 13.351-1.817 20.06-.133 7.21-.265 14.42-.305 21.636-.086 14.298.192 28.622 1.518 42.875.168 1.798.352 3.59.55 5.375.074.612 1.068.644.995 0-1.637-14.645-2.088-29.387-2.082-44.117 0-7.37.113-14.742.252-22.113.126-7.081 0-14.272 1.366-21.244.988-5.105 3.024-9.843 5.245-14.536 2.102-4.43 4.35-8.781 6.484-13.185 1.678-3.45 3.475-6.984 4.483-10.686.417-1.539 1.027-4.674-1.525-4.719-1.22 0-2.255.914-3.01 1.751-1.171 1.37-2.187 2.856-3.03 4.436-1.85 3.219-3.316 6.714-5.365 9.81-.27.435-.598.834-.974 1.185l.828.47c1.585-8.44 3.667-16.77 5.424-25.17.71-3.163 1.252-6.358 1.625-9.574.172-1.648.503-3.94-.425-5.459-.256-.451-.722-.754-1.25-.81-.528-.056-1.05.14-1.402.527-1.114 1.05-1.644 2.749-2.109 4.133-1.617 4.809-2.473 9.875-3.42 14.806-.518 2.736-1.022 5.479-1.619 8.208-.351 1.616-.616 3.515-1.458 4.977l.928.244c.146-7.873 1.094-15.714 1.677-23.568.252-3.444.498-6.907.405-10.364-.01-1.174-.116-2.345-.318-3.502-.09-.78-.392-1.523-.876-2.15-2.526-2.724-4.323 4.995-4.601 6.09-1.532 6.09-2.407 12.353-3.315 18.553-.783 5.317-1.373 10.686-2.427 15.952-.073.354-.146.702-.232 1.043l.981.129c-.192-5.582-.086-11.176-.219-16.738-.08-3.219-.199-6.49-.457-9.727-.151-2.6-.517-5.183-1.094-7.726-.319-1.255-.783-3.167-2.129-3.785-1.346-.618-2.36.702-2.804 1.758-.869 2.027-1.108 4.326-1.326 6.489-.352 3.186-.498 6.399-.597 9.598-.219 6.682-.146 13.371-.391 20.047 0 .63-.027 1.262-.08 1.893h.995c-.557-4.674-.79-9.38-1.247-14.067-.239-2.459-.517-4.924-.922-7.364-.261-1.93-.74-3.824-1.425-5.652-.391-.966-1.008-2.26-2.195-2.46-.994-.173-1.657.586-2.035 1.378-.545 1.306-.883 2.684-1.002 4.088-.271 2.086-.384 4.19-.45 6.29-.286 9.186.43 18.353.49 27.533.02 3.728.02 7.59 1.187 11.24 1.167 3.65 3.832 6.702 4.907 10.416 1.133 3.908.842 8.118.802 12.135-.04 4.245-.124 8.492-.252 12.74-.495 17.094-1.649 34.156-3.461 51.186-.219 2.111-.458 4.223-.703 6.335-.066.643.928.611.995 0v-.013zM105.513 209.254c.971-15.827 1.827-31.663 2.566-47.507.74-15.775 1.36-31.557 1.864-47.345.25-7.83.715-15.717.164-23.547-.545-7.687-2.087-15.26-3.006-22.908-.932-7.817-1.22-15.692-1.483-23.547-.162-2.596.06-5.2.656-7.733.164-.613.473-1.843 1.057-2.062-.164.064-.079-.136 0 .083.079.22.164.342.223.51.426 1.387.729 2.808.906 4.246.347 2.127.656 4.26.912 6.393.564 4.246 1.03 8.532 1.93 12.72.15.696.314 1.38.524 2.056.066.204.258.343.476.343.218 0 .41-.139.476-.343.827-3.97.88-8.165 1.161-12.199.381-5.361.716-10.742 1.379-16.11.19-1.932.53-3.847 1.017-5.729.127-.548.35-1.071.656-1.546.072-.09.223-.213.17-.194-.052.02.047-.045.125 0 .343.44.557.964.617 1.515.184.974.296 1.96.335 2.951.164 2.797.125 5.606.098 8.377-.065 7.012-.459 14.235.808 21.176.105.586.905.36.964-.129.71-5.652 1.018-11.348 1.477-17.025.433-5.446.774-11.007 1.969-16.35.269-1.166.564-3.17 1.594-3.982.762-.612 1.254.703 1.438 1.38.436 2.077.582 4.204.433 6.321-.066 3.016-.309 6.038-.584 9.022-.657 7.204-1.667 14.37-2.31 21.575.003.24.184.44.425.472.242.033.471-.114.54-.343.787-3.796 1.758-7.56 2.769-11.297 1.207-4.466 2.474-8.938 4.088-13.275.508-1.5 1.167-2.947 1.97-4.317.2-.314.441-.602.714-.857.08-.071.099.038 0-.046.114.086.202.2.256.33.657 1.333.427 3.176.355 4.594-.125 2.577-.46 5.22-.82 7.81-.906 6.522-2.127 12.998-3.02 19.52-.002.158.074.307.205.4.131.092.3.116.452.063 3.983-1.289 6.95-4.884 9.647-7.83.715-.78 5.539-6.753 6.563-4.027.57 1.47-.466 3.557-1.064 4.859-1.008 2.132-2.143 4.204-3.399 6.206-1.2 1.978-2.461 3.924-3.636 5.915-1.612 2.803-2.956 5.745-4.016 8.79-2.264 6.29-4.495 12.644-5.25 19.294-.807 7.043-1.129 14.177-1.575 21.227-.919 14.504-1.617 29.024-2.094 43.562-.472 14.465-.726 28.937-.76 43.415v5.451c0 .267.22.484.491.484.272 0 .492-.217.492-.484 0-14.851.22-29.7.657-44.548.437-14.847 1.111-29.682 2.021-44.503.446-7.314.88-14.641 1.516-21.949.244-3.618.853-7.204 1.818-10.704.978-3.254 2.106-6.489 3.216-9.698 1.071-3.272 2.455-6.438 4.134-9.454 1.194-2.062 2.494-4.06 3.734-6.09 1.31-2.076 2.49-4.228 3.537-6.444.657-1.514 1.49-3.299 1.313-5-.031-1.125-.954-2.029-2.1-2.056-1.313.058-2.514 1.218-3.4 2.062-3.17 3.003-5.729 6.702-9.378 9.202-.824.587-1.733 1.05-2.697 1.373l.624.464c.846-6.225 2.008-12.411 2.894-18.636.394-2.726.754-5.465.919-8.217.098-1.662.275-3.608-.315-5.207-.315-.857-1.05-1.495-1.917-.857-.866.638-1.463 2.082-1.916 3.106-1.756 4.276-3.214 8.664-4.364 13.134-1.313 4.614-2.533 9.26-3.498 13.958l.965.128c.603-6.785 1.522-13.532 2.185-20.318.322-3.222.604-6.521.696-9.789.155-2.255.029-4.52-.374-6.747-.23-1.037-.775-2.648-2.133-2.577-1.26.038-1.864 1.579-2.218 2.539-.693 2.124-1.166 4.31-1.411 6.528-.434 2.977-.729 5.973-.991 8.97-.604 6.818-.913 13.668-1.766 20.46l.965-.129c-1.188-6.534-.84-13.359-.774-19.977 0-2.996.085-6.006-.073-9.021-.085-1.592 0-3.783-.977-5.156-.657-.928-1.641-.754-2.186.136-.8 1.288-1.01 3.015-1.26 4.51-.892 5.291-1.22 10.678-1.601 16.02-.217 3.055-.42 6.116-.656 9.17-.102 2.017-.332 4.025-.69 6.013h.952c-1.207-3.866-1.555-8.023-2.087-11.999-.544-4.08-.912-8.249-1.87-12.244-.158-.644-.355-2.004-1.09-2.365-1.548-.767-2.316 2.359-2.506 3.222-.533 2.643-.722 5.34-.565 8.03.138 4.053.282 8.113.525 12.166.48 8.017 1.66 15.898 2.816 23.843.577 4.009 1.07 8.036 1.253 12.09.184 4.053.105 8.113 0 12.166-.46 16.278-1.057 32.552-1.792 48.821-.726 16.407-1.577 32.807-2.552 49.201-.125 2.004-.243 4.002-.368 6.006-.04.644.952.644.984 0l-.144.039z" transform="translate(-1095 -3593) translate(0 3321) translate(80 104) translate(0 136) translate(983) translate(32 32) translate(4.331 6.497)"/>
                                    <path fill="#231F20" d="M146.453 209.434l1.532-20.366.763-10.099c.23-3.07.578-6.197.032-9.254-.434-1.901-1.096-3.746-1.972-5.494-1.13-2.58-2.294-5.101-3.444-7.642-2.88-6.352-5.766-12.704-8.356-19.173-1.026-2.58-2.031-5.159-2.807-7.777-.269-.844-.473-1.706-.611-2.58-.05-.304-.069-.613-.053-.922-.004-.143.035-.284.112-.406-.04.052-.073 0 0 0 .16-.039.326-.039.486 0 .463.172.873.459 1.19.832 1.105 1.195 2.067 2.51 2.866 3.92 1.973 3.174 3.715 6.663 6.278 9.442.454.501.966.95 1.526 1.335.132.075.292.086.434.03.142-.057.248-.176.289-.32.743-3.309.789-6.836 1.025-10.202.322-4.644.605-9.293 1.078-13.923.178-1.748.369-3.502.717-5.23.103-.572.253-1.135.447-1.684.056-.156.127-.307.21-.451.086-.148.132-.077.04-.103-.092-.026-.053-.032 0 .032.118.194.276.355.381.568.294.655.515 1.341.658 2.044.46 2.304.787 4.631.979 6.971.657 6.243.993 12.537 1.92 18.753.085.555.953.394.973-.129l.591-20.436c0-2.367.264-4.726.79-7.036.413-1.6.906-3.785 2.155-4.985.776-.748 1.059.284 1.21.929.26 1.34.397 2.7.408 4.063.177 4.21.039 8.435-.08 12.646-.13 5.01-.335 10.015-.289 15.026.001.172.094.33.246.416.152.087.338.088.49.003.947-.452 1.237-1.864 1.44-2.754.371-1.8.615-3.623.73-5.456.401-4.727.5-9.473.809-14.187.093-1.911.288-3.816.585-5.707.093-.617.247-1.224.46-1.812.063-.175.147-.342.25-.497.04-.054.089-.102.144-.142.08.045.125 0 .217.103.168.168.306.362.408.574.327.703.549 1.448.657 2.212.399 2.561.601 5.148.605 7.739.184 6.913-.144 13.859.408 20.759.04.503.867.703.973.129 1.058-5.927 1.347-11.956 2.307-17.896.167-1.13.397-2.249.69-3.353.096-.669.37-1.3.796-1.832.288-.165.645-.165.933 0 .533.297.658 1.148.743 1.683.31 1.787.467 3.618.697 5.418 1.157 9.138 1.972 18.488.079 27.588-.947 4.514-2.426 8.854-3.182 13.381-.662 4.551-.961 9.146-.894 13.743-.083 10.528-.153 21.061-.21 31.599 0 .267.22.484.493.484.272 0 .493-.217.493-.484l.197-29.697c0-4.875 0-9.776.75-14.613.749-4.837 2.3-9.409 3.286-14.149 1.973-9.402 1.092-19.03-.118-28.472-.223-1.728-.348-3.508-.657-5.217-.204-1.07-.73-2.295-2.018-2.321-1.868-.045-2.249 2.225-2.564 3.605-1.5 6.674-1.558 13.594-2.761 20.313l.966.13c-.506-6.36-.263-12.77-.375-19.147-.002-2.801-.164-5.6-.486-8.384-.184-1.386-.355-3.482-1.539-4.462-2.373-1.935-2.866 4.269-2.964 5.23-.507 4.74-.579 9.525-.862 14.284-.094 2.449-.313 4.892-.657 7.32-.114.824-.3 1.638-.559 2.43-.09.424-.32.805-.657 1.084l.743.42c-.086-9.3.782-18.612.361-27.911-.02-1.415-.176-2.825-.466-4.212-.21-.857-.697-1.934-1.782-1.792-1.499.167-2.255 2.38-2.689 3.52-.776 2.055-1.269 4.203-1.466 6.385-.158 1.748-.131 3.528-.184 5.282l-.17 6.068-.362 12.453.966-.13c-.874-5.861-1.196-11.794-1.801-17.688-.257-2.509-.526-5.037-1.032-7.507-.23-1.115-.487-3.057-1.578-3.734-1.972-1.225-2.446 4.624-2.557 5.424-.658 4.656-.894 9.364-1.217 14.045-.177 2.58-.348 5.12-.565 7.675-.094 1.677-.3 3.347-.618 4.997l.73-.283c-1.304-1.02-2.407-2.266-3.254-3.676-1.15-1.683-2.176-3.444-3.235-5.16-.907-1.56-1.908-3.068-2.997-4.513-.658-.884-1.578-2.019-2.761-2.258-3.794-.754-.06 8.107.348 9.21 2.413 6.551 5.305 12.942 8.171 19.314 2.163 4.804 4.563 9.557 6.45 14.477.643 1.854.935 3.808.86 5.766 0 3.314-.414 6.642-.657 9.95l-1.564 20.843-.388 5.159c-.046.645.94.645.986 0l-.099-.148z" transform="translate(-1095 -3593) translate(0 3321) translate(80 104) translate(0 136) translate(983) translate(32 32) translate(4.331 6.497)"/>
                                    <path fill="#231F20" d="M201.844 208.234l-1.783-47.59-.895-23.957-.218-5.946c-.073-1.85-.259-3.766.139-5.59.716-3.264 3.493-5.534 5.369-8.178 3.685-5.197 5.401-11.51 6.343-17.688.735-5.323 1.167-10.682 1.292-16.051.179-4.862.318-9.84-.45-14.67-.233-1.477-.53-3.167-1.446-4.411-.556-.755-1.617-1.413-2.525-.794-.908.62-1.067 2.128-1.186 3.128-.226 1.934-.212 3.87-.245 5.804-.067 4.772 0 9.73-1.406 14.36-.294 1.007-.694 1.982-1.193 2.91h.862c-.61-.8-.663-2.264-.742-3.27-.193-2.09-.239-4.186-.265-6.275-.073-5.262 0-10.524-.087-15.786-.046-2.296-.119-4.604-.344-6.894-.074-1.555-.376-3.092-.895-4.565-.331-.787-1.054-1.774-2.061-1.29-.908.406-1.26 1.657-1.512 2.502-1.146 3.901-1.358 8.138-1.696 12.169-.405 4.823-.663 9.673-1.16 14.477-.135 1.7-.37 3.393-.703 5.068-.087.477-.225.944-.41 1.393-.074.149-.2.278-.2.303 0 .026.1 0 .213 0 0 0-.053 0-.113-.142-.074-.149-.134-.304-.18-.464-.151-.552-.257-1.115-.317-1.683-.232-1.825-.305-3.67-.371-5.5-.186-4.953-.206-9.912-.405-14.832-.092-2.348-.218-4.695-.464-7.036-.132-1.778-.436-3.54-.908-5.262-.278-.929-.715-2.231-1.756-2.58-1.04-.348-1.59.433-1.896 1.232-.432 1.371-.656 2.797-.662 4.23-.126 2.135-.113 4.282-.073 6.45.086 4.913.364 9.827.49 14.74.053 1.935.093 3.928 0 5.882-.013 1.043-.19 2.078-.524 3.07h.067c.106 0 .06.058 0-.059-.201-.314-.366-.65-.49-1-.469-1.475-.817-2.984-1.041-4.513-.802-4.553-1.326-9.144-1.989-13.716-.576-3.87-1.027-8.042-2.479-11.737-.331-.838-.821-2.09-1.822-2.373-1.127-.316-1.989.883-2.353 1.735-.796 1.76-.862 3.83-.882 5.726.013 2.72.167 5.44.464 8.145.544 5.713 1.432 11.446 1.432 17.198 0 1.832 0 3.87-.769 5.604h.862c-1.747-4.13-3.85-8.108-6.29-11.891-.904-1.524-2.083-2.876-3.48-3.992-.789-.555-2.041-1.012-2.87-.251-.557.509-.543 1.412-.484 2.095.149 1.282.429 2.546.835 3.773 1.154 3.83 2.652 7.558 4.13 11.285 1.73 4.41 3.473 8.809 5.017 13.284 1.637 4.772 2.976 9.55 3.261 14.6.192 3.418.073 6.848 0 10.266-.084 3.534-.183 7.066-.298 10.595-.234 7.171-.51 14.34-.829 21.506-.623 14.187-1.385 28.342-2.154 42.51-.1 1.767-.199 3.527-.291 5.294-.034.645.96.645.994 0 .755-13.794 1.51-27.587 2.154-41.387.643-13.8 1.193-27.575 1.491-41.375.12-5.765-.113-11.4-1.69-16.985-1.206-4.27-2.764-8.448-4.355-12.595-1.59-4.146-3.234-8.19-4.765-12.316-.61-1.651-1.206-3.315-1.71-5.005-.424-1.173-.715-2.389-.868-3.624-.048-.35-.033-.706.046-1.05.073-.233.086-.317.391-.375 1.186-.22 2.38 1.29 3.016 2.07 2.803 3.334 4.772 7.435 6.628 11.324.41.877.815 1.76 1.206 2.644.091.146.255.236.43.236.177 0 .34-.09.432-.236.68-1.807.986-3.727.901-5.65-.008-2.705-.158-5.408-.45-8.099-.544-5.674-1.412-11.369-1.446-17.082 0-1.935 0-4.037.743-5.804.19-.49.51-.921.928-1.25.147-.112.358-.09.477.05.809.717 1.16 2.077 1.458 3.103.513 1.85.925 3.724 1.233 5.616.835 4.695 1.412 9.428 2.101 14.142.292 1.967.59 3.934.98 5.875.185 1.296.557 2.56 1.108 3.753.338.645 1.087 1.245 1.75.574.662-.67.662-2.09.749-2.973.311-4.146 0-8.383-.153-12.504-.186-4.7-.437-9.415-.272-14.11-.016-1.572.155-3.14.51-4.675.083-.374.248-.726.485-1.031.053-.059.139-.078.092-.071.133 0 .18 0 .338.11.71.476 1.04 1.934 1.246 2.856.395 1.915.654 3.854.776 5.804.39 4.94.444 9.892.557 14.832.086 3.869 0 7.893.662 11.743.113.683.279 2.012 1.127 2.237.849.226 1.326-.915 1.491-1.541.378-1.443.63-2.914.756-4.398.252-2.173.43-4.353.603-6.532.378-4.87.663-9.744 1.213-14.6.193-1.949.491-3.886.895-5.804.219-.967.484-2.309 1.16-2.986.132-.129.245-.11.325-.038.29.301.501.666.616 1.064.457 1.563.722 3.173.789 4.797.404 5.05.324 10.131.324 15.187 0 4.482-.152 9.028.352 13.497.112.987.179 2.309.815 3.147.094.143.256.23.43.23.175 0 .338-.087.432-.23 2.16-3.953 2.459-8.744 2.65-13.13.087-2.276.087-4.559.14-6.835-.04-1.63.105-3.257.43-4.856.186-.735.491-1.515 1.267-.974 1.04.73 1.325 2.502 1.55 3.625.915 4.585.756 9.421.617 14.064-.152 5.159-.41 10.382-1.08 15.515-.802 6.178-2.3 12.504-5.687 17.857-1.664 2.624-4.162 4.746-5.528 7.538-1.518 3.108-.928 6.797-.808 10.118l.861 23.15 1.724 46.302.218 5.803c0 .645 1.014.645.994 0l-.013-.09z" transform="translate(-1095 -3593) translate(0 3321) translate(80 104) translate(0 136) translate(983) translate(32 32) translate(4.331 6.497)"/>
                                    <path fill="#D4DAFF" d="M91.474 208.316c.942-13.68 1.327-46.846 1.851-49.91.65-2.962 1.459-5.89 2.422-8.77 2.143-7.068 1.692-14.136 2.263-21.519.663-8.417-.71-24.325-3.437-24.537-2.728-.212-2.907 21.543-3.623 28.797l-.312-24.364c0-1.985-.06-4.035-.797-5.866-.736-1.831-1.52-5.076-4.233-3.425-2.714 1.652-.285 22.18-1.865 33.135-1.101-6.599-.278-13.364-.08-20.066.2-6.701-1.287-19.391-3.788-19.391-2.502 0-2.92 5.918-2.72 9.349l.995 16.866c.285 4.844.55 9.862-1.075 14.405l-.97-25.579c-.085-2.326-.192-4.722-1.114-6.836-.458-1.041-1.4-2.12-2.455-1.838-1.055.283-1.407 1.774-1.493 2.975l-2.23 30.198c-.862-3.533-12.415-14.745-13.058-13.094-.936 2.39 2.216 5.86 3.782 7.858 3.517 4.497 4.253 10.762 6.781 15.928 1.062 2.184 4.274 4.086 5.216 6.335 1.141 2.75 1.287 5.828 1.387 8.822.61 17.817-.803 35.98-2.197 53.72" transform="translate(-1095 -3593) translate(0 3321) translate(80 104) translate(0 136) translate(983) translate(32 32) translate(4.331 6.497)"/>
                                    <path fill="#231F20" d="M94.305 209.251c.935-12.616 1.225-25.27.868-37.916-.092-3.117-.329-6.24-.23-9.357.162-3.077.807-6.111 1.912-8.997 1.017-2.707 1.759-5.505 2.214-8.354.355-2.918.539-5.853.552-8.792.177-8.855 1.268-17.73.368-26.58-.114-1.52-.378-3.027-.789-4.498-.243-.797-.604-1.825-1.406-2.25-1.51-.796-2.063 1.427-2.273 2.417-.458 2.482-.732 4.992-.821 7.513-.198 3.142-.316 6.291-.48 9.434-.071 2.579-.277 5.153-.618 7.711-.075.662-.243 1.311-.499 1.928-.03.058-.07.11-.118.155-.086-.116.466.038.466.038v-.038c-.031-.074-.057-.149-.079-.225-.382-1.635-.637-3.296-.762-4.968-.315-2.763-.578-5.54-.854-8.31-.565-5.597-.999-11.284-2.162-16.805-.156-.829-.376-1.645-.657-2.442-.136-.546-.441-1.037-.874-1.407-1.209-.79-1.84 1.182-2.03 1.966-.448 2.314-.669 4.664-.657 7.018-.105 3.213-.092 6.375-.066 9.563 0 3.052.073 6.098.066 9.151 0 1.832.145 3.856-.276 5.662 0 .096-.06.193-.079.289-.02.096-.033.032 0 .032s.118-.09.263-.084c.145.007.164.071.276.09.112.02 0 0 0 0 0-.27-.217-.938-.276-1.336-.27-1.98-.374-3.985-.493-5.977-.361-5.983-.591-11.972-.966-17.955-.17-2.77-.361-5.54-.657-8.297-.113-1.793-.417-3.57-.906-5.302-.098-.473-.355-.9-.73-1.214-.874-.527-2.01.385-2.477 1.04-1.031 1.447-1.261 3.432-1.4 5.142-.113 1.497-.113 3 0 4.498.428 6.144.914 12.288 1.111 18.444.15 2.998.12 6.003-.092 8.997-.024.893-.186 1.777-.48 2.622-.038.101-.087.198-.144.29-.029.043-.064.082-.105.115 0-.07.138.11.033-.051-.249-.5-.421-1.033-.513-1.581-.19-1.035-.322-2.08-.394-3.13-.237-2.93-.302-5.874-.355-8.81-.092-5.617.105-11.273-.236-16.883-.006-.648-.08-1.295-.224-1.928-.4-1.426-2.09-2.982-3.673-2.294-.809.428-1.364 1.205-1.498 2.095-.24 1.32-.377 2.657-.407 3.997l-.75 9.57-1.465 18.373.966-.129c-.331-.94-.84-1.812-1.498-2.57-.886-1.132-1.847-2.205-2.878-3.214-2.055-2.1-4.32-3.995-6.76-5.655-.967-.643-3.378-2.102-3.43.083.073 1.143.398 2.257.952 3.265.732 1.562 1.548 3.085 2.444 4.563 1.834 3.13 3.864 6.163 5.579 9.363 1.498 2.809 3.068 5.579 4.6 8.355.656 1.22 1.313 2.435 1.905 3.689 1.084 2.377 1.314 5 1.471 7.57.27 5.662.21 11.343 0 17.004-.453 11.446-1.642 22.847-2.667 34.254l-.368 4.273c-.053.643.933.643.985 0 .927-10.925 2.11-21.85 2.754-32.813.321-5.495.512-11.003.46-16.504 0-2.647-.053-5.302-.277-7.936-.125-2.197-.636-4.355-1.51-6.382-1.315-2.828-2.925-5.54-4.43-8.27-1.412-2.571-2.779-5.142-4.296-7.603-1.84-3.04-3.798-6.035-5.369-9.222-.616-1.05-1.028-2.203-1.215-3.4 0-.128.066-.385 0-.495-.066-.109-.053.032-.105.032.226.043.446.11.657.2 2.26 1.015 4.258 2.892 6.064 4.498 1.972 1.793 4.08 3.74 5.474 6.028.224.341.399.711.519 1.1.068.228.298.374.54.342.241-.032.422-.233.426-.471l1.504-18.85.75-9.427c.104-1.285 0-2.84.551-4.061.172-.596.767-.975 1.393-.887.697.242 1.258.76 1.544 1.426.102.202.169.42.197.643.04.219.066.591.092.874.073.97.099 1.928.119 2.918.072 2.834.065 5.674.085 8.508.033 5.713-.144 11.568.697 17.243.124.848.315 3.174 1.603 3.213 1.458 0 1.564-2.738 1.662-3.644.23-2.9.276-5.81.138-8.714-.098-3.47-.296-6.947-.519-10.411-.177-2.744-.388-5.482-.585-8.22-.112-1.338-.15-2.68-.111-4.023.078-1.767.21-3.933 1.241-5.45.164-.262.39-.482.657-.642.13-.057.264-.102.401-.135.138-.045.27 0 .145 0-.125 0-.066-.096-.033 0s0 0 .092.135c.234.499.397 1.026.486 1.568.403 2.062.675 4.146.815 6.24.532 5.964.775 11.953 1.077 17.93.138 2.667.27 5.34.454 8.014.065 1.691.243 3.376.532 5.045.02.394.182.768.46 1.054.48.353.9-.077 1.058-.508.172-.6.262-1.22.27-1.844.071-1.022.091-2.057.104-3.079.08-6.111-.157-12.21-.033-18.334-.014-2.541.16-5.08.52-7.597.068-.7.264-1.384.578-2.017.035-.071.082-.136.138-.193.04-.045.052-.045.052-.045s-.138-.116 0 .077c.71 1.028.999 2.885 1.255 4.241.486 2.629.815 5.296 1.124 7.956.657 5.656 1.097 11.33 1.787 16.985.17 1.408.217 3.047.756 4.39.19.462.584.816 1.09.462.41-.399.67-.922.736-1.484.448-2.198.697-4.43.743-6.67.19-3.085.302-6.17.466-9.255.138-2.77.276-5.565.657-8.316.104-.903.298-1.794.578-2.66.079-.222.176-.437.29-.643.078-.122.078-.096.131-.122-.066.032-.04-.039.053 0 .657.45.926 1.401 1.13 2.172.374 1.565.611 3.158.71 4.762.296 4.087.346 8.188.15 12.281-.072 1.928-.216 3.895-.354 5.842-.21 2.924-.21 5.86-.283 8.791-.025 2.966-.278 5.927-.756 8.856-.532 2.898-1.622 5.604-2.536 8.393-.908 2.784-1.371 5.689-1.373 8.611 0 3.079.19 6.163.27 9.242.166 6.272.166 12.546 0 18.823-.15 6.066-.45 12.122-.9 18.167-.047.643.939.643.985 0l.006.045zM35.46 203.894c2.41 1.158 5.028 1.785 7.687 1.84.22 0 .22-.348 0-.355-2.598-.05-5.158-.66-7.514-1.79-.2-.1-.372.212-.172.305zM34.034 199.527c3.604 1.342 7.406 2.217 11.288 2.598.208 0 .208-.273 0-.29-3.853-.383-7.626-1.253-11.203-2.586-.189-.07-.273.208-.085.278zM34.795 197.386l10.474 2.567c.086.025.177-.024.203-.11.025-.084-.025-.173-.112-.198l-10.506-2.567c-.203-.052-.294.263-.085.308h.026zM34.76 194.482c3.598 1.383 7.402 2.256 11.284 2.59.208 0 .208-.28 0-.298-3.853-.336-7.629-1.205-11.2-2.578-.194-.072-.278.215-.084.286zM36.196 190.899l9.097 2.561c.08.014.158-.038.18-.121.02-.083-.02-.17-.097-.2l-9.098-2.562c-.08-.014-.157.039-.179.122-.021.083.02.17.097.2zM35.457 186.59c2.392 1.385 5.005 2.248 7.695 2.541.214 0 .214-.337 0-.366-2.633-.286-5.19-1.135-7.528-2.497-.081-.05-.184-.02-.23.07-.046.089-.018.202.063.252zM35.449 182.19c2.138 1.117 4.526 1.762 6.978 1.888.218 0 .218-.308 0-.314-2.394-.122-4.726-.75-6.815-1.838-.08-.033-.173-.005-.217.065-.044.07-.024.159.047.206l.007-.006zM36.186 178.614c1.516.654 3.14 1.038 4.795 1.133.221 0 .221-.33 0-.337-1.596-.091-3.161-.461-4.622-1.093-.2-.08-.38.21-.173.297zM36.962 175.719c1.111-.075 2.226.064 3.278.41.187.062.265-.217.078-.273-1.077-.353-2.218-.496-3.356-.421-.192 0-.198.295 0 .284z" transform="translate(-1095 -3593) translate(0 3321) translate(80 104) translate(0 136) translate(983) translate(32 32) translate(4.331 6.497)"/>
                                    <path fill="#231F20" d="M58.397 115.188l-4.03-2.561c-.075-.034-.163-.006-.205.067-.041.072-.022.164.045.213l4.03 2.568c.173.11.334-.17.16-.287zM57.664 116.659l-6.15-2.588c-.201-.081-.37.189-.175.27l6.157 2.588c.194.081.362-.189.168-.27zM56.163 118.812l-8.321-1.866c-.087-.013-.17.035-.192.109-.023.074.021.152.103.18l8.355 1.872c.087.013.17-.034.192-.109.023-.074-.021-.152-.103-.18l-.034-.006zM55.464 122.326c-2.278-.59-4.597-.942-6.929-1.051-.093 0-.17.088-.17.198 0 .109.077.197.17.197 2.303.11 4.592.46 6.84 1.043.211.056.3-.324.089-.38v-.007zM56.135 124.162c-2.396.008-4.764.412-6.961 1.19-.206.073 0 .313.171.24 2.145-.753 4.454-1.144 6.79-1.15.094 0 .171-.063.171-.14 0-.077-.077-.14-.171-.14zM69.456 205.68c5 .205 10.01-.173 14.885-1.123.208-.038.117-.305-.084-.262-4.85.934-9.831 1.301-14.801 1.09-.208 0-.208.268 0 .273v.022zM70.189 203.569c3.593.002 7.16-.616 10.542-1.828.208-.074.12-.4-.086-.327-3.354 1.206-6.892 1.823-10.456 1.821-.092 0-.167.075-.167.167 0 .092.075.167.167.167zM70.897 200.68c2.857-.25 5.677-.864 8.401-1.827.191-.068.108-.396-.089-.328-2.695.951-5.485 1.56-8.312 1.814-.204 0-.204.356 0 .342zM69.5 195.626c2.822-.446 5.618-1.06 8.373-1.838.07-.038.105-.122.083-.2-.022-.08-.094-.131-.173-.125-2.752.784-5.545 1.4-8.367 1.844-.204.033-.115.352.084.319zM70.947 192.736l6.9-1.8c.202-.058.118-.407-.09-.356l-6.895 1.807c-.208.051-.117.4.085.349zM71.003 189.114l4.71-1.866c.202-.08 0-.348-.175-.267l-4.71 1.866c-.202.08 0 .354.175.267zM70.228 183.35l4.741-1.132c.08-.029.122-.11.1-.189-.022-.078-.102-.127-.186-.114l-4.74 1.132c-.213.044-.12.354.085.304zM71.02 179.71c1.097-.933 2.513-1.279 3.865-.945.192.048.272-.28.08-.328-1.459-.36-2.987.016-4.169 1.026-.155.137.068.376.223.246zM71.015 176.046c.309-.784 1.04-1.173 1.718-.912.176.079.252-.273.077-.345-.806-.308-1.675.15-2.047 1.078-.04.085-.016.194.053.244.033.025.073.033.111.02.038-.012.07-.043.088-.085zM68.135 147.219c.851-.773 2.004-1.163 3.173-1.074.21 0 .21-.302 0-.314-1.256-.09-2.492.334-3.402 1.168-.151.138.078.358.229.22zM69.491 148.688c1.523-.41 3.13-.535 4.713-.368.199 0 .199-.245 0-.267-1.612-.165-3.246-.032-4.794.39-.192.053-.112.31.081.256v-.01zM70.197 150.85c1.077-.302 2.188-.39 3.29-.26.193 0 .193-.338 0-.36-1.128-.137-2.267-.044-3.368.274-.073.034-.112.127-.092.216.02.089.094.145.17.13zM134.216 84.168l-5.491-3.303c-.077-.036-.167-.006-.209.07-.042.076-.023.174.045.225l5.459 3.275c.183.11.353-.185.17-.295l.026.028zM133.43 85.549l-4.014-1.083c-.198-.057-.287.285-.09.342l4.022 1.09c.198.05.287-.292.083-.349zM133.346 87.38c-1.309.3-2.65.376-3.979.223-.202 0-.202.332 0 .361 1.36.156 2.73.075 4.068-.238.196-.043.114-.397-.089-.347zM132.686 90.241c-1.678.15-3.314.547-4.834 1.176-.192.08 0 .325.166.245 1.462-.607 3.034-.993 4.648-1.141.212 0 .212-.308 0-.285l.02.005zM126.89 159.542c-1.847-.045-3.694.102-5.501.438-.2.04-.116.312.09.272 1.778-.329 3.594-.472 5.41-.426.089 0 .161-.063.161-.142 0-.078-.072-.142-.16-.142zM126.84 162.432c-2.678.913-5.477 1.546-8.334 1.886-.209 0-.117.29.086.268 2.861-.338 5.664-.972 8.347-1.886.196-.061.11-.335-.086-.268h-.013zM126.847 166.035l-5.453 1.113c-.206.04-.122.364.084.324l5.453-1.113c.206-.041.122-.365-.084-.324zM126.887 169.641c-3.197.281-6.304 1.164-9.142 2.599-.19.094 0 .362.163.269 2.789-1.412 5.843-2.28 8.985-2.555.21 0 .21-.331 0-.313h-.006zM127.614 173.251c-3.494.42-6.998.79-10.51 1.107-.214 0-.214.349 0 .335 3.512-.313 7.016-.681 10.51-1.106.207 0 .214-.362 0-.336zM126.866 176.14c-1.303.279-2.64.435-3.988.464-.088 0-.16.057-.16.128 0 .07.072.127.16.127 1.375-.03 2.741-.19 4.07-.475.076-.023.118-.09.096-.152-.02-.063-.098-.103-.178-.093zM126.096 179.044l-2.581 1.126c-.071.048-.095.145-.055.222.044.073.135.098.208.058l2.582-1.132c.036-.02.063-.055.073-.096.01-.041.004-.085-.018-.12-.044-.073-.135-.098-.209-.058zM146.765 163.862l3.26-.493c.219-.032.127-.258-.093-.221l-3.266.493c-.22.032-.128.254.1.221zM146.745 166.025c1.983-.438 4.074-.579 6.139-.415.205 0 .205-.214 0-.233-2.096-.168-4.22-.023-6.231.424-.198.042-.113.27.092.224zM148.96 167.334c1.23-.448 2.638-.403 3.823.122.193.089.36-.156.173-.24-1.294-.571-2.83-.616-4.17-.121-.192.072 0 .31.174.239zM148.907 169.94c1.081-.119 2.181.023 3.164.408.187.073.348-.152.162-.225-1.059-.417-2.245-.569-3.41-.435-.206 0-.116.272.084.251zM168.042 190.577l-6.912 1.061c-.203 0-.203.41 0 .38l6.912-1.062c.203 0 .21-.41 0-.38zM168.734 192.74c-2.993-.003-5.92.895-8.41 2.583-.165.11 0 .394.166.278 2.45-1.653 5.328-2.528 8.27-2.512.088 0 .159-.072.159-.161 0-.09-.071-.162-.16-.162l-.025-.025zM168.718 195.632c-2.931.647-5.757 1.755-8.387 3.289-.18.103 0 .398.166.295 2.604-1.516 5.402-2.613 8.304-3.255.204-.04.121-.37-.083-.33zM167.986 199.245c-2.124.695-4.198 1.551-6.206 2.561-.191.098 0 .397.165.3 1.985-.996 4.034-1.84 6.133-2.527.088-.027.138-.124.112-.216-.025-.092-.117-.145-.204-.118zM168.697 202.847c-3.682.838-7.226 2.193-10.53 4.025-.184.099 0 .389.165.283 3.287-1.806 6.812-3.139 10.47-3.958.204-.047.118-.37-.086-.324l-.02-.026zM199.912 121.008l-3.277-3.292c-.15-.15-.387.068-.238.217l3.277 3.292c.15.149.387-.068.238-.217zM198.443 122.397l-4.748-3.258c-.17-.124-.333.178-.157.294l4.748 3.259c.17.117.326-.178.157-.295zM198.35 124.885l-8.337.48c-.21 0-.217.255 0 .24l8.337-.48c.217 0 .224-.25 0-.24zM176.307 200.5h8.323c.094 0 .17-.08.17-.18 0-.1-.076-.18-.17-.18h-8.323c-.094 0-.17.08-.17.18 0 .1.076.18.17.18zM175.588 198.335h7.596c.095 0 .172-.08.172-.18 0-.1-.077-.18-.172-.18h-7.596c-.095 0-.172.08-.172.18 0 .1.077.18.172.18zM175.571 194.184l11.24-.371c.206 0 .206-.357 0-.35l-11.24.37c-.207 0-.207.358 0 .351zM177.022 191.116h6.893c.09 0 .163-.08.163-.18 0-.1-.073-.18-.163-.18h-6.893c-.09 0-.163.08-.163.18 0 .1.073.18.163.18zM174.857 186.24l8.334-.353c.217 0 .224-.376 0-.361l-8.334.353c-.218 0-.218.369 0 .361zM175.579 183.355c2.285-.303 4.59-.42 6.892-.35.218 0 .218-.344 0-.351-2.303-.07-4.607.048-6.892.35-.218 0-.218.379 0 .35zM177.089 180.463c1.279-.285 2.598-.426 3.922-.418.1 0 .18-.066.18-.149 0-.082-.08-.149-.18-.149-1.358-.006-2.71.138-4.023.43-.095.023-.15.105-.121.184.027.08.127.125.222.102z" transform="translate(-1095 -3593) translate(0 3321) translate(80 104) translate(0 136) translate(983) translate(32 32) translate(4.331 6.497)"/>
                                    <path fill="#7786FF" d="M47.945 114.056c-2.052-1.693-11.789-6.958-11.094-9.591.58-1.885 2.426-3.1 4.404-2.897 1.933.323 3.57 1.592 4.352 3.373 0 0 .65-5.02 2.598-6.199 2.057-1.15 4.664-.499 5.924 1.481 1.37 2.208.65 5.227-.76 7.396-1.41 2.17-5.424 6.437-5.424 6.437zM77.9 141.971c-.599-.734-.806-1.724-.555-2.646.233-.89.924-1.574 1.797-1.78.622-.094 1.255.04 1.79.377.89.698 1.682 1.52 2.351 2.442.693-.92 1.338-1.876 1.933-2.865.515-1.096 1.597-1.79 2.782-1.786 1.288.125 2.376 1.64 2.222 3.129-.125.897-.53 1.728-1.153 2.368-.58.662-4.689 5.253-5.346 7.496l-5.822-6.735zM158.35 147.395c-1.237-1.546-2.855-2.95-4.834-3.292-1.98-.342-4.295.734-4.736 2.654-.348 1.547.58 3.132 1.809 4.156 1.23 1.025 2.756 1.65 4.137 2.475 2.492 1.487 4.522 3.612 5.873 6.146 0 0 4.814-12.287 4.709-13.788.028-.744-.328-1.451-.947-1.882-.289-.13-.603-.198-.921-.2-1.146-.08-2.282.263-3.183.96-.77.829-1.412 1.762-1.907 2.771zM190.692 98.324c-.763-.875-1.7-1.587-2.754-2.09-1.07-.506-2.304-.546-3.405-.111-1.648.814-2.352 2.765-1.595 4.422.575.932 1.377 1.706 2.332 2.254l6.91 4.76c.94-1.933 2.057-3.777 3.34-5.507.89-1.201 1.891-2.396 2.201-3.851.31-1.455-.382-3.247-1.851-3.578-1.265-.293-2.51.584-3.294 1.584-.576.75-1.206 1.457-1.884 2.117zM117.51 63.06c-.193-.141-.425-.23-.67-.257-.216.012-.425.072-.61.176-1.39.664-2.497 2.132-2.088 3.542.106.326.25.64.43.935 1.275 2.276 4.979 6.897 4.979 6.897.765-.708 4.831-2.57 5.918-3.035 1.133-.407 2.08-1.167 2.684-2.15.63-1.012.364-2.303-.624-3.023-1.16-1.072-6.1-.928-6.75 1.367-.067-.031-2.194-3.768-3.268-4.452z" transform="translate(-1095 -3593) translate(0 3321) translate(80 104) translate(0 136) translate(983) translate(32 32) translate(4.331 6.497)"/>
                                </g>
                            </g>
                        </g>
                    </g>
                </g>
            </g>
        </g>
    </g>
</svg>
