<svg width="24" height="24" viewBox="0 0 24 24" fill="none" xmlns="http://www.w3.org/2000/svg">
<path d="M8.28737 12.5868H10.2404V20.7097C10.2404 20.8701 10.369 21 10.5277 21H13.8391C13.9978 21 14.1265 20.8701 14.1265 20.7097V12.6251H16.3716C16.5176 12.6251 16.6404 12.5144 16.6571 12.3679L16.998 9.37746C17.0074 9.29518 16.9816 9.21279 16.9271 9.15106C16.8726 9.08928 16.7945 9.05392 16.7126 9.05392H14.1266V7.17937C14.1266 6.61428 14.4277 6.32774 15.0218 6.32774C15.1064 6.32774 16.7126 6.32774 16.7126 6.32774C16.8714 6.32774 17 6.19773 17 6.03741V3.29247C17 3.1321 16.8714 3.00215 16.7126 3.00215H14.3824C14.366 3.00134 14.3295 3 14.2757 3C13.8713 3 12.4659 3.08019 11.3558 4.11199C10.1258 5.2554 10.2967 6.62445 10.3376 6.86181V9.05386H8.28737C8.12862 9.05386 8 9.18381 8 9.34419V12.2964C8 12.4568 8.12862 12.5868 8.28737 12.5868Z" fill="white"/>
</svg>
