<svg xmlns="http://www.w3.org/2000/svg" width="32" height="32" viewBox="0 0 32 32">
    <g fill="none" fill-rule="evenodd">
        <g fill="#001a36" fill-rule="nonzero">
            <g>
                <g>
                    <path d="M7.76 16.582c.599 0 1.09.462 1.146 1.052l.006.112v3.88h3.456c.636 0 1.152.522 1.152 1.165 0 .605-.457 1.102-1.041 1.159l-.111.005H8.912v3.88C8.912 28.48 8.396 29 7.76 29c-.599 0-1.091-.462-1.147-1.052l-.005-.112v-3.88H3.152C2.516 23.955 2 23.433 2 22.79c0-.605.457-1.102 1.041-1.159l.111-.005h3.456v-3.88c0-.644.516-1.165 1.152-1.165zm14.692-5.045c4.72 0 8.548 2.997 8.548 6.693 0 1.535-.66 2.95-1.772 4.08-.466.474.672 2.92.062 3.281-.57.338-2.882-1.4-3.552-1.182-1.012.33-2.122.513-3.286.513-2.982 0-5.608-1.196-7.138-3.008-.166-.574-.493-1.08-.927-1.462-.313-.696-.483-1.443-.483-2.222 0-3.696 3.827-6.693 8.548-6.693zm.237 7.812h-4.562c-.42 0-.76.344-.76.768 0 .394.294.72.672.764l.088.005h4.562c.42 0 .76-.344.76-.769 0-.394-.293-.718-.671-.763l-.089-.005zm4.562-3.073h-9.124c-.42 0-.76.344-.76.768 0 .394.294.719.672.763l.088.005h9.124c.42 0 .76-.344.76-.768 0-.394-.293-.719-.671-.763l-.09-.005zm-7.906-12.84c.37.196.548 3.467.532 6.661-3.84.811-6.855 3.4-7.524 6.73-.55.004-1.108.005-1.659 0-.387-1.265-1.554-2.185-2.934-2.185-1.283 0-2.382.794-2.842 1.923l-.295-.04c-.509-.073-.843-.16-.937-.26-.712-.755-.712-12.075 0-12.83.712-.754 14.947-.377 15.659 0zm-7.83 7.248H6.953l-.088.005c-.378.044-.672.369-.672.763s.294.719.672.763l.088.005h4.562l.089-.005c.378-.044.671-.369.671-.763 0-.424-.34-.768-.76-.768zm1.352-3.074H6.953l-.088.005c-.378.045-.672.37-.672.764s.294.718.672.763l.088.005h5.914l.088-.005c.379-.045.672-.37.672-.763 0-.425-.34-.769-.76-.769z" transform="translate(-110 -611) translate(59 52) translate(51 559)"/>
                </g>
            </g>
        </g>
    </g>
</svg>
