<svg xmlns="http://www.w3.org/2000/svg" width="32" height="32" viewBox="0 0 32 32">
    <g fill="none" fill-rule="evenodd">
        <g fill="#001a36" fill-rule="nonzero">
            <g>
                <g>
                    <path d="M9 19c.552 0 1 .448 1 1v3.999L14 24c.552 0 1 .448 1 1s-.448 1-1 1l-4.001-.001L10 30c0 .552-.448 1-1 1s-1-.448-1-1l-.001-4.001L4 26c-.552 0-1-.448-1-1s.448-1 1-1l4-.001V20c0-.552.448-1 1-1zm7.9 3.863l.539.006c1.866.043 3.461.3 3.721.524l.071.08c.399.55.287 2.442-.159 3.541L21 27.18h-.008l-.019.006c-.2.072-.504.142-.885.201-.69.108-1.582.173-2.539.187l-.413.003c-.87 0-1.715-.045-2.435-.116.814-.542 1.35-1.48 1.35-2.546 0-.765-.276-1.464-.734-1.999.496-.034 1.033-.053 1.583-.053zM16.796 4C21.327 4 25 7.694 25 12.25c0 3.13-1.732 5.853-4.285 7.252-.318.174-.23.68-.077 1.323-.787-.155-1.71-.254-2.668-.296V15.47c.7-.408 1.17-1.17 1.17-2.041 0-1.302-1.049-2.358-2.343-2.358-1.295 0-2.344 1.056-2.344 2.358 0 .805.401 1.516 1.014 1.941l.158.1v5.067c-.773.04-1.516.119-2.179.234l-.414.079.075-.304c.111-.485.136-.852-.123-.988-2.61-1.381-4.39-4.135-4.39-7.308C8.593 7.694 12.265 4 16.796 4z" transform="translate(-157 -611) translate(59 52) translate(98 559)"/>
                </g>
            </g>
        </g>
    </g>
</svg>
