<svg xmlns="http://www.w3.org/2000/svg" width="32" height="32" viewBox="0 0 32 32">
    <g fill="none" fill-rule="evenodd">
        <g fill="#0a1e4a" fill-rule="nonzero">
            <g>
                <g>
                    <path d="M16 5c1.105 0 2 .895 2 2v7h7c1.105 0 2 .895 2 2s-.895 2-2 2h-7.001L18 25c0 1.105-.895 2-2 2s-2-.895-2-2l-.001-7H7c-1.105 0-2-.895-2-2s.895-2 2-2h7V7c0-1.105.895-2 2-2z" transform="translate(-63 -611) translate(59 52) translate(4 559)"/>
                </g>
            </g>
        </g>
    </g>
</svg>
