<?xml version="1.0" encoding="UTF-8"?>
<svg width="24px" height="24px" viewBox="0 0 24 24" version="1.1" xmlns="http://www.w3.org/2000/svg" xmlns:xlink="http://www.w3.org/1999/xlink">
    <title>026DA61D-B86E-480D-955B-E80811EE435B</title>
    <g id="desktop" stroke="none" stroke-width="1" fill="none" fill-rule="evenodd">
        <g id="01.03.02-Common-page---Discussions---hover-states" transform="translate(-160.000000, -1391.000000)" fill="#979BBA" fill-rule="nonzero">
            <g id="components/cards/post/regular-short" transform="translate(120.000000, 1142.000000)">
                <g id="icons/common-menu/discussion" transform="translate(40.000000, 249.000000)">
                    <path d="M5.95687988,2.25137251 L7.09657478,2.25137251 L8.79210944,2.26915526 L10.1044488,2.29557623 C12.6347818,2.35921914 14.5472063,2.48716835 14.9087257,2.67043222 C15.5522299,2.99664174 15.723056,4.4803633 15.747255,7.35326314 L15.7483541,7.51375666 L16.2921094,7.51915526 L17.6044488,7.54557623 C20.1347818,7.60921914 22.0472063,7.73716835 22.4087257,7.92043222 C23.0522299,8.24664174 23.223056,9.7303633 23.247255,12.6032631 L23.25,13.7140291 C23.24034,16.6095379 23.0783615,18.5359495 22.6035793,19.017309 C22.1405107,19.4867928 19.806607,19.6661732 16.3947253,19.6781182 L16.1079235,19.6787287 L15.1744647,19.6756248 L15.0686437,19.7903649 C15.0155387,19.8515071 14.9591131,19.9203046 14.8900556,20.0081818 L14.8164427,20.1028419 L14.3412798,20.729864 C14.2419263,20.8596603 14.1670919,20.9544587 14.0963778,21.03946 L13.977328,21.1780854 L13.8759804,21.2897379 C13.5794776,21.6066862 13.3435591,21.7615047 12.9715007,21.7529182 C12.5369866,21.7427186 12.2088614,21.505591 11.8806435,21.1154263 C11.7266985,20.9324262 11.5752865,20.7154258 11.4106628,20.4503054 L11.3101773,20.2853458 L10.8687147,19.5203748 L10.4470578,19.4821292 C9.70920881,19.4075017 9.28168497,19.3102056 9.01247063,19.1157829 L8.94837718,19.0651107 L8.89735013,19.017309 C8.53340401,18.648321 8.32302849,16.7959624 8.26622359,14.7120785 L8.25944972,14.4275943 L7.67446473,14.4256248 L7.56864368,14.5403649 C7.5155387,14.6015071 7.45911311,14.6703046 7.39005564,14.7581818 L7.31644269,14.8528419 L6.84127984,15.479864 C6.74192626,15.6096603 6.66709191,15.7044587 6.59637775,15.78946 L6.47732799,15.9280854 L6.3759804,16.0397379 C6.07947757,16.3566862 5.84355912,16.5115047 5.47150069,16.5029182 C5.03698658,16.4927186 4.70886137,16.255591 4.38064348,15.8654263 C4.22669846,15.6824262 4.07528645,15.4654258 3.91066283,15.2003054 L3.81017731,15.0353458 L3.36871473,14.2703748 L2.94705779,14.2321292 C2.20920881,14.1575017 1.78168497,14.0602056 1.51247063,13.8657829 L1.44837718,13.8151107 L1.39735013,13.767309 C0.534836259,12.8928463 0.534836259,3.68718223 1.39735013,2.81271947 C1.79544898,2.40910553 3.27007137,2.26710388 5.95687988,2.25137251 Z M11.8577319,9.04184767 L11.3860775,9.06187032 L10.9917709,9.08411982 C10.9298103,9.08811068 10.8697561,9.09224141 10.8116504,9.09650983 L10.4867343,9.12375541 L10.2105976,9.15420174 L10.0369441,9.1790812 L10.0369441,9.1790812 L9.96415462,9.19167455 L9.93046473,9.19887478 L9.91770958,9.24685999 C9.70043421,10.2558615 9.69486305,16.4671042 9.90099609,17.7428873 L9.91770958,17.8331685 L9.93196473,17.8876248 L10.0449298,17.9102637 L10.2647459,17.9455003 C10.3994159,17.9645979 10.5547811,17.9828962 10.7292303,18.000229 L10.909981,18.0172336 L11.3082182,18.0491638 C11.5357555,18.0655925 11.6833218,18.1543801 11.8160598,18.2805061 C11.8708573,18.332574 11.9174511,18.3881123 11.964511,18.4523598 L12.0100121,18.5170076 L12.0576428,18.5895653 L12.1802759,18.7923118 L12.1802759,18.7923118 L12.5972566,19.5150038 L12.678669,19.6487844 L12.8294985,19.882351 L12.8294985,19.882351 L12.8992825,19.9824165 L12.9589647,20.0618748 L13.1070087,19.8741438 L13.6425804,19.1686189 L13.7960052,18.9740055 C13.8427934,18.9162079 13.8862735,18.8642216 13.9295819,18.8142598 L13.9948077,18.7403624 L14.0940742,18.632769 C14.3854005,18.3266999 14.6249699,18.1713158 14.9883416,18.1743214 L15.8124303,18.1774486 C17.1824639,18.1765535 18.5195137,18.1453458 19.5873857,18.0871619 L20.0626589,18.05826 C20.5144325,18.0276403 20.8941041,17.9919784 21.1872458,17.9522766 L21.3938171,17.921191 L21.3938171,17.921191 L21.4962147,17.9026248 L21.539731,17.6576821 C21.5528929,17.5727479 21.5656246,17.4794362 21.5778666,17.3782715 L21.6130636,17.051743 L21.6449645,16.6812435 C21.7064899,15.8820288 21.7427248,14.8594946 21.7493575,13.7891287 L21.7493575,13.0732485 L21.7406075,12.3735858 C21.7275727,11.6870902 21.7018277,11.0458185 21.6646705,10.5012739 L21.645147,10.2373007 L21.629781,10.0563454 C21.6034591,9.76388603 21.5736559,9.51767003 21.5415436,9.32638 L21.5247147,9.23037478 L21.3024815,9.21153606 C20.4895101,9.1517138 18.639976,9.06824877 16.7334768,9.02825578 L15.9528515,9.01449028 L15.0158819,9.00511696 L13.8639494,9.00434327 C13.1239537,9.00812408 12.4449892,9.02054058 11.8577319,9.04184767 Z M18.75,13.875 C19.1642136,13.875 19.5,14.2107864 19.5,14.625 C19.5,15.0096269 19.2104699,15.3266304 18.8374658,15.3699542 L18.75,15.375 L12.75,15.375 C12.3357864,15.375 12,15.0392136 12,14.625 C12,14.2403731 12.2895301,13.9233696 12.6625342,13.8800458 L12.75,13.875 L18.75,13.875 Z M4.35773185,3.79184767 L3.88607753,3.81187032 L3.49177095,3.83411982 C3.42981025,3.83811068 3.36975608,3.84224141 3.31165041,3.84650983 L2.98673433,3.87375541 L2.71059758,3.90420174 L2.53694411,3.9290812 L2.53694411,3.9290812 L2.46415462,3.94167455 L2.43046473,3.94887478 L2.41770958,3.99685999 C2.20043421,5.00586147 2.19486305,11.2171042 2.40099609,12.4928873 L2.41770958,12.5831685 L2.43196473,12.6376248 L2.54492979,12.6602637 L2.76474588,12.6955003 C2.89941588,12.7145979 3.05478111,12.7328962 3.22923026,12.750229 L3.40998104,12.7672336 L3.80821815,12.7991638 C4.03575555,12.8155925 4.18332183,12.9043801 4.31605978,13.0305061 C4.37085733,13.082574 4.41745111,13.1381123 4.46451096,13.2023598 L4.51001214,13.2670076 L4.55764281,13.3395653 L4.68027591,13.5423118 L4.68027591,13.5423118 L5.09725663,14.2650038 L5.17866899,14.3987844 L5.32949854,14.632351 L5.32949854,14.632351 L5.39928249,14.7324165 L5.45896473,14.8118748 L5.60700871,14.6241438 L6.14258041,13.9186189 L6.29600524,13.7240055 C6.34279339,13.6662079 6.38627351,13.6142216 6.42958191,13.5642598 L6.49480774,13.4903624 L6.59407425,13.382769 C6.88540053,13.0766999 7.12496987,12.9213158 7.48834158,12.9243214 L8.25476521,12.9274683 L8.25476521,12.9274683 C8.26719606,12.0321749 8.30729412,11.1569837 8.37501563,10.3986597 L8.40120901,10.1248065 L5.25,10.125 C4.83578644,10.125 4.5,9.78921356 4.5,9.375 C4.5,8.99037312 4.78953014,8.67336963 5.16253416,8.6300458 L5.25,8.625 L8.64603705,8.62408987 C8.71856388,8.35467265 8.80277152,8.15860833 8.89735013,8.06271947 C9.29544898,7.65910553 10.7700714,7.51710388 13.4568799,7.50137251 L14.2449017,7.5001666 C14.2374431,6.78030005 14.2154555,6.09827755 14.1810171,5.50984104 L14.145147,4.98730068 L14.129781,4.80634535 C14.1034591,4.51388603 14.0736559,4.26767003 14.0415436,4.07638 L14.0247147,3.98037478 L13.8024815,3.96153606 C12.9895101,3.9017138 11.139976,3.81824877 9.23347684,3.77825578 L8.45285151,3.76449028 L7.5158819,3.75511696 L6.36394935,3.75434327 C5.62395365,3.75812408 4.94498924,3.77054058 4.35773185,3.79184767 Z M18.75,10.875 C19.1642136,10.875 19.5,11.2107864 19.5,11.625 C19.5,12.0096269 19.2104699,12.3266304 18.8374658,12.3699542 L18.75,12.375 L12.75,12.375 C12.3357864,12.375 12,12.0392136 12,11.625 C12,11.2403731 12.2895301,10.9233696 12.6625342,10.8800458 L12.75,10.875 L18.75,10.875 Z M11.25,5.625 C11.6642136,5.625 12,5.96078644 12,6.375 C12,6.75962688 11.7104699,7.07663037 11.3374658,7.1199542 L11.25,7.125 L5.25,7.125 C4.83578644,7.125 4.5,6.78921356 4.5,6.375 C4.5,5.99037312 4.78953014,5.67336963 5.16253416,5.6300458 L5.25,5.625 L11.25,5.625 Z" id="Shape"></path>
                </g>
            </g>
        </g>
    </g>
</svg>