<svg xmlns="http://www.w3.org/2000/svg" width="15" height="15" viewBox="0 0 15 15">
    <g fill="none" fill-rule="evenodd">
        <g fill="#FFF">
            <g>
                <g>
                    <g>
                        <g>
                            <g>
                                <path
                                        d="M8.888 4.376v.668l-.003.677-.006.68c-.029 2.717-.123 5.346-.226 5.959-.085.502-.836 2.782-1.565 2.751-.611-.026-1.34-2.268-1.463-2.751-.152-.595-.254-3.035-.283-5.628l-.006-.678-.002-.34V4.702c.002-.41.006-.811.011-1.2l3.538.001c.003.284.005.576.005.873zM8.626-.406c.126.187.2 1.233.236 2.655H5.373C5.417.826 5.5-.22 5.625-.407c.432-.644 2.57-.644 3.001 0z"
                                        transform="translate(-730.000000, -237.000000) translate(531.000000, 111.000000) translate(0.000000, 36.000000) translate(157.000000, 48.000000) translate(35.555556, 35.555556) translate(7.111111, 7.111111) translate(7.111327, 7.111327) rotate(-315.000000) translate(-7.111327, -7.111327)"
                                />
                            </g>
                        </g>
                    </g>
                </g>
            </g>
        </g>
    </g>
</svg>