<svg xmlns="http://www.w3.org/2000/svg" width="56" height="56" viewBox="0 0 56 56">
    <g fill="none" fill-rule="evenodd">
        <g fill-rule="nonzero">
            <g>
                <g>
                    <g>
                        <path fill="#D2D8FF" d="M26.144 29.952l7.497-4.977c-3.756-2.027-4.837-6.982-4.284-11.242.842-6.557 10.349-8.04 14.443-6.762 9.664 3.014 8.568 13.388 7.183 15.725-1.368 2.205-3.608 3.711-6.15 4.138-2.407.316-4.353-.99-6.712-.422-3.427.828-11.977 3.54-11.977 3.54z" transform="translate(-63 -502) translate(63 479) translate(0 23) translate(2 13)"/>
                        <path fill="#231F20" d="M25.137 29.907l7.615-4.955c.083-.05.133-.138.133-.233s-.05-.184-.133-.233c-2.865-1.55-4.108-4.755-4.326-7.835-.098-1.434-.08-2.98.388-4.345.4-1.115 1.092-2.105 2.005-2.869 1.86-1.596 4.388-2.384 6.796-2.678 2.279-.34 4.608-.05 6.73.835 2.36.992 4.276 2.796 5.393 5.077.858 1.864 1.24 3.908 1.114 5.952-.077 1.535-.363 3.098-1.313 4.346-1.138 1.466-2.71 2.544-4.497 3.084-.89.26-1.826.338-2.749.23-.946-.112-1.87-.36-2.817-.488-1.404-.183-2.67.136-4.008.494-1.338.359-2.607.718-3.902 1.108-2.096.612-4.187 1.242-6.273 1.89l-.363.115c-.333.104-.192.624.145.52 1.712-.536 3.426-1.057 5.142-1.564 1.41-.423 2.823-.834 4.24-1.233 1.258-.359 2.614-.85 3.927-.868 1.97-.021 3.815.84 5.802.538 1.782-.312 3.431-1.135 4.744-2.367.85-.73 1.506-1.654 1.914-2.692.247-.738.41-1.5.486-2.274.522-4.618-1.342-9.362-5.512-11.75-2.162-1.226-4.648-1.781-7.133-1.592-2.538.151-5.146.804-7.253 2.206-1.01.644-1.865 1.501-2.502 2.51-.67 1.204-1.026 2.555-1.033 3.93-.16 3.086.525 6.518 2.77 8.81.54.546 1.16 1.01 1.839 1.376v-.448l-7.634 4.955c-.3.172-.029.638.265.448z" transform="translate(-63 -502) translate(63 479) translate(0 23) translate(2 13)"/>
                        <path fill="#FFF" d="M32.84 16.984c1.268 2.042 2.95-.331 1.827-1.512-1.392-1.46-2.347.687-1.828 1.512zM42.7 17.181c1.127 1.579 2.882-.334 1.852-1.294-1.325-1.237-2.48.418-1.852 1.294zM37.746 15.912c-1.159 1.24.67 2.314 1.849 1.688 1.63-.875-.5-3.125-1.85-1.688z" transform="translate(-63 -502) translate(63 479) translate(0 23) translate(2 13)"/>
                        <path fill="#231F20" d="M32.44 17.33c.453.602 1.156 1.1 1.935.86.59-.194 1.021-.71 1.115-1.331.107-.774-.418-1.395-1.077-1.716-.317-.165-.683-.21-1.03-.125-.292.082-.552.257-.74.498-.378.478-.6 1.276-.21 1.813.117.16.384 0 .268-.157-.228-.405-.204-.908.062-1.29.246-.458.77-.685 1.266-.55.346.107.656.312.895.589.164.195.259.44.268.697-.006.503-.286.961-.728 1.189-.686.348-1.355-.098-1.763-.642-.046-.072-.139-.096-.213-.055-.035.022-.06.058-.07.1-.009.04 0 .084.022.12zM42.292 17.413c.422.583 1.075.994 1.801.783.578-.18 1.027-.649 1.19-1.245.077-.284.063-.586-.042-.861-.163-.355-.432-.646-.768-.834-.318-.214-.699-.31-1.078-.272-.325.046-.626.2-.858.437-.533.52-.635 1.353-.245 1.992.115.164.388 0 .272-.165-.287-.446-.259-1.033.07-1.448.332-.468.94-.631 1.452-.39.513.225 1.005.694.925 1.309-.08.488-.393.903-.834 1.105-.244.114-.52.136-.778.064-.341-.11-.635-.336-.835-.64-.122-.164-.394-.003-.272.165zM37.406 15.614c-.31.31-.487.72-.498 1.152.018.357.18.693.45.936.602.528 1.455.69 2.218.423.675-.2 1.119-.825 1.073-1.508-.102-.628-.511-1.168-1.098-1.448-.331-.166-.708-.227-1.076-.174-.43.074-.82.293-1.098.619-.14.153.091.38.234.224.216-.247.504-.423.827-.505.259-.062.53-.046.78.046.503.177.892.571 1.054 1.067.078.221.078.462 0 .683-.105.248-.291.455-.531.587-.6.33-1.34.31-1.922-.05-.289-.166-.494-.442-.567-.761-.044-.395.1-.788.392-1.067.131-.15-.1-.38-.238-.224z" transform="translate(-63 -502) translate(63 479) translate(0 23) translate(2 13)"/>
                        <path fill="#D2D8FF" d="M22.932 19.656l-6.698-4.18c3.347-1.703 4.31-5.866 3.829-9.444C19.319.52 10.848-.72 7.203.351-1.417 2.876-.425 11.598.8 13.56c1.26 1.88 3.251 3.14 5.483 3.474 2.155.267 3.875-.83 5.98-.361 3.052.703 10.669 2.983 10.669 2.983z" transform="translate(-63 -502) translate(63 479) translate(0 23) translate(2 13)"/>
                        <path fill="#231F20" d="M24.21 19.615l-6.68-4.162v.467c2.507-1.303 3.74-3.95 4.008-6.686.169-1.307.079-2.635-.265-3.907-.318-.987-.891-1.872-1.662-2.564C17.981 1.262 15.743.51 13.587.192c-2.046-.365-4.15-.208-6.12.456C5.27 1.4 3.412 2.909 2.22 4.907 1.322 6.547.88 8.398.942 10.268c.028 1.246.2 2.69.899 3.756.901 1.308 2.163 2.324 3.631 2.923 1.453.584 3.048.71 4.574.36.839-.198 1.698-.295 2.56-.292.584.057 1.16.17 1.723.338 1.15.287 2.288.603 3.427.92 1.972.552 3.938 1.12 5.899 1.705l.358.1c.137.026.27-.057.308-.192.037-.135-.034-.276-.165-.325-3.452-1.034-6.92-2.09-10.429-2.912-1.457-.359-2.797-.021-4.24.216-1.616.275-3.277-.033-4.688-.87-1.075-.613-2.149-1.515-2.693-2.639-.227-.484-.389-.996-.48-1.522-.663-3.62.67-7.51 3.792-9.57C7.188 1.106 9.262.509 11.374.55c2.142-.013 4.257.479 6.174 1.436 1.91 1.006 3.224 2.593 3.446 4.787.25 2.61-.24 5.566-2.15 7.509-.467.474-1.008.87-1.6 1.174-.081.05-.131.138-.131.233 0 .096.05.184.131.234l6.694 4.158c.293.183.565-.284.272-.467z" transform="translate(-63 -502) translate(63 479) translate(0 23) translate(2 13)"/>
                        <path fill="#FFF" d="M16.238 9.162c-1.27 1.7-2.951-.276-1.83-1.261 1.39-1.216 2.346.573 1.83 1.26zM7.312 9.226c-1.136 1.578-2.88-.336-1.851-1.295 1.328-1.238 2.479.42 1.85 1.295zM11.792 7.957c1.173 1.24-.668 2.312-1.845 1.688-1.626-.856.5-3.133 1.845-1.688z" transform="translate(-63 -502) translate(63 479) translate(0 23) translate(2 13)"/>
                        <path fill="#231F20" d="M16.35 8.893c-.384.424-.949.768-1.571.594-.457-.141-.786-.49-.853-.908-.03-.204.018-.412.138-.59.188-.248.455-.443.769-.561.466-.208 1.038-.094 1.352.27.16.177.266.386.308.608.045.202-.006.412-.142.58-.046.073-.019.163.061.207.084.038.186.015.238-.053.29-.438.26-.983-.077-1.395-.329-.496-1.003-.734-1.637-.578-.691.18-1.352.705-1.364 1.366.004.54.36 1.03.918 1.268.33.139.707.165 1.057.073.445-.137.83-.391 1.1-.727.023-.035.03-.076.018-.115-.011-.039-.04-.072-.08-.092-.082-.037-.184-.014-.234.053zM7.024 9.425c-.253.423-.74.636-1.213.53-.382-.125-.68-.436-.792-.831-.057-.184-.05-.381.016-.56.111-.239.293-.435.52-.561.222-.157.491-.228.76-.202.21.033.405.137.552.294.358.345.424.903.157 1.326-.04.074-.016.167.053.212.072.04.163.016.207-.055.298-.479.267-1.099-.077-1.544-.166-.232-.399-.404-.666-.492-.303-.091-.627-.066-.913.071-.54.24-1.02.745-.94 1.388.073.52.4.964.867 1.179.273.126.58.15.87.068.35-.126.65-.366.856-.683.04-.074.017-.168-.054-.212-.075-.033-.163-.002-.203.072zM11.97 8.235c.225.215.353.505.357.809-.034.236-.162.45-.357.596-.447.36-1.063.454-1.604.247-.238-.09-.44-.251-.578-.46-.053-.086-.088-.181-.103-.28 0 0 0-.038 0 0-.002-.013-.002-.025 0-.038-.002-.025-.002-.05 0-.075-.002-.023-.002-.046 0-.069-.002-.016-.002-.032 0-.048v-.02c.088-.428.38-.79.788-.98.22-.107.468-.147.713-.117.302.061.574.22.77.449.136.15.357-.069.228-.216-.403-.48-1.076-.665-1.683-.466-.527.185-.932.598-1.095 1.114-.072.245-.06.506.036.743.124.276.341.503.617.645.633.334 1.409.297 2.004-.096.297-.19.502-.486.567-.823.039-.418-.115-.83-.42-1.13-.147-.151-.375.068-.24.215z" transform="translate(-63 -502) translate(63 479) translate(0 23) translate(2 13)"/>
                    </g>
                </g>
            </g>
        </g>
    </g>
</svg>
