<svg xmlns="http://www.w3.org/2000/svg" width="56" height="56" viewBox="0 0 56 56">
    <g fill="none" fill-rule="evenodd">
        <g fill-rule="nonzero">
            <g>
                <g>
                    <g>
                        <path fill="#C6CCFF" d="M27.882 4.303C21.96 2.953 15.868 7.465 14.287 14.42c-.687 2.902-.445 5.947.693 8.704 1.148 2.631 1.727 5.476 1.697 8.347-.044 2.09 1.635 3.996 3.962 4.527 2.33.534 4.67-.455 5.539-2.359 1.219-2.598 2.975-4.909 5.153-6.778 2.222-1.992 3.76-4.632 4.395-7.547 1.58-6.936-1.922-13.658-7.844-15.011z" transform="translate(-155 -502) translate(63 479) translate(92 23) translate(2 4)"/>
                        <path fill="#000" d="M18.593 44.635c-.316.996 0 2.356.984 2.874.497.244 1.068.293 1.6.136.373-.153.68-.438.86-.8.298-.46.542-.953.727-1.47.018-.075-.027-.152-.102-.174l-3.395-.581-.49-.086c-.18-.031-.256.244-.076.275l3.395.582.49.085-.098-.177c-.178.5-.415.978-.705 1.423-.12.208-.277.393-.461.547-.222.13-.477.192-.734.177-.636.037-1.234-.304-1.527-.87-.304-.572-.371-1.242-.186-1.865.02-.077-.025-.157-.103-.178-.078-.021-.158.025-.179.102z" transform="translate(-155 -502) translate(63 479) translate(92 23) translate(2 4)"/>
                        <path fill="#FFF" d="M27.297 36.965c.487.086.949 2.846-1.097 3.238-2.26.427-7.433-.108-8.852-.69-.461-.155-.89-.392-1.265-.701-.407-.352-.638-.866-.632-1.404.035-.695.518-1.242.967-1.71l10.88 1.267z" transform="translate(-155 -502) translate(63 479) translate(92 23) translate(2 4)"/>
                        <path fill="#000" d="M27.26 37.105c.227.056.284.632.315.806.053.454-.026.914-.227 1.324-.547 1.04-1.986.965-2.997.977-1.328.012-2.654-.065-3.971-.23-1.038-.078-2.062-.29-3.045-.633-.892-.357-1.897-1.024-1.695-2.143.1-.4.301-.767.585-1.066.086-.098.18-.278.25-.297.146-.005.292.012.433.05l.838.099 5.527.632 4.04.471c.18.022.18-.262 0-.284l-9.978-1.148-.727-.086c-.228-.025-.263 0-.443.19-.518.563-.977 1.265-.815 2.055.16.79.831 1.34 1.558 1.663 1.058.415 2.171.671 3.304.762 1.467.196 2.947.277 4.426.244 1.18-.035 2.583-.086 3.067-1.373.174-.485.212-1.009.108-1.514-.051-.262-.162-.699-.465-.775-.19-.044-.266.231-.089.276z" transform="translate(-155 -502) translate(63 479) translate(92 23) translate(2 4)"/>
                        <path fill="#FFF" d="M16.791 39.337c.147.756.246 1.52.297 2.289-.002.502.085 1 .257 1.473.252.468.614.867 1.056 1.163.682.57 1.496.96 2.368 1.135.887.167 1.798-.124 2.424-.774.314-.432.56-.908.73-1.413.429-.938.924-1.844 1.484-2.71l-8.616-1.163z" transform="translate(-155 -502) translate(63 479) translate(92 23) translate(2 4)"/>
                        <path fill="#000" d="M16.655 39.375c.153.836.259 1.68.316 2.529 0 .6.178 1.186.51 1.685.789.982 1.89 1.666 3.12 1.938 1.065.206 2.242-.098 2.874-1.027.386-.57.575-1.265.882-1.869.35-.702.762-1.372 1.173-2.042.022-.039.025-.085.009-.126-.017-.04-.052-.071-.094-.083l-7.547-1.03-1.069-.146c-.177-.022-.256.25-.076.275l7.55 1.034 1.066.145-.086-.208c-.344.562-.692 1.128-1.002 1.713-.31.585-.518 1.157-.793 1.733-.527 1.096-1.769 1.652-2.938 1.315-.589-.152-1.146-.41-1.644-.759-.522-.31-.972-.727-1.321-1.223-.351-.573-.316-1.265-.373-1.923-.057-.657-.155-1.353-.278-2.02-.038-.168-.313-.082-.279.089zM25.536 3.813c-5.248-.651-9.842 3.032-11.786 7.695-1.205 2.901-1.48 6.105-.787 9.169.177.773.422 1.53.73 2.26.316.781.759 1.512 1.122 2.277.76 1.601 1.307 3.296 1.625 5.04.149.812.152 1.656.316 2.462.13.594.383 1.154.743 1.644.799 1.06 1.955 1.794 3.254 2.065 1.32.3 2.703.126 3.907-.493.556-.29 1.048-.688 1.448-1.17.4-.54.706-1.143.908-1.783.6-1.555 1.399-3.025 2.377-4.373.927-1.29 2.097-2.368 3.023-3.655 1.772-2.512 2.724-5.512 2.725-8.587.029-5.083-2.71-10.449-7.752-12.134-.58-.19-1.175-.327-1.78-.408-.297-.04-.427.415-.127.456 5.075.695 8.436 5.28 9.065 10.136.373 2.894-.123 5.835-1.423 8.448-.676 1.278-1.527 2.456-2.53 3.5-1.032 1.13-1.941 2.368-2.712 3.692-.386.67-.733 1.361-1.04 2.071-.224.66-.495 1.304-.813 1.925-.731 1.106-1.911 1.834-3.228 1.992-1.336.192-2.696-.126-3.81-.891-1.089-.752-1.77-1.964-1.846-3.285-.15-1.595-.492-3.165-1.02-4.676-.275-.772-.592-1.527-.95-2.264-.334-.702-.733-1.372-1.04-2.09-1.209-2.931-1.416-6.18-.588-9.241 1.237-4.743 5.132-9.115 10.27-9.374.574-.028 1.15-.004 1.72.07.303.034.3-.44 0-.478z" transform="translate(-155 -502) translate(63 479) translate(92 23) translate(2 4)"/>
                        <path fill="#000" d="M21.044 34.75c.733-4.595.796-9.255.771-13.883 0-1.1.035-2.214-.063-3.31-.08-.892-.26-1.879-.844-2.59-.446-.603-1.234-.84-1.938-.585-.705.316-.867 1.198-.585 1.862.705 1.673 3.057 2.033 4.638 1.998 1.58-.034 3.389-.382 4.322-1.76.338-.5.543-1.344.015-1.8-.527-.455-1.305-.07-1.628.456-.194.378-.322.786-.38 1.207-.107.57-.201 1.14-.284 1.714-.142 1.021-.25 2.046-.332 3.07-.407 4.926-.341 9.968-1.957 14.701-.06.174.215.247.275.076 1.183-3.477 1.474-7.145 1.698-10.78.114-1.84.215-3.684.411-5.518.105-.97.234-1.941.411-2.902.053-.386.142-.766.266-1.135.177-.459.724-1.062 1.264-.721.784.49-.057 1.65-.502 2.036-.605.48-1.322.796-2.084.92-1.58.316-3.522.266-4.922-.632-.705-.452-1.581-1.581-.76-2.356.772-.736 1.816.089 2.176.82.42.856.49 1.855.512 2.794.022.94.02 1.932.022 2.896 0 4.461-.066 8.941-.771 13.355-.029.18.243.256.275.076l-.006-.01z" transform="translate(-155 -502) translate(63 479) translate(92 23) translate(2 4)"/>
                        <path fill="#FFF" d="M17.288 33.968c-.344-.01-.682.09-.965.285-.284.202-.432.546-.382.891.082.42.5.683.888.87 1.553.736 3.27 1.043 4.97 1.264 1.296.217 2.617.245 3.92.083.502-.057.982-.23 1.404-.506.42-.284.673-.758.674-1.265-.031-.52-.453-.931-.974-.948l-9.535-.674z" transform="translate(-155 -502) translate(63 479) translate(92 23) translate(2 4)"/>
                        <path fill="#000" d="M17.288 33.83c-.563.021-1.151.205-1.404.752-.204.455-.048.99.37 1.264.53.356 1.113.623 1.73.79.747.245 1.512.433 2.288.563 1.559.275 3.19.516 4.771.39 1.103-.086 2.694-.4 2.883-1.736.051-.344-.05-.693-.279-.956-.228-.262-.559-.412-.906-.41-.411-.022-.825-.057-1.236-.086l-4.771-.316-3.446-.256c-.184 0-.184.272 0 .285l6.424.44 2.962.205c.076 0 .159 0 .234.015.848.117.886 1.116.437 1.67-.45.553-1.145.702-1.796.796-.714.094-1.435.117-2.153.067-1.568-.09-3.123-.337-4.641-.737-.75-.18-1.472-.465-2.144-.844-.35-.215-.632-.544-.493-.977.167-.484.708-.632 1.17-.648.18.003.183-.272 0-.272zM12.163 5.406c-.541-.727-1.319-1.198-2.005-1.77-.74-.619-1.411-1.314-2.004-2.074-.114-.146-.316.057-.203.199.58.743 1.233 1.424 1.951 2.033.68.569 1.477 1.04 2.014 1.758.11.145.357 0 .247-.143v-.003zM10.029 14.496c-3.331-.221-6.677.085-9.912.907-.076.021-.12.1-.1.176.021.076.1.12.176.1 3.21-.818 6.53-1.121 9.836-.899.183 0 .18-.271 0-.284zM10.484 25.11C7.97 26.1 5.59 27.4 3.399 28.981c-.149.108 0 .354.142.247 2.17-1.569 4.528-2.86 7.019-3.845.167-.066.095-.341-.076-.275zM40.032 20.955c2.041-.436 4.164-.293 6.127.414.174.06.247-.215.076-.275-2.01-.717-4.18-.86-6.266-.414-.18.038-.104.316.076.275h-.013zM39.95 12.33c4.259-1.106 8.578-1.96 12.937-2.56.18-.023.101-.298-.076-.273-4.359.598-8.679 1.452-12.937 2.558-.076.021-.12.1-.1.176.021.076.1.12.176.1zM34.964 3.554c1.108-1.395 2.604-2.43 4.3-2.975.174-.057.098-.317-.076-.275-1.744.557-3.284 1.619-4.426 3.05-.114.14.088.345.202.2z" transform="translate(-155 -502) translate(63 479) translate(92 23) translate(2 4)"/>
                    </g>
                </g>
            </g>
        </g>
    </g>
</svg>
