<?xml version="1.0" encoding="UTF-8"?>
<svg width="24px" height="24px" viewBox="0 0 24 24" version="1.1" xmlns="http://www.w3.org/2000/svg" xmlns:xlink="http://www.w3.org/1999/xlink">
    <title>23B0E151-5146-42EC-9890-55A959EA4F7D</title>
    <g id="Symbols" stroke="none" stroke-width="1" fill="none" fill-rule="evenodd">
        <g id="icons/share" fill="#001A36">
            <path d="M17.625,14.25 C16.3531265,14.25 15.2441597,14.9576225 14.6689911,15.9993668 L9.58630367,13.0345002 C9.69166948,12.7081719 9.75,12.3609352 9.75,12 C9.75,11.6389961 9.69163511,11.2917595 9.58623504,10.9653969 L14.6688881,8.00042728 C15.2440567,9.04227448 16.3530235,9.75 17.625,9.75 C19.486084,9.75 21,8.23608396 21,6.375 C21,4.51391604 19.486084,3 17.625,3 C15.763916,3 14.25,4.51391604 14.25,6.375 C14.25,6.55912397 14.2688141,6.73854448 14.2973098,6.91473771 L9.06338882,9.96797561 C8.44664385,9.15406039 7.47270587,8.625 6.375,8.625 C4.51391599,8.625 3,10.138916 3,12 C3,13.861084 4.51391604,15.375 6.375,15.375 C7.47274018,15.375 8.44671247,14.8459053 9.0634575,14.0319214 L14.2973442,17.0849876 C14.2688141,17.2612839 14.25,17.440773 14.25,17.625 C14.25,19.486084 15.763916,21 17.625,21 C19.486084,21 21,19.486084 21,17.625 C21,15.763916 19.486084,14.25 17.625,14.25 Z" id="Shape"></path>
        </g>
    </g>
</svg>