<svg width="129" height="46" viewBox="0 0 129 46" fill="none" xmlns="http://www.w3.org/2000/svg">
<path d="M23.1615 34.8172C22.6225 34.902 22.078 34.9468 21.5326 34.9515C21.1088 34.9515 20.6983 34.9515 20.301 34.8844C17.9364 34.6297 15.7207 33.5913 13.9972 31.9301C13.8515 31.7958 13.7191 31.6615 13.5866 31.5138C13.4542 31.3661 13.4409 31.3392 13.3615 31.2452C11.5435 29.1186 10.5428 26.3986 10.5428 23.5842C10.5428 20.7699 11.5435 18.0499 13.3615 15.9232C13.4409 15.8292 13.5072 15.7352 13.5866 15.6547C13.6661 15.5741 13.8515 15.3727 13.9972 15.2384C15.7207 13.5772 17.9364 12.5388 20.301 12.2841C20.6983 12.2841 21.1088 12.2841 21.5326 12.2841C22.078 12.2888 22.6225 12.3337 23.1615 12.4184C23.8237 11.6932 24.4858 10.9278 25.042 10.149C24.1942 9.93971 23.3302 9.80492 22.4596 9.74609C22.155 9.74609 21.8504 9.74609 21.5326 9.74609C21.1618 9.74609 20.8042 9.74609 20.4466 9.74609H20.1553C17.5 9.99217 14.9798 11.0452 12.9245 12.7675L12.8185 12.8481L12.1299 13.4927C12.0504 13.5867 11.9445 13.6538 11.865 13.7478L11.6531 13.9895L11.5074 14.1372L11.375 14.2984C9.1247 16.8948 7.89863 20.242 7.93177 23.6984C7.8936 27.1557 9.12033 30.5046 11.375 33.0984C11.4233 33.1532 11.4675 33.2116 11.5074 33.273L11.6531 33.4072L11.865 33.649C11.9445 33.743 12.0504 33.8101 12.1299 33.9041L12.8185 34.5487L12.9245 34.6292C14.9728 36.3633 17.4968 37.418 20.1553 37.6507H20.3936C20.7512 37.6507 21.1088 37.6507 21.4796 37.6507C21.7974 37.6507 22.102 37.6507 22.4066 37.6507C23.278 37.5984 24.1425 37.4635 24.9891 37.2478C24.4461 36.3078 23.8237 35.5424 23.1615 34.8172Z" fill="#6B718E"/>
<path d="M27.3863 40.1887C26.6571 40.4239 25.9139 40.6123 25.1614 40.7527C24.8303 40.8199 24.486 40.8736 24.1549 40.9138H23.6516C23.212 40.965 22.7699 40.9919 22.3273 40.9944H22.1022H21.4533H20.4203C17.0665 40.6797 13.8831 39.351 11.2825 37.1807C10.9779 36.9256 10.6865 36.6301 10.3952 36.3481C10.1038 36.0661 9.97138 35.9453 9.77273 35.717L9.45489 35.3679C6.6526 32.1024 5.10915 27.9197 5.10915 23.591C5.10915 19.2623 6.6526 15.0796 9.45489 11.8141L9.77273 11.4516C9.97138 11.2367 10.1833 11.0353 10.3952 10.8339C10.6071 10.6324 10.9779 10.2564 11.2825 10.0013C13.8831 7.83095 17.0665 6.50236 20.4203 6.18758C20.8706 6.18758 21.3341 6.18758 21.7446 6.12043H22.2744C22.7169 6.12299 23.159 6.14988 23.5987 6.201L24.1019 6.26815C24.433 6.26815 24.7773 6.36214 25.1084 6.42928C25.861 6.5697 26.6041 6.75807 27.3333 6.99328C27.5716 6.671 27.8365 6.37557 28.0881 6.05329C27.5319 5.85186 26.9492 5.69071 26.3798 5.54299L25.7044 5.42214L24.6714 5.22072L23.8768 5.12671C23.2808 5.05957 22.6716 5.01929 22.0625 5.00586H21.9565C21.5062 5.00586 21.0692 5.00586 20.6322 5.07301H20.1422C16.6122 5.39469 13.2629 6.80003 10.5408 9.10158L10.3687 9.23585L9.48138 10.055L9.11057 10.4042L8.80596 10.7399L8.64705 10.9144L8.47488 11.1159C5.4668 14.5628 3.82079 19.0152 3.853 23.6179C3.82079 28.2205 5.4668 32.6729 8.47488 36.1199L8.64705 36.3213L8.80596 36.4959L9.11057 36.8182C9.22976 36.9524 9.36219 37.0598 9.48138 37.1807C9.60057 37.3016 10.0641 37.7313 10.3687 37.9864L10.5408 38.1341C13.2629 40.4357 16.6122 41.841 20.1422 42.1627H20.6322C21.056 42.1627 21.493 42.1627 21.9565 42.1627H22.0625C22.6716 42.1627 23.2808 42.1627 23.8768 42.0419L24.6714 41.9479C25.0157 41.8941 25.36 41.827 25.7044 41.7464C25.9295 41.7464 26.1546 41.7464 26.3798 41.6256C26.9492 41.4779 27.5319 41.3167 28.0881 41.1153C27.8895 40.8064 27.6246 40.511 27.3863 40.1887Z" fill="#7A819C"/>
<path d="M30.4455 43.8139C29.9158 44.0154 29.3728 44.19 28.8298 44.3645L28.2603 44.5257C27.7968 44.66 27.3201 44.7674 26.8433 44.8614L26.446 44.9554L24.7377 45.1971H24.5523C23.8901 45.1971 23.2279 45.2911 22.5658 45.2911C21.9036 45.2911 21.1355 45.2911 20.4468 45.1837C16.2503 44.7897 12.2679 43.1239 9.01791 40.4031C8.63386 40.0808 8.27629 39.7182 7.91872 39.3691C7.56115 39.02 7.389 38.8588 7.13738 38.5768L6.74007 38.1337C3.21291 34.0438 1.26893 28.7953 1.26893 23.3622C1.26893 17.9292 3.21291 12.6806 6.74007 8.59081L7.13738 8.14767C7.389 7.86567 7.65386 7.61053 7.91872 7.35539C8.18359 7.10024 8.63386 6.64367 9.01791 6.32138C12.2679 3.60058 16.2503 1.93479 20.4468 1.54081C21.1355 1.54081 21.8506 1.43338 22.5658 1.43338C23.2809 1.43338 23.8901 1.43338 24.5523 1.52738H24.7377C25.3071 1.52738 25.8766 1.6751 26.446 1.7691L26.8433 1.84967C27.3201 1.95709 27.7968 2.06453 28.2603 2.19881L28.8298 2.35996C29.3728 2.5211 29.9158 2.7091 30.4455 2.91052C30.6044 2.74938 30.7501 2.57481 30.909 2.40024C30.5382 2.25253 30.1674 2.13167 29.7966 2.01081L29.492 1.91681L28.3928 1.5811C28.0617 1.4871 27.7439 1.40653 27.4128 1.33938L26.552 1.15138C26.0885 1.05738 25.6117 0.990247 25.1349 0.936533H24.6052C23.9298 0.936533 23.2809 0.829102 22.579 0.829102C22.0493 0.829102 21.5328 0.829098 21.0163 0.90967C20.8176 0.90967 20.6058 0.90967 20.4071 0.90967C16.1459 1.28673 12.0969 2.96267 8.79278 5.7171L8.54116 5.91852C8.188 6.2229 7.84368 6.54519 7.50818 6.88538C7.34927 7.03309 7.1771 7.16738 7.03143 7.32853C6.88575 7.48967 6.79305 7.61052 6.66062 7.74481L6.47521 7.93281C6.47521 7.99995 6.35602 8.09395 6.28981 8.16109C2.62863 12.34 0.62354 17.7458 0.66143 23.3354C0.576337 28.9704 2.56939 34.4346 6.25008 38.6574C6.3163 38.6574 6.36927 38.8185 6.43548 38.8857L6.62089 39.0737C6.74008 39.208 6.85927 39.3557 6.9917 39.4899C7.12413 39.6242 7.30954 39.7854 7.46846 39.9331C7.62738 40.0808 8.14386 40.5911 8.50143 40.9L8.75305 41.1014C12.0572 43.8558 16.1061 45.5317 20.3674 45.9088C20.566 45.9088 20.7779 45.9088 20.9766 45.9088C21.493 45.9088 22.0095 45.976 22.5393 45.976C23.2279 45.976 23.8636 45.976 24.5655 45.882L25.082 45.8148C25.572 45.8148 26.0355 45.694 26.5122 45.6L27.373 45.412L28.3531 45.1702L29.4522 44.8345L29.7568 44.7405C30.1276 44.6062 30.4985 44.4988 30.8693 44.3511C30.7501 44.1497 30.6044 44.0288 30.4455 43.8139Z" fill="#8D91A9"/>
<path d="M14.0184 23.5823C14.0184 19.0327 17.6312 15.6943 22.118 15.6943C24.3031 15.6943 26.3717 16.4034 28.2364 18.4714L25.4977 21.2189C24.5945 20.2439 23.633 19.6826 22.118 19.6826C20.0203 19.6826 18.3596 21.3075 18.3596 23.5823C18.3596 25.8275 20.0203 27.4524 22.118 27.4524C23.633 27.4524 24.5945 26.8911 25.4977 25.9162L28.2364 28.6637C26.3717 30.7317 24.3031 31.4407 22.118 31.4407C17.6312 31.4407 14.0184 28.1319 14.0184 23.5823Z" fill="#2E3452"/>
<path d="M28.7577 23.6118C28.7577 19.2099 32.3705 15.7239 36.9156 15.7239C41.4315 15.7239 45.0734 19.2099 45.0734 23.6118C45.0734 28.0137 41.4315 31.4998 36.9156 31.4998C32.3705 31.4998 28.7577 28.0137 28.7577 23.6118ZM33.0989 23.6118C33.0989 25.798 34.7596 27.5115 36.9156 27.5115C39.0424 27.5115 40.7323 25.798 40.7323 23.6118C40.7323 21.4552 39.0424 19.7122 36.9156 19.7122C34.7596 19.7122 33.0989 21.4552 33.0989 23.6118Z" fill="#2E3452"/>
<path d="M46.9548 31.0566V16.167H51.2959V18.0282C51.8495 16.7283 53.3063 15.842 55.1126 15.842C57.123 15.842 58.4341 16.6693 59.1042 18.2055C60.0656 16.3443 61.9303 15.842 63.9989 15.842C67.3494 15.842 69.2141 18.1759 69.2141 22.0165V31.0566H64.8729V22.5483C64.8729 20.8348 64.1154 19.7417 62.6878 19.7417C61.2602 19.7417 60.2404 20.953 60.2404 22.696V31.0566H55.8993V22.5483C55.8993 20.8348 55.1418 19.7417 53.7142 19.7417C52.3157 19.7417 51.2959 20.953 51.2959 22.696V31.0566H46.9548Z" fill="#2E3452"/>
<path d="M71.5955 31.0566V16.167H75.9367V18.0282C76.4902 16.7283 77.947 15.842 79.7534 15.842C81.7637 15.842 83.0748 16.6693 83.7449 18.2055C84.7063 16.3443 86.571 15.842 88.6396 15.842C91.9901 15.842 93.8548 18.1759 93.8548 22.0165V31.0566H89.5136V22.5483C89.5136 20.8348 88.7561 19.7417 87.3285 19.7417C85.9009 19.7417 84.8811 20.953 84.8811 22.696V31.0566H80.54V22.5483C80.54 20.8348 79.7825 19.7417 78.3549 19.7417C76.9564 19.7417 75.9367 20.953 75.9367 22.696V31.0566H71.5955Z" fill="#2E3452"/>
<path d="M95.5953 23.6118C95.5953 19.2099 99.208 15.7239 103.753 15.7239C108.269 15.7239 111.911 19.2099 111.911 23.6118C111.911 28.0137 108.269 31.4998 103.753 31.4998C99.208 31.4998 95.5953 28.0137 95.5953 23.6118ZM99.9364 23.6118C99.9364 25.798 101.597 27.5115 103.753 27.5115C105.88 27.5115 107.57 25.798 107.57 23.6118C107.57 21.4552 105.88 19.7122 103.753 19.7122C101.597 19.7122 99.9364 21.4552 99.9364 23.6118Z" fill="#2E3452"/>
<path d="M113.792 31.0566V16.167H118.133V18.0282C118.745 16.7283 120.377 15.842 122.416 15.842C126.029 15.842 128.039 18.1759 128.039 22.0165V31.0566H123.698V22.5483C123.698 20.8348 122.766 19.7417 121.018 19.7417C119.357 19.7417 118.133 20.953 118.133 22.696V31.0566H113.792Z" fill="#2E3452"/>
</svg>
