<?xml version="1.0" encoding="UTF-8"?>
<svg width="16px" height="16px" viewBox="0 0 16 16" version="1.1" xmlns="http://www.w3.org/2000/svg" xmlns:xlink="http://www.w3.org/1999/xlink">
    <title>438CF386-CC22-4B6D-8341-00F17E1A3781</title>
    <g id="desktop" stroke="none" stroke-width="1" fill="none" fill-rule="evenodd">
        <g id="01.03.02-Common-page---Discussions-scrolled" transform="translate(-957.000000, -580.000000)" fill="#6EE569" fill-rule="nonzero">
            <g id="Group" transform="translate(120.000000, 40.000000)">
                <g id="Group-7" transform="translate(821.000000, 412.000000)">
                    <g id="components/common-profile/latest/proposal---regular" transform="translate(0.000000, 44.000000)">
                        <g id="icons/approved-filled-16" transform="translate(16.000000, 84.000000)">
                            <path d="M8,1.33333333 C11.6761474,1.33333333 14.6666667,4.32385255 14.6666667,8 C14.6666667,11.6761474 11.6761474,14.6666667 8,14.6666667 C4.32385255,14.6666667 1.33333333,11.6761474 1.33333333,8 C1.33333333,4.32385255 4.32385255,1.33333333 8,1.33333333 Z M11.2816569,5.8994751 C11.1188965,5.73671469 10.8550211,5.73671469 10.6922607,5.8994751 L10.6922607,5.8994751 L7.37550862,9.21612549 L5.86448161,7.70499674 C5.70161948,7.54223633 5.43774414,7.54223633 5.27498372,7.70499674 C5.11222331,7.86775716 5.11222331,8.1316325 5.27498372,8.29449464 L5.27498372,8.29449464 L7.08050536,10.1000163 C7.16168214,10.1817017 7.26829021,10.2221883 7.375,10.2221883 C7.48170979,10.2221883 7.58831786,10.1817017 7.67051187,10.1000163 L7.67051187,10.1000163 L11.2816569,6.48887125 C11.4444173,6.32611083 11.4444173,6.06223552 11.2816569,5.8994751 Z" id="Combined-Shape"></path>
                        </g>
                    </g>
                </g>
            </g>
        </g>
    </g>
</svg>