<?xml version="1.0" encoding="UTF-8"?>
<svg width="276px" height="276px" viewBox="0 0 276 276" version="1.1" xmlns="http://www.w3.org/2000/svg" xmlns:xlink="http://www.w3.org/1999/xlink">
    <title>7264E3C8-599E-4AD3-83E7-5DE590124821</title>
    <g id="desktop" stroke="none" stroke-width="1" fill="none" fill-rule="evenodd">
        <g id="01.04.04-Common-page---Proposals---empty-state" transform="translate(-325.000000, -787.000000)" fill-rule="nonzero">
            <g id="illustrations/full-page/volunteering" transform="translate(325.000000, 787.000000)">
                <g id="common-07-copy" transform="translate(16.560000, 18.400000)">
                    <g id="Group" opacity="0.1" fill="#7786FF">
                        <path d="M134.883595,8.46081001 C140.622964,11.3099221 160.983109,23.7035597 166.217626,23.8120973 C187.521048,24.2530313 207.774909,46.5439415 223.591387,70.6189386 C229.104902,79.0102521 234.432418,87.9713879 237.733883,98.2892438 C241.101777,108.803824 242.164623,120.186705 242.107204,131.128652 C241.978625,155.73277 236.252542,179.075139 226.016005,196.759984 C220.303207,206.636906 212.99614,214.912898 203.975234,217.66704 C197.299232,219.70212 190.085164,218.603177 183.103594,218.915223 C170.482296,219.478261 158.664776,224.62023 146.64133,228.50045 C121.265879,236.695039 97.4846974,243.42437 68.9207084,235.195863 C-12.3471617,211.853495 -2.58890593,104.659044 4.71816103,90.5695068 C13.6194971,73.3866475 26.9515729,41.3137858 40.7685723,32.6986135 C47.3117186,28.6216698 79.655454,-18.9381512 134.883595,8.46081001 Z" id="Path"></path>
                    </g>
                    <polygon id="Path" fill="#D7DFFF" points="234.47608 20.9272403 234.705528 21.0063603 234.705528 20.9509763"></polygon>
                    <path d="M40.0203724,230.109427 C42.7278559,203.625968 44.150555,176.979859 44.2739524,150.333751 C44.2739524,146.5504 44.2739524,142.675116 43.0690134,139.132202 C42.0963517,136.261098 37.704857,130.441102 36.6378326,127.605356 C35.0118908,123.270413 35.795827,121.24084 35.774051,116.552313 L35.643395,85.0408851 C35.643395,81.3353222 35.6942056,77.3186052 37.7556676,74.3767844 C39.4614549,74.3767844 40.1510284,76.7670138 40.3470125,78.6197952 L43.2504801,105.980144 L45.1086993,66.7817949 C45.1885447,65.1977375 45.7111689,63.1045188 47.155644,63.1257338 C49.7106955,66.2514185 49.9720076,70.8338703 50.1026636,75.0415227 L50.9882212,104.03543 C52.6504564,96.3838675 52.2947817,88.3999353 52.8174058,80.5432935 C53.34003,72.6866517 56.7588631,57.3693824 59.676848,58.6210706 C62.594833,59.8727588 61.2302032,87.4240428 59.3356906,101.666416 C59.7857281,89.0222436 63.7707374,63.7409704 67.8065573,65.5654651 C71.8423773,67.3899598 60.3228696,95.4433334 62.9214731,110.308015 C65.643474,107.712707 66.5508076,103.554556 67.79204,99.8489931 C69.0332724,96.1434302 71.4721852,92.2257168 75.050709,91.9499211 C76.3790454,106.093291 65.6725086,117.895933 61.4624806,131.367492 C58.9509811,139.400926 57.9129915,150.1216 57.7678181,158.621766 C57.3468153,184.178835 55.7716841,207.197169 58.2977009,232.612804" id="Path" fill="#FFFFFF"></path>
                    <path d="M118.270744,229.277542 C120.197048,191.796283 121.641775,154.286739 122.604927,116.748912 C122.742176,111.219354 122.872202,105.682725 122.604927,100.167309 C122.142614,91.4628506 119.469868,83.3806448 118.588584,74.7115421 C117.685629,65.8656633 117.432802,56.949074 117.179974,48.0466268 C117.07162,44.3626117 116.69599,38.0835226 119.310948,37.5885494 C121.925905,37.0935762 121.47804,43.1676049 121.391356,46.3142205 C121.261371,53.1255198 122.095186,59.9216494 123.869064,66.5091285 C125.060965,59.8835582 124.63477,53.0317144 124.995952,46.2717942 C125.357134,39.511874 127.762606,27.0597616 130.652062,27.4981664 C133.541517,27.9365713 131.157716,52.2963256 130.652062,64.6847985 C130.392011,50.4366404 132.508537,22.0676029 136.34429,22.9656258 C140.180042,23.8636487 138.691972,51.8437786 135.33298,65.7101003 L139.320429,42.8564789 C140.042793,38.7057747 142.722763,30.3619402 144.969315,32.8368063 C147.215867,35.3116725 144.839289,57.6844628 143.423456,69.9880832 C149.614115,67.7819168 150.798792,56.1783299 157.198937,55.0398915 C158.268035,62.2594297 155.754209,69.5355363 152.554136,75.8641226 C149.354064,82.192709 145.496641,88.1465299 143.452351,95.0690842 C141.855926,100.478435 141.458626,106.248408 141.104668,111.9406 C138.624552,151.307472 137.408572,190.74034 137.45673,230.239204" id="Path" fill="#FFFFFF"></path>
                    <path d="M162.85889,230.239204 L165.396488,195.718003 C165.637122,192.437004 165.863172,189.071151 164.929803,185.931575 C163.573501,181.384845 158.892071,178.018993 156.354474,174.066237 C150.134443,164.378805 141.486195,142.698755 144.687359,141.348172 C151.570957,143.603858 157.360762,149.260753 159.949404,156.331872 C161.240078,150.561839 160.19733,144.537246 159.912944,138.61872 C159.628558,132.700194 161.699471,121.004563 164.251652,121.966235 C166.803833,122.927908 167.292394,142.571475 168.809119,152.874095 L169.538313,128.12518 C169.662276,123.882509 172.14883,115.397166 174.270787,117.398293 C176.392743,119.399419 174.795807,141.192607 174.912478,153.0933 C178.456364,151.481085 176.480247,119.15193 179.973089,120.148958 C183.465931,121.145986 181.796076,143.009884 182.707569,154.436812 C184.165958,146.008039 184.851401,129.808106 187.17024,129.150492 C189.489079,128.492878 189.481787,131.547601 189.707838,133.315381 C191.107892,144.12005 192.442318,153.963047 190.488076,164.668721 C189.547415,169.795282 185.471217,174.822847 184.574307,179.956479 C183.633646,185.387098 183.597187,190.944998 183.560727,196.467541 C183.487807,207.347636 183.417319,218.230087 183.34926,229.114896" id="Path" fill="#D4DAFF"></path>
                    <path d="M217.989358,227.700355 L215.152236,143.383349 C214.992447,141.54781 215.119982,139.699418 215.530519,137.900805 C216.257986,135.30752 219.684357,133.714904 221.241137,131.593766 C226.886282,123.919615 229.454242,114.053856 230.072589,104.293801 C230.690936,94.5337464 229.476066,84.7666448 228.26847,75.0700129 C227.999307,72.8995458 226.813536,70.0314287 224.849374,70.693844 C221.532123,80.4679926 226.857184,92.2575748 222.245041,101.397496 C219.808026,97.9867622 220.622789,93.1666341 221.255686,88.9243576 C222.16336,82.7881203 222.429021,76.5787744 222.048625,70.3908242 C221.779462,66.078078 220.411824,60.8210378 216.461677,59.9754013 C215.953422,59.8244731 215.40281,59.8911453 214.948545,60.1586225 C214.221078,60.6660044 214.184704,61.7582849 214.221078,62.6814381 L214.897622,83.744834 C215.101313,90.0871078 215.115863,97.0142802 211.362132,101.897831 C213.418019,91.6905164 214.090538,81.2670128 213.362666,70.8911591 C213.028032,66.0992189 209.528914,55.7613127 207.18647,59.2566102 C204.844025,62.7519078 206.524474,84.5411417 206.197114,97.1834075 C206.197114,97.1834075 204.014713,83.6532234 204.094734,76.5146419 C204.094734,73.1955186 202.108748,57.1707069 197.547529,61.7160031 C192.986309,66.2612993 200.093664,94.7803904 196.987379,102.264273 C194.375772,95.7387784 188.665154,83.2374521 185.631616,84.9921479 C182.598077,86.7468436 194.506716,112.101845 197.271091,126.400149 C198.245897,131.466921 198.165876,136.688726 198.056756,141.861203 C197.445683,171.077944 195.998024,200.266497 194.550364,229.448004" id="Path" fill="#FFFFFF"></path>
                    <path d="M37.6494287,229.282415 C39.7472388,211.120631 41.171618,192.9024 41.9225662,174.627722 C42.2931955,165.596221 42.5402816,156.557665 42.5257472,147.519108 C42.5257472,143.497268 42.2205231,139.496595 40.4473163,135.80638 C39.5461785,133.936577 38.3979545,132.19378 37.4532132,130.345144 C36.5289366,128.510583 35.8780589,126.557728 35.5201272,124.545227 C34.88061,121.052577 34.9750841,117.489367 34.9169462,113.961437 C34.9169462,111.844679 34.8079376,109.727921 34.7352652,107.611163 C34.5535842,102.283989 34.3646359,96.9638701 34.3282997,91.6366957 C34.3282997,86.9727722 34.2556273,82.2171224 34.9678169,77.5955341 C35.0675309,76.2432827 35.4508489,74.925086 36.0942392,73.7218669 C36.5375409,73.0162809 37.0753167,73.0162809 37.6784977,73.7218669 C38.7031786,74.9284189 39.0738079,76.7558867 39.4226354,78.2376173 C39.9590224,80.6942813 40.3617014,83.1766821 40.6289974,85.6744939 C41.2539801,90.9805007 41.5810059,96.314731 42.0824455,101.634849 C42.1769196,102.615614 42.2713937,103.596379 42.3876696,104.570087 C42.3876696,104.862351 42.6316937,105.099277 42.9327126,105.099277 C43.2337316,105.099277 43.4777557,104.862351 43.4777557,104.570087 C43.8338505,97.8458526 43.7466436,91.0933945 43.8919884,84.3550481 C43.9646608,80.827118 44.0736694,77.2427411 44.3207556,73.6936434 C44.4516138,70.9004974 44.8063591,68.1214911 45.3817727,65.3818402 C45.6070572,64.4151874 46.1084968,61.9950274 47.2639881,61.8539102 C47.4223477,61.86027 47.5757937,61.9091168 47.7072897,61.9950274 C47.9037663,62.1351762 48.0713942,62.3098955 48.2014621,62.5101051 C48.6508043,63.2179444 48.9773328,63.9926438 49.1680051,64.8032597 C49.8240533,67.3481571 50.2376058,69.9462511 50.403436,72.5647058 C50.7013929,75.9021276 50.8540049,79.2466053 50.9484791,82.5981389 C51.1301601,88.7720165 51.0647549,94.9529499 51.188298,101.126828 C51.188298,101.627794 51.188298,102.12876 51.2319014,102.62267 C51.2354217,102.88472 51.4359603,103.104796 51.7034196,103.140127 C51.9708788,103.175458 52.224686,103.015399 52.3001858,102.763787 C53.513815,97.7894057 53.9934529,92.5962927 54.7201769,87.5442968 C55.6939872,80.7565594 56.653263,73.9547102 58.0631076,67.2375314 C58.5257191,64.7659088 59.171765,62.3299917 59.9961936,59.9488279 C60.2340106,59.2001483 60.5789392,58.4876043 61.0208746,57.8320699 C61.1423585,57.676552 61.2786115,57.5324507 61.4278401,57.4016624 C61.4992736,57.3352681 61.6005721,57.3086864 61.696728,57.3311038 C62.1182279,57.4369417 62.423452,58.1354719 62.5542624,58.6646614 C62.8341599,59.7379934 62.9877538,60.8386881 63.0120985,61.9456363 C63.1368195,65.3859293 63.0543167,68.8303593 62.7650123,72.2613038 C62.2054348,80.6860008 61.2170901,89.0824743 60.853728,97.521283 C60.853728,98.4173773 60.7883229,99.3205274 60.7737884,100.223677 C60.7773143,100.45932 60.940908,100.664302 61.1750436,100.726448 C61.4091792,100.788595 61.6574271,100.692928 61.7839348,100.4918 C62.4564661,99.1130326 62.9285016,97.6502543 63.1865123,96.1453903 C63.7460898,93.7746213 64.203926,91.3897406 64.6399604,89.0048599 C65.6864431,83.55068 66.6384516,78.0612208 68.070098,72.6846554 C68.5229627,70.6835719 69.1928635,68.7346903 70.0685892,66.8706267 C70.3239921,66.2993671 70.6946425,65.7835544 71.1586753,65.3536168 C71.3583755,65.1079326 71.7244578,65.0638965 71.9798735,65.2548347 C72.4159079,65.544125 72.5539855,66.3061579 72.6266579,66.7930122 C72.7356425,67.8275249 72.7356425,68.8701339 72.6266579,69.9046465 C72.3498684,73.1203957 71.8644218,76.31599 71.1732097,79.4723929 C69.2037875,89.2800384 66.7183912,98.9747902 64.8725121,108.803603 C64.8158462,109.034073 64.9216863,109.273331 65.1328503,109.392114 C65.3440143,109.510896 65.6104395,109.481042 65.7881844,109.318681 C66.7544434,108.340698 67.5453775,107.212655 68.1282359,105.981259 C69.1383824,104.189071 70.0540547,102.354547 71.0351322,100.541191 C72.0162097,98.7278351 73.0481578,96.7380826 74.2181836,94.9317824 C75.0684507,93.6123365 76.0277265,92.1094383 77.3867005,91.2274558 C78.0552866,90.7970483 79.123571,90.5218698 79.486933,91.3050703 C79.8502951,92.0882707 79.5378037,93.4218283 79.3197865,94.3179225 C78.3169073,98.2621483 76.4128902,102.029978 74.625149,105.691969 C72.3432355,110.412339 69.9377788,115.083319 67.6703998,119.803689 C65.4030207,124.52406 63.2228485,129.258542 61.9946848,134.303482 C60.2432798,141.493403 60.1415385,148.937336 60.0034609,156.289542 C59.8581161,164.192105 59.7127713,172.094669 59.6691678,180.004288 C59.5746937,195.675353 59.8799178,211.374642 61.3333659,226.996316 C61.5174694,228.967253 61.7185297,230.931134 61.9365469,232.887959 C62.0164865,233.558266 63.1065726,233.593545 63.026633,232.887959 C61.2316246,216.835878 60.7374522,200.677958 60.7447194,184.53415 C60.7447194,176.45519 60.8682625,168.37623 61.0208746,160.29727 C61.1589522,152.535824 61.0208746,144.654429 62.5179261,137.012932 C63.600745,131.417635 65.8317879,126.224522 68.2663135,121.0808 C70.5700288,116.226368 73.0336233,111.456607 75.3736748,106.630398 C77.2122867,102.848457 79.1817089,98.9747902 80.2863295,94.9176706 C80.7441657,93.2313201 81.4127518,89.7951162 78.6148642,89.7457252 C77.2776919,89.7457252 76.1440023,90.7476573 75.3155369,91.6649191 C74.0327825,93.1655575 72.9193807,94.7953615 71.9944079,96.5264068 C69.9668478,100.054337 68.3607876,103.885669 66.1152103,107.279538 C65.8192224,107.75586 65.4600533,108.192356 65.0469259,108.577816 L65.955331,109.092894 C67.6922015,99.842661 69.974115,90.712378 71.8999338,81.5044806 C72.6781157,78.0390416 73.2723904,74.5370704 73.6804078,71.0124166 C73.869356,69.2061164 74.2327181,66.6942302 73.2153044,65.0290472 C72.9345527,64.5341654 72.4232895,64.2029193 71.8448649,64.1411433 C71.2664404,64.0793673 70.6932418,64.2947923 70.3084081,64.7185894 C69.0875117,65.8686946 68.5061324,67.7314416 67.9974256,69.2484516 C66.2242189,74.5191791 65.2867448,80.072141 64.2475294,85.4769298 C63.6806847,88.4756704 63.1283744,91.4814668 62.4743227,94.4731515 C62.089159,96.2441724 61.7984693,98.3256511 60.8755298,99.9273313 L61.8929435,100.195454 C62.0528227,91.5661371 63.0920382,82.9720995 63.7315553,74.3639501 C64.0077105,70.589065 64.2765984,66.7930122 64.174857,63.0040153 C64.1642736,61.7175645 64.0476251,60.4340011 63.8260295,59.1656274 C63.7285234,58.3110558 63.3973142,57.4973727 62.8667537,56.8089702 C60.097935,53.8243413 58.1285128,62.2843176 57.8232887,63.4838138 C56.1445561,70.1586575 55.1852803,77.0240094 54.1896684,83.8188027 C53.332134,89.6469431 52.6853496,95.5315305 51.5298583,101.303224 C51.4499187,101.691296 51.369979,102.072313 51.2755049,102.446273 L52.3510565,102.587391 C52.1403065,96.4699599 52.2565824,90.3384174 52.1112376,84.2421543 C52.0240307,80.7142242 51.8932203,77.1298473 51.609798,73.5807497 C51.4445563,70.7317566 51.0435651,67.900283 50.4107033,65.1137175 C50.0618757,63.7378248 49.5531689,61.6422343 48.077919,60.9648718 C46.6026692,60.2875092 45.4907813,61.7339605 45.0038762,62.8911216 C44.0518677,65.1137175 43.790247,67.6326596 43.5504281,70.0034286 C43.1652643,73.4960793 43.005385,77.0169535 42.8963764,80.523716 C42.6565575,87.8476988 42.7364971,95.1787375 42.4676092,102.495664 C42.4676092,103.187139 42.4385403,103.878613 42.3804024,104.570087 L43.4704884,104.570087 C42.8600402,99.4475328 42.6056868,94.2896991 42.1042472,89.1530329 C41.8426265,86.4576944 41.5374024,83.7552999 41.0941008,81.081129 C40.8072188,78.9670274 40.2832912,76.8896865 39.531644,74.8860838 C39.1028768,73.8277048 38.4270234,72.4094769 37.1261874,72.1907452 C36.0361013,72.000237 35.3093772,72.8328285 34.8951445,73.7006993 C34.2982555,75.1317655 33.9282673,76.6424195 33.7977912,78.1811705 C33.4998343,80.4672691 33.3762912,82.7745354 33.3036188,85.0747458 C32.9911275,95.1434582 33.7759894,105.191003 33.8413946,115.252659 C33.8631963,119.338003 33.8631963,123.571519 35.1422307,127.572191 C36.421265,131.572864 39.3426958,134.917342 40.5199888,138.988573 C41.7626869,143.27148 41.4429283,147.886013 41.3993249,152.288869 C41.3557214,156.941033 41.2636697,161.595549 41.1231697,166.252416 C40.5805491,184.988077 39.3160492,203.688458 37.3296701,222.35356 C37.0898512,224.667882 36.8282305,226.982204 36.5593426,229.296527 C36.4866702,230.002113 37.5767563,229.966833 37.6494287,229.296527 L37.6494287,229.282415 Z" id="Path" fill="#231F20"></path>
                    <path d="M115.645943,229.349265 C116.710489,212.002531 117.647961,194.646379 118.458358,177.280809 C119.268756,159.990578 119.949682,142.693285 120.501136,125.388928 C120.774465,116.80738 121.28516,108.162264 120.680958,99.580716 C120.083949,91.1545537 118.393622,82.8555255 117.38662,74.4717412 C116.365231,65.9043189 116.048744,57.2733295 115.761029,48.6635291 C115.58355,45.819053 115.825819,42.9643224 116.480317,40.1879258 C116.660139,39.5169406 116.998204,38.1679071 117.63837,37.927765 C117.458548,37.998395 117.552056,37.7794419 117.63837,38.019584 C117.724685,38.2597261 117.818192,38.3939231 117.882928,38.5775612 C118.349825,40.098069 118.681935,41.6553771 118.875545,43.23208 C119.256768,45.5628709 119.594833,47.9007248 119.875355,50.2385788 C120.493943,54.8930976 121.004637,59.5899944 121.990062,64.1809462 C122.155498,64.9437505 122.33532,65.6924288 122.565492,66.4340441 C122.637108,66.6576782 122.848235,66.8098097 123.086976,66.8098097 C123.325717,66.8098097 123.536843,66.6576782 123.608459,66.4340441 C124.514762,62.0832344 124.572305,57.4852196 124.881599,53.0637799 C125.298786,47.1873616 125.665622,41.2897543 126.392103,35.406273 C126.60064,33.2884829 126.973353,31.1893931 127.506999,29.1272635 C127.646773,28.526146 127.89003,27.952871 128.226287,27.4321429 C128.305409,27.3332608 128.470845,27.1990638 128.413302,27.2202528 C128.355759,27.2414418 128.463652,27.1708118 128.549967,27.2202528 C128.925992,27.702222 129.159887,28.2764006 129.226097,28.8800584 C129.427168,29.9483175 129.549763,31.0293894 129.592934,32.1149137 C129.772756,35.1802569 129.729599,38.2597261 129.700827,41.2968173 C129.628898,48.9813643 129.197326,56.8989903 130.585551,64.5058443 C130.700637,65.1485776 131.578168,64.9013725 131.642904,64.3645843 C132.419735,58.1703308 132.7578,51.9266364 133.261302,45.704131 C133.736032,39.7358937 134.110062,33.6405223 135.419165,27.785293 C135.714073,26.5068895 136.037753,24.3102957 137.167035,23.4203573 C138.001409,22.7493721 138.540875,24.1902246 138.742275,24.9318399 C139.220332,27.2095411 139.380045,29.5405913 139.217005,31.8606456 C139.145076,35.1661309 138.87894,38.4786792 138.576839,41.7488494 C137.857551,49.6452865 136.749848,57.4993456 136.044946,65.3957827 C136.04843,65.6580978 136.246917,65.8783973 136.511639,65.9137636 C136.776362,65.94913 137.027572,65.788909 137.102299,65.5370427 C137.965444,61.3769341 139.02999,57.2521405 140.137694,53.1555989 C141.461183,48.260938 142.849409,43.3592141 144.618857,38.6058132 C145.175135,36.961505 145.898044,35.3761592 146.77672,33.8736014 C146.997751,33.5300247 147.261079,33.2145182 147.560744,32.934222 C147.647058,32.856529 147.668637,32.9766 147.560744,32.884781 C147.684835,32.9785873 147.781585,33.1028227 147.841266,33.2449941 C148.560554,34.7070357 148.308803,36.7270545 148.229682,38.2809151 C148.093017,41.1061162 147.72618,44.0019473 147.330572,46.8412744 C146.337955,53.9890332 145.000079,61.087351 144.021848,68.2351098 C144.018799,68.4086795 144.102552,68.5727016 144.246021,68.6741343 C144.38949,68.775567 144.574468,68.801537 144.741136,68.743646 C149.107213,67.3310454 152.358394,63.3898899 155.314667,60.1620976 C156.09869,59.3074743 161.385456,52.7600707 162.507545,55.7477209 C163.133325,57.3580855 161.996851,59.6464984 161.342299,61.073225 C160.237409,63.4103177 158.993284,65.6814747 157.616388,67.8748966 C156.300091,70.0432385 154.919058,72.1762653 153.631533,74.3587331 C151.864875,77.4299263 150.391253,80.6549711 149.229492,83.9926689 C146.747949,90.8861596 144.30237,97.8502803 143.475189,105.139299 C142.590465,112.859161 142.238014,120.677905 141.748898,128.40483 C140.741895,144.301295 139.977053,160.216595 139.45437,176.150729 C138.936483,192.004816 138.658358,207.865965 138.619996,223.734178 C138.619996,225.725945 138.619996,227.717712 138.619996,229.709479 C138.619996,230.002038 138.861523,230.239204 139.159462,230.239204 C139.457401,230.239204 139.698928,230.002038 139.698928,229.709479 C139.698928,213.431612 139.938691,197.156099 140.418216,180.882941 C140.897741,164.609782 141.63621,148.35075 142.633622,132.105844 C143.122738,124.089336 143.597468,116.058701 144.295177,108.049256 C144.562227,104.083589 145.229644,100.15376 146.287604,96.3176087 C147.359343,92.7507923 148.596518,89.2051649 149.812115,85.6877896 C150.986407,82.1013602 152.503675,78.6320889 154.343628,75.3263645 C155.652732,73.0662036 157.076922,70.8766728 158.436376,68.6518269 C159.871216,66.3756513 161.165856,64.0170897 162.313337,61.5888242 C163.032625,59.9290185 163.946121,57.9725668 163.751913,56.107934 C163.71781,54.8749896 162.705908,53.8844644 161.450192,53.8548362 C160.011616,53.9184032 158.695319,55.1897437 157.724281,56.114997 C154.250121,59.4063563 151.444898,63.4605199 147.445658,66.200965 C146.541967,66.844104 145.545561,67.3511657 144.489385,67.7053846 L145.172708,68.2139208 C146.10059,61.3910601 147.373729,54.6105775 148.344768,47.7877168 C148.77634,44.8000666 149.171949,41.7982905 149.351771,38.7823883 C149.459664,36.9601336 149.653871,34.8271068 149.006512,33.0754821 C148.661254,32.1361027 147.855652,31.4368654 146.906192,32.1361027 C145.956732,32.83534 145.30218,34.4174526 144.805872,35.54047 C142.881415,40.2267345 141.283316,45.0359344 140.022607,49.9348696 C138.584032,54.9919796 137.246156,60.0844046 136.188803,65.2333336 L137.246156,65.3745936 C137.907901,57.9372517 138.914904,50.5422879 139.641385,43.104946 C139.993836,39.5734446 140.30313,35.9571872 140.40383,32.3762448 C140.573669,29.9040553 140.435989,27.4207544 139.993836,24.9812809 C139.742085,23.8441375 139.145076,22.0783868 137.656151,22.1560798 C136.275118,22.1984578 135.613373,23.8865155 135.224958,24.9389029 C134.465824,27.266728 133.947712,29.663798 133.678489,32.0937247 C133.203759,35.356832 132.880079,38.6411282 132.592364,41.9254245 C131.930619,49.3980814 131.592554,56.9060533 130.65748,64.3504582 L131.714833,64.2091982 C130.412922,57.0473134 130.794145,49.5675935 130.866073,42.3138897 C130.866073,39.0295934 130.959581,35.7311711 130.786952,32.4256858 C130.693444,30.6811241 130.786952,28.2797032 129.715213,26.7752836 C128.995925,25.7582112 127.916993,25.9489123 127.319984,26.9236067 C126.442453,28.3362072 126.212281,30.229092 125.938952,31.8677086 C124.96072,37.6664339 124.601076,43.5711042 124.183889,49.4263334 C123.946524,52.7741967 123.723545,56.129123 123.464602,59.4769863 C123.353612,61.6869413 123.101365,63.8878686 122.709349,66.0667679 L123.752317,66.0667679 C122.428827,61.8289663 122.047605,57.2733295 121.464981,52.9154568 C120.867973,48.4445761 120.465171,43.8748133 119.415011,39.4957516 C119.242382,38.7894513 119.026596,37.2991577 118.220993,36.9036296 C116.523474,36.0631322 115.681907,39.4886886 115.473314,40.4351309 C114.88985,43.3312593 114.682003,46.2882537 114.854726,49.2356324 C115.005777,53.6782611 115.16402,58.1279528 115.430157,62.5705816 C115.955237,71.356957 117.249955,79.9950093 118.515901,88.7036917 C119.148875,93.0968794 119.688341,97.5112562 119.889741,101.953885 C120.091142,106.396514 120.004827,110.846205 119.889741,115.288834 C119.38624,133.129979 118.731688,150.966415 117.926085,168.798143 C117.130074,186.780548 116.197397,204.75589 115.128056,222.724169 C114.991391,224.920763 114.861919,227.110294 114.725255,229.306887 C114.682097,230.013188 115.768222,230.013188 115.804186,229.306887 L115.645943,229.349265 Z" id="Path" fill="#231F20"></path>
                    <path d="M160.517865,229.546524 L162.196698,207.225263 L163.032512,196.156518 C163.284698,192.792072 163.666578,189.364013 163.068539,186.013703 C162.592743,183.929713 161.867167,181.908293 160.90695,179.991628 C159.66764,177.164362 158.392303,174.40071 157.131376,171.615853 C153.975457,164.653712 150.812333,157.691571 147.973447,150.602203 C146.849421,147.774937 145.747011,144.947672 144.896786,142.077997 C144.602416,141.153138 144.378437,140.20812 144.226694,139.250732 C144.171423,138.916728 144.152102,138.577951 144.169051,138.239984 C144.164779,138.083015 144.207353,137.928243 144.291541,137.79469 C144.24831,137.851235 144.212283,137.79469 144.291541,137.79469 C144.46663,137.752178 144.649644,137.752178 144.824733,137.79469 C145.332141,137.983564 145.781323,138.297607 146.128892,138.706483 C147.340068,140.016461 148.394122,141.458361 149.2704,143.003926 C151.431988,146.481463 153.341391,150.30534 156.151456,153.351718 C156.649042,153.901263 157.21001,154.392256 157.823084,154.814828 C157.968076,154.897457 158.143955,154.909378 158.299154,154.847096 C158.454353,154.784814 158.571285,154.655386 158.615667,154.496761 C159.429865,150.870793 159.480302,147.004507 159.739693,143.314926 C160.092752,138.225848 160.40258,133.129702 160.921361,128.05476 C161.115904,126.139288 161.324857,124.216747 161.706738,122.322479 C161.819995,121.69579 161.98383,121.078919 162.196698,120.477689 C162.258501,120.306406 162.335659,120.140834 162.427268,119.982917 C162.520936,119.820349 162.571373,119.898099 162.470499,119.869826 C162.369625,119.841554 162.412857,119.834486 162.470499,119.905167 C162.600195,120.117212 162.773122,120.293916 162.888406,120.527166 C163.211035,121.24607 163.452644,121.997396 163.608936,122.767774 C164.113592,125.292738 164.472029,127.84372 164.682525,130.408459 C165.403054,137.250441 165.770524,144.148969 166.786471,150.962679 C166.880139,151.570541 167.831238,151.393837 167.852854,150.821316 L168.501331,128.422305 C168.500196,125.828512 168.790155,123.24248 169.365966,120.710938 C169.8199,118.958033 170.360297,116.561926 171.729303,115.247247 C172.579527,114.42734 172.889355,115.558247 173.055077,116.265063 C173.340331,117.733159 173.489848,119.223526 173.501805,120.718006 C173.696348,125.333517 173.545037,129.963164 173.415342,134.578675 C173.271236,140.070639 173.047872,145.555534 173.098309,151.047497 C173.098917,151.23586 173.201375,151.409759 173.367451,151.504309 C173.533527,151.598858 173.738277,151.599855 173.905302,151.506928 C174.942864,151.012156 175.259897,149.464228 175.483261,148.488822 C175.889522,146.515981 176.156751,144.518029 176.283049,142.509155 C176.722572,137.328191 176.830651,132.126022 177.1693,126.959195 C177.271266,124.864511 177.485318,122.776526 177.810571,120.70387 C177.913002,120.027411 178.081912,119.36226 178.314942,118.717716 C178.384246,118.52644 178.476139,118.343781 178.588743,118.173467 C178.632988,118.113839 178.686474,118.061371 178.747259,118.017968 C178.747259,118.017968 178.747259,118.017968 178.747259,118.017968 C178.833723,118.067445 178.88416,118.017968 178.985034,118.131058 C179.169241,118.314371 179.320307,118.527096 179.431762,118.760125 C179.790461,119.52972 180.033176,120.34639 180.152292,121.184505 C180.589123,123.991536 180.810707,126.826754 180.815179,129.666301 C181.016927,137.243373 180.656662,144.855785 181.261907,152.418721 C181.305139,152.970037 182.213006,153.18915 182.328291,152.560084 C183.488343,146.064441 183.805376,139.455708 184.857349,132.945929 C185.04007,131.708002 185.292643,130.480969 185.613905,129.270484 C185.718766,128.537594 186.019572,127.845006 186.485746,127.263126 C186.801907,127.082365 187.192737,127.082365 187.508897,127.263126 C188.092526,127.588261 188.229427,128.521259 188.323096,129.107917 C188.661745,131.065798 188.834672,133.073156 189.086857,135.045174 C190.354989,145.060762 191.248445,155.3096 189.17332,165.282779 C188.135758,170.230493 186.514567,174.987368 185.685958,179.949219 C184.959726,184.937253 184.632088,189.973346 184.706038,195.011476 C184.614771,206.551431 184.537914,218.096098 184.475469,229.645478 C184.475469,229.938251 184.717413,230.17559 185.015866,230.17559 C185.314319,230.17559 185.556263,229.938251 185.556263,229.645478 L185.772421,197.096584 C185.772421,191.753052 185.772421,186.381248 186.593825,181.080125 C187.415229,175.779002 189.115678,170.767674 190.196472,165.572573 C192.358061,155.267191 191.392551,144.714422 190.066777,134.36663 C189.821797,132.472362 189.684896,130.521549 189.346248,128.648486 C189.122883,127.475171 188.54646,126.13222 187.134222,126.103947 C185.087919,126.05447 184.670011,128.542463 184.324157,130.05505 C182.68135,137.3706 182.616503,144.95474 181.297934,152.319766 L182.357112,152.46113 C181.802304,145.49192 182.0689,138.466165 181.94641,131.475751 C181.94438,128.405498 181.766368,125.337785 181.413218,122.287138 C181.21147,120.767483 181.024132,118.47033 179.727179,117.395969 C177.126068,115.27552 176.585671,122.075094 176.477592,123.12825 C175.922784,128.32335 175.843526,133.567928 175.533698,138.784233 C175.430697,141.468508 175.190217,144.146009 174.813169,146.806599 C174.688695,147.710664 174.483763,148.602302 174.200719,149.471296 C174.102448,149.934935 173.848795,150.352961 173.480189,150.658748 L174.294387,151.118179 C174.200719,140.925886 175.151818,130.719458 174.690679,120.527166 C174.66845,118.976307 174.497166,117.43096 174.179103,115.911655 C173.948533,114.971589 173.415342,113.791206 172.226468,113.946705 C170.583661,114.130477 169.755052,116.554858 169.279503,117.805923 C168.429138,120.057962 167.88878,122.411205 167.672722,124.803405 C167.499795,126.718877 167.528616,128.66969 167.470974,130.592231 L167.283636,137.243373 L166.887345,150.891997 L167.946523,150.750634 C166.988219,144.325673 166.635159,137.822962 165.972272,131.362661 C165.691266,128.613145 165.395849,125.842425 164.841041,123.135318 C164.588856,121.912526 164.307849,119.785008 163.11177,119.042851 C160.950182,117.6999 160.431401,124.110725 160.308911,124.987177 C159.588382,130.090391 159.328991,135.250151 158.975931,140.381638 C158.781389,143.208903 158.594051,145.99376 158.356276,148.792753 C158.253621,150.631325 158.027363,152.461245 157.678978,154.27058 L158.478766,153.95958 C157.049326,152.841288 155.840547,151.475851 154.912145,149.930727 C153.651219,148.085936 152.527193,146.156328 151.367141,144.276196 C150.372369,142.564834 149.275247,140.912709 148.081526,139.328481 C147.360997,138.360143 146.352256,137.116146 145.055303,136.854624 C140.897848,136.027649 144.990455,145.739306 145.437183,146.947962 C148.081526,154.129216 151.251856,161.133767 154.393364,168.117112 C156.763906,173.382894 159.393839,178.592131 161.461758,183.98514 C162.166907,186.017285 162.486812,188.158907 162.405652,190.304078 C162.405652,193.937115 161.951718,197.584287 161.685122,201.210255 L159.970262,224.054561 L159.54515,229.709092 C159.494713,230.415908 160.575507,230.415908 160.625944,229.709092 L160.517865,229.546524 Z" id="Path" fill="#231F20"></path>
                    <path d="M221.228216,228.231914 L219.274068,176.070662 L218.293362,149.813337 L218.053634,143.296715 C217.973724,141.268221 217.770319,139.169049 218.206188,137.168828 C218.990753,133.59246 222.034575,131.104552 224.090426,128.206705 C228.129483,122.509961 230.010986,115.590467 231.042544,108.819399 C231.848764,102.985382 232.321683,97.1123392 232.459119,91.2273449 C232.655261,85.8981328 232.807815,80.4416983 231.965134,75.1478259 C231.710877,73.5292721 231.383975,71.6774769 230.381475,70.3133683 C229.771258,69.4864216 228.608939,68.7654937 227.613704,69.4440141 C226.618469,70.1225345 226.444121,71.7764278 226.31336,72.8719555 C226.066367,74.9923316 226.080896,77.1127078 226.044574,79.2330839 C225.971929,84.463345 226.044574,89.8985758 224.504502,94.9733427 C224.181909,96.0766274 223.743742,97.1447719 223.196893,98.1609748 L224.141277,98.1609748 C223.472944,97.2845527 223.414828,95.6801347 223.327654,94.5775391 C223.116984,92.2875329 223.066133,89.9904588 223.037075,87.7004526 C222.957165,81.9330295 223.037075,76.1656064 222.942636,70.3981834 C222.891785,67.8820037 222.811875,65.3516882 222.564883,62.8425764 C222.483828,61.1377055 222.153609,59.4527566 221.584176,57.8384887 C221.220952,56.9762025 220.429122,55.8948106 219.32492,56.4249047 C218.329684,56.8701837 217.944666,58.2413602 217.668616,59.1672578 C216.411859,63.4433496 216.179395,68.0869734 215.808906,72.5044236 C215.365772,77.7912281 215.082457,83.1063043 214.53762,88.371905 C214.390091,90.2364775 214.132992,92.091306 213.767584,93.9272905 C213.671412,94.449806 213.520492,94.9613651 213.317186,95.4539613 C213.237276,95.6165234 213.099251,95.7578818 213.099251,95.7861535 C213.099251,95.8144252 213.208218,95.7861535 213.331715,95.7861535 C213.331715,95.7861535 213.273599,95.7861535 213.208218,95.6306593 C213.12724,95.4671138 213.061594,95.2967932 213.012077,95.121769 C212.845553,94.5168725 212.728951,93.9000022 212.663382,93.2770418 C212.409124,91.2768203 212.329215,89.2553951 212.25657,87.2481057 C212.053164,81.8199428 212.031371,76.384712 211.813436,70.9918887 C211.711733,68.4191656 211.573708,65.8464426 211.304922,63.2807875 C211.159431,61.332245 210.826223,59.4012969 210.309686,57.5133644 C210.004578,56.4955839 209.525121,55.0678639 208.384596,54.6861962 C207.244071,54.3045285 206.641119,55.1597469 206.306952,56.036169 C205.832882,57.5387681 205.588122,59.1009446 205.580503,60.6727248 C205.442478,63.0122065 205.457007,65.365824 205.500593,67.7406453 C205.595032,73.1264006 205.90014,78.512156 206.038166,83.8979114 C206.096282,86.0182875 206.139869,88.2022749 206.038166,90.3438548 C206.024233,91.4872027 205.830698,92.6217563 205.464271,93.7081849 C205.464271,93.7081849 205.420684,93.7081849 205.536916,93.7081849 C205.653148,93.7081849 205.602296,93.7717962 205.536916,93.6445736 C205.316664,93.2998485 205.136372,92.9324284 204.999344,92.549046 C204.486275,90.9315495 204.104921,89.2772545 203.858819,87.6015017 C202.979815,82.6115498 202.40592,77.5791905 201.679471,72.5680349 C201.047461,68.3272827 200.553475,63.7543381 198.962552,59.7044197 C198.599327,58.7855901 198.061755,57.4144135 196.964817,57.103425 C195.729853,56.7570969 194.785469,58.0717301 194.385922,59.0046956 C193.514183,60.9342379 193.441539,63.2030404 193.419745,65.281009 C193.433234,68.2630774 193.602959,71.2425381 193.928259,74.2077925 C194.523948,80.46997 195.49739,86.7533512 195.49739,93.0579362 C195.49739,95.0652256 195.49739,97.2986885 194.654709,99.1999591 L195.599092,99.1999591 C193.685179,94.6731706 191.37886,90.3130297 188.70509,86.1667138 C187.714799,84.4969268 186.422792,83.0148083 184.891233,81.7916711 C184.026758,81.1838299 182.65377,80.6820076 181.745708,81.5160222 C181.135491,82.0743879 181.15002,83.0638968 181.2154,83.8130963 C181.378397,85.2175313 181.685025,86.6026374 182.130726,87.9478298 C183.394748,92.1461745 185.036523,96.2314325 186.656504,100.316691 C188.552536,105.151148 190.463097,109.97147 192.155724,114.876607 C193.950053,120.106868 195.41748,125.344197 195.729853,130.878378 C195.940523,134.624376 195.809763,138.38451 195.729853,142.130508 C195.637836,146.003728 195.528869,149.874593 195.402951,153.743101 C195.146272,161.602629 194.843585,169.4598 194.49489,177.314616 C193.812028,192.864041 192.976611,208.378126 192.13393,223.906347 C192.024963,225.842957 191.915995,227.7725 191.814293,229.70911 C191.77797,230.415902 192.867644,230.415902 192.903966,229.70911 C193.732118,214.590828 194.56027,199.472546 195.264926,184.347196 C195.969581,169.221847 196.572534,154.124769 196.899436,138.999419 C197.030197,132.680698 196.77594,126.503336 195.046991,120.382517 C193.724854,115.703553 192.017698,111.123541 190.274221,106.578868 C188.530743,102.034195 186.729149,97.6026091 185.051052,93.07914 C184.382718,91.2697524 183.728914,89.4462289 183.176813,87.5944338 C182.712206,86.3079497 182.393105,84.9760273 182.225165,83.6222625 C182.172654,83.2383041 182.189866,82.8483563 182.276016,82.4701914 C182.355925,82.2157463 182.370454,82.1238633 182.704621,82.0602521 C184.004965,81.8199428 185.312573,83.4738361 186.009964,84.3290545 C189.082844,87.9831694 191.240398,92.4783668 193.274455,96.7403228 C193.724854,97.70156 194.167988,98.6698651 194.596593,99.6381702 C194.696647,99.7988385 194.875701,99.8969781 195.068785,99.8969781 C195.261868,99.8969781 195.440922,99.7988385 195.540976,99.6381702 C196.286436,97.6578459 196.622195,95.553683 196.528947,93.4466719 C196.520516,90.4812947 196.355637,87.5182934 196.034962,84.5693638 C195.439274,78.3495938 194.487625,72.1086201 194.451303,65.8464426 C194.451303,63.7260665 194.451303,61.4219244 195.264926,59.4853142 C195.472776,58.9484976 195.823815,58.4752208 196.281955,58.1141376 C196.443337,57.9922904 196.675042,58.0173387 196.804998,58.170681 C197.691266,58.9552202 198.076284,60.4465514 198.403186,61.5703507 C198.965412,63.5976527 199.416447,65.6526064 199.754381,67.7265094 C200.669707,72.8719555 201.301718,78.0598091 202.057225,83.2264589 C202.376862,85.3821747 202.703764,87.5378904 203.132369,89.6653344 C203.333754,91.0856423 203.742255,92.4707577 204.345539,93.7788641 C204.716028,94.4856562 205.536916,95.1429728 206.263365,94.407909 C206.989814,93.6728453 206.989814,92.1179028 207.084253,91.1495977 C207.425684,86.6049249 207.084253,81.9613012 206.917169,77.4449 C206.713763,72.292386 206.437713,67.1257362 206.619325,61.9802901 C206.601365,60.2569052 206.789076,58.5373167 207.178691,56.8560478 C207.269306,56.4462092 207.450238,56.0603786 207.708999,55.7251805 C207.767115,55.6615693 207.861553,55.6403655 207.810702,55.6474334 C207.955991,55.6474334 208.006843,55.6474334 208.181191,55.7675881 C208.958491,56.2906142 209.321716,57.8879642 209.546915,58.8986768 C209.979327,60.9976606 210.263308,63.123021 210.39686,65.2598052 C210.825465,70.6738322 210.883581,76.1019951 211.007078,81.5160222 C211.101516,85.7567744 211.007078,90.1671568 211.733527,94.3867053 C211.857023,95.1359048 212.038635,96.5918965 212.96849,96.8392737 C213.898345,97.0866509 214.421388,95.835629 214.603001,95.1500407 C215.016391,93.5684785 215.293403,91.9561094 215.431153,90.329719 C215.707203,87.9478298 215.903344,85.5588727 216.092221,83.1699156 C216.506297,77.8336356 216.81867,72.4902878 217.421623,67.1681437 C217.632715,65.0323906 217.960077,62.9090325 218.402329,60.8070153 C218.642058,59.7468273 218.932637,58.2766998 219.673615,57.5345682 C219.818905,57.3932098 219.942401,57.4144135 220.029575,57.4921606 C220.347486,57.8226681 220.57918,58.2226151 220.705173,58.6583675 C221.206364,60.3717159 221.496556,62.1369318 221.569647,63.9169003 C222.012781,69.451082 221.925607,75.0206033 221.925607,80.5618529 C221.925607,85.4740576 221.758524,90.4569415 222.310625,95.3550104 C222.434122,96.4364022 222.506767,97.8853259 223.204158,98.8041556 C223.306783,98.96138 223.484919,99.056625 223.67635,99.056625 C223.86778,99.056625 224.045916,98.96138 224.148542,98.8041556 C226.516766,94.4715203 226.843668,89.2200555 227.054338,84.4138696 C227.148776,81.9188936 227.148776,79.4168498 227.206892,76.9218739 C227.163661,75.1363599 227.322006,73.3516236 227.679084,71.5997298 C227.88249,70.7939869 228.216657,69.9387685 229.066602,70.5324738 C230.207127,71.3311488 230.5195,73.274827 230.766493,74.5046451 C231.768993,79.5299365 231.594645,84.8308769 231.442091,89.9197796 C231.275007,95.5741159 230.991692,101.299131 230.257979,106.925196 C229.378975,113.696264 227.7372,120.629894 224.025045,126.496268 C222.201658,129.372911 219.462945,131.698257 217.96646,134.758667 C216.302891,138.165404 216.949431,142.208255 217.080192,145.848234 L218.024576,171.222068 L219.913343,221.969737 L220.153072,228.330865 C220.153072,229.037657 221.264539,229.037657 221.242745,228.330865 L221.228216,228.231914 Z" id="Path" fill="#231F20"></path>
                    <path d="M100.258464,228.321639 C101.291199,213.328829 101.71302,176.977077 102.287569,173.617955 C103.000523,170.371553 103.886564,167.163066 104.942134,164.005374 C107.291241,156.258972 106.796692,148.51257 107.422151,140.421101 C108.149429,131.19584 106.643964,113.759393 103.654852,113.527001 C100.66574,113.294609 100.469375,137.139443 99.6839145,145.090069 L99.3420939,118.386108 C99.3420939,116.210073 99.2766389,113.963617 98.4693604,111.956594 C97.6620819,109.949572 96.803894,106.393269 93.8293273,108.20311 C90.8547607,110.012952 93.5165978,132.512729 91.7856764,144.519652 C90.5783951,137.287329 91.4802197,129.87191 91.698403,122.526912 C91.9165864,115.181915 90.2874839,101.273602 87.5456462,101.273602 C84.8038084,101.273602 84.3456233,107.759453 84.5638067,111.519979 L85.6547236,130.005711 C85.9674531,135.315518 86.2583643,140.815463 84.4765334,145.794287 L83.4147076,117.759354 C83.3201615,115.210083 83.203797,112.583349 82.1928807,110.26647 C81.691059,109.125637 80.6583243,107.94255 79.5019525,108.252406 C78.3455806,108.562262 77.9601233,110.196048 77.8655772,111.512937 L75.4219234,144.6112 C74.4764621,140.737999 61.8145536,128.449389 61.1090941,130.25923 C60.0836322,132.878922 63.5382023,136.681702 65.2545782,138.871821 C69.1091511,143.801349 69.9164296,150.667478 72.6873584,156.329394 C73.8510031,158.723737 77.3710282,160.808223 78.4037628,163.272987 C79.6546808,166.287042 79.814682,169.660248 79.9237736,172.941906 C80.5928693,192.469881 79.0437674,212.378135 77.5164838,231.821604" id="Path" fill="#D4DAFF"></path>
                    <path d="M103.361959,229.346865 C104.38675,215.518518 104.704013,201.648705 104.31256,187.789367 C104.211739,184.3732 103.952484,180.949989 104.060507,177.533822 C104.238372,174.161187 104.945171,170.835324 106.156151,167.672721 C107.271245,164.70603 108.084159,161.638909 108.583065,158.515984 C108.971747,155.317935 109.173718,152.100815 109.187993,148.88028 C109.382434,139.174139 110.577888,129.446867 109.591279,119.74777 C109.466553,118.08083 109.177142,116.429612 108.727096,114.817219 C108.460639,113.943807 108.064555,112.816824 107.185969,112.351944 C105.529618,111.478532 104.92469,113.915633 104.694241,115.000354 C104.192547,117.720343 103.891706,120.472128 103.794051,123.234373 C103.578005,126.678715 103.448377,130.1301 103.268339,133.574442 C103.190621,136.401368 102.964676,139.222533 102.591396,142.026815 C102.508813,142.75238 102.32465,143.463399 102.04408,144.139908 C102.011082,144.203098 101.967236,144.260278 101.914452,144.308955 C101.820833,144.18217 102.425761,144.351217 102.425761,144.351217 C102.425761,144.351217 102.425761,144.351217 102.425761,144.308955 C102.3916,144.228669 102.362735,144.146324 102.339342,144.062428 C101.920236,142.27084 101.640973,140.450684 101.503965,138.617691 C101.158292,135.588924 100.870231,132.54607 100.567767,129.51026 C99.9484359,123.375246 99.4731352,117.141621 98.1984652,111.091132 C98.0271735,110.182581 97.7864473,109.287876 97.4783126,108.414547 C97.3288899,107.816233 96.9944182,107.277561 96.5205097,106.871989 C95.195429,106.005621 94.5040826,108.168019 94.2952383,109.027344 C93.8035857,111.562714 93.5624242,114.138462 93.5750858,116.719003 C93.4598614,120.240825 93.4742644,123.706297 93.5030705,127.199945 C93.5030705,130.545675 93.5822873,133.884362 93.5750858,137.230093 C93.5750858,139.237532 93.7335193,141.456279 93.2726217,143.435543 C93.2726217,143.541198 93.207808,143.646853 93.1862034,143.752507 C93.1645988,143.858162 93.1501958,143.787725 93.1862034,143.787725 C93.222211,143.787725 93.3158308,143.689114 93.4742644,143.696158 C93.632698,143.703202 93.6543025,143.773638 93.7767285,143.794769 C93.8991544,143.8159 93.7767285,143.794769 93.7767285,143.794769 C93.7767285,143.498936 93.5390781,142.766397 93.4742644,142.329691 C93.1790019,140.160249 93.0637775,137.962632 92.93415,135.779103 C92.5380661,129.22147 92.2860127,122.656794 91.8755257,116.099162 C91.6882861,113.063352 91.4794418,110.027541 91.1553732,107.005818 C91.031083,105.040344 90.6980192,103.092854 90.1615626,101.194812 C90.0547383,100.676144 89.7733002,100.207444 89.3621933,99.8635635 C88.4043904,99.2859848 87.1585265,100.286182 86.6472182,101.004634 C85.5165787,102.589454 85.2645253,104.76594 85.1132932,106.639549 C84.9883595,108.280794 84.9883595,109.928854 85.1132932,111.570099 C85.5813924,118.303823 86.1143053,125.037546 86.330351,131.785357 C86.4953958,135.071463 86.46173,138.364237 86.2295297,141.646458 C86.2033217,142.624827 86.0260831,143.593704 85.7038183,144.520264 C85.6613576,144.630575 85.6083095,144.736703 85.5453848,144.837228 C85.5139191,144.88507 85.4750477,144.927841 85.4301603,144.964014 C85.4301603,144.886534 85.5813924,145.083756 85.466168,144.907665 C85.1939473,144.359809 85.0047233,143.776109 84.904449,143.174928 C84.6958084,142.040185 84.5515571,140.895015 84.4723574,139.744674 C84.2131025,136.532772 84.1410873,133.306784 84.0834751,130.087839 C83.9826537,123.931694 84.1986995,117.733288 83.8242201,111.584187 C83.8182153,110.873395 83.7361508,110.165171 83.5793683,109.471093 C83.1400752,107.907405 81.2892831,106.202843 79.5537155,106.956513 C78.6668207,107.425865 78.0582646,108.276917 77.9117676,109.252741 C77.6476475,110.699676 77.4983706,112.164428 77.4652731,113.633887 L76.6442991,124.121872 L75.0383589,144.25965 L76.0969832,144.118777 C75.7335192,143.087948 75.1766833,142.13246 74.4550354,141.301319 C73.4835905,140.061092 72.4298993,138.884619 71.3007672,137.779497 C69.0476273,135.477382 66.5652016,133.400956 63.8903974,131.581091 C62.8317731,130.876727 60.1888132,129.277819 60.131201,131.672658 C60.2117771,132.925012 60.5679728,134.145566 61.1754222,135.250829 C61.977922,136.96272 62.8721526,138.632033 63.8543897,140.251816 C65.8636154,143.682071 68.0888868,147.006671 69.9684849,150.514405 C71.6104328,153.592477 73.3315974,156.628288 75.0095528,159.671142 C75.7297054,161.009434 76.449858,162.340683 77.0979953,163.714193 C78.286247,166.320342 78.5383004,169.194148 78.711137,172.011606 C79.0063995,178.217056 78.9415858,184.443637 78.711137,190.649087 C78.2142317,203.193816 76.9107556,215.68924 75.7873176,228.191708 C75.6528891,229.746005 75.5184606,231.307346 75.3840322,232.875731 C75.32642,233.580095 76.4066488,233.580095 76.464261,232.875731 C77.4796761,220.901536 78.7759507,208.927342 79.4817002,196.910886 C79.834575,190.888571 80.0434192,184.852168 79.985807,178.822809 C79.985807,175.920828 79.9281948,173.011803 79.6833429,170.123909 C79.546299,167.716686 78.9859763,165.350589 78.0269921,163.129571 C76.5866869,160.030368 74.8223132,157.05795 73.1731638,154.064402 C71.6248358,151.246944 70.1269185,148.429487 68.4633661,145.731771 C66.4469389,142.400128 64.3008843,139.11779 62.5797197,135.624142 C61.9041058,134.473273 61.4523858,133.209916 61.2474375,131.898055 C61.2474375,131.757182 61.3194527,131.475436 61.2474375,131.355694 C61.1754222,131.235952 61.1898253,131.390913 61.1322131,131.390913 C61.379771,131.437465 61.6212947,131.510696 61.8523656,131.609266 C64.3296904,132.722161 66.5189542,134.778905 68.4993737,136.539816 C70.6598314,138.504993 72.9715211,140.639217 74.4982445,143.146754 C74.7440142,143.520527 74.9354855,143.925891 75.067165,144.351217 C75.1419821,144.602393 75.3934942,144.762175 75.6585349,144.726905 C75.9235756,144.691636 76.1223009,144.47194 76.1257893,144.210344 L77.7749387,123.551337 L78.5959126,113.218312 C78.711137,111.809583 78.5959126,110.105021 79.2008407,108.766729 C79.3887715,108.114281 80.0415114,107.6987 80.7275641,107.794706 C81.491498,108.059827 82.105871,108.627489 82.4199227,109.358395 C82.5317476,109.579697 82.6047786,109.817797 82.6359684,110.06276 C82.6791776,110.302243 82.7079837,110.710775 82.7367898,111.020695 C82.8160066,112.084285 82.8448127,113.133788 82.8664172,114.218509 C82.945634,117.324756 82.9384325,120.438047 82.9600371,123.544294 C82.9960447,129.806093 82.8016035,136.222852 83.7233988,142.44239 C83.8602278,143.37215 84.069072,145.921949 85.480571,145.964211 C87.0793097,145.964211 87.1945341,142.963619 87.302557,141.970465 C87.5546297,138.79285 87.6051372,135.60301 87.453789,132.419285 C87.3457661,128.615717 87.1297204,124.805106 86.8848685,121.008582 C86.6904273,118.000946 86.4599785,115.000354 86.2439327,111.999762 C86.1203991,110.5333 86.0795286,109.061298 86.1215068,107.590441 C86.2079251,105.653439 86.3519556,103.279731 87.4825951,101.617431 C87.661827,101.329867 87.9087378,101.088369 88.2027477,100.913066 C88.3440381,100.850214 88.4911351,100.800684 88.6420407,100.76515 C88.7932728,100.715844 88.9373033,100.76515 88.8004743,100.76515 C88.6636453,100.76515 88.7284591,100.659495 88.7644667,100.76515 C88.8004743,100.870805 88.7644667,100.76515 88.865288,100.913066 C89.1215743,101.459741 89.3008468,102.037897 89.3982009,102.631715 C89.8395628,104.891349 90.1377938,107.175492 90.2911901,109.471093 C90.8745137,116.007595 91.1409701,122.572271 91.4722403,129.122859 C91.6234723,132.045971 91.7675028,134.976127 91.9691456,137.906283 C92.040775,139.759793 92.2356278,141.606781 92.5524691,143.435543 C92.573536,143.867241 92.7524315,144.27718 93.0565759,144.590701 C93.5822873,144.978101 94.0431849,144.506177 94.2160215,144.034253 C94.4042955,143.375917 94.5035613,142.69629 94.5112841,142.012727 C94.5905009,140.892788 94.6121055,139.758761 94.6265085,138.638822 C94.7129268,131.940317 94.4536719,125.255899 94.5905009,118.543307 C94.5743659,115.758316 94.7645036,112.97584 95.1594214,110.21772 C95.234784,109.44954 95.4493773,108.70062 95.7931556,108.006016 C95.831914,107.928252 95.8829496,107.856942 95.9443877,107.794706 C95.9875968,107.745401 96.0019999,107.745401 96.0019999,107.745401 C96.0019999,107.745401 95.8507678,107.618615 96.0019999,107.829925 C96.7797646,108.956908 97.0966318,110.992521 97.3774913,112.478729 C97.9104042,115.35958 98.2704804,118.282692 98.6089521,121.19876 C99.3291047,127.397167 99.8116069,133.616704 100.567767,139.81511 C100.755007,141.357668 100.805417,143.153798 101.395943,144.625919 C101.604787,145.133061 102.036878,145.520462 102.591396,145.133061 C103.040755,144.695598 103.325104,144.121985 103.397967,143.50598 C103.888861,141.097078 104.161178,138.650464 104.211739,136.194678 C104.420583,132.813729 104.543009,129.43278 104.723047,126.051831 C104.874279,123.01602 105.025511,119.952035 105.4432,116.937356 C105.557287,115.947536 105.76953,114.970916 106.076934,114.021287 C106.162983,113.778533 106.26895,113.542978 106.393801,113.316923 C106.48022,113.183094 106.48022,113.211268 106.537832,113.183094 C106.465817,113.218312 106.494623,113.140832 106.595444,113.183094 C107.315597,113.676149 107.610859,114.718608 107.834106,115.563845 C108.244049,117.278937 108.50424,119.024998 108.611871,120.783185 C108.937092,125.26292 108.9924,129.757496 108.777506,134.243588 C108.698289,136.356681 108.539856,138.512036 108.388624,140.64626 C108.158175,143.851118 108.158175,147.070063 108.078958,150.281965 C108.051504,153.533052 107.774668,156.77754 107.250783,159.988106 C106.667459,163.164789 105.472006,166.130163 104.470994,169.187105 C103.47562,172.238749 102.967934,175.422411 102.965875,178.625587 C102.965875,181.999492 103.174719,185.380441 103.261138,188.754347 C103.443576,195.628943 103.443576,202.505887 103.261138,209.385179 C103.097903,216.034379 102.769033,222.671839 102.274529,229.29756 C102.224118,230.001924 103.304347,230.001924 103.354757,229.29756 L103.361959,229.346865 Z" id="Path" fill="#231F20"></path>
                    <path d="M38.8663022,223.474523 C41.5072558,224.744213 44.3766561,225.431394 47.2905098,225.492004 C47.5324978,225.492004 47.5324978,225.110318 47.2905098,225.102529 C44.4425831,225.04708 41.6374281,224.378436 39.0553554,223.139574 C38.8360537,223.030521 38.6470006,223.373259 38.8663022,223.474523 L38.8663022,223.474523 Z" id="Path" fill="#231F20"></path>
                    <path d="M37.3026269,218.688439 C41.2529953,220.159643 45.4192857,221.11857 49.6745603,221.536004 C49.9026143,221.536004 49.9026143,221.237264 49.6745603,221.218195 C45.4511312,220.798893 41.3163766,219.844324 37.3952738,218.383343 C37.1885998,218.307069 37.0959528,218.612165 37.3026269,218.688439 L37.3026269,218.688439 Z" id="Path" fill="#231F20"></path>
                    <path d="M38.1367072,216.341457 L49.6159689,219.155323 C49.7110663,219.182519 49.8106429,219.128977 49.8383796,219.035734 C49.8661164,218.942491 49.8115098,218.844855 49.7164125,218.817659 L38.201278,216.003793 C37.9788674,215.947516 37.8784238,216.292215 38.108009,216.341457 L38.1367072,216.341457 Z" id="Path" fill="#231F20"></path>
                    <path d="M38.0986815,213.159217 C42.041454,214.674765 46.2113273,215.631771 50.4661174,215.997604 C50.6936953,215.997604 50.6936953,215.690221 50.4661174,215.6706 C46.2430651,215.302777 42.1046918,214.350256 38.191135,212.845294 C37.9777807,212.766813 37.8853272,213.080736 38.0986815,213.159217 L38.0986815,213.159217 Z" id="Path" fill="#231F20"></path>
                    <path d="M39.6717014,209.23193 L49.6431239,212.039226 C49.7313654,212.054249 49.8161327,211.996693 49.8395003,211.905888 C49.8628679,211.815084 49.8172848,211.720373 49.7339001,211.686477 L39.7624776,208.879181 C39.674236,208.864158 39.5894687,208.921714 39.5661012,209.012519 C39.5427336,209.103323 39.5883167,209.198034 39.6717014,209.23193 Z" id="Path" fill="#231F20"></path>
                    <path d="M38.8624066,204.509304 C41.48363,206.02714 44.347793,206.972931 47.2965931,207.294403 C47.53047,207.294403 47.53047,206.925197 47.2965931,206.893092 C44.4101516,206.579019 41.6072706,205.649328 39.0451229,204.156151 C38.9563209,204.100741 38.8434301,204.134879 38.7929744,204.2324 C38.7425187,204.32992 38.7736045,204.453895 38.8624066,204.509304 L38.8624066,204.509304 Z" id="Path" fill="#231F20"></path>
                    <path d="M38.8531871,199.68734 C41.1965745,200.910343 43.8137745,201.618221 46.5015424,201.756003 C46.7405536,201.756003 46.7405536,201.418122 46.5015424,201.411226 C43.8775322,201.277753 41.3219426,200.588824 39.0324454,199.397727 C38.9451893,199.361321 38.8422446,199.391749 38.7941169,199.468172 C38.7459892,199.544595 38.768278,199.642242 38.845718,199.694236 L38.8531871,199.68734 Z" id="Path" fill="#231F20"></path>
                    <path d="M39.6611381,195.767073 C41.322433,196.48447 43.1024734,196.905064 44.9164003,197.008803 C45.1590676,197.008803 45.1590676,196.646632 44.9164003,196.639241 C43.1678127,196.539557 41.4519041,196.133964 39.8507218,195.441858 C39.6308047,195.353163 39.4336375,195.670986 39.6611381,195.767073 L39.6611381,195.767073 Z" id="Path" fill="#231F20"></path>
                    <path d="M40.5121586,192.594163 C41.7293647,192.512004 42.9515489,192.664665 44.1041975,193.042839 C44.3088909,193.111387 44.39473,192.806038 44.1900366,192.743721 C43.0094846,192.357859 41.7585127,192.20101 40.5121586,192.282582 C40.3008622,192.282582 40.2942592,192.606626 40.5121586,192.594163 L40.5121586,192.594163 Z" id="Path" fill="#231F20"></path>
                    <path d="M64.0054043,126.249897 L59.58865,123.443074 C59.5063569,123.405366 59.4092676,123.436882 59.3638773,123.516037 C59.318487,123.595192 59.3395081,123.696329 59.4125434,123.750182 L63.8292976,126.564147 C64.0194928,126.685562 64.1955994,126.378454 64.0054043,126.249897 L64.0054043,126.249897 Z" id="Path" fill="#231F20"></path>
                    <path d="M63.2012286,127.861804 L56.4608586,125.026257 C56.2403449,124.936786 56.0565835,125.232729 56.2697467,125.3222 L63.0174671,128.157747 C63.2306304,128.247218 63.4143919,127.951275 63.2012286,127.861804 L63.2012286,127.861804 Z" id="Path" fill="#231F20"></path>
                    <path d="M61.5565081,130.222476 L52.4361485,128.176537 C52.3416005,128.163046 52.250775,128.214735 52.2257374,128.296283 C52.2006997,128.377831 52.2495406,128.462887 52.3388846,128.493328 L61.4966534,130.545867 C61.5912014,130.559358 61.6820269,130.507669 61.7070645,130.426121 C61.7321022,130.344573 61.6832613,130.259517 61.5939173,130.229076 L61.5565081,130.222476 Z" id="Path" fill="#231F20"></path>
                    <path d="M60.790423,134.073571 C58.2936228,133.426679 55.7521379,133.041154 53.1963479,132.921602 C53.0936522,132.921602 53.0104009,133.018548 53.0104009,133.138138 C53.0104009,133.257727 53.0936522,133.354673 53.1963479,133.354673 C55.7196856,133.475571 58.2287444,133.858188 60.6937306,134.49798 C60.9243048,134.55861 61.0209973,134.142862 60.790423,134.082232 L60.790423,134.073571 Z" id="Path" fill="#231F20"></path>
                    <path d="M61.5256774,136.086402 C58.9000429,136.09411 56.3039167,136.537911 53.8959793,137.390679 C53.6704709,137.470283 53.8959793,137.733588 54.0839029,137.653984 C56.4343273,136.828078 58.9659189,136.398962 61.5256774,136.392571 C61.6294648,136.392571 61.713601,136.324032 61.713601,136.239486 C61.713601,136.15494 61.6294648,136.086402 61.5256774,136.086402 L61.5256774,136.086402 Z" id="Path" fill="#231F20"></path>
                    <path d="M76.1260387,225.432521 C81.6060089,225.657568 87.0966788,225.243333 92.4410167,224.201663 C92.6687999,224.159838 92.5691448,223.867061 92.3484797,223.914861 C87.0324089,224.938629 81.5732828,225.340769 76.1260387,225.109869 C75.8982554,225.109869 75.8982554,225.402646 76.1260387,225.408621 L76.1260387,225.432521 Z" id="Path" fill="#231F20"></path>
                    <path d="M76.9294653,223.118404 C80.8680355,223.121171 84.7773813,222.443304 88.4844697,221.114797 C88.7114691,221.03436 88.6162758,220.676052 88.3892763,220.756489 C84.7137615,222.078986 80.8362885,222.754437 76.9294653,222.752775 C76.8283619,222.752775 76.7464013,222.834622 76.7464013,222.935585 C76.7464013,223.036548 76.8283619,223.118404 76.9294653,223.118404 L76.9294653,223.118404 Z" id="Path" fill="#231F20"></path>
                    <path d="M77.705154,219.953182 C80.8372802,219.677209 83.9281391,219.004927 86.9135722,217.950293 C87.1230131,217.875278 87.0322554,217.515208 86.8158331,217.590223 C83.8616533,218.633052 80.8038991,219.300232 77.705154,219.578109 C77.4817504,219.578109 77.4817504,219.968185 77.705154,219.953182 L77.705154,219.953182 Z" id="Path" fill="#231F20"></path>
                    <path d="M76.173943,214.412553 C79.2677016,213.923823 82.3318206,213.251353 85.3511633,212.398467 C85.4281772,212.357062 85.4663957,212.265174 85.4425608,212.178721 C85.4187258,212.092269 85.3394328,212.035175 85.2529362,212.042184 C82.2368995,212.900911 79.1749228,213.575853 76.0827321,214.063542 C75.8582129,214.099897 75.95644,214.448908 76.173943,214.412553 L76.173943,214.412553 Z" id="Path" fill="#231F20"></path>
                    <path d="M77.7600545,211.244873 L85.3234435,209.272111 C85.544637,209.208474 85.4518784,208.826649 85.2235497,208.882331 L77.667296,210.863048 C77.4389673,210.918731 77.5388611,211.300556 77.7600545,211.244873 Z" id="Path" fill="#231F20"></path>
                    <path d="M77.8214301,207.275873 L82.983355,205.230476 C83.2051266,205.141842 82.983355,204.848669 82.7921726,204.937302 L77.6302477,206.9827 C77.4084761,207.071333 77.6302477,207.371325 77.8214301,207.275873 Z" id="Path" fill="#231F20"></path>
                    <path d="M76.9723556,200.958702 L82.168865,199.717487 C82.2554116,199.685503 82.3027232,199.596138 82.2784695,199.510459 C82.2542159,199.424779 82.1662342,199.370472 82.0746466,199.384647 L76.8781372,200.625862 C76.6462149,200.674401 76.7476809,201.014175 76.9723556,200.958702 Z" id="Path" fill="#231F20"></path>
                    <path d="M77.8394267,196.96776 C79.0429033,195.946011 80.5947845,195.56689 82.0760652,195.932758 C82.2865392,195.985258 82.3748025,195.625257 82.1643285,195.572757 C80.5655579,195.178243 78.8907842,195.590585 77.5950052,196.697759 C77.4252681,196.847759 77.6696896,197.11026 77.8394267,196.96776 L77.8394267,196.96776 Z" id="Path" fill="#231F20"></path>
                    <path d="M77.8353122,192.952727 C78.1730656,192.092677 78.9750043,191.666836 79.7182467,191.952862 C79.9110386,192.039464 79.9945818,191.65369 79.8017898,191.57496 C78.9187848,191.237646 77.9668433,191.738886 77.5589771,192.755903 C77.5151037,192.849468 77.5409017,192.968864 77.6168147,193.023584 C77.6530659,193.051647 77.6972177,193.059955 77.7386724,193.046511 C77.7801271,193.033068 77.8151419,192.999088 77.8353122,192.952727 Z" id="Path" fill="#231F20"></path>
                    <path d="M74.6783279,161.356681 C75.6111483,160.509908 76.8752513,160.082082 78.156338,160.179575 C78.3862891,160.179575 78.3862891,159.849159 78.156338,159.835392 C76.7799636,159.73687 75.4245512,160.202189 74.4268189,161.115753 C74.2615416,161.267194 74.5130506,161.508122 74.6783279,161.356681 L74.6783279,161.356681 Z" id="Path" fill="#231F20"></path>
                    <path d="M76.1647048,162.967535 C77.8332882,162.518492 79.5944391,162.380881 81.3300547,162.563931 C81.5481169,162.563931 81.5481169,162.294861 81.3300547,162.271463 C79.5633083,162.090434 77.7718863,162.236028 76.076117,162.698465 C75.8648692,162.756959 75.953457,163.037727 76.1647048,162.979234 L76.1647048,162.967535 Z" id="Path" fill="#231F20"></path>
                    <path d="M76.9385472,165.3376 C78.1187762,165.005951 79.3368258,164.909708 80.5433653,165.052768 C80.7554134,165.052768 80.7554134,164.680904 80.5433653,164.657168 C79.3076556,164.507562 78.0596456,164.609222 76.8524026,164.957824 C76.7732725,164.994317 76.7300152,165.096284 76.7521905,165.194046 C76.7743658,165.291808 76.854808,165.353774 76.9385472,165.3376 L76.9385472,165.3376 Z" id="Path" fill="#231F20"></path>
                    <path d="M147.105564,92.2505341 L141.087111,88.631124 C141.003209,88.5913952 140.904223,88.6245998 140.857945,88.7079964 C140.811668,88.791393 140.8331,88.8979503 140.907562,88.9546887 L146.890106,92.5439998 C147.0912,92.664396 147.27793,92.3408312 147.076836,92.2204351 L147.105564,92.2505341 Z" id="Path" fill="#231F20"></path>
                    <path d="M146.244654,93.7646433 L141.844782,92.5773985 C141.627591,92.5149119 141.529504,92.8898313 141.746696,92.9523179 L146.153574,94.1473735 C146.370765,94.2020493 146.468852,93.8271299 146.244654,93.7646433 Z" id="Path" fill="#231F20"></path>
                    <path d="M146.152345,95.7708407 C144.717595,96.1013297 143.24748,96.1840094 141.791205,96.0161127 C141.569335,96.0161127 141.569335,96.3800647 141.791205,96.4117127 C143.280299,96.5822287 144.78344,96.4941969 146.249413,96.1506167 C146.46435,96.1031447 146.374215,95.7154567 146.152345,95.7708407 L146.152345,95.7708407 Z" id="Path" fill="#231F20"></path>
                    <path d="M145.427992,98.9075812 C143.588867,99.0709119 141.796558,99.5068746 140.130559,100.196133 C139.919535,100.283704 140.130559,100.552674 140.312476,100.465102 C141.914221,99.7997954 143.637302,99.3766026 145.406162,99.2140813 C145.639016,99.2140813 145.639016,98.8763056 145.406162,98.9013261 L145.427992,98.9075812 Z" id="Path" fill="#231F20"></path>
                    <path d="M139.074926,174.863891 C137.051042,174.814557 135.027606,174.975448 133.046271,175.343252 C132.827688,175.386831 132.919352,175.685653 133.144986,175.642075 C135.094046,175.28161 137.084379,175.124895 139.074926,175.175165 C139.172281,175.175165 139.251202,175.105484 139.251202,175.019528 C139.251202,174.933572 139.172281,174.863891 139.074926,174.863891 L139.074926,174.863891 Z" id="Path" fill="#231F20"></path>
                    <path d="M139.02141,178.03149 C136.085546,179.031802 133.018565,179.725905 129.887225,180.098693 C129.657615,180.098693 129.758069,180.416725 129.980504,180.392261 C133.116903,180.021206 136.188876,179.327063 139.12904,178.325057 C139.3443,178.257782 139.251021,177.958098 139.035761,178.03149 L139.02141,178.03149 Z" id="Path" fill="#231F20"></path>
                    <path d="M139.029158,181.979831 L133.051906,183.199703 C132.826083,183.244062 132.917824,183.598934 133.143647,183.554575 L139.120899,182.334703 C139.346722,182.290344 139.254981,181.935472 139.029158,181.979831 Z" id="Path" fill="#231F20"></path>
                    <path d="M139.072274,185.932843 C135.568542,186.240432 132.163109,187.208414 129.05231,188.780983 C128.844754,188.88368 129.05231,189.178079 129.231238,189.075382 C132.288127,187.528255 135.635441,186.576487 139.079431,186.275168 C139.308459,186.275168 139.308459,185.912304 139.079431,185.932843 L139.072274,185.932843 Z" id="Path" fill="#231F20"></path>
                    <path d="M139.869277,189.88956 C136.039376,190.350212 132.199706,190.754508 128.350265,191.102448 C128.115781,191.102448 128.115781,191.484691 128.350265,191.46999 C132.199706,191.126951 136.039376,190.722655 139.869277,190.257101 C140.096433,190.257101 140.10376,189.860156 139.869277,189.88956 Z" id="Path" fill="#231F20"></path>
                    <path d="M139.049068,193.054615 C137.621913,193.360948 136.154982,193.531934 134.678276,193.564078 C134.582027,193.564078 134.504002,193.626742 134.504002,193.704041 C134.504002,193.78134 134.582027,193.844003 134.678276,193.844003 C136.185621,193.810896 137.682954,193.636153 139.139691,193.323343 C139.222934,193.29752 139.26844,193.225368 139.245112,193.156193 C139.221784,193.087017 139.13716,193.04317 139.049068,193.054615 L139.049068,193.054615 Z" id="Path" fill="#231F20"></path>
                    <path d="M138.205952,196.23845 L135.376533,197.47241 C135.29895,197.525695 135.272782,197.631009 135.315903,197.716413 C135.364927,197.795702 135.464441,197.822962 135.544951,197.779157 L138.374369,196.538225 C138.414039,196.516344 138.443115,196.478359 138.454619,196.433388 C138.466122,196.388417 138.459013,196.34052 138.435,196.301193 C138.385975,196.221905 138.286462,196.194645 138.205952,196.23845 L138.205952,196.23845 Z" id="Path" fill="#231F20"></path>
                    <path d="M160.859624,179.59889 L164.431809,179.058201 C164.672544,179.022829 164.57159,178.775224 164.330856,178.815649 L160.750906,179.356338 C160.510171,179.39171 160.611125,179.634262 160.859624,179.59889 Z" id="Path" fill="#231F20"></path>
                    <path d="M160.837625,181.969164 C163.011447,181.489456 165.302953,181.334634 167.566189,181.514559 C167.790474,181.514559 167.790474,181.279595 167.566189,181.259163 C165.26858,181.075179 162.941855,181.233529 160.736335,181.723984 C160.519284,181.769955 160.61334,182.020243 160.837625,181.969164 L160.837625,181.969164 Z" id="Path" fill="#231F20"></path>
                    <path d="M163.265248,183.403352 C164.613445,182.912733 166.156152,182.962079 167.455398,183.537382 C167.667095,183.634859 167.849593,183.366798 167.645196,183.275413 C166.227115,182.648435 164.542771,182.599033 163.07545,183.141383 C162.863753,183.220582 163.07545,183.482552 163.265248,183.403352 L163.265248,183.403352 Z" id="Path" fill="#231F20"></path>
                    <path d="M163.207415,186.259218 C164.39246,186.129685 165.598198,186.285471 166.675546,186.707315 C166.880385,186.787743 167.05697,186.540715 166.852131,186.460287 C165.692297,186.00354 164.391683,185.837568 163.115591,185.983467 C162.889562,185.983467 162.98845,186.282198 163.207415,186.259218 L163.207415,186.259218 Z" id="Path" fill="#231F20"></path>
                    <path d="M184.180261,208.878563 L176.604247,210.041949 C176.382055,210.041949 176.382055,210.490684 176.604247,210.457444 L184.180261,209.294058 C184.402452,209.294058 184.40962,208.845323 184.180261,208.878563 Z" id="Path" fill="#231F20"></path>
                    <path d="M184.938612,211.250404 C181.65774,211.245917 178.44956,212.23111 175.721489,214.080883 C175.540215,214.201178 175.721489,214.512529 175.902764,214.385158 C178.587108,212.57331 181.742782,211.614942 184.9665,211.632532 C185.062765,211.632532 185.140803,211.553329 185.140803,211.455628 C185.140803,211.357926 185.062765,211.278724 184.9665,211.278724 L184.938612,211.250404 Z" id="Path" fill="#231F20"></path>
                    <path d="M184.920514,214.419101 C181.708068,215.128202 178.610528,216.342929 175.727958,218.024039 C175.531925,218.136929 175.727958,218.460546 175.909989,218.347656 C178.764839,216.685578 181.831464,215.483627 185.011529,214.780347 C185.235567,214.735191 185.144552,214.373945 184.920514,214.419101 L184.920514,214.419101 Z" id="Path" fill="#231F20"></path>
                    <path d="M184.118249,218.378883 C181.790098,219.141453 179.516939,220.079849 177.316374,221.186802 C177.106752,221.293625 177.316374,221.621724 177.497082,221.514901 C179.672565,220.423934 181.919065,219.498325 184.219446,218.745134 C184.315256,218.715635 184.370272,218.609734 184.342328,218.508597 C184.314383,218.40746 184.214059,218.349385 184.118249,218.378883 L184.118249,218.378883 Z" id="Path" fill="#231F20"></path>
                    <path d="M184.897416,222.327204 C180.862656,223.245553 176.977484,224.73065 173.357009,226.738492 C173.155052,226.846967 173.357009,227.165158 173.537328,227.049452 C177.140053,225.069498 181.00325,223.608794 185.01282,222.71048 C185.236415,222.659858 185.142649,222.305509 184.919054,222.35613 L184.897416,222.327204 Z" id="Path" fill="#231F20"></path>
                    <path d="M219.110419,132.628504 L215.518661,129.020431 C215.355061,128.857046 215.094789,129.095315 215.258389,129.2587 L218.850146,132.866773 C219.013746,133.030158 219.274018,132.791889 219.110419,132.628504 Z" id="Path" fill="#231F20"></path>
                    <path d="M217.500081,134.15134 L212.296639,130.579927 C212.110802,130.444589 211.931847,130.775415 212.124567,130.903234 L217.32801,134.474647 C217.513847,134.602466 217.685918,134.279159 217.500081,134.15134 Z" id="Path" fill="#231F20"></path>
                    <path d="M217.398909,136.877899 L208.261127,137.404737 C208.030825,137.404737 208.023396,137.683961 208.261127,137.668156 L217.398909,137.141318 C217.63664,137.141318 217.644069,136.867362 217.398909,136.877899 Z" id="Path" fill="#231F20"></path>
                    <path d="M193.238676,219.755804 L202.36133,219.755804 C202.463985,219.755804 202.547203,219.667246 202.547203,219.558004 C202.547203,219.448762 202.463985,219.360204 202.36133,219.360204 L193.238676,219.360204 C193.136021,219.360204 193.052803,219.448762 193.052803,219.558004 C193.052803,219.667246 193.136021,219.755804 193.238676,219.755804 Z" id="Path" fill="#231F20"></path>
                    <path d="M192.450803,217.382204 L200.775603,217.382204 C200.880096,217.382204 200.964803,217.293646 200.964803,217.184404 C200.964803,217.075162 200.880096,216.986604 200.775603,216.986604 L192.450803,216.986604 C192.346311,216.986604 192.261603,217.075162 192.261603,217.184404 C192.261603,217.293646 192.346311,217.382204 192.450803,217.382204 Z" id="Path" fill="#231F20"></path>
                    <path d="M192.431906,212.832692 L204.7505,212.425684 C204.977571,212.425684 204.977571,212.034036 204.7505,212.041715 L192.431906,212.448723 C192.204835,212.448723 192.204835,212.840371 192.431906,212.832692 Z" id="Path" fill="#231F20"></path>
                    <path d="M194.022523,209.470203 L201.577483,209.470203 C201.676077,209.470203 201.756003,209.381645 201.756003,209.272403 C201.756003,209.163162 201.676077,209.074603 201.577483,209.074603 L194.022523,209.074603 C193.923929,209.074603 193.844003,209.163162 193.844003,209.272403 C193.844003,209.381645 193.923929,209.470203 194.022523,209.470203 Z" id="Path" fill="#231F20"></path>
                    <path d="M191.649069,204.125812 L200.783336,203.738124 C201.021556,203.738124 201.029,203.3267 200.783336,203.342524 L191.649069,203.730212 C191.410848,203.730212 191.410848,204.133724 191.649069,204.125812 Z" id="Path" fill="#231F20"></path>
                    <path d="M192.440237,200.963176 C194.944881,200.631434 197.470869,200.502978 199.994969,200.57899 C200.233148,200.57899 200.233148,200.202488 199.994969,200.194804 C197.470869,200.118792 194.944881,200.247248 192.440237,200.57899 C192.202059,200.57899 192.202059,200.993911 192.440237,200.963176 L192.440237,200.963176 Z" id="Path" fill="#231F20"></path>
                    <path d="M194.095559,197.793424 C195.497422,197.48111 196.943465,197.327206 198.394715,197.335861 C198.503233,197.335861 198.591203,197.262697 198.591203,197.172445 C198.591203,197.082193 198.503233,197.00903 198.394715,197.00903 C196.906347,197.001964 195.423511,197.160242 193.985526,197.479666 C193.881349,197.504937 193.821529,197.59566 193.851914,197.682302 C193.882299,197.768943 193.991382,197.818695 194.095559,197.793424 L194.095559,197.793424 Z" id="Path" fill="#231F20"></path>
                    <path d="M52.5497388,125.009602 C50.3000508,123.154074 39.6282714,117.382889 40.3900329,114.497297 C41.0255722,112.431077 43.0487665,111.100326 45.2168951,111.32244 C47.3355426,111.675801 49.1302455,113.066796 49.9868031,115.019385 C49.9868031,115.019385 50.6987297,109.516299 52.8345094,108.22519 C55.089184,106.964086 57.9457295,107.678008 59.3272798,109.847895 C60.8294449,112.267842 60.0392064,115.576748 58.4943257,117.954364 C56.949445,120.331979 52.5497388,125.009602 52.5497388,125.009602 Z" id="Path" fill="#7786FF"></path>
                    <path d="M85.38025,155.605365 C84.7248705,154.800411 84.4977769,153.715369 84.7731851,152.70484 C85.0277685,151.730398 85.785376,150.980034 86.7426167,150.754237 C87.4236816,150.651474 88.1182447,150.797766 88.7049893,151.167561 C89.6803597,151.932532 90.5474887,152.83306 91.2814858,153.843296 C92.0405915,152.835641 92.7474617,151.787581 93.3991542,150.703477 C93.964205,149.502443 95.1500565,148.741083 96.4485966,148.745602 C97.8603755,148.883398 99.0533287,150.543948 98.8839152,152.175494 C98.7476431,153.158589 98.3042159,154.069618 97.6203731,154.771464 C96.9850726,155.496596 92.4814979,160.529007 91.7614907,162.987203 L85.38025,155.605365 Z" id="Path" fill="#7786FF"></path>
                    <path d="M173.55654,161.550345 C172.201376,159.855459 170.42813,158.315937 168.258427,157.94165 C166.088723,157.567362 163.551396,158.746721 163.068439,160.851205 C162.686398,162.546091 163.70277,164.283349 165.050726,165.406212 C166.398681,166.529074 168.071011,167.21409 169.584757,168.11803 C172.315978,169.748341 174.541536,172.077672 176.021784,174.855203 C176.021784,174.855203 181.298273,161.387919 181.182939,159.742466 C181.214511,158.927486 180.824127,158.151939 180.144942,157.680355 C179.828551,157.53709 179.484326,157.462415 179.135777,157.461432 C177.879549,157.373316 176.635099,157.748647 175.646952,158.513674 C174.803688,159.421353 174.099527,160.444264 173.55654,161.550345 L173.55654,161.550345 Z" id="Path" fill="#7786FF"></path>
                    <path d="M209.005121,107.76698 C208.168598,106.807625 207.141417,106.027559 205.987039,105.474979 C204.814792,104.921249 203.460761,104.877357 202.254148,105.353972 C200.447814,106.246772 199.677043,108.385038 200.506837,110.201343 C201.136514,111.221948 202.015183,112.071042 203.06282,112.671295 L210.636907,117.888802 C211.665339,115.769595 212.89081,113.748925 214.297596,111.852723 C215.272335,110.535889 216.369819,109.226174 216.709173,107.631738 C217.048527,106.037302 216.290396,104.072729 214.680271,103.70971 C213.293975,103.389399 211.92934,104.350332 211.070125,105.446507 C210.43857,106.267368 209.748488,107.042823 209.005121,107.76698 L209.005121,107.76698 Z" id="Path" fill="#7786FF"></path>
                    <path d="M128.796047,69.1161749 C128.583213,68.9609594 128.32877,68.8634751 128.06059,68.8344011 C127.824178,68.8472656 127.594584,68.9132797 127.391325,69.026832 C125.868929,69.7553202 124.655426,71.3634922 125.104055,72.9098114 C125.219652,73.2664622 125.377529,73.6099281 125.574747,73.9338184 C126.972115,76.4285468 131.031835,81.4936014 131.031835,81.4936014 C131.870256,80.7170055 136.327124,78.6758641 137.518563,78.1672968 C138.759901,77.7207527 139.798771,76.8883088 140.46039,75.8100191 C141.151636,74.7014734 140.859393,73.286113 139.776415,72.4974596 C138.504075,71.322257 133.091114,71.4803252 132.377721,73.9956712 C132.304176,73.9613085 129.972778,69.8652806 128.796047,69.1161749 Z" id="Path" fill="#7786FF"></path>
                </g>
            </g>
        </g>
    </g>
</svg>