<svg xmlns="http://www.w3.org/2000/svg" width="32" height="32" viewBox="0 0 32 32">
    <g fill="none" fill-rule="evenodd">
        <g fill="#7786FF" fill-rule="nonzero">
            <g>
                <path d="M11.194 4.587l16.589 10.066.007.004c.499.31.796.846.796 1.433 0 .588-.297 1.123-.796 1.433l-.007.005-16.589 10.065c-1.592.967-3.625.721-4.942-.596l-1.759-1.759c-.64-.64-.657-1.673-.05-2.334l4.832-6.814-4.832-6.814c-.607-.66-.59-1.693.05-2.334l1.76-1.759c1.316-1.317 3.349-1.562 4.941-.596zM7.313 6.244L5.554 8.003c-.073.073-.073.192 0 .265.03.03.057.062.082.096l4.946 6.976h10.22c.413 0 .75.336.75.75s-.337.75-.75.75h-10.22l-4.946 6.976c-.025.034-.052.067-.082.097-.073.073-.073.192 0 .265l1.759 1.759c.827.827 2.103.98 3.103.374L27 16.248c.071-.045.086-.11.086-.158 0-.047-.015-.112-.086-.158L10.416 5.87c-1-.607-2.276-.453-3.103.374z" transform="translate(-625 -410) translate(625 410)"/>
            </g>
        </g>
    </g>
</svg>
