<svg width="48" height="49" viewBox="0 0 48 49" fill="none" xmlns="http://www.w3.org/2000/svg">
    <path fill-rule="evenodd" clip-rule="evenodd" d="m37.847 3.714 1.134.071 1.123.083c3.696.297 7.457 4.057 7.666 7.674l.077 1.537c.442 10.319-.126 28.226-1.023 30.074-.85 1.752-5.676 2.273-14.23 2.34l-2.825.007-1.382-.008c-7.92-.075-13.341-.598-14.59-1.885-.927-.954-1.495-6.509-1.705-13.107h3.583c.046 1.787.114 3.462.201 4.95l.084 1.288c.06.843.128 1.598.2 2.254l.057.473.097.703.044.271.089.466.051.22.474.11.548.098c.678.11 1.532.21 2.532.297l1.207.094c2.346.164 5.222.26 8.216.277l1.002.002.91-.002c3.017-.016 5.879-.112 8.165-.276l.668-.052c1.168-.096 2.133-.21 2.849-.336l.291-.054.29-.063.074-.67c.09-.949.196-2.442.295-4.26l.128-2.662.103-2.782.07-2.59.047-2.47c.056-3.687.044-7.266-.04-10.34l-9.26.003.002-8.34-1.775-.041c-6.787-.12-14.309.175-16.359.582l-.297.07-.1.035c-.046.161-.09.358-.135.591l-.045.246-.044.27c-.117.757-.223 1.74-.315 2.916l-.076 1.054-.047.75a176.58 176.58 0 0 0-.257 7.861v.057h-3.596c.12-7.833.711-14.981 1.773-16.076 1.677-1.727 14.297-2.275 24.051-1.71zM39.17 7.34l.242-.018.395.03c.844.068 1.778.57 2.566 1.272a3.43 3.43 0 0 1 .773 1.806l.02.29.002 1.23h-4.5V7.397l.502-.056zM7.5 18.5A1.5 1.5 0 0 0 6 20v4.5H1.5a1.5 1.5 0 0 0 0 3H6V32a1.5 1.5 0 0 0 3 0v-4.5h4.5a1.5 1.5 0 0 0 0-3H9V20a1.5 1.5 0 0 0-1.5-1.5zM21 23a1.5 1.5 0 0 1 1.5-1.5h15a1.5 1.5 0 0 1 0 3h-15A1.5 1.5 0 0 1 21 23zm0 6a1.5 1.5 0 0 1 1.5-1.5h15a1.5 1.5 0 0 1 0 3h-15A1.5 1.5 0 0 1 21 29zm1.5 4.5a1.5 1.5 0 0 0 0 3h6a1.5 1.5 0 0 0 0-3h-6z" fill="#7786FF"/>
</svg>
