<svg xmlns="http://www.w3.org/2000/svg" width="324" height="324" viewBox="0 0 324 324">
    <g fill="none" fill-rule="evenodd">
        <g fill-rule="nonzero">
            <g>
                <g>
                    <g>
                        <g fill="#7786FF" opacity=".1">
                            <path d="M51.638 262.713C29.25 249.905 3.867 232.338.658 202.044c-1.458-13.78 2.207-27.52 3.27-41.35 2.026-26.811-5.69-54.22-.89-80.474 4.89-26.669 23.6-48.6 45.38-53.206 21.971-4.628 88.087-21.83 99.782-24.3 30.962-6.582 64.182-1.479 89.829 20.979 10.398 9.112 21.171 46.2 32.4 53.53 12.059 7.827 27.246 12.211 33.787 27.064 3.2 7.25 3.675 15.826 3.746 24.088.21 23.443-2.314 46.832-7.523 69.69-4.192 18.276-10.408 36.521-21.546 49.613-12.747 14.964-30.375 21.434-47.233 27.428-36.45 12.92-74.925 25.91-111.659 14.287l-68.364-26.68z" transform="translate(-558 -1228) translate(121 1228) translate(437) translate(8.1 15.188) matrix(-1 0 0 1 308.294 0)"/>
                        </g>
                        <path fill="#CBCDE5" d="M106.159 206.76c-1.466 1.141-2.482 2.745-2.876 4.538-.502 3.119 23.406.078 23.279-2.34-.127-2.417-2.876-5.731-4.278-7.47-.008-.024-12.325 1.988-16.125 5.271z" transform="translate(-558 -1228) translate(121 1228) translate(437) translate(8.1 15.188)"/>
                        <path fill="#000" d="M106.312 207.018c-1.224 1.092-4.864 5.064-1.905 6.107 2.14.754 4.79.49 7.004.361 3.136-.184 6.256-.579 9.339-1.18 1.97-.377 4.58-.722 6.25-1.942.925-.682.543-1.693.17-2.656-.875-2.287-2.504-4.237-4.053-6.13-.079-.077-.193-.108-.3-.08-2.343.384-4.677.914-6.972 1.516-3.242.85-6.972 1.805-9.566 4.012-.3.257.13.682.43.425 1.726-1.285 3.682-2.238 5.764-2.808 2.201-.718 4.439-1.32 6.704-1.806.822-.187 1.632-.355 2.432-.505.406-.147.833-.226 1.265-.233h.081c-.292-.144.146.482.203.546.494.626.98 1.26 1.443 1.91.946 1.17 1.689 2.488 2.197 3.9.17.593.348.995-.138 1.372-.41.281-.862.5-1.338.65-1.485.513-3.008.91-4.556 1.187-3.794.762-7.65 1.19-11.52 1.276-1.541.12-3.092-.015-4.588-.4-.3-.105-.681-.226-.77-.555-.17-.617.567-1.813.859-2.295.55-.85 1.222-1.618 1.994-2.279.292-.224-.146-.65-.43-.393z" transform="translate(-558 -1228) translate(121 1228) translate(437) translate(8.1 15.188)"/>
                        <path fill="#FFF" d="M111.813 168.075L125.55 200.625 114.266 204.525 102.263 175.995z" transform="translate(-558 -1228) translate(121 1228) translate(437) translate(8.1 15.188)"/>
                        <path fill="#221F20" d="M111.511 167.507l4.494 11.068 7.133 17.667 1.657 4.055.245-.454-10.93 3.932.437.26-6.57-16.217-4.027-9.957c-.222-.83-.544-1.627-.959-2.375 0 0 0-.163-.063-.17.134 0-.278.3 0 .25.277-.048.887-.761 1.133-.972l8.029-6.925c.356-.308-.15-.81-.5-.519l-9.225 7.987c-.091.093-.125.23-.087.357l10.184 25.176 1.45 3.583c.051.195.246.311.437.26l10.937-3.933c.188-.055.3-.251.254-.446l-4.494-11.067-7.133-17.668-1.657-4.054c-.23-.462-.92-.276-.745.162z" transform="translate(-558 -1228) translate(121 1228) translate(437) translate(8.1 15.188)"/>
                        <path fill="#CBCDE5" d="M163.597 189.837c-1.847.52-3.454 1.663-4.543 3.231-1.742 2.795 21.982 9.273 22.885 6.89.904-2.382-.39-6.607-1.01-8.812 0-.032-12.415-2.948-17.332-1.309z" transform="translate(-558 -1228) translate(121 1228) translate(437) translate(8.1 15.188)"/>
                        <path fill="#000" d="M163.664 189.932c-1.496.547-6.363 2.883-4.12 5.046 1.59 1.55 4.072 2.345 6.084 3.09 2.938 1.086 5.944 1.963 8.995 2.627 1.949.414 4.415 1.11 6.41.63 1.05-.249 1.13-1.185 1.194-2.23.167-2.568-.605-5.178-1.265-7.63-.026-.106-.105-.189-.206-.215-2.275-.556-4.582-.986-6.896-1.318-3.245-.472-7-1.06-10.196 0-.358.124-.207.73.159.605 2.054-.545 4.188-.683 6.29-.406 2.32.185 4.627.504 6.912.953.796.157 1.591.315 2.386.497.239.05.955.075 1.138.257-.143-.141.087.779.135.953.19.745.374 1.491.525 2.245.405 1.55.516 3.17.326 4.764-.103.588-.143.829-.676.928-.488.088-.986.11-1.48.066-1.523-.104-3.036-.334-4.525-.687-3.692-.77-7.312-1.88-10.817-3.315-1.448-.497-2.807-1.238-4.024-2.195-.247-.224-.533-.489-.501-.829.04-.605 1.193-1.491 1.63-1.823.819-.594 1.716-1.06 2.665-1.383.382-.158.262-.754-.143-.63z" transform="translate(-558 -1228) translate(121 1228) translate(437) translate(8.1 15.188)"/>
                        <path fill="#D4DAFF" d="M173.125 155.925L183.262 189.613 171.858 192.375 163.012 162.846z" transform="translate(-558 -1228) translate(121 1228) translate(437) translate(8.1 15.188)"/>
                        <path fill="#221F20" d="M173.277 155.39l3.472 11.445 5.53 18.273 1.276 4.223.26-.445-11.562 2.774.455.26-7.854-26.04-1.122-3.712-.171.413 10.261-6.973c.382-.267 0-.898-.374-.631l-10.253 6.973c-.143.084-.212.252-.17.412l7.854 26.038 1.122 3.713c.059.188.255.298.447.251l11.562-2.775c.193-.058.305-.259.252-.452l-3.464-11.422-5.537-18.273-1.252-4.247c-.035-.13-.137-.231-.267-.266-.131-.035-.27.002-.366.097-.096.095-.134.233-.099.364z" transform="translate(-558 -1228) translate(121 1228) translate(437) translate(8.1 15.188)"/>
                        <path fill="#CBCDE5" d="M229.692 184.484c-1.468 1.142-2.487 2.745-2.884 4.539-.502 3.119 23.406.078 23.279-2.34-.127-2.417-2.868-5.731-4.27-7.47 0-.024-12.34 1.996-16.125 5.271z" transform="translate(-558 -1228) translate(121 1228) translate(437) translate(8.1 15.188)"/>
                        <path fill="#000" d="M228.82 184.75c-1.223 1.083-4.863 5.054-1.896 6.097 2.132.754 4.782.497 6.995.36 3.139-.183 6.261-.577 9.346-1.178 1.97-.377 4.58-.722 6.241-1.942.932-.682.551-1.693.178-2.655-.883-2.279-2.512-4.236-4.052-6.13-.076-.076-.187-.107-.292-.08-2.35.393-4.677.915-6.98 1.517-3.241.85-6.97 1.805-9.564 4.01-.3.25.138.675.43.426 1.729-1.287 3.686-2.243 5.771-2.816 2.2-.719 4.438-1.321 6.703-1.805.811-.176 1.622-.345 2.432-.505.408-.147.838-.226 1.273-.233h.073c-.292-.144.154.481.202.546.503.625.99 1.26 1.451 1.909.93 1.19 1.65 2.528 2.132 3.955.17.594.357.995-.13 1.38-.412.277-.862.493-1.337.642-1.485.511-3.008.908-4.556 1.187-3.793.765-7.647 1.191-11.518 1.276-1.543.12-3.097-.015-4.595-.402-.3-.096-.673-.224-.762-.553-.17-.618.559-1.813.859-2.295.545-.85 1.214-1.614 1.986-2.27.316-.28-.114-.706-.39-.441z" transform="translate(-558 -1228) translate(121 1228) translate(437) translate(8.1 15.188)"/>
                        <path fill="#FFF" d="M234.325 144.787L248.063 177.338 236.779 181.238 224.775 152.708z" transform="translate(-558 -1228) translate(121 1228) translate(437) translate(8.1 15.188)"/>
                        <path fill="#221F20" d="M234.043 145.232l4.482 11.068 7.126 17.667 1.655 4.054.253-.446-10.926 3.924.435.26-6.564-16.216-4.022-9.957c-.224-.829-.545-1.627-.958-2.376 0 0-.048-.162-.071-.17.142.04-.278.3 0 .252.277-.05.886-.763 1.124-.973l8.029-6.925c.348-.308-.159-.81-.507-.519l-9.217 7.987c-.092.092-.128.229-.095.357l10.207 25.175 1.449 3.592c.053.191.247.303.435.251l10.927-3.932c.187-.055.296-.254.245-.446l-4.481-11.068-7.166-17.667-1.655-4.054c-.198-.462-.887-.276-.705.162z" transform="translate(-558 -1228) translate(121 1228) translate(437) translate(8.1 15.188)"/>
                        <path fill="#D4DAFF" d="M296.052 205.537c-4.813 2.337-32.736 7.523-35.84 8.774 2.376 2.237 5.075 2.983 7.696 3.679l8.02 2.146c1.247.408 2.548.606 3.855.588 2.81-.224 5.201-2.602 7.917-3.314 1.37-.381 2.818-.348 4.172-.829 2.565-.828 4.75-3.537 5.803-7.208l-1.623-3.835z" transform="translate(-558 -1228) translate(121 1228) translate(437) translate(8.1 15.188)"/>
                        <path fill="#FFF" d="M294.635 162.47c-10.393-18.47-26.14-14.954-30.734-13.1-4.594 1.855-22.17 11.445-15.262 41.67 2.483 10.87 10.757 19.365 19.532 22.322 8.83 2.985 18.611.687 25.137-5.906 8.663-8.6 7.935-33.23 1.327-44.987zm.477 17.646c.477 7.192.922 14.825-3.696 20.939-3.486 4.482-8.747 7.278-14.453 7.68-9.916.623-20.026-9.59-23.245-21.578-.76-2.814-1.715-15.185 1.496-21.483 3.098-6.082 11.857-12.467 18.91-11.253 14.396 2.47 20.349 15.968 20.988 25.695z" transform="translate(-558 -1228) translate(121 1228) translate(437) translate(8.1 15.188)"/>
                        <path fill="#221F20" d="M294.634 161.69c-3.493-6.258-8.62-11.763-15.588-13.906-4.35-1.295-8.981-1.295-13.332 0-6.466 1.91-11.888 7.222-14.95 13.112-2.918 5.618-3.907 12.037-3.684 18.36.303 8.523 2.225 17.173 7.503 24.018 4.784 6.187 11.77 10.729 19.639 11.315 7.575.561 16.074-2.745 20.571-9.1 3.74-5.288 4.697-12.422 4.864-18.746.279-7.125-.804-14.237-3.19-20.952-.517-1.398-1.132-2.758-1.841-4.068-.223-.41-.845-.048-.622.361 3.141 5.746 4.393 12.55 4.784 19.026.423 6.612 0 13.642-2.448 19.86-1.109 2.86-2.916 5.39-5.254 7.36-3.148 2.667-6.927 4.47-10.972 5.231-7.973 1.46-15.851-1.556-21.648-7.045-2.959-2.81-5.357-6.162-7.064-9.878-1.732-4.06-2.825-8.368-3.237-12.767-.798-6.564-.503-13.393 1.881-19.612 2.504-6.548 7.567-12.422 14.09-15.143 3.418-1.365 7.12-1.853 10.772-1.42 6.227.69 11.609 4.18 15.524 9.012 1.344 1.688 2.541 3.49 3.58 5.384.223.37.845 0 .622-.401z" transform="translate(-558 -1228) translate(121 1228) translate(437) translate(8.1 15.188)"/>
                        <path fill="#221F20" d="M294.699 180.33c.375 5.815.797 12.025-1.595 17.493-2.443 5.284-7.142 9.147-12.755 10.484-10.675 2.67-19.628-6.387-23.781-15.427-1.01-2.08-1.747-4.284-2.192-6.557-.28-1.775-.44-3.567-.479-5.363-.167-4.557 0-9.46 1.595-13.783 1.777-4.79 6.146-8.726 10.61-10.928 2.303-1.221 4.892-1.78 7.487-1.612 2.507.31 4.938 1.077 7.174 2.266 7.686 3.968 12.262 12.234 13.593 20.637.144.92.247 1.847.311 2.783 0 .46.75.467.717 0-.59-8.646-4.56-17.517-11.735-22.525-3.986-2.774-9.247-4.694-14.078-3.573-5.174 1.21-9.966 4.912-12.963 9.275-2.79 4.032-3.357 9.177-3.46 14-.096 4.073.064 8.25 1.363 12.137 1.793 5.515 4.952 10.474 9.176 14.404 3.596 3.226 8.251 5.758 13.202 5.532 5.594-.305 10.802-2.977 14.35-7.363 3.866-4.838 4.568-11.097 4.385-17.13-.048-1.612-.144-3.177-.248-4.757.008-.46-.709-.46-.677.008z" transform="translate(-558 -1228) translate(121 1228) translate(437) translate(8.1 15.188)"/>
                        <g fill="#7786FF" opacity=".1">
                            <path d="M2.819 2.81c-4.739 5.055-1.555 12.086.6 14.637 2.534 2.981 12.96 5.071 12.603-7.29-.057-2.32-.792-4.572-2.114-6.48C9.364-2.43 4 1.547 2.818 2.811z" transform="translate(-558 -1228) translate(121 1228) translate(437) translate(8.1 15.188) translate(266.288 171.113)"/>
                        </g>
                        <path fill="#221F20" d="M267.763 173.633c-3.394 3.783-3.012 9.128-.674 13.37.588 1.207 1.474 2.239 2.574 2.994 1.056.658 2.237 1.084 3.466 1.25 2.807.53 5.64-.788 7.072-3.29.93-1.92 1.364-4.047 1.259-6.183.04-2.915-.947-5.75-2.785-7.993-1.563-2.02-4.096-3.005-6.593-2.565-1.649.371-3.152 1.23-4.32 2.467-.324.345.196.871.52.518 2.258-2.418 5.976-3.199 8.672-1.053 2.196 1.877 3.541 4.579 3.726 7.483.232 2.091-.02 4.209-.739 6.184-.955 2.487-3.414 4.04-6.04 3.815-2.154-.044-4.171-1.08-5.48-2.812-2.777-4.021-3.605-9.752-.139-13.617.317-.395-.203-.921-.52-.568z" transform="translate(-558 -1228) translate(121 1228) translate(437) translate(8.1 15.188)"/>
                        <path fill="#D4DAFF" d="M77.352 241.988c-4.79 2.336-32.736 7.53-35.84 8.773 2.376 2.237 5.075 2.982 7.696 3.687l8.02 2.137c1.246.412 2.548.61 3.855.588 2.81-.223 5.201-2.593 7.917-3.355 1.37-.381 2.818-.348 4.172-.828 2.565-.829 4.75-3.538 5.803-7.2l-1.623-3.802z" transform="translate(-558 -1228) translate(121 1228) translate(437) translate(8.1 15.188)"/>
                        <g fill="#7786FF" opacity=".1">
                            <path d="M2.989 3.308c-4.914 5.315-1.565 12.718.641 15.395 2.63 3.15 13.457 5.347 13.066-7.662-.051-2.451-.815-4.833-2.198-6.852C9.78-2.22 4.209 1.984 2.988 3.308z" transform="translate(-558 -1228) translate(121 1228) translate(437) translate(8.1 15.188) translate(46.575 206.55)"/>
                        </g>
                        <path fill="#221F20" d="M49.068 210.078c-3.4 3.784-3.02 9.13-.674 13.384.588 1.207 1.474 2.238 2.573 2.994 1.058.653 2.238 1.076 3.466 1.242 2.803.526 5.63-.791 7.06-3.29.937-1.916 1.373-4.043 1.266-6.178.033-2.915-.953-5.747-2.783-7.995-1.56-2.026-4.094-3.013-6.59-2.567-1.65.367-3.155 1.226-4.318 2.468-.325.345.187.872.511.526 2.265-2.426 5.973-3.208 8.668-1.06 2.195 1.876 3.54 4.58 3.725 7.485.235 2.091-.015 4.21-.73 6.185-.951 2.493-3.412 4.048-6.038 3.817-2.157-.04-4.177-1.076-5.487-2.813-2.775-4.022-3.603-9.756-.138-13.614.317-.41-.195-.937-.511-.584z" transform="translate(-558 -1228) translate(121 1228) translate(437) translate(8.1 15.188)"/>
                        <path fill="#FFF" d="M75.93 198.927C65.547 180.45 49.8 183.966 45.247 185.82c-4.554 1.854-22.226 11.453-15.31 41.67 2.49 10.87 10.764 19.373 19.54 22.322 8.83 2.985 18.61.687 25.136-5.906 8.654-8.6 7.935-33.223 1.319-44.979zm.486 17.638c.47 7.193.922 14.826-3.704 20.94-3.482 4.484-8.74 7.28-14.445 7.68-9.924.623-20.025-9.59-23.252-21.579-.753-2.805-1.707-15.184 1.504-21.482 3.098-6.082 11.849-12.468 18.91-11.245 14.387 2.47 20.34 15.944 20.987 25.686z" transform="translate(-558 -1228) translate(121 1228) translate(437) translate(8.1 15.188)"/>
                        <path fill="#221F20" d="M75.934 198.142c-3.485-6.26-8.613-11.765-15.59-13.907-4.35-1.297-8.978-1.297-13.327 0-6.467 1.902-11.89 7.222-14.952 13.113-2.92 5.618-3.908 12.038-3.685 18.354.303 8.522 2.225 17.174 7.497 24.02 4.784 6.187 11.778 10.729 19.65 11.315 7.575.57 16.077-2.737 20.566-9.1 3.74-5.29 4.697-12.424 4.865-18.748.276-7.123-.807-14.233-3.19-20.946-.519-1.402-1.137-2.764-1.85-4.077-.223-.409-.798 0-.614.362 3.134 5.746 4.394 12.551 4.785 19.027.43 6.613 0 13.643-2.449 19.863-1.09 2.856-2.881 5.388-5.207 7.36-3.16 2.676-6.958 4.48-11.021 5.232-7.975 1.46-15.854-1.55-21.644-7.047-2.96-2.808-5.36-6.158-7.073-9.87-1.733-4.067-2.825-8.38-3.238-12.785-.798-6.565-.495-13.394 1.89-19.614 2.504-6.548 7.568-12.423 14.083-15.143 3.42-1.362 7.122-1.847 10.774-1.413 6.229.682 11.62 4.173 15.527 9.005 1.35 1.686 2.55 3.488 3.589 5.385.106.17.329.222.498.116.17-.106.222-.331.116-.502z" transform="translate(-558 -1228) translate(121 1228) translate(437) translate(8.1 15.188)"/>
                        <path fill="#221F20" d="M75.975 216.763c.367 5.815.797 12.033-1.594 17.502-2.441 5.286-7.14 9.15-12.754 10.485-10.666 2.67-19.625-6.388-23.77-15.43-1.01-2.08-1.747-4.284-2.193-6.557-.272-1.77-.427-3.556-.462-5.347-.167-4.557 0-9.461 1.594-13.776 1.778-4.84 6.146-8.735 10.61-10.937 2.303-1.22 4.891-1.777 7.485-1.613 2.508.303 4.94 1.068 7.174 2.258 7.685 3.968 12.26 12.236 13.591 20.64.144.925.247 1.852.311 2.783 0 .46.75.467.718 0-.59-8.639-4.56-17.519-11.734-22.528-3.986-2.766-9.247-4.694-14.077-3.565-5.174 1.202-9.964 4.904-12.97 9.276-2.782 4.033-3.348 9.17-3.46 13.994-.087 4.073.073 8.25 1.372 12.146 1.798 5.51 4.96 10.464 9.183 14.39 3.595 3.226 8.242 5.758 13.192 5.54 5.593-.313 10.799-2.987 14.348-7.372 3.867-4.839 4.568-11.09 4.385-17.13-.048-1.614-.152-3.17-.247-4.76-.024-.467-.734-.467-.702 0zM212.119 192.324c.251 0 .455-.204.455-.455 0-.252-.204-.456-.455-.456-.252 0-.456.204-.456.456 0 .251.204.455.456.455z" transform="translate(-558 -1228) translate(121 1228) translate(437) translate(8.1 15.188)"/>
                        <path fill="#D4DAFF" d="M266.557 177.855c-8.141-8.7-26.017-32.778-26.017-32.778.08-1.66.912-7.399.912-7.399l-3.37.303-.864 7.582s-32.47 2.658-49.057 4.67c0 0 1.52-10.91 2.073-15.731 0-.176 10.143 2.69 10.143 2.69l.216-1.852-20.125-6.752-1.041 2.49 8.486 2.434s-2.698 12.1-3.795 19.705l-4.94 1.237c.08-1.66.913-7.406.913-7.406l-3.378.311-.856 7.574s-35.352 1.197-46.648 5.02c.409-1.388 1.601-10.942 2.186-15.38 0-.08 12.288 3.058 12.288 3.058v-2.116l-23.536-5.754-.584 1.532s8.758 2.435 8.734 2.53c-1.305 6.64-3.13 17.782-3.13 17.782l-6.405.99c.257-1.205.505-2.394.76-3.6-1.92-.406-3.826 1.501-3.874 3.871l-49.761 6.05s.953-8.332 1.297-12.107c0-.144 10.983 1.22 10.983 1.22l.344-1.859-26.537-3.527-.336 1.724s12.808 1.636 12.72 1.995c-3.554 20.136-6.196 40.057-8.093 60.704.258.388.693.621 1.16.621.467 0 .903-.233 1.161-.62.546-.89.854-1.904.897-2.946 1.644-12.6 3.282-25.199 4.915-37.798 2.818.327 25.24 32.682 26.274 33.975 2.665 3.36 6.98 2.514 10.51 1.517 25.41-7.183 132.401-20.184 167.777-26.625 3.266-.599.016-4.757-2.402-7.335zM94.378 208.567c-.8-.567-20.013-26.657-21.31-28.302l-5.164-6.472s39.395-6.88 47.024-6.281c-1.785 11.636-5.196 37.455-5.604 37.998-.408.542-13.257 4.214-14.946 3.057zm18.3-3.752c1.794-12.259 6.004-38.932 6.004-38.932 2.258-.31 4.067-.662 6.325-.973l-5.604 38.772c-.032.351-4.82 1.125-6.725 1.133zm55.237-7.582c-.384.248-42.764 6.154-45.47 5.172.456-1.756 6.276-38.31 6.276-38.31 4.731 0 37.993-5.586 46.607-5.586-3.722 11.333-6.684 38.206-7.429 38.724h.016zm5.38-.941c.208-1.764 5.828-38.31 5.828-38.31l4.379-.67c-1.417 10.295-3.65 27.934-4.643 38.349-1.836.384-3.704.595-5.58.63h.016zm8.542-1.174c1.16-8.915 5.451-38.022 5.7-39.953 0 0 42.044-6.92 49.68-6.321-1.785 11.636-5.203 37.463-5.603 38.006-.4.543-41.988 6.8-49.777 8.268zm52.835-8.188c.208-1.764 5.484-36.61 5.484-36.61l23.88 31.677c-4.003.056-26.258 5.268-29.388 4.917l.024.016z" transform="translate(-558 -1228) translate(121 1228) translate(437) translate(8.1 15.188)"/>
                        <path fill="#221F20" d="M93.496 209.216c.216.159-.127-.168-.191-.247-.208-.24-.4-.494-.6-.74-.622-.797-1.229-1.594-1.836-2.39-1.909-2.54-3.793-5.105-5.678-7.67-3.817-5.184-7.602-10.353-11.42-15.57-2.244-3.05-4.623-5.996-6.971-8.967l-.264.996c4.574-.802 9.16-1.567 13.76-2.294 8.177-1.306 16.37-2.588 24.604-3.48 2.946-.45 5.926-.626 8.904-.526l-.583-.796c-1.341 9.079-2.523 18.182-3.769 27.277-.463 3.337-.902 6.69-1.437 10.019-.064.398-.12.796-.2 1.178-.039.102-.063.21-.072.319.048.167.064-.136.128-.136-.417.115-.82.278-1.198.486-.75.255-1.51.486-2.268.709-2.108.605-4.24 1.139-6.389 1.545-.96.195-1.93.33-2.906.406-.535.097-1.087.05-1.598-.135-.654-.414-1.261.621-.607 1.035 1.03.645 2.724.27 3.834.112 2.018-.308 4.018-.728 5.99-1.259 1.66-.404 3.297-.901 4.902-1.489.687-.263 1.166-.446 1.334-1.187.647-2.755.878-5.654 1.262-8.45.679-4.858 1.333-9.724 1.996-14.59.703-5.176 1.406-10.353 2.172-15.522.044-.179.004-.367-.107-.514-.112-.147-.283-.236-.468-.242-2.562-.098-5.127.033-7.666.39-3.921.398-7.834.924-11.74 1.473-7.737 1.091-15.452 2.326-23.158 3.624l-5.023.852c-.495.088-.511.685-.264 1.004 3.93 4.985 7.555 9.763 11.372 14.988 4.049 5.575 8.09 11.078 12.202 16.565.743.988 1.486 1.983 2.252 2.955.313.476.686.91 1.11 1.29.6.478 1.198-.557.591-1.02zM112.516 206.09c1.678-12.265 3.479-24.515 5.273-36.764.17-1.192.349-2.376.52-3.568l-.404.427c2.073-.306 4.13-.693 6.212-.99l-.715-.742-2.158 16.043-2.958 22.075c-.172.66-.26 1.34-.264 2.022 0-.177.326-.266-.21-.105-.554.16-1.116.284-1.685.37-1.374.283-2.77.444-4.17.484-.321 0-.582.27-.582.604 0 .334.26.604.582.604 1.193-.039 2.38-.163 3.557-.37 1.038-.087 2.062-.314 3.043-.677.637-.29.606-.74.691-1.361l1.095-8.223 3.331-24.821.847-6.306c.049-.21-.011-.432-.159-.585-.147-.153-.36-.216-.564-.164-2.073.306-4.13.692-6.211.99-.2.05-.355.212-.404.419-1.48 10.072-2.94 20.15-4.38 30.234-.48 3.366-.954 6.732-1.42 10.099-.093.749 1.071 1.08 1.133.306zM182.094 157.524c-1.356 10.507-2.588 21.03-3.695 31.57-.272 2.683-.545 5.374-.779 8.033l.429-.586c-1.745.44-3.536.657-5.332.642l.585.603c.047-.37.117-.876.195-1.43.14-1.044.288-2.089.436-3.133l1.357-9.535 2.97-20.678c.228-1.542.451-3.09.67-4.643l-.406.426 4.31-.683c.74-.12.43-1.277-.311-1.165l-4.31.683c-.202.047-.36.21-.406.418l-1.886 12.957c-1.008 7.048-2.014 14.098-3.017 21.151-.272 1.88-.569 3.768-.779 5.664 0 .345.304.578.585.602 1.839.161 3.842-.37 5.635-.682.252-.074.43-.308.436-.579.936-10.563 2.183-21.103 3.469-31.626.327-2.667.662-5.342 1.005-8.034.11-.739-1.06-.73-1.161.025zM187.734 155.438c4.956-.798 9.912-1.596 14.869-2.306 8.74-1.309 17.496-2.593 26.293-3.503 3.081-.31 6.307-.798 9.412-.526l-.59-.798c-1.18 7.906-2.232 15.837-3.323 23.767-.494 3.543-.979 7.085-1.496 10.62-.162 1.093-.316 2.186-.502 3.27l-.17.966c0 .056-.08.207-.056.255.024.048.178-.111.202-.215.024-.104.138 0 0 0-.08.014-.158.035-.234.064l-.72.167c-.808.16-1.617.303-2.385.447-2.612.47-5.223.894-7.835 1.316-7.115 1.157-14.238 2.258-21.354 3.367-5.66.894-11.392 1.748-17.068 2.737l-1.091.191.768.575c1.536-12.063 3.339-24.103 5.045-36.15.235-1.596.477-3.191.687-4.85.097-.799-1.115-.799-1.213 0-1.358 10.602-3.096 21.732-4.584 32.51-.399 2.83-.782 5.66-1.148 8.49-.049.423.428.646.808.582 5.224-.965 10.512-1.723 15.719-2.545 7.325-1.149 14.658-2.282 21.976-3.462 2.846-.455 5.66-.91 8.522-1.405 1.488-.178 2.961-.466 4.406-.861 1.068-.36.97-2.035 1.116-2.952.477-3.112.906-6.231 1.342-9.35 1.14-8.243 2.24-16.492 3.437-24.734.113-.798.242-1.66.363-2.489.047-.18.009-.37-.105-.518-.113-.148-.289-.236-.477-.24-2.672-.101-5.347.03-7.996.391-4.213.407-8.417.934-12.622 1.492-8.303 1.101-16.599 2.338-24.878 3.638-1.8.282-3.598.57-5.393.862-.825.167-.534 1.324.275 1.197zM236.159 188.722c.048-.43.105-.813.186-1.39l.438-3.081c.438-3.067.879-6.13 1.322-9.186l2.904-19.98.657-4.488-1.111.147c6.634 8.963 13.275 17.927 19.92 26.89l4.68 6.316.527-.918c-1.43.079-2.854.263-4.258.552-2.263.39-4.526.813-6.78 1.269-4.827.95-9.636 1.967-14.487 2.771-1.51.353-3.057.517-4.607.488-.81-.081-.77 1.138 0 1.22 1.292.035 2.582-.085 3.845-.358 2.19-.342 4.38-.756 6.562-1.17 4.866-.936 9.733-1.968 14.648-2.846 1.672-.365 3.37-.601 5.077-.707.217-.004.415-.121.523-.31.108-.188.11-.419.004-.609-6.932-9.375-13.864-18.729-20.796-28.06l-3.812-5.138c-.268-.366-1.022-.439-1.111.146l-1.817 12.486c-.99 6.812-1.976 13.622-2.96 20.428-.26 1.845-.56 3.683-.812 5.528-.048.772 1.136.772 1.258 0z" transform="translate(-558 -1228) translate(121 1228) translate(437) translate(8.1 15.188)"/>
                        <path fill="#221F20" d="M179.926 154.388c.128-2.487.538-4.982.891-7.453.048-.344-.152-.8-.586-.76l-3.421.312c-.33.008-.594.272-.602.6l-.86 7.79.603-.6c-12.39.278-24.755 1.24-37.038 2.878-3.54.412-7.034 1.145-10.44 2.192l.739.735c.387-1.725.674-3.471.86-5.23.369-2.495.722-4.998 1.075-7.493.199-.684.296-1.392.29-2.104-.089-.336-.579.088-.338.272.262.078.531.132.803.16 2.225.48 4.417 1.08 6.61 1.656l5.235 1.407c.32.083.646-.101.74-.416.2-1.023.409-2.039.602-3.063.112-.551.233-1.007-.306-1.351-1.027-.648-2.561-.848-3.71-1.16-4.818-1.295-9.693-2.399-14.575-3.495-1.872-.415-3.75-.8-5.622-1.151-.454-.114-.92-.173-1.39-.176-.738.056-.802.752-.995 1.343-.193.592-1.068 2.016-.482 2.647.434.464 1.494.592 2.072.744 2.289.608 4.642 1.056 6.898 1.776.129 0 .41.2.538.176h.065c-.177.12 0-.648-.265 0-.302.977-.507 1.981-.61 2.999l-1.302 6.525c-.481 2.42-.958 4.847-1.43 7.278l.427-.424-6.521 1 .738.735c.257-1.231.506-2.463.804-3.702.082-.318-.102-.643-.418-.736-2.755-.44-4.553 2.055-4.69 4.558l.602-.6-50.561 6.127.602.6c.193-1.472.38-2.944.562-4.415l.506-4.119c.08-.64.161-1.287.233-1.927.08-.352.124-.711.129-1.072-.072-.048-.313.216-.297.232.16.136 1.188 0 1.413 0 .803.056 1.606.136 2.353.216 1.799.184 3.598.4 5.389.632 1.1.136 2.296.288 3.34.432.186.061.39.03.55-.084.159-.114.253-.297.254-.492l.168-3.087c.002-.27-.18-.507-.442-.576l-24.47-3.535-3.468-.503c-.32-.078-.646.109-.74.423l-.802 2.735c-.044.153-.024.317.053.456.079.138.21.24.364.28 3.694.64 7.413 1.264 11.059 2.143.313.08.626.184.947.248.074.031.149.058.225.08.153.104-.088-.312-.24-.168-.153.144-.145.856-.177 1.056-.402 2.389-.793 4.788-1.173 7.198-.76 4.798-1.475 9.596-2.144 14.395-1.339 9.655-2.5 19.335-3.485 29.038-.241 2.4-.482 4.878-.7 7.318-.08.8-.465 2.119-.152 2.887.317.563.91.919 1.558.935 1.655.072 2.41-1.655 2.634-2.999.426-2.263.603-4.598.892-6.877l4.184-33.237-.803.576c.22.078.42.204.586.367.39.33.757.686 1.1 1.064 1.132 1.192 2.176 2.471 3.212 3.75 2.94 3.656 5.71 7.438 8.465 11.197 4.352 5.99 8.464 12.164 12.849 18.122 3.212 4.399 8.536 2.855 13.002 1.68 3.14-.8 6.312-1.504 9.492-2.152 9.17-1.855 18.422-3.375 27.666-4.854 11.636-1.856 23.289-3.583 34.957-5.278 12.314-1.792 24.652-3.554 37.014-5.287 11.275-1.6 22.547-3.228 33.817-4.886 8.464-1.264 16.953-2.48 25.369-4.063 6.063-1.143-2.41-9.237-4.144-11.236-3.67-4.27-7.147-8.709-10.584-13.163-3.256-4.239-6.49-8.52-9.702-12.844l-2.899-3.91c-.224-.305-.49-.609-.69-.936-.042-.048-.08-.099-.113-.152.113.295.065 0 .105-.144.054-.32.083-.644.088-.968.217-2.023.49-3.999.803-6.046.048-.352-.144-.8-.578-.76l-3.43.304c-.327.012-.59.274-.601.6l-.852 7.797.603-.6c-12.263.992-24.518 2.064-36.757 3.287-4.336.432-8.673.88-13.002 1.4l.579.76 1.606-12.1c.08-.624.16-1.248.233-1.872.086-.367.134-.742.144-1.12-.064 0-.474.24-.49.193-.016-.048.089 0 .057 0 .482.169.984.276 1.493.32 1.727.4 3.445.8 5.164 1.28l3.598.943c.323.082.653-.105.747-.424l.722-3.27c.079-.318-.104-.64-.417-.737l-19.065-5.998-2.723-.855c-.32-.082-.648.106-.738.423l-1.341 3.943c-.083.317.101.643.417.736 2.803.8 5.573 1.6 8.296 2.583.082.021.159.06.225.112-.354-.432-.305.464-.338.64-.128.76-.257 1.511-.393 2.271-.29 1.717-.576 3.436-.86 5.158-.562 3.495-1.092 7.006-1.606 10.509l.426-.416-5.067 1.255c-.208.058-.37.22-.424.429-.055.208.007.429.16.58.154.15.377.208.585.151l5.02-1.263c.204-.058.362-.22.417-.424.535-3.882 1.124-7.752 1.766-11.612.306-1.856.627-3.711.94-5.599.145-.8.763-2.15-.056-2.743-.542-.317-1.126-.556-1.735-.711-.988-.344-1.983-.648-2.98-.944-1.364-.405-2.738-.8-4.119-1.184l.426.744 1.333-3.95-.739.423 19.065 5.99 2.722.864-.417-.744-.731 3.28.739-.425c-2.907-.8-5.823-1.543-8.762-2.223-1.1-.256-2.409-.872-2.586.648-.374 2.99-.76 5.982-1.156 8.973l-.803 5.798c-.048.336.144.8.578.8 15.106-1.816 30.292-3.071 45.454-4.335l4.304-.352c.328-.012.59-.274.603-.6l.85-7.797-.602.6 3.43-.304-.579-.8c-.289 2.047-.57 4.095-.803 6.15-.168.648-.168 1.328 0 1.975.153.253.327.491.522.712 2.26 3.066 4.532 6.113 6.818 9.141 3.462 4.59 6.955 9.157 10.529 13.66 1.71 2.15 3.437 4.286 5.204 6.397 1.606 1.88 3.3 3.655 4.818 5.558.803 1.032 2.249 2.608 2.273 4 0 1.063-1.607 1.039-2.361 1.183-1.8.32-3.606.623-5.413.927-4.283.71-8.58 1.39-12.89 2.04-10.696 1.6-21.401 3.199-32.122 4.694-12.164 1.738-24.325 3.471-36.484 5.198-11.885 1.706-23.76 3.463-35.624 5.27-9.861 1.528-19.715 3.112-29.52 4.943-3.687.688-7.365 1.407-11.027 2.24-1.397.311-2.802.647-4.2 1.015-2.409.624-4.77 1.463-7.227 1.255-3.542-.295-4.875-3.087-6.738-5.742-2.42-3.454-4.853-6.901-7.3-10.34-2.843-3.999-5.71-7.917-8.657-11.804-2.069-2.89-4.328-5.639-6.762-8.23-.474-.48-1.132-1.231-1.84-1.343-.185-.062-.39-.03-.548.083-.16.115-.254.298-.254.493l-3.566 28.302-.795 7.182c-.144 1.152-.28 2.303-.433 3.455-.105.8-.29 3.143-1.494 3.039-.9-.072-.345-2.4-.29-3.031.121-1.296.242-2.583.37-3.879.225-2.287.458-4.58.699-6.878.996-9.436 2.168-18.855 3.517-28.254.675-4.665 1.39-9.325 2.144-13.98.17-1.055.346-2.11.522-3.198.089-.568.185-1.128.282-1.688.127-.38.176-.783.144-1.183-.153-.464-.73-.576-1.148-.696-3.876-.98-7.8-1.757-11.757-2.327l.417.735.803-2.727-.738.416 24.437 3.559 3.461.504-.441-.584-.17 3.087.764-.584c-2.98-.4-5.959-.8-8.946-1.096-1.245-.127-2.795-.495-4.016-.247-.803.16-.714.847-.803 1.599-.176 1.498-.358 2.999-.546 4.503-.265 2.143-.538 4.278-.803 6.397 0 .332.27.6.602.6l50.473-6.102c.328-.012.59-.274.603-.6.088-1.599 1.228-3.71 3.164-3.398l-.426-.744c-.249 1.24-.506 2.471-.763 3.703-.05.208.011.428.164.58.152.152.373.214.583.163l6.513-1c.208-.055.37-.216.426-.423 1.033-5.332 2.085-10.64 3.156-15.923.168-.84.674-1.807-.241-2.295-.755-.327-1.544-.569-2.353-.72-2.145-.552-4.353-.96-6.425-1.655-.112-.056-.23-.096-.353-.12-.217.064 0 .464.12.4.25-.136.506-1.472.61-1.76.049-.144.314-.648.274-.8-.08-.32-.33.336-.434.232.147.017.295.017.442 0 1.365.152 2.883.52 4.272.8 4.658.981 9.294 2.047 13.91 3.2 1.854.47 3.725.91 5.532 1.519.177.082.36.151.546.207.137 0 .049.104.08 0 .033-.103 0-.8-.24-.247-.294 1.079-.511 2.177-.65 3.286l.738-.415c-3.903-1.072-7.814-2.192-11.773-3.055-.45-.096-1.245-.4-1.694-.136-.45.264-.37.903-.426 1.32-.337 2.398-.675 4.798-1.028 7.197-.224 2.291-.588 4.567-1.092 6.814-.053.208.01.428.163.58.153.15.375.21.584.155 2.951-.917 5.977-1.58 9.042-1.983 4.016-.616 8.031-1.056 12.046-1.424 7.164-.663 14.343-1.111 21.53-1.44 1.518-.063 3.028-.135 4.546-.183.33-.004.598-.27.602-.6l.86-7.79-.603.6 3.421-.311-.578-.8c-.361 2.575-.803 5.174-.931 7.773-.177 1.016 1.028.968 1.1.216z" transform="translate(-558 -1228) translate(121 1228) translate(437) translate(8.1 15.188)"/>
                        <path fill="#221F20" d="M166.835 198.049c.264-.137-.137 0-.257 0l-.914.144c-1.075.177-2.158.33-3.208.49-3.465.5-6.94.979-10.426 1.44-8.02 1.068-16.039 2.121-24.107 2.837-1.507.136-3.007.257-4.515.313-.721.077-1.45.053-2.165-.072l.417.74c.377-1.52.553-3.103.802-4.646.534-3.167 1.04-6.331 1.516-9.493l3.207-20.72c.249-1.608.49-3.143.73-4.71l-.577.442c1.913-.068 3.82-.254 5.71-.555 3.288-.418 6.568-.884 9.856-1.35 7.619-1.069 15.237-2.194 22.888-3.062 2.901-.393 5.822-.627 8.75-.7l-.578-.763c-1.877 5.908-2.88 12.12-3.882 18.22-.97 5.884-1.78 11.784-2.702 17.683-.144.949-.297 1.905-.481 2.846-.056.273-.113.538-.177.803-.064.266-.152.29 0 .185-.601.498.257 1.342.85.852.233-.299.376-.659.41-1.037.16-.699.272-1.414.392-2.122.401-2.451.754-4.919 1.115-7.386.986-6.663 1.98-13.326 3.288-19.94.608-3.303 1.397-6.568 2.366-9.782.047-.18.008-.372-.104-.52-.113-.147-.288-.235-.474-.236-2.531.055-5.058.243-7.57.563-3.609.393-7.218.868-10.803 1.35-7.37.997-14.732 2.106-22.11 3.062-2.223.375-4.468.606-6.72.691-.272 0-.51.18-.586.442-.657 4.287-1.32 8.574-1.988 12.86-1.07 7.025-2.174 14.05-3.313 21.075-.304 1.872-.513 3.801-.97 5.626-.078.32.11.646.425.74.642.157 1.307.203 1.965.136 1.243 0 2.478-.12 3.713-.217 3.73-.298 7.45-.715 11.171-1.15 8.02-.937 16.04-1.987 24.06-3.15 1.323-.185 2.654-.378 4.01-.587.56-.023 1.116-.134 1.643-.33.634-.329.024-1.374-.657-1.012z" transform="translate(-558 -1228) translate(121 1228) translate(437) translate(8.1 15.188)"/>
                        <path fill="#FFF" d="M218.93 146.813c-.515-6.922-3.268-22.676-3.268-22.676l25.509-5.674.817 19.63-23.058 8.72z" transform="translate(-558 -1228) translate(121 1228) translate(437) translate(8.1 15.188)"/>
                        <path fill="#000" d="M207.807 66.98c1.886 7.989 4.745 9.395 8.033 13.493.585.842 1.334 1.562 2.203 2.117 1.46.76 3.25.508 4.438-.623.391-.477.822-.92 1.287-1.326.656-.464 4.649-4.234 5.2-5.992 1.352-4.322.963-8.093-.049-12.51-.223-1.277-.678-2.503-1.344-3.62-.643-.91-1.498-1.656-2.495-2.172-9.79-5.193-19.16 2.652-17.273 10.633z" transform="translate(-558 -1228) translate(121 1228) translate(437) translate(8.1 15.188)"/>
                        <path fill="#FFF" d="M216.91 86.058c.895-.958 1.196-2.336.783-3.586-.634-1.877-2.667-2.787-3.958-4.268-.84-1.07-1.473-2.288-1.87-3.594-.985-2.779-3.824-10.878-1.18-14.955 2.456-3.793 10.489-6.912 14.861.736 2.143 3.76 3.035 8.582 1.486 12.667-.579 1.528-1.564 2.882-2.221 4.37-.657 1.489-1.033 3.27-.352 4.75.407.864 1.142 1.837.618 2.637-.183.24-.419.432-.689.562-1.4.784-7.477.681-7.477.681z" transform="translate(-558 -1228) translate(121 1228) translate(437) translate(8.1 15.188)"/>
                        <path fill="#000" d="M217.621 86.979c1.962-2.209.945-4.763-1.057-6.425-1.318-.967-2.415-2.205-3.219-3.63-.535-1.117-.987-2.27-1.353-3.454-1.425-4.265-3.427-10.786.256-14.456 3.363-3.341 8.929-3.783 12.26-.177 2.278 2.655 3.598 6.002 3.748 9.501.097 1.764-.176 3.529-.801 5.18-.64 1.663-1.738 3.1-2.403 4.747-.713 1.48-.782 3.19-.192 4.722.252.422.467.865.64 1.325.198.685-.191 1.401-.872 1.606-.501.165-1.02.27-1.545.314-1.893.207-3.798.282-5.702.225-.147.024-.255.151-.255.3 0 .15.108.278.255.302 1.834.05 3.668-.017 5.493-.2.903-.02 1.787-.257 2.579-.692 1.297-.875.608-2.112.056-3.212-1.065-2.16 0-4.41 1.049-6.345.95-1.525 1.642-3.196 2.05-4.947.56-3.386.03-6.863-1.514-9.927-1.185-2.465-3.01-4.714-5.661-5.621-2.158-.688-4.494-.542-6.55.41-1.888.757-3.459 2.14-4.453 3.918-1.177 2.41-.912 5.31-.456 7.847.54 2.86 1.402 5.648 2.57 8.312.807 1.69 2.02 3.15 3.532 4.249 1.754 1.47 2.963 3.678 1.161 5.702-.296.289.112.715.384.426z" transform="translate(-558 -1228) translate(121 1228) translate(437) translate(8.1 15.188)"/>
                        <path fill="#000" d="M224.465 57.958c-3.122-1.413-6.657-1.644-9.94-.65-1.703.555-3.253 1.496-4.527 2.747-.837.783-1.706 1.832-1.335 2.904.13.344.345.651.624.893 1.454 1.37 9.268-2.865 11.235-3.084.79-.094 4.56 1.753 5.144 2.473 1.627 1.988 1.77 7.123 2.252 9.659 1.122-2.207 1.311-7.045-.048-10.958l-3.405-3.984z" transform="translate(-558 -1228) translate(121 1228) translate(437) translate(8.1 15.188)"/>
                        <path fill="#221F20" d="M219.735 144.443c-.966-7.641-2.705-15.226-4.38-22.738l-.248.45 21.543-6.16 3.048-.869c.192-.053.304-.253.251-.447-.052-.193-.25-.307-.442-.253l-21.543 6.16-3.048.869c-.19.055-.302.25-.256.443 1.668 7.448 3.4 14.968 4.357 22.545.056.46.798.46.718 0z" transform="translate(-558 -1228) translate(121 1228) translate(437) translate(8.1 15.188)"/>
                        <path fill="#CBCDE5" d="M211.935 195.593c-.523 1.838-.407 3.8.328 5.562 1.432 2.926 19.023-14.364 17.479-16.33-1.545-1.967-5.69-3.007-7.851-3.587 0 0-8.796 9.277-9.956 14.355z" transform="translate(-558 -1228) translate(121 1228) translate(437) translate(8.1 15.188)"/>
                        <path fill="#000" d="M211.926 195.415c-.352 1.568-1.025 6.977 2.115 5.942 2.189-.73 4.148-2.438 5.878-3.85 2.488-2.025 4.832-4.206 7.017-6.53 1.353-1.442 3.23-3.198 3.845-5.11.336-1.067-.615-1.663-1.484-2.196-2.025-1.254-4.484-1.834-6.788-2.422-.107-.029-.222-.002-.303.07-1.68 1.694-3.28 3.481-4.796 5.308-2.147 2.587-4.648 5.487-5.484 8.788-.028.151.069.299.224.34.156.04.318-.04.375-.184.662-2.057 1.709-3.983 3.09-5.683 1.402-1.901 2.904-3.733 4.5-5.488.558-.62 1.132-1.23 1.706-1.834.172-.18.54-.745.82-.823-.066 0-.066.054.13.149.252.092.513.16.78.203.68.18 1.352.369 2.024.588 1.478.39 2.868 1.04 4.1 1.913.442.36.72.533.573 1.058-.163.451-.395.877-.689 1.263-.898 1.283-1.904 2.494-3.008 3.621-2.616 2.807-5.476 5.395-8.55 7.738-1.22 1.018-2.594 1.853-4.075 2.477-.278.102-.82.306-1.057.102-.46-.337-.599-1.623-.648-2.132-.08-1.052.011-2.11.27-3.136.116-.384-.475-.54-.565-.172z" transform="translate(-558 -1228) translate(121 1228) translate(437) translate(8.1 15.188)"/>
                        <path fill="#FFF" d="M238.965 114.412c1.223 2.828 2.235 5.74 3.028 8.714 1.79 7.784 1.433 11.744-3.028 18.141-1.004 1.443-8.623 8.153-8.623 9.989 0 2.196.915 25.732 1.368 33.019l-11.335-3.102s-4.396-31.032-1.943-37.228c2.048-5.163 11.894-17.14 14.987-19.977" transform="translate(-558 -1228) translate(121 1228) translate(437) translate(8.1 15.188)"/>
                        <path fill="#221F20" d="M239.197 113.84c2.518 6.361 5.616 13.913 3.27 20.773-.88 2.6-2.309 4.987-4.193 7.004-1.635 1.69-3.36 3.31-4.962 5.032-.989 1.07-2.713 2.577-2.82 4.138-.073 1.12.058 2.295.099 3.414.163 4.788.348 9.576.555 14.363.213 5.121.41 10.242.728 15.346l.466-.346-5.517-1.506-3.826-1.046c-.245-.065-1.839-.709-2.043-.556.09-.064.098.346.204.137.106-.21-.057-.379-.073-.475l-.246-1.876c-.294-2.238-.566-4.485-.817-6.739-.686-5.974-1.283-11.98-1.488-17.994-.128-2.47-.084-4.944.131-7.407.286-2.049 1.04-4.006 2.207-5.725 2.134-3.367 4.488-6.594 7.046-9.661 1.937-2.518 4.054-4.897 6.334-7.117.344-.322-.171-.806-.523-.516-3.645 3.366-6.743 7.48-9.694 11.425-1.655 2.146-3.165 4.397-4.52 6.739-.768 1.294-1.279 2.72-1.504 4.203-.58 4.178-.253 8.526 0 12.712.327 4.831.818 9.726 1.39 14.565.319 2.73.654 5.45 1.046 8.164.029.124.127.221.254.25l11.443 3.123c.11.027.229.003.32-.066.09-.07.144-.175.146-.288-.589-9.476-.908-18.985-1.243-28.477-.049-1.417-.106-2.834-.13-4.26-.025-1.424 1.438-2.753 2.37-3.767 1.634-1.78 3.384-3.438 5.067-5.16 1.713-1.809 3.076-3.91 4.022-6.2 3.155-7.327 0-15.475-2.771-22.399-.172-.434-.883-.25-.711.194h-.017z" transform="translate(-558 -1228) translate(121 1228) translate(437) translate(8.1 15.188)"/>
                        <path fill="#D4DAFF" d="M210.6 94.795c1.82 5.52 1.59 11.49 1.964 17.378l1.336 15.402 26.31-9.504c2.52-6.894-1.989-34.034-1.989-34.034" transform="translate(-558 -1228) translate(121 1228) translate(437) translate(8.1 15.188)"/>
                        <path fill="#221F20" d="M210.613 95.308c1.901 5.95 1.502 12.145 2.037 18.322l.958 11.044.304 3.546c.002.114.054.22.143.29.089.07.204.094.312.067l20.212-7.328 4.73-1.716c.615-.219 1.598-.332 1.821-1.004.8-2.081.8-4.583.855-6.785.021-2.828-.101-5.655-.367-8.47-.344-3.975-.8-7.958-1.51-11.885-.08-.462-.8-.267-.695.194.559 3.239.966 6.478 1.302 9.716.28 2.785.495 5.579.543 8.38.12 2.456-.039 4.917-.471 7.336-.096.437-.28.874-.352 1.311 0 .138.328-.113.048 0-.28.114-.655.243-.974.357l-4.25 1.538-12.743 4.615-8.34 3.028.455.348c-.575-6.671-1.278-13.343-1.542-20.039-.176-4.404-.431-8.841-1.79-13.06-.135-.445-.798-.259-.686.187v.008z" transform="translate(-558 -1228) translate(121 1228) translate(437) translate(8.1 15.188)"/>
                        <path fill="#D4DAFF" d="M228.643 89.73c0 4.712-25.983 37.431-28.277 38.36l7.105 2.523c3.831-.663 25.712-26.876 29.536-34.369 2.652-5.189 3.329-14.371-2.788-14.824-2.27-.161-6.795-.42-6.795-.42s-2.62 7.089-13.015 4.85l-7.735 3.467s-27.448 31.936-30.499 32.396l7.392 2.546c4.397.485 27.305-21.605 27.305-21.605" transform="translate(-558 -1228) translate(121 1228) translate(437) translate(8.1 15.188)"/>
                        <path fill="#221F20" d="M229.867 89.944c-.09.73-.336 1.43-.72 2.057-.576 1.156-1.248 2.256-1.936 3.348-1.951 3.093-4.103 6.075-6.286 9.016-4.72 6.378-9.646 12.612-14.861 18.59-.936 1.077-1.888 2.145-2.88 3.189-.42.54-.938.998-1.527 1.347-.312.136-.168.566.088.662l6.19 2.152c.504.176.912.423 1.432.247.578-.234 1.118-.553 1.6-.948 4.039-3.03 7.446-7.063 10.79-10.818 4.255-4.783 8.374-9.733 12.237-14.851 3.063-4.058 6.126-8.131 6.822-13.305.392-2.87.232-6.744-2.52-8.466-1.415-.885-3.198-.797-4.798-.9-1.6-.105-2.983-.184-4.48-.264-.159.004-.298.11-.343.263-.593 1.26-1.505 2.342-2.647 3.14-1.23.84-2.637 1.385-4.112 1.595-.965.153-1.944.198-2.919.136-.665-.036-1.327-.108-1.984-.215-.4-.129-.82-.18-1.24-.152-.79.265-1.556.602-2.287 1.005l-3.999 1.753c-.822.268-1.563.74-2.151 1.371-6.783 7.733-13.598 15.41-20.748 22.84-1.904 1.985-3.815 3.985-5.83 5.843-.672.65-1.377 1.264-2.112 1.841-.341.328-.751.575-1.2.726-.376.071-.312.59 0 .693l3.711 1.252c1.203.51 2.444.93 3.711 1.251.846.028 1.68-.193 2.4-.637 1.229-.63 2.408-1.353 3.527-2.16 6.19-4.305 11.854-9.423 17.412-14.485 1.496-1.364 2.984-2.727 4.447-4.114.336-.319-.168-.797-.503-.51-3.669 3.476-7.426 6.861-11.27 10.156-2.935 2.535-5.919 5.03-9.038 7.326-1.204.906-2.457 1.747-3.751 2.52-.823.566-1.746.971-2.72 1.195-.315.013-.629-.052-.912-.191l-2.527-.853-4.271-1.443v.693c1.04-.183 2.08-1.347 2.815-2.009 1.736-1.554 3.376-3.188 5-4.878 4.334-4.449 8.517-9.032 12.677-13.64 3.119-3.454 6.217-6.927 9.294-10.42.287-.326.56-.693.871-.996.039-.05.082-.099.128-.143-.152.112 0 0 .064 0 .184-.096.384-.167.576-.255l3.711-1.594 1.984-.877c.39-.217.8-.396 1.224-.534.232 0 .152 0 .504.103.627.16 1.271.248 1.92.263 1.064.1 2.137.08 3.198-.056 1.65-.19 3.232-.766 4.615-1.682 1.374-.888 2.454-2.16 3.104-3.659l-.352.263 3.44.2c1.503.087 3.278 0 4.702.494 2.943 1.084 3.255 4.783 3.007 7.485-.48 5.094-3.383 9.08-6.342 13.05-3.615 4.847-7.487 9.51-11.47 14.062-3.332 3.996-6.951 7.745-10.83 11.217-.597.536-1.245 1.014-1.935 1.427-.183.128-.39.22-.608.27h-.056c-.24 0-.36-.127-.536-.19l-6.438-2.24.088.653c.513-.299.97-.685 1.351-1.14.84-.797 1.6-1.722 2.4-2.607 2.4-2.71 4.71-5.5 6.982-8.314 5.205-6.277 10.077-12.82 14.597-19.603.851-1.286 1.634-2.617 2.344-3.986.466-.768.76-1.627.864-2.519 0-.454-.704-.454-.72 0l.032-.04z" transform="translate(-558 -1228) translate(121 1228) translate(437) translate(8.1 15.188)"/>
                        <path fill="#221F20" d="M210.615 95.616c2.024 5.336 2.005 10.882 2.175 16.42 0 .469.866.469.847 0-.179-5.603-.15-11.214-2.212-16.606-.16-.445-.942-.259-.81.186z" transform="translate(-558 -1228) translate(121 1228) translate(437) translate(8.1 15.188)"/>
                        <path fill="#FFF" d="M207.157 128.109c.718 1.496.356 3.4-.115 5.123-.554 2.014-1.25 3.986-2.085 5.898-.332.784-.895 1.645-1.652 1.606-.281-.047-.547-.165-.771-.344l-2.146-1.465c-.27-.138-.478-.377-.58-.666-.031-.291.023-.586.155-.846.594-1.604 1.069-3.251 1.42-4.927.085-.392.132-.87-.17-1.081l-1.76 2.647c-.066.117-.155.218-.262.298-.126.064-.273.07-.403.016-.13-.054-.231-.163-.276-.298-.083-.286-.083-.59 0-.877.326-1.98 1.248-3.808 2.64-5.233 1.451-1.355 3.69-1.896 5.125-.846l.88.995z" transform="translate(-558 -1228) translate(121 1228) translate(437) translate(8.1 15.188)"/>
                        <path fill="#221F20" d="M207.479 127.68c.88 1.957.063 4.315-.532 6.24-.307 1.026-.657 2.037-1.048 3.032-.35.906-.7 2.23-1.485 2.87-.572.466-1.048.049-1.548-.288l-1.43-.97c-.246-.123-.474-.283-.674-.474-.194-.289-.212-.663-.048-.97.175-.505.357-.995.524-1.5.318-.994.596-2.005.794-3.032.15-.657.39-1.443-.15-1.973-.08-.077-.19-.114-.3-.1-.11.014-.206.078-.264.172l-1.509 2.262c-.159.24-.183.53-.484.337-.302-.192-.135-.4-.072-.698.064-.296.175-.705.278-1.05.398-1.461 1.164-2.793 2.223-3.866 1.008-1.027 2.43-1.524 3.85-1.348.906.177 1.319.802 1.898 1.428.31.345.794-.16.508-.513-.285-.353-.58-.722-.905-1.019-.611-.47-1.368-.705-2.135-.666-1.82.095-3.494 1.03-4.542 2.535-.585.804-1.05 1.69-1.381 2.63-.412.863-.616 1.81-.596 2.768.028.309.214.58.49.715.277.135.604.113.86-.058.374-.376.687-.81.929-1.283l1.207-1.813-.564.073c.397.393-.095 1.604-.206 2.037-.151.593-.318 1.187-.493 1.772-.174.586-.452 1.332-.682 1.997-.187.385-.218.828-.088 1.236.22.369.54.667.921.858l1.588 1.043c.794.545 1.588 1.026 2.453.32.699-.744 1.21-1.646 1.493-2.63.498-1.246.942-2.508 1.334-3.786.643-2.118 1.381-4.532.42-6.665-.206-.41-.825-.04-.634.377z" transform="translate(-558 -1228) translate(121 1228) translate(437) translate(8.1 15.188)"/>
                        <path fill="#FFF" d="M176.071 122.114c-2.056 1.065-3.966 2.37-5.686 3.886-.27.37-.476.78-.61 1.212-.302.881-.522 1.786-.657 2.705-.073.528-.049 1.15.463 1.313.43.065.872-.012 1.25-.218 2.145-.893 4.136-2.09 5.906-3.551.366-.303.983-.622 1.17-.31.105.178-.057.434-.22.644-.641.777-1.47 1.484-2.022 2.332-.552.847-.812 1.88-.146 2.4.085.078.2.117.316.11.151-.033.29-.105.398-.21 2.342-1.991 4.302-4.358 5.792-6.994.82-1.384-.48-5.471-5.954-3.319z" transform="translate(-558 -1228) translate(121 1228) translate(437) translate(8.1 15.188)"/>
                        <path fill="#221F20" d="M176.404 122.187c-1.342.626-2.6 1.408-3.747 2.328-.97.707-2.115 1.39-2.62 2.498-.465 1.097-.771 2.25-.912 3.429-.092.666-.067 1.51.688 1.782.887.33 2.09-.441 2.852-.803 1.063-.52 2.083-1.12 3.051-1.79.44-.298.83-.61 1.277-.932.207-.169.406-.353.63-.506.106-.092.23-.163.365-.209.224-.056-.066.16-.166.281-.79.788-1.506 1.643-2.139 2.554-.482.691-.56 1.576-.207 2.337.506.803 1.194.498 1.79 0 1.724-1.49 3.22-3.21 4.445-5.107.688-1.028 1.658-2.096 1.542-3.405-.09-1.08-.706-2.052-1.658-2.618-1.559-.907-3.524-.49-5.108.12-.44.17-.248.876.2.7 1.301-.499 2.885-.94 4.236-.346.802.36 1.379 1.07 1.55 1.911.216 1.06-.439 1.79-.994 2.65-1.026 1.628-2.224 3.148-3.574 4.537-.348.337-.705.666-1.078.971-.199.17-.44.466-.705.217-.265-.249-.14-.642-.09-.875.338-.951.927-1.8 1.707-2.465.39-.418 1.385-1.237 1.053-1.903-.265-.538-.953-.338-1.368-.105-.829.474-1.492 1.165-2.272 1.687-.851.576-1.74 1.1-2.661 1.565-.406.201-.83.394-1.236.579-.31.183-.672.27-1.036.249-.29-.057-.265 0-.365-.257-.02-.128-.02-.258 0-.386.076-1.07.316-2.123.713-3.124.448-1.268 1.542-1.935 2.612-2.706 1.115-.88 2.33-1.63 3.623-2.24.415-.177.034-.827-.398-.618z" transform="translate(-558 -1228) translate(121 1228) translate(437) translate(8.1 15.188)"/>
                        <path fill="#000" d="M146.875 72.844l.727 5.113c1.366 5.186 4.737 9.493 8.018 13.63.584.85 1.331 1.577 2.199 2.137 1.459.767 3.247.51 4.429-.637.393-.476.823-.921 1.285-1.33.663-.468 4.64-4.283 5.19-6.057 1.349-4.355 18.59-18.235 18.59-23.896 0-3-12.181-9.186-14.962-9.154-5.601.073-4.583 8.533-8.955 9.307-8.713 1.54-12.933 4.032-14.93 6.065-1.265 1.265-1.856 3.054-1.591 4.822z" transform="translate(-558 -1228) translate(121 1228) translate(437) translate(8.1 15.188)"/>
                        <path fill="#FFF" d="M157.171 97.195c.895-.958 1.196-2.337.783-3.587-.634-1.869-2.668-2.788-3.96-4.268-.839-1.07-1.473-2.29-1.869-3.595-.986-2.78-3.818-10.872-1.181-14.95 2.456-3.8 10.49-6.912 14.864.737 2.144 3.76 3.036 8.583 1.487 12.669-.58 1.536-1.565 2.89-2.222 4.379-.657 1.488-1.033 3.27-.345 4.75.4.856 1.143 1.838.61 2.63-.18.24-.416.434-.688.562-1.369.783-7.479.673-7.479.673z" transform="translate(-558 -1228) translate(121 1228) translate(437) translate(8.1 15.188)"/>
                        <path fill="#000" d="M156.87 98.116c1.963-2.208.946-4.769-1.056-6.47-1.325-.949-2.434-2.17-3.251-3.581-.524-1.122-.966-2.282-1.322-3.468-1.425-4.271-3.427-10.782.256-14.45 3.364-3.34 8.93-3.774 12.26-.17 2.28 2.654 3.6 6 3.749 9.498.097 1.76-.176 3.522-.801 5.17-.64 1.662-1.738 3.099-2.403 4.744-.713 1.482-.783 3.194-.192 4.729.252.42.466.86.64 1.317.198.684-.192 1.4-.872 1.605-.501.165-1.02.27-1.546.313-1.893.208-3.798.283-5.701.225-.147.024-.255.152-.255.301 0 .15.108.277.255.301 1.836.047 3.674-.022 5.501-.209.902-.018 1.786-.252 2.579-.682 1.29-.883.6-2.111.048-3.211-1.065-2.168 0-4.408 1.049-6.342.95-1.527 1.643-3.2 2.05-4.954.56-3.382.03-6.855-1.514-9.914-1.185-2.473-3.003-4.713-5.661-5.62-2.16-.684-4.495-.535-6.55.418-1.885.754-3.454 2.134-4.445 3.91-1.186 2.408-.921 5.314-.465 7.85.517 2.86 1.357 5.65 2.507 8.318.806 1.688 2.02 3.148 3.531 4.247 1.754 1.477 2.963 3.676 1.161 5.708-.232.28.2.706.449.417z" transform="translate(-558 -1228) translate(121 1228) translate(437) translate(8.1 15.188)"/>
                        <path fill="#FFF" d="M168.075 93.15s-3.23 6.636-13.803 4.405l-7.843 3.405s-25.845 30.742-28.979 31.202l7.495 2.492c4.467.484 25.74-20.55 25.74-20.55" transform="translate(-558 -1228) translate(121 1228) translate(437) translate(8.1 15.188)"/>
                        <path fill="#221F20" d="M168.368 92.352c-.574 1.208-1.444 2.255-2.532 3.048-1.143.817-2.452 1.379-3.837 1.647-.932.18-1.881.257-2.83.23-.476 0-.951-.04-1.42-.087-.705-.175-1.426-.29-2.152-.342-.717.168-1.407.436-2.048.795l-3.87 1.687c-.967.422-1.934.66-2.604 1.456-6.36 7.551-12.795 15.054-19.494 22.278-1.839 2.006-3.7 3.979-5.644 5.88-.653.629-1.322 1.25-2.032 1.814-.334.326-.74.571-1.185.717-.379.071-.306.588 0 .692l3.459 1.153c1.296.517 2.62.96 3.967 1.33.727.062 1.457-.1 2.088-.462 1.18-.566 2.302-1.24 3.354-2.013 5.91-4.138 11.23-9.182 16.439-14.131 1.419-1.345 2.83-2.697 4.224-4.082.125-.143.116-.356-.02-.489-.136-.132-.353-.137-.496-.012-3.45 3.421-7.006 6.755-10.626 9.993-2.773 2.475-5.587 4.925-8.57 7.161-1.115.866-2.284 1.664-3.499 2.387-.74.537-1.605.881-2.515 1.003-.342-.05-.676-.143-.992-.279l-2.588-.867-4.031-1.345v.693c1.048-.183 2.08-1.369 2.813-2.037 1.661-1.528 3.225-3.183 4.765-4.774 4.16-4.416 8.16-8.975 12.094-13.526 2.908-3.342 5.789-6.708 8.643-10.097.453-.656 1.122-1.137 1.894-1.36l3.95-1.727 1.694-.732c.286-.176.595-.312.919-.406.258 0 .992.255 1.354.302.516.072 1.04.12 1.565.151 1.048.06 2.1.006 3.136-.159 1.578-.246 3.078-.844 4.386-1.75 1.295-.878 2.312-2.1 2.934-3.525.17-.43-.532-.612-.701-.19l.008-.025z" transform="translate(-558 -1228) translate(121 1228) translate(437) translate(8.1 15.188)"/>
                        <path fill="#000" d="M164.717 68.08c-3.117-1.41-6.647-1.64-9.925-.65-1.702.558-3.25 1.498-4.525 2.747-.837.782-1.713 1.83-1.342 2.91.136.34.35.642.624.885 1.46 1.377 3.648 1.565 5.606 1.306 1.958-.258 3.853-1.001 5.827-1.22.792-.119 1.6-.065 2.37.156.868.33 1.626.893 2.187 1.628 1.618 1.987 2.155 4.648 2.645 7.183 1.12-2.207 1.303-7.042-.048-10.955l-3.419-3.99z" transform="translate(-558 -1228) translate(121 1228) translate(437) translate(8.1 15.188)"/>
                        <path fill="#D4DAFF" d="M157.167 153.9c-.514-6.916-3.267-22.674-3.267-22.674l25.508-5.676.817 19.636-23.058 8.714z" transform="translate(-558 -1228) translate(121 1228) translate(437) translate(8.1 15.188)"/>
                        <path fill="#221F20" d="M157.75 153.549c-.56-7.707-1.891-15.397-3.152-23.007l-.252.444 21.56-5.024 3.05-.711c.449-.105.26-.808-.19-.703l-21.552 5.025-3.057.719c-.186.055-.295.252-.245.444 1.261 7.545 2.585 15.17 3.152 22.813 0 .468.741.468.71 0h-.024z" transform="translate(-558 -1228) translate(121 1228) translate(437) translate(8.1 15.188)"/>
                        <path fill="#CBCDE5" d="M151.184 205.726c-.522 1.835-.406 3.794.329 5.554 1.432 2.926 19.023-14.364 17.479-16.323-1.545-1.958-5.69-3.014-7.852-3.594-.008 0-8.803 9.277-9.956 14.363z" transform="translate(-558 -1228) translate(121 1228) translate(437) translate(8.1 15.188)"/>
                        <path fill="#000" d="M150.164 205.546c-.353 1.568-1.025 6.977 2.115 5.934 2.188-.729 4.148-2.438 5.877-3.85 2.488-2.024 4.833-4.206 7.018-6.53 1.352-1.442 3.23-3.198 3.844-5.11.336-1.059-.615-1.655-1.484-2.196-2.024-1.254-4.484-1.834-6.787-2.422-.109-.026-.224.003-.303.078-1.64 1.686-3.28 3.473-4.796 5.308-2.148 2.579-4.648 5.487-5.484 8.788-.09.36.5.517.598.156.66-2.06 1.708-3.989 3.09-5.691 1.4-1.903 2.903-3.734 4.501-5.488.558-.627 1.131-1.238 1.705-1.842.172-.18.541-.745.82-.784-.066 0-.066.055.131.15.264.098.54.167.82.203.68.18 1.353.368 2.025.588 1.478.39 2.867 1.039 4.099 1.913.442.36.721.533.573 1.058-.165.453-.396.88-.688 1.27-.9 1.28-1.907 2.488-3.009 3.614-2.637 2.806-5.519 5.392-8.615 7.73-1.196 1.005-2.542 1.835-3.993 2.461-.278.102-.779.298-1.057.094-.46-.337-.599-1.622-.648-2.132-.082-1.052.01-2.11.27-3.136.058-.384-.532-.54-.622-.164z" transform="translate(-558 -1228) translate(121 1228) translate(437) translate(8.1 15.188)"/>
                        <path fill="#D4DAFF" d="M173.053 134.836c-3.215 2.697-13.605 14.228-15.903 19.307-2.756 6.112 0 37.555 0 37.555l11.057 3.714c-.064-7.356.257-31.08.378-33.292.088-1.84 7.995-8.195 9.064-9.592 4.757-6.21 5.32-10.175 3.953-18.096-.635-3.018-1.486-5.987-2.547-8.882" transform="translate(-558 -1228) translate(121 1228) translate(437) translate(8.1 15.188)"/>
                        <path fill="#221F20" d="M173.355 134.893c-3.797 3.147-7.1 7.086-10.24 10.857-1.74 2.024-3.345 4.16-4.802 6.39-.826 1.228-1.404 2.6-1.704 4.043-.812 4.058-.698 8.316-.65 12.43.057 4.85.293 9.699.601 14.54.17 2.74.365 5.488.609 8.228.006.159.113.296.267.344l11.164 3.674c.11.03.227.008.318-.059.09-.067.144-.172.145-.284-.081-9.459.097-18.917.268-28.368 0-1.382 0-2.764.089-4.146.09-1.382 1.623-2.724 2.645-3.683 1.728-1.686 3.57-3.243 5.339-4.89 1.812-1.746 3.273-3.814 4.308-6.094 3.326-7.039.608-15.18-1.704-22.073-.154-.44-.852-.256-.706.183 2.158 6.447 4.868 14.116 2.102 20.771-.986 2.466-2.484 4.703-4.398 6.567-1.752 1.598-3.578 3.195-5.298 4.841-1.03.999-2.807 2.397-2.994 3.922-.09 1.117-.12 2.237-.09 3.356-.097 4.737-.153 9.474-.21 14.212-.057 5.12-.13 10.25-.081 15.37l.462-.351-11.164-3.675.268.351c-.6-6.774-.99-13.565-1.169-20.371-.207-4.407-.085-8.824.366-13.213.112-1.386.48-2.74 1.087-3.995 1.22-2.147 2.638-4.179 4.235-6.071 2.028-2.533 4.178-4.977 6.393-7.358 1.579-1.766 3.27-3.43 5.063-4.985.357-.303-.162-.799-.519-.511v.048z" transform="translate(-558 -1228) translate(121 1228) translate(437) translate(8.1 15.188)"/>
                        <path fill="#FFF" d="M149.85 104.178c1.847 5.486 1.613 11.403 1.992 17.247l1.355 15.263 26.727-9.434c.944-2.527-.604-15.373-.951-22.071L169.06 93.15c-2.153 5.638-19.211 11.028-19.211 11.028z" transform="translate(-558 -1228) translate(121 1228) translate(437) translate(8.1 15.188)"/>
                        <path fill="#221F20" d="M148.857 103.415c1.9 5.95 1.502 12.142 2.037 18.319l.958 11.041.304 3.546c.001.113.054.22.142.289.09.07.204.094.313.067l20.207-7.326 4.728-1.724c.623-.219 1.598-.332 1.821-1.004.799-2.08.799-4.582.855-6.784.025-2.827-.098-5.653-.368-8.467-.343-3.974-.798-7.957-1.51-11.883-.079-.462-.798-.267-.694.194.559 3.238.966 6.476 1.302 9.714.28 2.785.495 5.577.543 8.378.12 2.455-.039 4.916-.471 7.334-.096.437-.28.874-.352 1.311 0 .138.328-.113.056 0-.271.114-.655.243-.982.357l-4.25 1.538-12.738 4.614-8.339 3.027.455.348c-.575-6.67-1.278-13.34-1.541-20.034-.176-4.404-.431-8.84-1.781-13.066-.144-.437-.839-.25-.695.195v.016z" transform="translate(-558 -1228) translate(121 1228) translate(437) translate(8.1 15.188)"/>
                        <path fill="#FFF" d="M168.942 101.768c0 4.648-19.844 33.23-22.13 34.146l4.16 3.811c3.817-.654 22.494-24.149 26.304-31.531 2.643-5.126 3.318-14.175-2.778-14.621l-5.786-.423" transform="translate(-558 -1228) translate(121 1228) translate(437) translate(8.1 15.188)"/>
                        <path fill="#221F20" d="M168.98 101.171c-.076.709-.285 1.398-.617 2.031-.486 1.088-1.028 2.152-1.623 3.187-1.624 2.915-3.425 5.727-5.26 8.515-3.96 6.007-8.117 11.95-12.613 17.526-.812 1.02-1.624 2.03-2.5 2.995-.377.514-.85.953-1.396 1.29-.114.064-.184.183-.184.311s.07.247.184.31c1.706.866 3.456 1.645 5.243 2.335.998.318 2.208-.845 2.914-1.418 3.912-3.187 7.248-7.17 10.503-11.017 3.831-4.501 7.54-9.137 10.966-13.949 2.906-4.078 5.52-8.237 5.625-13.39.057-2.637-.65-5.8-3.385-6.931-1.437-.597-3.174-.502-4.708-.597l-4.01-.231c-.47 0-.47.693 0 .716l2.971.176c1.54.003 3.079.115 4.603.334 2.849.582 3.75 3.45 3.798 5.975.106 4.955-2.33 9.033-5.089 12.96-3.19 4.55-6.656 8.914-10.227 13.168-3.18 3.936-6.62 7.662-10.3 11.153-.661.624-1.363 1.204-2.103 1.736-.255.188-.527.353-.811.494-.09.048-.244.088-.325.144-.081.055-.13 0 0 .071-.98-.339-1.927-.76-2.833-1.258l-2.492-1.028v.637c.49-.277.918-.648 1.259-1.091.738-.797 1.42-1.593 2.094-2.438 2.061-2.54 4.058-5.162 5.941-7.798 4.474-5.996 8.611-12.227 12.395-18.665.719-1.233 1.374-2.501 1.964-3.8.401-.759.652-1.586.738-2.437 0-.198-.163-.359-.365-.359-.201 0-.365.16-.365.359l.008-.016z" transform="translate(-558 -1228) translate(121 1228) translate(437) translate(8.1 15.188)"/>
                        <path fill="#FFF" d="M150.458 138.268c.718 1.488.355 3.392-.123 5.123-.549 2.016-1.243 3.988-2.076 5.9-.332.783-.895 1.645-1.651 1.567-.284-.04-.551-.16-.772-.345l-2.145-1.457c-.272-.14-.48-.381-.578-.674-.03-.29.02-.584.146-.846.6-1.6 1.077-3.245 1.428-4.92.077-.4.123-.878-.17-1.09l-1.76 2.657c-.066.114-.155.213-.262.29-.124.067-.271.075-.402.022-.13-.052-.232-.161-.277-.297-.088-.285-.088-.591 0-.877.328-1.98 1.246-3.81 2.631-5.241 1.459-1.348 3.696-1.888 5.131-.846l.88 1.034z" transform="translate(-558 -1228) translate(121 1228) translate(437) translate(8.1 15.188)"/>
                        <path fill="#221F20" d="M150.727 138.893c.883 1.955.064 4.31-.533 6.232-.31 1.017-.66 2.034-1.049 3.027-.39.994-.708 2.219-1.487 2.86-.572.464-1.05.056-1.55-.289l-1.439-.969c-.243-.122-.468-.278-.668-.464-.193-.292-.211-.668-.047-.977.167-.497.357-.994.516-1.49.326-1.001.605-2.01.795-3.036.151-.649.39-1.434-.15-1.97-.08-.077-.19-.114-.3-.1-.11.014-.207.077-.265.172l-1.51 2.267c-.16.232-.184.528-.486.328s-.135-.393-.071-.689c.073-.357.166-.71.278-1.057.4-1.455 1.163-2.781 2.218-3.853 1.012-1.027 2.439-1.524 3.864-1.345.8.191 1.502.673 1.972 1.353.302.345.795-.168.5-.512-.28-.36-.583-.703-.906-1.026-.613-.463-1.365-.697-2.13-.664-1.823.097-3.5 1.033-4.548 2.539-.587.802-1.054 1.687-1.383 2.627-.413.86-.617 1.808-.597 2.763.03.307.218.576.494.709.277.132.602.11.858-.06.376-.372.69-.802.93-1.274l1.209-1.81-.565.072c.398.393-.095 1.602-.207 2.035-.15.592-.318 1.177-.493 1.762-.174.585-.453 1.33-.683 1.994-.189.384-.223.826-.096 1.234.216.375.537.679.923.873l1.59 1.05c.795.544 1.59 1.024 2.456.311.7-.742 1.212-1.643 1.495-2.627.498-1.233.943-2.49 1.335-3.772.644-2.115 1.376-4.526.414-6.664-.255-.36-.875-.024-.684.44z" transform="translate(-558 -1228) translate(121 1228) translate(437) translate(8.1 15.188)"/>
                        <path fill="#FFF" d="M120.376 132.24c-2.056 1.066-3.966 2.372-5.686 3.888-.268.37-.47.78-.6 1.213-.31.88-.531 1.786-.658 2.706-.073.53-.057 1.151.463 1.315.43.064.87-.013 1.25-.218 2.14-.897 4.127-2.094 5.897-3.554.373-.303.99-.622 1.17-.311.105.179-.058.435-.22.638-.634.777-1.462 1.493-2.022 2.333-.56.84-.813 1.882-.147 2.395.086.082.204.125.325.116.148-.033.283-.106.39-.21 2.343-1.992 4.306-4.36 5.799-6.998.82-1.377-.471-5.467-5.961-3.313z" transform="translate(-558 -1228) translate(121 1228) translate(437) translate(8.1 15.188)"/>
                        <path fill="#221F20" d="M119.697 131.3c-1.34.627-2.599 1.41-3.747 2.328-.97.707-2.106 1.39-2.612 2.497-.47 1.096-.776 2.25-.912 3.429-.091.658-.075 1.51.68 1.783.887.329 2.097-.442 2.852-.803 1.065-.522 2.087-1.12 3.06-1.791.43-.3.853-.613 1.268-.94.216-.16.415-.345.638-.497.105-.094.23-.165.365-.21.224-.055-.074.161-.174.282-.788.79-1.503 1.644-2.139 2.553-.482.692-.56 1.576-.207 2.337.514.803 1.202.498 1.799 0 1.723-1.488 3.217-3.208 4.436-5.107.696-1.028 1.658-2.096 1.55-3.405-.094-1.077-.71-2.048-1.658-2.617-1.559-.908-3.516-.49-5.1.12-.439.169-.248.867.2.699 1.293-.498 2.885-.94 4.228-.346.807.356 1.385 1.068 1.55 1.911.225 1.052-.43 1.791-.986 2.65-1.026 1.63-2.226 3.151-3.582 4.537-.34.338-.696.667-1.07.972-.198.169-.439.466-.712.217-.274-.25-.133-.643-.083-.876.336-.952.925-1.802 1.708-2.465.381-.417 1.384-1.236 1.053-1.903-.274-.538-.954-.345-1.368-.104-.83.466-1.501 1.164-2.272 1.686-.85.59-1.74 1.127-2.662 1.606-.414.2-.829.394-1.243.578-.311.184-.673.271-1.037.25-.282-.057-.265 0-.356-.258-.025-.127-.025-.258 0-.385.081-1.07.324-2.123.721-3.124.448-1.269 1.542-1.935 2.612-2.706 1.111-.884 2.327-1.636 3.623-2.24.398-.217.017-.844-.423-.659z" transform="translate(-558 -1228) translate(121 1228) translate(437) translate(8.1 15.188)"/>
                        <path fill="#FFF" d="M95.405 169.088c-.515-6.922-3.267-22.676-3.267-22.676l25.508-5.674.817 19.63-23.058 8.72z" transform="translate(-558 -1228) translate(121 1228) translate(437) translate(8.1 15.188)"/>
                        <path fill="#000" d="M84.037 82.35l1 6.875c1.392 5.139 4.8 9.413 8.125 13.519.594.844 1.354 1.565 2.236 2.12 1.474.76 3.281.509 4.48-.623.4-.476.839-.92 1.31-1.33.664-.463 4.693-4.241 5.25-6.002 1.376-4.33.983-8.108-.04-12.535-.225-1.28-.688-2.51-1.368-3.625-.648-.915-1.514-1.663-2.523-2.177-9.894-5.203-18.47 3.777-18.47 3.777z" transform="translate(-558 -1228) translate(121 1228) translate(437) translate(8.1 15.188)"/>
                        <path fill="#FFF" d="M94.406 109.345c.892-.957 1.192-2.332.782-3.58-.642-1.876-2.668-2.787-3.96-4.268-.844-1.067-1.482-2.287-1.877-3.595-.986-2.78-3.819-10.88-1.182-14.959 2.457-3.793 10.493-6.913 14.868.737 2.136 3.761 3.036 8.584 1.479 12.67-.58 1.528-1.565 2.882-2.223 4.371-.657 1.489-1.033 3.27-.344 4.751.399.864 1.142 1.838.61 2.637-.183.237-.419.427-.688.555-1.393.792-7.465.68-7.465.68z" transform="translate(-558 -1228) translate(121 1228) translate(437) translate(8.1 15.188)"/>
                        <path fill="#000" d="M94.1 109.23c1.961-2.209.952-4.77-1.058-6.425-1.323-.952-2.428-2.176-3.243-3.59-.523-1.124-.967-2.284-1.329-3.47-1.417-4.264-3.427-10.786.256-14.456 3.363-3.34 8.928-3.783 12.267-.177 2.28 2.654 3.597 6.002 3.74 9.501.097 1.764-.176 3.529-.8 5.18-.641 1.663-1.73 3.1-2.403 4.747-.72 1.477-.792 3.189-.2 4.722.254.422.471.866.648 1.326.197.684-.192 1.4-.872 1.606-.502.163-1.02.268-1.546.313-1.893.207-3.798.282-5.701.225-.147.024-.255.152-.255.301 0 .15.108.277.255.301 1.833.05 3.668-.017 5.493-.2.902-.021 1.786-.258 2.578-.691 1.29-.876.6-2.112.056-3.213-1.073-2.168 0-4.409 1.041-6.344.952-1.525 1.647-3.197 2.058-4.948.557-3.387.024-6.864-1.521-9.926-1.185-2.466-3.003-4.715-5.661-5.622-2.156-.688-4.49-.542-6.542.41-1.888.757-3.459 2.14-4.452 3.919-1.177 2.409-.921 5.308-.457 7.846.525 2.862 1.376 5.654 2.538 8.32.807 1.687 2.017 3.147 3.524 4.25 1.761 1.469 2.962 3.677 1.16 5.701-.255.257.169.683.425.394z" transform="translate(-558 -1228) translate(121 1228) translate(437) translate(8.1 15.188)"/>
                        <path fill="#000" d="M101.942 80.236c-3.118-1.417-6.653-1.648-9.933-.65-1.702.552-3.249 1.493-4.516 2.747-.845.782-1.713 1.831-1.342 2.903.134.342.348.647.623.892 1.461 1.37 3.648 1.566 5.606 1.3 1.959-.267 3.854-.994 5.82-1.221.791-.119 1.6-.065 2.369.156.87.332 1.631.898 2.195 1.636 1.579 1.987 2.155 4.64 2.645 7.176 1.12-2.207 1.303-7.043-.048-10.956l-3.419-3.983z" transform="translate(-558 -1228) translate(121 1228) translate(437) translate(8.1 15.188)"/>
                        <path fill="#221F20" d="M96.212 166.721c-.966-7.642-2.705-15.227-4.38-22.74l-.256.45 21.541-6.16 3.056-.87c.192-.053.304-.253.251-.447-.052-.193-.25-.307-.442-.253l-21.541 6.152-3.056.878c-.189.054-.299.252-.247.443 1.659 7.448 3.398 14.97 4.356 22.547.055.451.797.46.718 0z" transform="translate(-558 -1228) translate(121 1228) translate(437) translate(8.1 15.188)"/>
                        <path fill="#CBCDE5" d="M89.416 217.868c-.514 1.839-.399 3.798.328 5.562 1.44 2.926 19.022-14.364 17.486-16.33-1.537-1.967-5.698-3.007-7.859-3.588 0 0-8.794 9.27-9.955 14.356z" transform="translate(-558 -1228) translate(121 1228) translate(437) translate(8.1 15.188)"/>
                        <path fill="#000" d="M89.414 217.69c-.352 1.568-1.025 6.977 2.108 5.942 2.19-.73 4.15-2.438 5.88-3.85 2.489-2.025 4.834-4.206 7.02-6.53 1.361-1.442 3.24-3.198 3.846-5.11.336-1.067-.615-1.663-1.476-2.196-2.034-1.254-4.486-1.834-6.799-2.422-.104-.029-.217-.002-.295.07-1.69 1.694-3.28 3.481-4.806 5.308-2.14 2.579-4.641 5.487-5.478 8.788-.09.368.5.525.59.156.67-2.056 1.72-3.981 3.1-5.683 1.398-1.902 2.898-3.734 4.495-5.488.566-.619 1.131-1.23 1.714-1.834.172-.188.541-.784.82-.784-.074 0-.066.055.123.149.252.092.513.16.779.204.68.18 1.361.368 2.034.58 1.48.39 2.87 1.041 4.1 1.92.451.353.722.534.574 1.05-.158.456-.39.885-.689 1.27-.898 1.284-1.905 2.496-3.01 3.623-2.616 2.806-5.478 5.394-8.553 7.737-1.194 1.003-2.537 1.83-3.986 2.454-.278.102-.82.306-1.057.102-.46-.337-.6-1.63-.648-2.132-.083-1.052.005-2.11.262-3.136.033-.4-.566-.541-.648-.188z" transform="translate(-558 -1228) translate(121 1228) translate(437) translate(8.1 15.188)"/>
                        <path fill="#FFF" d="M116.455 136.688c1.223 2.832 2.235 5.749 3.029 8.727 1.782 7.782 1.433 11.742-3.03 18.137-1.012 1.443-8.625 8.15-8.625 9.986 0 2.196.916 25.727 1.37 33.012l-11.34-3.102s-4.397-31.024-1.935-37.219c2.04-5.161 11.897-17.135 14.991-19.972" transform="translate(-558 -1228) translate(121 1228) translate(437) translate(8.1 15.188)"/>
                        <path fill="#221F20" d="M115.698 137.098c2.52 6.368 5.62 13.92 3.272 20.78-.874 2.603-2.305 4.991-4.196 7.004-1.636 1.69-3.354 3.3-4.957 5.032-.998 1.062-2.715 2.576-2.822 4.138-.082 1.119.057 2.294.09 3.413.164 4.79.36 9.581.556 14.363.213 5.12.418 10.233.737 15.345l.466-.346-5.546-1.481-3.82-1.047c-.253-.064-1.84-.708-2.053-.555.09-.065.098.346.205.137.006-.161-.016-.322-.066-.475-.09-.628-.171-1.248-.253-1.876-.295-2.239-.567-4.485-.818-6.739-.687-5.974-1.284-11.98-1.489-17.994-.13-2.469-.083-4.944.14-7.407.277-2.05 1.033-4.009 2.208-5.724 2.133-3.367 4.485-6.594 7.042-9.66 1.939-2.52 4.06-4.9 6.347-7.118.344-.322-.18-.805-.523-.515-3.648 3.365-6.756 7.48-9.7 11.424-1.656 2.144-3.167 4.393-4.524 6.73-.772 1.297-1.285 2.726-1.513 4.211-.573 4.179-.246 8.518 0 12.713.319 4.83.818 9.717 1.382 14.564.319 2.721.663 5.45 1.047 8.163.033.122.13.217.254.25l11.45 3.124c.112.027.23.002.32-.067.091-.069.145-.175.147-.287-.589-9.476-.916-18.985-1.243-28.477-.058-1.417-.115-2.842-.14-4.259-.024-1.417 1.448-2.753 2.38-3.775 1.637-1.772 3.387-3.43 5.072-5.153 1.707-1.812 3.067-3.912 4.016-6.2 3.166-7.326 0-15.473-2.773-22.405-.171-.427-.883-.242-.711.193l.016-.024z" transform="translate(-558 -1228) translate(121 1228) translate(437) translate(8.1 15.188)"/>
                        <path fill="#D4DAFF" d="M88.088 118.123c1.813 5.528 1.59 11.497 1.964 17.386l1.328 15.354 26.317-9.505c2.522-6.901-1.996-34.033-1.996-34.033" transform="translate(-558 -1228) translate(121 1228) translate(437) translate(8.1 15.188)"/>
                        <path fill="#221F20" d="M88.107 117.583c1.909 5.952 1.51 12.146 2.037 18.324l.958 11.044.312 3.546c.002.112.053.217.14.286.087.069.2.095.307.07l20.215-7.327 4.72-1.717c.623-.218 1.598-.332 1.821-1.004.799-2.08.799-4.583.855-6.785.025-2.828-.098-5.655-.368-8.47-.343-3.975-.798-7.959-1.501-11.886-.08-.461-.799-.267-.695.187.551 3.238.966 6.477 1.294 9.716.287 2.785.495 5.579.55 8.38.113 2.456-.047 4.917-.478 7.336-.088.437-.28.875-.352 1.312 0 .137.328-.114.056 0-.271.113-.655.235-.982.356l-4.241 1.538-12.74 4.616-8.338 3.028.455.348c-.583-6.672-1.278-13.344-1.55-20.04-.167-4.404-.43-8.842-1.78-13.068-.144-.437-.839-.251-.695.194v.016z" transform="translate(-558 -1228) translate(121 1228) translate(437) translate(8.1 15.188)"/>
                        <path fill="#D4DAFF" d="M106.126 113.017c0 4.712-25.992 37.432-28.28 38.361l7.1 2.522c3.833-.663 25.722-26.875 29.547-34.368 2.654-5.19 3.331-14.372-2.789-14.824-2.263-.162-6.797-.42-6.797-.42s-2.621 7.088-13.02 4.85l-7.706 3.475s-27.459 31.967-30.518 32.436l7.41 2.538c4.407.493 27.316-21.597 27.316-21.597" transform="translate(-558 -1228) translate(121 1228) translate(437) translate(8.1 15.188)"/>
                        <path fill="#221F20" d="M106.346 112.22c-.093.729-.341 1.43-.728 2.056-.583 1.149-1.226 2.267-1.927 3.348-1.96 3.093-4.111 6.067-6.287 9.016-4.727 6.378-9.653 12.612-14.868 18.59-.936 1.077-1.88 2.145-2.872 3.189-.42.54-.938.998-1.527 1.347-.312.136-.176.566.08.662l6.19 2.152c.504.176.912.423 1.432.247.58-.232 1.119-.552 1.6-.948 3.999-3.03 7.454-7.063 10.79-10.818 4.262-4.783 8.373-9.733 12.236-14.851 3.064-4.058 6.127-8.131 6.83-13.305.385-2.87.225-6.744-2.527-8.466-1.407-.885-3.199-.797-4.798-.9-1.6-.105-2.984-.184-4.48-.264-.161-.001-.303.107-.343.263-.595 1.258-1.507 2.34-2.648 3.141-1.23.839-2.636 1.384-4.11 1.594-.966.153-1.945.198-2.92.136-.665-.036-1.327-.108-1.984-.215-.402-.129-.826-.18-1.247-.152-.79.264-1.553.6-2.28 1.005l-4 1.753c-.82.265-1.56.737-2.143 1.371-6.782 7.725-13.597 15.41-20.747 22.84-1.903 1.985-3.823 3.985-5.83 5.843-.688.638-1.376 1.267-2.112 1.841-.345.327-.757.574-1.208.726-.376.064-.304.59 0 .693l3.695 1.268c1.204.51 2.445.928 3.711 1.251.846.03 1.681-.193 2.4-.637 1.23-.633 2.412-1.355 3.535-2.16 6.19-4.305 11.845-9.431 17.412-14.493 1.496-1.356 2.984-2.719 4.447-4.106.336-.319-.176-.797-.512-.51-3.674 3.476-7.427 6.861-11.261 10.156-2.935 2.535-5.919 5.03-9.046 7.326-1.204.903-2.453 1.744-3.743 2.52-.823.563-1.746.967-2.72 1.187-.317.021-.635-.042-.92-.183l-2.503-.853-4.279-1.443v.693c1.04-.183 2.08-1.347 2.823-2.009 1.736-1.554 3.376-3.188 5-4.878 4.326-4.449 8.517-9.032 12.676-13.64 3.12-3.454 6.215-6.927 9.286-10.42.288-.326.568-.693.88-.996.034-.052.074-.1.12-.143-.144.112 0 0 .064 0 .184-.104.392-.167.584-.255l3.711-1.595 1.984-.876c.385-.22.793-.4 1.215-.535.232-.04.152 0 .504.104.628.16 1.272.248 1.92.263 1.065.099 2.138.08 3.2-.056 1.646-.19 3.225-.767 4.606-1.682 1.374-.888 2.454-2.16 3.103-3.659l-.343.263 3.439.2c1.503.087 3.271 0 4.695.494 2.943 1.084 3.263 4.783 3.007 7.485-.472 5.086-3.375 9.08-6.343 13.05-3.615 4.847-7.478 9.51-11.469 14.054-3.319 3.983-6.925 7.718-10.79 11.177-.594.536-1.24 1.014-1.927 1.427-.186.124-.391.215-.608.27h-.056c-.232 0-.368-.127-.544-.19l-6.398-2.24.088.653c.495-.306.93-.697 1.287-1.156.8-.797 1.6-1.722 2.4-2.607 2.4-2.71 4.71-5.5 6.99-8.322 5.204-6.273 10.074-12.813 14.589-19.595.85-1.287 1.633-2.617 2.343-3.986.47-.767.767-1.626.872-2.519 0-.198-.161-.358-.36-.358-.199 0-.36.16-.36.358l.024.008z" transform="translate(-558 -1228) translate(121 1228) translate(437) translate(8.1 15.188)"/>
                        <path fill="#221F20" d="M87.098 117.892c2.022 5.332 1.994 10.865 2.172 16.407 0 .2.189.363.421.363.233 0 .421-.162.421-.363-.177-5.598-.159-11.213-2.2-16.6-.168-.437-.983-.251-.814.193z" transform="translate(-558 -1228) translate(121 1228) translate(437) translate(8.1 15.188)"/>
                        <path fill="#FFF" d="M84.64 150.386c.725 1.496.362 3.391-.116 5.122-.546 2.016-1.243 3.988-2.083 5.898-.331.783-.894 1.644-1.65 1.605-.281-.048-.546-.167-.771-.344l-2.145-1.465c-.276-.136-.487-.379-.586-.674-.022-.29.03-.582.155-.845.596-1.6 1.07-3.245 1.419-4.92.085-.39.13-.876-.162-1.088l-1.759 2.655c-.068.115-.157.216-.262.298-.126.064-.273.07-.403.016-.13-.054-.23-.163-.276-.298-.085-.286-.085-.591 0-.877.332-1.977 1.253-3.803 2.638-5.232 1.45-1.355 3.687-1.895 5.121-.854l.88 1.003z" transform="translate(-558 -1228) translate(121 1228) translate(437) translate(8.1 15.188)"/>
                        <path fill="#221F20" d="M83.966 149.959c.883 1.954.064 4.309-.525 6.231-.318 1.025-.668 2.035-1.05 3.028-.357.905-.707 2.218-1.494 2.867-.564.457-1.041.048-1.542-.288l-1.44-.97c-.244-.122-.47-.281-.667-.472-.193-.292-.214-.665-.056-.977.175-.497.366-.985.525-1.49.326-.993.604-2.01.795-3.028.143-.656.39-1.441-.159-1.97-.078-.077-.187-.114-.296-.1-.108.015-.204.078-.26.172l-1.511 2.259c-.16.24-.183.529-.485.336-.302-.192-.143-.4-.08-.697.064-.296.175-.704.279-1.049.4-1.458 1.167-2.787 2.226-3.86 1.012-1.027 2.439-1.524 3.864-1.346.782.227 1.455.734 1.892 1.426.31.344.795-.169.509-.513-.281-.358-.584-.697-.907-1.017-.61-.468-1.364-.706-2.13-.673-1.825.097-3.505 1.033-4.556 2.539-.588.8-1.052 1.686-1.375 2.627-.413.861-.617 1.808-.597 2.764.026.309.213.581.491.715s.606.108.86-.067c.374-.371.686-.801.923-1.273l1.209-1.81-.557.072c.398.392-.103 1.602-.215 2.034-.143.593-.31 1.186-.492 1.77-.183.585-.454 1.33-.676 1.995-.193.38-.227.82-.096 1.225.218.376.538.682.923.881l1.59 1.042c.795.544 1.59 1.025 2.448.312.705-.736 1.218-1.636 1.495-2.62.509-1.24.946-2.498 1.336-3.78.652-2.114 1.383-4.525.421-6.664-.19-.416-.803-.056-.62.369z" transform="translate(-558 -1228) translate(121 1228) translate(437) translate(8.1 15.188)"/>
                        <path fill="#FFF" d="M53.553 144.39c-2.056 1.066-3.967 2.372-5.687 3.888-.268.37-.472.78-.601 1.213-.31.88-.531 1.786-.658 2.706-.073.53-.057 1.151.463 1.315.43.064.871-.013 1.25-.218 2.141-.897 4.13-2.094 5.9-3.554.365-.303.99-.622 1.17-.311.105.179-.058.436-.22.638-.642.777-1.463 1.493-2.023 2.333-.56.84-.813 1.882-.146 2.395.082.082.198.125.316.116.151-.032.29-.105.399-.21 2.344-1.99 4.304-4.359 5.792-6.998.829-1.377-.463-5.467-5.955-3.313z" transform="translate(-558 -1228) translate(121 1228) translate(437) translate(8.1 15.188)"/>
                        <path fill="#221F20" d="M52.872 144.462c-1.34.628-2.599 1.41-3.747 2.328-.97.707-2.106 1.39-2.612 2.498-.473 1.094-.78 2.249-.912 3.429-.091.658-.075 1.51.68 1.782.887.33 2.097-.441 2.852-.803 1.064-.523 2.086-1.122 3.06-1.79.43-.3.853-.613 1.268-.94.216-.16.415-.345.638-.498.105-.094.23-.165.365-.209.224-.056-.074.16-.174.281-.788.79-1.503 1.645-2.139 2.554-.482.691-.56 1.576-.207 2.337.514.803 1.202.498 1.799 0 1.72-1.49 3.214-3.21 4.436-5.107.696-1.028 1.658-2.096 1.55-3.405-.094-1.078-.71-2.048-1.658-2.618-1.559-.907-3.524-.49-5.1.12-.439.17-.248.868.2.7 1.293-.499 2.885-.94 4.228-.346.805.357 1.383 1.069 1.55 1.911.225 1.052-.43 1.79-.994 2.642-1.023 1.625-2.224 3.138-3.582 4.513-.34.337-.696.658-1.07.971-.207.169-.439.466-.713.217-.273-.249-.132-.642-.083-.875.325-.946.896-1.796 1.659-2.465.39-.418 1.384-1.237 1.053-1.903-.266-.538-.945-.346-1.36-.105-.83.466-1.5 1.165-2.272 1.686-.853.579-1.745 1.102-2.67 1.566-.406.201-.829.394-1.235.578-.31.185-.673.271-1.036.25-.282-.057-.266 0-.357-.258-.025-.127-.025-.258 0-.385.081-1.07.324-2.122.721-3.124.448-1.268 1.543-1.935 2.612-2.706 1.126-.875 2.356-1.617 3.665-2.208.406-.177 0-.803-.415-.618zM246.22 102.254l17.985-9.893c.137-.072 0-.28-.12-.209l-17.987 9.886c-.058.033-.078.107-.044.164.033.058.107.078.165.044v.008zM246.213 115.408l13.944-7.852c.133-.075 0-.29-.117-.216l-13.944 7.853c-.036.022-.059.063-.059.108 0 .044.023.085.059.107.036.023.08.023.117 0zM244.39 145.502c-.177-.458 5.124-2.634 5.706-2.903l5.431-2.515 10.87-5.046 22.105-10.283c.145-.063 0-.269-.122-.206l-39.86 18.517-2.715 1.266c-.469.213-1.471.435-1.722.933-.25.498.219.696.542.388.023-.037.023-.083 0-.12v-.094c-.057-.142-.291-.08-.234.063zM269.47 160.981c10.574-3.498 20.969-7.473 31.185-11.924.138-.064 0-.271-.122-.207-10.189 4.44-20.562 8.407-31.12 11.9-.154.047-.089.279.058.231zM143.92 185.279c14.822-5.869 29.597-11.86 44.324-17.972.144-.057.08-.293-.063-.236-14.728 6.113-29.503 12.103-44.325 17.972-.144.057-.08.293.063.236zM159.11 106.304c9.258-3.473 18.04-8.156 26.125-13.933.127-.09 0-.301-.12-.212-8.066 5.769-16.829 10.444-26.07 13.908-.143.057-.087.294.064.237zM135.802 197.43c7.138-.54 14.196-1.818 21.054-3.815.063-.02.097-.088.075-.149-.022-.06-.09-.093-.153-.072-6.838 1.992-13.875 3.271-20.991 3.814-.15 0-.15.244 0 .229l.015-.008zM97.411 136.67c8.637-6.852 18.902-11.117 27.587-17.905 2.383-1.836 4.59-3.9 6.594-6.161.104-.122-.063-.293-.166-.179-7.35 8.375-17.48 13.07-26.72 18.85-2.58 1.594-5.072 3.336-7.462 5.216-.127.09.048.26.167.171v.008zM59.838 170.434l2.763.638c.175 0 .249-.253.074-.294l-2.764-.637c-.175 0-.248.253-.073.293zM59.862 172.517c.94-.039 1.876.14 2.755.527.157.07.226-.223.07-.294-.902-.395-1.862-.578-2.825-.536-.166 0-.166.313 0 .303zM60.85 173.634l1.825.324c.133 0 .133-.284 0-.304l-1.825-.324c-.133 0-.133.273 0 .304zM59.857 176.702l1.786.263c.064-.005.116-.07.12-.152 0-.04-.013-.079-.036-.108-.022-.028-.052-.044-.084-.044l-1.786-.263c-.064 0-.12.08-.12.152 0 .084.054.151.12.151zM58.831 178.843c.593-.09 1.192-.062 1.779.081.141 0 .2-.253.06-.283-.606-.16-1.226-.195-1.839-.102-.141 0-.141.324 0 .304zM58.854 180.746l1.767.274c.069 0 .129-.081.129-.152 0-.04-.014-.079-.038-.107-.024-.029-.057-.045-.09-.045l-1.768-.273c-.069 0-.129.08-.129.152 0 .083.058.151.129.151zM58.79 181.81c.608.174 1.241.212 1.862.112.072-.029.112-.112.093-.193-.008-.038-.031-.07-.063-.09-.032-.02-.07-.023-.104-.01-.56.089-1.13.05-1.676-.112-.048-.015-.1 0-.135.038-.036.038-.05.094-.037.147.012.053.05.094.098.108h-.037zM57.812 187.86l1.823.222c.14 0 .133-.284 0-.304l-1.823-.222c-.133 0-.133.293 0 .303zM58.805 188.87c.245.2.55.266.837.182.067-.02.108-.102.092-.183-.02-.082-.09-.13-.159-.111H59.232c-.122-.02-.238-.08-.335-.172-.065-.03-.138.008-.163.086-.026.078.006.167.07.197zM57.797 191.975l.843.091c.047 0 .085-.068.085-.152-.003-.081-.04-.147-.085-.152l-.843-.09c-.047 0-.084.067-.084.151.002.082.039.147.084.152zM56.8 194.75l2.766.607c.166 0 .25-.263.074-.294l-2.766-.607c-.175 0-.249.253-.074.293zM56.793 197.068c.603-.094 1.21-.067 1.809.081.124 0 .176-.263.052-.293-.615-.152-1.24-.183-1.86-.091-.125 0-.125.324 0 .303zM56.795 198.096h.823c.052 0 .094-.068.094-.152 0-.084-.042-.152-.094-.152h-.823c-.053 0-.095.068-.095.152 0 .084.042.152.095.152zM55.798 200.91l2.814.446c.15 0 .15-.273 0-.304l-2.814-.445c-.151 0-.143.273 0 .303zM55.82 201.984l2.773.324c.176 0 .176-.284 0-.304l-2.774-.324c-.175 0-.175.273 0 .304zM55.808 204.17h1.784c.067 0 .12-.067.12-.151 0-.084-.053-.152-.12-.152h-1.784c-.067 0-.12.068-.12.152 0 .084.053.152.12.152zM55.787 207.163l1.826.09c.133 0 .133-.293 0-.303l-1.826-.091c-.133 0-.133.293 0 .304zM55.793 209.186c.6.1 1.205.121 1.808.06.149 0 .149-.313 0-.303-.603.06-1.208.04-1.808-.061-.14 0-.14.273 0 .304zM54.769 211.218c.604-.103 1.216-.059 1.812.131.118 0 .17-.253.052-.293-.613-.194-1.242-.242-1.864-.142-.125 0-.125.324 0 .304zM54.787 212.27h1.801c.062 0 .112-.067.112-.151 0-.084-.05-.152-.112-.152h-1.801c-.062 0-.112.068-.112.152 0 .084.05.152.112.152zM54.804 215.171l1.763.274c.036.003.071-.012.097-.041.025-.03.038-.07.036-.111 0-.091-.062-.142-.133-.152l-1.763-.273c-.04-.002-.078.018-.103.054-.025.036-.032.084-.02.128 0 .09.06.142.131.152l-.008-.03zM61.847 166.708h.843c.047 0 .085-.068.085-.152 0-.084-.038-.152-.085-.152h-.843c-.047 0-.084.068-.084.152 0 .084.037.152.084.152zM60.882 164.617l1.76.132c.177 0 .177-.294 0-.304l-1.76-.131c-.176 0-.176.293 0 .303zM61.894 160.69c.592-.13 1.193-.154 1.79-.071.138 0 .138-.284 0-.304-.616-.08-1.235-.052-1.846.081-.132 0-.076.324.056.294zM126.672 147.298l1.727.335c.081.013.16-.034.184-.112.02-.08-.03-.162-.112-.182l-1.717-.334c-.081-.014-.16.034-.184.111-.013.038-.009.079.01.114.02.034.053.06.092.069zM126.616 150.23c.565.438 1.217.616 1.861.507.06-.005.107-.07.11-.152 0-.084-.049-.152-.11-.152-.605.107-1.218-.056-1.75-.466-.118-.101-.236.162-.11.263zM125.635 153.232c.578.296 1.182.503 1.798.617.06.02.123-.024.142-.1 0-.072 0-.183-.079-.193-.617-.11-1.221-.317-1.798-.618-.061-.02-.123.025-.142.101-.01.04-.007.082.008.118.014.036.04.063.07.075zM125.627 155.458l.803.213c.056.02.112-.025.13-.102.013-.083-.021-.167-.08-.192l-.796-.213c-.057-.013-.112.034-.129.112-.009.037-.006.079.008.113.013.035.037.06.064.07zM125.576 157.35c.254.396.602.544.929.394.102-.06.057-.354-.045-.294-.268.134-.555.011-.76-.324-.084-.131-.203.091-.124.223zM124.638 158.375l2.763.456c.175 0 .249-.263.074-.294l-2.764-.455c-.175 0-.248.263-.073.293zM123.624 167.505c.572.252 1.178.396 1.794.425.176 0 .176-.293 0-.304-.59-.03-1.172-.17-1.72-.415-.074-.019-.148.03-.166.112-.012.037-.008.078.01.113.017.035.047.06.082.069zM123.607 169.345l1.808.748c.134.052.193-.2.06-.252l-1.809-.749c-.06-.019-.12.022-.137.092-.016.07.019.141.078.16zM122.705 172.605c.563-.077 1.133.048 1.626.354.148.102.297-.162.139-.263-.564-.347-1.217-.483-1.858-.385-.035.01-.065.035-.083.07-.018.034-.021.075-.01.113.018.08.093.13.167.111h.019zM123.61 173.709c.279-.041.56.02.824.182.045.02.09-.03.102-.111.008-.078-.016-.155-.057-.183-.28-.169-.575-.234-.869-.192-.046.005-.082.07-.085.152 0 .084.038.152.085.152zM121.595 178.5l2.777.7c.167.05.237-.244.07-.284l-2.777-.709c-.166 0-.236.253-.07.294zM121.57 180.537l1.834.678c.122 0 .173-.253.051-.294l-1.834-.668c-.122-.05-.173.243-.051.284zM121.6 183.715c.57.242 1.175.376 1.787.395.189 0 .18-.293 0-.303-.585-.024-1.163-.15-1.711-.375-.073-.02-.147.024-.17.101-.01.038-.007.079.01.113.018.035.049.06.085.07zM120.578 185.728l1.774.425c.162 0 .23-.253.068-.293l-1.774-.426c-.154 0-.23.253-.068.294zM120.559 187.665c.6.273 1.212.476 1.831.607.123 0 .175-.263.052-.294-.62-.13-1.231-.334-1.831-.607-.052-.022-.106.025-.12.106-.014.081.016.165.068.188zM120.572 192.932l.843.202c.045 0 .085-.08.085-.151 0-.084-.038-.152-.085-.152l-.843-.203c-.045 0-.085.081-.085.152 0 .084.038.152.085.152zM119.619 194.822l1.691.466c.08.023.163-.025.185-.106.022-.081-.025-.165-.105-.187l-1.691-.456c-.054-.031-.122-.026-.17.014-.047.04-.066.107-.046.166.02.06.074.101.136.103zM119.587 198.014c.584.17 1.198.204 1.797.1.081-.02.131-.1.112-.181-.025-.083-.11-.131-.193-.112-.546.088-1.104.054-1.635-.101-.08-.022-.165.025-.187.106-.023.081.025.165.106.188zM119.563 198.944c.591.214 1.203.323 1.818.324.066 0 .119-.068.119-.152 0-.084-.053-.152-.12-.152-.593.002-1.184-.103-1.754-.314-.063-.022-.13.025-.147.107-.017.08.02.164.084.187zM120.564 193.813l1.816.455c.133 0 .19-.263.056-.293l-1.816-.456c-.133 0-.19.263-.056.294zM111.383 188.468c.158.372.46.658.832.79.374.133.783.098 1.13-.095.131-.071 0-.276-.115-.205-.285.16-.621.19-.929.086-.308-.105-.56-.336-.695-.639-.053-.142-.277-.079-.223.063zM110.517 186.862l1.716.192c.085 0 .154-.068.154-.152 0-.083-.069-.151-.154-.151l-1.716-.193c-.083 0-.154.081-.154.152 0 .04.016.079.045.107.029.029.068.045.109.045zM112.59 184.74c.565-.117 1.148.018 1.62.374.148.112.288-.151.139-.263-.55-.391-1.22-.523-1.86-.364-.177 0-.103.334.074.293l.028-.04zM111.507 181.79l1.76.212c.036.003.072-.012.097-.041.025-.03.038-.07.036-.111 0-.081-.053-.142-.132-.152l-1.761-.213c-.07 0-.132.081-.132.152 0 .084.06.152.132.152zM112.522 179.82l1.756.101c.18 0 .18-.293 0-.303l-1.756-.102c-.18 0-.18.294 0 .304zM112.528 177.724l1.744.243c.075 0 .14-.08.14-.152 0-.04-.014-.079-.04-.107-.027-.029-.063-.045-.1-.045l-1.744-.243c-.075 0-.14.081-.14.152 0 .04.014.08.04.108.027.028.063.044.1.044zM113.508 174.752l.796.112c.058-.005.105-.07.108-.152 0-.084-.048-.152-.108-.152l-.796-.111c-.06 0-.108.068-.108.152 0 .083.049.151.108.151zM113.643 174.082c.328-.581 1.013-.825 1.613-.574.072.018.144-.026.165-.1.017-.073-.026-.146-.095-.164-.715-.283-1.522.013-1.91.701-.078.155.148.292.227.137zM113.52 170.727c.585-.1 1.18-.063 1.753.111.064.022.13-.025.148-.106.017-.081-.02-.165-.084-.188-.595-.181-1.21-.222-1.817-.121-.066 0-.12.068-.12.152 0 .07.056.162.12.152zM113.499 168.533c.574.232 1.179.365 1.792.395.179 0 .179-.294 0-.304-.588-.032-1.167-.162-1.717-.385-.075-.019-.151.03-.17.111-.018.078.023.158.095.183zM110.456 195.782l1.765.567c.165.06.239-.233.073-.283l-1.765-.578c-.165-.06-.239.233-.073.294zM110.447 198.096h.843c.047 0 .085-.068.085-.152 0-.084-.038-.152-.085-.152h-.843c-.047 0-.085.068-.085.152 0 .084.038.152.085.152zM109.416 199.007l.822.192c.052.02.105-.029.12-.11.008-.04.005-.082-.008-.117-.014-.035-.036-.06-.061-.066l-.822-.193c-.049-.02-.099.025-.114.102-.013.08.015.163.063.192zM109.414 201.03c.282.204.59.253.888.142.022-.01.04-.034.05-.069.011-.034.013-.075.007-.113-.014-.078-.057-.125-.102-.111-.268.095-.545.046-.798-.142-.046-.02-.093.029-.107.111-.01.081.017.162.062.182zM186.381 137.062l1.803.557c.142 0 .202-.253.06-.294l-1.803-.556c-.142 0-.202.253-.06.293zM185.395 139.25l1.81.242c.143 0 .143-.283 0-.304l-1.81-.243c-.143 0-.143.284 0 .304zM186.357 140.145l.854.466c.1.06.146-.233.045-.294l-.854-.465c-.101-.061-.146.232-.045.293zM185.382 144.433h.823c.053 0 .095-.068.095-.152 0-.084-.042-.152-.095-.152h-.823c-.052 0-.095.068-.095.152 0 .084.043.152.095.152zM184.352 146.243c.6.253 1.219.396 1.843.425.14 0 .14-.293 0-.303-.605-.032-1.205-.172-1.787-.415-.036-.015-.075 0-.102.038-.026.038-.037.094-.028.147.01.052.038.094.074.108zM184.36 148.3l1.802.354c.028.012.058.008.084-.01.025-.02.043-.053.05-.091.015-.081-.017-.164-.074-.193l-1.803-.354c-.06-.02-.123.029-.141.111-.014.081.022.162.082.182zM183.368 157.4c.607-.01 1.213.12 1.792.384.126.06.183-.233.056-.293-.597-.273-1.222-.406-1.848-.395-.058 0-.106.068-.106.152 0 .083.048.151.106.151zM183.344 160.299l1.803.658c.059.022.12-.025.136-.106.017-.081-.018-.165-.077-.188l-1.803-.658c-.059-.022-.12.026-.136.107-.017.08.018.165.077.187zM182.37 163.472c.6-.032 1.196.103 1.75.395.031.013.066.008.095-.014.029-.02.05-.056.057-.097.015-.081-.024-.162-.088-.182-.574-.3-1.193-.44-1.814-.405-.16 0-.16.313 0 .303zM182.38 166.592l1.766.233c.069 0 .12-.071.129-.152-.004-.082-.06-.147-.13-.152l-1.766-.233c-.069 0-.129.08-.129.152 0 .084.058.152.13.152zM181.334 168.543c.55.372 1.22.46 1.835.243.166-.06.092-.354-.073-.293-.552.205-1.158.127-1.652-.213-.043-.027-.095-.027-.138 0-.042.027-.069.077-.069.132 0 .054.027.104.07.131h.027zM181.503 172.341c-.069-.037-.145-.016-.2.054-.054.07-.077.178-.06.28.05.294.316.264.47.264h1.444c.058 0 .105-.068.105-.152 0-.084-.047-.152-.105-.152h-1.703-.056c.126.08.231-.182.105-.263v-.03zM181.286 175.708c.272.205.587.259.886.152.036-.015.065-.056.075-.109.01-.052-.002-.108-.029-.146-.027-.039-.066-.053-.103-.039-.239.087-.491.043-.709-.121-.024-.021-.053-.027-.08-.015-.027.011-.05.039-.061.075-.037.058-.037.145 0 .203h.02zM181.332 177.846h.824c.052 0 .094-.068.094-.152 0-.084-.042-.152-.094-.152h-.824c-.052 0-.094.068-.094.152 0 .084.042.152.094.152zM180.366 180.814c.572-.018 1.144.03 1.706.142.18 0 .255-.253.076-.293-.587-.122-1.184-.173-1.782-.152-.078 0-.141.068-.141.152 0 .083.063.151.141.151zM180.357 182.908h1.76c.074 0 .133-.068.133-.152 0-.084-.06-.152-.132-.152h-1.76c-.074 0-.133.068-.133.152 0 .084.06.152.132.152zM180.378 183.92h1.719c.084 0 .153-.067.153-.151 0-.084-.069-.152-.153-.152h-1.719c-.084 0-.153.068-.153.152 0 .084.069.152.153.152zM180.348 187.97h.766c.068 0 .124-.067.124-.151 0-.084-.056-.152-.124-.152h-.766c-.068 0-.123.068-.123.152 0 .084.055.152.123.152zM180.347 189.945l.768.101c.065 0 .123-.08.123-.152-.005-.081-.057-.147-.123-.151l-.768-.102c-.067 0-.122.068-.122.152 0 .084.055.152.122.152zM179.31 191.863l1.767.304c.066.02.134-.025.154-.101.01-.04.008-.082-.008-.118-.016-.036-.044-.063-.078-.075l-1.766-.304c-.068-.016-.136.027-.163.102-.016.083.025.168.095.192zM179.336 193.033h.766c.068 0 .123-.068.123-.152 0-.084-.055-.152-.123-.152h-.766c-.068 0-.124.068-.124.152 0 .084.056.152.124.152zM169.174 185.822c.936.196 1.884.27 2.832.223.159 0 .159-.314 0-.304-.926.046-1.854-.026-2.769-.212-.15 0-.214.263-.063.293zM170.192 184.824c0-.091.059-.131.109-.101.004.03.004.06 0 .091h.083c.067-.01.135-.01.201 0H172c.07 0 .126-.068.126-.152 0-.084-.056-.152-.126-.152h-1.556c-.095-.006-.19.026-.268.091-.07.072-.094.191-.058.294.026.103.109.169.197.156.088-.012.157-.1.163-.207 0-.083-.057-.151-.126-.151-.075 0-.117.06-.125.151l-.034-.02zM170.253 182.908h1.719c.084 0 .153-.068.153-.152 0-.084-.069-.152-.153-.152h-1.719c-.084 0-.153.068-.153.152 0 .084.069.152.153.152zM171.213 178.544l2.763.618c.175 0 .249-.253.074-.294l-2.764-.617c-.175 0-.248.253-.073.293zM171.231 176.833h2.8c.066 0 .119-.068.119-.152 0-.084-.053-.152-.119-.152h-2.8c-.065 0-.118.068-.118.152 0 .084.053.152.118.152zM172.271 170.852c.596.039 1.195-.03 1.766-.203.082-.022.13-.106.107-.187-.022-.081-.107-.129-.19-.106-.545.16-1.115.225-1.683.192-.195 0-.195.283 0 .304zM172.217 168.478c1.254.362 2.541.529 3.83.496.071 0 .128-.068.128-.152 0-.084-.057-.152-.127-.152-1.267.032-2.531-.131-3.763-.486-.161 0-.229.253-.068.294zM173.258 166.648c.586-.093 1.182-.038 1.752.162.064.022.13-.025.148-.106.018-.081-.02-.165-.084-.188-.59-.213-1.208-.272-1.816-.172-.067 0-.12.068-.12.152 0 .084.053.152.12.152zM174.276 164.708h1.773c.168 0 .168-.293 0-.303l-1.773-.05c-.168 0-.168.293 0 .303v.05zM175.265 159.542c.594.16 1.21.194 1.816.101.076-.024.12-.108.103-.192-.03-.075-.104-.117-.177-.101-.557.083-1.123.049-1.667-.101-.075-.023-.152.025-.172.106-.021.081.023.165.097.187zM174.251 161.477l1.74.324c.076.02.153-.023.18-.101.018-.084-.027-.168-.104-.192l-1.74-.324c-.075-.014-.148.033-.17.111-.012.038-.008.079.01.113.018.035.048.06.084.07zM169.226 191.008h2.76c.077 0 .139-.068.139-.152 0-.084-.062-.152-.138-.152h-2.761c-.077 0-.138.068-.138.152 0 .084.061.152.138.152zM169.213 193.09c.924-.125 1.856-.149 2.784-.07.175 0 .166-.295 0-.305-.928-.077-1.86-.054-2.784.071-.167 0-.167.334 0 .304zM168.173 195.058h1.829c.054 0 .098-.068.098-.152 0-.084-.044-.152-.098-.152h-1.829c-.054 0-.098.068-.098.152 0 .084.044.152.098.152zM238.002 150.402l.838.203c.047.02.094-.03.108-.112.01-.08-.017-.162-.063-.182l-.837-.202c-.046-.021-.092.023-.108.1-.011.084.016.169.062.193zM238.011 152.498l.854.09c.047 0 .085-.067.085-.151.001-.041-.007-.082-.023-.11-.016-.03-.04-.045-.062-.042l-.843-.111c-.047 0-.084.068-.084.152 0 .083.037.151.084.151l-.011.02zM236.996 156.456l.82.243c.05.016.1-.026.119-.101.012-.084-.018-.168-.069-.192l-.82-.243c-.051-.015-.101.032-.118.111-.012.081.018.162.068.182zM237.025 158.446l1.744.314c.077.02.155-.029.177-.111.018-.081-.028-.162-.102-.182l-1.744-.314c-.072-.02-.146.024-.168.1-.012.04-.008.082.01.118.017.037.047.064.083.075zM237.033 161.646h.797c.06 0 .107-.068.107-.152 0-.084-.048-.152-.107-.152h-.797c-.06 0-.108.068-.108.152 0 .084.048.152.108.152zM235.982 163.515l.827.304c.05.014.098-.034.113-.111.012-.078-.015-.158-.063-.183l-.827-.303c-.033-.015-.067 0-.091.038-.024.038-.034.094-.025.147.008.052.033.094.066.108zM235.983 165.417c.526.37 1.16.559 1.803.536.202 0 .202-.314 0-.304-.59.02-1.17-.154-1.651-.496-.035-.02-.077-.026-.115-.015-.039.012-.07.04-.088.076-.04.07-.017.16.05.203zM235.015 168.617l1.795.233c.153 0 .153-.284 0-.304l-1.795-.233c-.153 0-.153.283 0 .304zM234.935 170.644c.276.205.596.26.899.152.057-.023.09-.107.075-.188-.016-.08-.075-.128-.132-.106-.24.087-.495.044-.713-.122-.054-.038-.12-.012-.15.061-.028.07-.012.16.035.203h-.014zM235.019 173.744c.254-.094.52-.048.755.131.044.035.097.013.126-.05.025-.074.011-.166-.032-.213-.28-.214-.597-.271-.9-.162-.12 0-.069.334.05.294zM234.995 178.858h.823c.052 0 .094-.068.094-.152 0-.084-.042-.152-.094-.152h-.823c-.053 0-.095.068-.095.152 0 .084.042.152.095.152zM232.939 180.793c.284.183.59.225.885.122.044-.02.072-.101.061-.182-.013-.083-.06-.132-.106-.112-.266.092-.541.05-.795-.121-.022-.013-.045-.01-.065.01-.02.019-.035.052-.042.09-.01.084.017.169.062.193zM233.016 182.797l1.742.222c.039.003.076-.012.103-.04.028-.03.041-.07.039-.112 0-.083-.064-.151-.142-.151l-1.742-.223c-.075 0-.141.08-.141.152 0 .084.063.152.141.152zM233.028 184.933h1.719c.084 0 .153-.068.153-.152 0-.084-.069-.152-.153-.152h-1.719c-.084 0-.153.068-.153.152 0 .084.069.152.153.152zM233.98 174.65l1.773.303c.032.013.067.009.097-.01.029-.02.05-.052.058-.09.018-.081-.02-.165-.086-.193l-1.773-.304c-.07-.02-.138.03-.155.111-.011.038-.008.08.009.114.016.034.044.06.077.069zM36.514 192.593l1.733 1.77c.118.114.309-.058.19-.173l-1.76-1.777c-.117-.115-.308.057-.19.18h.027zM33.487 196.592l2.75.836c.166.049.304-.109.138-.157l-2.75-.837c-.166-.048-.303.11-.138.158zM31.493 199.668c.97.079 1.914.349 2.776.794.118.062.222-.116.104-.178-.898-.459-1.879-.738-2.887-.821-.131 0-.131.198 0 .205h.007zM29.47 206.97l2.824.476c.145 0 .137-.273 0-.304l-2.823-.476c-.145 0-.145.284 0 .304zM28.463 210.023l3.818.445c.159 0 .159-.283 0-.303l-3.818-.446c-.15 0-.15.284 0 .304zM28.413 215.966c1.199.882 2.695.92 3.924.101.06-.042.08-.135.046-.208-.034-.072-.111-.097-.171-.055-1.15.769-2.554.73-3.674-.102-.06-.041-.137-.017-.171.056-.035.073-.014.166.046.208zM27.456 219.358h3.813c.066 0 .119-.068.119-.152 0-.084-.053-.152-.119-.152h-3.813c-.066 0-.119.068-.119.152 0 .084.053.152.119.152zM31.65 228.404c0-.096-.081-.21-.177-.162-.064.038-.098.13-.081.219 0 .103.033.201.092.27.059.07.138.103.217.092.588-.082 1.155-.336 1.656-.744.053-.039.071-.126.04-.195-.03-.068-.097-.092-.15-.052-.35.282-.733.489-1.134.61l-.287.076h-.154s0-.067-.037-.114c-.037-.048 0 0 0 0h-.184c.044.171.257.104.213-.077l-.014.077zM70.927 243.223l2.809 1.784c.054.035.126.017.16-.04.033-.056.016-.13-.039-.165l-2.816-1.784c-.122-.08-.236.126-.114.205zM72.938 240.199l2.796 2.769c.113.11.279-.092.166-.203l-2.804-2.77c-.106-.11-.271.084-.158.194v.01zM76.007 236.137c.748 1.09 1.685 2.035 2.767 2.788.147.103.285-.14.138-.241-1.064-.727-1.983-1.647-2.71-2.714-.093-.14-.342 0-.24.149l.045.018zM269.367 147.949c-.145 1.977.089 3.962.692 5.863.056.156.327.087.27-.07-.594-1.878-.825-3.84-.682-5.793 0-.165-.262-.165-.28 0zM271.352 147.963c.244 1.406.863 2.734 1.8 3.866.087.11.294 0 .198-.11-.918-1.12-1.525-2.429-1.767-3.814 0-.14-.255-.081-.231.058zM266.326 148.943c-.146 1.36.13 2.733.784 3.892.073.126.245 0 .172-.111-.637-1.125-.905-2.46-.757-3.78 0-.142-.186-.142-.2 0zM262.238 148.956c.046 1.379.341 2.716.857 3.879.055.126.198 0 .143-.119-.502-1.126-.79-2.423-.836-3.76 0-.065-.037-.118-.082-.118-.046 0-.082.053-.082.118zM282.522 210.8l1.785 1.789c.106.11.278-.055.172-.164l-1.777-1.788c-.047-.048-.126-.05-.176-.004-.05.045-.052.12-.004.168zM285.527 208.7c-.047 1.143.63 2.228 1.8 2.89.158.092.315-.125.158-.216-1.076-.616-1.693-1.62-1.644-2.674 0-.07-.07-.125-.157-.125-.086 0-.157.056-.157.125zM288.584 206.759l1.737 2.762c.027.042.075.068.126.066.052-.001.099-.029.123-.073.025-.044.023-.098-.004-.14l-1.737-2.763c-.094-.147-.34 0-.245.138v.01zM291.618 204.713l1.748 2.79c.086.142.333 0 .238-.124l-1.74-2.799c-.085-.133-.332 0-.246.133zM277.425 210.753c.265 1.102.893 2.1 1.795 2.85.126.11.314-.067.189-.176-.861-.725-1.457-1.683-1.706-2.742 0-.151-.296-.084-.26.068h-.018zM274.389 211.718c-.024.998.243 1.985.778 2.88.068.126.288 0 .22-.106-.514-.861-.77-1.813-.744-2.774 0-.058-.057-.105-.127-.105s-.127.047-.127.105z" transform="translate(-558 -1228) translate(121 1228) translate(437) translate(8.1 15.188)"/>
                    </g>
                </g>
            </g>
        </g>
    </g>
</svg>
