<svg xmlns="http://www.w3.org/2000/svg" xmlns:xlink="http://www.w3.org/1999/xlink" width="433" height="738" viewBox="0 0 433 738">
    <defs>
        <path id="ogtr031eac" d="M253.27 0h-34.474c-2.99 0-4.924 2.217-5.628 6.207-2.374 14.189-10.113 15.164-12.4 15.164H76.158c-2.287 0-10.114-1.064-12.4-15.164C63.141 2.217 61.207 0 58.129 0H23.656C11.168 0 0 13.302 0 25.982v549.445c0 15.696 15.83 24.21 23.392 24.21h230.14c7.564 0 23.394-8.514 23.394-24.21V25.982C277.013 13.302 265.756 0 253.269 0z"/>
        <path id="pi8iqzxwae" d="M0.136 0H278.13500000000005V601H0.136z"/>
        <path id="xu861qnkyh" d="M-100.053 451.255c35.976-21.097 76.165-42.645 108.656-69.217 60.952-49.847 58.892-64.904 143.418-92.367 27.51-8.938 21.237 14.422 41.326 8.433 14.472-4.315 55.337-29.133 59.603-28.684 7.522.791 21.112 9.509 25.374 11.236 7.575 3.068 15.324 5.987 23.657 7.907 9.442 2.175 20.046 2.13 29.472 4.334 86.571 20.249 9.563 8.862 64.381 13.881 2.705.248 9.702 6.57 12.636 7.597 57.45 20.1-2.35-.596 36.48 9.14 1.751.439 3.245 1.36 4.375 2.497 14.117 14.202 28.592 29.91 35.937 48.634 8.74 22.276-5.05-.816 10.491 27.04 7.218 12.936 15.81 25.088 22.736 38.188 14.084 26.637-6.843 55.715-35.193 78.389-5.374 4.298-11.105 8.244-16.899 12.06-23.493 15.476-46.69 31.443-70.934 45.796-31.035 18.373-62.571 36.03-94.727 52.277-58.716 29.664-115.358 46.052-176.74 64.445-41.05 12.3-82.979 23.017-123.186 22.882-43.924-.15-56.917-19.814-86.014-44.797-4.54-3.898-8.146-7.691-10.554-12.84-7.105-15.19-.69-7.42-10.17-32.94-15.128-40.73-14.894-27.416-22.353-57.97-.463-1.896-.618-3.913-.602-5.951.07-9.252.887-18.66.862-27.89-.01-4.133-2.335-21.359-.049-29.883 2.772-10.335 12.386-19.417 18.304-29.215l9.713-22.982z"/>
        <path id="edijxw6c3j" d="M-71.664 156.952c38.959-22.847 82.48-46.182 117.666-74.957 66.005-53.98 63.774-70.286 155.31-100.026 29.79-9.679 22.997 15.618 44.751 9.132 15.673-4.673 59.927-31.548 64.546-31.062 8.146.857 22.863 10.297 27.478 12.167 8.204 3.323 16.595 6.484 25.618 8.563 10.226 2.356 21.709 2.306 31.916 4.694 93.75 21.927 10.357 9.596 69.72 15.032 2.93.268 10.506 7.115 13.683 8.226 62.214 21.768-2.545-.645 39.506 9.898 1.896.476 3.514 1.474 4.737 2.705 15.288 15.38 30.963 32.39 38.917 52.666 9.464 24.123-5.469-.884 11.361 29.281 7.817 14.01 17.121 27.17 24.622 41.355 15.25 28.846-7.411 60.336-38.112 84.89-5.82 4.654-12.026 8.927-18.3 13.06-25.44 16.759-50.56 34.05-76.816 49.593-33.609 19.896-67.76 39.018-102.582 56.611-63.584 32.124-124.923 49.871-191.395 69.79-44.453 13.32-89.859 24.925-133.4 24.779-47.566-.164-61.637-21.457-93.146-48.512-4.917-4.221-8.821-8.329-11.43-13.905-7.693-16.448-.746-8.035-11.012-35.672-16.382-44.106-16.13-29.689-24.208-62.777-.5-2.052-.669-4.236-.651-6.443.077-10.02.96-20.207.934-30.204-.012-4.475-2.529-23.129-.053-32.36 3.002-11.192 13.413-21.027 19.82-31.638l10.52-24.886z"/>
        <path id="d3qb53s1ll" d="M519.908 266.374c-36.116 29.86-77.397 61.028-106.528 96.132-54.649 65.853-45.04 81.748-140.144 127.974-30.952 15.045-33.78-11.464-56.633-1.06-16.463 7.497-57.09 42.337-62.74 42.684-9.965.611-31.345-6.171-37.583-7.208-11.088-1.843-22.327-3.489-33.848-3.94-13.055-.512-26.562 1.608-39.61 1.062-119.836-5.016-16.31-7.724-88.574-2.456-3.566.26-15.424-5.217-19.642-5.756-82.615-10.54 3.275.187-50.78-2.77-2.438-.134-4.771-.84-6.74-1.85-24.595-12.616-50.346-26.792-68.399-45.624-21.478-22.405 6.822-.102-25.922-27.218-15.207-12.594-31.803-24.07-46.714-36.896-30.318-26.082-17.103-61.641 8.553-91.717 4.863-5.702 10.345-11.092 15.966-16.354 22.797-21.336 44.988-43.147 69.264-63.416 31.075-25.945 63.121-51.213 96.613-75.076 61.154-43.57 125.82-72.366 195.602-104.258C168.716 27.299 217.24 7.514 268.6-.187c56.107-8.413 81.801 10.333 130.507 31.694 7.6 3.333 13.959 6.734 19.42 11.838 16.106 15.052 4.32 7.896 28.246 33.668 38.186 41.13 31.715 26.766 55.4 58.381 1.469 1.962 2.602 4.115 3.527 6.324 4.199 10.028 7.519 20.37 11.831 30.356 1.93 4.47 12.882 22.662 13.918 32.334 1.256 11.728-6.798 23.435-9.804 35.196l-1.737 26.77z"/>
        <path id="j2le2htttn" d="M190.242 935.547c-36.741-20.6-75.406-45.69-117.44-56.557-78.856-20.385-95.905-2.465-156.197-73.618-19.622-23.157 9.96-39.822-3.736-57.286-9.867-12.58-52.606-35.102-53.488-40.58-1.556-9.663 4.216-34.62 4.84-41.41 1.108-12.069 1.982-24.187 1.488-35.964-.56-13.345-4.122-25.77-4.643-39.126-4.785-122.665 7.273-20.369-4.944-90.011-.603-3.437 4.528-18.174 4.767-22.681 4.671-88.26.075 3.378-1.301-52.316-.062-2.511.529-5.217 1.494-7.716 12.055-31.222 25.766-64.415 45.385-92.325 23.342-33.207.71 6.78 28.371-40.17 12.848-21.805 24.316-44.419 37.451-66.048C-1 175.76 40.161 170.443 76.236 180.451c6.839 1.897 13.381 4.576 19.79 7.462 25.993 11.705 52.467 22.553 77.386 36.297 31.899 17.593 63.12 36.511 92.885 57.611 54.35 38.528 92.379 88.283 134.337 141.549 28.06 35.621 54.545 73.908 67.68 121.34 14.35 51.816-4.508 87.337-24.305 147.275-3.09 9.352-6.363 17.497-11.63 25.63-15.537 23.989-8.51 8.447-35.427 45.864-42.959 59.714-27.358 45.737-60.871 85.959-2.08 2.496-4.403 4.753-6.809 6.833-10.918 9.438-22.266 18.161-33.128 27.691-4.862 4.267-24.378 24.73-35.172 30.814-13.087 7.377-26.961 5.418-40.456 8.542l-30.274 12.229z"/>
        <path id="49qk4spfpp" d="M285.837 563.99c-18.708 15.468-40.092 31.614-55.182 49.797-28.308 34.112-23.33 42.346-72.595 66.292-16.034 7.793-17.499-5.939-29.336-.55-8.528 3.884-29.574 21.931-32.5 22.11-5.162.318-16.237-3.196-19.468-3.733-5.744-.954-11.566-1.807-17.534-2.04-6.762-.266-13.759.832-20.518.55-62.076-2.599-8.448-4.002-45.882-1.273-1.847.135-7.99-2.702-10.175-2.981-42.794-5.46 1.697.096-26.304-1.436-1.263-.069-2.471-.434-3.491-.957-12.74-6.536-26.08-13.88-35.43-23.634-11.127-11.606 3.533-.053-13.429-14.1-7.877-6.523-16.474-12.467-24.198-19.112-15.705-13.51-8.86-31.93 4.43-47.51 2.52-2.953 5.36-5.745 8.271-8.47 11.81-11.053 23.304-22.351 35.879-32.85 16.097-13.44 32.697-26.53 50.046-38.89 31.678-22.57 65.175-37.487 101.323-54.007 24.174-11.047 49.31-21.296 75.914-25.286 29.064-4.358 42.374 5.353 67.604 16.418 3.937 1.726 7.23 3.488 10.059 6.132 8.343 7.798 2.238 4.09 14.632 17.44 19.78 21.306 16.428 13.866 28.697 30.242.761 1.016 1.348 2.131 1.827 3.276 2.175 5.194 3.895 10.552 6.129 15.725 1 2.315 6.673 11.739 7.21 16.749.65 6.075-3.522 12.14-5.08 18.231l-.899 13.868z"/>
        <path id="gpnxoshh0r" d="M-135.878-209.928c37.705-.289 78.912.969 116.368-5.173 70.267-11.523 75.472-24.231 154.053-7.615 25.575 5.408 10.09 20.856 28.523 25.226 13.279 3.147 56.495 2.152 59.63 4.426 5.528 4.01 12.217 16.956 14.77 20.228 4.54 5.815 9.282 11.592 14.933 16.85 6.405 5.958 14.724 10.702 21.102 16.676 58.581 54.864 3.472 11.243 44.099 39.88 2.004 1.413 4.617 9.514 6.449 11.64 35.858 41.621-1.57-1.527 24.41 23.594 1.172 1.133 1.924 2.527 2.293 3.926 4.618 17.474 8.834 36.288 6.105 54.247-3.246 21.367-3.583-2.915-4.032 25.883-.208 13.375 1.014 26.755.504 40.125-1.039 27.188-30.58 40.504-63.032 45.463-6.151.94-12.423 1.444-18.684 1.818-25.392 1.517-50.774 3.553-76.245 3.853-32.606.385-65.279-.017-97.799-1.801-59.38-3.26-111.126-15.971-167.49-29.25-37.692-8.88-75.356-19.397-106.76-37.628-34.306-19.916-35.572-41.156-47.031-73.817-1.788-5.097-2.892-9.69-2.446-14.804 1.317-15.085 2.82-6.115 6.955-30.354 6.601-38.683.756-28.162 8.752-55.429.496-1.692 1.288-3.34 2.223-4.927 4.244-7.206 9.143-14.198 13.302-21.43 1.862-3.238 7.842-17.762 13.49-23.4 6.85-6.837 18.485-9.609 27.551-14.606l18.007-13.601z"/>
        <filter id="z64icoi01a" width="156.4%" height="127%" x="-25.8%" y="-10.3%" filterUnits="objectBoundingBox">
            <feOffset dx="7" dy="20" in="SourceAlpha" result="shadowOffsetOuter1"/>
            <feGaussianBlur in="shadowOffsetOuter1" result="shadowBlurOuter1" stdDeviation="24.5"/>
            <feColorMatrix in="shadowBlurOuter1" values="0 0 0 0 0 0 0 0 0 0 0 0 0 0 0 0 0 0 0.4 0"/>
        </filter>
        <filter id="wssmdxwnsg" width="136.2%" height="152.8%" x="-18.1%" y="-26.2%" filterUnits="objectBoundingBox">
            <feMorphology in="SourceAlpha" operator="dilate" radius=".37" result="shadowSpreadOuter1"/>
            <feOffset dy="1" in="shadowSpreadOuter1" result="shadowOffsetOuter1"/>
            <feGaussianBlur in="shadowOffsetOuter1" result="shadowBlurOuter1" stdDeviation="39"/>
            <feComposite in="shadowBlurOuter1" in2="SourceAlpha" operator="out" result="shadowBlurOuter1"/>
            <feColorMatrix in="shadowBlurOuter1" values="0 0 0 0 0.231229761 0 0 0 0 0.286480205 0 0 0 0 0.73216712 0 0 0 0.374508304 0"/>
        </filter>
        <filter id="sef1nrkpfi" width="133.4%" height="148.8%" x="-16.7%" y="-24.2%" filterUnits="objectBoundingBox">
            <feMorphology in="SourceAlpha" operator="dilate" radius=".37" result="shadowSpreadOuter1"/>
            <feOffset dy="1" in="shadowSpreadOuter1" result="shadowOffsetOuter1"/>
            <feGaussianBlur in="shadowOffsetOuter1" result="shadowBlurOuter1" stdDeviation="39"/>
            <feComposite in="shadowBlurOuter1" in2="SourceAlpha" operator="out" result="shadowBlurOuter1"/>
            <feColorMatrix in="shadowBlurOuter1" values="0 0 0 0 0.231229761 0 0 0 0 0.286480205 0 0 0 0 0.73216712 0 0 0 0.374508304 0"/>
        </filter>
        <filter id="rlmdw0gykk" width="181.6%" height="224.1%" x="-40.8%" y="-60.9%" filterUnits="objectBoundingBox">
            <feOffset dy="6" in="SourceAlpha" result="shadowOffsetOuter1"/>
            <feGaussianBlur in="shadowOffsetOuter1" result="shadowBlurOuter1" stdDeviation="109.5"/>
            <feColorMatrix in="shadowBlurOuter1" values="0 0 0 0 0.2419233 0 0 0 0 0.289452948 0 0 0 0 0.659505208 0 0 0 0.670836976 0"/>
        </filter>
        <filter id="lyqxv33amm" width="138.2%" height="131%" x="-19.1%" y="-15.4%" filterUnits="objectBoundingBox">
            <feMorphology in="SourceAlpha" operator="dilate" radius=".37" result="shadowSpreadOuter1"/>
            <feOffset dy="1" in="shadowSpreadOuter1" result="shadowOffsetOuter1"/>
            <feGaussianBlur in="shadowOffsetOuter1" result="shadowBlurOuter1" stdDeviation="39"/>
            <feComposite in="shadowBlurOuter1" in2="SourceAlpha" operator="out" result="shadowBlurOuter1"/>
            <feColorMatrix in="shadowBlurOuter1" values="0 0 0 0 0.231229761 0 0 0 0 0.286480205 0 0 0 0 0.73216712 0 0 0 0.374508304 0"/>
        </filter>
        <filter id="kw6u7jb0lo" width="257.4%" height="339.5%" x="-78.7%" y="-117.6%" filterUnits="objectBoundingBox">
            <feOffset dy="6" in="SourceAlpha" result="shadowOffsetOuter1"/>
            <feGaussianBlur in="shadowOffsetOuter1" result="shadowBlurOuter1" stdDeviation="109.5"/>
            <feColorMatrix in="shadowBlurOuter1" values="0 0 0 0 0.2419233 0 0 0 0 0.289452948 0 0 0 0 0.659505208 0 0 0 0.670836976 0"/>
        </filter>
        <filter id="hxpg1fcdjq" width="140.4%" height="168.9%" x="-20.2%" y="-34.2%" filterUnits="objectBoundingBox">
            <feMorphology in="SourceAlpha" operator="dilate" radius=".37" result="shadowSpreadOuter1"/>
            <feOffset dy="1" in="shadowSpreadOuter1" result="shadowOffsetOuter1"/>
            <feGaussianBlur in="shadowOffsetOuter1" result="shadowBlurOuter1" stdDeviation="39"/>
            <feComposite in="shadowBlurOuter1" in2="SourceAlpha" operator="out" result="shadowBlurOuter1"/>
            <feColorMatrix in="shadowBlurOuter1" values="0 0 0 0 0.231229761 0 0 0 0 0.286480205 0 0 0 0 0.73216712 0 0 0 0.374508304 0"/>
        </filter>
        <rect id="1f3a4h2wnb" width="296.041" height="618.13" x="0" y="0" rx="35.809"/>
    </defs>
    <g fill="none" fill-rule="evenodd">
        <g>
            <g>
                <g>
                    <g>
                        <g transform="translate(-134 -1952) translate(-506.955 1798) translate(586.955 146.969) rotate(3 -671.335 2547.93)">
                            <use fill="#000" filter="url(#z64icoi01a)" xlink:href="#1f3a4h2wnb"/>
                            <use fill="#051126" xlink:href="#1f3a4h2wnb"/>
                        </g>
                        <g>
                            <g transform="translate(-134 -1952) translate(-506.955 1798) translate(586.955 146.969) rotate(3 -671.335 2547.93) translate(10 11)">
                                <mask id="psb4qyp9hd" fill="#fff">
                                    <use xlink:href="#ogtr031eac"/>
                                </mask>
                                <use fill="#7685FD" fill-rule="nonzero" xlink:href="#ogtr031eac"/>
                                <g mask="url(#psb4qyp9hd)">
                                    <g>
                                        <path fill="#7786FF" d="M0 0H278V601H0z"/>
                                        <g>
                                            <mask id="p00uximokf" fill="#fff">
                                                <use xlink:href="#pi8iqzxwae"/>
                                            </mask>
                                            <g mask="url(#p00uximokf)">
                                                <use fill="#000" filter="url(#wssmdxwnsg)" xlink:href="#xu861qnkyh"/>
                                                <use fill="#7786FF" stroke="#7786FF" stroke-width=".74" xlink:href="#xu861qnkyh"/>
                                            </g>
                                            <g mask="url(#p00uximokf)" transform="rotate(16 249.976 201.69)">
                                                <use fill="#000" filter="url(#sef1nrkpfi)" xlink:href="#edijxw6c3j"/>
                                                <use fill="#7786FF" stroke="#7786FF" stroke-width=".74" xlink:href="#edijxw6c3j"/>
                                            </g>
                                            <g mask="url(#p00uximokf)" opacity=".919" transform="rotate(43 125.072 264.95)">
                                                <use fill="#000" filter="url(#rlmdw0gykk)" xlink:href="#d3qb53s1ll"/>
                                                <use fill="#7786FF" xlink:href="#d3qb53s1ll"/>
                                            </g>
                                            <g mask="url(#p00uximokf)" opacity=".7" transform="rotate(-92 164.714 555.851)">
                                                <use fill="#000" filter="url(#lyqxv33amm)" xlink:href="#j2le2htttn"/>
                                                <use fill="#7786FF" stroke="#7786FF" stroke-width=".74" xlink:href="#j2le2htttn"/>
                                            </g>
                                            <g mask="url(#p00uximokf)" opacity=".7" transform="matrix(-1 0 0 1 162.624 0)">
                                                <use fill="#000" filter="url(#kw6u7jb0lo)" xlink:href="#49qk4spfpp"/>
                                                <use fill="#7786FF" xlink:href="#49qk4spfpp"/>
                                            </g>
                                            <g mask="url(#p00uximokf)" opacity=".7" transform="rotate(-26 65.731 -59.721)">
                                                <use fill="#000" filter="url(#hxpg1fcdjq)" xlink:href="#gpnxoshh0r"/>
                                                <use fill="#7786FF" stroke="#7786FF" stroke-width=".74" xlink:href="#gpnxoshh0r"/>
                                            </g>
                                        </g>
                                        <g>
                                            <g fill="#FFF">
                                                <path d="M6.416 90.964c3.248 0 5.193 2.392 5.628 4.068h-2.38c-.351-.716-1.179-2.126-3.228-2.126-2.772 0-3.765 2.29-3.765 4.006 0 1.962 1.262 4.027 3.724 4.027 1.614 0 2.71-.92 3.248-2.085h2.4c-.868 2.514-3.103 4.026-5.648 4.026-3.766 0-5.876-3.045-5.876-5.968 0-3.066 2.276-5.948 5.897-5.948zm12.849 0c3.476 0 6.186 2.698 6.186 5.928 0 2.759-2.297 5.989-6.186 5.989-3.849 0-6.187-3.169-6.187-6.03 0-3.087 2.628-5.887 6.187-5.887zm52.905 0c3.476 0 6.186 2.698 6.186 5.928 0 2.759-2.297 5.989-6.186 5.989-3.849 0-6.187-3.169-6.187-6.03 0-3.087 2.628-5.887 6.187-5.887zm-32.277 0c1.924 0 3.29.777 4.035 2.044.414.736.641 1.656.641 2.76v6.826h-2.152V96.3c0-.96-.124-3.393-2.71-3.393-2.752 0-2.71 2.432-2.731 3.373v6.315h-2.152V96.3c.02-.94-.021-1.574-.476-2.33-.538-.818-1.345-1.063-2.131-1.063-2.756 0-2.833 2.396-2.835 3.299v6.39H27.23V91.27h1.986v1.226h.042c.414-.47 1.158-1.533 3.29-1.533 1.386 0 2.98.654 3.558 1.901.373-.572 1.221-1.9 3.787-1.9zm19.676 0c1.925 0 3.29.777 4.035 2.044.414.736.642 1.656.642 2.76v6.826h-2.152V96.3c0-.96-.124-3.393-2.71-3.393-2.753 0-2.711 2.432-2.732 3.373v6.315H54.5V96.3c.02-.94-.02-1.574-.476-2.33-.538-.818-1.345-1.063-2.131-1.063-2.677 0-2.826 2.26-2.834 3.218v6.47h-2.153V91.271h1.987v1.226h.041c.414-.47 1.159-1.533 3.29-1.533 1.386 0 2.98.654 3.559 1.901.372-.572 1.22-1.9 3.786-1.9zm25.946 0c1.78 0 3.228.756 4.055 2.024.455.736.704 1.635.724 2.902v6.704h-2.151l-.001-6.314c-.008-1.004-.158-3.374-2.855-3.374-1.8 0-3.02 1.247-3.02 3.516v6.172h-2.153V91.271h2.007v1.206h.042c1.066-1.392 2.622-1.503 3.219-1.512h.133zm-66.25 1.942c-2.421 0-4.035 1.982-4.035 4.006 0 2.044 1.634 4.027 4.035 4.027 2.317 0 4.034-1.901 4.034-4.047 0-2.004-1.614-3.986-4.034-3.986zm52.905 0c-2.421 0-4.035 1.982-4.035 4.006 0 2.044 1.634 4.027 4.035 4.027 2.317 0 4.035-1.901 4.035-4.047 0-2.004-1.615-3.986-4.035-3.986zM33.02 73.781c.45-.78 1.447-1.048 2.227-.596.778.45 1.044 1.45.594 2.233-.301.523-.85.817-1.41.817-.279 0-.558-.071-.815-.22-.778-.451-1.045-1.451-.596-2.234zm16.6-1.9c.891-.117 1.71.514 1.826 1.41.117.895-.511 1.716-1.404 1.833-.071.01-.142.013-.213.013-.805 0-1.506-.6-1.613-1.423-.117-.894.511-1.715 1.404-1.833zm-11.128-.434c.232-.874 1.125-1.39 1.995-1.158.868.232 1.385 1.127 1.153 2-.193.73-.852 1.214-1.573 1.214-.138 0-.28-.018-.42-.056-.87-.233-1.387-1.127-1.155-2zm17.618-1.842c.831-.346 1.784.048 2.129.883.345.832-.048 1.79-.88 2.136-.205.085-.416.125-.625.125-.638 0-1.243-.379-1.504-1.008-.345-.834.05-1.79.88-2.136zm8.088-1.007c.9 0 1.63.73 1.63 1.635.001.902-.729 1.635-1.628 1.635-.9 0-1.629-.731-1.63-1.633 0-.904.728-1.637 1.628-1.637zm-34.57.639c.548-.716 1.57-.85 2.284-.302.713.55.847 1.577.3 2.292-.32.42-.804.64-1.294.64-.345 0-.694-.11-.99-.338-.714-.55-.848-1.575-.3-2.292zm18.574-3.077c.899 0 1.63.73 1.63 1.634 0 .903-.73 1.635-1.628 1.635-.9 0-1.629-.73-1.63-1.633 0-.903.727-1.636 1.628-1.636zm-13.378.895c.343-.835 1.296-1.231 2.127-.887.832.346 1.227 1.302.882 2.137-.259.629-.866 1.01-1.504 1.01-.21 0-.42-.04-.623-.126-.832-.344-1.227-1.302-.882-2.134zm9.65-1.138l.148.012c.892.117 1.522.937 1.405 1.833-.105.823-.807 1.423-1.613 1.423-.07 0-.14-.004-.211-.014-.893-.115-1.522-.934-1.407-1.83.117-.896.933-1.527 1.826-1.412zm7.308.008c.89-.117 1.71.514 1.826 1.41.117.894-.512 1.715-1.405 1.833-.07.01-.142.013-.212.013-.805 0-1.506-.6-1.614-1.423-.117-.894.512-1.716 1.405-1.833zm-12.67.468c.231-.874 1.124-1.39 1.994-1.158.868.232 1.386 1.127 1.154 2-.194.73-.853 1.214-1.574 1.214-.137 0-.28-.018-.42-.056-.87-.233-1.387-1.127-1.155-2zm16.184-1.168c.87-.233 1.763.285 1.995 1.158.234.871-.282 1.767-1.152 2.002-.141.036-.281.056-.421.056-.72 0-1.378-.483-1.574-1.214-.231-.87.284-1.767 1.152-2.002zm3.394-1.156c.832-.346 1.784.048 2.129.883.345.833-.048 1.79-.88 2.137-.205.084-.415.125-.624.125-.638 0-1.244-.38-1.504-1.008-.345-.835.05-1.79.879-2.137zm-35.974.093c.713-.553 1.736-.418 2.284.297.55.716.416 1.741-.297 2.293-.295.229-.646.338-.992.338-.487 0-.97-.219-1.292-.636-.548-.718-.416-1.742.297-2.292zm48.159-.854c.713-.55 1.736-.415 2.284.3.548.716.414 1.743-.299 2.293-.295.229-.644.338-.99.338-.49 0-.974-.22-1.294-.639-.548-.715-.414-1.742.299-2.292zm-21.768-.977c.898-.035 1.655.669 1.69 1.57.034.903-.667 1.663-1.566 1.697-.021.002-.042.002-.063.002-.87 0-1.593-.692-1.627-1.573-.035-.902.667-1.662 1.566-1.696zm-16.84.754c.45-.781 1.446-1.049 2.226-.597.778.45 1.044 1.45.594 2.233-.3.523-.849.818-1.41.818-.278 0-.558-.071-.815-.22-.778-.452-1.044-1.452-.596-2.234zm29.635-.61c.778-.452 1.774-.185 2.225.596.45.78.185 1.78-.593 2.233-.258.15-.538.221-.816.221-.561 0-1.108-.292-1.41-.815-.45-.783-.186-1.783.594-2.235zm-16.552-.289l.14.01c.895.102 1.537.912 1.436 1.81-.094.834-.8 1.45-1.618 1.45-.06 0-.122-.004-.184-.012-.894-.102-1.536-.911-1.435-1.808.102-.896.909-1.542 1.802-1.44zm7.35-.269c.883-.17 1.736.408 1.908 1.294.17.887-.408 1.745-1.291 1.916-.104.021-.207.03-.31.03-.765 0-1.448-.543-1.599-1.324-.17-.887.408-1.745 1.292-1.916zm-12.76.74c.238-.87 1.133-1.382 2.002-1.146.868.239 1.38 1.139 1.142 2.008-.198.727-.855 1.206-1.57 1.206-.143 0-.287-.02-.43-.06-.869-.236-1.38-1.136-1.143-2.007zm16.243-1.701c.846-.306 1.779.136 2.083.986.305.848-.134 1.785-.98 2.09-.183.066-.369.099-.55.099-.67 0-1.296-.416-1.534-1.083-.304-.85.134-1.787.981-2.092zm-41.717-.363c.713-.552 1.736-.418 2.284.298.55.715.416 1.74-.297 2.292-.295.23-.646.339-.993.339-.486 0-.97-.22-1.291-.637-.548-.717-.416-1.742.297-2.292zm14.761.195c.548-.715 1.57-.85 2.284-.302.713.55.847 1.577.3 2.293-.321.419-.804.64-1.294.64-.345 0-.694-.111-.99-.338-.714-.55-.848-1.575-.3-2.293zm7.16.323c.367-.823 1.331-1.192 2.151-.823.82.37 1.188 1.337.82 2.16-.27.608-.864.968-1.487.968-.222 0-.448-.047-.665-.145-.82-.37-1.188-1.335-.82-2.16zm28.493-.638c.713-.55 1.736-.416 2.284.3.548.715.414 1.742-.299 2.292-.295.23-.644.339-.99.339-.49 0-.974-.22-1.294-.639-.548-.715-.414-1.742.299-2.292zm-5.402-1.002c.79-.433 1.778-.14 2.21.652.43.792.139 1.786-.65 2.217-.25.137-.516.2-.78.2-.577 0-1.135-.307-1.432-.852-.431-.792-.14-1.784.652-2.217zM47.31 58.469c.899.038 1.594.802 1.556 1.704-.038.877-.759 1.563-1.627 1.563-.023 0-.048 0-.07-.002-.9-.038-1.597-.802-1.559-1.703.04-.903.801-1.602 1.7-1.562zm3.543-.16c.891-.121 1.712.506 1.832 1.402.12.895-.506 1.718-1.397 1.837-.074.012-.147.015-.22.015-.803 0-1.502-.596-1.612-1.415-.12-.896.506-1.72 1.397-1.839zm-17.745.73c.489-.759 1.497-.976 2.252-.486.755.493.972 1.505.483 2.262-.312.483-.836.746-1.37.746-.303 0-.61-.084-.884-.263-.755-.49-.97-1.504-.48-2.26zm8.74.191c.2-.88 1.072-1.432 1.95-1.232.877.2 1.427 1.075 1.228 1.956-.17.757-.843 1.273-1.587 1.273-.12 0-.241-.014-.362-.04-.878-.2-1.428-1.076-1.228-1.957zm-15.34-1.115c.637-.639 1.668-.639 2.304-.002.636.639.636 1.673.002 2.314-.318.319-.736.479-1.154.479-.416 0-.831-.16-1.15-.48-.638-.636-.638-1.67-.001-2.311zm27.798-.596c.855-.28 1.775.19 2.053 1.05.278.858-.19 1.779-1.044 2.06-.17.054-.338.08-.505.08-.688 0-1.326-.44-1.55-1.13-.278-.858.19-1.781 1.046-2.06zm8.202-.023c.715-.548 1.736-.412 2.283.305.546.72.41 1.745-.307 2.293-.295.227-.642.335-.987.335-.49 0-.975-.222-1.295-.643-.547-.717-.41-1.742.306-2.29zm-24.22.267c.355-.83 1.31-1.215 2.139-.862.827.356 1.21 1.316.858 2.147-.264.62-.866.992-1.498.992-.215 0-.431-.042-.64-.13-.828-.357-1.212-1.316-.859-2.147zm-8.104-1.275c.598-.675 1.629-.735 2.3-.135.672.6.732 1.635.134 2.308-.322.364-.769.548-1.217.548-.385 0-.772-.136-1.083-.413-.672-.6-.732-1.635-.134-2.308zm27.376-.37c.792-.428 1.78-.13 2.208.664.427.795.132 1.785-.66 2.214-.247.135-.511.196-.772.196-.58 0-1.14-.31-1.435-.858-.427-.794-.132-1.786.66-2.215zm-22.51-.438c.494-.754 1.506-.961 2.257-.463.75.496.956 1.511.46 2.263-.313.477-.832.735-1.36.735-.307 0-.62-.087-.896-.271-.75-.496-.958-1.51-.462-2.264zm-10.89-.567c.712-.552 1.735-.418 2.283.298.55.716.416 1.74-.297 2.292-.295.23-.645.339-.992.339-.487 0-.97-.22-1.292-.637-.548-.717-.416-1.742.297-2.292zm24.898-.504c.899-.048 1.665.644 1.713 1.544.05.902-.64 1.673-1.539 1.721-.029.002-.06.002-.088.002-.86 0-1.58-.675-1.625-1.546-.048-.902.64-1.673 1.539-1.721zm-31.373.147c.778-.452 1.774-.187 2.226.594.45.78.186 1.78-.594 2.235-.256.15-.536.22-.814.22-.562 0-1.11-.291-1.41-.815-.453-.78-.186-1.78.592-2.234zm26.06 1.022c.146-.89.982-1.496 1.87-1.352.888.145 1.492.985 1.346 1.875-.128.802-.82 1.374-1.606 1.374-.086 0-.172-.006-.26-.022-.89-.144-1.493-.984-1.35-1.875zm8.71-1.725c.868-.242 1.765.268 2.007 1.137.24.871-.269 1.771-1.135 2.013-.145.04-.293.06-.437.06-.713 0-1.368-.475-1.567-1.198-.242-.87.266-1.771 1.132-2.012zm8.062.104c.702-.564 1.727-.45 2.288.256.562.706.447 1.734-.255 2.298-.3.24-.659.358-1.015.358-.48 0-.952-.212-1.274-.616-.562-.704-.447-1.732.256-2.296zm-20.336.263c.334-.838 1.28-1.248 2.116-.915.836.335 1.244 1.285.91 2.123-.253.643-.866 1.031-1.514 1.031-.199 0-.404-.036-.601-.115-.836-.335-1.244-1.285-.91-2.124zm-12.5-.898c.692-.575 1.72-.477 2.292.218.573.696.478 1.727-.216 2.302-.305.252-.67.375-1.037.375-.47 0-.935-.202-1.257-.593-.573-.696-.475-1.727.218-2.302zm27.97-.75c.796-.425 1.783-.121 2.204.675.422.799.121 1.787-.674 2.212-.243.129-.504.19-.763.19-.582 0-1.146-.313-1.439-.867-.422-.796-.12-1.787.673-2.21zm-23.42.279c.62-.652 1.652-.677 2.303-.052.65.623.675 1.658.052 2.31-.32.337-.748.506-1.179.506-.402 0-.808-.15-1.123-.452-.651-.623-.674-1.658-.053-2.312zm-10.01-1.223c.779-.452 1.775-.187 2.228.594.45.781.185 1.781-.594 2.235-.257.15-.537.221-.815.221-.562 0-1.11-.292-1.41-.815-.453-.781-.186-1.781.592-2.235zm14.772.494c.504-.748 1.517-.942 2.26-.436.746.507.94 1.525.436 2.271-.316.465-.828.717-1.351.717-.314 0-.633-.092-.912-.282-.746-.506-.94-1.524-.433-2.27zm21.508-1.494c.684-.585 1.713-.5 2.296.186.583.689.5 1.72-.186 2.304-.307.262-.68.391-1.054.391-.462 0-.92-.196-1.242-.575-.582-.689-.5-1.721.186-2.306zm-32.845-.618c.772-.463 1.772-.21 2.232.566.462.775.209 1.779-.563 2.242-.26.156-.548.231-.834.231-.554 0-1.094-.284-1.399-.796-.461-.777-.209-1.779.564-2.243zm4.265-.247c.727-.531 1.746-.372 2.277.36.529.728.37 1.751-.357 2.282-.29.212-.626.313-.96.313-.501 0-.998-.232-1.316-.67-.53-.73-.37-1.753.356-2.285zm4.404-.375c.652-.622 1.683-.595 2.302.06s.592 1.69-.06 2.31c-.316.3-.718.45-1.12.45-.432 0-.863-.17-1.183-.509-.62-.656-.592-1.69.061-2.311zm-19.289-.976c.87-.235 1.763.282 1.995 1.155.234.872-.282 1.768-1.15 2.003-.142.038-.283.055-.423.055-.719 0-1.378-.48-1.572-1.211-.233-.871.282-1.768 1.15-2.002zm5.693-.292c.83-.348 1.784.046 2.129.88s-.048 1.791-.878 2.137c-.205.087-.417.128-.624.128-.639 0-1.246-.381-1.507-1.008-.344-.835.048-1.79.88-2.137zm-11.378-.561c.89-.118 1.71.513 1.828 1.408.117.896-.512 1.717-1.403 1.834-.073.01-.144.014-.214.014-.805 0-1.506-.598-1.614-1.421-.117-.897.51-1.718 1.403-1.835zm14.808-1.131c.836-.339 1.784.065 2.122.902.337.838-.066 1.79-.9 2.129-.199.08-.406.119-.609.119-.644 0-1.255-.385-1.511-1.021-.338-.837.065-1.791.898-2.13zm4.04-.116c.81-.394 1.784-.054 2.175.76.393.813.053 1.79-.757 2.183-.228.111-.47.163-.707.163-.606 0-1.187-.34-1.468-.923-.391-.811-.054-1.79.757-2.183zm4.103-.167c.77-.467 1.77-.22 2.236.554.465.773.218 1.777-.552 2.244-.263.16-.554.237-.841.237-.55 0-1.089-.283-1.395-.79-.466-.774-.219-1.778.552-2.245zM19.709 44.64c.87-.235 1.763.283 1.994 1.156.234.871-.281 1.767-1.15 2.002-.141.038-.283.056-.423.056-.718 0-1.378-.481-1.571-1.212-.234-.871.282-1.767 1.15-2.002zm3.522-1.785c.875-.208 1.753.339 1.958 1.217.205.88-.339 1.76-1.215 1.966-.124.029-.249.042-.372.042-.74 0-1.41-.507-1.584-1.261-.205-.88.337-1.758 1.213-1.964zm3.892-.05c.868-.24 1.765.27 2.004 1.139.24.871-.268 1.77-1.136 2.011-.146.04-.291.06-.435.06-.713 0-1.368-.475-1.568-1.2-.241-.87.269-1.77 1.135-2.01zm3.901-.067c.853-.289 1.777.17 2.064 1.027.29.854-.168 1.783-1.021 2.071-.173.058-.349.087-.521.087-.679 0-1.313-.431-1.543-1.112-.288-.856.17-1.783 1.021-2.073zm-11.846-1.88c.89-.117 1.71.514 1.828 1.409.117.896-.512 1.717-1.403 1.834-.073.01-.144.014-.214.014-.805 0-1.507-.598-1.614-1.421-.117-.897.51-1.718 1.403-1.835zm3.71-1.874c.897-.07 1.68.604 1.75 1.504.068.9-.602 1.686-1.5 1.755-.043.003-.086.004-.126.004-.843 0-1.558-.651-1.623-1.51-.069-.9.602-1.684 1.499-1.753zm3.838-.02c.897-.08 1.688.583 1.769 1.481.08.9-.58 1.695-1.478 1.775-.048.006-.098.008-.147.008-.834 0-1.543-.64-1.62-1.488-.08-.9.581-1.695 1.476-1.776zm3.829-.022c.893-.099 1.698.551 1.793 1.448.098.898-.548 1.705-1.442 1.802-.06.007-.12.01-.179.01-.82 0-1.527-.622-1.617-1.459-.096-.898.55-1.704 1.445-1.801zm-16.433-.886c.899 0 1.629.731 1.63 1.633 0 .904-.727 1.637-1.626 1.637-.903 0-1.63-.73-1.63-1.633-.003-.902.726-1.635 1.626-1.637zm-8.788 0c.898 0 1.628.731 1.63 1.633 0 .904-.728 1.637-1.627 1.637-.902 0-1.63-.73-1.63-1.633-.002-.902.726-1.635 1.627-1.637zm13.805-1.015c.9 0 1.63.731 1.631 1.633 0 .904-.728 1.637-1.627 1.637-.902 0-1.63-.731-1.63-1.633-.002-.902.726-1.635 1.626-1.637zm11.618-1.919l.14.01c.896.096 1.544.9 1.448 1.798-.088.838-.796 1.461-1.618 1.461-.057 0-.115-.001-.174-.007-.895-.096-1.543-.902-1.447-1.8.096-.897.897-1.549 1.792-1.453zm-3.888-.014l.14.006c.897.08 1.56.873 1.482 1.772-.075.852-.786 1.492-1.621 1.492-.048 0-.096-.002-.144-.006-.897-.079-1.56-.871-1.481-1.771.078-.9.87-1.566 1.765-1.487zm-3.88-.008l.14.005c.897.067 1.572.852 1.505 1.752-.066.857-.778 1.513-1.624 1.513-.04 0-.082-.002-.122-.006-.897-.065-1.57-.85-1.505-1.75.068-.902.85-1.577 1.746-1.51zm-3.547-1.862l.148.012c.893.116 1.521.937 1.406 1.831-.105.826-.806 1.426-1.613 1.426-.07 0-.14-.004-.21-.014-.892-.115-1.522-.935-1.408-1.83.115-.895.934-1.528 1.825-1.413zm-10.3-.68c.87-.234 1.763.283 1.995 1.156.234.872-.282 1.768-1.15 2.002-.142.039-.284.056-.423.056-.719 0-1.378-.48-1.572-1.211-.233-.872.282-1.768 1.15-2.002zm20.848-.044c.287-.856 1.21-1.317 2.063-1.03.853.288 1.311 1.215 1.026 2.07-.228.683-.863 1.116-1.545 1.114-.17 0-.347-.027-.517-.085-.853-.286-1.313-1.213-1.027-2.069zm-4.017.008c.238-.87 1.134-1.383 2.003-1.145.866.239 1.377 1.139 1.14 2.01-.2.725-.855 1.202-1.572 1.202-.142 0-.287-.02-.43-.058-.867-.238-1.379-1.138-1.141-2.01zm-3.97.01c.202-.88 1.078-1.428 1.954-1.224.876.204 1.422 1.083 1.219 1.962-.175.756-.845 1.265-1.585 1.265-.123 0-.245-.013-.37-.042-.875-.204-1.422-1.08-1.219-1.962zm-7.824-.909c.232-.873 1.123-1.392 1.993-1.16.87.233 1.387 1.128 1.155 2.001-.193.73-.852 1.215-1.573 1.214-.138 0-.28-.018-.42-.054-.87-.233-1.385-1.127-1.155-2zm4.36-.911c.232-.873 1.124-1.393 1.994-1.16.87.233 1.387 1.127 1.155 2-.193.731-.853 1.216-1.573 1.214-.138 0-.28-.017-.42-.054-.87-.233-1.385-1.127-1.155-2zm13.193-1.981c.463-.773 1.464-1.023 2.234-.558.77.466 1.02 1.47.557 2.245-.306.51-.845.792-1.398.792-.286 0-.575-.077-.838-.235-.77-.465-1.02-1.469-.555-2.244zm-4.312-.092c.39-.814 1.362-1.156 2.175-.764.81.39 1.151 1.368.76 2.181-.28.585-.862.927-1.467.927-.238 0-.477-.052-.705-.162-.811-.392-1.152-1.369-.763-2.182zm-4.182-.05c.336-.837 1.284-1.245 2.12-.908.833.338 1.24 1.29.904 2.127-.256.639-.868 1.025-1.512 1.025-.203 0-.408-.037-.607-.117-.836-.337-1.24-1.289-.905-2.127zm-3.413-1.695c.344-.834 1.296-1.233 2.128-.886.831.344 1.228 1.3.883 2.134-.259.63-.866 1.01-1.506 1.01-.207 0-.418-.038-.621-.123-.832-.344-1.226-1.3-.884-2.135zm14.415-1.477c.617-.658 1.648-.686 2.301-.065.654.62.683 1.654.066 2.31-.32.34-.752.513-1.185.513-.4 0-.803-.148-1.119-.448-.653-.62-.682-1.654-.063-2.31zm-4.705-.336c.53-.73 1.549-.893 2.277-.362.726.53.89 1.552.36 2.283-.318.44-.814.675-1.318.675-.332 0-.667-.102-.956-.311-.729-.531-.89-1.554-.363-2.285zm-4.472-.194c.46-.777 1.46-1.033 2.232-.572.774.462 1.03 1.464.57 2.24-.305.514-.848.8-1.403.8-.282 0-.57-.074-.83-.23-.774-.46-1.027-1.463-.57-2.238zm33.224-.753c.581-.69 1.608-.775 2.297-.192.685.585.77 1.616.19 2.304-.323.383-.783.58-1.245.58-.371 0-.745-.128-1.052-.387-.686-.585-.772-1.616-.19-2.305zm-20.893-1.417c.744-.508 1.757-.315 2.263.43.508.747.315 1.764-.429 2.272-.28.193-.6.285-.914.285-.521 0-1.033-.25-1.35-.716-.505-.746-.313-1.763.43-2.271zm-24.776.729c.344-.835 1.296-1.233 2.128-.887.831.344 1.228 1.3.883 2.135-.259.628-.866 1.01-1.506 1.01-.207 0-.418-.039-.621-.124-.832-.344-1.226-1.3-.884-2.134zm7.03-.953c.448-.78 1.445-1.05 2.224-.598.778.452 1.047 1.45.597 2.233-.301.525-.85.817-1.413.817-.276 0-.556-.069-.812-.217-.78-.452-1.047-1.452-.596-2.235zm12.6-.534c.65-.625 1.681-.602 2.304.048.621.653.6 1.687-.05 2.312-.314.304-.72.456-1.126.456-.428 0-.857-.17-1.175-.504-.623-.652-.602-1.687.048-2.312zm22.698.331c.42-.798 1.406-1.102 2.202-.68.795.422 1.097 1.411.678 2.21-.294.553-.859.87-1.443.87-.257 0-.518-.061-.759-.19-.795-.421-1.1-1.412-.678-2.21zm-27.517-.783c.571-.698 1.598-.796 2.292-.223.696.573.794 1.604.222 2.303-.322.392-.787.594-1.258.594-.364 0-.73-.121-1.033-.373-.696-.574-.795-1.604-.223-2.3zm13.627-.748c.834-.334 1.782.071 2.118.91.333.839-.073 1.79-.907 2.125-.199.081-.404.118-.605.118-.646 0-1.257-.389-1.512-1.027-.335-.84.07-1.789.906-2.126zm19.167.048c.56-.705 1.585-.823 2.288-.261.705.562.822 1.59.26 2.296-.32.406-.794.618-1.274.618-.356 0-.714-.116-1.013-.356-.704-.562-.82-1.59-.261-2.297zm-8.938.41c.238-.871 1.135-1.383 2.003-1.142.868.238 1.378 1.138 1.138 2.01-.2.724-.854 1.2-1.57 1.2-.143 0-.288-.02-.432-.058-.868-.24-1.378-1.14-1.139-2.01zm-6.231-1.575c.887-.148 1.726.456 1.872 1.348.146.89-.456 1.73-1.343 1.877-.09.016-.179.021-.267.021-.784 0-1.473-.567-1.606-1.369-.145-.89.456-1.73 1.344-1.877zm3.998-.232l.14.001c.9.046 1.59.816 1.543 1.718-.046.873-.764 1.55-1.626 1.55-.027 0-.056 0-.085-.002-.899-.046-1.588-.816-1.542-1.718.046-.902.812-1.594 1.71-1.548zm-25.225.52c.548-.715 1.57-.852 2.284-.301.715.547.849 1.575.303 2.29-.322.421-.805.64-1.296.64-.345 0-.693-.11-.989-.336-.714-.55-.848-1.575-.302-2.293zm11.643-.56c.75-.497 1.76-.294 2.258.46.496.752.293 1.766-.458 2.266-.276.184-.589.273-.9.273-.526 0-1.044-.258-1.358-.73-.496-.755-.293-1.768.458-2.268zm-5.193-.84c.67-.602 1.7-.544 2.3.13.6.672.542 1.705-.129 2.307-.31.279-.697.415-1.084.415-.449 0-.894-.182-1.215-.544-.6-.673-.543-1.706.128-2.308zm26.581.404c.425-.796 1.413-1.094 2.206-.667.793.427 1.09 1.417.665 2.213-.293.55-.857.862-1.438.862-.258 0-.523-.061-.768-.194-.793-.427-1.09-1.418-.665-2.214zM39.1 17.4c.826-.355 1.784.027 2.14.858.355.829-.027 1.79-.854 2.147-.21.09-.428.132-.642.132-.63 0-1.233-.37-1.497-.988-.357-.831.027-1.79.853-2.149zm23.058.073c.545-.719 1.566-.86 2.283-.311.717.546.855 1.571.31 2.29-.32.422-.807.645-1.297.645-.343 0-.69-.108-.985-.333-.717-.548-.855-1.573-.31-2.29zm-8.945.225c.276-.86 1.194-1.33 2.05-1.053.857.277 1.327 1.198 1.05 2.057-.221.693-.861 1.133-1.55 1.133-.164 0-.333-.025-.5-.079-.856-.277-1.326-1.2-1.05-2.058zm-26.744-.796c.634-.638 1.668-.64 2.304-.002.636.637.638 1.674.004 2.312-.32.32-.736.48-1.154.48-.418 0-.834-.159-1.152-.478-.636-.637-.638-1.671-.002-2.312zm16.557-.788c.876-.2 1.75.35 1.95 1.229.202.88-.346 1.757-1.224 1.96-.122.026-.243.04-.364.04-.743 0-1.414-.512-1.586-1.27-.202-.88.346-1.757 1.224-1.96zm-9.484-.093c.754-.492 1.763-.277 2.254.48.49.755.278 1.769-.477 2.26-.274.18-.583.267-.888.267-.53 0-1.054-.262-1.366-.745-.49-.756-.276-1.77.477-2.262zm15.865 1.118c.117-.896.938-1.525 1.829-1.406.89.12 1.52.94 1.4 1.835-.109.823-.808 1.421-1.611 1.421-.073 0-.144-.006-.217-.015-.893-.118-1.52-.94-1.4-1.835zm-2.291-1.583c.898-.04 1.66.656 1.701 1.558.04.902-.655 1.667-1.552 1.708-.027.002-.052.002-.077.002-.866 0-1.586-.683-1.625-1.56-.042-.902.654-1.666 1.553-1.708zm11.66.021c.43-.794 1.418-1.088 2.21-.658.79.431 1.082 1.424.653 2.218-.295.544-.855.854-1.433.854-.26 0-.527-.064-.774-.198-.792-.431-1.085-1.421-.656-2.216zm-37.382-.721c.548-.716 1.57-.852 2.284-.302.715.548.849 1.575.302 2.29-.321.421-.804.64-1.295.64-.345 0-.694-.109-.989-.336-.715-.55-.849-1.575-.302-2.292zm8.086-.612c.713-.55 1.734-.417 2.284.299.55.713.416 1.74-.297 2.292-.295.229-.646.34-.993.34-.486 0-.97-.219-1.291-.638-.548-.716-.416-1.74.297-2.293zm7.67-.201c.821-.372 1.785-.006 2.155.817.37.823.005 1.792-.815 2.163-.218.099-.444.145-.669.145-.62 0-1.215-.358-1.487-.964-.37-.823-.003-1.79.817-2.161zm29.286.066c.547-.716 1.57-.852 2.283-.304.715.55.85 1.575.304 2.293-.321.419-.804.64-1.295.64-.345 0-.694-.11-.989-.337-.715-.548-.85-1.575-.303-2.292zm-11.293.116c.303-.852 1.236-1.294 2.083-.99.847.304 1.288 1.238.987 2.088-.24.67-.866 1.087-1.535 1.087-.182 0-.366-.03-.548-.096-.847-.304-1.288-1.239-.987-2.089zM41.022 12.64c.868-.24 1.765.27 2.002 1.141.24.87-.268 1.77-1.136 2.01-.144.04-.291.06-.433.06-.715 0-1.37-.476-1.57-1.2-.24-.87.269-1.772 1.137-2.01zm-24.423.102c.635-.638 1.667-.64 2.303-.002.637.637.639 1.673.004 2.312-.32.319-.736.48-1.153.48-.418 0-.834-.159-1.152-.478-.636-.637-.638-1.672-.002-2.312zm34.75.706c.168-.886 1.021-1.467 1.907-1.298.883.17 1.461 1.025 1.293 1.912-.15.782-.832 1.329-1.598 1.329-.102 0-.203-.01-.307-.03-.883-.168-1.464-1.026-1.295-1.913zm-6.288-1.596c.893-.104 1.702.538 1.805 1.435.104.896-.536 1.708-1.431 1.811-.063.008-.126.012-.188.012-.816 0-1.521-.614-1.617-1.446-.104-.899.536-1.708 1.431-1.812zm-12.252.15c.778-.454 1.774-.189 2.226.592.452.781.188 1.781-.59 2.235-.259.15-.54.221-.816.221-.562 0-1.11-.292-1.41-.813-.453-.781-.188-1.783.59-2.235zm28.447.552c.448-.783 1.445-1.052 2.223-.602.78.452 1.048 1.452.598 2.233-.301.525-.85.819-1.413.819-.276 0-.555-.071-.81-.22-.78-.45-1.048-1.45-.598-2.23zm-12.088-.865c.899.032 1.602.79 1.57 1.692-.033.883-.756 1.575-1.628 1.575h-.059c-.899-.033-1.602-.79-1.57-1.692.033-.902.788-1.608 1.687-1.575zm-12.766-1.476c.83-.346 1.784.048 2.129.881.346.833-.046 1.79-.878 2.139-.205.084-.416.125-.625.125-.638 0-1.244-.38-1.504-1.006-.347-.835.046-1.79.878-2.139zm21.349.85c.343-.834 1.296-1.232 2.127-.888.832.344 1.227 1.3.884 2.135-.26.63-.867 1.011-1.507 1.011-.207 0-.417-.04-.62-.123-.832-.344-1.227-1.3-.884-2.135zM25.386 9.371c.713-.55 1.734-.417 2.284.298.55.714.416 1.74-.297 2.292-.295.23-.646.34-.992.34-.487 0-.97-.218-1.292-.637-.548-.716-.416-1.741.297-2.293zM40.2 8.913c.868-.234 1.76.283 1.994 1.154.234.873-.28 1.77-1.15 2.004-.141.039-.283.056-.423.056-.718 0-1.376-.48-1.571-1.21-.234-.87.28-1.769 1.15-2.004zm13.88 1.135c.231-.873 1.122-1.392 1.992-1.162.87.233 1.388 1.127 1.158 2-.194.731-.853 1.216-1.574 1.216-.14 0-.28-.017-.42-.056-.87-.23-1.387-1.125-1.157-1.998zm-9.946-1.923c.89-.117 1.709.511 1.828 1.408.117.894-.51 1.715-1.4 1.834-.074.01-.147.014-.217.014-.805 0-1.505-.598-1.612-1.422-.119-.894.51-1.715 1.4-1.834zm7.853-.024l.147.012c.893.114 1.524.933 1.409 1.83-.105.824-.807 1.426-1.614 1.426-.069 0-.14-.006-.209-.013-.893-.116-1.523-.935-1.408-1.831.115-.895.931-1.527 1.822-1.412zm-3.854-.242c.9-.002 1.63.73 1.633 1.633.002.902-.727 1.635-1.627 1.637-.9 0-1.629-.73-1.63-1.633-.003-.902.725-1.635 1.624-1.637zm14.56-.206c.343-.835 1.295-1.233 2.127-.889.832.345 1.227 1.3.884 2.135-.26.63-.866 1.012-1.507 1.012-.206 0-.417-.04-.62-.123-.832-.345-1.227-1.3-.884-2.135zm9.047-.887c.343-.835 1.296-1.233 2.127-.888.832.344 1.227 1.3.884 2.134-.259.631-.866 1.012-1.506 1.012-.207 0-.418-.04-.621-.123-.832-.344-1.227-1.3-.884-2.135zM38.154 5.133c.901-.002 1.63.73 1.633 1.633.002.902-.726 1.635-1.627 1.637-.9 0-1.629-.73-1.63-1.633-.003-.902.725-1.635 1.624-1.637zm19.898-.845c.343-.834 1.295-1.232 2.127-.888.832.344 1.227 1.3.883 2.135-.258.63-.866 1.011-1.506 1.011-.207 0-.418-.04-.62-.123-.832-.344-1.227-1.3-.884-2.135zm-29.58-2.425c.778-.454 1.775-.189 2.227.592.452.78.188 1.781-.59 2.235-.26.15-.54.221-.817.221-.561 0-1.11-.292-1.41-.813-.452-.781-.188-1.783.59-2.235zM49.228 0l.148.013c.893.113 1.523.932 1.408 1.829-.105.825-.806 1.427-1.613 1.427-.07 0-.14-.006-.21-.014-.892-.115-1.523-.934-1.408-1.83.115-.895.932-1.528 1.823-1.412z" transform="translate(94.285 126.565)"/>
                                            </g>
                                        </g>
                                    </g>
                                </g>
                            </g>
                        </g>
                        <g fill="#051126">
                            <path d="M260.232 0c19.777 0 35.81 16.032 35.81 35.81v546.51c0 19.777-16.033 35.81-35.81 35.81H35.809C16.032 618.13 0 602.097 0 582.32V35.81C0 16.031 16.032 0 35.81 0h224.422zM68.24 10.54H34.005c-12.402 0-23.493 13.243-23.493 25.87v547.076c0 15.628 15.72 24.104 23.23 24.104h228.556c7.51 0 23.231-8.476 23.231-24.104V36.41c.087-12.627-11.092-25.87-23.493-25.87H227.8c-2.97 0-4.891 2.206-5.59 6.18-2.358 14.127-10.043 15.098-12.314 15.098H86.144c-2.271 0-10.044-1.06-12.315-15.098-.61-3.974-2.532-6.18-5.589-6.18z" transform="translate(-134 -1952) translate(-506.955 1798) translate(586.955 146.969) rotate(3 -671.335 2547.93) translate(0 1)"/>
                        </g>
                    </g>
                </g>
            </g>
        </g>
    </g>
</svg>
