<svg xmlns="http://www.w3.org/2000/svg" width="231" height="231" viewBox="0 0 231 231">
    <g fill="none" fill-rule="evenodd">
        <g fill-rule="nonzero">
            <g>
                <g>
                    <g>
                        <g>
                            <g>
                                <g>
                                    <g fill="#7786FF" opacity=".1">
                                        <path d="M196.28 28.204c-7.627-5.666-53.846-20.29-60.033-21.977-14.089-3.84-28.86 1.996-43.359 1.22C81.525 6.822 70.675 2.13 59.398.485c-11.275-1.646-24.284.653-30.932 10.696-3.228 4.862-4.53 10.872-6.123 16.614C14.768 54.908-.92 80.27.043 108.595c.35 10.23 2.918 20.204 5.445 30.06l11.515 44.637c.514 1.99 1.05 4.038 2.218 5.66 2.375 3.303 6.735 4.027 10.552 3.502 3.817-.526 24.87 2.217 30.14 7.323 5.27 5.107 61.072 12.547 66.903 8.211 8.109-6.052 17.637-9.92 27.67-11.234 7.278-.916 14.69-.426 21.898-1.844 15.129-2.976 28.307-14.548 35.498-29.353 7.19-14.805 8.66-32.504 5.48-48.897-3.665-18.884-14.165-83.303-21.081-88.456z" transform="translate(-768 -3594) translate(0 3321) translate(80 104) translate(0 136) translate(656 1) translate(32 32) translate(5.775 2.166) translate(0 4.331)"/>
                                    </g>
                                    <path fill="#D4DAFF" d="M70.477 92.303c12.26 1.222 25.408-9.23 29.89-23.765 3.431-11.113 2.045-23.022.588-34.299-.793-6.135-1.762-12.698-5.422-16.787-1.88-2.105-4.312-3.357-6.744-4.427C75.136 7 60.22 5.42 45.487 3.859c-2.08-.216-4.189-.433-6.286 0-7.05 1.498-12.284 10.33-13.541 18.957-.928 6.346-.241 12.868-1.81 19.074-.781 3.088-2.115 6.095-2.19 9.253-.06 2.69.798 5.17 1.65 7.563l4.265 12.055c1.286 3.626 2.655 7.399 5.222 9.762 2.568 2.363 31.113 11.125 37.68 11.78z" transform="translate(-768 -3594) translate(0 3321) translate(80 104) translate(0 136) translate(656 1) translate(32 32) translate(5.775 2.166)"/>
                                    <path fill="#231F20" d="M69.904 90.85c8.52.845 16.742-3.443 22.51-9.448 3.19-3.337 5.735-7.234 7.503-11.493 2.139-5.115 3.05-10.678 3.26-16.194.229-5.895-.35-11.79-1.098-17.633-.666-5.179-1.168-10.567-2.922-15.512-.733-2.197-1.888-4.231-3.4-5.989-1.782-1.843-3.924-3.303-6.294-4.287-5.238-2.345-10.69-4.18-16.28-5.481C67.554 3.496 61.86 2.477 56.124 1.76c-2.893-.384-5.797-.722-8.702-1.048-2.904-.327-6.001-.897-8.97-.653-4.435.367-8.017 3.152-10.577 6.635-2.806 3.944-4.59 8.519-5.195 13.316-.812 5.977-.21 12.093-1.496 18.018-.613 2.848-1.805 5.557-2.255 8.446-.45 2.89.093 5.493 1.005 8.155 1 2.913 2.11 5.773 3.167 8.656 1.023 2.796 1.987 5.628 3.127 8.383 1.168 2.912 2.752 6.273 5.715 7.736 2.172 1.015 4.402 1.902 6.679 2.656 3.231 1.165 6.498 2.213 9.776 3.227 6.175 2.016 12.447 3.721 18.794 5.109.894.186 1.8.35 2.711.448.584.058.584-.815 0-.874-2.149-.295-4.275-.737-6.364-1.322-3.126-.775-6.235-1.643-9.35-2.54-6.24-1.823-12.482-3.74-18.547-6.081-1.426-.583-3.355-1.165-4.47-2.091-1.865-1.538-3.04-3.95-3.969-6.123-1.116-2.61-2.022-5.312-2.997-7.968-1.021-2.793-2.044-5.58-3.068-8.365-.965-2.668-1.8-5.389-1.473-8.255.327-2.865 1.502-5.533 2.18-8.312.608-2.74.952-5.53 1.028-8.336.257-5.452.193-10.916 1.97-16.147 1.443-4.247 3.886-8.522 7.596-11.208 1.744-1.314 3.82-2.12 5.996-2.33 2.887-.239 5.844.303 8.701.624 5.633.629 11.26 1.304 16.847 2.266 5.568.921 11.063 2.235 16.444 3.932 2.73.877 5.412 1.896 8.036 3.052 2.337 1.037 4.64 2.26 6.428 4.13 3.354 3.536 4.452 8.685 5.218 13.334.9 5.47 1.613 11.015 2.01 16.543.76 10.573-.187 21.553-6.095 30.646-4.593 7.072-11.897 12.92-20.382 14.336-1.893.31-3.819.371-5.727.18-.573-.017-.567.857-.012.915z" transform="translate(-768 -3594) translate(0 3321) translate(80 104) translate(0 136) translate(656 1) translate(32 32) translate(5.775 2.166)"/>
                                    <path fill="#FFF" d="M76.68 153.806c-.387-.136-.722-.386-.96-.717-.274-.533-.508-1.085-.701-1.65-1.214-2.753-3.371-1.913-4.945-3.645 0 0-1.355-33.582-.73-44.014.17-2.857.406-5.686.648-8.52.483-5.778.978-11.615 2.074-16.998.59-2.775 1.29-5.4 2.04-7.983.785-2.752 1.608-5.463 2.468-8.134l-1.561-3.359-3.801 9.826c-.327.944-.75 1.852-1.262 2.711-.495.735-1.113 1.167-1.703.904-.369-.206-.635-.555-.736-.962-.22-.939-.267-1.908-.142-2.863.436-5.732 1.114-11.377 2.021-16.852l-2.817.379c-.848 7.732-1.933 15.353-3.235 22.8-.032.29-.116.572-.247.834-.319.472-.731-.234-.961-.904-1.426-4.21-2.04-9.412-2.393-14.537-.353-5.126-.448-10.34-1.037-15.366l-3.978 1.085c1.383 5.568 2.414 11.216 3.088 16.91.629 4.458.78 8.97.454 13.459-.006.235-.058.467-.153.682-.154.233-.372.053-.537-.14-3.194-3.65-6.034-8.694-8.292-14.724l-2.003 3.499c2.092 3.079 3.707 7.447 4.915 12.199 1.187 4.97 2.106 10 2.752 15.068l.336 4.764c-.136 10.922-.407 21.844-.725 32.754-.136 4.665-.283 9.33-.477 13.995-.06 1.44.076 4.904-.372 6.134-1.025 2.817-3.259.828-4.756 2.432-.378.49-.73 1-1.054 1.528-1.362 1.86-3.183 1.545-4.586 3.277l5.646.326c1.633.094 3.306.17 4.862-.898-.07.228-.17.583-.324 1.126-.365 1.306-.536 3.032-1.178 3.697-.643.664-1.592-.17-2.216.74 1.944.898 4.019.513 5.858-1.084.406-.35 1.579-1.61 2.905-2.863.695.303 1.473 1.224 2.057 1.644.619.398 1.336.622 2.074.647l4.503.542c1.332.164 2.728.298 3.942-.886-.98.029-1.905-.443-2.451-1.248-.59-.694-1.067-1.644-1.639-2.332l.242.064c1.35 1.294 2.947-.49 4.402-.117 1.038.257 1.969 1.575 3.012 1.715 1.768.245 3.406-2.88 5.121-2.07-.91-1.208-2.09-2.192-3.447-2.875z" transform="translate(-768 -3594) translate(0 3321) translate(80 104) translate(0 136) translate(656 1) translate(32 32) translate(5.775 2.166)"/>
                                    <path fill="#231F20" d="M55.695 141.828c.43 4.177.504 9.177-1.928 12.778-.526.779-1.144 1.505-1.618 2.324-.487.84-.842 1.75-1.053 2.7-.206.843-.332 2.208-1.024 2.806-.692.598-1.687-.058-2.385.732-.037.036-.052.09-.039.14.013.05.052.09.102.104 1.797.734 3.83.57 5.491-.442.913-.573 1.742-1.275 2.46-2.085.737-.725 1.407-1.516 2.002-2.364 1.144-1.771 1.144-4.112 1.253-6.15.122-2.56.196-5.122.223-7.685.034-2.947.01-5.891-.075-8.834 0-.186-.291-.186-.286 0 .166 5.93.178 11.9-.217 17.82-.014 1.429-.298 2.842-.835 4.164-.66 1.132-1.486 2.156-2.448 3.037-2.031 2.109-4.628 3.416-7.494 2.26l.063.244c.68-.767 1.79-.058 2.488-.848.572-.622.71-1.61.893-2.393.222-1.075.608-2.107 1.144-3.061.52-.871 1.178-1.644 1.716-2.486 2.357-3.619 2.288-8.625 1.853-12.778 0-.186-.303-.186-.286 0v.017z" transform="translate(-768 -3594) translate(0 3321) translate(80 104) translate(0 136) translate(656 1) translate(32 32) translate(5.775 2.166)"/>
                                    <path fill="#231F20" d="M61.656 119.97l.085 15.749c0 2.714.014 5.41.042 8.09 0 3.012-.139 6.146.7 9.071.2.782.554 1.518 1.045 2.17.73.883 1.87 1.104 2.74 1.808 1.672 1.367 2.415 3.978 5.047 3.844l-.103-.25c-1.207.983-2.65 1.018-4.16.867-1.508-.152-2.909-.303-4.363-.46-.724-.047-1.444-.139-2.155-.273-.746-.22-1.43-.597-2.005-1.105-.645-.494-1.352-.983-2.16-.541-.063.044-.081.126-.042.19.039.065.122.09.192.06 1.117-.581 2.415 1.163 3.46 1.535 1.273.454 2.8.437 4.14.582 2.415.256 5.252 1.006 7.304-.646.103-.075 0-.25-.108-.244-2.614.134-3.284-2.634-5.017-3.902-.79-.582-1.81-.803-2.45-1.547-.557-.691-.942-1.497-1.123-2.355-.767-2.85-.604-5.88-.64-8.799l-.09-16.76c0-2.355 0-4.716-.037-7.077 0-.08-.067-.146-.15-.146-.084 0-.152.065-.152.146v-.006z" transform="translate(-768 -3594) translate(0 3321) translate(80 104) translate(0 136) translate(656 1) translate(32 32) translate(5.775 2.166)"/>
                                    <path fill="#231F20" d="M66.593 109.165v40.118c0 .08.08.145.18.145.1 0 .18-.065.18-.145-.129-4.435-.042-8.883 0-13.336v-20.143-6.656c0-.08-.08-.145-.18-.145-.1 0-.18.065-.18.145v.017zM57.299 103.37c-.065 6.72-.13 13.435-.145 20.156v4.098c0 .082.081.148.18.148.1 0 .181-.066.181-.148-.202-7.175.044-14.368.109-21.543v-2.711c0-.19-.354-.19-.361 0h.036zM60.915 88.187c-.065 6.715-.13 13.435-.151 20.15v4.134c0 .189.368.189.36 0-.194-7.176.044-14.369.109-21.544v-2.71c0-.082-.08-.148-.18-.148-.1 0-.18.066-.18.147l.042-.03zM44.957 66.298c2 2.76 3.543 5.805 4.571 9.025 1.223 3.636 2.187 7.349 2.883 11.113.594 2.729 1.033 5.487 1.315 8.263l.222 2.756c.09 1.163 0 2.326 0 3.49-.136 8.094-.336 16.188-.6 24.283-.234 7.374-.6 14.741-.75 22.097 0 1.256.113 2.978-.77 4.019-.883 1.04-2.342.581-3.477.831-1.748.401-2.168 2.187-3.532 3.1-1.363.912-3.069 1.163-4.27 2.424-.123.127-.158.312-.09.472.07.16.229.267.408.273 2.258.116 4.517.238 6.775.343 1.922.087 3.79 0 5.466-1.024.492-.296.042-1.046-.457-.75-1.7 1.018-3.604.977-5.525.878l-6.259-.32.318.745c1.142-1.163 2.757-1.407 4.09-2.291.577-.398 1.077-.89 1.478-1.454.487-.657.901-1.32 1.76-1.535 1.069-.274 2.234.029 3.243-.512.936-.6 1.522-1.595 1.58-2.68.142-1.3.2-2.608.174-3.914 0-1.658.114-3.31.186-4.96.168-4.1.307-8.194.439-12.294.276-8.28.496-16.567.66-24.859.054-2.611.145-5.199-.06-7.804-.186-2.326-.51-4.594-.919-6.908-.7-4.352-1.702-8.654-3.003-12.875-1.2-3.628-2.678-7.28-5.039-10.356-.336-.442-1.123 0-.775.442l-.042-.018zM46.234 62.796c1.248 3.096 2.767 6.074 4.538 8.9.778 1.225 1.62 2.41 2.52 3.546.432.544.874 1.07 1.333 1.586.34.376.77 1.059 1.315 1.128.546.07.77-.44.845-.897.121-.837.188-1.682.2-2.528.078-1.866.05-3.734-.085-5.596-.261-3.552-.704-7.088-1.327-10.594-.678-3.975-1.545-7.927-2.602-11.822-.04-.15-.158-.266-.307-.305-.15-.04-.309.005-.417.116-.108.11-.15.271-.109.42 1.712 6.258 2.926 12.644 3.63 19.096.398 3.29.492 6.61.282 9.917-.018.411-.06.82-.127 1.227-.121-.172-.256-.335-.402-.486-.442-.475-.861-.967-1.27-1.464-.887-1.09-1.715-2.228-2.48-3.408-1.85-2.874-3.424-5.918-4.704-9.09-.212-.51-1.045-.29-.833.231v.023zM57.75 45.17c.969 7.746.758 15.62 2.063 23.33.177 1.019 1.448 8.962 3.22 7.926.57-.32.57-1.2.684-1.747.188-1.014.376-2.033.57-3.046.347-1.951.672-3.902.986-5.859.706-4.464 1.326-8.943 1.857-13.435.069-.582-.786-.553-.854 0-.855 7.218-1.944 14.4-3.266 21.548-.034.454-.118.904-.25 1.339-.063.122 0 .25-.166.221-.074 0-.234-.46-.262-.53-.29-.761-.537-1.54-.74-2.33-.432-1.59-.773-3.207-1.021-4.838-.57-3.495-.804-7.047-1.02-10.582-.24-4-.433-8.007-.93-11.985-.067-.553-.922-.582-.854 0l-.017-.011zM69.446 51.567c-.98 5.39-1.71 10.818-2.186 16.282-.123 1.437-.586 4.855 1.618 5.053.926.088 1.652-.677 2.127-1.372.69-1.142 1.266-2.347 1.724-3.6l3.751-8.762c.217-.514-.54-.958-.762-.444l-3.64 8.512c-.48 1.344-1.093 2.637-1.829 3.861-.37.538-1.067 1.315-1.729.73-.51-.45-.51-1.378-.51-1.997 0-1.467.211-2.921.358-4.4.146-1.478.328-3.032.521-4.545.391-3.038.86-6.062 1.407-9.072.1-.585-.744-.789-.85-.234v-.012z" transform="translate(-768 -3594) translate(0 3321) translate(80 104) translate(0 136) translate(656 1) translate(32 32) translate(5.775 2.166)"/>
                                    <path fill="#231F20" d="M76.67 62.364c-1.805 4.937-3.574 9.909-4.856 15.01-1.156 4.99-1.94 10.055-2.347 15.155-.433 4.348-.926 8.708-1.113 13.074-.108 2.454-.114 4.914-.108 7.368 0 6.243.186 12.486.385 18.729.156 4.803.337 9.608.541 14.415.037.804-.18 2.005.512 2.565 1.276 1.031 3.099 1.026 4.339 2.075.866.734 1.035 1.79 1.6 2.704.566.916 1.547 1.067 2.407 1.551 1.045.635 1.983 1.421 2.78 2.332l.44-.735c-1.06-.379-2.064.105-2.943.67-.878.566-2.07 1.697-3.273 1.318-1.312-.414-2.155-1.69-3.61-1.696-1.349 0-3.01 1.224-4.213.297-.458-.344-1.096.274-.644.618 1.203.897 2.359.542 3.683.163.743-.289 1.582-.235 2.28.146.636.434 1.294.835 1.974 1.2 1.12.478 2.166.076 3.13-.53.962-.606 2.148-1.79 3.387-1.34.458.163.71-.432.44-.73-.753-.841-1.615-1.585-2.564-2.214-.945-.583-2.172-.816-2.666-1.877-.32-.895-.821-1.72-1.474-2.425-.583-.492-1.266-.861-2.004-1.084-.813-.21-1.588-.539-2.299-.974-.15-.11-.337-.227-.259-.04v-.094c-.048-.373-.036-.763-.048-1.166-.192-4.371-.363-8.747-.511-13.127-.205-6.22-.385-12.439-.44-18.652 0-2.623-.03-5.247.043-7.881.09-3.538.439-7.07.776-10.597.487-5.182.945-10.376 1.938-15.494.968-5.019 2.617-9.91 4.29-14.718.433-1.26.885-2.512 1.336-3.766.193-.53-.68-.763-.872-.233l-.037-.017zM110.808 105.213c.1 0 .18-.08.18-.18 0-.1-.08-.18-.18-.18-.1 0-.18.08-.18.18 0 .1.08.18.18.18zM25.307 48.616c5.038 5.334 10.389 10.405 15.586 15.588.136.134.342-.076.213-.205-5.204-5.182-10.549-10.253-15.593-15.587-.13-.14-.336.07-.206.204zM30.364 49.335l12.702 11.983c.132.13.339-.076.2-.206l-12.7-11.983c-.133-.13-.34.076-.202.206zM28.2 44.264l-.495-.884-.233.176c5.119 5.076 10.58 9.809 16.345 14.166.156.112.305-.14.156-.252-5.746-4.345-11.188-9.062-16.292-14.12-.054-.047-.134-.05-.191-.007-.058.043-.075.12-.042.183l.496.885c.09.17.346 0 .256-.147zM35.415 47.873c4.221 4.134 8.994 7.694 14.19 10.586.067.03.147.005.185-.058.037-.062.02-.143-.04-.186-5.174-2.876-9.926-6.417-14.132-10.529-.128-.13-.337.068-.203.199v-.012zM39.77 47.908c3.616 2.473 7.373 4.787 11.27 6.942.07.03.154.005.193-.056.039-.062.02-.14-.042-.182-3.87-2.152-7.626-4.466-11.271-6.942-.157-.105-.307.133-.15.238zM91.026 13.997c1.33.806 2.452 1.924 3.274 3.26.903 1.304 1.746 2.647 2.531 4.03 1.592 2.841 2.912 5.831 3.942 8.93.059.18.34.102.282-.078-1.062-3.208-2.436-6.3-4.101-9.228-.816-1.444-1.707-2.841-2.671-4.186-.796-1.228-1.858-2.25-3.105-2.99-.17-.09-.316.167-.146.257l-.006.005zM93.123 21.14c2.89 5.103 4.984 10.595 6.214 16.295.04.18.318.102.278-.073-1.227-5.724-3.326-11.24-6.226-16.362-.087-.157-.336 0-.249.14h-.017zM93.132 26.167c2.151 5.583 3.974 11.271 5.461 17.04.024.078.11.122.192.1.082-.023.13-.103.106-.18-1.489-5.77-3.312-11.458-5.462-17.041-.068-.174-.365-.099-.297.081zM93.124 32.641c1.262 4.406 2.109 8.892 2.532 13.414 0 .193.374.193.353 0-.426-4.542-1.277-9.048-2.546-13.474-.033-.072-.124-.112-.21-.091-.088.02-.143.093-.129.17v-.019z" transform="translate(-768 -3594) translate(0 3321) translate(80 104) translate(0 136) translate(656 1) translate(32 32) translate(5.775 2.166)"/>
                                    <path fill="#FFF" d="M154.481 141.488c2.865 1.61 10.147 5.652 10.313 6.001.166.35.407 3.996.515 5.548-2.922-1.744-7.236-4.024-10.152-5.775l-.676-5.774z" transform="translate(-768 -3594) translate(0 3321) translate(80 104) translate(0 136) translate(656 1) translate(32 32) translate(5.775 2.166)"/>
                                    <path fill="#231F20" d="M153.985 142.294c2.403 1.265 4.807 2.518 7.156 3.805.991.535 1.982 1.07 2.944 1.639.144.086.288.166.426.258.063.037.123.077.18.12.067.035-.06-.05-.054-.097.009.066.023.132.042.196 0 .23.067.454.09.684.163 1.477.265 2.96.373 4.443l.679-.374c-3.509-1.977-7.144-3.73-10.652-5.708l.228.374-.733-5.72c-.066-.545-.967-.574-.901 0l.6 4.772c.037.281.06.574.109.85.072.472.48.575.889.822 1.568.874 3.166 1.725 4.758 2.535 1.755.92 3.509 1.84 5.233 2.811.14.075.311.074.45-.003.14-.076.226-.217.23-.37-.103-1.403-.205-2.806-.35-4.208-.071-.707 0-1.408-.666-1.84-2.06-1.373-4.38-2.454-6.567-3.62l-4.02-2.122c-.492-.259-.949.489-.444.753z" transform="translate(-768 -3594) translate(0 3321) translate(80 104) translate(0 136) translate(656 1) translate(32 32) translate(5.775 2.166)"/>
                                    <path fill="#FFF" d="M153.037 129.938c2.865 1.61 10.147 5.655 10.313 5.998.166.343.407 3.994.516 5.552-2.922-1.744-7.236-4.023-10.152-5.778l-.677-5.773z" transform="translate(-768 -3594) translate(0 3321) translate(80 104) translate(0 136) translate(656 1) translate(32 32) translate(5.775 2.166)"/>
                                    <path fill="#231F20" d="M152.542 130.019c2.403 1.263 4.806 2.516 7.155 3.803.991.534 1.977 1.063 2.944 1.631l.427.259.18.126c.066.035-.06-.051-.054-.097.007.064.021.127.042.19l.09.689c.162 1.476.264 2.958.372 4.44l.68-.373c-3.51-1.976-7.144-3.729-10.652-5.705l.228.368-.733-5.705c-.066-.54-.973-.574-.901 0l.6 4.774c.037.282.06.575.109.845.072.477.48.574.889.827 1.568.867 3.166 1.723 4.758 2.534 1.754.919 3.508 1.832 5.233 2.803.138.078.31.08.45.004s.227-.218.228-.372c-.102-1.401-.204-2.809-.348-4.205-.072-.712 0-1.413-.667-1.844-2.06-1.367-4.38-2.453-6.566-3.614l-4.02-2.125c-.498-.265-.949.477-.444.747z" transform="translate(-768 -3594) translate(0 3321) translate(80 104) translate(0 136) translate(656 1) translate(32 32) translate(5.775 2.166)"/>
                                    <path fill="#FFF" d="M151.594 117.666c2.864 1.61 10.146 5.658 10.312 6.001.166.344.407 3.996.516 5.549-2.922-1.745-7.236-4.025-10.152-5.775l-.676-5.775z" transform="translate(-768 -3594) translate(0 3321) translate(80 104) translate(0 136) translate(656 1) translate(32 32) translate(5.775 2.166)"/>
                                    <path fill="#231F20" d="M151.098 118.472c2.403 1.258 4.806 2.517 7.155 3.798.992.534 1.977 1.068 2.944 1.637l.427.259.18.12c.066.04-.06-.051-.054-.097.005.066.02.132.042.195l.09.69c.162 1.476.264 2.958.373 4.435l.678-.374c-3.508-1.97-7.143-3.728-10.651-5.705l.228.374-.733-5.705c-.066-.546-.973-.575-.901 0l.6 4.768c.037.288.06.575.109.85.072.472.48.575.889.828 1.568.867 3.166 1.695 4.758 2.528 1.754.92 3.509 1.838 5.233 2.81.14.074.31.073.45-.004.139-.076.226-.217.229-.37-.102-1.402-.205-2.804-.349-4.206-.072-.706 0-1.407-.667-1.838-2.125-1.31-4.319-2.516-6.572-3.614l-4.02-2.126c-.492-.275-.942.477-.438.747z" transform="translate(-768 -3594) translate(0 3321) translate(80 104) translate(0 136) translate(656 1) translate(32 32) translate(5.775 2.166)"/>
                                    <path fill="#FFF" d="M150.15 105.394c2.863 1.61 10.141 5.656 10.307 6.004.166.35.412 3.994.521 5.546-2.92-1.744-7.232-4.023-10.152-5.772l-.676-5.778z" transform="translate(-768 -3594) translate(0 3321) translate(80 104) translate(0 136) translate(656 1) translate(32 32) translate(5.775 2.166)"/>
                                    <path fill="#231F20" d="M149.654 106.206c2.402 1.263 4.774 2.514 7.152 3.8.985.534 1.976 1.062 2.942 1.636.139.08.283.166.42.258l.187.12c.06.035-.06-.051-.06-.097.01.064.024.127.042.19.036.229.066.458.09.688.162 1.475.264 2.956.378 4.436l.679-.373c-3.507-1.974-7.14-3.725-10.647-5.699l.223.373-.727-5.705c-.072-.54-.973-.545-.9 0l.6 4.77c.036.28.066.574.108.85.078.47.486.573.888.82 1.574.866 3.165 1.722 4.756 2.53 1.754.92 3.513 1.837 5.236 2.807.14.075.311.074.45-.002.14-.077.226-.217.229-.37-.108-1.401-.204-2.807-.354-4.202-.072-.706 0-1.406-.66-1.842-2.06-1.366-4.378-2.445-6.57-3.61l-4.005-2.14c-.51-.248-.967.498-.457.762z" transform="translate(-768 -3594) translate(0 3321) translate(80 104) translate(0 136) translate(656 1) translate(32 32) translate(5.775 2.166)"/>
                                    <path fill="#FFF" d="M148.706 93.844c2.865 1.61 10.147 5.658 10.313 6.002.166.343.407 3.995.515 5.548-2.921-1.745-7.236-4.025-10.157-5.775l-.67-5.775z" transform="translate(-768 -3594) translate(0 3321) translate(80 104) translate(0 136) translate(656 1) translate(32 32) translate(5.775 2.166)"/>
                                    <path fill="#231F20" d="M148.21 93.925c2.403 1.259 4.774 2.517 7.152 3.799.985.534 1.976 1.069 2.943 1.638l.42.258.186.127c.06.034-.06-.052-.06-.098 0 .052.036.132.042.19.036.23.066.46.09.69.162 1.476.264 2.959.379 4.436l.678-.368c-3.507-1.977-7.14-3.735-10.646-5.707l.222.368-.727-5.706c-.072-.546-.973-.575-.9 0l.6 4.775c.036.282.066.575.108.845.078.477.486.603.895.828 1.567.867 3.158 1.724 4.75 2.534 1.753.92 3.512 1.833 5.236 2.804.14.075.31.074.45-.002.139-.077.225-.218.228-.371-.108-1.402-.204-2.805-.354-4.201-.072-.713 0-1.414-.66-1.845-2.126-1.31-4.318-2.516-6.57-3.615-1.333-.712-2.67-1.421-4.011-2.126-.504-.264-.96.477-.45.747z" transform="translate(-768 -3594) translate(0 3321) translate(80 104) translate(0 136) translate(656 1) translate(32 32) translate(5.775 2.166)"/>
                                    <path fill="#FFF" d="M145.377 70.744c-12.353 2.844-23.933 8.34-33.933 16.106-22.571 17.558-35.02 44.945-54.655 65.72-4.645 4.91-10.08 9.648-16.75 10.814-1.755.315-3.633.367-5.3 1.067-1.668.7-3.148 2.332-2.96 4.08.222 2.17 2.75 3.434 4.926 3.26 2.176-.176 26.719 0 43.679-21.086 18.02-22.412 36.316-44.583 54.889-66.513 1.41-1.655 3.762-3.433 5.493-2.122.688.644 1.125 1.509 1.235 2.443 1.17 5.555 7.02 72.214 7.67 72.22 2.13.018 4.245-.333 6.254-1.038-1.006-26.984-10.548-84.951-10.548-84.951zM130.397 48.562c-2.222.331-4.192 1.597-5.406 3.474-.492.725-.778 1.569-.828 2.441-.047 2.025 1.733 3.739 3.703 4.273 1.97.534 4.057.14 6.032-.376.503-.166 1.033-.237 1.562-.21 1.011.116 1.774.938 2.667 1.396.983.442 2.104.473 3.11.087 1.007-.386 1.815-1.158 2.243-2.141 2.087 1.033 4.98.463 6.186-1.52 1.206-1.984.047-5.07-2.253-5.464-.74-.123-1.544 0-2.2-.37-.657-.37-.965-1.11-1.426-1.69-.82-1.021-2.11-1.557-3.418-1.42-.388.091-.79.103-1.183.035-.256-.1-.49-.25-.686-.44-.954-.946-2.062-1.726-3.277-2.307-1.248-.493-2.839-.416-3.75.587-.845.851-1.076 3.645-1.076 3.645z" transform="translate(-768 -3594) translate(0 3321) translate(80 104) translate(0 136) translate(656 1) translate(32 32) translate(5.775 2.166)"/>
                                    <path fill="#231F20" d="M129.341 47.891c-2.297.35-4.342 1.603-5.652 3.462-1.277 1.83-1.376 4.017.2 5.706 1.575 1.688 4.175 2.124 6.518 1.824.734-.096 1.461-.233 2.18-.408.854-.204 1.756-.521 2.594-.192 1.078.413 1.862 1.308 3.028 1.546 2.094.408 4.197-.66 5.037-2.56l-.433.17c2.044.934 4.744.685 6.308-.992 1.41-1.605 1.366-3.973-.1-5.53-.802-.856-1.757-1.054-2.928-1.133-.897-.014-1.716-.498-2.138-1.264-.327-.524-.75-.987-1.248-1.365-.519-.377-1.12-.634-1.757-.754-.318-.057-.643-.078-.966-.062-.454.1-.922.121-1.383.062-.72-.232-1.4-1.082-1.99-1.535-.616-.496-1.303-.903-2.04-1.207-1.227-.535-2.649-.446-3.795.238-1.282.878-1.33 2.516-2.167 3.694-.21.3.293.567.504.29.644-.907.773-2.058 1.423-2.953.803-1.133 2.372-1.235 3.614-.821 1.353.447 2.39 1.456 3.462 2.323.317.305.728.504 1.171.566.726.068 1.406-.175 2.138-.034 1.447.284 2.08 1.241 2.9 2.295.708.906 1.557 1.031 2.67 1.133 1.046.104 1.989.656 2.57 1.504.58.848.738 1.903.429 2.876-.72 2.544-4.1 3.212-6.338 2.198-.08-.041-.174-.046-.257-.013-.084.033-.148.1-.176.183-.782 1.697-2.726 2.59-4.58 2.102-.955-.272-1.652-1.008-2.548-1.4-.896-.39-1.869-.192-2.853.046-2.342.567-5.007 1.003-7.175-.25-2.026-1.172-2.829-3.314-1.698-5.382 1.18-2.046 3.274-3.446 5.67-3.79.374-.057.216-.607-.153-.567l-.04-.006zM144.86 70.037c-8.293 1.921-16.263 5.045-23.658 9.271-7.126 4.127-13.67 9.193-19.454 15.065-5.508 5.65-10.601 11.695-15.239 18.084-4.81 6.45-9.353 13.112-14.03 19.644-4.623 6.578-9.62 12.884-14.964 18.888-2.741 3.014-5.623 5.975-8.973 8.32-1.652 1.191-3.442 2.176-5.33 2.932-1.956.676-3.979 1.132-6.033 1.36-1.883.276-3.806.804-5.098 2.317-1.082 1.14-1.348 2.833-.666 4.251 1.093 2.006 3.431 2.446 5.5 2.346 3.055-.13 6.096-.474 9.102-1.032 5.352-.996 10.545-2.715 15.438-5.107 6.426-3.153 12.183-7.524 16.952-12.872 3.087-3.471 5.88-7.23 8.768-10.854 3.071-3.823 6.148-7.64 9.23-11.452 6.17-7.62 12.374-15.21 18.613-22.77 6.239-7.56 12.49-15.052 18.752-22.476 1.257-1.495 2.654-3.583 4.677-4.046 1.753-.41 2.467 1.29 2.736 2.727.152.803.245 1.606.344 2.416.404 3.195.731 6.403 1.058 9.605.472 4.57.928 9.138 1.368 13.704l1.49 15.398c.465 4.832.934 9.66 1.41 14.484.374 3.735.748 7.477 1.169 11.206.134 1.173.269 2.38.427 3.571.044.635.142 1.264.292 1.882.035.216.179.397.38.481.496.091 1.005.091 1.502 0 .544-.035 1.087-.1 1.625-.182 1.142-.174 2.265-.452 3.355-.832.189-.058.318-.23.322-.428-.234-6.298-.79-12.59-1.426-18.859-.743-7.318-1.62-14.618-2.567-21.913-.911-7.037-1.886-14.064-2.922-21.08-.78-5.415-1.592-10.824-2.438-16.226-.261-1.685-.528-3.368-.8-5.049-.078-.789-.203-1.572-.375-2.346-.003-.033-.003-.066 0-.1-.093-.556-.935-.322-.847.235.327 1.994.645 3.992.952 5.993.803 5.082 1.583 10.19 2.339 15.323 1.013 6.872 1.975 13.752 2.887 20.64.97 7.33 1.87 14.66 2.648 22.02.684 6.45 1.292 12.9 1.602 19.35.035.669.064 1.332.088 2l.321-.422c-1.09.382-2.213.661-3.355.833-.599.09-1.202.15-1.806.175-.135 0-.643-.052-.725.047-.082.1.082.123.11.17.03.047 0 .059 0-.052 0-.112-.04-.188-.058-.288-.146-.756-.222-1.454-.315-2.21-.38-3.067-.69-6.152-1.006-9.224-.452-4.465-.892-8.927-1.32-13.388-.492-5.043-.98-10.09-1.468-15.14-.468-4.863-.943-9.723-1.426-14.578-.38-3.823-.766-7.623-1.17-11.47-.227-2.035-.391-4.104-.794-6.128-.299-1.448-.988-3.002-2.613-3.248-1.626-.246-3.186.956-4.262 2.04-1.642 1.666-3.08 3.595-4.583 5.384l-4.676 5.512c-6.196 7.427-12.356 14.87-18.478 22.33-6.122 7.458-12.21 14.958-18.261 22.5-3.044 3.78-6.082 7.568-9.114 11.363-2.405 3.05-5.11 5.85-8.072 8.357-5.04 4.192-10.78 7.458-16.952 9.646-4.397 1.571-8.96 2.632-13.597 3.16-1.31.147-2.625.247-3.94.311-1.707.082-3.507.135-4.811-1.173-1.485-1.49-.696-3.594.824-4.69 1.754-1.262 4.022-1.28 6.05-1.607 3.882-.64 7.43-2.516 10.522-4.891 3.07-2.447 5.91-5.171 8.482-8.14 2.654-2.931 5.185-6.015 7.6-9.153 4.857-6.227 9.352-12.707 13.93-19.157 4.576-6.45 9.218-12.942 14.303-19.04 4.961-6.08 10.538-11.626 16.643-16.548 10.004-7.873 21.613-13.44 34.003-16.308.585-.14.357-1.002-.193-.862z" transform="translate(-768 -3594) translate(0 3321) translate(80 104) translate(0 136) translate(656 1) translate(32 32) translate(5.775 2.166)"/>
                                    <path fill="#D4DAFF" d="M47.734 181.912c-4.787-2.345-9.4-5.028-13.806-8.027 4.844-4.867 11.793-6.83 18.228-9.23 29.77-11.101 46.326-47.785 54.188-57.764 2.673-3.394 5.347-6.789 8.277-9.932 8.319-8.997 19.445-13.764 30.84-18.275 0 0 8.606 3.664 11.186 7.245-3.931 4.498-38.194 34.873-42.915 40.172L81.23 162.598c-3.51 3.955-7.113 7.969-11.588 10.802-4.867 3.05-21.908 8.512-21.908 8.512z" transform="translate(-768 -3594) translate(0 3321) translate(80 104) translate(0 136) translate(656 1) translate(32 32) translate(5.775 2.166)"/>
                                    <path fill="#FFF" d="M161.98 81.572c-12.352 2.846-23.932 8.343-33.933 16.106-22.57 17.559-35.02 44.95-54.655 65.72-4.64 4.91-10.074 9.648-16.744 10.814-1.755.315-3.639.368-5.306 1.067-1.667.7-3.148 2.303-2.96 4.08.222 2.17 2.75 3.434 4.926 3.26 2.176-.176 26.719 0 43.685-21.086 18.012-22.408 36.308-44.579 54.889-66.513 1.404-1.655 3.756-3.433 5.488-2.116.688.64 1.126 1.504 1.234 2.437 1.17 5.555 7.02 72.214 7.67 72.22 2.129.017 4.245-.332 6.254-1.032-1.006-26.955-10.548-84.957-10.548-84.957z" transform="translate(-768 -3594) translate(0 3321) translate(80 104) translate(0 136) translate(656 1) translate(32 32) translate(5.775 2.166)"/>
                                    <path fill="#231F20" d="M161.458 80.88c-8.29 1.927-16.258 5.05-23.653 9.274-7.126 4.121-13.669 9.184-19.45 15.053-5.508 5.649-10.6 11.69-15.237 18.078-4.805 6.448-9.352 13.107-14.028 19.642-4.625 6.572-9.62 12.874-14.962 18.875-2.788 3.031-5.646 5.962-9 8.307-1.65 1.191-3.437 2.175-5.325 2.93-1.954.676-3.977 1.132-6.032 1.36-1.887.282-3.81.81-5.096 2.316-1.087 1.153-1.34 2.864-.637 4.285 1.087 1.999 3.425 2.438 5.494 2.345 3.053-.131 6.094-.474 9.1-1.026 5.35-1.001 10.543-2.72 15.436-5.112 6.426-3.15 12.182-7.519 16.949-12.866 3.086-3.47 5.88-7.228 8.767-10.85 3.07-3.822 6.146-7.638 9.228-11.449 6.172-7.616 12.375-15.203 18.61-22.761 6.234-7.558 12.484-15.047 18.75-22.468 1.256-1.49 2.653-3.576 4.675-4.045 1.753-.41 2.466 1.29 2.735 2.726.158.809.246 1.606.35 2.415.398 3.2.726 6.401 1.059 9.607.467 4.56.921 9.125 1.362 13.694.502 5.13.999 10.264 1.49 15.398.467 4.827.939 9.65 1.414 14.473.369 3.74.743 7.474 1.17 11.208.134 1.172.268 2.374.426 3.564.046.634.146 1.264.298 1.882.03.218.175.404.38.486.496.078 1.003.068 1.496-.03.544-.034 1.087-.099 1.63-.18 1.14-.176 2.26-.454 3.35-.833.186-.058.315-.227.321-.422-.228-6.302-.789-12.586-1.426-18.858-.736-7.315-1.619-14.613-2.566-21.905-.912-7.034-1.886-14.068-2.922-21.103-.78-5.408-1.594-10.815-2.443-16.22-.261-1.683-.526-3.366-.795-5.046-.083-.788-.21-1.571-.38-2.345-.003-.033-.003-.066 0-.1-.088-.586-.935-.316-.841.235.321 1.999.637 3.992.952 5.99.803 5.104 1.582 10.21 2.338 15.318 1.005 6.87 1.968 13.747 2.887 20.633.965 7.327 1.87 14.654 2.648 22.011.678 6.448 1.286 12.896 1.595 19.344.036.668.065 1.336.088 2.005l.322-.428c-1.089.38-2.21.661-3.35.838-.6.089-1.205.146-1.811.17-.135 0-.643-.053-.72.047-.075.1.077.123.106.17.03.047 0 .058 0-.053s-.04-.188-.058-.281c-.146-.762-.222-1.46-.316-2.216-.374-3.066-.69-6.143-1-9.22-.455-4.463-.898-8.922-1.326-13.377-.491-5.05-.978-10.096-1.461-15.141-.468-4.838-.951-9.692-1.45-14.56-.38-3.823-.765-7.621-1.169-11.46-.228-2.04-.385-4.104-.795-6.126-.292-1.448-.987-3.007-2.612-3.254-1.625-.246-3.185.956-4.26 2.04-1.643 1.665-3.075 3.594-4.583 5.387-1.508 1.794-3.092 3.676-4.635 5.522-6.195 7.402-12.351 14.84-18.469 22.316-6.117 7.476-12.213 14.977-18.287 22.503-3.044 3.78-6.08 7.566-9.112 11.36-2.404 3.05-5.106 5.85-8.066 8.36-5.04 4.188-10.777 7.451-16.95 9.636-4.395 1.571-8.957 2.631-13.594 3.16-1.309.148-2.62.252-3.933.31-1.713.088-3.507.135-4.816-1.172-1.485-1.489-.696-3.587.83-4.69 1.753-1.26 4.015-1.271 6.043-1.606 3.881-.639 7.429-2.514 10.52-4.888 3.076-2.45 5.917-5.182 8.487-8.16 2.653-2.93 5.184-6.014 7.627-9.144 4.851-6.231 9.351-12.709 13.928-19.15 4.576-6.443 9.217-12.944 14.302-19.04 4.956-6.083 10.531-11.633 16.633-16.56 10.002-7.874 21.612-13.438 34.004-16.295.55-.117.316-.961-.234-.833z" transform="translate(-768 -3594) translate(0 3321) translate(80 104) translate(0 136) translate(656 1) translate(32 32) translate(5.775 2.166)"/>
                                    <path fill="#231F20" d="M49.861 179.288l4.012 3.308c.154.128.368-.096.215-.224l-4.006-3.309c-.153-.128-.374.096-.22.225zM52.035 178.616c1.965 1.602 4.068 2.945 6.272 4.006.165.08.236-.239.071-.318-2.18-1.055-4.26-2.387-6.205-3.972-.143-.12-.28.165-.138.284zM55.676 177.865c1.458.311 2.804 1.163 4.15 1.866l4.196 2.164c.172.087.32-.18.148-.267l-4.345-2.239c-1.304-.678-2.62-1.499-4.054-1.803-.19-.044-.267.255-.077.298l-.018-.019zM60.007 177.883c2.152.895 4.233 1.999 6.219 3.298.063.026.133-.003.167-.068.034-.066.022-.15-.028-.2-2.009-1.305-4.11-2.416-6.283-3.322-.167-.067-.236.225-.075.292zM64.324 177.901l4.743 2.549c.176.098.334-.212.152-.303l-4.738-2.549c-.176-.091-.333.211-.157.303zM66.52 177.826c1.632.27 3.228.669 4.766 1.19.178.06.257-.186.08-.246-1.538-.518-3.131-.914-4.76-1.185-.195-.035-.275.206-.085.24zM67.247 175.017c3.296.974 6.567 2.066 9.812 3.277.179.065.262-.246.077-.311-3.236-1.207-6.507-2.302-9.812-3.284-.08-.023-.163.03-.185.117-.02.088.027.178.108.201zM70.16 175.02c2.851.1 5.67.717 8.345 1.829.18.072.255-.242.081-.314-2.702-1.122-5.547-1.744-8.425-1.841-.185 0-.185.32 0 .326zM71.608 172.18c3.684-.432 6.969 2.003 10.545 2.514.19 0 .185-.297 0-.323-3.564-.51-6.85-2.946-10.545-2.513-.19 0-.19.348 0 .323zM76.624 170.637c2.812.551 5.603 1.18 8.373 1.885.076.022.156-.02.178-.095.023-.075-.021-.153-.098-.175-2.777-.702-5.57-1.33-8.378-1.886-.18-.039-.26.231-.075.27zM79.71 167.475c-.481.031-.333.521.042.6.474.077.953.12 1.435.13l1.636.14 6.547.574c.19 0 .19-.245 0-.26l-4.827-.423-2.303-.188-1.16-.104-.673-.057-.292-.026c-.15.034-.31-.01-.41-.115.19 0 .19-.271 0-.26l.006-.011zM83.186 164.979c1.713 0 3.422.094 5.126.282 1.532.16 3.332.188 4.557 1.449.142.145.347-.109.205-.254-1.19-1.224-2.757-1.354-4.22-1.52-1.903-.225-3.805-.334-5.696-.349-.079 0-.142.082-.142.182 0 .1.063.18.142.18l.028.03zM86.77 162.64c3.046.03 6.086.198 9.104.504.18 0 .18-.202 0-.219-3.018-.305-6.058-.473-9.104-.503-.08 0-.145.049-.145.11 0 .06.065.109.145.109zM91.105 158.704l8.365-.144c.082 0 .149-.081.149-.18 0-.1-.067-.181-.149-.181l-8.365.144c-.082 0-.149.081-.149.18 0 .1.067.181.149.181zM97.616 155.202c1.86.014 3.712-.153 5.508-.496.078-.022.12-.082.098-.139-.021-.057-.1-.094-.183-.084-1.77.328-3.594.484-5.423.464-.09 0-.163.052-.163.116s.073.116.163.116v.023zM99.767 152.269l4.759-.268c.195 0 .195-.368 0-.36l-4.759.267c-.195 0-.2.375 0 .36zM102.648 148.622c1.833.053 3.667-.017 5.494-.209.186 0 .186-.383 0-.361-1.827.192-3.661.262-5.494.21-.192 0-.186.353 0 .36zM104.866 146.533c1.5-.442 3.101-.544 4.657-.298.2.034.292-.241.084-.276-1.61-.26-3.27-.158-4.825.299-.194.057-.11.332.084.275zM108.47 143.542c1.105.1 2.217.035 3.306-.195.201-.044.117-.39-.091-.347-1.07.226-2.163.287-3.248.18-.208 0-.208.34 0 .362h.033zM110.605 142.155l3.293-.253c.21 0 .21-.375 0-.36l-3.293.252c-.21 0-.21.383 0 .361zM32.618 169.183c2.07.025 4.137.177 6.187.456.178.026.25-.228.078-.254-2.076-.283-4.168-.438-6.265-.466-.178 0-.178.26 0 .264zM36.235 168.867c2.308-.234 4.624-.309 6.939-.224.185 0 .185-.354 0-.36-2.315-.085-4.631-.01-6.94.223-.184 0-.19.375 0 .36zM40.605 166.026c2.498-.848 5.066-1.18 7.628-.986.177 0 .177-.39 0-.398-2.59-.197-5.186.14-7.71 1.002-.171.056-.1.437.076.382h.006zM47.058 163.144l8.39-.4c.182 0 .182-.335 0-.322l-8.39.4c-.182 0-.182.328 0 .322zM52.828 160.951c2.559.048 5.117-.058 7.676-.318.175 0 .18-.375 0-.36-2.559.269-5.117.375-7.676.317-.175 0-.175.354 0 .361zM58.646 158.088c2.288-.528 4.595-.883 6.912-1.064.177 0 .177-.392 0-.377-2.34.187-4.672.544-6.984 1.071-.177.046-.105.408.072.37zM62.211 154.892c2.314.28 4.64.335 6.959.166.173 0 .173-.375 0-.36-2.32.168-4.645.112-6.959-.167-.173 0-.173.34 0 .361zM64.39 151.46c3.273-.105 6.545-.122 9.814-.05.082 0 .15-.08.15-.18 0-.1-.068-.181-.15-.181-3.273-.072-6.545-.055-9.814.05-.19 0-.19.369 0 .361zM70.861 148.612l5.53-.173c.17 0 .17-.368 0-.36l-5.514.144c-.074 0-.133.08-.133.18 0 .1.06.18.133.18l-.016.03zM74.51 146.54l4.018-.423c.209 0 .209-.32 0-.297l-4.018.422c-.21 0-.21.316 0 .298zM77.384 143.603l3.323-.26c.19 0 .19-.376 0-.361l-3.323.26c-.191 0-.191.375 0 .36zM80.333 141.486l3.283-.429c.21 0 .125-.314-.085-.29l-3.284.423c-.21.03-.118.32.086.296zM82.448 139.141h2.58c.084 0 .153-.08.153-.18 0-.1-.069-.18-.154-.18h-2.58c-.084 0-.153.08-.153.18 0 .1.069.18.154.18zM165.456 165.244c1.844.15 3.696.042 5.515-.32.196-.04.117-.368-.08-.334-1.792.36-3.618.465-5.435.314-.196 0-.196.327 0 .34zM166.166 163.727c1.835-.091 3.67-.108 5.505-.05.18 0 .18-.354 0-.361-1.835-.058-3.67-.041-5.505.05-.18 0-.18.375 0 .361zM164.017 160.682l5.472.231c.202 0 .202-.354 0-.36l-5.472-.232c-.202 0-.202.347 0 .361zM163.976 158.423c1.821.372 3.677.478 5.522.316.19 0 .19-.357 0-.343-1.819.164-3.648.062-5.445-.302-.19-.041-.268.295-.077.33zM165.45 156.346c1.583.236 3.18.299 4.771.188.189 0 .189-.376 0-.361-1.591.11-3.188.048-4.77-.188-.189 0-.189.332 0 .361zM164.691 154.144c1.59.325 3.206.388 4.809.187.188 0 .188-.382 0-.36-1.575.202-3.165.144-4.727-.174-.187-.036-.264.31-.082.347zM164.016 151.423c1.343.091 2.69.067 4.03-.073.201 0 .201-.382 0-.36-1.34.14-2.687.163-4.03.072-.2 0-.2.353 0 .36zM164.01 148.526h4.043c.08 0 .144-.081.144-.18 0-.1-.065-.181-.144-.181h-4.043c-.08 0-.144.08-.144.18 0 .1.064.18.144.18zM164.051 145.758c1.086-.196 2.184-.273 3.281-.231.19 0 .19-.354 0-.361-1.123-.041-2.247.04-3.358.245-.19 0-.107.383.077.347zM164.022 147.082h4.018c.087 0 .157-.08.157-.18 0-.1-.07-.18-.157-.18h-4.018c-.086 0-.156.08-.156.18 0 .1.07.18.156.18zM164.498 143.112h-.474c-.088 0-.158.08-.158.18 0 .1.07.18.158.18h3.293c.087 0 .158-.08.158-.18 0-.1-.07-.18-.158-.18h-3.293c-.088 0-.158.08-.158.18 0 .1.07.18.158.18h.474c.087 0 .158-.08.158-.18 0-.1-.071-.18-.158-.18zM164.005 142.047c.88.092 1.767.06 2.643-.093.185 0 .104-.383-.076-.354-.85.151-1.711.18-2.567.087-.186 0-.186.339 0 .36zM163.307 139.141h2.56c.091 0 .164-.08.164-.18 0-.1-.073-.18-.163-.18h-2.56c-.091 0-.164.08-.164.18 0 .1.073.18.163.18zM162.537 136.163c.622.18 1.277.218 1.916.108.095-.025.152-.12.13-.216-.028-.096-.126-.153-.223-.13-.578.09-1.168.053-1.73-.108-.09-.015-.178.041-.202.13-.024.09.023.183.109.216zM163.312 134.953l1.177-.303c.033-.01.063-.04.08-.08.018-.041.023-.09.014-.137-.023-.094-.092-.15-.162-.13l-1.182.303c-.034.012-.063.043-.08.085-.017.043-.02.093-.009.14.01.045.033.084.063.107.03.023.066.028.1.015zM162.63 132c.564-.162 1.155-.2 1.734-.108.095.019.188-.038.216-.13.028-.096-.027-.196-.122-.224-.641-.103-1.297-.063-1.921.115-.086.034-.133.127-.109.216.024.09.112.146.202.13zM162.606 129.121c.34-.176.714-.221 1.074-.13.077.024.155-.03.18-.123.01-.047.006-.097-.014-.139-.02-.042-.052-.073-.09-.084-.41-.113-.837-.068-1.225.13-.078.028-.124.126-.105.223.027.091.104.143.18.123zM161.852 126.148h1.862c.084 0 .152-.081.152-.18 0-.1-.068-.181-.152-.181h-1.862c-.084 0-.152.08-.152.18 0 .1.068.18.152.18zM148.864 153.579h4.738c.087 0 .157-.08.157-.18 0-.1-.07-.181-.157-.181h-4.738c-.087 0-.158.08-.158.18 0 .1.07.18.158.18zM148.131 151.413h4.76c.08 0 .147-.08.147-.18 0-.1-.066-.18-.148-.18h-4.759c-.08 0-.147.08-.147.18 0 .1.066.18.147.18zM148.131 149.19c1.334-.12 2.674-.061 3.997.173.187.036.27-.318.078-.346-1.348-.247-2.715-.31-4.075-.188-.193 0-.199.382 0 .36zM148.178 147.261l3.303-.44c.199 0 .112-.302-.08-.28l-3.304.442c-.198 0-.112.301.08.278zM148.14 145.638h3.298c.086 0 .156-.08.156-.18 0-.1-.07-.18-.156-.18h-3.298c-.086 0-.156.08-.156.18 0 .1.07.18.156.18zM147.427 143.622c1.115.092 2.237-.02 3.316-.332.06-.016.107-.065.123-.128s0-.13-.045-.177c-.043-.046-.107-.064-.167-.048-1.049.31-2.142.419-3.227.325-.22 0-.22.345 0 .36zM146.715 142.75h2.538c.097 0 .175-.08.175-.18 0-.1-.078-.18-.175-.18h-2.538c-.096 0-.174.08-.174.18 0 .1.078.18.174.18zM146.668 139.99c.716.15 1.481-.016 1.993-.433.148-.13-.1-.322-.255-.191-.418.346-1.049.485-1.64.36-.093-.02-.19.021-.218.094-.028.072.026.148.12.17zM147.394 137.698h1.18c.073 0 .132-.081.132-.18 0-.1-.059-.181-.131-.181h-1.18c-.074 0-.133.08-.133.18 0 .1.06.18.132.18zM146.635 136.281c.427.135.879.082 1.276-.151.07-.053.094-.165.053-.253-.044-.08-.13-.107-.2-.065-.328.191-.7.234-1.052.123-.075-.015-.146.042-.166.13-.02.09.019.183.09.216zM145.952 132.67c.635.118 1.289.076 1.904-.123.094-.028.149-.128.121-.224-.027-.096-.126-.15-.22-.123-.553.182-1.14.224-1.712.123-.045-.013-.094-.008-.136.015-.041.023-.072.062-.085.108-.023.097.033.195.128.223zM146.047 131.273c.555-.162 1.139-.199 1.71-.108.094.024.19-.03.22-.123.014-.047.007-.097-.017-.14-.024-.041-.064-.072-.11-.084-.635-.105-1.284-.068-1.903.109-.094.028-.149.128-.121.224.027.095.126.15.22.122zM148.854 155.619c1.82.223 3.651.297 5.48.224.196 0 .196-.368 0-.361-1.829.073-3.66-.001-5.48-.224-.197 0-.197.34 0 .361zM145.3 129.105c.595-.155 1.208-.187 1.812-.094.078 0 .15-.094.15-.18-.003-.098-.068-.177-.15-.18-.637-.095-1.282-.058-1.908.107-.187.051-.109.398.078.347h.019z" transform="translate(-768 -3594) translate(0 3321) translate(80 104) translate(0 136) translate(656 1) translate(32 32) translate(5.775 2.166)"/>
                                </g>
                            </g>
                        </g>
                    </g>
                </g>
            </g>
        </g>
    </g>
</svg>
