<svg xmlns="http://www.w3.org/2000/svg" width="32" height="32" viewBox="0 0 32 32">
    <g fill="none" fill-rule="evenodd">
        <g>
            <g>
                <g>
                    <g transform="translate(-769.000000, -166.000000) translate(326.000000, 81.000000) translate(243.000000, 78.000000) translate(200.000000, 7.000000)">
                        <circle cx="16" cy="16" r="15.5" fill="#FCFAF9" stroke="#D5DEE4"/>
                        <g fill="#D5DEE4">
                            <path d="M15.48 2.495c.104.1.193.41.265.87l.042.293.041.356.037.392.017.208.03.438.026.463.03.735.014.51.014.79.004.802-.006.806-.016.795-.025.771-.022.495-.027.475-.03.45-.035.424-.04.392-.043.357-.044.294c-.076.46-.166.77-.27.871-.098.121-.423.218-.916.293l-.285.04-.154.017-.358.035-.39.031-.418.027-.678.031-.48.016-.502.013-.782.011-.812.004-.832-.004-.844-.01-.845-.017-1.115-.03-1.08-.04-1.026-.049-1.169-.07-.625-.045-.558-.048-.33-.033-.292-.034-.31-.043-.241-.044-.031-.173-.059-.367-.053-.391c-.016-.134-.032-.272-.047-.414l-.042-.433-.037-.45-.032-.466-.028-.478-.022-.489-.018-.495-.014-.5-.013-.756L0 8.618V8.12l.004-.493.007-.485.025-.935.017-.445.042-.832.039-.565.029-.344.03-.314.034-.283.035-.248.018-.11.037-.193c.039-.173.08-.286.122-.326.077-.075.3-.142.64-.2l.274-.044.488-.06.37-.035.404-.033.433-.03.46-.028.486-.025.766-.031 1.079-.032.839-.016L7.818 2 8.676 2l.85.006.832.013.804.02.766.026.485.02.68.038.42.03.567.049.334.036.14.018.256.038.114.02.2.04c.182.044.304.09.356.14zM14.075 4.98c-.167-.323-.54-.46-.867-.331l-.08.037-.687.458-.42.276-.39.251-.529.332-.315.191-.285.168-.32.178-.358.185-.326.159-.363.168-.399.18-.435.188-.471.198-.966-.45-.632-.303-.552-.274-.323-.166-.289-.153-.232-.13-.402-.233-.467-.285-.532-.333-.81-.522c-.342-.185-.767-.05-.95.3-.17.325-.071.722.217.925l.992.626.605.373.363.218.481.283.28.158.265.143.468.24.553.27.417.196.453.209.752.338c.067.036.136.06.207.073.097.024.2.022.304-.015.04-.011.081-.027.12-.046l.058-.032.482-.21.659-.296.396-.183.363-.172.328-.16.294-.15.26-.138.247-.139.425-.252.32-.197.348-.222.578-.375.421-.28.451-.303c.342-.188.474-.622.293-.971z" transform="translate(8.000000, 8.000000)"/>
                        </g>
                    </g>
                </g>
            </g>
        </g>
    </g>
</svg>
