<svg xmlns="http://www.w3.org/2000/svg" width="48" height="48" viewBox="0 0 48 48">
    <g fill="none" fill-rule="evenodd">
        <g>
            <g>
                <g transform="translate(-569.000000, -168.000000) translate(326.000000, 81.000000) translate(243.000000, 87.000000)">
                    <circle cx="24" cy="24" r="23.5" fill="#F4F6FF" stroke="#7786FF"/>
                    <g fill="#7786FF" fill-rule="nonzero">
                        <path d="M8.507 12.067C9.535 12.661 10.728 13 12 13c1.26 0 2.442-.333 3.463-.915l.786.044c1.775.115 3.108.306 3.382.575.957.938 1.934 7.654.977 8.592-.958.939-16.332.939-17.289 0-.957-.938.498-7.654.977-8.592.165-.324 1.93-.536 4.21-.637zM12 1c2.761 0 5 2.239 5 5s-2.239 5-5 5-5-2.239-5-5 2.239-5 5-5z" transform="translate(12.000000, 12.000000)"/>
                    </g>
                </g>
            </g>
        </g>
    </g>
</svg>
