<svg xmlns="http://www.w3.org/2000/svg" width="32" height="32" viewBox="0 0 32 32">
    <g fill="none" fill-rule="evenodd">
        <g>
            <g>
                <g>
                    <g>
                        <g transform="translate(-833.000000, -167.000000) translate(326.000000, 81.000000) translate(243.000000, 78.000000) translate(8.000000, 0.000000) translate(256.000000, 8.000000)">
                            <circle cx="16" cy="16" r="15.5" fill="#FCFAF9" stroke="#D5DEE4"/>
                            <g fill="#D5DEE4">
                                <path d="M12.605 1.6c.853.376 1.253 1.362 1.228 2.392l.307.034c.535.062.91.128 1.06.195.338.149.569 1.12.693 2.409-.233-.06-.478-.093-.73-.093h-3.61c-1.596 0-2.889 1.28-2.889 2.86 0 1.578 1.293 2.858 2.888 2.858h3.61c.23 0 .452-.026.666-.076-.133 1.056-.342 1.864-.628 2.116-1.066.94-13.334.94-14.4 0C-.267 13.355-.267 5.16.8 4.22c.178-.157.67-.275 1.371-.36.053-.799.398-1.58 1.036-2.142 1.18-1.04 7.773-.836 9.398-.12zm2.557 6.367c.307 0 .592.095.826.257.022.779.014 1.592-.025 2.362-.23.152-.505.24-.8.24h-3.61c-.798 0-1.445-.64-1.445-1.43 0-.79.647-1.43 1.444-1.43h3.61zM4.167 2.787c-.286.251-.462.592-.528.954 2.544-.132 6.217-.041 8.752.131 0-.46-.13-.86-.374-.967-1.163-.512-7.191-.7-7.85-.119z" transform="translate(8.000000, 8.000000)"/>
                            </g>
                        </g>
                    </g>
                </g>
            </g>
        </g>
    </g>
</svg>
