<svg xmlns="http://www.w3.org/2000/svg" width="32" height="32" viewBox="0 0 32 32">
    <g fill="none" fill-rule="evenodd">
        <g>
            <g>
                <g>
                    <g transform="translate(-641.000000, -176.000000) translate(326.000000, 81.000000) translate(243.000000, 87.000000) translate(72.000000, 8.000000)">
                        <circle cx="16" cy="16" r="15.5" fill="#FCFAF9" stroke="#D5DEE4"/>
                        <g fill="#D5DEE4">
                            <path d="M12.9 9.65c1.16 0 2.1.927 2.1 2.069 0 .599-.259 1.138-.672 1.516l.432 2.127c.059.289-.132.57-.425.628-.132.026-.27.002-.385-.066l-.69-.408c-.222-.13-.498-.13-.72 0l-.69.408c-.257.151-.59.07-.743-.183-.07-.114-.093-.249-.067-.38l.432-2.126c-.413-.378-.672-.917-.672-1.516 0-1.142.94-2.068 2.1-2.068zm.31-9.12c.35.368.428 4.155.374 7.809-.22-.044-.45-.067-.684-.067-1.933 0-3.5 1.543-3.5 3.447l.005.181c.032.601.221 1.174.541 1.668l.023.033-.302 1.49c-.049.242-.05.488-.004.726l-.417.013c-3.233.092-7.328-.076-7.738-.505C.83 14.618.83 1.237 1.508.53c.677-.707 11.024-.707 11.701 0zM7.3 8.962H3.8l-.082.004c-.348.04-.618.331-.618.685 0 .353.27.645.618.685l.082.004h3.5l.082-.004c.348-.04.618-.332.618-.685 0-.38-.313-.69-.7-.69zm3.5-2.758h-7l-.082.005c-.348.04-.618.33-.618.684 0 .354.27.645.618.685l.082.005h7l.082-.005c.348-.04.618-.331.618-.685 0-.38-.313-.689-.7-.689zm0-2.757h-7l-.082.004c-.348.04-.618.332-.618.685 0 .354.27.645.618.685l.082.004h7l.082-.004c.348-.04.618-.331.618-.685 0-.38-.313-.69-.7-.69z" transform="translate(8.000000, 8.000000)"/>
                        </g>
                    </g>
                </g>
            </g>
        </g>
    </g>
</svg>
