<svg width="22" height="22" viewBox="0 0 22 22" fill="none" xmlns="http://www.w3.org/2000/svg">
<path fill-rule="evenodd" clip-rule="evenodd" d="M17.8215 0.698736C18.282 1.18271 18.3837 6.17335 18.3129 10.9884C18.0233 10.9302 17.7235 10.9003 17.4166 10.9003C14.8853 10.9003 12.8333 12.9337 12.8333 15.4421L12.8396 15.6809C12.8813 16.4732 13.1298 17.2274 13.5483 17.879L13.5786 17.9228L13.1833 19.8864C13.1192 20.2044 13.1181 20.5287 13.1771 20.8422L12.6318 20.86C8.39855 20.981 3.03608 20.7587 2.49821 20.1935C1.61168 19.2618 1.61168 1.63039 2.49821 0.698736C3.38475 -0.232912 16.9349 -0.232912 17.8215 0.698736ZM17.4166 12.717C18.9354 12.717 20.1666 13.9371 20.1666 15.4421C20.1666 16.2313 19.8281 16.9422 19.287 17.4398L19.8522 20.2425C19.929 20.6231 19.6799 20.9934 19.2957 21.0696C19.1227 21.1039 18.943 21.073 18.7916 20.9831L17.8883 20.4459C17.598 20.2733 17.2353 20.2733 16.945 20.4459L16.0416 20.9831C15.7057 21.1828 15.27 21.0748 15.0684 20.742C14.9776 20.592 14.9465 20.4139 14.9811 20.2425L15.5463 17.4398C15.0052 16.9422 14.6666 16.2313 14.6666 15.4421C14.6666 13.9371 15.8979 12.717 17.4166 12.717ZM5.49998 11.8086H10.0833C10.5896 11.8086 11 12.2153 11 12.717C11 13.1828 10.6461 13.5668 10.1902 13.6192L10.0833 13.6254H5.49998L5.39308 13.6192C4.93718 13.5668 4.58331 13.1828 4.58331 12.717C4.58331 12.2512 4.93718 11.8672 5.39308 11.8148L5.49998 11.8086ZM14.6666 8.17522H5.49998L5.39308 8.18133C4.93718 8.2338 4.58331 8.61774 4.58331 9.08357C4.58331 9.54941 4.93718 9.93335 5.39308 9.98582L5.49998 9.99193H14.6666L14.7735 9.98582C15.2294 9.93335 15.5833 9.54941 15.5833 9.08357C15.5833 8.5819 15.1729 8.17522 14.6666 8.17522ZM5.49998 4.54179H14.6666C15.1729 4.54179 15.5833 4.94847 15.5833 5.45014C15.5833 5.91598 15.2294 6.29992 14.7735 6.35239L14.6666 6.3585H5.49998L5.39308 6.35239C4.93718 6.29992 4.58331 5.91598 4.58331 5.45014C4.58331 4.98431 4.93718 4.60037 5.39308 4.5479L5.49998 4.54179Z" fill="#7786FF"/>
</svg>
