<svg width="24" height="21" viewBox="0 0 24 21" fill="none" xmlns="http://www.w3.org/2000/svg">
<path d="M5.55412 0.00183105H6.76979L8.57836 0.0207993L9.97819 0.0489817C12.6772 0.116867 14.7171 0.253346 15.1028 0.448828C15.7892 0.796785 15.9714 2.37942 15.9972 5.44385L15.9984 5.61504L16.5784 5.6208L17.9782 5.64898C20.6772 5.71687 22.7171 5.85335 23.1028 6.04883C23.7892 6.39678 23.9714 7.97942 23.9972 11.0438L24.0001 12.2287C23.9898 15.3172 23.817 17.372 23.3106 17.8855C22.8167 18.3863 20.3272 18.5776 16.6878 18.5904L16.3819 18.591L15.3862 18.5877L15.2733 18.7101C15.2167 18.7753 15.1565 18.8487 15.0828 18.9424L15.0043 19.0434L14.4975 19.7122C14.3915 19.8507 14.3117 19.9518 14.2363 20.0425L14.1093 20.1903L14.0012 20.3094C13.6849 20.6475 13.4332 20.8126 13.0364 20.8035C12.5729 20.7926 12.2229 20.5397 11.8728 20.1235C11.7086 19.9283 11.5471 19.6968 11.3715 19.414L11.2643 19.2381L10.7934 18.4221L10.3436 18.3813C9.5566 18.3017 9.10058 18.1979 8.81342 17.9905L8.74505 17.9365L8.69062 17.8855C8.30241 17.4919 8.07801 15.5161 8.01742 13.2932L8.01019 12.9898L7.38621 12.9877L7.27333 13.1101C7.21669 13.1753 7.1565 13.2487 7.08284 13.3424L7.00432 13.4434L6.49748 14.1122C6.3915 14.2507 6.31168 14.3518 6.23625 14.4425L6.10926 14.5903L6.00116 14.7094C5.68489 15.0475 5.43324 15.2126 5.03638 15.2035C4.5729 15.1926 4.2229 14.9397 3.8728 14.5235C3.70859 14.3283 3.54709 14.0968 3.37149 13.814L3.2643 13.6381L2.79341 12.8221L2.34364 12.7813C1.5566 12.7017 1.10058 12.5979 0.813417 12.3905L0.74505 12.3365L0.690621 12.2855C-0.229393 11.3527 -0.229393 1.53336 0.690621 0.600601C1.11526 0.170079 2.68819 0.0186112 5.55412 0.00183105ZM11.8484 7.245L11.3453 7.26636L10.9247 7.29009C10.8586 7.29435 10.7945 7.29876 10.7325 7.30331L10.386 7.33237L10.0914 7.36485L9.90619 7.39139L9.82855 7.40482L9.79261 7.4125L9.77901 7.46368C9.54724 8.53995 9.5413 15.1653 9.76118 16.5261L9.77901 16.6224L9.79421 16.6805L9.91471 16.7046L10.1492 16.7422C10.2928 16.7626 10.4585 16.7821 10.6446 16.8006L10.8374 16.8187L11.2622 16.8528C11.5049 16.8703 11.6623 16.965 11.8039 17.0996C11.8624 17.1551 11.9121 17.2144 11.9623 17.2829L12.0108 17.3518L12.0616 17.4292L12.1924 17.6455L12.6372 18.4164L12.724 18.5591L12.8849 18.8082L12.9593 18.9149L13.023 18.9997L13.1809 18.7995L13.7522 18.0469L13.9159 17.8393C13.9658 17.7777 14.0121 17.7222 14.0583 17.6689L14.1279 17.5901L14.2338 17.4753C14.5445 17.1488 14.8001 16.9831 15.1877 16.9863L16.0667 16.9896C17.5281 16.9887 18.9543 16.9554 20.0933 16.8933L20.6003 16.8625C21.0822 16.8298 21.4872 16.7918 21.7998 16.7495L22.0202 16.7163L22.1294 16.6965L22.1758 16.4352C22.1899 16.3446 22.2034 16.2451 22.2165 16.1372L22.254 15.7889L22.2881 15.3937C22.3537 14.5412 22.3924 13.4505 22.3994 12.3088V11.5452L22.3901 10.7989C22.3762 10.0666 22.3487 9.38257 22.3091 8.80173L22.2883 8.52015L22.2719 8.32714C22.2438 8.01518 22.212 7.75255 22.1778 7.5485L22.1598 7.4461L21.9228 7.426C21.0556 7.36219 19.0828 7.27316 17.0492 7.23051L16.2165 7.21582L15.2171 7.20582L13.9883 7.205C13.199 7.20903 12.4748 7.22228 11.8484 7.245ZM19.2001 12.4004C19.6419 12.4004 20.0001 12.7585 20.0001 13.2004C20.0001 13.6106 19.6913 13.9488 19.2934 13.995L19.2001 14.0004H12.8001C12.3583 14.0004 12.0001 13.6422 12.0001 13.2004C12.0001 12.7901 12.3089 12.452 12.7068 12.4057L12.8001 12.4004H19.2001ZM3.84836 1.645L3.34526 1.66636L2.92467 1.69009C2.85858 1.69435 2.79452 1.69876 2.73254 1.70331L2.38596 1.73237L2.09142 1.76485L1.90619 1.79139L1.82855 1.80482L1.79261 1.8125L1.779 1.86368C1.54724 2.93995 1.5413 9.56528 1.76118 10.9261L1.779 11.0224L1.79421 11.0805L1.91471 11.1046L2.14918 11.1422C2.29282 11.1626 2.45855 11.1821 2.64463 11.2006L2.83743 11.2187L3.26221 11.2528C3.50492 11.2703 3.66232 11.365 3.80391 11.4996C3.86236 11.5551 3.91206 11.6144 3.96226 11.6829L4.01079 11.7518L4.0616 11.8292L4.19241 12.0455L4.63719 12.8164L4.72403 12.9591L4.88491 13.2082L4.95935 13.3149L5.02301 13.3997L5.18092 13.1995L5.7522 12.4469L5.91585 12.2393C5.96576 12.1777 6.01214 12.1222 6.05834 12.0689L6.12791 11.9901L6.23379 11.8753C6.54454 11.5488 6.80008 11.3831 7.18768 11.3863L8.0052 11.3897C8.01846 10.4347 8.06123 9.50115 8.13346 8.69227L8.1614 8.40016L4.80011 8.40037C4.35829 8.40037 4.00011 8.04219 4.00011 7.60037C4.00011 7.1901 4.30895 6.85196 4.70682 6.80575L4.80011 6.80037L8.42255 6.7994C8.49992 6.51202 8.58974 6.30288 8.69062 6.2006C9.11526 5.77008 10.6882 5.61861 13.5541 5.60183L14.3947 5.60054C14.3867 4.83269 14.3633 4.1052 14.3265 3.47753L14.2883 2.92015L14.2719 2.72714C14.2438 2.41518 14.212 2.15255 14.1778 1.94851L14.1598 1.8461L13.9228 1.82601C13.0556 1.76219 11.0828 1.67317 9.04916 1.63051L8.21649 1.61582L7.21706 1.60582L5.98833 1.605C5.199 1.60903 4.47477 1.62228 3.84836 1.645ZM19.2001 9.20037C19.6419 9.20037 20.0001 9.55854 20.0001 10.0004C20.0001 10.4106 19.6913 10.7488 19.2934 10.795L19.2001 10.8004H12.8001C12.3583 10.8004 12.0001 10.4422 12.0001 10.0004C12.0001 9.5901 12.3089 9.25196 12.7068 9.20575L12.8001 9.20037H19.2001ZM11.2001 3.60037C11.6419 3.60037 12.0001 3.95854 12.0001 4.40037C12.0001 4.81064 11.6913 5.14877 11.2934 5.19498L11.2001 5.20037H4.80011C4.35829 5.20037 4.00011 4.84219 4.00011 4.40037C4.00011 3.9901 4.30895 3.65196 4.70682 3.60575L4.80011 3.60037H11.2001Z" fill="#979BBA"/>
</svg>
