<svg width="22" height="22" viewBox="0 0 22 22" fill="none" xmlns="http://www.w3.org/2000/svg">
<path d="M5.09127 1.83502H6.20564L7.86349 1.85241L9.14667 1.87824C11.6208 1.94047 13.4907 2.06558 13.8442 2.24477C14.4734 2.56373 14.6404 4.01448 14.6641 6.82354L14.6652 6.98046L15.1968 6.98574L16.48 7.01158C18.9541 7.0738 20.824 7.19891 21.1775 7.3781C21.8067 7.69706 21.9737 9.14781 21.9974 11.9569L22.0001 13.043C21.9907 15.8741 21.8323 17.7577 21.368 18.2284C20.9153 18.6874 18.6332 18.8628 15.2972 18.8745L15.0167 18.8751L14.104 18.8721L14.0005 18.9843C13.9486 19.044 13.8934 19.1113 13.8259 19.1972L13.754 19.2898L13.2893 19.9029C13.1922 20.0298 13.119 20.1225 13.0499 20.2056L12.9335 20.3411L12.8344 20.4503C12.5445 20.7602 12.3138 20.9116 11.95 20.9032C11.5251 20.8932 11.2043 20.6614 10.8834 20.2799C10.7329 20.1009 10.5848 19.8888 10.4239 19.6295L10.3256 19.4682L9.89395 18.7203L9.48166 18.6829C8.76021 18.6099 8.34219 18.5148 8.07895 18.3247L8.01629 18.2751L7.96639 18.2284C7.61053 17.8676 7.40483 16.0564 7.34929 14.0188L7.34267 13.7407L6.77068 13.7387L6.66721 13.8509C6.61529 13.9107 6.56012 13.978 6.49259 14.0639L6.42062 14.1565L5.95601 14.7695C5.85887 14.8965 5.7857 14.9892 5.71655 15.0723L5.60015 15.2078L5.50105 15.317C5.21114 15.6269 4.98046 15.7783 4.61667 15.7699C4.19181 15.7599 3.87098 15.528 3.55006 15.1465C3.39953 14.9676 3.25149 14.7554 3.09052 14.4962L2.99227 14.3349L2.56062 13.5869L2.14833 13.5495C1.42688 13.4766 1.00885 13.3814 0.745622 13.1913L0.682953 13.1418L0.63306 13.095C-0.210287 12.24 -0.210287 3.23892 0.63306 2.38389C1.02231 1.98925 2.46416 1.8504 5.09127 1.83502ZM10.861 8.4746L10.3998 8.49417L10.0143 8.51593C9.95369 8.51983 9.89497 8.52387 9.83815 8.52804L9.52046 8.55468L9.25046 8.58445L9.08066 8.60878L9.00949 8.62109L8.97655 8.62813L8.96408 8.67505C8.75163 9.66163 8.74618 15.7348 8.94774 16.9823L8.96408 17.0706L8.97802 17.1238L9.08847 17.1459L9.3034 17.1804C9.43508 17.1991 9.58699 17.217 9.75756 17.2339L9.9343 17.2505L10.3237 17.2817C10.5462 17.2978 10.6905 17.3846 10.8202 17.5079C10.8738 17.5589 10.9194 17.6132 10.9654 17.676L11.0099 17.7392L11.0565 17.8101L11.1764 18.0084L11.5841 18.715L11.6637 18.8458L11.8112 19.0742L11.8794 19.172L11.9377 19.2497L12.0825 19.0662L12.6062 18.3763L12.7562 18.186C12.8019 18.1295 12.8445 18.0787 12.8868 18.0298L12.9506 17.9576L13.0476 17.8524C13.3325 17.5531 13.5667 17.4012 13.922 17.4041L14.7278 17.4072C16.0674 17.4063 17.3747 17.3758 18.4189 17.3189L18.8836 17.2906C19.3253 17.2607 19.6966 17.2258 19.9832 17.187L20.1852 17.1566L20.2853 17.1385L20.3278 16.899C20.3407 16.8159 20.3531 16.7247 20.3651 16.6258L20.3995 16.3065L20.4307 15.9442C20.4909 15.1628 20.5263 14.163 20.5328 13.1164V12.4164L20.5242 11.7323C20.5115 11.0611 20.4863 10.434 20.45 9.90159L20.4309 9.64348L20.4159 9.46655C20.3901 9.18059 20.361 8.93985 20.3296 8.75281L20.3131 8.65893L20.0959 8.64051C19.3009 8.58202 17.4925 8.50041 15.6284 8.46131L14.8651 8.44785L13.949 8.43868L12.8226 8.43793C12.0991 8.44162 11.4352 8.45376 10.861 8.4746ZM17.6001 13.2003C18.0051 13.2003 18.3334 13.5287 18.3334 13.9337C18.3334 14.3098 18.0503 14.6197 17.6856 14.6621L17.6001 14.667H11.7334C11.3284 14.667 11.0001 14.3387 11.0001 13.9337C11.0001 13.5576 11.2832 13.2476 11.6479 13.2053L11.7334 13.2003H17.6001ZM3.52765 3.34126L3.06648 3.36084L2.68094 3.3826C2.62035 3.3865 2.56163 3.39054 2.50482 3.39471L2.18712 3.42135L1.91712 3.45112L1.74733 3.47545L1.67616 3.48776L1.64322 3.4948L1.63074 3.54172C1.4183 4.5283 1.41285 10.6015 1.6144 11.8489L1.63074 11.9372L1.64468 11.9905L1.75514 12.0126L1.97007 12.0471C2.10175 12.0657 2.25366 12.0836 2.42423 12.1006L2.60097 12.1172L2.99035 12.1484C3.21283 12.1645 3.35712 12.2513 3.48691 12.3746C3.54049 12.4255 3.58605 12.4798 3.63206 12.5427L3.67655 12.6059L3.72312 12.6768L3.84303 12.875L4.25075 13.5817L4.33035 13.7125L4.47783 13.9409L4.54606 14.0387L4.60442 14.1164L4.74917 13.9328L5.27284 13.243L5.42286 13.0527C5.4686 12.9962 5.51112 12.9454 5.55346 12.8965L5.61724 12.8243L5.7143 12.7191C5.99915 12.4198 6.2334 12.2679 6.5887 12.2708L7.33809 12.2739C7.35024 11.3985 7.38945 10.5427 7.45567 9.80126L7.48128 9.53349L4.40009 9.53368C3.99509 9.53368 3.66676 9.20535 3.66676 8.80035C3.66676 8.42427 3.94986 8.11431 4.31457 8.07195L4.40009 8.06701L7.72066 8.06612C7.79158 7.80269 7.87392 7.61099 7.96639 7.51723C8.35565 7.12258 9.7975 6.98374 12.4246 6.96835L13.1951 6.96718C13.1878 6.26331 13.1663 5.59644 13.1326 5.02108L13.0976 4.51015L13.0825 4.33322C13.0568 4.04726 13.0277 3.80651 12.9963 3.61947L12.9798 3.5256L12.7625 3.50718C11.9676 3.44869 10.1592 3.36708 8.29505 3.32797L7.53177 3.31451L6.61562 3.30535L5.48929 3.30459C4.76574 3.30829 4.10186 3.32043 3.52765 3.34126ZM17.6001 10.267C18.0051 10.267 18.3334 10.5953 18.3334 11.0003C18.3334 11.3764 18.0503 11.6864 17.6856 11.7287L17.6001 11.7337H11.7334C11.3284 11.7337 11.0001 11.4054 11.0001 11.0003C11.0001 10.6243 11.2832 10.3143 11.6479 10.2719L11.7334 10.267H17.6001ZM10.2668 5.13368C10.6718 5.13368 11.0001 5.462 11.0001 5.86701C11.0001 6.24309 10.717 6.55305 10.3523 6.59541L10.2668 6.60035H4.40009C3.99509 6.60035 3.66676 6.27202 3.66676 5.86701C3.66676 5.49093 3.94986 5.18097 4.31457 5.13861L4.40009 5.13368H10.2668Z" fill="#979BBA"/>
</svg>
