<svg width="25" height="19" viewBox="0 0 25 19" fill="none" xmlns="http://www.w3.org/2000/svg">
<path d="M13.53 18.5C13.53 18.5 15.03 18.5 15.03 17C15.03 15.5 13.53 11 7.53003 11C1.53003 11 0.0300293 15.5 0.0300293 17C0.0300293 18.5 1.53003 18.5 1.53003 18.5H13.53ZM7.53003 9.5C6.33656 9.5 5.19196 9.02589 4.34805 8.18198C3.50413 7.33807 3.03003 6.19347 3.03003 5C3.03003 3.80653 3.50413 2.66193 4.34805 1.81802C5.19196 0.974106 6.33656 0.5 7.53003 0.5C8.7235 0.5 9.8681 0.974106 10.712 1.81802C11.5559 2.66193 12.03 3.80653 12.03 5C12.03 6.19347 11.5559 7.33807 10.712 8.18198C9.8681 9.02589 8.7235 9.5 7.53003 9.5Z" fill="#979BBA"/>
<path fill-rule="evenodd" clip-rule="evenodd" d="M16.206 18.5C16.4284 18.0317 16.5393 17.5183 16.53 17C16.53 14.9675 15.51 12.875 13.626 11.42C14.5664 11.1303 15.5461 10.9886 16.53 11C22.53 11 24.03 15.5 24.03 17C24.03 18.5 22.53 18.5 22.53 18.5H16.206Z" fill="#979BBA"/>
<path d="M17.28 9.5C16.2855 9.5 15.3316 9.10491 14.6284 8.40165C13.9251 7.69839 13.53 6.74456 13.53 5.75C13.53 4.75544 13.9251 3.80161 14.6284 3.09835C15.3316 2.39509 16.2855 2 17.28 2C18.2746 2 19.2284 2.39509 19.9317 3.09835C20.6349 3.80161 21.03 4.75544 21.03 5.75C21.03 6.74456 20.6349 7.69839 19.9317 8.40165C19.2284 9.10491 18.2746 9.5 17.28 9.5Z" fill="#979BBA"/>
</svg>
