<svg width="16" height="14" viewBox="0 0 16 14" fill="none" xmlns="http://www.w3.org/2000/svg">
<path fill-rule="evenodd" clip-rule="evenodd" d="M8.81664 0.00602162L7.99653 0L7.17668 0.00584154L6.36773 0.0238876L6.36143 0.0240775C6.22804 0.0280975 6.09552 0.0325923 5.96412 0.0376225L5.19803 0.0735144L5.19069 0.073926C5.06457 0.0809903 4.93997 0.0885205 4.81713 0.0966125L4.1121 0.150621L4.10263 0.15146C3.41727 0.212125 2.7953 0.292714 2.29839 0.396933C2.05067 0.44889 1.81619 0.510355 1.61269 0.585296C1.42862 0.653085 1.18607 0.761143 0.99523 0.946376C0.76564 1.16922 0.626547 1.46308 0.533588 1.72133C0.435094 1.99495 0.35849 2.3154 0.296715 2.66409L0.295238 2.67242L0.228475 3.10134L0.227463 3.10874C0.216857 3.18626 0.206607 3.26555 0.196864 3.34654L0.143332 3.85278L0.0988747 4.40098L0.0628882 4.98964L0.034994 5.61214L0.0142903 6.27912L0 7.05125L0.0118419 7.74067L0.0315847 8.41177L0.0317952 8.41752C0.0357496 8.52564 0.0400106 8.63182 0.0446641 8.73605L0.0770846 9.33883L0.118232 9.8842L0.119154 9.89461C0.185102 10.6392 0.284886 11.2814 0.444104 11.7843C0.591225 12.249 0.850975 12.7982 1.38693 13.0583C1.62822 13.1754 1.9672 13.2439 2.27626 13.2933L2.28323 13.2944L2.64449 13.3457L3.06056 13.3933L3.5213 13.4364L4.02501 13.4752L4.84759 13.5247L5.73813 13.5635L6.37121 13.5833L7.02372 13.5977L7.69341 13.6065L8.77385 13.6085L8.77951 13.6084C9.65079 13.6039 10.5371 13.5844 11.3975 13.5476L12.0176 13.5167L12.024 13.5163C12.4282 13.4929 12.9366 13.4156 13.4183 13.277C13.8735 13.146 14.4262 12.9267 14.8077 12.5491C15.1838 12.1768 15.4182 11.631 15.565 11.1661C15.7197 10.6759 15.8155 10.1487 15.8509 9.70896L15.8512 9.70414L15.8846 9.25527L15.9138 8.79317L15.9547 7.99495L15.9829 7.22545L15.998 6.49897L16 5.81896L15.9999 5.81104C15.9984 5.58818 15.9947 5.37181 15.9887 5.16219L15.9645 4.56398L15.9639 4.55347C15.9195 3.72597 15.8335 3.00413 15.6962 2.42159C15.567 1.87369 15.363 1.31234 14.986 0.946377C14.7819 0.748336 14.5157 0.636093 14.316 0.566501C14.0927 0.488701 13.8324 0.42492 13.5547 0.371118C12.9975 0.263145 12.2967 0.18142 11.5271 0.122445L10.7908 0.0739075L10.024 0.0379186L10.0171 0.0376525C9.88566 0.0326223 9.75315 0.0280731 9.61975 0.0240531L8.81664 0.00602162ZM7.98465 1.61792L7.99059 1.61796L7.19462 1.6238L7.20068 1.62367L7.18262 0.814891L7.18856 1.62385L7.19462 1.6238L6.40703 1.6414L6.41017 1.6413L6.3858 0.832691L6.40387 1.64147L6.40703 1.6414C6.28016 1.64523 6.15423 1.64953 6.02947 1.6543L6.03296 1.65413L5.99507 0.84604L6.02602 1.65443L6.02947 1.6543L5.27751 1.68956L5.28117 1.68935L5.23593 0.88164L5.27382 1.68973L5.27751 1.68956C5.15921 1.6962 5.04258 1.70329 4.92781 1.71084L4.93217 1.7105L4.87031 0.90389L4.92349 1.71112L4.92781 1.71084L4.24059 1.76354L4.24529 1.76312L4.17396 0.957289L4.23582 1.7639L4.24059 1.76354C3.58741 1.82147 3.03788 1.895 2.63051 1.98044C2.42561 2.02341 2.27444 2.06578 2.17182 2.10357C2.14899 2.11198 2.13098 2.11929 2.11717 2.12527C2.1242 2.11186 2.12922 2.1035 2.13179 2.09921C2.13319 2.09688 2.13387 2.09575 2.13376 2.09567C2.13365 2.09559 2.13285 2.09643 2.13129 2.09807C2.12939 2.10007 2.12636 2.10326 2.1221 2.10739C2.10085 2.12802 2.08534 2.13894 2.08081 2.14212C2.0799 2.14277 2.07944 2.14309 2.07946 2.14313C2.07948 2.14316 2.08003 2.14287 2.08118 2.14226C2.08521 2.14015 2.09649 2.13421 2.11717 2.12527C2.10341 2.15151 2.08192 2.19709 2.05592 2.26932C2.0004 2.42356 1.94383 2.64359 1.89131 2.93821L1.89264 2.92964L1.09329 2.80521L1.88987 2.94634L1.89131 2.93821L1.8295 3.33531L1.83049 3.32803L1.02898 3.21838L1.82833 3.34281L1.8295 3.33531C1.82075 3.39959 1.81225 3.46586 1.80401 3.5341L1.80463 3.52824L1.00014 3.44317L1.80333 3.5398L1.80401 3.5341L1.7544 4.00326L1.7552 3.99341L0.948866 3.92802L1.75336 4.01309L1.7544 4.00326L1.71284 4.51575L1.71333 4.50773L0.905857 4.45836L1.71219 4.52376L1.71284 4.51575L1.67864 5.07513L1.67894 5.0685L0.870766 5.03239L1.67824 5.08175L1.67864 5.07513L1.65167 5.67882L1.65184 5.67328L0.843259 5.64826L1.65142 5.68437L1.65167 5.67882L1.63169 6.32415L1.63179 6.31912L0.822946 6.30415L1.63154 6.32917L1.63169 6.32415L1.61822 7.05226L1.61797 7.03779L0.80911 7.05175L1.61795 7.06672L1.61822 7.05226L1.62954 7.70782L1.62939 7.70289L0.820779 7.72671L1.62962 7.71274L1.62954 7.70782L1.64878 8.36125L1.64867 8.35839L0.840295 8.38795L1.64886 8.36414L1.64878 8.36125C1.65251 8.46301 1.65654 8.56267 1.66088 8.66022L1.66069 8.65652L0.852873 8.69997L1.66105 8.66388L1.66088 8.66022L1.69177 9.23441L1.69111 9.22565L0.884426 9.28662L1.69224 9.24317L1.69177 9.23441L1.73126 9.75701L1.7308 9.75186L0.924979 9.82324L1.73166 9.76227L1.73126 9.75701C1.79365 10.4591 1.88082 10.9618 1.9866 11.2959C2.04858 11.4917 2.10107 11.5792 2.12323 11.6114C2.10607 11.6063 2.09587 11.6028 2.09142 11.6013C2.08964 11.6007 2.08877 11.6004 2.08875 11.6004L2.09333 11.6027C2.11419 11.6128 2.12644 11.6217 2.13161 11.6254C2.13344 11.6267 2.13438 11.6274 2.13451 11.6273C2.13464 11.6272 2.13385 11.6261 2.1322 11.6239C2.13031 11.6214 2.12727 11.6173 2.12323 11.6114C2.13954 11.6163 2.16214 11.6226 2.19209 11.6299C2.27369 11.65 2.38395 11.6719 2.52483 11.6945L2.51767 11.6935L2.40395 12.4945L2.53163 11.6956L2.52483 11.6945L2.85011 11.7407L2.83916 11.7395L2.7473 12.5432L2.86103 11.7423L2.85011 11.7407L3.22776 11.7839L3.2195 11.7831L3.14417 12.5886L3.23603 11.7848L3.22776 11.7839L3.65878 11.8242L3.65218 11.8237L3.59004 12.6303L3.66537 11.8248L3.65878 11.8242L4.13579 11.8609L4.12904 11.8605L4.0804 12.668L4.14254 11.8615L4.13579 11.8609L4.9314 11.9089L4.92462 11.9086L4.88948 12.7168L4.93812 11.9093L4.9314 11.9089L5.80341 11.9468L5.79851 11.9466L5.77327 12.7552L5.80841 11.947L5.80341 11.9468L6.41802 11.966L6.41426 11.9659L6.39644 12.7747L6.42168 11.9661L6.41802 11.966L7.0558 11.98L7.05216 11.98L7.04154 12.7889L7.05935 11.9801L7.0558 11.98L7.71006 11.9886L7.70546 11.9886L7.70404 12.7976L7.71466 11.9887L7.71006 11.9886L8.77393 11.9905L8.77104 11.9905L8.77528 12.7995L8.7767 11.9905L8.77393 11.9905C9.62548 11.986 10.4894 11.967 11.3254 11.9312L11.3226 11.9314L11.3629 12.7393L11.3283 11.9311L11.3254 11.9312L11.9336 11.9009L11.9306 11.901L11.9773 12.7087L11.9369 11.9007L11.9336 11.9009C12.2267 11.8837 12.6142 11.8248 12.9707 11.7222C13.355 11.6116 13.5841 11.4838 13.6694 11.3993C13.76 11.3096 13.8978 11.0726 14.022 10.6791C14.138 10.3118 14.2117 9.90613 14.2379 9.58187L14.2377 9.5843L15.0445 9.64422L14.2381 9.57947L14.2379 9.58187L14.2707 9.13995L14.2704 9.14442L15.0778 9.19534L14.2711 9.13542L14.2707 9.13995L14.2987 8.69617L14.2985 8.70095L15.1064 8.74224L14.299 8.69132L14.2987 8.69617L14.3385 7.91818L14.3383 7.92399L15.1467 7.95365L14.3388 7.91235L14.3385 7.91818L14.3656 7.17903L14.3655 7.18546L15.1743 7.20223L14.3658 7.17257L14.3656 7.17903L14.3801 6.47987L14.3801 6.48709L15.189 6.48942L14.3802 6.47265L14.3801 6.47987L14.382 5.81825L14.382 5.82222L15.191 5.81663L14.382 5.8143L14.382 5.81825C14.3805 5.6094 14.377 5.40767 14.3715 5.21324L14.3717 5.21813L15.18 5.18529L14.3714 5.20839L14.3715 5.21324L14.348 4.63502L14.3483 4.64017L15.1561 4.59682L14.3478 4.62967L14.348 4.63502C14.3062 3.85971 14.2279 3.24472 14.1214 2.79281C14.0682 2.56702 14.0116 2.39797 13.9575 2.27734C13.9309 2.21793 13.9072 2.17557 13.8885 2.14672C13.8848 2.141 13.8814 2.13599 13.8783 2.13165C13.8876 2.13594 13.8937 2.13901 13.897 2.14067C13.8989 2.14166 13.8999 2.14214 13.8999 2.14207C13.9 2.142 13.8992 2.14145 13.8978 2.14037C13.8925 2.13653 13.8783 2.12605 13.8591 2.10739L13.8591 2.1074C13.8594 2.10774 13.8663 2.11467 13.8783 2.13165C13.8602 2.12335 13.8299 2.11047 13.7837 2.09437C13.6611 2.05165 13.4834 2.00536 13.2469 1.95953C12.7767 1.86842 12.1461 1.79274 11.4078 1.73605L11.4121 1.73633L11.4653 0.929106L11.4035 1.73572L11.4078 1.73605L10.6997 1.68937L10.7074 1.68973L10.7453 0.88164L10.692 1.68887L10.6997 1.68937L9.95172 1.6543L9.95517 1.65443L9.98612 0.846041L9.94822 1.65413L9.95172 1.6543C9.82696 1.64953 9.70103 1.64523 9.57415 1.6414L9.57732 1.64147L9.59539 0.832691L9.57102 1.6413L9.57415 1.6414L8.78657 1.6238L8.79263 1.62385L8.79857 0.814891L8.7805 1.62367L8.78657 1.6238L7.99059 1.61796L7.99653 1.61792L7.99059 0.808943L7.98465 1.61792ZM12.4869 3.34809C12.8983 3.16152 13.3433 3.37504 13.5287 3.78871C13.7216 4.21915 13.5951 4.7705 13.202 5.02626L12.8232 5.32065L12.822 5.32157L12.4584 5.60026L11.9602 5.9742L11.6585 6.19486L11.3806 6.39309L11.011 6.64624L10.7942 6.78671L10.5673 6.92593L10.3118 7.07575L10.0274 7.23632L9.71408 7.40773L9.37122 7.59027L8.80338 7.88405L8.39955 8.08798L8.35016 8.11956C8.30574 8.14485 8.25938 8.16519 8.21177 8.18101C8.0806 8.23222 7.94664 8.23697 7.82075 8.20232C7.73943 8.18468 7.66048 8.15307 7.58634 8.10794L6.94619 7.77514L6.55465 7.56678L6.19467 7.37094L5.71546 7.10151L5.30895 6.86106L5.07806 6.71676L4.83439 6.55797L4.41835 6.2764L4.10539 6.05848L3.58386 5.68726L2.72247 5.06021C2.38796 4.7881 2.29021 4.28136 2.47358 3.87589C2.67588 3.42858 3.18273 3.2126 3.61201 3.48098L3.61967 3.48576L4.32198 4.00765L4.77643 4.33651L5.1743 4.61578L5.51545 4.84545L5.71039 4.97042L5.95472 5.12018L6.22985 5.28321L6.70097 5.55296L7.24054 5.85194L7.96716 6.24265L8.26717 6.09681L8.63818 5.91117L8.97776 5.73557L9.2858 5.57011L9.56189 5.41509L9.86315 5.23548L10.1323 5.06232L10.3734 4.89912L10.641 4.71165L11.0926 4.3846L11.4249 4.13751L11.4264 4.1364L11.7841 3.86585L11.7857 3.86466L12.388 3.40086L12.4798 3.35131L12.4869 3.34809Z" fill="#979BBA"/>
</svg>
