<svg width="18" height="21" viewBox="0 0 18 21" fill="none" xmlns="http://www.w3.org/2000/svg">
<path fill-rule="evenodd" clip-rule="evenodd" d="M11.1205 1.33922C11.0809 1.3271 11.0409 1.31535 11.0008 1.30396L10.8752 1.30312C10.5923 0.542149 9.85948 0 9 0C8.14089 0 7.4083 0.54168 7.12512 1.30214L6.99983 1.30233C3.77433 2.2123 1.9254 5.49129 1.9254 8.36V11.4971L1.91697 11.6846C1.87221 12.1806 1.65063 12.6429 1.28805 12.9629L0.650696 13.5286L0.530619 13.6482C-0.191118 14.4299 -0.176586 15.6513 0.574214 16.4086C0.83896 16.6756 1.02652 16.7578 1.3818 16.8513L2.1445 17.0399C2.67412 17.156 3.43138 17.239 4.41628 17.2889C5.18795 19.0545 6.94989 20.2883 9 20.2883C11.0501 20.2883 12.812 19.0545 13.5837 17.2889C13.6903 17.2788 13.7941 17.2688 13.895 17.2588L14.4661 17.1993L14.9686 17.141L15.4024 17.0838L15.7677 17.0277L16.1377 16.9593C16.7494 16.8379 17.1199 16.7171 17.4258 16.4086C18.2161 15.6114 18.1906 14.3 17.3493 13.5286L16.712 12.9629L16.5827 12.8296C16.2559 12.4622 16.0746 12 16.0746 11.4971V8.36L16.0737 8.30216C15.6552 8.43077 15.2107 8.5 14.75 8.5C14.5204 8.5 14.2949 8.48281 14.0746 8.44965V11.4971L14.0815 11.7348C14.1414 12.7593 14.5875 13.7066 15.3378 14.416L15.994 15C13.6894 15.1922 11.3847 15.2883 9.08 15.2883C6.77528 15.2883 4.41661 15.1922 2.004 15L2.6157 14.4586L2.77868 14.3059C3.51595 13.5724 3.9254 12.5544 3.9254 11.4971V8.36L3.92955 8.14651C4.03432 5.44987 6.112 3.05714 8.80879 3.05714H9.19121L9.4022 3.06211C9.71808 3.077 10.0249 3.12515 10.3204 3.20297C10.4434 2.51481 10.7228 1.88087 11.1205 1.33922ZM6.764 17.2883H11.235L11.1033 17.4275C10.5619 17.9599 9.81932 18.2883 9 18.2883L8.82373 18.2833C8.00716 18.2359 7.27821 17.862 6.764 17.2883Z" fill="#979BBA"/>
</svg>
