<svg width="16" height="16" viewBox="0 0 16 16" fill="none" xmlns="http://www.w3.org/2000/svg">
  <g clip-path="url(#clip0_819_88443)">
    <path d="M8 -3.49691e-07C5.87827 -2.56947e-07 3.84344 0.842854 2.34315 2.34315C0.842854 3.84344 -4.42435e-07 5.87827 -3.49691e-07 8C-2.56947e-07 10.1217 0.842855 12.1566 2.34315 13.6569C3.84344 15.1571 5.87827 16 8 16C10.1217 16 12.1566 15.1571 13.6569 13.6569C15.1571 12.1566 16 10.1217 16 8C16 5.87827 15.1571 3.84344 13.6569 2.34314C12.1566 0.842854 10.1217 -4.42435e-07 8 -3.49691e-07ZM5.197 5.904C5.14924 5.85788 5.11115 5.8027 5.08495 5.7417C5.05874 5.6807 5.04495 5.61509 5.04437 5.5487C5.0438 5.48231 5.05645 5.41647 5.08159 5.35502C5.10673 5.29358 5.14386 5.23775 5.1908 5.1908C5.23775 5.14386 5.29357 5.10673 5.35502 5.08159C5.41647 5.05645 5.48231 5.0438 5.5487 5.04437C5.61509 5.04495 5.6807 5.05875 5.7417 5.08495C5.8027 5.11115 5.85788 5.14924 5.904 5.197L10 9.293L10 6.525C10 6.39239 10.0527 6.26521 10.1464 6.17145C10.2402 6.07768 10.3674 6.025 10.5 6.025C10.6326 6.025 10.7598 6.07768 10.8536 6.17145C10.9473 6.26521 11 6.39239 11 6.525L11 10.5C11 10.6326 10.9473 10.7598 10.8536 10.8536C10.7598 10.9473 10.6326 11 10.5 11L6.525 11C6.39239 11 6.26521 10.9473 6.17145 10.8536C6.07768 10.7598 6.025 10.6326 6.025 10.5C6.025 10.3674 6.07768 10.2402 6.17145 10.1464C6.26521 10.0527 6.39239 10 6.525 10L9.293 10L5.197 5.904Z" fill="#FF603E"/>
  </g>
  <defs>
    <clipPath id="clip0_819_88443">
      <rect width="16" height="16" fill="white" transform="translate(0 16) rotate(-90)"/>
    </clipPath>
  </defs>
</svg>
