<svg width="16" height="22" viewBox="0 0 16 22" fill="none" xmlns="http://www.w3.org/2000/svg">
    <path d="M7.70555 16.2491C9.67658 16.2491 11.5736 16.4863 12.0319 16.8809C12.886 17.6162 12.9761 19.7752 12.2755 20.8354L12.1751 20.973L12.0319 21.1174C11.6262 21.4667 10.2744 21.6798 8.65843 21.7357L8.38678 21.7435L7.89797 21.7491L7.42889 21.7436L6.89154 21.7252C5.48466 21.66 4.30471 21.4658 3.80133 21.1195L3.71498 21.0528L3.60354 20.9235C3.11096 20.2469 3.16626 18.5642 3.58273 17.3775L3.65994 17.1735L3.80133 16.7481L4.237 16.605L4.3246 16.5776C4.42696 16.5474 4.54124 16.519 4.6662 16.4926L4.8615 16.4545L5.07188 16.4193C5.6064 16.3365 6.26579 16.2821 6.98362 16.2601L7.3471 16.2518L7.70555 16.2491ZM7.706 17.749L7.36411 17.7517C6.80146 17.7602 6.27011 17.7897 5.81244 17.8368L5.54702 17.8672L5.30132 17.9016L5.10321 17.9353L4.968 17.963L4.94368 18.0428C4.75484 18.6969 4.69744 19.5809 4.73924 19.8831L4.75064 19.9421L4.762 19.972L4.7755 19.9711L4.8668 19.9843L5.33285 20.0687L5.45258 20.0872C5.9258 20.1563 6.49962 20.2076 7.09526 20.2323L7.45463 20.2439L7.89777 20.2492L8.36044 20.2438C9.0884 20.2268 9.79861 20.1695 10.3642 20.0867L10.8714 20.003C10.9719 19.9882 11.0288 19.9862 11.0168 20.0115L11.0011 20.03L11.0495 19.9836C11.3134 19.6559 11.3005 18.4103 11.0992 18.0749L11.078 18.048L11.0414 18.0477L10.9375 18.0238C10.7381 17.978 10.464 17.9322 10.1421 17.892C9.54576 17.8174 8.84153 17.7679 8.13147 17.7535L7.706 17.749ZM8 0.25C12.2802 0.25 15.75 3.71979 15.75 8C15.75 10.6782 14.3792 13.1155 12.1848 14.5243L11.921 14.685L11.9449 14.8204L12.0071 15.1002L12.2785 16.2362L11.1326 16.0104C10.6175 15.9089 10.0138 15.8352 9.36381 15.7932L8.96862 15.7719L8.25131 15.7407L8.25106 10.2995L8.62513 10.0828C9.0092 9.86035 9.25 9.45155 9.25 9C9.25 8.30964 8.69036 7.75 8 7.75C7.30964 7.75 6.75 8.30964 6.75 9C6.75 9.37033 6.91156 9.71243 7.1667 9.93565L7.26663 10.0136L7.74997 10.3195L7.74944 15.7428L7.03857 15.7798C6.52545 15.8066 6.03692 15.8528 5.59959 15.9155L5.28161 15.9656L3.77797 16.2524L4.12104 14.8704L4.15 14.727L3.91986 14.5903C1.82179 13.2902 0.449345 11.0581 0.27002 8.55938L0.255029 8.28069L0.25 8C0.25 3.71979 3.71979 0.25 8 0.25ZM8 1.75C4.54822 1.75 1.75 4.54822 1.75 8C1.75 10.3474 3.05497 12.4628 5.09593 13.5359C5.43392 13.7137 5.60264 13.9471 5.65794 14.2508L5.67347 14.368L5.674 14.393L5.94538 14.3614L6.249 14.332V11.119L6.14115 11.0268C5.67931 10.6033 5.37296 10.0329 5.27989 9.40582L5.25684 9.19482L5.25 9C5.25 7.48122 6.48122 6.25 8 6.25C9.51878 6.25 10.75 7.48122 10.75 9C10.75 9.72758 10.4647 10.4059 9.98032 10.9084L9.84334 11.041L9.751 11.118V14.318L9.88547 14.3285L10.2934 14.3687L10.389 14.38C10.4023 14.0642 10.5093 13.8343 10.7548 13.6417L10.8686 13.5612L10.9846 13.4928C12.9813 12.4053 14.25 10.3147 14.25 8C14.25 4.54822 11.4518 1.75 8 1.75Z" fill="#979BBA"/>
</svg>
