<svg width="29" height="27" viewBox="0 0 29 27" fill="none" xmlns="http://www.w3.org/2000/svg">
<path d="M11.2301 20.8117C13.0369 20.8117 14.7758 21.0291 15.1959 21.3908C15.9788 22.0649 16.0614 24.0439 15.4192 25.0158L15.3272 25.1419L15.1959 25.2743C14.824 25.5945 13.5848 25.7898 12.1036 25.8411L11.8546 25.8483L11.4065 25.8533L10.9765 25.8484L10.4839 25.8314C9.19428 25.7717 8.11266 25.5937 7.65123 25.2762L7.57208 25.2151L7.46993 25.0965C7.01839 24.4764 7.06909 22.9338 7.45085 21.846L7.52162 21.6591L7.65123 21.2691L8.05059 21.1379L8.13089 21.1128C8.22472 21.0851 8.32948 21.0591 8.44403 21.0349L8.62305 20.9999L8.8159 20.9677C9.30587 20.8918 9.91032 20.842 10.5683 20.8218L10.9015 20.8142L11.2301 20.8117ZM11.2305 22.1866L10.9171 22.1891C10.4014 22.1969 9.91427 22.2239 9.49475 22.2671L9.25145 22.2949L9.02622 22.3265L8.84462 22.3574L8.72068 22.3828L8.69839 22.4559C8.52528 23.0555 8.47267 23.8659 8.51098 24.1428L8.52143 24.1969L8.53184 24.2243L8.54422 24.2235L8.62791 24.2356L9.05512 24.313L9.16487 24.33C9.59866 24.3933 10.1247 24.4403 10.6707 24.463L11.0001 24.4736L11.4063 24.4784L11.8304 24.4735C12.4977 24.4579 13.1487 24.4054 13.6672 24.3295L14.1321 24.2527C14.2243 24.2392 14.2764 24.2373 14.2654 24.2605L14.251 24.2775L14.2953 24.235C14.5373 23.9346 14.5254 22.7928 14.3409 22.4853L14.3215 22.4607L14.2879 22.4604L14.1927 22.4385C14.0099 22.3965 13.7587 22.3545 13.4636 22.3176C12.917 22.2493 12.2714 22.2039 11.6205 22.1907L11.2305 22.1866ZM11.5 6.14584C15.4235 6.14584 18.6042 9.32649 18.6042 13.25C18.6042 15.705 17.3477 17.9392 15.336 19.2306L15.0943 19.3779L15.1161 19.502L15.1732 19.7585L15.422 20.7998L14.3716 20.5928C13.8994 20.4998 13.346 20.4323 12.7502 20.3938L12.3879 20.3743L11.7304 20.3456L11.7301 15.3579L12.073 15.1593C12.4251 14.9553 12.6458 14.5806 12.6458 14.1667C12.6458 13.5339 12.1328 13.0208 11.5 13.0208C10.8672 13.0208 10.3542 13.5339 10.3542 14.1667C10.3542 14.5061 10.5023 14.8197 10.7362 15.0244L10.8278 15.0958L11.2708 15.3762L11.2703 20.3475L10.6187 20.3815C10.1483 20.4061 9.70052 20.4484 9.29964 20.5059L9.00816 20.5518L7.62981 20.8147L7.9443 19.5479L7.97084 19.4164L7.75988 19.2911C5.83665 18.0994 4.57858 16.0533 4.4142 13.7628L4.40045 13.5073L4.39584 13.25C4.39584 9.32649 7.57649 6.14584 11.5 6.14584ZM11.5 7.52084C8.33588 7.52084 5.77084 10.0859 5.77084 13.25C5.77084 15.4018 6.96707 17.3409 8.83795 18.3246C9.14777 18.4875 9.30243 18.7015 9.35312 18.9799L9.36736 19.0873L9.36784 19.1103L9.61661 19.0813L9.89493 19.0543V16.1091L9.79606 16.0245C9.37271 15.6364 9.09189 15.1135 9.00658 14.5387L8.98545 14.3453L8.97918 14.1667C8.97918 12.7745 10.1078 11.6458 11.5 11.6458C12.8922 11.6458 14.0208 12.7745 14.0208 14.1667C14.0208 14.8336 13.7593 15.4554 13.3153 15.9161L13.1897 16.0376L13.1051 16.1082V19.0415L13.2284 19.0511L13.6023 19.088L13.6899 19.0983C13.7021 18.8089 13.8002 18.5982 14.0252 18.4215L14.1296 18.3478L14.2359 18.2851C16.0662 17.2882 17.2292 15.3719 17.2292 13.25C17.2292 10.0859 14.6641 7.52084 11.5 7.52084Z" fill="#7786FF"/>
</svg>
