<svg width="25" height="24" viewBox="0 0 25 24" fill="none" xmlns="http://www.w3.org/2000/svg">
<path fill-rule="evenodd" clip-rule="evenodd" d="M6.51215 3.00605C6.34572 3.02078 6.18196 3.03625 6.02123 3.05249C6.00699 2.95902 5.99906 2.8914 5.99757 2.829C5.99492 2.71761 6.00721 2.678 6.08611 2.60629C6.22306 2.48185 6.59359 2.26325 7.50822 2.08717C8.40478 1.91457 9.72882 1.8 11.6668 1.8C13.6114 1.8 15.0097 1.88609 16.0129 2.02935C17.0294 2.17451 17.5701 2.36937 17.8524 2.53868C18.0862 2.67887 18.1214 2.78458 18.1421 2.86918C18.1512 2.90655 18.1577 2.94306 18.1622 2.98124C18.0805 2.97455 17.9982 2.96804 17.9153 2.96169L17.9153 2.96164L17.9058 2.96101L16.7943 2.88777L16.7857 2.88721L16.7772 2.88681L15.6054 2.83188L15.6054 2.83184L15.5977 2.83155C15.3958 2.82382 15.1922 2.81687 14.9872 2.8107L14.9872 2.81067L14.9802 2.81051L13.7502 2.78305L13.7502 2.78295L13.7367 2.78285L12.4895 2.77369L12.4895 2.7736L12.4763 2.77369L11.2291 2.78285L11.2291 2.78275L11.2156 2.78305L9.98563 2.81051L9.98563 2.81049L9.97862 2.8107C9.77363 2.81687 9.57003 2.82382 9.36816 2.83155L9.36816 2.83151L9.36043 2.83188L8.1886 2.88681L8.1886 2.88677L8.18043 2.88723C7.98685 2.89807 7.79566 2.90969 7.60723 2.9221L7.60723 2.92204L7.59758 2.92278L6.52268 3.00518L6.52268 3.00512L6.51215 3.00605ZM21.0054 3.33998C20.6905 3.27898 20.3441 3.22335 19.9719 3.17285C19.9681 2.94527 19.95 2.68457 19.8906 2.4416C19.7523 1.87605 19.4117 1.37496 18.7783 0.995036C18.1934 0.644237 17.3755 0.405666 16.2674 0.247425C15.1459 0.0872849 13.6536 0 11.6668 0C9.67356 0 8.22258 0.116593 7.16794 0.319629C6.13138 0.519186 5.37456 0.820709 4.87556 1.27417C4.31853 1.78037 4.18628 2.37646 4.19808 2.87186C4.20172 3.02475 4.21901 3.17001 4.2365 3.28925C4.07301 3.31777 3.9166 3.34759 3.76795 3.37875C3.3948 3.45699 3.05082 3.54771 2.75846 3.65533C2.48771 3.755 2.16905 3.90137 1.92773 4.1355C1.6296 4.42476 1.43703 4.8196 1.30028 5.19934C1.15738 5.59617 1.04333 6.06959 0.949877 6.59688L0.948233 6.60616L0.946783 6.61547L0.847508 7.253L0.84623 7.26121L0.845103 7.26944C0.829002 7.38709 0.813547 7.50757 0.798718 7.6308L0.798626 7.63078L0.797264 7.64365L0.718123 8.39178L0.716965 8.40272L0.716076 8.41368L0.649687 9.23202L0.648964 9.24094L0.648418 9.24986L0.59425 10.1356L0.593799 10.143L0.59347 10.1503L0.550986 11.1006L0.550901 11.1006L0.550519 11.113L0.519187 12.125L0.519117 12.125L0.51891 12.1362L0.497552 13.2898L0.497253 13.3059L0.497531 13.322L0.515518 14.3635L0.515451 14.3635L0.515774 14.3744L0.545834 15.3948L0.545811 15.3948L0.546045 15.4012C0.552117 15.5671 0.558709 15.73 0.565848 15.8899L0.56581 15.8899L0.566251 15.8981L0.614958 16.8033L0.615482 16.813L0.616219 16.8228L0.678818 17.6508L0.678743 17.6508L0.679769 17.6624C0.78081 18.8027 0.932161 19.764 1.16649 20.5039C1.38738 21.2012 1.75043 21.9261 2.44172 22.2614C2.76216 22.4169 3.23756 22.5168 3.71723 22.5934L3.72498 22.5947L3.73275 22.5958L4.26276 22.671L4.2749 22.6727L4.28708 22.6741L4.89969 22.7441L4.90888 22.7451L4.91808 22.746L5.60634 22.8103L5.61367 22.811L5.62101 22.8116L6.37794 22.8699L6.38544 22.8705L6.39295 22.8709L7.64187 22.9461L7.64937 22.9466L7.65688 22.9469L9.02112 23.0062L9.02112 23.0063L9.03213 23.0066L9.99408 23.0366L9.99408 23.0366L10.0023 23.0368L10.9981 23.0588L10.9981 23.0588L11.0061 23.0589L12.0288 23.0723L12.0288 23.0724L12.039 23.0724L13.6926 23.0753L13.6989 23.0753C15.04 23.0683 16.4037 23.0384 17.727 22.9817L17.727 22.9818L17.7334 22.9815L18.6817 22.9341L18.6888 22.9337C19.2889 22.899 20.0478 22.7837 20.7646 22.5775C21.452 22.3797 22.2355 22.0612 22.7604 21.5417C23.2795 21.028 23.6206 20.2523 23.8423 19.5503C24.0729 18.8201 24.2161 18.0326 24.2686 17.3788L24.269 17.3734L24.3204 16.6808L24.3205 16.6808L24.3211 16.6708L24.3653 15.9716L24.3653 15.9716L24.3659 15.9609L24.3772 15.7399L24.404 15.7216L24.426 15.2739C24.4803 14.1683 24.5036 13.0194 24.4962 11.8844L24.4976 11.4032H24.4977L24.4976 11.3944C24.4952 11.0529 24.4895 10.7215 24.4803 10.4008L24.4804 10.4008L24.48 10.3899L24.443 9.48189L24.4431 9.48189L24.4425 9.4702C24.3745 8.20404 24.2434 7.11283 24.038 6.24184C23.8417 5.40936 23.5449 4.62719 23.0381 4.1355C22.7797 3.88479 22.4289 3.73175 22.1321 3.6284C21.8092 3.51592 21.4251 3.42127 21.0054 3.33998ZM22.6295 9.29857C22.5614 8.21134 22.4446 7.32726 22.286 6.65497C22.1106 5.91109 21.914 5.56161 21.7948 5.43753L21.7926 5.43652L21.7878 5.43388C21.7666 5.42205 21.6954 5.38234 21.5401 5.32825C21.3291 5.25477 21.0371 5.17956 20.6631 5.10713C19.9184 4.96287 18.9295 4.84477 17.7826 4.7568L16.6844 4.68443L15.525 4.63008C15.3305 4.62265 15.1342 4.61595 14.9365 4.60999L13.7168 4.58275L12.4829 4.57369L11.249 4.58275L10.0293 4.60999C9.83159 4.61595 9.63532 4.62265 9.44085 4.63008L8.27699 4.68464C8.0921 4.69501 7.90977 4.70609 7.73032 4.71789L6.66556 4.79951C5.64987 4.88951 4.78563 5.00452 4.1373 5.14045C3.81177 5.2087 3.56045 5.27819 3.38029 5.34451C3.2518 5.39181 3.19252 5.42574 3.17512 5.43571L3.17338 5.4367C3.16393 5.44871 3.14641 5.47307 3.12286 5.515C3.08538 5.58172 3.04124 5.67752 2.99382 5.80919C2.89881 6.07303 2.80704 6.43464 2.72387 6.90189L2.62737 7.52164C2.61333 7.62452 2.59974 7.73049 2.58659 7.83951L2.50929 8.5702L2.44452 9.36866L2.39134 10.2381L2.34947 11.1749L2.3185 12.1751L2.29754 13.307L2.31515 14.3269L2.34496 15.3385C2.35078 15.4974 2.35708 15.6531 2.36387 15.8055L2.41183 16.6968L2.47325 17.5092C2.57034 18.6023 2.70766 19.4084 2.88247 19.9604C3.05675 20.5106 3.21261 20.6303 3.2268 20.6412C3.22796 20.6421 3.22817 20.6423 3.22736 20.6419L3.22744 20.6419C3.22888 20.6426 3.24601 20.6503 3.28508 20.6631C3.32521 20.6763 3.37918 20.6918 3.44894 20.7089C3.58767 20.7429 3.76883 20.7787 3.99356 20.8147L4.50356 20.8871L5.09483 20.9547L5.76661 21.0175L6.50865 21.0746L7.74255 21.1489L9.0937 21.2076L10.0461 21.2374L11.0337 21.2591L12.0473 21.2724L13.6927 21.2753C15.0118 21.2684 16.3506 21.2389 17.6468 21.1835L17.6501 21.1834L18.5849 21.1367L18.5884 21.1365C19.0648 21.1087 19.6893 21.0139 20.267 20.8477C20.8755 20.6726 21.2988 20.4557 21.4943 20.2622C21.6957 20.063 21.9293 19.6308 22.1258 19.0083C22.3132 18.4148 22.4318 17.7623 22.4742 17.237L22.4743 17.2346L22.5245 16.5588C22.3594 16.5823 22.1907 16.5944 22.0194 16.5944H15.218C13.202 16.5944 11.5974 14.9329 11.5974 12.9204C11.5974 10.908 13.202 9.24649 15.218 9.24649H22.0194C22.2272 9.24649 22.4311 9.26434 22.6295 9.29857ZM22.6962 11.8876L22.6947 12.4282L22.6722 13.5128L22.6301 14.6586L22.6286 14.6871C22.4383 14.7567 22.2334 14.7944 22.0194 14.7944H15.218C14.2289 14.7944 13.3974 13.972 13.3974 12.9204C13.3974 11.8689 14.2289 11.0465 15.218 11.0465H22.0194C22.2554 11.0465 22.4805 11.0924 22.6874 11.1764C22.6917 11.4125 22.6946 11.6497 22.6962 11.8876ZM15.735 12.0204C15.238 12.0204 14.835 12.4234 14.835 12.9204C14.835 13.4175 15.238 13.8204 15.735 13.8204H18.9732C19.4703 13.8204 19.8732 13.4175 19.8732 12.9204C19.8732 12.4234 19.4703 12.0204 18.9732 12.0204H15.735Z" fill="#7786FF"/>
</svg>
