<svg xmlns="http://www.w3.org/2000/svg" width="164" height="49" viewBox="0 0 164 49">
    <g fill="none" fill-rule="evenodd">
        <g fill-rule="nonzero">
            <g>
                <g>
                    <g>
                        <g>
                            <g>
                                <path fill="#FFF" d="M151.078 0H13.08c-.503 0-1 0-1.501.002-.42.003-.837.01-1.261.016-.921.01-1.84.082-2.749.216-.907.138-1.786.397-2.607.769-.82.374-1.57.862-2.22 1.443-.656.58-1.201 1.251-1.617 1.986-.417.734-.706 1.52-.857 2.332-.153.81-.235 1.63-.246 2.452-.013.376-.014.753-.021 1.128V38.66c.007.38.008.75.02 1.13.012.821.094 1.641.247 2.452.15.812.44 1.599.857 2.333.416.733.961 1.4 1.616 1.977.649.585 1.399 1.072 2.22 1.444.821.373 1.7.633 2.608.773.91.133 1.828.206 2.749.216.424.009.84.014 1.26.014.502.002 1 .002 1.502.002h138c.492 0 .993 0 1.486-.002.418 0 .847-.005 1.265-.014.919-.01 1.836-.082 2.743-.216.91-.14 1.793-.401 2.618-.773.821-.372 1.57-.86 2.218-1.444.653-.579 1.2-1.246 1.621-1.977.414-.735.7-1.521.85-2.333.152-.81.237-1.63.254-2.452.005-.38.005-.75.005-1.13.011-.445.011-.887.011-1.34V11.682c0-.449 0-.894-.01-1.338 0-.375 0-.752-.006-1.128-.017-.822-.102-1.642-.255-2.452-.149-.811-.435-1.598-.849-2.332-.847-1.473-2.19-2.673-3.84-3.43-.824-.37-1.706-.63-2.617-.768-.907-.135-1.824-.207-2.743-.216-.418-.006-.847-.013-1.265-.016C152.072 0 151.571 0 151.078 0z" transform="translate(-728 -5131) translate(0 4720) translate(408 225) translate(141 186) translate(179)"/>
                                <g fill="#000">
                                    <g>
                                        <path d="M18.317 15.068c.027-2.078 1.116-3.997 2.887-5.086C20.082 8.38 18.27 7.4 16.314 7.34c-2.057-.216-4.05 1.23-5.1 1.23-1.068 0-2.682-1.209-4.42-1.173-2.286.074-4.366 1.343-5.479 3.342-2.369 4.102-.602 10.13 1.668 13.445 1.135 1.624 2.462 3.438 4.199 3.373 1.699-.07 2.333-1.083 4.384-1.083 2.032 0 2.628 1.083 4.4 1.042 1.823-.03 2.971-1.63 4.067-3.27.816-1.156 1.443-2.435 1.86-3.788-2.166-.916-3.574-3.037-3.576-5.389zM14.97 5.158c.995-1.193 1.485-2.727 1.366-4.276-1.519.16-2.922.886-3.93 2.033-.994 1.133-1.498 2.614-1.4 4.118 1.539.016 3-.675 3.965-1.875z" transform="translate(-728 -5131) translate(0 4720) translate(408 225) translate(141 186) translate(179) translate(12.025 9.8)"/>
                                    </g>
                                    <g>
                                        <path d="M10.17 11.421H4.372l-1.393 4.112H.523L6.016.32h2.551l5.492 15.212h-2.497L10.17 11.42zM4.972 9.524H9.57L7.303 2.85h-.064L4.972 9.524zM25.92 9.988c0 3.446-1.844 5.66-4.628 5.66-1.439.076-2.794-.678-3.49-1.94h-.052v5.494h-2.277V4.442h2.204v1.845h.042c.726-1.255 2.083-2.008 3.531-1.961 2.815 0 4.67 2.225 4.67 5.662zm-2.34 0c0-2.246-1.16-3.722-2.93-3.722-1.74 0-2.91 1.508-2.91 3.722 0 2.235 1.17 3.731 2.91 3.731 1.77 0 2.93-1.465 2.93-3.731zM38.128 9.988c0 3.446-1.845 5.66-4.629 5.66-1.439.076-2.794-.678-3.49-1.94h-.052v5.494H27.68V4.442h2.204v1.845h.042c.726-1.255 2.083-2.008 3.531-1.961 2.815 0 4.67 2.225 4.67 5.662zm-2.34 0c0-2.246-1.16-3.722-2.931-3.722-1.74 0-2.91 1.508-2.91 3.722 0 2.235 1.17 3.731 2.91 3.731 1.77 0 2.93-1.465 2.93-3.731zM46.195 11.294c.169 1.509 1.634 2.5 3.637 2.5 1.919 0 3.3-.991 3.3-2.351 0-1.181-.833-1.888-2.805-2.373l-1.971-.475c-2.793-.674-4.09-1.98-4.09-4.1 0-2.625 2.287-4.428 5.535-4.428 3.214 0 5.418 1.803 5.492 4.427h-2.298c-.138-1.518-1.392-2.434-3.226-2.434s-3.09.927-3.09 2.277c0 1.075.802 1.708 2.763 2.192l1.676.412c3.121.738 4.418 1.992 4.418 4.217 0 2.846-2.267 4.628-5.873 4.628-3.373 0-5.65-1.74-5.798-4.492h2.33zM60.45 1.817v2.625h2.108v1.803H60.45v6.114c0 .95.422 1.392 1.35 1.392.25-.004.5-.022.748-.052v1.792c-.416.078-.84.113-1.264.105-2.246 0-3.121-.843-3.121-2.994V6.245h-1.613V4.442h1.613V1.817h2.287zM63.78 9.988c0-3.49 2.055-5.682 5.26-5.682 3.215 0 5.261 2.192 5.261 5.682 0 3.5-2.035 5.682-5.261 5.682s-5.26-2.183-5.26-5.682zm8.201 0c0-2.394-1.097-3.807-2.941-3.807-1.845 0-2.94 1.424-2.94 3.807 0 2.403 1.095 3.805 2.94 3.805 1.844 0 2.941-1.402 2.941-3.805zM76.178 4.442h2.171V6.33h.053c.303-1.216 1.416-2.052 2.668-2.004.262-.001.524.027.78.085v2.13c-.332-.102-.677-.148-1.023-.138-.67-.028-1.317.24-1.773.73-.456.49-.675 1.156-.6 1.821v6.579h-2.276V4.442zM92.346 12.275c-.306 2.014-2.267 3.395-4.776 3.395-3.226 0-5.229-2.161-5.229-5.63 0-3.478 2.014-5.734 5.133-5.734 3.069 0 4.999 2.107 4.999 5.47v.78h-7.834v.138c-.073.825.212 1.643.783 2.244.57.6 1.372.928 2.2.897 1.106.104 2.147-.53 2.562-1.56h2.162zm-7.696-3.31h5.545c.041-.742-.229-1.467-.745-2.002-.517-.534-1.233-.829-1.976-.813-.748-.004-1.468.29-1.998.82-.53.528-.828 1.246-.826 1.995z" transform="translate(-728 -5131) translate(0 4720) translate(408 225) translate(141 186) translate(179) translate(12.025 9.8) translate(29.625 12.025)"/>
                                    </g>
                                </g>
                            </g>
                            <g fill="#000">
                                <path d="M3.462.895c.967-.069 1.913.299 2.58 1.002.666.704.981 1.67.86 2.63 0 2.336-1.263 3.678-3.44 3.678H.822V.895h2.64zM1.957 7.171h1.378c.691.041 1.363-.23 1.831-.74.468-.51.68-1.204.58-1.889.093-.681-.123-1.37-.59-1.875-.466-.506-1.134-.777-1.82-.739H1.956v5.243zM8.184 5.444c-.095-.988.38-1.945 1.223-2.469.844-.524 1.912-.524 2.756 0 .844.524 1.318 1.48 1.223 2.47.097.99-.377 1.948-1.221 2.473-.845.524-1.915.524-2.76 0-.844-.525-1.318-1.484-1.221-2.474zm4.083 0c0-1.195-.537-1.895-1.48-1.895-.946 0-1.479.7-1.479 1.895 0 1.206.533 1.9 1.479 1.9.943 0 1.48-.7 1.48-1.9zM20.302 8.205L19.173 8.205 18.033 4.142 17.947 4.142 16.811 8.205 15.693 8.205 14.172 2.689 15.277 2.689 16.265 6.898 16.346 6.898 17.48 2.689 18.525 2.689 19.659 6.898 19.745 6.898 20.728 2.689 21.817 2.689zM23.096 2.689h1.048v.876h.08c.284-.645.945-1.04 1.647-.983.544-.04 1.076.168 1.448.567.371.4.541.945.461 1.485v3.57h-1.088V4.908c0-.886-.386-1.327-1.19-1.327-.37-.017-.727.127-.98.396-.254.269-.377.635-.338 1.002v3.227h-1.088V2.689zM29.515.535L30.603.535 30.603 8.205 29.515 8.205zM32.117 5.444c-.095-.988.38-1.945 1.223-2.47.844-.523 1.912-.523 2.756 0 .844.525 1.319 1.482 1.224 2.47.096.99-.377 1.949-1.222 2.474-.845.524-1.914.524-2.759 0-.845-.525-1.318-1.484-1.222-2.474zm4.083 0c0-1.195-.537-1.895-1.48-1.895-.946 0-1.479.7-1.479 1.895 0 1.206.533 1.9 1.479 1.9.943 0 1.48-.7 1.48-1.9zM38.466 6.645c0-.993.74-1.566 2.052-1.647l1.494-.086v-.476c0-.583-.385-.912-1.13-.912-.607 0-1.028.223-1.149.613h-1.054c.111-.947 1.003-1.555 2.254-1.555 1.383 0 2.163.689 2.163 1.854v3.769h-1.048V7.43h-.086c-.356.566-.99.897-1.657.866-.468.048-.935-.103-1.286-.418-.35-.314-.551-.762-.553-1.233zm3.546-.472v-.46l-1.347.085c-.76.051-1.104.31-1.104.796 0 .496.43.785 1.023.785.35.036.7-.073.97-.3.269-.227.434-.554.458-.906zM44.526 5.444c0-1.743.897-2.847 2.29-2.847.704-.032 1.363.345 1.692.968h.081V.535h1.089v7.67h-1.043v-.872h-.087c-.353.618-1.02.989-1.732.963-1.403 0-2.29-1.105-2.29-2.852zm1.125 0c0 1.17.552 1.874 1.474 1.874.917 0 1.484-.714 1.484-1.869 0-1.15-.573-1.874-1.484-1.874-.917 0-1.474.709-1.474 1.87zM54.182 5.444c-.095-.988.38-1.945 1.223-2.469.844-.524 1.912-.524 2.756 0 .844.524 1.318 1.48 1.223 2.47.097.99-.377 1.948-1.222 2.473-.844.524-1.914.524-2.758 0-.845-.525-1.319-1.484-1.222-2.474zm4.083 0c0-1.195-.537-1.895-1.48-1.895-.946 0-1.479.7-1.479 1.895 0 1.206.533 1.9 1.479 1.9.943 0 1.48-.7 1.48-1.9zM60.845 2.689h1.048v.876h.081c.283-.645.944-1.04 1.646-.983.544-.04 1.077.168 1.448.567.372.4.542.945.462 1.485v3.57H64.44V4.908c0-.886-.385-1.327-1.19-1.327-.369-.017-.727.127-.98.396s-.376.635-.337 1.002v3.227h-1.089V2.689zM71.681 1.315v1.399h1.195v.917h-1.195v2.836c0 .578.238.831.78.831.139 0 .277-.009.415-.025v.907c-.195.035-.393.053-.592.055-1.21 0-1.693-.426-1.693-1.49V3.632h-.875v-.917h.875V1.315h1.09zM74.363.535h1.08v3.04h.085c.297-.65.97-1.046 1.682-.988.54-.03 1.066.184 1.434.581.367.398.538.939.466 1.475v3.562h-1.09V4.912c0-.881-.41-1.327-1.18-1.327-.378-.031-.751.106-1.019.376-.268.27-.403.644-.37 1.022v3.222h-1.088V.535zM85.458 6.715c-.306 1.04-1.313 1.713-2.39 1.596-.736.02-1.443-.285-1.934-.834-.49-.548-.715-1.284-.615-2.013-.098-.73.126-1.468.614-2.021.488-.553 1.192-.867 1.93-.86 1.534 0 2.46 1.048 2.46 2.78v.38h-3.895v.06c-.034.41.106.815.385 1.116.28.3.674.47 1.084.465.533.064 1.051-.2 1.313-.669h1.048zm-3.83-1.777h2.786c.028-.375-.104-.743-.362-1.015-.259-.273-.62-.423-.995-.414-.38-.005-.747.144-1.016.413-.269.27-.418.635-.413 1.016z" transform="translate(-728 -5131) translate(0 4720) translate(408 225) translate(141 186) translate(179) translate(42.875 9.8)"/>
                            </g>
                        </g>
                    </g>
                </g>
            </g>
        </g>
    </g>
</svg>
