<?xml version="1.0" encoding="UTF-8"?>
<svg width="147px" height="48px" viewBox="0 0 147 48" version="1.1" xmlns="http://www.w3.org/2000/svg" xmlns:xlink="http://www.w3.org/1999/xlink">
    <title>E9139490-ED02-40FA-9C1D-F1D87BD682E0</title>
    <g id="desktop---batch-1" stroke="none" stroke-width="1" fill="none" fill-rule="evenodd">
        <g id="01.02.03-Common-page---Agenda---Share-popup" transform="translate(-1076.000000, -16.000000)">
            <g id="app-store" transform="translate(1076.000000, 16.000000)">
                <path d="M146.137143,41.3425714 C146.137143,44.91 143.245429,47.8031429 139.678571,47.8031429 L6.46,47.8031429 C2.89257143,47.8031429 0,44.91 0,41.3425714 L0,6.46 C0,2.89285714 2.89257143,-1.21807326e-14 6.46,-1.21807326e-14 L139.678571,-1.21807326e-14 C143.245429,-1.21807326e-14 146.137143,2.89285714 146.137143,6.46 L146.137143,41.3425714" id="Fill-31" fill="#1A1919"></path>
                <path d="M12.7805714,33.5382857 L25.794,33.5382857 L25.794,14.0854286 L12.7805714,14.0854286 L12.7805714,33.5382857 Z M19.2871429,37.818 C18.3371429,37.818 17.5671429,37.048 17.5671429,36.0968571 C17.5671429,35.1465714 18.3371429,34.3765714 19.2871429,34.3765714 C20.2382857,34.3765714 21.0082857,35.1465714 21.0082857,36.0968571 C21.0082857,37.048 20.2382857,37.818 19.2871429,37.818 Z M25.2388571,8.17514286 L13.3351429,8.17514286 C11.9091429,8.17514286 10.752,9.33114286 10.752,10.7582857 L10.752,37.1305714 C10.752,38.558 11.9091429,39.7148571 13.3351429,39.7148571 L25.2388571,39.7148571 C26.6662857,39.7148571 27.8234286,38.558 27.8234286,37.1305714 L27.8234286,10.7582857 C27.8234286,9.33114286 26.6662857,8.17514286 25.2388571,8.17514286 L25.2388571,8.17514286 Z" id="Fill-32" fill="#FFFFFE"></path>
                <path d="M39.8568571,12.1728571 L39.1642857,10.1674286 C39.0194286,9.712 38.916,9.29914286 38.8125714,8.896 L38.7822857,8.896 C38.6891429,9.29914286 38.5754286,9.73371429 38.4408571,10.1565714 L37.7588571,12.1728571 L39.8568571,12.1728571 Z M37.5725714,12.8754286 L36.8491429,15.0665714 L35.9188571,15.0665714 L38.2857143,8.09914286 L39.3714286,8.09914286 L41.7485714,15.0665714 L40.7871429,15.0665714 L40.0428571,12.8754286 L37.5725714,12.8754286 L37.5725714,12.8754286 Z" id="Fill-33" fill="#FFFFFE"></path>
                <path d="M42.6791429,10.0634286 L43.6608571,12.8654286 C43.8268571,13.33 43.9611429,13.744 44.0648571,14.1568571 L44.0957143,14.1568571 C44.2094286,13.744 44.3534286,13.33 44.5191429,12.8654286 L45.4911429,10.0634286 L46.4422857,10.0634286 L44.4774286,15.0665714 L43.6091429,15.0665714 L41.7082857,10.0634286 L42.6791429,10.0634286" id="Fill-34" fill="#FFFFFE"></path>
                <path d="M49.7391429,12.5134286 C48.7465714,12.4928571 47.6211429,12.6685714 47.6211429,13.6405714 C47.6211429,14.2397143 48.0131429,14.5088571 48.4677143,14.5088571 C49.13,14.5088571 49.5531429,14.0948571 49.6982857,13.6714286 C49.7291429,13.578 49.7391429,13.4748571 49.7391429,13.3817143 L49.7391429,12.5134286 Z M50.6282857,13.8682857 C50.6282857,14.3017143 50.6491429,14.7248571 50.7011429,15.0665714 L49.8845714,15.0665714 L49.8014286,14.4362857 L49.7705714,14.4362857 C49.5025714,14.8297143 48.954,15.1802857 48.2405714,15.1802857 C47.2274286,15.1802857 46.7111429,14.4674286 46.7111429,13.744 C46.7111429,12.534 47.7862857,11.8725714 49.7188571,11.8828571 L49.7188571,11.7794286 C49.7188571,11.3665714 49.6048571,10.6108571 48.5822857,10.6225714 C48.1062857,10.6225714 47.6211429,10.756 47.2691429,10.994 L47.0617143,10.3831429 C47.476,10.1254286 48.0857143,9.95 48.7157143,9.95 C50.2568571,9.95 50.6282857,10.994 50.6282857,11.9971429 L50.6282857,13.8682857 L50.6282857,13.8682857 Z" id="Fill-35" fill="#FFFFFE"></path>
                <path d="M52.034,15.0665714 L52.9437143,15.0665714 L52.9437143,10.0634286 L52.034,10.0634286 L52.034,15.0665714 Z M52.4671429,9.14371429 C52.1268571,9.14371429 51.8991429,8.87542857 51.8991429,8.55457143 C51.8991429,8.234 52.1371429,7.97628571 52.4882857,7.97628571 C52.8402857,7.97628571 53.0677143,8.234 53.0677143,8.55457143 C53.0677143,8.87542857 52.8402857,9.14371429 52.4788571,9.14371429 L52.4671429,9.14371429 L52.4671429,9.14371429 Z" id="Fill-36" fill="#FFFFFE"></path>
                <polygon id="Fill-37" fill="#FFFFFE" points="54.4005714 15.0665714 55.3102857 15.0665714 55.3102857 7.728 54.4005714 7.728"></polygon>
                <path d="M59.4037143,12.5134286 C58.4111429,12.4928571 57.284,12.6685714 57.284,13.6405714 C57.284,14.2397143 57.6771429,14.5088571 58.1317143,14.5088571 C58.794,14.5088571 59.2174286,14.0948571 59.3622857,13.6714286 C59.3934286,13.578 59.4037143,13.4748571 59.4037143,13.3817143 L59.4037143,12.5134286 Z M60.2925714,13.8682857 C60.2925714,14.3017143 60.3134286,14.7248571 60.3648571,15.0665714 L59.5474286,15.0665714 L59.4648571,14.4362857 L59.4345714,14.4362857 C59.1657143,14.8297143 58.618,15.1802857 57.904,15.1802857 C56.892,15.1802857 56.3745714,14.4674286 56.3745714,13.744 C56.3745714,12.534 57.4497143,11.8725714 59.3831429,11.8828571 L59.3831429,11.7794286 C59.3831429,11.3665714 59.2691429,10.6108571 58.2451429,10.6225714 C57.7705714,10.6225714 57.284,10.756 56.9337143,10.994 L56.726,10.3831429 C57.1394286,10.1254286 57.75,9.95 58.3802857,9.95 C59.9202857,9.95 60.2925714,10.994 60.2925714,11.9971429 L60.2925714,13.8682857 L60.2925714,13.8682857 Z" id="Fill-38" fill="#FFFFFE"></path>
                <path d="M62.6071429,13.0617143 C62.6071429,13.1745714 62.6174286,13.2882857 62.6391429,13.3922857 C62.814,14.0222857 63.352,14.4568571 64.0028571,14.4568571 C64.9645714,14.4568571 65.5222857,13.6817143 65.5222857,12.534 C65.5222857,11.5211429 65.0057143,10.664 64.0342857,10.664 C63.4142857,10.664 62.8342857,11.0974286 62.6588571,11.7794286 C62.6282857,11.8937143 62.6071429,12.0177143 62.6071429,12.1622857 L62.6071429,13.0617143 Z M61.6971429,7.728 L62.6071429,7.728 L62.6071429,10.8594286 L62.6282857,10.8594286 C62.9482857,10.3017143 63.5268571,9.95 64.3328571,9.95 C65.574,9.95 66.4422857,10.9837143 66.4422857,12.4928571 C66.4422857,14.2914286 65.3048571,15.1802857 64.1891429,15.1802857 C63.466,15.1802857 62.8962857,14.9011429 62.5148571,14.2397143 L62.4928571,14.2397143 L62.4411429,15.0665714 L61.6568571,15.0665714 C61.6877143,14.7248571 61.6971429,14.2191429 61.6971429,13.7751429 L61.6971429,7.728 L61.6971429,7.728 Z" id="Fill-39" fill="#FFFFFE"></path>
                <polygon id="Fill-40" fill="#FFFFFE" points="67.5271429 15.0665714 68.4362857 15.0665714 68.4362857 7.728 67.5271429 7.728"></polygon>
                <path d="M73.0668571,12.0694286 C73.0771429,11.5005714 72.8285714,10.5902857 71.8154286,10.5902857 C70.8868571,10.5902857 70.4931429,11.438 70.4205714,12.0694286 L73.0668571,12.0694286 Z M70.4105714,12.7202857 C70.4308571,13.9508571 71.206,14.4568571 72.116,14.4568571 C72.768,14.4568571 73.1705714,14.3431429 73.5014286,14.2085714 L73.6662857,14.8491429 C73.3465714,14.994 72.7877143,15.17 71.992,15.17 C70.4622857,15.17 69.5317143,14.1465714 69.5317143,12.648 C69.5317143,11.1285714 70.4308571,9.93971429 71.8894286,9.93971429 C73.5211429,9.93971429 73.9457143,11.3771429 73.9457143,12.296 C73.9457143,12.4822857 73.9351429,12.6271429 73.9145714,12.7305714 L70.4105714,12.7202857 L70.4105714,12.7202857 Z" id="Fill-41" fill="#FFFFFE"></path>
                <path d="M79.2268571,14.4985714 C80.0951429,14.4985714 80.746,13.6817143 80.746,12.5445714 C80.746,11.6968571 80.3228571,10.632 79.2477143,10.632 C78.1822857,10.632 77.718,11.6242857 77.718,12.5754286 C77.718,13.6714286 78.338,14.4985714 79.2168571,14.4985714 L79.2268571,14.4985714 Z M79.1962857,15.1802857 C77.8525714,15.1802857 76.7977143,14.188 76.7977143,12.6065714 C76.7977143,10.9317143 77.9045714,9.95 79.2788571,9.95 C80.7151429,9.95 81.6868571,10.994 81.6868571,12.5134286 C81.6868571,14.3742857 80.3942857,15.1802857 79.2062857,15.1802857 L79.1962857,15.1802857 L79.1962857,15.1802857 Z" id="Fill-42" fill="#FFFFFE"></path>
                <path d="M82.7834286,11.4185714 C82.7834286,10.8905714 82.7717143,10.4777143 82.7402857,10.0634286 L83.5474286,10.0634286 L83.5985714,10.88 L83.6191429,10.88 C83.8677143,10.4157143 84.4462857,9.95 85.2728571,9.95 C85.9651429,9.95 87.0422857,10.3637143 87.0422857,12.0797143 L87.0422857,15.0665714 L86.1308571,15.0665714 L86.1308571,12.182 C86.1308571,11.3771429 85.832,10.694 84.9731429,10.694 C84.3837143,10.694 83.9194286,11.1182857 83.7537143,11.6242857 C83.7125714,11.7382857 83.6917143,11.904 83.6917143,12.0488571 L83.6917143,15.0665714 L82.7834286,15.0665714 L82.7834286,11.4185714" id="Fill-43" fill="#FFFFFE"></path>
                <path d="M91.7022857,8.86514286 L91.7022857,10.0634286 L93.0037143,10.0634286 L93.0037143,10.756 L91.7022857,10.756 L91.7022857,13.4542857 C91.7022857,14.074 91.8782857,14.426 92.3837143,14.426 C92.6325714,14.426 92.7777143,14.4057143 92.9122857,14.3637143 L92.9522857,15.0562857 C92.7777143,15.1182857 92.4982857,15.1802857 92.1471429,15.1802857 C91.722,15.1802857 91.3808571,15.0357143 91.164,14.7988571 C90.9165714,14.5188571 90.8128571,14.074 90.8128571,13.4851429 L90.8128571,10.756 L90.0382857,10.756 L90.0382857,10.0634286 L90.8128571,10.0634286 L90.8128571,9.14371429 L91.7022857,8.86514286" id="Fill-44" fill="#FFFFFE"></path>
                <path d="M93.976,7.728 L94.8854286,7.728 L94.8854286,10.8491429 L94.9054286,10.8491429 C95.05,10.5902857 95.2777143,10.3537143 95.5574286,10.2085714 C95.8262857,10.0428571 96.146,9.95 96.488,9.95 C97.1594286,9.95 98.2337143,10.3637143 98.2337143,12.09 L98.2337143,15.0665714 L97.3251429,15.0665714 L97.3251429,12.1934286 C97.3251429,11.3771429 97.0248571,10.7042857 96.1665714,10.7042857 C95.578,10.7042857 95.1231429,11.1182857 94.948,11.614 C94.896,11.7382857 94.8854286,11.8725714 94.8854286,12.0488571 L94.8854286,15.0665714 L93.976,15.0665714 L93.976,7.728" id="Fill-45" fill="#FFFFFE"></path>
                <path d="M102.834,12.0694286 C102.843143,11.5005714 102.595714,10.5902857 101.583143,10.5902857 C100.653429,10.5902857 100.258857,11.438 100.187429,12.0694286 L102.834,12.0694286 Z M100.177429,12.7202857 C100.198,13.9508571 100.973143,14.4568571 101.882571,14.4568571 C102.534,14.4568571 102.937429,14.3431429 103.268857,14.2085714 L103.433429,14.8491429 C103.112571,14.994 102.554571,15.17 101.758286,15.17 C100.229143,15.17 99.2982857,14.1465714 99.2982857,12.648 C99.2982857,11.1285714 100.198,9.93971429 101.655429,9.93971429 C103.288286,9.93971429 103.713143,11.3771429 103.713143,12.296 C103.713143,12.4822857 103.702286,12.6271429 103.681714,12.7305714 L100.177429,12.7202857 L100.177429,12.7202857 Z" id="Fill-46" fill="#FFFFFE"></path>
                <path d="M106.926286,15.0665714 L107.835714,15.0665714 L107.835714,10.0634286 L106.926286,10.0634286 L106.926286,15.0665714 Z M107.361429,9.14371429 C107.019429,9.14371429 106.791714,8.87542857 106.791714,8.55457143 C106.791714,8.234 107.029429,7.97628571 107.381429,7.97628571 C107.732571,7.97628571 107.960286,8.234 107.960286,8.55457143 C107.960286,8.87542857 107.732571,9.14371429 107.369714,9.14371429 L107.361429,9.14371429 L107.361429,9.14371429 Z" id="Fill-47" fill="#FFFFFE"></path>
                <path d="M110.223714,11.5414286 C110.419429,11.5934286 110.678857,11.614 110.968,11.614 C112.063429,11.614 112.714571,11.0768571 112.714571,10.136 C112.714571,9.20571429 112.063429,8.76171429 111.071429,8.76171429 C110.678857,8.76171429 110.379429,8.80228571 110.223714,8.83428571 L110.223714,11.5414286 Z M109.324,8.19228571 C109.757714,8.11057143 110.326857,8.048 111.050571,8.048 C111.939143,8.048 112.590857,8.25428571 113.003143,8.62742857 C113.386,8.95742857 113.624286,9.46457143 113.624286,10.0845714 C113.624286,10.7148571 113.438,11.2114286 113.075714,11.5725714 C112.600857,12.0797143 111.825143,12.3374286 110.946857,12.3374286 C110.678857,12.3374286 110.430571,12.3268571 110.223714,12.2762857 L110.223714,15.0665714 L109.324,15.0665714 L109.324,8.19228571 L109.324,8.19228571 Z" id="Fill-48" fill="#FFFFFE"></path>
                <path d="M114.689143,7.728 L115.599143,7.728 L115.599143,10.8491429 L115.619714,10.8491429 C115.764286,10.5902857 115.992,10.3537143 116.270571,10.2085714 C116.54,10.0428571 116.860857,9.95 117.201429,9.95 C117.873143,9.95 118.948,10.3637143 118.948,12.09 L118.948,15.0665714 L118.038857,15.0665714 L118.038857,12.1934286 C118.038857,11.3771429 117.738571,10.7042857 116.880571,10.7042857 C116.292286,10.7042857 115.837429,11.1182857 115.661143,11.614 C115.609143,11.7382857 115.599143,11.8725714 115.599143,12.0488571 L115.599143,15.0665714 L114.689143,15.0665714 L114.689143,7.728" id="Fill-49" fill="#FFFFFE"></path>
                <path d="M122.442286,14.4985714 C123.309143,14.4985714 123.961429,13.6817143 123.961429,12.5445714 C123.961429,11.6968571 123.537714,10.632 122.462,10.632 C121.397714,10.632 120.931714,11.6242857 120.931714,12.5754286 C120.931714,13.6714286 121.551714,14.4985714 122.430571,14.4985714 L122.442286,14.4985714 Z M122.410571,15.1802857 C121.066857,15.1802857 120.012,14.188 120.012,12.6065714 C120.012,10.9317143 121.118857,9.95 122.493714,9.95 C123.93,9.95 124.901143,10.994 124.901143,12.5134286 C124.901143,14.3742857 123.609143,15.1802857 122.421143,15.1802857 L122.410571,15.1802857 L122.410571,15.1802857 Z" id="Fill-50" fill="#FFFFFE"></path>
                <path d="M125.997143,11.4185714 C125.997143,10.8905714 125.986571,10.4777143 125.955714,10.0634286 L126.762,10.0634286 L126.813429,10.88 L126.834571,10.88 C127.083143,10.4157143 127.661714,9.95 128.488,9.95 C129.180571,9.95 130.254857,10.3637143 130.254857,12.0797143 L130.254857,15.0665714 L129.346286,15.0665714 L129.346286,12.182 C129.346286,11.3771429 129.046286,10.694 128.188,10.694 C127.599143,10.694 127.134286,11.1182857 126.969143,11.6242857 C126.927429,11.7382857 126.905429,11.904 126.905429,12.0488571 L126.905429,15.0665714 L125.997143,15.0665714 L125.997143,11.4185714" id="Fill-51" fill="#FFFFFE"></path>
                <path d="M134.855429,12.0694286 C134.865429,11.5005714 134.617143,10.5902857 133.604286,10.5902857 C132.673429,10.5902857 132.281143,11.438 132.208571,12.0694286 L134.855429,12.0694286 Z M132.198571,12.7202857 C132.219143,13.9508571 132.994857,14.4568571 133.904571,14.4568571 C134.555143,14.4568571 134.958571,14.3431429 135.288857,14.2085714 L135.454571,14.8491429 C135.133143,14.994 134.575714,15.17 133.78,15.17 C132.250286,15.17 131.319714,14.1465714 131.319714,12.648 C131.319714,11.1285714 132.219143,9.93971429 133.676286,9.93971429 C135.309429,9.93971429 135.733714,11.3771429 135.733714,12.296 C135.733714,12.4822857 135.723714,12.6271429 135.702857,12.7305714 L132.198571,12.7202857 L132.198571,12.7202857 Z" id="Fill-52" fill="#FFFFFE"></path>
                <path d="M43.3094286,22.752 C43.5162857,23.5574286 43.7394286,24.3937143 44.0265714,25.2971429 L45.6782857,30.0805714 L40.9774286,30.0805714 L42.6065714,25.266 C42.8545714,24.4854286 43.0897143,23.6422857 43.3094286,22.752 Z M41.8551429,19.786 L35.7262857,37.8268571 L38.5328571,37.8268571 L40.3628571,32.2874286 L46.2971429,32.2874286 L48.1785714,37.8268571 L51.0628571,37.8268571 L44.9074286,19.786 L41.8551429,19.786 L41.8551429,19.786 Z" id="Fill-53" fill="#FFFFFE"></path>
                <path d="M58.314,26.7222857 C60.7471429,26.7222857 61.836,28.9765714 61.836,31.2097143 C61.836,34.0908571 60.4465714,35.8805714 58.2102857,35.8805714 C56.6837143,35.8805714 55.3625714,34.8414286 54.9948571,33.3477143 C54.9317143,33.116 54.8974286,32.8097143 54.8974286,32.464 L54.8974286,30.2688571 C54.8974286,30.0702857 54.942,29.8291429 54.9845714,29.5954286 C54.998,29.5205714 55.0125714,29.446 55.0237143,29.3734286 C55.4305714,27.8117143 56.782,26.7222857 58.314,26.7222857 Z M58.994,24.4628571 C57.1348571,24.4628571 55.6457143,25.1802857 54.6545714,26.5442857 L54.5457143,24.7497143 L52.0491429,24.7497143 L52.064,24.9791429 C52.1371429,26.0971429 52.1682857,27.3274286 52.1682857,29.0942857 L52.1682857,43 L54.8974286,43 L54.8974286,36.5105714 C55.7442857,37.524 57.0968571,38.1137143 58.6288571,38.1137143 C60.2242857,38.1137143 61.694,37.4888571 62.7651429,36.3554286 C63.9605714,35.0917143 64.5914286,33.2754286 64.5914286,31.1051429 C64.5914286,29.1874286 64.0437143,27.5294286 63.0054286,26.3114286 C61.9885714,25.1191429 60.5648571,24.4628571 58.994,24.4628571 L58.994,24.4628571 Z" id="Fill-54" fill="#FFFFFE"></path>
                <path d="M72.3705714,26.7222857 C74.8028571,26.7222857 75.8917143,28.9765714 75.8917143,31.2097143 C75.8917143,34.0908571 74.5014286,35.8805714 72.266,35.8805714 C70.7397143,35.8805714 69.4177143,34.8414286 69.0502857,33.3477143 C68.9871429,33.116 68.9542857,32.8097143 68.9542857,32.464 L68.9542857,30.2688571 C68.9542857,30.0691429 68.9974286,29.8268571 69.0414286,29.5931429 C69.0545714,29.5194286 69.068,29.446 69.0805714,29.3734286 C69.4862857,27.8117143 70.838,26.7222857 72.3705714,26.7222857 Z M73.0497143,24.4628571 C71.1908571,24.4628571 69.7017143,25.1802857 68.7097143,26.5442857 L68.6011429,24.7497143 L66.1051429,24.7497143 L66.1191429,24.9791429 C66.1928571,26.098 66.224,27.3274286 66.224,29.0942857 L66.224,43 L68.9542857,43 L68.9542857,36.5105714 C69.8005714,37.524 71.1522857,38.1137143 72.684,38.1137143 C74.28,38.1137143 75.7494286,37.4888571 76.8217143,36.3554286 C78.016,35.0917143 78.6471429,33.2754286 78.6471429,31.1051429 C78.6471429,29.1874286 78.0985714,27.5294286 77.0605714,26.3114286 C76.0445714,25.1191429 74.6202857,24.4628571 73.0497143,24.4628571 L73.0497143,24.4628571 Z" id="Fill-55" fill="#FFFFFE"></path>
                <path d="M90.6582857,27.4302857 C88.1108571,26.4434286 87.2945714,25.6677143 87.2945714,24.2342857 C87.2945714,23.0271429 88.2537143,21.8102857 90.3971429,21.8102857 C92.1657143,21.8102857 93.2974286,22.4251429 93.6014286,22.6142857 L93.8331429,22.7571429 L94.6031429,20.4791429 L94.4508571,20.3902857 C93.9937143,20.122 92.6905714,19.4982857 90.476,19.4982857 C86.9948571,19.4982857 84.564,21.5534286 84.564,24.4948571 C84.564,26.8671429 86.0862857,28.5251429 89.3554286,29.7131429 C91.6711429,30.5791429 92.5334286,31.466 92.5334286,32.9865714 C92.5334286,34.7074286 91.2034286,35.7757143 89.064,35.7757143 C87.6705714,35.7757143 86.2365714,35.3691429 85.13,34.66 L84.8931429,34.508 L84.1605714,36.8385714 L84.2951429,36.928 C85.3251429,37.616 87.2648571,38.1137143 88.9077143,38.1137143 C93.5991429,38.1137143 95.2625714,35.2531429 95.2625714,32.8034286 C95.2625714,30.2782857 93.9288571,28.7205714 90.6582857,27.4302857" id="Fill-56" fill="#FFFFFE"></path>
                <path d="M100.176286,21.6417143 L97.4988571,22.482 L97.4988571,24.7497143 L95.5394286,24.7497143 L95.5394286,26.9311429 L97.4988571,26.9311429 L97.4988571,33.6137143 C97.4988571,35.2291429 97.808,36.3614286 98.444,37.0768571 C99.054,37.7454286 99.992,38.1137143 101.084571,38.1137143 C102.117143,38.1137143 102.849714,37.91 103.194571,37.7877143 L103.347429,37.7337143 L103.216857,35.5482857 L102.955143,35.6288571 C102.610286,35.7345714 102.255429,35.7757143 101.685714,35.7757143 C100.627714,35.7757143 100.176286,35.106 100.176286,33.5351429 L100.176286,26.9311429 L103.468571,26.9311429 L103.468571,24.7497143 L100.176286,24.7497143 L100.176286,21.6417143" id="Fill-57" fill="#FFFFFE"></path>
                <path d="M110.154571,26.6177143 C112.610286,26.6177143 113.727429,29.0114286 113.727429,31.2365714 C113.727429,33.9728571 112.202286,35.9588571 110.102571,35.9588571 L110.076286,35.9588571 C108.006,35.9588571 106.503143,34.006 106.503143,31.3151429 C106.503143,28.9774286 107.632,26.6177143 110.154571,26.6177143 Z M110.233143,24.4628571 C106.414,24.4628571 103.747143,27.3128571 103.747143,31.3928571 C103.747143,35.3502857 106.328,38.1137143 110.023714,38.1137143 L110.049429,38.1137143 C113.174,38.1137143 116.535714,35.9371429 116.535714,31.1577143 C116.535714,29.2142857 115.934571,27.5451429 114.796286,26.3297143 C113.651143,25.1088571 112.072857,24.4628571 110.233143,24.4628571 L110.233143,24.4628571 Z" id="Fill-58" fill="#FFFFFE"></path>
                <path d="M124.896,24.5891429 L124.732571,24.5477143 C124.492,24.4877143 124.295714,24.4628571 124.053429,24.4628571 C122.625429,24.4628571 121.344286,25.3034286 120.630857,26.66 L120.550571,24.7497143 L118.101429,24.7497143 L118.117143,24.9791429 C118.189714,26.06 118.220286,27.2728571 118.220286,28.91 L118.194571,37.8268571 L120.924571,37.8268571 L120.924571,30.8702857 C120.924571,30.4914286 120.950857,30.1331429 120.999429,29.8122857 C121.308,28.1411429 122.435143,27.0614286 123.871429,27.0614286 C124.151143,27.0614286 124.370857,27.0842857 124.604286,27.1071429 L124.896,27.1371429 L124.896,24.5891429" id="Fill-59" fill="#FFFFFE"></path>
                <path d="M130.850857,26.5134286 C131.682286,26.5134286 132.357143,26.7705714 132.854857,27.2777143 C133.64,28.0768571 133.777714,29.2537143 133.794571,29.8185714 L127.570286,29.8185714 C127.822857,28.2422857 128.809143,26.5134286 130.850857,26.5134286 Z M131.033429,24.4368571 C127.399429,24.4368571 124.860857,27.34 124.860857,31.4971429 C124.860857,35.5005714 127.386,38.0877143 131.294,38.0877143 C133.349143,38.0877143 134.778857,37.6365714 135.616,37.2588571 L135.78,37.1845714 L135.256,35.1508571 L135.027714,35.2425714 C134.284,35.5451429 133.295714,35.8542857 131.607429,35.8542857 C130.421714,35.8542857 127.687429,35.4631429 127.519429,31.8965714 L136.330286,31.9228571 L136.365429,31.7488571 C136.421143,31.4714286 136.448,31.0977143 136.448,30.6091429 C136.448,27.7622857 135.03,24.4368571 131.033429,24.4368571 L131.033429,24.4368571 Z" id="Fill-60" fill="#FFFFFE"></path>
            </g>
        </g>
    </g>
</svg>