<?xml version="1.0" encoding="UTF-8"?>
<svg width="147px" height="48px" viewBox="0 0 147 48" version="1.1" xmlns="http://www.w3.org/2000/svg" xmlns:xlink="http://www.w3.org/1999/xlink">
    <title>D7669D13-CF4C-4688-BE45-CBE581C5C8E1</title>
    <defs>
        <path d="M0.642201176,0.191509469 L16.428,15.8445714 L0.509046213,31.6288461 C0.262225995,31.5460854 0.104285714,31.3023898 0.104285714,30.9445714 L0.104285714,30.9445714 L0.104285714,1.04428571" id="path-1"></path>
        <linearGradient x1="29.5954342%" y1="-1.59796556%" x2="29.5954342%" y2="101.176441%" id="linearGradient-3">
            <stop stop-color="#87C8B2" offset="0%"></stop>
            <stop stop-color="#2C729D" offset="100%"></stop>
        </linearGradient>
        <path d="M0.0707726048,0.191509469 C0.320621076,0.121504829 0.630747956,0.174063973 0.941428571,0.353428571 L0.926571429,0.345142857 L6.36198415,3.48325777 C9.76101744,5.44594133 13.5162282,7.61433684 13.6481363,7.69050537 L13.6517143,7.69257143 L20.2411429,11.4968571 L15.8565714,15.8445714" id="path-4"></path>
        <linearGradient x1="-0.000310804585%" y1="23.9090051%" x2="75.0895589%" y2="23.9090051%" id="linearGradient-6">
            <stop stop-color="#53B8A0" offset="0%"></stop>
            <stop stop-color="#DBE596" offset="100%"></stop>
        </linearGradient>
        <path d="M16.1422857,0.130285714 L20.5265714,4.47742857 L13.9374286,8.28142857 C13.9374286,8.28142857 4.58615083,13.6807424 1.72960917,15.3305437 L0.926577292,15.7944171 C0.660136,15.9460647 0.4149495,15.9788111 0.223331927,15.9145603" id="path-7"></path>
        <linearGradient x1="37.5441578%" y1="49.7896003%" x2="37.5441578%" y2="101.549612%" id="linearGradient-9">
            <stop stop-color="#7D4589" offset="0%"></stop>
            <stop stop-color="#DA3E3E" offset="100%"></stop>
        </linearGradient>
        <path d="M4.52685714,0.0682857143 C4.654034,0.142238342 10.2852508,3.4166127 10.9051429,3.75085714 C11.5322857,4.08857143 11.6037143,4.67714286 10.8605714,5.10657143 L10.8648571,5.104 L10.0638256,5.56647152 C8.39042228,6.53246863 4.88063938,8.55873252 4.55146616,8.74877064 L4.52657143,8.76314286 L0.142285714,4.416" id="path-10"></path>
        <linearGradient x1="80.7936518%" y1="35.986719%" x2="80.7936518%" y2="63.5904861%" id="linearGradient-12">
            <stop stop-color="#F7C374" offset="0%"></stop>
            <stop stop-color="#E88172" offset="100%"></stop>
        </linearGradient>
    </defs>
    <g id="Page-3" stroke="none" stroke-width="1" fill="none" fill-rule="evenodd">
        <g id="01.01.02-Explore-commons" transform="translate(-1212.000000, -16.000000)">
            <g id="appstores" transform="translate(1049.000000, 16.000000)">
                <g id="google-play" transform="translate(163.000000, 0.000000)">
                    <path d="M146.137143,41.3425714 C146.137143,44.91 143.245429,47.8031429 139.678571,47.8031429 L6.46,47.8031429 C2.89257143,47.8031429 0,44.91 0,41.3425714 L0,6.46 C0,2.89285714 2.89257143,0 6.46,0 L139.678571,0 C143.245429,0 146.137143,2.89285714 146.137143,6.46 L146.137143,41.3425714" id="Fill-62" fill="#1A1919"></path>
                    <g id="Group-101" transform="translate(10.857143, 9.544857)">
                        <mask id="mask-2" fill="white">
                            <use xlink:href="#path-1"></use>
                        </mask>
                        <g id="Clip-100"></g>
                        <path d="M20.8125714,11.4968571 L14.2231429,7.69257143 C14.2231429,7.69257143 2.21885714,0.760857143 1.51285714,0.353428571 C0.807142857,-0.054 0.104285714,0.192857143 0.104285714,1.04428571 C0.104285714,2.46285714 0.104285714,15.8442857 0.104285714,15.8442857 C0.104285714,15.8442857 0.104285714,30.3057143 0.104285714,30.9445714 C0.104285714,31.5828571 0.606857143,31.858 1.22,31.5042857 C1.83285714,31.1497143 14.2231429,23.9957143 14.2231429,23.9957143 L20.8122857,20.1917143 C20.8122857,20.1917143 26.4031429,16.964 27.1462857,16.5351429 C27.8894286,16.1057143 27.818,15.5171429 27.1908571,15.1794286 C26.564,14.8414286 20.8125714,11.4968571 20.8125714,11.4968571" id="Fill-99" fill="url(#linearGradient-3)" mask="url(#mask-2)"></path>
                    </g>
                    <g id="Group-104" transform="translate(11.428571, 9.544857)">
                        <mask id="mask-5" fill="white">
                            <use xlink:href="#path-4"></use>
                        </mask>
                        <g id="Clip-103"></g>
                        <path d="M20.2411429,11.4968571 L13.6517143,7.69257143 C13.6517143,7.69257143 1.64742857,0.760857143 0.941428571,0.353428571 C0.235714286,-0.054 -0.467142857,0.192857143 -0.467142857,1.04428571 C-0.467142857,2.46285714 -0.467142857,15.8442857 -0.467142857,15.8442857 C-0.467142857,15.8442857 -0.467142857,30.3057143 -0.467142857,30.9445714 C-0.467142857,31.5828571 0.0354285714,31.858 0.648571429,31.5042857 C1.26142857,31.1497143 13.6517143,23.9957143 13.6517143,23.9957143 L20.2408571,20.1917143 C20.2408571,20.1917143 25.8317143,16.964 26.5748571,16.5351429 C27.318,16.1057143 27.2465714,15.5171429 26.6194286,15.1794286 C25.9925714,14.8414286 20.2411429,11.4968571 20.2411429,11.4968571" id="Fill-102" fill="url(#linearGradient-6)" mask="url(#mask-5)"></path>
                    </g>
                    <g id="Group-107" transform="translate(11.142857, 25.259143)">
                        <mask id="mask-8" fill="white">
                            <use xlink:href="#path-7"></use>
                        </mask>
                        <g id="Clip-106"></g>
                        <path d="M20.5268571,-4.21742857 L13.9374286,-8.02171429 C13.9374286,-8.02171429 1.93314286,-14.9534286 1.22714286,-15.3608571 C0.521428571,-15.7682857 -0.181428571,-15.5214286 -0.181428571,-14.67 C-0.181428571,-13.2514286 -0.181428571,0.13 -0.181428571,0.13 C-0.181428571,0.13 -0.181428571,14.5914286 -0.181428571,15.2302857 C-0.181428571,15.8685714 0.321142857,16.1437143 0.934285714,15.79 C1.54714286,15.4354286 13.9374286,8.28142857 13.9374286,8.28142857 L20.5265714,4.47742857 C20.5265714,4.47742857 26.1174286,1.24971429 26.8605714,0.820857143 C27.6037143,0.391428571 27.5322857,-0.197142857 26.9051429,-0.534857143 C26.2782857,-0.872857143 20.5268571,-4.21742857 20.5268571,-4.21742857" id="Fill-105" fill="url(#linearGradient-9)" mask="url(#mask-8)"></path>
                    </g>
                    <g id="Group-110" transform="translate(27.142857, 20.973429)">
                        <mask id="mask-11" fill="white">
                            <use xlink:href="#path-10"></use>
                        </mask>
                        <g id="Clip-109"></g>
                        <path d="M4.52685714,0.0682857143 L-2.06257143,-3.736 C-2.06257143,-3.736 -14.0668571,-10.6677143 -14.7728571,-11.0751429 C-15.4785714,-11.4825714 -16.1814286,-11.2357143 -16.1814286,-10.3842857 C-16.1814286,-8.96571429 -16.1814286,4.41571429 -16.1814286,4.41571429 C-16.1814286,4.41571429 -16.1814286,18.8771429 -16.1814286,19.516 C-16.1814286,20.1542857 -15.6788571,20.4294286 -15.0657143,20.0757143 C-14.4528571,19.7211429 -2.06257143,12.5671429 -2.06257143,12.5671429 L4.52657143,8.76314286 C4.52657143,8.76314286 10.1174286,5.53542857 10.8605714,5.10657143 C11.6037143,4.67714286 11.5322857,4.08857143 10.9051429,3.75085714 C10.2782857,3.41285714 4.52685714,0.0682857143 4.52685714,0.0682857143" id="Fill-108" fill="url(#linearGradient-12)" mask="url(#mask-11)"></path>
                    </g>
                    <path d="M113.524571,23.1702857 C112.562571,23.1702857 111.867143,23.4368571 111.437714,23.9691429 C111.008286,24.502 110.787429,25.3494286 110.775714,26.5122857 L110.775714,26.8297143 C110.775714,28.1528571 110.996571,29.0991429 111.437714,29.6691429 C111.878857,30.2388571 112.586,30.5234286 113.559143,30.5234286 C114.372571,30.5234286 115.01,30.1942857 115.471143,29.536 C115.931714,28.8777143 116.162286,27.9697143 116.162286,26.8122857 C116.162286,25.6388571 115.931714,24.738 115.471143,24.1108571 C115.01,23.4837143 114.360857,23.1702857 113.524571,23.1702857 Z M113.730857,31.7171429 C113.118,31.7171429 112.558286,31.6042857 112.051714,31.3782857 C111.545143,31.152 111.119429,30.804 110.775714,30.3348571 L110.672857,30.3348571 C110.741429,30.8842857 110.775714,31.4057143 110.775714,31.8977143 L110.775714,35.7717143 L109.350571,35.7717143 L109.350571,22.1311429 L110.51,22.1311429 L110.707143,23.4194286 L110.775714,23.4194286 C111.142857,22.904 111.569714,22.532 112.056286,22.3028571 C112.542857,22.074 113.101429,21.9591429 113.730857,21.9591429 C114.979429,21.9591429 115.943143,22.386 116.621429,23.2394286 C117.3,24.0925714 117.639714,25.2894286 117.639714,26.8297143 C117.639714,28.376 117.294571,29.5768571 116.605143,30.4337143 C115.914571,31.2894286 114.956857,31.7171429 113.730857,31.7171429 L113.730857,31.7171429 Z" id="Fill-111" fill="#F9F8F7"></path>
                    <polygon id="Fill-112" fill="#F9F8F7" points="119.515143 31.5454286 120.940857 31.5454286 120.940857 18.1797143 119.515143 18.1797143"></polygon>
                    <path d="M125.917714,30.5405714 C126.805143,30.5405714 127.502,30.2974286 128.009429,29.8108571 C128.515714,29.3242857 128.769714,28.6425714 128.769714,27.7657143 L128.769714,26.9157143 L127.343143,26.9754286 C126.209429,27.016 125.392571,27.1917143 124.890857,27.5042857 C124.39,27.8162857 124.139429,28.3017143 124.139429,28.9602857 C124.139429,29.4754286 124.295143,29.868 124.607429,30.1365714 C124.919714,30.4062857 125.356,30.5405714 125.917714,30.5405714 Z M129.138857,31.5454286 L128.855143,30.2051429 L128.786286,30.2051429 C128.316857,30.7957143 127.848571,31.1951429 127.381714,31.4037143 C126.915429,31.6131429 126.332571,31.7171429 125.634,31.7171429 C124.700857,31.7171429 123.969143,31.4768571 123.439429,30.9957143 C122.909429,30.5145714 122.644571,29.8308571 122.644571,28.9431429 C122.644571,27.042 124.165429,26.0457143 127.205714,25.9537143 L128.804,25.902 L128.804,25.318 C128.804,24.5791429 128.644857,24.0334286 128.326857,23.6817143 C128.009429,23.3291429 127.500286,23.1534286 126.802286,23.1534286 C126.017429,23.1534286 125.129714,23.394 124.139429,23.8748571 L123.701143,22.784 C124.165429,22.532 124.673143,22.3345714 125.226286,22.1914286 C125.778571,22.0482857 126.332571,21.9765714 126.888286,21.9765714 C128.010571,21.9765714 128.842286,22.2254286 129.383714,22.7237143 C129.924571,23.222 130.195143,24.0208571 130.195143,25.1205714 L130.195143,31.5454286 L129.138857,31.5454286 L129.138857,31.5454286 Z" id="Fill-113" fill="#F9F8F7"></path>
                    <path d="M131.023143,22.1311429 L132.551429,22.1311429 L134.613143,27.5 C135.065429,28.7257143 135.346286,29.61 135.455429,30.1545714 L135.524,30.1545714 C135.598571,29.8617143 135.754857,29.3625714 135.992,28.6548571 C136.229714,27.9474286 137.007429,25.7734286 138.324,22.1311429 L139.853714,22.1311429 L135.807429,32.8511429 C135.406571,33.9105714 134.938571,34.6622857 134.402571,35.1068571 C133.867429,35.5502857 133.21,35.7717143 132.431714,35.7717143 C131.996286,35.7717143 131.566857,35.7231429 131.142857,35.626 L131.142857,34.4837143 C131.457429,34.5522857 131.81,34.5868571 132.199714,34.5868571 C133.178857,34.5868571 133.877143,34.0374286 134.295714,32.9374286 L134.819429,31.5977143 L131.023143,22.1311429" id="Fill-114" fill="#F9F8F7"></path>
                    <path d="M86.4897143,28.0074286 C86.942,27.554 86.9808571,26.9245714 86.9808571,26.5697143 C86.9808571,25.1522857 86.1345714,22.9468571 84.5005714,22.9468571 C83.988,22.9468571 83.4374286,23.2025714 83.122,23.5971429 C82.7877143,24.0105714 82.6885714,24.5414286 82.6885714,25.054 C82.6885714,26.3731429 83.4565714,28.5591429 85.1508571,28.5591429 C85.6428571,28.5591429 86.1734286,28.3228571 86.4897143,28.0074286 Z M85.9182857,31.7494286 C85.7611429,31.7288571 85.662,31.7288571 85.466,31.7288571 C85.2888571,31.7288571 84.2242857,31.7688571 83.398,32.0454286 C82.9648571,32.2017143 81.7042857,32.6742857 81.7042857,34.0731429 C81.7042857,35.4702857 83.0637143,36.4762857 85.1708571,36.4762857 C87.06,36.4762857 88.0654286,35.5685714 88.0654286,34.3485714 C88.0654286,33.3425714 87.4154286,32.8128571 85.9182857,31.7494286 Z M87.3168571,23.0057143 C87.7694286,23.3802857 88.7142857,24.1674286 88.7142857,25.6645714 C88.7142857,27.1208571 87.8874286,27.8114286 87.06,28.4602857 C86.804,28.716 86.5088571,28.9925714 86.5088571,29.4262857 C86.5088571,29.8585714 86.804,30.0951429 87.0214286,30.2725714 L87.7305714,30.8228571 C88.5968571,31.5514286 89.3837143,32.2214286 89.3837143,33.5808571 C89.3837143,35.4314286 87.5917143,37.3017143 84.2054286,37.3017143 C81.3497143,37.3017143 79.972,35.9434286 79.972,34.4854286 C79.972,33.7765714 80.3248571,32.7731429 81.488,32.0831429 C82.708,31.3348571 84.3634286,31.2374286 85.2491429,31.1768571 C84.9725714,30.8228571 84.658,30.4485714 84.658,29.8391429 C84.658,29.5048571 84.7568571,29.3077143 84.8551429,29.0702857 C84.6377143,29.0902857 84.4214286,29.11 84.2242857,29.11 C82.1377143,29.11 80.956,27.554 80.956,26.0188571 C80.956,25.1128571 81.37,24.1082857 82.2157143,23.3802857 C83.3385714,22.4548571 84.6777143,22.2968571 85.7417143,22.2968571 L89.7974286,22.2968571 L88.5368571,23.0057143 L87.3168571,23.0057143 L87.3168571,23.0057143 Z" id="Fill-115" fill="#F9F8F7"></path>
                    <path d="M77.3771429,29.842 C77.8497143,29.2122857 77.9677143,28.4262857 77.9677143,27.6588571 C77.9677143,25.9285714 77.1422857,22.626 74.704,22.626 C74.0557143,22.626 73.4068571,22.8822857 72.9351429,23.2957143 C72.1682857,23.9828571 72.03,24.848 72.03,25.6945714 C72.03,27.6394286 72.9934286,30.8431429 75.3728571,30.8431429 C76.1394286,30.8431429 76.926,30.4702857 77.3771429,29.842 Z M74.92,31.434 C71.7945714,31.434 70.1234286,28.996 70.1234286,26.7937143 C70.1234286,24.218 72.2265714,22.0171429 75.216,22.0171429 C78.1048571,22.0171429 79.9137143,24.2771429 79.9137143,26.6568571 C79.9137143,28.9757143 78.1254286,31.434 74.92,31.434 L74.92,31.434 Z" id="Fill-116" fill="#F9F8F7"></path>
                    <path d="M66.722,29.842 C67.1937143,29.2122857 67.312,28.4262857 67.312,27.6588571 C67.312,25.9285714 66.486,22.626 64.0477143,22.626 C63.3997143,22.626 62.7502857,22.8822857 62.2788571,23.2957143 C61.512,23.9828571 61.3745714,24.848 61.3745714,25.6945714 C61.3745714,27.6394286 62.3374286,30.8431429 64.7171429,30.8431429 C65.484,30.8431429 66.27,30.4702857 66.722,29.842 Z M64.2642857,31.434 C61.1382857,31.434 59.4671429,28.996 59.4671429,26.7937143 C59.4671429,24.218 61.5711429,22.0171429 64.5594286,22.0171429 C67.4491429,22.0171429 69.2577143,24.2771429 69.2577143,26.6568571 C69.2577143,28.9757143 67.4691429,31.434 64.2642857,31.434 L64.2642857,31.434 Z" id="Fill-117" fill="#F9F8F7"></path>
                    <path d="M57.9651429,31.126 L55.1385714,31.7782857 C53.9917143,31.9565714 52.9642857,32.1134286 51.8777143,32.1134286 C46.4217143,32.1134286 44.3471429,28.1008571 44.3471429,24.958 C44.3471429,21.124 47.2917143,17.5671429 52.3325714,17.5671429 C53.4002857,17.5671429 54.4271429,17.7248571 55.356,17.982 C56.8385714,18.3971429 57.53,18.9105714 57.9651429,19.2074286 L56.3242857,20.7688571 L55.6328571,20.9262857 L56.1268571,20.1354286 C55.4551429,19.4837143 54.2288571,18.2782857 51.8974286,18.2782857 C48.774,18.2782857 46.4217143,20.6511429 46.4217143,24.11 C46.4217143,27.8245714 49.1102857,31.3234286 53.4182857,31.3234286 C54.6845714,31.3234286 55.3354286,31.0665714 55.9288571,30.8288571 L55.9288571,27.6471429 L52.9448571,27.8051429 L54.5251429,26.9545714 L58.7157143,26.9545714 L58.2022857,27.4482857 C58.0631429,27.5674286 58.044,27.6074286 58.0042857,27.7642857 C57.9837143,27.9425714 57.9651429,28.516 57.9651429,28.7137143 L57.9651429,31.126" id="Fill-118" fill="#F9F8F7"></path>
                    <path d="M93.564,30.5568571 C92.9114286,30.4974286 92.7748571,30.3794286 92.7748571,29.6077143 L92.7748571,18.4205714 C92.7788571,18.378 92.7817143,18.3345714 92.7857143,18.2931429 C92.8654286,17.6017143 93.0625714,17.4831429 93.6762857,17.1268571 L90.8485714,17.1268571 L89.3657143,17.8385714 L90.8768571,17.8385714 L90.8768571,17.8477143 L90.8757143,17.8402857 L90.8757143,30.0428571 C90.8757143,30.4374286 90.7977143,30.4974286 90.3425714,31.0897143 L93.8414286,31.0897143 L94.5725714,30.6562857 C94.2371429,30.6154286 93.9005714,30.5962857 93.564,30.5568571" id="Fill-119" fill="#F9F8F7"></path>
                    <path d="M99.7622857,24.8882857 C100.134571,24.7514286 100.331143,24.6334286 100.331143,24.3588571 C100.331143,23.5742857 99.4482857,22.6705714 98.3874286,22.6705714 C97.6014286,22.6705714 96.1302857,23.2794286 96.1302857,25.3988571 C96.1302857,25.7325714 96.1694286,26.086 96.19,26.4402857 L99.7622857,24.8882857 Z M101.606857,30.7385714 C101.391714,30.8565714 101.175714,30.9945714 100.960571,31.092 C100.311429,31.3862857 99.6442857,31.4651429 99.0545714,31.4651429 C98.428,31.4651429 97.4457143,31.4245714 96.4437143,30.6991429 C95.0511429,29.7171429 94.4425714,28.0288571 94.4425714,26.5571429 C94.4425714,23.5148571 96.916,22.0234286 98.9377143,22.0234286 C99.6442857,22.0234286 100.371429,22.1997143 100.960571,22.5734286 C101.940857,23.2197143 102.196286,24.0637143 102.332857,24.5154286 L97.7211429,26.3811429 L96.2094286,26.4988571 C96.6994286,28.9914286 98.3874286,30.4431429 100.252857,30.4431429 C101.253714,30.4431429 101.980286,30.0902857 102.647429,29.7571429 L101.606857,30.7385714 L101.606857,30.7385714 Z" id="Fill-120" fill="#F9F8F7"></path>
                    <polyline id="Fill-121" fill="#F9F8F7" points="103.501429 22.1574286 103.501429 23.4528571 103.344286 23.4528571 103.344286 22.1574286 102.915714 22.1574286 102.915714 22.0234286 103.929714 22.0234286 103.929714 22.1574286 103.501429 22.1574286"></polyline>
                    <polyline id="Fill-122" fill="#F9F8F7" points="105.267143 23.4528571 105.267143 22.1457143 105.26 22.1457143 104.860857 23.4528571 104.738 23.4528571 104.335429 22.1457143 104.330571 22.1457143 104.330571 23.4528571 104.187714 23.4528571 104.187714 22.0234286 104.432571 22.0234286 104.796857 23.1788571 104.801714 23.1788571 105.160286 22.0234286 105.408571 22.0234286 105.408571 23.4528571 105.267143 23.4528571"></polyline>
                    <path d="M46.8545714,11.9842857 C46.5048571,10.9285714 46.3297143,10.3577143 46.3297143,10.2717143 L46.2805714,10.2717143 C46.2805714,10.3514286 46.0997143,10.9222857 45.7374286,11.9842857 L46.8545714,11.9842857 Z M48.2725714,13.7182857 L47.2905714,13.7182857 C47.2905714,13.5834286 47.1971429,13.2008571 47.0111429,12.5705714 L45.5931429,12.5705714 C45.4008571,13.1905714 45.3045714,13.5731429 45.3045714,13.7182857 L44.3808571,13.7182857 C44.3808571,13.6385714 44.6197143,12.9837143 45.0974286,11.754 C45.5751429,10.5245714 45.8142857,9.84714286 45.8142857,9.72228571 L46.9742857,9.72228571 C46.9742857,9.83885714 47.1905714,10.5062857 47.6234286,11.7248571 C48.0562857,12.9431429 48.2725714,13.608 48.2725714,13.7182857 L48.2725714,13.7182857 Z" id="Fill-123" fill="#FCFBFA"></path>
                    <path d="M52.2302857,13.7182857 L51.472,13.7182857 C51.472,13.6342857 51.1905714,13.1917143 50.628,12.3894286 C50.0388571,11.5442857 49.7031429,10.9665714 49.6214286,10.6554286 L49.5722857,10.6554286 C49.6234286,11.1034286 49.6488571,11.5085714 49.6488571,11.8708571 C49.6488571,12.376 49.6631429,12.992 49.692,13.7182857 L48.9368571,13.7182857 C48.9677143,13.0842857 48.9828571,12.3874286 48.9828571,11.6282857 C48.9828571,10.8814286 48.9677143,10.246 48.9368571,9.72228571 L49.8485714,9.72228571 C49.8485714,9.83085714 50.1011429,10.2637143 50.6065714,11.0205714 C51.1445714,11.8245714 51.4537143,12.37 51.5334286,12.6565714 L51.5794286,12.6565714 C51.5302857,12.2002857 51.506,11.7908571 51.506,11.4288571 C51.506,10.8742857 51.4914286,10.3054286 51.4628571,9.72228571 L52.2302857,9.72228571 C52.2014286,10.2297143 52.1871429,10.8651429 52.1871429,11.6282857 C52.1871429,12.3974286 52.2014286,13.0942857 52.2302857,13.7182857" id="Fill-124" fill="#FCFBFA"></path>
                    <path d="M55.8408571,11.7142857 C55.8408571,11.3214286 55.7262857,10.9905714 55.4971429,10.7211429 C55.268,10.4522857 54.918,10.3177143 54.4474286,10.3177143 C54.3594286,10.3177143 54.2385714,10.3268571 54.0851429,10.3454286 C54.1057143,10.7545714 54.116,11.182 54.116,11.6282857 C54.116,12.1174286 54.126,12.6022857 54.1465714,13.0831429 C54.2797143,13.1097143 54.4125714,13.1228571 54.5457143,13.1228571 C54.9854286,13.1228571 55.3114286,12.9862857 55.5231429,12.7131429 C55.7348571,12.44 55.8408571,12.1071429 55.8408571,11.7142857 Z M56.6785714,11.5822857 C56.6785714,12.1634286 56.4925714,12.6705714 56.12,13.1045714 C55.7477143,13.5385714 55.226,13.7551429 54.5548571,13.7551429 C54.252,13.7551429 53.8345714,13.7428571 53.3025714,13.7182857 C53.3291429,13.1002857 53.3425714,12.4037143 53.3425714,11.6282857 C53.3425714,10.8837143 53.3291429,10.2482857 53.3025714,9.72228571 L53.8397143,9.72228571 C53.9277143,9.72228571 54.0585714,9.71914286 54.2325714,9.71314286 C54.4062857,9.70685714 54.52,9.704 54.5731429,9.704 C55.3117143,9.704 55.8474286,9.888 56.18,10.2562857 C56.5122857,10.6245714 56.6785714,11.0665714 56.6785714,11.5822857 L56.6785714,11.5822857 Z" id="Fill-125" fill="#FCFBFA"></path>
                    <path d="M59.6297143,10.8948571 C59.6297143,10.4877143 59.3677143,10.284 58.844,10.284 C58.6514286,10.284 58.4817143,10.2982857 58.3342857,10.3268571 C58.3568571,10.6442857 58.3682857,11.0574286 58.3682857,11.5668571 C58.4805714,11.5711429 58.5757143,11.5731429 58.6537143,11.5731429 C59.3042857,11.5731429 59.6297143,11.3471429 59.6297143,10.8948571 Z M60.7805714,13.7182857 L59.872,13.7182857 C59.6345714,12.994 59.4525714,12.5471429 59.3257143,12.3771429 C59.1988571,12.2071429 58.9942857,12.1222857 58.712,12.1222857 C58.5931429,12.1222857 58.4797143,12.1234286 58.3711429,12.1254286 C58.3711429,12.6514286 58.3805714,13.1822857 58.3988571,13.7182857 L57.5457143,13.7182857 C57.572,13.1002857 57.5854286,12.4037143 57.5854286,11.6282857 C57.5854286,10.8837143 57.572,10.2482857 57.5457143,9.72228571 L58.0765714,9.72228571 C58.138,9.72228571 58.2662857,9.71914286 58.4617143,9.71314286 C58.6571429,9.70685714 58.8377143,9.704 59.0034286,9.704 C59.9425714,9.704 60.4122857,10.0251429 60.4122857,10.6677143 C60.4122857,11.1771429 60.144,11.532 59.608,11.7325714 L59.608,11.7785714 C59.8148571,11.836 59.9957143,11.9971429 60.1514286,12.262 C60.3068571,12.5268571 60.5165714,13.0125714 60.7805714,13.7182857 L60.7805714,13.7182857 Z" id="Fill-126" fill="#FCFBFA"></path>
                    <path d="M64.3331429,11.7357143 C64.3331429,11.308 64.2234286,10.9611429 64.0045714,10.6951429 C63.7857143,10.4294286 63.5154286,10.2962857 63.1942857,10.2962857 C62.8954286,10.2962857 62.642,10.4302857 62.4331429,10.6982857 C62.2245714,10.9665714 62.12,11.3048571 62.12,11.7142857 C62.12,12.1397143 62.23,12.486 62.45,12.7528571 C62.67,13.02 62.9397143,13.1537143 63.2588571,13.1537143 C63.5574286,13.1537143 63.8111429,13.0191429 64.02,12.75 C64.2285714,12.4808571 64.3331429,12.1428571 64.3331429,11.7357143 Z M65.18,11.6465714 C65.18,12.2748571 64.9877143,12.7957143 64.6031429,13.2088571 C64.2182857,13.622 63.7425714,13.8288571 63.176,13.8288571 C62.6357143,13.8288571 62.1834286,13.6391429 61.8194286,13.2594286 C61.4551429,12.88 61.2731429,12.3974286 61.2731429,11.8122857 C61.2731429,11.1842857 61.4651429,10.6634286 61.85,10.2502857 C62.2345714,9.83685714 62.7102857,9.63028571 63.2771429,9.63028571 C63.8174286,9.63028571 64.2694286,9.81942857 64.6337143,10.198 C64.998,10.5765714 65.18,11.0594286 65.18,11.6465714 L65.18,11.6465714 Z" id="Fill-127" fill="#FCFBFA"></path>
                    <path d="M66.9154286,13.7182857 L66.0468571,13.7182857 C66.0734286,13.0842857 66.0868571,12.3874286 66.0868571,11.6282857 C66.0868571,10.8814286 66.0734286,10.246 66.0468571,9.72228571 L66.9154286,9.72228571 C66.8888571,10.238 66.8754286,10.8731429 66.8754286,11.6282857 C66.8754286,12.3997143 66.8888571,13.0965714 66.9154286,13.7182857" id="Fill-128" fill="#FCFBFA"></path>
                    <path d="M70.5262857,11.7142857 C70.5262857,11.3214286 70.4114286,10.9905714 70.1825714,10.7211429 C69.9531429,10.4522857 69.6034286,10.3177143 69.1328571,10.3177143 C69.0448571,10.3177143 68.924,10.3268571 68.7705714,10.3454286 C68.7911429,10.7545714 68.8014286,11.182 68.8014286,11.6282857 C68.8014286,12.1174286 68.8114286,12.6022857 68.832,13.0831429 C68.9648571,13.1097143 69.098,13.1228571 69.2311429,13.1228571 C69.6708571,13.1228571 69.9968571,12.9862857 70.2085714,12.7131429 C70.4202857,12.44 70.5262857,12.1071429 70.5262857,11.7142857 Z M71.364,11.5822857 C71.364,12.1634286 71.178,12.6705714 70.8054286,13.1045714 C70.4331429,13.5385714 69.9111429,13.7551429 69.2402857,13.7551429 C68.9374286,13.7551429 68.52,13.7428571 67.988,13.7182857 C68.0145714,13.1002857 68.028,12.4037143 68.028,11.6282857 C68.028,10.8837143 68.0145714,10.2482857 67.988,9.72228571 L68.5251429,9.72228571 C68.6131429,9.72228571 68.744,9.71914286 68.918,9.71314286 C69.0917143,9.70685714 69.2054286,9.704 69.2585714,9.704 C69.9971429,9.704 70.5328571,9.888 70.8654286,10.2562857 C71.1977143,10.6245714 71.364,11.0665714 71.364,11.5822857 L71.364,11.5822857 Z" id="Fill-129" fill="#FCFBFA"></path>
                    <path d="M75.8477143,11.9842857 C75.498,10.9285714 75.3225714,10.3577143 75.3225714,10.2717143 L75.2737143,10.2717143 C75.2737143,10.3514286 75.0928571,10.9222857 74.7305714,11.9842857 L75.8477143,11.9842857 Z M77.2657143,13.7182857 L76.2837143,13.7182857 C76.2837143,13.5834286 76.1905714,13.2008571 76.004,12.5705714 L74.586,12.5705714 C74.3937143,13.1905714 74.2977143,13.5731429 74.2977143,13.7182857 L73.374,13.7182857 C73.374,13.6385714 73.6128571,12.9837143 74.0905714,11.754 C74.5682857,10.5245714 74.8071429,9.84714286 74.8071429,9.72228571 L75.9671429,9.72228571 C75.9671429,9.83885714 76.1837143,10.5062857 76.6165714,11.7248571 C77.0491429,12.9431429 77.2657143,13.608 77.2657143,13.7182857 L77.2657143,13.7182857 Z" id="Fill-130" fill="#FCFBFA"></path>
                    <path d="M80.054,10.9377143 C80.054,10.5 79.7634286,10.2808571 79.1822857,10.2808571 C79.0368571,10.2808571 78.8834286,10.2962857 78.722,10.3268571 C78.7445714,10.7137143 78.7557143,11.1514286 78.7557143,11.6405714 C78.8068571,11.6448571 78.8662857,11.6465714 78.9337143,11.6465714 C79.6805714,11.6465714 80.054,11.4102857 80.054,10.9377143 Z M80.8457143,10.7688571 C80.8457143,11.258 80.6642857,11.6191429 80.3008571,11.8522857 C79.938,12.0857143 79.4922857,12.2022857 78.9642857,12.2022857 C78.8682857,12.2022857 78.7997143,12.2002857 78.7588571,12.196 C78.7588571,12.5808571 78.77,13.088 78.7925714,13.7182857 L77.93,13.7182857 C77.9565714,13.1271429 77.97,12.4305714 77.97,11.6282857 C77.97,10.8917143 77.9565714,10.2562857 77.93,9.72228571 L78.4642857,9.72228571 C78.5397143,9.72228571 78.6851429,9.71914286 78.9,9.71314286 C79.1148571,9.70685714 79.3008571,9.704 79.4585714,9.704 C79.8471429,9.704 80.1757143,9.79171429 80.4437143,9.96771429 C80.712,10.144 80.8457143,10.4108571 80.8457143,10.7688571 L80.8457143,10.7688571 Z" id="Fill-131" fill="#FCFBFA"></path>
                    <path d="M83.7351429,10.9377143 C83.7351429,10.5 83.4445714,10.2808571 82.8634286,10.2808571 C82.718,10.2808571 82.5645714,10.2962857 82.4031429,10.3268571 C82.4257143,10.7137143 82.4368571,11.1514286 82.4368571,11.6405714 C82.488,11.6448571 82.5474286,11.6465714 82.6148571,11.6465714 C83.3617143,11.6465714 83.7351429,11.4102857 83.7351429,10.9377143 Z M84.5268571,10.7688571 C84.5268571,11.258 84.3451429,11.6191429 83.9822857,11.8522857 C83.6191429,12.0857143 83.1734286,12.2022857 82.6454286,12.2022857 C82.5491429,12.2022857 82.4808571,12.2002857 82.44,12.196 C82.44,12.5808571 82.4511429,13.088 82.4737143,13.7182857 L81.6111429,13.7182857 C81.6377143,13.1271429 81.6511429,12.4305714 81.6511429,11.6282857 C81.6511429,10.8917143 81.6377143,10.2562857 81.6111429,9.72228571 L82.1451429,9.72228571 C82.2208571,9.72228571 82.3662857,9.71914286 82.5811429,9.71314286 C82.796,9.70685714 82.982,9.704 83.1397143,9.704 C83.5282857,9.704 83.8568571,9.79171429 84.1248571,9.96771429 C84.3928571,10.144 84.5268571,10.4108571 84.5268571,10.7688571 L84.5268571,10.7688571 Z" id="Fill-132" fill="#FCFBFA"></path>
                    <path d="M89.6982857,11.7357143 C89.6982857,11.308 89.5888571,10.9611429 89.3697143,10.6951429 C89.1508571,10.4294286 88.8808571,10.2962857 88.5594286,10.2962857 C88.2608571,10.2962857 88.0071429,10.4302857 87.7982857,10.6982857 C87.5897143,10.9665714 87.4854286,11.3048571 87.4854286,11.7142857 C87.4854286,12.1397143 87.5951429,12.486 87.8154286,12.7528571 C88.0354286,13.02 88.3048571,13.1537143 88.624,13.1537143 C88.9228571,13.1537143 89.1765714,13.0191429 89.3851429,12.75 C89.594,12.4808571 89.6982857,12.1428571 89.6982857,11.7357143 Z M90.5454286,11.6465714 C90.5454286,12.2748571 90.3531429,12.7957143 89.9682857,13.2088571 C89.5834286,13.622 89.1077143,13.8288571 88.5411429,13.8288571 C88.0008571,13.8288571 87.5485714,13.6391429 87.1845714,13.2594286 C86.8205714,12.88 86.6382857,12.3974286 86.6382857,11.8122857 C86.6382857,11.1842857 86.8305714,10.6634286 87.2151429,10.2502857 C87.6,9.83685714 88.0757143,9.63028571 88.6425714,9.63028571 C89.1825714,9.63028571 89.6348571,9.81942857 89.9991429,10.198 C90.3631429,10.5765714 90.5454286,11.0594286 90.5454286,11.6465714 L90.5454286,11.6465714 Z" id="Fill-133" fill="#FCFBFA"></path>
                    <path d="M94.7054286,13.7182857 L93.9474286,13.7182857 C93.9474286,13.6342857 93.6662857,13.1917143 93.1034286,12.3894286 C92.514,11.5442857 92.1785714,10.9665714 92.0965714,10.6554286 L92.0477143,10.6554286 C92.0985714,11.1034286 92.1242857,11.5085714 92.1242857,11.8708571 C92.1242857,12.376 92.1385714,12.992 92.1671429,13.7182857 L91.4122857,13.7182857 C91.4428571,13.0842857 91.4582857,12.3874286 91.4582857,11.6282857 C91.4582857,10.8814286 91.4428571,10.246 91.4122857,9.72228571 L92.3237143,9.72228571 C92.3237143,9.83085714 92.5765714,10.2637143 93.082,11.0205714 C93.62,11.8245714 93.9288571,12.37 94.0088571,12.6565714 L94.0548571,12.6565714 C94.0057143,12.2002857 93.9811429,11.7908571 93.9811429,11.4288571 C93.9811429,10.8742857 93.9668571,10.3054286 93.9382857,9.72228571 L94.7054286,9.72228571 C94.6768571,10.2297143 94.6625714,10.8651429 94.6625714,11.6282857 C94.6625714,12.3974286 94.6768571,13.0942857 94.7054286,13.7182857" id="Fill-134" fill="#FCFBFA"></path>
                </g>
            </g>
        </g>
    </g>
</svg>