<svg width="57" height="56" viewBox="0 0 57 56" fill="none" xmlns="http://www.w3.org/2000/svg">
    <path d="M7.646 37.115a92.78 92.78 0 0 1-.415-13.454c.07-2.07.211-4.319 1.535-5.926C10.089 16.13 33.286 3.86 36.207 3.851c2.074 0 1.245 13.628 1.15 17.147-.03 1.01-.092 2.07-.664 2.899-.179.257-5.592 3.098-11.342 6.385-7.09 4.059-15.191 8.912-15.515 8.82.02 0-1.875.767-2.19-1.987z" fill="#D2D8FF"/>
    <path d="M7.341 37.52a87.603 87.603 0 0 1-.49-9.995c0-1.64.03-3.285.112-4.922a11.064 11.064 0 0 1 .785-4.101 4.426 4.426 0 0 1 1.848-2.045c.934-.62 1.901-1.19 2.868-1.753a224.494 224.494 0 0 1 18.181-9.457 85.486 85.486 0 0 1 3.737-1.632c.76-.348 1.559-.608 2.379-.775.776-.116.946.925 1.07 1.508.282 1.547.421 3.116.416 4.689.091 3.493-.054 6.991-.191 10.48.003.858-.048 1.715-.154 2.566-.079.454-.207 1.153-.56 1.49a2.612 2.612 0 0 1-.474.3c-1.801 1.075-3.666 2.053-5.496 3.07-5.232 2.914-10.38 5.933-15.557 8.944-1.744 1.016-3.48 2.044-5.252 3.006-.652.354-1.146.72-1.86.63-.96-.117-1.246-1.183-1.366-2.004-.029-.233-.415-.237-.374 0 .17 1.354.91 2.707 2.454 2.311.025 0 .141-.054.042-.029-.1.025.074 0 .112 0 .141-.053.28-.114.415-.183.614-.3 1.212-.646 1.806-.983 4.833-2.723 9.586-5.592 14.398-8.328 2.707-1.55 5.439-3.056 8.167-4.58.83-.459 1.66-.913 2.49-1.387a2.12 2.12 0 0 0 1.105-1.062c.415-.979.415-2.082.457-3.115.025-.687.054-1.378.083-2.082.07-1.853.129-3.706.15-5.56.024-1.923 0-3.85-.13-5.77-.09-1.2-.14-2.653-.738-3.748-.37-.67-.918-.612-1.574-.438-.992.29-1.963.648-2.906 1.07-3.106 1.312-6.132 2.816-9.134 4.34a234.972 234.972 0 0 0-9.81 5.226 95.657 95.657 0 0 0-3.683 2.136c-.756.433-1.481.918-2.172 1.449-1.478 1.212-1.764 3.594-1.876 5.368a93.759 93.759 0 0 0-.054 10.264 76.42 76.42 0 0 0 .394 5.101c.021.238.407.242.382 0z" fill="#001A36"/>
    <path d="M9.71 36.914a94.794 94.794 0 0 1-.363-13.65 12.371 12.371 0 0 1 .412-3.316c.13-.522.43-.985.855-1.314.668-.476 1.378-.9 2.084-1.318 5.085-3.029 10.363-5.74 15.654-8.362a80.526 80.526 0 0 1 7.43-3.382l-.228-.132c.236 1.972.322 3.96.256 5.946 0 3.183-.099 6.37-.26 9.532 0 .298.03.766-.185.986-.28.205-.581.376-.9.51l-2.274 1.243c-1.449.804-2.89 1.604-4.338 2.416-3.19 1.84-6.356 3.684-9.513 5.532-2.96 1.732-5.898 3.51-8.91 5.147-.211.116 0 .44.19.323 5.996-3.257 11.795-6.896 17.746-10.252 1.519-.862 3.04-1.707 4.565-2.536.762-.42 1.523-.835 2.282-1.243l.966-.543c.177-.104.479-.208.59-.386.104-.29.153-.596.144-.903.025-.348.03-.7.042-1.053.029-.878.066-1.757.099-2.635.057-1.658.107-3.353.124-5.031.029-2.354.086-4.77-.265-7.103a.182.182 0 0 0-.227-.133c-2.249.829-4.424 1.906-6.582 2.959a296.998 296.998 0 0 0-8.668 4.405c-2.525 1.335-5.039 2.69-7.503 4.144-.784.46-1.572.924-2.323 1.438a3.48 3.48 0 0 0-.632.49c-.586.62-.76 1.744-.862 2.606a40.024 40.024 0 0 0-.194 4.144 97.504 97.504 0 0 0 0 4.11c.037 2.454.169 4.903.412 7.34.03.24.4.261.376.02z" fill="#001A36"/>
    <path d="M28.37 24.123a14.72 14.72 0 0 1-2.387-1.323c-1.105-.697-2.186-1.429-3.287-2.156-1.1-.727-2.107-1.433-3.175-2.113a18.222 18.222 0 0 0-2.284-1.361c-.217-.102-.41.228-.189.33.815.402 1.6.866 2.35 1.386 1.088.71 2.16 1.441 3.237 2.168 1.076.727 2.156 1.454 3.257 2.143.754.508 1.553.94 2.387 1.29.222.088.316-.28.095-.364h-.005z" fill="#001A36"/>
    <path d="M28.15 24.157 17.98 29.75l-.681-11.9 10.85 6.306z" fill="#fff"/>
    <path d="M9.138 39.776c-2.527.555 15.855 11.548 18.92 10.951 2.967-.986 26.684-15.422 26.692-18.004 0-1.483-17.29-7.872-17.29-7.872L9.137 39.776z" fill="#D2D8FF"/>
    <path d="M9.277 39.724c-1.057.269.415 1.61.697 1.883a37.61 37.61 0 0 0 4.81 3.588 91.823 91.823 0 0 0 6.434 3.882 29.685 29.685 0 0 0 5.44 2.483c.518.21 1.08.284 1.635.215a6.001 6.001 0 0 0 1.244-.588c1.593-.828 3.131-1.804 4.662-2.756a221.127 221.127 0 0 0 12.94-8.69c1.795-1.313 3.583-2.65 5.267-4.106.61-.52 1.192-1.072 1.742-1.655.36-.347.66-.753.883-1.2.415-.981-1.153-1.656-1.808-2.045a65.606 65.606 0 0 0-6.06-2.963c-2.148-.956-4.309-1.87-6.482-2.764l-2.198-.89c-.228-.095-.618-.352-.88-.314a1.784 1.784 0 0 0-.489.273l-1.356.744-4.562 2.575-12.633 7.101-8.871 4.966-.46.26c-.208.117 0 .44.19.32l6.093-3.407 12.201-6.86 9.195-5.174c.271-.102.527-.24.76-.414.095-.103 0 .03-.059 0 .106.059.22.104.336.137 1.493.59 2.98 1.197 4.458 1.82 2.24.94 4.471 1.9 6.674 2.93 1.696.791 3.488 1.578 5.014 2.674.257.186.688.472.63.753a2.643 2.643 0 0 1-.697 1.06 29.104 29.104 0 0 1-3.778 3.356c-3.948 3.116-8.125 5.95-12.334 8.69a183.87 183.87 0 0 1-5.748 3.63 35.457 35.457 0 0 1-3.675 2.069c-.38.156-.802.175-1.195.054a12.403 12.403 0 0 1-2.223-.774 53.793 53.793 0 0 1-5.955-3.1 88.16 88.16 0 0 1-5.972-3.836 36.53 36.53 0 0 1-2.31-1.759 8.323 8.323 0 0 1-1.357-1.316 1.08 1.08 0 0 1-.203-.376c0-.062 0-.062.1-.091.253-.083.132-.443-.1-.385z" fill="#001A36"/>
    <path d="M8.74 40.087c-.159.876-.438 1.661.27 2.322.499.442 1.02.858 1.563 1.246 1.847 1.374 3.751 2.654 5.702 3.9 2.196 1.407 4.43 2.77 6.735 3.995.917.486 1.85.951 2.81 1.354a7.72 7.72 0 0 0 2.083.635c.967.108 1.963-.61 2.755-1.071 1.738-1.018 3.413-2.143 5.076-3.277 4.168-2.845 8.265-5.815 12.329-8.822 1.542-1.14 3.08-2.29 4.613-3.45.875-.665 2.113-1.384 2.584-2.418a2.679 2.679 0 0 0-.087-2.176c-.092-.22-.455-.125-.363.1a2.266 2.266 0 0 1-.45 2.69c-.12.118-.247.229-.38.333-.34.274-.695.54-1.045.81a399.683 399.683 0 0 1-4.072 3.057 411.395 411.395 0 0 1-11.803 8.51c-1.742 1.208-3.493 2.4-5.29 3.526-1.012.64-2.112 1.428-3.275 1.777A2.387 2.387 0 0 1 27.174 53c-.831-.263-1.64-.592-2.418-.984a69.023 69.023 0 0 1-6.251-3.497c-2.084-1.27-4.106-2.6-6.094-3.995a40.572 40.572 0 0 1-2.246-1.662 6 6 0 0 1-1.121-.959c-.317-.415-.03-1.171.07-1.715.042-.237-.316-.337-.362-.1H8.74z" fill="#001A36"/>
    <path d="M29.894 41.374c1.03 1.093 4.482 3.448 5.087 3.398.726-.061 8.887-5.867 8.933-6.117.071-.37-4.07-2.75-4.36-2.74-.29.007-9.66 5.46-9.66 5.46z" fill="#fff" opacity=".54"/>
    <path d="M25.87 22.572a1.002 1.002 0 0 0-.657-.76c-.645-.314-3.456-.507-3.87-.452-.366.02-.712.168-.983.418-.236.268-.319.642-.217.987.012.45.155.887.41 1.254.233.21.517.355.822.418 2.914.954 4.598.063 4.66-.719a2.272 2.272 0 0 0-.164-1.146z" fill="#fff"/>
    <path d="M21.653 21.359a1.527 1.527 0 0 0-.945.42.86.86 0 0 0-.135 1.058.91.91 0 0 0 .442.282c.516.202 2.112.998 4.024.543.11-.016.22-.046.323-.088.12-.068.228-.157.32-.261.224-.196.358-.48.368-.784-.029-.366-.352-.576-.643-.711-.622-.32-3.352-.51-3.754-.46z" fill="#D2D8FF"/>
    <path d="M21.426 21.352a1.399 1.399 0 0 0-1.244.826.9.9 0 0 0-.02.703c.09.227.267.404.489.486.854.419 1.772.68 2.712.775a5.2 5.2 0 0 0 1.065-.048c.304-.02.602-.092.884-.212.462-.251.748-.754.738-1.298-.17-.834-1.323-.943-1.966-1.034a22.626 22.626 0 0 0-1.621-.16 5.923 5.923 0 0 0-1.037 0c-.079 0-.079.139 0 .13a8.322 8.322 0 0 1 1.659.07 8.552 8.552 0 0 1 2.073.332c.535.187.975.662.655 1.268a1.52 1.52 0 0 1-.634.653c-.31.104-.632.168-.958.19a5.987 5.987 0 0 1-2.866-.462c-.36-.143-.978-.303-1.099-.714-.236-.805.564-1.246 1.182-1.337.1-.056.067-.181-.012-.168z" fill="#001A36"/>
    <path d="M20.1 22.702c.093.71.238 1.354.944 1.6a8.739 8.739 0 0 0 2.272.531c.807.06 2.018 0 2.547-.764.314-.424.181-1.18-.025-1.639-.032-.072-.137 0-.105.068.235.518.323 1.274-.133 1.698a2.48 2.48 0 0 1-1.396.523 6.102 6.102 0 0 1-2.272-.268 3.202 3.202 0 0 1-1.263-.497 2.098 2.098 0 0 1-.444-1.273c0-.08-.125-.047-.117.034l-.008-.013z" fill="#001A36"/>
    <path d="M20.833 23.153c.006.329.067.654.179.96.024.067.126.037.101-.03a2.895 2.895 0 0 1-.175-.93c0-.07-.108-.07-.105 0zM21.619 23.512a5.28 5.28 0 0 0 .021.942.06.06 0 0 0 .024.039c.012.008.026.01.039.004.028-.008.045-.043.038-.077a4.92 4.92 0 0 1 0-.909c0-.081-.098-.081-.104 0h-.018zM21.98 23.52c-.02.303-.02.607 0 .91 0 .094.108.094.105 0a7.149 7.149 0 0 1 0-.91c0-.038-.024-.07-.053-.07-.029 0-.052.032-.052.07zM23.036 23.87c0 .301 0 .607-.028.913 0 .09.098.09.105 0 0-.306.025-.612.028-.913 0-.039-.023-.07-.052-.07-.03 0-.053.031-.053.07zM23.733 23.873c0 .304 0 .608-.021.907 0 .093.102.093.105 0 0-.299.021-.603.021-.907 0-.04-.024-.073-.053-.073-.029 0-.052.033-.052.073zM24.399 23.846a.6.6 0 0 0 0 .222c.007.075.007.151 0 .226a2.74 2.74 0 0 1 0 .478c0 .075.09.113.101.034.031-.157.05-.317.056-.478a1.222 1.222 0 0 0 0-.226.802.802 0 0 1-.024-.222c.008-.034-.009-.069-.037-.078-.028-.01-.057.01-.065.044H24.4zM25.188 23.464v.07l-.025.042H25.1v-.033a2.376 2.376 0 0 1 .021.433c0 .146-.007.292-.02.437-.008.036.008.073.034.084a.041.041 0 0 0 .04-.005.069.069 0 0 0 .027-.042c.03-.17.048-.345.056-.52v-.247a1.22 1.22 0 0 0 0-.121.143.143 0 0 0-.07-.098.042.042 0 0 0-.063 0 .087.087 0 0 0-.028.051.103.103 0 0 0 0 .07c.052.06.126-.037.077-.098l.014-.023zM25.81 23.158c.037.305.037.614 0 .918 0 .075.09.107.098.032.04-.315.043-.634.007-.95 0-.075-.112-.079-.105 0zM21.019 21.395a4.102 4.102 0 0 1-.313.62 4.1 4.1 0 0 0-.256.668.065.065 0 0 0 .048.065c.03.008.06-.004.075-.03.07-.233.16-.46.27-.677.118-.195.22-.4.303-.612.027-.078-.101-.112-.127-.034zM21.382 21.398a.882.882 0 0 1-.146.3c-.061.098-.118.2-.17.304a3.735 3.735 0 0 0-.264.665.07.07 0 0 0 .015.064.058.058 0 0 0 .06.017.064.064 0 0 0 .043-.046 3.83 3.83 0 0 1 .267-.674c.057-.101.114-.198.175-.295a.912.912 0 0 0 .138-.3c0-.083-.102-.118-.118-.035zM21.706 21.39a4.15 4.15 0 0 1-.305.452c-.1.156-.183.319-.248.486-.011.03.011.062.05.07.038.009.077-.009.088-.04.064-.169.15-.333.253-.49.112-.144.213-.294.3-.448.034-.069-.104-.1-.138-.03zM22.101 21.396c-.098.308-.182.623-.251.943a.07.07 0 0 0 .015.044c.01.011.022.018.035.018.027-.002.049-.029.05-.062.067-.31.15-.614.248-.91.008-.033-.008-.067-.035-.076-.027-.01-.055.01-.062.043zM22.422 21.403c-.056.195-.123.39-.196.577a.056.056 0 0 0 .003.042.053.053 0 0 0 .032.027.056.056 0 0 0 .066-.04c.075-.188.14-.381.193-.577a.055.055 0 0 0-.005-.062.052.052 0 0 0-.058-.017.054.054 0 0 0-.035.05zM22.722 21.415c-.012.19-.045.377-.098.556-.006.034.01.068.039.077a.041.041 0 0 0 .039-.005.06.06 0 0 0 .024-.038c.054-.19.088-.389.101-.59a.073.073 0 0 0-.015-.046.048.048 0 0 0-.037-.018.044.044 0 0 0-.039.017.069.069 0 0 0-.014.047zM23.06 21.385a1.17 1.17 0 0 0-.083.257c-.007.024.01.05.038.057a.057.057 0 0 0 .04-.005.042.042 0 0 0 .023-.028 1.18 1.18 0 0 1 .095-.257.04.04 0 0 0-.005-.036.053.053 0 0 0-.034-.021c-.028-.006-.056.009-.063.033h-.01zM23.392 21.416l-.031.192a.049.049 0 0 0 0 .039.042.042 0 0 0 .031.024.056.056 0 0 0 .067-.035l.032-.192a.076.076 0 0 0 0-.039.056.056 0 0 0-.032-.024.049.049 0 0 0-.063.035h-.004zM23.759 21.415a.17.17 0 0 1-.018.102.12.12 0 0 1-.028.045.063.063 0 0 0 0 .035.063.063 0 0 0 0 .038.042.042 0 0 0 .039 0 .052.052 0 0 0 .038 0 .223.223 0 0 0 .046-.09.278.278 0 0 0 0-.095.067.067 0 0 0 0-.035.05.05 0 0 0-.035 0c-.028 0-.056.024-.053.052l.01-.052z" fill="#001A36"/>
    <path d="M25.863 21.511a.993.993 0 0 0-.656-.752c-.645-.316-3.452-.507-3.866-.449-.365.02-.711.167-.981.416a1.037 1.037 0 0 0-.218.98c.013.448.156.882.41 1.247.233.21.517.353.822.416 2.913.973 4.596.1 4.658-.669a2.261 2.261 0 0 0-.169-1.189z" fill="#fff"/>
    <path d="M21.305 20.308c-.35.018-.683.159-.946.4a.874.874 0 0 0-.135 1.07.936.936 0 0 0 .442.285c.516.2 2.112 1.007 4.023.548.11-.017.22-.047.323-.09.121-.069.23-.16.32-.267.226-.197.36-.484.368-.79-.029-.366-.352-.578-.642-.718-.623-.298-3.352-.489-3.753-.438z" fill="#D2D8FF"/>
    <path d="M21.425 19.95a1.404 1.404 0 0 0-1.245.831.899.899 0 0 0-.017.7c.089.226.265.402.486.485a7.797 7.797 0 0 0 2.713.774c.356.022.713.008 1.066-.043.303-.02.602-.092.883-.212.463-.251.749-.754.739-1.297-.17-.84-1.323-.948-1.966-1.034a20.36 20.36 0 0 0-1.622-.16 5.544 5.544 0 0 0-1.037 0c-.08 0-.08.138 0 .13a8.023 8.023 0 0 1 1.659.069 8.562 8.562 0 0 1 2.074.333c.535.186.975.662.655 1.263a1.509 1.509 0 0 1-.634.657 4.048 4.048 0 0 1-.959.19 5.996 5.996 0 0 1-2.862-.506c-.36-.142-.979-.302-1.099-.718-.236-.804.564-1.24 1.182-1.336.096-.009.062-.134-.016-.125z" fill="#001A36"/>
    <path d="M20.1 21.652c.093.71.238 1.355.945 1.6a8.916 8.916 0 0 0 2.271.532c.807.059 2.018 0 2.547-.769.314-.424.181-1.176-.025-1.634-.032-.073-.137 0-.105.063.235.518.323 1.274-.133 1.698a2.48 2.48 0 0 1-1.396.523 6.008 6.008 0 0 1-2.28-.242 3.265 3.265 0 0 1-1.263-.497 2.115 2.115 0 0 1-.444-1.274c0-.08-.125-.046-.117.034v-.034z" fill="#001A36"/>
    <path d="M20.833 22.103c.007.328.067.653.179.96.024.066.126.036.101-.03a2.895 2.895 0 0 1-.175-.93c0-.07-.108-.07-.105 0zM21.269 22.462a5.25 5.25 0 0 0 .02.939c.003.017.011.032.024.04a.041.041 0 0 0 .04.007c.028-.01.045-.047.038-.082-.033-.3-.04-.603-.017-.904 0-.082-.098-.082-.105 0zM21.98 22.47c-.02.304-.02.61 0 .914 0 .089.108.089.105 0-.02-.304-.02-.61 0-.913 0-.038-.028-.07-.053-.07-.029 0-.052.03-.052.07zM22.686 22.82c0 .305 0 .61-.028.91 0 .093.098.093.105 0 0-.3.025-.605.028-.91 0-.038-.023-.07-.052-.07-.03 0-.053.032-.053.07zM23.733 22.823c0 .304 0 .603-.021.907 0 .093.102.093.105 0 0-.304.021-.603.021-.907 0-.04-.024-.073-.053-.073-.029 0-.052.033-.052.073zM24.446 22.796a.57.57 0 0 0 0 .219c.007.077.007.154 0 .231-.003.16-.021.32-.052.475 0 .08.09.113.101.033.03-.155.05-.314.056-.474a1.293 1.293 0 0 0 0-.232.77.77 0 0 1-.024-.218c.007-.034-.01-.068-.037-.078-.028-.009-.057.01-.065.044h.021zM25.2 22.4v.07l-.025.041h-.063v-.032a2.252 2.252 0 0 1 .021.426c0 .154-.006.309-.02.462-.008.036.008.072.034.083.025 0 .063 0 .067-.046a3.98 3.98 0 0 0 .024-.5v-.245a1.53 1.53 0 0 0 0-.124.18.18 0 0 0-.028-.107c-.018-.02-.045-.02-.063 0a.07.07 0 0 0-.028.051.083.083 0 0 0 0 .065c.053.055.126-.042.077-.097l.004-.047zM25.456 22.106a3.85 3.85 0 0 1 0 .92c0 .074.09.106.098.031.045-.314.052-.635.02-.951 0-.075-.111-.075-.104 0h-.014zM21.02 20.347a4.264 4.264 0 0 1-.312.614 4.03 4.03 0 0 0-.255.66c-.026.078.102.113.123.035.07-.23.16-.454.268-.67.118-.193.22-.395.304-.605a.064.064 0 0 0-.047-.079.066.066 0 0 0-.08.045z" fill="#001A36"/>
    <path d="M21.382 19.998a.886.886 0 0 1-.146.3 3.893 3.893 0 0 0-.434.968c-.009.035.01.072.043.082.032.01.066-.011.075-.047a3.804 3.804 0 0 1 .442-.971.883.883 0 0 0 .138-.296c0-.084-.102-.12-.118-.036zM21.706 20.327c-.09.158-.192.311-.305.46-.1.157-.183.32-.248.49-.011.03.011.062.05.07.038.01.077-.009.088-.04.066-.166.15-.328.253-.482.111-.147.212-.299.3-.455.034-.07-.104-.1-.138-.031v-.012zM22.101 20.345a9.794 9.794 0 0 0-.251.943.07.07 0 0 0 .015.044c.01.011.022.018.035.018.027-.002.049-.029.05-.062.066-.31.15-.614.248-.91.008-.033-.008-.067-.035-.076-.027-.009-.055.01-.062.043zM22.429 20.34c-.056.2-.123.395-.196.59a.056.056 0 0 0 .035.067.05.05 0 0 0 .04-.004.055.055 0 0 0 .026-.033c.071-.194.132-.393.182-.594.021-.067-.08-.096-.098-.026h.01zM22.722 20.364c-.012.19-.045.378-.098.557-.006.034.01.068.039.077.027.008.054-.01.063-.043.054-.19.088-.39.101-.591a.072.072 0 0 0-.015-.046.048.048 0 0 0-.037-.018c-.03 0-.053.028-.053.064zM23.066 20.33a1.208 1.208 0 0 0-.084.263c-.007.024.01.05.039.057.024 0 .06 0 .063-.033.017-.09.045-.178.084-.262.006-.024-.01-.048-.039-.054-.027-.005-.053.008-.063.03zM23.392 20.366l-.031.192a.05.05 0 0 0 0 .038.07.07 0 0 0 .031.025.056.056 0 0 0 .067-.035l.031-.192a.085.085 0 0 0 0-.042.039.039 0 0 0-.031-.021.049.049 0 0 0-.067.035z" fill="#001A36"/>
    <path d="M23.384 20.354a.216.216 0 0 1 0 .046.17.17 0 0 1 0 .056.123.123 0 0 1-.028.045.09.09 0 0 0 0 .038.05.05 0 0 0 .052.053.052.052 0 0 0 .039 0 .248.248 0 0 0 .045-.091.294.294 0 0 0 0-.095.076.076 0 0 0 0-.038.063.063 0 0 0-.035 0 .052.052 0 0 0-.052.053l-.021-.067z" fill="#001A36"/>
    <path d="M25.866 20.466a1.01 1.01 0 0 0-.66-.758c-.64-.312-3.452-.503-3.866-.449-.364.02-.709.166-.977.416a1.039 1.039 0 0 0-.221.982c.011.448.154.883.41 1.248a1.8 1.8 0 0 0 .82.416c2.915.97 4.601.096 4.659-.67a2.254 2.254 0 0 0-.165-1.185z" fill="#fff"/>
    <path d="M21.651 19.258c-.354.024-.69.173-.95.421a.886.886 0 0 0-.135 1.057c.12.136.275.234.447.282.516.203 2.109.999 4.025.544.111-.017.22-.047.324-.089a1.17 1.17 0 0 0 .315-.26c.23-.2.366-.492.373-.801-.033-.366-.356-.577-.643-.712-.627-.303-3.354-.492-3.756-.442z" fill="#D2D8FF"/>
    <path d="M21.42 18.901a1.402 1.402 0 0 0-1.239.827.902.902 0 0 0-.018.704c.09.227.268.404.49.485.85.418 1.763.68 2.698.774.355.021.71.006 1.062-.047.309-.012.613-.078.9-.195a1.43 1.43 0 0 0 .736-1.298c-.165-.834-1.318-.942-1.958-1.033a22.242 22.242 0 0 0-1.616-.16 5.837 5.837 0 0 0-1.03 0c-.078 0-.078.138 0 .13a8.213 8.213 0 0 1 1.654.069 8.496 8.496 0 0 1 2.066.333c.537.186.976.662.653 1.267-.14.282-.361.51-.632.653a3.752 3.752 0 0 1-.95.19 5.948 5.948 0 0 1-2.86-.462c-.356-.143-.976-.303-1.096-.714-.231-.805.562-1.246 1.182-1.337.07-.073.037-.199-.041-.186z" fill="#001A36"/>
    <path d="M20.118 20.602c.098.709.251 1.354.993 1.6.774.277 1.58.456 2.399.53.852.06 2.13 0 2.689-.764.332-.445.196-1.18 0-1.638-.035-.072-.145 0-.111.068.247.518.336 1.273-.145 1.698a2.696 2.696 0 0 1-1.474.522 6.79 6.79 0 0 1-2.446-.267 3.474 3.474 0 0 1-1.33-.497c-.354-.306-.426-.85-.469-1.274 0-.08-.136-.046-.123.034l.017-.012z" fill="#001A36"/>
    <path d="M20.831 21.055c.008.328.07.652.182.957.025.067.126.037.102-.03a2.79 2.79 0 0 1-.179-.927.054.054 0 0 0-.052-.055.054.054 0 0 0-.053.055zM21.62 21.412c-.022.314-.015.63.02.943.01.034.039.052.067.043.031 0 .038-.043.035-.077a5.245 5.245 0 0 1 0-.909c0-.082-.098-.082-.105 0h-.018zM22.329 21.421a7.835 7.835 0 0 0 0 .91c0 .093.112.093.105 0a7.835 7.835 0 0 1 0-.91.08.08 0 0 0-.014-.051c-.01-.014-.024-.02-.039-.02-.029 0-.052.032-.052.071zM23.036 21.77c0 .302 0 .608-.028.913 0 .09.102.09.105 0 .018-.305.028-.611.028-.912 0-.04-.023-.07-.052-.07-.03 0-.053.03-.053.07zM23.733 21.774c0 .304 0 .602-.021.906 0 .093.098.093.105 0 0-.303.021-.602.021-.906 0-.04-.024-.074-.053-.074-.029 0-.052.033-.052.074zM24.447 21.747a.536.536 0 0 0 0 .221c.007.076.007.152 0 .227-.007.16-.025.32-.053.477 0 .076.088.113.102.034.027-.158.046-.317.056-.478a1.643 1.643 0 0 0 0-.226.605.605 0 0 1-.025-.222c.008-.034-.009-.068-.037-.078-.028-.009-.057.01-.064.044h.02zM25.19 21.377v.067l-.025.036h-.063v-.032c.011.067.02.133.024.2v.214c.004.14-.003.28-.02.418-.007.036.01.071.038.08.01.033.04.05.067.036.026-.014.038-.052.027-.085a3.172 3.172 0 0 0 0-.489 2.647 2.647 0 0 0 0-.236v-.115a.2.2 0 0 0-.027-.107.044.044 0 0 0-.063 0 .07.07 0 0 0-.032.049.095.095 0 0 0 0 .067c.053.057.126-.036.073-.094v-.009zM25.804 21.057c.037.305.037.614 0 .919 0 .075.091.106.102.031.045-.314.052-.633.02-.95 0-.074-.111-.078-.104 0h-.018zM21.02 19.297a4.484 4.484 0 0 1-.31.612 4.05 4.05 0 0 0-.258.66.064.064 0 0 0 .017.062c.016.016.04.023.063.017a.065.065 0 0 0 .047-.045c.069-.23.158-.454.267-.668.118-.192.219-.394.302-.604a.064.064 0 0 0-.046-.079.066.066 0 0 0-.081.045zM21.386 18.948a.96.96 0 0 1-.147.3 2.735 2.735 0 0 0-.175.305 4.066 4.066 0 0 0-.26.667c-.025.08.093.115.117.036.069-.235.159-.461.27-.676.052-.102.113-.199.175-.296a.82.82 0 0 0 .134-.3c0-.084-.098-.12-.114-.036zM21.708 19.289c-.077.16-.215.301-.31.454a2.84 2.84 0 0 0-.244.488c-.029.068.11.099.138.03.065-.17.148-.334.248-.492.114-.144.216-.295.306-.45.029-.068-.11-.099-.138-.03zM22.102 19.296c-.1.307-.184.622-.252.942 0 .033.026.062.05.062.027 0 .05-.028.05-.062.067-.309.15-.613.248-.91.008-.033-.008-.067-.035-.076-.026-.009-.054.01-.061.044zM22.422 19.29c-.053.2-.119.397-.196.589a.06.06 0 0 0 .039.07.052.052 0 0 0 .063-.04c.075-.193.14-.39.195-.589.006-.02 0-.04-.013-.053a.05.05 0 0 0-.05-.015.054.054 0 0 0-.038.039zM22.72 19.314c-.01.19-.041.377-.094.556a.073.073 0 0 0 .004.048.052.052 0 0 0 .031.029.044.044 0 0 0 .041-.004.063.063 0 0 0 .026-.039 2.58 2.58 0 0 0 .098-.59.068.068 0 0 0-.014-.047.044.044 0 0 0-.039-.017c-.029 0-.052.029-.052.064zM23.068 19.284c-.038.083-.066.17-.084.258a.04.04 0 0 0 .003.035c.007.01.018.018.032.022.029.006.058-.009.066-.033.019-.088.046-.174.08-.258a.039.039 0 0 0-.003-.035.051.051 0 0 0-.031-.022c-.028-.005-.056.01-.063.033zM23.393 19.314l-.032.193a.07.07 0 0 0 0 .038.038.038 0 0 0 .032.025.049.049 0 0 0 .063-.035l.031-.193a.05.05 0 0 0 0-.038.07.07 0 0 0-.031-.025.056.056 0 0 0-.067.035h.004zM23.737 19.335v.031a.165.165 0 0 1 0 .056.115.115 0 0 1-.024.046.045.045 0 0 0 0 .035.052.052 0 0 0 0 .038.042.042 0 0 0 .038 0 .045.045 0 0 0 .035 0 .287.287 0 0 0 .05-.09.212.212 0 0 0 0-.095.045.045 0 0 0 0-.035.053.053 0 0 0-.092.035l-.007-.021z" fill="#001A36"/>
    <path d="M25.516 19.413a1.01 1.01 0 0 0-.66-.757c-.64-.312-3.452-.504-3.866-.445-.364.016-.71.164-.977.416a1.038 1.038 0 0 0-.222.981c.012.448.155.882.41 1.248.234.21.517.353.822.416 2.913.969 4.6.096 4.657-.67a2.253 2.253 0 0 0-.164-1.19z" fill="#fff"/>
    <path d="M20.951 18.209a1.52 1.52 0 0 0-.95.403.9.9 0 0 0-.135 1.066.945.945 0 0 0 .442.285c.52.204 2.114 1.006 4.03.548.111-.017.22-.047.324-.09.12-.067.226-.156.315-.263.226-.197.361-.484.373-.79-.033-.37-.356-.577-.643-.717-.627-.319-3.354-.493-3.756-.442z" fill="#D2D8FF"/>
    <path d="M21.073 17.852c-.53.009-1.01.328-1.242.827a.904.904 0 0 0-.018.706c.09.227.268.404.49.485.856.42 1.774.68 2.715.772.355.02.711.005 1.063-.048.303-.02.601-.091.882-.212.463-.25.75-.755.737-1.3-.166-.836-1.32-.945-1.962-1.035a22.194 22.194 0 0 0-1.618-.16 5.854 5.854 0 0 0-1.03-.023c-.08 0-.08.143 0 .13a8.236 8.236 0 0 1 1.655.07c.7.027 1.394.14 2.069.333.534.187.977.663.654 1.27-.14.282-.362.511-.633.654-.31.105-.631.17-.956.19a5.906 5.906 0 0 1-2.86-.463c-.356-.143-.977-.303-1.097-.715-.232-.806.563-1.243 1.184-1.338.078-.03.045-.157-.033-.143z" fill="#001A36"/>
    <path d="M19.75 19.552c.093.709.238 1.354.94 1.6a8.823 8.823 0 0 0 2.273.53c.807.06 2.018 0 2.546-.763.315-.425.186-1.18 0-1.639-.032-.072-.137 0-.105.068.234.518.32 1.274-.137 1.677a2.468 2.468 0 0 1-1.396.522 6.11 6.11 0 0 1-2.28-.246 3.242 3.242 0 0 1-1.26-.493 2.093 2.093 0 0 1-.444-1.273c0-.08-.129-.047-.117.034l-.02-.017z" fill="#001A36"/>
    <path d="M20.481 20.003c.008.329.07.653.182.96.025.066.126.037.102-.03a2.801 2.801 0 0 1-.179-.93c0-.07-.108-.07-.105 0zM20.919 20.37c-.02.311-.014.625.021.935.01.033.039.051.066.043.032 0 .039-.043.035-.078a5.265 5.265 0 0 1-.017-.909c0-.082-.098-.082-.105 0v.009zM21.629 20.37a7.88 7.88 0 0 0 0 .91c0 .093.112.093.105 0a7.88 7.88 0 0 1 0-.91.08.08 0 0 0-.014-.051c-.01-.014-.024-.02-.039-.019a.047.047 0 0 0-.037.02.083.083 0 0 0-.015.05zM22.337 20.72c0 .302 0 .608-.029.913 0 .09.102.09.105 0 0-.305.029-.611.029-.912 0-.039-.024-.07-.053-.07-.029 0-.052.031-.052.07zM23.383 20.724c0 .304 0 .608-.021.907 0 .093.098.093.105 0 0-.3.021-.603.021-.907 0-.04-.023-.074-.052-.074-.03 0-.053.033-.053.074zM24.08 20.697a.532.532 0 0 0 0 .222c.012.074.018.15.017.226a3.61 3.61 0 0 1-.053.477c0 .076.088.114.102.034.027-.156.046-.314.056-.473a1.671 1.671 0 0 0 0-.23.605.605 0 0 1-.025-.223.072.072 0 0 0-.013-.06.047.047 0 0 0-.05-.018.059.059 0 0 0-.038.045h.003zM24.846 20.31v.069l-.024.042h-.063v-.033c.011.07.02.14.024.21v.224c.004.146-.003.293-.02.437-.008.039.01.078.038.089.028.009.056-.014.063-.051.02-.167.028-.335.024-.503a2.904 2.904 0 0 0 0-.247v-.121c0-.04-.009-.08-.028-.112a.042.042 0 0 0-.063 0 .074.074 0 0 0-.031.051.104.104 0 0 0 0 .07c.052.06.126-.037.073-.098l.007-.028zM25.105 20.008a4.03 4.03 0 0 1 0 .918c0 .075.09.106.101.032.044-.315.051-.634.021-.95 0-.075-.112-.079-.105 0h-.017zM21.343 18.239c-.075.16-.21.301-.302.454-.098.156-.177.32-.237.488-.028.069.107.1.135.03.069-.17.156-.334.26-.491.11-.145.21-.295.297-.45.028-.07-.107-.1-.135-.031h-.018zM21.752 18.246c-.1.307-.184.622-.252.942 0 .033.026.062.05.062a.045.045 0 0 0 .035-.018.07.07 0 0 0 .014-.044c.069-.309.152-.612.25-.91.006-.032-.01-.066-.036-.076-.026-.009-.054.01-.061.044zM22.072 18.24c-.055.2-.12.397-.196.589a.06.06 0 0 0 .038.07.052.052 0 0 0 .063-.04c.076-.193.142-.39.197-.589a.056.056 0 0 0-.037-.068.052.052 0 0 0-.065.039zM22.376 18.265c-.01.19-.042.376-.094.555a.072.072 0 0 0 .003.048.052.052 0 0 0 .032.03.044.044 0 0 0 .04-.005.062.062 0 0 0 .026-.039c.052-.19.081-.389.088-.59a.068.068 0 0 0-.015-.046.044.044 0 0 0-.038-.018.048.048 0 0 0-.037.02.073.073 0 0 0-.015.045h.01zM22.714 18.234c-.035.084-.062.17-.08.258a.04.04 0 0 0 .003.035c.007.01.018.018.032.022.029.006.058-.009.066-.033.019-.088.046-.174.08-.258a.04.04 0 0 0-.003-.034.051.051 0 0 0-.031-.023c-.029-.005-.058.01-.067.033zM23.043 18.265l-.032.192a.088.088 0 0 0 0 .043c.006.012.018.02.032.02a.05.05 0 0 0 .063-.035l.031-.192a.049.049 0 0 0 0-.038.07.07 0 0 0-.031-.025.052.052 0 0 0-.067.035h.004z" fill="#001A36"/>
    <path d="M23.038 18.285v.032a.327.327 0 0 1 0 .055.192.192 0 0 1-.025.046.045.045 0 0 0 0 .035.049.049 0 0 0 0 .038.042.042 0 0 0 .038 0 .045.045 0 0 0 .036 0 .287.287 0 0 0 .049-.09.215.215 0 0 0 0-.095.046.046 0 0 0 0-.035.053.053 0 0 0-.091.035l-.008-.021z" fill="#001A36"/>
    <path d="M26.218 18.37a1.014 1.014 0 0 0-.66-.761c-.641-.314-3.453-.507-3.868-.448-.363.019-.709.167-.977.418a1.048 1.048 0 0 0-.222.988c.016.443.16.872.411 1.234.233.21.516.355.821.419 2.915.974 4.598.096 4.66-.674.05-.4-.007-.806-.165-1.176z" fill="#fff"/>
    <path d="M21.648 17.16a1.49 1.49 0 0 0-.946.4.906.906 0 0 0-.135 1.071.97.97 0 0 0 .442.281c.52.204 2.113 1.008 4.03.549.11-.015.22-.045.323-.09.12-.068.226-.157.315-.263.228-.2.363-.49.373-.8-.033-.37-.356-.578-.643-.718-.627-.294-3.35-.485-3.76-.43z" fill="#D2D8FF"/>
    <path d="M21.425 17.156c-.53.009-1.011.328-1.244.825a.897.897 0 0 0-.018.703c.09.227.269.403.491.484.852.42 1.769.682 2.708.774.356.02.712.005 1.066-.044.303-.023.601-.096.883-.216.471-.252.76-.765.738-1.317-.166-.833-1.323-.941-1.966-1.032a22.387 22.387 0 0 0-1.621-.16 5.895 5.895 0 0 0-1.033 0c-.078 0-.078.143 0 .13a8.299 8.299 0 0 1 1.66.069c.7.027 1.396.139 2.073.332.534.186.978.661.655 1.266-.14.281-.363.51-.635.652-.31.106-.632.17-.958.19a5.893 5.893 0 0 1-2.865-.462c-.357-.143-.979-.303-1.099-.713-.232-.803.564-1.24 1.186-1.334.091-.035.058-.16-.02-.147z" fill="#001A36"/>
    <path d="M20.105 18.5c.098.71.252 1.355.995 1.606a9.725 9.725 0 0 0 2.404.527c.854.06 2.135 0 2.694-.765.333-.425.197-1.181 0-1.636-.038-.076-.145 0-.11.064.247.518.336 1.275-.146 1.7-.43.316-.944.498-1.477.522a6.813 6.813 0 0 1-2.413-.246 3.546 3.546 0 0 1-1.358-.514 2.026 2.026 0 0 1-.47-1.275c0-.08-.136-.047-.123.034l.004-.017z" fill="#001A36"/>
    <path d="M20.831 18.953c.006.329.068.654.182.96.025.067.126.037.102-.03a2.804 2.804 0 0 1-.179-.93c0-.07-.108-.07-.105 0zM21.619 19.311c-.021.315-.014.631.02.944 0 .034.043.051.067.043.027-.01.042-.045.035-.078a5.245 5.245 0 0 1-.017-.909c0-.081-.098-.081-.105 0zM22.329 19.32a7.883 7.883 0 0 0 0 .91c0 .093.108.093.105 0a7.883 7.883 0 0 1 0-.91c0-.038-.024-.07-.053-.07-.029 0-.052.032-.052.07zM23.036 19.671c0 .301 0 .607-.028.913 0 .089.102.089.105 0 0-.306.028-.612.028-.913 0-.039-.023-.07-.052-.07-.03 0-.053.031-.053.07zM23.733 19.674c0 .304 0 .608-.021.907 0 .093.098.093.105 0 0-.3.021-.603.021-.907 0-.04-.024-.073-.053-.073-.029 0-.052.033-.052.073zM24.78 19.647a.535.535 0 0 0 0 .222c.013.074.018.15.017.226-.007.16-.024.32-.052.477 0 .08.087.113.101.033.027-.156.046-.314.056-.473a2.453 2.453 0 0 0 0-.23.604.604 0 0 1-.024-.222.072.072 0 0 0-.013-.06.047.047 0 0 0-.051-.017.059.059 0 0 0-.038.044h.004zM25.212 19.276v.069l-.025.04h-.063v-.031c.012.068.02.137.025.206v.22c.003.145-.004.29-.021.433-.007.038.01.076.038.087.028-.005.048-.037.046-.073.018-.165.027-.33.024-.497a2.908 2.908 0 0 0 0-.243v-.12a.234.234 0 0 0-.024-.105.048.048 0 0 0-.063 0 .072.072 0 0 0-.032.05.1.1 0 0 0 0 .07c.05.059.126-.038.074-.097l.02-.01zM25.807 18.956c.035.306.035.615 0 .92 0 .075.09.106.101.032.042-.315.046-.635.014-.952 0-.074-.112-.074-.105 0h-.01z" fill="#001A36"/>
    <path d="M22.7 25.015a1.002 1.002 0 0 0-.66-.757c-.64-.316-3.451-.503-3.866-.449-.363.02-.708.166-.976.416-.23.27-.307.64-.201.98.012.449.155.882.41 1.248.233.21.516.353.82.416 2.914.973 4.6.1 4.658-.665a2.25 2.25 0 0 0-.185-1.19z" fill="#fff"/>
    <path d="M18.501 23.808c-.351.019-.686.16-.95.4a.909.909 0 0 0-.135 1.07c.12.135.273.233.442.285.52.2 2.113 1.007 4.03.548.111-.017.22-.047.324-.09.12-.068.227-.158.315-.267a1.09 1.09 0 0 0 .373-.79c-.033-.366-.356-.578-.643-.714-.627-.302-3.355-.493-3.756-.442z" fill="#D2D8FF"/>
    <path d="M18.275 23.8c-.53.01-1.011.33-1.244.828a.901.901 0 0 0-.018.706c.09.227.269.403.491.485.853.42 1.77.68 2.708.77.356.023.713.009 1.066-.043.304-.02.602-.091.883-.212a1.43 1.43 0 0 0 .738-1.3c-.165-.84-1.322-.943-1.965-1.034a22.334 22.334 0 0 0-1.622-.16 5.498 5.498 0 0 0-1.033 0c-.078 0-.078.138 0 .13a8.271 8.271 0 0 1 1.66.069 8.545 8.545 0 0 1 2.073.333c.535.187.979.663.655 1.265a1.468 1.468 0 0 1-.634.658c-.31.105-.633.17-.958.19a5.985 5.985 0 0 1-2.866-.463c-.357-.143-.979-.303-1.099-.719-.22-.831.576-1.264 1.199-1.381.066-.009.066-.134-.034-.121z" fill="#001A36"/>
    <path d="M16.95 25.16c.094.71.239 1.355.941 1.601a8.997 8.997 0 0 0 2.272.523c.807.059 2.018 0 2.546-.769.315-.424.186-1.176 0-1.634-.036-.073-.137 0-.105.063.234.523.32 1.274-.137 1.698a2.5 2.5 0 0 1-1.396.523 6.109 6.109 0 0 1-2.28-.247 3.178 3.178 0 0 1-1.28-.484c-.334-.305-.403-.849-.443-1.273 0-.08-.13-.047-.117.034v-.034z" fill="#001A36"/>
    <path d="M17.681 25.953c.006.329.068.654.182.96.025.067.126.037.102-.03a2.804 2.804 0 0 1-.179-.93c0-.07-.108-.07-.105 0zM18.108 25.965c-.016.314-.003.63.038.94.01.033.039.052.067.043.031 0 .038-.043.035-.077a5.233 5.233 0 0 1 0-.906c0-.086-.098-.086-.105 0h-.035zM18.83 26.319a7.607 7.607 0 0 0 0 .916c0 .087.108.087.104 0a7.607 7.607 0 0 1 0-.916.08.08 0 0 0-.015-.049.047.047 0 0 0-.037-.02.047.047 0 0 0-.037.02.08.08 0 0 0-.016.049zM19.887 26.32c0 .305 0 .609-.029.913 0 .09.102.09.105 0 0-.304.028-.608.028-.913 0-.039-.023-.07-.052-.07-.029 0-.052.031-.052.07zM20.583 26.323c0 .304 0 .603-.021.907 0 .093.098.093.105 0 0-.304.021-.603.021-.907 0-.04-.024-.073-.052-.073-.03 0-.053.033-.053.073zM21.297 26.296a.503.503 0 0 0 0 .219 3.568 3.568 0 0 1-.053.706c0 .08.088.113.102.033.027-.156.046-.315.056-.474a1.714 1.714 0 0 0 0-.232.584.584 0 0 1-.025-.218.072.072 0 0 0-.013-.061.047.047 0 0 0-.05-.017.059.059 0 0 0-.038.044h.02zM22.046 26.26v.07l-.024.042h-.063v-.033c.012.069.02.14.024.21v.22c.004.148-.003.297-.02.444-.007.037.01.075.038.084a.039.039 0 0 0 .04-.005.067.067 0 0 0 .023-.042c.02-.167.028-.336.024-.505a2.84 2.84 0 0 0 0-.247v-.122a.22.22 0 0 0-.028-.112.042.042 0 0 0-.063 0c-.016.008-.028.028-.031.051a.084.084 0 0 0 0 .066c.052.06.126-.042.073-.098l.007-.024zM22.672 25.956c.03.307.023.616-.017.92 0 .075.09.106.101.032.044-.315.05-.635.021-.952 0-.074-.112-.074-.105 0zM17.87 23.847a4.472 4.472 0 0 1-.31.612 4.05 4.05 0 0 0-.258.66c-.01.034.011.069.046.079.035.009.072-.011.081-.046.07-.229.157-.452.263-.667.118-.193.22-.395.305-.604a.064.064 0 0 0-.045-.079.066.066 0 0 0-.081.045zM18.23 23.827a.892.892 0 0 1-.143.305 3.902 3.902 0 0 0-.435.982c-.009.036.01.073.043.083.032.01.066-.01.075-.047.068-.23.158-.45.269-.66.052-.102.113-.205.174-.304a.858.858 0 0 0 .135-.3.073.073 0 0 0-.016-.066.057.057 0 0 0-.059-.018.064.064 0 0 0-.043.047v-.022zM18.546 23.839c-.075.16-.21.302-.304.455a2.654 2.654 0 0 0-.24.483c-.01.03.012.062.05.07.037.01.076-.009.087-.04.064-.168.146-.332.243-.49.116-.144.22-.293.314-.448.028-.069-.108-.1-.136-.03h-.014zM18.952 23.837c-.1.31-.185.628-.252.951 0 .033.027.062.05.062.027 0 .05-.028.05-.062.067-.31.15-.613.248-.91.008-.033-.008-.067-.035-.076-.026-.009-.054.01-.061.043v-.008zM19.271 23.84c-.055.201-.12.398-.196.59 0 .027 0 .06.039.067a.047.047 0 0 0 .039-.004.051.051 0 0 0 .024-.033 5.77 5.77 0 0 0 .196-.59c.005-.02 0-.04-.014-.054a.05.05 0 0 0-.05-.014.054.054 0 0 0-.038.038zM19.57 23.88a2.463 2.463 0 0 1-.094.541c-.007.033.009.066.035.077.028.008.057-.01.067-.043.053-.191.086-.39.098-.591 0-.036-.024-.064-.053-.064-.028.002-.05.03-.053.064v.017zM19.915 24.185c-.036.083-.063.17-.081.257a.04.04 0 0 0 .003.035c.007.01.018.019.032.022.029.006.058-.008.067-.033.018-.088.045-.174.08-.257a.04.04 0 0 0-.003-.035.051.051 0 0 0-.032-.022c-.029-.006-.058.008-.067.033zM20.243 23.865l-.032.192a.07.07 0 0 0 0 .039c.008.011.019.02.032.024a.049.049 0 0 0 .063-.035l.031-.192a.05.05 0 0 0 0-.039.07.07 0 0 0-.031-.024.052.052 0 0 0-.067.035h.004zM20.587 24.23v.032a.327.327 0 0 1 0 .056.185.185 0 0 1-.024.045.05.05 0 0 0 0 .035.057.057 0 0 0 0 .039.074.074 0 0 0 .035 0 .049.049 0 0 0 .038 0 .283.283 0 0 0 .05-.091.218.218 0 0 0 0-.095.052.052 0 0 0 0-.038.074.074 0 0 0-.04 0 .052.052 0 0 0-.052.052l-.007-.035z" fill="#001A36"/>
    <path d="M22.019 23.96c-.03-.386-.366-.606-.661-.752-.64-.316-3.453-.503-3.868-.449-.363.02-.709.166-.977.416a1.036 1.036 0 0 0-.221.981c.01.448.153.883.41 1.247.232.21.516.354.821.416 2.911.973 4.598.1 4.656-.665a2.25 2.25 0 0 0-.16-1.193z" fill="#fff"/>
    <path d="M17.798 22.76a1.523 1.523 0 0 0-.95.4.907.907 0 0 0-.13 1.07.97.97 0 0 0 .445.284c.516.2 2.11 1.006 4.026.547.11-.017.219-.046.323-.089.12-.068.227-.159.315-.267a1.09 1.09 0 0 0 .373-.79c-.033-.365-.356-.577-.643-.713-.626-.301-3.358-.5-3.759-.442z" fill="#D2D8FF"/>
    <path d="M17.572 22.75c-.53.01-1.011.332-1.242.833a.906.906 0 0 0-.017.703c.089.226.265.403.485.486a7.726 7.726 0 0 0 2.72.768c.354.022.71.008 1.063-.044.304-.02.604-.092.886-.212a1.44 1.44 0 0 0 .733-1.302c-.166-.841-1.317-.95-1.958-1.037a20.425 20.425 0 0 0-1.619-.16 5.504 5.504 0 0 0-1.035 0c-.078 0-.078.139 0 .13a7.9 7.9 0 0 1 1.656.07c.7.025 1.395.137 2.07.333.534.187.973.664.65 1.267-.139.285-.36.516-.634.66-.309.102-.628.166-.952.19a5.958 5.958 0 0 1-2.86-.516c-.356-.143-.977-.303-1.097-.72-.232-.807.563-1.245 1.184-1.34.079 0 .046-.109-.033-.109z" fill="#001A36"/>
    <path d="M16.25 24.102c.093.709.238 1.354.94 1.6a9.002 9.002 0 0 0 2.273.53c.807.06 2.018 0 2.551-.768.311-.424.182-1.176-.024-1.634-.032-.072-.137 0-.105.064.234.518.319 1.273-.133 1.698-.41.312-.896.493-1.4.522a6.109 6.109 0 0 1-2.281-.246 3.25 3.25 0 0 1-1.26-.497c-.335-.306-.403-.85-.444-1.274 0-.08-.125-.046-.117.034v-.03z" fill="#001A36"/>
    <path d="M16.981 24.906c.008.328.07.652.182.957.025.067.126.037.102-.03-.11-.295-.17-.61-.179-.927a.054.054 0 0 0-.052-.055.054.054 0 0 0-.053.055zM17.771 24.915c-.024.313-.017.629.021.94a.06.06 0 0 0 .024.038c.012.008.026.01.04.005a.052.052 0 0 0 .03-.03.072.072 0 0 0 .004-.048 5.225 5.225 0 0 1 0-.905c0-.086-.101-.086-.105 0h-.014zM18.129 25.269a8.43 8.43 0 0 0 0 .916c0 .087.112.087.105 0a8.43 8.43 0 0 1 0-.916c0-.038-.024-.069-.053-.069-.028.002-.05.032-.052.069zM19.186 25.27c0 .305 0 .61-.028.91 0 .094.102.094.105 0 0-.3.028-.605.028-.91 0-.038-.023-.07-.052-.07-.03 0-.053.032-.053.07zM19.883 25.274c0 .304 0 .602-.021.906 0 .093.098.093.105 0 0-.303.021-.602.021-.906 0-.04-.023-.074-.052-.074-.03 0-.053.033-.053.074zM20.596 25.247a.5.5 0 0 0 0 .218 3.566 3.566 0 0 1-.052.706c0 .08.087.113.101.034.028-.157.046-.316.056-.475a1.274 1.274 0 0 0 0-.231.773.773 0 0 1-.024-.219c.007-.033-.01-.068-.037-.078-.028-.009-.057.011-.065.045h.021zM21.338 25.2v.07l-.025.041h-.063v-.032c.014.068.022.137.025.207v.217c.01.154.01.308 0 .462a.083.083 0 0 0 .003.051.053.053 0 0 0 .032.032c.027.01.056-.01.066-.046.017-.165.024-.332.021-.499a2.85 2.85 0 0 0 0-.244 1.525 1.525 0 0 0 0-.125.18.18 0 0 0-.028-.106c-.018-.02-.045-.02-.063 0-.016.008-.027.028-.028.05a.07.07 0 0 0 0 .065c.053.056.126-.041.074-.097l-.014-.046zM21.955 24.906a3.86 3.86 0 0 1 0 .92c0 .075.091.106.102.032a3.94 3.94 0 0 0 .017-.952c0-.074-.112-.074-.105 0h-.014zM17.17 22.797c-.086.212-.19.417-.31.612-.103.213-.19.434-.258.66-.01.034.011.07.046.079.035.01.072-.011.081-.045.069-.23.158-.454.267-.668a4.1 4.1 0 0 0 .302-.604.064.064 0 0 0-.046-.079.066.066 0 0 0-.081.045zM17.532 22.798a.886.886 0 0 1-.146.3c-.064.098-.122.2-.174.305a4.022 4.022 0 0 0-.26.663c-.009.035.01.072.043.082.032.01.066-.011.075-.047a3.812 3.812 0 0 1 .442-.972.883.883 0 0 0 .138-.296c0-.084-.101-.119-.118-.035zM17.857 22.789c-.076.16-.215.301-.31.454a3.2 3.2 0 0 0-.245.484c-.006.02 0 .041.019.056.018.014.044.02.069.015.025-.005.044-.02.051-.04.066-.168.15-.331.249-.488.113-.146.215-.296.306-.45.029-.07-.11-.1-.139-.031zM18.252 22.796a9.03 9.03 0 0 0-.252.942c0 .033.026.062.05.062a.045.045 0 0 0 .035-.018.07.07 0 0 0 .014-.044 9.26 9.26 0 0 1 .25-.91c.006-.033-.01-.067-.036-.076-.026-.009-.054.01-.061.044zM18.57 22.79a6.11 6.11 0 0 1-.192.593.056.056 0 0 0 .035.067c.031 0 .052 0 .066-.037a6.12 6.12 0 0 0 .193-.593.056.056 0 0 0-.037-.068.052.052 0 0 0-.065.039zM18.863 22.814c-.013.19-.046.378-.098.558-.006.034.011.068.039.077.027.006.053-.012.063-.043.06-.19.1-.39.119-.592-.002-.035-.024-.062-.053-.064-.029 0-.052.029-.052.064h-.018zM19.217 23.131a1.26 1.26 0 0 0-.084.262.04.04 0 0 0 .004.035c.006.01.017.018.031.022.029.004.057-.01.067-.033.017-.09.045-.177.084-.262.004-.023-.012-.046-.039-.053-.027-.005-.053.008-.063.03zM19.543 23.165l-.032.193a.076.076 0 0 0 0 .038c.007.012.018.02.032.024a.049.049 0 0 0 .063-.035l.031-.192a.05.05 0 0 0 0-.039.042.042 0 0 0-.031-.024.056.056 0 0 0-.067.035h.004zM19.891 23.167a.192.192 0 0 1 0 .045.165.165 0 0 1 0 .056.197.197 0 0 1-.028.046.046.046 0 0 0 0 .035.052.052 0 0 0 0 .038.074.074 0 0 0 .038 0 .045.045 0 0 0 .035 0 .287.287 0 0 0 .05-.09.221.221 0 0 0 0-.095.052.052 0 0 0 0-.039.074.074 0 0 0-.039 0 .056.056 0 0 0-.052.053l-.004-.05z" fill="#001A36"/>
    <path d="M22.016 22.915a.99.99 0 0 0-.66-.757c-.641-.316-3.453-.503-3.868-.449-.363.02-.708.167-.976.416a1.024 1.024 0 0 0-.218.981c.01.448.154.883.41 1.247.233.21.516.354.822.416 2.91.973 4.597.1 4.654-.665a2.25 2.25 0 0 0-.164-1.189z" fill="#fff"/>
    <path d="M17.801 21.708c-.35.02-.685.16-.95.4a.908.908 0 0 0-.135 1.07.97.97 0 0 0 .446.285c.516.2 2.114 1.007 4.026.548.111-.017.22-.046.324-.089.12-.07.229-.16.32-.268.224-.198.358-.485.368-.79-.029-.365-.356-.578-.643-.714-.623-.301-3.355-.493-3.756-.442z" fill="#D2D8FF"/>
    <path d="M17.577 21.701a1.396 1.396 0 0 0-1.245.827.9.9 0 0 0-.02.705c.09.227.267.404.489.486.853.42 1.77.68 2.71.771a5.17 5.17 0 0 0 1.066-.043 2.7 2.7 0 0 0 .888-.212c.462-.252.747-.756.735-1.3-.166-.84-1.32-.944-1.963-1.035a22.902 22.902 0 0 0-1.623-.16 5.55 5.55 0 0 0-1.037 0c-.079 0-.079.139 0 .13a8.266 8.266 0 0 1 1.66.07 8.62 8.62 0 0 1 2.075.333c.535.186.975.662.655 1.264a1.497 1.497 0 0 1-.639.659c-.31.104-.63.168-.954.19a5.993 5.993 0 0 1-2.86-.507c-.356-.143-.979-.303-1.1-.719-.232-.805.565-1.242 1.188-1.338.087-.008.054-.134-.025-.12z" fill="#001A36"/>
    <path d="M16.25 23.402c.093.71.238 1.355.945 1.6a8.926 8.926 0 0 0 2.268.532c.807.059 2.018 0 2.551-.769.311-.424.182-1.176-.024-1.634-.032-.073-.137 0-.105.063.234.523.319 1.274-.133 1.698a2.511 2.511 0 0 1-1.4.523 6.077 6.077 0 0 1-2.277-.247c-.45-.071-.88-.24-1.264-.496-.335-.306-.403-.85-.444-1.274 0-.08-.125-.047-.117.034v-.03z" fill="#001A36"/>
    <path d="M16.981 23.844c.009.331.07.659.182.968.025.067.126.037.102-.03-.11-.295-.17-.609-.179-.927a.054.054 0 0 0-.052-.055.054.054 0 0 0-.053.055v-.01zM17.42 23.864c-.023.313-.016.629.02.94a.06.06 0 0 0 .024.038c.012.008.027.01.04.005.027-.009.045-.043.038-.078a4.889 4.889 0 0 1 0-.905c0-.086-.102-.086-.105 0h-.018zM18.13 24.22c-.02.304-.02.61 0 .915 0 .087.108.087.105 0a6.924 6.924 0 0 1 0-.915c0-.02-.008-.04-.02-.053a.047.047 0 0 0-.043-.016.047.047 0 0 0-.037.02.08.08 0 0 0-.016.049h.011zM19.185 24.566c0 .298 0 .597-.025.919 0 .087.098.087.105 0 0-.3.025-.598.025-.92 0-.087-.102-.087-.105 0zM19.883 24.573c0 .304 0 .603-.021.907 0 .093.102.093.105 0 0-.304.021-.603.021-.907 0-.04-.023-.073-.052-.073-.03 0-.053.033-.053.073zM20.596 24.197a.574.574 0 0 0 0 .218c.007.077.007.155 0 .231-.005.16-.023.32-.052.475 0 .08.09.114.101.034.028-.157.046-.315.056-.475a1.293 1.293 0 0 0 0-.231.777.777 0 0 1-.024-.219c.007-.033-.01-.068-.037-.077-.028-.01-.057.01-.065.044h.021zM21.351 24.15v.07l-.024.041h-.063v-.032c.012.068.02.137.02.207v.218c.002.154-.005.308-.02.461-.007.036.008.072.035.083.028.01.056-.01.066-.046.018-.165.025-.332.021-.498a2.773 2.773 0 0 0 0-.245 1.2 1.2 0 0 0 0-.12.185.185 0 0 0-.028-.11.043.043 0 0 0-.063 0 .071.071 0 0 0-.028.05.083.083 0 0 0 0 .065c.053.06.126-.042.074-.098l.01-.046zM21.972 23.856c.03.306.025.615-.018.92 0 .074.091.106.102.031a3.94 3.94 0 0 0 .02-.951c0-.075-.111-.075-.104 0zM17.17 21.747c-.085.213-.189.417-.31.613-.103.212-.19.433-.258.659-.01.034.011.07.046.079.035.01.072-.01.081-.045.069-.23.158-.453.267-.668.117-.193.218-.395.302-.603a.063.063 0 0 0-.017-.063.067.067 0 0 0-.063-.017.065.065 0 0 0-.047.045z" fill="#001A36"/>
    <path d="M28.128 36.055a1 1 0 0 0-.409-.902c-.527-.478-3.16-1.45-3.569-1.511a1.54 1.54 0 0 0-1.054.127c-.3.187-.48.518-.477.873-.106.423-.09.868.049 1.281.17.263.407.475.686.614 2.515 1.746 4.365 1.388 4.63.675.15-.366.2-.765.144-1.157z" fill="#fff"/>
    <path d="M24.329 33.645a1.477 1.477 0 0 0-1.001.103.865.865 0 0 0-.402.96.98.98 0 0 0 .342.387c.434.334 1.724 1.532 3.65 1.648.109.01.22.01.329 0 .13-.033.256-.087.37-.16.251-.122.443-.344.53-.615a.94.94 0 0 0-.402-.848c-.502-.466-3.026-1.413-3.416-1.475z" fill="#D2D8FF"/>
    <path d="M24.144 33.63c-.538-.08-1.105-.025-1.429.487a1 1 0 0 0-.162.634c.051.25.197.467.405.604a7.995 7.995 0 0 0 2.126 1.372 5.102 5.102 0 0 0 1.838.374 1.39 1.39 0 0 0 1.186-.84c.28-.89-.907-1.405-1.502-1.678-.482-.222-.976-.42-1.474-.613a5.994 5.994 0 0 0-1.004-.323c-.073 0-.11.105-.028.122.557.128 1.1.316 1.62.562.654.214 1.276.52 1.85.91.205.15.36.363.445.61a.85.85 0 0 1-.405.876c-.23.185-.519.277-.81.256a5.386 5.386 0 0 1-3.247-1.305 4.58 4.58 0 0 1-.724-.638.796.796 0 0 1 .13-1.04c.325-.27.754-.365 1.157-.256.073.016.11-.105.028-.114z" fill="#001A36"/>
    <path d="M22.61 34.698c-.102.725-.148 1.42.492 1.88.655.49 1.367.893 2.12 1.201.806.315 2.044.63 2.816.04.45-.341.521-1.115.424-1.63 0-.084-.132-.049-.119.034.09.581-.038 1.355-.61 1.617-.49.183-1.02.216-1.527.096a6.561 6.561 0 0 1-2.184-.9 5.626 5.626 0 0 1-1.06-.743c-.424-.402-.301-1.044-.229-1.56 0-.083-.11-.118-.123-.035z" fill="#001A36"/>
    <path d="M23.07 35.39a2.85 2.85 0 0 0-.08.959c0 .069.111.069.104 0a2.767 2.767 0 0 1 .077-.93c0-.069-.087-.098-.101-.029zM23.47 35.745a5.108 5.108 0 0 0-.193.925c-.007.034.008.07.035.08.024 0 .063 0 .066-.044.037-.317.101-.627.193-.925.024-.08-.077-.116-.102-.036zM24.177 36.105a7.472 7.472 0 0 0-.207.905c0 .087.088.13.102.038.05-.308.12-.61.206-.904.007-.04-.01-.08-.038-.092-.028-.01-.056.014-.063.053zM24.882 36.45c-.063.31-.137.61-.217.91-.007.04.01.08.038.089.027.007.054-.014.063-.05.08-.3.154-.6.217-.91.021-.088-.08-.127-.101-.039zM25.924 37.135c-.06.204-.126.402-.2.6a.05.05 0 0 0 .004.039.052.052 0 0 0 .031.025.056.056 0 0 0 .067-.037c.073-.198.14-.395.2-.6.02-.06-.081-.088-.102-.027zM26.646 36.76a.634.634 0 0 0-.035.232 1.154 1.154 0 0 1-.038.24 3.383 3.383 0 0 1-.162.468c-.031.076.06.142.091.067.064-.144.119-.292.165-.446.021-.08.035-.161.042-.245 0-.075.01-.15.028-.222.01-.021.01-.047.002-.068-.01-.022-.027-.035-.046-.036-.02 0-.037.012-.047.032v-.022zM27.06 37.137v.072l-.029.034-.06-.034v-.034a1.65 1.65 0 0 1-.024.227c0 .072-.02.139-.035.211-.03.147-.07.29-.115.428-.014.037-.004.08.02.102.026.017.057.005.07-.03.055-.154.098-.315.13-.48 0-.082.028-.164.039-.246a1.655 1.655 0 0 0 0-.13v-.12c-.012-.029-.037-.043-.06-.034-.016.004-.03.018-.038.039a.09.09 0 0 0 0 .072c.038.077.13 0 .09-.072l.011-.005zM27.699 36.794a3.99 3.99 0 0 1-.244.912c-.028.073.063.134.09.06.12-.298.206-.614.255-.94 0-.077-.087-.11-.101-.032z" fill="#001A36"/>
    <path fill-rule="evenodd" clip-rule="evenodd" d="M10.681 18.996C12.815 17.2 30.541 7.934 35.937 5.95c.32 2.063.349 6.454.083 13.113l-.021.463c-.022.473-.041.887-.041 1.203.002.49-.05.98-.154 1.459-.672.391-2.075 1.162-3.44 1.912-.834.464-1.747.966-2.715 1.498-1.51.83-3.153 1.732-4.84 2.681-2.403 1.38-4.96 2.859-7.213 4.167l-.114.066c-2.85 1.65-5.982 3.461-7.427 4.238a91.743 91.743 0 0 1-.366-13.17c.063-1.809.183-3.534.992-4.584zm6.865 11.217c.643-.059 10.63-5.613 10.754-5.834.038-.072.026-2.452.01-5.354-.015-2.78-.032-6.037-.01-8.2-.548.296-11.28 6.654-11.28 6.654.176 4.245.352 8.49.526 12.734z" fill="#fff"/>
    <path d="M28.16 10.876c-3.297 1.875-6.534 3.873-9.77 5.823l-1.35.785a.182.182 0 0 0-.09.16c.172 4.205.345 8.412.52 12.622 0 .058.027.112.073.147a.183.183 0 0 0 .16.03 4.012 4.012 0 0 0 1.096-.482c.737-.368 1.46-.752 2.185-1.144a185.41 185.41 0 0 0 5.18-2.863c.589-.338 1.182-.677 1.763-1.032.225-.136.479-.236.532-.504a8.366 8.366 0 0 0 0-1.652v-3.28c0-2.812-.045-5.625 0-8.437a.185.185 0 0 0-.184-.186.185.185 0 0 0-.184.186c-.062 4.328.082 8.673 0 12.985v.413c.028-.09.053-.054 0-.029-.069.037-.135.08-.197.128-.49.31-.998.595-1.501.888-1.637.942-3.29 1.863-4.963 2.763-.863.421-1.702.892-2.549 1.305a4.637 4.637 0 0 1-1.276.582l.233.182c-.134-3.224-.27-6.448-.41-9.672l-.098-2.338c0-.033-.044-.562-.106-.459 0-.024.066-.028.082-.05.271-.216.572-.394.892-.528l7.61-4.522c.843-.5 1.681-1.016 2.537-1.5a.186.186 0 0 0 0-.321.183.183 0 0 0-.185 0z" fill="#001A36"/>
    <path d="m28.5 11.009.877-.509s10.566 5.609 10.673 5.838l-.827 12.965-1.05.797" fill="#fff"/>
    <path d="m28.429 10.989.611-.355c.045-.029.231-.096.256-.15-.128.3-.231-.075-.149 0 .161.115.336.207.52.275l2.565 1.371c2.135 1.147 4.275 2.285 6.385 3.477.297.166.595.333.884.512.066.057.14.103.218.138.034 0 0-.138-.032-.067a2.569 2.569 0 0 0-.038.592l-.078 1.184-.475 7.344-.207 3.21c0 .1-.095.49-.037.578-.045-.075.199-.17 0-.087a2.47 2.47 0 0 0-.359.27l-.603.46c-.19.141 0 .466.186.324a6.096 6.096 0 0 0 1.053-.796.638.638 0 0 0 .107-.416l.166-2.501.5-7.728c.049-.762.14-1.534.148-2.296 0-.417-.351-.505-.67-.688-2.064-1.205-4.174-2.31-6.272-3.439l-3.164-1.709a3.406 3.406 0 0 0-.62-.329c-.338-.091-.796.334-1.081.5a.189.189 0 0 0-.068.257c.051.09.165.12.254.069z" fill="#001A36"/>
    <path d="M28.521 10.85c1.379.826 9.687 5.3 10.479 5.866a122 122 0 0 0-.96 13.035c-3.236-1.623-6.455-3.575-9.54-5.474" fill="#fff"/>
    <path d="M28.598 11.214c2.926 1.755 6.01 3.296 9 4.993.493.276 1.003.54 1.47.857l-.087-.206a115.585 115.585 0 0 0-.961 13.059l.28-.16c-3.27-1.649-6.4-3.548-9.51-5.463-.21-.128-.418.193-.192.321 3.114 1.916 6.245 3.815 9.514 5.463.058.031.13.03.187-.002a.19.19 0 0 0 .097-.16c.071-4.335.388-8.663.949-12.963a.188.188 0 0 0-.088-.206c-1.1-.754-2.332-1.347-3.499-1.99-1.735-.96-3.474-1.907-5.204-2.884-.594-.33-1.187-.65-1.764-.996a.19.19 0 0 0-.26.065.185.185 0 0 0 .068.256v.016z" fill="#001A36"/>
    <path d="M39.401 19.258c-.165-.076-.492.42-.377.512.33.21.68.387 1.044.53.267 0 .373-.298.318-.45a.55.55 0 0 0-.263-.243c-.09-.05-.721-.35-.721-.35z" fill="#fff"/>
    <path d="M39.257 19.27c-.166-.065-.335.075-.413.195a.707.707 0 0 0-.194.446c0 .145.111.21.223.273.111.062.243.144.371.21.128.067.26.14.413.199a.52.52 0 0 0 .474 0 .55.55 0 0 0 .268-.496.611.611 0 0 0-.375-.488c-.223-.12-.458-.227-.685-.334a.19.19 0 0 0-.256.066c-.05.088-.02.2.066.252l.54.264c.099.044.193.097.281.157.022.017.04.038.054.062 0 0 0-.041 0 0v.066c0-.037 0 0 0 0v.046c0 .016 0 0 0 0s.02 0 0 0l-.033.033c.025-.02 0 0 0 0h-.029c.037 0 0 0 0 0s.05 0 0 0h-.111c.04.029 0 0 0 0h-.042l-.177-.087c-.202-.107-.413-.215-.594-.339 0 0-.037-.037 0 0l.029.046c0 .025 0 0 0 0v.025c0-.021 0-.021 0 0 0 .02 0 0 0 0v-.042c0-.02 0 .033 0 0a.058.058 0 0 0 0-.025l.029-.045.028-.045v-.021s0 .025 0 0l.07-.074c.03-.03-.024 0 0 0 .025 0 .05-.025 0 0 0 0 .025 0 0 0h-.028a.19.19 0 0 0 .23-.128.194.194 0 0 0-.14-.215z" fill="#001A36"/>
    <path d="M39.36 20.656a.277.277 0 0 0-.322.179.521.521 0 0 0 0 .391c.287.198.6.357.931.474a.486.486 0 0 0 .416-.308.16.16 0 0 0 0-.135.213.213 0 0 0-.077-.079c-.153-.104-.949-.522-.949-.522z" fill="#fff"/>
    <path d="M39.248 20.31a.487.487 0 0 0-.369.069.463.463 0 0 0-.203.306c-.04.162-.053.425.104.532.158.106.35.216.53.314.113.067.235.12.362.158.204.04.414-.03.55-.183a.663.663 0 0 0 .17-.298.341.341 0 0 0-.174-.37c-.092-.06-.188-.11-.28-.162l-.642-.348a.209.209 0 0 0-.271.072.189.189 0 0 0 .07.26c.288.153.577.301.874.467l.07.043c.03 0 0 0 0 0v-.03c0 .021 0 .021 0 0a.251.251 0 0 1-.04.064v.025l-.021.026s-.049.042 0 0l-.04.025-.043.022h-.027c-.004 0 0 0 0 0h-.026.026-.052c-.048 0 .035 0 0 0l-.066-.034a2.52 2.52 0 0 1-.28-.15c-.13-.076-.261-.152-.388-.233l.074.068v.025-.046a.089.089 0 0 0 0-.034v-.192s-.03.03 0 0c.068.018.14 0 .191-.048a.189.189 0 0 0 .052-.185.194.194 0 0 0-.138-.137l-.013-.025z" fill="#001A36"/>
    <path d="M38.732 25.2c-.23 0-.42.189-.427.426a.13.13 0 0 0 0 .073.094.094 0 0 0 .047.038c.202.126.76.485.85.485.083.038.179.038.262 0a.41.41 0 0 0 .122-.117c.075-.092.15-.222.094-.324a.279.279 0 0 0-.122-.102l-.826-.479z" fill="#fff"/>
    <path d="M38.91 24.861a.607.607 0 0 0-.61.582.33.33 0 0 0 .166.302c.215.136.448.267.663.388.105.07.227.111.354.118a.61.61 0 0 0 .537-.424.381.381 0 0 0-.027-.348.52.52 0 0 0-.197-.157 2.607 2.607 0 0 0-.246-.136l-.537-.297a.2.2 0 0 0-.211-.015.203.203 0 0 0 .004.362l.798.45h.053v-.04V25.718l-.067.082c-.036.04 0 0 0 0s.032 0 0 0H39.505c-.004 0 .054.027 0 0-.188-.095-.372-.212-.55-.32l-.144-.086a.257.257 0 0 0-.058-.036c-.063-.032.058.04.04.072-.018.031 0-.059 0 0v-.077c0-.027.031-.04 0 0a.424.424 0 0 1 .045-.045c0-.023-.036 0 0 0h.076c.027 0 .027 0 0 0h.036c.11-.003.199-.092.201-.203a.204.204 0 0 0-.054-.19.2.2 0 0 0-.188-.054z" fill="#001A36"/>
    <path d="M38.982 26.25c-.163.024-.295.18-.325.387a.211.211 0 0 0 .038.186c.265.184.541.344.825.477.06 0 .098-.096.128-.162a.494.494 0 0 0 .052-.196.325.325 0 0 0-.079-.22c-.044-.038-.639-.472-.639-.472z" fill="#fff"/>
    <path d="M38.806 26.251c-.197.022-.37.164-.455.375a.463.463 0 0 0 .091.547c.16.107.33.2.496.294.095.056.192.105.291.147.037.02.075.031.114.036a.287.287 0 0 0 .223-.142.864.864 0 0 0 .13-.317.543.543 0 0 0-.11-.41.969.969 0 0 0-.201-.164l-.492-.339a.145.145 0 0 0-.129-.022.173.173 0 0 0-.102.093c-.047.097-.02.219.06.277l.34.236.228.16.064.053s-.026-.04-.022-.022c.004.018.03.045 0 .022v.098a.355.355 0 0 1-.027.054h.064l-.079-.04s.042 0 0 0h-.03l-.06-.031a9.255 9.255 0 0 1-.49-.285l-.082-.05h-.023c.026 0 .03.036.038.054.007.018 0 0 0 0v-.102a.397.397 0 0 0 .038-.045c-.023.027 0 0 .03 0 0 0-.034 0 0 0h.026c.091 0 .178-.085.17-.2-.007-.116-.01-.29-.101-.277z" fill="#001A36"/>
    <path d="M29.06 31.737c.187-.318.187-.71 0-1.028-.27-.683-2.298-2.798-2.653-3.044a1.643 1.643 0 0 0-1.05-.365c-.37.031-.695.252-.858.582a2.35 2.35 0 0 0-.549 1.205c.052.316.184.613.386.862 1.56 2.773 3.464 3.3 4.047 2.764.31-.258.545-.596.677-.976z" fill="#fff"/>
    <path d="M26.495 27.662a1.64 1.64 0 0 0-.995-.362.872.872 0 0 0-.85.678c0 .18.051.356.149.508.276.521.948 2.186 2.721 3.173.096.063.199.116.306.159.14.031.283.04.425.025.305.014.602-.1.817-.313a.94.94 0 0 0 0-.962c-.277-.645-2.233-2.664-2.573-2.906z" fill="#D2D8FF"/>
    <path d="M26.35 27.663c-.486-.323-1.08-.53-1.617-.185a.91.91 0 0 0-.43.572c-.017.244.046.487.18.694a8.2 8.2 0 0 0 1.368 2.156c.433.452.935.835 1.489 1.135a1.485 1.485 0 0 0 1.621-.172c.68-.681-.262-1.72-.71-2.245-.357-.42-.735-.84-1.118-1.215a6.344 6.344 0 0 0-.783-.727c-.064-.046-.129.063-.064.11.197.152.382.32.55.504.276.269.542.55.805.84.262.29.537.597.787.908.206.232.377.49.507.77.142.275.142.6 0 .874-.24.272-.597.417-.963.391-.58.03-1.192-.475-1.609-.84a6.483 6.483 0 0 1-1.536-2.069c-.154-.307-.473-.795-.382-1.127.129-.34.45-.576.821-.6.371-.005.732.119 1.02.348.069.034.133-.076.064-.122z" fill="#001A36"/>
    <path d="M24.46 28.032a2.508 2.508 0 0 0-.508 1.014c-.02.345.084.686.295.961a8.671 8.671 0 0 0 1.343 1.831c.544.535 1.415 1.207 2.242 1.034.5-.104.879-.7 1.016-1.146a.06.06 0 1 0-.117-.033 2.068 2.068 0 0 1-.605.898.657.657 0 0 1-.298.16c-.293.05-.593.01-.863-.112-1.008-.403-1.775-1.324-2.331-2.213a3.578 3.578 0 0 1-.577-1.05c-.1-.48.226-.922.484-1.288.045-.065-.06-.125-.105-.06l.025.004z" fill="#001A36"/>
    <path d="M24.55 28.725a3.284 3.284 0 0 0-.597.951c-.025.075.094.105.123.034.132-.33.321-.635.559-.901.05-.059-.038-.15-.093-.088l.008.004zM24.895 29.079a3.927 3.927 0 0 0-.587.588c-.016.026-.007.06.02.076a.07.07 0 0 0 .086-.021c.164-.212.354-.405.567-.577.057-.048-.029-.128-.086-.08v.014zM25.24 29.767c-.21.178-.403.373-.577.584a.06.06 0 0 0 .006.08.066.066 0 0 0 .084.007c.174-.21.367-.406.577-.584.06-.054-.03-.14-.09-.087zM25.941 30.471c-.184.197-.376.39-.572.574-.058.055.03.142.088.088.2-.184.388-.377.576-.574.054-.058-.033-.15-.092-.088zM26.29 31.17c-.18.199-.373.389-.57.57-.062.056.035.151.096.091.193-.181.386-.371.566-.566.057-.064-.035-.155-.092-.095zM27.014 31.526a.37.37 0 0 0-.126.155.869.869 0 0 1-.126.158c-.103.1-.215.19-.335.27a.058.058 0 0 0-.02.077.059.059 0 0 0 .077 0c.123-.08.237-.172.343-.273a.806.806 0 0 0 .137-.162c.035-.048.058-.118.107-.148a.054.054 0 0 0 .021-.075.058.058 0 0 0-.078-.02v.018zM27.745 31.932v.06H27.688l-.044-.044v-.016a.354.354 0 0 1-.03.04l-.058.075c-.043.048-.087.1-.136.143a2.338 2.338 0 0 1-.307.266.055.055 0 0 0 .006.077c.023.021.06.023.086.006.138-.1.264-.212.378-.333.057-.06.11-.124.158-.19.026-.032.066-.072.053-.111a.066.066 0 0 0-.05-.052.075.075 0 0 0-.073.02.061.061 0 0 0 0 .06c.012.03.048.047.083.039.033-.01.052-.04.044-.071l-.053.031zM28.05 31.875a3.18 3.18 0 0 1-.583.591.048.048 0 0 0 0 .074c.021.024.05 0 .075 0 .227-.177.43-.383.6-.613a.048.048 0 0 0 .006-.04.05.05 0 0 0-.027-.03.054.054 0 0 0-.071.018zM28.016 29.133a.17.17 0 0 1-.035.035l-.05.028a.182.182 0 0 1-.045 0 .07.07 0 0 0-.031.024.045.045 0 0 0 0 .043c.003.012.01.023.02.031a.039.039 0 0 0 .067.007.191.191 0 0 0 .084-.031.193.193 0 0 0 .07-.06.05.05 0 0 0 0-.038.05.05 0 0 0 0-.035.042.042 0 0 0-.035 0 .055.055 0 0 0-.038 0l-.007-.004z" fill="#001A36"/>
</svg>
