<svg width="57" height="56" viewBox="0 0 57 56" fill="none" xmlns="http://www.w3.org/2000/svg">
    <path d="M43.854 9.076a2.704 2.704 0 0 1 2.303 2.233l.145.696.095.48.097.499.15.795.104.57.363 2.037 1.823 9.726.826 4.507.027.152c.28 1.702-.077 2.805-1.325 3.35l-.006.012-.095.035-.15.052.002.002-.05.02-.187.057-.376.109-.19.053-.39.105-.402.102-.207.051-.43.102-.451.102-.479.105-.776.163-2.382.48-.697.145a902.687 902.687 0 0 1-13.158 2.71.253.253 0 0 1-.155-.009l-3.637.685-.458.078-.72.117-.769.12-.544.08-1.23.176-.98.136-3.235.44-1.364.193-2.055.305-.871.125-.77.106-1.009.128c-.943.2-1.91.236-2.86.107-1.21-.276-1.676-1.104-1.947-2.846l-.138-.972L3.61 26.973l-.477-3.063-.228-1.527-.07-.49a239.35 239.35 0 0 1-.14-.988c-.223-1.679-.068-2.781.72-3.715.447-.518.994-.797 1.9-1.02l.298-.07.159-.033.83-.162.141-.029a900.32 900.32 0 0 1 13.371-2.707l2.759-.53 3.859-.629.025-.002.808-.142v.025l1.756-.375 2.061-.432 1.572-.32 1.177-.235 1.118-.216.808-.151 1.042-.189.763-.133.753-.127.994-.16.745-.115a17.123 17.123 0 0 1 3.501-.362z" fill="#fff"/>
    <path fill-rule="evenodd" clip-rule="evenodd" d="m24.245 39.203 3.637-.686a.254.254 0 0 0 .156.009 902.687 902.687 0 0 0 13.158-2.71l.697-.146 2.382-.48.776-.162.479-.105.452-.102.429-.102.207-.05.402-.103.39-.105.19-.053.376-.11.186-.055.05-.02v-.003l.15-.052.094-.035.006-.011c1.248-.546 1.605-1.65 1.325-3.351l-.027-.152-.826-4.507-1.823-9.726-.363-2.037-.104-.57-.15-.795-.097-.5-.096-.48-.144-.695a2.704 2.704 0 0 0-2.303-2.233c-1.175 0-2.348.121-3.501.362l-.745.115-.994.16-.753.127-.763.133-1.042.189-.807.151-1.12.216-1.176.234-1.572.321-2.06.432-1.757.375v-.025l-.798.14a.268.268 0 0 0-.035.004l-3.86.628-2.758.531a900.32 900.32 0 0 0-13.37 2.707l-.141.03-.831.161a13.58 13.58 0 0 0-.159.034l-.298.069c-.906.223-1.453.502-1.9 1.02-.788.934-.943 2.036-.72 3.715l.14.988.07.49.228 1.527.477 3.063 1.687 10.522.138.972c.271 1.742.738 2.57 1.946 2.846a8.367 8.367 0 0 0 2.861-.107l1.01-.128.769-.106.87-.125 2.056-.305 1.364-.193 3.234-.44.98-.136 1.23-.176.545-.08.77-.12.72-.117.456-.078zm2.477-26.704-.624.124-.004-.024-3.188.517c-1.218.229-2.426.465-3.625.708l-5.06.997-2.458.496-2.253.466-1.876.398-1.862.402-.146.034-.274.07c-1.049.28-1.556.624-1.942 1.387-.36.727-.41 1.384-.263 2.571l.045.337.05.35.246 1.717.41 2.678.593 3.834.136.918.802 5.019.388 2.408c.026.777.216 1.545.556 2.25.432.62 1.196.852 2.272.81a9.953 9.953 0 0 0 1.151-.12l1.285-.216.149-.022 1.485-.209 1.253-.187 1.829-.286 2.625-.424.81-.113 1.947-.252.513-.07.445-.066.416-.068 7.35-1.265 7.57-1.559 3.58-.751.772-.164 2.334-.482.552-.117.517-.113.486-.11.687-.163.436-.109.425-.11.544-.151.456-.158c.968-.42 1.25-1.213 1.098-2.473l-.033-.245-.041-.248-.471-2.55-1.01-5.423-1.734-9.416-.14-.816-.045-.242-.05-.241-.026-.121-.058-.239-.065-.235-.074-.23c-.39-1.117-1.06-1.694-2.197-1.654-.916.035-1.84.12-2.857.26l-.516.075-.533.084-.554.093-.285.05-.738.137-.779.152-1.242.254-1.85.383-.611.123-5.944 1.183a7.63 7.63 0 0 1-.786.156z" fill="#231F20"/>
    <path d="M42.394 15.095a1.57 1.57 0 0 0-.242-.884c-.331-.406-.95-.354-1.464-.274l-5.45.906a1.694 1.694 0 0 0-1.137.5 1.707 1.707 0 0 0-.162 1.258l.384 2.825c.017.324.118.639.295.912.407.511 1.18.439 1.821.322l5.53-.998c.193-.022.379-.084.546-.18.247-.2.377-.51.344-.826-.06-.324-.426-2.86-.465-3.561z" fill="#F1F3FF"/>
    <path d="M42.767 15.117c-.058-.914-.474-1.518-1.452-1.506-.523.037-1.042.11-1.554.218l-1.906.294-1.874.336a4.849 4.849 0 0 0-1.674.399c-.85.49-.628 1.497-.527 2.305l.24 1.787c0 .556.148 1.102.428 1.582.532.663 1.473.546 2.215.409l3.698-.642c.582-.104 1.17-.198 1.75-.316a1.222 1.222 0 0 0 1.002-.683 3.808 3.808 0 0 0-.05-1.86c-.1-.756-.222-1.522-.277-2.289-.02-.37-.614-.392-.577-.003.064 1.016.238 2.028.365 3.037.018.146.044.296.056.446a.68.68 0 0 1-.665.787c-.95.19-1.903.351-2.857.522-.954.17-1.88.338-2.8.504-.368.085-.753.07-1.115-.043-.485-.22-.481-.835-.558-1.29-.131-.94-.352-1.903-.377-2.866a.853.853 0 0 1 .65-.98c.466-.114.94-.197 1.416-.25l3.222-.524c.545-.09 1.099-.217 1.65-.258.194-.024.391-.009.579.046.373.143.407.511.434.869.028.357.586.341.558-.03zM31.405 31.46c-2.012.441-4.035.79-6.061 1.134-.172.031-.22.222-.201.362l.181 1.084.118.688a.834.834 0 0 0 .166.461c.15.142.404.06.584.032a589.444 589.444 0 0 0 4.267-.7c.394-.063.791-.136 1.192-.203.162-.033.438-.03.562-.161.124-.131.063-.352.03-.514l-.178-.773-.309-1.226c-.098-.365-.654-.193-.559.167l.258 1.059.18.726.057.276c.019.103.003.113.024.039l.126-.178c.12-.075.033-.02 0 0s-.143.028-.211.04l-.758.13-2.158.366c-.692.112-1.384.224-2.08.331l-.627.095a.526.526 0 0 0-.15.017c-.112.002-.023.06.265.178a.428.428 0 0 0-.036-.13c-.162-.661-.238-1.308-.35-1.962l-.191.364c2.026-.344 4.055-.697 6.06-1.135.335-.087.169-.646-.201-.567zM39.25 29.996c-2.011.442-4.038.785-6.061 1.135-.172.03-.22.221-.201.362l.187 1.08.118.688a.828.828 0 0 0 .162.456c.15.142.404.06.584.031.393-.055.779-.12 1.168-.18 1.033-.166 2.073-.343 3.097-.51l1.194-.213c.166-.027.442-.024.563-.16.12-.137.065-.347.029-.515a23.645 23.645 0 0 0-.18-.764l-.306-1.234c-.096-.36-.655-.194-.56.166l.262 1.041.176.721.058.277c.022.108.002.113.028.043l.125-.177c.12-.075.033-.02 0 0a1.97 1.97 0 0 0-.21.055c-.248.04-.5.09-.748.132-.696.107-1.44.245-2.161.36-.721.115-1.385.224-2.08.331-.21.032-.415.069-.628.095a1.219 1.219 0 0 0-.145.022c-.11.008-.02.066.267.184a.471.471 0 0 0-.04-.136c-.161-.661-.237-1.308-.345-1.957l-.196.359c2.027-.344 4.059-.691 6.065-1.129.311-.088.146-.633-.222-.563z" fill="#231F20"/>
    <path fill-rule="evenodd" clip-rule="evenodd" d="m26.627 12.03 1.55-.27.038.435-1.7.334.112-.5z" fill="#231F20"/>
    <path d="M14.941 23.19a3.18 3.18 0 0 1-.472 1.56 1.83 1.83 0 0 0 1.007.692c3.122.837 5.04-1.327 5.063-3.161 0 0-.184-3.51-3.358-3.705a3.394 3.394 0 0 0-2.223.455c-.44.354-.79.806-1.023 1.32l-.047.174c.617.76.984 1.69 1.053 2.665z" fill="#D2D8FF"/>
    <path d="M14.47 24.75a5.347 5.347 0 0 1-.921-2.508 2.98 2.98 0 0 1 .29-1.73 3.233 3.233 0 0 0-2.256-1.026 3.408 3.408 0 0 0-2.23.48 3.511 3.511 0 0 0-1.023 1.32 3.162 3.162 0 0 0-.371 1.908c.353 2.103 1.11 2.975 1.928 3.194 2.217.547 3.83-.38 4.582-1.637z" fill="#D2D8FF"/>
    <path d="M15.279 34.142c-2.019.39-4.055.694-6.09.993a.29.29 0 0 0-.202.354c.048.374.1.75.162 1.12.03.236.068.47.114.7a.84.84 0 0 0 .142.42c.152.155.416.071.603.048l1.14-.157a877.65 877.65 0 0 0 3.13-.44c.39-.056.78-.118 1.177-.172.168-.03.447-.021.583-.152.135-.131.085-.319.049-.483-.037-.163-.103-.516-.162-.772l-.289-1.27c-.083-.363-.614-.204-.556.153l.237 1.04.155.745.06.277c.014.098-.026.094 0 0l.133-.172c.123-.06 0 0 0 0s-.154.026-.224.034c-.245.041-.489.077-.732.112l-2.187.317-2.086.291c-.214.024-.423.054-.637.078a.942.942 0 0 0-.152.019c-.106-.028-.017.063.259.183a.804.804 0 0 0-.03-.142c-.134-.645-.213-1.302-.305-1.956l-.204.36c2.036-.304 4.077-.6 6.091-.998.34-.043.189-.605-.18-.53zM23.16 32.854c-2.02.395-4.054.694-6.088.992a.29.29 0 0 0-.204.36l.157 1.113c.035.244.072.481.12.702.006.152.055.3.14.426.153.154.416.071.603.047l1.14-.156c1.041-.14 2.082-.288 3.123-.441l1.186-.178c.166-.022.447-.02.58-.146.135-.124.086-.318.05-.482-.037-.164-.103-.516-.161-.773l-.288-1.275c-.083-.364-.624-.167-.558.159l.237 1.04.164.714.058.283c.015.091-.024.087 0 0l.17-.109c.123-.06 0 0 0 0-.076.007-.15.019-.224.034-.244.035-.49.077-.74.11-.699.114-1.449.214-2.178.313-.73.1-1.391.196-2.086.291-.215.03-.425.06-.638.084a.539.539 0 0 0-.151.013c-.106-.029-.017.062.259.183.008-.031-.023-.113-.03-.142-.134-.645-.21-1.308-.305-1.956l-.202.354c1.967-.323 3.973-.615 6.017-.998.367-.069.235-.626-.15-.562zM14.646 23.192c-.026.5-.172.986-.427 1.418a.284.284 0 0 0 .048.347c1.016 1.203 3.032 1.174 4.34.567a3.828 3.828 0 0 0 2.156-2.655 3.582 3.582 0 0 0-.217-1.912 3.88 3.88 0 0 0-2.172-2.41 4.616 4.616 0 0 0-2.59-.204 3.284 3.284 0 0 0-2.194 1.995.317.317 0 0 0 .046.354 4.183 4.183 0 0 1 1.01 2.5c.02.373.602.375.584-.005a4.849 4.849 0 0 0-1.19-2.882l.047.354c.29-.804.93-1.431 1.74-1.703a4.067 4.067 0 0 1 2.167.059 3.136 3.136 0 0 1 1.935 1.924c.186.449.285.93.29 1.416a3.084 3.084 0 0 1-1.392 2.372c-1.146.777-3.216.985-4.18-.163l.047.347c.306-.52.48-1.109.506-1.712.049-.382-.535-.377-.554-.008z" fill="#231F20"/>
    <path d="M14.677 24.552a4.358 4.358 0 0 1-.687-1.583 3.356 3.356 0 0 1 .096-2.31.304.304 0 0 0-.045-.354 4.105 4.105 0 0 0-3.737-1.041c-1.467.276-2.476 1.746-2.643 3.167-.04.75.083 1.501.361 2.199.165.515.431.991.783 1.401.729.778 1.979.885 2.983.76a4.04 4.04 0 0 0 2.955-1.887.291.291 0 0 0-.505-.289 3.382 3.382 0 0 1-2.03 1.505 4.072 4.072 0 0 1-1.582.084 2.47 2.47 0 0 1-1.194-.366c-.756-.55-1.033-1.616-1.184-2.5-.236-1.241.428-2.897 1.67-3.387a3.517 3.517 0 0 1 3.686.76l-.046-.354a4.039 4.039 0 0 0-.346 1.293c-.02.466.035.934.165 1.383.143.705.438 1.37.863 1.95.248.275.66-.143.437-.43z" fill="#231F20"/>
    <path d="M14.47 24.75a3.18 3.18 0 0 0 .471-1.56 4.76 4.76 0 0 0-1.1-2.69 2.98 2.98 0 0 0-.29 1.729c.087.905.403 1.773.918 2.521z" fill="#D2D8FF"/>
    <path d="M14.724 24.899a3.407 3.407 0 0 0 .506-1.712 3.466 3.466 0 0 0-.076-.543 4.693 4.693 0 0 0-1.122-2.308.298.298 0 0 0-.457.058c-.2.42-.321.873-.358 1.337-.013.467.045.934.171 1.384.139.684.422 1.33.83 1.896a.29.29 0 0 0 .408.002.291.291 0 0 0 .003-.408 4.28 4.28 0 0 1-.687-1.583 4.277 4.277 0 0 1-.136-1.194c.029-.392.132-.776.303-1.13l-.457.058a4.15 4.15 0 0 1 .958 2.044c.035.139.055.281.06.424-.01.506-.158.998-.428 1.425a.291.291 0 0 0 .482.25z" fill="#231F20"/>
    <path d="M42.574 26.792a8.84 8.84 0 0 0-3.036 2.674c-1.002 1.429-1.476 3.222-1.22 4.954.217 1.436.984 2.72 2.06 3.681a8.56 8.56 0 0 0 3.61 1.88c1.071.267 2.3.38 3.353-.02a9.612 9.612 0 0 0 2.328-1.298 8.37 8.37 0 0 0 1.933-1.987 6.132 6.132 0 0 0 1.013-2.6 7.497 7.497 0 0 0-.033-2.375 6.487 6.487 0 0 0-1.974-3.585 7.6 7.6 0 0 0-3.487-1.815c-1.23-.28-2.55-.268-3.75.144-.274.095-.75.322-.797.347z" fill="#D2D8FF" stroke="#001A36" stroke-width=".5"/>
    <path fill-rule="evenodd" clip-rule="evenodd" d="M45.88 29.506a.641.641 0 0 1 .57.706l-.234 2.232 2.233.235a.642.642 0 0 1-.134 1.276l-2.233-.235-.235 2.233a.641.641 0 1 1-1.275-.134l.234-2.233-2.232-.235a.641.641 0 1 1 .134-1.276l2.232.235.235-2.233a.641.641 0 0 1 .705-.57z" fill="#001A36" stroke="#D2D8FF" stroke-width=".5"/>
    <path d="M42.574 26.792a8.84 8.84 0 0 0-3.036 2.674c-1.002 1.429-1.476 3.222-1.22 4.954.217 1.436.984 2.72 2.06 3.681a8.56 8.56 0 0 0 3.61 1.88c1.071.267 2.3.38 3.353-.02a9.612 9.612 0 0 0 2.328-1.298 8.37 8.37 0 0 0 1.933-1.987 6.132 6.132 0 0 0 1.013-2.6 7.497 7.497 0 0 0-.033-2.375 6.487 6.487 0 0 0-1.974-3.585 7.6 7.6 0 0 0-3.487-1.815c-1.23-.28-2.55-.268-3.75.144-.274.095-.54.21-.797.347-.047.026-.005.097.042.072 1.089-.58 2.355-.754 3.572-.632a7.673 7.673 0 0 1 3.614 1.34 6.556 6.556 0 0 1 2.422 3.13c.244.692.373 1.42.382 2.155a6.697 6.697 0 0 1-.44 2.584c-.693 1.729-2.166 3.066-3.777 3.94-.577.311-1.179.594-1.833.693a5.945 5.945 0 0 1-1.686-.007 8.581 8.581 0 0 1-3.64-1.407c-1.155-.786-2.11-1.89-2.575-3.222-.559-1.604-.372-3.432.368-4.946.646-1.319 1.697-2.422 2.916-3.225a8.74 8.74 0 0 1 .672-.403c.053-.025.01-.098-.037-.072z" fill="#231F20" stroke="#001A36" stroke-width=".5"/>
</svg>
