<svg width="117" height="117" viewBox="0 0 117 117" fill="none" xmlns="http://www.w3.org/2000/svg">
    <path d="M92.226 22.427a5.567 5.567 0 0 1 4.74 4.597l.297 1.432.197.988.2 1.027.308 1.637.214 1.172.747 4.194 3.752 20.02 1.702 9.277.054.313c.577 3.503-.159 5.774-2.726 6.898l-.013.022-.195.072-.308.108.002.005-.103.041-.384.116-.774.225-.393.11-.8.214-.828.211-.426.105-.884.21-.93.211-.986.215-1.598.335-4.903.987-1.435.3a1859.783 1859.783 0 0 1-27.083 5.578.523.523 0 0 1-.32-.017l-7.487 1.41-.941.16-1.483.24-1.583.245-1.12.167-2.533.363-2.017.279-6.658.905-2.808.398-4.23.628-1.793.258-1.583.217-2.078.264c-1.942.412-3.93.486-5.889.22-2.487-.569-3.448-2.272-4.006-5.859l-.284-2-3.472-21.659-.983-6.304-.468-3.143-.146-1.01c-.096-.672-.19-1.345-.286-2.034-.46-3.455-.141-5.724 1.482-7.646.92-1.066 2.046-1.64 3.91-2.1l.614-.142.327-.07 1.71-.333.289-.06a1856.47 1856.47 0 0 1 27.524-5.571l5.677-1.093 7.943-1.293.052-.005 1.664-.291v.05l3.614-.772 4.243-.888 3.235-.66 2.423-.483 2.302-.444 1.662-.311 2.146-.389L79.89 24l1.55-.26 2.045-.33 1.534-.237a35.242 35.242 0 0 1 7.208-.746z" fill="#fff"/>
    <path fill-rule="evenodd" clip-rule="evenodd" d="m51.863 84.44 7.484-1.41c.1.038.212.046.323.017a1859.783 1859.783 0 0 0 27.083-5.578l1.435-.3 4.903-.987 1.598-.335.986-.215.93-.211.884-.21.426-.105.828-.21.8-.216.392-.11.775-.224.384-.116.103-.04-.002-.006.308-.108.195-.072.013-.022c2.567-1.124 3.303-3.395 2.726-6.898l-.054-.313-1.702-9.278-3.752-20.019-.747-4.194-.215-1.172-.307-1.637-.2-1.027-.197-.988-.297-1.432a5.566 5.566 0 0 0-4.74-4.597c-2.42 0-4.834.25-7.208.746l-1.534.237-2.046.33-1.548.26-1.57.274-2.147.389-1.662.31-2.302.445-2.423.482-3.235.66-4.243.89-3.614.771v-.05l-1.644.287a.574.574 0 0 0-.072.01l-7.943 1.292-5.677 1.093a1856.47 1856.47 0 0 0-27.524 5.572l-.29.06-1.71.333-.326.069-.614.142c-1.864.46-2.99 1.034-3.91 2.1-1.623 1.922-1.942 4.191-1.482 7.646.095.689.19 1.362.286 2.034l.146 1.01.468 3.143.983 6.304 3.472 21.658.284 2.001c.558 3.587 1.519 5.29 4.006 5.86a17.22 17.22 0 0 0 5.89-.22l2.077-.265 1.583-.217 1.793-.258 4.23-.628 2.808-.398 6.658-.905 2.017-.28 2.533-.362 1.12-.167 1.583-.244 1.483-.241.94-.16zm5.097-54.968-1.284.256-.008-.05-6.562 1.066c-2.507.47-4.994.955-7.462 1.457l-10.417 2.052-5.058 1.02-4.638.96-3.861.819-3.834.828c-.102.023-.202.046-.3.07l-.564.142c-2.159.58-3.202 1.287-3.997 2.856-.743 1.497-.844 2.85-.542 5.293l.092.694.105.721.506 3.533.842 5.513 1.223 7.892.28 1.889 1.65 10.331.798 4.958c.054 1.598.445 3.18 1.145 4.631.89 1.275 2.462 1.753 4.676 1.668.717-.027 1.47-.11 2.37-.248l2.644-.444.307-.046 3.058-.43 2.578-.384 3.765-.59 5.403-.872 1.669-.234 4.006-.517 1.056-.145.917-.137.856-.14 15.128-2.603 15.584-3.209 7.368-1.546 1.59-.337 4.804-.992 1.136-.242 1.063-.233 1.003-.226 1.412-.335.898-.224.876-.228 1.119-.31.939-.326c1.993-.864 2.571-2.495 2.26-5.089l-.069-.504-.084-.51-.97-5.25-2.078-11.162-3.569-19.382-.29-1.68-.092-.497-.1-.498-.055-.249-.12-.491-.134-.485-.152-.472c-.803-2.3-2.181-3.487-4.523-3.405-1.885.073-3.789.248-5.88.536l-1.062.154-1.099.172-1.139.193-.586.103-1.52.281-1.602.313-2.558.521-3.807.789-1.259.253-12.234 2.436c-.218.051-.707.164-.985.218-.2.039-.448.077-.632.104z" fill="#001A36"/>
    <path d="M89.22 34.817a3.234 3.234 0 0 0-.497-1.819c-.683-.835-1.958-.729-3.016-.564L74.492 34.3a3.487 3.487 0 0 0-2.341 1.029 3.514 3.514 0 0 0-.334 2.59l.79 5.813c.034.669.244 1.316.608 1.878.838 1.052 2.427.903 3.749.663l11.384-2.055a2.914 2.914 0 0 0 1.122-.371 1.93 1.93 0 0 0 .709-1.7c-.123-.666-.878-5.886-.959-7.33z" fill="#F4F6FF"/>
    <path d="M89.987 34.863c-.119-1.883-.975-3.126-2.988-3.1a23.474 23.474 0 0 0-3.2.448l-3.922.605-3.858.69a9.98 9.98 0 0 0-3.445.822c-1.751 1.011-1.293 3.082-1.086 4.745l.495 3.68c0 1.144.304 2.267.881 3.256 1.096 1.365 3.03 1.123 4.558.841 2.534-.438 5.071-.879 7.612-1.322 1.198-.215 2.409-.406 3.604-.651A2.515 2.515 0 0 0 90.7 43.47a7.838 7.838 0 0 0-.104-3.827c-.207-1.556-.456-3.133-.57-4.712-.039-.761-1.264-.807-1.186-.007.131 2.091.489 4.175.75 6.252.037.302.091.608.115.917a1.397 1.397 0 0 1-1.369 1.62c-1.956.392-3.916.724-5.88 1.075-1.965.35-3.87.697-5.763 1.038a4.378 4.378 0 0 1-2.295-.09c-.999-.452-.991-1.717-1.15-2.655-.27-1.934-.723-3.916-.776-5.898a1.757 1.757 0 0 1 1.34-2.018c.959-.234 1.932-.406 2.914-.515l6.63-1.078c1.123-.186 2.264-.446 3.397-.532.4-.05.806-.017 1.193.096.769.293.838 1.053.894 1.788.056.736 1.205.703 1.147-.062zM66.6 68.504c-4.14.908-8.305 1.627-12.477 2.335-.352.063-.453.456-.413.745l.373 2.23.243 1.418c.016.343.135.673.341.948.31.293.831.124 1.202.065.801-.124 1.603-.248 2.397-.384 2.127-.346 4.256-.698 6.386-1.056.813-.13 1.63-.28 2.453-.418.335-.068.903-.062 1.159-.332.255-.27.128-.724.06-1.058l-.366-1.591-.635-2.523c-.203-.751-1.347-.397-1.151.343l.53 2.18.37 1.495.12.569c.038.211.004.232.049.079l.258-.366c.248-.155.068-.042 0 0-.068.043-.293.058-.434.083l-1.56.268-4.442.752c-1.424.231-2.85.462-4.281.682l-1.29.195a1.077 1.077 0 0 0-.308.035c-.233.004-.048.124.543.367a.88.88 0 0 0-.074-.268c-.332-1.361-.489-2.692-.719-4.04l-.395.75c4.172-.708 8.347-1.434 12.477-2.335.688-.18.345-1.33-.416-1.168zM82.748 65.49c-4.14.909-8.312 1.617-12.476 2.336-.353.063-.453.455-.414.745l.385 2.223.243 1.418c.015.338.132.664.334.936.309.294.83.125 1.202.065.808-.112 1.602-.248 2.404-.372 2.126-.34 4.267-.705 6.375-1.049l2.457-.437c.342-.056.91-.05 1.159-.331.248-.281.135-.713.06-1.058a48.763 48.763 0 0 0-.37-1.573l-.631-2.541c-.196-.74-1.347-.398-1.151.343l.539 2.143.362 1.484.12.568c.045.223.004.233.056.09l.258-.365c.249-.155.068-.042 0 0-.145.03-.29.068-.431.113-.512.085-1.029.188-1.54.272-1.433.22-2.966.503-4.45.74s-2.85.463-4.282.683c-.43.064-.853.14-1.29.194-.102.01-.202.025-.301.047-.226.015-.04.135.55.378a.975.975 0 0 0-.08-.28c-.333-1.36-.49-2.691-.712-4.027l-.402.738c4.171-.708 8.354-1.423 12.483-2.324.64-.18.3-1.302-.457-1.158z" fill="#001A36"/>
    <path fill-rule="evenodd" clip-rule="evenodd" d="m56.764 28.508 3.19-.553.08.894-3.498.687.228-1.028z" fill="#001A36"/>
    <path d="M32.71 51.48a6.547 6.547 0 0 1-.97 3.213 3.767 3.767 0 0 0 2.07 1.423c6.428 1.722 10.377-2.731 10.424-6.507 0 0-.379-7.225-6.912-7.626a6.987 6.987 0 0 0-4.577.937 7.426 7.426 0 0 0-2.106 2.715l-.096.36a9.795 9.795 0 0 1 2.167 5.486zM31.74 54.693a11.007 11.007 0 0 1-1.896-5.165 6.135 6.135 0 0 1 .596-3.56 6.654 6.654 0 0 0-4.642-2.112 7.013 7.013 0 0 0-4.591.988 7.226 7.226 0 0 0-2.105 2.715 6.507 6.507 0 0 0-.764 3.928c.728 4.329 2.286 6.124 3.97 6.575 4.562 1.126 7.884-.78 9.431-3.37z" fill="#D2D8FF"/>
    <path d="M33.405 74.024c-4.155.802-8.346 1.429-12.534 2.043a.599.599 0 0 0-.416.729c.097.77.207 1.543.333 2.307.063.485.14.966.234 1.44.018.31.12.608.292.864.314.319.856.147 1.241.099l2.346-.323c2.146-.297 4.294-.599 6.443-.905.802-.116 1.608-.244 2.424-.356.346-.059.92-.043 1.2-.313.278-.27.175-.655.1-.992-.075-.337-.211-1.063-.331-1.59l-.596-2.613c-.171-.748-1.265-.421-1.145.314l.487 2.142.32 1.532.123.57c.029.2-.052.193 0 0l.274-.353c.253-.125 0 0 0 0s-.318.052-.46.07c-.505.084-1.007.157-1.508.229l-4.502.654-4.294.599c-.44.047-.87.111-1.31.159-.105.004-.21.018-.314.04-.218-.059-.034.128.533.377a1.653 1.653 0 0 0-.06-.292c-.277-1.328-.439-2.68-.629-4.026l-.42.741c4.192-.626 8.392-1.237 12.538-2.055.7-.088.39-1.246-.369-1.09zM49.63 71.372c-4.159.815-8.347 1.429-12.534 2.043a.599.599 0 0 0-.42.742l.323 2.29c.073.502.148.991.247 1.445.014.313.114.616.29.876.313.319.855.147 1.24.099l2.346-.323a500.91 500.91 0 0 0 6.43-.908l2.44-.366c.343-.046.921-.043 1.197-.3.275-.256.175-.655.1-.992-.075-.337-.211-1.063-.331-1.59l-.592-2.626c-.172-.748-1.286-.344-1.148.326l.486 2.143.337 1.468.12.583c.032.188-.049.18 0 0l.349-.224c.254-.125 0 0 0 0a4.094 4.094 0 0 0-.46.07c-.501.072-1.006.157-1.52.226-1.441.234-2.985.44-4.486.645-1.501.204-2.864.404-4.294.599-.443.06-.874.124-1.314.172a1.101 1.101 0 0 0-.31.027c-.218-.059-.034.128.533.377.017-.065-.048-.234-.06-.292-.278-1.328-.435-2.693-.63-4.026l-.415.729c4.05-.665 8.179-1.267 12.386-2.055.754-.142.483-1.29-.31-1.158zM32.103 51.483a6.388 6.388 0 0 1-.878 2.92.586.586 0 0 0 .097.715c2.092 2.476 6.242 2.416 8.933 1.167a7.879 7.879 0 0 0 4.44-5.465 7.373 7.373 0 0 0-.447-3.936 7.985 7.985 0 0 0-4.472-4.96 9.503 9.503 0 0 0-5.329-.422 6.76 6.76 0 0 0-4.518 4.108.652.652 0 0 0 .095.728 8.611 8.611 0 0 1 2.08 5.145c.041.77 1.239.773 1.2-.008a9.981 9.981 0 0 0-2.447-5.933l.094.728a5.75 5.75 0 0 1 3.585-3.504 8.37 8.37 0 0 1 4.459.12 6.455 6.455 0 0 1 3.982 3.96 7.8 7.8 0 0 1 .596 2.916 6.348 6.348 0 0 1-2.865 4.881c-2.357 1.6-6.62 2.03-8.604-.335l.098.715a7.626 7.626 0 0 0 1.04-3.524c.101-.786-1.1-.777-1.139-.016z" fill="#001A36"/>
    <path d="M32.166 54.283a8.97 8.97 0 0 1-1.414-3.258 6.906 6.906 0 0 1 .2-4.755.626.626 0 0 0-.095-.728 8.451 8.451 0 0 0-7.692-2.144c-3.018.57-5.097 3.594-5.44 6.52-.084 1.545.17 3.089.744 4.526a8.305 8.305 0 0 0 1.61 2.884c1.501 1.6 4.073 1.821 6.14 1.562a8.318 8.318 0 0 0 6.083-3.881.599.599 0 0 0-1.039-.596 6.96 6.96 0 0 1-4.178 3.097c-1.063.27-2.17.33-3.257.174a5.085 5.085 0 0 1-2.456-.754c-1.557-1.134-2.127-3.326-2.439-5.145-.486-2.555.882-5.964 3.44-6.973a7.24 7.24 0 0 1 7.586 1.564l-.095-.728a8.315 8.315 0 0 0-.713 2.66 8.822 8.822 0 0 0 .34 2.847c.295 1.452.9 2.822 1.776 4.017.51.564 1.36-.297.899-.889z" fill="#001A36"/>
    <path d="M31.74 54.693a6.548 6.548 0 0 0 .97-3.212 9.795 9.795 0 0 0-2.263-5.54 6.135 6.135 0 0 0-.596 3.561 11.006 11.006 0 0 0 1.888 5.19z" fill="#D2D8FF"/>
    <path d="M32.264 54.998a7.014 7.014 0 0 0 1.04-3.523 7.146 7.146 0 0 0-.155-1.117 9.662 9.662 0 0 0-2.31-4.752.612.612 0 0 0-.94.12 7.88 7.88 0 0 0-.738 2.75 9.65 9.65 0 0 0 .353 2.85 10.1 10.1 0 0 0 1.71 3.903c.231.23.605.232.839.005a.599.599 0 0 0 .004-.84 8.811 8.811 0 0 1-1.414-3.258 8.81 8.81 0 0 1-.278-2.458c.058-.808.27-1.598.623-2.327l-.941.12a8.543 8.543 0 0 1 1.973 4.207c.071.286.113.58.124.874a5.695 5.695 0 0 1-.882 2.932.599.599 0 0 0 .992.514z" fill="#001A36"/>
    <path fill-rule="evenodd" clip-rule="evenodd" d="m73.79 38.946.34-.13.377-.13c2.192-.711 5.236-.999 7.753-.781 2.849.25 5.576 1.124 7.922 2.537 2.42 1.447 4.259 3.499 5.27 5.874.528 1.292.808 2.653.825 4.026l.006.483-.006.903-.023 1.268-.065.577-.46 4.97-.226 2.282-.176 1.591-.14 1.157-.1.74-.101.708-.106.668-.053.317-.055.302-.112.571-.057.262c-.057.252-.114.478-.172.674l-.031.099.003-.028-.225.316c-1.612 2.196-4.114 4.093-7.12 5.5-1.592.743-2.759 1.148-3.991 1.308a15.002 15.002 0 0 1-3.677-.014c-2.87-.348-5.607-1.261-7.998-2.668-2.658-1.561-4.648-3.666-5.607-6.046l-.108-.288-.058-.167-.123-.386-.194-.676-.203-.786-.171-.726-.172-.787-.134-.663-.13-.69-.124-.71-.145-.912-.132-.934-.048-.376-.044-.375-.081-.759-.053-.585a30.99 30.99 0 0 1-.115-2.72c.017-2.857.907-6.168 1.828-7.794 1.358-2.394 3.6-4.507 6.382-6.09l.488-.27.242-.127.246-.125.495-.24-.058.023.416-.173zm11.21 2.7c-2.834-.844-6.884-.885-9.374.02a14.763 14.763 0 0 0-3.6 1.999l-.331.244-.336.265a12.442 12.442 0 0 0-2.956 3.435c-.628 1.138-.859 2.853-.885 5.407l-.002.731.015 2.376.006.301c.004.197.01.385.02.565l.03.502.027.31c.02.201.042.389.068.566l.06.365.047.229c.032.147.067.285.105.417l.083.267.092.25.097.23.037.079.11.91.08.6.126.846.087.526.09.49.092.45.094.408.051.197c.102.38.204.672.312.877l.164.302a8.976 8.976 0 0 0 1.553 1.964l.101.094.029.04.161.215c.272.343.56.618.862.836.149.106.299.209.451.31l.932.864-.348-.498c1.886 1.126 4.043 1.877 6.317 2.193l.466.057.482.042.319.02c.213.01.424.015.636.015v-.02l.002.02h.393l.33-.018c.44-.032.868-.1 1.287-.203a13.023 13.023 0 0 0 1.998-.767l.471-.22.478-.24a18.326 18.326 0 0 0 2.666-1.68 12.203 12.203 0 0 0 2.82-2.927c.113-.173.195-.458.276-.893l.07-.419.067-.489.128-1.138.06-.637.085-1.017.053-.71.076-1.091.093-1.465.22-3.88.076-1.263.03-.366.044-.373.029-.335c.156-2.23-.44-4.36-1.777-6.098-1.439-1.871-3.707-3.303-6.345-4.087z" fill="#D2D8FF"/>
    <path fill-rule="evenodd" clip-rule="evenodd" d="M66.422 43.794c1.769-2.15 4.09-3.916 6.784-5.16a13.627 13.627 0 0 1 1.781-.67c2.681-.794 6.637-.817 9.387-.278 2.908.558 5.595 1.766 7.791 3.504 2.297 1.834 3.845 4.26 4.413 6.917.306 1.515.33 3.062.073 4.584a7.911 7.911 0 0 0-.043.31c.027-1.294.035-2.272.022-2.663a11.352 11.352 0 0 0-.853-4.16c-1.041-2.446-2.931-4.555-5.412-6.038-2.393-1.442-5.172-2.332-8.075-2.587-2.72-.235-6.558.103-8.99 1.22a.114.114 0 0 1-.03.01c-.509.237-1.003.493-1.484.767-2.723 1.55-5.073 3.68-6.515 6.224-.695 1.227-1.854 4.539-1.874 7.966-.027 4.734 1.336 10.878 2.06 12.674 1.037 2.57 3.172 4.7 5.756 6.218 2.433 1.432 5.216 2.36 8.132 2.714a15.36 15.36 0 0 0 3.768.014c1.46-.19 2.805-.737 4.094-1.339 3.002-1.404 5.788-3.431 7.53-6-.112.362-.228.63-.349.782a17.544 17.544 0 0 1-4.319 3.834 22.639 22.639 0 0 1-5.204 2.504c-2.354.773-5.097.555-7.493.04-2.987-.632-5.753-1.876-8.064-3.628l-.265-.201c-1.276-.965-4.132-3.124-4.833-6.21-.914-4.024-1.224-10.912-1.009-13.032.343-3.382.981-5.558 3.22-8.316zm28.315 24.228c.702-2.261 1.233-8.168 1.58-12.013.119-1.326.216-2.406.29-3.008-.093 4.33-.415 12.194-.957 13.418-.259.556-.565 1.09-.913 1.603zm-20.933 1.39c2.227 1.233 4.904 2.033 7.569 2.042h.002a7.205 7.205 0 0 0 1.906-.216 12.926 12.926 0 0 0 1.93-.753c.617-.28 1.214-.59 1.788-.93a15.142 15.142 0 0 0 3.165-2.44c.89-.888 2.524-15.373 2.442-16.521-.104-2.212-1.157-4.313-2.955-5.899-1.877-1.598-4.287-2.654-6.895-3.023-2.395-.35-5.896-.117-8.013.94a16.186 16.186 0 0 0-3.328 2.203c-1.41 1.188-2.472 2.646-3.101 4.254-.477 1.272-.253 6.736.233 11.038-.369-.766-.665-1.818-.665-4.334 0-.317-.003-.655-.006-1.007-.022-2.372-.05-5.382.833-6.981.851-1.478 2.054-2.786 3.53-3.84a14.397 14.397 0 0 1 3.507-1.947c2.556-.929 6.572-.783 9.154-.014 2.462.732 4.72 2.086 6.165 3.964 1.47 1.91 1.945 4.23 1.64 6.484-.037.3-.093 1.317-.167 2.666-.204 3.699-.546 9.89-1.015 10.61a11.853 11.853 0 0 1-2.742 2.844 18.197 18.197 0 0 1-3.555 2.104c-.615.297-1.26.545-1.928.742a7.481 7.481 0 0 1-1.923.213h-.008c-.62-.004-1.24-.048-1.852-.133-2.646-.367-5.13-1.336-7.193-2.805a4.206 4.206 0 0 1-.987-1.031c.726.679 1.568 1.27 2.47 1.77zm-2.469-1.77c-.727-.68-1.338-1.448-1.777-2.297-.369-.704-.733-2.782-1.01-5.237.097.202.2.385.303.569.32.568.648 1.153.867 2.39.403 2.277 1 3.687 1.617 4.575z" fill="#001A36"/>
    <path d="m73.206 38.633-.146-.318h-.001l.147.319zm-6.784 5.161-.27-.222-.002.002.272.22zm8.565-5.83-.1-.335.1.336zm9.387-.278-.067.344h.001l.066-.344zm7.791 3.504.219-.274h-.002l-.217.274zm4.413 6.917.343-.07v-.003l-.343.073zm.073 4.584-.345-.059v.002l.345.057zm-.021-2.353-.35.004v.007l.35-.011zm-.853-4.16.324-.133-.002-.004-.322.137zm-5.412-6.038-.181.3h.001l.18-.3zm-8.075-2.587.031-.348-.03.348zm-8.99 1.22.145.319-.146-.318zm-.03.01-.053-.346-.05.007-.046.022.148.317zm-1.484.767.173.305-.173-.305zm-6.515 6.224-.305-.173.305.173zm-1.874 7.966.35.003-.35-.003zm2.06 12.674.325-.131-.325.13zm5.756 6.218.177-.302-.177.302zm8.132 2.714.044-.347h-.002l-.042.347zm3.768.014.041.348h.004l-.045-.348zm4.094-1.339.148.317-.148-.317zm7.181-5.218.273.219.001-.002-.274-.217zm-4.319 3.834-.187-.296-.004.003.191.293zm-5.204 2.504.11.333.001-.001-.11-.332zm-7.493.04.073-.343-.073.343zm-8.064-3.628-.214.277.003.002.211-.279zm-.265-.201.211-.28-.211.28zm-4.833-6.21-.341.078.341-.078zM63.201 52.11l-.348-.035.348.035zm33.115 3.899-.348-.032.348.032zm-.666 10.41.317.148.003-.006-.32-.142zm-14.277 5.035-.001.35v-.35zm-7.569-2.042.17-.307-.17.306zm7.57 2.042v.35h.004l-.005-.35zm0 0 .008-.35h-.007v.35zm1.907-.216.086.339.007-.002.008-.002-.1-.335zm1.93-.753-.144-.319-.008.004.153.315zm1.788-.93-.176-.303-.003.001.179.301zm3.165-2.44-.247-.248-.002.002.25.246zm2.442-16.521-.35.016.001.008.35-.024zm-2.955-5.899.232-.262-.005-.004-.227.266zm-6.895-3.023-.05.346h.001l.049-.346zm-8.013.94.156.314-.156-.313zm-3.328 2.203.225.268.003-.002-.228-.266zm-3.101 4.254-.326-.128-.002.005.328.123zm-.438 5.697-.35.003.35-.003zm.833-6.981-.303-.175-.003.005.306.17zm3.53-3.84.204.286.009-.007-.212-.278zm3.507-1.947-.12-.33-.006.003.126.327zm9.154-.014-.1.335.1-.335zm6.165 3.964-.278.213.278-.213zm1.64 6.484-.346-.047v.004l.347.043zm-.167 2.666-.35-.019.35.02zm-1.015 10.61.29.197.004-.005-.294-.191zm-2.742 2.844-.209-.28-.002.002.211.278zm-3.555 2.104-.143-.32-.01.005.153.315zm-1.928.742.083.34.008-.002.007-.002-.099-.336zm-1.923.213.007-.35h-.007v.35zm-.002 0 .005-.35h-.016l.011.35zm-.006 0 .01-.35h-.008l-.002.35zm-1.852-.133.048-.346-.048.346zm-7.193-2.805-.205.284h.002l.203-.284zm-2.764-3.329.31-.16v-.002l-.31.162zm-.707-4.667-.305.172.305-.172zm.867 2.39.344-.062-.344.061zm3.34-24.751c-2.737 1.265-5.102 3.063-6.907 5.256l.541.445c1.733-2.107 4.012-3.842 6.66-5.066l-.293-.635zm1.83-.687c-.63.188-1.24.417-1.828.686l.291.637a13.294 13.294 0 0 1 1.736-.652l-.2-.67zm9.553-.286c-2.793-.548-6.807-.528-9.553.286l.199.671c2.616-.775 6.513-.801 9.22-.27l.134-.687zm7.941 3.572c-2.243-1.774-4.982-3.005-7.942-3.573l-.132.688c2.856.547 5.49 1.733 7.64 3.434l.434-.549zm4.538 7.119c-.586-2.742-2.182-5.237-4.536-7.118l-.437.547c2.239 1.788 3.739 4.146 4.289 6.717l.684-.146zm.076 4.715c.265-1.564.24-3.155-.075-4.712l-.686.14c.298 1.472.322 2.976.07 4.455l.69.117zm-.041.295c.015-.122.029-.221.041-.296l-.69-.114c-.015.088-.03.197-.046.324l.695.086zm-.675-2.695c.013.38.006 1.349-.023 2.644l.7.016c.028-1.292.036-2.28.023-2.683l-.7.023zm-.827-4.038c.53 1.296.81 2.658.827 4.031l.7-.009a11.702 11.702 0 0 0-.88-4.288l-.647.266zm-5.268-5.87c2.423 1.448 4.26 3.502 5.27 5.874l.644-.274c-1.073-2.52-3.016-4.684-5.555-6.201l-.359.6zM82.26 37.9c2.852.251 5.579 1.126 7.924 2.539l.361-.6c-2.44-1.47-5.27-2.376-8.224-2.636l-.061.698zm-8.815 1.19c2.358-1.083 6.128-1.422 8.815-1.19l.06-.697c-2.753-.238-6.658.099-9.167 1.252l.292.636zm-.123.038a.462.462 0 0 0 .123-.037l-.291-.637a.24.24 0 0 1 .063-.018l.105.692zm-1.363.725c.473-.27.959-.521 1.459-.754l-.297-.634c-.516.24-1.02.501-1.509.78l.347.608zm-6.384 6.092c1.405-2.476 3.703-4.566 6.384-6.091l-.346-.609c-2.764 1.573-5.166 3.744-6.647 6.355l.61.345zm-1.828 7.797c.02-3.368 1.162-6.62 1.828-7.797l-.609-.345c-.724 1.279-1.898 4.649-1.919 8.138l.7.004zm2.035 12.54c-.349-.864-.866-2.82-1.292-5.167-.426-2.34-.756-5.036-.743-7.373l-.7-.005c-.014 2.397.324 5.14.754 7.504.429 2.358.956 4.37 1.332 5.303l.649-.262zm5.608 6.047c-2.537-1.49-4.608-3.568-5.608-6.047l-.65.262c1.074 2.661 3.274 4.844 5.903 6.388l.355-.603zm7.997 2.669c-2.87-.348-5.607-1.262-7.997-2.669l-.355.603c2.477 1.458 5.306 2.401 8.268 2.76l.084-.694zm3.684.014a15.007 15.007 0 0 1-3.682-.014l-.088.694c1.277.163 2.575.168 3.853.015l-.083-.695zm3.988-1.309c-1.281.599-2.586 1.126-3.992 1.31l.09.693c1.517-.197 2.902-.763 4.198-1.369l-.296-.634zm7.389-5.879c-1.696 2.5-4.423 4.492-7.39 5.88l.297.633c3.038-1.42 5.883-3.483 7.672-6.12l-.58-.393zm.214 1.195c.164-.206.296-.529.41-.894l-.67-.208c-.11.356-.21.57-.288.667l.548.435zm-4.406 3.913a17.894 17.894 0 0 0 4.405-3.912l-.546-.437a17.194 17.194 0 0 1-4.233 3.757l.374.592zm-5.28 2.54a22.983 22.983 0 0 0 5.284-2.543l-.382-.586a22.287 22.287 0 0 1-5.124 2.465l.222.664zm-7.678.05c2.42.52 5.235.752 7.677-.05l-.219-.665c-2.267.745-4.938.541-7.31.03l-.148.685zm-8.201-3.691c2.354 1.784 5.168 3.05 8.202 3.691l.145-.685c-2.939-.621-5.657-1.845-7.925-3.564l-.422.558zm-.265-.201c.099.074.186.14.262.2l.428-.555-.268-.204-.422.559zm-4.963-6.411c.369 1.624 1.3 2.988 2.284 4.06.985 1.07 2.04 1.868 2.679 2.35l.422-.558c-.638-.482-1.648-1.246-2.586-2.267-.938-1.02-1.785-2.279-2.117-3.74l-.682.155zm-1.016-13.145c-.11 1.09-.085 3.367.08 5.86.165 2.497.473 5.246.936 7.285l.682-.155c-.45-1.986-.755-4.693-.92-7.176-.164-2.488-.186-4.715-.081-5.744l-.697-.07zm3.297-8.501c-1.14 1.403-1.88 2.669-2.378 4.023-.497 1.351-.746 2.774-.919 4.478l.697.07c.17-1.678.411-3.035.879-4.306.466-1.269 1.164-2.47 2.264-3.824l-.543-.441zm28.921 24.552c.362-1.167.674-3.24.937-5.476.264-2.245.484-4.688.657-6.61l-.697-.063c-.173 1.924-.392 4.357-.656 6.591-.264 2.245-.57 4.255-.91 5.35l.67.207zm1.594-12.086c.12-1.329.216-2.401.29-2.996l-.695-.086c-.075.61-.173 1.698-.292 3.02l.697.062zm-.408-3.047c-.046 2.162-.15 5.206-.31 7.86a74.715 74.715 0 0 1-.28 3.523c-.054.485-.11.901-.169 1.231-.06.339-.12.56-.168.67l.64.284c.086-.195.156-.488.217-.83.063-.352.121-.785.176-1.278.108-.985.203-2.225.283-3.557.16-2.666.264-5.72.311-7.887l-.7-.016zm-.925 13.279c-.25.537-.546 1.055-.884 1.553l.579.393c.358-.527.674-1.078.94-1.651l-.635-.295zm-13.958 4.832c-2.598-.009-5.218-.79-7.4-1.999l-.34.613c2.272 1.258 5.007 2.077 7.738 2.086l.002-.7zm0 0H81.386 81.372v.7h-.014H81.374v-.7zm0 0h-.006l.01.7h-.003v-.7zm1.822-.206c-.588.149-1.2.218-1.814.206l-.014.7a7.55 7.55 0 0 0 1.999-.227l-.172-.679zm1.863-.728c-.6.292-1.228.537-1.879.733l.202.67c.686-.206 1.35-.465 1.983-.773l-.306-.63zm1.761-.917c-.563.333-1.148.638-1.753.913l.29.638a19.074 19.074 0 0 0 1.82-.948l-.357-.603zm3.095-2.384a14.791 14.791 0 0 1-3.092 2.383l.352.605a15.49 15.49 0 0 0 3.238-2.496l-.498-.492zm2.342-16.25c.008.112-.006.435-.045.951a79.95 79.95 0 0 1-.176 1.93 191.83 191.83 0 0 1-.633 5.406c-.255 1.936-.539 3.859-.814 5.35-.138.748-.273 1.38-.399 1.85a5.506 5.506 0 0 1-.177.562c-.06.153-.096.2-.096.2l.495.495c.111-.112.191-.282.253-.44.068-.172.135-.387.201-.635.133-.497.272-1.15.41-1.904.28-1.51.566-3.446.82-5.386.256-1.941.48-3.891.636-5.428.079-.768.14-1.435.178-1.947.038-.499.058-.88.045-1.054l-.698.05zm-2.837-5.661c1.733 1.528 2.737 3.543 2.837 5.652l.699-.033c-.11-2.315-1.21-4.502-3.073-6.144l-.463.525zm-6.713-2.94c2.547.36 4.894 1.392 6.717 2.944l.454-.533c-1.932-1.644-4.404-2.726-7.073-3.104l-.098.693zm-7.808.908c1.006-.503 2.364-.819 3.782-.963 1.413-.145 2.858-.115 4.024.055l.102-.692c-1.23-.18-2.733-.21-4.198-.06-1.46.15-2.912.479-4.023 1.034l.313.626zm-3.256 2.155c.97-.836 2.065-1.56 3.256-2.155l-.313-.626a16.53 16.53 0 0 0-3.4 2.25l.457.53zm-3.003 4.115c.606-1.55 1.632-2.96 3-4.113l-.451-.535c-1.45 1.223-2.55 2.727-3.201 4.393l.652.255zm.255 10.872a82.353 82.353 0 0 1-.476-6.626 35.85 35.85 0 0 1 .011-2.699c.039-.761.114-1.29.211-1.551l-.655-.246c-.14.375-.217 1.006-.255 1.762-.039.77-.04 1.717-.011 2.754a83.07 83.07 0 0 0 .48 6.685l.695-.079zm-1.362-4.294c0 2.542.298 3.653.7 4.485l.63-.303c-.338-.701-.63-1.694-.63-4.183h-.7zm-.007-1.005c.003.353.007.69.007 1.005h.7c0-.32-.004-.66-.007-1.011l-.7.006zm.877-7.154c-.48.869-.697 2.085-.799 3.343-.102 1.267-.089 2.629-.078 3.811l.7-.006c-.01-1.189-.023-2.519.076-3.75.1-1.24.31-2.328.713-3.06l-.612-.338zm3.634-3.954c-1.515 1.08-2.753 2.425-3.631 3.949l.606.35c.825-1.432 1.993-2.703 3.431-3.73l-.406-.57zm3.583-1.99a14.744 14.744 0 0 0-3.592 1.996l.424.557a14.05 14.05 0 0 1 3.42-1.9l-.252-.653zm9.38-.023c-1.328-.395-3.01-.627-4.683-.644-1.67-.017-3.359.18-4.69.665l.239.658c1.224-.445 2.821-.639 4.444-.623 1.62.017 3.236.242 4.49.615l.2-.67zm6.342 4.087c-1.5-1.951-3.83-3.34-6.343-4.087l-.2.671c2.412.717 4.6 2.037 5.988 3.842l.555-.426zm1.71 6.744c.315-2.333-.175-4.75-1.71-6.745l-.555.427c1.406 1.826 1.865 4.05 1.572 6.224l.693.094zm-.165 2.639c.075-1.36.13-2.359.166-2.643l-.695-.086c-.04.315-.096 1.352-.17 2.69l.7.038zM91.817 65.9c.097-.15.164-.385.218-.627.057-.259.112-.585.163-.959.102-.75.196-1.714.28-2.766.17-2.105.307-4.582.41-6.43l-.7-.039c-.102 1.85-.238 4.318-.407 6.413a52.65 52.65 0 0 1-.277 2.727c-.05.366-.1.67-.153.902-.055.25-.101.366-.121.397l.587.382zm-2.827 2.933a12.204 12.204 0 0 0 2.823-2.928l-.58-.393a11.504 11.504 0 0 1-2.66 2.76l.417.561zm-3.62 2.142a18.541 18.541 0 0 0 3.623-2.144l-.423-.557a17.847 17.847 0 0 1-3.487 2.062l.287.639zm-1.974.759a13.034 13.034 0 0 0 1.982-.763l-.304-.63a12.33 12.33 0 0 1-1.876.721l.198.672zm-2.028.227a7.83 7.83 0 0 0 2.013-.223l-.167-.68a7.126 7.126 0 0 1-1.832.203l-.014.7zm0 0a.15.15 0 0 0 .007 0v-.7h.004l-.01.7zm-.011 0h.027l-.022-.7h.015l-.02.7zm-1.89-.136c.628.087 1.262.132 1.898.136l.004-.7a13.635 13.635 0 0 1-1.806-.13l-.096.694zm-7.348-2.867c2.112 1.504 4.65 2.492 7.348 2.867l.096-.694c-2.593-.36-5.023-1.308-7.038-2.743l-.406.57zm-1.071-1.116c.353.507.719.862 1.07 1.115l.408-.568a3.858 3.858 0 0 1-.904-.947l-.574.4zm2.926 1.263a12.085 12.085 0 0 1-2.4-1.719l-.478.511c.75.702 1.616 1.31 2.539 1.82l.339-.612zm-2.4-1.719c-.703-.657-1.288-1.394-1.706-2.202l-.621.321c.46.891 1.098 1.69 1.849 2.392l.478-.511zm-1.706-2.204c-.157-.299-.333-.944-.505-1.864a46.811 46.811 0 0 1-.468-3.25l-.695.079c.14 1.233.3 2.375.474 3.3.171.91.362 1.655.573 2.06l.62-.325zm-1.636-4.923c.103.214.211.406.314.59l.61-.343a9.542 9.542 0 0 1-.293-.55l-.63.303zm.314.59c.31.55.618 1.097.827 2.278l.69-.122c-.229-1.29-.578-1.915-.907-2.5l-.61.343zm.827 2.278c.408 2.31 1.019 3.772 1.675 4.715l.574-.4c-.579-.833-1.162-2.19-1.56-4.436l-.689.121z" fill="#001A36"/>
    <path d="M60.51 56.97c.536 10.54-.916 19.928-1.155 30.195-.04 1.506-.078 3.006-.064 4.518-.034.768-.006 1.536.085 2.3.108.597.45.719 1.002.73.933.067 1.878.082 2.814.107 9.401.23-13.459.211-4.055.215 11.702.003 23.413-.034 35.12-.244l3.378-.064a.468.468 0 0 0 .436-.472c.282-17.87 1.107-31.294 1.022-36.262a.444.444 0 0 0-.347-.418c-3.692-.44-7.45-.489-11.159-.618-5.799-.175-11.593-.262-17.388-.319-6.241-.086-6.783-.142-6.783-.142-.764.002-1.573-.068-2.336.009l-.1-.023c-.58.002-.545.896.034.894 0 0 .83 13.348.534 2.544a138.8 138.8 0 0 0-.118-2.983.46.46 0 0 0-.92.034z" fill="#fff"/>
    <path d="M60.51 56.97c.536 10.54-.916 19.927-1.155 30.195-.04 1.506-.079 3.006-.064 4.518-.034.768-.006 1.536.085 2.299.108.598.45.72 1.002.73.932.068 1.878.083 2.814.108 9.401.23 19.358.181 31.065-.03l3.378-.063a.468.468 0 0 0 .436-.473c.282-17.87 1.107-31.293 1.022-36.26a.444.444 0 0 0-.347-.42c-3.692-.44-7.45-.488-11.159-.617-5.799-.175-11.593-.262-17.388-.319-6.241-.086-6.783-.142-6.783-.142-.764.002-1.573-.068-2.336.009l-.1-.023c-.58.001-.545.896.034.894l5.942-.02s12.601.26 18.534.416c4.064.107 8.148.188 12.189.56l.87.096-.346-.419c.114 6.781-.342 13.037-.525 18.332-.296 8.582-.439 14.811-.492 17.956l.429-.468c-11.22.255-17.743.425-28.968.425-.754 0-5.551-.325-6.877-.372-.415-.016-.824-.03-1.22-.054-.116-.027-.443.027-.463-.045.027.098.292.147.235.183-.058.036-.022-.091-.039-.206a13.841 13.841 0 0 1-.056-1.01c-.034-1.24-.015-2.468.003-3.695.159-9.652 1.613-18.331 1.318-29.135a139.45 139.45 0 0 0-.118-2.984.46.46 0 0 0-.92.035z" fill="#001A36"/>
    <path fill-rule="evenodd" clip-rule="evenodd" d="M79.557 70.616c-.734-.048-1.212.032-1.777.391-.214.135-1.222.831-1.692 1.941-.56 1.324-.55 3.131-.178 3.831.213.438.54.811.938 1.108a29.65 29.65 0 0 0-.204 2.372v.51c-.055.474.155.962.553 1.261.643.287 2.479.41 2.479.41l.124.003.088-.001.11-.007.04-.003.124-.017c.654-.11 1.08-.533 1.217-1.287l.036-.325.026-.324c.013-.196.019-1.377-.005-2.39.234-.125.459-.267.673-.425a4.273 4.273 0 0 0 1.223-1.175c.55-.873.477-2.075-.022-3.286a4.293 4.293 0 0 0-1.995-2.186s-.49-.206-1.001-.322c-.511-.117-.757-.08-.757-.08z" fill="#D2D8FF"/>
    <path d="m77.78 71.007.214.338-.214-.338zm1.777-.391-.026.399.044.003.043-.007-.06-.395zm-3.47 2.332-.368-.156.369.156zm-.177 3.831.36-.175-.007-.012-.353.187zm.938 1.108.397.052.03-.233-.188-.14-.239.32zm-.204 2.372-.4-.016v.016h.4zm0 .51.397.047.003-.023v-.023h-.4zm.553 1.261-.24.32.036.028.041.018.163-.365zm2.479.41-.027.4h.018l.009-.4zm.124.003-.009.4H79.81l-.008-.4zm.088-.001.008.4h.008l.007-.001-.023-.4zm.11-.007.024.4.01-.001-.034-.399zm.04-.003.033.398h.01l.01-.002-.054-.396zm.124-.017.054.396.012-.002-.066-.394zm1.217-1.287.394.071.003-.014.001-.014-.398-.043zm.036-.325.398.043v-.01l-.398-.033zm.026-.324.399.033v-.006l-.399-.027zm-.005-2.39-.188-.353-.217.116.005.246.4-.01zm.673-.425-.214-.338-.012.008-.011.008.237.322zm1.223-1.175.33.227.004-.007.005-.007-.339-.213zm-.022-3.286-.37.15v.003l.37-.153zm-1.995-2.186.186-.355-.016-.008-.015-.006-.155.369zm-1.001-.322-.09.39.09-.39zm-2.32.65c.475-.301.86-.374 1.537-.33l.052-.798c-.793-.052-1.361.036-2.018.452l.429.676zm-1.538 1.76c.421-.995 1.342-1.636 1.538-1.76l-.429-.676c-.23.147-1.326.897-1.846 2.123l.737.312zm-.193 3.487c-.136-.257-.234-.8-.214-1.483.02-.667.15-1.399.407-2.005l-.737-.312c-.303.718-.447 1.552-.47 2.294-.02.726.073 1.438.308 1.88l.706-.374zm.824.973a2.655 2.655 0 0 1-.818-.96l-.719.35c.245.502.616.923 1.06 1.253l.477-.643zm-.443 2.694.4.016V80.261l.002-.038a23.832 23.832 0 0 1 .04-.682c.032-.442.082-1.026.159-1.603l-.793-.105a27.658 27.658 0 0 0-.197 2.198 27.42 27.42 0 0 0-.01.196v.015l.4.016zm.4.511v-.51l-.8-.001v.51l.8.001zm.393.941a.994.994 0 0 1-.396-.895l-.794-.092a1.795 1.795 0 0 0 .71 1.626l.48-.639zm2.239.73.027-.4h-.019l-.058-.005a20.085 20.085 0 0 1-.9-.09 11.58 11.58 0 0 1-.793-.123 2.991 2.991 0 0 1-.574-.158l-.325.731c.204.09.476.159.744.212.276.054.576.098.85.132a21.002 21.002 0 0 0 1.02.1l.028-.4zm.134-.398-.125-.002-.018.8.124.002.019-.8zm.07-.001-.088.001.017.8.087-.002-.017-.8zm.095-.006-.111.006.047.799.11-.007-.046-.798zm.028-.003-.039.003.068.797.04-.003-.069-.797zm.106-.015-.125.017.107.793.125-.017-.107-.793zm.877-.962c-.058.319-.17.535-.31.68a1.002 1.002 0 0 1-.58.284l.132.79a1.799 1.799 0 0 0 1.025-.52c.272-.282.441-.655.52-1.09l-.787-.144zm.031-.296-.035.325.795.086.036-.325-.796-.086zm.026-.313-.027.324.798.064.026-.323-.797-.065zm-.007-2.35c.024 1.017.018 2.18.006 2.356l.798.053c.015-.217.02-1.415-.004-2.427l-.8.019zm.835-.755a5.091 5.091 0 0 1-.623.394l.377.706a5.89 5.89 0 0 0 .721-.456l-.475-.644zm1.133-1.081a3.876 3.876 0 0 1-1.109 1.065l.428.676c.522-.33.981-.77 1.338-1.286l-.657-.455zm-.064-2.905c.477 1.156.504 2.205.054 2.92l.677.426c.65-1.031.53-2.386.009-3.651l-.74.305zm-1.81-1.984a3.892 3.892 0 0 1 1.81 1.982l.74-.301a4.693 4.693 0 0 0-2.18-2.39l-.37.709zm-.905-.287a6.008 6.008 0 0 1 .932.3h.004l.154-.368.155-.37h-.002l-.006-.002-.018-.008-.068-.027a6.829 6.829 0 0 0-.974-.306l-.177.78zm-.668-.47.06.396h-.003a.055.055 0 0 0-.004.001h.016c.018-.002.051-.003.101 0 .1.003.265.02.498.073l.178-.78a3.568 3.568 0 0 0-.643-.093 1.875 1.875 0 0 0-.258.008h-.005l.06.396z" fill="#001A36"/>
</svg>
