<svg xmlns="http://www.w3.org/2000/svg" width="146" height="147" viewBox="0 0 146 147">
    <g fill="none" fill-rule="evenodd">
        <g fill-rule="nonzero">
            <g>
                <g>
                    <g>
                        <path fill="#FFF" d="M0 0L0 146 146 146 146 0z" transform="translate(-647 -519) translate(266 214) translate(381 280.875) translate(0 25)"/>
                        <path fill="#001A36" d="M4.71 4.71v32.967h32.967V4.71H4.71m47.096 0v4.71h-4.71v4.709h-4.709v4.71h4.71v4.71h-4.71v14.128h4.71v-9.419h9.42v-4.71h4.709v-4.71h-4.71v4.71h-4.71V14.13h4.71v-9.42h-4.71m28.259 0v4.71h18.838v4.71h-4.71v4.71h-4.71v-4.71h-9.418v4.71h-4.71v-9.42h-14.13v4.71h9.42v4.71h-4.71v4.71h4.71v14.128h4.71v4.71h-14.13v4.71h-9.419v9.42h4.71v23.548h9.42v4.71h9.419v-4.71h-4.71v-9.42h4.71v4.71h4.71v9.42h4.71v4.709h4.709v4.71h-9.42v-4.71H56.517v-4.71h-9.42v-4.71h-4.709v-9.419h4.71v4.71h4.71v-14.13h-18.84v4.71h9.42v4.71H23.548v-4.71h-4.71v-4.71h9.42v-4.709h-4.71v-9.42h4.71v4.71h4.71v4.71h4.71v-4.71h9.419v-9.419h-4.71v4.71h-4.71v-4.71h-4.71v4.71h-4.709v-4.71h-4.71v4.71H14.13v-4.71h-4.71v4.71H4.71v4.71h4.71v9.419h4.71v4.71h4.71v4.71h-9.42v-4.71H4.71v9.419h9.42v4.71h9.42v4.71H9.418v-4.71H4.71v9.419h18.84v9.42h4.71v-4.71h9.418v-4.71h4.71v-4.71h4.71v9.42h-4.71v4.71h-9.42v4.709h9.42v4.71h9.42v9.419h-9.42v4.71h4.71v4.71h4.71v4.709h-9.42v4.71h9.42v-4.71h4.71v-4.71h4.709v9.42h-4.71v4.71h4.71v-4.71h4.71v-9.42h-4.71v-14.129h-4.71v-4.71h-4.71v-4.71h9.42v-4.709h4.71v4.71h9.419v4.71h-9.42v4.71h4.71v9.419h9.42v9.419h4.71v9.42h28.257v-4.71h4.71v4.71h4.71v-4.71h4.71v-4.71h4.709v9.42h4.71v-4.71h4.71v-9.42h-4.71v-9.42h4.71V80.066h-9.42v4.71h-14.13v-4.71h9.42v-4.71h-4.71v-9.42h-4.71v4.71h-4.709v-4.71h-4.71v4.71h4.71v4.71h-4.71v4.71h-4.71v-4.71h-9.418v-9.42h9.419v-4.71h-9.42v-4.709h-4.71v-9.42h4.71v4.71h4.71v4.71h4.71v-9.42h4.71v4.71h14.129v4.71h9.419v4.71h4.71v9.42h-4.71v-4.71h-4.71v4.71h4.71v4.709h9.42V47.097h-9.42v-4.71h-4.71v4.71h4.71v4.71h-9.42v-9.42h-9.419v4.71h-4.71v-4.71h-4.71v-9.42h-4.709v-4.709h-4.71v-4.71h4.71v-4.71h4.71V9.42h-4.71V4.71H80.065m28.258 0v32.968h32.967V4.71h-32.967z" transform="translate(-647 -519) translate(266 214) translate(381 280.875) translate(0 25)"/>
                        <path fill="#FFF" d="M9.42 9.42v23.548h23.548V9.419H9.419m103.613 0v23.549h23.549V9.419h-23.549z" transform="translate(-647 -519) translate(266 214) translate(381 280.875) translate(0 25)"/>
                        <path fill="#001A36" d="M14.129 14.129v14.13h14.13v-14.13h-14.13m103.613 0v14.13h14.129v-14.13h-14.13z" transform="translate(-647 -519) translate(266 214) translate(381 280.875) translate(0 25)"/>
                        <path fill="#FFF" d="M80.065 18.839L80.065 23.548 75.355 23.548 75.355 37.677 80.065 37.677 80.065 23.548 84.774 23.548 84.774 37.677 89.484 37.677 89.484 18.839z" transform="translate(-647 -519) translate(266 214) translate(381 280.875) translate(0 25)"/>
                        <path fill="#001A36" d="M51.806 32.968v4.71h4.71v-4.71h-4.71m9.42 0v4.71h4.71v-4.71h-4.71z" transform="translate(-647 -519) translate(266 214) translate(381 280.875) translate(0 25)"/>
                        <path fill="#FFF" d="M94.194 32.968v9.42h4.71v4.709h4.709v-4.71h-4.71v-9.42h-4.71m-18.838 9.42v4.71h4.71v4.71h-4.71v4.71h4.71v4.709h-9.42v-4.71h-4.71v-4.71h4.71v-4.71h-4.71v4.71h-4.71v4.71h4.71v4.71h-4.71v14.129h4.71v-4.71h4.71v-4.71h4.71v4.71h4.71v4.71h4.71v9.42h14.128v9.419h4.71v4.71h9.42v-9.42h-4.71v-4.71h4.71v-4.71h-4.71v4.71h-9.42v-4.71h-4.71v-4.71h-4.71v-4.709h-9.418v-4.71h4.71V47.097h4.709v-4.71h-4.71v4.71h-4.71v-4.71h-4.71m-42.386 4.71v4.71h4.71v-4.71h-4.71m-18.839 4.71v9.419h4.71v-9.42h-4.71m117.742 0v4.71h4.71v-4.71h-4.71m-42.387 9.42v4.71h4.71v-4.71h-4.71m-70.645 9.42v4.709h4.71v-4.71h-4.71m14.129 4.71v4.71h4.71v-4.71h-4.71m-9.42 9.42v4.709h14.13v-4.71h-14.13m108.323 0v9.42h-4.71v-4.71h-9.42v9.42h4.71v-4.71h4.71v9.419h-4.71v9.42h4.71v4.709h-4.71v4.71h-4.71v14.129h4.71v-4.71h4.71v-4.71h4.71v-14.129h4.71V98.903h-4.71v-4.71h4.71v-9.419h-4.71m-80.065 4.71v4.71h4.71v-4.71h-4.71z" transform="translate(-647 -519) translate(266 214) translate(381 280.875) translate(0 25)"/>
                        <path fill="#001A36" d="M14.129 94.194L14.129 98.903 4.71 98.903 4.71 103.613 14.129 103.613 14.129 98.903 18.839 98.903 18.839 94.194z" transform="translate(-647 -519) translate(266 214) translate(381 280.875) translate(0 25)"/>
                        <path fill="#FFF" d="M65.935 94.194v4.71h9.42v4.709h4.71v-4.71h-4.71v-4.71h-9.42m23.549 0v9.42h-4.71v4.71h4.71v4.71h4.71v-4.71h-4.71v-4.71h9.42v-4.71h-4.71v-4.71h-4.71m-47.097 4.71v4.71h9.42v-4.71h-9.42m61.226 4.71v14.129h14.129v-14.13h-14.13z" transform="translate(-647 -519) translate(266 214) translate(381 280.875) translate(0 25)"/>
                        <path fill="#001A36" d="M127.161 103.613v4.71h4.71v-4.71h-4.71M4.71 108.323v32.967h32.967v-32.967H4.71m103.613 0v4.71h4.71v-4.71h-4.71z" transform="translate(-647 -519) translate(266 214) translate(381 280.875) translate(0 25)"/>
                        <path fill="#FFF" d="M9.42 113.032v23.549h23.548v-23.549H9.419m65.936 0v4.71h4.71v4.71h9.419v4.71h-4.71v4.709h9.42v4.71h9.419v-4.71h-9.42v-4.71h9.42v-4.71h-14.13v-4.71h-4.709v-4.709h-9.42z" transform="translate(-647 -519) translate(266 214) translate(381 280.875) translate(0 25)"/>
                        <path fill="#001A36" d="M14.129 117.742L14.129 131.871 28.258 131.871 28.258 117.742z" transform="translate(-647 -519) translate(266 214) translate(381 280.875) translate(0 25)"/>
                        <path fill="#FFF" d="M108.323 122.452L108.323 131.871 113.032 131.871 113.032 122.452z" transform="translate(-647 -519) translate(266 214) translate(381 280.875) translate(0 25)"/>
                        <path fill="#001A36" d="M122.452 122.452v4.71h4.71v-4.71h-4.71M75.355 136.58v4.71h4.71v-4.71h-4.71z" transform="translate(-647 -519) translate(266 214) translate(381 280.875) translate(0 25)"/>
                    </g>
                </g>
            </g>
        </g>
    </g>
</svg>
