<svg width="116" height="116" viewBox="0 0 116 116" xmlns="http://www.w3.org/2000/svg">
    <g fill-rule="nonzero" fill="none">
        <path d="M32.056 103.916a73.149 73.149 0 0 0-20.693.665c-.644.08-1.27.27-1.85.561-.665.42-.387.998.149 1.454 2.15 1.85 7.358 2.502 12.023 2.977 7.99.822 16.002 1.59 24.034 2.305 4.182.459 8.39.646 12.596.56 6.674-.277 24.385-1.651 26.77-1.38 12.54 1.424 16.262-6.71 15.184-6.779-22.099-.93-68.213-.363-68.213-.363z" fill="#D2D8FF"/>
        <path d="M18.172 105.77c3.476.241 6.97.278 10.476.34 5.467.092 10.933.129 16.399.141 12.156.037 24.315-.022 36.476-.178 4.819-.062 9.632-.13 14.445-.302a.283.283 0 0 0 .197-.475c-6.526-6.261-12.251-13.422-17.872-20.478-5.62-7.056-11.092-14.174-16.275-21.489a190.797 190.797 0 0 1-2.57-3.697 13.558 13.558 0 0 1-1.232-1.978.283.283 0 0 0-.437-.062c-3.766 3.605-7.395 7.34-11.007 11.093a272.826 272.826 0 0 0-20.299 23.417 83.299 83.299 0 0 0-8.535 13.237c-.154.32.32.616.48.284a78.369 78.369 0 0 1 7.285-11.573c3.173-4.314 6.587-8.468 10.094-12.516 5.91-6.829 12.122-13.398 18.487-19.776a249.638 249.638 0 0 1 3.864-3.796l-.437-.056c.752 1.695 2.058 3.248 3.081 4.752a389.979 389.979 0 0 0 6.834 9.348c5.947 7.925 12.054 15.74 18.488 23.27 3.08 3.58 6.162 7.136 9.582 10.402l.198-.474c-9.984.357-19.992.394-29.981.45-11.869.067-23.738.086-35.6-.087-4.062-.055-8.141-.08-12.196-.363-.302-.006-.302.542.055.567z" fill="#231F20"/>
        <path d="M37.757 7.645a58.476 58.476 0 0 0-20.084 17.693c-6.63 9.453-9.768 21.316-8.067 32.772 1.43 9.502 6.502 17.994 13.626 24.354A56.621 56.621 0 0 0 47.105 94.9c7.093 1.769 15.215 2.514 22.185-.136a63.572 63.572 0 0 0 15.406-8.584 55.345 55.345 0 0 0 12.788-13.145 40.574 40.574 0 0 0 6.698-17.2 49.608 49.608 0 0 0-.216-15.714 42.922 42.922 0 0 0-13.064-23.713 50.274 50.274 0 0 0-23.066-12.01c-8.14-1.85-16.867-1.77-24.804.955a37.086 37.086 0 0 0-5.275 2.292c-.315.173-.037.647.277.48 7.204-3.832 15.579-4.99 23.633-4.184a50.76 50.76 0 0 1 23.904 8.868 43.372 43.372 0 0 1 16.023 20.7 44.278 44.278 0 0 1 2.527 14.26 44.315 44.315 0 0 1-2.903 17.095C96.627 76.302 86.884 85.15 76.223 90.925c-3.815 2.065-7.796 3.938-12.122 4.591a39.323 39.323 0 0 1-11.154-.05 56.769 56.769 0 0 1-24.077-9.304C21.223 80.96 14.9 73.658 11.83 64.845c-3.697-10.611-2.464-22.702 2.435-32.722 4.27-8.72 11.228-16.023 19.289-21.335a57.843 57.843 0 0 1 4.449-2.662c.345-.167.068-.647-.246-.48z" fill="#231F20"/>
        <path d="M58.58 83.314c-8.098-.03-16.232-2.859-22.999-7.222-5.478-3.531-10.236-8.375-12.904-14.383-3.081-6.847-2.989-14.821-.715-21.89a38.06 38.06 0 0 1 9.423-15.042 49.3 49.3 0 0 1 10.112-7.79c6.434-3.74 14.008-4.566 21.285-3.327a38.707 38.707 0 0 1 20.953 10.692 31.737 31.737 0 0 1 8.979 20.86 35.015 35.015 0 0 1-1.362 12.041 31.546 31.546 0 0 1-6.058 10.717 47.63 47.63 0 0 1-9.62 8.627 54.6 54.6 0 0 1-5.429 3.291 36.143 36.143 0 0 1-5.866 2.662c-1.88.553-3.834.81-5.793.764a.277.277 0 1 0 0 .555c1.974.044 3.943-.21 5.842-.752a35.391 35.391 0 0 0 5.86-2.625 54.23 54.23 0 0 0 10.803-7.438 39.859 39.859 0 0 0 8.332-10.057 29.58 29.58 0 0 0 3.593-11.284c.924-7.968-.518-16.176-4.986-22.93-4.387-6.644-11.252-11.432-18.734-14.02-7.845-2.718-16.984-3.236-24.748.05a42.435 42.435 0 0 0-10.655 6.889 41.665 41.665 0 0 0-10.73 13.576c-3.08 6.495-4.313 14.143-2.779 21.223 1.436 6.742 5.454 12.584 10.692 16.978a45.683 45.683 0 0 0 21.859 9.922c1.86.3 3.741.457 5.626.468a.278.278 0 0 0 .019-.555z" fill="#231F20"/>
        <path d="M59.042 12.81c.098-2.823.283-5.643.554-8.462.037-.351-.517-.351-.554 0a139.007 139.007 0 0 0-.555 8.461c0 .358.542.358.555 0zM52.448 12.87a174.342 174.342 0 0 1-3.31-8.368c-.123-.333-.659-.19-.535.148 1.047 2.876 2.169 5.71 3.364 8.504.142.327.617.044.481-.283zM44.887 14.609a21.144 21.144 0 0 0-3.002-7.87c-.19-.302-.671 0-.48.284a20.564 20.564 0 0 1 2.945 7.709c.062.351.617.203.537-.148v.025zM38.761 18.503a4.314 4.314 0 0 0-1.097-1.676l-1.769-1.978-3.488-3.895c-.234-.27-.616.124-.388.389l3.285 3.697 1.614 1.812a5.06 5.06 0 0 1 1.307 1.818.277.277 0 0 0 .53-.148l.006-.019zM33.024 22.737l-7.167-5.663c-.278-.216-.672.172-.395.394l7.143 5.663c.277.216.671-.172.388-.394h.03zM27.182 28.653l-8.283-3.833c-.326-.148-.616.327-.283.48l8.288 3.828c.32.154.617-.327.278-.475zM23.016 35.561a65.446 65.446 0 0 0-8.48-3.9c-.333-.124-.48.412-.148.536a64.601 64.601 0 0 1 8.32 3.82c.314.173.616-.308.283-.48l.025.024zM20.65 43.055a21.125 21.125 0 0 1-9.78-1.14c-.34-.123-.481.413-.148.536a21.513 21.513 0 0 0 9.927 1.158c.352-.043.358-.616 0-.554zM19.972 50.924l-10.477 2.86a.278.278 0 0 0 .148.536l10.476-2.86a.278.278 0 0 0-.147-.536zM20.563 57.833l-9.509 4.313c-.326.148-.043.617.284.481l9.502-4.314c.327-.148.044-.616-.277-.48zM22.85 64.026a60.738 60.738 0 0 0-8.628 6.082c-.271.234.117.616.388.395a60.325 60.325 0 0 1 8.517-5.978.277.277 0 0 0-.278-.48v-.02zM26.683 69.227c-2.151 2.964-4.253 5.978-6.496 8.868-.215.277.173.672.388.394 2.28-2.933 4.407-5.977 6.582-8.985.21-.29-.271-.567-.474-.277zM33.683 75.938a239.59 239.59 0 0 0-6.859 9.324c-.203.29.278.567.48.277a233.723 233.723 0 0 1 6.78-9.213c.215-.277-.173-.672-.395-.388h-.006zM41.152 80.147a103.48 103.48 0 0 0-4.19 10.55c-.111.34.425.487.536.148a103.752 103.752 0 0 1 4.153-10.42c.148-.321-.326-.617-.474-.278h-.025zM48.769 82.821a124.464 124.464 0 0 1-3.322 11.395c-.117.339.42.48.536.148a123.712 123.712 0 0 0 3.322-11.395c.08-.35-.456-.499-.536-.148zM56.854 84.35a130.564 130.564 0 0 1-.813 11.752c-.037.357.517.35.554 0 .448-3.903.72-7.82.814-11.752a.277.277 0 1 0-.555 0zM65.13 82.852a128.595 128.595 0 0 0 6.471 10.668c.197.295.678 0 .48-.278a128.595 128.595 0 0 1-6.47-10.667c-.172-.314-.653-.037-.48.277zM73.881 78.335a232.08 232.08 0 0 1 8.387 9.336c.228.278.617-.117.389-.388a209.73 209.73 0 0 0-8.381-9.342c-.247-.26-.617.135-.395.394zM92.757 50.468c3.722.56 7.42 1.235 11.092 2.028.345.074.493-.456.148-.536a190.725 190.725 0 0 0-11.092-2.028c-.352-.05-.5.48-.148.536zM91.26 58.134a46.311 46.311 0 0 1 10.34 6.68c.271.235.666-.153.394-.388a46.835 46.835 0 0 0-10.476-6.778c-.32-.148-.616.326-.277.48l.018.006zM88.067 65.215c.888.086 1.64 1.103 2.237 1.676l2.206 2.114 4.413 4.228c.259.246.647-.148.388-.395l-4.8-4.615-2.336-2.237c-.616-.617-1.233-1.233-2.108-1.338-.357 0-.351.524 0 .555v.012zM82.237 72.536c2.335 3.094 4.906 6.001 7.691 8.696.26.252.654-.142.395-.389a74.018 74.018 0 0 1-7.605-8.59c-.216-.278-.696 0-.48.283zM65.685 14.202a50.169 50.169 0 0 0 3.174-8.77.277.277 0 0 0-.53-.147 50.052 50.052 0 0 1-3.125 8.627c-.148.32.327.617.481.278v.012zM72.353 16.513c.776.062 1.368-.493 1.886-.992a60.774 60.774 0 0 0 1.848-1.904 35.028 35.028 0 0 0 3.143-4.11c.197-.303-.283-.58-.48-.284a33.524 33.524 0 0 1-2.89 3.814 24.92 24.92 0 0 1-1.603 1.707c-.555.549-1.115 1.276-1.892 1.233-.357 0-.351.53 0 .554l-.012-.018zM79.162 20.297a.505.505 0 0 0 .617.363c.329-.087.62-.283.825-.554a67.095 67.095 0 0 0 1.96-2.225 54.131 54.131 0 0 0 3.457-4.72c.197-.302-.283-.58-.48-.284a48.597 48.597 0 0 1-2.854 3.944 43.318 43.318 0 0 1-1.528 1.818c-.259.296-.524.616-.795.881a5.355 5.355 0 0 1-.407.432.616.616 0 0 1-.141.104c-.099.056-.16 0-.142.093a.277.277 0 0 0-.53.148h.018zM84.542 24.814c.062.665.79.48 1.19.24.912-.536 1.811-1.103 2.717-1.658l5.423-3.309a.279.279 0 0 0-.283-.48l-4.37 2.668-2.107 1.288-1.054.616c-.203.123-.4.253-.616.37-.216.117-.37.13-.357.234-.037-.351-.617-.357-.555 0l.012.03zM90.335 33.448c2.736-2.225 6.643-1.985 9.484-4.062.284-.203 0-.69-.283-.474-2.872 2.101-6.78 1.849-9.595 4.141-.278.228.117.616.394.395zM92.8 40.578c3.504-.23 7.013-.37 10.526-.42a.277.277 0 1 0 0-.554c-3.513.05-7.022.189-10.526.419-.351 0-.357.573 0 .555z" fill="#231F20"/>
        <path d="M46.18 59.207c.284.24.655.353 1.024.308.228-.093-.536-3.932.856-3.876.142 0 .857 1.232.974 1.14.53-.4-.296-2.059-.37-2.256a.678.678 0 0 0-.431-.419 5.478 5.478 0 0 0-1.849-.08 1.177 1.177 0 0 0-.616.789c-.42 1.374.105 4.123.413 4.394z" fill="#FFF"/>
        <path d="M46.02 59.373c.346.277 1.406.752 1.455 0 .008-.477-.008-.954-.05-1.43a4.252 4.252 0 0 1 .185-1.719.943.943 0 0 1 .16-.246c.062-.056.155-.056.21-.099h.043s-.08-.043-.055 0a.949.949 0 0 1 .105.117c.098.123.19.259.283.388.13.24.308.45.524.617.277.135.48-.173.536-.407a3.352 3.352 0 0 0-.444-1.929l-.086-.191a.992.992 0 0 0-.456-.548 2.656 2.656 0 0 0-.85-.148 3.636 3.636 0 0 0-1.097 0 1.27 1.27 0 0 0-.888.887 5.86 5.86 0 0 0-.135 2.792c.052.416.134.828.246 1.232.044.257.152.499.314.703.216.203.543-.124.327-.333a.573.573 0 0 1-.08-.142 2.465 2.465 0 0 1-.105-.302 9.51 9.51 0 0 1-.203-.924 7.777 7.777 0 0 1-.08-2.268c.017-.39.17-.763.431-1.054.283-.164.618-.214.937-.142.288.01.574.046.856.105.265.062.345.29.444.518.114.253.213.512.296.776.11.265.154.553.13.838a.45.45 0 0 0-.044.118c-.061.055 0 .055.179 0 0 0 0 .049 0 0 0-.05-.179-.21-.228-.278-.16-.222-.314-.456-.493-.665a.616.616 0 0 0-.998.104 2.348 2.348 0 0 0-.395 1.344 14.02 14.02 0 0 0 0 1.762v.555s.111-.043 0-.074a1.467 1.467 0 0 1-.616-.271c-.259-.203-.592.123-.358.314z" fill="#000"/>
        <path d="M57.507 39.752c-3.636-1.066-11.092.653-12.836 1.232A1.35 1.35 0 0 0 43.5 42.63c.082 4.143.891 8.24 2.391 12.103a7.518 7.518 0 0 1 3.562-.962 23.417 23.417 0 0 1-1.085-6.316c0-.838.087-1.849.826-2.231.39-.161.815-.217 1.233-.16 2.606.16 10.63.912 11.45-.709" fill="#D2D8FF"/>
        <path d="M57.581 39.487c-3.124-.875-6.748-.185-9.86.456a16.066 16.066 0 0 0-3.605.955c-.8.382-.93 1.054-.912 1.849.027 1.307.126 2.61.296 3.907.38 2.789 1.08 5.525 2.09 8.153a.29.29 0 0 0 .406.166 7.654 7.654 0 0 1 3.445-.924.277.277 0 0 0 .265-.352 24.268 24.268 0 0 1-.943-4.492c-.099-.961-.469-2.798.333-3.562.616-.567 1.922-.259 2.699-.21.776.05 1.59.105 2.385.148 1.713.124 3.432.124 5.145 0 .882-.092 2.305-.184 2.81-1.066a.277.277 0 1 0-.48-.277c-.265.462-.992.573-1.467.666-.814.138-1.639.208-2.465.21-1.812.048-3.617-.056-5.423-.173-1.405-.136-3.463-.66-4.043 1.096-.363 1.073-.141 2.392 0 3.488a24.41 24.41 0 0 0 .925 4.351l.271-.351a8.295 8.295 0 0 0-3.698.998l.407.167a35.496 35.496 0 0 1-2.138-8.579 31.813 31.813 0 0 1-.197-2.298c-.037-.77-.278-1.849.363-2.286a6.089 6.089 0 0 1 1.954-.617 42.115 42.115 0 0 1 5.577-1.035 15.345 15.345 0 0 1 5.712.16.277.277 0 0 0 .148-.53v-.018z" fill="#231F20"/>
        <path d="M62.24 41.218a1.849 1.849 0 0 1-.869-1.694c.08-1.03.986-1.763 1.448-2.681.286-.65.447-1.348.475-2.058.13-1.529.493-5.978-1.393-7.666-1.762-1.578-6.273-2.034-7.475 2.372-.616 2.176-.4 4.72.937 6.57.499.69 1.17 1.232 1.713 1.897.593.624.888 1.473.807 2.33-.092.487-.339 1.078.037 1.405.125.097.27.162.425.191.82.203 3.895-.666 3.895-.666z" fill="#FFF"/>
        <path d="M62.357 41.015c-1.152-.783-.77-1.984-.098-2.94a5.737 5.737 0 0 0 1.183-2.699c.167-1.266.22-2.545.16-3.82a7.851 7.851 0 0 0-.998-3.969 4.234 4.234 0 0 0-2.465-1.64 4.622 4.622 0 0 0-5.645 2.718 8.628 8.628 0 0 0-.345 5.195c.188.83.533 1.617 1.017 2.318.616.88 1.565 1.528 2.113 2.465.36.586.466 1.293.296 1.96a1.534 1.534 0 0 0 0 1.01c.253.511.9.548 1.399.511a16.96 16.96 0 0 0 3.315-.69.234.234 0 0 0-.123-.45 22 22 0 0 1-2.594.616c-.616.093-1.732.32-1.602-.671a3.451 3.451 0 0 0-.074-2.058 6.162 6.162 0 0 0-1.362-1.85 7.229 7.229 0 0 1-1.787-2.65 8.153 8.153 0 0 1 0-5.237 4.246 4.246 0 0 1 5.712-2.6c2.558.979 2.724 4.023 2.669 6.39 0 .548-.05 1.097-.093 1.645a5.596 5.596 0 0 1-1.066 3.081c-.881 1.233-1.35 2.749.13 3.753.27.179.505-.222.258-.388z" fill="#000"/>
        <path d="M57.125 38.094c-1.448-.715-2.064-1.565-2.884-3.402-.678-1.516-1.054-5.922 1.233-8.19.579-.585 2.465-1.035 3.278-.973 1.035.08 1.633.419 2.662.499.414.006.82.105 1.19.29a3.993 3.993 0 0 1 1.368 1.694c.262.458.382.984.345 1.51-.191 1.004-1.67 1.128-2.65.937-.98-.191-2.015-.617-2.921-.247-.727.29-1.849.93-2.114 1.689-.536 1.448.043 3.198.444 4.739l.05 1.454z" fill="#000"/>
        <path d="M57.242 37.897c-2.095-1.06-3.13-3.377-3.272-5.645-.142-2.268.345-5.368 2.773-6.163a5.953 5.953 0 0 1 1.763-.338c.737.059 1.465.193 2.175.4.844.166 1.627.068 2.274.746.548.579 1.233 1.707 1.097 2.52-.302 1.54-2.94.616-3.84.456a3.802 3.802 0 0 0-3.216 1.085c-1.122 1.023-.9 2.711-.616 4.049.195.603.341 1.221.437 1.848l.068 1.233c0 .296.474.302.462 0l-.068-1.146a9.404 9.404 0 0 0-.376-1.738 6.2 6.2 0 0 1-.203-2.884 2.76 2.76 0 0 1 1.645-1.689c1.547-.789 3.082.333 4.684.08.5-.053.96-.304 1.276-.696a1.966 1.966 0 0 0-.062-1.923 4.764 4.764 0 0 0-1.233-1.78c-.616-.518-1.355-.469-2.107-.617a15.35 15.35 0 0 0-2.342-.437 6.07 6.07 0 0 0-1.787.302 3.907 3.907 0 0 0-2.551 2.292 8.732 8.732 0 0 0-.74 3.697c0 2.638 1.054 5.467 3.519 6.718.271.166.505-.24.24-.37z" fill="#000"/>
        <path d="M42.785 80.011a3.993 3.993 0 0 1-1.072 2.428c-1.153 1.079-6.458-9.385-5.423-10.02 1.035-.635 3.143-.456 4.24-.376 0 0 2.551 5.516 2.255 7.968z" fill="#CCCDE4"/>
        <path d="M42.563 79.931a4.751 4.751 0 0 1-.474 1.609c-.105.197-.413.708-.567.727-.154.018-.475-.284-.616-.42a13.15 13.15 0 0 1-1.85-2.674 35.404 35.404 0 0 1-1.755-3.482 9.429 9.429 0 0 1-.906-2.76.764.764 0 0 1 0-.34s.117-.06.197-.098c.24-.104.493-.177.752-.216a12.67 12.67 0 0 1 3.167 0l-.197-.11c.45.98.85 1.99 1.232 3.007.53 1.491 1.178 3.229 1.005 4.844 0 .295.431.29.462 0 .179-1.658-.474-3.44-1.023-4.967a48.915 48.915 0 0 0-1.232-3.119.247.247 0 0 0-.204-.117 14.71 14.71 0 0 0-3.08 0c-.463.068-1.338.173-1.492.721-.06.362-.026.734.098 1.079.15.572.342 1.132.573 1.676a31.971 31.971 0 0 0 1.96 4.024 12.27 12.27 0 0 0 2.114 2.989c.24.216.616.505.937.4.32-.104.579-.517.745-.8a4.825 4.825 0 0 0 .616-1.85c.019-.277-.425-.4-.462-.123z" fill="#000"/>
        <path d="M53.816 71.587c-2.145 2.404-11.438 4.715-11.438 4.715l-2.68-4.64c3.241-1.406 8.627-3.28 9.576-3.76.79-.4-1.337-11.58 5.503-13.847 1.412-.468 7.266 7.617 7.266 7.617l-4.708.499s-1.738 7.407-3.519 9.416z" fill="#FFF"/>
        <path d="M53.619 71.39a8.492 8.492 0 0 1-2.724 1.763 35.57 35.57 0 0 1-3.852 1.497 60.827 60.827 0 0 1-4.75 1.405l.313.123-2.686-4.64-.099.382c1.849-.795 3.697-1.497 5.583-2.2a25.882 25.882 0 0 0 3.889-1.497c.462-.265.443-.79.462-1.276.05-.968.037-1.941.08-2.915.123-2.638.493-5.596 2.206-7.728a6.12 6.12 0 0 1 1.566-1.386c.406-.247 1.004-.666 1.49-.536.882.228 1.745 1.38 2.324 2.015a58.87 58.87 0 0 1 4.382 5.435l.24-.413-4.708.5a.29.29 0 0 0-.271.203 57.363 57.363 0 0 1-1.036 3.79c-.567 1.848-1.14 4.024-2.41 5.503-.233.265.161.66.39.388 1.269-1.473 1.848-3.593 2.464-5.41a55.92 55.92 0 0 0 1.146-4.123l-.265.203 4.708-.5c.185 0 .376-.233.235-.418a69.51 69.51 0 0 0-3.753-4.758 15.622 15.622 0 0 0-2.607-2.576c-.906-.653-1.596-.37-2.527.179-2.415 1.43-3.438 4.221-3.845 6.859a29.007 29.007 0 0 0-.302 3.796c.063.822.032 1.65-.093 2.465a.955.955 0 0 0-.043.154c-.227.145-.477.25-.74.314-.831.333-1.67.617-2.507.956-2.114.794-4.228 1.583-6.305 2.465a.271.271 0 0 0-.098.375l2.68 4.647a.29.29 0 0 0 .315.123 60.886 60.886 0 0 0 5.084-1.51 35.397 35.397 0 0 0 3.802-1.516 8.529 8.529 0 0 0 2.669-1.762c.228-.247-.167-.641-.407-.376z" fill="#231F20"/>
        <path d="M80.21 52.15c.179-.326.212-.713.092-1.065-.135-.204-3.734 1.325-3.968-.05 0-.141 1.023-1.09.918-1.183-.5-.444-1.96.703-2.132.82a.69.69 0 0 0-.327.511c-.004.61.096 1.217.296 1.793.214.283.545.453.9.463 1.442.166 4.018-.93 4.221-1.288z" fill="#FFF"/>
        <path d="M80.407 52.268c.197-.376.444-1.51-.277-1.424-.504.094-1.001.215-1.491.364a3.599 3.599 0 0 1-1.732.123.48.48 0 0 1-.234-.123.234.234 0 0 1-.068-.086v-.037c0-.037 0-.044-.037 0 .179-.198.351-.413.53-.617.179-.203.437-.4.407-.616-.031-.216-.426-.333-.647-.314a3.92 3.92 0 0 0-1.726.869c-.3.158-.504.452-.548.789-.007.286.013.573.061.856.015.351.097.696.24 1.017.232.36.621.589 1.048.616a6.002 6.002 0 0 0 2.743-.462c.39-.133.771-.294 1.14-.48.239-.098.45-.252.616-.45.16-.253-.24-.487-.4-.235l-.105.087a2.903 2.903 0 0 1-.296.178 9.244 9.244 0 0 1-.875.388c-.692.28-1.42.46-2.163.53a1.849 1.849 0 0 1-1.073-.166 1.03 1.03 0 0 1-.382-.813 7.69 7.69 0 0 1-.086-.925c0-.265.148-.394.351-.542a3.802 3.802 0 0 1 1.467-.783c.053.003.107.003.16 0h.05c.012 0 0-.166 0-.172 0-.006-.118.154-.155.197-.178.203-.37.4-.548.616-.179.216-.259.315-.197.543a.826.826 0 0 0 .363.486c.433.202.92.256 1.387.154.603-.092 1.2-.221 1.787-.388l.333-.086.197-.037c.037 0 .068 0 0 0l-.086-.05a.894.894 0 0 1 0 .155c.007.214-.042.426-.142.616-.16.253.253.487.388.222z" fill="#000"/>
        <path d="M80.216 72.789a3.95 3.95 0 0 1 2.545.746c1.233.998-8.455 7.629-9.243 6.686-.79-.943-.857-3.081-.925-4.154.019 0 5.152-3.253 7.623-3.278z" fill="#CCCDE4"/>
        <path d="M80.216 73.023a4.566 4.566 0 0 1 1.652.259c.203.08.745.32.77.48.025.16-.246.518-.364.672a14.217 14.217 0 0 1-2.465 2.213 32.717 32.717 0 0 1-3.235 2.187 8.572 8.572 0 0 1-2.557 1.233.9.9 0 0 1-.302 0c-.222-.111-.395-.721-.475-.992a13.391 13.391 0 0 1-.406-3.014l-.111.197c.893-.567 1.848-1.084 2.767-1.571 1.423-.74 3.08-1.633 4.72-1.67.296 0 .296-.475 0-.462-1.652.037-3.303.893-4.739 1.62a36.294 36.294 0 0 0-2.983 1.683.247.247 0 0 0-.117.203c.027 1.013.158 2.02.389 3.007.123.457.345 1.35.9 1.455.352.025.706-.045 1.022-.204a14.032 14.032 0 0 0 1.59-.776 33.327 33.327 0 0 0 3.772-2.502 12.584 12.584 0 0 0 2.736-2.533c.237-.252.34-.602.277-.943-.123-.326-.58-.523-.869-.653a4.838 4.838 0 0 0-1.978-.357.234.234 0 0 0 .006.468z" fill="#000"/>
        <path d="M70.418 62.96c2.668 1.805 6.162 10.716 6.162 10.716l-4.252 3.266c-1.849-3.025-4.375-8.128-4.98-9.003-.498-.733-21.944 2.348-16.743-12.103l8.893.265 1.115 4.597s7.586.746 9.805 2.262z" fill="#FFF"/>
        <path d="M70.276 63.194c.868.71 1.59 1.58 2.126 2.564a37.092 37.092 0 0 1 1.898 3.469 57.387 57.387 0 0 1 2.021 4.536l.13-.315-4.252 3.266.382.105c-1.11-1.849-2.126-3.777-3.143-5.688-.413-.764-.82-1.534-1.233-2.298a3.734 3.734 0 0 0-.677-1.116 2.027 2.027 0 0 0-1.085-.179h-2.255a35.989 35.989 0 0 1-6.514-.61c-2.139-.425-4.419-1.158-5.972-2.773-2.175-2.261-1.775-5.546-.807-8.245l-.271.203 8.892.265-.27-.203 1.12 4.597c.034.12.142.202.266.203 1.337.136 2.668.327 3.987.555 1.849.327 4.055.616 5.663 1.664.302.197.58-.284.284-.475-1.658-1.078-3.895-1.392-5.8-1.719a58.01 58.01 0 0 0-4.134-.58l.265.204-1.116-4.597a.277.277 0 0 0-.265-.203l-8.892-.265a.29.29 0 0 0-.265.203c-.87 2.465-1.325 5.324.086 7.666 1.128 1.849 3.15 2.927 5.164 3.556 2.208.626 4.485.97 6.78 1.023 1.534.068 3.08 0 4.609.11.252 0 .154 0 .302.253.406.746.82 1.486 1.232 2.231 1.165 2.176 2.311 4.363 3.574 6.483a.277.277 0 0 0 .382.099l4.246-3.266a.283.283 0 0 0 .13-.315c-.616-1.639-1.374-3.247-2.15-4.825a34.319 34.319 0 0 0-2.053-3.66 8.627 8.627 0 0 0-2.095-2.398c-.302-.21-.567.272-.29.475z" fill="#231F20"/>
        <path d="M58.857 45.015c-.302 3.771 2.89 10.698 3.82 12.325.157.348.42.637.753.825.355.12.74.12 1.096 0a35.514 35.514 0 0 0 11.364-4.794 7.592 7.592 0 0 1-1.664-3.29 23.62 23.62 0 0 1-5.965 2.329c-.82.19-1.849.29-2.354-.358a2.348 2.348 0 0 1-.407-1.19c-.376-2.588-1.27-10.593-3.026-11.092-1.46-.4-4.221-.462-5.546-1.183a1.454 1.454 0 0 0-1.904.462c-1.023 1.492-1.38 3.636-1.695 4.93-.474 2.01-.376 4.098-.554 6.163-.18 2.064-.71 4.203-2.163 5.663.35 1.233 8.177 4.4 10.956 4.394l.18-4.314" fill="#D2D8FF"/>
        <path d="M58.58 45.015a14.21 14.21 0 0 0 .714 4.782 40.056 40.056 0 0 0 1.85 4.93c.461 1.066.917 2.39 1.688 3.278.616.74 1.497.493 2.335.29a35.743 35.743 0 0 0 3.556-1.073 36.081 36.081 0 0 0 7.333-3.623.283.283 0 0 0 .056-.438 7.777 7.777 0 0 1-1.59-3.167.277.277 0 0 0-.407-.167 21.328 21.328 0 0 1-6.138 2.373 2.86 2.86 0 0 1-1.33 0c-.666-.203-.79-.826-.882-1.417-.074-.469-.13-.943-.197-1.412a40.161 40.161 0 0 0-1.516-7.69c-.24-.684-.542-1.584-1.183-2.01a3.476 3.476 0 0 0-1.411-.37c-.87-.14-1.744-.233-2.607-.4a13.638 13.638 0 0 1-2.028-.653 1.756 1.756 0 0 0-1.664.284c-1.152.918-1.528 2.945-1.848 4.313a37.93 37.93 0 0 0-.758 6.471c-.136 2.262-.518 4.64-2.139 6.347a.277.277 0 0 0-.074.271c.204.617.894.968 1.393 1.233a22.937 22.937 0 0 0 3.112 1.497c2.07.85 4.443 1.812 6.717 1.85a.283.283 0 0 0 .278-.278l.178-4.314c0-.357-.542-.357-.554 0l-.179 4.314.277-.277a14.944 14.944 0 0 1-4.505-1.048 27.824 27.824 0 0 1-4.819-2.083c-.35-.197-1.127-.542-1.3-.943-.074-.172-.05.043.099-.11.15-.163.287-.336.413-.518.328-.47.6-.976.807-1.51.986-2.465.783-5.121 1.023-7.697.141-1.249.378-2.485.709-3.698.125-.524.281-1.04.468-1.546.222-.617.548-1.529 1.121-1.899.574-.37 1.048-.098 1.572.124.462.18.941.314 1.43.4 1.06.21 2.138.296 3.198.5a1.522 1.522 0 0 1 1.306.93 10.1 10.1 0 0 1 .752 2.095 46.835 46.835 0 0 1 1.005 5.294c.11.782.215 1.571.326 2.354.13.906.32 1.849 1.313 2.12 1.17.345 2.619-.24 3.697-.616a24.823 24.823 0 0 0 4.148-1.818l-.407-.167a8.295 8.295 0 0 0 1.738 3.414l.055-.437a35.78 35.78 0 0 1-7.85 3.796c-.617.203-1.233.394-1.85.567a6.89 6.89 0 0 1-2.2.487c-.782-.068-1.232-1.3-1.534-1.93a41.517 41.517 0 0 1-2.12-5.207c-.616-1.848-1.195-3.851-1.066-5.817 0-.357-.53-.357-.555 0l.044.019zM78.072 59.484a12.941 12.941 0 0 1-2.78 5.183c-.135.148.087.37.216.215a13.212 13.212 0 0 0 2.86-5.287.154.154 0 0 0-.296-.08v-.03zM74.929 60.415a20.336 20.336 0 0 1-6.434 5.262c-.179.093 0 .358.154.272a20.54 20.54 0 0 0 6.495-5.319c.124-.154-.092-.376-.215-.215zM44.443 37.318a18.364 18.364 0 0 0-6.323-1.898c-.197 0-.197.29 0 .308 2.15.238 4.237.864 6.163 1.848.178.087.332-.178.16-.265v.007zM46.212 35.352a13.557 13.557 0 0 0-4.647-2.428c-.191-.056-.271.246-.08.302a13.194 13.194 0 0 1 4.51 2.335c.155.123.377-.092.217-.215v.006zM47.284 70.071a21.18 21.18 0 0 1-8.147-3.562c-.16-.117-.314.148-.154.265a21.236 21.236 0 0 0 8.215 3.562c.19.043.277-.252.08-.296l.006.031zM44.326 65.357c-.117.29-1.849-.85-2.022-.974a20.12 20.12 0 0 1-1.94-1.423 21.618 21.618 0 0 1-3.193-3.266c-.123-.154-.345.067-.222.215a21.908 21.908 0 0 0 3.864 3.803 22.801 22.801 0 0 0 2.293 1.528c.357.203 1.232.856 1.516.197.074-.185-.228-.265-.296-.08zM7.055 62.756c-.277 2.342.894 4.764 1.818 6.86a41.652 41.652 0 0 0 3.611 6.507c.111.166.382 0 .271-.154a41.985 41.985 0 0 1-3.42-6.07c-.98-2.145-2.255-4.727-1.972-7.143 0-.197-.283-.19-.308 0zM98.396 13.506c1.06.314 1.731 1.27 2.347 2.132a25.143 25.143 0 0 1 4.018 8.83c.044.192.346.112.296-.086a26.117 26.117 0 0 0-2.52-6.482 25.698 25.698 0 0 0-1.923-2.946 4.314 4.314 0 0 0-2.138-1.732.154.154 0 0 0-.08.296v-.012zM105.667 18.849a17.68 17.68 0 0 1 2.773 7c.031.197.327.111.296-.08a17.834 17.834 0 0 0-2.804-7.075c-.104-.166-.376 0-.265.155zM19.103 12.55a6.403 6.403 0 0 0-2.613 1.917 40.49 40.49 0 0 0-2.373 2.84 44.746 44.746 0 0 0-4.098 6.416c-.092.173.173.327.265.154a45.38 45.38 0 0 1 3.74-5.94 39.328 39.328 0 0 1 2.287-2.804c.826-.937 1.658-1.85 2.872-2.28.185-.068.105-.364-.08-.303zM10.18 19.927c-.42-.13-.648.32-.783.616a32.91 32.91 0 0 0-.617 1.596 16.571 16.571 0 0 0-.671 3.334c0 .197.29.197.308 0 .092-.937.265-1.865.518-2.773.123-.437.265-.869.419-1.288.086-.228.382-1.312.714-1.232.191.061.272-.235.087-.296l.024.043z" fill="#231F20"/>
    </g>
</svg>
