<svg width="16" height="16" viewBox="0 0 16 16" fill="none" xmlns="http://www.w3.org/2000/svg">
    <path d="M2.244 6.437a.667.667 0 0 1 .558.76 5.274 5.274 0 0 0 .44 3.048 2.222 2.222 0 1 1-1.203.575 6.61 6.61 0 0 1-.555-3.825.667.667 0 0 1 .76-.558zm10.2 3.785a2.222 2.222 0 1 1-1.624 3.74 6.61 6.61 0 0 1-3.826.554.667.667 0 0 1 .203-1.318 5.273 5.273 0 0 0 3.048-.44 2.222 2.222 0 0 1 2.2-2.535zm-8.888 1.334a.889.889 0 1 0 0 1.778.889.889 0 0 0 0-1.778zm8.889 0a.889.889 0 1 0 0 1.778.889.889 0 0 0 0-1.778zm0-10.223A2.222 2.222 0 0 1 13.96 5.18a6.61 6.61 0 0 1 .555 3.826.667.667 0 0 1-1.318-.203 5.274 5.274 0 0 0-.44-3.048 2.222 2.222 0 1 1-.313-4.421zm-8.89 0c.646 0 1.228.276 1.634.716a.615.615 0 0 1 .114-.066 6.61 6.61 0 0 1 3.703-.499.667.667 0 0 1-.203 1.318 5.276 5.276 0 0 0-2.955.397.672.672 0 0 1-.094.035 2.222 2.222 0 1 1-2.198-1.9zm0 1.334a.889.889 0 1 0 0 1.778.889.889 0 0 0 0-1.778zm8.89 0a.889.889 0 1 0 0 1.778.889.889 0 0 0 0-1.778z" fill="#7786FF"/>
</svg>
