<svg xmlns="http://www.w3.org/2000/svg" width="1440" height="142" viewBox="0 0 1440 142">
    <g fill="none" fill-rule="evenodd">
        <g fill="#FFF">
            <g>
                <g>
                    <path d="M0 0c2.683 1.565 5.452 3.122 8.3 4.667 29.71 16.121 26.33 1.535 68.569 8.586 42.238 7.052-1.13 10.745 85.56 27.72 86.69 16.976 45.807 28.877 116.484 36.16 70.678 7.282 42.893 40.7 133.186 29.746 33.327-4.043 42.902-2.992 51.273-1.66l.794.127c4.621.747 9.091 1.533 17.277 1.533 48.055 0 17.796-15.004 101.82-15.004s66.58-27.41 153.235 0c20.524 6.492 121.42 42.34 152.61 0 14.104-19.145 40.075-27.41 90.157-17.614 25.797 5.046 35.47 2.597 50.287-1.114l1.804-.45c14.653-3.65 34.83-8.233 79.353-8.233 33.125 0 80.508 27.41 108.703 27.41 74.398 0 58.367 41.454 194.258 20.727 9.948-1.517 18.684-3.426 26.339-5.675l-.013 34.675H.002z" transform="translate(0 -4020) translate(0 4020) rotate(180 720.004 70.8)"/>
                </g>
            </g>
        </g>
    </g>
</svg>
