<svg width="116" height="116" viewBox="0 0 116 116" xmlns="http://www.w3.org/2000/svg">
    <g fill-rule="nonzero" fill="none">
        <path d="M47.488 73.884a58.294 58.294 0 0 0-15.353.448c-.48.053-.947.183-1.386.384-.491.29-.283.687.114 1.002 1.594 1.26 5.462 1.72 8.914 2.047a1878.09 1878.09 0 0 0 17.848 1.581 76.86 76.86 0 0 0 9.343.385c4.952-.19 18.094-1.134 19.864-.945 9.299.976 12.058-4.618 11.264-4.65-16.386-.649-50.608-.252-50.608-.252z" opacity=".75" fill="#D2D8FF"/>
        <g opacity=".75">
            <path d="M38.927 65.883c.472 1.96-.095 8.392-.196 9.538 0 .095-6.375.467-6.375.467-.668-.908-1.424-7.453-1.103-9.45.202-1.204 7.617-.7 7.674-.555z" fill="#FFF"/>
            <path d="M92.584 66.96s-37.447-1.612-51.295-1.606a24.81 24.81 0 0 1-1.052 8.669c13.577-.208 53.638.283 53.638.283l-1.291-7.345z" fill="#D2D8FF"/>
            <path d="M104.737 70.029c-2.81-2.23-6.376-3.27-9.866-3.843-3.818-.63-7.648-.63-11.504-.63-9.04-.07-18.075-.322-27.09-.498-4.977-.095-9.954-.17-14.931-.176a.479.479 0 0 0-.473.472 30.416 30.416 0 0 1-1.096 9.645.478.478 0 0 0 .454.63c11.17-.17 22.333.063 33.497.082 8.996 0 18.566.567 27.09-2.873a15.75 15.75 0 0 0 3.956-2.11c.473-.384-.201-1.046-.667-.668.081-.07 0 0-.114.082a9.994 9.994 0 0 1-.586.378 19.12 19.12 0 0 1-2.318 1.184 36.433 36.433 0 0 1-10.15 2.577c-5.216.63-10.533.485-15.75.485-5.537 0-11.075-.056-16.613-.094-6.098-.044-12.203-.082-18.307 0l.46.592c.9-3.216 1.28-6.555 1.127-9.891l-.472.472c8.77 0 17.539.234 26.309.416 4.41.095 8.82.183 13.23.233 3.868.044 7.755-.088 11.604.328 4 .435 8.385 1.336 11.611 3.893.397.353 1.071-.308.599-.686zM39.028 66.028c.162 1.285.13 2.587-.095 3.862a71.85 71.85 0 0 1-.573 4.164c0 .19-.088.39-.101.586a.63.63 0 0 0 0 .107c-.038.17.063.089.302-.252 0 0 .152 0 0 0l-1.07.044c-1.204 0-2.414.038-3.617.05h-2.482l.403.234a3.408 3.408 0 0 1-.403-1.26 23.612 23.612 0 0 1-.296-2.199c-.184-1.548-.2-3.11-.05-4.662 0-.1 0-.195.044-.296.044-.1.037-.126.044-.183.006-.056 0 0 0 0s-.057 0 0 0c.056 0 0 0 .145-.069.45-.134.916-.206 1.386-.214a32.823 32.823 0 0 1 4.013.076c.63.044 1.26.094 1.89.17.245 0 .384.037.548.069h.176c.183 0-.088-.038-.176-.183.321.517 1.14.038.819-.479-.183-.29-.592-.29-.895-.327-.51-.07-1.02-.12-1.537-.164a40.358 40.358 0 0 0-4.19-.164c-.612.003-1.223.055-1.827.158a1.783 1.783 0 0 0-1.064.479c-.353.403-.322 1.165-.353 1.663-.05.787-.038 1.575 0 2.356.018 1.61.215 3.214.586 4.782.113.422.264 1.058.775 1.115h.87c1.347 0 2.69 0 4.031-.05.567 0 1.134-.013 1.701-.038.32.034.642-.003.945-.108.24-.144.246-.44.29-.686.044-.246.107-.668.157-1.008.139-.882.271-1.77.378-2.659.126-.989.234-1.978.284-2.973a8.732 8.732 0 0 0-.095-2.256c-.182-.53-1.09-.277-.963.315z" fill="#231F20"/>
            <path d="M93.233 68.87c-13.74.17-27.48.138-41.215-.253-3.566-.1-7.138-.226-10.71-.41-.365 0-.359.555 0 .568 13.709.693 27.456.781 41.183.743 3.579 0 7.149-.027 10.71-.082a.283.283 0 1 0 0-.567h.032zM93.863 71.78c-13.999-.334-28.01.284-42.009.372-3.666 0-7.333 0-11-.063-.365 0-.365.554 0 .567 14 .334 28.004-.284 42.003-.378 3.666 0 7.34 0 11.006.069a.284.284 0 0 0 0-.567z" fill="#231F20"/>
            <path d="M92.3 66.96a16.38 16.38 0 0 0 1.33 7.491c.145.334.63.044.491-.283a15.75 15.75 0 0 1-1.26-7.207c0-.366-.542-.366-.567 0h.006zM43.387 65.908l.252 1.374c0 .12.202.07.177-.05l-.246-1.374c0-.12-.202-.07-.183.05zM44.477 65.682a12.67 12.67 0 0 1 1.317 3.78c0 .12.201.069.182-.05a12.6 12.6 0 0 0-1.335-3.78c-.057-.108-.22 0-.164.094v-.044zM46.43 65.14l2.52 5.903c.044.107.227.063.183-.05l-2.52-5.904c-.044-.107-.227-.056-.177.05h-.006zM49.895 65.178a28.457 28.457 0 0 1 2.432 6.016.095.095 0 1 0 .176-.05c-.58-2.107-1.4-4.141-2.444-6.06a.095.095 0 1 0-.164.094zM52.73 64.85a63.63 63.63 0 0 0 2.62 6.376c.051.107.215 0 .165-.095a62.742 62.742 0 0 1-2.59-6.281.098.098 0 0 0-.195 0zM56.056 64.976c.63 1.556 1.166 3.15 1.689 4.712.038.114.22.063.183-.05a96.7 96.7 0 0 0-1.695-4.712c-.038-.114-.22-.063-.177.05zM58.324 65.039a28.35 28.35 0 0 0 1.809 5.57c.044.113.207 0 .163-.095a27.72 27.72 0 0 1-1.789-5.525c0-.12-.208-.07-.183.05zM62.3 65.278c.285.887.531 1.788.737 2.703 0 .12.208.07.183-.044-.208-.92-.454-1.82-.738-2.709a.095.095 0 0 0-.182.05zM64.473 65.53c.42.686.733 1.432.926 2.212 0 .113.208.063.183-.05a7.97 7.97 0 0 0-.945-2.256c-.063-.1-.227 0-.164.094zM67.371 65.537l-.082 1.606c0 .12.183.12.19 0l.081-1.606c0-.12-.176-.12-.189 0z" fill="#231F20"/>
        </g>
        <g opacity=".18">
            <path d="M56.983 33.74v3.648c-.322 2.772-1.74 5.242-3.15 7.623-.239.481-.57.91-.977 1.26a1.978 1.978 0 0 1-2.325 0 6.187 6.187 0 0 0-.762-.592c-.372-.195-2.703-1.89-3.118-2.74-1.015-2.149-1.097-4.146-.908-6.52a5.708 5.708 0 0 1 .422-1.985c.265-.521.65-.972 1.122-1.317 4.674-3.421 9.696.624 9.696.624z" fill="#000"/>
            <path d="M53.618 48.47a1.89 1.89 0 0 1-.699-1.82c.195-1.034 1.21-1.67 1.783-2.52a5.74 5.74 0 0 0 .724-2.036c.315-1.53 1.216-6.003-.491-7.944-1.575-1.858-6.105-2.885-7.875 1.468-.85 2.136-.964 4.738.17 6.779.422.756 1.04 1.392 1.506 2.13.464.73.655 1.599.542 2.456-.089.725-1.26.958-.92 1.342.107.114 1.89.737 2.066.794.832.309 3.194-.649 3.194-.649z" fill="#FFF"/>
            <path d="M53.782 48.281c-1.115-.964-.56-2.148.271-3.055a5.727 5.727 0 0 0 1.405-2.294c.385-1.38.617-2.797.693-4.227.094-1.468.063-3.213-.813-4.473a5.14 5.14 0 0 0-6.262-1.38c-1.424.788-2.199 2.319-2.59 3.843a8.083 8.083 0 0 0 .448 5.607c.56 1.097 1.581 1.928 1.985 3.1a2.362 2.362 0 0 1 0 1.84c-.177.27-.53.371-.719.63-.63.837 1.613 1.297 2.08 1.442 1.077.334 2.393-.227 3.389-.63.277-.113.15-.567-.126-.453-.876.359-2.098.9-3.043.674a10.433 10.433 0 0 1-1.197-.429c-.12-.044-.687-.176-.737-.296-.05-.12.365-.277.497-.397 1.21-1.096.126-3.1-.63-4.107a8.007 8.007 0 0 1-1.499-2.659 7.667 7.667 0 0 1-.183-3.257c.24-1.638.895-3.465 2.363-4.41a4.34 4.34 0 0 1 3.616-.34 3.875 3.875 0 0 1 2.633 2.306 9.797 9.797 0 0 1 .227 4.41c-.201 1.657-.428 3.553-1.575 4.832a4.48 4.48 0 0 0-1.323 2.022c-.137.77.152 1.556.756 2.054.227.176.542-.164.334-.353z" fill="#000"/>
            <path d="M47.69 33.848a7.472 7.472 0 0 1 5.185-1.096c.94.167 1.83.55 2.596 1.12.497.335 1.039.845.926 1.444a1.16 1.16 0 0 1-.265.516 3.515 3.515 0 0 1-2.854 1.115c-1.052 0-2.104-.24-3.15-.208-.435-.01-.866.081-1.26.265-.434.242-.791.6-1.033 1.033-.7 1.178-.781 2.627-.844 4.013-.763-1.09-1.26-3.666-.813-5.852l1.512-2.35z" fill="#000"/>
            <path d="M68.776 27.737a4.164 4.164 0 0 0-1.354-.548c-1.588-.586-2.086 2.28-1.651 5.185 0 .195-1.02-1.777-1.19-1.67-.77.473.15 2.841.232 3.15a.9.9 0 0 0 .536.63c.8.247 1.634.36 2.47.334.458-.17.815-.538.97-1.002.787-1.852.378-5.67-.013-6.08z" fill="#FFF"/>
            <path d="M68.946 27.573a2.155 2.155 0 0 0-.894-.435 5.103 5.103 0 0 0-.908-.252c-.5-.03-.97.24-1.197.687a4.65 4.65 0 0 0-.529 2.035 9.45 9.45 0 0 0 0 1.335c0 .26.02.52.057.775 0 .126 0 .259.044.39.044.133 0 .278.07.158l.264-.107c.151.057.1.076 0-.05l-.17-.277c-.158-.252-.309-.51-.473-.763-.163-.252-.472-.812-.844-.504-.372.31-.353 1.002-.29 1.475.098.568.245 1.127.441 1.67.118.529.534.94 1.065 1.051a7.106 7.106 0 0 0 1.985.296c1.575-.075 1.82-2.293 1.89-3.49.044-.841.01-1.685-.101-2.52a2.848 2.848 0 0 0-.41-1.455c-.201-.233-.535.107-.334.334.147.297.23.62.246.951.09.6.138 1.207.145 1.814.014.665-.033 1.329-.139 1.985-.113.63-.296 1.436-.863 1.795-.567.36-1.26.076-1.751 0-.492-.075-1.02-.138-1.222-.705a13.061 13.061 0 0 1-.36-1.166 2.482 2.482 0 0 1-.088-1.493.548.548 0 0 0 .05-.088c.076-.063.039-.082-.119-.063 0 0 .126.158.151.183.145.201.271.41.397.63.126.22.353.78.63.888a.24.24 0 0 0 .265-.107c.138-.19 0-.63-.05-.857a11.113 11.113 0 0 1-.064-1.21 6.93 6.93 0 0 1 .271-2.123c.133-.396.372-.932.85-.963.244.012.484.07.706.17.334.056.65.187.926.384.24.164.574-.17.353-.378z" fill="#000"/>
            <path d="M36.463 28.82c.45-.2.933-.316 1.424-.34 1.663-.346 1.726 2.564.857 5.368-.057.189 1.26-1.6 1.424-1.474.7.585-.567 2.79-.687 3.055a.932.932 0 0 1-.63.542c-.83.123-1.675.11-2.501-.038a1.644 1.644 0 0 1-.813-1.134c-.497-1.921.485-5.638.926-5.979z" fill="#FFF"/>
            <path d="M36.583 29.022c.298-.156.628-.242.964-.252.242-.064.493-.087.743-.07.473.095.63.668.706 1.084.1.7.088 1.41-.038 2.104-.063.41-.151.82-.252 1.216-.056.24-.283.63-.164.876.052.094.161.141.265.113.252-.05.498-.51.63-.68.132-.17.284-.34.428-.504.07-.07.133-.145.208-.208.076-.063.215-.145.038-.12-.176.026-.044-.031-.038.082.007.114.032.082.038.126.013.096.013.194 0 .29a3.27 3.27 0 0 1-.22.844c-.165.432-.357.852-.574 1.26-.12.227-.22.454-.478.542a2.293 2.293 0 0 1-.586.07c-.56.088-1.13.088-1.689 0-.668-.177-.85-1.015-.913-1.613a8.738 8.738 0 0 1 .05-1.89c.088-.723.233-1.437.435-2.136a2.52 2.52 0 0 1 .472-1.121c.233-.196-.107-.53-.334-.334-.279.34-.468.745-.548 1.178a13.86 13.86 0 0 0-.466 2.148c-.164 1.19-.428 3.528.958 4.158.61.19 1.257.238 1.89.139.63-.038 1.178-.057 1.518-.63a9.35 9.35 0 0 0 .63-1.367 2.703 2.703 0 0 0 .284-1.695c-.063-.208-.227-.492-.486-.441a.99.99 0 0 0-.44.346c-.221.227-.423.48-.63.725l-.265.315a.403.403 0 0 0-.082.094c-.044.07-.107.038 0 0l.265.114c0 .208.031.22.063.044l.037-.126a14.43 14.43 0 0 0 .27-1.109c.103-.438.18-.882.228-1.33.1-.719.033-1.452-.195-2.141a1.26 1.26 0 0 0-1.015-.895 3.641 3.641 0 0 0-.9.088 2.45 2.45 0 0 0-1.04.296c-.252.17 0 .58.233.41z" fill="#000"/>
            <path d="M35.84 47.393c1.26 5.582 8.19 3.616 8.322 12.108.044 2.155-.214 8.24.567 10.27 5.084-.089 8.19 0 13.268-.095 1.48 0 2.01-10.023 2.457-14.22.17-1.574 5.979-4.41 6.653-8.82.793-5.19 1.53-10.552 1.26-11.805 0 0-2.722.107-4.108-.901-1.392 2.52-1.468 6.791-2.199 10.747-.592 3.207-4.7 1.626-7.194 3.396-1.537 1.09-4.687 1.26-6.93-.334-2.035-1.43-6.546-.416-7.29-3.15a49.014 49.014 0 0 1-1.26-8.265l-3.559-.36s-.29 10.106.013 11.429z" fill="#D2D8FF"/>
            <path d="M35.607 47.456a6.155 6.155 0 0 0 2.242 3.458c1.084.864 2.338 1.468 3.409 2.344 3.15 2.577 2.64 6.64 2.658 10.288 0 2.016-.12 4.353.586 6.3.03.101.121.172.227.176a464.52 464.52 0 0 1 7.258-.044h5.273c.328.043.662.021.983-.063.674-.283.875-1.442 1.026-2.054.315-1.431.543-2.88.68-4.34.202-1.72.354-3.446.505-5.173.1-1.146-.07-2.683.724-3.59.914-1.059 2.08-1.89 3.075-2.873a11.164 11.164 0 0 0 2.79-3.932 18.22 18.22 0 0 0 .694-3.723c.195-1.335.384-2.671.548-4.013.145-1.128.277-2.262.346-3.402a7.699 7.699 0 0 0-.038-1.978.246.246 0 0 0-.226-.177 6.817 6.817 0 0 1-3.988-.863.24.24 0 0 0-.328.082c-1.745 3.327-1.411 7.327-2.236 10.9-.353 1.511-1.689 1.833-3.043 2.028-1.355.195-2.59.277-3.717.932a6.552 6.552 0 0 1-1.764.832 6.798 6.798 0 0 1-2.917 0c-1.45-.309-2.52-1.323-3.97-1.663-1.26-.296-2.52-.334-3.78-.737a2.734 2.734 0 0 1-1.499-1.027c-.516-.807-.63-2.029-.787-2.961a55.087 55.087 0 0 1-.63-5.481c0-.233 0-.448-.22-.574a5.122 5.122 0 0 0-1.544-.157l-2.08-.208a.24.24 0 0 0-.238.233c-.05 1.764-.089 3.534-.114 5.298 0 1.26-.031 2.52 0 3.818-.028.794.016 1.59.132 2.375.063.296.523.17.46-.126-.118-.79-.158-1.59-.12-2.387V41.13c0-1.714.064-3.421.114-5.135l-.233.24 1.777.176.894.088s.813.088.674-.05c.17.17.088 1.146.107 1.373a40.88 40.88 0 0 0 .813 5.607c.296 1.33.63 2.388 1.934 2.967 1.222.53 2.59.574 3.88.838 1.494.303 2.61 1.317 4.077 1.682a6.766 6.766 0 0 0 4.36-.308 15.517 15.517 0 0 1 1.852-.945 13.91 13.91 0 0 1 2.337-.441c1.09-.145 2.356-.296 3.15-1.185.44-.632.695-1.373.737-2.142.183-1.127.322-2.261.473-3.39.29-2.173.523-4.504 1.556-6.47l-.321.083a7.232 7.232 0 0 0 4.227.932l-.233-.17c.296 1.405-.063 3.087-.227 4.492-.284 2.457-.573 4.945-1.04 7.377-.63 3.2-3.534 5.084-5.67 7.233a3.15 3.15 0 0 0-1.026 2.286c-.145 1.512-.265 3.03-.41 4.543-.151 1.65-.321 3.3-.573 4.933a10.137 10.137 0 0 1-.832 3.313c-.384.68-1.443.372-2.11.378h-3.717c-2.583 0-5.173 0-7.762.045l.227.176c-.63-1.77-.542-3.893-.56-5.752.074-1.938.044-3.88-.09-5.815a7.812 7.812 0 0 0-1.927-4.48c-1-.948-2.113-1.771-3.314-2.45a6.388 6.388 0 0 1-2.998-3.88c-.133-.246-.593-.12-.523.176z" fill="#000"/>
            <path d="m46.638 99.752 5.979.252c-.782-6.205-1.991-16.96-2.413-22.68-1.657 5.557-2.816 16.059-3.566 22.428z" opacity=".1" fill="#7582FF"/>
            <path d="M58.45 68.806s-10.338-1.033-14.263-.302c-.397 7.012-2.885 23.31-3.862 31.55l6.414.259c.743-6.363 1.808-17.432 3.465-23.002.422 5.733 1.631 16.488 2.413 22.68l7.012.303C59.3 92.69 58.312 75.56 58.45 68.806z" fill="#FFF"/>
            <path d="M58.45 68.573c-1.89-.189-3.83-.327-5.751-.434-2.817-.152-5.784-.366-8.575.138a.24.24 0 0 0-.176.227c-.22 3.78-.718 7.56-1.197 11.34-.58 4.555-1.216 9.11-1.827 13.665-.29 2.173-.58 4.347-.838 6.527 0 .126.12.226.24.233l6.413.264a.24.24 0 0 0 .233-.24c.453-3.893.863-7.792 1.38-11.68.403-3.8 1.1-7.564 2.085-11.257l-.466-.063c.56 7.56 1.461 15.151 2.413 22.68a.24.24 0 0 0 .233.233l7.012.308a.24.24 0 0 0 .233-.24c-.366-8.586-.895-17.167-1.122-25.766-.05-1.89-.088-3.818-.056-5.733a.24.24 0 0 0-.473 0c-.157 8.43.479 16.903.888 25.32.101 2.06.202 4.12.29 6.18l.24-.233-7.012-.309.239.24c-.951-7.56-1.852-15.12-2.413-22.68a.24.24 0 0 0-.466-.063 74.176 74.176 0 0 0-2.066 11.144c-.53 3.97-.945 7.95-1.412 11.92l.24-.233-6.414-.265.233.24c1.021-8.568 2.37-17.099 3.327-25.673.22-1.953.422-3.912.535-5.878l-.17.227c2.81-.504 5.803-.265 8.631-.107 1.857.1 3.713.241 5.57.422.302.05.302-.397 0-.454z" fill="#000"/>
        </g>
        <path d="M8.063 5.151c.567 31.96 4.108 63.964 0 95.653 10.88-1.827 93.026.85 101.5-.334-1.393-28.98-1.69-66.288-.883-95.319-22.988.844-100.617 0-100.617 0z" opacity=".1" fill="#7582FF"/>
        <path d="M101.448 48.319A3180.036 3180.036 0 0 0 66.59 85.4c-3.23 3.494-6.451 6.997-9.664 10.508-.082.095.05.227.138.139a2935.365 2935.365 0 0 1 34.65-37.252c3.276-3.457 6.559-6.903 9.847-10.339.082-.088-.05-.226-.132-.138h.019zM103.4 64.787a447.764 447.764 0 0 0-21.671 26.46c-.076.095.088.189.157.095a437.559 437.559 0 0 1 21.647-26.46c.082-.095-.056-.227-.132-.14v.045zM35.518 8.503a677.698 677.698 0 0 1-21.105 23.94l.152.113.44-.724a.095.095 0 1 0-.163-.095l-.441.725c-.057.094.075.195.145.113A666.756 666.756 0 0 0 35.65 8.667c.082-.089-.05-.227-.133-.133v-.031zM46.002 8.73a777.296 777.296 0 0 1-24.11 28.476 805.292 805.292 0 0 1-7.157 7.963c-.082.088.05.22.132.132a755.47 755.47 0 0 0 24.488-28.155c2.28-2.746 4.54-5.508 6.779-8.284.076-.095-.057-.227-.132-.132z" fill="#231F20"/>
        <path d="M36.01 106.336a2.64 2.64 0 0 0-.284.882c-.541.34-3.351.926-4.34 2.148a1.298 1.298 0 0 0 0 1.688c.27.328 7.749.46 8.902.385.257.004.51-.076.718-.227.164-.188.267-.42.296-.668.283-1.33.51-2.904-.435-3.887a3.402 3.402 0 0 0-1.575-.832c-.491-.145-3.093.265-3.282.51z" fill="#FFF"/>
        <path d="M35.764 106.197a2.041 2.041 0 0 0-.264.706c0 .088-.108.27 0 .157.107-.113-.07 0-.126 0-.448.139-.895.309-1.336.466-.995.36-2.167.781-2.854 1.632-.479.586-.63 1.99.315 2.23a10.18 10.18 0 0 0 1.96.195c1.92.108 3.855.152 5.783.145.63 0 1.688.126 2.098-.497.283-.59.434-1.236.44-1.89a4.34 4.34 0 0 0-.163-2.01 3.037 3.037 0 0 0-3.018-1.833c-.58.044-1.156.124-1.726.239a2.186 2.186 0 0 0-1.065.372.285.285 0 0 0 .403.403c.238-.12.497-.192.763-.214.472-.1.95-.171 1.43-.214a2.52 2.52 0 0 1 2.614 1.26c.231.581.305 1.213.215 1.833-.05.529-.095 1.776-.719 1.89a7.925 7.925 0 0 1-1.594.044c-1.68 0-3.34-.04-4.983-.12-.63-.031-1.298-.063-1.94-.145a1.16 1.16 0 0 1-.466-.088s-.133-.302-.152-.39a1.16 1.16 0 0 1 .416-1.09 7.743 7.743 0 0 1 2.923-1.437 5.74 5.74 0 0 0 1.071-.397c.34-.214.259-.699.467-1.027.207-.327-.297-.529-.492-.22z" fill="#000"/>
        <path d="M55.212 106.336c.146.274.242.573.284.882.542.34 3.351.926 4.34 2.148a1.26 1.26 0 0 1 0 1.688c-.264.328-7.742.46-8.895.385a1.21 1.21 0 0 1-.725-.227 1.26 1.26 0 0 1-.29-.668c-.283-1.33-.51-2.904.435-3.887.442-.412.986-.7 1.575-.832.485-.145 3.087.265 3.276.51z" fill="#FFF"/>
        <path d="M54.967 106.48c.182.284.126.769.384.983.268.159.559.273.863.34.918.273 1.803.645 2.64 1.11.466.283 1.008.699 1.014 1.303 0 .36-.095.63-.372.63-.542.082-1.09.133-1.638.152-1.676.094-3.358.132-5.04.15h-1.694c-.141.01-.282.01-.423 0-.453-.1-.491-.566-.567-.95a6.766 6.766 0 0 1-.163-1.853 2.413 2.413 0 0 1 2.557-2.243c.506.037 1.008.102 1.506.196.246.05.82.1.97.258a.285.285 0 1 0 .404-.403 1.89 1.89 0 0 0-.876-.328 13.501 13.501 0 0 0-1.512-.245 3.301 3.301 0 0 0-2.967 1.008c-.882 1.033-.712 2.52-.467 3.78.133.661.303 1.222 1.04 1.354.288.041.578.06.87.057 1.89 0 3.723 0 5.581-.114.775-.031 1.562-.063 2.331-.17a1.052 1.052 0 0 0 1.002-1.43c-.151-1.26-1.745-1.89-2.785-2.318-.542-.208-1.096-.378-1.644-.58a.97.97 0 0 0-.24-.1s-.05 0-.069-.038c.1 0 .05.233.076.044-.022-.301-.124-.59-.296-.838-.202-.347-.68-.063-.485.245z" fill="#000"/>
        <path d="M49.31 49.768a1.89 1.89 0 0 1-.7-1.827c.201-1.033 1.21-1.67 1.783-2.52a5.67 5.67 0 0 0 .73-2.029c.316-1.537 1.216-6.01-.497-7.95-1.594-1.808-6.099-2.835-7.844 1.518-.856 2.142-.97 4.744.164 6.779.422.762 1.04 1.398 1.512 2.13A3.78 3.78 0 0 1 45 48.33c-.095.719-1.26.958-.926 1.336.107.12 1.89.743 2.066.8.807.284 3.17-.7 3.17-.7z" fill="#FFF"/>
        <path d="M49.48 49.598c-1.116-.964-.561-2.149.264-3.056a5.67 5.67 0 0 0 1.405-2.287c.383-1.38.618-2.797.699-4.227.095-1.474.063-3.213-.819-4.473a5.14 5.14 0 0 0-6.262-1.38c-1.424.788-2.193 2.319-2.59 3.843a8.032 8.032 0 0 0 .473 5.601c.554 1.096 1.575 1.928 1.978 3.1a2.363 2.363 0 0 1 0 1.84c-.176.276-.529.377-.718.63-.63.837 1.613 1.297 2.085 1.442 1.078.328 2.388-.233 3.383-.63.278-.113.158-.573-.126-.454-.869.36-2.091.901-3.042.674a11.189 11.189 0 0 1-1.191-.434c-.12-.044-.693-.177-.737-.296-.044-.12.359-.278.497-.397 1.21-1.096.12-3.094-.63-4.108a8.19 8.19 0 0 1-1.499-2.665 7.636 7.636 0 0 1-.183-3.225c.24-1.645.901-3.465 2.363-4.41a4.347 4.347 0 0 1 3.61-.372 3.856 3.856 0 0 1 2.633 2.312 9.677 9.677 0 0 1 .227 4.41c-.202 1.663-.428 3.553-1.575 4.838a4.46 4.46 0 0 0-1.317 1.985c-.137.77.152 1.556.756 2.054.208.22.542-.114.315-.315z" fill="#000"/>
        <path d="M64.473 29.06a4.063 4.063 0 0 0-1.36-.548c-1.588-.586-2.086 2.274-1.645 5.178 0 .202-1.02-1.77-1.19-1.67-.775.473.144 2.848.226 3.15a.907.907 0 0 0 .536.63c.8.252 1.637.367 2.476.34.454-.173.808-.54.964-1 .793-1.853.378-5.677-.007-6.08z" fill="#FFF"/>
        <path d="M64.637 28.89a2.211 2.211 0 0 0-.888-.435 5.172 5.172 0 0 0-.914-.252c-.5-.03-.97.24-1.197.687a4.656 4.656 0 0 0-.529 2.04c-.028.443-.028.887 0 1.33 0 .256.019.515.057.775 0 .132 0 .265.044.397s0 .27.07.157l.27-.113c.151.057.1.076 0-.044l-.17-.277c-.158-.259-.309-.517-.473-.769-.163-.252-.466-.806-.844-.498-.378.31-.353 1.002-.283 1.468a9.45 9.45 0 0 0 .434 1.67c.12.53.535.942 1.065 1.058.647.19 1.317.288 1.99.29 1.576-.076 1.815-2.293 1.89-3.49.047-.841.016-1.685-.094-2.52a2.936 2.936 0 0 0-.415-1.462c-.196-.227-.53.107-.334.334.148.299.234.625.252.958.09.598.136 1.203.138 1.808.017.664-.03 1.329-.138 1.984a2.614 2.614 0 0 1-.863 1.796c-.48.302-1.26.082-1.752 0-.491-.082-1.02-.139-1.222-.706a12.454 12.454 0 0 1-.36-1.165 2.52 2.52 0 0 1-.081-1.531.296.296 0 0 0 .05-.088c.082-.063.038-.082-.12-.057 0 0 .133.157.152.189.145.195.27.41.403.63.132.22.347.787.63.895a.252.252 0 0 0 .271-.108c.132-.195-.038-.63-.057-.856a12.985 12.985 0 0 1-.063-1.216 6.93 6.93 0 0 1 .271-2.123c.133-.397.378-.926.857-.964.243.019.48.076.706.17.33.06.644.192.92.384.214.195.554-.138.327-.346z" fill="#000"/>
        <path d="M32.16 30.137c.451-.196.933-.311 1.424-.34 1.657-.34 1.72 2.564.85 5.374-.056.189 1.26-1.607 1.43-1.474.694.58-.572 2.79-.692 3.049a.92.92 0 0 1-.63.542 7.598 7.598 0 0 1-2.52-.038 1.607 1.607 0 0 1-.806-1.134c-.48-1.922.497-5.632.945-5.979z" fill="#FFF"/>
        <path d="M32.28 30.339c.297-.154.624-.24.958-.252.243-.06.493-.084.743-.07.479.101.63.674.712 1.084a6.596 6.596 0 0 1-.044 2.11 13.4 13.4 0 0 1-.246 1.216c-.063.233-.29.63-.17.876a.246.246 0 0 0 .265.107c.252-.05.504-.504.63-.68.126-.177.283-.34.435-.498.15-.157.132-.145.201-.214.07-.07.214-.145.044-.114-.17.032-.05-.031-.038.076a.92.92 0 0 0 0 .126c.013.096.013.194 0 .29-.018.287-.07.57-.157.844-.168.431-.361.852-.58 1.26-.113.22-.22.447-.478.536a2.3 2.3 0 0 1-.586.075 5.418 5.418 0 0 1-1.689-.038c-.668-.176-.85-1.008-.913-1.606a8.82 8.82 0 0 1 .05-1.89c.088-.722.234-1.437.435-2.136.066-.404.228-.786.472-1.115.233-.202-.1-.535-.334-.334-.279.338-.467.741-.548 1.172a13.23 13.23 0 0 0-.46 2.155c-.163 1.19-.434 3.528.952 4.151.61.193 1.258.24 1.89.139.63 0 1.172-.05 1.518-.63.241-.439.452-.893.63-1.361a2.81 2.81 0 0 0 .284-1.701c-.063-.208-.234-.491-.486-.435-.252.057-.327.22-.447.34-.22.234-.422.48-.63.725l-.264.315c-.03.03-.057.061-.082.095-.05.075-.114.044 0 0l.27.107c0 .208 0 .22.064.044v-.126c.037-.12.069-.246.1-.372.063-.24.12-.485.17-.737.088-.416.15-.837.19-1.26a4.933 4.933 0 0 0-.196-2.142 1.292 1.292 0 0 0-.957-.901 3.667 3.667 0 0 0-.908.088c-.365.02-.72.124-1.04.303-.251.145-.012.554.24.378z" fill="#000"/>
        <path d="M31.53 48.71c1.26 5.588 8.159 3.622 8.323 12.108.044 2.155-.214 8.247.573 10.269 5.084-.088 8.19 0 13.23-.094 1.48 0 2.01-10.024 2.463-14.22.164-1.575 5.973-4.41 6.647-8.82.8-5.197 1.537-10.552 1.26-11.812 0 0-2.715.107-4.108-.901-1.392 2.52-1.468 6.798-2.198 10.754-.593 3.207-4.694 1.62-7.195 3.39-1.537 1.09-4.687 1.26-6.93-.328-2.035-1.436-6.546-.422-7.283-3.15-1.109-4.095-1.146-8.253-1.26-8.26l-3.56-.358s-.264 10.098.039 11.421z" fill="#D2D8FF"/>
        <path d="M31.31 48.772a6.187 6.187 0 0 0 2.23 3.478c1.084.857 2.344 1.468 3.409 2.344 3.15 2.57 2.646 6.634 2.664 10.281 0 2.023-.126 4.36.58 6.3.033.101.127.17.233.17a464.52 464.52 0 0 1 7.258-.044H52.95c.33.04.665.018.989-.063.674-.29.875-1.449 1.02-2.06a37.17 37.17 0 0 0 .687-4.334c.195-1.726.346-3.453.498-5.179.1-1.146-.07-2.677.724-3.59.92-1.053 2.08-1.89 3.075-2.874a11.183 11.183 0 0 0 2.797-3.93 18.49 18.49 0 0 0 .693-3.724c.197-1.336.38-2.671.548-4.007.138-1.134.27-2.268.34-3.408a7.176 7.176 0 0 0-.038-1.978.233.233 0 0 0-.227-.17 6.842 6.842 0 0 1-3.987-.87.233.233 0 0 0-.322.082c-1.751 3.326-1.417 7.327-2.243 10.905-.346 1.512-1.688 1.834-3.042 2.029-1.26.176-2.59.277-3.717.932a5.714 5.714 0 0 1-4.675.85c-1.455-.302-2.52-1.316-3.975-1.656-1.26-.296-2.52-.34-3.78-.744a2.74 2.74 0 0 1-1.493-1.026c-.523-.807-.63-2.03-.794-2.961-.334-1.815-.48-3.642-.63-5.475 0-.24 0-.447-.22-.58a5.103 5.103 0 0 0-1.544-.157l-2.08-.208a.233.233 0 0 0-.232.24 317.5 317.5 0 0 0-.12 5.298v3.817c-.036.773 0 1.547.107 2.312.063.297.517.17.454-.126-.113-.79-.153-1.59-.12-2.387v-3.843c0-1.708.057-3.421.113-5.128l-.24.233 1.784.182.888.089s.82.088.674-.057c.17.17.088 1.153.107 1.38.143 1.906.417 3.8.82 5.67.295 1.329.63 2.394 1.927 2.967 1.298.573 2.596.573 3.88.838 1.494.308 2.61 1.323 4.083 1.682a6.747 6.747 0 0 0 4.354-.309c.597-.353 1.215-.67 1.852-.945.767-.21 1.551-.356 2.343-.435 1.09-.144 2.357-.296 3.119-1.184.442-.63.697-1.373.737-2.142.189-1.128.328-2.262.479-3.396.283-2.167.516-4.504 1.55-6.47l-.322.088a7.327 7.327 0 0 0 4.228.933l-.227-.177c.296 1.412-.07 3.087-.233 4.492-.284 2.457-.567 4.952-1.033 7.378-.63 3.206-3.535 5.084-5.67 7.232a3.15 3.15 0 0 0-1.021 2.293c-.145 1.512-.271 3.024-.41 4.543-.157 1.644-.32 3.294-.58 4.926a9.797 9.797 0 0 1-.856 3.301c-.384.68-1.436.378-2.104.385h-3.717c-2.59 0-5.179 0-7.762.044l.227.176c-.63-1.77-.548-3.893-.567-5.752a52.542 52.542 0 0 0-.088-5.808 7.825 7.825 0 0 0-1.89-4.486 17.546 17.546 0 0 0-3.314-2.45 6.382 6.382 0 0 1-3.005-3.881c-.082-.278-.536-.158-.46.144z" fill="#000"/>
        <path d="M54.141 70.13c-.17 8.567 1.474 33.944 1.26 35.198a1.827 1.827 0 0 1-.39.95 2.079 2.079 0 0 1-1.11.499 16.103 16.103 0 0 1-4.46-.076 1.09 1.09 0 0 1-.466-.668c-.29-.907-2.482-19.246-3.08-27.405-2.464 8.247-3.818 27.298-4.366 27.72-.548.422-3.919.454-4.625.51a1.38 1.38 0 0 1-.875-.12 1.31 1.31 0 0 1-.454-.932c-.479-2.803 3.78-26.844 4.297-36.01 3.937-.706 14.27.333 14.27.333z" fill="#FFF"/>
        <path d="M53.908 70.13c-.088 4.655.151 9.323.353 13.98.22 5.178.491 10.356.737 15.535.07 1.569.151 3.15.183 4.712.016.302.016.605 0 .908-.22 1.764-2.898 1.436-4.196 1.367a4.063 4.063 0 0 1-1.436-.145c-.252-.145-.347-.561-.397-.838-.114-.573-.183-1.16-.259-1.739-.308-2.25-.58-4.51-.85-6.766-.725-6.162-1.443-12.33-1.89-18.516a.233.233 0 0 0-.46-.063c-1.531 5.172-2.136 10.653-2.804 15.99-.308 2.488-.592 4.977-.888 7.465-.107.9-.214 1.802-.34 2.696a4.322 4.322 0 0 1-.258 1.43c-.246.385-1.859.347-2.426.385-.567.038-1.052.063-1.575.088-.23.04-.465.054-.7.044a.983.983 0 0 1-.887-.989 18.22 18.22 0 0 1 .239-3.837c.567-5.14 1.367-10.256 2.092-15.378.78-5.519 1.663-11.07 1.99-16.638l-.176.227c2.81-.498 5.809-.265 8.637-.108 1.89.108 3.717.24 5.563.423.303 0 .303-.441 0-.473-1.89-.189-3.83-.328-5.752-.428-2.816-.152-5.777-.366-8.574.132a.246.246 0 0 0-.17.227c-.309 5.267-1.128 10.508-1.89 15.75-.75 5.342-1.588 10.71-2.186 16.033a20.053 20.053 0 0 0-.271 4.114c.015.399.151.783.39 1.103.41.44 1.008.334 1.55.302 1.2-.028 2.396-.123 3.585-.283.517-.082.87-.145 1.02-.63.136-.564.231-1.137.284-1.714.302-2.224.542-4.454.806-6.684.397-3.37.813-6.741 1.33-10.08a69.054 69.054 0 0 1 1.846-9.022l-.467-.063c.435 5.809 1.097 11.605 1.77 17.388.29 2.463.587 4.927.914 7.39.114.844.063 3.15 1.071 3.534a4.41 4.41 0 0 0 1.216.145c.742.05 1.487.063 2.23.038 1.26-.05 2.577-.302 2.772-1.751a17.91 17.91 0 0 0-.05-3.075c-.202-5.04-.485-10.08-.718-15.12-.259-5.67-.63-11.34-.485-17.01a.24.24 0 0 0-.473-.057zM51.728 35.057v3.648c-.321 2.778-1.738 5.248-3.15 7.623-.238.48-.57.91-.976 1.26a1.978 1.978 0 0 1-2.325 0 5.31 5.31 0 0 0-.762-.63c-.372-.189-2.697-1.89-3.112-2.74-.996-2.111-1.078-4.102-.889-6.458a5.67 5.67 0 0 1 .422-1.984 3.667 3.667 0 0 1 1.122-1.317c4.643-3.446 9.67.598 9.67.598z" fill="#000"/>
    </g>
</svg>
