<svg width="111" height="90" viewBox="0 0 111 90" fill="none" xmlns="http://www.w3.org/2000/svg">
<path d="M47.3465 86.2425C46.2382 81.1916 41.4928 63.8934 42.6365 63.5097C44.995 62.6857 77.4958 57.1161 77.4958 57.1161C77.4958 57.1161 82.6462 73.0433 82.0708 79.4227L47.3465 86.2425Z" fill="#F3D4EB"/>
<path d="M31.5332 28.8423C32.336 34.5681 35.6535 51.2483 37.0743 51.8734C39.7667 53.0598 61.1356 47.3482 65.7887 45.9274C66.0871 45.835 63.5225 30.1565 61.1782 23.1946L31.5332 28.8423Z" fill="#F3D4EB"/>
<path d="M22.0842 30.9593C23.9786 42.4535 25.873 53.9478 27.7674 65.4421C28.6199 70.5759 29.4771 75.7074 30.339 80.8364C30.7937 83.4933 31.1134 86.2284 31.7598 88.8569C32.0369 90.0432 33.891 89.4962 34.7577 89.3897C37.7343 89.0274 40.6967 88.5514 43.659 88.0683C52.5627 86.6096 61.4332 84.9946 70.2706 83.2234C74.3696 82.4064 78.4686 81.561 82.5392 80.6162C85.186 80.0699 87.7959 79.3581 90.3536 78.485C90.9554 78.3471 91.5081 78.0474 91.952 77.6183C92.2859 77.1637 92.1012 76.432 92.0373 75.9134C91.6608 72.7308 91.0569 69.5624 90.4886 66.4082C88.9328 57.7058 87.2421 48.9892 85.3808 40.3152C85.1038 39.0223 84.8267 37.7365 84.5141 36.4506C84.4493 35.8693 84.2419 35.3129 83.9103 34.8309C83.0004 34.0185 82.0074 33.3042 80.9479 32.6997C79.0938 31.4423 77.2183 30.2275 75.3287 29.027C71.8761 26.8247 68.3667 24.4449 64.63 22.747C63.2732 22.1361 62.03 22.4131 60.5737 22.5836C58.1157 22.8749 55.6719 23.294 53.2352 23.6919C43.5312 25.3968 33.891 27.528 24.2864 29.8581L22.4394 30.3057C21.7716 30.4691 22.0558 31.4992 22.7235 31.3358C30.0312 29.5313 37.372 27.8737 44.7459 26.363C49.8679 25.3187 55.0183 24.3028 60.2184 23.6634C61.1987 23.5012 62.188 23.3992 63.1808 23.358C63.2959 23.3484 63.4113 23.3705 63.5147 23.4219C63.7278 23.5001 63.9338 23.5853 64.1399 23.6777C65.7114 24.4355 67.2409 25.2773 68.7219 26.1996C72.6007 28.4871 76.4156 30.9095 80.1452 33.4314C81.161 34.1418 82.1343 34.8522 83.1217 35.5626C83.2283 35.6408 83.1217 35.5626 83.1217 35.5129C83.1644 35.6124 83.1928 35.726 83.2283 35.8255C83.3278 36.1878 83.4201 36.5359 83.5054 36.9266C85.324 44.4924 86.7093 52.186 88.1443 59.8299C88.9115 63.8934 89.6645 67.9569 90.3394 72.0346C90.5454 73.2849 90.7585 74.5423 90.9077 75.8068C90.9504 76.162 90.9859 76.5172 91.0143 76.8724C91.0037 76.9597 91.0037 77.048 91.0143 77.1353C90.9717 77.0358 91.1137 76.9648 91.0711 76.9577C91.0285 76.9506 91.0711 76.9577 90.9361 77.05C90.8143 77.121 90.6886 77.185 90.5596 77.2418C90.3607 77.3342 89.9061 77.4976 89.5864 77.6041C88.4782 77.9806 87.3486 78.3145 86.212 78.5845C82.7665 79.4867 79.2856 80.2397 75.8046 80.9714C66.9744 82.8327 58.1015 84.4879 49.2072 86.0224C45.6126 86.6475 42.0038 87.2442 38.395 87.7841C36.4929 88.152 34.568 88.3893 32.6336 88.4946C32.0369 88.4946 33.0954 88.5727 32.8041 88.8071C32.7783 88.6009 32.738 88.3967 32.6833 88.1962C32.4844 87.1306 32.2997 86.065 32.115 84.9923C31.3999 80.7962 30.6895 76.5954 29.9838 72.3898C28.08 60.8955 26.1808 49.3965 24.2864 37.8928L23.1072 30.6751C22.9935 30.0002 21.9705 30.2915 22.0842 30.9593Z" fill="#A75A93"/>
<path d="M46.7714 87.3508C45.6419 82.2288 44.2495 77.1565 43.0702 72.0417C42.5232 69.6902 41.9549 67.3104 41.6494 64.9377C41.4938 64.3824 41.4719 63.7981 41.5855 63.2327C41.5855 63.2327 41.4789 63.2753 41.685 63.2327C41.8856 63.1713 42.0896 63.1215 42.2959 63.0835C45.9687 62.2097 49.7196 61.5988 53.435 60.9523C58.5546 60.0051 63.6813 59.1005 68.8151 58.2386C71.8793 57.7082 74.9411 57.1801 78.0006 56.6544L77.6028 56.4342C79.5747 62.3516 81.0853 68.4128 82.1209 74.5636C82.4768 76.4788 82.6103 78.4288 82.5187 80.3747L82.7532 80.0692L70.4633 82.3922L50.8846 86.2426L46.3807 87.1306C45.9758 87.2087 46.1463 87.841 46.5512 87.7486L58.8198 85.3333L78.3913 81.5184L82.9095 80.6233C83.0485 80.5874 83.1452 80.4614 83.1439 80.3178C83.4281 76.6522 82.5401 72.8302 81.7231 69.2711C80.9061 65.712 79.9329 62.025 78.8815 58.4446C78.6542 57.7342 78.4339 56.9457 78.1711 56.2069C78.1227 56.0387 77.9505 55.9385 77.7804 55.9795C69.9328 57.3151 62.0924 58.6861 54.259 60.0927C50.2595 60.8031 46.2315 61.5135 42.2675 62.3873C41.3298 62.6076 40.8467 62.707 40.8467 63.8081C40.9869 65.8465 41.3247 67.8664 41.8554 69.8394C43.1484 75.7784 44.7965 81.6392 46.1178 87.5994C46.2457 87.912 46.8638 87.7557 46.7714 87.3508Z" fill="#A75A93"/>
<path d="M49.8613 72.1838C50.013 73.2968 50.2505 74.3965 50.5717 75.4729L71.9903 71.3526L71.2799 67.8006L49.8613 72.1838Z" fill="#636363"/>
<path d="M49.3496 30.4761C50.1595 33.7937 51.6442 43.6683 51.6442 43.6683C52.3546 43.9737 58.5422 42.7447 60.1051 42.1622C59.4859 37.7436 58.589 33.3683 57.4198 29.0624C56.411 29.2471 49.3496 30.4761 49.3496 30.4761Z" fill="#636363"/>
<path d="M30.7942 29.0127C31.6653 35.1048 32.8772 41.1432 34.4244 47.0995C34.737 48.3072 35.0637 49.5149 35.4758 50.6941C35.6416 51.3687 35.9438 52.0021 36.3638 52.5554C36.7787 52.8429 37.2822 52.9738 37.7846 52.9248C38.7048 52.9236 39.6237 52.8547 40.5338 52.7188C46.5083 51.9302 52.4188 50.3816 58.2441 48.8755C60.6595 48.2504 63.0677 47.6039 65.4618 46.9148C65.9733 46.7656 66.641 46.7514 66.705 46.1405C66.707 45.4544 66.6307 44.7704 66.4776 44.1016C66.0017 40.6988 65.3694 37.3173 64.6874 33.9571C64.0039 30.2508 63.0928 26.59 61.9595 22.9956C61.908 22.8265 61.7336 22.7268 61.5617 22.7683L51.2822 24.7432L34.8293 27.8903L31.0216 28.6007C30.6166 28.6717 30.7871 29.3111 31.1921 29.2116L41.5071 27.2438L57.967 24.0897L61.7677 23.3793L61.377 23.159C63.359 29.1548 64.4885 35.52 65.4902 41.736C65.6678 42.8371 65.8454 43.9382 65.9804 45.0465C65.9804 45.3377 65.9804 45.6574 66.0727 45.9345C66.0727 46.0197 66.0727 46.1334 66.0727 46.2044C66.0159 46.0623 66.3498 46.0481 65.959 46.0978C65.0742 46.2726 64.203 46.5099 63.3519 46.8082C62.1679 47.1398 60.9839 47.4618 59.7999 47.7744C54.0741 49.2875 48.2985 50.751 42.459 51.7455C41.365 51.9302 40.271 52.1007 39.1628 52.1931C38.4724 52.321 37.7645 52.321 37.0742 52.1931C36.6124 52.0439 36.449 51.4827 36.2714 51.0422C35.9018 50.0507 35.584 49.0405 35.3195 48.0159C33.6034 41.7124 32.2912 35.3058 31.391 28.8351C31.391 28.4373 30.7374 28.6078 30.7942 29.0127Z" fill="#A75A93"/>
<path d="M48.2136 30.0997C49.3431 34.767 49.9611 39.5906 50.6573 44.3077C50.6854 44.417 50.7692 44.5034 50.8776 44.535C51.3982 44.638 51.934 44.638 52.4546 44.535C53.4137 44.4213 54.3727 44.2579 55.2962 44.0803C57.1192 43.8036 58.9174 43.3832 60.674 42.8229C60.8403 42.7685 60.9364 42.5949 60.8942 42.4251C60.2462 37.6629 59.2899 32.9478 58.0313 28.3095C57.9829 28.1413 57.8107 28.0411 57.6406 28.0821C54.5787 28.6575 51.5027 29.169 48.4054 29.7089C48.0004 29.78 48.1709 30.4193 48.5759 30.327C51.6377 29.7871 54.7137 29.2685 57.8111 28.7002L57.4132 28.4799C58.6817 33.12 59.6475 37.8375 60.3046 42.6027L60.5319 42.212C58.922 42.7252 57.2765 43.1193 55.6088 43.3912C54.6782 43.5688 53.7476 43.7322 52.8098 43.853C52.4689 43.9027 52.0994 43.9454 51.7798 43.9667C51.5575 43.9492 51.3342 43.9492 51.112 43.9667C51.3251 43.7251 51.2114 44.4213 51.247 44.0093C51.2384 43.8225 51.2122 43.637 51.1688 43.4552C51.0694 42.83 50.977 42.2049 50.8776 41.5726C50.5839 39.6403 50.2737 37.7104 49.9469 35.7829C49.6201 33.8293 49.3005 31.8686 48.8316 29.9363C48.7393 29.5313 48.1212 29.7018 48.2136 30.0997Z" fill="#A75A93"/>
<path d="M49.378 71.6154C49.5746 73.138 49.8857 74.6436 50.3086 76.1194C50.3569 76.2871 50.5308 76.3852 50.6994 76.3396L69.4539 72.8302L72.1463 72.3258C72.3145 72.2775 72.4147 72.1052 72.3737 71.9351L71.372 67.1044C71.3237 66.9366 71.1498 66.8386 70.9813 66.8842L52.2978 70.7487L49.6124 71.3028C49.2146 71.3881 49.3851 72.0132 49.7829 71.9209L68.4665 68.0563L71.1518 67.5022L70.7611 67.2749L71.7556 72.1056L71.9829 71.7078L53.2213 75.2243L50.5289 75.7286L50.9267 75.9489C50.515 74.5293 50.211 73.0807 50.0174 71.6154C49.9748 71.2105 49.3354 71.2034 49.378 71.6154Z" fill="#6B718E"/>
<path d="M82.5135 0.185212C77.9402 6.01737 75.4628 13.2191 75.4806 20.6305C75.4806 20.9248 75.7191 21.1633 76.0134 21.1633C76.3076 21.1633 76.5462 20.9248 76.5462 20.6305C76.5083 13.5045 78.8594 6.57136 83.2239 0.938236C83.6431 0.405436 82.8971 -0.354692 82.4709 0.185212H82.5135Z" fill="#A75A93"/>
<path d="M17.7616 37.102C12.697 33.5967 6.3672 32.4446 0.392333 33.9408C0.107884 34.0192 -0.0590957 34.3134 0.0193729 34.5979C0.0978415 34.8823 0.392044 35.0493 0.676493 34.9708C6.3739 33.5514 12.4068 34.6652 17.2217 38.0256C17.79 38.4163 18.3228 37.4928 17.7616 37.102Z" fill="#A75A93"/>
<path d="M99.9116 17.8332C95.4178 20.3857 91.3444 23.6157 87.8348 27.4094C87.3731 27.9138 88.1261 28.6739 88.5879 28.1695C92.0304 24.4387 96.03 21.2634 100.444 18.7567C100.699 18.6076 100.785 18.28 100.636 18.025C100.487 17.77 100.16 17.6841 99.9045 17.8332H99.9116Z" fill="#A75A93"/>
<path d="M9.76338 77.6726C12.605 74.7174 16.8176 73.9004 20.6822 73.19C21.3571 73.0621 21.0729 72.0391 20.3981 72.1599C16.3417 72.9129 11.9798 73.8222 9.03166 76.9196C8.5557 77.4169 9.30872 78.1699 9.78469 77.6726H9.76338Z" fill="#A75A93"/>
<path d="M98.3517 57.8669C102.316 57.0783 106.209 58.7975 109.718 60.3959C110.336 60.6801 110.876 59.7565 110.258 59.4795C106.457 57.7461 102.323 55.9701 98.0605 56.8368C97.3927 56.9718 97.6769 57.9947 98.3446 57.8669H98.3517Z" fill="#A75A93"/>
<path d="M9.26067 17.684C13.2815 18.4797 16.2439 21.5841 18.9221 24.4755C19.391 24.9798 20.144 24.2197 19.6822 23.7224C16.8762 20.7103 13.7504 17.4922 9.54483 16.6611C8.87705 16.5332 8.59289 17.5562 9.26067 17.6911V17.684Z" fill="#A75A93"/>
</svg>
