<svg width="116" height="116" viewBox="0 0 116 116" xmlns="http://www.w3.org/2000/svg">
    <g fill-rule="nonzero" fill="none">
        <path d="M50.346 89.243c-1.108-5.051-5.853-22.35-4.71-22.733 2.359-.824 34.86-6.394 34.86-6.394s5.15 15.927 4.575 22.307l-34.725 6.82zM34.533 31.842c.803 5.726 4.12 22.406 5.541 23.031 2.692 1.187 24.061-4.525 28.714-5.946.299-.092-2.266-15.77-4.61-22.732l-29.645 5.647z" fill="#D2D8FF"/>
        <path d="m25.085 33.96 5.683 34.482c.852 5.134 1.71 10.265 2.571 15.394.455 2.657.775 5.392 1.421 8.02.277 1.187 2.131.64 2.998.534 2.977-.363 5.939-.839 8.901-1.322a763.634 763.634 0 0 0 26.612-4.845c4.099-.817 8.198-1.662 12.269-2.607a64.646 64.646 0 0 0 7.814-2.131 3.389 3.389 0 0 0 1.598-.867c.334-.454.15-1.186.086-1.705-.377-3.182-.98-6.35-1.549-9.505a772.051 772.051 0 0 0-5.108-26.093 144.392 144.392 0 0 0-.866-3.864 3.552 3.552 0 0 0-.604-1.62 17.376 17.376 0 0 0-2.963-2.131 224.2 224.2 0 0 0-5.619-3.673c-3.453-2.202-6.962-4.582-10.699-6.28-1.356-.61-2.6-.334-4.056-.163-2.458.29-4.902.71-7.338 1.108-9.704 1.705-19.345 3.836-28.95 6.166l-1.846.448c-.668.163-.384 1.193.284 1.03a564.478 564.478 0 0 1 22.022-4.973c5.122-1.044 10.273-2.06 15.473-2.7.98-.162 1.97-.264 2.962-.305.115-.01.23.012.334.064.213.078.42.163.625.256a48.62 48.62 0 0 1 4.582 2.522 219.325 219.325 0 0 1 11.424 7.231c1.015.71 1.989 1.421 2.976 2.132.107.078 0 0 0-.05.043.1.071.213.107.312.1.363.191.71.277 1.102 1.818 7.565 3.204 15.259 4.639 22.903.767 4.063 1.52 8.127 2.195 12.205.206 1.25.419 2.507.568 3.772.043.355.078.71.107 1.065-.01.088-.01.176 0 .263-.043-.1.1-.17.057-.177-.043-.007 0 0-.135.092a3.75 3.75 0 0 1-.377.192 12.39 12.39 0 0 1-.973.362 37.35 37.35 0 0 1-3.375.98c-3.445.903-6.926 1.656-10.407 2.387-8.83 1.862-17.703 3.517-26.597 5.051a462.89 462.89 0 0 1-10.813 1.762 42.503 42.503 0 0 1-5.761.71c-.597 0 .462.079.17.313a4.404 4.404 0 0 0-.12-.61 231.732 231.732 0 0 1-.569-3.205c-.715-4.196-1.425-8.397-2.13-12.602a37423.744 37423.744 0 0 1-5.698-34.497l-1.18-7.218c-.113-.675-1.136-.384-1.022.284z" fill="#231F20"/>
        <path d="M49.771 90.35c-1.13-5.121-2.522-10.193-3.701-15.308-.547-2.352-1.116-4.732-1.421-7.104a3.651 3.651 0 0 1-.064-1.705s-.107.042.1 0c.2-.062.404-.111.61-.15 3.673-.873 7.424-1.484 11.14-2.13a940.822 940.822 0 0 1 15.38-2.714c3.064-.53 6.126-1.059 9.185-1.585l-.398-.22a120.768 120.768 0 0 1 4.518 18.13c.356 1.915.49 3.865.398 5.81l.235-.305-12.29 2.323-19.579 3.85-4.504.889c-.405.078-.234.71.17.618l12.27-2.416 19.57-3.815 4.519-.895a.313.313 0 0 0 .234-.305c.285-3.666-.603-7.488-1.42-11.047s-1.79-7.246-2.842-10.826c-.227-.71-.448-1.5-.71-2.238a.327.327 0 0 0-.391-.227 2624.194 2624.194 0 0 0-23.521 4.113c-4 .71-8.028 1.42-11.992 2.294-.938.22-1.42.32-1.42 1.421.14 2.038.477 4.058 1.008 6.031 1.293 5.94 2.941 11.8 4.262 17.76.128.313.746.157.654-.248z" fill="#231F20"/>
        <path d="M52.861 75.184c.152 1.113.39 2.212.71 3.289l21.42-4.12-.711-3.552-21.419 4.383zM52.35 33.476c.81 3.318 2.294 13.192 2.294 13.192.71.306 6.898-.923 8.461-1.506a106.247 106.247 0 0 0-2.685-13.1c-1.009.185-8.07 1.414-8.07 1.414z" fill="#FFF"/>
        <path d="M33.794 32.013a164.614 164.614 0 0 0 3.63 18.087c.313 1.207.64 2.415 1.052 3.594.165.675.468 1.308.888 1.861.415.288.918.419 1.42.37.92-.001 1.84-.07 2.75-.206 5.974-.789 11.885-2.337 17.71-3.843a277.13 277.13 0 0 0 7.218-1.961c.511-.15 1.179-.164 1.243-.775a9.017 9.017 0 0 0-.228-2.038c-.476-3.403-1.108-6.785-1.79-10.145a91.855 91.855 0 0 0-2.728-10.961.334.334 0 0 0-.398-.228l-10.279 1.975-16.453 3.147-3.808.71c-.405.072-.234.711.17.612l10.316-1.968 16.46-3.154 3.8-.71-.39-.221c1.982 5.996 3.111 12.361 4.113 18.577.178 1.101.355 2.202.49 3.31 0 .292 0 .611.093.888v.27c-.057-.142.277-.156-.114-.106-.885.175-1.756.412-2.607.71a247.09 247.09 0 0 1-3.552.966c-5.726 1.514-11.502 2.977-17.341 3.972-1.094.184-2.188.355-3.296.447a5.733 5.733 0 0 1-2.089 0c-.462-.15-.625-.71-.803-1.15a30.469 30.469 0 0 1-.952-3.027 153.596 153.596 0 0 1-3.928-19.18c0-.399-.654-.228-.597.177z" fill="#231F20"/>
        <path d="M51.213 33.1c1.13 4.667 1.748 9.49 2.444 14.208a.32.32 0 0 0 .22.227c.52.103 1.057.103 1.577 0a40.166 40.166 0 0 0 2.842-.455 34.966 34.966 0 0 0 5.377-1.257.334.334 0 0 0 .22-.398 111.1 111.1 0 0 0-2.862-14.116.327.327 0 0 0-.39-.227c-3.063.576-6.139 1.087-9.236 1.627-.405.071-.235.71.17.618 3.062-.54 6.138-1.059 9.236-1.627l-.398-.22a111.1 111.1 0 0 1 2.891 14.123l.227-.391c-1.61.513-3.255.907-4.923 1.18-.93.177-1.86.34-2.799.461-.34.05-.71.092-1.03.114a4.262 4.262 0 0 0-.667 0c.213-.242.099.454.134.042a2.977 2.977 0 0 0-.078-.554c-.1-.625-.191-1.25-.29-1.882a342.338 342.338 0 0 0-.932-5.79c-.326-1.954-.646-3.914-1.115-5.847-.092-.405-.71-.234-.618.164zM52.378 74.615c.197 1.523.508 3.029.93 4.504a.32.32 0 0 0 .391.22l18.755-3.509 2.692-.504a.327.327 0 0 0 .228-.39l-1.002-4.832a.32.32 0 0 0-.39-.22L55.297 73.75l-2.685.554c-.398.085-.228.71.17.618l18.684-3.865 2.685-.554-.39-.227.994 4.83.227-.397-18.762 3.516-2.692.505.398.22a29.368 29.368 0 0 1-.91-4.334c-.042-.405-.681-.412-.639 0zM85.513 3.185a33.005 33.005 0 0 0-7.033 20.446.533.533 0 1 0 1.066 0 31.876 31.876 0 0 1 6.677-19.693c.42-.533-.326-1.293-.753-.753h.043zM20.762 40.102a21.39 21.39 0 0 0-17.37-3.161.534.534 0 1 0 .284 1.03 20.325 20.325 0 0 1 16.546 3.055c.568.39 1.1-.533.54-.924zM102.911 20.833a50.282 50.282 0 0 0-12.077 9.576c-.461.505.292 1.265.753.76a49.167 49.167 0 0 1 11.857-9.412.535.535 0 0 0-.54-.924h.007zM12.763 80.673c2.842-2.956 7.055-3.773 10.92-4.483.674-.128.39-1.15-.285-1.03-4.056.753-8.418 1.662-11.366 4.76-.476.497.277 1.25.753.753h-.022zM101.352 60.867c3.964-.789 7.857.93 11.366 2.529.618.284 1.158-.64.54-.917-3.8-1.733-7.935-3.509-12.197-2.642-.668.135-.384 1.158.284 1.03h.007zM12.26 20.684c4.022.796 6.984 3.9 9.662 6.791.47.505 1.222-.255.76-.753-2.806-3.012-5.931-6.23-10.137-7.061-.668-.128-.952.895-.284 1.03v-.007z" fill="#231F20"/>
    </g>
</svg>
