<svg xmlns="http://www.w3.org/2000/svg" width="173" height="173" viewBox="0 0 173 173">
    <g fill="none" fill-rule="evenodd">
        <g fill-rule="nonzero">
            <g>
                <g>
                    <g>
                        <g>
                            <g fill="#7582FF" opacity=".1">
                                <path d="M56.716.826C45.232 4.638 35.873 6.64 25.601 13.88 15.33 21.121 11.833 37.596 6.245 50.227c-9.691 21.872-6.96 50.754 6.56 69.463 2.798 3.87 6.112 7.399 10.13 9.134 3.546 1.503 7.383 1.478 11.12 1.976 5.995.83 11.808 2.957 17.696 4.56 18.844 5.11 38.78 4.533 57.297-1.661 6.926-2.309 14.117-5.813 18.153-12.93 2.49-4.368 3.496-9.666 4.368-14.847 3.321-19.573 5.098-40.325-.424-59.158-1.27-4.326-2.973-8.595-5.688-11.825-2.176-2.59-4.9-4.393-7.399-6.519-7.856-6.643-13.527-16.408-21.026-23.624C89.534-2.421 56.716.826 56.716.826z" transform="translate(-838.000000, -313.000000) translate(326.000000, 154.000000) translate(512.000000, 159.000000) translate(0.000000, 0.000000) translate(19.030000, 13.840000) translate(0.000000, 4.671000)"/>
                            </g>
                            <path fill="#D2D8FF" d="M42.492 137.738c-7.52-.676-15.094-.486-22.57.565-.701.062-1.39.224-2.043.482-.723.373-.416.88.166 1.27 2.341 1.603 8.03 2.193 13.112 2.608 8.719.703 17.466 1.373 26.24 2.01 4.57.4 9.157.564 13.743.49 7.283-.242 26.573-1.446 29.206-1.205 13.676 1.246 17.737-5.862 16.558-5.904-24.107-.822-74.412-.316-74.412-.316z" transform="translate(-838.000000, -313.000000) translate(326.000000, 154.000000) translate(512.000000, 159.000000) translate(0.000000, 0.000000) translate(19.030000, 13.840000)"/>
                            <path fill="#FFF" d="M76.92 50.455c.103.191.17.4.2.615.381.232 2.324.639 3.014 1.494.29.337.29.835 0 1.171-.183.224-5.373.316-6.17.266-.181.001-.358-.054-.507-.158-.113-.13-.183-.293-.2-.465-.198-.922-.356-2.018.3-2.699.305-.285.68-.486 1.088-.581.774-.029 1.547.093 2.275.357z" transform="translate(-838.000000, -313.000000) translate(326.000000, 154.000000) translate(512.000000, 159.000000) translate(0.000000, 0.000000) translate(19.030000, 13.840000)"/>
                            <path fill="#000" d="M76.604 50.654c.15.241.083.573.324.748.202.111.417.197.64.257.624.182 1.225.432 1.793.748.266.166.615.406.615.747.008.072.008.144 0 .216 0 .083-.058.133 0 .066.058-.066.083 0 0 0-.033-.004-.067-.004-.1 0-.282.042-.722.075-1.096.1-1.163.066-2.325.091-3.488.1h-1.179c-.082.012-.166.012-.249 0-.224-.059-.224-.324-.266-.532-.093-.405-.13-.822-.108-1.237.07-.816.778-1.427 1.595-1.379.337.02.673.062 1.005.125.149 0 .298.058.448.1l.15.05c.05 0 .041 0 0 0 .148.11.356.096.488-.035.131-.132.146-.34.035-.489-.187-.15-.411-.244-.648-.274-.349-.075-.706-.133-1.055-.174-.756-.14-1.535.078-2.109.59-.626.722-.844 1.712-.581 2.632.075.44.133 1.005.564 1.254.26.119.545.173.83.157 1.205 0 2.409 0 3.605-.058.581 0 1.162 0 1.744-.1.44 0 .83-.05 1.046-.49.506-.987-.399-1.785-1.212-2.183-.408-.193-.827-.362-1.254-.507-.285-.075-.563-.175-.83-.299l.174.224c-.034-.246-.116-.483-.241-.697-.258-.448-.905-.075-.64.34z" transform="translate(-838.000000, -313.000000) translate(326.000000, 154.000000) translate(512.000000, 159.000000) translate(0.000000, 0.000000) translate(19.030000, 13.840000)"/>
                            <path fill="#FFF" d="M61.45 51.103c-.104.188-.171.393-.2.606-.373.24-2.325.648-3.006 1.495-.286.337-.286.833 0 1.17.191.225 5.381.316 6.178.266.183.01.362-.047.507-.157.112-.129.181-.288.2-.457.199-.93.356-2.018-.3-2.699-.306-.289-.685-.49-1.096-.581-.777-.033-1.553.089-2.283.357z" transform="translate(-838.000000, -313.000000) translate(326.000000, 154.000000) translate(512.000000, 159.000000) translate(0.000000, 0.000000) translate(19.030000, 13.840000)"/>
                            <path fill="#000" d="M61.126 50.912c-.123.215-.202.452-.233.697l.175-.224c-.213.104-.436.188-.665.25-.365.132-.73.257-1.088.414-.697.308-1.586.79-1.66 1.661-.044.39.116.776.423 1.022.126.064.265.101.407.108.532.074 1.063.1 1.594.124 1.271.058 2.541.092 3.812.083.614 0 1.312 0 1.536-.706.34-.898.34-1.89 0-2.79-.45-.8-1.329-1.259-2.242-1.17-.404.033-.806.091-1.204.174-.284.03-.556.133-.789.299-.332.34.191.83.532.531-.092.083 0 0 0 0h.132c.12-.039.242-.07.366-.091.292-.077.589-.135.888-.175.676-.118 1.35.22 1.661.83.149.375.192.783.125 1.18 0 .29-.042 1.071-.366 1.163-.35.041-.704.041-1.054 0-1.154 0-2.309 0-3.463-.083-.448 0-.905 0-1.345-.1-.09-.025-.182-.044-.274-.058 0 0 .091.074.1.058-.038-.065-.065-.135-.084-.208-.03-.223.062-.445.241-.581.58-.457 1.251-.785 1.968-.963.27-.07.531-.168.78-.29.316-.175.225-.507.391-.781.24-.407-.407-.781-.664-.374zM63.21 1.66v2.492c.35 1.894 1.088 3.695 2.167 5.29.167.333.395.631.673.88.484.348 1.136.348 1.62 0 .165-.153.343-.292.53-.415.826-.504 1.556-1.147 2.16-1.902.63-1.42.848-2.988.63-4.526-.01-.473-.11-.94-.29-1.378-.185-.362-.452-.674-.78-.914-3.222-2.374-6.71.474-6.71.474z" transform="translate(-838.000000, -313.000000) translate(326.000000, 154.000000) translate(512.000000, 159.000000) translate(0.000000, 0.000000) translate(19.030000, 13.840000)"/>
                            <path fill="#FFF" d="M65.552 11.833c.381-.303.566-.79.481-1.27-.14-.714-.83-1.155-1.237-1.77-.256-.43-.428-.907-.506-1.402-.216-1.072-.83-4.152.348-5.523.754-.854 1.903-1.245 3.022-1.028 1.118.217 2.038 1.01 2.417 2.083.656 1.51.617 3.23-.107 4.708-.3.524-.723.964-1.055 1.478-.32.507-.452 1.11-.374 1.703.067.506.88.664.64.93-.075.083-1.329.515-1.437.556-.556.216-2.192-.465-2.192-.465z" transform="translate(-838.000000, -313.000000) translate(326.000000, 154.000000) translate(512.000000, 159.000000) translate(0.000000, 0.000000) translate(19.030000, 13.840000)"/>
                            <path fill="#000" d="M65.768 12.05c.921-.831.622-1.886-.083-2.683-.45-.435-.787-.974-.98-1.57-.116-.423-.191-.83-.266-1.278-.299-1.72-.581-4.152 1.262-5.057.708-.373 1.531-.46 2.3-.241 1.011.391 1.753 1.27 1.969 2.333.457 1.347.325 2.825-.366 4.07-.606.987-1.794 2.067-1.337 3.379.084.209.225.39.407.523 0 0 .2.183.224.174l.108-.207-.083.041c-.22.05-.433.13-.63.241l-.507.183c-.756.1-1.524-.052-2.184-.432-.374-.15-.532.457-.166.606.691.365 1.47.535 2.25.49.338-.087.668-.201.988-.34.266-.1.681-.183.83-.474.175-.44-.332-.59-.548-.83-.154-.355-.154-.758 0-1.113.158-.426.391-.82.69-1.162.928-1.135 1.362-2.595 1.204-4.053-.233-2.134-1.528-4.36-3.953-4.152-.818.07-1.593.396-2.217.93-.713.723-1.095 1.71-1.055 2.724-.013 1.118.11 2.233.366 3.322.13.74.46 1.433.955 2 .556.624 1.22 1.413.382 2.135-.3.266.14.706.44.44z" transform="translate(-838.000000, -313.000000) translate(326.000000, 154.000000) translate(512.000000, 159.000000) translate(0.000000, 0.000000) translate(19.030000, 13.840000)"/>
                            <path fill="#000" d="M69.654 1.66C68.589.976 67.31.705 66.058.898c-.652.118-1.27.385-1.802.78-.34.233-.722.59-.64 1.005.032.132.094.255.184.357.506.547 1.234.831 1.976.773.739 0 1.461-.167 2.2-.142.287.002.57.064.83.183.3.167.548.414.715.714.415.87.617 1.827.59 2.79.637-1.252.833-2.683.556-4.06L69.654 1.66z" transform="translate(-838.000000, -313.000000) translate(326.000000, 154.000000) translate(512.000000, 159.000000) translate(0.000000, 0.000000) translate(19.030000, 13.840000)"/>
                            <path fill="#FFF" d="M62.197 25.967c.116 5.945-1.021 23.566-.88 24.43.024.243.12.474.274.664.215.188.48.31.764.35 1.03.121 2.072.102 3.097-.06.164-.106.28-.273.324-.464.2-.631 1.727-13.353 2.142-19.025 1.661 5.73 4.792 18.31 5.174 18.618.382.307 2.715.316 3.205.357.206.04.42.012.606-.083.191-.162.306-.397.316-.648.332-1.943-4.758-17.994-5.124-24.355-2.723-.507-9.898.216-9.898.216z" transform="translate(-838.000000, -313.000000) translate(326.000000, 154.000000) translate(512.000000, 159.000000) translate(0.000000, 0.000000) translate(19.030000, 13.840000)"/>
                            <path fill="#000" d="M61.881 25.967c.133 7.249-.498 14.515-.83 21.756-.08.861-.102 1.727-.066 2.59.157 1.786 2.4 1.545 3.703 1.446.648-.05 1.138-.075 1.37-.83.073-.273.123-.55.15-.831.216-1.461.39-2.923.564-4.393.557-4.609 1.097-9.217 1.437-13.85l-.606.082c1.162 3.92 2.167 7.889 3.214 11.833.431 1.661.83 3.322 1.336 4.983.167.573.291 1.66.83 2.06.594.224 1.228.318 1.861.273.606 0 1.744.3 2.267-.091.706-.54.374-1.802.24-2.491-.614-3.438-1.66-6.818-2.49-10.206-1.022-4.077-2.234-8.304-2.492-12.497-.002-.14-.097-.263-.232-.3-3.23-.556-6.743-.124-9.965.2-.399 0-.399.664 0 .623 3.172-.316 6.643-.764 9.815-.225l-.224-.298c.311 3.255.903 6.478 1.769 9.632.83 3.513 1.785 6.992 2.616 10.505.308 1.141.546 2.3.714 3.47.066.54.158.997-.64 1.163-.767.062-1.539.012-2.291-.15-.582-.074-.59 0-.773-.464-.16-.438-.295-.884-.407-1.337-.448-1.561-.83-3.139-1.278-4.708-1.072-4.036-2.093-8.08-3.28-12.083-.048-.144-.192-.233-.342-.213-.15.02-.265.145-.273.296-.257 3.72-.681 7.474-1.146 11.269-.191 1.727-.399 3.446-.623 5.173-.075.565-.141 1.121-.224 1.661 0 .274-.05.88-.299 1.071-.25.191-.73.075-.947.092-.483.033-.969.033-1.453 0-.83-.059-1.279-.399-1.304-1.113 0-.939.059-1.893.1-2.824.15-3.38.332-6.759.482-10.139.166-3.695.373-7.415.307-11.119-.043-.123-.158-.208-.29-.211-.13-.004-.25.074-.3.195z" transform="translate(-838.000000, -313.000000) translate(326.000000, 154.000000) translate(512.000000, 159.000000) translate(0.000000, 0.000000) translate(19.030000, 13.840000)"/>
                            <path fill="#FFF" d="M58.302 32.983c.1.108.54 0 .598-.307.125-.531.1-2.1.175-2.325.076-.225.285-.377.523-.382.354.259.695.536 1.021.83.058 0 .598.059.357-.406-.1-.2-1.279-1.661-1.478-1.885-.133-.188-.306-.344-.506-.457-.203-.062-.42-.062-.623 0-.282.062-.56.143-.83.24-.087.021-.165.068-.225.134-.037.071-.054.152-.05.232.034.324.59 3.861 1.038 4.326z" transform="translate(-838.000000, -313.000000) translate(326.000000, 154.000000) translate(512.000000, 159.000000) translate(0.000000, 0.000000) translate(19.030000, 13.840000)"/>
                            <path fill="#000" d="M58.128 33.258c.288.115.617.042.83-.183.184-.237.275-.532.258-.83 0-.324 0-.657.05-.989-.018-.249-.018-.498 0-.747v-.058c0-.009.124-.1.174-.158.05-.058-.091-.066 0 0l.2.174c.14.125.273.258.423.382.113.123.252.22.407.283.254.094.54 0 .688-.226.15-.226.122-.525-.065-.721-.3-.457-.665-.88-1.005-1.304-.34-.423-.606-1.021-1.13-1.146-.498-.042-1 .047-1.453.258-.33.075-.56.375-.548.714.033.4.09.796.175 1.187.116.656.24 1.32.406 1.968.078.486.262.948.54 1.354.274.299.714-.15.44-.44 0 0 0 .05 0 0 .003-.025.003-.05 0-.075-.032-.054-.057-.113-.074-.174-.075-.208-.142-.407-.2-.615-.133-.498-.24-.996-.34-1.503-.1-.506-.166-.897-.233-1.353-.005-.103-.005-.205 0-.308v-.116c.093-.05.195-.084.3-.1l.365-.1c.18-.067.373-.09.564-.066.166 0 .274.208.374.333.1.124.224.249.332.382.316.382.623.764.922 1.162.075.122.159.238.249.349.05.05 0 .05.05 0h-.067c.058 0 .05.05.05 0s-.124-.1-.124-.1c-.241-.207-.465-.44-.715-.63-.24-.202-.59-.202-.83 0-.498.34-.407 1.037-.432 1.56 0 .308 0 .623-.05.93.004.104-.01.208-.041.308 0 .05-.066.058-.108.083-.042.025-.083 0 0 0-.382-.266-.69.274-.382.515z" transform="translate(-838.000000, -313.000000) translate(326.000000, 154.000000) translate(512.000000, 159.000000) translate(0.000000, 0.000000) translate(19.030000, 13.840000)"/>
                            <path fill="#D2D8FF" d="M62.222 18.194c0 1.495-.714 6.967-.175 8.37 3.53-.058 6.386.133 9.915.067 1.03 0-.09-8.304.225-11.26.133-1.28 1.17 12.788.988 12.04l3.48.964s.29-9.525-.997-13.287c-1.121-3.321-5.522-5.148-7.715-3.595-1.07.755-1.876.398-3.687-.191-7.739-2.491-7.548 16.849-7.648 16.84-.83-.083 4.078.449 3.256.366 0-.017 2.242-16.21 2.358-10.314z" transform="translate(-838.000000, -313.000000) translate(326.000000, 154.000000) translate(512.000000, 159.000000) translate(0.000000, 0.000000) translate(19.030000, 13.840000)"/>
                            <path fill="#FFF" d="M74.794 32.543c-.334.117-.702.087-1.013-.083-.166-.166 1.868-3.321.623-3.728-.133-.042-1.196.78-1.262.656-.333-.532.988-1.71 1.12-1.852.133-.154.33-.237.532-.224.582.097 1.143.29 1.66.573.23.251.334.593.283.93-.252 1.412-.93 2.713-1.943 3.728z" transform="translate(-838.000000, -313.000000) translate(326.000000, 154.000000) translate(512.000000, 159.000000) translate(0.000000, 0.000000) translate(19.030000, 13.840000)"/>
                            <path fill="#000" d="M74.736 32.244c-.155.05-.32.068-.482.05-.063-.007-.127-.007-.19 0-.05 0-.075-.133 0 .083 0 0 .066.108 0 .141.017-.048.03-.098.04-.149 0-.075 0-.1.092-.2.2-.456.415-.904.598-1.37.21-.458.315-.957.307-1.461 0-.39-.348-.98-.83-.83-.205.077-.398.183-.573.315l-.357.224c-.077.038-.152.08-.224.125-.117 0 0 .075.29.141 0 0 0-.05 0 0v-.1c.038-.125.097-.243.175-.348.156-.23.334-.444.531-.64.125-.133.258-.274.399-.398.141-.125.415-.067.648 0 .306.067.604.167.888.299.287.17.428.507.349.83-.128.748-.41 1.46-.83 2.093-.174.32-.368.627-.582.921-.07.09-.145.176-.224.258l-.1.108s-.074.041 0 0c-.365.15-.207.755.166.606.195-.093.363-.233.49-.407.214-.266.413-.543.598-.83.438-.681.766-1.427.972-2.21.112-.401.112-.826 0-1.228-.142-.373-.449-.659-.83-.772-.33-.13-.669-.235-1.014-.316-.329-.11-.69-.055-.971.15-.448.363-.832.798-1.138 1.287-.177.238-.254.536-.216.83.083.34.366.39.648.257.254-.136.5-.286.739-.448l.174-.1.075-.041c.515.324-.125 0-.125 0h.109c.086.163.11.352.066.531-.048.285-.126.563-.233.83-.207.565-.498 1.089-.714 1.661-.112.166-.112.383 0 .549.38.276.874.342 1.312.174.49-.133.332-.73-.033-.615z" transform="translate(-838.000000, -313.000000) translate(326.000000, 154.000000) translate(512.000000, 159.000000) translate(0.000000, 0.000000) translate(19.030000, 13.840000)"/>
                            <path fill="#000" d="M61.915 18.194c0 1.445-.2 2.898-.291 4.343-.083 1.295-.307 2.857.125 4.152.036.135.158.23.298.233 2.309 0 4.61 0 6.918.066 1.009.125 2.03.125 3.039 0 .205-.04.378-.176.465-.365.282-.842.367-1.737.25-2.616 0-1.379-.109-2.757-.175-4.152-.098-1.332-.126-2.668-.083-4.003v-.423c-2.6-2.815-.515 0-.557.041-.041.042 0 .075 0 .1-.003.252.028.503.092.747.224 2.002.365 4.011.515 6.012.09 1.146.166 2.292.24 3.438 0 .366 0 .74.058 1.105 0 .174-.05.64.05.44l.432-.108.125.158-.382.382 3.48.963c.093.026.194.006.271-.052.078-.058.125-.15.127-.247.148-3.526.01-7.059-.416-10.563-.274-2.026-.73-3.96-2.308-5.389-1.42-1.279-3.596-2.217-5.522-1.66-.4.154-.784.35-1.146.58-.724.311-1.547.296-2.259-.041-.793-.324-1.635-.51-2.491-.548-1.17.065-2.257.63-2.981 1.553-1.968 2.35-2.558 5.813-2.965 8.76-.227 1.611-.379 3.225-.456 4.842 0 .523-.05 1.038-.067 1.553 0 .107-.066.373 0 .465.133.257-.174-.175.2-.158-.341 0-.432.564-.084.614 1.113.158 2.492.241 3.438.382l.083-.614h-.091l.299.398c.299-2.18.631-4.362.996-6.543.225-1.329.44-2.666.764-3.97.114-.3.208-.608.283-.921-.241-.407-.35 0-.374 0-.025 0 .041.166 0 .207-.007.278.01.556.05.83.025.153.157.265.311.265.155 0 .287-.112.312-.264 0-.34.09-1.736-.59-1.595-.49.1-.606 1.188-.69 1.562-.589 2.607-.921 5.322-1.32 7.988-.116.758-.224 1.514-.323 2.267-.023.093-.002.19.056.267.058.076.147.121.243.123h.09c.341 0 .433-.564.084-.614-1.113-.15-2.491-.241-3.438-.374l-.083.606c.548 0 .432-.664.44-1.038 0-1.07.1-2.142.183-3.205.14-3.176.781-6.31 1.901-9.284.434-1.258 1.257-2.346 2.35-3.106 1.595-.921 3.056.067 4.676.366 1.054.199 1.586-.258 2.49-.665 1.016-.365 2.131-.332 3.123.092 2.192.837 3.75 2.806 4.06 5.132.62 3.856.82 7.768.599 11.667l.39-.3-3.48-.962c-.107-.027-.22.005-.298.083-.078.078-.11.191-.083.299.024.089.08.165.157.215.15.082.337.03.424-.116.096-.412.096-.841 0-1.254-.05-.93-.116-1.86-.183-2.79-.158-2.25-.324-4.492-.548-6.734.018-.53-.05-1.06-.2-1.57-.265-.49-.564-.19-.663.2-.179 1.292-.179 2.602 0 3.894.074 1.545.174 3.08.199 4.617.033.632.008 1.266-.075 1.893 0 .125 0 .382-.124.474-.125.091-1.396 0-1.661 0-2.732 0-5.464-.117-8.196-.075l.299.224c-.432-1.262-.175-2.881-.083-4.152.09-1.27.282-2.732.274-4.094-.045-.115-.153-.193-.276-.2-.123-.007-.24.058-.297.167zM58.76 45.431v1.736c-.275 2.026-1.662 7.374-1.969 7.606-.498.357-5.281.73-5.489.623-.207-.108-.93-7.34-.764-9.085.013-.505.12-1.003.316-1.47.19-.384.476-.713.83-.954 1.88-1.244 4.323-1.244 6.203 0 .555.313.89.908.872 1.544z" transform="translate(-838.000000, -313.000000) translate(326.000000, 154.000000) translate(512.000000, 159.000000) translate(0.000000, 0.000000) translate(19.030000, 13.840000)"/>
                            <path fill="#FFF" d="M56.766 54.806c-.573-.124-1.237-.39-1.138-.88.167-.755.914-1.212 1.346-1.843.277-.456.466-.96.556-1.487.258-1.12.972-4.393-.266-5.813-1.237-1.42-4.442-2.159-5.77 1.014-.731 1.58-.731 3.401 0 4.982.298.565.746 1.038 1.079 1.578.38.524.515 1.187.373 1.818-.398.597-.982 1.047-1.66 1.28.396.531 1 .87 1.66.93.324 0 1.736.506 2.492.19.315-.124 2.242-1.113 2.49-1.22.25-.108-.58-.457-1.162-.549z" transform="translate(-838.000000, -313.000000) translate(326.000000, 154.000000) translate(512.000000, 159.000000) translate(0.000000, 0.000000) translate(19.030000, 13.840000)"/>
                            <path fill="#000" d="M56.85 54.466c-.466-.108-1.105-.266-.773-.83.24-.366.519-.706.83-1.014.487-.608.807-1.332.93-2.1.331-1.282.457-2.607.374-3.928-.043-1.13-.647-2.165-1.61-2.757-.924-.554-2.03-.716-3.073-.449-3.048.88-3.621 5.506-2.11 7.848.499.772 1.487 1.66 1.254 2.69-.091.382-.465.615-.78.83-.316.216-.83.291-.922.549-.224.415.49.83.764.988.545.277 1.136.454 1.744.523.693.212 1.433.212 2.126 0 .54-.216 1.062-.515 1.594-.78.266-.133 1.005-.341 1.08-.69.14-.598-1.113-.756-1.462-.83-.349-.075-.556.515-.166.606.183.041.98.133 1.063.307v-.315c0-.075-.158.058-.241.1l-.59.29c-.465.232-.921.482-1.395.69-.5.195-1.05.225-1.57.082-.482-.066-.959-.166-1.427-.299-.18-.069-.352-.155-.515-.257-.092-.067-.25-.25-.357-.274l-.067-.067c0 .266.05.316.233.15.18-.066.349-.162.498-.282.479-.243.84-.668 1.005-1.18.332-1.544-1.23-2.607-1.727-3.894-.897-2.309.074-6.452 3.147-6.27.883.041 1.714.433 2.308 1.088.78.963.665 2.491.523 3.646-.028 1.404-.505 2.764-1.361 3.877-.39.416-.989 1.005-.889 1.661.1.656.83.83 1.362.972.188.055.385-.053.44-.24.055-.189-.053-.386-.24-.441z" transform="translate(-838.000000, -313.000000) translate(326.000000, 154.000000) translate(512.000000, 159.000000) translate(0.000000, 0.000000) translate(19.030000, 13.840000)"/>
                            <path fill="#000" d="M51.95 44.177c1.126-.732 2.49-1.005 3.811-.764.693.147 1.341.454 1.894.897.365.266.755.664.664 1.121-.032.148-.1.285-.2.399-.532.593-1.314.901-2.109.83-.772 0-1.536-.216-2.316-.207-.696-.046-1.351.33-1.661.955-.532.896-.432 2.391-.224 3.77-.939-.656-1.304-3.53-.98-5.199l1.12-1.802z" transform="translate(-838.000000, -313.000000) translate(326.000000, 154.000000) translate(512.000000, 159.000000) translate(0.000000, 0.000000) translate(19.030000, 13.840000)"/>
                            <path fill="#FFF" d="M64.09 94.383c.098.193.162.4.191.615.382.232 2.334.64 3.015 1.486.29.337.29.835 0 1.171-.183.233-5.373.324-6.17.266-.182.009-.362-.047-.507-.158-.111-.128-.181-.288-.2-.457-.198-.921-.356-2.018.3-2.699.307-.284.681-.484 1.088-.58.777-.033 1.553.088 2.283.356z" transform="translate(-838.000000, -313.000000) translate(326.000000, 154.000000) translate(512.000000, 159.000000) translate(0.000000, 0.000000) translate(19.030000, 13.840000)"/>
                            <path fill="#000" d="M63.766 94.574c.15.233.083.573.333.74.198.113.41.2.63.257.624.186 1.225.44 1.794.755.266.158.615.399.615.748.008.072.008.144 0 .216 0 .083-.058.133 0 .066.058-.066.083 0 0 0-.033-.004-.067-.004-.1 0-.282 0-.722.075-1.088.091-1.162.075-2.333.1-3.496.108h-1.179c-.08.009-.16.009-.24 0-.233-.066-.233-.332-.275-.531-.093-.408-.13-.827-.108-1.246.071-.815.778-1.426 1.595-1.378.338.02.673.063 1.005.133.153.025.306.058.456.1h.141c.05 0 0 .04 0 0 .34.34.83-.192.524-.532-.188-.147-.412-.239-.648-.266-.348-.079-.7-.137-1.055-.174-.756-.132-1.531.084-2.109.59-.627.722-.843 1.714-.573 2.632.067.44.125 1.005.556 1.254.26.12.546.172.83.15 1.205 0 2.409 0 3.613-.05.573 0 1.163-.05 1.736-.109.44 0 .83-.05 1.046-.481.515-.997-.399-1.786-1.212-2.184-.406-.198-.825-.367-1.254-.507-.285-.075-.563-.175-.83-.299l.174.225c-.034-.25-.116-.489-.241-.706-.258-.34-.905-.009-.64.398z" transform="translate(-838.000000, -313.000000) translate(326.000000, 154.000000) translate(512.000000, 159.000000) translate(0.000000, 0.000000) translate(19.030000, 13.840000)"/>
                            <path fill="#FFF" d="M49.425 94.383c-.097.193-.161.4-.19.615-.383.232-2.334.64-3.015 1.486-.29.337-.29.835 0 1.171.183.233 5.373.324 6.17.266.182.009.362-.047.506-.158.112-.128.182-.288.2-.457.2-.921.357-2.018-.3-2.699-.306-.284-.68-.484-1.087-.58-.777-.033-1.553.088-2.284.356z" transform="translate(-838.000000, -313.000000) translate(326.000000, 154.000000) translate(512.000000, 159.000000) translate(0.000000, 0.000000) translate(19.030000, 13.840000)"/>
                            <path fill="#000" d="M49.11 94.192c-.127.217-.209.457-.241.706l.174-.224c-.214.1-.436.184-.664.249-.365.125-.73.257-1.088.407-.697.307-1.586.83-1.66 1.66-.042.391.117.776.423 1.022.129.066.27.103.415.108.523.075 1.055.1 1.586.125 1.27.058 2.55.091 3.812.083.623 0 1.312 0 1.544-.706.337-.897.337-1.885 0-2.782-.446-.8-1.321-1.262-2.233-1.18-.408.037-.813.098-1.213.184-.282.022-.552.122-.78.29-.34.34.182.83.523.532-.083.09 0 0 0 0h.116l.365-.092c.308-.058.623-.108.939-.14.674-.111 1.344.224 1.66.83.142.378.185.787.125 1.187 0 .282-.05 1.063-.374 1.154-.35.042-.704.042-1.054 0-1.154 0-2.309 0-3.463-.083-.448 0-.897 0-1.345-.1-.09-.025-.182-.041-.274-.05 0 0 .091.067.1.05-.038-.062-.066-.129-.084-.199-.028-.225.063-.449.241-.59.576-.45 1.241-.773 1.952-.946.284-.076.562-.176.83-.299.307-.174.216-.506.382-.772.183-.449-.457-.78-.714-.424z" transform="translate(-838.000000, -313.000000) translate(326.000000, 154.000000) translate(512.000000, 159.000000) translate(0.000000, 0.000000) translate(19.030000, 13.840000)"/>
                            <path fill="#FFF" d="M50.173 69.247c.116 5.946-1.022 23.567-.88 24.43.024.244.12.475.274.665.217.19.486.31.772.349 1.03.121 2.072.102 3.097-.059.163-.106.277-.274.316-.465.207-.622 1.727-13.352 2.142-19.016 1.661 5.722 3.978 18.95 4.36 19.257.382.307 2.715.316 3.205.357.206.037.418.008.606-.083.188-.165.302-.398.316-.648.332-1.95-3.944-18.634-4.31-25.003-2.724-.506-9.898.216-9.898.216z" transform="translate(-838.000000, -313.000000) translate(326.000000, 154.000000) translate(512.000000, 159.000000) translate(0.000000, 0.000000) translate(19.030000, 13.840000)"/>
                            <path fill="#000" d="M49.824 69.247c.133 7.25-.498 14.524-.83 21.757-.076.86-.099 1.726-.067 2.59.158 1.786 2.4 1.545 3.712 1.445.648 0 1.13-.074 1.362-.83.073-.272.123-.55.15-.83.215-1.462.39-2.924.564-4.393.556-4.6 1.096-9.218 1.437-13.843l-.607.083c1.163 3.936 1.935 8.005 2.75 12.032.356 1.753.705 3.513 1.087 5.257.116.556.174 1.76.664 2.15.49.39 1.412.283 1.927.324.515.042 1.744.3 2.267-.1.714-.539.382-1.9.274-2.632-.507-3.537-1.345-7.041-2.06-10.546-.83-4.152-1.86-8.42-2.117-12.688-.003-.14-.097-.262-.233-.3-3.222-.555-6.742-.115-9.964.209-.399 0-.399.656 0 .622 3.172-.315 6.643-.772 9.815-.224l-.166-.299c.289 3.3.8 6.576 1.528 9.807.714 3.646 1.511 7.274 2.209 10.92.254 1.168.442 2.349.564 3.537.05.565.117 1.014-.706 1.146-.854.087-1.717.022-2.549-.19-.39-.1-.34-.075-.457-.499-.116-.423-.224-.93-.323-1.395-.35-1.586-.656-3.172-.98-4.766-.83-4.152-1.661-8.42-2.857-12.523-.048-.144-.191-.233-.342-.213-.15.02-.264.145-.272.296-.274 3.762-.698 7.474-1.13 11.269-.2 1.727-.41 3.451-.63 5.173-.067.565-.142 1.13-.225 1.66-.042.275-.05.89-.299 1.072-.307.091-.628.122-.947.091-.484.03-.969.03-1.453 0-.83-.066-1.279-.406-1.304-1.12 0-.939.059-1.886.1-2.824.15-3.38.332-6.76.482-10.14.166-3.694.373-7.415.307-11.118-.006-.122-.076-.231-.185-.287-.108-.055-.238-.05-.34.017-.103.066-.162.181-.156.303z" transform="translate(-838.000000, -313.000000) translate(326.000000, 154.000000) translate(512.000000, 159.000000) translate(0.000000, 0.000000) translate(19.030000, 13.840000)"/>
                            <path fill="#FFF" d="M46.278 76.272c.1.1.54 0 .606-.315.117-.532.092-2.101.166-2.325.077-.228.292-.38.532-.374.357.255.698.533 1.021.83.05.042.598.058.35-.407-.1-.199-1.271-1.66-1.47-1.876-.134-.193-.31-.352-.516-.465-.202-.067-.42-.067-.622 0-.281.061-.559.14-.83.232-.085.026-.162.072-.225.133-.038.074-.055.158-.05.24 0 .3.59 3.854 1.038 4.327z" transform="translate(-838.000000, -313.000000) translate(326.000000, 154.000000) translate(512.000000, 159.000000) translate(0.000000, 0.000000) translate(19.030000, 13.840000)"/>
                            <path fill="#000" d="M46.12 76.538c.258.191.673 0 .83-.174.182-.238.273-.532.258-.83 0-.333.017-.665.05-.997-.004-.25.01-.5.042-.748v-.05c0-.05.124-.107.174-.166.05-.058-.083-.066 0 0l.2.167.423.382c.109.127.25.224.407.282.254.094.54.001.688-.225.15-.227.122-.526-.066-.722-.298-.457-.664-.88-1.004-1.304-.34-.423-.706-1.02-1.23-1.137-.497-.047-.998.04-1.453.249-.337.073-.572.378-.556.722.034.391.092.78.175 1.163.116.664.24 1.32.406 1.968.077.488.261.954.54 1.362.274.299.714-.141.449-.44 0 0 0 .05 0 0l-.05-.075-.075-.174c-.076-.201-.14-.406-.191-.615-.141-.49-.25-.996-.349-1.503-.1-.506-.166-.897-.232-1.345-.006-.105-.006-.21 0-.316v-.116c.093-.05.194-.084.299-.1l.365-.1c.18-.066.374-.089.565-.066.166 0 .274.208.382.332l.324.382c.315.382.622.773.921 1.163.077.12.16.237.25.349.05.058 0 .058.05 0h-.075.05c-.036-.043-.078-.08-.125-.108-.241-.208-.465-.44-.714-.631-.24-.201-.59-.201-.83 0-.499.34-.408 1.038-.424 1.57 0 .306 0 .614-.05.92 0 .108-.017.214-.05.316 0 0-.066.05-.108.084-.041.033-.083 0 0 0-.274-.241-.581.298-.266.531z" transform="translate(-838.000000, -313.000000) translate(326.000000, 154.000000) translate(512.000000, 159.000000) translate(0.000000, 0.000000) translate(19.030000, 13.840000)"/>
                            <path fill="#D2D8FF" d="M50.198 61.45c0 1.494-.714 6.975-.175 8.378 3.53-.066 5.68 0 9.21-.066 1.03 0 2.366-8.454 2.673-11.368.141-1.28 3.563-.216 5.348-4.036 1.034-2.295 1.324-4.856.83-7.324-.987.048-1.97-.167-2.848-.623-.755 1.387-.083 3.778-1.536 6.02-1.885 2.923-5.589.756-7.78 2.309-1.064.756-1.878.39-3.68-.2-7.747-2.499-7.556 16.874-7.648 16.874-.83-.083 4.07.449 3.247.366 0-.009 2.25-16.201 2.359-10.33z" transform="translate(-838.000000, -313.000000) translate(326.000000, 154.000000) translate(512.000000, 159.000000) translate(0.000000, 0.000000) translate(19.030000, 13.840000)"/>
                            <path fill="#FFF" d="M67.138 41.686c-.294-.193-.655-.257-.997-.174-.207.116.972 3.653-.357 3.761-.133 0-.946-1.054-1.046-.955-.457.432.515 1.91.614 2.085.087.182.258.31.457.34.58.052 1.163.007 1.727-.133.283-.188.469-.492.507-.83.117-1.425-.199-2.851-.905-4.094z" transform="translate(-838.000000, -313.000000) translate(326.000000, 154.000000) translate(512.000000, 159.000000) translate(0.000000, 0.000000) translate(19.030000, 13.840000)"/>
                            <path fill="#000" d="M67.262 41.42c-.406-.257-1.536-.531-1.486.258 0 .49.166.988.232 1.478.126.516.126 1.054 0 1.57-.019.066-.056.127-.107.174h-.05s-.141 0 0 0c.14 0 .058 0 0 0l-.125-.058-.349-.374c-.157-.166-.365-.448-.622-.448-.258 0-.457.406-.449.672.08.63.317 1.23.69 1.744.14.322.428.557.772.631.276.024.554.024.83 0 .354.01.706-.05 1.038-.174.371-.22.622-.595.681-1.022.132-.902.055-1.822-.224-2.69-.097-.389-.225-.77-.382-1.138-.08-.248-.226-.47-.424-.64-.315-.24-.63.3-.315.532-.067-.05 0 0 0 0l.066.1c.05.1.1.2.141.299.114.27.211.548.291.83.21.678.321 1.383.332 2.093.016.326-.065.65-.232.93-.175.224-.499.224-.773.24-.276.024-.554.024-.83 0-.208 0-.282-.174-.382-.34-.32-.417-.528-.908-.606-1.428.004-.039.004-.078 0-.116 0 0-.092-.142 0 0 0 0-.316.083-.316.066h.058l.142.141c.182.183.348.39.54.573.137.175.363.256.58.208.214-.054.4-.184.524-.366.226-.412.314-.887.249-1.353-.04-.58-.118-1.157-.233-1.727 0-.208-.05-.332-.074-.49-.025-.158 0 0 0 0s-.125.14-.117.15h.1c.203.02.4.078.581.174.308.249.623-.291.25-.499z" transform="translate(-838.000000, -313.000000) translate(326.000000, 154.000000) translate(512.000000, 159.000000) translate(0.000000, 0.000000) translate(19.030000, 13.840000)"/>
                            <path fill="#000" d="M49.89 61.45c0 1.444-.199 2.906-.29 4.35-.218 1.38-.175 2.789.124 4.153.038.134.16.226.3.224h8.038c.495.076 1.002.034 1.478-.124.481-.283.672-1.097.83-1.578.336-1.072.613-2.162.83-3.264.25-1.245.466-2.49.656-3.761l.225-1.553c0-.456.056-.911.166-1.354.266-.614 1.428-.672 2.01-.888.974-.346 1.836-.952 2.49-1.752 1.852-2.326 2.31-6.02 1.661-8.87-.042-.134-.165-.228-.307-.232-.935.077-1.87-.125-2.69-.58-.072-.043-.157-.054-.237-.032-.08.022-.147.075-.187.147-1.046 1.993-.216 4.493-1.877 6.353-1.395 1.586-3.678.963-5.522 1.17-.657.08-1.29.294-1.86.632-1.204.69-2.217.141-3.438-.224-.902-.322-1.888-.322-2.79 0-1.926.78-2.906 2.956-3.53 4.791-.77 2.475-1.255 5.03-1.444 7.615-.1 1.096-.174 2.2-.216 3.321 0 .333 0 .673-.041 1.005 0 .581 0 .067.19.083-.34 0-.431.565-.082.606 1.12.15 2.433.25 3.437.382l.083-.614h-.09l.298.399c.31-2.215.645-4.43 1.005-6.644.224-1.312.44-2.64.764-3.936 0-.124.299-.83.274-.888-.49-.78-.34.265-.332.224-.017.276-.017.554 0 .83.025.153.157.265.311.265.155 0 .287-.112.311-.265 0-.348.1-1.66-.556-1.594-.515.058-.631 1.18-.714 1.544-.606 2.608-.972 5.282-1.37 7.93-.116.781-.224 1.554-.332 2.334-.026.093-.007.193.052.27.058.077.15.121.247.12h.091c.349 0 .432-.564.083-.606-1.121-.15-2.425-.249-3.438-.382l-.083.615c.756 0 .507-2.574.54-3.048.122-2.562.475-5.108 1.054-7.606.515-2.101 1.32-4.983 3.405-6.062 1.23-.64 2.4-.191 3.637.19.712.297 1.498.367 2.25.2.312-.13.61-.292.89-.481.564-.293 1.19-.45 1.826-.457 1.769-.108 3.762.266 5.207-1.046.844-.844 1.396-1.935 1.577-3.114.241-1.213.083-2.575.623-3.704l-.423.116c.938.532 2.015.767 3.089.673l-.3-.224c.607 2.657.175 6.161-1.56 8.304-.717.853-1.685 1.46-2.766 1.735-.603.078-1.176.312-1.66.681-.374.424-.308 1.204-.374 1.727-.15 1.105-.324 2.21-.507 3.322-.222 2.065-.696 4.095-1.411 6.045-.224.515-.283.54-.88.548h-8.612l.308.233c-.44-1.279-.183-2.89-.092-4.202.092-1.312.283-2.732.274-4.094-.033-.153-.173-.258-.33-.248-.155.01-.28.134-.293.29z" transform="translate(-838.000000, -313.000000) translate(326.000000, 154.000000) translate(512.000000, 159.000000) translate(0.000000, 0.000000) translate(19.030000, 13.840000)"/>
                            <path fill="#FFF" d="M73.656 94.383c-.102.192-.17.4-.199.615-.373.232-2.325.64-3.014 1.486-.29.337-.29.835 0 1.171.183.233 5.38.324 6.178.266.18.007.356-.048.498-.158.112-.13.184-.288.208-.457.19-.921.349-2.018-.307-2.699-.306-.285-.681-.485-1.088-.58-.775-.033-1.548.088-2.276.356z" transform="translate(-838.000000, -313.000000) translate(326.000000, 154.000000) translate(512.000000, 159.000000) translate(0.000000, 0.000000) translate(19.030000, 13.840000)"/>
                            <path fill="#000" d="M73.333 94.192c-.128.216-.208.457-.233.706l.166-.224c-.21.102-.43.185-.656.249-.374.125-.73.257-1.088.407-.705.307-1.586.83-1.66 1.66-.049.39.108.777.415 1.022.129.065.27.102.415.108.523.075 1.063.1 1.594.125 1.27.058 2.541.091 3.812.083.614 0 1.304 0 1.536-.706.336-.897.336-1.885 0-2.782-.45-.8-1.328-1.261-2.242-1.18-.407.037-.812.098-1.212.184-.282.023-.552.124-.78.29-.148.147-.148.385 0 .532.146.146.384.146.53 0-.09.09 0 0-.05 0l.134-.042.365-.091c.315-.058.631-.108.947-.141.675-.116 1.347.22 1.66.83.142.379.184.787.125 1.187 0 .283-.05 1.063-.365 1.155-.354.041-.71.041-1.063 0-1.155 0-2.309 0-3.463-.083-.449 0-.897 0-1.345-.1-.09-.025-.182-.042-.274-.05 0 0 .091.067.108.05.016-.017-.083-.183-.092-.2-.028-.224.063-.448.241-.589.579-.45 1.247-.773 1.96-.947.268-.078.529-.178.78-.298.308-.175.216-.507.39-.773.25-.407-.398-.739-.655-.382z" transform="translate(-838.000000, -313.000000) translate(326.000000, 154.000000) translate(512.000000, 159.000000) translate(0.000000, 0.000000) translate(19.030000, 13.840000)"/>
                            <path fill="#FFF" d="M88.986 93.345c.102.192.17.4.199.615.382.232 2.333.64 3.014 1.494.29.337.29.835 0 1.171-.182.225-5.372.316-6.17.266-.18.001-.358-.054-.506-.158-.113-.13-.183-.293-.2-.465-.199-.921-.356-2.018.3-2.699.306-.284.68-.484 1.087-.58.775-.03 1.547.092 2.276.356z" transform="translate(-838.000000, -313.000000) translate(326.000000, 154.000000) translate(512.000000, 159.000000) translate(0.000000, 0.000000) translate(19.030000, 13.840000)"/>
                            <path fill="#000" d="M88.67 93.536c.15.241.083.573.332.748.2.11.411.197.631.257.625.18 1.227.43 1.794.747.266.166.615.407.615.748-.005.073-.02.146-.042.216 0 .083-.058.133 0 .066.058-.066.083 0 0 0h-.1c-.282 0-.722.075-1.096.1-1.154.066-2.325.091-3.487.1h-1.18c-.08.012-.16.012-.24 0-.233-.059-.233-.324-.274-.532-.094-.405-.13-.822-.108-1.237.07-.816.777-1.427 1.594-1.379.337.02.673.062 1.005.125.15 0 .307.058.456.1l.142.05c.05 0 .041 0 0 0 .148.11.357.096.488-.036.132-.131.146-.34.035-.488-.187-.15-.41-.244-.648-.274-.349-.075-.706-.133-1.055-.174-.756-.132-1.53.084-2.109.59-.626.722-.844 1.712-.581 2.632.075.44.133 1.004.565 1.253.26.12.545.174.83.158 1.204 0 2.408 0 3.604-.058.581 0 1.17 0 1.744-.1.44-.05.83-.05 1.046-.49.515-.988-.398-1.785-1.212-2.183-.408-.193-.827-.363-1.254-.507-.285-.075-.563-.175-.83-.299l.174.224c-.034-.246-.116-.483-.241-.697-.216-.44-.864-.067-.598.34zM79.154 44.842v2.49c.348 1.895 1.086 3.696 2.167 5.29.164.335.393.635.673.88.492.369 1.168.369 1.66 0 .163-.152.338-.29.524-.415.83-.5 1.563-1.144 2.167-1.901.63-1.42.848-2.988.631-4.526-.016-.473-.114-.94-.29-1.378-.186-.362-.453-.675-.781-.914-3.264-2.333-6.751.474-6.751.474z" transform="translate(-838.000000, -313.000000) translate(326.000000, 154.000000) translate(512.000000, 159.000000) translate(0.000000, 0.000000) translate(19.030000, 13.840000)"/>
                            <path fill="#FFF" d="M81.487 55.056c.386-.3.575-.79.49-1.271-.141-.714-.83-1.154-1.237-1.76-.255-.435-.427-.914-.507-1.412-.216-1.071-.83-4.152.34-5.522.756-.854 1.906-1.244 3.025-1.028 1.12.217 2.04 1.009 2.423 2.082.657 1.51.614 3.233-.116 4.709-.29.523-.714.971-1.046 1.478-.321.509-.453 1.114-.374 1.71.058.499.88.665.64.922-.075.083-1.33.515-1.437.557-.557.215-2.2-.465-2.2-.465z" transform="translate(-838.000000, -313.000000) translate(326.000000, 154.000000) translate(512.000000, 159.000000) translate(0.000000, 0.000000) translate(19.030000, 13.840000)"/>
                            <path fill="#000" d="M81.711 55.271c.914-.83.623-1.885-.083-2.682-.451-.434-.788-.973-.98-1.57-.116-.414-.19-.83-.265-1.278-.3-1.719-.582-4.152 1.262-5.057.704-.372 1.525-.458 2.292-.241 1.01.396 1.752 1.273 1.976 2.333.457 1.35.325 2.83-.365 4.078-.606.988-1.794 2.06-1.337 3.371.083.21.225.39.407.523 0 0 .2.183.224.175l.108-.208h-.083c-.221.05-.434.13-.631.24l-.515.184c-.744.09-1.497-.059-2.15-.424-.366-.158-.532.448-.159.598.691.368 1.47.54 2.25.498.339-.09.67-.206.989-.349.266-.1.68-.182.83-.473.175-.44-.34-.59-.548-.83-.158-.354-.158-.76 0-1.113.155-.428.388-.822.69-1.163.929-1.13 1.363-2.589 1.204-4.044-.233-2.142-1.528-4.368-3.953-4.152-.817.068-1.593.39-2.217.922-.73.715-1.124 1.703-1.088 2.724-.013 1.118.11 2.233.365 3.321.125.742.453 1.435.947 2.002.556.622 1.229 1.411.39 2.134-.307.307.108.747.44.481z" transform="translate(-838.000000, -313.000000) translate(326.000000, 154.000000) translate(512.000000, 159.000000) translate(0.000000, 0.000000) translate(19.030000, 13.840000)"/>
                            <path fill="#000" d="M85.598 44.916c-1.065-.685-2.345-.954-3.596-.755-.653.111-1.27.376-1.802.772-.349.232-.722.59-.64 1.005.029.131.089.254.175.357.511.544 1.24.83 1.985.78.73 0 1.461-.166 2.192-.15.287 0 .57.063.83.184.302.164.55.412.714.714.423.867.625 1.826.59 2.79.644-1.25.844-2.682.565-4.06l-1.013-1.637z" transform="translate(-838.000000, -313.000000) translate(326.000000, 154.000000) translate(512.000000, 159.000000) translate(0.000000, 0.000000) translate(19.030000, 13.840000)"/>
                            <path fill="#D2D8FF" d="M88.022 69.189c-.124 5.946 1.263 22.587 1.121 23.459-.026.24-.12.468-.274.656-.213.196-.484.318-.772.349-1.03.123-2.072.107-3.097-.05-.16-.11-.273-.276-.316-.465-.207-.631-1.968-12.382-2.383-18.053-1.71 5.73-4.418 19.016-4.8 19.323-.382.307-2.715.316-3.205.357-.206.037-.418.008-.606-.083-.188-.165-.302-.398-.316-.648-.332-1.95 4.385-18.692 4.75-25.061 2.707-.507 9.898.216 9.898.216z" transform="translate(-838.000000, -313.000000) translate(326.000000, 154.000000) translate(512.000000, 159.000000) translate(0.000000, 0.000000) translate(19.030000, 13.840000)"/>
                            <path fill="#231F20" d="M87.632 69.189c-.116 6.452.532 12.946.93 19.381.075 1.097.15 2.193.183 3.322.025.235.025.471 0 .706-.2.963-1.453.83-2.2.83-.409.039-.82.013-1.221-.074-.233-.1-.258-.167-.35-.407-.098-.359-.165-.726-.198-1.096-.225-1.37-.432-2.75-.632-4.152-.597-4.152-1.187-8.363-1.503-12.573-.018-.177-.156-.318-.333-.34-.176-.022-.345.082-.406.249-1.07 3.637-1.893 7.357-2.748 11.06-.407 1.761-.83 3.53-1.221 5.29-.141.582-.282 1.163-.432 1.736-.038.376-.145.742-.315 1.08-.566.113-1.142.169-1.72.166-.63 0-1.66.274-1.768-.59 0-1.014.153-2.022.457-2.99.714-3.52 1.56-7.008 2.333-10.512.952-3.696 1.613-7.461 1.976-11.26l-.274.365c3.156-.548 6.644-.091 9.8.224.48.05.473-.697 0-.747-3.248-.324-6.769-.756-9.966-.2-.16.045-.272.19-.274.358-.367 3.776-1.028 7.519-1.976 11.193-.83 3.704-1.744 7.4-2.491 11.136-.248.889-.357 1.81-.324 2.732.216 1.66 2.757 1.088 3.944.905.989-.15 1.047-.648 1.28-1.536.406-1.52.747-3.056 1.095-4.592 1.055-4.55 2.018-9.135 3.322-13.627l-.73-.1c.298 4.028.83 8.039 1.427 12.033.225 1.578.449 3.155.706 4.725.133.764.133 1.86.997 2.15.741.164 1.504.204 2.258.117.756 0 1.661-.125 2.052-.897.202-.705.239-1.446.107-2.167-.174-3.372-.423-6.743-.63-10.106-.233-3.912-.515-7.84-.449-11.75-.043-.154-.179-.264-.338-.274-.16-.009-.307.084-.368.232z" transform="translate(-838.000000, -313.000000) translate(326.000000, 154.000000) translate(512.000000, 159.000000) translate(0.000000, 0.000000) translate(19.030000, 13.840000)"/>
                            <path fill="#FFF" d="M91.9 76.214c-.1.1-.54 0-.606-.315-.124-.532-.091-2.101-.174-2.326-.073-.227-.284-.382-.523-.382-.355.26-.696.536-1.022.83-.05 0-.598.059-.349-.406.1-.2 1.271-1.66 1.47-1.877.134-.192.31-.352.515-.465.202-.066.42-.066.623 0 .282.058.56.136.83.233.084.02.16.067.216.133.045.072.065.156.058.24-.008.366-.59 3.862-1.038 4.335z" transform="translate(-838.000000, -313.000000) translate(326.000000, 154.000000) translate(512.000000, 159.000000) translate(0.000000, 0.000000) translate(19.030000, 13.840000)"/>
                            <path fill="#000" d="M91.743 75.94s-.092 0-.117-.066c-.025-.067-.05-.15-.058-.225 0-.274-.041-.556-.058-.83.03-.45-.004-.904-.1-1.345-.115-.357-.456-.592-.83-.573-.257 0-.473.266-.656.432l-.374.34-.083.067h-.041c.021-.008.045-.008.066 0h-.075c-.016 0 0 0 0 0s.059.074.05.074c-.008 0 0 0 0 0s.067-.116.092-.14c.257-.375.556-.732.83-1.089.133-.166.274-.34.415-.498.141-.158.3-.423.507-.507.184-.033.373-.016.548.05.24.027.472.095.69.2.049 0 .049 0 .04.116.005.052.005.105 0 .158v.166l-.05.282c0 .224-.074.448-.115.681-.108.573-.225 1.146-.366 1.719-.066.232-.133.465-.207.69l-.092.223-.05.092c-.041.066 0 0 0 0-.265.299.175.739.44.44.254-.346.422-.748.49-1.171.158-.573.283-1.154.39-1.736.109-.58.175-.946.225-1.428.038-.178.02-.363-.05-.531-.095-.163-.25-.282-.432-.333-.271-.096-.549-.177-.83-.24-.423-.132-.884-.023-1.204.282-.166.174-.316.357-.465.54-.366.44-.731.897-1.071 1.353-.139.154-.243.335-.308.532-.037.14-.016.289.06.413.075.124.197.211.339.243.274.043.551-.054.739-.258l.423-.382.183-.157s.125.066.175.166c.05.1 0 .066 0 .058v.407c0 .365 0 .739.05 1.104-.02.32.04.64.174.93.166.274.672.523.971.307.3-.215.058-.797-.265-.556z" transform="translate(-838.000000, -313.000000) translate(326.000000, 154.000000) translate(512.000000, 159.000000) translate(0.000000, 0.000000) translate(19.030000, 13.840000)"/>
                            <path fill="#FFF" d="M88.022 61.45c0 1.494.715 6.967.166 8.378-3.529-.066-5.671 0-9.2-.066-1.03 0-2.367-8.454-2.674-11.368-.141-1.28-3.197-2.06-4.983-5.88-1.035-2.294-1.326-4.855-.83-7.324.989.048 1.972-.17 2.848-.63.764 1.394.083 3.786 1.536 6.028 1.894 2.923 5.224 2.59 7.416 4.152 1.063.756 1.877.39 3.679-.2 7.747-2.49 7.548 16.85 7.648 16.841.83-.083-4.07.449-3.247.366-.042-.034-2.292-16.226-2.359-10.297zM69.812 40.025c.244-.256.584-.397.938-.39.216.066-.141 3.77 1.17 3.587.134 0 .698-1.237.831-1.162.54.324-.083 1.976-.133 2.167-.048.197-.187.36-.373.44-.553.175-1.131.256-1.71.241-.322-.113-.573-.367-.682-.69-.438-1.36-.453-2.823-.041-4.193z" transform="translate(-838.000000, -313.000000) translate(326.000000, 154.000000) translate(512.000000, 159.000000) translate(0.000000, 0.000000) translate(19.030000, 13.840000)"/>
                            <path fill="#000" d="M70.028 40.241c.126-.118.276-.208.44-.266.044.005.088.005.133 0 0-.041.058.083 0 0-.059-.083-.108-.116-.1-.116v.075c0 .008 0-.058 0 0v.25c0 .472 0 .954.1 1.427.03.5.16.989.382 1.437.199.34.68.706 1.087.482.176-.138.313-.318.399-.524l.2-.34c.075-.099.142-.205.199-.316-.09.064-.21.064-.3 0v.059c.01.113.01.227 0 .34-.026.282-.082.56-.165.83-.05.191-.108.382-.175.565-.066.183-.307.282-.564.34-.31.083-.627.133-.947.15-.366 0-.565-.257-.698-.573-.244-.735-.337-1.512-.274-2.284.014-.336.044-.671.092-1.004 0-.125.05-.258.083-.382.033-.125 0-.092 0-.133 0-.042.066-.083 0 0 .257-.3-.183-.748-.44-.44-.13.179-.212.387-.241.606-.066.34-.11.684-.133 1.03-.068.797-.015 1.6.158 2.383.084.413.279.795.564 1.104.294.269.699.38 1.088.3.365-.039.726-.106 1.08-.2.364-.069.663-.33.78-.681.216-.53.345-1.09.382-1.66.04-.307-.064-.614-.282-.831-.282-.25-.523 0-.69.216-.165.216-.307.523-.464.78 0 0-.067.117-.058.083.008-.033-.117.067 0 0 .116-.066.05 0 0 0s-.1 0-.183-.058c-.043-.052-.082-.108-.116-.166-.055-.09-.097-.188-.125-.29-.09-.27-.148-.548-.174-.831-.067-.573-.058-1.146-.117-1.719 0-.183 0-.407-.224-.506-.407-.233-1.03.157-1.312.431-.12.17-.078.404.091.524.17.119.404.078.524-.092z" transform="translate(-838.000000, -313.000000) translate(326.000000, 154.000000) translate(512.000000, 159.000000) translate(0.000000, 0.000000) translate(19.030000, 13.840000)"/>
                            <path fill="#000" d="M87.665 61.45c0 1.361.183 2.732.274 4.093.092 1.362.34 2.923-.091 4.202l.299-.232h-7.299c-.474 0-1.595.174-1.943-.1-.35-.274-.623-1.544-.764-2.068-.274-1.054-.49-2.125-.69-3.197-.199-1.07-.398-2.233-.564-3.321-.062-.836-.173-1.668-.332-2.491-.238-.572-.643-1.059-1.163-1.395-.853-.65-1.645-1.375-2.367-2.168-2.14-2.618-2.975-6.068-2.267-9.375l-.299.224c1.046.08 2.092-.151 3.006-.664l-.423-.116c.337.992.513 2.032.523 3.08.128 1.2.57 2.346 1.279 3.322 1.121 1.486 2.782 2.126 4.492 2.682.885.19 1.744.486 2.558.88.605.464 1.371.664 2.126.557 1.412-.224 2.699-1.13 4.152-.665 2.2.69 3.147 3.496 3.703 5.481.657 2.514 1.063 5.087 1.213 7.681.066.955.116 1.902.15 2.857 0 .357-.084.922.431.897l-.075-.606c-1.013.132-2.316.224-3.437.381-.35 0-.266.623.083.607h.09c.096-.003.186-.048.244-.124.058-.076.079-.174.056-.267-.266-1.943-.565-3.886-.88-5.812-.216-1.346-.44-2.69-.731-4.02-.091-.456-.175-1.577-.615-1.876-.83-.548-.739 1.179-.747 1.503.025.152.157.264.311.264.155 0 .287-.112.312-.264.03-.276.044-.553.041-.83 0 0 .166-1.014-.34-.225 0 0 .249.772.282.88.324 1.304.54 2.633.756 3.945.374 2.192.706 4.393 1.013 6.601l.299-.398h-.091l.083.614c1.004-.132 2.316-.232 3.43-.382.348-.05.265-.63-.084-.614.415 0 .108.506.2 0 .03-.276.03-.555 0-.83-.042-.906-.092-1.82-.158-2.724-.162-2.525-.568-5.028-1.213-7.474-.548-1.96-1.378-4.268-3.155-5.447-.749-.496-1.65-.708-2.541-.598-.743.147-1.473.353-2.184.614-.458.174-.95.233-1.437.175-.49-.183-.954-.432-1.378-.74-1.869-.996-4.152-1.129-5.772-2.59-1.109-1.082-1.775-2.539-1.868-4.086-.02-1.026-.21-2.042-.565-3.006-.095-.141-.281-.188-.431-.108-.821.453-1.757.656-2.69.582-.141.002-.263.097-.3.232-.561 2.663-.204 5.438 1.013 7.872.625 1.214 1.47 2.3 2.491 3.206.648.59 1.703 1.137 2.151 1.901.449.764.324 1.844.44 2.608.183 1.237.382 2.49.615 3.703.232 1.213.456 2.325.78 3.463.12.679.384 1.324.773 1.893.117.16.288.272.481.316.991.108 1.99.108 2.981 0h6.262c.139-.003.262-.093.307-.224.3-1.364.342-2.773.124-4.152-.091-1.445-.299-2.907-.29-4.352-.062-.176-.256-.27-.432-.207-.177.062-.27.255-.208.432z" transform="translate(-838.000000, -313.000000) translate(326.000000, 154.000000) translate(512.000000, 159.000000) translate(0.000000, 0.000000) translate(19.030000, 13.840000)"/>
                            <path fill="#FFF" d="M76.596 137.323c.103.188.17.394.2.606.373.241 2.325.64 3.014 1.495.286.338.286.833 0 1.171-.183.224-5.381.316-6.178.266-.18.007-.356-.048-.499-.158-.112-.132-.184-.293-.207-.465-.191-.922-.349-2.01.307-2.69.303-.289.68-.49 1.088-.582.774-.032 1.548.09 2.275.357z" transform="translate(-838.000000, -313.000000) translate(326.000000, 154.000000) translate(512.000000, 159.000000) translate(0.000000, 0.000000) translate(19.030000, 13.840000)"/>
                            <path fill="#000" d="M76.272 137.506c.158.24.083.573.332.747.202.112.417.198.64.258.624.181 1.225.432 1.793.747.266.166.615.407.615.756.004.069.004.138 0 .207 0 .083-.066.133 0 .067.066-.067.091 0 0 0h-.091c-.291.05-.731.075-1.097.1-1.162.066-2.325.09-3.487.1h-1.18c-.082.007-.166.007-.248 0-.225-.06-.225-.325-.266-.532-.094-.406-.13-.822-.108-1.238.066-.817.776-1.43 1.594-1.378.338.02.674.063 1.005.133.151.025.3.058.448.1h.15c.05 0 0 0 0 0 .147.13.37.125.51-.013s.15-.362.021-.51c-.188-.146-.411-.238-.647-.267-.348-.078-.7-.136-1.055-.174-.755-.142-1.533.073-2.11.581-.628.722-.847 1.714-.58 2.633.074.44.132 1.005.556 1.254.259.121.545.175.83.157 1.204 0 2.408 0 3.604-.058.582 0 1.163-.041 1.744-.1.44-.04.83-.05 1.038-.481.515-.996-.399-1.794-1.204-2.192-.41-.195-.832-.364-1.262-.507-.286-.072-.564-.172-.83-.299l.165.224c-.026-.246-.106-.484-.232-.697-.257-.399-.905-.025-.648.382z" transform="translate(-838.000000, -313.000000) translate(326.000000, 154.000000) translate(512.000000, 159.000000) translate(0.000000, 0.000000) translate(19.030000, 13.840000)"/>
                            <path fill="#FFF" d="M63.268 137.323c-.103.188-.17.394-.2.606-.373.241-2.324.64-3.013 1.495-.287.338-.287.833 0 1.171.182.224 5.38.316 6.178.266.18.009.356-.047.498-.158.112-.132.184-.293.208-.465.199-.922.348-2.01-.3-2.69-.307-.288-.685-.488-1.096-.582-.774-.032-1.547.09-2.275.357z" transform="translate(-838.000000, -313.000000) translate(326.000000, 154.000000) translate(512.000000, 159.000000) translate(0.000000, 0.000000) translate(19.030000, 13.840000)"/>
                            <path fill="#000" d="M62.944 137.132c-.126.213-.205.451-.232.698l.166-.224c-.21.105-.43.189-.656.249-.366.124-.73.257-1.088.415-.697.307-1.586.78-1.66 1.66-.049.393.108.782.414 1.03.13.064.271.101.416.108.531.075 1.063.1 1.594.125 1.27.058 2.541.091 3.812.083.614 0 1.312 0 1.536-.706.336-.9.336-1.89 0-2.79-.45-.8-1.329-1.259-2.242-1.17-.405.032-.807.09-1.204.173-.287.022-.56.126-.79.3-.128.148-.119.372.022.51.14.138.363.143.51.013-.091.09 0 0-.041 0l.133-.05.357-.083c.312-.068.628-.115.946-.141.676-.119 1.35.218 1.661.83.145.375.188.782.125 1.18 0 .29-.05 1.07-.366 1.153-.353.046-.71.046-1.063 0-1.154 0-2.308 0-3.454-.091-.449 0-.905-.041-1.354-.091-.088-.03-.18-.05-.274-.058 0 0 .1.066.108.05.009-.017-.083-.175-.091-.2-.024-.224.07-.444.249-.581.574-.455 1.24-.78 1.951-.955.27-.072.53-.17.781-.29.307-.175.216-.507.39-.781.25-.399-.398-.773-.656-.366zM65.029 87.84v2.49c.35 1.895 1.088 3.696 2.167 5.29.164.336.392.635.673.88.492.369 1.168.369 1.66 0 .163-.152.338-.29.524-.414.827-.503 1.56-1.147 2.167-1.902.63-1.42.848-2.988.631-4.526-.016-.473-.114-.94-.29-1.378-.186-.362-.453-.675-.781-.914-3.264-2.333-6.751.474-6.751.474z" transform="translate(-838.000000, -313.000000) translate(326.000000, 154.000000) translate(512.000000, 159.000000) translate(0.000000, 0.000000) translate(19.030000, 13.840000)"/>
                            <path fill="#FFF" d="M67.362 98.045c.386-.296.575-.783.49-1.262-.141-.714-.83-1.154-1.237-1.769-.262-.432-.434-.912-.507-1.411-.224-1.063-.83-4.152.34-5.514.756-.854 1.906-1.244 3.025-1.028 1.12.217 2.04 1.009 2.423 2.082.658 1.507.615 3.228-.116 4.7-.29.532-.714.972-1.047 1.487-.31.495-.441 1.08-.373 1.66.058.499.88.665.64.93-.076.084-1.33.516-1.437.557-.557.258-2.2-.432-2.2-.432z" transform="translate(-838.000000, -313.000000) translate(326.000000, 154.000000) translate(512.000000, 159.000000) translate(0.000000, 0.000000) translate(19.030000, 13.840000)"/>
                            <path fill="#000" d="M67.586 98.27c.914-.83.623-1.885-.083-2.683-.45-.435-.786-.974-.98-1.57-.116-.423-.19-.83-.265-1.286-.3-1.71-.582-4.152 1.262-5.057.707-.366 1.526-.449 2.292-.233 1.011.393 1.755 1.271 1.976 2.334.453 1.345.317 2.82-.374 4.06-.606.988-1.793 2.068-1.337 3.38.084.21.225.39.407.523 0 0 .2.183.225.174l.108-.215-.092.05c-.218.05-.427.131-.623.24l-.514.183c-.745.087-1.498-.064-2.151-.432-.366-.15-.532.448-.166.606.694.365 1.475.534 2.258.49.338-.088.668-.202.989-.34.257-.1.68-.183.83-.474.174-.44-.34-.59-.548-.83-.159-.354-.159-.759 0-1.113.154-.427.388-.822.69-1.162.927-1.135 1.36-2.595 1.203-4.053-.232-2.142-1.528-4.36-3.96-4.152-.848.054-1.655.38-2.301.93-.7.723-1.07 1.703-1.021 2.708-.019 1.118.104 2.234.365 3.321.125.744.452 1.44.947 2.01.556.622 1.229 1.411.39 2.134-.274.282.15.714.473.457z" transform="translate(-838.000000, -313.000000) translate(326.000000, 154.000000) translate(512.000000, 159.000000) translate(0.000000, 0.000000) translate(19.030000, 13.840000)"/>
                            <path fill="#000" d="M71.473 87.914c-1.064-.688-2.344-.96-3.596-.764-.654.115-1.271.382-1.802.781-.349.233-.723.581-.648 1.005.036.13.098.252.183.357.513.541 1.24.825 1.985.772.73 0 1.461-.166 2.192-.141.287 0 .57.062.83.183.303.162.552.41.714.714.423.867.625 1.826.59 2.79.644-1.25.843-2.682.565-4.06l-1.013-1.637z" transform="translate(-838.000000, -313.000000) translate(326.000000, 154.000000) translate(512.000000, 159.000000) translate(0.000000, 0.000000) translate(19.030000, 13.840000)"/>
                            <path fill="#FFF" d="M74.96 82.367c.067-.124.523-.108.656.158.25.482.606 2.01.74 2.209.128.203.373.3.605.24.28-.344.54-.705.781-1.079 0-.05.565-.207.44.308-.05.215-.83 1.926-.971 2.184-.08.218-.211.415-.382.572-.18.111-.388.166-.598.158-.277.016-.554.016-.83 0-.09 0-.178-.03-.25-.083-.06-.056-.1-.133-.108-.216-.108-.315-.407-3.886-.083-4.45z" transform="translate(-838.000000, -313.000000) translate(326.000000, 154.000000) translate(512.000000, 159.000000) translate(0.000000, 0.000000) translate(19.030000, 13.840000)"/>
                            <path fill="#000" d="M75.176 82.583c0 .058.067 0 .141.058.075.059.075.133.1.2.108.265.183.54.266.83.083.29.15.523.232.83.043.19.122.371.233.532.214.288.59.405.93.29.219-.15.394-.356.506-.597.092-.133.175-.266.274-.399.1-.133.15-.207.058-.108-.09.1 0 0 0 0s-.14-.1-.066-.058c.075.042 0-.066 0 0-.022.06-.038.12-.05.183-.158.423-.365.83-.556 1.262-.083.2-.175.399-.274.59-.1.19-.2.523-.399.639-.15.059-.312.084-.473.075-.227.012-.454.012-.681 0-.125 0-.125 0-.15-.108-.003-.017-.003-.034 0-.05 0-.083 0 .041 0 0-.05-.399-.074-.83-.107-1.188 0-.59-.067-1.17-.059-1.752v-.764-.324-.041c.191-.357-.348-.673-.54-.316-.152.4-.214.828-.182 1.254 0 .606 0 1.213.05 1.819 0 .448.066.905.124 1.353.001.22.08.432.225.598.174.124.384.185.597.175.255.016.51.016.764 0 .429.019.833-.198 1.055-.565.116-.208.224-.423.324-.64.249-.53.49-1.07.722-1.61.087-.177.137-.369.15-.565-.007-.147-.072-.285-.181-.384-.11-.098-.254-.148-.4-.14-.324 0-.466.208-.632.458-.166.249-.216.315-.323.473-.04.067-.084.13-.133.19-.067.109 0 0 0 0h-.083c-.047-.023-.089-.054-.125-.09-.05-.059 0 0 0-.05s-.083-.25-.116-.374c-.108-.349-.208-.706-.316-1.063-.063-.332-.209-.643-.423-.905-.233-.208-.773-.324-1.005 0-.233.324.274.598.523.282z" transform="translate(-838.000000, -313.000000) translate(326.000000, 154.000000) translate(512.000000, 159.000000) translate(0.000000, 0.000000) translate(19.030000, 13.840000)"/>
                            <path fill="#FFF" d="M61.765 80.325c-.25-.25-.593-.386-.947-.374-.215.066.175 3.77-1.145 3.596-.133 0-.706-1.238-.83-1.163-.54.332.099 1.976.157 2.167.049.198.187.36.374.44.557.168 1.137.247 1.719.233.314-.122.558-.378.664-.698.426-1.367.43-2.832.008-4.201z" transform="translate(-838.000000, -313.000000) translate(326.000000, 154.000000) translate(512.000000, 159.000000) translate(0.000000, 0.000000) translate(19.030000, 13.840000)"/>
                            <path fill="#000" d="M61.981 80.109c-.34-.332-1.387-.83-1.52-.083-.074.465-.05.946-.083 1.42.004.53-.1 1.056-.307 1.544-.036.074-.087.139-.15.191l-.14.058h-.067l.141.058-.058-.083c-.083-.132-.166-.265-.24-.398-.113-.253-.277-.48-.482-.665-.308-.19-.582.117-.673.39-.112.64-.025 1.298.25 1.886.062.303.222.577.456.78.276.136.574.223.88.258.356.088.723.119 1.088.091.448-.09.818-.404.98-.83.316-.848.432-1.757.34-2.658-.016-.4-.058-.8-.124-1.195-.028-.26-.122-.51-.274-.723-.258-.307-.698.133-.44.44-.059-.074 0 0 0 0v.067c.032.103.057.208.074.315.057.29.093.585.108.88.066.708.027 1.422-.116 2.118-.048.354-.222.678-.49.913-.224.15-.598.059-.83 0-.283-.026-.561-.085-.83-.174-.175-.083-.217-.299-.275-.473-.058-.175-.158-.523-.216-.83-.028-.243-.028-.489 0-.731 0-.075.158-.059-.108-.05-.265.008-.157-.05-.133 0 .025.05.125.2.175.282.133.216.249.44.398.648.136.165.339.261.553.261.214 0 .416-.096.552-.261.289-.368.462-.813.498-1.279.076-.55.12-1.105.133-1.66v-.308-.116c0-.042 0 0 0 0-.008-.025-.008-.05 0-.075-.02.038-.041.074-.066.108-.075.083-.117 0 0 .075.192.075.374.175.54.299.307.232.755-.208.456-.49z" transform="translate(-838.000000, -313.000000) translate(326.000000, 154.000000) translate(512.000000, 159.000000) translate(0.000000, 0.000000) translate(19.030000, 13.840000)"/>
                            <path fill="#D2D8FF" d="M76.961 96.816c-1.81 5.522-3.321 3.828-3.412 9.558 0 1.462.282 4.277-.258 5.639-3.53-.067-5.672 0-9.2-.075-1.03 0-1.82-8.254-2.127-11.086-.265-2.325-3.321-13.976-2.93-15.537.985.043 1.965-.165 2.847-.606 1.753 3.114.117 9.965 4.252 13.07 1.121.831 3.753.407 4.982-.224 3.737-1.943 3.488-10.637 3.588-10.645l2.491-.241s.515 7.872-.233 10.147z" transform="translate(-838.000000, -313.000000) translate(326.000000, 154.000000) translate(512.000000, 159.000000) translate(0.000000, 0.000000) translate(19.030000, 13.840000)"/>
                            <path fill="#000" d="M76.928 97.157c-.455 1.432-1.089 2.802-1.885 4.077-.534.76-.94 1.6-1.204 2.491-.312 1.409-.427 2.854-.34 4.293 0 1.545.249 3.247-.266 4.742l.299-.232h-5.92c-.947 0-1.944.066-2.882 0-.474 0-.507-.125-.706-.565-1.005-2.15-1.37-4.717-1.819-7.025-.83-4.152-1.337-8.454-1.96-12.672-.207-1.42-.415-2.832-.564-4.26-.158-.821-.189-1.661-.091-2.491l-.308.224c1.048.079 2.097-.152 3.015-.665l-.432-.116c2.084 4.011.266 9.915 4.301 12.98 1.902 1.453 4.8.755 6.278-.964 1.478-1.719 1.993-3.87 2.358-5.929.175-.98.291-1.976.374-2.973-.029-.278-.009-.559.058-.83.1-.15 0 0 .332.05.626.018 1.251-.047 1.86-.191l-.315-.308c.091 1.404.15 2.815.183 4.219 0 1.984.207 4.218-.366 6.136-.046.166.051.337.216.382.165.046.336-.05.382-.215.573-1.91.432-4.103.39-6.062 0-1.487-.083-2.973-.182-4.46 0-.17-.136-.31-.308-.315l-1.444.15c-.375-.022-.75.017-1.113.116-.112.051-.197.148-.233.265-.102.438-.139.889-.108 1.337-.132 1.948-.523 3.869-1.162 5.713-.93 2.492-3.098 4.817-6.029 3.804-2.4-.83-3.106-4.044-3.47-6.228-.366-2.184-.358-4.891-1.462-7-.087-.147-.275-.199-.424-.117-.822.457-1.761.66-2.699.581-.139.005-.26.1-.299.233-.103.694-.103 1.399 0 2.093.108 1.187.266 2.374.432 3.554.374 2.657.83 5.306 1.22 7.963.316 2.043.557 4.086.947 6.112.457 2.375.83 5.04 1.902 7.233.565 1.154 1.528.83 2.724.83 2.433 0 4.866 0 7.299.042.139.001.261-.09.299-.225.36-1.378.463-2.81.307-4.226-.12-1.61-.02-3.227.3-4.808.287-.924.722-1.796 1.286-2.583.76-1.257 1.365-2.6 1.802-4.002.15-.382-.448-.548-.573-.158z" transform="translate(-838.000000, -313.000000) translate(326.000000, 154.000000) translate(512.000000, 159.000000) translate(0.000000, 0.000000) translate(19.030000, 13.840000)"/>
                            <path fill="#FFF" d="M64.007 112.187c.125 5.946-1.021 23.558-.83 24.43.023.243.115.473.266.665.218.187.486.306.772.34 1.03.129 2.072.112 3.097-.05.164-.107.28-.274.324-.465.2-.63 1.719-13.36 2.134-19.024 1.71 5.73 2.657 18.95 3.04 19.265.381.316 2.715.307 3.205.349.205.04.419.012.606-.083.189-.16.303-.392.316-.64.332-1.951-2.625-18.642-2.982-25.003-2.773-.506-9.948.216-9.948.216z" transform="translate(-838.000000, -313.000000) translate(326.000000, 154.000000) translate(512.000000, 159.000000) translate(0.000000, 0.000000) translate(19.030000, 13.840000)"/>
                            <path fill="#000" d="M63.7 112.187c.133 7.241-.498 14.515-.83 21.757-.08.858-.104 1.72-.075 2.582.166 1.794 2.4 1.553 3.712 1.453.647-.05 1.137-.083 1.37-.789.073-.272.123-.55.15-.83.207-1.462.381-2.931.564-4.393.556-4.609 1.088-9.226 1.437-13.85l-.615.082c1.024 4.003 1.718 8.083 2.076 12.199.208 1.727.399 3.446.615 5.173.066.515 0 1.611.423 2.026.424.415 1.304.316 1.76.35.623.049 1.869.331 2.434 0 .755-.483.49-1.92.423-2.642-.299-3.462-.83-6.917-1.362-10.355-.606-4.285-1.32-8.594-1.577-12.92-.004-.138-.094-.258-.225-.3-3.23-.556-6.75-.124-9.964.2-.39.041-.4.664 0 .622 3.18-.315 6.643-.764 9.823-.224l-.232-.299c.415 7.009 1.818 13.96 2.682 20.926.166 1.134.274 2.276.324 3.422 0 .606-.092.963-.83 1.054-.81.068-1.627.007-2.417-.182-.39-.1-.332-.075-.415-.507-.083-.432-.158-1.088-.225-1.66-.199-1.662-.382-3.28-.58-4.925-.36-4.09-1.051-8.145-2.069-12.124-.047-.144-.19-.233-.341-.213-.15.02-.265.145-.273.296-.282 3.77-.706 7.524-1.138 11.277-.199 1.719-.398 3.446-.622 5.173-.075.565-.15 1.121-.233 1.661 0 .274 0 .88-.299 1.071-.299.191-.722.075-.938.092-.484.033-.97.033-1.453 0-.79-.058-1.28-.399-1.304-1.113 0-.938.058-1.893.1-2.823.149-3.38.332-6.76.481-10.14.166-3.703.374-7.415.307-11.119.003-.183-.144-.334-.328-.336-.183-.002-.334.145-.336.328z" transform="translate(-838.000000, -313.000000) translate(326.000000, 154.000000) translate(512.000000, 159.000000) translate(0.000000, 0.000000) translate(19.030000, 13.840000)"/>
                            <path fill="#FFF" d="M89.858 123.215c-.34 4.498-.382 9.015-.125 13.519-.007.124.028.247.1.348.099.102.232.164.373.175l1.213.232c.104.038.219.038.324 0 .094-.072.154-.18.166-.299.703-3.131.983-6.343.83-9.55-.168-1.452-.14-2.921.083-4.367-.705-.458-1.55-.647-2.383-.532" transform="translate(-838.000000, -313.000000) translate(326.000000, 154.000000) translate(512.000000, 159.000000) translate(0.000000, 0.000000) translate(19.030000, 13.840000)"/>
                            <path fill="#000" d="M89.484 123.215c-.216 2.865-.316 5.746-.29 8.628 0 1.436.057 2.873.132 4.31 0 .423 0 .946.316 1.253.478.265 1.014.408 1.56.415 1.163.2 1.147-.888 1.321-1.801.521-2.736.722-5.523.598-8.304-.156-1.468-.134-2.948.066-4.41.042-.162-.025-.332-.166-.423-.77-.475-1.675-.68-2.574-.582-.473 0-.481.83 0 .748.764-.094 1.538.076 2.192.481l-.174-.423c-.457 2.3 0 4.683-.066 7.017-.026 1.224-.117 2.447-.274 3.662-.083.623-.183 1.237-.291 1.852-.058.282-.108.556-.166.83-.091.432 0 .598-.515.548-.246-.018-.488-.065-.722-.141-.407-.15-.333-.366-.358-.764L90 134.39c0-1.253-.058-2.49-.058-3.744 0-2.491.1-4.983.29-7.474 0-.481-.714-.481-.747 0v.042z" transform="translate(-838.000000, -313.000000) translate(326.000000, 154.000000) translate(512.000000, 159.000000) translate(0.000000, 0.000000) translate(19.030000, 13.840000)"/>
                            <path fill="#FFF" d="M101.467 123.173c.506 4.482.714 8.993.622 13.503.011.124-.018.25-.083.357-.096.107-.23.172-.373.182l-1.196.283c-.107.041-.225.041-.332 0-.094-.073-.154-.181-.166-.3-.829-3.1-1.231-6.298-1.196-9.507.11-1.458.025-2.924-.25-4.36.687-.483 1.524-.704 2.36-.623" transform="translate(-838.000000, -313.000000) translate(326.000000, 154.000000) translate(512.000000, 159.000000) translate(0.000000, 0.000000) translate(19.030000, 13.840000)"/>
                            <path fill="#000" d="M101.093 123.173c.271 2.48.46 4.972.565 7.474.05 1.254.074 2.491.074 3.745v1.868c0 .449 0 .515-.431.673-.231.084-.47.14-.715.166-.357 0-.24.125-.357-.266-.074-.265-.133-.548-.199-.83-.15-.64-.282-1.287-.39-1.935-.224-1.266-.374-2.544-.449-3.828-.15-2.325.216-4.733-.332-7.009l-.166.416c.638-.428 1.402-.627 2.167-.565.482 0 .482-.723 0-.747-.9-.065-1.797.172-2.549.672-.14.088-.21.254-.174.415.258 1.407.339 2.841.24 4.269-.018 1.414.052 2.829.208 4.235.147 1.345.368 2.681.664 4.002.2.905.216 2.15 1.412 1.91.545-.035 1.074-.197 1.545-.473.315-.283.265-.714.274-1.113v-4.318c-.075-2.923-.283-5.813-.607-8.752-.058-.474-.83-.482-.747 0l-.033-.009z" transform="translate(-838.000000, -313.000000) translate(326.000000, 154.000000) translate(512.000000, 159.000000) translate(0.000000, 0.000000) translate(19.030000, 13.840000)"/>
                            <path fill="#C7CDFF" d="M90.132 111.838c-.042 4.302-1.503 13.727-1.379 14.366.026.191.117.367.258.498.19.167 12.314-.465 12.813-.406.202.046.412.046.614 0 .181-.084.309-.252.34-.449.39-1.387-2.39-8.885-2.59-13.502-2.757-.565-10.056-.507-10.056-.507z" transform="translate(-838.000000, -313.000000) translate(326.000000, 154.000000) translate(512.000000, 159.000000) translate(0.000000, 0.000000) translate(19.030000, 13.840000)"/>
                            <path fill="#000" d="M89.36 111.788c-.142 3.703-.483 7.395-1.022 11.061-.215 1.075-.324 2.168-.324 3.264.091 1.038.83.955 1.611.947 2.84 0 5.672-.191 8.503-.3 1.072-.05 2.135-.1 3.197-.116.457 0 .955.125 1.337-.182.357-.383.492-.923.357-1.429-.293-1.88-.723-3.737-1.287-5.555-.686-2.341-1.14-4.744-1.353-7.175 0-.169-.112-.317-.274-.365-3.434-.498-6.906-.674-10.372-.523-.206 0-.374.167-.374.373 0 .207.168.374.374.374 1.337 0 2.666 0 3.994.05 2.068-.017 4.134.133 6.178.448l-.274-.357c.2 3.804 1.487 7.474 2.342 11.153.158.596.266 1.204.324 1.818 0 .54-.266.64-.78.623-.831 0-1.736.05-2.591.083-2.75.108-5.506.233-8.255.307h-1.395c-.132.017-.266.017-.398 0-.183-.05-.125.092-.117-.224 0-.83.167-1.885.266-2.774.567-3.82.927-7.667 1.08-11.525-.007-.207-.18-.369-.386-.362-.207.007-.369.18-.362.386zM91.195 88.43v1.727c.265 2.034 1.66 7.382 1.968 7.606.49.365 5.28.74 5.489.623.207-.116.93-7.333.755-9.076-.017-.502-.13-.995-.332-1.454-.196-.378-.481-.703-.83-.946-1.882-1.25-4.33-1.25-6.212 0-.528.322-.847.9-.838 1.52z" transform="translate(-838.000000, -313.000000) translate(326.000000, 154.000000) translate(512.000000, 159.000000) translate(0.000000, 0.000000) translate(19.030000, 13.840000)"/>
                            <path fill="#FFF" d="M93.196 97.763c.573-.125 1.237-.382 1.13-.83-.159-.756-.906-1.213-1.338-1.852-.28-.453-.472-.954-.564-1.478-.25-1.121-.964-4.393.265-5.813.78-.935 2-1.383 3.2-1.174 1.199.21 2.195 1.043 2.613 2.187.734 1.58.734 3.403 0 4.982-.307.565-.747 1.047-1.088 1.586-.373.525-.506 1.183-.365 1.81.404.61 1.005 1.06 1.702 1.28-.392.538-.997.88-1.66.938-.324 0-1.744.506-2.492.19-.307-.132-2.234-1.112-2.491-1.22-.257-.108.507-.481 1.088-.606z" transform="translate(-838.000000, -313.000000) translate(326.000000, 154.000000) translate(512.000000, 159.000000) translate(0.000000, 0.000000) translate(19.030000, 13.840000)"/>
                            <path fill="#000" d="M93.279 98.062c.465-.108 1.088-.282 1.304-.772.215-.49-.175-1.088-.49-1.462-.573-.543-1.009-1.215-1.27-1.96-.125-.465-.217-.938-.308-1.411-.29-1.226-.29-2.503 0-3.729.325-.895 1.087-1.56 2.018-1.76 2.948-.83 4.4 2.491 4.152 4.982-.095.832-.41 1.623-.914 2.292-.479.558-.846 1.204-1.08 1.902-.158.503-.069 1.051.242 1.478.174.195.372.368.59.515.15.106.309.203.473.29l.357.183c.1-.25.1-.307 0-.174-.1 0-.258.207-.357.274-.204.134-.429.235-.665.299-.216.058-.432.074-.648.116-.645.224-1.339.273-2.01.141-.462-.188-.911-.408-1.344-.656l-.74-.365c-.09-.05-.348-.216-.323-.142v.316c.083-.174.88-.274 1.063-.316.39-.083.224-.68-.166-.597-.39.083-1.296.182-1.445.639-.15.457.373.54.647.68.964.474 1.977 1.213 3.098 1.139.6-.07 1.196-.172 1.785-.308.638-.096 1.223-.407 1.66-.88.474-.565-.323-.739-.73-.98-.338-.164-.625-.416-.83-.73-.128-.585.015-1.195.39-1.661.546-.697 1.004-1.458 1.362-2.267.276-.878.347-1.807.208-2.716-.116-1.504-.907-2.875-2.151-3.728-1.819-1.096-4.634-.208-5.282 1.868-.34 1.494-.306 3.049.1 4.526.11.801.393 1.57.83 2.25.275.366.632.656.914 1.022.174.24.39.548.15.83-.224.164-.488.265-.765.29-.382.075-.215.682.175.582z" transform="translate(-838.000000, -313.000000) translate(326.000000, 154.000000) translate(512.000000, 159.000000) translate(0.000000, 0.000000) translate(19.030000, 13.840000)"/>
                            <path fill="#000" d="M97.987 87.192c-1.126-.732-2.49-1.006-3.811-.764-.694.143-1.343.45-1.894.897-.365.266-.755.664-.664 1.12.033.146.098.283.191.4.535.59 1.315.897 2.11.83.78 0 1.544-.216 2.316-.208.315-.01.627.052.913.183.325.178.59.446.764.772.532.897.432 2.392.225 3.77.938-.664 1.303-3.529.971-5.198l-1.12-1.802z" transform="translate(-838.000000, -313.000000) translate(326.000000, 154.000000) translate(512.000000, 159.000000) translate(0.000000, 0.000000) translate(19.030000, 13.840000)"/>
                            <path fill="#FFF" d="M102.97 137.323c.103.188.17.394.199.606.374.241 2.325.64 3.014 1.495.287.338.287.833 0 1.171-.182.224-5.38.316-6.178.266-.18.007-.356-.048-.498-.158-.112-.132-.184-.293-.208-.465-.2-.922-.349-2.01.3-2.69.307-.288.685-.488 1.095-.582.775-.032 1.548.09 2.276.357z" transform="translate(-838.000000, -313.000000) translate(326.000000, 154.000000) translate(512.000000, 159.000000) translate(0.000000, 0.000000) translate(19.030000, 13.840000)"/>
                            <path fill="#000" d="M102.662 137.506c.15.24.083.573.333.747.202.112.416.198.639.258.624.181 1.225.432 1.794.747.265.166.614.407.614.756-.009.07-.025.14-.05.207 0 .083-.058.133 0 .067.058-.067.083 0 0 0h-.091c-.29.05-.73.075-1.096.1-1.163.066-2.325.09-3.488.1h-1.18c-.082.008-.165.008-.248 0-.233-.06-.233-.325-.266-.532-.096-.405-.136-.822-.116-1.238.07-.818.782-1.43 1.603-1.378.337.02.673.064 1.004.133.151.025.301.058.449.1h.15c.146.13.37.125.51-.013s.15-.362.02-.51c-.187-.146-.411-.238-.647-.267-.35-.078-.706-.137-1.063-.174-.755-.142-1.533.073-2.11.581-.622.725-.838 1.715-.572 2.633.075.44.133 1.005.556 1.254.26.121.545.175.83.157 1.196 0 2.409 0 3.605-.058.58 0 1.162-.041 1.743-.1.44-.04.83-.05 1.038-.481.515-.996-.398-1.794-1.204-2.192-.41-.195-.831-.364-1.262-.507-.287-.07-.565-.17-.83-.299l.166.224c-.027-.246-.106-.484-.233-.697-.207-.399-.855-.025-.598.382z" transform="translate(-838.000000, -313.000000) translate(326.000000, 154.000000) translate(512.000000, 159.000000) translate(0.000000, 0.000000) translate(19.030000, 13.840000)"/>
                            <path fill="#FFF" d="M89.102 137.323c-.103.188-.17.394-.2.606-.381.241-2.324.64-3.014 1.495-.29.337-.29.835 0 1.171.183.224 5.373.316 6.17.266.182.009.362-.047.507-.158.113-.13.183-.293.199-.465.2-.922.357-2.01-.299-2.69-.303-.289-.68-.49-1.088-.582-.774-.034-1.548.088-2.275.357z" transform="translate(-838.000000, -313.000000) translate(326.000000, 154.000000) translate(512.000000, 159.000000) translate(0.000000, 0.000000) translate(19.030000, 13.840000)"/>
                            <path fill="#000" d="M88.778 137.132c-.125.215-.207.452-.24.698l.174-.224c-.21.104-.43.187-.656.249-.374.124-.74.257-1.097.415-.697.307-1.586.78-1.66 1.66-.049.393.108.782.415 1.03.13.065.27.102.415.108.523.075 1.063.1 1.594.125 1.263.058 2.541.091 3.812.083.614 0 1.304 0 1.536-.706.336-.9.336-1.89 0-2.79-.45-.798-1.329-1.257-2.242-1.17-.407.032-.812.09-1.212.173-.284.023-.555.127-.78.3-.341.34.19.83.522.523-.083.09 0 0 0 0l.133-.05.366-.083c.312-.068.628-.115.946-.141.676-.119 1.35.218 1.661.83.14.376.183.782.125 1.18 0 .29-.05 1.07-.366 1.153-.353.046-.71.046-1.063 0-1.154 0-2.308 0-3.462-.091-.449 0-.897-.041-1.346-.091-.089-.029-.18-.048-.274-.058 0 0 .092.066.108.05.017-.017-.083-.175-.091-.2-.027-.222.064-.443.24-.581.58-.453 1.247-.779 1.96-.955.27-.072.53-.17.781-.29.307-.175.216-.507.382-.781.224-.399-.424-.773-.68-.366z" transform="translate(-838.000000, -313.000000) translate(326.000000, 154.000000) translate(512.000000, 159.000000) translate(0.000000, 0.000000) translate(19.030000, 13.840000)"/>
                            <path fill="#FFF" d="M104.356 119.353c-.083.108-.531.042-.639-.224-.2-.515-.382-2.076-.49-2.275-.103-.217-.335-.342-.573-.307-.32.307-.619.634-.897.98-.05.05-.581.149-.407-.35.075-.207 1.03-1.826 1.204-2.067.103-.198.244-.373.416-.515.191-.09.406-.118.614-.083.28.02.557.058.83.116.088.012.17.047.241.1.048.069.077.149.083.233.092.282 0 3.86-.382 4.392z" transform="translate(-838.000000, -313.000000) translate(326.000000, 154.000000) translate(512.000000, 159.000000) translate(0.000000, 0.000000) translate(19.030000, 13.840000)"/>
                            <path fill="#000" d="M104.14 119.13c.067-.067.075 0 0-.042-.074-.042-.083 0-.116 0-.054-.066-.086-.148-.091-.233-.075-.266-.125-.54-.175-.83l-.149-.83c-.022-.19-.079-.372-.166-.54-.185-.308-.547-.462-.897-.382-.24.074-.415.348-.565.531-.149.183-.215.266-.332.39l-.066.075c-.05.091 0 0 0 0h-.058s.116.083.091.075c-.025-.008 0-.125 0 0 0 .124 0 0 0 0 .013-.035.03-.068.05-.1.207-.423.457-.83.697-1.229.108-.19.225-.373.34-.556.1-.217.244-.41.424-.565.18-.05.37-.05.548 0 .132.008.262.025.39.05.092 0 .283 0 .35.066.066.067 0 .117 0 .067v1.353c0 .582-.059 1.171-.125 1.753 0 .232-.066.465-.116.697 0 .083-.042.166-.067.25-.025.082 0 .09 0 .057-.008.03-.023.058-.041.083-.233.333.307.64.531.316.193-.385.298-.807.307-1.237.075-.598.117-1.196.142-1.794 0-.457.041-.905 0-1.362.01-.195-.04-.39-.142-.556-.14-.167-.346-.267-.564-.274-.274-.057-.552-.093-.83-.108-.438-.056-.868.14-1.113.506-.133.191-.258.399-.382.598-.291.474-.582.963-.83 1.453-.127.18-.204.388-.225.607 0 .143.058.281.162.381.103.1.242.155.386.15.316 0 .473-.166.673-.39.199-.224.24-.3.365-.44.043-.057.09-.11.141-.158l.058-.067c-.09 0-.108.042-.058.042l.117.058s.107.141.074.083c-.033-.058 0 .058 0 .075 0 .016.058.282.083.423.067.357.125.723.2 1.088.024.324.14.635.332.897.26.28.687.323.996.1.095-.063.15-.17.143-.284-.006-.114-.073-.215-.174-.266-.102-.051-.223-.044-.318.018z" transform="translate(-838.000000, -313.000000) translate(326.000000, 154.000000) translate(512.000000, 159.000000) translate(0.000000, 0.000000) translate(19.030000, 13.840000)"/>
                            <path fill="#FFF" d="M99.748 104.473c0 1.494.714 6.975.174 8.378-3.53-.066-5.68 0-9.21-.066-1.029 0-2.357-8.454-2.673-11.36-.133-1.287-3.189-2.068-4.982-5.887-1.034-2.296-1.324-4.856-.83-7.325.987.048 1.97-.166 2.847-.622.756 1.386.084 3.778 1.537 6.02 1.885 2.923 5.215 2.6 7.407 4.152 1.071.756 1.885.39 3.687-.2 7.74-2.49 7.548 16.85 7.648 16.841.83-.083-4.077.449-3.247.366.033 0-2.242-16.193-2.358-10.297z" transform="translate(-838.000000, -313.000000) translate(326.000000, 154.000000) translate(512.000000, 159.000000) translate(0.000000, 0.000000) translate(19.030000, 13.840000)"/>
                            <path fill="#FFF" d="M83.812 82.716c.335-.116.703-.086 1.013.083.166.158-1.851 3.322-.598 3.729.125 0 1.188-.78 1.254-.665.333.532-.98 1.72-1.112 1.86-.131.157-.329.24-.532.225-.58-.096-1.142-.286-1.66-.565-.23-.248-.337-.586-.291-.922.248-1.414.92-2.72 1.926-3.745z" transform="translate(-838.000000, -313.000000) translate(326.000000, 154.000000) translate(512.000000, 159.000000) translate(0.000000, 0.000000) translate(19.030000, 13.840000)"/>
                            <path fill="#000" d="M83.87 83.04c.153-.05.314-.067.474-.05.066.007.133.007.199 0 .05 0 .075.125 0-.083 0 0-.066-.108 0-.141-.02.048-.034.098-.041.15-.027.068-.058.134-.092.199-.2.456-.415.905-.59 1.37-.2.46-.303.959-.298 1.461 0 .39.357.98.83.83.208-.076.404-.182.581-.315l.35-.224.132-.083h.066c.117 0 0-.075-.29-.141 0 0 0 .05 0 0v.1c-.035.124-.091.242-.166.348-.157.233-.334.45-.532.648-.124.133-.257.274-.398.399-.142.124-.416.074-.648 0-.305-.071-.603-.171-.889-.3-.332-.157-.382-.49-.357-.83.114-.744.38-1.456.78-2.092.172-.321.366-.63.582-.922.065-.094.137-.183.216-.266l.091-.058s.075-.05 0 0c.366-.15.2-.756-.166-.598-.194.093-.363.233-.49.407-.217.262-.414.54-.59.83-.434.685-.76 1.433-.962 2.218-.112.399-.112.821 0 1.22.137.375.446.662.83.773.33.126.668.228 1.013.307.328.116.693.06.972-.15.45-.364.834-.802 1.137-1.295.175-.24.252-.536.216-.83-.091-.341-.374-.39-.656-.258-.254.14-.5.292-.739.457l-.166.1c-.058 0-.075.05-.083 0-.515-.333.125 0 .125 0h-.059s-.058-.059-.05 0c-.083-.17-.107-.364-.066-.549.049-.283.124-.56.224-.83.208-.565.49-1.096.706-1.66.113-.169.113-.389 0-.557-.382-.271-.876-.33-1.312-.158-.407.066-.249.673.116.573z" transform="translate(-838.000000, -313.000000) translate(326.000000, 154.000000) translate(512.000000, 159.000000) translate(0.000000, 0.000000) translate(19.030000, 13.840000)"/>
                            <path fill="#000" d="M99.44 104.473c0 1.361.175 2.732.266 4.094.091 1.361.349 2.923-.083 4.201l.299-.232h-7.307c-.474 0-1.587.174-1.935-.092-.35-.265-.623-1.552-.764-2.076-.283-1.054-.499-2.117-.698-3.188-.2-1.071-.39-2.242-.556-3.372-.064-.85-.177-1.696-.34-2.532-.232-.573-.636-1.06-1.155-1.395-.853-.652-1.648-1.377-2.375-2.168-2.14-2.618-2.972-6.07-2.259-9.375l-.298.224c1.045.08 2.09-.151 3.006-.664l-.432-.108c.336.99.515 2.027.531 3.072.13 1.199.567 2.343 1.27 3.322 1.13 1.486 2.783 2.126 4.493 2.682.896.251 1.758.611 2.566 1.071.602.464 1.366.665 2.118.557 1.42-.216 2.707-1.121 4.152-.665 2.192.69 3.147 3.505 3.703 5.481.657 2.514 1.063 5.087 1.213 7.681.066.955.108 1.902.15 2.857 0 .357-.084.93.43.905l-.082-.615c-1.005.133-2.317.233-3.438.382-.349 0-.266.623.083.607h.141c.096-.003.185-.048.243-.124.058-.076.079-.174.056-.267-.277-1.943-.57-3.88-.88-5.812-.224-1.346-.448-2.69-.73-4.02-.1-.456-.184-1.569-.615-1.876-.83-.548-.74 1.179-.748 1.503.025.152.157.264.312.264.154 0 .286-.112.311-.264 0-.266.067-.557.042-.83 0 0 .157-1.005-.34-.225 0 0 .248.772.273.889.324 1.295.54 2.624.764 3.936.366 2.214.7 4.415 1.005 6.601l.307-.398h-.1l.084.614c1.004-.133 2.316-.232 3.437-.382.35-.041.266-.622-.083-.606.407 0 .1.498.2 0 .034-.276.034-.555 0-.83 0-.905-.083-1.819-.158-2.724-.16-2.524-.562-5.027-1.204-7.474-.548-1.96-1.379-4.268-3.156-5.447-.753-.493-1.655-.704-2.549-.598-.74.146-1.468.352-2.176.615-.46.173-.956.232-1.445.174-.488-.181-.95-.43-1.37-.739-1.876-.997-4.152-1.121-5.813-2.59-1.103-1.087-1.768-2.541-1.868-4.086-.015-1.025-.206-2.039-.565-2.998-.04-.072-.107-.125-.187-.147-.08-.022-.165-.011-.236.03-.82.457-1.756.659-2.69.582-.142.004-.265.097-.308.232-.562 2.667-.201 5.445 1.022 7.88.626 1.21 1.47 2.295 2.49 3.198.657.59 1.703 1.138 2.16 1.91.457.772.324 1.835.432 2.599.182 1.237.39 2.491.622 3.704.233 1.212.449 2.325.773 3.462.129.679.391 1.325.772 1.902.122.153.291.261.482.307.993.108 1.995.108 2.989 0h6.261c.138-.001.26-.092.3-.224.431-1.262.207-2.815.124-4.11-.092-1.445-.29-2.907-.283-4.352-.018-.181-.18-.313-.36-.295-.182.019-.314.18-.296.362z" transform="translate(-838.000000, -313.000000) translate(326.000000, 154.000000) translate(512.000000, 159.000000) translate(0.000000, 0.000000) translate(19.030000, 13.840000)"/>
                            <path fill="#FFF" d="M50.306 123.464c.342 4.51.383 9.037.124 13.552.007.124-.028.247-.1.349-.099.102-.231.164-.373.174l-1.213.233c-.108.048-.234.037-.333-.028-.1-.066-.158-.177-.156-.296-.708-3.131-.987-6.344-.83-9.55.16-1.453.13-2.922-.092-4.368.705-.458 1.55-.646 2.383-.531" transform="translate(-838.000000, -313.000000) translate(326.000000, 154.000000) translate(512.000000, 159.000000) translate(0.000000, 0.000000) translate(19.030000, 13.840000)"/>
                            <path fill="#000" d="M49.932 123.464c.19 2.491.29 4.982.29 7.473 0 1.246 0 2.492-.058 3.746l-.074 1.719c0 .323.041.548-.233.739-.266.1-.546.156-.83.166-.424.05-.399 0-.482-.407l-.2-.972c-.107-.614-.207-1.229-.29-1.852-.157-1.214-.249-2.437-.274-3.662-.058-2.325.39-4.716-.066-7.017l-.175.424c.655-.405 1.428-.575 2.193-.482.481.05.481-.697 0-.747-.899-.091-1.803.113-2.575.581-.14.091-.207.262-.166.424.2 1.414.225 2.848.075 4.268-.134 2.78.055 5.567.565 8.304.166.93.14 2.15 1.353 1.943.545-.004 1.08-.147 1.553-.415.316-.274.282-.714.307-1.104.075-1.437.125-2.882.133-4.319 0-2.923-.058-5.854-.282-8.769 0-.481-.78-.481-.747 0l-.017-.041z" transform="translate(-838.000000, -313.000000) translate(326.000000, 154.000000) translate(512.000000, 159.000000) translate(0.000000, 0.000000) translate(19.030000, 13.840000)"/>
                            <path fill="#FFF" d="M38.697 123.422c-.507 4.482-.715 8.993-.623 13.503-.01.127.018.255.083.365.1.1.232.165.374.183l1.195.274c.107.041.226.041.332 0 .095-.073.155-.18.167-.3.829-3.1 1.23-6.298 1.195-9.507-.109-1.458-.025-2.924.25-4.36-.687-.483-1.524-.703-2.359-.623" transform="translate(-838.000000, -313.000000) translate(326.000000, 154.000000) translate(512.000000, 159.000000) translate(0.000000, 0.000000) translate(19.030000, 13.840000)"/>
                            <path fill="#000" d="M38.323 123.422c-.316 2.865-.523 5.738-.606 8.612-.042 1.436-.05 2.881 0 4.318 0 .423-.075.946.274 1.254.47.276 1 .438 1.544.473 1.146.232 1.18-.88 1.387-1.769.299-1.32.523-2.657.673-4.002.158-1.406.233-2.82.224-4.235-.099-1.472-.018-2.95.24-4.402.038-.163-.032-.333-.174-.423-.751-.5-1.648-.737-2.549-.673-.482 0-.482.78 0 .748.766-.06 1.53.142 2.167.573l-.166-.424c-.548 2.275-.19 4.684-.332 7.009-.075 1.283-.225 2.562-.448 3.828-.1.598-.224 1.204-.357 1.802-.075.315-.142.648-.233.955-.091.307 0 .307-.357.266-.242-.035-.481-.09-.714-.167-.399-.132-.357-.174-.432-.523-.062-.67-.062-1.346 0-2.018 0-1.245.025-2.49.075-3.736.1-2.492.29-4.983.565-7.474.058-.473-.69-.473-.748 0l-.033.008z" transform="translate(-838.000000, -313.000000) translate(326.000000, 154.000000) translate(512.000000, 159.000000) translate(0.000000, 0.000000) translate(19.030000, 13.840000)"/>
                            <path fill="#C7CDFF" d="M50.032 112.104c0 4.301 1.503 13.735 1.378 14.366-.025.19-.116.367-.257.498-.191.166-12.315-.465-12.813-.407-.202.05-.413.05-.615 0-.181-.083-.309-.251-.34-.448-.39-1.387 2.391-8.885 2.59-13.502 2.757-.573 10.057-.507 10.057-.507z" transform="translate(-838.000000, -313.000000) translate(326.000000, 154.000000) translate(512.000000, 159.000000) translate(0.000000, 0.000000) translate(19.030000, 13.840000)"/>
                            <path fill="#000" d="M50.057 112.038c.124 3.485.44 6.962.946 10.413.141 1.187.324 2.375.39 3.57 0 .341.092.49-.107.54-.337.038-.677.038-1.014 0-2.682-.058-5.356-.19-8.038-.29-1.063-.042-2.126-.092-3.189-.117-.254.017-.51.017-.764 0-.68-.116-.382-1.013-.299-1.478.756-4.069 2.334-7.98 2.55-12.14l-.274.357c2.045-.308 4.11-.457 6.178-.449 1.329 0 2.657-.05 3.994-.05.207 0 .374-.167.374-.373s-.167-.374-.374-.374c-3.421 0-7-.108-10.372.532-.162.042-.275.189-.274.357-.215 4.044-1.727 7.864-2.49 11.808-.136.517-.189 1.052-.159 1.586.108.83.665.963 1.404.947.739-.017 1.66.041 2.491.075 2.923.108 5.813.249 8.777.323.524 0 1.553.225 2.01-.116.73-.548.274-2.184.191-2.898-.599-4.057-.987-8.143-1.163-12.24-.004-.218-.185-.39-.402-.386-.218.004-.391.185-.386.403zM48.994 88.678v1.728c-.266 2.034-1.661 7.382-1.968 7.606-.49.365-5.282.74-5.49.631-.207-.108-.988-7.299-.846-9.084.022-.5.134-.993.332-1.454.196-.378.48-.702.83-.946 1.882-1.25 4.33-1.25 6.212 0 .566.296.923.88.93 1.52z" transform="translate(-838.000000, -313.000000) translate(326.000000, 154.000000) translate(512.000000, 159.000000) translate(0.000000, 0.000000) translate(19.030000, 13.840000)"/>
                            <path fill="#FFF" d="M46.967 97.987c-.573-.124-1.237-.382-1.129-.83.158-.756.905-1.213 1.337-1.844.28-.455.472-.96.565-1.486.249-1.121.963-4.393-.266-5.813-.78-.935-2-1.382-3.2-1.173-1.199.209-2.195 1.042-2.613 2.186-.73 1.58-.73 3.402 0 4.983.307.556.748 1.038 1.088 1.577.374.528.506 1.188.365 1.819-.398.597-.982 1.046-1.66 1.279.396.532 1 .87 1.66.93.324 0 1.744.506 2.492.19.307-.132 2.233-1.112 2.49-1.22.258-.108-.547-.448-1.129-.598z" transform="translate(-838.000000, -313.000000) translate(326.000000, 154.000000) translate(512.000000, 159.000000) translate(0.000000, 0.000000) translate(19.030000, 13.840000)"/>
                            <path fill="#000" d="M47.05 97.713c-.465-.108-1.104-.266-.772-.83.24-.366.52-.706.83-1.013.487-.609.807-1.332.93-2.101.331-1.282.457-2.607.374-3.928-.038-1.132-.644-2.168-1.61-2.757-.924-.554-2.03-.716-3.073-.448-3.048.83-3.62 5.505-2.101 7.847.49.772 1.478 1.66 1.246 2.682-.092.39-.465.623-.781.83-.316.208-.83.283-.922.549-.224.415.49.83.764.988.55.273 1.143.45 1.752.523.69.211 1.428.211 2.118 0 .548-.216 1.071-.515 1.594-.78.266-.134 1.005-.341 1.08-.69.14-.598-1.113-.756-1.462-.83-.349-.075-.556.515-.166.606.183 0 .98.133 1.063.307v-.315c0-.075-.158.058-.24.1l-.59.29c-.465.232-.922.481-1.387.69-.501.192-1.05.221-1.57.082-.485-.068-.965-.17-1.436-.307-.179-.061-.35-.145-.507-.25-.1-.066-.257-.248-.357-.273l-.074-.067c0 .266.05.316.232.15.18-.066.349-.162.498-.283.482-.242.847-.666 1.013-1.179.324-1.544-1.237-2.615-1.735-3.903-.897-2.3.075-6.444 3.147-6.26.884.04 1.715.431 2.309 1.087.788.963.664 2.491.531 3.645-.166 1.37-.39 2.84-1.37 3.87-.39.424-.98 1.005-.889 1.66.092.657.83.831 1.362.972.532.142.59-.572.2-.664z" transform="translate(-838.000000, -313.000000) translate(326.000000, 154.000000) translate(512.000000, 159.000000) translate(0.000000, 0.000000) translate(19.030000, 13.840000)"/>
                            <path fill="#000" d="M42.151 87.425c1.13-.733 2.496-1.007 3.82-.764.69.145 1.337.452 1.885.896.365.266.756.665.664 1.121-.029.147-.094.284-.19.399-.536.59-1.316.897-2.11.83-.78 0-1.544-.215-2.317-.207-.314-.011-.627.051-.913.182-.325.178-.59.447-.764.773-.532.897-.432 2.391-.224 3.77-.939-.656-1.304-3.53-.972-5.199l1.121-1.801z" transform="translate(-838.000000, -313.000000) translate(326.000000, 154.000000) translate(512.000000, 159.000000) translate(0.000000, 0.000000) translate(19.030000, 13.840000)"/>
                            <path fill="#FFF" d="M37.177 137.572c-.103.188-.17.394-.2.607-.373.24-2.324.647-3.014 1.494-.286.338-.286.833 0 1.171.183.224 5.381.316 6.179.266.18.009.356-.047.498-.158.114-.127.187-.287.207-.457.2-.93.35-2.017-.299-2.698-.307-.288-.685-.488-1.096-.582-.774-.032-1.548.09-2.275.357z" transform="translate(-838.000000, -313.000000) translate(326.000000, 154.000000) translate(512.000000, 159.000000) translate(0.000000, 0.000000) translate(19.030000, 13.840000)"/>
                            <path fill="#000" d="M36.853 137.381c-.126.214-.206.451-.232.698l.174-.224c-.213.104-.435.187-.664.249-.366.133-.731.257-1.088.415-.698.307-1.586.789-1.66 1.66-.048.39.11.776.414 1.022.13.064.271.1.415.108.532.075 1.063.1 1.595.125 1.27.058 2.54.091 3.811.083.615 0 1.312 0 1.537-.706.336-.9.336-1.89 0-2.79-.45-.8-1.33-1.26-2.242-1.171-.405.032-.807.09-1.205.174-.284.03-.556.133-.788.3-.147.146-.147.384 0 .53.146.147.384.147.531 0-.091.084 0 0-.041 0l.132-.04c.117-.039.237-.07.357-.092.313-.067.629-.115.947-.141.676-.119 1.35.218 1.66.83.146.375.189.782.125 1.18 0 .29-.05 1.07-.365 1.162-.353.041-.71.041-1.063 0-1.146 0-2.308 0-3.454-.083-.449 0-.905-.042-1.354-.1-.09-.026-.181-.046-.274-.058 0 0 .1.075.108.058-.036-.066-.067-.136-.091-.207-.024-.224.07-.444.249-.582.576-.451 1.241-.777 1.951-.955.27-.072.53-.17.78-.29.308-.175.217-.507.391-.78.25-.408-.398-.74-.656-.375z" transform="translate(-838.000000, -313.000000) translate(326.000000, 154.000000) translate(512.000000, 159.000000) translate(0.000000, 0.000000) translate(19.030000, 13.840000)"/>
                            <path fill="#FFF" d="M51.061 137.572c.103.188.171.394.2.607.382.24 2.333.647 3.014 1.494.29.337.29.835 0 1.171-.183.224-5.373.316-6.17.266-.182.009-.362-.047-.506-.158-.112-.128-.182-.288-.2-.457-.2-.93-.357-2.017.3-2.698.303-.289.679-.49 1.087-.582.775-.034 1.548.088 2.275.357z" transform="translate(-838.000000, -313.000000) translate(326.000000, 154.000000) translate(512.000000, 159.000000) translate(0.000000, 0.000000) translate(19.030000, 13.840000)"/>
                            <path fill="#000" d="M50.746 137.755c.15.24.083.581.324.747.202.112.416.198.639.258.626.179 1.228.433 1.794.756.265.157.614.398.614.747.008.069.008.138 0 .207 0 .092-.058.133 0 .067.058-.067.083 0 0 0h-.1c-.363.054-.729.087-1.096.1-1.162.066-2.325.09-3.487.108H48.005c-.224-.067-.224-.333-.265-.54-.094-.406-.13-.822-.108-1.238.07-.815.777-1.426 1.594-1.378.338.02.674.064 1.005.133.143.033.285.075.423.124l.15.042c.05 0 0 0 0 0 .332.34.83-.191.523-.532-.185-.178-.42-.296-.673-.34-.348-.078-.7-.136-1.054-.174-.755-.142-1.534.072-2.11.58-.625.724-.844 1.714-.58 2.633.074.449.132 1.005.564 1.254.259.124.545.178.83.158 1.204 0 2.409 0 3.604-.05.582 0 1.163-.05 1.744-.108.44 0 .83-.05 1.046-.481.515-.997-.398-1.786-1.212-2.193-.408-.193-.826-.362-1.254-.506-.286-.072-.564-.172-.83-.3l.174.225c-.033-.246-.115-.483-.24-.698-.208-.34-.856-.008-.59.4z" transform="translate(-838.000000, -313.000000) translate(326.000000, 154.000000) translate(512.000000, 159.000000) translate(0.000000, 0.000000) translate(19.030000, 13.840000)"/>
                            <path fill="#FFF" d="M35.807 119.578c.083.108.54.041.64-.225.199-.514.381-2.076.497-2.275.098-.217.33-.343.565-.307.317.31.617.636.897.98.05.05.581.15.407-.349-.075-.208-1.03-1.827-1.196-2.068-.11-.207-.263-.388-.448-.531-.192-.09-.406-.119-.615-.083-.279.019-.556.058-.83.116-.09.012-.173.05-.241.108-.05.065-.078.143-.083.224-.066.324.025 3.903.407 4.41z" transform="translate(-838.000000, -313.000000) translate(326.000000, 154.000000) translate(512.000000, 159.000000) translate(0.000000, 0.000000) translate(19.030000, 13.840000)"/>
                            <path fill="#000" d="M35.583 119.818c.25.17.58.17.83 0 .242-.187.396-.467.424-.772.132-.59.207-1.187.34-1.777 0-.041.058-.108 0 0 0-.075.141-.108.183-.166l.008-.017.058.05c.05.067.116.125.166.191.188.292.424.55.698.764.23.117.508.092.714-.066.196-.211.227-.528.075-.773-.235-.466-.493-.92-.773-1.361-.124-.2-.24-.399-.365-.59-.15-.302-.38-.558-.664-.739-.471-.143-.974-.143-1.445 0-.415.066-.706.233-.748.68-.025.369-.025.738 0 1.105 0 .665.059 1.329.133 1.993 0 .504.113 1 .332 1.454.225.323.764 0 .532-.316v-.058c0-.067 0 0 0 0-.031-.078-.053-.159-.067-.241-.048-.188-.084-.38-.108-.573-.066-.515-.1-1.038-.132-1.553-.034-.515-.042-.897-.042-1.345v-.44c0 .124 0 0 0 0 .085-.031.175-.048.266-.05.142-.028.287-.047.432-.058.185-.046.379-.046.564 0 .166.075.25.257.35.407l.248.39c.266.432.523.83.772 1.312l.125.233v.09c-.05-.107 0 0 0 0s.05 0 .066-.049c.017-.05 0 0 0 0 .084.042 0 0 0-.083-.365-.399-.722-1.154-1.37-.88-.647.274-.598.938-.697 1.47-.058.324-.108.647-.191.963-.01.101-.038.2-.083.29-.032.033-.072.056-.117.067-.083.042-.1 0 0 .05-.11-.142-.314-.168-.456-.058-.142.11-.168.314-.058.456z" transform="translate(-838.000000, -313.000000) translate(326.000000, 154.000000) translate(512.000000, 159.000000) translate(0.000000, 0.000000) translate(19.030000, 13.840000)"/>
                            <path fill="#FFF" d="M40.416 104.722c0 1.494-.715 6.975-.175 8.378 3.53-.058 5.68 0 9.21-.066 1.029 0 2.358-8.453 2.673-11.36.133-1.279 3.189-2.068 4.983-5.887 1.033-2.295 1.323-4.856.83-7.324-.988.048-1.97-.167-2.848-.623-.756 1.386-.083 3.778-1.528 6.02-1.894 2.923-5.223 2.6-7.416 4.152-1.07.756-1.885.39-3.687-.19-7.739-2.492-7.548 16.848-7.648 16.831-.83-.083 4.078.449 3.256.366-.009 0 2.233-16.201 2.35-10.297z" transform="translate(-838.000000, -313.000000) translate(326.000000, 154.000000) translate(512.000000, 159.000000) translate(0.000000, 0.000000) translate(19.030000, 13.840000)"/>
                            <path fill="#FFF" d="M56.35 82.965c-.333-.116-.701-.086-1.012.083-.166.158 1.852 3.322.598 3.729-.125 0-1.18-.78-1.254-.665-.332.532.98 1.72 1.113 1.86.13.157.328.24.531.225.581-.095 1.142-.286 1.66-.565.23-.248.338-.586.291-.922-.248-1.414-.92-2.72-1.926-3.745z" transform="translate(-838.000000, -313.000000) translate(326.000000, 154.000000) translate(512.000000, 159.000000) translate(0.000000, 0.000000) translate(19.030000, 13.840000)"/>
                            <path fill="#000" d="M56.467 82.666c-.457-.15-1.602-.133-1.378.615.14.457.398.888.581 1.32.262.497.399 1.05.399 1.611-.013.064-.035.126-.067.183 0 0-.05 0 0 0h-.058c.04-.017.085-.017.125 0h-.059l-.174-.1-.407-.266c-.2-.124-.473-.34-.722-.274-.25.067-.332.507-.266.764.238.59.62 1.11 1.113 1.512.2.259.503.417.83.432.282-.037.56-.101.83-.191.35-.08.682-.224.98-.424.339-.306.504-.76.44-1.212-.114-.886-.42-1.736-.896-2.492-.188-.342-.402-.67-.64-.98-.143-.23-.347-.417-.59-.54-.365-.157-.53.45-.165.599-.083 0 0 0 0 0 .032.025.063.053.091.083.07.069.134.144.191.224.189.24.358.496.507.764.367.587.646 1.225.83 1.893.112.329.112.685 0 1.013-.116.266-.457.35-.714.432-.27.096-.548.166-.83.208-.208 0-.324-.108-.466-.241-.407-.326-.727-.748-.93-1.23v-.115c0-.017-.091-.1 0 0 0 0-.29.174-.29.15 0-.026 0 0 .066 0l.166.099c.224.133.432.282.656.415.182.138.427.161.631.058.192-.105.34-.276.415-.482.113-.464.078-.951-.1-1.395-.188-.55-.41-1.088-.663-1.61-.084-.183-.1-.291-.183-.457-.083-.166 0 0 0 0-.191.282-.067.166.066.14.183-.045.374-.045.557 0 .307.217.473-.39.124-.506z" transform="translate(-838.000000, -313.000000) translate(326.000000, 154.000000) translate(512.000000, 159.000000) translate(0.000000, 0.000000) translate(19.030000, 13.840000)"/>
                            <path fill="#000" d="M40.1 104.722c0 1.453-.191 2.906-.282 4.351-.083 1.295-.308 2.848.124 4.152.038.134.16.226.3.224H48.278c.496.08 1.004.038 1.479-.124.431-.266.622-.972.772-1.42.344-1.042.621-2.104.83-3.18.465-2.234.665-4.51 1.08-6.752.166-.83 1.005-1.329 1.66-1.852.955-.764 1.794-1.662 2.492-2.665 1.732-2.656 2.33-5.894 1.66-8.993-.042-.136-.165-.229-.307-.233-.934.077-1.87-.125-2.69-.581-.072-.042-.157-.053-.236-.031-.08.022-.148.075-.188.147-.313.763-.485 1.576-.506 2.4-.047 1.347-.454 2.658-1.18 3.795-1.32 1.802-3.454 2.184-5.414 2.923-.78.299-1.478.897-2.258 1.154-1.005.332-2.101-.299-3.048-.565-.908-.283-1.886-.24-2.765.125-1.893.83-2.848 3.056-3.455 4.908-.737 2.432-1.202 4.938-1.386 7.473-.1 1.096-.175 2.2-.225 3.322v1.005c0 .59-.05.066.191.083-.34 0-.431.564-.083.606 1.121.158 2.433.249 3.438.382l.083-.606h-.091l.299.398c.31-2.214.645-4.412 1.005-6.593.224-1.32.44-2.65.764-3.945 0-.124.299-.83.274-.888-.49-.78-.34.266-.34.224 0 .266.04.556.04.83.026.153.158.265.312.265.155 0 .287-.112.312-.265 0-.348.108-1.66-.549-1.594-.514.058-.63 1.18-.722 1.545-.598 2.607-.972 5.281-1.362 7.93-.116.78-.232 1.553-.34 2.333-.023.095-.002.194.058.27.06.077.152.12.249.12h.091c.34 0 .432-.564.083-.614-1.12-.15-2.433-.249-3.438-.382l-.083.615c.748 0 .507-2.491.532-2.973.125-2.558.473-5.1 1.038-7.598.506-2.101 1.295-4.916 3.322-6.079 1.145-.656 2.267-.349 3.446 0 .708.308 1.48.436 2.25.374.88-.158 1.62-.83 2.45-1.18 1.926-.755 4.027-1.12 5.48-2.731.774-.88 1.294-1.953 1.503-3.106.241-1.212.083-2.574.632-3.695l-.432.108c.914.512 1.96.743 3.006.664l-.3-.224c.599 2.834.085 5.789-1.436 8.254-.706 1.064-1.578 2.01-2.582 2.798-.62.406-1.164.914-1.611 1.503-.246.66-.373 1.357-.374 2.06-.15 1.088-.316 2.159-.507 3.238-.216 2.01-.693 3.984-1.42 5.871-.257.54-.423.457-1.038.465h-8.42l.3.233c-.433-1.27-.175-2.89-.084-4.202.091-1.312.274-2.732.266-4.094-.005-.195-.166-.35-.361-.344-.195.004-.35.166-.345.36z" transform="translate(-838.000000, -313.000000) translate(326.000000, 154.000000) translate(512.000000, 159.000000) translate(0.000000, 0.000000) translate(19.030000, 13.840000)"/>
                        </g>
                    </g>
                </g>
            </g>
        </g>
    </g>
</svg>
