<svg width="200" height="200" viewBox="0 0 200 200" fill="none" xmlns="http://www.w3.org/2000/svg">
    <path d="M71.123 175.235a114.11 114.11 0 0 0-26.093.653 8.458 8.458 0 0 0-2.361.557c-.835.432-.48 1.017.192 1.469 2.707 1.852 9.283 2.534 15.158 3.014 10.08.813 20.192 1.587 30.336 2.323 5.283.464 10.586.653 15.888.567 8.419-.279 30.72-1.671 33.763-1.392 15.812 1.44 20.506-6.778 19.143-6.826-27.869-.95-86.026-.365-86.026-.365z" fill="#D2D8FF"/>
    <path d="M110.925 74.33c.118.22.197.461.23.71.442.269 2.688.74 3.485 1.728.335.389.335.965 0 1.354-.211.259-6.211.365-7.133.307a1.006 1.006 0 0 1-.585-.183.96.96 0 0 1-.231-.537c-.23-1.066-.412-2.333.346-3.12.353-.33.787-.562 1.258-.672a6.95 6.95 0 0 1 2.63.413z" fill="#fff"/>
    <path d="M110.56 74.56c.173.278.096.662.375.864.233.129.481.229.739.298.721.21 1.417.5 2.073.864.308.192.711.47.711.864.01.083.01.166 0 .25 0 .095-.067.153 0 .076s.096 0 0 0a.503.503 0 0 0-.115 0c-.327.048-.836.087-1.268.115a80.751 80.751 0 0 1-4.032.115h-1.363a.959.959 0 0 1-.288 0c-.259-.067-.259-.374-.307-.614a5.097 5.097 0 0 1-.125-1.43 1.748 1.748 0 0 1 1.843-1.594c.39.024.778.072 1.162.144.173 0 .346.067.518.115l.173.058c.058 0 .048 0 0 0a.432.432 0 0 0 .605-.605 1.499 1.499 0 0 0-.749-.317 13.439 13.439 0 0 0-1.219-.201 2.88 2.88 0 0 0-2.438.681 3.27 3.27 0 0 0-.672 3.044c.086.508.153 1.161.652 1.45.301.137.63.2.96.181 1.392 0 2.784 0 4.167-.067.672 0 1.344 0 2.016-.115.509 0 .96-.058 1.209-.566.586-1.143-.46-2.064-1.401-2.525a13.498 13.498 0 0 0-1.45-.586 5.918 5.918 0 0 1-.96-.345l.202.259a2.185 2.185 0 0 0-.279-.806c-.297-.519-1.046-.087-.739.393z" fill="#001A36"/>
    <path d="M93.04 75.079c-.12.217-.198.455-.23.7-.433.279-2.689.75-3.476 1.728-.33.39-.33.963 0 1.354.221.26 6.221.365 7.143.307.21.01.418-.054.585-.182a.961.961 0 0 0 .23-.528c.231-1.076.413-2.333-.345-3.12a2.707 2.707 0 0 0-1.267-.672 6.825 6.825 0 0 0-2.64.413z" fill="#fff"/>
    <path d="M92.666 74.858a2.17 2.17 0 0 0-.269.806l.202-.26c-.246.121-.504.218-.768.289-.423.154-.845.297-1.258.48-.806.355-1.833.912-1.92 1.92-.05.451.135.897.49 1.18.146.076.306.118.47.126.615.086 1.229.115 1.843.144 1.47.067 2.938.105 4.407.095.71 0 1.516 0 1.776-.816a4.55 4.55 0 0 0 0-3.225 2.678 2.678 0 0 0-2.592-1.354c-.468.04-.933.107-1.392.202a1.919 1.919 0 0 0-.912.346c-.384.393.22.96.614.614-.106.096 0 0 0 0h.154c.138-.045.279-.08.422-.106.338-.089.681-.156 1.027-.201a1.805 1.805 0 0 1 1.92.96c.172.432.222.904.144 1.363 0 .336-.048 1.238-.422 1.344a5.18 5.18 0 0 1-1.22 0c-1.334 0-2.668 0-4.003-.096-.518 0-1.046 0-1.555-.115a2.854 2.854 0 0 0-.317-.067s.106.086.116.067a.959.959 0 0 1-.096-.24.72.72 0 0 1 .278-.672 6.037 6.037 0 0 1 2.275-1.114c.312-.081.614-.194.903-.336.364-.201.259-.585.45-.902.28-.47-.47-.903-.767-.432zM95.075 17.92v2.88a16.155 16.155 0 0 0 2.506 6.115c.193.385.456.73.777 1.018.56.402 1.313.402 1.872 0 .192-.177.397-.337.615-.48a9.61 9.61 0 0 0 2.496-2.199 9.595 9.595 0 0 0 .729-5.232 4.452 4.452 0 0 0-.336-1.593 2.99 2.99 0 0 0-.902-1.056c-3.725-2.746-7.757.547-7.757.547z" fill="#001A36"/>
    <path d="M97.783 29.68c.44-.35.654-.914.556-1.469-.163-.825-.96-1.334-1.43-2.045a4.569 4.569 0 0 1-.586-1.622c-.25-1.238-.96-4.8.404-6.384a3.715 3.715 0 0 1 6.288 1.22 6.493 6.493 0 0 1-.125 5.442c-.346.605-.835 1.114-1.219 1.71a2.962 2.962 0 0 0-.432 1.967c.076.586 1.017.768.739 1.075-.087.096-1.536.596-1.661.644-.643.25-2.534-.538-2.534-.538z" fill="#fff"/>
    <path d="M98.032 29.93c1.066-.96.72-2.18-.096-3.101a4.435 4.435 0 0 1-1.133-1.815c-.134-.49-.22-.96-.307-1.478-.346-1.987-.672-4.8 1.46-5.846a3.6 3.6 0 0 1 2.658-.279 3.679 3.679 0 0 1 2.276 2.698 5.827 5.827 0 0 1-.423 4.704c-.701 1.142-2.073 2.39-1.545 3.907.096.242.259.452.47.605 0 0 .23.211.259.201l.125-.24-.096.048a2.732 2.732 0 0 0-.73.279l-.585.211a4.003 4.003 0 0 1-2.525-.5c-.432-.172-.615.529-.192.702.8.422 1.699.618 2.602.566.39-.101.772-.233 1.142-.394.307-.115.787-.21.96-.547.202-.509-.384-.681-.634-.96a1.616 1.616 0 0 1 0-1.286 4.33 4.33 0 0 1 .797-1.344 6.317 6.317 0 0 0 1.392-4.685c-.269-2.467-1.766-5.04-4.57-4.8a4.541 4.541 0 0 0-2.563 1.075 4.243 4.243 0 0 0-1.219 3.149 15.938 15.938 0 0 0 .422 3.84 4.8 4.8 0 0 0 1.105 2.314c.643.72 1.41 1.632.441 2.467-.346.307.163.816.509.509z" fill="#001A36"/>
    <path d="M102.525 17.92a5.99 5.99 0 0 0-4.157-.883 4.973 4.973 0 0 0-2.083.902c-.394.27-.835.682-.74 1.162a.96.96 0 0 0 .212.413c.585.631 1.426.96 2.284.893.855 0 1.69-.192 2.545-.164.331.002.658.074.96.212.346.193.632.478.825.825a7.035 7.035 0 0 1 .682 3.226 7.221 7.221 0 0 0 .643-4.695l-1.171-1.89z" fill="#001A36"/>
    <path d="M93.904 46.02c.135 6.873-1.18 27.244-1.017 28.242.028.282.138.549.316.769a1.7 1.7 0 0 0 .884.403c1.19.14 2.395.118 3.58-.067a.874.874 0 0 0 .375-.538c.23-.73 1.997-15.437 2.477-21.994 1.92 6.624 5.539 21.168 5.98 21.524.442.355 3.14.364 3.706.412.238.047.484.014.701-.096.221-.187.353-.459.365-.748.384-2.247-5.501-20.804-5.924-28.157-3.148-.586-11.443.25-11.443.25z" fill="#fff"/>
    <path d="M93.54 46.02c.153 8.38-.577 16.78-.96 25.151a22.3 22.3 0 0 0-.077 2.995c.182 2.064 2.774 1.786 4.281 1.67.75-.057 1.316-.086 1.584-.96.084-.314.142-.635.173-.96.25-1.689.451-3.378.653-5.078.643-5.328 1.267-10.656 1.661-16.012l-.701.096c1.344 4.53 2.505 9.12 3.715 13.68.499 1.92.96 3.84 1.546 5.76.192.662.336 1.92.96 2.38.685.26 1.419.369 2.15.317.701 0 2.016.346 2.621-.105.816-.624.432-2.084.278-2.88-.71-3.975-1.92-7.882-2.88-11.799-1.181-4.713-2.582-9.6-2.88-14.448a.365.365 0 0 0-.269-.345c-3.734-.644-7.795-.144-11.52.23-.46 0-.46.768 0 .72 3.668-.365 7.68-.883 11.348-.26l-.26-.345a65.689 65.689 0 0 0 2.045 11.136c.96 4.061 2.064 8.083 3.024 12.144.356 1.32.632 2.66.826 4.013.077.624.182 1.152-.739 1.344a9.161 9.161 0 0 1-2.65-.173c-.672-.086-.682 0-.893-.537a15.13 15.13 0 0 1-.47-1.546c-.519-1.805-.96-3.629-1.479-5.443-1.238-4.666-2.419-9.341-3.792-13.968a.364.364 0 0 0-.71.096c-.297 4.3-.787 8.64-1.325 13.027-.22 1.997-.46 3.984-.72 5.98-.086.654-.163 1.297-.259 1.92 0 .318-.058 1.018-.346 1.24-.287.22-.844.086-1.094.105-.56.038-1.12.038-1.68 0-.96-.067-1.478-.461-1.507-1.287 0-1.084.067-2.188.115-3.264.173-3.907.384-7.814.557-11.721.192-4.272.432-8.573.355-12.855a.365.365 0 0 0-.681-.019z" fill="#001A36"/>
    <path d="M89.402 54.131c.115.125.624 0 .691-.355.144-.614.115-2.429.202-2.688a.653.653 0 0 1 .605-.441c.41.299.804.62 1.18.96.067 0 .692.067.413-.47-.115-.231-1.478-1.92-1.709-2.18a1.805 1.805 0 0 0-.585-.528 1.229 1.229 0 0 0-.72 0 7.752 7.752 0 0 0-.96.278.51.51 0 0 0-.26.154.528.528 0 0 0-.057.269c.038.374.681 4.464 1.2 5.001z" fill="#fff"/>
    <path d="M89.2 54.448c.333.133.714.05.96-.211a1.43 1.43 0 0 0 .297-.96c0-.375 0-.759.058-1.143a6.077 6.077 0 0 1 0-.864v-.067c0-.01.144-.115.202-.182.057-.067-.106-.077 0 0l.23.201c.163.144.317.298.49.442.131.142.291.253.47.326a.672.672 0 0 0 .72-1.094c-.346-.528-.768-1.018-1.161-1.507-.394-.49-.701-1.181-1.306-1.325a3.312 3.312 0 0 0-1.68.298.816.816 0 0 0-.634.825c.038.462.105.92.202 1.373.134.758.278 1.526.47 2.275a3.84 3.84 0 0 0 .624 1.565c.317.346.826-.173.51-.509 0 0 0 .058 0 0a.403.403 0 0 0 0-.086.84.84 0 0 1-.087-.202c-.087-.24-.163-.47-.23-.71a26.745 26.745 0 0 1-.394-1.738 29.888 29.888 0 0 1-.27-1.565 3.189 3.189 0 0 1 0-.355v-.134c.108-.059.225-.097.346-.115l.423-.116c.208-.078.432-.104.653-.076.192 0 .316.24.432.384.115.144.259.288.384.441.364.442.72.883 1.065 1.344.087.14.184.275.288.403.058.058 0 .058.058 0h-.077c.067 0 .058.058.058 0 0-.057-.144-.115-.144-.115-.279-.24-.538-.509-.826-.73a.749.749 0 0 0-.96 0c-.576.394-.47 1.2-.5 1.805 0 .356 0 .72-.057 1.076.004.12-.012.24-.048.355 0 .057-.077.067-.125.096-.047.029-.096 0 0 0-.441-.307-.796.317-.441.595z" fill="#001A36"/>
    <path d="M93.933 37.034c0 1.728-.826 8.054-.202 9.677 4.08-.068 7.383.153 11.463.076 1.19 0-.106-9.6.259-13.017.154-1.479 1.354 14.784 1.142 13.92l4.023 1.113s.336-11.01-1.152-15.36c-1.296-3.84-6.384-5.952-8.919-4.156-1.238.873-2.17.46-4.262-.221-8.947-2.88-8.726 19.478-8.842 19.469-.96-.096 4.714.518 3.764.422 0-.02 2.592-18.74 2.726-11.923z" fill="#D2D8FF"/>
    <path d="M108.467 53.623a1.45 1.45 0 0 1-1.171-.096c-.192-.193 2.16-3.84.72-4.31-.154-.049-1.382.901-1.459.758-.384-.615 1.142-1.978 1.296-2.141a.748.748 0 0 1 .614-.26 6.119 6.119 0 0 1 1.92.663c.266.29.386.686.327 1.075a8.123 8.123 0 0 1-2.247 4.31z" fill="#fff"/>
    <path d="M108.4 53.277a1.343 1.343 0 0 1-.557.057.96.96 0 0 0-.221 0c-.057 0-.086-.153 0 .096 0 0 .077.125 0 .164.021-.057.037-.114.048-.173 0-.087 0-.115.106-.23.23-.529.48-1.047.691-1.585.243-.53.364-1.107.355-1.69 0-.45-.403-1.132-.96-.96a2.63 2.63 0 0 0-.662.366l-.413.259a2.623 2.623 0 0 0-.259.144c-.134 0 0 .086.336.163 0 0 0-.057 0 0v-.115c.044-.145.112-.281.202-.403.18-.266.386-.513.614-.74.144-.153.298-.316.461-.46.163-.144.48-.077.749 0 .354.077.698.193 1.027.345a.874.874 0 0 1 .403.96 6.295 6.295 0 0 1-.96 2.42c-.2.37-.425.725-.672 1.065a3.878 3.878 0 0 1-.259.298l-.115.124s-.087.049 0 0c-.423.173-.24.874.192.701.225-.107.419-.269.566-.47.247-.308.478-.628.691-.96a8.917 8.917 0 0 0 1.123-2.554c.13-.464.13-.956 0-1.42a1.477 1.477 0 0 0-.96-.893 8.606 8.606 0 0 0-1.171-.365 1.238 1.238 0 0 0-1.123.173c-.517.42-.962.923-1.315 1.488-.205.275-.294.62-.25.96.096.393.423.45.749.297.294-.158.579-.33.854-.518l.202-.115.086-.048c.596.374-.144 0-.144 0h.125a.863.863 0 0 1 .077.614 4.64 4.64 0 0 1-.269.96c-.24.653-.576 1.258-.825 1.92a.563.563 0 0 0 0 .634c.438.32 1.009.395 1.516.201.567-.153.384-.845-.038-.71z" fill="#001A36"/>
    <path d="M93.578 37.034c0 1.67-.23 3.35-.337 5.02-.096 1.498-.355 3.303.144 4.8a.365.365 0 0 0 .346.27c2.669 0 5.328 0 7.997.076 1.167.144 2.347.144 3.514 0a.75.75 0 0 0 .537-.422 6.715 6.715 0 0 0 .288-3.024c0-1.594-.125-3.188-.201-4.8a43.558 43.558 0 0 1-.096-4.628v-.49c-3.005-3.254-.596 0-.644.049-.048.048 0 .086 0 .115a3.27 3.27 0 0 0 .106.864c.259 2.314.422 4.637.595 6.95.106 1.325.192 2.65.279 3.975 0 .422 0 .854.067 1.277 0 .201-.058.739.057.508l.5-.124.144.182-.442.442 4.022 1.113a.364.364 0 0 0 .461-.345c.172-4.077.011-8.16-.48-12.212-.317-2.342-.845-4.579-2.669-6.23-1.641-1.478-4.156-2.563-6.384-1.92-.463.18-.906.405-1.324.672a3.178 3.178 0 0 1-2.612-.048 8.64 8.64 0 0 0-2.88-.634 4.714 4.714 0 0 0-3.446 1.796c-2.275 2.716-2.957 6.72-3.427 10.128a61.052 61.052 0 0 0-.528 5.596c0 .605-.058 1.2-.077 1.796 0 .124-.077.432 0 .537.154.298-.202-.201.23-.182-.393 0-.499.653-.096.71 1.287.183 2.88.279 3.975.442l.096-.71h-.106l.346.46c.345-2.521.73-5.043 1.152-7.565.259-1.536.508-3.081.883-4.588.131-.348.24-.704.326-1.066-.278-.47-.403 0-.432 0-.029 0 .048.192 0 .24-.008.321.011.642.058.96a.365.365 0 0 0 .72 0c0-.394.106-2.006-.682-1.843-.566.115-.7 1.373-.797 1.805-.681 3.014-1.065 6.153-1.526 9.235-.134.877-.26 1.75-.374 2.62a.365.365 0 0 0 .345.452h.106c.394 0 .5-.653.096-.71-1.287-.173-2.88-.279-3.975-.433l-.096.701c.634 0 .5-.768.51-1.2 0-1.238.115-2.477.21-3.705a34.774 34.774 0 0 1 2.199-10.733 7.249 7.249 0 0 1 2.717-3.59c1.843-1.066 3.532.076 5.404.422 1.22.23 1.834-.298 2.881-.768a4.933 4.933 0 0 1 3.609.105 7.402 7.402 0 0 1 4.695 5.933c.715 4.458.946 8.98.691 13.488l.451-.345-4.022-1.114a.365.365 0 0 0-.442.442.434.434 0 0 0 .182.25c.173.094.39.035.49-.135a3.197 3.197 0 0 0 0-1.45c-.058-1.075-.134-2.15-.211-3.225-.183-2.602-.375-5.194-.634-7.786a5.768 5.768 0 0 0-.23-1.814c-.307-.567-.653-.221-.768.23a16.4 16.4 0 0 0 0 4.502c.086 1.786.201 3.562.23 5.338.039.73.01 1.463-.086 2.189 0 .144 0 .441-.144.547-.144.106-1.613 0-1.92 0-3.159 0-6.317-.134-9.475-.086l.345.259c-.5-1.46-.202-3.331-.096-4.8.106-1.469.326-3.159.317-4.733a.365.365 0 0 0-.662-.038zM89.93 68.522v2.006c-.317 2.342-1.92 8.525-2.275 8.794-.576.412-6.106.844-6.346.72-.24-.125-1.075-8.487-.883-10.503.014-.584.138-1.16.365-1.699.22-.444.55-.825.96-1.104a6.499 6.499 0 0 1 7.17 0 1.987 1.987 0 0 1 1.009 1.786z" fill="#001A36"/>
    <path d="M87.625 79.36c-.662-.144-1.43-.451-1.315-1.018.192-.873 1.056-1.401 1.555-2.13.321-.528.54-1.111.644-1.72.297-1.295 1.123-5.078-.308-6.72-1.43-1.64-5.136-2.495-6.672 1.172a6.864 6.864 0 0 0 0 5.76c.346.653.864 1.2 1.248 1.824.44.606.596 1.372.432 2.102a3.782 3.782 0 0 1-1.92 1.479 2.698 2.698 0 0 0 1.92 1.075c.375 0 2.007.586 2.88.22.365-.143 2.592-1.286 2.88-1.41.288-.125-.672-.528-1.344-.634z" fill="#fff"/>
    <path d="M87.722 78.966c-.538-.124-1.277-.307-.893-.96.278-.422.6-.815.96-1.17a5.213 5.213 0 0 0 1.075-2.43c.382-1.48.528-3.013.432-4.54a3.917 3.917 0 0 0-1.862-3.188 4.656 4.656 0 0 0-3.552-.518c-3.523 1.018-4.186 6.365-2.439 9.072.576.893 1.719 1.92 1.45 3.11-.106.442-.538.71-.902.96-.365.25-.96.336-1.066.634-.26.48.566.96.883 1.142.63.321 1.313.526 2.016.605.801.245 1.657.245 2.458 0 .624-.25 1.229-.595 1.843-.902.307-.154 1.162-.394 1.248-.797.163-.691-1.286-.873-1.69-.96-.403-.086-.643.595-.192.7.212.049 1.133.154 1.23.356v-.365c0-.086-.183.067-.28.115l-.68.337c-.538.268-1.066.556-1.614.796a2.88 2.88 0 0 1-1.814.096 12.011 12.011 0 0 1-1.651-.345 3.443 3.443 0 0 1-.595-.298c-.106-.077-.288-.288-.413-.317l-.077-.077c0 .308.058.365.269.173.208-.076.403-.186.576-.326.554-.281.972-.772 1.161-1.363.384-1.786-1.42-3.015-1.996-4.503-1.037-2.668.086-7.459 3.638-7.248a3.84 3.84 0 0 1 2.669 1.258c.902 1.113.768 2.88.605 4.214a7.604 7.604 0 0 1-1.575 4.483c-.451.48-1.142 1.162-1.027 1.92.115.759.96.96 1.574 1.124a.41.41 0 0 0 .23-.788z" fill="#001A36"/>
    <path d="M82.058 67.072a6.077 6.077 0 0 1 4.406-.883c.8.17 1.55.525 2.189 1.037.422.307.873.768.768 1.296-.037.17-.117.328-.23.46a2.928 2.928 0 0 1-2.439.96c-.893 0-1.776-.25-2.678-.24a1.997 1.997 0 0 0-1.92 1.104c-.615 1.037-.5 2.765-.26 4.359-1.084-.759-1.507-4.08-1.132-6.01l1.296-2.083z" fill="#001A36"/>
    <path d="M96.093 125.114c.112.223.187.463.22.71.442.269 2.698.739 3.485 1.718.335.389.335.965 0 1.354-.21.269-6.21.374-7.133.307a.894.894 0 0 1-.585-.182.961.961 0 0 1-.23-.528c-.23-1.066-.413-2.333.345-3.12.355-.329.788-.56 1.258-.672a6.842 6.842 0 0 1 2.64.413z" fill="#fff"/>
    <path d="M95.718 125.334c.173.269.096.663.384.855.23.131.475.231.73.297.72.216 1.416.509 2.074.874.307.182.71.461.71.864.009.083.009.167 0 .25 0 .096-.067.153 0 .076.067-.076.096 0 0 0a.554.554 0 0 0-.115 0c-.327 0-.836.087-1.258.106a71.76 71.76 0 0 1-4.041.125h-1.364a1.439 1.439 0 0 1-.278 0c-.269-.077-.269-.384-.317-.615a5.19 5.19 0 0 1-.125-1.44 1.747 1.747 0 0 1 1.844-1.593c.39.022.778.073 1.161.153.178.03.354.068.528.116h.163c.058 0 0 .048 0 0 .394.393.96-.221.605-.615a1.49 1.49 0 0 0-.749-.307c-.402-.091-.809-.159-1.219-.202a2.94 2.94 0 0 0-2.438.682 3.245 3.245 0 0 0-.663 3.043c.077.509.144 1.162.644 1.45.3.139.63.199.96.173 1.392 0 2.784 0 4.175-.058.663 0 1.344-.058 2.007-.125.509 0 .96-.057 1.21-.557.595-1.152-.461-2.064-1.402-2.524a11.13 11.13 0 0 0-1.45-.586 5.848 5.848 0 0 1-.96-.346l.202.26a2.22 2.22 0 0 0-.279-.816c-.297-.394-1.046-.01-.739.46z" fill="#001A36"/>
    <path d="M79.14 125.114a2.258 2.258 0 0 0-.222.71c-.441.269-2.697.739-3.485 1.718a1.037 1.037 0 0 0 0 1.354c.212.269 6.212.374 7.133.307.21.01.418-.054.586-.182a.96.96 0 0 0 .23-.528c.23-1.066.413-2.333-.345-3.12a2.803 2.803 0 0 0-1.258-.672 6.842 6.842 0 0 0-2.64.413z" fill="#fff"/>
    <path d="M78.775 124.893c-.147.25-.242.528-.279.816l.202-.259a5.24 5.24 0 0 1-.768.288c-.423.144-.845.297-1.258.47-.806.355-1.833.96-1.92 1.92-.048.451.136.896.49 1.181.149.076.313.118.48.125.605.086 1.219.115 1.833.144a85.47 85.47 0 0 0 4.407.096c.72 0 1.517 0 1.785-.816a4.58 4.58 0 0 0 0-3.216 2.679 2.679 0 0 0-2.582-1.364c-.471.042-.94.113-1.402.212a1.749 1.749 0 0 0-.902.336c-.394.393.211.96.605.614-.096.106 0 0 0 0h.134l.423-.106c.355-.067.72-.124 1.084-.163.78-.127 1.554.26 1.92.96.164.438.213.911.144 1.373 0 .326-.057 1.229-.432 1.334a5.18 5.18 0 0 1-1.219 0c-1.334 0-2.669 0-4.003-.096-.518 0-1.037 0-1.555-.115a1.703 1.703 0 0 0-.317-.057s.106.076.115.057a.872.872 0 0 1-.096-.23.75.75 0 0 1 .279-.682 5.942 5.942 0 0 1 2.256-1.094c.329-.089.65-.204.96-.346.355-.201.25-.585.441-.893.211-.518-.528-.902-.825-.489z" fill="#001A36"/>
    <path d="M80.003 96.054c.135 6.874-1.18 27.245-1.017 28.244.028.281.138.548.316.768.252.219.563.359.893.403 1.191.141 2.396.118 3.581-.067a.846.846 0 0 0 .365-.538c.24-.72 1.997-15.437 2.477-21.984 1.92 6.614 4.598 21.907 5.04 22.262.441.356 3.139.365 3.705.413.238.043.483.009.701-.096.217-.19.349-.46.365-.749.384-2.256-4.56-21.542-4.983-28.905-3.148-.586-11.443.25-11.443.25z" fill="#fff"/>
    <path d="M79.6 96.054c.154 8.381-.576 16.791-.96 25.152a24.026 24.026 0 0 0-.077 2.996c.183 2.064 2.775 1.785 4.291 1.67.75 0 1.306-.086 1.575-.96.084-.314.142-.636.172-.96.25-1.69.452-3.379.653-5.078.643-5.319 1.267-10.656 1.661-16.004l-.7.096c1.343 4.551 2.236 9.255 3.177 13.911.413 2.025.816 4.061 1.258 6.077.134.643.201 2.035.767 2.486.567.451 1.632.326 2.228.374.595.048 2.016.346 2.62-.115.826-.624.442-2.198.317-3.043-.585-4.09-1.555-8.141-2.38-12.192-.96-4.8-2.15-9.734-2.448-14.669a.365.365 0 0 0-.27-.345c-3.724-.644-7.794-.135-11.52.24-.46 0-.46.758 0 .72 3.668-.365 7.68-.893 11.348-.26l-.192-.345a85.441 85.441 0 0 0 1.766 11.337c.826 4.215 1.748 8.41 2.554 12.624.294 1.35.512 2.716.653 4.09.057.653.134 1.171-.816 1.325a8.48 8.48 0 0 1-2.948-.221c-.45-.115-.393-.086-.527-.576-.135-.49-.26-1.075-.375-1.613-.403-1.833-.758-3.667-1.133-5.51-.96-4.8-1.92-9.735-3.302-14.477a.364.364 0 0 0-.71.096c-.317 4.349-.807 8.64-1.306 13.027-.23 1.997-.474 3.991-.73 5.981a51.6 51.6 0 0 1-.259 1.92c-.048.317-.057 1.027-.346 1.238-.354.106-.726.141-1.094.106-.56.034-1.12.034-1.68 0-.96-.077-1.478-.47-1.507-1.296 0-1.085.067-2.179.115-3.264.173-3.907.384-7.814.557-11.722.192-4.272.432-8.572.355-12.854a.394.394 0 1 0-.787.038z" fill="#001A36"/>
    <path d="M75.5 104.176c.116.115.625 0 .702-.365.134-.614.105-2.429.192-2.688a.634.634 0 0 1 .614-.432c.413.295.808.616 1.18.96.058.048.692.067.404-.47-.115-.231-1.469-1.92-1.7-2.17a1.757 1.757 0 0 0-.594-.537 1.152 1.152 0 0 0-.72 0 8.8 8.8 0 0 0-.96.268.643.643 0 0 0-.26.154.538.538 0 0 0-.057.278c0 .346.681 4.455 1.2 5.002z" fill="#fff"/>
    <path d="M75.319 104.483c.297.221.777 0 .96-.201a1.46 1.46 0 0 0 .297-.96c0-.384.02-.768.058-1.152a6.08 6.08 0 0 1 .048-.864v-.058c0-.058.144-.125.201-.192.058-.067-.096-.077 0 0l.23.192.49.442c.127.147.288.259.47.326a.673.673 0 0 0 .72-1.094c-.345-.528-.767-1.018-1.16-1.508-.394-.49-.817-1.18-1.422-1.315a3.283 3.283 0 0 0-1.68.288.816.816 0 0 0-.643.835c.039.452.106.901.202 1.344.134.768.278 1.527.47 2.276.088.564.302 1.102.624 1.574.317.346.826-.163.519-.509 0 0 0 .058 0 0l-.058-.086-.087-.202a6.075 6.075 0 0 1-.22-.71 20.793 20.793 0 0 1-.403-1.738 31.38 31.38 0 0 1-.27-1.555 3.523 3.523 0 0 1 0-.365v-.134c.108-.059.225-.098.346-.115l.423-.116c.208-.077.432-.103.653-.076.191 0 .316.24.441.384l.374.441c.365.442.72.893 1.066 1.344.088.14.184.275.288.403.058.068 0 .068.058 0 .057-.067 0 0 0 0h-.087.058a.577.577 0 0 0-.144-.124c-.279-.24-.538-.509-.826-.73a.75.75 0 0 0-.96 0c-.576.394-.47 1.2-.49 1.814 0 .356 0 .711-.057 1.066 0 .124-.02.247-.058.365 0 0-.076.057-.124.096-.048.038-.096 0 0 0-.317-.279-.672.345-.308.614z" fill="#001A36"/>
    <path d="M80.032 87.04c0 1.728-.826 8.064-.202 9.686 4.08-.076 6.567 0 10.647-.076 1.19 0 2.736-9.773 3.09-13.143.164-1.478 4.12-.25 6.183-4.665a13.954 13.954 0 0 0 .96-8.468 6.46 6.46 0 0 1-3.292-.72c-.874 1.604-.097 4.368-1.777 6.96-2.179 3.38-6.46.874-8.995 2.67-1.228.873-2.17.45-4.252-.231-8.957-2.89-8.737 19.507-8.842 19.507-.96-.096 4.704.518 3.753.422 0-.01 2.602-18.73 2.727-11.942z" fill="#D2D8FF"/>
    <path d="M99.616 64.192a1.468 1.468 0 0 0-1.152-.201c-.24.134 1.123 4.224-.413 4.348-.153 0-1.094-1.219-1.21-1.104-.527.5.596 2.208.711 2.41a.7.7 0 0 0 .528.394 6.04 6.04 0 0 0 1.997-.154c.327-.218.541-.57.585-.96a8.214 8.214 0 0 0-1.046-4.733z" fill="#fff"/>
    <path d="M99.76 63.885c-.47-.298-1.776-.615-1.718.297 0 .567.192 1.143.269 1.71a3.84 3.84 0 0 1 0 1.814.442.442 0 0 1-.125.201h-.058s-.163 0 0 0 .067 0 0 0l-.144-.067-.403-.432c-.182-.192-.422-.518-.72-.518s-.528.47-.518.777c.092.728.366 1.422.796 2.016.164.372.496.644.893.73.32.027.64.027.96 0 .41.01.817-.058 1.2-.202a1.63 1.63 0 0 0 .787-1.18 6.888 6.888 0 0 0-.259-3.111c-.112-.45-.26-.89-.441-1.315a1.625 1.625 0 0 0-.49-.74c-.365-.278-.73.346-.365.615-.077-.058 0 0 0 0l.077.115c.058.115.115.23.163.346.132.313.244.633.336.96.242.784.372 1.598.384 2.419.018.377-.075.751-.269 1.075-.201.26-.576.26-.892.279-.32.026-.641.026-.96 0-.24 0-.327-.202-.442-.394a3.6 3.6 0 0 1-.7-1.651.686.686 0 0 0 0-.135s-.106-.163 0 0c0 0-.366.096-.366.077h.068l.163.163c.211.212.403.452.624.663.16.202.42.295.672.24.246-.063.46-.213.605-.423a2.525 2.525 0 0 0 .288-1.564 15.61 15.61 0 0 0-.27-1.997c0-.24-.057-.384-.086-.567-.028-.182 0 0 0 0s-.144.164-.134.173h.115c.235.023.463.092.672.202.355.288.72-.336.288-.576z" fill="#001A36"/>
    <path d="M79.677 87.04c0 1.67-.23 3.36-.336 5.03a12.96 12.96 0 0 0 .144 4.8c.043.155.185.261.345.26h9.293a3.657 3.657 0 0 0 1.709-.144c.557-.327.778-1.268.96-1.824.388-1.24.708-2.5.96-3.773.288-1.44.538-2.88.758-4.349l.26-1.795c0-.528.065-1.053.192-1.565.307-.71 1.65-.778 2.323-1.027a6.537 6.537 0 0 0 2.88-2.026c2.141-2.688 2.669-6.96 1.92-10.253a.384.384 0 0 0-.355-.268 5.472 5.472 0 0 1-3.11-.672.354.354 0 0 0-.49.134c-1.21 2.304-.25 5.194-2.17 7.344-1.613 1.834-4.253 1.114-6.384 1.354-.76.09-1.492.34-2.15.73-1.392.796-2.564.162-3.975-.26a4.8 4.8 0 0 0-3.225 0c-2.228.902-3.36 3.418-4.08 5.54a39.18 39.18 0 0 0-1.67 8.802 71.623 71.623 0 0 0-.25 3.84c0 .384 0 .778-.048 1.162 0 .672 0 .077.22.096-.393 0-.499.653-.096.7 1.296.174 2.813.289 3.975.442l.096-.71h-.106l.346.46c.358-2.56.745-5.12 1.161-7.68.26-1.516.51-3.052.884-4.55 0-.144.345-.96.316-1.027-.566-.902-.393.307-.384.26-.019.32-.019.64 0 .96a.365.365 0 0 0 .72 0c0-.404.116-1.92-.643-1.844-.595.067-.73 1.363-.825 1.786-.701 3.014-1.124 6.105-1.584 9.168-.135.902-.26 1.795-.384 2.697a.355.355 0 0 0 .345.452h.106c.403 0 .499-.653.096-.701-1.296-.173-2.803-.288-3.975-.442l-.096.71c.874 0 .586-2.975.624-3.523.142-2.962.55-5.905 1.22-8.793.595-2.429 1.526-5.76 3.936-7.008 1.42-.74 2.774-.221 4.204.22a4.33 4.33 0 0 0 2.602.231 5.89 5.89 0 0 0 1.027-.557 4.714 4.714 0 0 1 2.112-.528c2.045-.125 4.349.307 6.02-1.21a6.48 6.48 0 0 0 1.823-3.6c.279-1.401.096-2.975.72-4.281l-.49.134a6.153 6.153 0 0 0 3.572.778l-.346-.26c.701 3.073.202 7.124-1.804 9.6a6.153 6.153 0 0 1-3.197 2.007c-.698.09-1.36.361-1.92.787-.432.49-.355 1.392-.432 1.997a137.748 137.748 0 0 1-.586 3.84 29.472 29.472 0 0 1-1.632 6.989c-.259.595-.326.624-1.017.634H79.83l.356.268c-.51-1.478-.212-3.34-.106-4.857.106-1.517.326-3.159.317-4.733a.365.365 0 0 0-.72.048z" fill="#001A36"/>
    <path d="M107.152 125.114a2.114 2.114 0 0 0-.23.71c-.432.269-2.688.739-3.485 1.718a1.038 1.038 0 0 0 0 1.354c.211.269 6.221.374 7.142.307a.883.883 0 0 0 .576-.182c.129-.149.213-.333.24-.528.221-1.066.404-2.333-.355-3.12a2.765 2.765 0 0 0-1.257-.672 6.795 6.795 0 0 0-2.631.413z" fill="#fff"/>
    <path d="M106.778 124.893c-.148.249-.24.528-.269.816l.192-.259a4.69 4.69 0 0 1-.758.288c-.432.144-.845.297-1.258.47-.816.355-1.834.96-1.92 1.92-.056.45.126.897.48 1.181.149.075.313.117.48.125.605.086 1.229.115 1.843.144 1.469.067 2.938.105 4.407.096.71 0 1.507 0 1.776-.816a4.588 4.588 0 0 0 0-3.216 2.699 2.699 0 0 0-2.592-1.364c-.472.042-.94.113-1.402.212a1.776 1.776 0 0 0-.902.336.433.433 0 1 0 .614.614c-.106.106 0 0-.058 0l.154-.048.422-.106c.365-.067.73-.124 1.095-.163a1.815 1.815 0 0 1 1.92.96c.163.438.213.911.144 1.373 0 .326-.058 1.229-.423 1.334-.408.049-.82.049-1.228 0-1.335 0-2.669 0-4.004-.096-.518 0-1.036 0-1.555-.115a1.7 1.7 0 0 0-.317-.057s.106.076.125.057c.019-.019-.096-.211-.105-.23a.747.747 0 0 1 .278-.682 5.98 5.98 0 0 1 2.266-1.094c.309-.091.611-.207.902-.346.355-.201.249-.585.451-.893.288-.47-.461-.854-.758-.441z" fill="#001A36"/>
    <path d="M124.874 123.914c.118.221.196.461.23.71.442.269 2.698.739 3.485 1.728.335.389.335.965 0 1.354-.211.259-6.211.364-7.133.307a1.01 1.01 0 0 1-.586-.183.96.96 0 0 1-.23-.537c-.23-1.066-.413-2.333.346-3.12.354-.328.787-.56 1.257-.672a6.955 6.955 0 0 1 2.631.413z" fill="#fff"/>
    <path d="M124.509 124.134c.173.279.096.663.384.864a3.2 3.2 0 0 0 .73.298 9.85 9.85 0 0 1 2.073.864c.307.192.711.47.711.864a1.063 1.063 0 0 1-.048.25c0 .096-.068.153 0 .076.067-.076.096 0 0 0h-.116c-.326 0-.835.087-1.267.116a81.865 81.865 0 0 1-4.032.115h-1.363a.925.925 0 0 1-.278 0c-.269-.067-.269-.375-.317-.615a5.093 5.093 0 0 1-.125-1.43 1.748 1.748 0 0 1 1.843-1.594c.39.024.778.072 1.162.144.173 0 .355.068.528.116l.163.057c.058 0 .048 0 0 0a.432.432 0 0 0 .605-.605 1.5 1.5 0 0 0-.749-.316 13.234 13.234 0 0 0-1.219-.202 2.938 2.938 0 0 0-2.439.682 3.274 3.274 0 0 0-.672 3.043c.087.509.154 1.161.653 1.449.301.138.63.201.96.183 1.392 0 2.784 0 4.167-.067.672 0 1.353 0 2.016-.116.508-.057.96-.057 1.209-.566.595-1.142-.461-2.064-1.401-2.525a13.556 13.556 0 0 0-1.45-.585 5.942 5.942 0 0 1-.96-.346l.202.259a2.187 2.187 0 0 0-.279-.806c-.249-.509-.998-.077-.691.393zM113.507 67.84v2.88a16.095 16.095 0 0 0 2.506 6.115c.189.387.454.733.778 1.018.569.425 1.35.425 1.92 0a4.73 4.73 0 0 1 .604-.48 9.443 9.443 0 0 0 2.506-2.199 9.605 9.605 0 0 0 .73-5.232 4.71 4.71 0 0 0-.336-1.593 2.991 2.991 0 0 0-.903-1.056c-3.773-2.698-7.805.547-7.805.547z" fill="#001A36"/>
    <path d="M116.205 79.648c.446-.347.664-.912.566-1.469-.163-.825-.96-1.334-1.43-2.035a4.687 4.687 0 0 1-.586-1.632c-.249-1.238-.96-4.8.394-6.384a3.725 3.725 0 0 1 6.297 1.22 6.456 6.456 0 0 1-.134 5.442c-.336.605-.826 1.124-1.21 1.71a2.983 2.983 0 0 0-.432 1.977c.068.576 1.018.768.74 1.065-.087.096-1.536.596-1.661.644-.643.25-2.544-.538-2.544-.538z" fill="#fff"/>
    <path d="M116.464 79.898c1.056-.96.72-2.18-.096-3.101a4.378 4.378 0 0 1-1.133-1.815c-.134-.48-.22-.96-.307-1.478-.345-1.987-.672-4.8 1.459-5.846a3.582 3.582 0 0 1 2.65-.279 3.725 3.725 0 0 1 2.285 2.698 5.857 5.857 0 0 1-.423 4.713c-.7 1.143-2.073 2.381-1.545 3.898.097.242.26.451.47.605 0 0 .231.211.259.201l.125-.24h-.096a2.71 2.71 0 0 0-.729.279l-.596.211a4.09 4.09 0 0 1-2.486-.49c-.422-.182-.614.519-.182.692a4.962 4.962 0 0 0 2.601.576 7.692 7.692 0 0 0 1.143-.404c.307-.115.787-.21.96-.547.201-.509-.394-.681-.634-.96a1.576 1.576 0 0 1 0-1.286c.178-.495.449-.95.797-1.344a6.289 6.289 0 0 0 1.392-4.675c-.269-2.477-1.767-5.05-4.57-4.8a4.53 4.53 0 0 0-2.563 1.065 4.205 4.205 0 0 0-1.258 3.149 15.959 15.959 0 0 0 .423 3.84 4.71 4.71 0 0 0 1.094 2.314c.643.72 1.421 1.632.451 2.467-.355.355.125.864.509.557z" fill="#001A36"/>
    <path d="M120.957 67.927a5.952 5.952 0 0 0-4.157-.874 4.848 4.848 0 0 0-2.083.893c-.403.269-.835.681-.739 1.161a.968.968 0 0 0 .201.413c.591.63 1.434.96 2.295.903.845 0 1.69-.192 2.534-.173.332 0 .659.072.96.21.349.191.635.478.826.827a6.814 6.814 0 0 1 .682 3.225c.744-1.445.975-3.1.652-4.694l-1.171-1.891z" fill="#001A36"/>
    <path d="M123.76 95.987c-.144 6.874 1.459 26.112 1.296 27.12-.03.278-.14.542-.317.759-.247.226-.56.368-.893.403-1.19.143-2.395.124-3.58-.058a.89.89 0 0 1-.365-.537c-.24-.73-2.275-14.314-2.755-20.871-1.978 6.624-5.108 21.984-5.549 22.34-.442.355-3.139.364-3.706.412a1.145 1.145 0 0 1-.701-.096 1.073 1.073 0 0 1-.364-.748c-.384-2.256 5.068-21.61 5.491-28.973 3.129-.586 11.443.25 11.443.25z" fill="#D2D8FF"/>
    <path d="M123.309 95.987c-.135 7.459.614 14.967 1.075 22.407.086 1.267.173 2.534.211 3.84.029.271.029.544 0 .816-.23 1.113-1.68.96-2.544.96a4.582 4.582 0 0 1-1.411-.087c-.269-.115-.298-.192-.403-.47a7.186 7.186 0 0 1-.231-1.267 228.558 228.558 0 0 1-.729-4.8c-.691-4.8-1.373-9.668-1.738-14.535a.441.441 0 0 0-.854-.105c-1.239 4.204-2.189 8.505-3.178 12.787-.47 2.035-.96 4.08-1.411 6.115-.163.672-.326 1.344-.499 2.006a3.564 3.564 0 0 1-.365 1.248 9.749 9.749 0 0 1-1.987.192c-.73 0-1.92.317-2.045-.681a11.507 11.507 0 0 1 .528-3.456c.826-4.071 1.805-8.103 2.698-12.154a84.462 84.462 0 0 0 2.284-13.017l-.316.422c3.648-.634 7.68-.106 11.328.26.556.057.547-.807 0-.865-3.754-.374-7.824-.873-11.52-.23a.431.431 0 0 0-.317.413 84.581 84.581 0 0 1-2.285 12.94c-.96 4.282-2.016 8.554-2.88 12.874a10.332 10.332 0 0 0-.374 3.158c.249 1.92 3.187 1.258 4.56 1.047 1.142-.173 1.209-.749 1.478-1.776.47-1.757.864-3.533 1.267-5.309 1.219-5.261 2.333-10.56 3.84-15.754l-.845-.115c.346 4.656.96 9.293 1.652 13.911.259 1.824.518 3.648.816 5.462.153.883.153 2.15 1.152 2.486a7.9 7.9 0 0 0 2.611.135c.873 0 1.92-.144 2.371-1.037a5.516 5.516 0 0 0 .125-2.506c-.202-3.897-.49-7.795-.73-11.683-.269-4.521-.595-9.062-.518-13.584a.433.433 0 0 0-.816-.048z" fill="#001A36"/>
    <path d="M128.243 104.109c-.115.115-.624 0-.701-.365-.144-.614-.105-2.429-.201-2.688a.636.636 0 0 0-.605-.442c-.41.3-.804.62-1.181.96-.058 0-.691.068-.403-.47.115-.23 1.469-1.92 1.699-2.17.154-.222.358-.406.595-.537.234-.077.486-.077.72 0 .326.067.647.156.96.269a.48.48 0 0 1 .25.153c.051.084.075.181.067.279-.01.422-.682 4.464-1.2 5.011z" fill="#fff"/>
    <path d="M128.061 103.792s-.106 0-.135-.077a1.16 1.16 0 0 1-.067-.259c0-.317-.048-.643-.067-.96a5.6 5.6 0 0 0-.115-1.555.96.96 0 0 0-.96-.663c-.298 0-.548.308-.759.5l-.432.393-.096.077h-.048a.113.113 0 0 1 .077 0h-.086c-.02 0 0 0 0 0s.067.086.057.086c-.009 0 0 0 0 0s.077-.134.106-.163c.297-.432.643-.845.96-1.257.153-.192.317-.394.48-.576.163-.183.345-.49.585-.586a1.19 1.19 0 0 1 .634.058c.277.03.546.109.797.23.057 0 .057 0 .048.134.005.061.005.122 0 .183v.192l-.058.326c0 .259-.086.519-.134.787a36.106 36.106 0 0 1-.423 1.988 17.55 17.55 0 0 1-.24.796l-.105.26-.058.105c-.048.077 0 0 0 0-.307.346.202.855.509.509.293-.4.487-.864.566-1.354a23.99 23.99 0 0 0 .452-2.006c.124-.672.201-1.094.259-1.651.044-.206.024-.42-.058-.614a.835.835 0 0 0-.499-.384 8.266 8.266 0 0 0-.96-.279 1.411 1.411 0 0 0-1.392.327c-.192.201-.365.412-.538.624a39.177 39.177 0 0 0-1.238 1.564c-.16.178-.281.387-.355.615a.614.614 0 0 0 .461.758.958.958 0 0 0 .854-.298l.49-.441.211-.183s.144.077.201.192c.058.116 0 .077 0 .068v.47c0 .422 0 .854.058 1.277a2.26 2.26 0 0 0 .202 1.075c.192.317.777.605 1.123.355.345-.249.067-.921-.307-.643z" fill="#001A36"/>
    <path d="M123.76 87.04c0 1.728.826 8.054.192 9.686-4.08-.076-6.557 0-10.637-.076-1.19 0-2.736-9.773-3.091-13.143-.163-1.478-3.696-2.38-5.76-6.797a13.922 13.922 0 0 1-.96-8.467 6.405 6.405 0 0 0 3.293-.73c.883 1.613.096 4.378 1.776 6.97 2.189 3.38 6.038 2.995 8.573 4.8 1.228.874 2.169.451 4.252-.23 8.957-2.88 8.727 19.478 8.842 19.469.96-.096-4.704.518-3.754.422-.048-.038-2.649-18.758-2.726-11.904zM102.707 62.272c.282-.296.676-.46 1.085-.451.249.077-.163 4.358 1.353 4.147.154 0 .807-1.43.96-1.344.624.375-.096 2.285-.153 2.506a.748.748 0 0 1-.432.508 6.052 6.052 0 0 1-1.978.279 1.278 1.278 0 0 1-.787-.797 8.163 8.163 0 0 1-.048-4.848z" fill="#fff"/>
    <path d="M102.957 62.522c.146-.137.32-.241.509-.308a.711.711 0 0 0 .153 0c0-.048.067.096 0 0s-.125-.134-.115-.134v.086c0 .01 0-.067 0 0v.288c0 .548 0 1.104.115 1.652a4.31 4.31 0 0 0 .442 1.66c.23.394.787.816 1.257.557.203-.159.361-.367.461-.605l.231-.393c.087-.115.164-.237.23-.365a.298.298 0 0 1-.346 0v.067c.011.131.011.263 0 .394a4.76 4.76 0 0 1-.192.96c-.057.22-.124.441-.201.653-.077.21-.355.326-.653.393a5.32 5.32 0 0 1-1.094.173c-.423 0-.653-.298-.807-.662a6.658 6.658 0 0 1-.317-2.64c.016-.39.051-.777.106-1.162 0-.144.058-.298.096-.442.038-.144 0-.105 0-.153s.077-.096 0 0c.298-.346-.211-.864-.509-.509a1.542 1.542 0 0 0-.278.7c-.076.394-.128.792-.154 1.191a9.142 9.142 0 0 0 .183 2.755c.097.478.322.92.652 1.277.34.31.808.44 1.258.346a8.147 8.147 0 0 0 1.248-.23c.421-.08.767-.381.902-.788.25-.612.399-1.26.442-1.92a1.144 1.144 0 0 0-.326-.96c-.327-.288-.605 0-.797.25-.192.25-.355.605-.538.902 0 0-.077.135-.067.096.01-.038-.134.077 0 0s.058 0 0 0-.115 0-.211-.067a1.514 1.514 0 0 1-.135-.192 1.327 1.327 0 0 1-.144-.336 4.371 4.371 0 0 1-.201-.96c-.077-.662-.067-1.325-.135-1.987 0-.211 0-.47-.259-.586-.47-.269-1.19.183-1.517.5a.434.434 0 0 0 .711.499z" fill="#001A36"/>
    <path d="M123.347 87.04c0 1.575.212 3.158.317 4.733.106 1.574.394 3.38-.105 4.858l.345-.27H115.466c-.547 0-1.843.202-2.247-.115-.403-.316-.72-1.785-.883-2.39a54.096 54.096 0 0 1-.797-3.696c-.23-1.238-.46-2.582-.652-3.84a24.92 24.92 0 0 0-.384-2.88 3.548 3.548 0 0 0-1.344-1.613 20.48 20.48 0 0 1-2.736-2.505 12.862 12.862 0 0 1-2.621-10.839l-.346.26a6.144 6.144 0 0 0 3.475-.768l-.489-.135c.389 1.148.593 2.35.605 3.562a7.962 7.962 0 0 0 1.478 3.84c1.296 1.718 3.216 2.457 5.194 3.1 1.022.22 2.015.562 2.956 1.018.7.535 1.586.767 2.458.643 1.632-.259 3.12-1.305 4.8-.768 2.544.797 3.638 4.042 4.282 6.336a45.52 45.52 0 0 1 1.401 8.88c.077 1.104.135 2.199.173 3.303 0 .412-.096 1.065.499 1.036l-.086-.7c-1.171.153-2.679.259-3.975.441-.403 0-.307.72.096.701h.106a.366.366 0 0 0 .346-.451 259.972 259.972 0 0 0-1.018-6.72c-.25-1.555-.509-3.11-.845-4.647-.105-.528-.201-1.823-.71-2.17-.96-.633-.855 1.364-.864 1.739a.365.365 0 0 0 .72 0c.035-.32.051-.64.048-.96 0 0 .192-1.172-.394-.26 0 0 .288.893.327 1.018.374 1.507.624 3.043.873 4.56.432 2.534.816 5.078 1.171 7.632l.346-.46h-.106l.096.71c1.162-.154 2.679-.27 3.965-.442.403-.058.307-.73-.096-.71.48 0 .125.585.231 0a4.53 4.53 0 0 0 0-.96 114.548 114.548 0 0 0-.183-3.15 45.2 45.2 0 0 0-1.401-8.64c-.634-2.265-1.594-4.934-3.648-6.297a4.36 4.36 0 0 0-2.938-.691c-.859.17-1.703.408-2.525.71-.529.2-1.099.27-1.661.202a6.715 6.715 0 0 1-1.593-.855c-2.16-1.151-4.8-1.305-6.672-2.995a7.196 7.196 0 0 1-2.16-4.723 10.685 10.685 0 0 0-.653-3.475.384.384 0 0 0-.499-.125 5.531 5.531 0 0 1-3.111.672.364.364 0 0 0-.345.269 13.928 13.928 0 0 0 1.171 9.1 12.736 12.736 0 0 0 2.88 3.706c.749.682 1.968 1.316 2.486 2.199.519.883.375 2.13.509 3.014.211 1.43.442 2.88.711 4.282.268 1.401.528 2.688.902 4.003a5.61 5.61 0 0 0 .893 2.189.957.957 0 0 0 .557.365c1.145.124 2.301.124 3.446 0h7.238a.386.386 0 0 0 .356-.26c.346-1.577.395-3.205.144-4.8-.106-1.67-.346-3.36-.336-5.03a.392.392 0 0 0-.74.26z" fill="#001A36"/>
    <path d="M110.55 174.755c.12.218.198.455.231.701.432.278 2.688.739 3.485 1.728.331.391.331.963 0 1.354-.212.259-6.221.364-7.143.307a.882.882 0 0 1-.576-.183 1.06 1.06 0 0 1-.24-.537c-.221-1.066-.403-2.323.355-3.111a2.693 2.693 0 0 1 1.258-.672 6.809 6.809 0 0 1 2.63.413z" fill="#fff"/>
    <path d="M110.176 174.966c.182.279.096.663.384.864.234.129.482.229.739.298.722.21 1.417.5 2.074.864.307.192.71.47.71.874.005.08.005.16 0 .24 0 .096-.077.153 0 .076.077-.076.106 0 0 0h-.105c-.336.058-.845.087-1.268.116a82.214 82.214 0 0 1-4.031.115h-1.364a1.54 1.54 0 0 1-.288 0c-.259-.067-.259-.375-.307-.615a5.168 5.168 0 0 1-.125-1.43 1.74 1.74 0 0 1 1.844-1.594c.39.023.778.074 1.161.154.175.029.348.068.519.115h.172c.058 0 0 0 0 0a.432.432 0 0 0 .615-.605 1.522 1.522 0 0 0-.749-.307 10.68 10.68 0 0 0-1.219-.201 2.882 2.882 0 0 0-2.439.672 3.255 3.255 0 0 0-.672 3.043c.087.509.154 1.161.643 1.449.3.141.63.204.96.183 1.392 0 2.784 0 4.167-.067.672 0 1.344-.048 2.016-.116.509-.048.96-.057 1.2-.556.595-1.152-.461-2.074-1.392-2.535-.474-.225-.961-.42-1.459-.585a5.262 5.262 0 0 1-.96-.346l.192.259a2.005 2.005 0 0 0-.269-.806c-.298-.461-1.047-.029-.749.441z" fill="#001A36"/>
    <path d="M95.142 174.755c-.119.218-.197.455-.23.701-.432.278-2.688.739-3.485 1.728a1.047 1.047 0 0 0 0 1.354c.211.259 6.22.364 7.142.307a.863.863 0 0 0 .576-.183c.13-.152.213-.339.24-.537.23-1.066.404-2.323-.345-3.111a2.772 2.772 0 0 0-1.267-.672 6.813 6.813 0 0 0-2.63.413z" fill="#fff"/>
    <path d="M94.768 174.534a2.01 2.01 0 0 0-.269.807l.192-.259a3.946 3.946 0 0 1-.758.288 15.16 15.16 0 0 0-1.258.48c-.806.355-1.834.902-1.92 1.92-.056.453.126.902.48 1.19.15.074.313.116.48.125.614.086 1.229.115 1.843.144 1.469.067 2.938.105 4.407.096.71 0 1.516 0 1.776-.816a4.613 4.613 0 0 0 0-3.226 2.679 2.679 0 0 0-2.592-1.353c-.468.037-.933.105-1.392.201a1.72 1.72 0 0 0-.912.346.432.432 0 0 0 .614.605c-.106.105 0 0-.048 0l.154-.058.413-.096c.36-.078.726-.132 1.094-.163a1.805 1.805 0 0 1 1.92.96c.167.434.217.904.144 1.363 0 .336-.058 1.238-.422 1.334-.409.053-.821.053-1.23 0-1.334 0-2.668 0-3.993-.105a14.18 14.18 0 0 1-1.565-.106 1.37 1.37 0 0 0-.317-.067s.116.077.125.058c.01-.02-.096-.202-.105-.231a.749.749 0 0 1 .288-.672 5.913 5.913 0 0 1 2.256-1.104 5.09 5.09 0 0 0 .902-.336c.355-.201.25-.585.451-.902.288-.461-.46-.893-.758-.423zM97.178 117.549v2.88a16.159 16.159 0 0 0 2.505 6.115c.19.387.454.733.778 1.018a1.605 1.605 0 0 0 1.92 0c.188-.177.39-.337.605-.48a9.576 9.576 0 0 0 2.505-2.199 9.595 9.595 0 0 0 .73-5.232 4.685 4.685 0 0 0-.336-1.593 2.994 2.994 0 0 0-.902-1.056c-3.773-2.698-7.805.547-7.805.547z" fill="#001A36"/>
    <path d="M99.875 129.347c.446-.342.665-.905.566-1.459-.163-.826-.96-1.334-1.43-2.045a4.372 4.372 0 0 1-.586-1.632c-.259-1.229-.96-4.8.394-6.374a3.725 3.725 0 0 1 6.298 1.219 6.432 6.432 0 0 1-.135 5.434c-.336.614-.825 1.123-1.209 1.718a2.96 2.96 0 0 0-.432 1.92c.067.576 1.017.768.739 1.075-.087.096-1.536.596-1.661.644-.643.297-2.544-.5-2.544-.5z" fill="#fff"/>
    <path d="M100.134 129.606c1.056-.96.72-2.179-.096-3.1a4.446 4.446 0 0 1-1.132-1.815c-.135-.489-.221-.96-.308-1.488-.345-1.977-.672-4.8 1.46-5.846a3.63 3.63 0 0 1 2.649-.269 3.707 3.707 0 0 1 2.285 2.698 5.824 5.824 0 0 1-.432 4.694c-.701 1.142-2.074 2.39-1.546 3.907.097.242.26.452.471.605 0 0 .23.211.259.202l.125-.25-.106.058a2.776 2.776 0 0 0-.72.278l-.595.211a4.096 4.096 0 0 1-2.486-.499c-.423-.173-.615.518-.192.701a5.018 5.018 0 0 0 2.611.566 8.06 8.06 0 0 0 1.142-.393c.298-.116.787-.212.96-.548.202-.508-.393-.681-.633-.96a1.567 1.567 0 0 1 0-1.286 4.16 4.16 0 0 1 .796-1.344 6.323 6.323 0 0 0 1.392-4.685c-.268-2.477-1.766-5.04-4.579-4.8a4.545 4.545 0 0 0-2.659 1.075 4.205 4.205 0 0 0-1.18 3.13c-.022 1.293.12 2.583.422 3.84.144.86.522 1.664 1.094 2.323.643.72 1.421 1.632.451 2.467-.317.327.173.826.547.528z" fill="#001A36"/>
    <path d="M104.627 117.635a5.949 5.949 0 0 0-4.156-.883 4.87 4.87 0 0 0-2.084.902c-.403.269-.835.672-.748 1.162.04.151.112.291.21.413a2.882 2.882 0 0 0 2.295.893c.845 0 1.69-.192 2.535-.164.331 0 .659.072.96.212.35.187.637.475.825.825a6.792 6.792 0 0 1 .682 3.226 7.167 7.167 0 0 0 .653-4.695l-1.172-1.891z" fill="#001A36"/>
    <path d="M108.659 111.222c.077-.144.605-.124.759.183.288.557.701 2.323.854 2.553a.643.643 0 0 0 .701.279c.323-.399.625-.816.902-1.248 0-.058.653-.24.509.355-.057.25-.96 2.227-1.123 2.525-.092.253-.243.48-.442.662a1.227 1.227 0 0 1-.691.183 8.54 8.54 0 0 1-.96 0 .5.5 0 0 1-.288-.096.398.398 0 0 1-.125-.25c-.124-.365-.47-4.493-.096-5.146z" fill="#fff"/>
    <path d="M108.909 111.472c0 .067.077 0 .163.067.086.067.086.154.115.231.125.307.211.624.307.96.096.336.173.604.269.96.05.22.141.428.269.614a.96.96 0 0 0 1.075.336c.254-.174.456-.412.586-.691.105-.154.201-.307.317-.461.115-.153.172-.24.067-.125-.106.115 0 0 0 0s-.163-.115-.077-.067c.086.048 0-.077 0 0a1.402 1.402 0 0 0-.058.211c-.182.49-.422.96-.643 1.459a8.44 8.44 0 0 1-.317.682c-.115.221-.23.605-.46.739a1.281 1.281 0 0 1-.548.087 7.379 7.379 0 0 1-.787 0c-.144 0-.144 0-.173-.125a.142.142 0 0 1 0-.058c0-.096 0 .048 0 0-.057-.46-.086-.96-.124-1.372 0-.682-.077-1.354-.068-2.026v-1.306c.221-.412-.403-.777-.624-.365a3.365 3.365 0 0 0-.211 1.45c0 .701 0 1.402.058 2.102 0 .519.077 1.047.144 1.565.001.254.093.499.259.692.201.142.445.213.691.201.294.019.589.019.883 0 .496.022.963-.228 1.22-.653.134-.24.259-.489.374-.739.288-.614.566-1.238.835-1.862.1-.205.159-.426.173-.653a.63.63 0 0 0-.672-.605c-.374 0-.538.24-.73.528-.192.288-.249.365-.374.547a1.781 1.781 0 0 1-.154.221c-.076.125 0 0 0 0h-.096a.553.553 0 0 1-.144-.106c-.057-.067 0 0 0-.057 0-.058-.096-.288-.134-.432-.125-.403-.24-.816-.365-1.229a2.336 2.336 0 0 0-.489-1.046c-.269-.24-.893-.375-1.162 0-.269.374.317.691.605.326z" fill="#001A36"/>
    <path d="M93.405 108.861a1.478 1.478 0 0 0-1.095-.432c-.25.077.202 4.358-1.325 4.157-.153 0-.816-1.431-.96-1.344-.624.384.116 2.284.183 2.505a.748.748 0 0 0 .432.509 6.365 6.365 0 0 0 1.987.269c.364-.141.645-.437.768-.807a8.205 8.205 0 0 0 .01-4.857z" fill="#fff"/>
    <path d="M93.655 108.611c-.394-.384-1.604-.96-1.757-.096-.087.538-.058 1.095-.096 1.642a4.497 4.497 0 0 1-.355 1.786.689.689 0 0 1-.173.22l-.163.068h-.077l.163.067-.067-.096c-.096-.154-.192-.307-.279-.461a2.261 2.261 0 0 0-.556-.768c-.356-.221-.672.134-.778.451-.13.739-.03 1.5.288 2.179.072.351.258.668.528.903.32.156.664.257 1.018.297.41.102.835.138 1.257.106a1.536 1.536 0 0 0 1.133-.96c.365-.98.5-2.031.394-3.072a11.029 11.029 0 0 0-.144-1.382 1.75 1.75 0 0 0-.317-.836c-.298-.355-.807.154-.509.509-.067-.086 0 0 0 0v.077c.038.119.067.241.086.365.066.336.107.676.125 1.017a8.35 8.35 0 0 1-.134 2.448 1.708 1.708 0 0 1-.567 1.056c-.259.173-.69.068-.96 0a4.374 4.374 0 0 1-.96-.201c-.201-.096-.25-.346-.316-.547a8.42 8.42 0 0 1-.25-.96 3.597 3.597 0 0 1 0-.845c0-.087.182-.068-.125-.058-.307.01-.182-.058-.153 0 .028.058.144.231.201.327.154.249.288.508.461.748a.823.823 0 0 0 1.277 0c.334-.425.534-.939.576-1.478.088-.637.139-1.278.153-1.92v-.49c0-.048 0 0 0 0a.143.143 0 0 1 0-.086.883.883 0 0 1-.076.125c-.087.096-.135 0 0 .086.222.087.432.203.624.346.355.268.873-.24.528-.567z" fill="#001A36"/>
    <path d="M110.973 127.926c-2.093 6.384-3.84 4.426-3.946 11.05 0 1.69.326 4.944-.298 6.518-4.08-.076-6.556 0-10.636-.086-1.19 0-2.103-9.542-2.458-12.816-.307-2.688-3.84-16.157-3.389-17.962a6.717 6.717 0 0 0 3.293-.7c2.026 3.6.135 11.52 4.915 15.11 1.296.96 4.339.47 5.76-.259 4.32-2.247 4.032-12.298 4.147-12.307l2.88-.279s.596 9.101-.268 11.731z" fill="#D2D8FF"/>
    <path d="M110.935 128.32a20.799 20.799 0 0 1-2.18 4.714 9.88 9.88 0 0 0-1.392 2.88 17.951 17.951 0 0 0-.393 4.963c0 1.785.288 3.753-.307 5.481l.345-.268h-6.845c-1.094 0-2.246.076-3.33 0-.548 0-.586-.144-.817-.653-1.161-2.487-1.584-5.453-2.102-8.122-.96-4.8-1.546-9.773-2.266-14.649-.24-1.642-.48-3.274-.652-4.925a9.415 9.415 0 0 1-.106-2.88l-.355.259a6.191 6.191 0 0 0 3.484-.768l-.499-.134c2.41 4.636.308 11.462 4.973 15.004 2.198 1.68 5.549.874 7.258-1.113 1.708-1.987 2.304-4.474 2.726-6.855a37.15 37.15 0 0 0 .432-3.436 2.818 2.818 0 0 1 .067-.96c.115-.173 0 0 .384.057a8.236 8.236 0 0 0 2.151-.221l-.365-.355c.105 1.623.173 3.255.211 4.877 0 2.294.24 4.877-.422 7.094a.359.359 0 1 0 .691.192c.662-2.208.499-4.742.451-7.008 0-1.718-.096-3.436-.211-5.155a.366.366 0 0 0-.355-.365l-1.671.173a4.016 4.016 0 0 0-1.286.135.5.5 0 0 0-.269.307 5.18 5.18 0 0 0-.125 1.545 25.43 25.43 0 0 1-1.344 6.605c-1.075 2.88-3.581 5.568-6.97 4.397-2.774-.96-3.59-4.675-4.012-7.2-.422-2.525-.413-5.654-1.69-8.093a.365.365 0 0 0-.49-.134 5.49 5.49 0 0 1-3.12.672.374.374 0 0 0-.345.269 8.172 8.172 0 0 0 0 2.419c.125 1.373.307 2.745.5 4.109.431 3.072.96 6.134 1.41 9.206.365 2.362.644 4.723 1.095 7.066.528 2.745.96 5.827 2.198 8.361.653 1.335 1.767.96 3.15.96 2.812 0 5.625 0 8.437.048a.354.354 0 0 0 .346-.259c.416-1.593.536-3.25.355-4.886-.14-1.86-.023-3.731.346-5.559a10.47 10.47 0 0 1 1.488-2.985 21.111 21.111 0 0 0 2.083-4.628c.173-.441-.518-.633-.662-.182z" fill="#001A36"/>
    <path d="M95.997 145.696c.144 6.874-1.18 27.235-.96 28.243.027.28.133.547.307.768.252.217.563.354.893.394 1.19.148 2.396.129 3.58-.058a.87.87 0 0 0 .375-.537c.231-.73 1.987-15.447 2.467-21.994 1.978 6.624 3.072 21.907 3.514 22.272.442.365 3.139.355 3.706.403.237.047.484.014.7-.096.219-.185.351-.453.365-.739.384-2.256-3.033-21.552-3.446-28.906-3.207-.585-11.5.25-11.5.25z" fill="#fff"/>
    <path d="M95.641 145.696c.154 8.371-.576 16.781-.96 25.152-.09.992-.12 1.99-.086 2.986.192 2.073 2.775 1.795 4.291 1.68.75-.058 1.315-.096 1.584-.912a5.91 5.91 0 0 0 .173-.96c.24-1.69.442-3.389.653-5.079.643-5.328 1.257-10.665 1.661-16.013l-.711.096a87.377 87.377 0 0 1 2.4 14.103c.24 1.997.461 3.984.711 5.981.076.595 0 1.862.489 2.342.49.48 1.507.365 2.035.403.72.058 2.16.384 2.813 0 .874-.557.567-2.217.49-3.053-.346-4.003-.96-7.996-1.575-11.971-.7-4.953-1.526-9.936-1.824-14.937a.374.374 0 0 0-.259-.346c-3.734-.643-7.804-.144-11.52.23-.45.048-.46.768 0 .72 3.677-.364 7.68-.883 11.357-.259l-.269-.345c.48 8.102 2.103 16.137 3.101 24.192.192 1.311.317 2.631.374 3.955 0 .701-.105 1.113-.96 1.219a8.837 8.837 0 0 1-2.793-.211c-.451-.115-.384-.087-.48-.586-.096-.499-.183-1.257-.259-1.92-.231-1.92-.442-3.792-.672-5.693a87.452 87.452 0 0 0-2.391-14.016.365.365 0 0 0-.71.096c-.327 4.359-.816 8.698-1.315 13.037-.231 1.987-.461 3.984-.72 5.981a96.097 96.097 0 0 1-.27 1.92c0 .317 0 1.018-.345 1.238-.345.221-.835.087-1.084.106-.56.038-1.121.038-1.68 0-.912-.067-1.479-.461-1.508-1.286 0-1.085.067-2.189.115-3.264.173-3.908.385-7.815.557-11.722.192-4.282.432-8.573.355-12.854a.384.384 0 1 0-.768-.01z" fill="#001A36"/>
    <path d="M125.882 158.445a117.797 117.797 0 0 0-.144 15.629.644.644 0 0 0 .115.403.668.668 0 0 0 .432.201l1.401.269a.561.561 0 0 0 .375 0 .5.5 0 0 0 .192-.345 41.424 41.424 0 0 0 .96-11.04 18.895 18.895 0 0 1 .096-5.05 4.043 4.043 0 0 0-2.755-.614" fill="#fff"/>
    <path d="M125.45 158.445c-.25 3.312-.365 6.643-.336 9.974 0 1.661.067 3.322.153 4.983 0 .489 0 1.094.365 1.449a3.841 3.841 0 0 0 1.805.48c1.344.231 1.325-1.027 1.526-2.083.603-3.162.835-6.384.692-9.6a21.056 21.056 0 0 1 .076-5.098.449.449 0 0 0-.192-.489 4.698 4.698 0 0 0-2.976-.672c-.547 0-.556.96 0 .864a3.911 3.911 0 0 1 2.535.557l-.202-.49c-.528 2.659 0 5.414-.077 8.112a39.458 39.458 0 0 1-.316 4.234 53.55 53.55 0 0 1-.336 2.14c-.068.327-.125.644-.192.96-.106.5 0 .692-.596.634a3.6 3.6 0 0 1-.835-.163c-.47-.173-.384-.423-.413-.883l-.086-1.988c0-1.449-.067-2.88-.067-4.329 0-2.88.115-5.76.336-8.64 0-.557-.826-.557-.864 0v.048z" fill="#001A36"/>
    <path d="M139.303 158.397c.585 5.181.825 10.396.72 15.609a.686.686 0 0 1-.096.413.645.645 0 0 1-.432.211l-1.383.327a.53.53 0 0 1-.384 0 .5.5 0 0 1-.192-.346 40.82 40.82 0 0 1-1.382-10.992c.126-1.685.029-3.38-.288-5.04a4.062 4.062 0 0 1 2.726-.72" fill="#fff"/>
    <path d="M138.871 158.397c.313 2.867.531 5.747.652 8.64.058 1.449.087 2.88.087 4.329v2.16c0 .519 0 .596-.499.778a3.554 3.554 0 0 1-.826.192c-.413 0-.278.144-.413-.307-.086-.307-.153-.634-.23-.96a34.72 34.72 0 0 1-.451-2.237 38.261 38.261 0 0 1-.519-4.426c-.173-2.688.25-5.472-.384-8.102l-.192.48a3.939 3.939 0 0 1 2.506-.653c.557 0 .557-.835 0-.864a4.71 4.71 0 0 0-2.947.778.451.451 0 0 0-.202.48c.299 1.627.392 3.284.278 4.934a39.63 39.63 0 0 0 .24 4.896c.17 1.556.426 3.101.768 4.627.231 1.047.25 2.487 1.632 2.208a4.038 4.038 0 0 0 1.786-.547c.365-.326.307-.825.317-1.286v-4.992c-.087-3.379-.327-6.72-.701-10.119-.067-.547-.96-.556-.864 0l-.038-.009z" fill="#001A36"/>
    <path d="M126.198 145.293c-.048 4.973-1.737 15.869-1.593 16.608a.957.957 0 0 0 .297.576c.221.192 14.237-.538 14.813-.471.234.054.477.054.711 0a.688.688 0 0 0 .393-.518c.451-1.603-2.765-10.272-2.995-15.61-3.187-.652-11.626-.585-11.626-.585z" fill="#D2D8FF"/>
    <path d="M125.306 145.235a119.062 119.062 0 0 1-1.181 12.787 19.28 19.28 0 0 0-.375 3.773c.106 1.2.96 1.104 1.863 1.095 3.283 0 6.557-.221 9.83-.346a118.09 118.09 0 0 1 3.696-.134c.528 0 1.104.144 1.546-.212.413-.442.569-1.066.413-1.651a45.162 45.162 0 0 0-1.488-6.422 42.777 42.777 0 0 1-1.565-8.295.441.441 0 0 0-.317-.422 64.2 64.2 0 0 0-11.99-.605.432.432 0 0 0 0 .864c1.545 0 3.081 0 4.617.058 2.391-.02 4.78.153 7.143.518l-.317-.413c.23 4.397 1.718 8.64 2.707 12.893.182.69.307 1.393.375 2.103 0 .624-.308.739-.903.72-.96 0-2.006.057-2.995.096-3.178.124-6.365.268-9.543.355h-1.612a1.871 1.871 0 0 1-.461 0c-.211-.058-.144.105-.135-.259 0-.96.192-2.18.308-3.207a124.188 124.188 0 0 0 1.248-13.325.432.432 0 0 0-.864.029zM127.427 118.231v1.996c.308 2.352 1.92 8.535 2.276 8.794.566.422 6.105.854 6.345.72.24-.135 1.075-8.477.874-10.493a4.575 4.575 0 0 0-.384-1.68 3.037 3.037 0 0 0-.96-1.094 6.49 6.49 0 0 0-7.181 0 2.028 2.028 0 0 0-.97 1.757z" fill="#001A36"/>
    <path d="M129.741 129.021c.662-.144 1.43-.442 1.305-.96-.182-.874-1.046-1.402-1.545-2.141a4.846 4.846 0 0 1-.653-1.709c-.288-1.296-1.114-5.078.307-6.72a3.936 3.936 0 0 1 6.72 1.171 6.831 6.831 0 0 1 0 5.76c-.355.653-.864 1.21-1.257 1.834a2.622 2.622 0 0 0-.423 2.093 3.688 3.688 0 0 0 1.968 1.478 2.659 2.659 0 0 1-1.92 1.085c-.374 0-2.016.586-2.88.221-.355-.154-2.582-1.287-2.88-1.411-.297-.125.586-.557 1.258-.701z" fill="#fff"/>
    <path d="M129.837 129.366c.538-.124 1.258-.326 1.507-.892.25-.567-.201-1.258-.566-1.69a5.76 5.76 0 0 1-1.469-2.266 22.996 22.996 0 0 1-.355-1.632 9.34 9.34 0 0 1 0-4.31 3.193 3.193 0 0 1 2.333-2.035c3.408-.96 5.088 2.88 4.8 5.76a5.44 5.44 0 0 1-1.056 2.649 6.589 6.589 0 0 0-1.248 2.199 1.92 1.92 0 0 0 .278 1.709c.202.225.431.425.682.595.175.123.358.235.547.336l.413.211c.115-.288.115-.355 0-.202-.116 0-.298.24-.413.317a2.62 2.62 0 0 1-.768.346c-.25.067-.499.086-.749.134a4.454 4.454 0 0 1-2.323.163 12.761 12.761 0 0 1-1.555-.758l-.855-.422c-.105-.058-.403-.25-.374-.164v.365c.096-.201 1.017-.317 1.229-.365.451-.096.259-.787-.192-.691-.452.096-1.498.211-1.671.739-.173.528.432.624.749.788 1.114.547 2.285 1.401 3.581 1.315.694-.08 1.383-.199 2.064-.355a3.289 3.289 0 0 0 1.92-1.018c.547-.653-.375-.854-.845-1.133a2.39 2.39 0 0 1-.96-.845 2.285 2.285 0 0 1 .451-1.92 12.362 12.362 0 0 0 1.575-2.62 6.958 6.958 0 0 0 .24-3.14 5.76 5.76 0 0 0-2.487-4.31c-2.102-1.267-5.357-.24-6.105 2.16a10.725 10.725 0 0 0 .115 5.232c.126.927.454 1.815.96 2.602.317.422.729.758 1.056 1.18.201.279.451.634.173.96-.259.19-.564.306-.884.336-.441.087-.249.788.202.672z" fill="#001A36"/>
    <path d="M135.28 116.8a6.072 6.072 0 0 0-4.406-.883 5.11 5.11 0 0 0-2.189 1.037c-.422.307-.874.768-.768 1.296.038.168.113.326.221.46a2.952 2.952 0 0 0 2.438.96c.903 0 1.786-.249 2.679-.24.363-.012.725.06 1.056.212.374.205.681.515.883.892.614 1.037.499 2.765.259 4.359 1.085-.768 1.507-4.08 1.123-6.01l-1.296-2.083z" fill="#001A36"/>
    <path d="M141.04 174.755c.119.218.197.455.231.701.432.278 2.688.739 3.484 1.728.331.391.331.963 0 1.354-.211.259-6.22.364-7.142.307a.88.88 0 0 1-.576-.183 1.052 1.052 0 0 1-.24-.537c-.23-1.066-.403-2.323.346-3.111a2.764 2.764 0 0 1 1.267-.672 6.812 6.812 0 0 1 2.63.413z" fill="#fff"/>
    <path d="M140.685 174.966c.172.279.096.663.384.864.233.129.481.229.739.298.721.21 1.417.5 2.073.864.308.192.711.47.711.874-.01.082-.03.162-.058.24 0 .096-.067.153 0 .076.067-.076.096 0 0 0h-.105c-.336.058-.845.087-1.268.116a82.219 82.219 0 0 1-4.032.115h-1.363c-.095.01-.192.01-.288 0-.269-.067-.269-.375-.307-.615a5.095 5.095 0 0 1-.134-1.43 1.747 1.747 0 0 1 1.852-1.594c.391.023.779.075 1.162.154.175.029.348.068.518.115h.173a.432.432 0 0 0 .615-.605 1.526 1.526 0 0 0-.749-.307 10.632 10.632 0 0 0-1.229-.201 2.879 2.879 0 0 0-2.438.672 3.273 3.273 0 0 0-.663 3.043c.087.509.154 1.161.643 1.449.3.141.63.204.96.183 1.383 0 2.784 0 4.167-.067.672 0 1.344-.048 2.016-.116.509-.048.96-.057 1.2-.556.595-1.152-.461-2.074-1.392-2.535-.474-.225-.961-.42-1.459-.585a4.722 4.722 0 0 1-.96-.346l.192.259a2.005 2.005 0 0 0-.269-.806c-.24-.461-.989-.029-.691.441z" fill="#001A36"/>
    <path d="M125.008 174.755a2.023 2.023 0 0 0-.23.701c-.442.278-2.688.739-3.485 1.728a1.038 1.038 0 0 0 0 1.354c.211.259 6.211.365 7.133.307.21.01.418-.054.585-.182a.96.96 0 0 0 .231-.538c.23-1.066.412-2.323-.346-3.111a2.688 2.688 0 0 0-1.258-.672 6.737 6.737 0 0 0-2.63.413z" fill="#fff"/>
    <path d="M124.634 174.534c-.145.248-.24.522-.279.807l.202-.259c-.243.12-.497.217-.758.288-.432.144-.855.297-1.268.48-.806.355-1.833.902-1.92 1.92-.055.453.126.902.48 1.19.15.075.314.117.48.125.605.086 1.229.115 1.844.144 1.459.067 2.937.105 4.406.096.71 0 1.507 0 1.776-.816a4.605 4.605 0 0 0 0-3.226 2.686 2.686 0 0 0-2.592-1.353c-.471.038-.939.105-1.402.201a1.707 1.707 0 0 0-.902.346c-.394.393.221.96.605.605-.096.105 0 0 0 0l.153-.058.423-.096a8.416 8.416 0 0 1 1.094-.163 1.804 1.804 0 0 1 1.92.96c.163.435.212.904.144 1.363 0 .336-.057 1.238-.422 1.334a4.77 4.77 0 0 1-1.229 0c-1.334 0-2.669 0-4.003-.105-.519 0-1.037-.048-1.555-.106a1.641 1.641 0 0 0-.317-.067s.105.077.125.058c.019-.02-.096-.202-.106-.231a.741.741 0 0 1 .278-.672 6.016 6.016 0 0 1 2.266-1.104c.311-.083.613-.196.902-.336.356-.201.25-.585.442-.902.259-.461-.49-.893-.787-.423z" fill="#001A36"/>
    <path d="M142.643 153.981c-.096.125-.614.048-.739-.259-.231-.596-.442-2.4-.567-2.631a.634.634 0 0 0-.662-.355c-.369.355-.715.734-1.037 1.133-.057.057-.672.173-.47-.403.086-.24 1.19-2.112 1.392-2.391a1.92 1.92 0 0 1 .48-.595c.221-.104.469-.137.71-.096.323.022.644.067.96.134a.6.6 0 0 1 .279.116.54.54 0 0 1 .096.268c.105.327 0 4.464-.442 5.079z" fill="#fff"/>
    <path d="M142.394 153.722c.076-.077.086 0 0-.048-.087-.048-.096 0-.135 0a.476.476 0 0 1-.105-.269 9.343 9.343 0 0 1-.202-.96l-.173-.96a1.826 1.826 0 0 0-.192-.624.961.961 0 0 0-1.037-.442c-.278.087-.48.403-.652.615-.173.211-.25.307-.384.451l-.077.086c-.058.106 0 0 0 0h-.067s.134.096.105.087c-.029-.01 0-.144 0 0a.629.629 0 0 1 .058-.116c.24-.489.528-.96.806-1.42.125-.221.259-.432.394-.644.114-.25.281-.472.489-.652.208-.058.427-.058.634 0 .152.009.302.028.451.057.106 0 .327 0 .403.077.077.077 0 .134 0 .077 0-.058 0 0 0 0v1.565c0 .672-.067 1.353-.144 2.025 0 .269-.076.538-.134.807 0 .096-.048.192-.077.288-.029.096 0 .105 0 .067a.299.299 0 0 1-.048.096c-.269.384.355.739.615.365.223-.445.344-.933.355-1.431.086-.691.134-1.382.163-2.073 0-.528.048-1.047 0-1.575a1.134 1.134 0 0 0-.163-.643.896.896 0 0 0-.653-.317 6.45 6.45 0 0 0-.96-.125 1.344 1.344 0 0 0-1.286.586c-.154.221-.298.461-.442.691a24.431 24.431 0 0 0-.96 1.68 1.446 1.446 0 0 0-.259.701.614.614 0 0 0 .633.614c.365 0 .548-.192.778-.451.23-.259.278-.345.422-.509a1.49 1.49 0 0 1 .164-.182l.067-.077c-.106 0-.125.048-.067.048l.134.067s.125.164.086.096c-.038-.067 0 .068 0 .087 0 .019.068.326.096.489.077.413.144.836.231 1.258a2 2 0 0 0 .384 1.037c.3.324.794.373 1.152.115a.365.365 0 0 0-.037-.635.366.366 0 0 0-.366.021z" fill="#001A36"/>
    <path d="M137.315 136.778c0 1.728.826 8.064.202 9.686-4.08-.077-6.566 0-10.646-.077-1.191 0-2.727-9.773-3.092-13.133-.153-1.488-3.686-2.39-5.76-6.806a13.967 13.967 0 0 1-.96-8.467 6.467 6.467 0 0 0 3.293-.72c.874 1.603.096 4.368 1.776 6.96 2.179 3.379 6.029 3.005 8.563 4.8 1.239.873 2.18.451 4.263-.231 8.947-2.88 8.726 19.479 8.841 19.469.96-.096-4.713.519-3.753.423.038 0-2.592-18.72-2.727-11.904z" fill="#fff"/>
    <path d="M118.893 111.626c.386-.135.812-.1 1.171.096.192.182-2.141 3.84-.691 4.31.144 0 1.373-.902 1.449-.768.384.614-1.132 1.987-1.286 2.15a.73.73 0 0 1-.614.26 6.156 6.156 0 0 1-1.92-.653 1.304 1.304 0 0 1-.336-1.066 8.189 8.189 0 0 1 2.227-4.329z" fill="#fff"/>
    <path d="M118.96 112c.177-.058.363-.077.548-.058a.983.983 0 0 0 .23 0c.058 0 .086.144 0-.096 0 0-.077-.124 0-.163a.754.754 0 0 0-.048.173 2.084 2.084 0 0 1-.106.23c-.23.528-.48 1.047-.681 1.584a4.131 4.131 0 0 0-.346 1.69c0 .451.413 1.133.96.96.24-.089.467-.212.672-.365l.403-.259.154-.096h.077c.134 0 0-.086-.336-.163 0 0 0 .057 0 0v.115a1.28 1.28 0 0 1-.192.403c-.181.269-.387.52-.615.749a6.895 6.895 0 0 1-.46.461c-.164.144-.48.086-.749 0a5.615 5.615 0 0 1-1.027-.346c-.384-.182-.442-.566-.413-.96.131-.86.438-1.683.902-2.419.198-.371.422-.727.672-1.066.075-.108.159-.211.25-.307l.105-.067c.087-.058 0 0 0 0 .423-.173.231-.874-.192-.691a1.5 1.5 0 0 0-.566.47 7.947 7.947 0 0 0-.682.96 8.967 8.967 0 0 0-1.113 2.563c-.13.462-.13.95 0 1.412.159.433.516.765.96.892.381.146.773.265 1.171.356.38.134.801.069 1.123-.173.52-.422.965-.928 1.315-1.498.202-.277.291-.62.25-.96-.106-.393-.432-.451-.758-.297a9.629 9.629 0 0 0-.855.528l-.192.115c-.067 0-.086.057-.096 0-.595-.384.144 0 .144 0h-.067s-.067-.067-.058 0a.958.958 0 0 1-.076-.634c.056-.327.143-.648.259-.96.24-.653.566-1.267.816-1.92a.575.575 0 0 0 0-.643 1.603 1.603 0 0 0-1.517-.182c-.47.076-.288.777.134.662z" fill="#001A36"/>
    <path d="M136.96 136.778c0 1.574.202 3.158.307 4.732.106 1.575.404 3.38-.096 4.858l.346-.269h-8.448c-.547 0-1.834.202-2.237-.105-.403-.308-.72-1.796-.883-2.4-.326-1.22-.576-2.448-.806-3.687a105.264 105.264 0 0 1-.644-3.897 24.866 24.866 0 0 0-.393-2.928 3.46 3.46 0 0 0-1.335-1.613 21.229 21.229 0 0 1-2.745-2.506 12.84 12.84 0 0 1-2.611-10.838l-.346.259a6.148 6.148 0 0 0 3.475-.768l-.499-.125c.389 1.145.596 2.343.614 3.552a8.065 8.065 0 0 0 1.469 3.84c1.306 1.719 3.216 2.458 5.194 3.101a13.18 13.18 0 0 1 2.966 1.238 3.258 3.258 0 0 0 2.448.644c1.642-.25 3.13-1.296 4.8-.768 2.535.796 3.639 4.051 4.282 6.336a45.514 45.514 0 0 1 1.401 8.88c.077 1.104.125 2.198.173 3.302 0 .413-.096 1.075.499 1.046l-.096-.71c-1.161.154-2.678.269-3.974.442-.403 0-.307.72.096.7h.163a.363.363 0 0 0 .346-.451c-.32-2.246-.659-4.486-1.018-6.72-.259-1.555-.518-3.11-.845-4.646-.115-.528-.211-1.815-.71-2.17-.96-.633-.854 1.363-.864 1.738a.365.365 0 0 0 .72 0c0-.307.077-.643.048-.96 0 0 .182-1.162-.394-.259 0 0 .288.892.317 1.027.375 1.497.624 3.033.883 4.55.423 2.56.81 5.104 1.162 7.632l.355-.461h-.115l.096.711c1.162-.154 2.678-.269 3.974-.442.404-.048.308-.72-.096-.701.471 0 .116.576.231 0 .04-.318.04-.641 0-.96 0-1.046-.096-2.102-.183-3.148a45.26 45.26 0 0 0-1.392-8.64c-.633-2.266-1.593-4.935-3.648-6.298a4.423 4.423 0 0 0-2.947-.691 16.37 16.37 0 0 0-2.515.71c-.533.2-1.105.269-1.67.202a6.485 6.485 0 0 1-1.584-.855c-2.17-1.152-4.8-1.296-6.72-2.995a7.282 7.282 0 0 1-2.16-4.723 10.344 10.344 0 0 0-.653-3.466.357.357 0 0 0-.49-.134 5.473 5.473 0 0 1-3.11.672.384.384 0 0 0-.355.269 13.905 13.905 0 0 0 1.18 9.11 12.806 12.806 0 0 0 2.88 3.696c.759.682 1.968 1.315 2.496 2.208.528.893.375 2.122.5 3.005.211 1.43.451 2.88.72 4.282.268 1.401.518 2.688.892 4.003.15.784.453 1.532.893 2.198.141.177.337.302.557.355 1.149.125 2.307.125 3.456 0h7.238c.16-.001.3-.106.346-.259.499-1.459.24-3.254.144-4.752-.106-1.67-.336-3.36-.326-5.03a.382.382 0 0 0-.759.077z" fill="#001A36"/>
    <path d="M80.157 158.733a117.91 117.91 0 0 1 .144 15.667.64.64 0 0 1-.115.403.67.67 0 0 1-.432.202l-1.402.269a.404.404 0 0 1-.566-.375 40.997 40.997 0 0 1-.96-11.04c.186-1.68.15-3.378-.106-5.049a4.038 4.038 0 0 1 2.755-.615" fill="#fff"/>
    <path d="M79.725 158.733c.22 2.88.336 5.76.336 8.64 0 1.44 0 2.88-.067 4.329l-.087 1.988c0 .374.048.633-.269.854a3.004 3.004 0 0 1-.96.192c-.49.058-.46 0-.556-.47l-.23-1.124a52.14 52.14 0 0 1-.337-2.14 39.076 39.076 0 0 1-.317-4.234c-.067-2.688.452-5.453-.076-8.112l-.202.49a3.91 3.91 0 0 1 2.534-.557c.557.057.557-.807 0-.864a4.795 4.795 0 0 0-2.976.672.45.45 0 0 0-.192.489c.231 1.635.26 3.293.087 4.935a41.478 41.478 0 0 0 .653 9.6c.192 1.075.163 2.486 1.564 2.246a3.706 3.706 0 0 0 1.796-.48c.364-.317.326-.825.355-1.277.086-1.66.144-3.331.153-4.992 0-3.379-.067-6.768-.326-10.137 0-.557-.902-.557-.864 0l-.02-.048z" fill="#001A36"/>
    <path d="M66.736 158.685a117.784 117.784 0 0 0-.72 15.609.722.722 0 0 0 .096.423.74.74 0 0 0 .432.211l1.382.317a.53.53 0 0 0 .384 0 .5.5 0 0 0 .192-.346 40.792 40.792 0 0 0 1.383-10.992c-.127-1.685-.03-3.38.288-5.04a4.063 4.063 0 0 0-2.727-.72" fill="#fff"/>
    <path d="M66.304 158.685a123.568 123.568 0 0 0-.7 9.955 78.682 78.682 0 0 0 0 4.992c0 .49-.087 1.095.316 1.45a4.052 4.052 0 0 0 1.786.547c1.324.269 1.363-1.018 1.603-2.045a41.96 41.96 0 0 0 .777-4.627c.183-1.626.27-3.26.26-4.896-.115-1.701-.021-3.41.278-5.088a.462.462 0 0 0-.202-.49 4.712 4.712 0 0 0-2.947-.777c-.557 0-.557.902 0 .864a3.934 3.934 0 0 1 2.506.662l-.192-.49c-.634 2.631-.221 5.415-.384 8.103a38.37 38.37 0 0 1-.519 4.426c-.115.691-.259 1.392-.412 2.083-.087.365-.164.749-.27 1.104-.105.355 0 .355-.412.307a4.868 4.868 0 0 1-.826-.192c-.46-.154-.412-.202-.499-.605a12.626 12.626 0 0 1 0-2.333c0-1.44.029-2.88.087-4.32.115-2.88.336-5.76.652-8.64.068-.547-.796-.547-.864 0l-.038.01z" fill="#001A36"/>
    <path d="M79.84 145.6c0 4.973 1.737 15.878 1.593 16.608a.96.96 0 0 1-.297.576c-.22.192-14.237-.538-14.813-.47a1.472 1.472 0 0 1-.71 0 .693.693 0 0 1-.394-.519c-.451-1.603 2.765-10.272 2.995-15.609 3.188-.663 11.626-.586 11.626-.586z" fill="#D2D8FF"/>
    <path d="M79.869 145.523c.144 4.03.51 8.049 1.094 12.039.164 1.372.375 2.745.452 4.128 0 .393.105.566-.125.624-.39.043-.782.043-1.171 0-3.101-.068-6.192-.221-9.293-.336-1.229-.048-2.458-.106-3.687-.135a6.85 6.85 0 0 1-.883 0c-.787-.134-.441-1.171-.345-1.709.873-4.704 2.697-9.225 2.947-14.035l-.317.413a46.653 46.653 0 0 1 7.142-.518c1.536 0 3.072-.058 4.618-.058a.432.432 0 1 0 0-.864c-3.955 0-8.093-.125-11.99.614a.423.423 0 0 0-.317.413c-.25 4.675-1.997 9.091-2.88 13.651a5.938 5.938 0 0 0-.183 1.834c.125.96.768 1.114 1.623 1.094.854-.019 1.92.048 2.88.087 3.379.125 6.72.288 10.147.374.605 0 1.795.259 2.323-.134.845-.634.317-2.525.221-3.351-.692-4.69-1.14-9.413-1.344-14.15a.455.455 0 1 0-.912.019zM78.64 118.518v1.997c-.307 2.352-1.92 8.535-2.275 8.794-.566.422-6.106.854-6.346.729-.24-.124-1.142-8.438-.979-10.502a4.797 4.797 0 0 1 .384-1.68c.227-.437.556-.813.96-1.094a6.49 6.49 0 0 1 7.18 0 2.006 2.006 0 0 1 1.076 1.756z" fill="#001A36"/>
    <path d="M76.298 129.28c-.663-.144-1.43-.442-1.306-.96.182-.874 1.046-1.402 1.546-2.131.324-.527.545-1.11.652-1.719.288-1.296 1.114-5.078-.307-6.72a3.935 3.935 0 0 0-6.72 1.172 6.864 6.864 0 0 0 0 5.76c.355.643.864 1.2 1.258 1.824.432.609.585 1.373.422 2.102a3.777 3.777 0 0 1-1.92 1.478 2.701 2.701 0 0 0 1.92 1.076c.375 0 2.016.585 2.88.22.355-.153 2.583-1.286 2.88-1.411.298-.125-.633-.518-1.305-.691z" fill="#fff"/>
    <path d="M76.394 128.963c-.538-.125-1.277-.307-.893-.96.278-.423.6-.815.96-1.171a5.213 5.213 0 0 0 1.075-2.429c.382-1.481.528-3.014.432-4.541a3.888 3.888 0 0 0-1.862-3.187 4.658 4.658 0 0 0-3.552-.518c-3.524.96-4.186 6.365-2.43 9.072.567.893 1.71 1.92 1.44 3.101-.105.451-.537.72-.902.96s-.96.326-1.065.633c-.26.48.566.96.883 1.143a6.17 6.17 0 0 0 2.025.604c.798.245 1.65.245 2.449 0 .633-.249 1.238-.595 1.843-.902.307-.154 1.161-.394 1.248-.797.163-.691-1.287-.873-1.69-.96-.403-.086-.643.595-.192.701.211 0 1.133.154 1.229.355v-.365c0-.086-.182.068-.278.116l-.682.336c-.538.268-1.066.556-1.603.796a2.934 2.934 0 0 1-1.815.096 11.77 11.77 0 0 1-1.66-.355 2.514 2.514 0 0 1-.586-.288c-.115-.077-.298-.288-.413-.317l-.086-.076c0 .307.057.364.268.172.21-.076.404-.186.576-.326.557-.28.979-.771 1.172-1.363.374-1.786-1.43-3.024-2.007-4.512-1.037-2.659.087-7.45 3.639-7.239 1.021.048 1.982.5 2.668 1.258.913 1.114.769 2.88.615 4.214-.192 1.584-.451 3.284-1.584 4.474-.451.49-1.133 1.162-1.027 1.92.105.758.96.96 1.574 1.123.615.163.682-.662.23-.768z" fill="#001A36"/>
    <path d="M70.73 117.069a6.097 6.097 0 0 1 4.416-.883 5.126 5.126 0 0 1 2.179 1.037c.422.307.873.768.768 1.296-.034.169-.11.328-.221.46a2.953 2.953 0 0 1-2.438.96c-.903 0-1.786-.249-2.679-.24a2.343 2.343 0 0 0-1.056.212 2.194 2.194 0 0 0-.883.892c-.614 1.037-.5 2.765-.26 4.359-1.084-.759-1.506-4.08-1.122-6.01l1.296-2.083z" fill="#001A36"/>
    <path d="M64.98 175.043c-.12.218-.198.455-.231.701-.432.278-2.688.749-3.485 1.728a1.047 1.047 0 0 0 0 1.354c.211.259 6.22.364 7.142.307a.863.863 0 0 0 .576-.183.959.959 0 0 0 .24-.528c.23-1.075.404-2.332-.345-3.12a2.772 2.772 0 0 0-1.267-.672 6.813 6.813 0 0 0-2.63.413z" fill="#fff"/>
    <path d="M64.605 174.823a2 2 0 0 0-.269.806l.202-.259c-.247.12-.504.217-.768.288-.423.153-.845.297-1.258.48-.806.355-1.834.912-1.92 1.92-.054.45.127.896.48 1.181.15.073.313.116.48.124.614.087 1.229.116 1.843.144a83.05 83.05 0 0 0 4.407.096c.71 0 1.516 0 1.776-.816a4.606 4.606 0 0 0 0-3.225 2.678 2.678 0 0 0-2.592-1.354 11.07 11.07 0 0 0-1.392.202 1.919 1.919 0 0 0-.912.345.435.435 0 0 0 .614.615c-.106.096 0 0-.048 0l.154-.048c.135-.044.273-.08.412-.106.361-.078.727-.132 1.095-.163a1.805 1.805 0 0 1 1.92.96c.167.434.217.904.144 1.363 0 .336-.058 1.239-.423 1.344a5.26 5.26 0 0 1-1.228 0c-1.325 0-2.67 0-3.994-.096-.518 0-1.046-.048-1.565-.115a2.142 2.142 0 0 0-.317-.067s.116.086.125.067a1.472 1.472 0 0 1-.105-.24.749.749 0 0 1 .288-.672 6.042 6.042 0 0 1 2.256-1.104c.31-.083.612-.196.902-.336.355-.202.25-.586.451-.902.288-.471-.46-.855-.758-.432z" fill="#001A36"/>
    <path d="M81.03 175.043c.12.218.198.455.23.701.442.278 2.698.749 3.486 1.728.335.389.335.965 0 1.354-.212.259-6.212.364-7.133.307a.89.89 0 0 1-.586-.183.957.957 0 0 1-.23-.528c-.23-1.075-.413-2.332.345-3.12a2.69 2.69 0 0 1 1.258-.672 6.737 6.737 0 0 1 2.63.413z" fill="#fff"/>
    <path d="M80.666 175.254c.172.279.096.672.374.864.234.129.482.229.74.298.723.207 1.42.5 2.073.874.307.182.71.46.71.864.01.079.01.16 0 .24 0 .105-.067.153 0 .076.067-.076.096 0 0 0h-.115c-.42.063-.843.101-1.267.116a95.216 95.216 0 0 1-4.032.124h-1.651c-.26-.076-.26-.384-.308-.624a5.097 5.097 0 0 1-.124-1.43 1.748 1.748 0 0 1 1.843-1.594c.39.023.779.074 1.161.154.166.039.33.087.49.144l.173.048c.057 0 0 0 0 0 .384.394.96-.221.605-.614a1.49 1.49 0 0 0-.778-.394 10.92 10.92 0 0 0-1.22-.202 2.88 2.88 0 0 0-2.438.672 3.275 3.275 0 0 0-.672 3.044c.087.518.154 1.161.653 1.449.3.143.63.206.96.183 1.392 0 2.784 0 4.167-.058.672 0 1.344-.058 2.016-.125.508 0 .96-.057 1.21-.557.594-1.152-.462-2.064-1.402-2.534a13.49 13.49 0 0 0-1.45-.586 5.039 5.039 0 0 1-.96-.345l.202.259a2.179 2.179 0 0 0-.279-.806c-.24-.394-.989-.01-.681.46z" fill="#001A36"/>
    <path d="M63.395 154.24c.096.125.624.048.74-.259.23-.595.441-2.4.575-2.631a.616.616 0 0 1 .653-.355c.367.358.713.736 1.037 1.133.058.058.672.173.47-.403-.086-.24-1.19-2.112-1.382-2.391a1.92 1.92 0 0 0-.518-.614 1.198 1.198 0 0 0-.71-.096 6.903 6.903 0 0 0-.96.134.535.535 0 0 0-.28.125.471.471 0 0 0-.095.259c-.077.375.029 4.512.47 5.098z" fill="#fff"/>
    <path d="M63.136 154.518c.29.197.67.197.96 0 .28-.216.457-.54.49-.892.153-.682.24-1.373.393-2.055 0-.048.068-.125 0 0 0-.086.164-.125.212-.192l.01-.019.066.058c.058.076.135.144.192.22.217.338.49.637.807.884a.78.78 0 0 0 .825-.077.74.74 0 0 0 .087-.893 17.985 17.985 0 0 0-.893-1.574c-.144-.231-.278-.461-.422-.682a2.14 2.14 0 0 0-.768-.854 2.88 2.88 0 0 0-1.67 0c-.48.076-.817.268-.865.787a9.448 9.448 0 0 0 0 1.277c0 .768.067 1.536.154 2.304-.001.581.13 1.156.384 1.68.259.374.883 0 .614-.365v-.067c0-.077 0 0 0 0a1.317 1.317 0 0 1-.077-.279 5.03 5.03 0 0 1-.124-.662c-.077-.595-.116-1.2-.154-1.795a22.41 22.41 0 0 1-.048-1.556v-.508c0 .144 0 0 0 0a.948.948 0 0 1 .307-.058c.165-.032.332-.055.5-.067a1.36 1.36 0 0 1 .652 0c.192.086.288.297.403.47l.288.451c.308.5.605.96.893 1.517l.144.269v.106c-.057-.125 0 0 0 0s.058 0 .077-.058c.02-.058 0 0 0 0 .096.048 0 0 0-.096-.422-.461-.835-1.334-1.584-1.018-.749.317-.691 1.085-.806 1.7-.068.374-.125.748-.221 1.113a.959.959 0 0 1-.096.336.275.275 0 0 1-.135.077c-.096.048-.115 0 0 .058a.376.376 0 1 0-.595.46z" fill="#001A36"/>
    <path d="M68.723 137.066c0 1.728-.825 8.064-.201 9.686 4.08-.067 6.566 0 10.646-.077 1.19 0 2.726-9.773 3.091-13.133.154-1.478 3.687-2.39 5.76-6.806a13.958 13.958 0 0 0 .96-8.467 6.468 6.468 0 0 1-3.293-.72c-.873 1.603-.096 4.368-1.766 6.96-2.189 3.379-6.038 3.005-8.573 4.8-1.238.873-2.179.451-4.262-.221-8.947-2.88-8.727 19.478-8.842 19.459-.96-.096 4.714.519 3.763.423-.01 0 2.583-18.73 2.717-11.904z" fill="#fff"/>
    <path d="M87.145 111.914a1.448 1.448 0 0 0-1.17.096c-.193.182 2.14 3.84.69 4.31-.144 0-1.363-.902-1.45-.768-.383.614 1.134 1.987 1.287 2.15a.73.73 0 0 0 .615.26 6.165 6.165 0 0 0 1.92-.653c.266-.287.389-.678.336-1.066a8.197 8.197 0 0 0-2.228-4.329z" fill="#fff"/>
    <path d="M87.28 111.568c-.528-.173-1.853-.154-1.594.71.163.528.461 1.028.672 1.527.303.574.461 1.213.461 1.862a.701.701 0 0 1-.077.211s-.057 0 0 0h-.067a.189.189 0 0 1 .144 0h-.067l-.202-.115-.47-.307c-.23-.144-.547-.394-.835-.317-.288.077-.384.586-.308.883a4.366 4.366 0 0 0 1.287 1.748c.231.299.582.482.96.499.326-.043.648-.117.96-.221a3.406 3.406 0 0 0 1.133-.49c.39-.354.581-.879.508-1.401a7.12 7.12 0 0 0-1.036-2.88 8.81 8.81 0 0 0-.74-1.133 1.703 1.703 0 0 0-.681-.624c-.422-.182-.615.518-.192.691-.096 0 0 0 0 0a1.991 1.991 0 0 1 .326.355c.218.279.414.574.586.884a8.25 8.25 0 0 1 .96 2.188c.13.38.13.792 0 1.172-.134.307-.528.403-.826.499a5.12 5.12 0 0 1-.96.24c-.24 0-.374-.125-.537-.279a3.604 3.604 0 0 1-1.076-1.42v-.135c0-.019-.105-.115 0 0 0 0-.335.202-.335.173 0-.029 0 0 .076 0l.192.115c.26.154.5.327.759.48.21.16.493.186.73.067.221-.121.392-.319.48-.556a2.66 2.66 0 0 0-.116-1.613 16.562 16.562 0 0 0-.768-1.863c-.096-.211-.115-.336-.211-.528-.096-.192 0 0 0 0-.22.327-.077.192.077.164a1.32 1.32 0 0 1 .643 0c.355.249.547-.452.144-.586z" fill="#001A36"/>
    <path d="M68.358 137.066c0 1.68-.22 3.36-.326 5.03-.096 1.498-.355 3.293.144 4.8a.354.354 0 0 0 .346.259h9.292c.573.093 1.16.044 1.71-.144.498-.307.72-1.123.892-1.641.398-1.204.718-2.432.96-3.677.537-2.583.768-5.213 1.248-7.805.192-.96 1.162-1.536 1.92-2.141a14.701 14.701 0 0 0 2.88-3.081 13.729 13.729 0 0 0 1.92-10.397.385.385 0 0 0-.355-.269 5.474 5.474 0 0 1-3.11-.672.357.357 0 0 0-.49.134 7.848 7.848 0 0 0-.586 2.775 8.715 8.715 0 0 1-1.363 4.387c-1.526 2.083-3.994 2.525-6.26 3.379-.902.346-1.708 1.037-2.61 1.335-1.162.384-2.43-.346-3.524-.653a4.693 4.693 0 0 0-3.197.144c-2.188.96-3.292 3.533-3.993 5.673a39.734 39.734 0 0 0-1.603 8.64 83.197 83.197 0 0 0-.26 3.84v1.162c0 .682-.057.077.221.096-.393 0-.499.653-.096.701 1.296.182 2.813.288 3.975.441l.096-.7h-.106l.346.46c.358-2.56.745-5.1 1.161-7.622.26-1.526.51-3.062.883-4.56 0-.144.346-.96.317-1.027-.566-.903-.393.307-.393.259 0 .307.048.643.048.96a.365.365 0 0 0 .72 0c0-.403.124-1.92-.634-1.843-.595.067-.73 1.363-.835 1.785-.691 3.015-1.123 6.106-1.575 9.168-.134.903-.268 1.796-.393 2.698a.365.365 0 0 0 .355.451h.106c.393 0 .499-.653.096-.71-1.296-.173-2.813-.288-3.975-.442l-.096.711c.864 0 .586-2.88.615-3.437a51.152 51.152 0 0 1 1.2-8.784c.585-2.429 1.497-5.683 3.84-7.027 1.325-.759 2.62-.404 3.984 0a5.437 5.437 0 0 0 2.601.432c1.018-.183 1.872-.96 2.832-1.364 2.227-.873 4.656-1.296 6.336-3.158a7.452 7.452 0 0 0 1.738-3.59c.278-1.402.096-2.976.73-4.272l-.5.124a6.15 6.15 0 0 0 3.475.768l-.345-.259a13.048 13.048 0 0 1-1.66 9.543 13.882 13.882 0 0 1-2.987 3.235 7.476 7.476 0 0 0-1.862 1.737 6.84 6.84 0 0 0-.432 2.381 97.762 97.762 0 0 1-.585 3.744 26.873 26.873 0 0 1-1.642 6.787c-.298.624-.49.528-1.2.538h-9.734l.345.269c-.5-1.469-.201-3.341-.096-4.858.106-1.517.317-3.158.307-4.733a.408.408 0 0 0-.816.02z" fill="#001A36"/>
</svg>
