<svg width="160" height="160" viewBox="0 0 160 160" fill="none" xmlns="http://www.w3.org/2000/svg">
    <path d="M66.078 147.517a23.672 23.672 0 0 0-10.428.504 2.135 2.135 0 0 0-.938.435c-.33.33-.191.773.078 1.129 1.078 1.425 3.693 1.956 6.03 2.321a640.6 640.6 0 0 0 12.08 1.798c2.088.358 4.207.503 6.325.435 3.346-.209 12.244-1.286 13.435-1.069 6.3 1.104 8.168-5.214 7.62-5.266-11.061-.721-34.202-.287-34.202-.287z" fill="#D2D8FF"/>
    <path d="M85.96 110.873c.756 10.022.843 20.084.26 30.118.014.28-.062.557-.217.791a1.353 1.353 0 0 1-.869.382l-2.693.513c-.241.074-.5.058-.73-.044a.964.964 0 0 1-.357-.677 78.807 78.807 0 0 1-1.868-21.264c.156-3.259.513-6.561-.191-9.741a7.822 7.822 0 0 1 5.318-1.191" fill="#fff"/>
    <path d="M85.569 110.872c.65 8.674.804 17.378.46 26.069 0 1-.086 2.008-.139 3.007 0 .539 0 1.46-.512 1.799a5.92 5.92 0 0 1-1.66.33 5.241 5.241 0 0 1-1.347.261c-.747-.139-.756-1.113-.869-1.677a74.709 74.709 0 0 1-.582-3.094 77.453 77.453 0 0 1-1.086-13.034c0-4.528.808-9.151-.122-13.626l-.174.443a7.82 7.82 0 0 1 5.118-1.138c.496.061.487-.721 0-.782a8.493 8.493 0 0 0-5.517 1.243.39.39 0 0 0-.174.443c.956 4.649 0 9.558.087 14.251.05 4.665.51 9.318 1.373 13.903a16.18 16.18 0 0 0 .678 3.181c.16.478.626.785 1.13.747a17.252 17.252 0 0 0 2.858-.539c.617-.121 1.2-.269 1.434-.921.215-.993.29-2.01.226-3.024.06-1.295.104-2.607.147-3.876.07-2.433.105-4.872.105-7.316 0-5.527-.215-11.048-.643-16.563 0-.495-.817-.504-.782 0l-.01-.087z" fill="#001A36"/>
    <path d="M69.198 110.786a227.53 227.53 0 0 0-1.39 30.092 1.4 1.4 0 0 0 .182.8c.233.234.54.378.869.408l2.668.617c.235.087.494.087.73 0 .207-.163.344-.399.382-.66a78.915 78.915 0 0 0 2.659-21.186c0-3.258-.26-6.578.556-9.732a7.865 7.865 0 0 0-5.275-1.399" fill="#fff"/>
    <path d="M68.841 110.786a229.564 229.564 0 0 0-1.407 29.223c0 .686-.105 1.529.434 2.042.539.513 1.677.591 2.407.765.591.13 1.53.539 2.138.226.608-.313.669-1.165.817-1.738a80.083 80.083 0 0 0 2.259-13.973c.191-2.607.234-5.284.182-7.934a31.611 31.611 0 0 1 .565-8.194.416.416 0 0 0-.182-.443 8.553 8.553 0 0 0-5.475-1.425c-.495.043-.495.825 0 .782a7.818 7.818 0 0 1 5.075 1.329l-.209-.426c-.964 3.911-.512 7.951-.573 11.931a78.65 78.65 0 0 1-1.851 15.72c-.122.547-.243 1.095-.374 1.633a5.505 5.505 0 0 1-.417 1.634c-.512.687-2.224.13-2.928-.13a1.869 1.869 0 0 1-1.104-.869c-.03-.289-.03-.58 0-.869v-1.738c-.04-4.299.044-8.603.252-12.913a223.37 223.37 0 0 1 1.173-14.59c.061-.495-.72-.495-.782 0v-.043z" fill="#001A36"/>
    <path d="M87.646 142.304c.222.423.37.882.434 1.355.87.531 5.214 1.434 6.717 3.329a2.015 2.015 0 0 1 0 2.606c-.408.504-11.983.713-13.755.591a1.789 1.789 0 0 1-1.121-.347 1.903 1.903 0 0 1-.452-1.034c-.443-2.051-.791-4.484.669-6.005a5.385 5.385 0 0 1 2.433-1.295c.756-.208 4.78.418 5.075.8z" fill="#fff"/>
    <path d="M87.307 142.503c.27.435.191 1.174.573 1.504.41.246.856.425 1.321.53a19.914 19.914 0 0 1 4.102 1.738c.73.452 1.581 1.103 1.581 2.051 0 .556-.147.981-.6 1.068-.845.131-1.699.209-2.554.235-2.607.148-5.214.209-7.82.226h-2.608a3.415 3.415 0 0 1-.669-.061c-.721-.156-.79-.869-.869-1.495a10.645 10.645 0 0 1-.252-2.876 3.78 3.78 0 0 1 3.997-3.519c.79.053 1.577.155 2.355.304.383.078 1.243.139 1.521.408.278.27.869-.191.547-.547a2.73 2.73 0 0 0-1.32-.504 23.665 23.665 0 0 0-2.33-.374 5.05 5.05 0 0 0-4.553 1.538c-1.355 1.591-1.094 3.885-.712 5.779.2 1.008.452 1.86 1.573 2.059.44.066.885.092 1.33.079 2.876.043 5.76 0 8.637-.165 1.199-.053 2.398-.105 3.589-.27.282-.011.559-.076.816-.191.554-.492.82-1.232.704-1.964-.234-1.955-2.685-2.928-4.275-3.545-.869-.322-1.738-.582-2.546-.869a1.76 1.76 0 0 0-.382-.157.376.376 0 0 1-.105-.052c.148.078.07.27.087 0a2.527 2.527 0 0 0-.452-1.286c-.286-.46-.964-.069-.686.356z" fill="#001A36"/>
    <path d="M73.681 142.304c.229.421.379.881.444 1.355.869.531 5.213 1.434 6.708 3.329a1.997 1.997 0 0 1 0 2.606c-.417.504-11.992.713-13.764.591a1.79 1.79 0 0 1-1.121-.347 1.904 1.904 0 0 1-.452-1.034c-.443-2.051-.782-4.484.669-6.005a5.424 5.424 0 0 1 2.433-1.295c.765-.208 4.788.418 5.084.8z" fill="#fff"/>
    <path d="M73.343 142.503c.278.435.2 1.174.582 1.504.405.247.848.426 1.312.53a19.911 19.911 0 0 1 4.101 1.738c.73.452 1.582 1.103 1.59 2.051 0 .556-.156.981-.608 1.068-.846.131-1.699.209-2.554.235-2.607.148-5.214.209-7.821.226h-2.607a3.327 3.327 0 0 1-.66-.061c-.722-.156-.791-.869-.913-1.495a10.317 10.317 0 0 1-.26-2.876 3.78 3.78 0 0 1 4.005-3.519c.788.054 1.571.155 2.346.304.383.078 1.252.139 1.521.408a.39.39 0 0 0 .556-.547 2.798 2.798 0 0 0-1.33-.504 23.19 23.19 0 0 0-2.328-.374 5.05 5.05 0 0 0-4.553 1.538c-1.356 1.591-1.087 3.885-.713 5.779.2 1.008.452 1.86 1.573 2.059.44.065.885.091 1.33.079 2.876.043 5.77 0 8.637-.165 1.2-.053 2.407-.105 3.589-.27a1.574 1.574 0 0 0 1.52-2.155c-.234-1.955-2.685-2.928-4.275-3.545-.869-.322-1.738-.582-2.537-.869a1.836 1.836 0 0 0-.391-.157s-.079-.043-.105-.052c.148.078.07.27.096 0a2.606 2.606 0 0 0-.452-1.286c-.243-.46-.92-.069-.651.356z" fill="#001A36"/>
    <path d="M89.931 83.839c.061 9.558 3.267 30.605 2.99 32.03-.06.424-.266.815-.583 1.104-.443.365-27.85-1-28.988-.869a3.06 3.06 0 0 1-1.408-.044 1.346 1.346 0 0 1-.765-.99c-.869-3.085 5.396-19.795 5.866-30.101 6.273-1.208 22.888-1.13 22.888-1.13z" fill="#D2D8FF"/>
    <path d="M89.54 83.84c.07 7.82 1.217 15.693 2.146 23.461.313 2.607.73 5.214.87 7.882 0 .66 0 1.347-.644 1.442-.757.061-1.519.061-2.276 0-6.083-.113-12.166-.417-18.249-.651-2.328-.096-4.648-.2-6.951-.252-.748 0-2.338.217-2.738-.383-.556-.869-.095-2.459.061-3.337 1.669-9.045 5.214-17.752 5.683-27.024l-.286.382c4.518-.869 9.237-.869 13.816-1.017a308.57 308.57 0 0 1 8.968-.113.391.391 0 1 0 0-.782c-3.076 0-6.152 0-9.22.113-4.57.13-9.263.183-13.773 1.043a.4.4 0 0 0-.287.374c-.443 8.915-3.719 17.379-5.5 26.069a13.342 13.342 0 0 0-.435 3.606c.014.505.19.993.504 1.39.591.669 1.443.513 2.233.469 1.808-.087 3.659.096 5.458.157 6.482.252 12.956.565 19.438.73.974 0 1.947.052 2.92.043.454.067.917.007 1.338-.174.87-.564.739-1.738.67-2.607a103.888 103.888 0 0 0-.374-3.649c-1.034-9.003-2.503-18.075-2.607-27.147a.391.391 0 0 0-.765-.026zM83.031 4.607a6.004 6.004 0 0 0-6.951 1.894c-1.408 1.851-1.912 4.814.156 6.37a5.483 5.483 0 0 0 6.344 0c.338-.252.79-.574.869-1.017a.921.921 0 0 0-.617-.973c-.991-.382-2.294.565-2.972 1.208a5.388 5.388 0 0 0-.313 7.377c.27.322.73-.139.46-.46a4.719 4.719 0 0 1 .391-6.526c.33-.304 1.182-1.025 1.669-.973 1.416.121-.156 1.051-.478 1.216a4.901 4.901 0 0 1-3.31.383 3.476 3.476 0 0 1-2.677-2.155c-.25-1.244 0-2.537.695-3.598a5.362 5.362 0 0 1 6.578-2.112c.391.157.556-.477.174-.625l-.018-.009zM88.828 32.145l-.209 3.997c-.782 4.683-4.406 16.918-5.144 17.422-1.173.8-12.27 1.278-12.74 1.008-.616-.356-1.563-17.031-1.033-21.046a9.445 9.445 0 0 1 .877-3.32 6.143 6.143 0 0 1 2.016-2.128c5.718-3.789 11.436-1.347 14.347.46a4.014 4.014 0 0 1 1.886 3.607z" fill="#001A36"/>
    <path d="M83.431 53.565c-1.33-.33-2.833-.991-2.555-2.112.426-1.738 2.199-2.729 3.25-4.162a9.932 9.932 0 0 0 1.408-3.38c.67-2.608 2.607-10.08-.148-13.522-2.546-3.206-10.106-5.335-13.434 1.895-1.642 3.545-2.06 7.95-.313 11.505.652 1.33 1.643 2.459 2.373 3.745a5.136 5.136 0 0 1 .703 4.215c-.286.808-1.824 1.963-4.023 2.824-.252.104 1.738 2.076 3.745 2.294.739.078 3.98 1.312 5.822.634.74-.27 5.214-2.39 5.831-2.607.817-.356-1.338-.99-2.659-1.33z" fill="#fff"/>
    <path d="M83.518 53.252c-1.234-.33-2.859-.87-2.042-2.45a9.487 9.487 0 0 1 1.886-2.165 9.802 9.802 0 0 0 2.52-4.788 31.284 31.284 0 0 0 1.251-8.35c0-2.607-.747-5.093-2.963-6.683a9.029 9.029 0 0 0-6.7-1.59c-2.937.53-4.936 2.807-6.082 5.457-1.521 3.632-1.817 8.056.104 11.6 1.112 2.043 3.18 3.911 3.076 6.414a2.694 2.694 0 0 1-1.347 2.163 9.659 9.659 0 0 1-1.217.74c-.408.216-1.242.39-1.546.72-.522.565.677 1.365 1.042 1.634a10.543 10.543 0 0 0 4.006 1.512c1.547.4 3.32.869 4.884.322 1.208-.426 2.364-1.052 3.528-1.582a69.84 69.84 0 0 0 1.842-.869c.243-.113.67-.209.765-.495.347-.99-2.538-1.495-3.041-1.625a.325.325 0 0 0-.174.626c.764.2 1.503.52 2.268.73.252.069.295-.053.217 0a2.03 2.03 0 0 1-.504.225c-1.051.47-2.086.956-3.128 1.425a8.543 8.543 0 0 1-3.094 1.078 16.001 16.001 0 0 1-4.145-.67 6.439 6.439 0 0 1-3.806-1.92c-.113-.139 0 0 .278-.078A4.612 4.612 0 0 0 72.674 54a7.96 7.96 0 0 0 1.668-1.2c2.52-2.459-.53-6.082-1.877-8.211-2.207-3.563-1.99-8.099-.356-11.853 1.19-2.737 3.423-4.892 6.526-4.979a8.36 8.36 0 0 1 6.082 2.416c2.025 2.077 1.886 5.466 1.573 8.142a36.094 36.094 0 0 1-.869 4.423c-.434 1.799-.869 3.615-2.172 5.014-.99 1.069-2.537 2.138-2.763 3.702-.226 1.564 1.642 2.12 2.789 2.424a.336.336 0 1 0 .243-.625z" fill="#001A36"/>
    <path d="M73.125 28.703a12.261 12.261 0 0 1 8.89-1.46 10.28 10.28 0 0 1 4.293 2.225c.869.643 1.737 1.59 1.45 2.607a2.18 2.18 0 0 1-.486.869 5.857 5.857 0 0 1-4.936 1.738c-1.79-.104-3.554-.617-5.344-.66a4.746 4.746 0 0 0-2.111.347 4.545 4.545 0 0 0-1.834 1.738c-1.295 2.025-1.173 5.492-.817 8.69-2.12-1.59-2.728-8.256-1.842-12.088l2.737-4.006z" fill="#001A36"/>
    <path d="M112.707 46.37c-.313-.548-1.373-1.017-1.895-1.374-2.241-1.52-4.11 2.737-4.544 7.412 0 .322-.869-3.145-1.208-3.05-1.382.444-.869 4.476-.869 4.928.001.469.223.91.6 1.19.321.209 2.745 1.477 3.701 1.468a2.609 2.609 0 0 0 1.895-1.181c1.903-2.52 2.772-8.612 2.32-9.394z" fill="#fff"/>
    <path d="M112.993 46.205a3.864 3.864 0 0 0-1.286-1.052 6.383 6.383 0 0 0-1.312-.712 1.99 1.99 0 0 0-2.016.66 7.506 7.506 0 0 0-1.555 2.885 16.451 16.451 0 0 0-.539 2.06c-.087.405-.156.813-.209 1.225 0 .165-.052.339-.069.504-.018.165-.096.521 0 .425l.391-.052c.165.113.078.079 0-.095s-.122-.365-.174-.548c-.139-.434-.278-.869-.426-1.312-.147-.443-.408-1.442-1.103-1.051-.695.39-.869 1.434-.93 2.18a15.535 15.535 0 0 0 0 2.695 2.147 2.147 0 0 0 1.199 1.972c.947.56 1.972.977 3.041 1.234 2.451.452 3.659-3.033 4.189-4.831.373-1.261.635-2.552.782-3.859a4.5 4.5 0 0 0-.078-2.328c-.191-.374-.756 0-.565.33.118.52.118 1.06 0 1.581a20.39 20.39 0 0 1-.452 2.79 18.108 18.108 0 0 1-.869 2.928 5 5 0 0 1-1.92 2.607c-.869.47-2.034-.156-2.851-.539-.816-.382-1.737-.651-1.79-1.633a21.901 21.901 0 0 1-.113-1.825c-.071-.797.042-1.6.331-2.346 0-.096.304-.313.321-.383l-.182-.095c.017.024.032.05.043.078 0 .052.087.165.113.217.148.356.261.73.382 1.095.122.365.235.773.365 1.156.033.213.137.41.296.556a.33.33 0 0 0 .391-.052c.261-.226.191-1.017.235-1.321.086-.64.208-1.276.364-1.903a11.001 11.001 0 0 1 1.208-3.146c.348-.573.921-1.33 1.677-1.277.385.08.745.25 1.052.495a4.035 4.035 0 0 1 1.408 1.026c.312.338.877.017.651-.34z" fill="#001A36"/>
    <path d="M46.335 45.232c.304-.556 1.356-1.043 1.868-1.408 2.216-1.555 4.163 2.659 4.675 7.334 0 .313.87-3.163 1.156-3.076 1.39.417.939 4.458.93 4.918.012.467-.201.91-.574 1.19-.321.218-2.72 1.53-3.675 1.539a2.606 2.606 0 0 1-1.912-1.147c-1.973-2.494-2.902-8.56-2.468-9.35z" fill="#fff"/>
    <path d="M46.613 45.397c.36-.433.81-.78 1.321-1.017a3.12 3.12 0 0 1 1.052-.547c.782-.122 1.39.651 1.737 1.234.565.942.984 1.965 1.243 3.032.165.617.304 1.252.408 1.886.033.394.089.785.166 1.173 0 .087 0 .174.104.252a.33.33 0 0 0 .39.044c.357-.244.427-1.017.54-1.39.113-.374.208-.713.33-1.07.052-.139.095-.286.156-.425a.665.665 0 0 0 .096-.113.304.304 0 0 1 .043-.07c0 .06-.043.096-.182.087 0 .043.252.235.287.295.087.15.155.31.2.478.11.412.175.834.19 1.26.048.73.048 1.461 0 2.19.002.339-.078.673-.234.973-.256.29-.578.513-.938.652a8.228 8.228 0 0 1-2.607 1.069c-1.139.148-1.947-1.034-2.434-1.92-.48-.924-.859-1.897-1.13-2.903a21.598 21.598 0 0 1-.677-3.232 4.269 4.269 0 0 1 0-1.93c.182-.373-.374-.712-.565-.33a3.745 3.745 0 0 0-.087 1.912c.12 1.12.326 2.23.617 3.32.28 1.16.682 2.287 1.2 3.362.538 1.017 1.381 2.19 2.606 2.355.991.13 2.103-.504 2.955-.93.851-.425 1.738-.869 1.886-2.016.069-.748.095-1.499.078-2.25a4.518 4.518 0 0 0-.626-2.607c-.182-.235-.547-.556-.869-.417-.321.139-.391.539-.486.8-.174.477-.313.964-.461 1.45-.06.218-.122.435-.191.643-.07.21-.209.357 0 .21l.4.051c.095.078 0-.27 0-.304 0-.209-.061-.417-.096-.626-.058-.37-.128-.744-.209-1.12a16.842 16.842 0 0 0-.582-2.19 7.559 7.559 0 0 0-1.599-2.86 2.025 2.025 0 0 0-2.033-.616c-.431.184-.84.417-1.217.695a3.84 3.84 0 0 0-1.347 1.12c-.226.366.34.687.565.34z" fill="#001A36"/>
    <path d="M50.115 75.271c5.874 8.368 20.282-20.169 17.649-4.519-.574 3.398-2.303 13.548-1.052 16.78 8.134-.139 15.442-1.034 23.575-1.173 2.373-.043-2.215-11.157-1.503-17.875.278-2.51 7.82 12.67 13.035 8.499 5.439-4.406 9.558-18.127 9.098-20.134 0 0-4.345.174-6.57-1.434-2.224 4.067-2.711 7.647-5.213 10.185-3.65 3.719-7.908-16.198-16.224-12.73-2.78 1.155-8.768-.296-12.878-1.739-6.717-2.424-13.356 17.101-14.573 12.705-1.738-6.553-.869-8.569-1.034-8.586l-5.7-.573s.13 18.813 1.39 20.594z" fill="#fff"/>
    <path d="M49.776 75.463c3.563 4.944 9.654-1.851 12.244-4.51.965-.99 1.903-1.99 2.902-2.946.565-.53 1.347-1.434 2.138-1.599.617-.139.617.652.626 1.182a25.965 25.965 0 0 1-.583 4.831c-.425 2.668-.816 5.344-1.042 8.038-.192 2.286-.513 4.98.295 7.178.044.17.198.288.374.287 4.953-.096 9.897-.47 14.833-.791 2.485-.156 4.97-.287 7.465-.356.868 0 1.859.2 2.224-.774.2-.825.2-1.686 0-2.511-.2-1.408-.513-2.798-.8-4.197-.695-3.285-1.477-6.691-1.303-10.071.038-.248.058-.498.06-.748 0 0-.234.165-.251.113.052.13.426.365.53.487.582.626 1.095 1.32 1.616 1.99a33.142 33.142 0 0 0 4.675 5.144c1.33 1.112 3.111 2.268 4.927 1.738 2.251-.6 3.911-3.354 5.032-5.214a45.225 45.225 0 0 0 4.266-9.558 34.174 34.174 0 0 0 1.113-4.137 6.267 6.267 0 0 0 .173-2.337.4.4 0 0 0-.373-.287c-2.121.078-4.588-.165-6.37-1.382a.39.39 0 0 0-.539.14c-1.216 2.267-1.998 4.71-3.093 7.03a11.31 11.31 0 0 1-1.825 2.84c-.252.27-.513.583-.912.583-.66 0-1.252-.756-1.625-1.208-.636-.83-1.217-1.7-1.738-2.607a51.323 51.323 0 0 0-4.345-6.517c-1.373-1.607-3.19-3.172-5.414-3.241-1.381 0-2.607.686-3.927.8a21.142 21.142 0 0 1-6.822-.87 45.533 45.533 0 0 1-3.215-.956 7.438 7.438 0 0 0-1.972-.52 4.979 4.979 0 0 0-2.764.807c-4.345 2.607-6.291 7.908-9.246 11.775-.243.321-.773 1.069-1.069.93-.295-.14-.225-.748-.26-.87-.174-.669-.33-1.346-.47-2.024a22.857 22.857 0 0 1-.46-3.363 12.087 12.087 0 0 1 0-1.738c.052-.216.078-.438.078-.66-.113-.6-.695-.47-1.225-.522l-4.884-.495a.391.391 0 0 0-.39.39c-.055 5.86.192 11.72.738 17.554a7.89 7.89 0 0 0 .704 3.233c.278.425.956 0 .678-.392a6.794 6.794 0 0 1-.582-2.763c-.192-1.65-.296-3.31-.392-4.97-.182-3.476-.278-6.9-.33-10.358v-2.303l-.39.39 4.274.435c.383 0 1.174.235 1.043-.139.017.11.017.221 0 .33a15.134 15.134 0 0 0 .096 3.477c.122.964.295 1.92.504 2.876.094.832.32 1.645.669 2.407a.869.869 0 0 0 1.19.33 4.849 4.849 0 0 0 1.504-1.634c.677-.956 1.294-1.955 1.92-2.946a36.783 36.783 0 0 1 5.04-6.786 7.134 7.134 0 0 1 2.876-2.086c1.486-.373 2.964.478 4.345.87a32.279 32.279 0 0 0 6.7 1.407c.868.079 1.742.065 2.607-.043.756-.105 1.416-.435 2.155-.609 2.52-.608 4.623 1.234 6.083 3.033a59.644 59.644 0 0 1 4.397 6.665c.773 1.225 2.155 3.954 3.962 3.771 1.33-.13 2.268-1.938 2.816-2.946 1.39-2.528 2.172-5.344 3.536-7.89l-.539.14c1.895 1.294 4.519 1.572 6.77 1.494l-.383-.287a5.467 5.467 0 0 1-.208 2.086 33.112 33.112 0 0 1-.93 3.476 47.208 47.208 0 0 1-3.467 8.49 24.96 24.96 0 0 1-2.529 3.875 6.581 6.581 0 0 1-2.694 2.311c-1.894.609-3.832-1.042-5.092-2.242a45.962 45.962 0 0 1-4.345-5.04c-.4-.495-1.503-2.372-2.363-2.076-.67.226-.487 1.529-.487 2.016.005 1.555.135 3.106.391 4.64.452 2.954 1.234 5.848 1.695 8.803.078.495.504 2.276-.052 2.65-.296.209-1.217 0-1.565.052l-1.885.06c-1.382.062-2.755.131-4.136.218-5.353.322-10.697.765-16.059.87l.374.286c-.73-2.016-.452-4.458-.296-6.552.2-2.607.556-5.153.965-7.708.333-1.659.569-3.336.704-5.023 0-.712.087-1.798-.53-2.32-1.27-1.069-3.424 1.486-4.171 2.225a81.684 81.684 0 0 1-6.405 6.222c-1.955 1.572-4.996 3.476-6.9.8-.277-.453-.955-.062-.66.347z" fill="#001A36"/>
    <path d="M99.576 44.11a3.292 3.292 0 0 0-.156 1.417 3.555 3.555 0 0 0 2.268 2.32c8.69 3.424 25.278 9.915 25.278 9.915 1.231.5 2.64.242 3.615-.66 1.434-1.739 5.44-12.166 9.281-22.741L131.546 27l-8.69-1.608-5.214-4.85-8.611-2.432c-4.562 11.948-9.08 24.522-9.455 26z" fill="#fff"/>
    <path d="M99.194 43.998c-.59 2.407.965 3.658 3.024 4.475l5.727 2.268 12.383 4.849c2.155.868 4.292 1.737 6.465 2.528a3.7 3.7 0 0 0 4.266-1.06 23.036 23.036 0 0 0 2.086-4.258c2.607-6.022 4.823-12.209 7.056-18.37a.347.347 0 0 0-.096-.373l-5.961-5.284a17.518 17.518 0 0 0-2.303-2.042 7.145 7.145 0 0 0-2.32-.513l-4.97-.869-1.443-.269c-.226 0-.095 0 0 .052a3.086 3.086 0 0 1-.426-.39l-3.362-3.138a5.824 5.824 0 0 0-1.817-1.512c-2.719-.964-5.604-1.581-8.385-2.363a.4.4 0 0 0-.478.269 1212.39 1212.39 0 0 0-6.283 16.927c-1.086 2.99-2.346 5.996-3.171 9.073a.392.392 0 0 0 .756.208c.869-3.076 2.085-6.083 3.163-9.072 2.062-5.66 4.156-11.302 6.282-16.927l-.478.278 7.195 2.024c.417.113.869.226 1.26.357.192.06.139.043 0-.052.127.1.246.21.357.33l3.163 2.954a8.676 8.676 0 0 0 1.833 1.669c.945.282 1.919.46 2.903.53l4.518.869c.391.07.791.121 1.182.217.235.06-.13-.113-.043-.061.101.08.197.167.286.26 2.016 1.93 4.189 3.711 6.283 5.562l1.173 1.043c.147.102.281.222.4.356.243.435-.052-.347-.105.148a11.633 11.633 0 0 1-.869 2.398l-.729 1.981-1.738 4.589c-1.582 4.17-3.033 8.611-5.258 12.495-1.468 2.546-4.214 1.052-6.256.252l-11.827-4.675-6.899-2.71-3.085-1.218c-1.677-.66-3.215-1.511-2.703-3.597.122-.487-.634-.695-.756-.209z" fill="#001A36"/>
    <path d="M125.402 51.731c.357.22.772.33 1.191.313.695-.113 1.051-.869 1.303-1.52l2.607-6.952c.269-.51.334-1.103.183-1.66a2.297 2.297 0 0 0-1.356-1.034l-3.545-1.451a2.486 2.486 0 0 0-1.26-.27c-.869.13-1.304 1.078-1.599 1.904l-2.555 7.108a1.907 1.907 0 0 0-.156.756c.065.422.34.781.73.956.417.147 3.614 1.425 4.457 1.85z" fill="#D2D8FF"/>
    <path d="M125.211 52.062c1.104.547 2.086.469 2.729-.678.308-.633.572-1.286.79-1.955l.939-2.416.869-2.407a6.52 6.52 0 0 0 .66-2.216c0-1.32-1.321-1.738-2.329-2.164l-2.241-.92a4.225 4.225 0 0 0-2.129-.566c-1.13.174-1.625 1.347-1.964 2.303-.58 1.576-1.159 3.154-1.738 4.736-.27.747-.556 1.494-.808 2.25a1.643 1.643 0 0 0 .121 1.625 5.12 5.12 0 0 0 2.199 1.191c.947.391 1.92.765 2.85 1.217.443.225.869-.452.391-.67-1.225-.608-2.52-1.086-3.78-1.616-.182-.078-.374-.148-.556-.235a.911.911 0 0 1-.469-1.303c.417-1.234.869-2.45 1.312-3.676.443-1.225.869-2.415 1.295-3.597.148-.487.424-.925.799-1.269.582-.417 1.295 0 1.877.217 1.182.478 2.45.87 3.589 1.486.574.21.884.832.704 1.417a15.2 15.2 0 0 1-.661 1.816l-1.555 4.101c-.261.696-.487 1.425-.808 2.095a1.944 1.944 0 0 1-.444.643c-.417.339-.869.13-1.303-.079-.434-.208-.791.452-.339.67zM112.915 30.285c.93-2.607 1.973-5.161 3.024-7.716.087-.217-.095-.409-.269-.487l-1.364-.565-.869-.356a1.122 1.122 0 0 0-.643-.139c-.27.07-.357.417-.452.643a685.08 685.08 0 0 0-2.242 5.362c-.209.495-.409.999-.617 1.503-.078.208-.278.521-.218.756.061.235.357.322.565.4l1.008.347 1.617.522c.486.147.686-.609.208-.756l-1.39-.46-.956-.314-.356-.13c-.131-.052-.131-.078-.061 0l.113.27c0 .19 0 .052 0 0 0-.053.069-.183.104-.27l.391-.956 1.121-2.72c.365-.869.73-1.738 1.104-2.607l.339-.782a.719.719 0 0 0 .086-.182c.079-.13-.052-.07-.391.174a.583.583 0 0 0 .174.052c.869.286 1.66.66 2.485.999l-.278-.478c-1.051 2.555-2.094 5.118-3.024 7.716-.139.444.617.652.791.174zM108.996 40.27c.93-2.607 1.981-5.162 3.024-7.717.087-.217-.095-.408-.269-.486l-1.364-.556-.869-.357a1.113 1.113 0 0 0-.635-.139c-.269.07-.356.417-.452.643-.217.487-.417.974-.625 1.46-.548 1.295-1.086 2.607-1.625 3.893l-.609 1.512c-.086.209-.286.522-.217.756.07.235.348.322.565.4.217.078.669.234.999.339l1.625.53c.478.148.687-.608.209-.756l-1.373-.443-.947-.313-.357-.13c-.139-.053-.13-.079-.069 0l.113.269c0 .191 0 .052 0 0 .034-.091.063-.184.087-.278.13-.313.252-.634.382-.947.374-.87.747-1.817 1.13-2.72.382-.904.73-1.738 1.103-2.607.113-.26.218-.521.339-.782.03-.06.056-.12.079-.183.069-.13-.061-.07-.4.174a.63.63 0 0 0 .182.052c.869.287 1.66.66 2.477 1l-.27-.478c-1.051 2.554-2.102 5.118-3.032 7.716-.122.417.617.617.799.148z" fill="#001A36"/>
    <path d="M19.745 32.127C25.14 43.32 30.807 54.477 31.094 54.92c1.286 2.033 3.675 1.947 5.213 1.39 1.538-.556 17.762-7.768 23.949-10.558 2.407-1.086 1.894-3.232 1.373-4.605-1.477-3.919-4.953-11.714-8.707-19.717L42.355 22.7l-5.83 3.823-9.933.47-6.847 5.135z" fill="#fff"/>
    <path d="M35.456 37.819a4.274 4.274 0 0 1 2.19.07 2.46 2.46 0 0 0 .547-1.547c0-4.345-3.476-6.083-5.865-5.475 0 0-4.493 1.46-3.642 5.649a4.563 4.563 0 0 0 1.365 2.728c.612.447 1.32.745 2.068.869h.243a6.395 6.395 0 0 1 3.094-2.294z" fill="#D2D8FF"/>
    <path d="M37.645 37.889a7.186 7.186 0 0 1-2.937 2.068 4.006 4.006 0 0 1-2.346.226 4.345 4.345 0 0 0-.547 3.284 4.58 4.58 0 0 0 1.399 2.729c.61.452 1.319.75 2.068.869a4.25 4.25 0 0 0 2.607-.182c2.607-1.191 3.476-2.477 3.476-3.615-.061-3.068-1.825-4.84-3.72-5.38z" fill="#D2D8FF"/>
    <path d="M50.306 35.256c1.208 2.485 2.312 5.022 3.407 7.56.109.183.345.245.53.139.469-.191.938-.391 1.399-.6.295-.121.585-.252.869-.39a1.13 1.13 0 0 0 .495-.331c.148-.252-.052-.565-.148-.8l-.6-1.425c-.55-1.303-1.103-2.606-1.66-3.91-.208-.487-.425-.973-.633-1.468-.096-.21-.183-.574-.4-.704-.217-.13-.443 0-.643.104s-.635.313-.947.478l-1.547.817c-.443.234-.052.869.39.669l1.27-.67.912-.46.339-.174c.122-.052.13 0 0 0l-.27-.113c-.121-.139 0 0 0 0s.087.191.122.278c.14.305.27.609.4.913l1.173 2.728 1.104 2.607c.104.27.217.53.321.8.02.066.047.13.078.19 0 .149.087 0 .148-.399-.06.024-.119.053-.174.087-.79.4-1.616.73-2.433 1.078l.539.139c-1.104-2.538-2.199-5.084-3.415-7.56-.174-.426-.852-.035-.626.417zM45.892 25.471c1.216 2.485 2.311 5.023 3.406 7.56a.39.39 0 0 0 .539.14l1.39-.592c.305-.13.6-.26.87-.4.194-.061.369-.175.503-.33.148-.252-.052-.564-.147-.8l-.6-1.424a329.437 329.437 0 0 0-1.66-3.902l-.643-1.477c-.087-.209-.182-.574-.39-.704-.21-.13-.444 0-.644.104s-.634.313-.947.478l-1.556.817c-.443.235 0 .869.4.67l1.269-.67.869-.46.347-.174c.113-.052.122 0 0 0l-.2-.183c-.121-.139 0 0 0 0 .036.095.077.188.122.278.13.304.27.608.4.921.391.87.782 1.808 1.164 2.72.383.913.74 1.738 1.104 2.607.113.27.226.53.33.8a.727.727 0 0 0 .07.19c0 .148.087 0 .148-.399-.044 0-.14.07-.174.087-.791.4-1.625.73-2.433 1.077l.53.14c-1.104-2.442-2.181-4.945-3.39-7.465-.217-.452-.894-.087-.677.391z" fill="#001A36"/>
    <path d="M19.406 32.327c3.302 6.83 6.668 13.628 10.097 20.395.73 1.434 1.347 3.145 2.894 3.893 1.738.817 3.476.33 5.127-.357 4.38-1.85 8.724-3.823 13.069-5.76l7.369-3.303c1.946-.869 4.562-1.599 4.466-4.188a11.296 11.296 0 0 0-1.138-3.693 187.134 187.134 0 0 0-2.068-4.884c-1.938-4.423-3.954-8.82-5.987-13.2a.374.374 0 0 0-.34-.19l-7.95.955c-.916.018-1.827.129-2.72.33a3.921 3.921 0 0 0-.87.53l-2.058 1.365-1.99 1.303c-.235.148-.478.287-.696.452-.217.165-.521.252-.13.165-.982.13-1.974.174-2.963.13l-5.118.244a5.614 5.614 0 0 0-2.13.208 8.93 8.93 0 0 0-1.39 1.043l-2.285 1.738-3.085 2.32c-.39.296 0 .973.4.67l2.91-2.182a38.232 38.232 0 0 0 3.738-2.815c.13-.122.286-.157 0-.087.132-.017.267-.017.4 0 .66 0 1.32-.061 1.972-.096l5.613-.26a5.527 5.527 0 0 0 2.381-.322c1.417-.782 2.737-1.799 4.093-2.685.487-.322.965-.678 1.477-.965.165-.095-.286.053 0 0 .287-.052.391-.043.574-.06l4.918-.635c1.495-.174 3.068-.521 4.58-.547.043 0 .312-.078.356 0-.156-.122.113.712.148.782.208.46.417.912.634 1.373a213.284 213.284 0 0 1 2.407 5.344c1.338 2.972 2.676 5.944 3.936 8.95.687 1.651 2.538 4.701 1.121 6.387a7.517 7.517 0 0 1-2.71 1.495l-2.755 1.234c-2.156.973-4.345 1.938-6.474 2.893-3.789 1.634-7.578 3.372-11.392 4.98-1.347.582-2.738 1.216-4.25.912-1.738-.365-2.363-1.834-3.093-3.259-2.694-5.213-5.31-10.532-7.899-15.832a328.102 328.102 0 0 1-2.511-5.153c-.218-.46-.895-.07-.678.382z" fill="#001A36"/>
    <path d="M35.56 38.201a4.17 4.17 0 0 1 1.99.061.382.382 0 0 0 .434-.182c1.208-1.738.47-4.345-.773-5.831a5.144 5.144 0 0 0-4.197-1.877 4.814 4.814 0 0 0-2.407.947 5.214 5.214 0 0 0-2.372 3.658 6.205 6.205 0 0 0 .634 3.433 4.414 4.414 0 0 0 3.354 2.155.426.426 0 0 0 .443-.183 5.622 5.622 0 0 1 2.894-2.18c.478-.157.278-.913-.209-.757a6.518 6.518 0 0 0-3.328 2.546l.444-.182a3.754 3.754 0 0 1-2.816-1.669 5.465 5.465 0 0 1-.678-2.832 4.214 4.214 0 0 1 1.825-3.18 5.094 5.094 0 0 1 1.738-.87 4.145 4.145 0 0 1 3.563.982c1.408 1.217 2.398 3.832 1.242 5.483l.435-.182a4.979 4.979 0 0 0-2.399-.061c-.512.07-.304.826.183.721z" fill="#001A36"/>
    <path d="M37.315 37.689A5.858 5.858 0 0 1 35.5 39.13a4.51 4.51 0 0 1-3.032.678.409.409 0 0 0-.444.183 5.518 5.518 0 0 0-.052 5.213c.87 1.808 3.128 2.607 5.031 2.33a6.95 6.95 0 0 0 2.729-1.235 5.423 5.423 0 0 0 1.547-1.503c.756-1.217.46-2.876-.052-4.136a5.43 5.43 0 0 0-3.476-3.18.391.391 0 0 0-.2.755 4.545 4.545 0 0 1 2.659 2.112c.35.625.575 1.313.66 2.025a3.32 3.32 0 0 1-.06 1.677c-.452 1.173-1.738 1.903-2.833 2.407-1.53.738-3.91.452-4.98-.99a4.727 4.727 0 0 1-.295-5.05l-.443.183c.595.1 1.203.1 1.799 0a5.76 5.76 0 0 0 1.738-.695 6.7 6.7 0 0 0 2.233-1.799c.27-.417-.417-.808-.713-.417z" fill="#001A36"/>
    <path d="M37.645 37.889a4.276 4.276 0 0 0-2.19-.07 6.396 6.396 0 0 0-3.11 2.364 4.006 4.006 0 0 0 2.346-.226 7.186 7.186 0 0 0 2.954-2.069z" fill="#D2D8FF"/>
    <path d="M37.75 37.506a4.578 4.578 0 0 0-2.399-.06c-.233.077-.46.173-.677.286a6.31 6.31 0 0 0-2.607 2.26.4.4 0 0 0 .234.573 5.143 5.143 0 0 0 1.86 0 6.3 6.3 0 0 0 1.738-.704 6.598 6.598 0 0 0 2.172-1.738.391.391 0 0 0-.139-.53.391.391 0 0 0-.53.14c-.501.598-1.119 1.09-1.816 1.442-.47.266-.977.465-1.503.59-.52.1-1.054.1-1.573 0l.235.574a5.58 5.58 0 0 1 2.32-1.955c.168-.094.346-.17.53-.226a3.72 3.72 0 0 1 1.998.06.39.39 0 0 0 .157-.712z" fill="#001A36"/>
</svg>
