<svg width="237" height="237" viewBox="0 0 237 237" xmlns="http://www.w3.org/2000/svg">
    <g fill-rule="nonzero" fill="none">
        <path d="M162.78 13.827c-8.058-2.766-16.693-3.773-25.302-4.391-9.294-.685-18.896-.927-27.706 1.692-6.715 2.001-12.611 5.533-18.413 9.025L62.821 37.317a30.647 30.647 0 0 0-7.602 5.707c-2.686 3.17-3.72 7.158-5.13 10.905-5.372 14.263-17.365 26.028-23.65 39.995a55.761 55.761 0 0 0 5.909 55.251c8.058 11.227 20.01 19.944 29.09 30.567 7.587 8.89 13.295 19.218 23.099 26.322 10.744 7.776 25.37 10.744 39.377 10.127 14.007-.618 27.558-4.432 40.558-8.985 14.773-5.144 29.963-11.966 37.604-24.026 8.595-13.618 5.372-30.204 5.708-45.662.645-27.84 13.712-55.95 5.573-82.89-3.088-10.22-9.83-20.266-20.83-24.873-.026-.04-21.716-13.161-29.747-15.928z" opacity=".1" fill="#7786FF"/>
        <path d="M174.464 53.5a7.548 7.548 0 0 0-5.224 3.397 4.754 4.754 0 0 0-.806 2.378 4.62 4.62 0 0 0 3.586 4.163 11.51 11.51 0 0 0 5.828-.363 4.204 4.204 0 0 1 1.518-.215c.967.121 1.706.914 2.579 1.343a3.868 3.868 0 0 0 5.17-2 4.7 4.7 0 0 0 5.99-1.478 3.653 3.653 0 0 0-2.19-5.372 6.89 6.89 0 0 1-2.121-.363c-.631-.362-.927-1.074-1.343-1.651a3.76 3.76 0 0 0-3.304-1.343c-.38.08-.774.08-1.155 0a1.92 1.92 0 0 1-.658-.43 11.792 11.792 0 0 0-3.17-2.256 3.344 3.344 0 0 0-3.625.55 8.394 8.394 0 0 0-1.075 3.64z" fill="#FFF"/>
        <path d="M173.497 53.379c-4.23.725-9.186 6.191-4.566 9.763 2.31 1.787 5.372 1.343 8.058.685 1-.382 2.122-.278 3.035.282.513.365 1.052.693 1.612.98a4.136 4.136 0 0 0 2.686.081 4.486 4.486 0 0 0 2.189-1.49c.201-.256.282-.578.577-.658.296-.081 1.222.349 1.693.376a4.714 4.714 0 0 0 4.767-2.754 4.244 4.244 0 0 0-1.343-4.633c-.967-.752-1.974-.51-3.075-.86-1.343-.456-1.907-2.256-3.304-2.927a4.15 4.15 0 0 0-1.598-.417h-.645a2.981 2.981 0 0 1-2.484-1.034 7.601 7.601 0 0 0-3.452-1.96 3.546 3.546 0 0 0-2.9.604c-1.089.9-1.196 2.458-1.935 3.586a.202.202 0 1 0 .35.201c.859-1.343.94-3.317 2.685-3.908a4.956 4.956 0 0 1 4.553 1.343c.967.779 1.585 1.639 2.888 1.598a4.432 4.432 0 0 1 2.565.363c.759.534 1.4 1.22 1.88 2.014a2.887 2.887 0 0 0 2.323 1.034 3.357 3.357 0 0 1 3.21 2.686c.9 3.68-3.451 5.372-6.325 4.123a.215.215 0 0 0-.282.081 3.881 3.881 0 0 1-2.606 2.23 4.244 4.244 0 0 1-3.666-.954c-2.136-1.343-4.204 0-6.527.12-2.686.189-6.38-1.114-6.353-4.39.027-3.278 3.425-5.373 6.151-5.83.255 0 .148-.43-.107-.389l-.054.054z" fill="#231F20"/>
        <path d="m105.944 137.854-5.56-19.649c-.658-2.35-1.343-4.714-1.826-7.104-1.558-7.534-1.424-15.31-1.007-22.992.22-7.107 1.119-14.177 2.686-21.112 3.894-15.243 25.584-41.553 25.584-41.553s19.62 27.84 22.307 43.352a110.247 110.247 0 0 1 1.141 21.26c-.16 7.696-.604 15.458-2.686 22.831-.671 2.35-1.517 4.647-2.363 6.943l-7.078 19.219-31.198-1.195z" fill="#FFF"/>
        <path d="M96.396 103.056c-4.03 0-11.953 8.515-14.17 16.64a58.192 58.192 0 0 0 .807 32.5c2.233-.71 4.601-.889 6.916-.523a34.058 34.058 0 0 1 13.658-16.505M149.672 104.789c4.177.376 11.644 9.4 13.296 17.768a57.145 57.145 0 0 1-3.304 32.514 16.116 16.116 0 0 0-7.09-1.048 34.354 34.354 0 0 0-12.786-17.593" fill="#D4DAFF"/>
        <path d="M97.04 101.028c-3.17.188-5.963 3.156-7.897 5.372a32.474 32.474 0 0 0-6.809 12.33 64.222 64.222 0 0 0 .672 34.689.618.618 0 0 0 .738.416 14.894 14.894 0 0 1 6.608-.55.631.631 0 0 0 .752-.43 35.495 35.495 0 0 1 13.43-17.003c.645-.43 0-1.477-.604-1.047a36.838 36.838 0 0 0-13.954 17.74l.739-.429a16.304 16.304 0 0 0-7.24.55l.74.43a63.887 63.887 0 0 1-1.102-32.325 31.614 31.614 0 0 1 6.003-12.396c1.814-2.297 4.768-5.963 7.964-6.151.78 0 .78-1.263 0-1.209l-.04.013zM149.283 104.13c3.223.43 5.882 4.204 7.534 6.716a31.695 31.695 0 0 1 5.13 12.92 63.967 63.967 0 0 1-3.545 32.231l.738-.43a15.673 15.673 0 0 0-7.023-1.087l.59.443a36.677 36.677 0 0 0-12.503-18.614c-.604-.483-1.464.363-.846.846a35.71 35.71 0 0 1 12.181 18.01c.072.26.308.44.578.443 2.289-.17 4.586.19 6.715 1.048.32.08.649-.102.752-.417a64.84 64.84 0 0 0 3.344-34.005 31.99 31.99 0 0 0-5.748-13.013c-1.746-2.404-4.365-5.802-7.561-6.232-.766-.107-1.088 1.061-.323 1.169l-.013-.027z" fill="#231F20"/>
        <path d="m115.305 172.167-2.377 7.816-4.459-12.731c-1.773-5.09-3.089-19.796 4.217-25.893l1.343-1.088 16.318.618 1.208 2.028c4.405 7.319 3.64 16.693 2.31 24.872l-2.135 13.161-4.835-9.4c-1.786 2.538-3.317 14.772-3.317 14.772s-7.534-6.809-8.273-14.155z" fill="#FFF"/>
        <path d="M115.453 139.465c-5.372 4.66-4.607 18.104-3.049 22.764a5.493 5.493 0 0 1 3.855-3.707 16.116 16.116 0 0 0 5.667 11.322 27.68 27.68 0 0 1 4.459-10.355 11.214 11.214 0 0 1 3.344 4.03c1.208-7.642 2.081-16.869-1.786-23.557l-12.49-.497z" fill="#D4DAFF"/>
        <path d="m114.11 173.268-2.552 8.34h1.155c-1.679-4.74-3.559-9.468-5.023-14.29a34.555 34.555 0 0 1-1.209-11.965c.256-4.66 1.343-9.818 4.674-13.323a21.112 21.112 0 0 1 1.84-1.638c.148-.121.873-.578.47-.47-.403.107-.107 0 0 0 1.034.107 2.095.08 3.13.12l10.743.403c1.099.201 2.22.242 3.33.121h.27c-.524.229-.551-.617-.229.148.298.6.644 1.175 1.034 1.72 3.344 5.626 3.868 12.26 3.371 18.667-.537 7.158-2.055 14.316-3.223 21.407l1.115-.147-5.238-10.033a.604.604 0 0 0-1.034 0c-1.679 2.498-2.055 6.165-2.579 9.039a138.618 138.618 0 0 0-1.087 7.024l1.034-.43c-4.137-3.693-8.058-8.998-8.743-14.612-.094-.752-1.343-.766-1.209 0 .725 5.963 4.7 11.536 9.092 15.471a.618.618 0 0 0 1.034-.43 128.94 128.94 0 0 1 1.048-6.714c.497-2.78.846-6.353 2.444-8.757h-1.034l5.224 10.046a.604.604 0 0 0 1.101-.148c1.008-6.137 2.19-12.275 2.942-18.453.752-6.177.9-13-1.464-19.017a19.742 19.742 0 0 0-2.968-5.546c-.51-.564-.967-.47-1.72-.497l-10.743-.255-4.768-.175c-.846 0-1.195-.107-1.88.443-7.226 5.668-8.058 15.794-6.836 24.309a46.857 46.857 0 0 0 2.579 8.93l3.33 9.402a.604.604 0 0 0 1.155 0l2.565-8.34c.255-.766-.913-1.088-1.141-.35z" fill="#231F20"/>
        <path d="M126.613 23.913a185.401 185.401 0 0 0-15.283 20.602s19.715-.134 28.807 1.92c-3.572-6.513-13.524-22.522-13.524-22.522z" fill="#D4DAFF"/>
        <path d="M113.908 67.346c-2.216 5.01-1.732 11.362 2.686 15.028 3.734 3.062 9.16 2.914 13.336.9a9.401 9.401 0 0 0 4.432-4.029 14.773 14.773 0 0 0 1.746-9.092 11.442 11.442 0 0 0-10.395-9.32c-4.673-.323-9.817 2.162-11.832 6.513-.188.39.39.725.578.336a11.456 11.456 0 0 1 9.186-6.138 10.878 10.878 0 0 1 10.892 5.95 11.657 11.657 0 0 1 .268 9.038 9.723 9.723 0 0 1-3.612 5.278 12.772 12.772 0 0 1-12.477 1.142c-5.56-2.874-6.58-9.965-4.23-15.27.174-.39-.403-.739-.578-.336z" fill="#231F20"/>
        <path d="M117.763 65.184c-2.606 1.96-3.532 5.52-3.613 8.81a8.46 8.46 0 0 0 .927 4.445c1.249 2.149 3.827 3.009 6.177 3.72a17.311 17.311 0 0 1 4.352-13.953c1.49-1.626 3.478-3.398 3.089-5.587-.014 0-8.475.698-10.932 2.565z" opacity=".1" fill="#7786FF"/>
        <path d="M86.31 111.759h5.694a.336.336 0 1 0 0-.671H86.31a.336.336 0 1 0 0 .671zM85.652 113.41l8.608.981c.43 0 .416-.617 0-.671l-8.608-.98c-.43 0-.417.63 0 .67zM84 115.761h9.817a.336.336 0 1 0 0-.671H84a.336.336 0 1 0 0 .671zM83.731 117.776c3.33 0 6.715 0 10.005-.108.43 0 .43-.698 0-.671-3.33.134-6.715.174-10.005.107a.336.336 0 1 0 0 .672zM82.845 120.099l9.213.094c.43 0 .43-.658 0-.671l-9.213-.094a.336.336 0 1 0 0 .671zM82.59 122.154l6.486-.296c.43 0 .43-.685 0-.671l-6.487.295c-.43 0-.443.699 0 .672zM81.273 125.686c1.895-.161 3.8-.161 5.695 0 .43 0 .43-.631 0-.672a33.575 33.575 0 0 0-5.695 0c-.416 0-.43.699 0 .672zM81.797 127.217c1.566.188 3.148.188 4.714 0 .185 0 .336-.15.336-.336a.35.35 0 0 0-.336-.336 19.769 19.769 0 0 1-4.714 0 .35.35 0 0 0-.336.336.35.35 0 0 0 .336.336zM81.502 130.427h4.324a.336.336 0 1 0 0-.672h-4.324c-.43 0-.43.685 0 .672zM81.502 132.938a11.59 11.59 0 0 1 3.048 0 .336.336 0 1 0 0-.671 12.329 12.329 0 0 0-3.223.08.322.322 0 0 0-.242.403.336.336 0 0 0 .417.242v-.054zM81.502 135.503l3.33.135c.43 0 .43-.659 0-.672l-3.33-.134c-.43 0-.43.658 0 .671zM80.642 137.437l3.33.121c.43 0 .43-.658 0-.671l-3.33-.121c-.43 0-.43.658 0 .671zM81.73 139.828l2.149.08a.336.336 0 1 0 0-.671l-2.149-.08a.336.336 0 1 0 0 .67zM81.26 141.735l2.941.107c.43 0 .43-.658 0-.671l-2.941-.108c-.43 0-.43.658 0 .672zM82.146 144.42l2.941.108c.43 0 .43-.644 0-.671l-2.94-.108c-.43 0-.43.658 0 .672zM82.455 146.717l1.558.067a.336.336 0 1 0 0-.671l-1.558-.067a.336.336 0 1 0 0 .671zM82.563 148.88l2.162.08c.185 0 .336-.15.336-.336a.35.35 0 0 0-.336-.335l-2.162-.081a.35.35 0 0 0-.336.336c0 .185.15.336.336.336zM97.846 89.452c1.088-.135 2.176-.296 3.277-.417 1.101-.12 2.189-.147 3.29-.188.43 0 .43-.684 0-.671-1.101 0-2.202 0-3.29.188s-2.19.282-3.277.416c-.43 0-.43.712 0 .672zM97.295 90.217c-.698.537.215 1.061.752 1.075h3.358c2.283 0 4.58.147 6.876.107.43 0 .43-.685 0-.671H97.886c-.188-.148-.268-.094-.241.174.335-.255 0-.846-.35-.577v-.108zM97.148 94.904c4.098-.011 8.192.28 12.248.873.416 0 .604-.59.174-.658a85.348 85.348 0 0 0-12.422-.886.336.336 0 0 0 0 .671zM97.027 98.007c4.821.39 9.67.617 14.504.685.43 0 .43-.658 0-.672-4.835 0-9.683-.295-14.504-.685-.43 0-.43.631 0 .672zM97.322 100.532l19.057 1.06c.43 0 .43-.644 0-.671L97.322 99.86c-.43 0-.43.658 0 .672zM97.134 102.439c.336.537 1.666.443 2.19.47 1.745.12 3.505.16 5.25.201 4.03.108 8.22.108 12.302.524.43 0 .43-.631 0-.672-3.76-.39-7.56-.403-11.348-.497-1.746 0-3.492-.08-5.238-.16-.59 0-1.182 0-1.76-.122-.2 0-.389 0-.59-.08-.201-.08-.322-.161-.228 0a.337.337 0 1 0-.578.349v-.013zM98.115 105.702c2.9.307 5.813.459 8.73.457 2.913.08 5.828.12 8.755.201a.336.336 0 0 0 0-.671c-2.927-.08-5.842-.121-8.756-.202-2.916.002-5.83-.15-8.73-.456-.43 0-.416.617 0 .671zM97.765 108.415c5.68-.085 11.36.125 17.016.631.43 0 .43-.631 0-.671a163.497 163.497 0 0 0-17.016-.632.336.336 0 0 0 0 .672zM99.082 111.1c2.27.27 4.566.377 6.849.511 2.283.135 4.566.296 6.863.282a.336.336 0 1 0 0-.671c-2.297 0-4.58-.148-6.863-.282-2.283-.135-4.58-.242-6.85-.51-.43 0-.43.617 0 .67zM99.055 114.15c1.705.255 3.438.402 5.157.537 1.719.134 3.478.268 5.21.282a.336.336 0 1 0 0-.672c-1.692 0-3.384-.147-5.076-.282-1.692-.134-3.411-.255-5.103-.51-.43 0-.605.577-.188.645zM99.068 117.292c-.309.793.86.86 1.343.887l2.283.16c1.518.122 3.035.256 4.566.323.43 0 .43-.645 0-.671-1.343 0-2.565-.175-3.854-.27l-2.055-.16h-1.29a.766.766 0 0 1-.174 0h-.174c.16-.403-.497-.578-.645-.188v-.08zM101.056 121.16c1.507-.01 3.013.062 4.512.215a.322.322 0 0 0 .336-.336.35.35 0 0 0-.336-.336 41.955 41.955 0 0 0-4.512-.214.336.336 0 1 0 0 .671zM102.13 123.806a23.18 23.18 0 0 1 3.344 0 .35.35 0 0 0 .336-.336.336.336 0 0 0-.336-.336 23.18 23.18 0 0 0-3.344 0c-.43 0-.443.699 0 .672zM102.439 126.102l3.532.121c.43 0 .43-.645 0-.671l-3.532-.121c-.43 0-.43.644 0 .671zM102.99 128.305l2.551.094a.35.35 0 0 0 .336-.336.336.336 0 0 0-.336-.336l-2.551-.094a.336.336 0 1 0 0 .672zM103.728 131.206l2.337.335a.35.35 0 0 0 .416-.241.35.35 0 0 0-.228-.417l-2.337-.322a.336.336 0 0 0-.188.645zM104.212 133.825l1.76.268a.35.35 0 0 0 .415-.228c0-.161 0-.39-.241-.417l-1.746-.268a.336.336 0 0 0-.188.645z" fill="#231F20"/>
        <path d="m106.562 138.955-4.66-16.465a101.276 101.276 0 0 1-3.855-17.016 110.3 110.3 0 0 1-.174-16.72c.223-5.765.797-11.51 1.719-17.204 2.538-14.37 11.348-26.793 19.85-38.33 2.403-3.263 4.848-6.486 7.413-9.616l-.954-.12a219.769 219.769 0 0 1 16.036 26.35c3.142 6.15 6.11 12.623 7.171 19.5.752 5.72 1.048 11.49.887 17.257a150.51 150.51 0 0 1-.873 16.68 82.54 82.54 0 0 1-4.808 18.319l-6.715 18.547.577-.457-28.095-1.048-4.03-.147c-.778 0-.765 1.168 0 1.208l28.096 1.048 4.03.148c.27.002.509-.18.577-.444l6.11-16.68a98.039 98.039 0 0 0 4.956-16.344c.85-5.416 1.3-10.888 1.343-16.371.215-5.701.094-11.41-.363-17.096a51.544 51.544 0 0 0-2.148-11.63 81.923 81.923 0 0 0-4.03-9.684 191.069 191.069 0 0 0-10.743-19.164c-2.23-3.573-4.513-7.132-6.944-10.57a.604.604 0 0 0-.953-.12 218.439 218.439 0 0 0-18.198 25.516c-3.626 5.977-7.037 12.275-8.608 19.151a110.515 110.515 0 0 0-2.257 16.801 147.73 147.73 0 0 0-.39 17.07 81.56 81.56 0 0 0 3.399 18.627l5.452 19.3a.61.61 0 0 0 1.182-.296z" fill="#231F20"/>
        <path d="M43.226 107.878a7.212 7.212 0 0 0-6.258 1.705 8.904 8.904 0 0 0-2.552 5.037c-.403 2.054-.188 4.512 2.001 5.64a9.992 9.992 0 0 0 4.19.725c3.25.094 6.715.135 9.401-1.343 1.048 1.478 3.331 2.096 5.372 2.592 2.377.564 5.372 1.008 7.051-.416.94-.765 1.45-2.028 2.78-2.189a4.848 4.848 0 0 1 1.518.188c3.263.631 7.144-.725 8.407-3.196 1.262-2.471-.725-5.654-4.03-6.124a10.744 10.744 0 0 1-1.691-.229c-2.042-.617-2.203-2.954-3.949-4.029-2.122-1.235-5.694-.08-7.601-1.517-.725-.538-1.007-1.343-1.598-1.961-1.68-1.827-5.372-1.773-7.83-.497a14.773 14.773 0 0 0-5.238 5.372" fill="#FFF"/>
        <path d="M42.152 107.663a7.682 7.682 0 0 0-8.569 4.593c-1.074 2.471-1.745 6.299.632 8.273 1.558 1.343 3.827 1.262 5.761 1.343a26.86 26.86 0 0 0 6.487-.403c.738-.161 2.108-.954 2.834-.712.228.08.51.484.711.631.455.326.946.596 1.464.806a21.354 21.354 0 0 0 5.668 1.464 6.97 6.97 0 0 0 4.687-.725 9.092 9.092 0 0 0 1.53-1.518c1.115-1.155 2.418-.873 3.869-.712 2.968.336 7.144-.819 8.326-3.908 1.007-2.686-1.047-5.372-3.559-6.178-1.114-.335-2.43-.16-3.438-.805a8.743 8.743 0 0 1-1.974-2.498 4.74 4.74 0 0 0-3.546-1.975c-1.034-.12-2.081-.067-3.129-.16a4.821 4.821 0 0 1-3.814-2.391 5.372 5.372 0 0 0-4.257-1.961c-4.634-.188-7.588 3.183-9.925 6.715-.148.215.201.416.336.201 1.504-2.283 3.17-4.633 5.734-5.801 2.176-.994 5.48-1.25 7.347.537.752.739 1.087 1.746 1.987 2.35.65.387 1.381.622 2.136.685 2.686.336 5.264-.228 6.997 2.31.913 1.343 1.584 2.511 3.303 2.82a8.22 8.22 0 0 1 3.64 1.102 4.593 4.593 0 0 1 2.014 3.451c.094 2.767-2.78 4.432-5.157 4.942-1.3.249-2.635.249-3.935 0a3.438 3.438 0 0 0-2.081 0c-.98.444-1.491 1.478-2.297 2.122a5.802 5.802 0 0 1-4.244.927c-2.686-.242-6.594-.967-8.38-3.183a.188.188 0 0 0-.242 0 16.828 16.828 0 0 1-7.964 1.343c-2.807 0-6.715.201-7.83-3.062a9.226 9.226 0 0 1 1.102-6.85 7.212 7.212 0 0 1 7.668-3.505c.255 0 .363-.349.108-.389v.12z" fill="#231F20"/>
        <path d="M129.138 82.012c.29-.521.35-1.14.161-1.706-.228-.322-6.017 2.135-6.38-.08 0-.229 1.64-1.747 1.465-1.908-.793-.698-3.143 1.142-3.425 1.343a1.088 1.088 0 0 0-.524.82c.002.98.161 1.956.47 2.887.348.454.88.73 1.45.752a12.087 12.087 0 0 0 6.783-2.108z" fill="#FFF"/>
        <path d="M129.581 82.267c.363-.699.725-2.686-.59-2.471-.817.147-1.624.34-2.418.577a5.761 5.761 0 0 1-2.686.202.806.806 0 0 1-.323-.162.39.39 0 0 1-.094-.107c0-.12 0 0 0 0a.39.39 0 0 1 0-.12v.254l.833-.967c.094-.107.739-.698.685-1.141-.054-.443-.739-.672-1.168-.618a6.191 6.191 0 0 0-2.834 1.343c-.513.27-.867.77-.954 1.343-.006.45.026.899.094 1.343.032.588.169 1.165.403 1.706a2.31 2.31 0 0 0 1.8 1.034 9.925 9.925 0 0 0 4.445-.739c.59-.2 1.17-.432 1.733-.698a2.686 2.686 0 0 0 1.034-.78c.349-.55-.524-1.047-.873-.51h-.094a3.357 3.357 0 0 1-.47.282c-.432.24-.88.446-1.343.618-1.099.45-2.257.735-3.438.846a2.78 2.78 0 0 1-1.652-.241c-.43-.269-.47-.78-.55-1.236-.08-.48-.124-.964-.135-1.45 0-.376.201-.551.497-.753a5.788 5.788 0 0 1 2.31-1.249h.282a4.029 4.029 0 0 1-.121-.43c-.08-.093.08 0 0 0s0 .081 0 .081l-.161.202c-.282.336-.591.644-.873.98-.294.24-.43.623-.35.994.07.36.27.681.565.9a3.64 3.64 0 0 0 2.296.255 23.704 23.704 0 0 0 2.901-.618l.537-.134h.215c.108 0 0 0 0 0s.108.094 0 0l-.228-.161c.009.071.009.143 0 .215a1.76 1.76 0 0 1-.202.94c-.241.537.618 1.047.927.47z" fill="#000"/>
        <path d="M132.092 103.553a6.38 6.38 0 0 1 4.271-.134c2.364.927-9.146 15.874-10.744 14.773-1.598-1.101-2.834-4.244-3.478-5.896-.04.04 6.191-7.48 9.951-8.743z" fill="#CCCDE4"/>
        <path d="M132.227 104.037a7.05 7.05 0 0 1 2.887-.403c.361.051.716.137 1.061.255-.02.41-.111.815-.268 1.195a22.267 22.267 0 0 1-2.592 4.486 55.99 55.99 0 0 1-3.895 4.996 13.967 13.967 0 0 1-3.277 3.075c-.188.108-.282.148-.363.135-.08-.014 0 0 .094 0s-.255-.188-.376-.296c-.3-.289-.57-.609-.805-.953a21.407 21.407 0 0 1-2.109-4.338l-.134.497c1.101-1.343 2.27-2.579 3.465-3.801 1.786-1.8 3.868-4.029 6.312-4.862.604-.215.349-1.182-.269-.967-2.525.887-4.647 3.022-6.5 4.875-1.343 1.343-2.552 2.686-3.72 4.03a.483.483 0 0 0-.12.483 24.805 24.805 0 0 0 2.08 4.445c.457.685 1.263 1.974 2.244 1.854a3.33 3.33 0 0 0 1.53-.846 19.393 19.393 0 0 0 2.002-1.934 53.008 53.008 0 0 0 4.485-5.614 22.133 22.133 0 0 0 2.995-5.251 2.135 2.135 0 0 0 0-1.786c-.309-.484-.994-.578-1.517-.659a7.736 7.736 0 0 0-3.533.39c-.564.228-.295 1.195.323.994z" fill="#000"/>
        <path d="M112.23 93.387c4.982 1.437 14.773 13.322 14.773 13.322l-4.889 7.105c-4.27-3.734-10.744-10.247-12.087-11.295-1.142-.873-15.874 9.952-23.905 1.612-1.666-1.72-6.3-8.058-3.331-15.62l9.4-.187 4.03 6.473s11.872-2.605 16.009-1.41z" fill="#FFF"/>
        <path d="M112.068 93.964c3.613 1.142 6.715 4.687 9.254 7.32 1.813 1.88 3.585 3.827 5.25 5.855l-.093-.739-4.875 7.132.94-.121c-3.532-3.102-6.863-6.433-10.288-9.67-.604-.577-1.464-1.732-2.363-1.84a4.97 4.97 0 0 0-2.23.726c-6.339 2.793-15.444 7.198-21.233.967a14.625 14.625 0 0 1-3.048-14.921l-.578.443 4.03-.08 3.061-.068a6.487 6.487 0 0 0 2.042 0c.443-.241-.336 0-.255-.268 0 .094.241.376.282.47.406.75.854 1.476 1.343 2.175l2.336 3.801a.604.604 0 0 0 .685.269 90.688 90.688 0 0 1 6.111-1.088c3.049-.457 6.621-1.115 9.656-.322a.604.604 0 0 0 .323-1.155c-3.036-.806-6.487-.229-9.536.201a92.033 92.033 0 0 0-6.876 1.209l.685.268-2.417-3.921c-.497-.806-1.142-2.606-2.136-2.847a7.803 7.803 0 0 0-1.679 0h-3.115l-4.5.147a.631.631 0 0 0-.577.444c-2.807 7.56 1.236 18.25 9.952 19.433 3.921.537 7.924-.658 11.523-2.122 1.477-.605 2.914-1.343 4.364-1.92.444-.202.9-.404 1.343-.565.444-.16.31-.188.726.229a231.906 231.906 0 0 0 11.55 10.838.604.604 0 0 0 .94-.121l4.875-7.105a.604.604 0 0 0-.094-.738 100.369 100.369 0 0 0-5.775-6.393c-2.579-2.686-5.64-5.95-9.253-7.078-.766-.241-1.088.927-.35 1.155z" fill="#231F20"/>
        <path d="m107.838 43.36-1.263 3.438a33.763 33.763 0 0 1-5.949 11.228 6.433 6.433 0 0 1-1.773 1.598 2.686 2.686 0 0 1-3.236-.685 8.837 8.837 0 0 0-.846-1.101c-.457-.39-2.606-3.76-3.398-4.956-1.773-2.686-.726-7.199.349-10.664.309-.993 3.116-3.33 3.868-3.693 7.615-3.733 12.248 4.835 12.248 4.835z" fill="#000"/>
        <path d="M99.122 63.048a2.914 2.914 0 0 1-.35-2.9c.618-1.478 2.243-2.122 3.345-3.25a9.267 9.267 0 0 0 1.692-2.807c.967-2.176 3.733-8.542 2.014-11.913-1.584-3.142-7.494-5.963-11.402 0a13.108 13.108 0 0 0-2.081 10.086c.335 1.25.967 2.377 1.343 3.6a4.795 4.795 0 0 1-.094 3.773c-.376.672-1.008 1.424-.672 2.082.128.193.298.353.497.47 1.048.698 5.708.86 5.708.86z" fill="#FFF"/>
        <path d="M99.552 62.793c-2.015-2.9 2.39-4.553 3.706-6.54a25.396 25.396 0 0 0 2.485-5.668c1.249-3.68 2.122-8.152-1.343-10.851a6.876 6.876 0 0 0-10.006 1.612 14.598 14.598 0 0 0-2.847 7.896c-.06 1.347.14 2.692.591 3.962a15.565 15.565 0 0 1 1.45 4.392 4.15 4.15 0 0 1-.738 2.43 2.43 2.43 0 0 0-.43 1.505c.148.86 1.008 1.262 1.773 1.464a22.71 22.71 0 0 0 4.97.55c.644 0 .644-.98 0-1.007a29.345 29.345 0 0 1-3.909-.35c-.752-.133-2.001-.24-1.706-1.342.224-.462.475-.91.752-1.343.211-.548.316-1.132.31-1.72 0-2.591-1.84-4.74-2.015-7.332a13.269 13.269 0 0 1 2.122-7.736 6.608 6.608 0 0 1 5.117-3.505c1.68-.024 3.299.624 4.499 1.8 2.82 2.807 1.1 7.534-.135 10.744-.349.9-.725 1.8-1.141 2.686a8.179 8.179 0 0 1-2.686 3.156c-1.827 1.343-3.371 3.451-1.8 5.708.484.537 1.357.026.98-.51z" fill="#000"/>
        <path d="M95.872 39.667a10.126 10.126 0 0 1 7.574-.121 8.139 8.139 0 0 1 3.21 2.417 2.39 2.39 0 0 1 .792 2.404 1.813 1.813 0 0 1-.537.699 4.97 4.97 0 0 1-4.338.819c-1.464-.309-2.847-.967-4.31-1.222a3.881 3.881 0 0 0-1.8 0 4.029 4.029 0 0 0-1.787 1.222c-1.343 1.544-1.007 6.312-1.57 8.34-1.733-1.343-1.424-8.42-.108-11.536l2.874-3.022z" fill="#000"/>
        <path d="M94.824 70.556c-.497 6.07 4.634 17.204 6.138 19.809.249.561.667 1.03 1.195 1.343a2.86 2.86 0 0 0 1.773 0 56.97 56.97 0 0 0 18.265-7.722 12.288 12.288 0 0 1-2.686-5.292 37.953 37.953 0 0 1-9.59 3.747c-1.342.31-2.927.457-3.787-.577a3.908 3.908 0 0 1-.644-1.907c-.605-4.164-2.042-17.03-4.862-17.795a30.889 30.889 0 0 1-6.715-2.605 2.35 2.35 0 0 0-3.062.738C89.197 62.7 86.51 66.85 86 68.971a67.257 67.257 0 0 0-.887 9.885c-.295 3.317-1.141 6.715-3.478 9.118.564 2.015 13.148 7.065 17.62 7.065l.215-7.024" fill="#D2D8FF"/>
        <path d="M94.22 70.556a27.169 27.169 0 0 0 1.96 10.3 63.954 63.954 0 0 0 3.828 8.999c.564 1.088 1.169 2.337 2.498 2.551 1.948.31 4.58-.873 6.38-1.463a58.568 58.568 0 0 0 13.617-6.447.618.618 0 0 0 .121-.953 12.517 12.517 0 0 1-2.525-5.023.604.604 0 0 0-.886-.363 34.717 34.717 0 0 1-9.67 3.734c-1.1.215-1.893.335-2.685-.524a2.767 2.767 0 0 1-.806-1.92c-.121-.806-.215-1.626-.336-2.431a60.61 60.61 0 0 0-2.417-12.007 6.245 6.245 0 0 0-1.92-3.183 11.792 11.792 0 0 0-2.888-.967c-1.639-.537-3.116-1.464-4.728-2.014-2.081-.712-3.263.779-4.297 2.337a39.538 39.538 0 0 0-3.64 6.339c-2.686 6.433.564 14.437-4.647 20.01a.577.577 0 0 0-.16.591 4.74 4.74 0 0 0 2.202 2.055 35.2 35.2 0 0 0 4.996 2.417c3.384 1.343 7.252 2.955 10.985 3.022a.618.618 0 0 0 .605-.604l.268-6.997c0-.78-1.168-.78-1.208 0l-.282 6.97.604-.604c-2.5-.191-4.955-.767-7.28-1.706a45.474 45.474 0 0 1-7.48-3.21c-.443-.255-2.014-.953-2.175-1.544-.08-.336 0 .309.107 0 .226-.325.473-.634.739-.927.534-.754.985-1.565 1.343-2.417 1.464-3.626 1.343-7.575 1.571-11.402.05-2.07.506-4.11 1.343-6.004a40.733 40.733 0 0 1 2.606-4.499c.402-.617.792-1.235 1.222-1.84 1.047-1.463 2.216-.926 3.532-.295a30.74 30.74 0 0 0 2.377 1.007c1.183.286 2.346.654 3.478 1.102 1.706.953 2.162 4.15 2.552 5.855.618 2.686 1.034 5.372 1.343 8.058.336 2.337.12 6.017 3.062 6.554 1.88.336 4.029-.537 5.815-1.128a39.672 39.672 0 0 0 6.514-2.874l-.887-.363a13.86 13.86 0 0 0 2.82 5.64l.122-.953a57.198 57.198 0 0 1-11.953 5.923 47.247 47.247 0 0 1-6.191 1.786c-1.88.376-2.539-1.464-3.21-2.82a67.889 67.889 0 0 1-3.425-8.394 25.034 25.034 0 0 1-1.705-9.374c0-.78-1.169-.78-1.21 0zM138.35 188.471a223.287 223.287 0 0 0 5.373 47.677c.094.416.752.241.658-.175a221.676 221.676 0 0 1-5.372-47.502.336.336 0 1 0-.672 0h.014zM146.92 175.31a172.105 172.105 0 0 0 7.856 30.526c.147.416.792.242.644-.174a170.776 170.776 0 0 1-7.843-30.54c-.08-.417-.725-.242-.658.188zM113.143 198.423a71.179 71.179 0 0 0-2.337 19.621.336.336 0 1 0 .671 0 70.722 70.722 0 0 1 2.257-19.433.336.336 0 1 0-.645-.188h.054zM99.86 171.026l-15.457 50.926a.336.336 0 0 0 .644.175l15.458-50.846a.336.336 0 0 0-.645-.188v-.067z" fill="#231F20"/>
    </g>
</svg>
