<svg width="300" height="300" viewBox="0 0 300 300" xmlns="http://www.w3.org/2000/svg">
    <g fill-rule="nonzero" fill="none">
        <path d="M149.058 37.691c-20.679 3.039-37.282 3.773-56.578 12.514-19.296 8.74-29.333 33.653-41.904 52.027-21.787 31.81-23.803 77.76-4.838 110.578 3.916 6.782 8.798 13.176 15.336 16.862 5.76 3.254 12.384 4.205 18.72 5.947 10.08 2.78 19.67 7.647 29.448 11.664a188.64 188.64 0 0 0 99.172 12.053c12.47-1.858 25.676-5.472 34.287-15.624 5.285-6.22 8.28-14.27 10.987-22.162 10.224-29.85 18.173-61.92 13.032-92.85-1.18-7.114-3.125-14.228-7.056-19.988-3.14-4.622-7.416-8.15-11.232-12.125-11.995-12.441-19.498-29.189-30.758-42.408-11.261-13.219-68.616-16.488-68.616-16.488z" opacity=".1" fill="#7582FF"/>
        <path d="M66.92 182.742a90.878 90.878 0 0 0-24.667 8.914c-3.384 1.814-6.941 4.32-7.503 7.776-.604 3.802 2.607 7.2 6.077 9.36 12.442 7.747 30.053 6.768 41.875 15.235 6.092 4.32 10.21 11.002 17.208 14.112 6.466 2.88 14.228 2.189 21.27.533 7.04-1.656 13.866-4.205 21.08-4.91 16.647-1.613 32.458 6.753 49.162 7.2 14.4.36 28.253-5.228 40.91-11.607 6.538-3.312 13.162-7.056 17.166-12.773 4.003-5.716 4.579-13.91-.62-18.72-4.478-4.09-11.52-4.507-17.856-5.414-26.41-3.758-49.204-19.93-75.844-22.22-12.528-1.08-25.143 1.009-37.556 3.097-10.972 1.915-50.702 9.417-50.702 9.417z" fill="#D2D8FF"/>
        <path d="M125.96 153.64c5.414-1.44 19.829-5.371 21.686-5.328 2.434 0 80.957 36.216 116.41 55.742-32.515 17.439-94.118 41.472-96.22 41.386-1.83-.086-97.92-63.029-113.055-73.195 0-.058 61.905-16.143 71.179-18.605z" fill="#FFF"/>
        <path d="M123.973 154.202c5.342-1.44 10.685-2.88 16.07-4.19 2.261-.548 4.493-1.44 6.437-.778 5.76 2.145 11.42 4.867 17.035 7.416a2038.457 2038.457 0 0 1 64.325 30.499c11.333 5.616 22.637 11.304 33.725 17.41v-1.124c-20.506 10.987-42.063 20.16-63.576 28.944-8.237 3.37-16.503 6.696-24.84 9.792-2.146.807-4.32 1.642-6.495 2.304l-.72.202c-.273.086-.36 0-.1.072l-.59-.288c-3.428-1.872-6.682-4.061-9.98-6.149a1703.953 1703.953 0 0 1-18.403-11.794 7343.765 7343.765 0 0 1-46.757-30.427c-11.722-7.675-23.443-15.336-35.107-23.04l-2.045-1.353-.144 1.18 21.398-5.572 37.152-9.692c4.205-1.108 8.41-2.203 12.615-3.34a.648.648 0 0 0-.346-1.239c-9.317 2.52-18.72 4.925-28.022 7.359l-35.309 9.086-7.834 2.03a.648.648 0 0 0-.158 1.181c10.627 7.2 21.355 14.127 32.054 21.14 15.83 10.367 31.67 20.697 47.52 30.988 10.484 6.783 20.88 13.795 31.68 20.16a5.76 5.76 0 0 0 2.132 1.051 11.851 11.851 0 0 0 3.916-1.18c7.373-2.607 14.63-5.53 21.888-8.439 21.6-8.64 43.2-17.841 64.023-28.368a317.816 317.816 0 0 0 6.71-3.485.662.662 0 0 0 0-1.123c-21.24-11.678-43.2-22.176-65.059-32.558a2058.632 2058.632 0 0 0-30.989-14.4c-6.134-2.794-12.254-5.66-18.518-8.136-.61-.29-1.247-.52-1.901-.691a11.146 11.146 0 0 0-3.989.604c-6.12 1.44-12.153 3.068-18.201 4.71a.651.651 0 1 0 .403 1.238z" fill="#231F20"/>
        <path d="M166.107 185.162a25.128 25.128 0 0 0-10.08 11.29c-.547 1.238-2.16 4.16-.864 5.37 1.296 1.21 5.27.101 6.826-.49a37.613 37.613 0 0 0 7.2-4.103c2.62-1.728 5.27-3.384 8.02-4.896a69.725 69.725 0 0 1 17.64-7.013 25.69 25.69 0 0 1 4.652-.864c1.137 0 2.203 0 2.707 1.21a2.65 2.65 0 0 1-.792 2.966c-2.06 2.203-5.486 3.542-8.122 4.896-5.601 2.88-11.419 5.472-16.459 9.288a27.202 27.202 0 0 0-9.475 11.693c-.59 1.584-.98 3.917.792 4.91 1.771.994 4.997-.389 6.84-1.037 6.192-2.16 11.923-5.486 18.115-7.646a29.074 29.074 0 0 1 9.562-1.93c2.664 0 6.35.792 7.041 3.802.188.82 1.44.475 1.253-.331-.907-3.946-5.76-4.94-9.216-4.752-5.313.317-10.382 2.333-15.177 4.478-2.65 1.181-5.242 2.434-7.906 3.571-1.44.59-2.88 1.167-4.32 1.656a12.326 12.326 0 0 1-4.406 1.196 1.973 1.973 0 0 1-1.656-2.621c.169-.618.39-1.22.662-1.8a21.5 21.5 0 0 1 2.03-3.543 29.808 29.808 0 0 1 5.948-6.09c4.968-3.932 10.8-6.567 16.416-9.433a56.549 56.549 0 0 0 7.833-4.406 4.982 4.982 0 0 0 2.491-4.81c-.417-2.001-2.318-2.693-4.176-2.563a37.9 37.9 0 0 0-8.366 1.814 76.464 76.464 0 0 0-15.97 7.085c-2.88 1.656-5.616 3.5-8.41 5.285a34.07 34.07 0 0 1-4.233 2.405c-1.44.648-4.176 1.843-5.76 1.325-2.174-.72 1.771-6.855 2.693-8.108a24.595 24.595 0 0 1 7.2-6.624c.72-.432 0-1.555-.648-1.108l.115-.072zM67.395 175.614a4.32 4.32 0 0 1 .547-2.174c.144-.23-.23-.446-.374-.216a4.651 4.651 0 0 0-.605 2.39c0 .288.447.288.432 0zM69.21 177.918a29.347 29.347 0 0 1 1.44-6.854c.1-.26-.317-.374-.404-.115a28.9 28.9 0 0 0-1.44 6.97c0 .287.404.287.432 0h-.028zM73.342 181.403a43.531 43.531 0 0 1 3.298-13.363c.1-.26-.317-.374-.418-.115a44.165 44.165 0 0 0-3.283 13.435c0 .274.418.274.432 0l-.029.043zM80.038 184.874a86.645 86.645 0 0 1 3.14-18.274.217.217 0 0 0-.418-.115 86.803 86.803 0 0 0-3.154 18.417c0 .274.418.274.432 0v-.028zM88.318 189.64a139.594 139.594 0 0 1 2.88-23.702c0-.274-.36-.39-.417-.116a140.962 140.962 0 0 0-2.88 23.818c0 .274.417.274.432 0h-.015zM95.36 183.707c.528-6.086.893-12.187 1.094-18.302a.216.216 0 0 0-.432 0 343.387 343.387 0 0 1-1.094 18.302c0 .274.403.274.432 0zM101.71 193.355c-.067-5.53.077-11.059.432-16.589 0-.273-.417-.273-.432 0-.355 5.53-.499 11.06-.432 16.59 0 .273.447.273.432 0zM113.994 179.286c0-3.614.13-7.2.316-10.814 0-.274-.417-.274-.432 0-.187 3.6-.302 7.2-.316 10.814a.216.216 0 0 0 .432 0zM121.755 194.507l.504-30.067a.216.216 0 0 0-.432 0l-.547 30.067a.216.216 0 1 0 .432 0h.043zM215.787 206.66c0-3.023.144-6.042.432-9.057 0-.273-.417-.273-.432 0-.259 3.015-.403 6.034-.432 9.058a.216.216 0 0 0 .432 0zM222.742 216.294c0-6.72.068-13.468.202-20.246 0-.274-.418-.274-.432 0a709.68 709.68 0 0 0-.202 20.246.216.216 0 1 0 .432 0zM231.843 206.46a31.867 31.867 0 0 1 .418-8.44c0-.273-.375-.388-.418-.114a32.155 32.155 0 0 0-.432 8.553c0 .274.461.288.432 0zM239.36 207.05l-.46-5.012c0-.273-.447-.273-.433 0l.461 5.012c0 .273.446.273.432 0z" fill="#231F20"/>
        <path d="M210.186 79.494c2.88 2.448 13.708 7.07 15.638 7.892.173 0 5.76-9.965 5.76-9.965-.95-1.887-11.002-8.755-14.486-9.95-2.218-.72-7.128 11.836-6.912 12.023z" fill="#FFF"/>
        <path d="M168.8 165.03s25.56-57.988 36.274-80.51a45.706 45.706 0 0 0 14.89 5.76c-10.83 21.931-40.234 83.203-40.234 83.203l-10.93-8.453z" fill="#D2D8FF"/>
        <path d="M166.222 186.918c-2.793-12.787 3.845-25.92 9.144-37.18l19.599-41.372 11.016-23.27-1.44.389a58.738 58.738 0 0 0 16.992 6.725l-.648-1.584a33685.465 33685.465 0 0 0-26.05 52.819c-6.725 13.608-12.83 28.526-24.48 38.88a23.789 23.789 0 0 1-5.76 4.017c-1.267.562-.173 2.434 1.08 1.858 1.708-.85 3.3-1.914 4.738-3.168a59.04 59.04 0 0 0 10.915-12.053c5.328-7.545 9.144-15.984 13.234-24.22 4.435-8.948 8.86-17.91 13.276-26.885 4.944-10.023 9.888-20.055 14.832-30.096a1.094 1.094 0 0 0-.648-1.584 56.304 56.304 0 0 1-16.473-6.51 1.094 1.094 0 0 0-1.44.39l-20.16 42.667-10.253 21.6a138.73 138.73 0 0 0-7.776 18.432c-2.016 6.638-3.283 13.838-1.786 20.721.346 1.354 2.39.778 2.088-.576zM206.6 82.792a28.066 28.066 0 0 0 7.474 3.773c2.548 1.022 5.14 1.944 7.747 2.88.835.273 1.44.259 1.93-.547.401-.681.766-1.383 1.094-2.103 1.137-2.246 2.232-4.507 3.34-6.768l1.124-2.318a1.598 1.598 0 0 0-.087-1.858 11.275 11.275 0 0 0-2.476-2.275 44.41 44.41 0 0 0-3.744-2.592 35.712 35.712 0 0 0-7.719-4.003c-1.93-.62-2.98.979-3.859 2.477a52.3 52.3 0 0 0-3.586 7.862 67.66 67.66 0 0 0-1.18 3.254 2.65 2.65 0 0 0-.216 2.06c.633 1.224 2.49.144 1.857-1.095.093.203.137.425.13.648v-.273c0-.072.187-.59.288-.893.288-.893.619-1.786.965-2.679a64.008 64.008 0 0 1 2.88-6.537c.407-.82.89-1.601 1.44-2.333.102-.14.213-.275.33-.403.174-.159.174-.13.174-.144 0-.015 0-.101-.159 0-.158.1-.302-.159 0 0 .303.158.317.086.418.13a33.235 33.235 0 0 1 6.984 3.643c1.339.835 2.664 1.713 3.917 2.678a7.66 7.66 0 0 1 2.016 1.944v-1.094c-1.44 3.11-3.01 6.22-4.565 9.316a53.211 53.211 0 0 1-1.037 2.016s-.245.346-.23.418c-.087-.518 1.44-.144.921-.518a1.958 1.958 0 0 0-.576-.202 140.37 140.37 0 0 1-6.768-2.448 27.173 27.173 0 0 1-7.2-3.5c-1.166-.92-2.693.591-1.627 1.484z" fill="#231F20"/>
        <path d="M172.414 168.3c10.383-21.14 21.082-42.135 30.83-63.62a640.897 640.897 0 0 0 7.532-17.28c.317-.778-.936-1.109-1.238-.346-8.957 21.6-19.44 42.567-29.808 63.504-2.88 5.76-5.645 11.362-8.424 17.064-.375.735.748 1.44 1.108.648v.03zM176.648 171.827c9.749-21.888 21.6-42.739 32.371-64.152 2.88-5.76 5.76-11.606 8.338-17.51.331-.763-.778-1.44-1.123-.663-9.75 21.888-21.6 42.754-32.372 64.167-2.88 5.76-5.76 11.606-8.337 17.51-.346.749.777 1.44 1.123.648z" fill="#231F20"/>
        <path d="M168.469 165.592a30.154 30.154 0 0 1 10.8 8.338c.533.648 1.44-.274.921-.922a31.06 31.06 0 0 0-11.073-8.54c-.749-.345-1.44.778-.648 1.124zM204.094 88.682l2.03 1.584a.245.245 0 0 0 .318 0 .216.216 0 0 0 0-.303l-2.045-1.598a.216.216 0 0 0-.303 0 .216.216 0 0 0 0 .317zM202.813 90.18a24.48 24.48 0 0 0 5.155 5.457c.216.173.533-.13.302-.303a24.394 24.394 0 0 1-5.083-5.385c-.158-.216-.533 0-.374.23zM200.48 92.973l7.646 9.144c.173.216.49-.087.303-.303l-7.647-9.144c-.187-.216-.49.101-.302.303zM197.816 98.56a55.829 55.829 0 0 0 7.949 9.23c.201.188.518-.115.302-.316a54.72 54.72 0 0 1-7.877-9.13c-.158-.23-.532 0-.374.216zM195.166 103.01a123.48 123.48 0 0 1 8.28 9.69c.159.217.533 0 .36-.215a122.256 122.256 0 0 0-8.323-9.778.219.219 0 1 0-.317.303zM192.79 108.496a188.56 188.56 0 0 0 6.336 6.811c.188.202.504-.1.303-.302a194.41 194.41 0 0 1-6.336-6.826c-.187-.201-.49.101-.303.317zM191.134 112.24a54.36 54.36 0 0 1 7.618 7.718c.173.216.475-.086.302-.302a53.611 53.611 0 0 0-7.617-7.776c-.216-.173-.519.13-.303.302v.058zM188.442 118.922a55.28 55.28 0 0 0 3.83 3.528c.202.187.518-.116.302-.303a63.492 63.492 0 0 1-3.83-3.528c-.187-.201-.504.101-.302.303zM187.117 122.608a15.408 15.408 0 0 0 2.88 3.485c.216.187.518-.13.317-.303a15.034 15.034 0 0 1-2.88-3.398.216.216 0 1 0-.375.216h.058zM185.029 127.475l2.664 1.239a.23.23 0 0 0 .302 0 .216.216 0 0 0-.086-.303l-2.664-1.238a.23.23 0 0 0-.303.072.23.23 0 0 0 .087.302v-.072z" fill="#231F20"/>
        <path d="M205.765 123.242a2.88 2.88 0 0 0 1.224-2.679c-.216-1.584-1.743-2.635-2.563-4.017a8.64 8.64 0 0 1-.965-3.125c-.36-2.347-1.44-9.173 1.44-11.923s9.705-3.687 12.053 3.038a11.822 11.822 0 0 1-.807 10.195c-.72 1.109-1.713 2.002-2.505 3.067a4.435 4.435 0 0 0-1.037 3.658c.187.734.633 1.627 0 2.16a1.54 1.54 0 0 1-.648.331c-1.239.389-6.192-.705-6.192-.705z" fill="#FFF"/>
        <path d="M206.038 123.702a3.571 3.571 0 0 0 .461-5.37c-.9-.954-1.622-2.061-2.131-3.27-.25-.92-.428-1.86-.533-2.808-.46-3.37-1.123-8.74 2.131-10.958a6.898 6.898 0 0 1 9.288 1.18 11.52 11.52 0 0 1 1.858 7.647 9.547 9.547 0 0 1-1.18 3.888 38.318 38.318 0 0 1-2.794 3.514 5.17 5.17 0 0 0-1.152 3.73c.1.69.85 1.77-.13 2.174a2.78 2.78 0 0 1-1.037 0 27 27 0 0 1-4.91-.763c-.677-.144-.965.892-.288 1.05a38.88 38.88 0 0 0 4.637.764 4.392 4.392 0 0 0 2.361-.245c1.051-.533.864-1.584.605-2.534-.562-2.016.648-3.5 1.915-4.925a12.053 12.053 0 0 0 2.319-3.456 12.96 12.96 0 0 0 .158-8.424 7.992 7.992 0 0 0-13.205-3.7 8.842 8.842 0 0 0-1.944 5.76c-.08 2.227.08 4.458.475 6.652a8.712 8.712 0 0 0 1.772 4.32c1.137 1.44 2.88 3.384.777 4.91-.547.346-.014 1.282.547.864z" fill="#000"/>
        <path d="m201.66 101.9.52 4.983c.863 3.759 3.268 6.941 5.6 10.08.411.638.95 1.183 1.585 1.599a2.88 2.88 0 0 0 3.34-.317 8.64 8.64 0 0 1 1.009-.907 8.064 8.064 0 0 1 1.699-.533 4.709 4.709 0 0 0 2.534-2.88 18.086 18.086 0 0 0 .202-9.72 7.502 7.502 0 0 0-.907-2.664 4.94 4.94 0 0 0-1.8-1.642c-7.157-4.205-13.781 2.002-13.781 2.002z" fill="#000"/>
        <path d="M227.97 197.229c.19.364.317.759.374 1.166.72.461 4.45 1.239 5.76 2.88a1.7 1.7 0 0 1 0 2.232c-.346.432-10.282.62-11.808.519a1.526 1.526 0 0 1-.965-.317 1.584 1.584 0 0 1-.389-.879c-.374-1.756-.676-3.859.576-5.155a4.522 4.522 0 0 1 2.088-1.109 11.52 11.52 0 0 1 4.364.663z" fill="#FFF"/>
        <path d="M227.408 197.56c.274.432.158 1.08.605 1.44.38.213.787.378 1.21.49 1.197.35 2.351.833 3.441 1.44.533.33 1.21.806 1.21 1.44a1.57 1.57 0 0 1-.101.432c0 .158-.101.23 0 .158.1-.072 0 0-.144 0a18.72 18.72 0 0 1-2.117.187c-2.218.13-4.45.187-6.682.202h-2.246a2.707 2.707 0 0 1-.49 0c-.475-.13-.475-.648-.561-1.066a8.971 8.971 0 0 1-.216-2.39 2.88 2.88 0 0 1 3.125-2.707c.652.039 1.302.12 1.944.244.288 0 .576.116.864.202.288.086.417.202.302.072.576.59 1.44-.317.907-.922-.35-.27-.77-.44-1.21-.49a15.682 15.682 0 0 0-2.001-.33 4.738 4.738 0 0 0-3.989 1.108 5.27 5.27 0 0 0-1.08 4.968c.13.821.23 1.887 1.037 2.362a3.37 3.37 0 0 0 1.555.288c2.304 0 4.608 0 6.898-.115 1.109 0 2.232-.087 3.34-.187.807-.087 1.513-.087 1.93-.893.965-1.872-.777-3.355-2.29-4.104a19.21 19.21 0 0 0-2.39-.95 9.62 9.62 0 0 1-1.555-.591l.302.389a3.442 3.442 0 0 0-.446-1.325c-.49-.706-1.613-.072-1.152.648z" fill="#000"/>
        <path d="M198.622 195.256a3.5 3.5 0 0 0-.374 1.166c-.72.447-4.45 1.224-5.76 2.88a1.742 1.742 0 0 0 0 2.247c.36.432 10.296.605 11.822.504.346.006.685-.1.965-.303.212-.248.347-.554.389-.878.374-1.771.662-3.86-.576-5.17a4.709 4.709 0 0 0-2.102-1.108 11.405 11.405 0 0 0-4.364.662z" fill="#FFF"/>
        <path d="M198.06 194.925c-.229.41-.38.86-.446 1.325l.303-.39a8.453 8.453 0 0 1-1.282.49c-.691.23-1.44.476-2.059.778-1.325.562-3.01 1.44-3.14 3.082a2.102 2.102 0 0 0 .764 1.9c.246.111.509.18.778.202a30.24 30.24 0 0 0 3.024.23c2.433.116 4.867.173 7.286.159 1.152 0 2.462 0 2.88-1.31a7.46 7.46 0 0 0 0-5.271 4.32 4.32 0 0 0-4.248-2.16c-.774.06-1.544.17-2.304.331a2.88 2.88 0 0 0-1.44.547.648.648 0 0 0 .922.908c-.159.158 0 0 0 0l.259-.087.691-.173c.605-.115 1.21-.216 1.829-.273a3.11 3.11 0 0 1 3.24 1.555c.274.735.359 1.528.245 2.304 0 .59-.101 2.102-.75 2.275a8.093 8.093 0 0 1-2.044 0c-2.218 0-4.42 0-6.624-.158-.864 0-1.728-.087-2.578-.187a1.958 1.958 0 0 1-.547-.116c.288.144 0-.1 0-.33a1.267 1.267 0 0 1 .49-1.182 9.98 9.98 0 0 1 3.758-1.843 8.64 8.64 0 0 0 1.44-.547c.562-.317.403-.965.72-1.44.317-.475-.72-1.325-1.166-.62z" fill="#000"/>
        <path d="M200.48 149.032c.23 11.376-2.42 43.2-2.146 44.87.048.464.228.904.519 1.268.402.36.904.59 1.44.662 1.968.24 3.96.207 5.918-.1a1.44 1.44 0 0 0 .62-.894c.388-1.195 3.758-23.688 4.55-34.56 3.269 10.944 8.438 36.36 9.173 36.95.734.591 5.198.606 6.134.692.396.074.805.018 1.166-.158.366-.31.586-.76.605-1.239.634-3.73-8.395-35.77-9.086-47.937-5.141-.936-18.893.446-18.893.446z" fill="#D2D8FF"/>
        <path d="M199.86 149.032c.246 13.306-1.194 26.654-1.958 39.931a37.44 37.44 0 0 0-.201 4.752c.259 3.384 4.32 3.024 6.854 2.88 1.095 0 2.175 0 2.765-1.065a5.371 5.371 0 0 0 .446-1.728c.476-2.621.85-5.27 1.239-7.92 1.238-8.482 2.448-17.007 3.096-25.546l-1.267.173c2.217 7.502 3.873 15.163 5.63 22.795.778 3.384 1.54 6.782 2.376 10.166.274 1.124.432 3.413 1.325 4.32.893.908 2.88.648 3.816.72.936.072 3.24.548 4.32-.1 1.555-.965.864-3.744.633-5.184-1.108-6.783-2.88-13.493-4.32-20.16-1.8-7.978-3.93-16.157-4.435-24.35a.662.662 0 0 0-.475-.634c-6.178-1.066-12.96-.23-19.109.388-.82.087-.835 1.44 0 1.296 2.42-.244 4.867-.417 7.301-.561a51.696 51.696 0 0 1 11.52.13l-.475-.62a129.197 129.197 0 0 0 3.139 18.907c1.526 7.013 3.211 13.997 4.694 21.024a54.274 54.274 0 0 1 1.167 6.61c.043.306.043.616 0 .922-.173.835-.677 1.05-1.44 1.108a26.309 26.309 0 0 1-4.752-.36c-.778-.072-.648-.1-.893-.95s-.49-1.814-.72-2.722c-.749-3.081-1.44-6.163-2.16-9.259-1.843-7.963-3.557-15.998-5.89-23.846a.648.648 0 0 0-1.267.173c-.533 7.2-1.44 14.27-2.505 21.37a474.881 474.881 0 0 1-1.354 9.129c-.144.95-.13 3.787-1.08 4.32a5.76 5.76 0 0 1-2.117.158c-.82.05-1.642.05-2.462 0-1.44-.13-2.261-.806-2.29-2.016 0-1.67.144-3.384.245-5.054.374-6.264.806-12.528 1.166-18.807.404-6.782.864-13.608.75-20.404a.655.655 0 0 0-1.311.014z" fill="#231F20"/>
        <path d="M172.89 145.98c-.13.23.374.95.921.892 1.051-.1 3.874-1.109 4.32-1.094.457-.005.864.286 1.008.72a19.44 19.44 0 0 1-.921 2.376c0 .115.259 1.123.95.388.302-.302 2.246-3.326 2.52-3.816.265-.359.447-.772.533-1.21a2.016 2.016 0 0 0-.375-1.122 12.557 12.557 0 0 0-.936-1.354.792.792 0 0 0-.374-.317.835.835 0 0 0-.46 0c-.548.216-6.61 3.427-7.186 4.536z" fill="#FFF"/>
        <path d="M172.357 145.835a1.44 1.44 0 0 0 .864 1.44 2.52 2.52 0 0 0 1.656 0l1.785-.504a8.18 8.18 0 0 1 1.44-.389h.087c.14.024.27.09.374.188 0 0 0-.087 0 0-.028.13-.071.255-.13.374-.143.317-.287.62-.417.936a2.88 2.88 0 0 0-.346.994c-.003.495.292.945.75 1.137a1.238 1.238 0 0 0 1.31-.619c.604-.792 1.137-1.656 1.67-2.491.533-.835 1.526-2.016 1.31-3.11a6.091 6.091 0 0 0-1.324-2.29 1.253 1.253 0 0 0-1.613-.49c-.675.297-1.333.628-1.973.994a50.178 50.178 0 0 0-3.283 1.93 5.976 5.976 0 0 0-2.117 1.756c-.331.605.59 1.152.936.547 0-.144 0 0 .115-.172l.331-.303c.292-.241.6-.463.922-.662.806-.547 1.642-1.037 2.491-1.527.85-.49 1.527-.85 2.304-1.252l.677-.317c.115 0-.086 0 0 0h.202c.187 0 .532.705.648.864.222.307.415.635.576.979.118.36.048.755-.188 1.051l-.547.907a87.854 87.854 0 0 1-1.584 2.434c-.1.144-.201.302-.317.446l-.115.173c0 .087 0 0 0 0s-.1.087-.1.115c0 .03 0-.158 0 0 0 .159.143-.144 0 0-.145.144 0-.259 0 0 0 .26 0 0 0 0s0-.201.115-.288c.36-.921 1.267-2.088.273-2.88-.993-.792-2.03-.187-2.98.087-.577.173-1.138.331-1.714.475-.223.08-.455.13-.691.144a.374.374 0 0 1-.26-.1l-.086-.102c-.115-.086 0-.187 0 0 .202-.864-.835-1.137-1.051-.475z" fill="#000"/>
        <path d="M227.336 85.874a2.42 2.42 0 0 0-1.8-.75c-.418.13.274 7.2-2.246 6.87-.26 0-1.34-2.376-1.556-2.232-1.036.619.159 3.772.26 4.147.088.375.35.685.705.835 1.062.334 2.17.494 3.283.475a2.146 2.146 0 0 0 1.296-1.325c1.066-2.404.562-7.488.058-8.02z" fill="#FFF"/>
        <path d="M227.71 85.485c-.619-.605-2.548-1.627-2.808-.202-.144.879-.1 1.815-.172 2.707a7.2 7.2 0 0 1-.648 3.01 2.42 2.42 0 0 1-.26.331c-.144.115-.216.087-.33.13h-.13l.23.1-.13-.187-.46-.777c-.216-.389-.476-1.008-.893-1.239-.418-.23-1.037.288-1.195.778a6.25 6.25 0 0 0 .475 3.571c.122.583.462 1.098.95 1.44a5.76 5.76 0 0 0 1.613.447c.676.179 1.378.237 2.074.172a2.578 2.578 0 0 0 1.814-1.641c.594-1.6.82-3.312.662-5.011a15.422 15.422 0 0 0-.23-2.29 2.794 2.794 0 0 0-.49-1.34c-.446-.532-1.21.231-.763.764-.1-.115 0 0 0 0v.13c0 .028.101.388.144.59.098.547.16 1.1.187 1.656.114 1.349.031 2.707-.244 4.032a3.125 3.125 0 0 1-.864 1.771c-.461.375-1.138.216-1.67.13a8.424 8.424 0 0 1-1.585-.36c-.403-.144-.475-.562-.59-.922a31.09 31.09 0 0 1-.418-1.44 6.494 6.494 0 0 1-.1-.763v-.72s0-.158.071-.13c.072.03-.547 0-.518 0 .029 0 0 .072 0 0s.274.432.346.562c.259.418.475.864.763 1.267a1.31 1.31 0 0 0 2.045 0 4.55 4.55 0 0 0 .964-2.405c.149-1.074.24-2.156.274-3.24V85.37s-.086.159-.1.173c-.015.015-.202 0 0 .144.383.13.74.331 1.05.59.677.462 1.44-.316.936-.791z" fill="#000"/>
        <path d="M201.66 131.666c-.143 2.88-2.476 15.84-1.44 18.518 6.754-.115 12.831 0 19.585-.158 1.958 0 2.549-16.128 3.139-21.701.26-2.448 1.642-4.018 5.054-11.319 2.88-6.336-1.584-19.9-1.93-21.326a10.642 10.642 0 0 1-5.442-1.195c-1.44 2.664 3.355 14.53.576 18.82-3.615 5.602-3.024 6.02-7.2 9-2.045 1.44-10.08-1.785-13.22 0-8.64 4.983-20.692 19.412-20.88 19.397-1.57-.158 3.514 2.88 3.514 2.88s18.317-14.601 18.245-12.916z" fill="#FFF"/>
        <path d="M201.114 131.666c-.188 3.196-.807 6.364-1.181 9.532-.317 2.765-1.152 6.408-.23 9.13a.576.576 0 0 0 .532.403c4.32 0 8.741 0 13.119-.1h2.966c1.144.122 2.298.122 3.442 0 .39-.072.734-.301.95-.634a11.174 11.174 0 0 0 1.195-4.637c.36-2.477.576-4.968.778-7.46.331-4.074 0-8.783 1.757-12.542 1.296-2.692 2.779-5.299 3.974-8.02a15.682 15.682 0 0 0 1.051-6.956c-.201-5.097-1.685-9.892-2.88-14.788a.562.562 0 0 0-.533-.39 9.158 9.158 0 0 1-5.17-1.122.547.547 0 0 0-.748.187c-.878 1.857-.13 4.406.216 6.307a41.918 41.918 0 0 1 1.152 9.547c-.173 2.967-2.362 5.76-4.018 8.208-.679.984-1.51 1.854-2.462 2.578a4.824 4.824 0 0 1-4.176 1.224c-2.88-.288-5.846-1.224-8.726-.749-2.88.475-5.242 2.88-7.287 4.622a134.093 134.093 0 0 0-13.536 13.45 15.955 15.955 0 0 1-1.627 1.786c-.331.259.13-.274-.187 0-.317.273-.418.201-.447.576-.115 1.252 3.197 2.721 4.076 3.254a.59.59 0 0 0 .662-.086 435.626 435.626 0 0 1 8.194-6.38c1.944-1.44 3.888-2.88 5.89-4.32.748-.532 1.44-1.05 2.274-1.526.318-.139.622-.308.908-.504.072 0 .288-.072.316-.144h.087c.259 0 .144-.173-.36-.418 0 .692 1.137.692 1.08 0-.101-1.44-2.03-.158-2.578.173-2.203 1.34-4.32 2.88-6.35 4.464a391.39 391.39 0 0 0-10.224 7.906l.648-.087c-.663-.388-1.31-.806-1.959-1.224-.345-.23-.907-.835-1.296-.936l-.086-.158c-.216-.288-.331-.144-.374.432a.662.662 0 0 0 .288 0c.273 0 .604-.605.763-.778l1.886-2.246a122.4 122.4 0 0 1 13.464-13.162c1.23-1.038 2.525-2 3.874-2.88a6.754 6.754 0 0 1 4.32-.964c2.721.172 5.616 1.21 8.337.85 1.93-.246 3.86-2.19 5.012-3.673.729-1 1.397-2.044 2.001-3.125a20.851 20.851 0 0 0 2.29-4.003c.907-2.779.259-6.019-.216-8.813-.288-1.627-.62-3.24-.864-4.881a7.589 7.589 0 0 1 0-3.931l-.735.187a10.08 10.08 0 0 0 5.76 1.281l-.518-.403a92.03 92.03 0 0 1 2.65 11.808 20.42 20.42 0 0 1-.23 7.877 47.376 47.376 0 0 1-3.846 8.107 15.48 15.48 0 0 0-1.684 4.205c-.303 1.742-.346 3.557-.476 5.314a97.69 97.69 0 0 1-1.526 14.4c-.115.547-.23 1.627-.691 2.03-.461.403-1.901.086-2.405.086h-3.384c-4.594 0-9.187 0-13.78.101l.518.389a10.627 10.627 0 0 1-.202-3.931c.1-1.786.302-3.557.518-5.328.36-3.024.95-6.063 1.124-9.115.043-.692-1.037-.692-1.08 0z" fill="#000"/>
    </g>
</svg>
