<svg xmlns="http://www.w3.org/2000/svg" width="173" height="173" viewBox="0 0 173 173">
    <g fill="none" fill-rule="evenodd">
        <g fill-rule="nonzero">
            <g>
                <g>
                    <g>
                        <g>
                            <g fill="#7582FF" opacity=".1">
                                <path d="M67.163.179C5.29 12.012 3.222 45.502 1.154 51.572c-2.582 7.64 1.296 15.695 2.491 23.617 1.196 7.922-.24 16.441 2.492 24.173 1.943 5.58 5.912 10.313 10.097 14.714 4.983 5.257 10.513 10.264 17.28 13.42 9.135 4.268 19.814 4.8 30.095 4.832 7.706 0 15.512-.19 22.902-2.184 13.602-3.662 24.439-12.896 34.835-21.731 6.187-5.265 12.456-10.555 17.123-17.023 4.667-6.47 7.54-14.325 6.178-21.964-1.004-5.622-4.201-10.688-6.161-16.102-3.255-9.018-3.048-19.008-7.474-27.619-4.268-8.379-12.373-14.474-20.22-20.27-2.466-1.802-43.63-5.256-43.63-5.256z" transform="translate(-633.000000, -313.000000) translate(326.000000, 154.000000) translate(307.000000, 159.000000) translate(0.000000, 0.000000) translate(13.840000, 20.760000)"/>
                            </g>
                            <path fill="#D2D8FF" d="M60.162 118.81c-9.928.366-19.714 2.482-28.906 6.252 3.554 1.661 7.474 2.3 11.302 2.815 19.108 2.586 38.455 2.904 57.638.947.659-.018 1.304-.188 1.885-.498.605-.356.921-1.054.789-1.744-.158-.565.515-3.612.041-3.903-10.056-6.253-42.749-3.87-42.749-3.87z" transform="translate(-633.000000, -313.000000) translate(326.000000, 154.000000) translate(307.000000, 159.000000) translate(0.000000, 0.000000) translate(13.840000, 20.760000)"/>
                            <path fill="#FFF" d="M121.57 66.453c-.191 2.487-.213 4.984-.066 7.473-.005.068.012.135.05.191.057.06.134.095.216.1l.664.125c.06.02.124.02.183 0 .052-.044.085-.107.091-.175.391-1.731.548-3.508.465-5.281-.108-.805-.108-1.62 0-2.425-.392-.25-.859-.356-1.32-.299" transform="translate(-633.000000, -313.000000) translate(326.000000, 154.000000) translate(307.000000, 159.000000) translate(0.000000, 0.000000) translate(13.840000, 20.760000)"/>
                            <path fill="#000" d="M121.238 66.453c-.116 1.586-.174 3.18-.157 4.775 0 .797.025 1.594.074 2.391 0 .3 0 .64.258.83.276.15.583.236.897.25.772.132.83-.507.938-1.121.144-.75.246-1.507.307-2.267.046-.783.046-1.568 0-2.35-.095-.798-.095-1.603 0-2.4.04-.164-.03-.335-.174-.424-.454-.274-.983-.396-1.511-.349-.474.05-.474.83 0 .748.396-.047.797.04 1.137.249l-.174-.424c-.117 1.307-.117 2.622 0 3.928-.015.68-.068 1.36-.158 2.035-.042.324-.091.656-.158.98 0 .157-.058.307-.091.465-.033.157 0 .199-.067.307.092-.092.083-.133 0-.125-.083.009-.298 0-.398-.074-.1-.075-.091 0-.058.058v-.324c0-.316 0-.64-.042-.955V70.58c0-1.379.05-2.757.158-4.152 0-.482-.714-.482-.747 0l-.034.025z" transform="translate(-633.000000, -313.000000) translate(326.000000, 154.000000) translate(307.000000, 159.000000) translate(0.000000, 0.000000) translate(13.840000, 20.760000)"/>
                            <path fill="#FFF" d="M127.998 66.428c.282 2.48.398 4.977.349 7.473.007.07-.008.14-.042.2-.057.054-.13.089-.207.1l-.665.157c-.059.021-.123.021-.182 0-.055-.04-.09-.1-.1-.166-.455-1.717-.676-3.488-.656-5.265.062-.808.014-1.62-.141-2.416.383-.266.847-.389 1.312-.349" transform="translate(-633.000000, -313.000000) translate(326.000000, 154.000000) translate(307.000000, 159.000000) translate(0.000000, 0.000000) translate(13.840000, 20.760000)"/>
                            <path fill="#000" d="M127.624 66.428c.15 1.27.25 2.54.307 3.811 0 .643.017 1.282.05 1.919v.83c.04.327.027.658-.041.98l.174-.224c-.16.086-.334.14-.515.157l-.265.059.182.09s-.232-.954-.257-1.062c-.156-.76-.267-1.528-.332-2.3-.108-1.428.124-2.923-.208-4.318l-.174.423c.328-.226.724-.331 1.12-.299.482 0 .474-.714 0-.747-.53-.036-1.059.104-1.502.399-.14.09-.208.26-.166.423.137.764.178 1.542.124 2.317-.011.782.028 1.564.116 2.342.08.762.204 1.52.374 2.267.133.606.2 1.336.988 1.17.313-.026.616-.12.889-.274.249-.19.232-.473.24-.764v-2.391c-.044-1.617-.157-3.233-.34-4.85-.05-.473-.83-.481-.747 0l-.017.042z" transform="translate(-633.000000, -313.000000) translate(326.000000, 154.000000) translate(307.000000, 159.000000) translate(0.000000, 0.000000) translate(13.840000, 20.760000)"/>
                            <path fill="#C7CDFF" d="M121.72 60.15c0 2.383-.83 7.606-.764 7.955.015.105.064.202.141.274.108.092 6.826-.257 7.1-.216.115.025.234.025.349 0 .1-.045.17-.14.183-.249.216-.764-1.329-4.916-1.437-7.473-1.85-.215-3.71-.312-5.572-.291z" transform="translate(-633.000000, -313.000000) translate(326.000000, 154.000000) translate(307.000000, 159.000000) translate(0.000000, 0.000000) translate(13.840000, 20.760000)"/>
                            <path fill="#000" d="M121.13 60.1c-.079 2.052-.27 4.098-.573 6.129-.111.594-.17 1.197-.174 1.802.05.68.54.697 1.063.689 1.57 0 3.139-.1 4.708-.166.59 0 1.18-.05 1.77-.058.281 0 .58.058.83-.125.258-.238.368-.596.29-.938-.167-1.057-.408-2.1-.722-3.123-.377-1.281-.627-2.597-.748-3.927 0-.17-.112-.318-.274-.366-1.924-.277-3.87-.374-5.812-.29-.207 0-.374.167-.374.373 0 .207.167.374.374.374h2.208c1.132-.011 2.262.07 3.38.24l-.274-.356c.249 2.107.685 4.189 1.304 6.22.094.325.158.658.19.996v.2c-.076.007-.154.007-.232 0-.481 0-.963 0-1.436.04-1.528.059-3.048.133-4.576.175h-.897c-.025 0 0 0 0 0 .005-.036.005-.072 0-.108v-.332c0-.349.075-.698.117-1.046.311-2.114.51-4.243.598-6.378-.021-.184-.174-.325-.36-.332-.185-.006-.347.125-.38.307zM122.31 47.18v.954c.226 1.439.593 2.852 1.096 4.219.995.235 2.016.35 3.039.34.297-1.644.44-3.312.424-4.982-.013-.287-.078-.568-.191-.83-.111-.212-.27-.394-.465-.532-1.043-.688-2.396-.688-3.438 0-.286.18-.461.492-.465.83z" transform="translate(-633.000000, -313.000000) translate(326.000000, 154.000000) translate(307.000000, 159.000000) translate(0.000000, 0.000000) translate(13.840000, 20.760000)"/>
                            <path fill="#FFF" d="M123.422 52.353c.316-.067.681-.216.623-.49-.083-.416-.498-.665-.739-1.022-.157-.254-.264-.536-.315-.83-.133-.623-.532-2.433.149-3.23.434-.507 1.103-.747 1.76-.633.658.114 1.207.566 1.445 1.189.402.878.402 1.887 0 2.765-.166.307-.415.573-.598.83-.21.29-.283.657-.199 1.005.22.338.553.588.939.706-.214.3-.548.49-.914.523-.183 0-.963.283-1.403.1-.175-.066-1.238-.614-1.37-.673-.133-.058.299-.174.622-.24z" transform="translate(-633.000000, -313.000000) translate(326.000000, 154.000000) translate(307.000000, 159.000000) translate(0.000000, 0.000000) translate(13.840000, 20.760000)"/>
                            <path fill="#000" d="M123.505 52.627c.515-.125 1.03-.44.83-1.038-.115-.24-.272-.456-.464-.64-.252-.257-.428-.579-.507-.93-.318-.9-.353-1.877-.1-2.798.4-.662 1.2-.961 1.935-.723 1.121.407 1.362 2.134 1.03 3.114-.24.706-.922 1.171-1.005 1.943-.055.3.034.608.241.83.094.1.2.186.316.258l.207.133s.308.2.25.083v-.24c.05-.134-.059 0-.109.057-.071.05-.146.094-.224.133-.157.06-.322.1-.49.117-.338.118-.7.155-1.054.107-.248-.096-.487-.212-.714-.348l-.424-.208-.15-.075c-.1 0-.05-.074 0 0v.316c-.04.083.109 0 .175 0l.332-.083c.39-.091.224-.69-.166-.598-.39.091-.78.125-.897.432-.116.307.191.44.415.548.534.365 1.15.59 1.794.656.324 0 .698-.125.988-.174.383-.062.735-.245 1.005-.524.365-.415-.125-.59-.432-.772-.152-.074-.286-.182-.39-.315-.133-.241.075-.607.2-.83.307-.399.564-.834.763-1.296.158-.5.2-1.027.125-1.545-.065-.861-.505-1.651-1.204-2.159-.556-.31-1.218-.366-1.818-.153-.6.213-1.078.674-1.313 1.266-.195.852-.178 1.739.05 2.582.06.455.219.892.465 1.28.15.207.357.373.515.58.158.208.14.192.108.258-.033.066-.29.116-.374.141-.465.133-.299.73.091.615z" transform="translate(-633.000000, -313.000000) translate(326.000000, 154.000000) translate(307.000000, 159.000000) translate(0.000000, 0.000000) translate(13.840000, 20.760000)"/>
                            <path fill="#000" d="M126.088 46.482c-.625-.402-1.378-.553-2.11-.424-.385.08-.747.251-1.054.498-.2.15-.415.366-.365.623.017.08.054.154.108.216.295.33.73.499 1.17.457.432 0 .831-.125 1.28-.116.174-.005.347.029.506.1.18.1.327.25.423.431.253.666.297 1.393.125 2.084.523-.365.722-1.951.54-2.881l-.623-.988z" transform="translate(-633.000000, -313.000000) translate(326.000000, 154.000000) translate(307.000000, 159.000000) translate(0.000000, 0.000000) translate(13.840000, 20.760000)"/>
                            <path fill="#FFF" d="M128.845 74.267c.058.105.094.22.108.34.207.125 1.287.35 1.66.83.164.186.164.463 0 .648-1.134.137-2.278.187-3.42.15-.099.003-.195-.026-.275-.083-.063-.073-.103-.162-.116-.258-.186-.496-.125-1.051.166-1.494.17-.159.38-.27.606-.324.432-.024.865.04 1.27.19z" transform="translate(-633.000000, -313.000000) translate(326.000000, 154.000000) translate(307.000000, 159.000000) translate(0.000000, 0.000000) translate(13.840000, 20.760000)"/>
                            <path fill="#000" d="M128.521 74.458c.091.141.05.349.24.465.128.067.262.123.4.166.332.096.652.23.954.399.083.05.258.14.258.265s-.108.1.05 0c.157-.1.041 0 0 0h-.05c-.075 0 .1 0 0 0h-.532c-.64 0-1.287.05-1.934.058h-.648c-.03-.007-.062-.007-.092 0 .05.058.059.058 0 0 .004-.058.004-.116 0-.174-.048-.21-.068-.425-.058-.64.013-.213.135-.405.324-.506l.15-.058h.249c.17.01.34.031.506.066l.258.058h.074-.05c.147.147.385.147.532 0 .147-.146.147-.384 0-.531-.317-.2-.687-.302-1.063-.29-.463-.077-.936.06-1.287.373-.405.451-.543 1.081-.365 1.66-.005.323.139.63.39.831.172.079.36.116.548.108h1.993c.324 0 .648 0 .963-.058.316-.058.565-.05.723-.349.34-.64-.191-1.179-.723-1.436-.238-.12-.485-.219-.739-.3l-.274-.099h-.166l.175.224c-.02-.152-.07-.3-.15-.431-.266-.59-.913-.208-.656.199z" transform="translate(-633.000000, -313.000000) translate(326.000000, 154.000000) translate(307.000000, 159.000000) translate(0.000000, 0.000000) translate(13.840000, 20.760000)"/>
                            <path fill="#FFF" d="M121.147 74.267c-.054.107-.09.222-.108.34-.207.125-1.287.35-1.66.83-.16.187-.16.462 0 .648 1.134.137 2.278.187 3.42.15.101.003.2-.026.283-.083.06-.073.098-.163.108-.258.186-.496.124-1.051-.166-1.494-.17-.159-.38-.27-.606-.324-.433-.024-.865.041-1.27.19z" transform="translate(-633.000000, -313.000000) translate(326.000000, 154.000000) translate(307.000000, 159.000000) translate(0.000000, 0.000000) translate(13.840000, 20.760000)"/>
                            <path fill="#000" d="M120.832 74.076c-.08.132-.13.279-.15.432l.174-.225h-.058l-.24.083c-.216.075-.432.158-.64.25-.448.19-.963.506-1.005 1.054-.017.273.1.537.316.706.083.044.173.072.266.083.307.042.622.058.93.075.705 0 1.411.05 2.109 0 .423 0 .83 0 1.013-.515.201-.535.201-1.126 0-1.66-.28-.494-.822-.78-1.387-.732-.24.017-.479.05-.714.1-.186.016-.363.089-.507.208-.34.34.183.872.524.531-.025.031-.06.052-.1.058h.075c.068-.021.137-.038.207-.05.156-.035.314-.06.474-.074h.24s.291.116.324.133c.093.059.167.142.216.24.063.185.078.382.042.573V75.762c.003.035.003.072 0 .107.058 0 .058-.05 0 0s-.175 0-.216 0h-.332c-.643 0-1.282-.016-1.919-.05l-.747-.05c-.075 0 .091 0 0 0h-.15-.066s.191 0 .158.109c-.033.108 0-.067 0-.075.002-.065.036-.124.091-.158.297-.231.64-.398 1.005-.49.163-.044.321-.102.473-.174.225-.133.175-.332.274-.49.216-.44-.423-.822-.68-.415z" transform="translate(-633.000000, -313.000000) translate(326.000000, 154.000000) translate(307.000000, 159.000000) translate(0.000000, 0.000000) translate(13.840000, 20.760000)"/>
                            <path fill="#FFF" d="M129.6 64.31c0 .067-.29 0-.348-.124-.108-.283-.216-1.146-.274-1.262-.057-.12-.186-.187-.316-.167-.066 0-.307.358-.498.54 0 0-.324.083-.224-.19.041-.117.573-1.014.664-1.147.057-.114.14-.213.24-.29.107-.05.225-.067.341-.05.16.01.318.032.474.066.05.002.097.023.133.058.03.035.047.08.05.125.033.821-.048 1.643-.241 2.441z" transform="translate(-633.000000, -313.000000) translate(326.000000, 154.000000) translate(307.000000, 159.000000) translate(0.000000, 0.000000) translate(13.840000, 20.760000)"/>
                            <path fill="#000" d="M129.385 64.086c.038-.03.084-.05.132-.058 0 0 .042.083 0 0 .004-.028.004-.055 0-.083-.038-.15-.068-.303-.09-.457-.013-.286-.078-.567-.192-.83-.136-.224-.401-.334-.656-.274-.15.075-.278.186-.374.324l-.182.224c0 .05-.058.066 0 0 .058-.067 0 0 0 0s.066 0 0 0c-.067 0 .05 0 0 0 .081.03.14.104.15.19 0 0 0-.049 0 0 0 .05 0 0 0 0 .002-.018.002-.038 0-.057.116-.232.247-.456.39-.673l.182-.315c.048-.095.11-.181.183-.258.079-.02.162-.02.24 0 .042 0 .366.067.366.058l-.075-.074s0 .09 0 0c0-.092 0 0 0 0-.004.03-.004.06 0 .09v.657c0 .216 0 .648-.066.971v.158c.005.064.005.128 0 .191v.141s0-.066 0 0c-.06.146-.004.314.132.394.136.08.31.046.408-.078.12-.234.182-.493.182-.756 0-.332.067-.664.083-.996.017-.332 0-.498 0-.748.002-.134-.032-.265-.1-.382-.091-.125-.234-.204-.39-.215-.164-.035-.33-.057-.498-.067-.292-.02-.573.116-.739.357-.075.1-.141.216-.207.324-.166.266-.324.531-.474.83-.08.122-.128.262-.14.407 0 .243.196.44.44.44.191-.004.368-.104.473-.265l.199-.241.083-.091c-.033.038-.082.06-.133.058 0 0 0 .066 0 0 .004.077.004.155 0 .232.042.2.075.399.116.598.011.206.087.404.216.565.197.21.524.232.748.05.013-.107-.029-.213-.111-.282-.082-.068-.194-.09-.296-.059z" transform="translate(-633.000000, -313.000000) translate(326.000000, 154.000000) translate(307.000000, 159.000000) translate(0.000000, 0.000000) translate(13.840000, 20.760000)"/>
                            <path fill="#FFF" d="M127.051 56.064c0 .83.399 3.87.1 4.642h-5.107c-.565 0-1.304-4.683-1.478-6.294-.075-.714-1.769-1.146-2.757-3.264-.575-1.271-.737-2.691-.465-4.06.546.027 1.09-.09 1.578-.34.423.763.05 2.092.83 3.321 1.046 1.62 2.89 1.437 4.102 2.292.598.423 1.046.224 2.043-.1 4.293-1.403 4.152 9.334 4.235 9.326.457 0-2.25.249-1.794.199.025-.025-1.22-8.985-1.287-5.722z" transform="translate(-633.000000, -313.000000) translate(326.000000, 154.000000) translate(307.000000, 159.000000) translate(0.000000, 0.000000) translate(13.840000, 20.760000)"/>
                            <path fill="#FFF" d="M118.224 44.015c.183-.062.384-.047.556.042.092.091-1.021 1.827-.332 2.068.075 0 .656-.432.698-.366.182.29-.54.947-.615 1.03-.072.09-.184.136-.299.124-.316-.057-.621-.164-.905-.315-.122-.139-.18-.323-.158-.507.13-.784.499-1.508 1.055-2.076z" transform="translate(-633.000000, -313.000000) translate(326.000000, 154.000000) translate(307.000000, 159.000000) translate(0.000000, 0.000000) translate(13.840000, 20.760000)"/>
                            <path fill="#000" d="M118.307 44.323c.068-.018.14-.018.208 0h.066c-.058 0-.091-.191-.1-.25-.008-.058 0 0 0 0v.059c0-.067 0 0 0 0-.116.265-.24.523-.34.83-.118.261-.18.544-.183.83 0 .291.216.656.548.656.165-.03.319-.102.449-.207l.216-.133.083-.05h-.05-.125l-.14-.075s-.092-.15-.05-.083c.04.067 0-.058 0 0v.1l-.059.1c-.036.056-.078.109-.124.157l-.158.175c-.076.065-.148.134-.216.207 0 0 .058 0 0 0h-.075l-.232-.058c-.152-.037-.3-.09-.44-.157.041 0 0 0 0 0-.005-.028-.005-.056 0-.084-.004-.044-.004-.088 0-.132v-.075c0-.025 0 0 0 0 .069-.373.204-.73.398-1.055.1-.174.208-.349.324-.515l.067-.074.058-.058s.066 0 0 0c.153-.058.237-.222.193-.38-.043-.157-.199-.255-.36-.227-.3.182-.538.451-.68.773-.251.384-.436.808-.548 1.254-.067.247-.067.508 0 .755.087.253.291.447.548.523.373.15.888.34 1.237.05.254-.21.473-.46.648-.739.124-.172.173-.389.133-.598-.03-.117-.113-.212-.225-.257-.112-.044-.239-.032-.34.033-.141.075-.274.174-.407.257l-.1.05h-.041s.075 0 0 0h.182s.042.05 0 0c-.041-.05 0-.116 0 0-.004-.027-.004-.055 0-.083v-.058s0-.083 0 0v-.191c0-.083.05-.166.084-.249.012-.046.029-.09.05-.133v-.066s0-.075 0 0V45.028l.05-.116c.066-.15.14-.29.198-.44.072-.144.053-.316-.05-.44-.239-.175-.548-.225-.83-.133-.415-.066-.257.532.133.424z" transform="translate(-633.000000, -313.000000) translate(326.000000, 154.000000) translate(307.000000, 159.000000) translate(0.000000, 0.000000) translate(13.840000, 20.760000)"/>
                            <path fill="#000" d="M126.736 56.064c0 .748.1 1.503.15 2.25.127.766.113 1.549-.042 2.31l.307-.225h-4.252c-.15 0-.656.067-.747 0-.091-.066-.191-.39-.241-.54-.429-1.445-.726-2.927-.888-4.426.004-.511-.1-1.018-.308-1.486-.4-.448-.848-.849-1.337-1.196-1.495-1.44-2.145-3.548-1.719-5.58l-.299.232c.605.04 1.207-.095 1.736-.39l-.424-.108c.174.537.266 1.097.275 1.66.075.62.29 1.214.63 1.736.598.776 1.437 1.33 2.384 1.578.505.14.996.324 1.47.548.316.242.686.402 1.08.465.83.05 1.56-.573 2.39-.448 1.197.183 1.761 1.66 2.085 2.632.397 1.353.644 2.746.74 4.152.049.565.082 1.121.099 1.661-.03.26-.004.523.074.772.055.096.156.155.266.158h.058l-.083-.614c-.407.066-1.32.124-1.91.216-.34.05-.265.639.083.606h.059c.096-.005.185-.052.243-.13.057-.076.078-.175.055-.269-.224-1.578-.456-3.155-.747-4.717-.083-.456-.124-1.47-.498-1.81-.598-.54-.673.598-.681.905.025.153.157.265.311.265.155 0 .287-.112.312-.265.02-.143.02-.288 0-.431v-.117c0-.025-.432 0-.457 0-.025 0 .141.465.158.548.174.74.299 1.487.423 2.226.191 1.17.374 2.35.532 3.52l.307-.39h-.058l.083.615c.407-.067 1.32-.116 1.91-.208.34-.058.266-.647-.083-.614h-.058l.274.15c.108.182 0 .099 0-.067v-.498c0-.532-.058-1.055-.1-1.578-.095-1.37-.32-2.726-.673-4.053-.228-1.167-.838-2.224-1.735-3.006-.417-.29-.92-.431-1.428-.398-.355.04-.704.124-1.038.249-.265.112-.545.182-.83.208-.341-.035-.664-.168-.93-.382-1.022-.557-2.284-.623-3.19-1.412-1.245-1.088-.739-2.59-1.353-3.92-.093-.144-.28-.194-.432-.116-.432.241-.927.348-1.42.307-.139-.001-.261.09-.299.225-.428 1.947.042 3.983 1.279 5.547.507.622 1.254 1.013 1.752 1.66.365.449.316 1.33.399 1.894.14.897.29 1.785.49 2.674.095.635.283 1.253.556 1.835.34.631.972.44 1.62.448h4.01c.14-.002.262-.097.3-.232.161-.754.186-1.53.074-2.292-.05-.83-.166-1.62-.166-2.433-.073-.092-.19-.136-.304-.115-.115.021-.209.103-.244.214zM53.187 43.119v.88c-.211 1.324-.548 2.625-1.005 3.886-.917.215-1.856.321-2.798.316-.278-1.529-.408-3.08-.39-4.634.011-.254.068-.504.166-.74.102-.195.25-.363.431-.49.962-.636 2.211-.636 3.173 0 .269.168.43.465.423.782z" transform="translate(-633.000000, -313.000000) translate(326.000000, 154.000000) translate(307.000000, 159.000000) translate(0.000000, 0.000000) translate(13.840000, 20.760000)"/>
                            <path fill="#FFF" d="M52.166 47.885c-.3-.066-.631-.2-.582-.448.083-.39.465-.623.69-.947.14-.232.236-.488.282-.756.125-.573.49-2.242-.133-2.98-.402-.465-1.018-.683-1.622-.576-.604.108-1.108.525-1.326 1.098-.378.805-.378 1.736 0 2.541.15.283.382.532.548.83.196.265.266.602.191.922-.198.304-.49.534-.83.656-.058 0 .39.449.83.474.416.134.857.168 1.287.1.166-.067 1.146-.565 1.27-.623.125-.058-.315-.233-.605-.291z" transform="translate(-633.000000, -313.000000) translate(326.000000, 154.000000) translate(307.000000, 159.000000) translate(0.000000, 0.000000) translate(13.840000, 20.760000)"/>
                            <path fill="#000" d="M52.249 47.578c-.096-.012-.188-.04-.274-.083-.117-.067-.075 0 0-.133.117-.177.257-.34.415-.482.269-.33.446-.725.515-1.146.174-.666.24-1.355.2-2.043-.026-.629-.362-1.205-.898-1.536-.5-.298-1.097-.385-1.66-.24-1.661.473-1.994 2.947-1.163 4.226.207.316.764.83.614 1.27-.15.44-.68.341-.83.64-.15.299.216.581.44.714.29.152.605.248.93.283.392.124.813.124 1.204 0 .274-.117.54-.266.83-.399.291-.133.557-.2.623-.448.108-.44-.564-.548-.83-.615-.266-.066-.556.515-.166.606.101.017.201.042.299.075l.141.042c.058 0 .058 0 0 0V48c.05-.116.108-.074 0 0-.04.012-.08.029-.116.05l-.374.191c-.222.13-.456.242-.697.332-.313.044-.632.013-.93-.091-.145-.014-.287-.044-.424-.091-.087-.04-.17-.087-.25-.142-.049 0-.14-.182-.09 0v.241c-.059.125.1 0 .132 0l.216-.116c.092-.062.181-.128.266-.2.179-.144.295-.353.324-.58.091-.657-.374-1.122-.706-1.661-.323-.548-.424-1.199-.282-1.819.003-.544.217-1.065.598-1.453.607-.36 1.382-.245 1.86.274.247.365.353.808.299 1.245-.018.433-.074.864-.166 1.288-.048.293-.149.574-.3.83-.157.232-.39.407-.547.648-.2.23-.24.559-.1.83.181.227.443.376.73.415.17.046.345-.054.391-.224.046-.17-.055-.344-.224-.39z" transform="translate(-633.000000, -313.000000) translate(326.000000, 154.000000) translate(307.000000, 159.000000) translate(0.000000, 0.000000) translate(13.840000, 20.760000)"/>
                            <path fill="#000" d="M49.708 42.48c.575-.371 1.27-.51 1.943-.391.354.07.684.228.963.457.191.132.39.34.34.573-.012.074-.047.144-.099.199-.272.299-.669.452-1.071.415-.399 0-.83-.108-1.188-.1-.157-.007-.314.024-.456.092-.166.092-.304.226-.399.39-.23.617-.268 1.288-.108 1.927-.482-.34-.664-1.802-.498-2.65l.573-.913z" transform="translate(-633.000000, -313.000000) translate(326.000000, 154.000000) translate(307.000000, 159.000000) translate(0.000000, 0.000000) translate(13.840000, 20.760000)"/>
                            <path fill="#FFF" d="M55.903 68.097c.051.095.085.2.1.307.19.125 1.187.332 1.535.764.149.172.149.426 0 .598-1.044.122-2.096.166-3.147.133-.093.003-.184-.026-.257-.083-.06-.064-.098-.146-.108-.233-.171-.458-.113-.97.158-1.378.156-.145.348-.245.556-.29.396-.018.791.044 1.163.182z" transform="translate(-633.000000, -313.000000) translate(326.000000, 154.000000) translate(307.000000, 159.000000) translate(0.000000, 0.000000) translate(13.840000, 20.760000)"/>
                            <path fill="#000" d="M55.579 68.28c.074.116.05.332.232.448.119.063.244.113.374.15.29.09.568.212.83.365.075 0 .224.116.224.224s-.083.067.067 0c.15-.066.083 0 .058 0h-.066c-.067 0 .1 0 0 0h-.49c-.59 0-1.188.05-1.777.058h-.598c-.027-.008-.056-.008-.083 0 .05.083.058.083 0 0 .004-.05.004-.1 0-.15-.042-.193-.059-.391-.05-.589.013-.183.12-.346.282-.432l.125-.058h.224c.086-.008.172-.008.257 0h.208l.24.108h.076c.34.349.83-.182.523-.523-.296-.194-.644-.292-.997-.282-.445-.1-.912.013-1.262.307-.37.413-.499.988-.34 1.52 0 .292.134.568.365.747.163.078.343.115.523.108h1.835c.3 0 .598 0 .889-.05.29-.05.54-.05.689-.34.324-.598-.174-1.113-.68-1.362-.222-.108-.45-.202-.682-.283l-.257-.083h-.1l.166.225c-.015-.141-.06-.277-.133-.399-.282-.49-.93-.116-.672.29z" transform="translate(-633.000000, -313.000000) translate(326.000000, 154.000000) translate(307.000000, 159.000000) translate(0.000000, 0.000000) translate(13.840000, 20.760000)"/>
                            <path fill="#FFF" d="M48.42 68.097c-.051.095-.085.2-.099.307-.191.125-1.187.332-1.536.764-.149.172-.149.426 0 .598 1.044.122 2.096.166 3.147.133.093.003.184-.026.257-.083.058-.064.094-.146.1-.233.178-.456.122-.97-.15-1.378-.157-.143-.348-.243-.556-.29-.396-.018-.79.044-1.162.182z" transform="translate(-633.000000, -313.000000) translate(326.000000, 154.000000) translate(307.000000, 159.000000) translate(0.000000, 0.000000) translate(13.840000, 20.760000)"/>
                            <path fill="#000" d="M48.097 67.906c-.074.121-.12.257-.133.399l.166-.225s-.075 0 0 0h-.05l-.224.075c-.2.075-.407.15-.598.233-.423.182-.905.481-.938.996-.025.265.092.524.307.681.079.038.163.063.25.075.281.041.572.05.83.066.647 0 1.295.05 1.943.042.398 0 .83-.05.963-.499.19-.502.19-1.058 0-1.56-.285-.439-.793-.677-1.312-.615-.223.02-.445.053-.664.1-.177.018-.344.087-.482.199-.129.149-.12.372.02.51.141.138.364.144.511.013-.05.05 0 .05-.108.066H49.442c.095.045.192.084.29.117.084.048.149.125.183.215.042.167.042.34 0 .507.004.075.004.15 0 .224.004.05.004.1 0 .15v.1c.058 0 .075-.059 0-.059h-2.25l-.69-.05c-.074 0 .092 0 0 0h-.05-.066.075l.083.083c.083.083 0 0 0-.066.017-.045.046-.086.083-.116.271-.208.582-.358.914-.44.15-.043.298-.099.44-.166.216-.125.183-.333.266-.465.274-.623-.366-.997-.623-.59z" transform="translate(-633.000000, -313.000000) translate(326.000000, 154.000000) translate(307.000000, 159.000000) translate(0.000000, 0.000000) translate(13.840000, 20.760000)"/>
                            <path fill="#D2D8FF" d="M48.803 55.267c.058 3.04-.524 12.024-.449 12.456.009.125.055.243.133.34.11.1.25.161.399.175.523.075 1.054.075 1.577 0 .084-.052.144-.136.166-.232.1-.324.88-6.818 1.088-9.708.83 2.923 2.035 9.666 2.226 9.824.545.12 1.102.182 1.66.183.116.04.244.019.34-.057.096-.076.146-.196.134-.317.166-.997-2.018-9.508-2.2-12.755-1.691-.121-3.39-.09-5.074.091z" transform="translate(-633.000000, -313.000000) translate(326.000000, 154.000000) translate(307.000000, 159.000000) translate(0.000000, 0.000000) translate(13.840000, 20.760000)"/>
                            <path fill="#000" d="M48.487 55.267c.066 3.754-.266 7.474-.423 11.252-.03.404-.03.809 0 1.213.116 1.013 1.345.913 2.109.83.573-.05.764-.34.83-.88.116-.756.2-1.528.29-2.292.291-2.367.565-4.742.748-7.125l-.614.083c.598 2.026.996 4.152 1.411 6.178.191.914.366 1.827.565 2.732.075.316.1.889.39 1.096.318.144.666.206 1.013.183.398.1.815.1 1.213 0 .498-.274.357-.972.299-1.428-.241-1.802-.673-3.58-1.038-5.356-.525-2.166-.895-4.367-1.105-6.585-.002-.14-.097-.262-.232-.3-1.708-.19-3.433-.157-5.132.1-.399 0-.399.656 0 .623 1.648-.259 3.323-.3 4.982-.124l-.224-.3c.216 3.555 1.23 7.067 1.902 10.555.13.603.227 1.213.29 1.827 0 .224.075.374-.182.432-.392.02-.785-.005-1.171-.075-.183 0-.266-.083-.183 0-.032-.062-.051-.13-.058-.2-.05-.257-.125-.514-.174-.772-.175-.83-.34-1.61-.507-2.424-.432-2.118-.83-4.26-1.445-6.336-.036-.155-.184-.257-.34-.235-.158.022-.273.16-.266.318-.15 1.91-.357 3.828-.581 5.73-.1.83-.2 1.727-.308 2.582 0 .29-.074.581-.116.872-.004.149-.026.297-.066.44-.133.15-.88.083-1.088.075-.357 0-.548-.108-.59-.449-.025-.474-.008-.949.05-1.42.075-1.743.166-3.479.25-5.223.082-1.868.182-3.745.149-5.622-.007-.178-.158-.318-.337-.311-.178.007-.318.157-.31.336z" transform="translate(-633.000000, -313.000000) translate(326.000000, 154.000000) translate(307.000000, 159.000000) translate(0.000000, 0.000000) translate(13.840000, 20.760000)"/>
                            <path fill="#FFF" d="M46.81 58.855c.05.05.282 0 .307-.166.025-.167.05-1.072.091-1.18.036-.117.144-.197.266-.199.184.136.358.283.523.44 0 0 .307 0 .183-.207-.05-.1-.648-.83-.756-.964-.067-.096-.155-.175-.257-.232-.103-.033-.213-.033-.316 0-.144.027-.286.066-.423.116-.043.014-.083.036-.117.066-.007.042-.007.084 0 .125.07.752.238 1.492.499 2.2z" transform="translate(-633.000000, -313.000000) translate(326.000000, 154.000000) translate(307.000000, 159.000000) translate(0.000000, 0.000000) translate(13.840000, 20.760000)"/>
                            <path fill="#000" d="M46.66 59.12c.21.106.465.058.623-.116.125-.148.19-.338.183-.531v-.507c-.004-.075-.004-.15 0-.224v-.091-.05c0 .058 0 0 0 0s-.191.008-.133.008c.058 0 0 0 0 0l.1.091c.14.125.307.333.49.374.195.053.403-.02.523-.183.107-.158.107-.365 0-.523-.158-.24-.35-.465-.532-.697-.183-.233-.399-.548-.697-.623-.284-.032-.571.014-.83.133-.24.052-.405.27-.391.515.01.212.04.424.091.63.058.341.125.673.208 1.005.043.276.152.538.315.764.122.122.319.122.44 0 .122-.121.122-.318 0-.44 0 0 0 .075 0 0v-.05s0 .067 0 0c0-.066 0 0 0 0-.04-.1-.074-.202-.1-.307-.066-.26-.124-.517-.174-.772-.05-.224-.083-.457-.124-.69.003-.018.003-.038 0-.057 0 0 0 .083 0 0-.004-.028-.004-.056 0-.083 0-.108.05.116-.083.108h.133l.182-.059c.07-.006.139-.006.208 0l.091.108.175.191.24.308.125.157.058.075.125.183v-.05c.004-.056.028-.109.066-.15h.042s-.067 0 0 0c.066 0 .133.059.05 0-.083-.058-.25-.232-.382-.332-.169-.131-.405-.131-.573 0-.316.216-.283.598-.3.93.009.158.009.316 0 .474 0 0 0 .108 0 0 .04-.017.085-.017.125 0-.071-.042-.156-.053-.236-.031-.08.022-.147.075-.187.147-.042.142.02.294.15.365z" transform="translate(-633.000000, -313.000000) translate(326.000000, 154.000000) translate(307.000000, 159.000000) translate(0.000000, 0.000000) translate(13.840000, 20.760000)"/>
                            <path fill="#FFF" d="M48.81 51.298c0 .764-.364 3.562-.082 4.277h4.7c.523 0 1.204-4.31 1.362-5.813.066-.656 1.818-.108 2.724-2.06.528-1.17.676-2.477.423-3.736-.511.019-1.019-.099-1.47-.34-.382.713 0 1.934-.78 3.072-.964 1.494-2.849.39-3.97 1.179-.548.39-.963.199-1.876-.1-3.953-1.287-3.853 8.595-3.903 8.595l1.66.182s1.155-8.262 1.213-5.256z" transform="translate(-633.000000, -313.000000) translate(326.000000, 154.000000) translate(307.000000, 159.000000) translate(0.000000, 0.000000) translate(13.840000, 20.760000)"/>
                            <path fill="#000" d="M48.504 51.298c0 .747-.1 1.495-.15 2.242-.108.704-.083 1.423.075 2.118.037.135.159.23.299.232h4.202c.246.031.497.003.73-.083.24-.22.404-.51.465-.83.174-.544.313-1.1.416-1.661.133-.623.24-1.254.332-1.885.05-.29.091-.581.133-.88-.007-.23.02-.46.083-.681.133-.233.714-.291.996-.399.515-.204.961-.55 1.287-.996.92-1.36 1.222-3.047.83-4.642-.042-.135-.165-.229-.307-.233-.449.036-.899-.06-1.295-.274-.07-.042-.155-.055-.234-.034-.08.02-.148.071-.19.142-.49 1.055-.082 2.383-.954 3.322-.698.73-1.869.39-2.766.515-.37.083-.726.223-1.054.415-.523.232-1.096-.108-1.603-.241-.474-.147-.984-.127-1.445.058-.936.538-1.606 1.44-1.852 2.491-.395 1.229-.643 2.5-.739 3.787-.055.587-.097 1.176-.124 1.769v.531c0 .191-.092.299 0 .125l.274-.158h-.05c-.349 0-.424.54-.083.606.34.066.573.066.83.1l.598.066c.058 0 .44.058.3 0l.082-.614h-.05l.3.39c.157-1.096.323-2.184.506-3.272.108-.69.224-1.378.382-2.051 0-.091.15-.423.141-.457-.008-.033-.531.05-.473-.066v.075c-.013.143-.013.288 0 .431.025.153.157.265.311.265.155 0 .287-.112.312-.265 0-.29-.1-1.386-.665-.83-.357.34-.39 1.262-.473 1.71-.266 1.429-.482 2.874-.681 4.31-.022.094-.002.193.056.27.058.077.147.124.243.129h.05c.348 0 .423-.54.083-.606-.34-.067-.573-.067-.83-.1l-.599-.066c-.058 0-.44-.058-.298 0l-.084.614h.05c.11.003.211-.055.266-.15.1-.149.058-.44.066-.605 0-.432 0-.83.067-1.296.072-1.275.267-2.54.581-3.778.266-.972.698-2.383 1.736-2.782.68-.257 1.303.133 1.951.274.905.2 1.487-.448 2.375-.473.889-.025 1.985.083 2.707-.665.425-.423.719-.959.847-1.544.03-.639.136-1.272.316-1.885l-.432.116c.492.27 1.05.394 1.61.357l-.298-.224c.365 1.62 0 4.102-1.719 4.808-.41.095-.805.24-1.18.432-.356.282-.306.83-.364 1.27-.165 1.383-.443 2.75-.83 4.086-.05.166-.117.531-.267.64-.43.036-.864.036-1.295 0h-3.322l.3.223c-.128-.7-.125-1.418.008-2.117.05-.69.14-1.379.14-2.076 0-.174-.14-.316-.315-.316-.174 0-.315.142-.315.316z" transform="translate(-633.000000, -313.000000) translate(326.000000, 154.000000) translate(307.000000, 159.000000) translate(0.000000, 0.000000) translate(13.840000, 20.760000)"/>
                            <path fill="#FFF" d="M57.455 41.209c-.148-.101-.332-.135-.506-.092-.108.058.498 1.86-.183 1.918-.066 0-.481-.531-.54-.49-.224.225.266.98.316 1.063.046.094.131.16.232.183.296.025.594 0 .88-.075.15-.09.247-.243.266-.415.06-.728-.102-1.458-.465-2.092z" transform="translate(-633.000000, -313.000000) translate(326.000000, 154.000000) translate(307.000000, 159.000000) translate(0.000000, 0.000000) translate(13.840000, 20.760000)"/>
                            <path fill="#000" d="M57.613 40.935c-.307-.191-1.021-.274-.988.265 0 .266.083.532.125.83 0 .059 0 0 0 0v.175c.004.078.004.155 0 .233v.207c0 .075 0-.058 0 0v.1c0 .05 0 0 0 0s.05-.05 0 0c0 0-.05 0 0 0 .035-.012.073-.012.107 0 .075 0 .059 0 .1.041-.017-.021-.037-.04-.058-.058l-.183-.2c-.116-.115-.249-.265-.423-.265-.175 0-.39.274-.382.49.037.351.165.686.374.972.095.201.28.346.498.39.155.012.31.012.465 0 .205.003.409-.036.598-.116.228-.125.385-.35.423-.606.063-.49.015-.986-.141-1.454-.055-.212-.125-.42-.208-.622-.056-.15-.15-.281-.274-.382-.149-.082-.337-.03-.423.116-.084.147-.036.334.108.423v.058c.028.049.053.098.075.15v.108c.032.084.06.17.083.257.113.337.167.691.157 1.047.004.033.004.066 0 .1 0 .05 0 0 0 0 .004.018.004.038 0 .057-.01.074-.041.144-.091.2 0 0 .066-.058 0 0s.066 0 0 0h-.091s-.067 0 0 0c.066 0 0 0 0 0h-.565c-.05 0 0 0 0 0s0-.075-.058-.108l-.108-.191c-.024-.036-.044-.075-.058-.117v-.05c0-.05 0 0 0 0-.004-.04-.004-.082 0-.124-.004-.016-.004-.033 0-.05 0 0 0-.083 0 0v-.15s0 .076 0 0c0-.049 0 0-.075.059l-.158.05c-.041.007-.083.007-.124 0l.05.05.149.157c.082.106.18.199.29.274.2.013.388-.086.49-.257.17-.54.17-1.12 0-1.66v-.15c0-.083 0 .066 0 0v-.05c0-.05 0 0 0 0l-.132.174s-.083 0 0 0h.091l.1.05c.282.332.598-.208.257-.423z" transform="translate(-633.000000, -313.000000) translate(326.000000, 154.000000) translate(307.000000, 159.000000) translate(0.000000, 0.000000) translate(13.840000, 20.760000)"/>
                            <path fill="#000" d="M48.504 51.298c0 .747-.1 1.495-.15 2.242-.108.704-.083 1.423.075 2.118.037.135.159.23.299.232h4.202c.246.031.497.003.73-.083.24-.22.404-.51.465-.83.174-.544.313-1.1.416-1.661.133-.623.24-1.254.332-1.885.05-.29.091-.581.133-.88-.007-.23.02-.46.083-.681.133-.233.714-.291.996-.399.515-.204.961-.55 1.287-.996.92-1.36 1.222-3.047.83-4.642-.042-.135-.165-.229-.307-.233-.449.036-.899-.06-1.295-.274-.07-.042-.155-.055-.234-.034-.08.02-.148.071-.19.142-.49 1.055-.082 2.383-.954 3.322-.698.73-1.869.39-2.766.515-.37.083-.726.223-1.054.415-.523.232-1.096-.108-1.603-.241-.474-.147-.984-.127-1.445.058-.936.538-1.606 1.44-1.852 2.491-.395 1.229-.643 2.5-.739 3.787-.055.587-.097 1.176-.124 1.769v.531c0 .191-.092.299 0 .125l.274-.158h-.05c-.349 0-.424.54-.083.606.34.066.573.066.83.1l.598.066c.058 0 .44.058.3 0l.082-.614h-.05l.3.39c.157-1.096.323-2.184.506-3.272.108-.69.224-1.378.382-2.051 0-.091.15-.423.141-.457-.008-.033-.531.05-.473-.066v.075c-.013.143-.013.288 0 .431.025.153.157.265.311.265.155 0 .287-.112.312-.265 0-.29-.1-1.386-.665-.83-.357.34-.39 1.262-.473 1.71-.266 1.429-.482 2.874-.681 4.31-.022.094-.002.193.056.27.058.077.147.124.243.129h.05c.348 0 .423-.54.083-.606-.34-.067-.573-.067-.83-.1l-.599-.066c-.058 0-.44-.058-.298 0l-.084.614h.05c.11.003.211-.055.266-.15.1-.149.058-.44.066-.605 0-.432 0-.83.067-1.296.072-1.275.267-2.54.581-3.778.266-.972.698-2.383 1.736-2.782.68-.257 1.303.133 1.951.274.905.2 1.487-.448 2.375-.473.889-.025 1.985.083 2.707-.665.425-.423.719-.959.847-1.544.03-.639.136-1.272.316-1.885l-.432.116c.492.27 1.05.394 1.61.357l-.298-.224c.365 1.62 0 4.102-1.719 4.808-.41.095-.805.24-1.18.432-.356.282-.306.83-.364 1.27-.165 1.383-.443 2.75-.83 4.086-.05.166-.117.531-.267.64-.43.036-.864.036-1.295 0h-3.322l.3.223c-.128-.7-.125-1.418.008-2.117.05-.69.14-1.379.14-2.076 0-.174-.14-.316-.315-.316-.174 0-.315.142-.315.316z" transform="translate(-633.000000, -313.000000) translate(326.000000, 154.000000) translate(307.000000, 159.000000) translate(0.000000, 0.000000) translate(13.840000, 20.760000)"/>
                            <path fill="#FFF" d="M91.344 83.775c.07.132.114.275.133.423.266.166 1.66.449 2.092 1.038.208.238.208.593 0 .83-1.421.17-2.854.232-4.284.183-.125.004-.248-.034-.35-.107-.076-.09-.125-.2-.14-.316-.24-.622-.163-1.322.207-1.877.213-.196.474-.334.756-.398.538-.031 1.077.045 1.586.224z" transform="translate(-633.000000, -313.000000) translate(326.000000, 154.000000) translate(307.000000, 159.000000) translate(0.000000, 0.000000) translate(13.840000, 20.760000)"/>
                            <path fill="#000" d="M90.995 83.966c.125.19.05.423.266.556.149.084.308.149.473.191.425.127.834.3 1.221.515.141.083.365.224.365.415v.092c0 .025-.091.1 0 0 .092-.1.05 0 0 0h-.066c-.083 0 .091 0 0 0H92.59c-.83 0-1.611.066-2.425.066h-.83c-.047.009-.095.009-.142 0-.091 0-.091-.183-.108-.29-.066-.272-.09-.552-.074-.831.01-.304.185-.578.456-.714l.2-.083s.257-.058.124-.05c.072-.004.144-.004.216 0 .223.018.445.048.664.091l.316.067h.05c.34.349.83-.183.531-.523-.144-.12-.32-.196-.506-.216-.252-.059-.507-.1-.764-.125-.555-.096-1.124.066-1.545.44-.46.531-.623 1.259-.432 1.935.003.362.164.705.44.938.2.092.42.135.64.125h2.491c.399 0 .83 0 1.204-.075.374-.074.64-.05.83-.39.39-.756-.257-1.37-.88-1.66-.291-.14-.59-.262-.897-.366l-.348-.116-.141-.05H91.6l.175.216c-.028-.178-.087-.35-.175-.507-.215-.432-.863-.058-.606.349z" transform="translate(-633.000000, -313.000000) translate(326.000000, 154.000000) translate(307.000000, 159.000000) translate(0.000000, 0.000000) translate(13.840000, 20.760000)"/>
                            <path fill="#FFF" d="M82.06 83.775c-.07.132-.114.275-.133.423-.265.166-1.66.449-2.092 1.038-.208.238-.208.593 0 .83 1.421.17 2.854.232 4.285.183.125.004.247-.034.348-.107.08-.088.13-.198.141-.316.24-.622.163-1.322-.207-1.877-.213-.196-.473-.334-.756-.398-.538-.031-1.077.045-1.586.224z" transform="translate(-633.000000, -313.000000) translate(326.000000, 154.000000) translate(307.000000, 159.000000) translate(0.000000, 0.000000) translate(13.840000, 20.760000)"/>
                            <path fill="#000" d="M81.745 83.592c-.095.154-.155.327-.175.507l.166-.216h-.124l-.308.1c-.265.09-.523.182-.78.298-.532.233-1.154.598-1.212 1.238-.037.318.095.633.348.83.1.044.207.072.316.083.374.05.755.075 1.137.092.88 0 1.76.058 2.65.058.481 0 .996 0 1.17-.582.25-.65.25-1.368 0-2.017-.343-.578-.992-.903-1.66-.83-.28.026-.556.067-.83.124-.217.02-.422.104-.59.24-.34.34.182.83.523.524 0 0 0 .05-.075.05h.091l.25-.059c.205-.042.413-.073.622-.091H83.596c.092 0-.074 0 0 0 .305.052.57.238.723.507.09.243.116.507.075.763 0 .167 0 .648-.175.698-.096.013-.194.013-.29 0h-.416c-.83 0-1.602 0-2.4-.066-.315 0-.622 0-.938-.067-.091 0 .083 0 0 0h-.158s.166.075.142.092c-.025.016 0-.092-.05-.117-.005-.114.048-.223.14-.29.386-.3.83-.515 1.305-.631.197-.055.388-.127.573-.216.257-.15.174-.366.307-.582.207-.473-.432-.847-.69-.44zM83.28 49.43v1.76c.246 1.313.758 2.562 1.504 3.67.12.232.28.44.473.615.334.245.788.245 1.121 0 .114-.104.236-.198.366-.282.576-.347 1.085-.794 1.503-1.32.434-.986.587-2.073.44-3.14-.01-.328-.08-.652-.208-.955-.122-.255-.308-.476-.54-.64-2.233-1.66-4.658.292-4.658.292z" transform="translate(-633.000000, -313.000000) translate(326.000000, 154.000000) translate(307.000000, 159.000000) translate(0.000000, 0.000000) translate(13.840000, 20.760000)"/>
                            <path fill="#FFF" d="M84.908 56.521c.267-.208.395-.548.333-.88-.092-.498-.582-.83-.83-1.229-.185-.292-.312-.616-.375-.955-.157-.74-.59-2.89.233-3.828.526-.592 1.324-.863 2.101-.713.778.15 1.418.699 1.686 1.444.451 1.047.42 2.24-.083 3.263-.2.374-.499.681-.723 1.03-.226.352-.32.772-.266 1.187 0 .349.615.457.449.64-.166.182-.93.357-.997.39-.39.125-1.528-.349-1.528-.349z" transform="translate(-633.000000, -313.000000) translate(326.000000, 154.000000) translate(307.000000, 159.000000) translate(0.000000, 0.000000) translate(13.840000, 20.760000)"/>
                            <path fill="#000" d="M85.124 56.779c.28-.262.433-.631.422-1.014-.011-.383-.186-.742-.48-.988-.3-.29-.526-.649-.656-1.046-.075-.29-.133-.59-.183-.888-.199-1.146-.398-2.782.83-3.397.471-.246 1.018-.302 1.529-.158.666.27 1.154.851 1.304 1.553.306.914.216 1.914-.25 2.757-.448.73-1.237 1.445-.938 2.408.06.166.166.31.307.416 0 0 .141.116.158.116l.091-.3H87.2c-.267.064-.527.159-.772.283-.497.055-1-.046-1.437-.29-.373-.158-.531.448-.166.597.497.264 1.059.382 1.62.34.233-.06.461-.14.68-.24.216-.075.515-.141.615-.382.15-.374-.232-.457-.399-.697-.09-.218-.09-.464 0-.681.109-.287.27-.552.474-.78.646-.804.945-1.833.83-2.858-.166-1.536-1.104-3.13-2.84-2.964-.591.044-1.153.277-1.602.664-.504.522-.771 1.227-.74 1.952-.013.788.073 1.575.258 2.341.092.532.327 1.03.68 1.437.358.39.831.88.267 1.345-.283.258.157.698.456.474z" transform="translate(-633.000000, -313.000000) translate(326.000000, 154.000000) translate(307.000000, 159.000000) translate(0.000000, 0.000000) translate(13.840000, 20.760000)"/>
                            <path fill="#000" d="M87.757 49.48c-.739-.474-1.625-.66-2.492-.524-.45.082-.877.266-1.245.54-.24.158-.498.407-.449.698.021.091.064.177.125.249.355.377.861.575 1.378.54.507 0 1.014-.117 1.528-.109.205-.001.406.044.59.133.208.115.38.284.498.49.291.606.43 1.272.407 1.943.444-.87.581-1.865.39-2.823l-.73-1.138z" transform="translate(-633.000000, -313.000000) translate(326.000000, 154.000000) translate(307.000000, 159.000000) translate(0.000000, 0.000000) translate(13.840000, 20.760000)"/>
                            <path fill="#FFF" d="M77.6 46.54c.203-.125.425-.215.657-.266.764-.282 1.005 1.096.83 2.491 0 .092.499-.83.582-.83.365.232-.075 1.37-.117 1.503-.031.138-.127.252-.257.307-.385.117-.786.17-1.188.158-.22-.08-.392-.258-.465-.482-.297-.935-.311-1.938-.041-2.881z" transform="translate(-633.000000, -313.000000) translate(326.000000, 154.000000) translate(307.000000, 159.000000) translate(0.000000, 0.000000) translate(13.840000, 20.760000)"/>
                            <path fill="#000" d="M77.825 46.764c.101-.065.214-.11.332-.133.1 0 .25-.083.29-.083.042 0 0 0 0 0l.05.05s.05.075.059.1c.03.045.053.096.066.149.092.304.134.62.125.938v.582c0 .19-.108.407 0 .548.077.118.22.174.357.14.19-.074.282-.298.39-.464l.175-.282.05-.075c0-.05 0 0 0 0s.058 0 0 0l-.158.041c.19 0-.258-.1-.15 0 0 0 0 .083 0 0 .016.094.016.19 0 .283-.025.186-.07.37-.133.548-.021.129-.066.252-.133.365l-.108.05-.298.066c-.203.055-.413.078-.623.067h-.075c-.037-.03-.07-.063-.1-.1-.062-.098-.11-.204-.14-.315-.128-.462-.173-.943-.134-1.42.006-.231.026-.461.058-.69.015-.09.034-.178.059-.265v-.1c0 .083.05 0 0 .05.257-.307-.183-.748-.44-.44-.143.2-.226.436-.241.68-.05.361-.075.725-.075 1.088 0 .698.075 1.852.83 2.126.36.073.732.05 1.08-.066.107-.016.212-.041.315-.075.237-.084.417-.28.482-.523.083-.213.15-.433.2-.656.111-.314.111-.657 0-.972-.041-.102-.121-.184-.223-.226-.102-.042-.216-.042-.317.002-.104.067-.19.159-.25.266-.09.125-.174.255-.249.39-.03.059-.067.114-.108.166 0 .058-.083.1 0 0l.142-.083.348.141v.158c0-.166.058-.457.067-.672.012-.222.012-.444 0-.665-.013-.379-.11-.75-.283-1.088-.15-.269-.439-.432-.747-.423-.159.022-.315.06-.465.116-.2.047-.384.14-.54.274-.224.258.216.698.515.432z" transform="translate(-633.000000, -313.000000) translate(326.000000, 154.000000) translate(307.000000, 159.000000) translate(0.000000, 0.000000) translate(13.840000, 20.760000)"/>
                            <path fill="#FFF" d="M93.17 47.063c-.215-.094-.445-.15-.68-.166-.83-.166-.83 1.237-.415 2.59 0 .092-.615-.772-.69-.713-.332.282.275 1.345.333 1.47.054.132.168.23.307.265.396.065.8.065 1.196 0 .205-.112.348-.31.39-.54.155-.99.002-2.005-.44-2.906z" transform="translate(-633.000000, -313.000000) translate(326.000000, 154.000000) translate(307.000000, 159.000000) translate(0.000000, 0.000000) translate(13.840000, 20.760000)"/>
                            <path fill="#000" d="M93.329 46.814c-.168-.095-.356-.149-.548-.158-.156-.036-.314-.055-.474-.058-.327.038-.6.266-.697.581-.109.34-.143.7-.1 1.055.016.237.05.473.1.706.041.224.124.44.166.656v-.241l.349-.141c.132 0 .15.108.066 0l-.1-.125-.282-.324c-.183-.207-.457-.448-.714-.166-.415.473.058 1.296.29 1.752.06.122.142.231.241.324.146.11.324.168.507.166.33.046.666.046.996 0 .83-.158.83-1.295.83-1.976-.04-.42-.116-.837-.223-1.246-.05-.28-.17-.543-.35-.764-.306-.257-.747.183-.44.44 0 0 0-.058 0 0-.002.023-.002.045 0 .067v.041c.021.043.038.088.05.133.071.198.13.4.175.606.118.48.163.976.133 1.47-.002.212-.075.417-.208.582-.045.03-.096.05-.15.058-.115.008-.232.008-.348 0h-.59c.083 0 0 0 0 0-.03-.033-.054-.07-.074-.108 0-.05 0-.1-.067-.141-.1-.176-.181-.363-.24-.557-.037-.093-.062-.19-.075-.29v-.084c0 .059 0 0 0 0h-.158c-.133 0-.175-.058-.125 0 .033.029.063.06.092.092.083.083.157.174.232.266.075.09.233.348.399.382.136.033.279-.028.348-.15.092-.174 0-.365-.05-.54-.05-.174-.09-.39-.124-.59-.05-.31-.05-.627 0-.938.017-.107.05-.21.1-.307l.058-.066h.299c.133.002.264.036.382.1.34.232.656-.308.324-.507z" transform="translate(-633.000000, -313.000000) translate(326.000000, 154.000000) translate(307.000000, 159.000000) translate(0.000000, 0.000000) translate(13.840000, 20.760000)"/>
                            <path fill="#FFF" d="M93.478 56.006c-.614 2.7-3.936 1.744-4.01 5.813 0 1.038.099 3.97-.275 4.983H82.8c-.714 0-.971-4.833-1.187-6.86-.083-.755-2.882-2.125-3.206-4.243-.382-2.491-.739-5.082-.59-5.688.686.032 1.368-.117 1.977-.432.673 1.229.706 3.272 1.055 5.182.29 1.544 2.267.78 3.47 1.66 1.05.58 2.337.516 3.322-.166.98-.689 3.156-.199 3.513-1.52.31-1.309.507-2.642.59-3.985l1.719-.174s.157 4.8.016 5.43z" transform="translate(-633.000000, -313.000000) translate(326.000000, 154.000000) translate(307.000000, 159.000000) translate(0.000000, 0.000000) translate(13.840000, 20.760000)"/>
                            <path fill="#000" d="M93.17 55.948c-.48 1.885-2.798 2.16-3.603 3.878-1.005 2.143.075 4.7-.681 6.91l.307-.233h-4.01c-.686.054-1.375.054-2.06 0-.374-.075-.2.058-.382-.233-.048-.12-.085-.246-.108-.374-.37-1.805-.593-3.638-.664-5.48-.141-1.536-1.786-2.2-2.633-3.372-.847-1.17-.83-2.416-.955-3.662-.253-1.087-.343-2.207-.265-3.321l-.3.232c.744.046 1.484-.12 2.135-.481l-.424-.108c.484 1.245.765 2.56.83 3.894.117.83.117 1.769.898 2.226.78.456 1.528.29 2.258.506.449.141.83.44 1.246.59.435.134.892.181 1.345.14.98-.082 1.661-.722 2.591-.913.751-.051 1.486-.243 2.167-.564.748-.498.83-1.553.93-2.35.083-.554.15-1.094.2-1.62-.005-.278.017-.556.066-.83l-.299.233 1.72-.175-.316-.315c0 .83 0 1.66.058 2.424.079.999.062 2.003-.05 2.998-.067.399.531.565.606.166.118-.989.14-1.987.067-2.98 0-.831 0-1.736-.059-2.608-.004-.168-.139-.303-.307-.308l-1.719.175c-.137.004-.257.094-.299.224-.09.47-.13.95-.116 1.428-.083.83-.091 2.591-.905 3.064-.664.25-1.36.403-2.068.457-.888.224-1.52.83-2.491.83-.972 0-1.462-.523-2.275-.738-.648-.167-1.57-.059-2.118-.49-.407-.333-.398-1.005-.465-1.487-.066-.481-.141-1.096-.224-1.66-.093-.933-.337-1.845-.723-2.7-.041-.07-.11-.122-.189-.142-.08-.02-.164-.008-.234.035-.557.3-1.188.436-1.819.39-.14-.002-.266.09-.307.224-.086 1.079-.013 2.164.216 3.222.166 1.262.183 2.732.83 3.853.545.82 1.211 1.55 1.977 2.168.333.214.616.497.83.83.103.446.148.904.133 1.362.091 1.071.183 2.134.324 3.197.038.752.21 1.492.506 2.184.432.755 1.661.432 2.367.432h4.567c.138-.002.26-.093.3-.225.279-1.12.377-2.278.29-3.43 0-1.212-.158-2.549.482-3.636.93-1.578 3.006-1.76 3.512-3.72.032-.19-.096-.371-.286-.403-.19-.032-.371.096-.403.286z" transform="translate(-633.000000, -313.000000) translate(326.000000, 154.000000) translate(307.000000, 159.000000) translate(0.000000, 0.000000) translate(13.840000, 20.760000)"/>
                            <path fill="#D2D8FF" d="M82.575 66.328c.091 4.152-.706 16.36-.606 16.965.02.167.086.326.19.457.148.134.334.218.532.24.714.102 1.438.102 2.151 0 .112-.072.193-.185.224-.315.141-.44 1.196-9.275 1.487-13.211 1.179 3.977 1.835 13.161 2.1 13.369.73.167 1.477.25 2.226.25.144.032.294.011.423-.059.132-.113.213-.275.225-.448.224-1.354-1.827-12.938-2.076-17.356-1.894-.39-6.876.108-6.876.108z" transform="translate(-633.000000, -313.000000) translate(326.000000, 154.000000) translate(307.000000, 159.000000) translate(0.000000, 0.000000) translate(13.840000, 20.760000)"/>
                            <path fill="#000" d="M82.268 66.328c.091 5.099-.357 10.222-.573 15.313-.051.552-.051 1.108 0 1.66.166 1.304 1.777 1.13 2.748 1.047.74-.058.939-.424 1.047-1.105.15-1.03.274-2.059.398-3.089.39-3.23.764-6.46 1.005-9.707l-.606.083c.714 2.807 1.197 5.667 1.445 8.553.15 1.196.274 2.4.432 3.596.05.39 0 1.137.365 1.411.385.175.807.252 1.229.225.547.124 1.114.124 1.66 0 .607-.308.474-1.213.433-1.77-.183-2.39-.59-4.766-.93-7.14-.432-3.048-.939-6.112-1.122-9.193-.002-.14-.097-.262-.232-.299-2.316-.256-4.655-.208-6.959.141-.39.042-.398.664 0 .623 2.248-.351 4.532-.404 6.793-.158l-.224-.307c.29 4.858 1.254 9.666 1.851 14.49.1.781.208 1.562.233 2.35 0 .366 0 .607-.432.706-.556.025-1.114-.017-1.66-.124-.3 0-.225.066-.291-.3-.067-.365-.108-.747-.15-1.129-.14-1.146-.274-2.291-.407-3.437-.253-2.83-.733-5.635-1.436-8.387-.047-.144-.189-.234-.338-.215-.15.018-.265.14-.277.29-.19 2.607-.481 5.206-.78 7.805-.141 1.17-.274 2.342-.424 3.513-.058.398 0 1.528-.29 1.86-.291.332-1.205.15-1.553.133-.523 0-.83-.2-.914-.723-.023-.646-.001-1.292.067-1.935.108-2.366.232-4.733.34-7.1.108-2.54.25-5.098.208-7.648.009-.18-.13-.335-.312-.344-.18-.01-.335.13-.344.311z" transform="translate(-633.000000, -313.000000) translate(326.000000, 154.000000) translate(307.000000, 159.000000) translate(0.000000, 0.000000) translate(13.840000, 20.760000)"/>
                            <path fill="#231F20" d="M40.897 60.93c2.74-7.664 5.813-15.229 8.91-22.76.355-1.126.825-2.211 1.404-3.24l-.507.134c.83.49 1.536 1.66 2.101 2.49 1.163 1.662 2.234 3.322 3.322 4.983 2.612 4.184 4.985 8.511 7.108 12.963 1.019 2.021 1.852 4.13 2.491 6.303.055.196.258.312.455.26.198-.053.317-.253.268-.451-1.138-4.285-3.322-8.354-5.464-12.224-2.216-4.175-4.681-8.212-7.383-12.09-.664-.93-1.428-2.268-2.49-2.857-.178-.101-.403-.042-.507.133-.472.82-.853 1.688-1.138 2.59-.775 1.872-1.534 3.746-2.275 5.622-1.788 4.496-3.552 8.996-5.29 13.503-.573 1.486-1.154 2.964-1.66 4.467-.159.449.564.648.722.2l-.067-.025z" transform="translate(-633.000000, -313.000000) translate(326.000000, 154.000000) translate(307.000000, 159.000000) translate(0.000000, 0.000000) translate(13.840000, 20.760000)"/>
                            <path fill="#FFF" d="M40.166 60.98c10.439 6.278 25.86.69 25.86.69-.117 4.708-1.271 10.704-8.305 11.708-4.667.665-7.15 1.096-12.639-1.453-5.489-2.55-4.916-10.945-4.916-10.945z" transform="translate(-633.000000, -313.000000) translate(326.000000, 154.000000) translate(307.000000, 159.000000) translate(0.000000, 0.000000) translate(13.840000, 20.760000)"/>
                            <path fill="#231F20" d="M39.984 61.304c5.065 2.99 11.169 3.422 16.898 2.766 3.148-.33 6.249-1.015 9.243-2.043l-.474-.357c-.074 2.54-.398 5.215-1.727 7.473-1.76 2.965-4.766 3.712-7.972 4.152-3.257.491-6.587.066-9.616-1.229-1.466-.528-2.751-1.464-3.703-2.699-.728-1.046-1.257-2.217-1.561-3.454-.434-1.6-.613-3.26-.532-4.916 0-.482-.714-.482-.747 0-.25 4.102 1.08 9.25 4.982 11.219 3.257 1.676 6.945 2.33 10.58 1.876 3.238-.39 6.435-.938 8.553-3.67 1.91-2.491 2.366-5.713 2.45-8.736 0-.117-.053-.229-.146-.3-.093-.073-.215-.096-.328-.065-2.846.984-5.793 1.65-8.786 1.985-5.68.689-11.75.332-16.782-2.633-.16-.03-.322.05-.398.194-.076.144-.05.321.066.437z" transform="translate(-633.000000, -313.000000) translate(326.000000, 154.000000) translate(307.000000, 159.000000) translate(0.000000, 0.000000) translate(13.840000, 20.760000)"/>
                            <path fill="#D2D8FF" d="M65.444 112.864s5.572.656 8.246 0c.207-22.894.714-78.888 0-84.003-1.744-.283-3.521-.283-5.265 0l-2.981 84.003z" transform="translate(-633.000000, -313.000000) translate(326.000000, 154.000000) translate(307.000000, 159.000000) translate(0.000000, 0.000000) translate(13.840000, 20.760000)"/>
                            <path fill="#231F20" d="M65.444 113.246c2.699.315 5.671.598 8.304 0 .159-.047.27-.191.274-.357.116-12.357.213-24.71.29-37.061.067-12.456.15-24.854 0-37.277.098-3.259-.013-6.52-.332-9.765-.029-.129-.129-.229-.257-.258-1.81-.278-3.653-.278-5.464 0-.163.042-.276.19-.274.357l-.25 8.38-.705 20.037-.83 24.23-.74 20.96-.249 6.934c-.106 1.09-.142 2.186-.108 3.28v.158c0 .473.731.473.748 0l.299-8.396.706-20.045.83-24.231.739-20.951.24-6.943.076-2.142c.057-.377.057-.76 0-1.138-.005-.05-.005-.1 0-.15l-.275.358c1.37-.208 2.683-.058 4.045-.133.656 0 .747-.34.83.266.083.606.066 1.021.091 1.528.067 1.66.1 3.263.133 4.89.083 5.299.1 10.597.1 15.886 0 13.901-.092 27.802-.2 41.703-.05 6.494-.105 12.993-.166 19.498l.274-.366c-2.599.598-5.522.3-8.146 0-.465-.083-.457.681.017.748z" transform="translate(-633.000000, -313.000000) translate(326.000000, 154.000000) translate(307.000000, 159.000000) translate(0.000000, 0.000000) translate(13.840000, 20.760000)"/>
                            <path fill="#231F20" d="M69.612 72.556c3.762-10.513 7.997-20.893 12.224-31.223.423-1.03.83-2.06 1.287-3.072.16-.461.369-.904.623-1.32l-.515.132c1.187.656 2.1 2.259 2.865 3.322 1.61 2.25 3.114 4.584 4.567 6.942 3.614 5.78 6.891 11.763 9.815 17.92 1.361 2.729 2.473 5.575 3.322 8.503.036.13.137.23.267.263.13.034.267-.004.361-.1.094-.095.13-.233.094-.362-1.527-5.813-4.567-11.36-7.423-16.608C94.073 51.236 90.7 45.709 87 40.403c-.897-1.27-1.951-3.139-3.322-3.928-.18-.093-.402-.036-.514.133-.667 1.126-1.21 2.32-1.62 3.563-1.074 2.596-2.126 5.2-3.155 7.814-2.436 6.09-4.833 12.212-7.192 18.368-.78 2.018-1.577 4.044-2.308 6.087-.158.448.565.648.722.19v-.074z" transform="translate(-633.000000, -313.000000) translate(326.000000, 154.000000) translate(307.000000, 159.000000) translate(0.000000, 0.000000) translate(13.840000, 20.760000)"/>
                            <path fill="#FFF" d="M109.223 66.22c12.397 7.474 30.724.83 30.724.83-.14 5.598-1.511 12.73-9.832 13.918-5.547.83-8.495 1.296-15.013-1.727-6.519-3.023-5.88-13.02-5.88-13.02z" transform="translate(-633.000000, -313.000000) translate(326.000000, 154.000000) translate(307.000000, 159.000000) translate(0.000000, 0.000000) translate(13.840000, 20.760000)"/>
                            <path fill="#231F20" d="M109.04 66.536c8.445 4.982 19.323 4.152 28.45 1.66.83-.24 1.718-.481 2.557-.83l-.473-.357c-.083 3.048-.482 6.245-2.076 8.91-.859 1.453-2.1 2.643-3.588 3.438-1.861.85-3.862 1.354-5.904 1.487-1.749.276-3.522.362-5.29.257-2.188-.235-4.325-.82-6.327-1.736-1.7-.624-3.19-1.718-4.293-3.155-.852-1.227-1.477-2.596-1.844-4.044-.532-1.943-.753-3.958-.656-5.97 0-.482-.714-.482-.747 0-.29 4.8 1.237 10.886 5.813 13.22 3.826 2 8.168 2.797 12.456 2.283 3.853-.449 7.706-1.071 10.23-4.31 2.284-2.923 2.832-6.784 2.931-10.38-.001-.116-.056-.226-.148-.297-.092-.07-.212-.096-.325-.068-2.166.752-4.387 1.338-6.643 1.752-4.912 1.052-9.97 1.24-14.947.556-3.1-.45-6.086-1.482-8.802-3.039-.165-.051-.344.017-.432.164-.089.148-.065.338.058.459z" transform="translate(-633.000000, -313.000000) translate(326.000000, 154.000000) translate(307.000000, 159.000000) translate(0.000000, 0.000000) translate(13.840000, 20.760000)"/>
                            <path fill="#231F20" d="M110.02 66.12c3.172-8.868 6.71-17.629 10.263-26.34.4-1.285.938-2.524 1.603-3.695l-.515.133c.997.556 1.744 1.885 2.375 2.773 1.32 1.869 2.491 3.804 3.704 5.755 2.933 4.826 5.586 9.817 7.947 14.947 1.125 2.36 2.053 4.81 2.773 7.324.055.2.262.317.461.262.2-.055.317-.261.262-.46-1.304-4.983-3.77-9.667-6.145-14.167-2.438-4.776-5.172-9.394-8.188-13.827-.747-1.063-1.611-2.59-2.782-3.255-.18-.097-.404-.04-.515.133-.538.945-.975 1.944-1.303 2.981-.906 2.176-1.77 4.368-2.641 6.552-2.032 5.143-4.039 10.291-6.02 15.445-.665 1.744-1.346 3.48-1.969 5.24-.166.457.557.648.715.2h-.025z" transform="translate(-633.000000, -313.000000) translate(326.000000, 154.000000) translate(307.000000, 159.000000) translate(0.000000, 0.000000) translate(13.840000, 20.760000)"/>
                            <path fill="#FFF" d="M69.994 23.206c-5.812-1.495-18.65 1.66-19.472 3.097-.972 1.916-1.314 4.09-.98 6.211.382 2.21 1.893 2.981 2.441.98.208-.772.25-1.735.424-2.54.481-2.185 12.655-2.492 17.587-2.492" transform="translate(-633.000000, -313.000000) translate(326.000000, 154.000000) translate(307.000000, 159.000000) translate(0.000000, 0.000000) translate(13.840000, 20.760000)"/>
                            <path fill="#231F20" d="M70.094 22.848c-3.637-.896-7.681-.307-11.31.366-1.868.333-3.713.788-5.522 1.362-1.027.227-1.996.662-2.848 1.279-.416.526-.7 1.144-.83 1.801-.392 1.26-.555 2.579-.482 3.895.066 1.071.606 4.06 2.325 3.388.747-.29.963-1.262 1.087-1.96.125-.697 0-1.793.59-2.3 1.021-.83 2.865-.955 4.11-1.138 4.252-.535 8.537-.768 12.822-.697.206 0 .374-.167.374-.374 0-.206-.168-.373-.374-.373-3.363 0-6.743.1-10.098.39-1.599.118-3.188.34-4.758.664-1.006.113-1.96.504-2.757 1.13-.274.343-.431.765-.448 1.204-.1.656-.474 4.027-1.603 2.208-.528-1.08-.719-2.296-.548-3.487.075-1.071.29-2.873 1.03-3.745.531-.631 1.66-.897 2.433-1.146 1.507-.485 3.04-.884 4.592-1.196 3.811-.83 8.18-1.528 12.024-.581.2.055.406-.062.46-.262.056-.2-.061-.406-.26-.46l-.009.032z" transform="translate(-633.000000, -313.000000) translate(326.000000, 154.000000) translate(307.000000, 159.000000) translate(0.000000, 0.000000) translate(13.840000, 20.760000)"/>
                            <path fill="#D2D8FF" d="M42.84 119.216c-1.303 1.238-2.383 3.081-1.744 4.75.83 2.317 4.045 2.442 6.503 2.184 5.04-.523 40.623.357 48.561-1.735 2.2-.582 4.983-2.2 4.152-4.318-.277-.59-.707-1.095-1.245-1.462-3.745-3.014-50.904-4.426-56.227.581z" transform="translate(-633.000000, -313.000000) translate(326.000000, 154.000000) translate(307.000000, 159.000000) translate(0.000000, 0.000000) translate(13.840000, 20.760000)"/>
                            <path fill="#231F20" d="M42.575 118.95c-1.088 1.08-2.11 2.492-2.043 4.153.078 1.3.885 2.445 2.084 2.956 1.91.888 4.036.515 6.062.423 3.737-.182 7.474-.124 11.219-.14 10.338 0 20.76.132 31.057-.765 1.617-.112 3.226-.329 4.816-.647 1.951-.44 5.348-1.786 5.057-4.319-.34-2.93-4.368-3.321-6.585-3.628-8.993-1.362-18.269-1.503-27.337-1.395-4.725.05-9.466.215-14.166.722-2.99.324-6.345.606-9.085 1.96-.391.187-.754.427-1.08.714-.356.332.175.83.532.531.752-.601 1.628-1.027 2.566-1.245 1.434-.39 2.894-.681 4.368-.872 4.13-.565 8.289-.89 12.456-.972 9.1-.334 18.211-.081 27.279.756 2.768.142 5.511.594 8.179 1.345.308.092.601.226.872.399.7.409 1.174 1.115 1.287 1.918-.107.9-.65 1.689-1.453 2.11-1.614.95-3.43 1.504-5.298 1.618-4.152.532-8.354.656-12.53.773-5.15.15-10.306.199-15.455.224-4.326 0-8.644 0-12.97.075-1.33 0-2.658 0-3.986.108-2.035.108-4.817.639-6.403-1.005-1.586-1.644-.216-3.928 1.105-5.232.324-.373-.208-.897-.548-.564z" transform="translate(-633.000000, -313.000000) translate(326.000000, 154.000000) translate(307.000000, 159.000000) translate(0.000000, 0.000000) translate(13.840000, 20.760000)"/>
                            <path fill="#D2D8FF" d="M68.018 18.331c-.191-1.551.047-3.125.69-4.55.755-1.354 2.582-2.234 3.919-1.445 1.337.788 1.453 2.632 1.428 4.152l-.141 7.473-5.614-.398s-.207-3.58-.282-5.232z" transform="translate(-633.000000, -313.000000) translate(326.000000, 154.000000) translate(307.000000, 159.000000) translate(0.000000, 0.000000) translate(13.840000, 20.760000)"/>
                            <path fill="#231F20" d="M68.392 18.331c-.058-1.66-.141-3.629 1.038-4.916 1.013-1.113 2.873-1.478 3.737 0 .764 1.312.506 3.114.481 4.559l-.108 5.97.366-.381-5.614-.357.374.373c-.108-1.752-.216-3.512-.283-5.265 0-.481-.764-.481-.747 0 .067 1.753.174 3.513.282 5.265.005.205.17.37.374.374l5.614.357c.204-.004.369-.17.373-.374l.1-5.638c.153-1.475.08-2.965-.216-4.418-.274-1.195-1.273-2.087-2.491-2.225-1.232-.012-2.388.593-3.081 1.61-1.038 1.437-1.005 3.372-.947 5.066.017.473.764.482.748 0z" transform="translate(-633.000000, -313.000000) translate(326.000000, 154.000000) translate(307.000000, 159.000000) translate(0.000000, 0.000000) translate(13.840000, 20.760000)"/>
                            <path fill="#FFF" d="M18.518 82.945c-.07.132-.114.275-.133.423-.266.166-1.62.448-2.093 1.038-.211.236-.211.594 0 .83 1.422.17 2.854.232 4.285.183.125.004.248-.034.35-.108.076-.092.125-.205.14-.324.232-.62.155-1.314-.207-1.868-.216-.2-.479-.34-.764-.407-.536-.023-1.072.056-1.578.233z" transform="translate(-633.000000, -313.000000) translate(326.000000, 154.000000) translate(307.000000, 159.000000) translate(0.000000, 0.000000) translate(13.840000, 20.760000)"/>
                            <path fill="#000" d="M18.194 82.754c-.086.16-.145.334-.174.514l.174-.224h-.05-.083l-.299.108c-.265.091-.523.183-.78.3-.532.223-1.163.589-1.213 1.236-.045.32.09.639.35.83.097.052.204.083.315.092.373.05.755.067 1.137.083.88 0 1.76.067 2.64.058.483 0 1.006 0 1.18-.573.245-.65.245-1.367 0-2.018-.345-.576-.993-.9-1.66-.83-.28.026-.557.067-.831.125-.217.02-.424.1-.598.232-.147.147-.147.385 0 .532.147.146.385.146.531 0l-.083.05c.03.003.061.003.092 0l.257-.059c.21-.039.418-.072.623-.1h.324c.1 0-.067 0 0 0 .308.049.577.236.73.507.085.246.107.508.067.764 0 .158 0 .64-.166.698-.097.012-.194.012-.29 0h-.457c-.83 0-1.603 0-2.4-.058-.316 0-.623 0-.939-.067-.091 0 .083 0 0 0h-.066-.091c-.017 0 .166.067.14.091-.024.025-.049-.1-.049-.116-.01-.115.044-.227.141-.29.384-.302.829-.517 1.304-.632.195-.06.387-.131.573-.215.257-.15.174-.366.307-.582.25-.481-.399-.855-.656-.456z" transform="translate(-633.000000, -313.000000) translate(326.000000, 154.000000) translate(307.000000, 159.000000) translate(0.000000, 0.000000) translate(13.840000, 20.760000)"/>
                            <path fill="#FFF" d="M27.769 82.945c.07.132.118.275.14.423.258.166 1.612.448 2.093 1.038.208.238.208.593 0 .83-1.421.17-2.854.231-4.285.183-.125.004-.247-.034-.348-.108-.08-.09-.13-.204-.141-.324-.24-.62-.163-1.317.207-1.868.214-.197.474-.337.756-.407.536-.023 1.071.056 1.578.233z" transform="translate(-633.000000, -313.000000) translate(326.000000, 154.000000) translate(307.000000, 159.000000) translate(0.000000, 0.000000) translate(13.840000, 20.760000)"/>
                            <path fill="#000" d="M27.445 83.135c.124.191.058.416.274.557.15.08.309.145.473.19.422.123.829.293 1.212.507.15.092.374.233.374.424v.091c0 .025-.1.092 0 0 .1-.091.05 0 0 0h-.058c-.091 0 .091 0 0 0H29.064c-.83.05-1.62.067-2.425.075h-.98c-.083 0-.083-.183-.1-.29-.065-.272-.09-.552-.074-.831.008-.302.18-.575.448-.714l.208-.092s.257-.058.116 0c.075-.004.15-.004.224 0 .223.016.445.044.665.083l.315.075h.05c.332.34.83-.182.523-.531-.145-.113-.316-.188-.498-.216-.257-.058-.506-.091-.764-.125-.555-.092-1.122.07-1.544.44-.466.532-.628 1.265-.432 1.944.058.34.108.747.44.938.2.091.42.134.64.124.83 0 1.66 0 2.49-.041.407 0 .83 0 1.213-.066.382-.067.64-.05.83-.4.39-.746-.257-1.36-.88-1.66-.293-.142-.595-.264-.905-.365l-.34-.117-.142-.058c-.019.006-.039.006-.058 0l.166.225c-.021-.182-.08-.358-.174-.515-.241-.432-.889-.058-.631.348zM26.573 48.6v1.76c-.238 1.315-.75 2.566-1.503 3.67-.112.232-.27.438-.465.606-.335.24-.786.24-1.121 0-.116-.105-.24-.2-.374-.282-.58-.347-1.095-.794-1.52-1.32-.44-.987-.593-2.078-.44-3.148.008-.328.076-.651.2-.955.13-.248.315-.463.54-.63 2.241-1.653 4.683.298 4.683.298z" transform="translate(-633.000000, -313.000000) translate(326.000000, 154.000000) translate(307.000000, 159.000000) translate(0.000000, 0.000000) translate(13.840000, 20.760000)"/>
                            <path fill="#FFF" d="M24.912 55.682c-.265-.206-.396-.54-.34-.871.1-.499.59-.83.83-1.23.193-.29.328-.613.399-.954.149-.74.58-2.898-.241-3.829-.524-.592-1.322-.863-2.098-.713-.777.15-1.416.7-1.68 1.444-.457 1.047-.426 2.242.082 3.264.2.365.499.672.723 1.03.223.352.317.772.266 1.187-.05.34-.615.457-.449.64.166.182.922.356.997.39.39.116 1.511-.358 1.511-.358z" transform="translate(-633.000000, -313.000000) translate(326.000000, 154.000000) translate(307.000000, 159.000000) translate(0.000000, 0.000000) translate(13.840000, 20.760000)"/>
                            <path fill="#000" d="M25.145 55.467c-.449-.39-.2-.83.132-1.196.336-.332.586-.739.731-1.188.186-.692.3-1.402.34-2.117.11-.776-.04-1.567-.423-2.25-.355-.475-.867-.808-1.445-.939-.617-.168-1.276-.097-1.843.2-.696.445-1.18 1.156-1.337 1.967-.267.95-.181 1.965.24 2.857.345.473.656.97.93 1.486.087.23.087.484 0 .715-.074.124-.248.19-.34.307-.481.606.73.888 1.105 1.005.596.084 1.204-.023 1.735-.308.366-.157.2-.755-.166-.606-.415.232-.887.344-1.362.324-.196-.053-.388-.122-.573-.208-.075 0-.24-.124-.307-.116-.1-.058-.075 0 .083.29.042 0 .174-.14.208-.165.656-.598.15-1.661-.274-2.217-.314-.363-.554-.783-.706-1.238-.13-.473-.161-.967-.092-1.453.054-.782.434-1.505 1.047-1.993.481-.285 1.064-.346 1.594-.166.51.13.93.493 1.13.98.194.675.229 1.386.1 2.076-.016.783-.258 1.545-.698 2.192-.32.281-.557.642-.69 1.046-.083.44.076.89.415 1.18.333.232.773-.2.466-.465z" transform="translate(-633.000000, -313.000000) translate(326.000000, 154.000000) translate(307.000000, 159.000000) translate(0.000000, 0.000000) translate(13.840000, 20.760000)"/>
                            <path fill="#000" d="M22.072 48.649c.738-.475 1.625-.662 2.491-.523.456.076.886.261 1.254.54.241.157.498.406.449.689-.024.092-.07.178-.133.249-.348.384-.855.583-1.37.54-.515 0-1.022-.117-1.528-.1-.204 0-.404.042-.59.125-.21.115-.383.288-.498.498-.295.61-.432 1.283-.399 1.96-.444-.868-.581-1.86-.39-2.815l.714-1.163z" transform="translate(-633.000000, -313.000000) translate(326.000000, 154.000000) translate(307.000000, 159.000000) translate(0.000000, 0.000000) translate(13.840000, 20.760000)"/>
                            <path fill="#FFF" d="M32.236 45.71c-.2-.128-.423-.218-.656-.266-.764-.283-1.005 1.096-.83 2.49 0 .092-.49-.83-.573-.83-.374.225.074 1.37.108 1.503.035.137.134.248.265.3.383.124.785.18 1.188.165.216-.088.384-.262.465-.481.295-.936.306-1.939.033-2.882z" transform="translate(-633.000000, -313.000000) translate(326.000000, 154.000000) translate(307.000000, 159.000000) translate(0.000000, 0.000000) translate(13.840000, 20.760000)"/>
                            <path fill="#000" d="M32.452 45.485c-.15-.124-.326-.213-.515-.257-.158-.061-.322-.106-.49-.133-.31-.007-.598.16-.747.432-.18.331-.277.702-.282 1.08-.013.215-.013.431 0 .647 0 .216.058.515.066.69v-.159l.349-.15.133.084c.058.05 0 .041 0 0 0-.042-.059-.083-.083-.133l-.158-.374c-.158-.24-.407-.556-.714-.282-.449.407-.133 1.229 0 1.66.04.15.108.29.199.416.122.122.278.204.448.233.329.098.67.149 1.013.149.897-.041 1.063-1.18 1.105-1.877.017-.407 0-.815-.05-1.22-.007-.296-.096-.583-.257-.83-.258-.3-.698.14-.44.44-.108-.125 0 0 0 0s0-.075 0 0c.023.073.042.148.058.224 0 .19.05.373.066.58.048.484.02.971-.083 1.446-.02.223-.124.43-.29.581h-.225c-.108.008-.216.008-.324 0-.186-.025-.37-.066-.548-.125-.021-.027-.038-.058-.05-.09 0-.05 0-.109-.058-.167-.069-.2-.122-.406-.157-.614-.014-.097-.014-.195 0-.291v-.083c0-.042 0 0 0 0 .058-.058 0 0-.15.041l-.158-.041s-.041-.05 0 0c.042.05-.041-.058 0 0l.042.058c.066.1.133.2.19.299.059.1.192.39.391.465.139.032.282-.028.357-.15.092-.132 0-.357 0-.506-.012-.196-.012-.393 0-.59-.008-.328.034-.656.125-.971l.05-.125.05-.083s0-.058 0 0h.05c.074-.066 0 0 0 0 .049 0 0 0 0 0h.09l.192.058c.125.024.246.07.357.133.307.25.747-.19.448-.465z" transform="translate(-633.000000, -313.000000) translate(326.000000, 154.000000) translate(307.000000, 159.000000) translate(0.000000, 0.000000) translate(13.840000, 20.760000)"/>
                            <path fill="#FFF" d="M16.666 46.224c.215-.095.446-.148.681-.158.83-.166.83 1.23.415 2.583 0 .091.615-.772.69-.706.332.282-.283 1.345-.341 1.47-.053.128-.164.224-.299.257-.398.07-.806.07-1.204 0-.198-.12-.337-.32-.382-.548-.152-.988.001-2 .44-2.898z" transform="translate(-633.000000, -313.000000) translate(326.000000, 154.000000) translate(307.000000, 159.000000) translate(0.000000, 0.000000) translate(13.840000, 20.760000)"/>
                            <path fill="#000" d="M16.824 46.498c.11-.061.232-.096.357-.1h.349s.041 0 0 0l.066.075c.05.097.083.2.1.308.046.3.046.605 0 .905-.026.199-.065.396-.116.59-.05.182-.158.39-.067.572.074.123.22.18.357.141.166 0 .3-.257.399-.373.067-.09.14-.176.216-.258l.1-.1s-.109.059-.158.059h-.158s0-.042-.058-.05c0 0 0 .058 0 0v.066c-.004.085-.018.169-.042.25-.058.18-.13.354-.216.523-.053.133-.122.258-.207.373 0 0-.117 0 0 0h-.399c-.204.03-.41.03-.614 0-.167-.058-.233-.307-.266-.49-.049-.505 0-1.015.141-1.503.05-.24.108-.49.183-.73 0-.05 0-.1.058-.158.058-.058 0 0 0-.05.017-.029.031-.06.041-.091 0-.067 0 0 0 0 .308-.266-.133-.698-.44-.44-.16.187-.269.413-.315.656-.1.337-.175.681-.225 1.03-.09.68-.207 1.868.557 2.225.318.116.661.15.996.1.357 0 .706-.059.905-.407.133-.225.244-.461.333-.706.145-.284.195-.608.14-.922-.066-.2-.248-.407-.48-.349-.118.045-.22.12-.3.216l-.307.349-.125.158c-.041.066-.083 0 .1 0l.349.14v.242c.041-.225.124-.44.166-.656.041-.216.075-.449.1-.681.043-.364.006-.732-.108-1.08-.093-.307-.355-.534-.673-.581-.165 0-.329.016-.49.05-.193.012-.38.069-.548.166-.349.216-.042.755.299.531z" transform="translate(-633.000000, -313.000000) translate(326.000000, 154.000000) translate(307.000000, 159.000000) translate(0.000000, 0.000000) translate(13.840000, 20.760000)"/>
                            <path fill="#D2D8FF" d="M16.359 55.176c.614 2.69 3.936 1.744 4.01 5.813 0 1.038-.099 3.969.275 4.982 2.49-.05 3.944 0 6.394-.05.714 0 .971-4.824 1.187-6.85.075-.756 2.873-2.126 3.206-4.244.382-2.491.739-5.082.59-5.688-.686.032-1.368-.117-1.977-.432-.673 1.22-.706 3.272-1.063 5.182-.282 1.544-2.259.78-3.463 1.66-1.047.585-2.335.524-3.321-.157-.98-.69-3.156-.2-3.513-1.52-.309-1.31-.506-2.643-.59-3.986l-1.719-.174s-.157 4.825-.016 5.464z" transform="translate(-633.000000, -313.000000) translate(326.000000, 154.000000) translate(307.000000, 159.000000) translate(0.000000, 0.000000) translate(13.840000, 20.760000)"/>
                            <path fill="#000" d="M16.06 55.259c.506 1.96 2.582 2.142 3.513 3.72.622 1.055.49 2.35.481 3.521-.09 1.19.007 2.387.29 3.546.043.13.163.22.3.224h4.567c.73 0 1.935.324 2.367-.44.299-.688.467-1.426.498-2.176.15-1.063.24-2.134.332-3.197-.019-.458.026-.916.133-1.362.2-.328.465-.61.78-.83.753-.602 1.408-1.316 1.944-2.118.664-1.129.672-2.59.83-3.853.226-1.058.296-2.143.208-3.222-.037-.135-.16-.23-.3-.232-.63.053-1.264-.083-1.818-.39-.152-.083-.342-.032-.432.116-.36.8-.592 1.652-.689 2.524-.091.598-.158 1.196-.24 1.794.008.496-.121.985-.374 1.412-.482.498-1.479.39-2.11.54-.83.199-1.445.78-2.375.763-.93-.016-1.544-.606-2.4-.83-.689-.085-1.37-.23-2.034-.432-.913-.44-.913-2.1-1.013-2.99.005-.529-.046-1.058-.15-1.577-.04-.132-.16-.225-.298-.232l-1.72-.167c-.08 0-.16.033-.217.09-.057.058-.09.136-.09.218 0 .83-.05 1.735-.058 2.607-.077.994-.055 1.992.067 2.981.074.39.672.224.598-.166-.092-.997-.092-2 0-2.998 0-.83 0-1.66.058-2.424l-.316.315 1.719.166-.299-.224c.045.275.068.552.067.83.05.554.116 1.108.199 1.661.133.83.19 1.86.93 2.359.68.323 1.416.514 2.167.564.93.191 1.603.83 2.591.905.45.048.905.002 1.337-.132.448-.15.83-.457 1.246-.59.772-.08 1.533-.25 2.267-.507.78-.456.78-1.428.888-2.233.066-1.332.346-2.644.83-3.887l-.423.108c.65.364 1.392.529 2.134.474l-.299-.225c.073 1.098-.016 2.2-.266 3.272-.166 1.246-.19 2.616-.954 3.67-.764 1.055-2.492 1.836-2.633 3.372-.075 1.842-.297 3.674-.664 5.48-.026.126-.065.249-.116.366-.175.299 0 .158-.382.233-.683.066-1.37.066-2.052 0h-4.01l.299.232c-.756-2.209.323-4.766-.673-6.909-.83-1.719-3.122-1.993-3.612-3.878-.044-.172-.219-.276-.39-.232-.173.043-.277.218-.233.39z" transform="translate(-633.000000, -313.000000) translate(326.000000, 154.000000) translate(307.000000, 159.000000) translate(0.000000, 0.000000) translate(13.840000, 20.760000)"/>
                            <path fill="#FFF" d="M27.254 65.498c-.083 4.152.714 16.359.614 16.957-.02.17-.086.33-.19.465-.152.127-.336.21-.532.24-.714.098-1.437.098-2.151 0-.117-.071-.198-.189-.224-.323-.141-.432-1.196-9.268-1.487-13.204-1.187 3.978-1.843 13.154-2.1 13.37-.734.163-1.483.246-2.234.249-.141.023-.286.003-.415-.058-.134-.112-.215-.275-.225-.449-.232-1.353 1.819-12.937 2.076-17.355 1.894-.39 6.868.108 6.868.108z" transform="translate(-633.000000, -313.000000) translate(326.000000, 154.000000) translate(307.000000, 159.000000) translate(0.000000, 0.000000) translate(13.840000, 20.760000)"/>
                            <path fill="#000" d="M26.946 65.498c-.083 4.675.3 9.375.515 14.042 0 .83.075 1.57.092 2.35.025.168.025.339 0 .506-.2.681-1.204.524-1.752.499-.549-.025-.648 0-.781-.374-.062-.273-.104-.55-.125-.83-.15-1.105-.282-2.21-.407-3.322-.348-2.915-.68-5.813-.905-8.777.007-.159-.108-.297-.265-.318-.157-.022-.305.08-.34.235-.632 2.43-1.071 4.907-1.313 7.407-.158 1.237-.299 2.491-.448 3.712-.05.423-.1.83-.158 1.27.007.283-.038.564-.133.83-.091.142.1 0-.124 0-.326.063-.657.097-.989.1-.407 0-1.046.2-1.212-.299-.07-.67-.022-1.347.141-2.001.282-2.491.673-4.94 1.013-7.407.34-2.466.772-5.182.93-7.798l-.224.3c2.259-.238 4.539-.185 6.784.157.399 0 .399-.581 0-.623-2.3-.327-4.634-.352-6.942-.074-.135.036-.23.158-.232.299-.316 5.273-1.453 10.463-1.993 15.71-.154.65-.154 1.327 0 1.977.365.83 2.05.465 2.748.34.698-.124.715-.406.83-1.013.15-1.004.25-2.01.366-3.014.252-3.273.774-6.52 1.561-9.707l-.614-.083c.224 2.898.548 5.812.888 8.67.142 1.195.283 2.39.449 3.586.066.499.05 1.337.606 1.57.498.13 1.016.167 1.528.108.528.062 1.06-.087 1.478-.415.39-.44.266-1.18.25-1.661-.092-2.433-.233-4.858-.35-7.291-.132-2.865-.299-5.746-.249-8.62-.012-.155-.137-.278-.293-.289-.156-.01-.296.095-.33.248z" transform="translate(-633.000000, -313.000000) translate(326.000000, 154.000000) translate(307.000000, 159.000000) translate(0.000000, 0.000000) translate(13.840000, 20.760000)"/>
                            <path fill="#FFF" d="M76.14 27.632c12.455.348 36.936.348 39.71 1.486 2.773 1.138 1.917 6.286 4.7 7.606 1.66.781 3.694-.323 4.492-1.951.685-1.697.755-3.58.199-5.323-.49-2.001-1.486-4.152-3.421-4.833-1.146-.415-45.1-2.06-47.1-.888l1.42 3.903z" transform="translate(-633.000000, -313.000000) translate(326.000000, 154.000000) translate(307.000000, 159.000000) translate(0.000000, 0.000000) translate(13.840000, 20.760000)"/>
                            <path fill="#231F20" d="M76.14 28.005c10.338.29 20.685.258 31.023.681 1.893.075 3.787.158 5.672.324 1.03.091 2.391.075 3.321.673 1.844 1.229 1.661 4.193 2.774 5.97 1.262 2.068 3.845 2.134 5.547.532 2.176-2.035 1.66-5.606.772-8.122-.581-1.577-1.66-3.479-3.496-3.844-1.856-.268-3.73-.39-5.605-.366-7.79-.382-15.587-.63-23.384-.83-3.729-.075-7.474-.133-11.186-.108-2.146-.102-4.297-.007-6.427.282-.205.025-.404.084-.59.175-.143.088-.213.26-.174.423l1.42 3.903c.166.448.889.257.723-.2l-1.42-3.902-.166.423c.477-.14.972-.213 1.47-.216 1.079-.074 2.158-.1 3.246-.124 3.272-.058 6.544 0 9.816 0 7.75.122 15.5.354 23.25.697 2.492.108 5.05.208 7.566.382.49.01.979.056 1.461.142 2.716.755 3.67 5.156 3.546 7.531-.1 1.844-1.121 3.754-3.106 4.06-1.461.233-2.408-.771-2.94-2.009-.738-1.743-.83-4.077-2.432-5.34-.857-.536-1.846-.824-2.857-.83-1.66-.182-3.247-.274-4.874-.357-9.907-.481-19.83-.465-29.737-.672l-3.139-.083c-.222-.02-.42.143-.44.365-.02.223.143.42.365.44z" transform="translate(-633.000000, -313.000000) translate(326.000000, 154.000000) translate(307.000000, 159.000000) translate(0.000000, 0.000000) translate(13.840000, 20.760000)"/>
                            <path fill="#FFF" d="M67.304 23.704c-13.627-1.495-43.68 1.66-45.614 3.097-1.935 1.437-3.18 4.011-2.284 6.212.897 2.2 4.435 2.98 5.714.971.49-.764.573-1.727.988-2.491 1.12-2.184 29.637-2.491 41.196-2.491" transform="translate(-633.000000, -313.000000) translate(326.000000, 154.000000) translate(307.000000, 159.000000) translate(0.000000, 0.000000) translate(13.840000, 20.760000)"/>
                            <path fill="#231F20" d="M67.304 23.33c-7.989-.83-16.176-.349-24.165.224-4.01.29-8.013.656-12.007 1.138-2.669.272-5.321.683-7.947 1.229-.578.092-1.138.27-1.661.531-1.809 1.194-2.858 3.25-2.765 5.415.307 3.47 5.572 5.28 7.025 1.594.24-.606.299-1.611.83-1.985.29-.168.608-.283.939-.34 1.042-.26 2.103-.442 3.172-.548 3.454-.424 6.942-.598 10.413-.756 8.71-.39 17.438-.49 26.141-.49.206 0 .374-.167.374-.373 0-.207-.168-.374-.374-.374-7.274 0-14.557.083-21.823.324-3.728.124-7.474.282-11.177.573-2.373.093-4.731.416-7.042.963-.552.089-1.058.36-1.436.772-.64.914-.474 2.217-1.37 2.998-.908.656-2.109.74-3.098.216-3.53-1.661-1.47-6.917 1.66-7.706 2.407-.545 4.845-.942 7.3-1.188 3.654-.456 7.324-.83 10.994-1.104 8.587-.673 17.439-1.296 26.017-.366.473.05.473-.697 0-.747z" transform="translate(-633.000000, -313.000000) translate(326.000000, 154.000000) translate(307.000000, 159.000000) translate(0.000000, 0.000000) translate(13.840000, 20.760000)"/>
                            <path fill="#D2D8FF" d="M63.783 112.457c-.955.19-1.835 1.66-1.802 2.674 0 1.445 2.491 2.234 3.928 2.425 1.92.315 3.87.41 5.813.282 1.324.016 2.63-.298 3.803-.914 1.13-.68 1.345-2.383-.116-3.77-.98-.913-9.475-1.112-11.626-.697z" transform="translate(-633.000000, -313.000000) translate(326.000000, 154.000000) translate(307.000000, 159.000000) translate(0.000000, 0.000000) translate(13.840000, 20.760000)"/>
                            <path fill="#231F20" d="M63.683 112.1c-1.2.46-2.016 1.588-2.076 2.873 0 1.163.989 1.885 1.935 2.309 1.29.487 2.65.767 4.028.83 1.68.174 3.376.174 5.057 0 1.345-.141 3.238-.465 3.911-1.81.491-1.22.131-2.617-.889-3.446-.522-.348-1.126-.554-1.752-.598-1.045-.163-2.098-.269-3.155-.316-2.35-.237-4.719-.195-7.059.125-.473.091-.274.83.2.722 1.562-.219 3.142-.28 4.716-.183 1.8-.008 3.597.133 5.373.424.562.034 1.088.284 1.47.697.451.501.658 1.176.565 1.844-.201.678-.749 1.198-1.437 1.362-1.399.435-2.863.621-4.326.548-1.362.003-2.722-.095-4.07-.29-1.237-.077-2.422-.529-3.396-1.296-.938-.914-.05-2.807 1.105-3.106.14-.089.205-.26.158-.42-.046-.159-.192-.269-.358-.27z" transform="translate(-633.000000, -313.000000) translate(326.000000, 154.000000) translate(307.000000, 159.000000) translate(0.000000, 0.000000) translate(13.840000, 20.760000)"/>
                            <path fill="#D2D8FF" d="M69.09 21.76c-1.341.524-2.35 1.658-2.71 3.05-.363 1.393-.034 2.875.882 3.984 1.218 1.37 3.065 2.001 4.867 1.66 4.044-.788 4.093-4.325 2.79-6.152-.034-.009-1.661-4.061-5.83-2.541z" transform="translate(-633.000000, -313.000000) translate(326.000000, 154.000000) translate(307.000000, 159.000000) translate(0.000000, 0.000000) translate(13.840000, 20.760000)"/>
                            <path fill="#231F20" d="M68.99 21.395c-2.193.822-3.486 3.093-3.073 5.398.563 2.62 3.015 4.392 5.68 4.102 2.226-.2 4.31-1.66 4.418-4.01.037-.893-.188-1.777-.648-2.542-.174-.282-.374-.706-.606-1.046-.498-.768-1.188-1.392-2.001-1.81-1.197-.524-2.55-.556-3.77-.092-.449.158-.258.88.199.723.95-.38 2.003-.41 2.973-.083.656.284 1.229.733 1.66 1.303.264.327.487.683.665 1.063 0 .05.058.1 0 0 .083.15.183.3.274.457.174.324.302.67.382 1.03.408 1.697-.568 3.42-2.234 3.944-2.217.83-5.115.042-6.053-2.3-.86-2.126.166-4.546 2.291-5.406.49-.174.3-.897-.157-.73z" transform="translate(-633.000000, -313.000000) translate(326.000000, 154.000000) translate(307.000000, 159.000000) translate(0.000000, 0.000000) translate(13.840000, 20.760000)"/>
                            <path fill="#D2D8FF" d="M70.235 5.61c-.982.373-1.725 1.196-1.995 2.212-.27 1.016-.034 2.1.633 2.91.89.995 2.235 1.452 3.546 1.205 2.948-.581 2.981-3.156 2.035-4.484-.66-1.67-2.545-2.495-4.219-1.844z" transform="translate(-633.000000, -313.000000) translate(326.000000, 154.000000) translate(307.000000, 159.000000) translate(0.000000, 0.000000) translate(13.840000, 20.760000)"/>
                            <path fill="#231F20" d="M70.136 5.294c-1.65.608-2.627 2.312-2.317 4.044.418 1.955 2.247 3.278 4.235 3.064 1.66-.15 3.238-1.229 3.321-3.023.024-.665-.146-1.323-.49-1.893 0 0-.124-.183-.074-.091v-.1l-.058-.116c-.076-.16-.165-.312-.266-.457-.367-.611-.9-1.106-1.536-1.428-.9-.378-1.915-.378-2.815 0-.457.15-.258.872.19.714.675-.268 1.422-.288 2.11-.058.474.194.887.512 1.196.922.181.234.337.487.465.755 0 .05.05.067 0 0l.207.357c.123.228.215.47.274.723.276 1.182-.399 2.38-1.553 2.757-1.57.573-3.612.041-4.284-1.603-.301-.717-.302-1.526-.002-2.243.3-.718.874-1.286 1.596-1.577.44-.24.249-.963-.2-.747z" transform="translate(-633.000000, -313.000000) translate(326.000000, 154.000000) translate(307.000000, 159.000000) translate(0.000000, 0.000000) translate(13.840000, 20.760000)"/>
                            <path fill="#FFF" d="M71.049 27.964c3.828.348 9.965.664 10.795 1.793.83 1.13.59 6.295 1.445 7.615.498.772 1.138-.332 1.379-1.951.214-1.767.236-3.552.066-5.323-.15-2.001-.457-4.152-1.055-4.841-.357-.407-12.456-2.375-13.07-1.204l.44 3.91z" transform="translate(-633.000000, -313.000000) translate(326.000000, 154.000000) translate(307.000000, 159.000000) translate(0.000000, 0.000000) translate(13.840000, 20.760000)"/>
                            <path fill="#231F20" d="M71.049 28.337c2.416.216 4.841.35 7.241.706.919.09 1.823.293 2.69.606.673.266.831.748.93 1.429.366 1.885.208 3.878.748 5.73.141.514.465 1.336 1.146 1.17.913-.216 1.138-1.851 1.246-2.574.185-1.507.221-3.028.108-4.542-.051-1.445-.232-2.881-.54-4.293-.141-.582-.332-1.454-.93-1.72-.34-.131-.694-.226-1.055-.282-3.126-.696-6.308-1.113-9.508-1.245-.631 0-2.757-.25-2.89.73.005.657.08 1.311.224 1.952l.216 1.96c.05.473.83.473.748 0l-.39-3.496c.012-.097.012-.194 0-.29 0-.1.05-.159-.05 0-.1.157.083.04.199 0 .463-.103.938-.14 1.412-.109 2.986.073 5.96.418 8.885 1.03.498.091.996.183 1.486.307.147.033.29.074.432.125h.075c.047.071.089.146.124.224.475 1.219.73 2.512.756 3.82.141 1.451.183 2.91.125 4.368-.03.701-.121 1.399-.274 2.084-.069.287-.169.566-.3.83-.132.241-.14.332-.323.158-.183-.174-.233-.664-.274-.888-.092-.44-.15-.88-.2-1.32-.174-1.579-.066-3.455-.722-4.933-.59-1.354-2.798-1.454-4.044-1.661-2.408-.34-4.841-.49-7.258-.706-.498.042-.498.789-.033.83z" transform="translate(-633.000000, -313.000000) translate(326.000000, 154.000000) translate(307.000000, 159.000000) translate(0.000000, 0.000000) translate(13.840000, 20.760000)"/>
                            <path fill="#FFF" d="M68.749 72.722c14.274 8.595 35.391.939 35.391.939-.166 6.452-1.743 14.664-11.326 16.035-6.386.905-9.79 1.494-17.29-1.985-7.498-3.48-6.775-14.989-6.775-14.989z" transform="translate(-633.000000, -313.000000) translate(326.000000, 154.000000) translate(307.000000, 159.000000) translate(0.000000, 0.000000) translate(13.840000, 20.760000)"/>
                            <path fill="#231F20" d="M68.558 73.046c9.732 5.813 22.296 4.767 32.809 1.86.963-.265 1.935-.548 2.873-.888l-.473-.357c-.1 3.529-.557 7.24-2.408 10.322-.99 1.646-2.4 3-4.086 3.919-2.134 1.154-4.509 1.445-6.867 1.752-2.01.32-4.048.42-6.079.3-2.494-.26-4.93-.915-7.216-1.944-2.031-.733-3.81-2.032-5.124-3.745-.973-1.416-1.687-2.993-2.109-4.659-.62-2.239-.876-4.563-.756-6.884 0-.481-.722-.481-.747 0-.34 5.514 1.42 12.548 6.735 15.205 2.41 1.24 4.994 2.11 7.664 2.582 2.203.315 4.44.315 6.643 0 4.435-.523 8.86-1.237 11.759-4.982 2.59-3.322 3.214-7.764 3.322-11.883-.001-.116-.056-.225-.15-.295-.092-.07-.212-.093-.324-.062-2.505.867-5.073 1.542-7.681 2.018-5.65 1.208-11.466 1.424-17.19.64-3.605-.519-7.077-1.722-10.23-3.547-.176-.077-.381-.008-.476.159-.094.167-.046.379.11.49zM8.537 70.273C12.29 59.76 16.533 49.38 20.76 39.04c.424-1.021.83-2.05 1.287-3.064.157-.462.366-.905.623-1.32l-.515.133c1.188.656 2.093 2.258 2.857 3.321 1.66 2.25 3.114 4.584 4.575 6.942 3.607 5.771 6.881 11.743 9.807 17.887 1.361 2.729 2.473 5.575 3.322 8.503.055.2.261.317.46.262.2-.055.317-.261.262-.46-1.536-5.814-4.567-11.369-7.424-16.609-3.036-5.72-6.413-11.252-10.114-16.566-.897-1.27-1.96-3.148-3.321-3.928-.18-.102-.408-.043-.515.133-.646 1.12-1.17 2.305-1.561 3.537-1.072 2.6-2.11 5.207-3.148 7.814-2.43 6.09-4.83 12.21-7.2 18.36-.771 2.027-1.569 4.045-2.3 6.087-.165.457.557.656.723.2h-.041z" transform="translate(-633.000000, -313.000000) translate(326.000000, 154.000000) translate(307.000000, 159.000000) translate(0.000000, 0.000000) translate(13.840000, 20.760000)"/>
                            <path fill="#FFF" d="M7.673 70.405c14.274 8.595 35.392.939 35.392.939-.167 6.452-1.744 14.665-11.327 16.027-6.386.913-9.79 1.503-17.297-1.985-7.507-3.488-6.768-14.98-6.768-14.98z" transform="translate(-633.000000, -313.000000) translate(326.000000, 154.000000) translate(307.000000, 159.000000) translate(0.000000, 0.000000) translate(13.840000, 20.760000)"/>
                            <path fill="#231F20" d="M7.474 70.721c9.732 5.813 22.296 4.775 32.809 1.868.963-.265 1.926-.548 2.865-.888l-.465-.357c-.1 3.529-.565 7.24-2.417 10.313-.98 1.656-2.393 3.013-4.085 3.928-2.126 1.154-4.501 1.437-6.868 1.752-2.007.315-4.042.416-6.07.3-2.495-.258-4.932-.917-7.216-1.952-2.032-.727-3.811-2.024-5.124-3.737-.972-1.417-1.686-2.994-2.11-4.659-.619-2.239-.874-4.563-.755-6.884 0-.481-.722-.481-.747 0-.34 5.506 1.412 12.548 6.734 15.197 2.411 1.243 4.995 2.116 7.665 2.59 2.203.312 4.44.312 6.643 0 4.435-.523 8.869-1.237 11.767-4.982 2.59-3.321 3.214-7.764 3.322-11.883-.001-.116-.056-.225-.149-.295-.093-.07-.213-.093-.325-.062-2.505.864-5.073 1.536-7.68 2.01-5.652 1.214-11.472 1.433-17.198.647-3.599-.535-7.064-1.743-10.214-3.562-.118-.068-.262-.069-.38-.001-.118.067-.19.192-.191.328 0 .135.071.26.189.329zM66.033 108.197l3.43 1.279c.15.058.216-.183.066-.241l-3.43-1.279c-.149-.05-.215.191-.066.241zM65.834 106.669c.982.428 1.989.797 3.014 1.104.06.015.12-.015.144-.07.025-.055.006-.12-.044-.154l-.224-.15c-.133-.082-.258.134-.125.217l.225.15.09-.233c-1.006-.298-1.993-.659-2.955-1.08-.141-.066-.266.15-.125.216zM65.602 105.581l2.034.557c.15 0 .307.09.465.116.102.025.208-.028.25-.125.074-.224-.333-.315-.316-.066.016.249.257.158.249 0v.083l-.083.041c0-.1 0-.157-.067-.157h-.074l-.15-.042-.324-.083-.623-.174-1.262-.34c-.066-.02-.135.02-.153.086-.019.067.02.136.087.154l-.033-.05zM65.602 103.497c1.215.456 2.454.847 3.711 1.17.067.02.136-.02.154-.086.018-.067-.02-.136-.087-.154-1.28-.313-2.54-.696-3.778-1.146-.15-.05-.216.191-.067.24l.067-.024zM66.224 101.678l-.323-.199-.1.233 2.823 1.038c.15.058.216-.183.067-.241l-2.824-1.038c-.133-.05-.207.158-.091.224l.324.2c.133.082.257-.134.124-.217zM65.768 99.129l2.4.83c.157.059.215-.182.066-.232l-2.4-.83c-.066-.019-.135.02-.154.087-.018.066.021.135.088.153v-.008zM65.494 97.153l2.49.573c.159 0 .225-.208.067-.241l-2.49-.565c-.065-.016-.13.023-.146.087-.016.065.023.13.087.146h-.008zM66.141 94.844l1.744.673c.15.058.216-.183.067-.241l-1.744-.673c-.15-.058-.216.183-.067.241zM66.025 91.772c1.704.83 3.467 1.535 5.273 2.109.067.018.135-.02.154-.087.018-.067-.02-.136-.087-.154-1.788-.566-3.53-1.262-5.215-2.084-.15-.067-.274.15-.125.216zM66.3 89.92c.846.382 1.71.722 2.59 1.021.15.05.216-.19.066-.24-.83-.291-1.702-.623-2.532-.997-.141-.066-.266.15-.125.216zM65.959 87.703c.963.324 1.918.672 2.856 1.046.15.066.216-.174.067-.24-.939-.374-1.894-.723-2.857-1.047-.15-.05-.216.19-.066.24zM66.233 84.647l2.391.697c.067.019.136-.02.154-.087.018-.066-.02-.135-.087-.153l-2.392-.698c-.066-.018-.135.02-.153.087-.019.067.02.135.087.154zM66.432 79.498c.503.216 1.026.383 1.561.499.158 0 .224-.208.067-.241-.538-.116-1.064-.283-1.57-.498-.058 0-.133 0-.15.09-.015.067.026.134.092.15zM66.3 77.439c.416.215.853.39 1.303.523.066.018.135-.02.153-.087.019-.067-.02-.135-.087-.154-.43-.124-.848-.29-1.245-.498-.141-.075-.274.141-.125.216zM66.822 67.864c.44.34.923.619 1.437.83.068.017.138-.023.158-.09.015-.067-.025-.134-.092-.15-.494-.213-.958-.493-1.378-.83-.05-.044-.125-.044-.175 0-.031.062-.01.138.05.174v.066zM66.963 65.805l1.479.565c.032.01.066.007.096-.009.03-.015.052-.042.061-.074.016-.069-.024-.138-.091-.158l-1.478-.565c-.067-.015-.133.025-.15.092-.012.063.023.126.083.15zM67.262 62.101l1.288.49c.066.016.133-.025.149-.09.012-.064-.023-.127-.083-.15l-1.287-.482c-.032-.01-.067-.007-.097.008-.03.016-.051.043-.06.075-.017.066.024.133.09.15zM67.055 60.258l1.868.673c.15.058.216-.183.067-.233l-1.852-.664c-.15-.05-.216.19-.067.24l-.016-.016zM67.561 57.758c0 .075 0 .125.092.133h.074l.175.058.29.1.632.224 1.27.432c.15.05.216-.19.066-.24l-1.826-.632-.44-.15c-.116-.056-.245-.082-.374-.074-.191.058-.183.39 0 .374.183-.017.158-.266 0-.25l.041.025zM67.536 56.314l1.188.423c.068.016.138-.024.158-.091.015-.067-.025-.133-.092-.15l-1.187-.423c-.067-.016-.133.025-.15.091-.016.064.02.13.083.15zM67.312 55.051l1.022.457c.06.031.133.009.166-.05.042-.047.042-.119 0-.166l-1.022-.457c-.047-.042-.118-.042-.166 0-.043.05-.043.125 0 .175v.041zM40.631 122.505c1.261.132 2.514.332 3.754.598.066.018.135-.021.154-.088.018-.066-.021-.135-.088-.153-1.262-.268-2.537-.47-3.82-.606-.157 0-.157.232 0 .249zM41.37 121.143c1.258-.039 2.516.056 3.754.282.158 0 .224-.207.066-.24-1.259-.234-2.54-.331-3.82-.291-.166 0-.166.257 0 .249zM42.583 119.216c1.66.21 3.322.46 4.982.748.158 0 .225-.208.067-.241-1.661-.299-3.322-.55-4.983-.756-.157 0-.157.233 0 .25h-.066zM45.315 117.796c1.505.5 3.074.78 4.658.83.07 0 .125-.055.125-.124s-.056-.124-.125-.124c-1.562-.056-3.108-.336-4.592-.83-.15-.05-.216.19-.066.24v.008zM49.3 117.132c1.005.16 1.986.439 2.924.83.15.067.274-.149.124-.215-.956-.396-1.957-.675-2.98-.83-.158 0-.233.207-.067.232v-.017z" transform="translate(-633.000000, -313.000000) translate(326.000000, 154.000000) translate(307.000000, 159.000000) translate(0.000000, 0.000000) translate(13.840000, 20.760000)"/>
                        </g>
                    </g>
                </g>
            </g>
        </g>
    </g>
</svg>
