<svg width="135" height="136" viewBox="0 0 136 112" fill="none" xmlns="http://www.w3.org/2000/svg">
    <path d="M39.16 118.338a405.144 405.144 0 0 0 2.095-39.31c0-1.864 0-3.774-.594-5.52-.479-1.414-2.643-4.282-3.169-5.68-.8-2.136-.415-3.136-.425-5.446l-.065-15.527c0-1.826.025-3.806 1.041-5.255.84 0 1.18 1.178 1.277 2.09l1.43 13.483.916-19.316c.04-.78.297-1.812 1.009-1.801 1.259 1.54 1.388 3.798 1.452 5.871l.436 14.287c.82-3.77.644-7.704.902-11.576.257-3.871 1.942-11.419 3.38-10.802 1.438.617.765 14.193-.168 21.21.221-6.23 2.185-18.687 4.174-17.788 1.989.899-3.688 14.722-2.407 22.047 1.341-1.279 1.788-3.328 2.4-5.154.611-1.826 1.813-3.756 3.576-3.892.655 6.97-4.62 12.785-6.695 19.423-1.238 3.959-1.75 9.241-1.82 13.43-.208 12.593-.984 23.936.26 36.459M77.717 117.928c.95-18.47 1.661-36.952 2.136-55.45.068-2.724.132-5.452 0-8.17-.228-4.289-1.545-8.271-1.98-12.543-.444-4.359-.569-8.753-.693-13.14-.054-1.815-.239-4.909 1.05-5.153 1.288-.244 1.068 2.75 1.025 4.3a35.649 35.649 0 0 0 1.22 9.951c.588-3.265.378-6.641.556-9.972.178-3.33 1.363-9.467 2.787-9.25 1.424.215.25 12.219 0 18.323-.128-7.02.915-21 2.805-20.557 1.89.442 1.157 14.23-.498 21.062l1.965-11.26c.355-2.046 1.676-6.158 2.783-4.938 1.107 1.22-.064 12.244-.762 18.306 3.05-1.087 3.635-6.804 6.788-7.365.527 3.557-.712 7.142-2.288 10.26-1.577 3.12-3.478 6.053-4.485 9.464-.787 2.666-.983 5.509-1.157 8.314a909.25 909.25 0 0 0-1.798 58.292" fill="#fff"/>
    <path d="M37.991 117.93a365.374 365.374 0 0 0 2.106-26.931c.182-4.45.304-8.904.297-13.358 0-1.982-.15-3.953-1.024-5.772-.444-.92-1.01-1.78-1.476-2.69a10.397 10.397 0 0 1-.952-2.858c-.315-1.721-.269-3.477-.297-5.216 0-1.043-.054-2.086-.09-3.129-.09-2.625-.183-5.246-.2-7.871 0-2.298-.036-4.642.315-6.92.049-.665.238-1.315.555-1.908.218-.348.483-.348.78 0 .505.595.688 1.495.86 2.225.264 1.21.462 2.434.594 3.665.308 2.614.47 5.243.716 7.864.047.484.094.967.15 1.447 0 .144.121.26.27.26a.265.265 0 0 0 .268-.26c.175-3.314.132-6.641.204-9.961.036-1.739.09-3.505.211-5.254.065-1.376.24-2.745.523-4.095.111-.477.358-1.67.928-1.739a.431.431 0 0 1 .218.07c.097.069.18.155.243.253.222.35.383.731.477 1.13.323 1.255.527 2.535.609 3.825.146 1.645.222 3.292.268 4.944.09 3.042.057 6.088.118 9.13 0 .247 0 .494.022.737.002.13.1.238.232.255a.269.269 0 0 0 .294-.185c.598-2.452.834-5.01 1.193-7.5.48-3.345.952-6.696 1.647-10.006a25.08 25.08 0 0 1 .952-3.592c.118-.369.288-.72.505-1.043.06-.076.127-.147.2-.212a.146.146 0 0 1 .133-.034c.208.052.358.396.423.657.138.529.214 1.07.226 1.616a42.27 42.27 0 0 1-.122 5.084c-.276 4.15-.763 8.288-.942 12.446 0 .442-.032.887-.04 1.332a.262.262 0 0 0 .198.248.272.272 0 0 0 .3-.116c.332-.68.564-1.4.691-2.142.276-1.168.502-2.343.717-3.518.515-2.688.984-5.393 1.69-8.042.223-.986.553-1.946.985-2.865.126-.281.308-.536.537-.747a.296.296 0 0 1 .404-.049c.215.143.283.518.32.758.053.51.053 1.023 0 1.533a36.787 36.787 0 0 1-.717 4.715c-.97 4.833-2.195 9.61-3.105 14.453a.261.261 0 0 0 .128.29.278.278 0 0 0 .323-.036 5.98 5.98 0 0 0 1.154-1.645c.497-.883.949-1.787 1.432-2.68.483-.894.992-1.875 1.568-2.765.42-.65.892-1.39 1.562-1.825.33-.212.855-.348 1.034.038.18.386.026 1.043-.082 1.485-.494 1.944-1.432 3.8-2.313 5.605-1.124 2.325-2.31 4.627-3.427 6.953-1.117 2.326-2.192 4.66-2.797 7.145-.863 3.543-.913 7.21-.981 10.834a907.909 907.909 0 0 0-.165 11.685c-.046 7.722.104 15.458.82 23.156.091.971.19 1.939.297 2.903.04.33.577.348.538 0-.885-7.91-1.128-15.872-1.125-23.827 0-3.98.061-7.962.136-11.942.068-3.825 0-7.709.738-11.474.534-2.757 1.633-5.316 2.833-7.85 1.135-2.393 2.349-4.743 3.502-7.121.906-1.864 1.876-3.772 2.42-5.772.226-.83.556-2.524-.823-2.548-.66 0-1.218.494-1.626.946a13.42 13.42 0 0 0-1.636 2.395c-1 1.739-1.79 3.627-2.897 5.299a3.15 3.15 0 0 1-.527.64l.448.253c.856-4.558 1.98-9.057 2.929-13.594.383-1.708.676-3.433.877-5.17.094-.89.273-2.128-.229-2.948a.895.895 0 0 0-1.432-.153c-.602.567-.888 1.484-1.139 2.232-.874 2.597-1.336 5.333-1.848 7.996-.279 1.478-.551 2.96-.873 4.433-.19.873-.333 1.899-.788 2.688l.501.132c.079-4.252.59-8.487.906-12.728.136-1.86.269-3.731.218-5.598a11.538 11.538 0 0 0-.171-1.892 2.336 2.336 0 0 0-.473-1.16c-1.364-1.471-2.335 2.697-2.485 3.288-.828 3.29-1.3 6.672-1.79 10.02-.423 2.872-.742 5.772-1.311 8.616-.04.191-.08.379-.126.563l.53.07c-.104-3.015-.046-6.036-.118-9.04-.043-1.738-.107-3.505-.247-5.253a25.497 25.497 0 0 0-.59-4.172c-.173-.678-.423-1.711-1.15-2.045-.727-.334-1.275.38-1.515.95-.47 1.094-.598 2.336-.716 3.504-.19 1.72-.269 3.456-.323 5.184-.118 3.609-.078 7.221-.21 10.827 0 .34-.015.681-.044 1.022h.537c-.3-2.524-.426-5.066-.673-7.597a59.396 59.396 0 0 0-.498-3.977 14.075 14.075 0 0 0-.77-3.053c-.21-.522-.544-1.22-1.185-1.328-.537-.094-.895.316-1.1.744a7.348 7.348 0 0 0-.54 2.207c-.147 1.127-.208 2.264-.243 3.397-.154 4.962.232 9.913.264 14.87.011 2.014.011 4.1.642 6.071.63 1.971 2.07 3.62 2.65 5.626.612 2.11.454 4.384.433 6.553a330.66 330.66 0 0 1-.136 6.88 359.465 359.465 0 0 1-2.25 31.066c-.035.348.502.33.538 0v-.007zM76.424 117.963a1752.233 1752.233 0 0 0 2.392-51.227c.135-4.228.387-8.488.089-12.717-.294-4.152-1.127-8.241-1.623-12.372-.504-4.222-.66-8.475-.801-12.717a14.316 14.316 0 0 1 .354-4.177c.089-.33.255-.995.57-1.113-.088.034-.042-.074 0 .045.043.118.09.184.121.275.23.749.394 1.516.49 2.293.187 1.149.354 2.3.492 3.453.305 2.293.556 4.608 1.042 6.87.082.376.17.745.284 1.11.035.11.139.185.257.185a.269.269 0 0 0 .257-.185c.446-2.144.475-4.41.627-6.588.206-2.896.386-5.802.744-8.701.103-1.043.287-2.078.55-3.094.069-.296.188-.579.354-.835.039-.049.12-.115.092-.105-.028.01.025-.024.067 0 .186.238.301.52.334.818.099.527.16 1.06.18 1.594.089 1.51.068 3.028.054 4.525-.036 3.786-.248 7.688.436 11.436.056.317.489.195.52-.07.383-3.052.55-6.128.798-9.195.234-2.94.418-5.944 1.063-8.83.146-.63.305-1.712.862-2.15.41-.33.677.38.776.745.235 1.122.314 2.27.234 3.414-.036 1.629-.167 3.26-.316 4.872-.354 3.891-.9 7.761-1.247 11.652.001.13.1.238.23.256a.266.266 0 0 0 .29-.186c.426-2.05.95-4.082 1.496-6.101.653-2.412 1.337-4.827 2.209-7.17.274-.81.63-1.59 1.063-2.331.109-.17.239-.325.386-.463.043-.038.053.02 0-.024a.434.434 0 0 1 .138.177c.355.72.23 1.716.192 2.482-.068 1.392-.248 2.819-.443 4.218-.49 3.522-1.149 7.02-1.63 10.542a.26.26 0 0 0 .11.216.27.27 0 0 0 .244.034c2.151-.696 3.753-2.638 5.21-4.228.386-.422 2.991-3.648 3.544-2.176.309.794-.251 1.922-.574 2.624a32.151 32.151 0 0 1-1.836 3.352c-.648 1.069-1.329 2.12-1.963 3.195a27.94 27.94 0 0 0-2.17 4.747c-1.222 3.397-2.427 6.828-2.835 10.42-.436 3.804-.61 7.657-.85 11.464a773.11 773.11 0 0 0-1.542 46.974v2.945c0 .144.119.261.265.261a.264.264 0 0 0 .266-.261c0-8.021.118-16.041.355-24.06.236-8.019.6-16.03 1.091-24.035.241-3.95.475-7.907.819-11.854.132-1.954.46-3.89.982-5.78.528-1.758 1.138-3.505 1.737-5.239a29.155 29.155 0 0 1 2.232-5.105c.645-1.114 1.347-2.193 2.017-3.29a32.824 32.824 0 0 0 1.91-3.48c.355-.817.805-1.781.709-2.7a1.151 1.151 0 0 0-1.134-1.11c-.709.03-1.357.657-1.836 1.113-1.712 1.622-3.094 3.62-5.065 4.97a5.56 5.56 0 0 1-1.456.742l.336.25c.458-3.362 1.085-6.703 1.564-10.065.212-1.472.407-2.951.496-4.437.053-.898.148-1.95-.17-2.813-.17-.462-.567-.807-1.035-.462-.468.344-.79 1.124-1.035 1.677a54.287 54.287 0 0 0-2.357 7.093c-.71 2.492-1.368 5.001-1.89 7.538l.522.07c.326-3.665.822-7.309 1.18-10.973.173-1.74.326-3.522.376-5.287a14.761 14.761 0 0 0-.203-3.644c-.124-.56-.418-1.43-1.151-1.392-.68.02-1.007.853-1.198 1.371a17.64 17.64 0 0 0-.762 3.526c-.234 1.608-.394 3.226-.536 4.844-.326 3.682-.492 7.382-.953 11.05l.521-.07c-.641-3.528-.454-7.214-.418-10.788 0-1.619.046-3.244-.04-4.873-.045-.86 0-2.043-.527-2.784-.355-.501-.886-.407-1.18.073-.433.696-.546 1.629-.681 2.436-.482 2.858-.66 5.767-.865 8.652-.117 1.65-.227 3.303-.354 4.953a25.582 25.582 0 0 1-.373 3.247h.514c-.652-2.088-.84-4.333-1.127-6.48-.294-2.203-.492-4.455-1.01-6.613-.085-.348-.191-1.082-.588-1.277-.837-.414-1.251 1.274-1.354 1.74a16.933 16.933 0 0 0-.305 4.337c.075 2.189.152 4.381.284 6.57.258 4.33.896 8.586 1.52 12.878.312 2.164.578 4.34.677 6.529.1 2.189.057 4.381 0 6.57-.248 8.792-.57 17.58-.967 26.367-.393 8.861-.852 17.719-1.38 26.573-.067 1.082-.13 2.161-.198 3.243-.02.348.514.348.532 0l-.078.021z" fill="#001A36"/>
    <path d="M68.842 117.457c.509-7.388.717-25.3 1-26.956.351-1.6.788-3.18 1.308-4.736 1.157-3.817.914-7.634 1.222-11.621.358-4.546-.383-13.138-1.856-13.253-1.473-.114-1.57 11.635-1.957 15.553l-.169-13.158c0-1.073-.032-2.18-.43-3.169-.397-.988-.82-2.74-2.286-1.85-1.466.893-.154 11.98-1.007 17.896-.595-3.564-.15-7.218-.043-10.837.108-3.62-.695-10.473-2.046-10.473s-1.577 3.196-1.47 5.05l.538 9.108c.154 2.617.297 5.327-.58 7.78l-.524-13.814c-.046-1.256-.104-2.55-.602-3.692-.247-.563-.756-1.145-1.326-.993-.57.153-.76.958-.806 1.607l-1.204 16.31c-.466-1.91-6.705-7.965-7.053-7.073-.505 1.291 1.197 3.165 2.043 4.244 1.899 2.43 2.297 5.812 3.662 8.602.574 1.18 2.308 2.207 2.817 3.422.616 1.485.695 3.147.749 4.764.33 9.623-.434 19.433-1.186 29.013" fill="#D2D8FF"/>
    <path d="M70.371 117.962c.505-6.814.661-13.648.468-20.478-.05-1.683-.177-3.37-.124-5.053.088-1.662.436-3.3 1.033-4.86.55-1.461.95-2.972 1.196-4.511.191-1.576.29-3.161.298-4.748.096-4.783.685-9.576.198-14.355a12.516 12.516 0 0 0-.425-2.43c-.132-.43-.327-.986-.76-1.215-.816-.43-1.114.77-1.227 1.305a27.764 27.764 0 0 0-.444 4.058c-.107 1.697-.17 3.398-.26 5.095a39.877 39.877 0 0 1-.333 4.165c-.04.357-.131.707-.27 1.04a.308.308 0 0 1-.063.084c-.046-.062.252.021.252.021v-.02a.978.978 0 0 1-.043-.122 17.507 17.507 0 0 1-.412-2.683c-.17-1.493-.312-2.992-.46-4.488-.306-3.023-.54-6.095-1.168-9.076a8.946 8.946 0 0 0-.355-1.319 1.47 1.47 0 0 0-.472-.76c-.653-.427-.994.639-1.097 1.062a19.407 19.407 0 0 0-.355 3.79c-.056 1.736-.05 3.443-.035 5.165 0 1.648.039 3.293.035 4.942 0 .99.078 2.082-.149 3.058 0 .052-.031.104-.042.156-.01.052-.018.017 0 .017s.064-.048.142-.045c.078.004.089.038.149.049.06.01 0 0 0 0 0-.146-.117-.507-.15-.722-.145-1.07-.202-2.152-.265-3.228-.196-3.231-.32-6.466-.522-9.697a99.438 99.438 0 0 0-.355-4.481 13.701 13.701 0 0 0-.49-2.863 1.161 1.161 0 0 0-.394-.657c-.471-.284-1.085.209-1.337.563-.557.78-.682 1.853-.756 2.776-.062.81-.062 1.621 0 2.43.23 3.318.493 6.636.6 9.961.08 1.62.064 3.242-.05 4.86-.013.481-.1.959-.26 1.415a.922.922 0 0 1-.077.157.274.274 0 0 1-.057.062c0-.038.075.059.018-.028a3.045 3.045 0 0 1-.277-.854 15.094 15.094 0 0 1-.213-1.69c-.128-1.583-.163-3.172-.192-4.758-.05-3.034.057-6.088-.127-9.118-.003-.35-.044-.7-.121-1.041-.216-.77-1.128-1.61-1.984-1.24-.437.232-.736.651-.809 1.132-.13.713-.203 1.435-.22 2.159l-.404 5.168-.792 9.923.522-.07a4.298 4.298 0 0 0-.809-1.388 17.7 17.7 0 0 0-1.554-1.735 23.996 23.996 0 0 0-3.652-3.055c-.521-.347-1.824-1.135-1.852.046.04.617.215 1.218.514 1.763.396.843.837 1.666 1.32 2.464.99 1.69 2.087 3.328 3.013 5.057.81 1.517 1.657 3.013 2.484 4.512.355.66.71 1.315 1.03 1.992.585 1.284.709 2.7.794 4.089.146 3.058.114 6.126 0 9.183-.245 6.182-.887 12.339-1.44 18.5l-.2 2.308c-.028.347.505.347.533 0 .5-5.901 1.14-11.801 1.487-17.722.174-2.968.277-5.942.248-8.913 0-1.43-.028-2.863-.149-4.286a10.147 10.147 0 0 0-.816-3.447c-.71-1.527-1.58-2.992-2.392-4.467-.763-1.388-1.5-2.776-2.32-4.106-.994-1.641-2.051-3.259-2.9-4.98a5.217 5.217 0 0 1-.656-1.836c0-.07.035-.209 0-.268-.036-.059-.029.018-.057.018.122.023.241.059.355.107 1.22.549 2.3 1.562 3.275 2.43 1.065.968 2.204 2.02 2.956 3.256.121.184.216.383.28.593.038.124.161.203.292.185a.262.262 0 0 0 .23-.254l.813-10.18.404-5.092c.057-.694 0-1.534.298-2.193a.682.682 0 0 1 .753-.48c.376.131.679.411.834.771.055.11.09.226.106.347.021.118.036.32.05.472.039.524.053 1.041.064 1.576.039 1.53.035 3.065.046 4.595.018 3.086-.078 6.248.376 9.312.067.459.17 1.715.866 1.736.788 0 .844-1.479.898-1.968a37.2 37.2 0 0 0 .074-4.706c-.053-1.875-.16-3.752-.28-5.623-.096-1.482-.21-2.96-.316-4.44a19.307 19.307 0 0 1-.06-2.172c.042-.955.113-2.124.67-2.943.089-.142.21-.26.355-.347.07-.031.142-.056.217-.073.074-.025.145 0 .078 0-.068 0-.036-.052-.018 0s0 0 .05.073c.126.27.214.554.262.847a26.95 26.95 0 0 1 .44 3.37c.288 3.22.419 6.455.582 9.683.075 1.44.146 2.884.245 4.328.035.913.131 1.824.287 2.725a.88.88 0 0 0 .249.569c.259.19.486-.042.571-.274a3.78 3.78 0 0 0 .146-.996c.039-.552.05-1.111.056-1.663.043-3.3-.085-6.594-.017-9.902a27.799 27.799 0 0 1 .28-4.102 3.15 3.15 0 0 1 .312-1.09.407.407 0 0 1 .075-.104c.021-.025.028-.025.028-.025s-.074-.062 0 .042c.384.555.54 1.558.678 2.29.263 1.42.44 2.86.607 4.297.355 3.055.593 6.12.965 9.174.092.76.117 1.645.408 2.37.103.25.316.441.59.25.22-.215.36-.498.397-.802.242-1.186.376-2.392.4-3.602.104-1.666.164-3.332.253-4.998.074-1.496.149-3.006.355-4.491.056-.488.16-.97.312-1.437.042-.12.094-.236.156-.347.043-.066.043-.052.07-.066-.035.017-.02-.021.03 0 .354.243.5.756.61 1.173.202.845.33 1.705.383 2.572a55.16 55.16 0 0 1 .082 6.632c-.04 1.042-.118 2.104-.192 3.155-.114 1.58-.114 3.166-.153 4.748-.013 1.602-.15 3.201-.408 4.783-.287 1.565-.876 3.027-1.37 4.533a15.027 15.027 0 0 0-.741 4.65c0 1.663.103 3.33.145 4.992.09 3.387.09 6.776 0 10.166a196.74 196.74 0 0 1-.486 9.812c-.025.347.508.347.532 0l.004.024zM38.231 111.553l5.657 1.387a.089.089 0 0 0 .11-.059.086.086 0 0 0-.06-.107l-5.675-1.387c-.11-.028-.159.142-.046.166h.014zM38.212 109.985a22.31 22.31 0 0 0 6.095 1.399c.112 0 .112-.151 0-.161a22.25 22.25 0 0 1-6.049-1.392c-.105-.039-.15.116-.046.154zM38.988 108.05l4.913 1.384a.086.086 0 0 0 .097-.066.091.091 0 0 0-.052-.108l-4.914-1.384a.086.086 0 0 0-.096.066.091.091 0 0 0 .052.108zM38.589 105.723a10.566 10.566 0 0 0 4.156 1.372c.115 0 .115-.181 0-.197a10.278 10.278 0 0 1-4.066-1.349c-.044-.027-.1-.01-.125.038a.105.105 0 0 0 .035.136zM38.584 103.347a9.15 9.15 0 0 0 3.769 1.019c.118 0 .118-.166 0-.169a8.975 8.975 0 0 1-3.68-.993.098.098 0 0 0-.118.035.081.081 0 0 0 .025.112l.004-.004zM38.983 101.415a7.618 7.618 0 0 0 2.589.612c.12 0 .12-.178 0-.182a7.345 7.345 0 0 1-2.496-.59c-.108-.044-.206.113-.093.16zM39.402 99.852c.6-.04 1.202.035 1.77.221.1.034.143-.117.042-.147a4.824 4.824 0 0 0-1.812-.228c-.105 0-.108.16 0 .154z" fill="#001A36"/>
    <path d="m50.978 67.16-2.176-1.382a.086.086 0 0 0-.111.035.089.089 0 0 0 .024.116l2.176 1.386c.094.06.18-.091.087-.154zM50.582 67.955l-3.322-1.397c-.108-.044-.199.101-.094.145l3.325 1.398c.105.044.196-.102.09-.146zM49.771 69.118l-4.494-1.008c-.046-.007-.091.019-.103.059-.013.04.011.082.055.097l4.513 1.011c.047.007.091-.018.104-.059.012-.04-.012-.082-.056-.097l-.019-.003zM49.394 71.016a18.328 18.328 0 0 0-3.742-.568c-.05 0-.092.048-.092.107s.041.106.092.106c1.243.06 2.48.248 3.694.564.114.03.161-.175.048-.205v-.004zM49.756 72.007a11.396 11.396 0 0 0-3.76.643c-.11.04 0 .17.093.13a11.179 11.179 0 0 1 3.667-.622c.051 0 .093-.034.093-.075 0-.042-.042-.076-.093-.076zM56.974 110.603a39.138 39.138 0 0 0 4.522-.992.095.095 0 0 0 .045-.109.09.09 0 0 0-.093-.067 38.247 38.247 0 0 1-4.519.996c-.11.018-.062.19.045.172zM57.756 109.042l3.727-.972c.109-.031.063-.219-.05-.192l-3.723.976c-.113.027-.063.216.046.188zM57.786 107.086l2.543-1.008c.11-.043 0-.188-.094-.144l-2.543 1.008c-.11.044 0 .191.094.144zM57.368 103.974l2.56-.612a.085.085 0 0 0 .054-.102.09.09 0 0 0-.1-.062l-2.56.612c-.115.024-.065.191.046.164zM57.795 102.007a2.34 2.34 0 0 1 2.087-.51c.104.026.148-.152.044-.177-.788-.195-1.613.008-2.252.554-.083.074.037.203.12.133zM57.793 100.029c.166-.424.561-.634.928-.493.095.043.136-.148.04-.186-.434-.166-.904.08-1.105.582-.021.046-.008.105.029.132.018.013.04.017.06.011a.084.084 0 0 0 .048-.046zM56.237 84.46a2.294 2.294 0 0 1 1.714-.58c.113 0 .113-.163 0-.17a2.464 2.464 0 0 0-1.838.63c-.081.075.043.194.124.12zM56.97 85.253a7 7 0 0 1 2.545-.199c.107 0 .107-.132 0-.144a7.114 7.114 0 0 0-2.59.21c-.103.03-.06.168.044.139v-.006zM57.351 86.421a4.563 4.563 0 0 1 1.776-.14c.105 0 .105-.184 0-.195a4.561 4.561 0 0 0-1.818.148c-.04.018-.06.068-.05.116.011.049.05.08.092.071zM91.926 50.407l-2.966-1.783a.087.087 0 0 0-.113.038.096.096 0 0 0 .025.121l2.948 1.769c.099.06.19-.1.092-.16l.014.015zM91.501 51.153l-2.168-.585c-.106-.03-.155.154-.048.185l2.172.589c.107.027.155-.158.044-.189zM91.456 52.142a6.328 6.328 0 0 1-2.149.12c-.11 0-.11.18 0 .196.734.084 1.474.04 2.197-.129.106-.023.061-.215-.048-.187zM91.1 53.688c-.907.08-1.79.295-2.611.634-.104.044 0 .176.09.133a8.606 8.606 0 0 1 2.51-.616c.114 0 .114-.167 0-.154l.01.003zM87.969 91.115a14.372 14.372 0 0 0-2.971.236c-.108.022-.063.17.049.148.96-.178 1.94-.255 2.922-.23.048 0 .087-.035.087-.077 0-.042-.04-.077-.087-.077zM87.943 92.676a22.047 22.047 0 0 1-4.501 1.019c-.113 0-.064.156.046.144a21.999 21.999 0 0 0 4.508-1.018c.106-.033.06-.181-.046-.145h-.007zM87.946 94.622l-2.945.6c-.112.023-.066.198.045.176l2.945-.602c.112-.021.066-.196-.045-.174zM87.967 96.57a13.582 13.582 0 0 0-4.937 1.403c-.102.05 0 .196.088.145a13.322 13.322 0 0 1 4.853-1.38c.113 0 .113-.179 0-.168h-.004zM88.36 98.52c-1.887.226-3.779.425-5.676.597-.115 0-.115.188 0 .181a178.09 178.09 0 0 0 5.676-.598c.112 0 .116-.195 0-.18zM87.956 100.079c-.703.151-1.426.235-2.154.251-.047 0-.086.031-.086.069 0 .038.039.069.086.069.743-.017 1.48-.103 2.199-.257.04-.013.063-.048.051-.082-.011-.034-.053-.056-.096-.05zM87.54 101.648l-1.394.608a.094.094 0 0 0-.03.12.085.085 0 0 0 .114.031l1.394-.612a.08.08 0 0 0 .04-.051.085.085 0 0 0-.01-.065.083.083 0 0 0-.113-.031z" fill="#001A36"/>
    <path d="M45.333 66.55c-1.108-.915-6.367-3.759-5.992-5.18a2.245 2.245 0 0 1 2.379-1.565 3.124 3.124 0 0 1 2.35 1.822s.351-2.712 1.404-3.348a2.405 2.405 0 0 1 3.199.8c.74 1.192.35 2.822-.41 3.994-.762 1.171-2.93 3.476-2.93 3.476zM61.51 81.626a1.601 1.601 0 0 1-.299-1.43c.126-.48.5-.85.97-.96.336-.052.679.02.968.203.48.377.908.82 1.27 1.318.373-.496.722-1.013 1.043-1.547a1.66 1.66 0 0 1 1.502-.965c.696.068 1.284.886 1.2 1.69a2.281 2.281 0 0 1-.622 1.28c-.313.357-2.532 2.837-2.887 4.048l-3.145-3.638zM82.904 39.008a.753.753 0 0 0-.362-.14.76.76 0 0 0-.33.096c-.75.359-1.348 1.151-1.127 1.913.057.176.134.345.232.505.688 1.229 2.689 3.725 2.689 3.725.413-.383 2.609-1.389 3.196-1.64a2.807 2.807 0 0 0 1.45-1.161c.34-.546.196-1.244-.338-1.632-.626-.58-3.294-.501-3.645.738-.037-.017-1.185-2.035-1.765-2.404z" fill="#7786FF"/>
</svg>
