<svg width="235" height="235" viewBox="0 0 235 235" xmlns="http://www.w3.org/2000/svg">
    <g transform="translate(21.15 31.333)" fill-rule="nonzero" fill="none">
        <path d="M80.835 5.52C64.37 10.078 50.94 12.457 36.22 21.15 21.5 29.843 16.465 49.449 8.46 64.508c-13.896 26.13-9.972 60.637 9.412 82.982 4.008 4.62 8.766 8.84 14.53 10.87 5.086 1.798 10.575 1.777 15.936 2.37 8.608.951 16.92 3.52 25.38 5.435a168.978 168.978 0 0 0 82.2-1.978c9.93-2.76 20.24-6.916 26.035-15.439 3.543-5.224 5.013-11.559 6.26-17.745 4.728-23.381 7.308-48.169-.612-70.662-1.82-5.171-4.23-10.268-8.143-14.128-3.12-3.099-7.033-5.288-10.575-7.783-11.315-7.932-19.437-19.585-30.202-28.204-10.766-8.619-26.438-13.832-38.187-6.588L80.835 5.52z" opacity=".1" fill="#7582FF"/>
        <path d="M65.956 151.91a56.048 56.048 0 0 0-27.749 1.544 5.721 5.721 0 0 0-2.495 1.332c-.889 1.005-.518 2.38.2 3.458 2.877 4.357 9.857 5.965 16.106 7.096a1514.656 1514.656 0 0 0 32.244 5.478c5.562.888 11.23 1.755 16.92 1.343 8.946-.656 32.666-3.606 35.88-3.289 12.754 1.259 23.572 3.553 34.137 1.248 1.893-.412-12.352-17.216-13.748-17.332-29.705-2.242-91.495-.878-91.495-.878z" fill="#D2D8FF"/>
        <path d="M87.836 50.305h.063a4.642 4.642 0 0 0 4.463-1.057c2.305-1.809 6.63-11.929 6.853-13.579.312-1.53 0-3.121-.867-4.42a6.853 6.853 0 0 0-4.505-2.622c-2.242-.603-4.653-1.206-6.462-.751-1.46.38-2.115 1.46-2.95 2.369-8.249 9.073-6.028 16.92-2.38 18.59a15.027 15.027 0 0 0 5.785 1.47z" fill="#FFF"/>
        <path d="M98.95 35.955a5.721 5.721 0 0 0-1.057-4.42c-1.237-1.523-3.881-2.982-5.764-2.771a3.521 3.521 0 0 0-2.115 1.058c-1.713 1.512-7.973 5.795-7.656 13.98-.037.476.006.955.127 1.417.252.64.61 1.233 1.058 1.755a8.523 8.523 0 0 0 3.912 3.077 4.991 4.991 0 0 0 4.685-.888c2.443-1.713 6.641-11.58 6.81-13.208z" fill="#D2D8FF"/>
        <path d="M99.627 35.532a6.557 6.557 0 0 0-2.802-6.345c-1.872-1.322-4.442-2.115-6.42-.603a24.63 24.63 0 0 0-6.566 7.265 15.662 15.662 0 0 0-1.862 6.673c-.209 1.34.04 2.711.709 3.892a11.981 11.981 0 0 0 2.517 2.844 5.69 5.69 0 0 0 6.62.677 9.158 9.158 0 0 0 3.014-3.405 51.48 51.48 0 0 0 3.172-6.345 18.718 18.718 0 0 0 1.586-4.441c.085-.603-.835-.868-.91-.254a13.525 13.525 0 0 1-.983 2.96 60.582 60.582 0 0 1-2.115 4.717c-1.31 2.633-3.077 6.81-6.62 6.736-2.4 0-4.98-2.379-5.869-4.547a8.27 8.27 0 0 1-.127-3.532c.12-1.155.379-2.291.772-3.384a18.75 18.75 0 0 1 5.69-7.772l1.184-1.058a3.405 3.405 0 0 1 3.585-.75 7.403 7.403 0 0 1 3.374 2.21 5.71 5.71 0 0 1 1.057 4.388c-.021.677.93.677.994.074z" fill="#231F20"/>
        <path d="M93.906 27.981c-2.718-.719-6.345-1.84-8.63.36a25.602 25.602 0 0 0-5.615 7.836c-1.596 3.564-2.368 8.545.519 11.707a5.425 5.425 0 0 0 2.051 1.385 14.985 14.985 0 0 0 5.69 1.375.476.476 0 0 0 0-.952 13.325 13.325 0 0 1-5.817-1.512 4.6 4.6 0 0 1-1.734-1.544 8.82 8.82 0 0 1-1.057-6.271 19.162 19.162 0 0 1 4.504-8.968c.984-1.184 2.063-2.813 3.607-3.246 1.956-.55 4.304.243 6.196.75a.477.477 0 1 0 .254-.92h.032z" fill="#231F20"/>
        <path d="M89.813 29.377a14.096 14.096 0 0 0-2.167-.624 18.919 18.919 0 0 0-2.2-.2.476.476 0 0 0 0 .951c.673.036 1.344.11 2.01.222.718.16 1.424.368 2.114.624a.486.486 0 0 0 .592-.328.497.497 0 0 0-.338-.592l-.01-.053zM87.9 31.122a15.313 15.313 0 0 0-1.745-.687c-.572-.18-1.143-.307-1.724-.465a.477.477 0 0 0-.254.92c.56.148 1.132.285 1.681.454.536.164 1.059.366 1.566.603a.486.486 0 0 0 .645-.17.476.476 0 0 0-.17-.655zM86.176 33.163a29.092 29.092 0 0 0-3.363-1.237.477.477 0 0 0-.254.92c.54.18 1.058.338 1.629.529.515.174 1.02.379 1.512.613.23.119.512.046.655-.17a.486.486 0 0 0-.18-.655zM84.251 35.839c-1.057-.423-2.03-.804-3.088-1.27a.476.476 0 0 0-.476.826c1.058.486 2.19.94 3.31 1.364.251.068.51-.078.582-.328a.497.497 0 0 0-.328-.592zM83.035 39.064l-1.555-.603-1.47-.624a.476.476 0 0 0-.696.528.465.465 0 0 0 .22.287c1.058.476 2.116.91 3.247 1.322a.476.476 0 0 0 .254-.91zM82.622 41.94a12.13 12.13 0 0 1-3.479-1.47c-.539-.296-1.057.53-.476.825a12.827 12.827 0 0 0 3.702 1.565.508.508 0 0 0 .592-.338.486.486 0 0 0-.339-.582zM82.675 44.7a31.799 31.799 0 0 1-3.362-1.342.476.476 0 0 0-.476.824 31.323 31.323 0 0 0 3.595 1.48.476.476 0 1 0 .254-.909l-.01-.052zM84.674 47.524a25.094 25.094 0 0 1-4.685-1.85c-.55-.286-1.057.539-.486.814a26.924 26.924 0 0 0 4.917 1.956.477.477 0 1 0 .254-.92z" fill="#231F20"/>
        <path d="M99.405 34.422a24.66 24.66 0 0 1-2.601-2.221 30.35 30.35 0 0 0-2.76-2.03.161.161 0 1 0-.17.274c.992.644 1.943 1.35 2.845 2.115a25.465 25.465 0 0 0 2.517 2.115c.18.117.338-.158.169-.275v.022zM99.225 35.722a5.171 5.171 0 0 1-1.195-1.057 24.82 24.82 0 0 0-1.174-1.185 23.265 23.265 0 0 0-2.738-2.115.161.161 0 0 0-.17.275 22.007 22.007 0 0 1 2.813 2.2c.392.37.762.75 1.121 1.153.34.409.74.765 1.185 1.057.169.106.327-.169.158-.264v-.064zM98.75 37.013c-.773-.561-1.397-1.29-2.116-1.915a21.626 21.626 0 0 0-2.305-1.744c-.17-.117-.328.158-.159.275a21.679 21.679 0 0 1 2.359 1.797c.65.656 1.335 1.278 2.051 1.861.17.117.328-.158.159-.274h.01zM98.083 38.07c-1.46-.878-2.654-2.115-4.23-2.876-.18-.085-.338.18-.158.275 1.533.74 2.728 1.998 4.23 2.876.169.106.327-.17.158-.275zM97.745 39.445a26.824 26.824 0 0 1-2.961-2.115c-.17-.127-.328.148-.159.275.952.73 1.946 1.417 2.961 2.115.17.105.328-.17.159-.275zM97.29 40.576a15.545 15.545 0 0 1-2.623-1.448c-.158-.117-.317.158-.158.274a15.545 15.545 0 0 0 2.58 1.46c.19.084.35-.19.159-.275l.042-.01zM96.36 41.644a12.584 12.584 0 0 0-1.64-1.057c-.18-.095-.338.18-.158.275.571.312 1.119.665 1.639 1.057.076.04.17.012.211-.063a.148.148 0 0 0 0-.212h-.053zM96.233 42.68l-1.058-.56a.18.18 0 0 0-.222.064.148.148 0 0 0 0 .211l1.057.56a.148.148 0 0 0 .212-.063.159.159 0 0 0 0-.211h.01zM95.609 43.506h-.18l-.254-.148-.085-.064-.148-.159a.17.17 0 0 0-.232 0 .159.159 0 0 0 0 .223c.232.263.532.457.867.56.084.02.17-.032.19-.116a.148.148 0 0 0-.106-.19l-.052-.106z" fill="#241F20"/>
        <path d="M36.664 89.454c4.113-3.955 6.545-9.295 9.4-14.255 2.856-4.96 6.504-9.877 11.834-11.929a43.6 43.6 0 0 0-28.404-5.107c-1.904.306-3.924.824-5.14 2.305-1.808 2.2-1.11 5.478-.127 8.143a60.087 60.087 0 0 0 11.305 18.908l1.132 1.935z" fill="#C7CDFF"/>
        <path d="M98.04 136.301v-.169h-1.585v.486c0 .106.02.21.063.307a.666.666 0 0 0 .17.254.645.645 0 0 0 .253.159c.094.05.2.076.307.074h.211a.825.825 0 0 0 .35-.201l.126-.159a.91.91 0 0 0 .106-.402v-.486a.603.603 0 0 0-.074-.307.518.518 0 0 0-.159-.254.571.571 0 0 0-.254-.169.518.518 0 0 0-.264-.074h-.211a.74.74 0 0 0-.35.212l-.126.158a.74.74 0 0 0-.106.402v.17c0 .105.021.21.063.306a.666.666 0 0 0 .17.254.645.645 0 0 0 .253.158c.095.05.2.076.307.074h.212a.73.73 0 0 0 .348-.2l.127-.16a.91.91 0 0 0 .106-.401l-.042-.032z" fill="#000"/>
        <path d="M119.952 128.603c1.058 4.98-.518 15.968-3.394 20.156a19.257 19.257 0 0 1-12.49 8.005c-2.4.412-5.16.243-6.863-1.512-1.871-1.946-1.734-5.002-1.47-7.688l.783-8.164c.17-1.798.465-3.807 1.914-4.875a6.26 6.26 0 0 1 2.898-.942c4.42-.634 18.622-4.98 18.622-4.98z" fill="#FFF"/>
        <path d="M119.498 128.73a27.157 27.157 0 0 1 0 7.91 39.223 39.223 0 0 1-1.788 8.46c-2.04 5.922-7.709 10.173-13.821 11.199a8.333 8.333 0 0 1-5.288-.561 5.425 5.425 0 0 1-2.559-4.642 28.13 28.13 0 0 1 .265-5.076c.19-2.045.384-4.086.581-6.123.159-1.618.254-3.66 1.555-4.823 1.057-.962 2.675-.962 4.029-1.226 2.115-.413 4.156-.963 6.207-1.523a311.78 311.78 0 0 0 11.347-3.278.476.476 0 0 0-.254-.91 375.318 375.318 0 0 1-11.484 3.31c-2.252.603-4.516 1.238-6.81 1.618-1.565.265-3.173.508-4.23 1.85a8.153 8.153 0 0 0-1.28 4.115c-.243 2.241-.433 4.494-.645 6.736a27.654 27.654 0 0 0-.233 5.911 6.155 6.155 0 0 0 5.753 5.69c6.409.666 13.875-3.913 16.72-9.581a30.985 30.985 0 0 0 2.664-9.772c.532-3.148.56-6.36.085-9.517-.01-.624-.93-.37-.814.232z" fill="#000"/>
        <path d="M99.965 134.303h19.987a.793.793 0 1 0 0-1.587H99.965a.793.793 0 1 0 0 1.587zM97.29 137.687h22.79a.793.793 0 1 0 0-1.587H97.29a.793.793 0 0 0 0 1.587z" fill="#000"/>
        <path d="M42.416 133.319a19.035 19.035 0 0 0 15.44 22.535c2.41.413 5.171.244 6.863-1.512 1.872-1.946 1.745-5.002 1.48-7.688l-.782-8.121c-.17-1.798-.465-3.807-1.914-4.876a6.25 6.25 0 0 0-2.898-.93 138.295 138.295 0 0 0-13.314-1.28l-4.875 1.872z" fill="#FFF"/>
        <path d="M41.962 133.245a19.818 19.818 0 0 0 4.441 16.75c3.522 4.009 9.518 7.276 14.985 6.473a5.943 5.943 0 0 0 5.097-4.315c.793-2.813.138-5.964-.127-8.809-.18-1.83-.317-3.659-.54-5.478a8.153 8.153 0 0 0-1.057-3.479c-1.565-2.474-5.404-2.326-7.984-2.622a120.709 120.709 0 0 0-6.176-.582c-1.237-.095-2.717-.455-3.891 0-1.502.55-2.972 1.163-4.452 1.745-.56.222-.318 1.142.254.92l3.172-1.259c.501-.242 1.02-.444 1.555-.602a14.964 14.964 0 0 1 3.807.2c3.246.244 6.524.55 9.75 1.058 1.575.264 2.887.825 3.51 2.39.396 1.254.62 2.556.667 3.87.285 2.983.698 5.996.825 8.99.105 2.685-.423 5.667-3.268 6.704-2.38.877-5.16.317-7.487-.487-8.82-3.003-14.049-12.077-12.225-21.213.17-.656-.74-.91-.856-.254z" fill="#000"/>
        <path d="M49.428 135.614h14.805a.159.159 0 1 0 0-.317H49.428a.159.159 0 0 0 0 .317z" fill="#000"/>
        <path d="M36.664 90.363c4.113-3.955 6.545-9.295 9.4-14.255 2.856-4.96 6.504-9.877 11.834-11.928a43.6 43.6 0 0 0-28.404-5.14c-1.904.307-3.924.825-5.14 2.306-1.808 2.2-1.11 5.467-.127 8.142 2.56 6.938 12.437 20.875 12.437 20.875z" fill="#C7CDFF"/>
        <path d="M23.783 65.09c-.846-1.28.571-3.65 1.809-4.538 6.345-4.536 26.606-2.421 34.485 2.718-3.078.857-12.405 7.075-12.585 6.906-10.099-9.624-23.709-5.087-23.709-5.087z" fill="#FFF"/>
        <path d="M24.185 64.846c-.92-1.766 1.3-3.807 2.707-4.516a14.54 14.54 0 0 1 3.606-1.173 38.07 38.07 0 0 1 10.047-.519c6.419.37 13.747 1.513 19.288 5.045l.117-.867a32.486 32.486 0 0 0-7.075 3.648c-1.216.719-2.411 1.46-3.617 2.189-.401.243-.803.497-1.216.73a1.47 1.47 0 0 1-.433.243c-.466.074.148 0-.074-.085-.73-.412-1.365-1.184-2.115-1.681a20.78 20.78 0 0 0-2.866-1.756 22.916 22.916 0 0 0-5.044-1.86 26.84 26.84 0 0 0-9.19-.53c-1.59.142-3.16.45-4.685.92-.581.19-.338 1.058.254.91a25.253 25.253 0 0 1 13.039-.455 21.15 21.15 0 0 1 8.037 3.649c.48.328.942.681 1.385 1.057.254.222.645.772 1.058.846.412.074 1.057-.37 1.406-.592 1.058-.624 2.115-1.28 3.173-1.914 2.58-1.565 5.287-3.532 8.27-4.389a.476.476 0 0 0 .105-.867c-4.759-3.056-10.797-4.23-16.317-4.886-5.52-.655-11.78-.983-16.91 1.227-2.115.91-5.128 3.543-3.764 6.155.285.497 1.1.02.814-.53z" fill="#000"/>
        <path d="M135.36 128.603c1.005 4.98-.529 15.968-3.395 20.156a19.278 19.278 0 0 1-12.467 8.005c-2.401.412-5.172.243-6.864-1.512-1.871-1.946-1.734-5.002-1.48-7.688l.782-8.164c.18-1.798.466-3.807 1.925-4.875a6.26 6.26 0 0 1 2.898-.942c4.41-.634 18.601-4.98 18.601-4.98z" fill="#FFF"/>
        <path d="M134.926 128.73a27.157 27.157 0 0 1 0 7.91 38.599 38.599 0 0 1-1.787 8.46c-2.03 5.922-7.698 10.173-13.81 11.199a8.365 8.365 0 0 1-5.288-.561 5.457 5.457 0 0 1-2.56-4.642 30.202 30.202 0 0 1 .265-5.076c.201-2.041.391-4.082.592-6.123.159-1.618.243-3.66 1.555-4.823 1.057-.962 2.675-.962 4.029-1.226 2.115-.413 4.156-.963 6.207-1.523a320.18 320.18 0 0 0 11.347-3.278.476.476 0 0 0-.253-.91 394.14 394.14 0 0 1-11.495 3.31c-2.242.603-4.505 1.238-6.8 1.618-1.576.265-3.173.508-4.177 1.85a8.058 8.058 0 0 0-1.28 4.115c-.243 2.241-.433 4.494-.656 6.736a27.654 27.654 0 0 0-.222 5.911 6.155 6.155 0 0 0 5.753 5.69c6.409.666 13.864-3.913 16.72-9.581a30.964 30.964 0 0 0 2.654-9.772c.537-3.147.565-6.36.084-9.517-.084-.624-.994-.37-.878.232z" fill="#000"/>
        <path d="M28.764 98.506a26.1 26.1 0 0 0-5.615 6.292 18.453 18.453 0 0 0-2.306 10.575 16.92 16.92 0 0 0 1.84 7.456c1.914 3.51 5.436 5.816 8.936 7.74 11.442 6.293 24.756 7.181 32.085 17.978 1.956 2.898.38 9.21 2.718 11.802 2.337 2.59 11.199 3.796 14.52 2.718 4.6-1.492 4.23-6.176 7.254-9.983 4.23-5.351 11.272-6.546 17.903-8.122 6.028-1.438 12.426-2.675 17.47-6.27 9.094-6.473 27.23-20.093 19.553-47.155-.878-3.088-2.675-5.848-3.69-8.883-1.83-5.499-1.502-11.442-1.143-17.226-4.23 0-6.524 6.165-10.776 6.186-2.2 0-3.986-1.66-5.615-3.173-8.682-7.867-21.15-9.877-32.782-10.66-5.848-.338-26.163 1.439-39.022 10.957-12.86 9.517-12.7 22.662-21.33 29.768z" fill="#FFF"/>
        <path d="M28.426 98.168c-3.575 2.992-6.641 6.725-7.636 11.368a20.748 20.748 0 0 0 1.27 13.134c1.977 3.955 5.9 6.472 9.665 8.46a91.537 91.537 0 0 0 11.484 4.886 76.045 76.045 0 0 1 11.432 4.96 29.187 29.187 0 0 1 5.108 3.69c1.6 1.32 2.925 2.94 3.902 4.77 1.417 3.172.17 7.042 1.755 10.215 1.312 2.612 5.024 3.373 7.614 3.828 2.834.497 6.345.93 9.01-.37 3.279-1.586 3.892-5.383 5.552-8.27 2.274-3.976 6.44-6.123 10.66-7.402 4.22-1.28 8.809-2.115 13.197-3.257a37.076 37.076 0 0 0 12.69-5.288c1.851-1.322 3.67-2.675 5.425-4.124a47.651 47.651 0 0 0 11.263-12.944 36.367 36.367 0 0 0 4.558-20.42 38.927 38.927 0 0 0-2.76-12.69 60.013 60.013 0 0 1-3.025-7.286 32.433 32.433 0 0 1-1.057-8.196c0-2.58.116-5.171.274-7.752a.497.497 0 0 0-.475-.475c-3.881.137-5.669 4.092-8.83 5.689-2.824 1.428-5.203-.698-7.234-2.496a33.46 33.46 0 0 0-5.784-4.166c-8.333-4.727-18.612-6.345-28.088-6.673a71.381 71.381 0 0 0-21.213 3.035c-9.084 2.559-17.978 6.831-23.952 14.382a65.438 65.438 0 0 0-7.202 12.362c-1.977 4.05-4.092 8.09-7.603 11.03-.466.402.211 1.057.676.677 6.187-5.193 8.28-13.526 12.458-20.156 5.372-8.545 13.874-13.632 23.265-16.667a75.96 75.96 0 0 1 22.207-3.764c4.3.045 8.589.463 12.817 1.248a50.76 50.76 0 0 1 14.594 4.526 33.216 33.216 0 0 1 7.201 4.938c1.777 1.586 3.818 3.416 6.345 3.088 4.23-.518 5.922-5.996 10.195-6.144l-.476-.476c-.296 4.854-.582 9.782.412 14.562.994 4.78 3.797 8.883 4.95 13.62a38.567 38.567 0 0 1-.73 22.705 40.185 40.185 0 0 1-10.068 14.805c-3.807 3.648-8.322 7.403-13.155 9.602-8.048 3.606-17.311 3.617-25.253 7.403a16.01 16.01 0 0 0-7.826 7.698c-1.47 3.173-2.517 6.557-6.482 7.075a21.964 21.964 0 0 1-10.015-1.237 5.52 5.52 0 0 1-3.31-2.443c-.814-1.66-.772-3.69-.888-5.51a13.747 13.747 0 0 0-.835-4.61 15.228 15.228 0 0 0-3.173-4.167 31.588 31.588 0 0 0-9.18-6.271c-7.317-3.48-15.301-5.425-22.28-9.655-4.167-2.538-7.403-5.848-8.26-10.818-.835-4.812-.264-10.004 2.56-14.086a26.755 26.755 0 0 1 4.927-5.288c.508-.37-.211-1.047-.676-.655z" fill="#000"/>
        <path d="M62.202 71.466c.465 12.108 7.403 23.561 17.375 30.371.19-3.5-1.29-6.197-1.629-9.676a23.265 23.265 0 0 0-.983-5.287 28.214 28.214 0 0 0-3.997-7.075c-2.634-3.744-5.806-7.815-10.353-8.323l-.413-.01zM22.208 114.696c-.31 3.192.669 6.374 2.717 8.841a7.699 7.699 0 0 0 7.18 2.306 4.759 4.759 0 0 0 2.116-.952c1.406-1.174 2.115-3.437 2.263-5.552.624-6.472-2.263-13.97-6.959-14.88-4.695-.909-6.725.667-7.317 10.237z" fill="#C7CDFF"/>
        <path d="M75.02 82.348a41.983 41.983 0 0 1 2.95 9.76c.697 3.173 1.374 5.16 2.114 8.365a16.994 16.994 0 0 0 6.737-10.85c.888-4.642.624-9.412.328-14.128a6.144 6.144 0 0 0-.55-2.527 5.51 5.51 0 0 0-3.786-2.274c-6.461-1.544-13.24-.434-19.797.677 0-.053 9.529 5.932 12.003 10.977z" fill="#FFF"/>
        <path d="M74.607 82.59a42.163 42.163 0 0 1 2.855 9.402c.634 2.887 1.48 5.721 2.115 8.608a.486.486 0 0 0 .793.211 18.58 18.58 0 0 0 5.763-7.233A28.278 28.278 0 0 0 87.9 82.845c0-2.115-.084-4.23-.211-6.345-.095-1.555-.074-3.31-1.184-4.537a7.212 7.212 0 0 0-3.807-1.85 30.244 30.244 0 0 0-5.774-.71 71.973 71.973 0 0 0-14.033 1.45c-.423.074-.423.676-.106.877a58.088 58.088 0 0 1 4.97 3.543c2.57 2.04 5.34 4.346 6.853 7.318.285.54 1.057.063.824-.487-1.554-3.035-4.367-5.414-7-7.497a61.335 61.335 0 0 0-5.171-3.702l-.117.868a68.283 68.283 0 0 1 14.277-1.386c2.154.046 4.291.402 6.345 1.058a3.786 3.786 0 0 1 2.664 2.443c.24 1.208.354 2.437.339 3.67.243 4.493.391 9.178-.804 13.556a17.332 17.332 0 0 1-6.345 9.052l.804.212c-.677-3.046-1.555-6.038-2.22-9.084a41.993 41.993 0 0 0-2.846-9.158c-.19-.582-1.015-.095-.75.455z" fill="#000"/>
        <ellipse fill="#000" cx="45.102" cy="95.027" rx="1.364" ry="2.718"/>
        <ellipse fill="#000" cx="29.568" cy="115.215" rx="1.026" ry="2.041"/>
        <ellipse fill="#000" cx="26.163" cy="113.861" rx="1.026" ry="2.041"/>
        <ellipse fill="#000" cx="40.111" cy="92.764" rx="1.364" ry="2.718"/>
        <path d="m101.806 68.653-11.633-2.38c-.708 3.332-.857 21.796-.529 25.19.289 2.13.854 4.214 1.682 6.197l4.113 11.263a31.566 31.566 0 0 0 3.966 8.163c2.327 3.173 5.658 5.108 8.936 6.97a300.055 300.055 0 0 0 10.215 5.53 7.913 7.913 0 0 0 4.347 1.259c3.754-.402 5.17-5.447 7.846-8.323 2.676-2.876 7.086-3.86 8.873-7.477 2.22-4.505-.973-9.845-1.174-14.953-.074-2.03.338-4.103 0-6.09a14.54 14.54 0 0 0-2.654-5.394c-3.786-5.53-7.741-11.009-12.606-15.45-4.864-4.442-14.985-6.44-21.308-7.16-.074 0 3.013 3.014-.074 2.655z" opacity=".28" fill="#C7CDFF"/>
        <path d="M78.932 67.12a46.773 46.773 0 0 1 12.975-.223c2.91.301 5.78.918 8.556 1.84.782.265 1.67.794 2.506.455a1.491 1.491 0 0 0 .888-1.66c-.264-1.597-2.58-2.253-3.85-2.686a34.252 34.252 0 0 0-7.55-1.64 49.703 49.703 0 0 0-12.986.244c-1.205.19-2.781.54-3.056 1.956-.275 1.417 1.29 2.01 2.517 1.756.603-.127.349-1.058-.254-.92-.603.137-1.248.127-1.343-.487-.127-.782 1.057-1.131 1.576-1.247a24.925 24.925 0 0 1 3.574-.498 50.126 50.126 0 0 1 10.977.212 33.84 33.84 0 0 1 6.144 1.417 15.09 15.09 0 0 1 2.231.888c.331.153.63.368.878.635.592.804 0 1.057-.761 1.057a5.013 5.013 0 0 1-.984-.36 43.738 43.738 0 0 0-11.897-2.114 46.044 46.044 0 0 0-10.374.476c-.624.084-.36 1.004.233.899zM142.593 89.888h-4.473a.159.159 0 0 0 0 .317h4.473a.159.159 0 0 0 0-.317zM143.693 92.584h-5.573a.159.159 0 0 0 0 .317h5.573a.159.159 0 0 0 0-.317zM144.285 95.038H134.24a.159.159 0 0 0 0 .317h10.046a.159.159 0 0 0 0-.317zM144.952 97.65h-10.713a.159.159 0 0 0 0 .317h10.713a.159.159 0 0 0 0-.317zM144.698 100.463h-12.405a.159.159 0 0 0 0 .317h12.405a.159.159 0 0 0 0-.317zM144.529 108.923h-18.2v.317h.814a.159.159 0 1 0 0-.317h-.814a.159.159 0 0 0 0 .317h18.2a.159.159 0 1 0 0-.317zM144.952 103.149h-8.059c-2.665 0-5.287.074-7.994-.18-.201 0-.201.306 0 .317 2.654.254 5.287.17 7.994.18h8.059a.159.159 0 0 0 0-.317zM145.205 106.004h-18.062a.159.159 0 0 0 0 .317h18.062a.159.159 0 0 0 0-.317zM144.444 111.915h-14.371a.159.159 0 0 0 0 .317h14.424a.159.159 0 1 0 0-.317h-.053zM143.1 114.538h-9.517a.159.159 0 1 0 0 .317h9.518a.159.159 0 0 0 0-.317zM142.678 117.573h-7.096a.159.159 0 0 0 0 .317h7.096a.159.159 0 0 0 0-.317zM141.409 120.016h-5.15a.159.159 0 0 0 0 .317h5.15a.159.159 0 0 0 0-.317zM135.275 127.471l-.507.497a.613.613 0 0 0-.159.264.582.582 0 0 0-.074.297.603.603 0 0 0 .074.306c.03.1.084.191.159.265l.169.116a.73.73 0 0 0 .391.106h.212a.93.93 0 0 0 .36-.201l.496-.508a.54.54 0 0 0 .17-.264.476.476 0 0 0 .063-.296.508.508 0 0 0-.063-.307.476.476 0 0 0-.17-.254l-.158-.127a.74.74 0 0 0-.402-.105h-.212a.867.867 0 0 0-.349.211zM81.903 99.743H87.9a.159.159 0 0 0 0-.317h-5.996a.159.159 0 1 0 0 .317zM83.934 97.036h8.069a.159.159 0 0 0 0-.317h-8.07a.159.159 0 0 0 0 .317zM85.827 94.562a26.691 26.691 0 0 1 5.287-.201c.201 0 .201-.307 0-.318a27.558 27.558 0 0 0-5.361.212c-.201 0-.117.338.084.307h-.01zM80.476 102.694h4.896a.159.159 0 0 0 0-.317h-4.896a.159.159 0 0 0 0 .317zM80.814 105.147h2.528a.159.159 0 0 0 0-.317h-2.528a.159.159 0 0 0 0 .317zM80.983 107.336h1.259a.159.159 0 0 0 0-.317h-1.259a.159.159 0 0 0 0 .317zM86.884 91.728h3.004a.159.159 0 0 0 0-.318h-2.961a.159.159 0 0 0 0 .318h-.043zM57.105 141.557l5.911 5.911c.148.148.37-.084.223-.222l-5.912-5.911c-.137-.148-.37.084-.222.222zM87.16 153.433l-5.542-1.872-.783-.264c-.19-.064-.275.243-.084.306l5.53 1.872.794.264c.19.064.275-.243.084-.306zM88.365 152.1l-4.822-2.464-.677-.338c-.18-.095-.339.18-.159.275l4.812 2.453.666.35c.18.084.349-.191.159-.276h.02zM89.76 150.165l-5.414-4.177-.782-.592c-.159-.127-.318.148-.159.264l5.425 4.177.783.603c.158.127.317-.148.158-.275h-.01zM92.066 148.685l-7-5.404-1.058-.772c-.159-.117-.317.158-.159.275l7.096 5.403 1.058.772c.158.127.317-.148.158-.274h-.095zM94.35 146.993l-7.889-7.012-1.057-.983c-.159-.127-.381.095-.233.232l7.889 7.001 1.11.984c.148.137.37-.085.222-.222h-.042zM97.29 146.104l-6.345-5.911-.888-.825c-.148-.138-.37.085-.222.222l6.345 5.911.877.825c.148.138.37-.084.222-.222h.011zM99.532 145.565l-5.108-6.641-.73-.952c-.126-.159-.401 0-.274.159l5.107 6.64.73.953c.116.158.391 0 .275-.16zM102.006 144.476l-3.658-5.817-.519-.814c-.105-.17-.38 0-.275.159l3.691 5.816.518.814c.106.17.38 0 .275-.158h-.032zM104.989 144.158l-3.48-5.287-.497-.772c-.105-.17-.38 0-.275.159l3.48 5.287.497.761c.116.17.39 0 .275-.158v.01zM107.453 143.82l-2.782-4.653-.401-.656c-.106-.169-.381 0-.275.159l2.791 4.653.392.666a.161.161 0 0 0 .275-.169zM110.435 143.344l-2.19-3.394-.317-.487c-.105-.17-.38 0-.264.159l2.19 3.394.306.487c.116.169.391 0 .275-.159zM113.153 142.583l-2.01-1.83-.285-.264c-.148-.127-.37.095-.222.233l2.009 1.818.285.265c.148.137.381-.085.223-.222zM115.183 142.022l-1.618-1.374-.222-.19a.159.159 0 0 0-.222 0 .148.148 0 0 0 0 .221l1.607 1.354.233.19a.159.159 0 0 0 .222-.222v.021zM117.383 140.648l-1.45-.794-.2-.116c-.18-.095-.35.18-.17.275l1.45.804.21.105c.17.106.34-.169.16-.274zM52.812 139.653a.159.159 0 1 0 0-.317.159.159 0 0 0 0 .317zM64.613 149.943a.159.159 0 1 0 0-.317.159.159 0 0 0 0 .317zM65.057 152.47a.159.159 0 1 0 0-.317.159.159 0 0 0 0 .317zM44.214 136.09a7.74 7.74 0 0 0 4.019-2.887c.126-.17-.148-.328-.265-.159a7.403 7.403 0 0 1-3.839 2.739c-.19.063-.116.37.085.307zM47.83 137.327a8.968 8.968 0 0 0 4.136-3.955c.095-.19-.18-.35-.275-.17a8.566 8.566 0 0 1-4.03 3.85c-.18.085 0 .36.17.275zM50.993 138.533c.053.412.592.232.793.052.428-.382.83-.792 1.205-1.226a22.007 22.007 0 0 0 2.115-2.718c.117-.17-.158-.328-.275-.159a21.615 21.615 0 0 1-1.734 2.284c-.307.36-.634.698-.962 1.058l-.497.486a.592.592 0 0 1-.212.148c-.063 0-.127.053-.127 0 0-.052-.338-.116-.306.085v-.01zM54.927 140.711a14.625 14.625 0 0 0 4.663-4.79c.116-.17-.158-.328-.264-.16a14.467 14.467 0 0 1-4.558 4.675c-.17.106 0 .38.159.275z" fill="#000"/>
        <path d="M58.744 142.763a.349.349 0 0 0 .423.306c.28-.072.533-.223.73-.433a13.642 13.642 0 0 0 4.018-5.447c.074-.19-.232-.264-.306-.084a13.356 13.356 0 0 1-1.925 3.268c-.377.469-.783.914-1.216 1.332a18.95 18.95 0 0 1-.688.613l-.38.307s-.328.19-.339.138c-.01-.053-.338-.201-.317 0zM61.78 144.613a21.51 21.51 0 0 0 3.605-4.78c.095-.18-.18-.338-.275-.169a20.441 20.441 0 0 1-3.553 4.727c-.148.138.074.36.222.222zM63.228 146.823a13.747 13.747 0 0 0 4.79-6.07c.085-.19-.222-.275-.306-.084a13.483 13.483 0 0 1-4.643 5.88c-.169.116 0 .39.159.274zM64.994 148.536a9.338 9.338 0 0 0 3.352-3.003c.117-.169-.158-.328-.275-.158a9.031 9.031 0 0 1-3.236 2.887c-.18.095 0 .37.159.274z" fill="#000"/>
        <path d="m142.7 160.254-20.865-92.066-3.004.91 1.883 6.725-7.477 2.95-1.406-7.995-3.29.783 19.036 94.403 3.913-1.385-1.777-9.687 7.149-3.543 1.998 10.808 3.84-1.903zm-28.004-77.43 7.191-2.888 2.316 9.391-7.296 3.173-2.21-9.677zm3.173 14.804c1.999-1.184 5.097-1.998 7.191-2.887a90.067 90.067 0 0 1 2.326 9.391l-7.296 3.173-2.221-9.677zm2.686 14.467c1.999-1.184 5.087-1.988 7.191-2.876a90.184 90.184 0 0 1 2.316 9.39l-7.297 3.173c-.095-2.284-2.21-9.687-2.21-9.687zm5.14 24.206c-.117-2.39-2.21-9.729-2.21-9.729 1.987-1.184 5.086-1.988 7.19-2.876a93.06 93.06 0 0 1 2.316 9.39l-7.297 3.215zm2.96 14.54c-.116-2.39-2.21-9.728-2.21-9.728 1.999-1.185 5.087-1.988 7.191-2.877a87.444 87.444 0 0 1 2.316 9.391l-7.297 3.215z" fill="#FFF"/>
        <path d="m143.154 160.127-2.115-9.137-4.928-21.975-6.038-26.66-5.203-22.958-1.714-7.55a26.438 26.438 0 0 0-.824-3.628.698.698 0 0 1 0-.158.486.486 0 0 0-.593-.328l-3.003.91a.476.476 0 0 0-.338.581l1.893 6.726.327-.593-7.465 2.961.592.328-1.407-7.994a.497.497 0 0 0-.592-.328l-3.289.772a.497.497 0 0 0-.338.592l1.861 9.422 4.537 22.525 5.488 27.21 4.78 23.613 1.565 7.794a26.84 26.84 0 0 0 .74 3.67.994.994 0 0 1 0 .169.465.465 0 0 0 .582.338l3.913-1.396a.476.476 0 0 0 .328-.581l-1.777-9.687-.212.54 7.15-3.543-.699-.286 1.988 10.808a.497.497 0 0 0 .698.285l3.85-1.903c.539-.275.063-1.058-.487-.825l-3.839 1.904.698.285-1.967-10.807a.486.486 0 0 0-.698-.286l-7.148 3.543a.476.476 0 0 0-.212.539l1.777 9.687.328-.582-3.913 1.385.582.328-1.893-9.422-4.526-22.493-5.489-27.21-4.77-23.645-1.564-7.794-.487-2.4a4.59 4.59 0 0 0-.264-1.27.952.952 0 0 1 0-.169l-.328.582 3.289-.772-.582-.339 1.407 7.995c.072.25.328.4.581.338l7.477-2.96c.25-.073.4-.329.338-.582l-1.893-6.726-.338.592 3.014-.92-.582-.327 2.115 9.136 4.97 21.943 6.05 26.692 5.202 22.958 1.703 7.55c.19 1.228.465 2.44.825 3.628a.698.698 0 0 1 0 .158c.084.593 1.004.36.867-.253z" fill="#000"/>
        <path d="m114.823 83.278 7.191-2.887-.581-.328 2.295 9.39.222-.538-7.308 3.172.709.286-2.221-9.719c-.137-.603-1.057-.349-.92.254l2.22 9.718a.486.486 0 0 0 .699.286l7.296-3.173a.497.497 0 0 0 .223-.539l-2.327-9.39a.486.486 0 0 0-.582-.339l-7.19 2.887c-.54.233-.339 1.185.274.92zM118.08 98.062a20.653 20.653 0 0 1 3.543-1.544l1.808-.634.9-.328a3.68 3.68 0 0 1 .708-.318l-.339-.137c-.074-.063 0-.074 0 0 .019.084.047.166.085.243.085.265.159.54.233.804.232.846.444 1.702.655 2.548.455 1.872.9 3.744 1.259 5.626l.222-.539-7.297 3.173.698.285-2.21-9.718c-.138-.603-1.058-.35-.92.253l2.21 9.719a.486.486 0 0 0 .698.285l7.297-3.172a.476.476 0 0 0 .222-.54c-.55-2.908-1.227-5.837-2.115-8.681a3.098 3.098 0 0 0-.286-.815c-.2-.275-.433-.254-.719-.158-.465.158-.92.36-1.385.528a33.977 33.977 0 0 0-5.753 2.337.476.476 0 0 0 .486.783zM120.83 112.518a21.467 21.467 0 0 1 3.543-1.533c.602-.222 1.205-.423 1.808-.635l.899-.338c.158 0 .592-.328.708-.307l-.328-.137c-.074-.074 0-.085 0 0 .022.083.05.164.085.243.085.275.159.54.233.814.232.846.444 1.692.655 2.549.466 1.86.91 3.733 1.27 5.626l.21-.54-7.296 3.173.72.412c-.2-1.97-.586-3.918-1.153-5.816-.339-1.354-.698-2.697-1.058-4.04a.477.477 0 0 0-.92.254c.374 1.297.726 2.598 1.058 3.902a30.107 30.107 0 0 1 1.152 5.7.486.486 0 0 0 .72.413l7.296-3.173a.476.476 0 0 0 .212-.54c-.55-2.918-1.227-5.837-2.115-8.692a2.697 2.697 0 0 0-.286-.804c-.19-.285-.423-.264-.708-.158-.466.158-.92.36-1.386.529a34.083 34.083 0 0 0-5.763 2.337.476.476 0 0 0 .444.761zM126.213 136.312c-.2-1.971-.586-3.919-1.153-5.816a251.201 251.201 0 0 0-1.058-4.04l-.222.54a21.467 21.467 0 0 1 3.543-1.534l1.808-.635.9-.338c.158-.053.591-.328.708-.307l-.328-.137c-.074-.074-.053-.085-.053-.053.022.083.05.164.085.243.084.275.158.54.232.814.233.846.444 1.692.656 2.549.465 1.861.91 3.733 1.269 5.626l.211-.54-7.296 3.173c-.56.243-.074 1.058.486.825l7.297-3.173a.476.476 0 0 0 .211-.539 91.024 91.024 0 0 0-2.062-8.693 3.035 3.035 0 0 0-.285-.803c-.19-.286-.423-.265-.709-.159-.465.159-.92.36-1.385.529a34.083 34.083 0 0 0-5.763 2.337.476.476 0 0 0-.223.529c.367 1.304.72 2.605 1.058 3.902.562 1.86.948 3.768 1.153 5.7 0 .603.951.613.92 0zM129.174 150.852a31.27 31.27 0 0 0-1.142-5.816c-.35-1.353-.709-2.696-1.058-4.04l-.211.54a21.35 21.35 0 0 1 3.532-1.534c.602-.222 1.216-.423 1.808-.645l.91-.327c.147-.053.581-.328.708-.307l-.339-.138c-.074-.074 0-.084 0-.052a.93.93 0 0 0 .075.243c.084.275.158.54.232.814.233.846.455 1.692.666 2.549.455 1.86.9 3.733 1.259 5.625l.222-.539-7.307 3.173c-.55.243-.074 1.057.486.825l7.297-3.173a.497.497 0 0 0 .222-.54c-.56-2.918-1.237-5.837-2.115-8.692a2.697 2.697 0 0 0-.286-.804c-.19-.285-.423-.264-.708-.158-.466.158-.92.36-1.386.518a35.035 35.035 0 0 0-5.763 2.348.476.476 0 0 0-.222.528c.37 1.301.72 2.591 1.058 3.902a30.107 30.107 0 0 1 1.152 5.7c-.01.603.941.614.91 0z" fill="#000"/>
        <path d="M132.008 34.422c0-.17-.55-.36-.825-.127-.508.444-1.608 2.03-1.84 2.189a.677.677 0 0 1-.804 0c-.165-.517-.299-1.043-.402-1.576 0-.085-.55-.497-.645.138 0 .275.074 2.58.117 2.94-.005.283.053.565.169.824a1.3 1.3 0 0 0 .624.455c.32.137.65.257.983.36a.54.54 0 0 0 .317 0 .486.486 0 0 0 .222-.19c.223-.307 2.2-4.22 2.084-5.013z" fill="#FFF"/>
        <path d="M132.388 34.316a.93.93 0 0 0-1.057-.497c-.342.127-.635.36-.835.666-.455.54-.878 1.058-1.333 1.65 0 0 .095 0 0 0a.941.941 0 0 1-.233 0s0 .106 0 0a.814.814 0 0 0-.063-.254c-.053-.212-.085-.412-.138-.624a2.295 2.295 0 0 0-.18-.666.857.857 0 0 0-.845-.38.825.825 0 0 0-.54.835c-.031.63-.031 1.262 0 1.892v.857c-.025.47.118.935.402 1.311.434.364.95.618 1.502.74a.92.92 0 0 0 1.195-.338c.234-.39.446-.792.634-1.205.36-.74.698-1.491 1.005-2.253.139-.328.259-.663.36-1.004.08-.235.12-.482.116-.73a.412.412 0 0 0-.402-.391.38.38 0 0 0-.391.39c.005.064.005.128 0 .191a.423.423 0 1 0 0 .053c.003.06.003.12 0 .18a8.876 8.876 0 0 1-.222.698 27.536 27.536 0 0 1-.74 1.734c-.265.571-.476 1.058-.73 1.491-.074.138-.148.286-.233.413v.053c-.116.169 0 0 0 0a1.406 1.406 0 0 1-.36-.106l-.444-.17a1.755 1.755 0 0 1-.56-.285.73.73 0 0 1-.19-.55v-.677c0-.624-.074-1.248-.085-1.871v-.53c0-.137 0-.073-.074 0-.074.075-.064 0-.064 0 .085.064 0 0 .053 0a.529.529 0 0 1 0 .128c.096.391.159.782.265 1.163a.804.804 0 0 0 .719.634c.782.096 1.195-.645 1.607-1.173.243-.307.487-.614.74-.91.082-.12.182-.227.297-.317h.116c.137 0 .127.106.074-.053.021.603.793.391.634-.095z" fill="#000"/>
        <path d="M117.552 52.79a1.83 1.83 0 0 0 .793-1.723c-.148-1.005-1.121-1.682-1.65-2.57a5.71 5.71 0 0 1-.624-2.01c-.232-1.5-.899-5.89.91-7.656 1.808-1.766 6.228-2.368 7.74 1.957a7.603 7.603 0 0 1-.518 6.546c-.465.708-1.057 1.29-1.618 1.967a2.855 2.855 0 0 0-.666 2.347c.127.476.413 1.058 0 1.386a.857.857 0 0 1-.412.211c-.772.254-3.955-.455-3.955-.455z" fill="#FFF"/>
        <path d="M117.753 53.14a2.348 2.348 0 0 0 .317-3.522 6.969 6.969 0 0 1-1.364-2.115 11.632 11.632 0 0 1-.35-1.808c-.295-2.115-.718-5.563 1.354-6.98a4.357 4.357 0 0 1 5.89.74 7.307 7.307 0 0 1 1.185 4.96 5.975 5.975 0 0 1-.75 2.464 24.323 24.323 0 0 1-1.788 2.263 3.342 3.342 0 0 0-.75 2.432c.063.434.517 1.058 0 1.333-.217.047-.44.047-.656 0a18.485 18.485 0 0 1-3.173-.487c-.497-.105-.708.656-.211.762.986.229 1.985.395 2.992.497.52.092 1.054.037 1.544-.159.688-.36.582-1.057.402-1.692-.349-1.28.423-2.21 1.227-3.172a7.519 7.519 0 0 0 1.49-2.263 8.26 8.26 0 0 0 .107-5.436 5.171 5.171 0 0 0-8.556-2.4 5.732 5.732 0 0 0-1.269 3.711c-.05 1.435.052 2.87.307 4.283a5.594 5.594 0 0 0 1.153 2.781c.708.878 1.798 2.115.507 3.078-.412.338.022 1.025.392.73z" fill="#000"/>
        <path d="m114.908 39.128.349 3.172a17.438 17.438 0 0 0 3.585 6.43c.28.417.64.776 1.057 1.057a1.925 1.925 0 0 0 2.115-.2c.2-.211.415-.406.645-.582.34-.153.694-.27 1.058-.35a3.003 3.003 0 0 0 1.64-1.882c.602-2.034.646-4.193.126-6.25a4.79 4.79 0 0 0-.582-1.702c-.295-.439-.69-.801-1.152-1.058-4.58-2.654-8.841 1.365-8.841 1.365z" fill="#000"/>
        <path d="M130.073 51.595c-2.115 6.779-3.691 6.345-3.829 13.357a15.725 15.725 0 0 1-.528 5.287c-4.167-.074-6.705 0-10.871-.074-1.206 0-2.782-10.099-3.173-13.578-.307-2.855-8.312-17.629-7.847-19.553a6.504 6.504 0 0 0 3.363-.74c2.052 3.817 6.113 14.53 11.548 15.862a7.603 7.603 0 0 0 4.346-.233c4.76-1.639 4.167-12.573 4.23-12.584l2.92-.296s.75 9.76-.16 12.552z" fill="#D2D8FF"/>
        <path d="M101.002 31.46c.169-.295.698-.74 1.057-.708.36.032.793 4.569 2.327 4.008.158 0 .529-1.66.687-1.607.73.253.402 2.4.38 2.643a.783.783 0 0 1-.327.624 6.504 6.504 0 0 1-1.999.73 1.385 1.385 0 0 1-.994-.656 8.671 8.671 0 0 1-1.131-5.033z" fill="#FFF"/>
        <path d="M101.34 31.662a1.28 1.28 0 0 1 .423-.402s.243-.138.243-.117c0 .022-.317-.169-.253-.127.063.043 0 0 0 0v.106l.095.307c.158.571.296 1.142.476 1.702.167.604.458 1.166.856 1.65.328.35 1.058.656 1.45.243.175-.242.298-.52.359-.814l.158-.486c.057-.1.1-.206.127-.318-.074.117-.2.148-.38.106 0 0 0-.158 0 0 0 0 .063.095.063.106.048.114.077.236.084.36a5.15 5.15 0 0 1 0 1.057c0 .233 0 .465-.063.687-.063.222-.338.413-.613.54a5.573 5.573 0 0 1-1.058.412c-.412.095-.719-.211-.93-.54a7.054 7.054 0 0 1-.91-2.675 9.676 9.676 0 0 1-.137-1.226 3.733 3.733 0 0 1 0-.487v-.021c0-.127 0 .074 0 0v-.063c0-.064 0 .074 0 0 .243-.455-.434-.857-.677-.402a1.555 1.555 0 0 0-.138.793c.012.418.051.835.117 1.248.116.991.387 1.958.803 2.866.209.474.546.88.973 1.173.42.23.922.257 1.364.074.442-.142.87-.322 1.28-.539.43-.183.72-.592.75-1.057a7.402 7.402 0 0 0 0-2.052 1.29 1.29 0 0 0-.507-.93c-.402-.233-.677 0-.814.38-.137.38-.243.72-.38 1.058v.201c.18-.117.21-.16.116-.117-.096.042-.138 0-.19 0a.698.698 0 0 1-.212-.169 1.999 1.999 0 0 1-.233-.328 4.939 4.939 0 0 1-.402-.941c-.232-.677-.36-1.375-.592-2.052-.074-.243-.18-.497-.465-.539-.55-.095-1.142.476-1.417.899-.275.423.36.857.634.434z" fill="#000"/>
        <path d="M130.073 51.997c-.92 2.803-2.454 5.383-3.3 8.196-.383 1.379-.6 2.8-.645 4.23-.127 2.263.159 4.59-.592 6.768l.307-.338h-9.518a5.69 5.69 0 0 1-1.703 0c-.327-.223-.486-.942-.602-1.28a54.504 54.504 0 0 1-1.999-9.824 27.05 27.05 0 0 0-.465-3.173 24.566 24.566 0 0 0-1.164-3.035c-1.28-2.96-2.696-5.858-4.05-8.788-.708-1.522-1.406-3.056-2.03-4.62a6.345 6.345 0 0 1-.804-2.782l-.38.296a6.694 6.694 0 0 0 3.7-.825l-.539-.148c1.439 2.676 2.623 5.467 4.114 8.111 1.491 2.644 3.342 5.647 5.985 7.403 2.412 1.628 6.345 1.86 8.577-.244 1.83-1.744 2.41-4.568 2.739-6.969.172-1.29.271-2.59.296-3.891a4.653 4.653 0 0 1 0-1.153c.148-.412-.106.106.137.064.815-.159 1.703-.17 2.528-.254l-.392-.402c.117 1.724.18 3.458.223 5.182 0 2.432.253 5.182-.455 7.54a.395.395 0 1 0 .761.211c.528-2.43.692-4.924.487-7.402 0-1.826-.074-3.656-.222-5.489 0-.19-.18-.412-.402-.391l-1.777.18a4.23 4.23 0 0 0-1.364.137c-.243.138-.233.201-.307.444a8.037 8.037 0 0 0 0 1.82c0 2.482-.41 4.948-1.216 7.296a5.848 5.848 0 0 1-2.337 2.95 6.8 6.8 0 0 1-6.112.064c-2.782-1.407-4.653-4.431-6.166-7.043-1.639-2.824-2.897-5.827-4.452-8.682a.391.391 0 0 0-.539-.148 5.848 5.848 0 0 1-3.3.719.38.38 0 0 0-.38.286c-.042.782.11 1.564.444 2.273.465 1.3 1.058 2.57 1.597 3.839 1.438 3.172 2.993 6.345 4.42 9.517a32.994 32.994 0 0 1 1.491 3.702c.278 1.146.465 2.313.56 3.49.311 3.499 1.02 6.95 2.116 10.289.645 1.66 1.385 1.417 3.172 1.438 3.173 0 6.24 0 9.349.053a.402.402 0 0 0 .38-.296c1.216-3.511.17-7.403 1.238-10.988.846-2.813 2.39-5.393 3.299-8.195.17-.413-.592-.624-.708-.138z" fill="#000"/>
        <path d="M114.21 70.472a89.76 89.76 0 0 0 3.098 21.657c.434 1.376.721 2.794.857 4.23a29.99 29.99 0 0 0 .106 3.236c.03.297.144.58.328.815.269.23.6.377.951.423l2.866.655c.233.084.487.084.72 0a.973.973 0 0 0 .39-.57c.204-.791.264-1.61.18-2.422-.444-6.959-2.982-13.748-2.464-20.738 2.115 7.032 1.703 14.551 2.834 21.795.024.61.273 1.19.698 1.629.421.275.915.419 1.417.412l1.82.148a.878.878 0 0 0 1.13-.899c.27-2.418.152-4.863-.348-7.244a247.639 247.639 0 0 1-2.422-23.36c-3.384-.645-12.161.233-12.161.233z" fill="#FFF"/>
        <path d="M113.776 70.472c.097 4.38.504 8.748 1.217 13.07.36 2.179.803 4.343 1.332 6.494a34.041 34.041 0 0 1 1.417 6.556c0 1.184-.38 3.173.592 4.124a4.05 4.05 0 0 0 2.03.72c.8.285 1.638.45 2.486.486 1.46-.148 1.28-2.411 1.216-3.437a50.295 50.295 0 0 0-.761-5.9c-.857-4.918-2.02-9.814-1.703-14.806l-.783.106a62.562 62.562 0 0 1 1.946 12.912c.159 2.115.317 4.23.56 6.345.149 1.28 0 3.405 1.132 4.336.443.314.97.49 1.512.507.821.168 1.66.222 2.496.159 1.322-.264 1.195-2.2 1.216-3.173a38.27 38.27 0 0 0-.655-6.197 304.147 304.147 0 0 1-.952-7.138 240.162 240.162 0 0 1-1.333-15.344.402.402 0 0 0-.296-.38c-3.965-.677-8.29-.149-12.267.253-.507 0-.507.836 0 .793 3.892-.391 8.175-.94 12.056-.275l-.286-.391c.275 4.865.688 9.729 1.248 14.562.264 2.284.55 4.568.878 6.842a43.95 43.95 0 0 1 .804 7.519c0 .825.137 1.882-.9 2.189a5.436 5.436 0 0 1-1.586-.138c-1.998-.19-1.988-1.755-2.189-3.352-.285-2.274-.454-4.558-.624-6.842a65.502 65.502 0 0 0-1.966-13.451.402.402 0 0 0-.783.105c-.296 4.6.645 9.095 1.47 13.6.484 2.355.816 4.74.994 7.138a4.886 4.886 0 0 1 0 1.84c-.497 1.174-1.322.645-2.179.455a9.613 9.613 0 0 1-1.427-.328c-.92-.38-1.058-.836-1.058-1.777-.063-1.057 0-2.178-.116-3.267a24.407 24.407 0 0 0-.645-2.898c-.613-2.295-1.174-4.6-1.618-6.927a90.321 90.321 0 0 1-1.597-15.09.439.439 0 0 0-.878 0z" fill="#000"/>
        <path d="M119.392 102.207a305.263 305.263 0 0 0-.222 4.336c0 .201 0 .455.19.54a.56.56 0 0 0 .296 0l1.766-.19c.518 0 1.121-.17 1.343-.625.092-.239.121-.497.085-.75l-.117-1.809c.001-.639-.125-1.271-.37-1.861a1.745 1.745 0 0 0-1.501-1.058 1.343 1.343 0 0 0-1.058.571l-.412.846z" fill="#CCCDE4"/>
        <path d="M119 102.207c0 .804-.095 1.608-.137 2.422 0 .391 0 .783-.053 1.174a4.854 4.854 0 0 0 0 1.057c.116.836.952.656 1.565.593a8.904 8.904 0 0 0 1.914-.286c.576-.16.977-.682.984-1.28 0-.74-.085-1.512-.127-2.241-.085-1.248-.413-2.824-1.84-3.173-.7-.16-1.426.126-1.83.72-.15.266-.285.541-.401.824-.223.455.465.857.687.402.222-.455.391-1.058 1.057-1.195.459-.02.89.217 1.121.613.266.46.411.98.423 1.512 0 .593.074 1.185.117 1.777.042.592.18 1.058-.339 1.259a4.674 4.674 0 0 1-1.374.222l-.889.095s-.306 0-.254.063c.053.064 0-.264 0-.328.053-1.406.138-2.813.222-4.23-.02-.507-.814-.507-.846 0z" fill="#000"/>
        <path d="m123.833 106.067 3.395-1.057a.338.338 0 0 0 .254-.18.434.434 0 0 0 0-.17 21.88 21.88 0 0 0-.074-2.76 1.618 1.618 0 0 0-.423-1.152.867.867 0 0 0-.794 0 3.574 3.574 0 0 0-2.115 2.972l-.243 2.347z" fill="#CCCDE4"/>
        <path d="m123.939 106.448 2.295-.709 1.004-.306c.36-.106.614-.275.656-.677.063-.77.063-1.545 0-2.316a3.077 3.077 0 0 0-.465-1.84 1.364 1.364 0 0 0-1.713-.085 3.553 3.553 0 0 0-1.238 1.058 5.034 5.034 0 0 0-.825 2.474l-.2 1.967a.402.402 0 0 0 .401.392.391.391 0 0 0 .392-.392l.148-1.396a8.65 8.65 0 0 1 .243-1.607 2.95 2.95 0 0 1 1.787-1.988c.201 0 .37 0 .476.148.095.217.149.45.159.687a21.5 21.5 0 0 1 .084 2.02V104.597c0-.084-.158 0-.2.053l-.995.307-2.2.677a.418.418 0 0 0 .191.814z" fill="#000"/>
        <path d="M119.498 72.82c-.001 1.157-.14 2.311-.413 3.436a.571.571 0 0 1-.137.318.54.54 0 0 1-.307.105c-.353.04-.71.022-1.058-.053a.962.962 0 0 1-.486-.211 1.057 1.057 0 0 1-.254-.603 20.473 20.473 0 0 1-.391-3.003 21.954 21.954 0 0 1 3.046.01z" fill="#C7CDFF"/>
        <path d="M119.614 103.9c.893-.08 1.792-.08 2.686 0a.391.391 0 0 0 .391-.392.402.402 0 0 0-.391-.402c-.894-.08-1.793-.08-2.686 0a.402.402 0 0 0-.391.402c0 .216.175.391.39.391zM124.552 103.635a3.87 3.87 0 0 1 1.396-.17H126.89a.391.391 0 0 0 .54.149.412.412 0 0 0 .148-.54c-.275-.528-.963-.496-1.46-.507a5.213 5.213 0 0 0-1.766.18.402.402 0 0 0-.285.486c.066.21.282.334.497.286l-.01.116z" fill="#000"/>
        <path d="M156.764 111.112a1.85 1.85 0 0 0 .92-1.735c-.095-1.057-1.058-1.819-1.565-2.76a5.679 5.679 0 0 1-.54-2.115c-.158-1.576-.602-6.154 1.365-7.9 1.967-1.744 6.588-2.114 7.92 2.454a7.9 7.9 0 0 1-.888 6.768c-.518.709-1.227 1.28-1.787 1.956a3.014 3.014 0 0 0-.825 2.4c.106.498.38 1.058 0 1.45-.136.095-.291.16-.455.19-.878.201-4.145-.708-4.145-.708z" fill="#FFF"/>
        <path d="M157.007 111.524a2.496 2.496 0 0 0 .518-3.722 6.842 6.842 0 0 1-1.29-2.232 11.442 11.442 0 0 1-.254-1.903c-.18-2.21-.444-5.742 1.766-7.075a4.473 4.473 0 0 1 5.986 1.058 7.508 7.508 0 0 1 .93 5.202 6.493 6.493 0 0 1-.899 2.39c-.57.878-1.427 1.513-2.115 2.337a3.405 3.405 0 0 0-.824 2.443c.052.413.444 1.058-.106 1.28-.22.042-.446.042-.666 0a19.786 19.786 0 0 1-3.173-.687.477.477 0 0 0-.254.92c1.021.29 2.06.512 3.11.666.54.128 1.106.095 1.628-.095.761-.37.677-1.121.518-1.82-.285-1.31.592-2.22 1.449-3.098a7.974 7.974 0 0 0 1.734-2.4 8.746 8.746 0 0 0 .339-5.573 5.436 5.436 0 0 0-8.862-2.95 6.038 6.038 0 0 0-1.523 3.827 20.293 20.293 0 0 0 .106 4.6 5.626 5.626 0 0 0 1.11 2.93c.677.91 1.576 2.178.286 3.045-.497.37-.011 1.206.486.857z" fill="#000"/>
        <path d="M170.194 110.741c-2.686 6.916-4.336 6.345-4.854 13.653-.137 1.86-.074 3.786-.856 5.488-4.505-.317-7.244-.391-11.739-.708-1.311-.096-.814-9.867-2.686-14.298a19.839 19.839 0 0 1-1.575-9.094c.217-1.738.61-3.45 1.173-5.108l1.576-5.287c1.47.486 2.03-.17 3.5.317-1.47 3.426-1.882 7.085-2.516 10.733a2.718 2.718 0 0 0 .867 2.115c.602.423 1.533.127 2.178.497.239.183.458.388.656.614.586.482 1.278.82 2.02.983 1.554.487 3.426.93 4.706 0 .327-.232.581-.54.93-.74.846-.476 2.02-.233 2.845-.75 1.628-1.058 1.396-11.327 1.523-11.327l3.172-.148s.201 10.184-.92 13.06z" fill="#FFF"/>
        <path d="M169.729 110.615c-1.058 2.77-2.792 5.287-3.828 8.037a18.168 18.168 0 0 0-.9 4.23c-.264 2.315-.073 4.737-.983 6.926l.466-.349a476.211 476.211 0 0 0-6.716-.391l-3.532-.212c-.803-.052-1.184.17-1.533-.465-.529-.91-.423-2.58-.518-3.606-.148-1.618-.286-3.247-.497-4.864a23.815 23.815 0 0 0-.888-4.379 34.39 34.39 0 0 1-1.724-5.88c-.698-4.843 1.237-9.517 2.612-14.043l-.582.328c1.174.328 2.337 0 3.5.328l-.327-.592a31.175 31.175 0 0 0-1.798 6.46c-.201 1.058-.37 2.211-.56 3.321a4.685 4.685 0 0 0-.075 2.063 2.93 2.93 0 0 0 .9 1.512c.697.54 1.628.243 2.336.687.516.424 1.064.806 1.64 1.142.934.402 1.914.686 2.918.846a5.467 5.467 0 0 0 2.115 0c.963-.211 1.523-.973 2.39-1.332 1.058-.434 2.38-.106 3.056-1.206 1.058-1.66.973-4.293 1.058-6.175.063-1.227.095-2.443.127-3.67a4.77 4.77 0 0 1 0-1.058v-.137c-.19.212.254.296.338.328.794.096 1.598.06 2.38-.106l-.476-.476v5.288c-.074 2.453 0 5.287-.868 7.571-.211.571.709.825.92.254.847-2.326.804-5.086.889-7.519.063-1.85.084-3.711 0-5.562a.497.497 0 0 0-.476-.476l-2.115.095c-.317 0-1.058-.106-1.3.117-.244.222-.191.296-.255.539-.105.856-.127 1.72-.063 2.58 0 1.407-.106 2.803-.233 4.23 0 1.24-.24 2.468-.708 3.617-.402.719-1.195.655-1.935.782-1.058.201-1.513.846-2.433 1.301-1.226.613-2.791.127-4.008-.254a4.78 4.78 0 0 1-1.808-.867 6.578 6.578 0 0 0-.75-.687c-1.058-.592-2.359 0-2.75-1.512-.286-1.143.275-2.782.476-3.934a34.422 34.422 0 0 1 1.956-7.403.476.476 0 0 0-.328-.581c-1.174-.328-2.337 0-3.5-.328a.497.497 0 0 0-.592.338c-1.058 3.648-2.697 7.477-2.813 11.326-.041 1.834.18 3.664.655 5.435.402 1.534 1.11 2.961 1.513 4.495.608 2.784.99 5.614 1.142 8.46.095 1.057 0 3.88 1.142 4.526.666.208 1.367.28 2.062.211l3.3.201c2.241.117 4.473.244 6.714.392a.476.476 0 0 0 .455-.35c1.449-3.5.55-7.518 1.882-11.103 1.058-2.77 2.74-5.288 3.829-8.037.243-.73-.677-.973-.9-.412z" fill="#000"/>
        <path d="M154.691 145.406c.16 5.539.686 11.06 1.576 16.529a.72.72 0 0 0 .169.423c.133.11.303.168.476.159l1.512.127c.137.033.282.01.402-.064a.54.54 0 0 0 .148-.391c.47-3.914.407-7.874-.19-11.77a20.325 20.325 0 0 1-.455-5.351 4.346 4.346 0 0 0-2.982-.35" fill="#FFF"/>
        <path d="M154.215 145.406a126.678 126.678 0 0 0 1.48 15.958c.075.486.075 1.057.498 1.406.423.35 1.375.286 1.924.328 1.502.106 1.375-1.057 1.48-2.284a44.14 44.14 0 0 0-.306-10.173 23.561 23.561 0 0 1-.486-5.573.465.465 0 0 0-.233-.413 5.171 5.171 0 0 0-3.352-.39c-.603.126-.35 1.057.254.92a4.04 4.04 0 0 1 2.612.295l-.233-.412c-.264 2.823.592 5.657.814 8.46.127 1.498.17 3.002.127 4.505 0 .698 0 1.396-.095 2.115 0 .507 0 1.893-.423 2.04a2.432 2.432 0 0 1-.91-.073c-.687-.138-.655-.37-.75-.973a91.058 91.058 0 0 1-.307-2.115 114.178 114.178 0 0 1-.56-4.61c-.304-2.99-.497-5.99-.582-9 0-.614-.973-.614-.952 0v-.01z" fill="#000"/>
        <path d="m160.867 144.624 2.115 18.104c0 .135.053.264.148.36a.518.518 0 0 0 .317.063h1.449a88.333 88.333 0 0 0-.486-18.612l-2.412-.148" fill="#FFF"/>
        <path d="m160.391 144.624 1.375 11.632.687 5.721c0 .476 0 1.206.465 1.513.466.306 1.45.095 2.01.084a.486.486 0 0 0 .476-.476 89.782 89.782 0 0 0-.487-18.612.497.497 0 0 0-.476-.476l-2.41-.148c-.614 0-.614.92 0 .952l2.41.148-.476-.476c.807 6.17.97 12.408.487 18.612l.476-.476c-.42.069-.85.069-1.27 0-.221.074-.295 0-.21-.306l-.085-.74-.265-2.21-.592-4.992-1.163-9.793c-.074-.602-1.058-.613-.952 0v.043z" fill="#000"/>
        <path d="M152.809 129.068c0 5.287.285 17.417.444 18.2a.973.973 0 0 0 .307.613c.243.2 10.575-1.121 11.22-1.058.25.059.51.059.761 0a.72.72 0 0 0 .412-.55c.476-1.702-.55-10.913-.793-16.592-3.362-.666-12.351-.613-12.351-.613z" fill="#C7CDFF"/>
        <path d="M169.2 90.882c-.127-.16-.698 0-.793.37-.18.75.328 3.278.222 3.574-.106.296-.941.254-1.237.19a16.92 16.92 0 0 1-1.28-1.332c-.063-.064-.761-.159-.465.54.116.285 1.554 2.516 1.798 2.844.162.279.378.523.634.719.248.13.537.157.804.074 3.363-1.12.867-6.26.317-6.98z" fill="#FFF"/>
        <path d="M169.528 90.543a.994.994 0 0 0-1.354.17 1.66 1.66 0 0 0-.275 1.226c0 .878.222 1.734.265 2.612a.899.899 0 0 0 0 .17c0 .137 0-.244.116-.18.116.063-.2 0-.243 0-.134.01-.268.01-.402 0-.085 0-.148-.053 0 0a1.417 1.417 0 0 1-.18-.18l-.57-.635c-.297-.338-.54-.634-1.058-.592a.772.772 0 0 0-.709.962c.086.293.222.568.402.815.218.38.451.733.698 1.057.211.339.433.677.656 1.058.224.403.522.762.877 1.057.949.44 2.077.122 2.655-.75a3.469 3.469 0 0 0 .676-2.348 8.619 8.619 0 0 0-.624-2.718 7.677 7.677 0 0 0-.846-1.692.508.508 0 0 0-.655-.17.476.476 0 0 0-.17.656 7.762 7.762 0 0 1 1.227 3.014c.254 1.227.17 2.781-1.226 3.257-.497.159-.73-.275-.973-.634-.244-.36-.318-.465-.476-.698-.391-.613-.793-1.216-1.153-1.84a1.512 1.512 0 0 0-.127-.222c-.053-.085.085-.18-.084.074 0 0-.148.074-.064 0 .085-.074-.063 0 0 0 .042.062.092.12.148.169.19.2.37.412.56.624.188.292.473.51.804.613.448.103.917.067 1.343-.106.677-.37.339-1.448.265-2.051a16.2 16.2 0 0 1-.127-1.396 2.77 2.77 0 0 1 0-.296v-.18a.455.455 0 0 1 .053-.127H169.073c0 .064-.053 0-.159-.074.402.444 1.069-.243.614-.645z" fill="#000"/>
        <path d="M161.364 162.464a1.533 1.533 0 0 0-.233.75l-.169 1.132a2.115 2.115 0 0 0 .212 1.618c.248.26.568.44.92.518a8.249 8.249 0 0 0 2.918.328c.22.01.438-.057.614-.19.14-.16.228-.36.253-.571.244-1.132.434-2.475-.37-3.31a10.226 10.226 0 0 0-4.145-.275z" fill="#FFF"/>
        <path d="M160.962 162.22a2.644 2.644 0 0 0-.338 1.195c-.064.423-.138.846-.18 1.27-.15.77.185 1.554.846 1.977a6.06 6.06 0 0 0 2.474.613c.426.037.854.037 1.28 0a1.29 1.29 0 0 0 1.058-.528c.172-.328.273-.688.296-1.058.077-.373.123-.751.137-1.131a3.088 3.088 0 0 0-.57-2.052 1.385 1.385 0 0 0-.942-.476c-.47-.08-.942-.132-1.417-.158-.508 0-1.058-.053-1.534 0-.317 0-.824 0-1.057.243-.423.454.254 1.12.666.677 0 0-.116.084-.063.052-.159.096-.095 0-.064 0H163.087c.37 0 .815 0 1.217.085H164.748c.137 0 .264.063.391.095 0 0 .095.095.106.117.142.195.24.418.285.655a4.124 4.124 0 0 1 0 1.65l-.095.433c0 .096 0 .286-.105.35-.106.063-.571.084-.762.084a7.773 7.773 0 0 1-2.115-.275 1.745 1.745 0 0 1-.835-.391 1.058 1.058 0 0 1-.18-.814c0-.36.085-.709.127-1.058.013-.367.103-.727.264-1.057a.486.486 0 0 0-.169-.656.476.476 0 0 0-.698.159z" fill="#000"/>
        <path d="M164.198 94.921h.063a4.695 4.695 0 0 0 3.807-2.58c1.513-2.506 1.989-13.504 1.618-15.133a5.88 5.88 0 0 0-2.4-3.828 6.916 6.916 0 0 0-5.15-.857c-2.305.222-4.78.508-6.345 1.576-1.237.867-1.48 2.115-1.925 3.257-4.515 11.4.339 17.978 4.325 18.231 2.027.187 4.07-.04 6.007-.666z" fill="#FFF"/>
        <path d="M169.549 77.568a5.774 5.774 0 0 0-2.601-3.744c-1.65-1.057-4.643-1.438-6.345-.582a3.543 3.543 0 0 0-1.555 1.724c-1.057 2.02-5.414 8.238-2.231 15.778.132.458.34.89.613 1.28a6.218 6.218 0 0 0 1.64 1.258 8.724 8.724 0 0 0 4.747 1.502 4.991 4.991 0 0 0 4.072-2.485c1.618-2.411 2.062-13.145 1.66-14.731z" fill="#D2D8FF"/>
        <path d="M170.035 76.965a6.557 6.557 0 0 0-4.526-4.875c-1.988-.603-4.727-.72-6.175 1.057a19.934 19.934 0 0 0-2.285 4.167 19.088 19.088 0 0 0-1.766 6.229 16.074 16.074 0 0 0 1.386 7.984 5.9 5.9 0 0 0 2.75 2.442 9.02 9.02 0 0 0 3.648 1.238 5.53 5.53 0 0 0 5.287-2.781 11.633 11.633 0 0 0 1.206-4.23c.334-2.208.542-4.432.623-6.663.161-1.535.126-3.084-.105-4.61-.138-.593-1.058-.339-.92.253.15.99.189 1.994.116 2.993 0 1.544-.085 3.088-.254 4.632-.243 2.654-.317 6.186-2.326 8.196-2.01 2.009-4.748 1.3-6.895 0a8.619 8.619 0 0 1-1.523-1.058 4.283 4.283 0 0 1-1.057-1.946 15.27 15.27 0 0 1-.92-3.88 18.496 18.496 0 0 1 2.707-10.576c.328-.581.602-1.216.983-1.755a3.807 3.807 0 0 1 3.596-1.27 5.88 5.88 0 0 1 5.604 4.537.476.476 0 0 0 .846-.084z" fill="#231F20"/>
        <path d="M162.051 71.91c-2.665.275-6.345.444-7.836 3.067a23 23 0 0 0-1.65 4.336c-.478 1.543-.8 3.13-.962 4.737-.37 3.955.56 9.063 4.357 11.178.737.408 1.559.64 2.4.677 2.026.177 4.066-.06 5.997-.698.57-.212.317-1.132-.254-.92a13.748 13.748 0 0 1-5.954.655 4.526 4.526 0 0 1-2.115-.814 8.682 8.682 0 0 1-3.246-5.499 19.14 19.14 0 0 1 .983-9.866c.56-1.64 1.058-3.755 2.644-4.675a14.477 14.477 0 0 1 5.668-1.269c.603-.052.613-1.057 0-.951l-.032.042z" fill="#231F20"/>
        <path d="M158.71 74.628c-.776.005-1.55.069-2.316.19-.717.128-1.423.304-2.115.529a.476.476 0 0 0 .253.91c.667-.191 1.344-.392 2.03-.519.702-.097 1.408-.15 2.116-.158a.476.476 0 1 0 0-.952h.032zM157.409 76.933a14.202 14.202 0 0 0-1.777 0c-.581 0-1.163.116-1.745.17a.497.497 0 0 0-.475.475c0 .263.213.476.475.476.582-.053 1.164-.137 1.745-.17a14.202 14.202 0 0 1 1.777 0 .476.476 0 1 0 0-.95zM156.51 79.45a29.028 29.028 0 0 0-3.458 0 .476.476 0 0 0 0 .952c1.151-.08 2.306-.09 3.458-.032a.476.476 0 1 0 0-.952v.032zM155.78 82.644c-1.152 0-2.294 0-3.447-.106a.476.476 0 0 0-.476.476c.006.26.215.47.476.476 1.153.063 2.295.105 3.447.105a.476.476 0 1 0 0-.951zM155.78 86.08c-1.131 0-2.252 0-3.384-.084a.476.476 0 0 0-.476.476c.006.26.216.47.476.476 1.132 0 2.253.084 3.384.084a.476.476 0 1 0 0-.951zM156.288 88.936a11.738 11.738 0 0 1-3.648-.148.497.497 0 0 0-.582.328.476.476 0 0 0 .338.592c1.353.278 2.742.339 4.114.18a.476.476 0 0 0 .328-.582.486.486 0 0 0-.582-.339l.032-.031zM157.44 91.484c-1.259.041-2.52.002-3.775-.116a.476.476 0 0 0-.476.476c.011.258.218.465.476.476 1.255.118 2.516.157 3.776.116a.476.476 0 1 0 0-.952zM160.306 93.43a26.437 26.437 0 0 1-5.17-.095.476.476 0 0 0-.477.476c.006.26.216.47.476.476 1.717.2 3.449.232 5.171.095a.497.497 0 0 0 .476-.476.476.476 0 0 0-.476-.476z" fill="#231F20"/>
        <path d="M169.422 75.981a25.38 25.38 0 0 1-3.109-1.12c-1.111-.4-2.25-.722-3.405-.963-.201 0-.286.264-.085.307 1.156.241 2.294.563 3.405.962 1.013.436 2.051.81 3.11 1.121.2 0 .285-.264.084-.307zM169.729 77.25a5.34 5.34 0 0 1-1.586-.581 18.38 18.38 0 0 0-1.47-.666 21.605 21.605 0 0 0-3.321-1.058c-.19 0-.275.254-.085.307 1.134.262 2.244.616 3.321 1.057.96.519 1.969.937 3.014 1.248.2 0 .285-.275.084-.307h.043zM169.718 78.583c-.899-.243-1.734-.698-2.612-1.058a21.34 21.34 0 0 0-2.802-.835c-.201 0-.286.264-.085.307.954.209 1.89.488 2.803.835.877.328 1.713.783 2.612 1.058a.16.16 0 1 0 .084-.307zM169.486 79.841c-1.692-.306-3.258-1.057-4.97-1.216-.212 0-.212.296 0 .317 1.68.159 3.225.9 4.885 1.206.19 0 .285-.264.085-.307zM169.655 81.258a44.694 44.694 0 0 1-3.5-.899.16.16 0 0 0-.085.307c1.152.35 2.326.645 3.5.899.201 0 .286-.264.085-.307zM169.549 82.485a14.9 14.9 0 0 1-2.887-.444.16.16 0 0 0-.085.307c.973.252 1.969.404 2.972.454.2 0 .2-.306 0-.317zM169.126 83.807a13.346 13.346 0 0 0-1.935-.391.159.159 0 0 0-.106.127c0 .087.071.158.159.158.626.073 1.246.2 1.85.38a.16.16 0 1 0 .085-.306l-.053.032zM169.316 84.822l-1.173-.148c-.085 0-.16.085-.16.159a.159.159 0 0 0 .16.158l1.184.148c.085 0 .159-.084.159-.158a.159.159 0 0 0-.16-.159h-.01zM169.084 85.806a1.872 1.872 0 0 1-.244 0h-.179l-.222-.064h-.096a.17.17 0 0 0-.222 0 .17.17 0 0 0 .053.222c.308.167.656.244 1.005.222a.148.148 0 0 0 .158-.158.159.159 0 0 0-.158-.159l-.095-.063z" fill="#241F20"/>
        <path d="M155.347 162.464a2.305 2.305 0 0 0-.243.75c-.455.286-2.856.783-3.702 1.83a1.12 1.12 0 0 0 0 1.438c.233.286 6.61.392 7.593.328a.962.962 0 0 0 .613-.19c.14-.16.23-.36.254-.571.244-1.132.434-2.475-.37-3.31a3.077 3.077 0 0 0-1.343-.72 7.403 7.403 0 0 0-2.802.445z" fill="#FFF"/>
        <path d="M154.934 162.22c-.152.267-.25.562-.285.868l.222-.286a4.854 4.854 0 0 1-.814.307c-.445.148-.9.317-1.343.507-.857.37-1.957.973-2.041 2.03-.057.485.138.964.518 1.27a1.3 1.3 0 0 0 .518.137c.649.087 1.302.136 1.956.148 1.565.074 3.12.117 4.685.106.761 0 1.618 0 1.904-.878a4.865 4.865 0 0 0 0-3.437 2.866 2.866 0 0 0-2.771-1.448c-.5.044-.998.115-1.491.211-.353.03-.69.158-.973.37-.423.434.243 1.11.677.677-.106.106 0 0-.064 0h.17l.444-.106c.38-.077.765-.133 1.152-.169a1.904 1.904 0 0 1 2.03.963c.176.461.227.96.149 1.448 0 .36 0 1.29-.434 1.407-.431.058-.869.058-1.3 0-1.418 0-2.835 0-4.23-.106-.55 0-1.058-.053-1.65-.116h-.339l.138.074s-.095-.212-.106-.244a.772.772 0 0 1 .296-.697 6.218 6.218 0 0 1 2.39-1.164c.334-.096.66-.22.973-.37.38-.211.264-.624.476-.952.296-.581-.529-1.068-.857-.55zM151.846 129.015c0 4.019.085 8.037.212 12.056.053 1.66.095 3.32.19 4.98 0 .74 0 2.041.878 2.263a10.49 10.49 0 0 0 3.088-.211l5.034-.529c1.057-.106 2.178-.296 3.257-.296.803 0 1.47 0 1.734-.91a6.271 6.271 0 0 0 .148-1.66c0-5.023-.73-10.046-.973-15.07a.486.486 0 0 0-.349-.454 67.49 67.49 0 0 0-12.743-.645.476.476 0 1 0 0 .952c1.629 0 3.268 0 4.907.053 2.538-.01 5.073.178 7.582.56l-.349-.465c.212 4.325.688 8.63.91 12.944 0 .761.063 1.523.063 2.284v.814c-.053.529-.243.592-.803.656-.857.095-1.724.116-2.58.211-2.74.275-5.479.667-8.228.815-.106 0-.36.063-.455 0-.095-.064-.053-.286-.053-.254 0-.37-.063-.762-.084-1.132a210.699 210.699 0 0 1-.17-4.473c-.126-4.156-.243-8.333-.222-12.5a.497.497 0 1 0-.994.011zM154.786 96.75l.17 3.342c.444 2.528 2.76 4.368 3.373 6.864.613 2.495-.582 9.517.592 10.934.888 1.058 5.097 1.121 5.69.656 1.68-1.312-.328-8.312.623-12.035.577-2.534.734-5.145.466-7.73a5.288 5.288 0 0 0-.508-1.808 3.437 3.437 0 0 0-1.142-1.163c-4.632-2.961-9.264.94-9.264.94z" fill="#000"/>
        <path d="M150.26 89.295c.19-.296.762-.73 1.058-.676.296.052.56 4.78 2.189 4.293.169 0 .634-1.703.793-1.64.75.308.285 2.507.254 2.76a.804.804 0 0 1-.37.635c-.665.33-1.38.548-2.115.645a1.417 1.417 0 0 1-.995-.73 9.063 9.063 0 0 1-.814-5.287z" fill="#FFF"/>
        <path d="M150.673 89.528c.13-.164.296-.294.486-.38.127-.064.212 0 0-.117 0 0-.275-.201-.159-.095-.074-.074 0-.095 0 0v.116c0 .106 0 .212.074.307.127.592.233 1.184.392 1.766.148.63.417 1.227.793 1.755.335.488.966.674 1.512.444.286-.169.391-.602.508-.888.116-.285.137-.37.222-.56a.698.698 0 0 1 .074-.159c.074-.19 0 0-.148 0h-.254c-.085 0 0 0 0 .074.04.16.066.322.074.486.009.354-.012.708-.063 1.058-.018.243-.061.484-.127.72-.106.242-.487.327-.709.411-.374.175-.774.29-1.184.339-.423 0-.698-.497-.867-.836a7.688 7.688 0 0 1-.646-2.516 9.592 9.592 0 0 1-.084-1.354 3.585 3.585 0 0 1 0-.476v-.106a.148.148 0 0 1 0-.063c0-.074-.053.106 0 0 .317-.518-.508-1.058-.825-.476a1.978 1.978 0 0 0-.18.857 11.78 11.78 0 0 0 0 1.226c.067 1.03.292 2.043.666 3.004.19.54.526 1.017.973 1.374.432.283.97.353 1.46.19.48-.135.95-.305 1.406-.507.456-.173.787-.576.867-1.057 0-.17 0 .148 0 0a.814.814 0 0 1 0-.159c0-.211.064-.423.085-.634a4.79 4.79 0 0 0 0-1.29 1.406 1.406 0 0 0-.54-1.058c-.412-.254-.75 0-.92.391-.169.391-.296.751-.433 1.058-.038.06-.07.123-.095.19 0 .063-.074 0 0 0h.063c.085 0 .095-.063 0 0s.117.074 0 0h-.074c.117 0-.116 0 0 0h-.084s.063.063 0 0a.846.846 0 0 1-.138-.137 2.876 2.876 0 0 1-.211-.339 5.457 5.457 0 0 1-.35-.962c-.21-.72-.306-1.449-.496-2.168-.074-.264-.18-.55-.476-.635-.614-.169-1.311.445-1.64.9-.327.454.688.803 1.048.306z" fill="#000"/>
        <path d="M83.807 23.625c-.455-4.844-3.511-8.83-6.42-12.532-.126-.158-.348.064-.232.222 2.855 3.627 5.88 7.561 6.345 12.31 0 .211.339.211.317 0h-.01zM80.18 28.838a2.898 2.898 0 0 0-1.058-2.22 13.684 13.684 0 0 0-6.736-3.998.16.16 0 1 0-.085.307 13.684 13.684 0 0 1 6.345 3.595c.603.613 1.417 1.385 1.301 2.316 0 .201.296.201.317 0h-.084zM105.687 20.568a28.553 28.553 0 0 1 23.117-9.084c.2 0 .2-.306 0-.317a28.796 28.796 0 0 0-23.34 9.18c-.137.147.085.38.223.221zM106.543 25.274a16.18 16.18 0 0 1 11.77.688c.19.084.35-.19.159-.275a16.444 16.444 0 0 0-12.013-.72c-.19.064-.106.37.084.307z" fill="#231F20"/>
    </g>
</svg>
