<svg xmlns="http://www.w3.org/2000/svg" width="173" height="173" viewBox="0 0 173 173">
    <g fill="none" fill-rule="evenodd">
        <g fill-rule="nonzero">
            <g>
                <g>
                    <g>
                        <g>
                            <g fill="#7582FF" opacity=".1">
                                <path d="M67.503.399C55.58 2.15 46.004 2.574 34.877 7.615c-11.128 5.04-16.915 19.406-24.165 30.002-12.564 18.344-13.726 44.842-2.79 63.767 2.259 3.91 5.074 7.598 8.844 9.724 3.321 1.876 7.141 2.424 10.795 3.43 5.813 1.602 11.343 4.409 16.982 6.725 18.092 7.415 37.848 9.816 57.19 6.95 7.19-1.07 14.805-3.155 19.771-9.01 3.048-3.586 4.775-8.228 6.336-12.779 5.896-17.214 10.48-35.707 7.515-53.544-.68-4.102-1.802-8.204-4.069-11.526-1.81-2.666-4.276-4.7-6.477-6.992-6.917-7.175-11.243-16.832-17.737-24.455C100.578 2.284 67.503.399 67.503.399z" transform="translate(-428.000000, -313.000000) translate(326.000000, 154.000000) translate(102.000000, 159.000000) translate(0.000000, -0.000000) translate(18.453333, 21.336667)"/>
                            </g>
                            <path fill="#D2D8FF" d="M20.137 84.045c-4.965 1.016-9.756 2.748-14.225 5.14-1.951 1.046-4.002 2.491-4.326 4.484-.349 2.192 1.503 4.152 3.504 5.398 7.175 4.467 17.33 3.903 24.148 8.785 3.513 2.492 5.888 6.345 9.924 8.138 3.728 1.661 8.204 1.262 12.265.308 4.06-.955 7.996-2.425 12.157-2.832 9.6-.93 18.717 3.894 28.35 4.152 8.304.207 16.292-3.014 23.591-6.693 3.77-1.91 7.59-4.07 9.899-7.366 2.308-3.296 2.64-8.021-.357-10.795-2.583-2.358-6.644-2.6-10.297-3.122-15.23-2.168-28.375-11.493-43.738-12.813-7.224-.623-14.498.58-21.656 1.785-6.328 1.104-29.239 5.43-29.239 5.43z" transform="translate(-428.000000, -313.000000) translate(326.000000, 154.000000) translate(102.000000, 159.000000) translate(0.000000, -0.000000) translate(18.453333, 21.336667)"/>
                            <path fill="#FFF" d="M54.184 67.262c3.122-.83 11.434-3.097 12.505-3.072 1.404 0 46.686 20.884 67.13 32.145-18.75 10.056-54.275 23.915-55.487 23.866-1.055-.05-56.468-36.347-65.195-42.21 0-.033 35.699-9.309 41.047-10.729z" transform="translate(-428.000000, -313.000000) translate(326.000000, 154.000000) translate(102.000000, 159.000000) translate(0.000000, -0.000000) translate(18.453333, 21.336667)"/>
                            <path fill="#231F20" d="M53.038 67.586c3.08-.83 6.161-1.66 9.267-2.416 1.304-.316 2.59-.83 3.712-.449 3.321 1.238 6.585 2.807 9.823 4.277 12.468 5.647 24.832 11.51 37.094 17.588 6.536 3.238 13.054 6.518 19.448 10.04v-.648c-11.825 6.336-24.256 11.625-36.662 16.69-4.75 1.944-9.516 3.862-14.324 5.647-1.237.465-2.491.947-3.745 1.329l-.415.116c-.158.05-.208 0-.059.042l-.34-.166c-1.976-1.08-3.853-2.342-5.755-3.546-3.548-2.242-7.086-4.51-10.612-6.801-9.007-5.813-17.995-11.662-26.963-17.546-6.76-4.426-13.52-8.844-20.246-13.287l-1.179-.78-.083.68 12.34-3.213 21.424-5.589c2.425-.64 4.85-1.27 7.275-1.926.173-.073.265-.264.215-.445-.05-.181-.228-.297-.415-.27-5.372 1.454-10.795 2.84-16.16 4.244l-20.36 5.24-4.518 1.17c-.144.04-.25.163-.27.311-.02.148.05.294.179.37 6.128 4.153 12.314 8.147 18.484 12.19 9.13 5.98 18.264 11.936 27.404 17.871 6.045 3.911 12.04 7.955 18.268 11.626.363.285.782.491 1.23.606.786-.094 1.55-.325 2.258-.681 4.252-1.503 8.437-3.189 12.622-4.866 12.456-4.983 24.912-10.289 36.92-16.36 1.295-.652 2.585-1.322 3.87-2.009.111-.07.179-.192.179-.324 0-.131-.068-.254-.18-.323-12.248-6.735-24.912-12.789-37.517-18.776-5.935-2.818-11.891-5.586-17.87-8.304-3.538-1.61-7.067-3.263-10.68-4.691-.351-.167-.718-.3-1.095-.4-.782-.024-1.561.094-2.3.35-3.53.83-7.01 1.768-10.497 2.715-.197.064-.305.276-.24.473.064.198.275.305.473.241z" transform="translate(-428.000000, -313.000000) translate(326.000000, 154.000000) translate(102.000000, 159.000000) translate(0.000000, -0.000000) translate(18.453333, 21.336667)"/>
                            <path fill="#231F20" d="M77.335 85.44c-2.56 1.521-4.59 3.794-5.813 6.51-.315.714-1.245 2.4-.498 3.098.747.697 3.04.058 3.936-.283 1.467-.633 2.86-1.427 4.152-2.366 1.512-.997 3.04-1.952 4.626-2.824 3.19-1.805 6.613-3.166 10.172-4.044.877-.248 1.775-.415 2.682-.498.656 0 1.27 0 1.561.697.228.61.044 1.296-.456 1.711-1.188 1.27-3.164 2.043-4.684 2.823-3.23 1.661-6.585 3.156-9.491 5.357-2.42 1.689-4.313 4.026-5.464 6.742-.34.914-.565 2.26.456 2.832 1.022.573 2.882-.224 3.945-.598 3.57-1.245 6.875-3.164 10.446-4.41 1.762-.678 3.627-1.054 5.514-1.112 1.536 0 3.662.457 4.06 2.192.109.474.831.274.723-.19-.523-2.276-3.321-2.849-5.314-2.741-3.065.183-5.988 1.345-8.753 2.583-1.528.68-3.023 1.403-4.559 2.059-.83.34-1.66.673-2.491.955-.797.386-1.658.62-2.541.69-.347-.037-.658-.23-.844-.525-.187-.295-.227-.659-.11-.987.097-.356.224-.704.381-1.038.325-.717.717-1.4 1.17-2.043.97-1.329 2.125-2.512 3.43-3.513 2.865-2.267 6.228-3.786 9.467-5.439 1.57-.726 3.081-1.575 4.517-2.54.984-.561 1.546-1.647 1.437-2.774-.24-1.155-1.337-1.553-2.408-1.478-1.643.165-3.261.516-4.825 1.046-3.216 1.005-6.305 2.376-9.209 4.085-1.66.955-3.238 2.018-4.85 3.048-.78.52-1.595.983-2.44 1.387-.831.373-2.409 1.063-3.322.764-1.254-.415 1.02-3.953 1.552-4.675 1.115-1.539 2.527-2.838 4.152-3.82.416-.25 0-.897-.373-.64l.066-.041zM20.411 79.934c-.007-.438.102-.87.316-1.254.083-.132-.133-.257-.216-.124-.238.42-.359.896-.349 1.378 0 .166.258.166.25 0zM21.458 81.263c.118-1.346.396-2.673.83-3.953.058-.15-.183-.216-.233-.066-.44 1.3-.72 2.65-.83 4.019 0 .166.233.166.25 0h-.017zM23.84 83.273c.222-2.654.864-5.255 1.902-7.707.059-.15-.182-.216-.24-.066-1.034 2.467-1.673 5.082-1.894 7.748 0 .157.241.157.25 0l-.017.025zM27.702 85.274c.225-3.567.832-7.1 1.81-10.538.019-.066-.02-.135-.087-.154-.066-.018-.135.021-.153.088-.987 3.464-1.597 7.025-1.819 10.62 0 .158.24.158.25 0v-.016zM32.477 88.022c.162-4.595.718-9.168 1.66-13.668 0-.158-.207-.224-.24-.066-.943 4.522-1.499 9.117-1.66 13.734 0 .158.24.158.248 0h-.008zM36.538 84.601c.304-3.51.514-7.028.63-10.554 0-.069-.055-.125-.124-.125s-.124.056-.124.125c-.117 3.52-.327 7.039-.632 10.554 0 .158.233.158.25 0zM40.2 90.165c-.04-3.189.044-6.378.249-9.566 0-.158-.241-.158-.25 0-.204 3.188-.287 6.377-.248 9.566 0 .158.257.158.249 0zM47.283 82.052c0-2.084.075-4.152.183-6.236 0-.158-.241-.158-.25 0-.107 2.076-.174 4.152-.182 6.236 0 .069.056.124.124.124.07 0 .125-.055.125-.124zM51.759 90.83l.29-17.34c0-.068-.055-.124-.124-.124s-.125.056-.125.124l-.315 17.34c0 .068.056.124.124.124.07 0 .125-.056.125-.125h.025zM105.984 97.838c0-1.744.083-3.485.25-5.223 0-.158-.242-.158-.25 0-.15 1.738-.233 3.479-.25 5.223 0 .069.057.124.125.124.07 0 .125-.055.125-.124zM109.995 103.393c0-3.875.039-7.767.116-11.675 0-.158-.24-.158-.25 0-.093 3.875-.132 7.767-.115 11.675 0 .069.055.125.124.125s.125-.056.125-.125zM115.243 97.721c-.136-1.625-.055-3.261.24-4.866 0-.157-.215-.224-.24-.066-.303 1.626-.386 3.285-.25 4.932 0 .158.267.167.25 0zM119.578 98.062l-.266-2.89c0-.158-.258-.158-.25 0l.266 2.89c0 .158.258.158.25 0z" transform="translate(-428.000000, -313.000000) translate(326.000000, 154.000000) translate(102.000000, 159.000000) translate(0.000000, -0.000000) translate(18.453333, 21.336667)"/>
                            <path fill="#FFF" d="M102.754 24.505c1.66 1.412 7.905 4.077 9.018 4.55.1 0 3.321-5.746 3.321-5.746-.548-1.087-6.344-5.049-8.353-5.738-1.28-.415-4.11 6.826-3.986 6.934z" transform="translate(-428.000000, -313.000000) translate(326.000000, 154.000000) translate(102.000000, 159.000000) translate(0.000000, -0.000000) translate(18.453333, 21.336667)"/>
                            <path fill="#D2D8FF" d="M78.888 73.83s14.74-33.44 20.918-46.427c2.645 1.603 5.551 2.727 8.586 3.322-6.244 12.647-23.201 47.98-23.201 47.98l-6.303-4.874z" transform="translate(-428.000000, -313.000000) translate(326.000000, 154.000000) translate(102.000000, 159.000000) translate(0.000000, -0.000000) translate(18.453333, 21.336667)"/>
                            <path fill="#231F20" d="M77.402 86.453c-1.611-7.374 2.217-14.947 5.273-21.441l11.301-23.857 6.353-13.42-.83.225c3.043 1.796 6.35 3.104 9.798 3.878l-.373-.914c-5.016 10.148-10.023 20.3-15.022 30.46-3.878 7.846-7.4 16.45-14.117 22.42-.987.932-2.106 1.713-3.322 2.317-.73.324-.1 1.403.623 1.071.985-.49 1.903-1.104 2.732-1.827 2.409-2.015 4.527-4.354 6.294-6.95 3.073-4.352 5.274-9.218 7.632-13.968 2.557-5.16 5.11-10.327 7.656-15.503 2.851-5.78 5.702-11.565 8.553-17.356.094-.167.106-.369.033-.546-.072-.178-.222-.313-.406-.367-3.345-.742-6.551-2.009-9.5-3.753-.293-.155-.655-.057-.83.224L87.623 51.75 81.71 64.207c-1.748 3.43-3.247 6.982-4.484 10.629-1.162 3.828-1.893 7.98-1.03 11.95.2.78 1.379.448 1.205-.333zM100.686 26.407c1.32.936 2.772 1.67 4.31 2.175 1.47.59 2.964 1.121 4.467 1.661.482.158.83.15 1.113-.315.232-.393.442-.798.631-1.213.656-1.295 1.287-2.599 1.927-3.903l.647-1.337c.215-.33.195-.761-.05-1.07-.407-.507-.889-.95-1.428-1.313-.693-.535-1.414-1.034-2.159-1.495-1.384-.947-2.879-1.723-4.45-2.308-1.113-.357-1.72.565-2.226 1.428-.813 1.452-1.505 2.968-2.068 4.534-.24.623-.473 1.246-.68 1.877-.202.362-.247.791-.125 1.187.365.706 1.436.083 1.07-.63.054.116.08.244.076.373V25.9c0-.041.108-.34.166-.515.166-.515.357-1.03.556-1.544.483-1.287 1.038-2.545 1.66-3.77.236-.473.514-.923.831-1.345.06-.082.123-.16.191-.233.1-.091.1-.075.1-.083 0-.008 0-.058-.091 0-.092.058-.175-.091 0 0 .174.091.182.05.24.075 1.421.538 2.773 1.243 4.028 2.1.772.482 1.536.989 2.258 1.545.454.3.848.68 1.163 1.121v-.63c-.83 1.793-1.735 3.586-2.632 5.372-.191.39-.39.78-.598 1.162 0 0-.141.2-.133.241-.05-.299.83-.083.531-.299-.104-.056-.216-.095-.332-.116-1.312-.44-2.616-.905-3.903-1.412-1.476-.464-2.875-1.144-4.152-2.018-.672-.531-1.552.34-.938.856z" transform="translate(-428.000000, -313.000000) translate(326.000000, 154.000000) translate(102.000000, 159.000000) translate(0.000000, -0.000000) translate(18.453333, 21.336667)"/>
                            <path fill="#231F20" d="M80.972 75.716c5.987-12.19 12.157-24.298 17.78-36.687 1.505-3.322 2.953-6.643 4.342-9.965.183-.448-.54-.64-.714-.2-5.165 12.457-11.21 24.547-17.19 36.621-1.66 3.322-3.254 6.552-4.857 9.84-.216.424.432.831.64.374v.017zM83.414 77.75c5.621-12.622 12.456-24.646 18.667-36.994 1.66-3.322 3.322-6.693 4.808-10.098.191-.44-.448-.83-.648-.382-5.621 12.622-12.456 24.655-18.667 37.003-1.66 3.322-3.322 6.693-4.808 10.098-.2.431.448.83.648.373z" transform="translate(-428.000000, -313.000000) translate(326.000000, 154.000000) translate(102.000000, 159.000000) translate(0.000000, -0.000000) translate(18.453333, 21.336667)"/>
                            <path fill="#231F20" d="M78.697 74.155c2.416 1.106 4.547 2.75 6.228 4.808.307.373.83-.158.531-.532-1.726-2.105-3.91-3.79-6.385-4.924-.432-.2-.83.448-.374.648zM99.241 29.803l1.171.913c.053.045.13.045.183 0 .047-.048.047-.125 0-.174l-1.18-.922c-.048-.047-.125-.047-.174 0-.025.024-.04.057-.04.092 0 .034.015.067.04.091zM98.502 30.667c.823 1.195 1.826 2.257 2.973 3.147.124.1.307-.075.174-.174-1.13-.88-2.118-1.928-2.931-3.106-.091-.125-.307 0-.216.133zM97.157 32.278l4.41 5.273c.099.124.282-.05.174-.175l-4.41-5.273c-.108-.124-.282.058-.174.175zM95.62 35.5c1.33 1.936 2.867 3.72 4.584 5.322.117.108.3-.066.175-.182-1.704-1.582-3.227-3.348-4.543-5.265-.09-.133-.307 0-.215.125zM94.093 38.066c1.686 1.779 3.28 3.644 4.774 5.588.092.125.308 0 .208-.124-1.5-1.963-3.102-3.845-4.8-5.639-.048-.05-.128-.052-.178-.004-.05.048-.053.128-.004.179zM92.722 41.23c1.188 1.336 2.4 2.648 3.654 3.927.108.116.29-.058.175-.174-1.246-1.279-2.464-2.591-3.654-3.936-.108-.117-.282.058-.175.182zM91.768 43.388c1.608 1.334 3.08 2.825 4.392 4.451.1.125.274-.05.175-.174-1.309-1.64-2.78-3.142-4.393-4.484-.125-.1-.3.075-.174.174v.033zM90.215 47.241c.705.715 1.445 1.396 2.209 2.035.116.108.298-.066.174-.174-.764-.648-1.503-1.33-2.209-2.035-.108-.116-.29.058-.174.174zM89.45 49.367c.452.748 1.012 1.425 1.661 2.01.125.108.3-.075.183-.175-.648-.567-1.207-1.227-1.66-1.96-.035-.059-.111-.08-.17-.045-.06.034-.08.11-.047.17h.034zM88.247 52.174l1.536.714c.05.044.124.044.174 0 .018-.03.022-.065.013-.098-.01-.033-.032-.06-.063-.076L88.371 52c-.06-.034-.136-.016-.174.041-.032.062-.01.139.05.175v-.042z" transform="translate(-428.000000, -313.000000) translate(326.000000, 154.000000) translate(102.000000, 159.000000) translate(0.000000, -0.000000) translate(18.453333, 21.336667)"/>
                            <path fill="#FFF" d="M100.204 49.733c.501-.347.772-.94.706-1.545-.124-.913-1.005-1.52-1.478-2.317-.298-.56-.487-1.171-.556-1.802-.208-1.353-.83-5.29.83-6.875 1.66-1.586 5.597-2.126 6.95 1.752.745 1.929.574 4.091-.464 5.879-.416.64-.989 1.154-1.445 1.769-.506.577-.726 1.352-.598 2.109.108.423.365.938 0 1.246-.108.092-.236.158-.374.19-.714.225-3.57-.406-3.57-.406z" transform="translate(-428.000000, -313.000000) translate(326.000000, 154.000000) translate(102.000000, 159.000000) translate(0.000000, -0.000000) translate(18.453333, 21.336667)"/>
                            <path fill="#000" d="M100.362 49.998c.482-.35.788-.894.839-1.488.05-.594-.158-1.18-.573-1.609-.52-.55-.936-1.188-1.23-1.885-.143-.531-.246-1.072-.306-1.62-.266-1.942-.648-5.04 1.229-6.319 1.69-1.205 4.021-.908 5.356.681.863 1.299 1.242 2.86 1.07 4.41-.063.787-.295 1.552-.68 2.242-.497.706-1.035 1.383-1.611 2.026-.494.603-.732 1.375-.664 2.15.058.4.49 1.022-.075 1.255-.198.037-.4.037-.598 0-.955-.06-1.903-.207-2.832-.44-.39-.084-.556.514-.166.606.882.2 1.775.347 2.674.44.459.079.93.03 1.362-.141.606-.308.498-.914.349-1.462-.324-1.162.374-2.018 1.104-2.84.558-.582 1.01-1.256 1.337-1.993.57-1.564.603-3.273.092-4.858-.427-1.563-1.643-2.787-3.203-3.225-1.56-.437-3.236-.023-4.412 1.091-.755.94-1.152 2.117-1.121 3.322-.046 1.285.046 2.57.274 3.836.107.908.46 1.77 1.021 2.491.656.83 1.661 1.952.449 2.832-.316.2-.009.74.315.498z" transform="translate(-428.000000, -313.000000) translate(326.000000, 154.000000) translate(102.000000, 159.000000) translate(0.000000, -0.000000) translate(18.453333, 21.336667)"/>
                            <path fill="#000" d="M97.838 37.426l.299 2.873c.498 2.168 1.885 4.003 3.23 5.813.236.368.548.682.913.922.615.358 1.39.285 1.927-.183.18-.19.374-.364.581-.523.314-.138.643-.241.98-.307.7-.321 1.232-.925 1.462-1.661.55-1.823.59-3.761.116-5.605-.076-.54-.254-1.062-.523-1.536-.262-.398-.619-.723-1.038-.947-4.127-2.425-7.947 1.154-7.947 1.154z" transform="translate(-428.000000, -313.000000) translate(326.000000, 154.000000) translate(102.000000, 159.000000) translate(0.000000, -0.000000) translate(18.453333, 21.336667)"/>
                            <path fill="#FFF" d="M113.01 92.399c.109.21.182.437.215.672.415.266 2.566.714 3.322 1.661.32.369.32.918 0 1.287-.2.25-5.93.357-6.81.3-.2.003-.397-.061-.556-.184-.125-.141-.204-.318-.224-.506-.216-1.013-.39-2.226.332-2.973.337-.316.753-.537 1.204-.64.856-.035 1.71.094 2.516.383z" transform="translate(-428.000000, -313.000000) translate(326.000000, 154.000000) translate(102.000000, 159.000000) translate(0.000000, -0.000000) translate(18.453333, 21.336667)"/>
                            <path fill="#000" d="M112.685 92.59c.158.249.092.622.35.83.219.123.453.218.697.282.69.202 1.356.48 1.984.83.307.192.698.466.698.831-.008.086-.027.17-.058.25 0 .09-.058.132 0 .09.058-.04 0 0-.083 0-.405.06-.812.096-1.221.109-1.279.074-2.566.108-3.853.116h-1.296c-.093.008-.188.008-.282 0-.274-.075-.274-.374-.324-.615-.103-.452-.145-.915-.124-1.378.025-.449.23-.868.57-1.162.34-.294.784-.438 1.232-.4.376.023.75.07 1.12.142.167 0 .333.066.499.116.166.05.24.116.174.042.332.34.83-.183.523-.532-.202-.156-.443-.253-.697-.282-.38-.089-.766-.152-1.154-.191-.825-.151-1.672.085-2.3.64-.685.784-.92 1.866-.623 2.864.074.473.133 1.088.598 1.362.281.126.589.183.896.166 1.329 0 2.658 0 3.978-.066.64 0 1.287-.05 1.927-.108.465-.05.871-.05 1.112-.515.557-1.08-.448-1.935-1.32-2.367-.447-.213-.907-.396-1.379-.548-.308-.087-.608-.201-.896-.34l.174.224c-.033-.27-.12-.53-.257-.764-.283-.407-.93-.042-.665.374z" transform="translate(-428.000000, -313.000000) translate(326.000000, 154.000000) translate(102.000000, 159.000000) translate(0.000000, -0.000000) translate(18.453333, 21.336667)"/>
                            <path fill="#FFF" d="M96.086 91.261c-.111.21-.184.437-.216.673-.416.257-2.566.705-3.322 1.66-.315.375-.315.922 0 1.296.208.249 5.937.349 6.818.29.2.004.394-.057.556-.174.122-.143.2-.32.224-.506.216-1.022.382-2.226-.332-2.982-.343-.313-.76-.533-1.212-.639-.856-.038-1.71.092-2.516.382z" transform="translate(-428.000000, -313.000000) translate(326.000000, 154.000000) translate(102.000000, 159.000000) translate(0.000000, -0.000000) translate(18.453333, 21.336667)"/>
                            <path fill="#000" d="M95.762 91.07c-.133.237-.22.496-.258.764l.175-.224c-.239.114-.486.208-.74.282-.398.133-.83.274-1.187.448-.764.324-1.735.83-1.81 1.778-.053.417.113.831.44 1.096.142.063.293.103.448.116.58.073 1.161.118 1.744.133 1.404.066 2.807.1 4.202.091.664 0 1.42 0 1.66-.756.37-.979.37-2.06 0-3.039-.492-.869-1.456-1.359-2.449-1.245-.446.034-.89.098-1.328.19-.3.028-.588.138-.83.316-.13.15-.12.372.02.51.14.139.364.144.51.013-.09.092 0 0 0 0l.15-.05.399-.1c.348-.066.697-.124 1.054-.157.75-.127 1.5.232 1.869.897.158.424.207.88.14 1.329 0 .34-.057 1.212-.43 1.312-.392.05-.789.05-1.18 0-1.279 0-2.55 0-3.82-.092-.498 0-.996-.05-1.486-.108-.108-.007-.214-.029-.316-.066.166.083 0-.058 0-.191-.036-.261.072-.522.282-.681.64-.504 1.378-.866 2.168-1.063.285-.08.563-.186.83-.316.324-.182.233-.556.415-.83.183-.274-.415-.764-.672-.357z" transform="translate(-428.000000, -313.000000) translate(326.000000, 154.000000) translate(102.000000, 159.000000) translate(0.000000, -0.000000) translate(18.453333, 21.336667)"/>
                            <path fill="#D2D8FF" d="M97.157 64.605c.133 6.56-1.395 24.912-1.237 25.875.027.268.13.521.298.731.233.208.522.341.83.382 1.136.14 2.284.12 3.414-.058.181-.118.31-.303.357-.515.224-.69 2.167-13.66 2.624-19.93 1.885 6.312 4.866 20.968 5.29 21.309.423.34 2.997.348 3.537.398.228.043.464.01.673-.091.21-.179.337-.438.348-.714.366-2.151-4.84-20.627-5.24-27.644-2.964-.54-10.894.257-10.894.257z" transform="translate(-428.000000, -313.000000) translate(326.000000, 154.000000) translate(102.000000, 159.000000) translate(0.000000, -0.000000) translate(18.453333, 21.336667)"/>
                            <path fill="#231F20" d="M96.8 64.605c.14 7.673-.69 15.37-1.13 23.027-.096.91-.135 1.825-.116 2.74.15 1.952 2.491 1.744 3.953 1.661.63 0 1.254 0 1.594-.614.141-.316.228-.653.258-.997.274-1.511.49-3.039.714-4.567.714-4.891 1.411-9.807 1.785-14.731l-.73.1c1.278 4.326 2.233 8.744 3.246 13.145.449 1.951.889 3.91 1.37 5.862.158.648.25 1.968.764 2.491.515.524 1.661.374 2.2.416.54.041 1.87.315 2.492-.058.897-.557.498-2.16.366-2.99-.64-3.911-1.661-7.78-2.492-11.626-1.038-4.6-2.267-9.317-2.557-14.042 0-.169-.112-.317-.274-.365-3.563-.614-7.474-.133-11.02.224-.473.05-.481.83 0 .748 1.395-.142 2.807-.241 4.21-.324 2.21-.223 4.439-.198 6.644.075l-.274-.358c.332 3.675.937 7.319 1.81 10.904.88 4.044 1.852 8.071 2.707 12.123.303 1.256.527 2.529.673 3.812.025.176.025.355 0 .531-.1.482-.39.607-.83.64-.919.014-1.836-.056-2.741-.208-.449-.041-.374-.058-.515-.548-.141-.49-.282-1.046-.415-1.57-.432-1.776-.83-3.553-1.246-5.339-1.063-4.592-2.05-9.226-3.396-13.751-.054-.175-.227-.285-.408-.26-.181.024-.318.176-.323.36-.307 4.151-.83 8.229-1.445 12.323-.243 1.76-.504 3.515-.78 5.264-.083.548-.075 2.184-.623 2.492-.398.105-.812.136-1.22.09-.474.03-.948.03-1.42 0-.831-.074-1.305-.464-1.321-1.162 0-.963.083-1.951.141-2.914.216-3.613.465-7.225.673-10.845.232-3.912.498-7.848.431-11.767-.002-.209-.173-.376-.382-.374-.208.002-.376.173-.373.382z" transform="translate(-428.000000, -313.000000) translate(326.000000, 154.000000) translate(102.000000, 159.000000) translate(0.000000, -0.000000) translate(18.453333, 21.336667)"/>
                            <path fill="#FFF" d="M81.246 62.845c-.074.133.216.548.532.515.606-.059 2.234-.64 2.491-.632.263-.002.498.166.581.416-.147.467-.324.925-.531 1.37 0 .066.15.647.548.224.174-.174 1.295-1.918 1.453-2.2.153-.208.258-.446.307-.698-.005-.233-.08-.458-.216-.648-.162-.272-.343-.532-.54-.78-.05-.083-.126-.147-.215-.183-.087-.025-.18-.025-.266 0-.316.124-3.812 1.976-4.144 2.616z" transform="translate(-428.000000, -313.000000) translate(326.000000, 154.000000) translate(102.000000, 159.000000) translate(0.000000, -0.000000) translate(18.453333, 21.336667)"/>
                            <path fill="#000" d="M80.94 62.762c-.03.355.17.689.497.83.31.108.646.108.955 0l1.03-.29c.27-.1.547-.176.83-.225h.05c.081.014.156.052.216.108 0 0 0-.05 0 0-.016.075-.041.147-.075.216-.083.183-.166.357-.24.54-.101.177-.169.371-.2.573-.002.286.169.545.432.656.303.056.607-.088.756-.357.349-.457.656-.955.963-1.437.307-.482.88-1.162.756-1.794-.155-.49-.416-.941-.764-1.32-.191-.32-.594-.442-.93-.282-.39.17-.77.362-1.138.573-.64.349-1.279.714-1.893 1.113-.48.238-.898.585-1.221 1.013-.191.348.34.664.54.315 0-.083 0 0 .066-.1l.191-.174c.168-.14.346-.267.532-.382.465-.315.946-.598 1.436-.88.49-.282.88-.49 1.329-.723l.39-.182c.067 0-.05 0 0 0h.116c.108 0 .308.407.374.498.128.177.24.366.332.565.069.207.028.435-.108.606l-.315.523c-.3.473-.598.938-.914 1.403-.058.083-.116.175-.182.258l-.067.1c0 .05 0 0 0 0s-.058.05-.058.066c0 .017 0-.091 0 0s.083-.083 0 0 0-.15 0 0c0 0 0-.116.066-.166.208-.532.731-1.204.158-1.661-.573-.457-1.17-.108-1.719.05-.332.1-.656.19-.988.274-.128.046-.262.074-.398.083-.056 0-.11-.02-.15-.058l-.05-.058c-.066-.05 0-.108 0 0 .117-.499-.481-.656-.606-.274z" transform="translate(-428.000000, -313.000000) translate(326.000000, 154.000000) translate(102.000000, 159.000000) translate(0.000000, -0.000000) translate(18.453333, 21.336667)"/>
                            <path fill="#FFF" d="M112.644 28.184c-.27-.283-.647-.44-1.038-.432-.241.075.158 4.152-1.296 3.961-.15 0-.772-1.37-.896-1.287-.598.357.09 2.176.149 2.391.051.217.202.395.407.482.612.193 1.251.285 1.893.274.352-.128.627-.41.748-.764.614-1.387.323-4.318.033-4.625z" transform="translate(-428.000000, -313.000000) translate(326.000000, 154.000000) translate(102.000000, 159.000000) translate(0.000000, -0.000000) translate(18.453333, 21.336667)"/>
                            <path fill="#000" d="M112.86 27.96c-.357-.35-1.47-.939-1.62-.117-.083.507-.058 1.047-.1 1.561.003.6-.125 1.191-.373 1.736-.044.068-.094.132-.15.191-.082.066-.124.05-.19.075h-.075l.133.058-.075-.108-.266-.449c-.124-.224-.274-.58-.515-.714-.24-.133-.597.166-.689.449-.113.698-.017 1.414.274 2.06.07.335.267.632.548.83.296.13.61.217.93.257.39.103.795.137 1.196.1.486-.12.88-.476 1.046-.947.343-.922.474-1.91.382-2.89-.011-.443-.055-.884-.132-1.32-.026-.278-.123-.544-.283-.772-.257-.308-.697.132-.44.44-.058-.067 0 0 0 0v.074c0 .017.058.225.083.34.057.317.093.636.108.956.065.778.018 1.56-.141 2.325-.052.385-.226.744-.498 1.021-.266.216-.656.125-.964.075-.31-.04-.616-.109-.913-.208-.233-.083-.274-.323-.34-.531-.067-.208-.175-.573-.241-.83-.028-.146-.048-.293-.058-.44v-.416s0-.091.041-.074c.042.016-.315 0-.299 0 .017 0 0 .041 0 0 0-.042.158.249.2.323.149.241.273.499.44.731.143.18.36.283.59.283.228 0 .445-.104.589-.283.316-.398.509-.88.556-1.387.086-.62.138-1.243.158-1.868v-.332-.141-.125s-.05.091-.058.1c-.009.008-.117 0 0 .083.221.075.426.19.606.34.39.266.83-.182.54-.456z" transform="translate(-428.000000, -313.000000) translate(326.000000, 154.000000) translate(102.000000, 159.000000) translate(0.000000, -0.000000) translate(18.453333, 21.336667)"/>
                            <path fill="#FFF" d="M97.838 54.59c-.083 1.661-1.429 9.135-.83 10.68 3.894-.067 7.398 0 11.293-.092 1.13 0 1.47-9.3 1.81-12.514.15-1.412.947-2.317 2.915-6.527 1.66-3.654-.914-11.476-1.113-12.298-1.089.053-2.172-.185-3.139-.69-.83 1.537 1.935 8.38.332 10.854-2.084 3.23-1.744 3.471-4.152 5.19-1.179.83-5.813-1.03-7.623 0-4.982 2.873-11.933 11.194-12.04 11.185-.906-.091 2.026 1.661 2.026 1.661s10.562-8.42 10.52-7.449z" transform="translate(-428.000000, -313.000000) translate(326.000000, 154.000000) translate(102.000000, 159.000000) translate(0.000000, -0.000000) translate(18.453333, 21.336667)"/>
                            <path fill="#000" d="M97.522 54.59c-.108 1.844-.465 3.67-.68 5.498-.183 1.594-.665 3.695-.134 5.264.043.136.166.229.308.233 2.49 0 5.04 0 7.565-.058h1.71c.66.07 1.325.07 1.985 0 .225-.041.423-.173.548-.366.42-.83.655-1.743.69-2.673.207-1.429.331-2.865.448-4.302.19-2.35 0-5.065 1.013-7.233.747-1.553 1.602-3.056 2.292-4.625.503-1.274.71-2.645.606-4.01-.116-2.94-.972-5.706-1.661-8.529-.043-.133-.167-.224-.307-.224-1.036.082-2.073-.143-2.981-.648-.15-.089-.343-.04-.432.108-.507 1.071-.075 2.541.124 3.637.432 1.804.655 3.651.665 5.506-.1 1.71-1.362 3.321-2.317 4.733-.392.567-.871 1.07-1.42 1.486-.645.605-1.539.867-2.408.706-1.661-.166-3.372-.706-5.033-.432-1.66.274-3.022 1.661-4.201 2.666-2.783 2.397-5.392 4.989-7.806 7.756-.286.366-.6.71-.938 1.03-.191.15.074-.158-.108 0-.183.157-.241.116-.258.332-.066.722 1.844 1.57 2.35 1.877.126.063.277.044.382-.05 1.561-1.246 3.136-2.472 4.725-3.679 1.121-.83 2.242-1.66 3.396-2.491.432-.307.83-.606 1.313-.88.183-.08.358-.178.523-.291.041 0 .166-.042.182-.083h.05c.15 0 .083-.1-.207-.24 0 .398.656.398.622 0-.058-.831-1.17-.092-1.486.099-1.27.772-2.491 1.66-3.662 2.574-1.993 1.49-3.958 3.009-5.896 4.559l.374-.05c-.382-.224-.756-.465-1.13-.706-.199-.133-.523-.481-.747-.54l-.05-.09c-.124-.167-.19-.084-.216.248.055.012.112.012.166 0 .158 0 .35-.349.44-.448l1.088-1.296c2.39-2.725 4.985-5.263 7.765-7.59.71-.599 1.455-1.153 2.233-1.66.745-.46 1.622-.656 2.492-.557 1.569.1 3.238.698 4.808.49 1.112-.14 2.225-1.262 2.89-2.117.42-.577.805-1.179 1.154-1.802.524-.718.967-1.493 1.32-2.309.523-1.602.15-3.47-.125-5.082-.166-.938-.357-1.868-.498-2.815-.199-.742-.199-1.524 0-2.267l-.423.108c1.008.572 2.165.83 3.321.74l-.299-.233c.658 2.233 1.169 4.508 1.528 6.809.251 1.508.206 3.051-.133 4.542-.59 1.625-1.332 3.19-2.217 4.675-.44.757-.768 1.574-.971 2.425-.175 1.005-.2 2.051-.274 3.064-.088 2.786-.382 5.562-.88 8.304-.067.316-.133.939-.4 1.171-.265.233-1.095.05-1.386.05h-1.951c-2.65 0-5.298 0-7.947.058l.299.224c-.18-.741-.22-1.51-.117-2.267.058-1.03.175-2.05.3-3.072.207-1.744.547-3.496.647-5.257.025-.398-.598-.398-.623 0z" transform="translate(-428.000000, -313.000000) translate(326.000000, 154.000000) translate(102.000000, 159.000000) translate(0.000000, -0.000000) translate(18.453333, 21.336667)"/>
                        </g>
                    </g>
                </g>
            </g>
        </g>
    </g>
</svg>
