<svg width="135" height="136" viewBox="0 0 136 114" fill="none" xmlns="http://www.w3.org/2000/svg">
    <path d="M105.543 63.715a43.307 43.307 0 0 0-.052 5.875.241.241 0 0 0 .039.15.262.262 0 0 0 .17.079l.522.097a.217.217 0 0 0 .144 0 .204.204 0 0 0 .072-.137c.307-1.36.43-2.757.365-4.151a7.157 7.157 0 0 1 0-1.907 1.566 1.566 0 0 0-1.038-.235" fill="#fff"/>
    <path d="M105.282 63.715a45.159 45.159 0 0 0-.124 3.753c0 .627.02 1.254.059 1.88 0 .236 0 .503.202.653.217.118.458.185.705.196.607.105.653-.398.738-.881.113-.59.193-1.184.241-1.782.036-.616.036-1.232 0-1.848a7.938 7.938 0 0 1 0-1.886.307.307 0 0 0-.137-.333 1.958 1.958 0 0 0-1.188-.274c-.372.039-.372.652 0 .587.312-.037.627.032.894.196l-.137-.333a17.497 17.497 0 0 0 0 3.088 14.265 14.265 0 0 1-.124 1.6 9.79 9.79 0 0 1-.124.77c0 .124-.045.241-.072.365-.026.124 0 .157-.052.242.072-.072.066-.105 0-.098-.065.006-.235 0-.313-.06-.078-.058-.072 0-.046.047v-.255c0-.248 0-.503-.032-.75v-1.633c0-1.083.039-2.167.124-3.264 0-.378-.562-.378-.588 0l-.026.02z" fill="#001A36"/>
    <path d="M110.596 63.695a44.35 44.35 0 0 1 .274 5.875.26.26 0 0 1-.033.157.292.292 0 0 1-.163.078l-.522.124a.217.217 0 0 1-.144 0 .196.196 0 0 1-.078-.13 15.497 15.497 0 0 1-.516-4.139 7.078 7.078 0 0 0-.111-1.9 1.574 1.574 0 0 1 1.032-.274" fill="#fff"/>
    <path d="M110.302 63.695c.118.999.196 1.998.242 2.997 0 .504.013 1.007.039 1.508v.652c.032.257.021.517-.033.77l.137-.176a1.08 1.08 0 0 1-.404.124l-.209.046.143.072s-.183-.75-.202-.836c-.123-.597-.21-1.2-.261-1.808-.085-1.123.098-2.298-.163-3.394l-.138.333c.258-.178.57-.261.882-.235.378 0 .372-.562 0-.588a1.9 1.9 0 0 0-1.182.313.306.306 0 0 0-.13.333c.107.601.14 1.213.098 1.822-.009.615.021 1.23.091 1.84.062.6.16 1.195.294 1.783.104.476.156 1.05.777.92.245-.02.483-.094.698-.215.196-.15.183-.373.189-.601v-1.88a44.795 44.795 0 0 0-.267-3.812c-.039-.372-.653-.379-.588 0l-.013.032z" fill="#001A36"/>
    <path d="M105.661 58.76c0 1.874-.653 5.98-.601 6.254a.371.371 0 0 0 .111.215c.085.072 5.366-.202 5.582-.17.09.02.183.02.274 0a.248.248 0 0 0 .143-.195c.17-.6-1.044-3.865-1.129-5.876a34.617 34.617 0 0 0-4.38-.228z" fill="#D2D8FF"/>
    <path d="M105.197 58.721a44.182 44.182 0 0 1-.45 4.818 7.923 7.923 0 0 0-.137 1.416c.039.535.424.549.835.542 1.234 0 2.468-.078 3.702-.13.463 0 .927-.04 1.39-.046.222 0 .457.046.653-.098a.771.771 0 0 0 .229-.738c-.132-.83-.321-1.65-.568-2.454a16.134 16.134 0 0 1-.588-3.088.3.3 0 0 0-.215-.287 24.65 24.65 0 0 0-4.57-.229.294.294 0 0 0 0 .588h1.737c.889-.01 1.777.054 2.656.189l-.215-.28a28.128 28.128 0 0 0 1.025 4.889c.074.256.124.518.15.783v.157a.888.888 0 0 1-.183 0c-.378 0-.757 0-1.129.032-1.201.046-2.396.105-3.597.138h-.777.072c-.02 0 0 0 0 0a.402.402 0 0 0 0-.085v-.261c0-.275.059-.549.091-.823a47.58 47.58 0 0 0 .47-5.014.293.293 0 0 0-.581-.019zM106.124 48.563v.751c.178 1.131.467 2.242.862 3.316a9.953 9.953 0 0 0 2.389.268 20.91 20.91 0 0 0 .333-3.917 1.859 1.859 0 0 0-.15-.653 1.189 1.189 0 0 0-.366-.417 2.454 2.454 0 0 0-2.702 0 .782.782 0 0 0-.366.652z" fill="#001A36"/>
    <path d="M106.999 52.63c.248-.052.535-.17.49-.385-.066-.326-.392-.522-.581-.803a1.828 1.828 0 0 1-.248-.653c-.105-.49-.418-1.912.117-2.539a1.488 1.488 0 0 1 2.52.437 2.61 2.61 0 0 1 0 2.174c-.131.242-.327.45-.47.653a.959.959 0 0 0-.157.79c.173.266.434.462.738.555a.991.991 0 0 1-.718.411c-.144 0-.758.222-1.104.078-.137-.052-.972-.483-1.077-.528-.104-.046.235-.138.49-.19z" fill="#fff"/>
    <path d="M107.064 52.846c.405-.098.81-.346.653-.816a1.746 1.746 0 0 0-.365-.503 1.522 1.522 0 0 1-.399-.731 3.68 3.68 0 0 1-.078-2.2c.313-.52.944-.755 1.521-.568.881.32 1.071 1.678.81 2.448-.19.555-.725.92-.79 1.528a.755.755 0 0 0 .189.652c.074.078.157.146.248.203l.163.104s.242.157.196.066v-.19c.039-.104-.046 0-.085.046a1.51 1.51 0 0 1-.176.104 1.51 1.51 0 0 1-.385.092c-.266.093-.55.122-.829.085a3.752 3.752 0 0 1-.562-.275l-.333-.163-.117-.059c-.078 0-.039-.058 0 0v.248c-.033.066.085 0 .137 0l.261-.065c.307-.072.176-.542-.13-.47-.307.072-.614.098-.705.34-.092.241.15.346.326.43.419.288.904.465 1.41.516.255 0 .548-.098.777-.137a1.41 1.41 0 0 0 .79-.411c.287-.326-.098-.464-.34-.607a.881.881 0 0 1-.307-.248c-.104-.19.059-.477.157-.653a4.73 4.73 0 0 0 .601-1.019c.123-.392.157-.807.098-1.214a2.311 2.311 0 0 0-.947-1.697 1.737 1.737 0 0 0-2.461.875c-.154.67-.14 1.367.039 2.03.048.358.172.7.366 1.005.117.163.28.294.404.457.125.163.111.15.085.203-.026.052-.228.091-.293.11-.366.105-.235.575.071.484z" fill="#001A36"/>
    <path d="M109.095 48.015a2.32 2.32 0 0 0-1.659-.333 1.964 1.964 0 0 0-.829.392c-.156.117-.326.287-.287.49a.387.387 0 0 0 .085.169c.233.259.574.392.92.36.34 0 .653-.099 1.006-.092a.925.925 0 0 1 .398.078.834.834 0 0 1 .333.34c.199.523.233 1.095.098 1.638.411-.287.568-1.534.424-2.265l-.489-.777z" fill="#001A36"/>
    <path d="M111.262 69.858a.743.743 0 0 1 .085.267c.163.098 1.012.274 1.305.653a.383.383 0 0 1 0 .51c-.892.106-1.791.146-2.689.117a.355.355 0 0 1-.216-.066.39.39 0 0 1-.091-.202 1.306 1.306 0 0 1 .131-1.175c.134-.125.298-.212.476-.255.34-.018.68.033.999.15z" fill="#fff"/>
    <path d="M111.007 70.008c.072.11.039.274.189.365a1.9 1.9 0 0 0 .314.131c.261.076.513.18.75.313.066.04.203.111.203.21 0 .097-.085.078.039 0 .124-.08.033 0 0 0h-.039c-.059 0 .078 0 0 0h-.418c-.503 0-1.012.038-1.521.045h-.509a.144.144 0 0 0-.072 0c.039.046.046.046 0 0a1.045 1.045 0 0 0 0-.137 1.847 1.847 0 0 1-.046-.503.483.483 0 0 1 .255-.398l.117-.046h.196c.134.008.267.025.398.052l.203.046h.059-.04a.296.296 0 0 0 .418-.418 1.479 1.479 0 0 0-.835-.228 1.22 1.22 0 0 0-1.012.294c-.318.354-.427.85-.287 1.305a.822.822 0 0 0 .306.653c.135.062.283.091.431.085h1.567c.254 0 .509 0 .757-.046.248-.045.444-.039.568-.274.268-.503-.15-.927-.568-1.13a3.978 3.978 0 0 0-.581-.234l-.215-.079h-.131l.137.177a.873.873 0 0 0-.117-.34c-.209-.463-.718-.163-.516.157z" fill="#001A36"/>
    <path d="M105.211 69.858a.872.872 0 0 0-.085.267c-.163.098-1.012.275-1.306.653a.393.393 0 0 0 0 .51c.892.106 1.791.146 2.69.117a.374.374 0 0 0 .222-.066.377.377 0 0 0 .084-.202c.147-.39.098-.826-.13-1.175a1.055 1.055 0 0 0-.477-.255 2.497 2.497 0 0 0-.998.15z" fill="#fff"/>
    <path d="M104.962 69.708a.873.873 0 0 0-.117.339l.137-.176h-.046l-.189.065a6.8 6.8 0 0 0-.503.196c-.352.15-.757.398-.79.829a.655.655 0 0 0 .249.555.596.596 0 0 0 .208.065c.242.033.49.046.732.059.554 0 1.109.039 1.658 0 .333 0 .652 0 .796-.405.158-.42.158-.885 0-1.305a1.142 1.142 0 0 0-1.09-.575 4.03 4.03 0 0 0-.562.078.724.724 0 0 0-.398.164c-.267.267.144.685.412.417a.127.127 0 0 1-.079.046h.059a1.18 1.18 0 0 1 .163-.04c.123-.027.247-.047.372-.058h.19s.228.092.254.105a.472.472 0 0 1 .17.189c.049.145.061.3.033.45v.326a.6.6 0 0 1 0 .086c.045 0 .045-.04 0 0-.046.039-.138 0-.17 0h-.261c-.505 0-1.008-.013-1.508-.04l-.588-.039c-.059 0 .072 0 0 0h-.17s.151 0 .125.085c-.027.085 0-.052 0-.059a.15.15 0 0 1 .071-.124c.234-.182.503-.313.79-.385.128-.035.252-.08.372-.137.177-.104.137-.261.216-.385.169-.346-.333-.646-.536-.326z" fill="#001A36"/>
    <path d="M111.856 62.03c0 .053-.229 0-.274-.097-.085-.222-.17-.901-.216-.993a.235.235 0 0 0-.248-.13c-.052 0-.241.28-.392.424 0 0-.254.065-.176-.15.033-.091.451-.796.522-.9a.656.656 0 0 1 .19-.23.474.474 0 0 1 .267-.038c.126.007.25.025.372.052.04.001.077.018.105.045a.167.167 0 0 1 .039.098 6.964 6.964 0 0 1-.189 1.92z" fill="#fff"/>
    <path d="M111.686 61.854a.214.214 0 0 1 .105-.045s.032.065 0 0a.356.356 0 0 0 0-.066 3.146 3.146 0 0 1-.072-.359 1.858 1.858 0 0 0-.15-.652.478.478 0 0 0-.516-.216.783.783 0 0 0-.294.255l-.143.176c0 .04-.046.052 0 0 .045-.052 0 0 0 0s.052 0 0 0c-.053 0 .039 0 0 0a.183.183 0 0 1 .117.15s0-.039 0 0c0 .04 0 0 0 0a.175.175 0 0 0 0-.046 5.37 5.37 0 0 1 .307-.528l.143-.248a.876.876 0 0 1 .144-.203.371.371 0 0 1 .189 0c.033 0 .288.052.288.046l-.059-.059s0 .072 0 0a.288.288 0 0 0 0 .072v.516c0 .17 0 .509-.052.764v.124c.003.05.003.1 0 .15v.11s0-.052 0 0a.248.248 0 0 0 .424.249 1.32 1.32 0 0 0 .144-.594c0-.262.052-.523.065-.784.013-.26 0-.391 0-.587a.595.595 0 0 0-.078-.3.42.42 0 0 0-.307-.17 2.687 2.687 0 0 0-.392-.053.653.653 0 0 0-.581.281c-.059.079-.111.17-.163.255a7.504 7.504 0 0 0-.372.653.693.693 0 0 0-.111.32c0 .19.155.346.346.346a.457.457 0 0 0 .372-.21l.157-.189.065-.072a.132.132 0 0 1-.105.046s0 .052 0 0c.003.061.003.122 0 .183.033.157.059.313.092.47a.781.781 0 0 0 .169.444.431.431 0 0 0 .588.039.248.248 0 0 0-.32-.268z" fill="#001A36"/>
    <path d="M109.852 55.548c0 .653.313 3.042.078 3.65h-4.015c-.443 0-1.024-3.682-1.161-4.949-.059-.561-1.391-.9-2.168-2.565a5.259 5.259 0 0 1-.365-3.192c.429.02.857-.072 1.24-.268.333.6.039 1.645.653 2.611.822 1.273 2.272 1.13 3.225 1.802.47.333.822.176 1.605-.078 3.375-1.104 3.264 7.337 3.33 7.33.359 0-1.769.196-1.41.157.019-.02-.96-7.063-1.012-4.498z" fill="#fff"/>
    <path d="M102.912 46.076a.563.563 0 0 1 .438.033c.071.072-.803 1.436-.261 1.625.058 0 .515-.34.548-.287.144.229-.424.744-.483.81a.268.268 0 0 1-.235.098 2.445 2.445 0 0 1-.712-.249.512.512 0 0 1-.124-.398 3.043 3.043 0 0 1 .829-1.632z" fill="#fff"/>
    <path d="M102.978 46.318a.333.333 0 0 1 .163 0h.052c-.045 0-.072-.15-.078-.196-.007-.046 0 0 0 0v.046c0-.053 0 0 0 0-.092.209-.189.41-.268.652a1.598 1.598 0 0 0-.143.653c0 .229.169.516.43.516a.794.794 0 0 0 .353-.163l.17-.105.065-.039h-.137l-.111-.059s-.072-.117-.039-.065c.032.052 0-.046 0 0v.078l-.046.079a.815.815 0 0 1-.098.124l-.124.137c-.06.05-.116.105-.17.163 0 0 .046 0 0 0h-.058l-.183-.046c-.12-.029-.235-.07-.346-.124.032 0 0 0 0 0a.18.18 0 0 1 0-.065.607.607 0 0 1 0-.104v-.06c0-.019 0 0 0 0 .054-.292.16-.573.313-.828.079-.137.163-.274.255-.405l.052-.059.046-.045s.052 0 0 0a.248.248 0 0 0-.131-.477 1.348 1.348 0 0 0-.535.607 3.265 3.265 0 0 0-.431.986 1.15 1.15 0 0 0 0 .594.652.652 0 0 0 .431.411c.294.118.698.268.973.04.2-.166.372-.362.509-.582a.605.605 0 0 0 .104-.47.293.293 0 0 0-.444-.176c-.111.059-.215.137-.32.202l-.078.04h-.033s.059 0 0 0h.144s.033.039 0 0c-.033-.04 0-.092 0 0a.18.18 0 0 1 0-.066v-.045s0-.066 0 0V47.316c0-.065.039-.13.065-.195a.647.647 0 0 1 .039-.105v-.052s0-.059 0 0v-.091l.04-.092c.052-.117.111-.228.156-.346a.319.319 0 0 0-.039-.346.725.725 0 0 0-.653-.104c-.326-.052-.202.418.105.333z" fill="#001A36"/>
    <path d="M109.604 55.548c0 .588.078 1.182.117 1.77.101.601.09 1.216-.032 1.814l.241-.176h-3.342c-.118 0-.516.052-.588 0-.072-.052-.15-.307-.189-.424a19.732 19.732 0 0 1-.699-3.48c.004-.402-.078-.8-.241-1.168a6.303 6.303 0 0 0-1.051-.94 4.739 4.739 0 0 1-1.351-4.387l-.235.183c.474.031.948-.075 1.364-.307l-.333-.085c.136.422.209.862.215 1.306.06.486.229.953.497 1.364a3.467 3.467 0 0 0 1.873 1.24c.397.11.783.255 1.156.431.248.19.539.316.848.366.653.039 1.227-.45 1.88-.353.94.144 1.384 1.306 1.639 2.07.312 1.063.506 2.158.581 3.264.039.443.065.88.078 1.305-.023.204-.003.411.059.607a.247.247 0 0 0 .209.124h.045l-.065-.483c-.32.052-1.038.098-1.501.17-.268.04-.209.503.065.477h.046a.257.257 0 0 0 .191-.102.258.258 0 0 0 .044-.212 87.998 87.998 0 0 0-.588-3.708c-.065-.359-.098-1.155-.391-1.423-.47-.424-.529.47-.536.712a.249.249 0 0 0 .49 0 1.206 1.206 0 0 0 0-.34v-.091c0-.02-.34 0-.359 0-.02 0 .111.365.124.43.137.582.235 1.17.333 1.75.15.92.294 1.848.418 2.768l.241-.307h-.046l.066.483c.32-.052 1.038-.091 1.501-.163.268-.046.209-.51-.065-.483h-.046l.216.117c.084.144 0 .079 0-.052v-.391c0-.418-.046-.83-.079-1.24a16.852 16.852 0 0 0-.529-3.186 4.2 4.2 0 0 0-1.364-2.364 1.763 1.763 0 0 0-1.123-.313 3.46 3.46 0 0 0-.816.196 2.163 2.163 0 0 1-.653.163 1.394 1.394 0 0 1-.731-.3c-.803-.438-1.795-.49-2.506-1.11-.98-.855-.581-2.037-1.064-3.081a.262.262 0 0 0-.34-.091c-.34.19-.728.273-1.116.241a.241.241 0 0 0-.235.176 5.225 5.225 0 0 0 1.005 4.361c.398.49.986.796 1.378 1.306.287.352.248 1.044.313 1.488.111.705.228 1.404.385 2.102.075.5.223.985.437 1.443.268.496.764.346 1.273.352h3.153a.247.247 0 0 0 .235-.183 5.03 5.03 0 0 0 .059-1.801c-.039-.653-.13-1.273-.13-1.913a.248.248 0 0 0-.431.078zM51.785 45.371v.692a16.67 16.67 0 0 1-.79 3.055c-.72.17-1.46.253-2.2.248a19.15 19.15 0 0 1-.306-3.642c.009-.2.053-.397.13-.581.08-.154.197-.286.34-.386.755-.5 1.737-.5 2.493 0a.705.705 0 0 1 .333.614z" fill="#001A36"/>
    <path d="M50.982 49.118c-.235-.052-.496-.156-.457-.352.066-.307.366-.49.542-.744.11-.183.186-.384.222-.594.098-.451.385-1.763-.104-2.344a1.371 1.371 0 0 0-2.318.411 2.35 2.35 0 0 0 0 1.998c.118.222.3.417.431.653a.881.881 0 0 1 .15.724c-.155.239-.385.42-.653.516-.045 0 .307.352.653.372.327.105.673.132 1.012.078.13-.052.901-.444.999-.49.098-.045-.248-.182-.477-.228z" fill="#fff"/>
    <path d="M51.047 48.877a.652.652 0 0 1-.215-.066c-.092-.052-.059 0 0-.104.093-.14.202-.267.326-.379.212-.26.351-.57.405-.9a5.13 5.13 0 0 0 .157-1.606 1.489 1.489 0 0 0-.705-1.208 1.717 1.717 0 0 0-1.306-.19c-1.306.373-1.567 2.318-.914 3.323.163.248.6.653.483 1-.117.345-.535.267-.653.502-.117.235.17.457.346.561.228.12.476.195.732.222.307.098.638.098.946 0 .215-.091.424-.209.653-.313.228-.105.437-.157.49-.353.084-.346-.444-.43-.653-.483-.21-.052-.438.405-.13.477.079.013.157.033.234.059l.111.032c.046 0 .046 0 0 0v-.241c.04-.092.085-.06 0 0a.39.39 0 0 0-.091.039l-.294.15c-.175.103-.358.19-.548.261a1.56 1.56 0 0 1-.731-.072 1.442 1.442 0 0 1-.333-.072 1.167 1.167 0 0 1-.196-.11c-.04 0-.111-.144-.072 0v.189c-.046.098.078 0 .104 0l.17-.092c.072-.048.142-.1.209-.156a.705.705 0 0 0 .255-.457c.071-.516-.294-.882-.555-1.306a1.959 1.959 0 0 1-.222-1.43c.002-.427.17-.837.47-1.142a1.175 1.175 0 0 1 1.462.216c.194.287.278.635.235.979-.014.34-.058.679-.13 1.012-.038.23-.117.451-.236.652-.124.183-.306.32-.43.51a.588.588 0 0 0-.079.652.888.888 0 0 0 .575.327.25.25 0 0 0 .13-.483z" fill="#001A36"/>
    <path d="M49.05 44.868c.452-.29.998-.4 1.527-.306.278.056.538.179.758.359.15.104.306.267.267.45a.3.3 0 0 1-.078.157 1.012 1.012 0 0 1-.842.326c-.314 0-.653-.085-.934-.078a.75.75 0 0 0-.359.072.83.83 0 0 0-.313.306 2.56 2.56 0 0 0-.085 1.515c-.379-.268-.522-1.417-.392-2.082l.45-.719z" fill="#001A36"/>
    <path d="M53.92 65.007c.04.075.067.157.078.242.15.098.934.261 1.208.6a.359.359 0 0 1 0 .47 16.79 16.79 0 0 1-2.474.105.314.314 0 0 1-.203-.065.32.32 0 0 1-.085-.183 1.201 1.201 0 0 1 .125-1.084.94.94 0 0 1 .437-.228c.311-.014.622.035.914.143z" fill="#fff"/>
    <path d="M53.665 65.151c.059.091.04.261.183.353.093.05.192.089.294.117.228.07.447.167.653.287.058 0 .176.092.176.177 0 .084-.065.052.052 0 .118-.053.065 0 .046 0h-.052c-.053 0 .078 0 0 0h-.386c-.463 0-.933.039-1.397.045h-.47a.117.117 0 0 0-.065 0c.04.065.046.065 0 0a.743.743 0 0 0 0-.117 1.827 1.827 0 0 1-.039-.464.418.418 0 0 1 .222-.34l.098-.045h.176a1.07 1.07 0 0 1 .203 0H53.521l.189.085h.059c.267.274.652-.144.411-.411a1.358 1.358 0 0 0-.783-.222c-.35-.08-.718.01-.993.241-.29.325-.392.777-.267 1.195 0 .23.106.446.287.587a.88.88 0 0 0 .411.085h1.443c.235 0 .47 0 .698-.039.229-.04.425-.04.542-.268.255-.47-.137-.874-.535-1.07a4.834 4.834 0 0 0-.535-.222l-.203-.065h-.078l.13.176a.777.777 0 0 0-.104-.314c-.222-.385-.731-.09-.529.229z" fill="#001A36"/>
    <path d="M48.038 65.007a.692.692 0 0 0-.078.242c-.15.098-.934.261-1.208.6a.36.36 0 0 0 0 .47c.821.096 1.648.131 2.474.105a.314.314 0 0 0 .203-.065.307.307 0 0 0 .078-.183c.14-.359.096-.763-.117-1.084a.974.974 0 0 0-.438-.228 2.337 2.337 0 0 0-.914.143z" fill="#fff"/>
    <path d="M47.783 64.857a.743.743 0 0 0-.104.314l.13-.177s-.058 0 0 0h-.039l-.176.06c-.157.058-.32.117-.47.182-.333.143-.712.379-.738.783a.594.594 0 0 0 .242.535c.062.03.128.05.196.06.222.032.45.038.653.051.509 0 1.018.04 1.527.033.313 0 .653-.039.757-.391a1.73 1.73 0 0 0 0-1.228 1.077 1.077 0 0 0-1.031-.483c-.175.016-.35.042-.522.078a.724.724 0 0 0-.379.157.294.294 0 0 0 .418.411c-.04.04 0 .04-.085.053h.679c.074.035.15.065.228.091a.333.333 0 0 1 .144.17.823.823 0 0 1 0 .398c.003.059.003.118 0 .176a.768.768 0 0 1 0 .118v.078c.046 0 .059-.046 0-.046h-1.769l-.542-.039c-.059 0 .072 0 0 0h-.091.058l.066.066c.065.065 0 0 0-.053a.215.215 0 0 1 .065-.091c.213-.163.458-.281.718-.346.119-.034.235-.078.346-.13.17-.099.144-.262.209-.366.215-.49-.287-.784-.49-.464z" fill="#001A36"/>
    <path d="M48.338 54.922c.046 2.389-.411 9.452-.352 9.792a.484.484 0 0 0 .104.267.55.55 0 0 0 .313.137c.412.059.83.059 1.24 0a.294.294 0 0 0 .131-.182c.079-.255.692-5.36.855-7.632.653 2.298 1.6 7.599 1.75 7.723.429.095.867.143 1.306.144a.28.28 0 0 0 .372-.294c.13-.783-1.587-7.475-1.73-10.027a22.33 22.33 0 0 0-3.989.072z" fill="#D2D8FF"/>
    <path d="M48.09 54.922c.052 2.95-.209 5.875-.333 8.845a6.62 6.62 0 0 0 0 .953c.092.797 1.058.718 1.659.653.45-.04.6-.268.652-.692.092-.594.157-1.201.229-1.802.228-1.86.444-3.727.587-5.6l-.483.064c.47 1.593.784 3.264 1.11 4.857.15.718.287 1.436.444 2.148.059.248.078.699.307.862.25.112.523.162.796.143.313.079.64.079.953 0 .392-.215.28-.763.235-1.122-.19-1.417-.529-2.814-.816-4.211a36.615 36.615 0 0 1-.868-5.177.248.248 0 0 0-.183-.235 15.473 15.473 0 0 0-4.034.079c-.313 0-.313.515 0 .49a15.013 15.013 0 0 1 3.917-.099l-.177-.235c.17 2.794.967 5.556 1.495 8.297.103.474.18.954.229 1.436 0 .177.059.294-.144.34a3.966 3.966 0 0 1-.92-.059c-.144 0-.21-.065-.144 0a.438.438 0 0 1-.046-.156c-.039-.203-.097-.405-.137-.607-.137-.653-.267-1.267-.398-1.907-.34-1.664-.653-3.349-1.136-4.98a.242.242 0 0 0-.476.065c-.118 1.501-.281 3.01-.457 4.504-.079.653-.157 1.358-.242 2.03 0 .229-.059.457-.091.686-.003.117-.02.233-.052.346-.105.117-.692.065-.856.058-.28 0-.43-.084-.463-.352a6.387 6.387 0 0 1 .04-1.116c.058-1.371.13-2.736.195-4.106.065-1.47.144-2.945.117-4.42a.255.255 0 0 0-.509.02z" fill="#001A36"/>
    <path d="M46.772 57.742c.039.039.222 0 .241-.13.02-.132.04-.843.072-.928a.222.222 0 0 1 .209-.156c.144.106.282.221.411.345 0 0 .242 0 .144-.163-.04-.078-.51-.653-.594-.757a.601.601 0 0 0-.203-.183.404.404 0 0 0-.248 0 2.111 2.111 0 0 0-.333.092.253.253 0 0 0-.09.052.26.26 0 0 0 0 .098c.054.591.185 1.172.39 1.73z" fill="#fff"/>
    <path d="M46.654 57.95a.411.411 0 0 0 .49-.09.613.613 0 0 0 .143-.419v-.398a1.618 1.618 0 0 1 0-.176V56.756c0 .046 0 0 0 0s-.15.007-.104.007l.078.071c.111.098.242.261.386.294a.385.385 0 0 0 .41-.144.365.365 0 0 0 0-.41c-.123-.19-.273-.366-.417-.55-.144-.182-.313-.43-.548-.489a1.234 1.234 0 0 0-.653.105.392.392 0 0 0-.307.404c.008.168.032.334.072.497.045.267.098.528.163.79.034.216.12.422.248.6a.245.245 0 1 0 .346-.346s0 .059 0 0v-.04s0 .053 0 0c0-.051 0 0 0 0a1.735 1.735 0 0 1-.078-.24 11.027 11.027 0 0 1-.137-.608c-.04-.176-.066-.359-.098-.542a.13.13 0 0 0 0-.045s0 .065 0 0a.245.245 0 0 1 0-.066c0-.084.039.092-.066.085h.105l.144-.045a.84.84 0 0 1 .163 0l.072.084.137.15.189.242.098.124.045.059.098.144v-.04a.196.196 0 0 1 .053-.117h.032s-.052 0 0 0 .105.046.04 0c-.066-.046-.196-.183-.3-.261a.366.366 0 0 0-.451 0c-.248.17-.222.47-.235.73.006.125.006.25 0 .373 0 0 0 .085 0 0a.124.124 0 0 1 .098 0 .242.242 0 0 0-.333.091.248.248 0 0 0 .117.288z" fill="#001A36"/>
    <path d="M48.345 51.801c0 .6-.287 2.8-.065 3.362h3.695c.411 0 .946-3.388 1.07-4.57.052-.515 1.43-.084 2.142-1.618.415-.92.532-1.948.332-2.938-.402.015-.8-.077-1.155-.268-.3.562 0 1.521-.614 2.416-.757 1.175-2.239.307-3.12.927-.43.307-.757.156-1.475-.079-3.108-1.011-3.03 6.757-3.069 6.757l1.306.144s.907-6.496.953-4.133z" fill="#fff"/>
    <path d="M48.103 51.801c0 .588-.078 1.175-.117 1.763a4.46 4.46 0 0 0 .059 1.664c.029.107.124.181.235.183H51.582c.195.024.392.002.575-.065.19-.173.318-.402.366-.653.137-.428.246-.864.326-1.305.105-.49.19-.986.261-1.482.04-.229.072-.457.105-.692-.006-.181.016-.361.065-.536.105-.182.562-.228.783-.313.405-.16.756-.432 1.012-.783a4.57 4.57 0 0 0 .653-3.65.261.261 0 0 0-.241-.182 1.834 1.834 0 0 1-1.019-.216.242.242 0 0 0-.333.085c-.385.83-.065 1.874-.75 2.611-.549.575-1.47.307-2.174.405a2.925 2.925 0 0 0-.83.327c-.41.182-.861-.085-1.26-.19a1.698 1.698 0 0 0-1.135.046 3.062 3.062 0 0 0-1.456 1.958 12.787 12.787 0 0 0-.58 2.977c-.044.461-.077.925-.099 1.39v.418c0 .15-.072.235 0 .098l.216-.124h-.04c-.274 0-.332.425-.065.477.268.052.45.052.653.078l.47.052c.046 0 .346.046.235 0l.065-.483h-.039l.235.307c.124-.862.255-1.717.398-2.572.085-.542.177-1.084.3-1.612 0-.072.118-.333.112-.36-.007-.025-.418.04-.372-.052v.06c-.01.112-.01.226 0 .339a.248.248 0 0 0 .49 0c0-.229-.08-1.09-.523-.653-.28.267-.307.992-.372 1.345a74.607 74.607 0 0 0-.535 3.388.255.255 0 0 0 .234.313h.04c.274 0 .333-.424.065-.477-.268-.052-.45-.052-.653-.078l-.47-.052c-.046 0-.346-.046-.235 0l-.065.483h.04a.235.235 0 0 0 .208-.118c.078-.117.046-.346.052-.476 0-.34 0-.653.052-1.019.057-1.002.21-1.997.457-2.97.21-.764.549-1.873 1.365-2.187.535-.202 1.025.105 1.534.216.711.156 1.168-.353 1.867-.372.698-.02 1.56.065 2.128-.523a2.46 2.46 0 0 0 .666-1.214c.023-.502.106-1 .248-1.482l-.34.092c.387.212.827.31 1.267.28l-.235-.176c.287 1.273 0 3.225-1.352 3.78a4.025 4.025 0 0 0-.926.34c-.281.221-.242.652-.288.998a19.947 19.947 0 0 1-.652 3.212c-.04.13-.092.418-.21.503-.338.029-.679.029-1.018 0h-2.611l.235.176c-.1-.55-.097-1.115.007-1.665.039-.542.11-1.083.11-1.632a.248.248 0 0 0-.496 0z" fill="#001A36"/>
    <path d="M55.14 43.87a.496.496 0 0 0-.398-.072c-.085.046.392 1.462-.143 1.508-.053 0-.379-.418-.425-.385-.176.176.21.77.248.835a.268.268 0 0 0 .183.144c.233.02.467 0 .692-.059a.438.438 0 0 0 .21-.326 2.847 2.847 0 0 0-.366-1.645z" fill="#fff"/>
    <path d="M55.265 43.654c-.242-.15-.803-.215-.777.21 0 .208.065.417.098.652 0 .046 0 0 0 0v.137c.003.06.003.122 0 .183v.163c0 .059 0-.046 0 0v.078c0 .04 0 0 0 0s.039-.039 0 0c-.04.04 0 0 0 0s-.04 0 0 0c.039 0 0 0 0 0a.131.131 0 0 1 .085 0c.058 0 .045 0 .078.033a.304.304 0 0 0-.046-.046l-.143-.156c-.092-.092-.196-.21-.333-.21s-.307.216-.3.386c.028.276.13.54.293.764.075.158.22.272.392.306.122.01.244.01.365 0 .162.003.322-.028.47-.09a.653.653 0 0 0 .333-.477c.05-.385.012-.775-.11-1.143a3.909 3.909 0 0 0-.164-.49.712.712 0 0 0-.215-.3.248.248 0 0 0-.333.092.248.248 0 0 0 .085.333v.045a.969.969 0 0 1 .059.118v.085c.025.066.047.133.065.202.09.265.131.543.124.822a.321.321 0 0 1 0 .079c0 .039 0 0 0 0a.13.13 0 0 1 0 .046.293.293 0 0 1-.072.156s.052-.045 0 0c-.052.046.052 0 0 0h-.072s-.052 0 0 0h-.444c-.039 0 0 0 0 0s0-.058-.045-.085l-.085-.15a.4.4 0 0 1-.046-.091v-.04c0-.038 0 0 0 0a.573.573 0 0 1 0-.097.092.092 0 0 1 0-.04s0-.065 0 0v-.117s0 .059 0 0c0-.04 0 0-.059.046l-.124.039a.298.298 0 0 1-.098 0l.04.04.117.123c.065.083.142.156.229.216a.418.418 0 0 0 .385-.203c.133-.425.133-.88 0-1.305v-.118c0-.065 0 .052 0 0v-.04c0-.038 0 0 0 0l-.105.138s-.065 0 0 0c.066 0 0 0 0 0h.072l.078.04c.222.26.47-.164.203-.334z" fill="#001A36"/>
    <path d="M48.103 51.801c0 .588-.078 1.175-.117 1.763a4.46 4.46 0 0 0 .059 1.664c.029.107.124.181.235.183H51.582c.195.024.392.002.575-.065.19-.173.318-.402.366-.653.137-.428.246-.864.326-1.305.105-.49.19-.986.261-1.482.04-.229.072-.457.105-.692-.006-.181.016-.361.065-.536.105-.182.562-.228.783-.313.405-.16.756-.432 1.012-.783a4.57 4.57 0 0 0 .653-3.65.261.261 0 0 0-.241-.182 1.834 1.834 0 0 1-1.019-.216.242.242 0 0 0-.333.085c-.385.83-.065 1.874-.75 2.611-.549.575-1.47.307-2.174.405a2.925 2.925 0 0 0-.83.327c-.41.182-.861-.085-1.26-.19a1.698 1.698 0 0 0-1.135.046 3.062 3.062 0 0 0-1.456 1.958 12.787 12.787 0 0 0-.58 2.977c-.044.461-.077.925-.099 1.39v.418c0 .15-.072.235 0 .098l.216-.124h-.04c-.274 0-.332.425-.065.477.268.052.45.052.653.078l.47.052c.046 0 .346.046.235 0l.065-.483h-.039l.235.307c.124-.862.255-1.717.398-2.572.085-.542.177-1.084.3-1.612 0-.072.118-.333.112-.36-.007-.025-.418.04-.372-.052v.06c-.01.112-.01.226 0 .339a.248.248 0 0 0 .49 0c0-.229-.08-1.09-.523-.653-.28.267-.307.992-.372 1.345a74.607 74.607 0 0 0-.535 3.388.255.255 0 0 0 .234.313h.04c.274 0 .333-.424.065-.477-.268-.052-.45-.052-.653-.078l-.47-.052c-.046 0-.346-.046-.235 0l-.065.483h.04a.235.235 0 0 0 .208-.118c.078-.117.046-.346.052-.476 0-.34 0-.653.052-1.019.057-1.002.21-1.997.457-2.97.21-.764.549-1.873 1.365-2.187.535-.202 1.025.105 1.534.216.711.156 1.168-.353 1.867-.372.698-.02 1.56.065 2.128-.523a2.46 2.46 0 0 0 .666-1.214c.023-.502.106-1 .248-1.482l-.34.092c.387.212.827.31 1.267.28l-.235-.176c.287 1.273 0 3.225-1.352 3.78a4.025 4.025 0 0 0-.926.34c-.281.221-.242.652-.288.998a19.947 19.947 0 0 1-.652 3.212c-.04.13-.092.418-.21.503-.338.029-.679.029-1.018 0h-2.611l.235.176c-.1-.55-.097-1.115.007-1.665.039-.542.11-1.083.11-1.632a.248.248 0 0 0-.496 0z" fill="#001A36"/>
    <path d="M81.781 77.332a.98.98 0 0 1 .104.333c.21.13 1.306.353 1.646.816a.496.496 0 0 1 0 .653 22.067 22.067 0 0 1-3.369.144.444.444 0 0 1-.274-.085.476.476 0 0 1-.111-.248 1.612 1.612 0 0 1 .163-1.476c.168-.154.372-.262.594-.313.423-.024.847.036 1.247.176z" fill="#fff"/>
    <path d="M81.507 77.482c.098.15.04.333.21.438.116.066.241.116.371.15.334.1.656.235.96.405.11.065.287.176.287.326v.072c0 .02-.072.078 0 0s.04 0 0 0h-.052c-.065 0 .072 0 0 0h-.522c-.653 0-1.267.052-1.906.052h-.653a.304.304 0 0 1-.111 0c-.072 0-.072-.144-.085-.228a2.213 2.213 0 0 1-.059-.653.653.653 0 0 1 .36-.562l.156-.065s.202-.046.098-.039c.056-.003.113-.003.17 0 .175.014.35.038.522.072l.248.052h.078-.039c.268.274.653-.144.418-.411a.75.75 0 0 0-.398-.17 4.618 4.618 0 0 0-.601-.098 1.456 1.456 0 0 0-1.214.346c-.363.417-.49.99-.34 1.521a.973.973 0 0 0 .346.738c.158.072.33.105.503.098h1.958c.314 0 .653 0 .947-.06.294-.058.503-.038.653-.306.306-.594-.203-1.077-.692-1.305a6.652 6.652 0 0 0-.705-.288l-.275-.091-.11-.04h-.046l.137.17a1.2 1.2 0 0 0-.137-.398c-.17-.34-.679-.045-.477.274z" fill="#001A36"/>
    <path d="M74.483 77.332a.98.98 0 0 0-.105.333c-.209.13-1.305.353-1.645.816a.496.496 0 0 0 0 .653c1.118.134 2.244.182 3.369.144a.444.444 0 0 0 .274-.085.43.43 0 0 0 .11-.248c.19-.49.129-1.04-.162-1.476a1.305 1.305 0 0 0-.594-.313 3.213 3.213 0 0 0-1.247.176z" fill="#fff"/>
    <path d="M74.235 77.189a.967.967 0 0 0-.137.398l.13-.17h-.097l-.242.078a6.968 6.968 0 0 0-.613.235c-.418.183-.908.47-.953.973a.724.724 0 0 0 .274.653.82.82 0 0 0 .248.065c.293.04.594.059.894.072.692 0 1.384.046 2.082.046.38 0 .784 0 .92-.457a2.212 2.212 0 0 0 0-1.587c-.27-.454-.78-.709-1.305-.652-.219.02-.437.053-.653.097a.86.86 0 0 0-.463.19c-.268.267.144.653.411.411 0 0 0 .04-.058.04h.071l.196-.046c.162-.034.325-.058.49-.072h.26c.073 0-.058 0 0 0a.81.81 0 0 1 .569.398c.071.192.091.399.059.6 0 .131 0 .51-.138.549a.892.892 0 0 1-.228 0h-.326c-.653 0-1.26 0-1.887-.052-.248 0-.49 0-.738-.053-.071 0 .066 0 0 0h-.124s.13.06.111.072c-.02.013 0-.072-.039-.091a.268.268 0 0 1 .111-.229 2.723 2.723 0 0 1 1.025-.496c.155-.043.306-.1.45-.17.203-.117.138-.287.242-.456.163-.373-.34-.666-.542-.346zM75.443 50.332v1.384a7.696 7.696 0 0 0 1.181 2.886c.094.182.22.346.373.483.262.192.619.192.88 0a2.25 2.25 0 0 1 .288-.222 4.402 4.402 0 0 0 1.182-1.038 4.57 4.57 0 0 0 .346-2.468 2.063 2.063 0 0 0-.164-.75 1.306 1.306 0 0 0-.424-.503c-1.756-1.306-3.662.228-3.662.228z" fill="#001A36"/>
    <path d="M76.722 55.907c.21-.163.31-.43.261-.692-.072-.391-.457-.653-.653-.966a2.136 2.136 0 0 1-.293-.75c-.124-.582-.464-2.272.182-3.01a1.763 1.763 0 0 1 2.977.575 3.062 3.062 0 0 1-.065 2.565c-.157.294-.392.535-.568.81a1.39 1.39 0 0 0-.209.933c0 .274.483.359.353.503-.13.143-.731.28-.784.306-.306.098-1.2-.274-1.2-.274z" fill="#fff"/>
    <path d="M76.892 56.11a1.05 1.05 0 0 0-.046-1.574 2.004 2.004 0 0 1-.516-.822 8.27 8.27 0 0 1-.143-.698c-.157-.901-.314-2.187.652-2.67.37-.194.8-.238 1.201-.124.524.21.908.668 1.025 1.22.242.718.17 1.505-.195 2.167-.353.575-.973 1.136-.738 1.894.047.13.13.243.242.326 0 0 .11.091.124.091l.071-.235h-.045c-.21.05-.415.124-.608.222a1.886 1.886 0 0 1-1.129-.228c-.294-.124-.418.352-.13.47.39.207.832.3 1.273.268.183-.048.362-.111.535-.19.17-.058.405-.11.483-.3.117-.294-.183-.36-.313-.548a.692.692 0 0 1 0-.536c.085-.225.21-.433.372-.613.508-.632.743-1.44.652-2.246-.13-1.208-.868-2.461-2.232-2.33a2.174 2.174 0 0 0-1.26.522c-.396.41-.606.964-.581 1.534-.01.62.057 1.238.202 1.84.073.419.258.81.536 1.13.28.307.653.692.209 1.058-.222.202.124.548.359.372z" fill="#001A36"/>
    <path d="M78.961 50.372a2.82 2.82 0 0 0-1.958-.412c-.355.064-.69.21-.98.425-.189.124-.391.32-.352.548.016.072.05.14.098.196.28.297.677.453 1.084.424.398 0 .796-.091 1.2-.085.161 0 .32.035.464.105.164.09.3.223.392.385.228.476.338 1 .32 1.528a3.421 3.421 0 0 0 .306-2.22l-.574-.894z" fill="#001A36"/>
    <path d="M70.978 48.06c.158-.098.333-.168.515-.208.6-.222.79.862.653 1.958 0 .072.392-.653.457-.653.287.183-.059 1.078-.091 1.182a.346.346 0 0 1-.203.242 2.912 2.912 0 0 1-.933.123.6.6 0 0 1-.366-.378 3.917 3.917 0 0 1-.032-2.265z" fill="#fff"/>
    <path d="M71.153 48.237a.732.732 0 0 1 .262-.105c.078 0 .195-.065.228-.065l.04.04s.038.058.045.078a.378.378 0 0 1 .052.117c.072.24.105.488.098.738v.457c0 .15-.085.32 0 .43.06.093.173.138.28.112.151-.059.223-.235.308-.366l.137-.222.039-.059c0-.039 0 0 0 0s.046 0 0 0l-.124.033c.15 0-.203-.078-.118 0 0 0 0 .065 0 0a.651.651 0 0 1 0 .222 2.18 2.18 0 0 1-.104.43.843.843 0 0 1-.105.288l-.084.04-.235.051c-.16.044-.325.061-.49.053h-.059a.444.444 0 0 1-.078-.079.932.932 0 0 1-.111-.248c-.1-.363-.135-.74-.105-1.116a4.66 4.66 0 0 1 .046-.542c.012-.07.027-.14.046-.209v-.078c0 .065.04 0 0 .04.202-.242-.144-.588-.346-.347a1.038 1.038 0 0 0-.19.535c-.039.284-.058.57-.058.856 0 .548.059 1.455.653 1.67.282.058.575.04.848-.051.084-.013.167-.033.248-.06a.6.6 0 0 0 .379-.41c.065-.168.117-.34.157-.516a1.135 1.135 0 0 0 0-.764.32.32 0 0 0-.425-.176.601.601 0 0 0-.195.209c-.072.098-.137.2-.196.306a.904.904 0 0 1-.085.131c0 .046-.066.078 0 0l.11-.065.275.11v.125c0-.13.046-.36.052-.529.01-.174.01-.348 0-.522a2.03 2.03 0 0 0-.222-.855.653.653 0 0 0-.587-.333 1.765 1.765 0 0 0-.366.091c-.157.037-.302.11-.424.215-.176.203.17.549.404.34z" fill="#001A36"/>
    <path d="M83.218 48.472a1.613 1.613 0 0 0-.536-.13c-.653-.131-.653.972-.326 2.036 0 .072-.483-.607-.542-.561-.261.222.216 1.057.261 1.155a.352.352 0 0 0 .242.209c.311.051.629.051.94 0a.607.607 0 0 0 .307-.424 3.838 3.838 0 0 0-.346-2.285z" fill="#fff"/>
    <path d="M83.341 48.276a.971.971 0 0 0-.43-.124 1.822 1.822 0 0 0-.372-.046.653.653 0 0 0-.549.457 1.96 1.96 0 0 0-.078.83c.013.186.039.371.078.554.033.176.098.346.13.516v-.19l.275-.11c.104 0 .118.085.052 0l-.078-.098-.222-.255c-.144-.163-.36-.352-.562-.13-.326.372.046 1.018.229 1.377a.894.894 0 0 0 .19.255.652.652 0 0 0 .397.13c.26.036.524.036.784 0 .653-.124.653-1.018.653-1.553a6.29 6.29 0 0 0-.177-.98 1.306 1.306 0 0 0-.274-.6c-.241-.203-.587.143-.346.346 0 0 0-.046 0 0a.228.228 0 0 0 0 .052v.032a3.981 3.981 0 0 1 .176.581c.094.378.129.768.105 1.156a.737.737 0 0 1-.163.457.292.292 0 0 1-.118.046 1.96 1.96 0 0 1-.274 0h-.463c.065 0 0 0 0 0a.39.39 0 0 1-.06-.085c0-.04 0-.079-.051-.111a2.152 2.152 0 0 1-.19-.438.974.974 0 0 1-.058-.228v-.065c0 .045 0 0 0 0h-.124c-.105 0-.138-.046-.098 0a2.825 2.825 0 0 1 .255.28c.058.072.182.274.313.3a.248.248 0 0 0 .274-.117c.072-.137 0-.287-.04-.424a4.435 4.435 0 0 1-.097-.464 2.328 2.328 0 0 1 0-.737.81.81 0 0 1 .078-.242l.046-.052h.235a.652.652 0 0 1 .3.078c.268.183.516-.241.254-.398z" fill="#001A36"/>
    <path d="M83.459 55.503c-.483 2.121-3.094 1.37-3.153 4.57 0 .815.078 3.12-.216 3.916h-5.026c-.562 0-.764-3.8-.934-5.392-.065-.594-2.265-1.671-2.52-3.336-.3-1.958-.58-3.995-.463-4.472a3.075 3.075 0 0 0 1.554-.339c.528.966.555 2.572.829 4.073.228 1.215 1.782.614 2.728 1.306a2.48 2.48 0 0 0 2.612-.13c.77-.542 2.48-.157 2.761-1.195a18.62 18.62 0 0 0 .463-3.134l1.352-.137s.124 3.774.013 4.27z" fill="#fff"/>
    <path d="M83.217 55.457c-.378 1.482-2.2 1.697-2.833 3.048-.79 1.685.059 3.695-.535 5.432l.241-.183h-3.153c-.538.042-1.08.042-1.619 0-.293-.059-.156.046-.3-.183a1.516 1.516 0 0 1-.085-.293 26.512 26.512 0 0 1-.522-4.309c-.111-1.208-1.404-1.73-2.07-2.65-.665-.92-.652-1.9-.75-2.88a8.801 8.801 0 0 1-.209-2.61l-.235.182a3.069 3.069 0 0 0 1.678-.378l-.333-.085c.38.979.6 2.013.653 3.061.091.653.091 1.391.705 1.75.613.36 1.2.228 1.775.398.353.111.653.346.98.464a2.76 2.76 0 0 0 1.057.11c.77-.065 1.306-.567 2.037-.717a4.764 4.764 0 0 0 1.704-.444c.587-.392.652-1.221.73-1.848.066-.435.118-.86.157-1.273a3.377 3.377 0 0 1 .052-.652l-.234.182 1.35-.137-.247-.248c0 .653 0 1.306.045 1.906.063.785.05 1.575-.039 2.357-.052.313.418.444.477.13.092-.777.11-1.562.052-2.343 0-.653 0-1.364-.046-2.05a.248.248 0 0 0-.241-.241l-1.352.137a.255.255 0 0 0-.234.176c-.072.37-.102.746-.092 1.123-.065.653-.072 2.036-.711 2.409a5.933 5.933 0 0 1-1.626.359c-.698.176-1.195.653-1.958.653-.764 0-1.15-.412-1.789-.582-.51-.13-1.234-.045-1.665-.385-.32-.26-.313-.79-.365-1.168-.052-.379-.111-.862-.176-1.306a6.816 6.816 0 0 0-.568-2.121.241.241 0 0 0-.333-.085 2.611 2.611 0 0 1-1.43.307.248.248 0 0 0-.242.176 8.71 8.71 0 0 0 .17 2.533c.13.992.144 2.147.653 3.029a7.565 7.565 0 0 0 1.554 1.703c.261.17.484.392.653.653.08.351.116.711.104 1.07.072.843.144 1.679.255 2.514.03.591.164 1.173.398 1.717.34.594 1.305.34 1.86.34h3.59a.248.248 0 0 0 .236-.177c.22-.88.297-1.79.228-2.696 0-.953-.124-2.004.379-2.86.73-1.24 2.363-1.383 2.761-2.924a.275.275 0 0 0-.542-.091z" fill="#001A36"/>
    <path d="M74.888 63.617c.071 3.264-.555 12.86-.477 13.337a.706.706 0 0 0 .15.359.745.745 0 0 0 .418.189 6 6 0 0 0 1.69 0 .41.41 0 0 0 .177-.248c.111-.346.94-7.292 1.168-10.386.928 3.127 1.443 10.347 1.652 10.51.574.131 1.16.197 1.75.196.112.026.23.01.333-.046a.509.509 0 0 0 .176-.352c.176-1.064-1.436-10.171-1.632-13.644-1.489-.307-5.405.085-5.405.085z" fill="#D2D8FF"/>
    <path d="M74.646 63.617c.072 4.008-.28 8.036-.45 12.038-.04.434-.04.87 0 1.305.13 1.025 1.397.888 2.16.823.582-.046.738-.333.823-.869.117-.81.215-1.619.313-2.428.307-2.54.6-5.079.79-7.631l-.476.065a41.783 41.783 0 0 1 1.136 6.724c.117.94.215 1.886.339 2.826.04.307 0 .895.287 1.11.303.137.635.198.966.177.43.097.876.097 1.306 0 .477-.242.372-.954.34-1.391-.144-1.88-.464-3.747-.732-5.614-.34-2.396-.737-4.805-.88-7.226a.248.248 0 0 0-.184-.236 21.046 21.046 0 0 0-5.47.111c-.307.033-.314.523 0 .49a20.347 20.347 0 0 1 5.34-.124l-.177-.242c.229 3.82.986 7.6 1.456 11.392.079.614.163 1.227.183 1.847 0 .288 0 .477-.34.555a5.53 5.53 0 0 1-1.305-.098c-.235 0-.176.052-.229-.235-.052-.287-.084-.587-.117-.888-.111-.9-.215-1.801-.32-2.702a41.68 41.68 0 0 0-1.13-6.594.248.248 0 0 0-.482.06c-.15 2.05-.379 4.092-.614 6.136-.111.92-.215 1.84-.333 2.76-.046.314 0 1.202-.228 1.463-.229.261-.947.118-1.221.105-.411 0-.653-.157-.718-.568a10.775 10.775 0 0 1 .052-1.521c.085-1.86.183-3.721.268-5.582.085-1.997.196-4.008.163-6.012a.258.258 0 0 0-.516-.026zM42.124 59.374c2.154-6.026 4.57-11.973 7.004-17.894.279-.884.648-1.737 1.103-2.545l-.398.104c.653.385 1.208 1.306 1.652 1.958.914 1.306 1.756 2.612 2.611 3.917a102.818 102.818 0 0 1 5.588 10.19c.8 1.59 1.456 3.248 1.958 4.955a.294.294 0 0 0 .568-.15c-.894-3.368-2.61-6.567-4.295-9.61a92.396 92.396 0 0 0-5.803-9.504c-.523-.731-1.123-1.782-1.959-2.246a.294.294 0 0 0-.398.105c-.37.644-.67 1.327-.895 2.036a293.609 293.609 0 0 0-1.788 4.42 1094.515 1094.515 0 0 0-4.159 10.614c-.45 1.169-.907 2.331-1.305 3.513-.124.352.444.509.568.156l-.052-.02z" fill="#001A36"/>
    <path d="M41.55 59.413c8.205 4.935 20.327.542 20.327.542-.091 3.701-.998 8.414-6.528 9.204-3.668.522-5.62.862-9.935-1.142s-3.865-8.604-3.865-8.604z" fill="#fff"/>
    <path d="M41.406 59.667c3.982 2.35 8.78 2.69 13.284 2.174a32.931 32.931 0 0 0 7.266-1.606l-.372-.28c-.059 1.997-.313 4.1-1.358 5.875-1.384 2.33-3.747 2.918-6.267 3.264-2.56.386-5.178.052-7.56-.966a6.431 6.431 0 0 1-2.91-2.122 8.182 8.182 0 0 1-1.228-2.715 12.443 12.443 0 0 1-.418-3.865c0-.379-.561-.379-.587 0-.196 3.225.848 7.272 3.916 8.82a14.303 14.303 0 0 0 8.317 1.475c2.546-.307 5.06-.738 6.724-2.886 1.502-1.958 1.86-4.491 1.926-6.867a.294.294 0 0 0-.372-.288 32.074 32.074 0 0 1-6.907 1.56c-4.465.542-9.237.262-13.193-2.069a.294.294 0 0 0-.261.496z" fill="#001A36"/>
    <path d="M61.2 120.429s4.398.672 6.51 0c.163-23.458.563-80.83 0-86.07-1.377-.29-2.78-.29-4.157 0l-2.353 86.07z" fill="#D2D8FF"/>
    <path d="M61.42 120.447c2.122.248 4.459.47 6.528 0a.301.301 0 0 0 .216-.281c.091-9.714.167-39.372.228-49.081.053-9.792.118-19.538 0-29.304a60.264 60.264 0 0 0-.26-7.677.268.268 0 0 0-.203-.203 14.15 14.15 0 0 0-4.296 0 .287.287 0 0 0-.215.281l-.196 6.587-.555 15.752-.653 19.049-.58 16.476-.196 5.451c-.084.857-.112 21.665-.085 22.525v.124c0 .373.574.373.587 0l.235-26.546.555-15.759.653-19.048.581-16.47.19-5.458.058-1.684a2.953 2.953 0 0 0 0-.894.72.72 0 0 1 0-.118l-.215.28c1.077-.162 2.108-.045 3.179-.104.515 0 .587-.267.653.21.065.476.052.802.071 1.2.053 1.306.079 2.566.105 3.845.065 4.165.078 8.33.078 12.488 0 10.928-.072 21.856-.156 32.784-.04 5.105-.083 30.161-.131 35.274l.215-.287c-2.043.47-4.34.235-6.404 0-.365-.065-.359.536.013.588z" fill="#001A36"/>
    <path d="M64.697 68.513c2.957-8.265 6.287-16.425 9.61-24.545.332-.81.652-1.62 1.011-2.416.126-.362.29-.71.49-1.038l-.405.105c.934.516 1.652 1.775 2.252 2.611 1.267 1.77 2.448 3.603 3.59 5.457a139.283 139.283 0 0 1 7.717 14.088 39.811 39.811 0 0 1 2.611 6.685.295.295 0 0 0 .568-.157c-1.201-4.57-3.59-8.93-5.836-13.056a124.715 124.715 0 0 0-7.938-13.01c-.705-1-1.534-2.468-2.611-3.088a.313.313 0 0 0-.405.104c-.524.885-.95 1.824-1.273 2.8a393.559 393.559 0 0 0-2.48 6.144c-1.915 4.787-3.8 9.6-5.654 14.44-.613 1.586-1.24 3.179-1.815 4.784-.124.353.444.51.568.15v-.058z" fill="#001A36"/>
    <path d="M95.836 63.532c9.747 5.875 24.154.653 24.154.653-.111 4.4-1.188 10.007-7.729 10.94-4.361.653-6.678 1.02-11.803-1.357-5.124-2.376-4.622-10.236-4.622-10.236z" fill="#fff"/>
    <path d="M95.693 63.78c6.639 3.917 15.19 3.264 22.365 1.306.652-.19 1.351-.379 2.01-.653l-.372-.28c-.065 2.395-.378 4.908-1.632 7.004a7.241 7.241 0 0 1-2.82 2.702 13.251 13.251 0 0 1-4.641 1.169 19.284 19.284 0 0 1-4.159.202c-1.72-.184-3.4-.645-4.974-1.364a7.527 7.527 0 0 1-3.375-2.48 9.79 9.79 0 0 1-1.45-3.18 15.012 15.012 0 0 1-.515-4.694c0-.378-.561-.378-.587 0-.229 3.774.972 8.559 4.569 10.393a16.811 16.811 0 0 0 9.792 1.795c3.029-.352 6.058-.842 8.043-3.388 1.795-2.298 2.226-5.333 2.304-8.16a.299.299 0 0 0-.372-.287 35.36 35.36 0 0 1-5.222 1.377 33.99 33.99 0 0 1-11.751.438 19.585 19.585 0 0 1-6.92-2.39.294.294 0 0 0-.293.49z" fill="#001A36"/>
    <path d="M96.463 63.454c2.494-6.972 5.275-13.86 8.069-20.707.314-1.01.737-1.985 1.26-2.905l-.405.104c.783.438 1.371 1.482 1.867 2.18 1.038 1.47 1.958 2.99 2.911 4.525a115.928 115.928 0 0 1 6.248 11.75 37.21 37.21 0 0 1 2.18 5.758.294.294 0 1 0 .568-.157c-1.025-3.917-2.964-7.599-4.831-11.137a100.868 100.868 0 0 0-6.436-10.869c-.588-.836-1.267-2.037-2.187-2.559a.307.307 0 0 0-.405.105 12.074 12.074 0 0 0-1.025 2.343c-.711 1.71-1.39 3.434-2.076 5.15a1433.25 1433.25 0 0 0-4.733 12.143c-.522 1.37-1.057 2.735-1.547 4.119-.13.359.438.51.562.157h-.02z" fill="#001A36"/>
    <path d="M64.998 29.717c-4.57-1.175-14.662 1.306-15.308 2.435a8.036 8.036 0 0 0-.77 4.883c.3 1.736 1.488 2.343 1.919.77.163-.607.196-1.364.333-1.997.378-1.717 9.948-1.959 13.826-1.959" fill="#fff"/>
    <path d="M65.076 29.436c-2.86-.705-6.038-.241-8.891.288-1.469.261-2.919.62-4.341 1.07-.807.179-1.57.52-2.24 1.005-.326.414-.55.9-.652 1.417a8.697 8.697 0 0 0-.379 3.062c.053.842.477 3.192 1.828 2.663.588-.229.757-.992.855-1.54.098-.549 0-1.41.464-1.809.803-.653 2.252-.75 3.231-.894a71.201 71.201 0 0 1 10.08-.548.294.294 0 1 0 0-.588c-2.644 0-5.301.078-7.939.307a28.958 28.958 0 0 0-3.74.522 4.282 4.282 0 0 0-2.167.888 1.62 1.62 0 0 0-.353.946c-.078.516-.372 3.166-1.26 1.737a4.72 4.72 0 0 1-.43-2.742c.058-.842.228-2.259.809-2.944.417-.496 1.305-.705 1.913-.9a32.958 32.958 0 0 1 3.61-.941c2.996-.653 6.43-1.201 9.452-.457a.295.295 0 0 0 .157-.568l-.007.026z" fill="#001A36"/>
    <path d="M63.444 25.885a6.71 6.71 0 0 1 .542-3.577c.594-1.064 2.03-1.756 3.081-1.136 1.051.62 1.142 2.07 1.123 3.264l-.111 5.875-4.413-.313s-.163-2.814-.222-4.113z" fill="#D2D8FF"/>
    <path d="M63.738 25.885c-.046-1.306-.111-2.853.816-3.865.796-.874 2.259-1.162 2.938 0 .6 1.032.398 2.448.378 3.584l-.085 4.694.288-.3-4.413-.281.293.294c-.085-1.378-.17-2.761-.222-4.139 0-.379-.6-.379-.587 0 .052 1.378.137 2.761.222 4.139a.3.3 0 0 0 .294.294l4.413.28a.3.3 0 0 0 .293-.294l.079-4.432c.12-1.16.063-2.33-.17-3.473-.216-.94-1-1.64-1.959-1.75a2.898 2.898 0 0 0-2.421 1.267c-.816 1.13-.79 2.65-.745 3.982.014.372.601.379.588 0z" fill="#001A36"/>
    <path d="M24.53 76.68a.978.978 0 0 0-.104.332c-.208.13-1.272.353-1.645.816a.49.49 0 0 0 0 .653c1.118.134 2.244.182 3.369.144a.444.444 0 0 0 .274-.085.502.502 0 0 0 .111-.255 1.638 1.638 0 0 0-.163-1.468 1.34 1.34 0 0 0-.6-.32 3.32 3.32 0 0 0-1.241.183z" fill="#fff"/>
    <path d="M24.276 76.53a1.308 1.308 0 0 0-.137.404l.137-.176H24.172l-.235.085a6.98 6.98 0 0 0-.614.235c-.418.176-.914.463-.953.972a.692.692 0 0 0 .274.653c.077.04.162.065.248.072.294.039.594.052.895.065.692 0 1.384.052 2.076.046.378 0 .79 0 .927-.45a2.253 2.253 0 0 0 0-1.587 1.358 1.358 0 0 0-1.306-.653c-.22.02-.437.053-.653.098a.926.926 0 0 0-.47.183.295.295 0 1 0 .418.418l-.065.039a.32.32 0 0 0 .071 0l.203-.046c.165-.03.328-.056.49-.078h.254c.078 0-.052 0 0 0a.803.803 0 0 1 .574.398c.066.193.084.4.053.6 0 .125 0 .503-.13.55a.892.892 0 0 1-.23 0h-.358c-.653 0-1.26 0-1.887-.047-.248 0-.49 0-.738-.052-.071 0 .066 0 0 0h-.124c-.013 0 .13.052.111.072-.02.02-.039-.078-.039-.091a.248.248 0 0 1 .111-.229 2.676 2.676 0 0 1 1.025-.496c.154-.047.304-.104.45-.17.203-.117.137-.287.242-.457.196-.378-.313-.672-.516-.359z" fill="#001A36"/>
    <path d="M31.803 76.68c.055.103.093.216.11.332.203.13 1.267.353 1.646.816a.496.496 0 0 1 0 .653 22.145 22.145 0 0 1-3.369.144.444.444 0 0 1-.274-.085.45.45 0 0 1-.11-.255 1.6 1.6 0 0 1 .162-1.468 1.35 1.35 0 0 1 .595-.32 3.32 3.32 0 0 1 1.24.183z" fill="#fff"/>
    <path d="M31.549 76.83c.097.15.045.326.215.437.118.063.243.114.372.15.332.096.652.23.953.398.118.072.294.183.294.333v.072c0 .02-.079.072 0 0 .078-.072.039 0 0 0h-.046c-.072 0 .072 0 0 0h-.516a37.79 37.79 0 0 1-1.906.059h-.77c-.065 0-.065-.144-.078-.229a2.21 2.21 0 0 1-.06-.652.653.653 0 0 1 .353-.562l.164-.072s.202-.045.091 0c.059-.003.118-.003.176 0 .175.012.35.034.523.066l.247.058h.079-.04c.262.268.654-.143.412-.417a.85.85 0 0 0-.392-.17 6.417 6.417 0 0 0-.6-.098 1.475 1.475 0 0 0-1.215.346 1.632 1.632 0 0 0-.339 1.527c.046.268.085.588.346.738.157.072.33.106.503.098.652 0 1.305 0 1.958-.033.32 0 .653 0 .953-.052.3-.052.503-.039.653-.313.307-.588-.202-1.07-.692-1.306a5.588 5.588 0 0 0-.712-.287l-.267-.091-.111-.046a.084.084 0 0 1-.046 0l.13.176a1.034 1.034 0 0 0-.136-.405c-.19-.339-.699-.045-.497.275zM30.863 49.68v1.384a7.489 7.489 0 0 1-1.182 2.885 1.475 1.475 0 0 1-.365.477.757.757 0 0 1-.882 0 1.963 1.963 0 0 0-.293-.222 4.487 4.487 0 0 1-1.195-1.038 4.505 4.505 0 0 1-.346-2.474c.006-.258.06-.513.157-.751.102-.195.247-.365.424-.496 1.763-1.3 3.682.235 3.682.235z" fill="#001A36"/>
    <path d="M29.557 55.248a.718.718 0 0 1-.267-.685c.078-.392.463-.653.652-.967.152-.227.258-.482.314-.75.117-.581.457-2.279-.19-3.01a1.756 1.756 0 0 0-2.97.575 3.036 3.036 0 0 0 .065 2.565c.157.288.392.529.568.81.176.277.25.607.21.933-.04.268-.484.36-.353.503.13.143.724.28.783.307.307.091 1.188-.281 1.188-.281z" fill="#fff"/>
    <path d="M29.74 55.078c-.352-.306-.156-.653.105-.94.263-.26.46-.58.574-.933a8.243 8.243 0 0 0 .268-1.665 2.814 2.814 0 0 0-.333-1.769 1.959 1.959 0 0 0-1.136-.738 1.997 1.997 0 0 0-1.45.157c-.546.35-.926.91-1.05 1.547a3.218 3.218 0 0 0 .19 2.246c.27.372.514.762.73 1.168.068.181.068.38 0 .562-.059.098-.196.15-.267.241-.379.477.574.699.868.79.469.067.947-.018 1.364-.241.287-.124.157-.594-.13-.477-.327.182-.697.27-1.07.255a2.861 2.861 0 0 1-.451-.163c-.06 0-.19-.098-.242-.092-.078-.046-.059 0 .065.229.033 0 .138-.111.164-.131.515-.47.117-1.306-.216-1.743a2.891 2.891 0 0 1-.555-.973 2.806 2.806 0 0 1-.072-1.142c.043-.615.341-1.183.823-1.567a1.508 1.508 0 0 1 1.253-.13c.402.101.731.387.888.77.154.53.18 1.09.079 1.632a3.173 3.173 0 0 1-.549 1.723c-.25.221-.438.505-.542.823a.98.98 0 0 0 .327.927c.26.183.607-.157.365-.366z" fill="#001A36"/>
    <path d="M27.325 49.719a2.8 2.8 0 0 1 1.958-.412c.358.06.696.206.986.425.19.124.392.32.352.542a.47.47 0 0 1-.104.195 1.306 1.306 0 0 1-1.077.425c-.405 0-.803-.092-1.201-.078-.16 0-.318.032-.464.097a.985.985 0 0 0-.391.392 3.173 3.173 0 0 0-.314 1.54 3.395 3.395 0 0 1-.307-2.212l.562-.914z" fill="#001A36"/>
    <path d="M35.315 47.408c-.158-.1-.332-.17-.515-.21-.601-.221-.79.863-.653 1.96 0 .071-.385-.653-.45-.653-.294.176.058 1.077.084 1.181a.346.346 0 0 0 .21.235c.3.098.616.142.933.13a.653.653 0 0 0 .365-.378c.232-.736.24-1.524.026-2.265z" fill="#fff"/>
    <path d="M35.485 47.232a.986.986 0 0 0-.405-.203 1.961 1.961 0 0 0-.385-.104.653.653 0 0 0-.588.34c-.142.26-.218.551-.222.848-.01.17-.01.34 0 .51 0 .169.046.404.053.541v-.124l.274-.118.104.066c.046.039 0 .032 0 0 0-.033-.046-.066-.065-.105l-.124-.294c-.124-.189-.32-.437-.562-.221-.352.32-.104.966 0 1.305.032.117.086.228.157.326.096.097.219.16.353.183.258.078.526.118.796.118.705-.033.836-.927.868-1.475.013-.32 0-.642-.039-.96a1.247 1.247 0 0 0-.202-.653c-.203-.235-.549.111-.346.346-.085-.098 0 0 0 0s0-.059 0 0c.018.058.033.117.045.176 0 .15.04.294.053.457.037.38.015.763-.066 1.136a.698.698 0 0 1-.228.457h-.176a1.69 1.69 0 0 1-.255 0 2.42 2.42 0 0 1-.43-.098.256.256 0 0 1-.04-.072c0-.039 0-.084-.046-.13a3.093 3.093 0 0 1-.124-.483.833.833 0 0 1 0-.229v-.065c0-.033 0 0 0 0 .046-.046 0 0-.117.033l-.124-.033s-.033-.04 0 0c.032.04-.033-.046 0 0l.032.046c.053.078.105.156.15.235.046.078.15.306.307.365a.261.261 0 0 0 .281-.117c.072-.105 0-.28 0-.398-.01-.155-.01-.31 0-.464a2.535 2.535 0 0 1 .098-.764l.04-.098.038-.065s0-.046 0 0h.04c.058-.052 0 0 0 0 .039 0 0 0 0 0h.071l.15.046a.895.895 0 0 1 .281.104c.242.196.588-.15.353-.365z" fill="#001A36"/>
    <path d="M23.075 47.813c.17-.075.35-.117.535-.124.653-.131.653.966.327 2.03 0 .072.483-.607.542-.555.26.222-.222 1.057-.268 1.155a.346.346 0 0 1-.235.203 2.726 2.726 0 0 1-.947 0 .653.653 0 0 1-.3-.431c-.12-.777.001-1.572.346-2.278z" fill="#fff"/>
    <path d="M23.199 48.028a.608.608 0 0 1 .28-.078h.275s.032 0 0 0l.052.058a.81.81 0 0 1 .078.242c.036.236.036.476 0 .712-.02.156-.05.31-.091.463-.04.144-.124.307-.052.45a.248.248 0 0 0 .28.111c.131 0 .235-.202.314-.293.053-.07.11-.138.17-.203l.078-.078s-.085.046-.124.046h-.124s0-.033-.046-.04c-.046-.006 0 0 0 0s0 .046 0 0v.053a.818.818 0 0 1-.033.196 2.868 2.868 0 0 1-.17.41 1.305 1.305 0 0 1-.162.295s-.092 0 0 0h-.314c-.16.023-.323.023-.483 0-.13-.046-.183-.242-.209-.386-.038-.397 0-.798.111-1.181.04-.19.085-.385.144-.575 0-.039 0-.078.046-.124.045-.045 0 0 0-.039a.35.35 0 0 0 .032-.072c0-.052 0 0 0 0 .242-.209-.104-.548-.346-.345a1.122 1.122 0 0 0-.248.515 5.569 5.569 0 0 0-.176.81c-.072.535-.163 1.468.437 1.75.25.09.52.117.784.078.28 0 .554-.046.711-.32.104-.177.192-.363.261-.555.115-.223.154-.478.111-.725-.052-.157-.196-.32-.378-.274a.561.561 0 0 0-.235.17l-.242.274-.098.124c-.033.052-.065 0 .078 0l.275.11v.19c.032-.176.098-.346.13-.515.033-.17.059-.353.078-.536a1.958 1.958 0 0 0-.084-.849.653.653 0 0 0-.53-.456c-.128 0-.258.012-.384.039a.98.98 0 0 0-.431.13c-.274.17-.033.594.235.418z" fill="#001A36"/>
    <path d="M22.833 54.85c.483 2.115 3.095 1.37 3.153 4.57 0 .815-.078 3.12.216 3.916 1.958-.039 3.1 0 5.026-.039.562 0 .764-3.793.934-5.386.059-.594 2.258-1.67 2.52-3.335.3-1.959.58-3.995.463-4.472a3.068 3.068 0 0 1-1.554-.34c-.528.96-.555 2.573-.835 4.074-.222 1.214-1.776.614-2.722 1.306a2.474 2.474 0 0 1-2.612-.124c-.77-.542-2.48-.157-2.76-1.195a18.704 18.704 0 0 1-.464-3.134l-1.352-.137s-.124 3.793-.013 4.296z" fill="#D2D8FF"/>
    <path d="M22.599 54.915c.398 1.54 2.03 1.684 2.761 2.925.49.829.385 1.847.379 2.767a8.876 8.876 0 0 0 .228 2.788.255.255 0 0 0 .235.176h3.59c.575 0 1.522.255 1.861-.346.235-.54.368-1.12.392-1.71.117-.836.19-1.678.26-2.513-.014-.36.021-.72.105-1.071a2.16 2.16 0 0 1 .614-.653 7.395 7.395 0 0 0 1.527-1.664c.523-.888.53-2.037.653-3.03a8.709 8.709 0 0 0 .163-2.532.248.248 0 0 0-.234-.183 2.513 2.513 0 0 1-1.43-.307.255.255 0 0 0-.34.092 6.62 6.62 0 0 0-.541 1.984c-.072.47-.125.94-.19 1.41.008.39-.094.774-.293 1.11-.38.392-1.162.307-1.659.424-.652.157-1.136.614-1.867.6-.73-.012-1.214-.476-1.886-.652a9.401 9.401 0 0 1-1.6-.34c-.718-.346-.718-1.651-.796-2.35a6.055 6.055 0 0 0-.117-1.24.261.261 0 0 0-.236-.183l-1.35-.13a.242.242 0 0 0-.242.241c0 .653-.04 1.365-.046 2.05-.061.781-.043 1.566.052 2.344.059.306.529.176.47-.131a12.918 12.918 0 0 1 0-2.357c0-.652 0-1.305.046-1.906l-.248.248 1.351.13-.235-.175c.036.215.053.434.052.652.04.436.092.87.157 1.306.105.653.15 1.462.731 1.854a4.703 4.703 0 0 0 1.704.444c.731.15 1.26.653 2.037.711a2.61 2.61 0 0 0 1.05-.104c.353-.117.653-.36.98-.464a7.836 7.836 0 0 0 1.782-.398c.614-.359.614-1.123.699-1.756a9.725 9.725 0 0 1 .652-3.055l-.333.085c.511.286 1.094.415 1.678.372l-.235-.176a8.775 8.775 0 0 1-.209 2.572c-.13.98-.15 2.056-.75 2.885-.601.83-1.959 1.443-2.07 2.65a27.25 27.25 0 0 1-.522 4.31c-.02.098-.051.194-.091.286-.138.235 0 .124-.3.183a8.305 8.305 0 0 1-1.613 0h-3.153l.235.183c-.594-1.736.254-3.747-.529-5.431-.653-1.352-2.454-1.567-2.84-3.049a.253.253 0 1 0-.49.124z" fill="#001A36"/>
    <path d="M31.398 62.964c-.065 3.264.561 12.86.483 13.33a.731.731 0 0 1-.15.366.848.848 0 0 1-.418.19 6.248 6.248 0 0 1-1.69 0 .385.385 0 0 1-.177-.255c-.11-.34-.94-7.286-1.168-10.38-.934 3.127-1.45 10.34-1.652 10.51a8.212 8.212 0 0 1-1.756.196.548.548 0 0 1-.326-.046.496.496 0 0 1-.177-.352c-.182-1.064 1.43-10.17 1.632-13.644 1.489-.307 5.4.085 5.4.085z" fill="#fff"/>
    <path d="M31.157 62.964c-.066 3.675.235 7.37.404 11.039 0 .653.06 1.234.072 1.847.02.132.02.267 0 .399-.156.535-.946.41-1.377.391-.43-.02-.51 0-.614-.293a4.454 4.454 0 0 1-.098-.653c-.117-.869-.222-1.737-.32-2.612-.274-2.29-.535-4.57-.711-6.9a.242.242 0 0 0-.477-.065 37.508 37.508 0 0 0-1.031 5.823c-.124.973-.235 1.959-.353 2.918-.039.333-.078.653-.124.999.006.222-.03.443-.104.653-.072.11.078 0-.098 0-.256.049-.516.075-.777.078-.32 0-.822.157-.953-.235a4.57 4.57 0 0 1 .111-1.573c.222-1.959.529-3.884.796-5.823.268-1.939.608-4.074.732-6.13l-.177.235a20.889 20.889 0 0 1 5.334.124c.313 0 .313-.457 0-.49a20.986 20.986 0 0 0-5.458-.058.248.248 0 0 0-.182.235c-.248 4.145-1.143 8.225-1.567 12.35-.121.511-.121 1.043 0 1.554.287.653 1.612.366 2.16.268.549-.098.562-.32.653-.796.118-.79.196-1.58.288-2.37a46.769 46.769 0 0 1 1.227-7.631l-.483-.066c.176 2.279.43 4.57.698 6.816.111.94.222 1.88.353 2.82.052.391.039 1.05.476 1.234.392.102.8.13 1.202.084a1.58 1.58 0 0 0 1.162-.326c.306-.346.208-.927.195-1.306-.071-1.912-.182-3.819-.274-5.731-.104-2.252-.235-4.518-.196-6.776a.248.248 0 0 0-.49-.033z" fill="#001A36"/>
    <path d="M69.829 33.196c9.792.275 29.036.275 31.217 1.169 2.18.894 1.508 4.942 3.694 5.98 1.306.613 2.905-.255 3.532-1.535a6.167 6.167 0 0 0 .157-4.184c-.385-1.573-1.169-3.264-2.69-3.8-.901-.326-35.453-1.618-37.027-.698l1.117 3.068z" fill="#fff"/>
    <path d="M69.828 33.49c8.128.229 16.262.203 24.389.535 1.488.06 2.977.125 4.459.255.809.072 1.88.059 2.611.529 1.449.966 1.305 3.296 2.18 4.693.992 1.626 3.023 1.678 4.361.418 1.71-1.6 1.305-4.406.607-6.384-.457-1.24-1.306-2.735-2.748-3.023a28.397 28.397 0 0 0-4.407-.287c-6.123-.3-12.253-.496-18.383-.653a329.755 329.755 0 0 0-8.793-.085 27.804 27.804 0 0 0-5.052.222c-.162.02-.318.066-.464.137a.307.307 0 0 0-.137.333l1.116 3.069c.13.352.699.202.568-.157l-1.116-3.068-.13.333a4.15 4.15 0 0 1 1.155-.17 55.031 55.031 0 0 1 2.552-.098c2.572-.046 5.144 0 7.716 0 6.093.096 12.186.279 18.279.548 1.958.085 3.969.164 5.947.3.385.008.769.045 1.149.112 2.134.594 2.885 4.054 2.787 5.92-.078 1.45-.881 2.951-2.441 3.193-1.149.182-1.893-.607-2.311-1.58-.581-1.37-.653-3.205-1.913-4.197a4.275 4.275 0 0 0-2.246-.653c-1.305-.144-2.552-.216-3.832-.281-7.787-.379-15.588-.366-23.376-.529l-2.468-.065a.318.318 0 0 0-.059.633z" fill="#001A36"/>
    <path d="M62.883 30.109c-10.713-1.175-34.338 1.305-35.859 2.435-1.52 1.129-2.5 3.153-1.795 4.883.705 1.73 3.486 2.343 4.492.763.385-.6.45-1.357.776-1.958.882-1.717 23.299-1.958 32.386-1.958" fill="#fff"/>
    <path d="M62.883 29.815c-6.28-.653-12.717-.274-18.997.176-3.153.229-6.299.516-9.439.895a61.185 61.185 0 0 0-6.247.966 4.515 4.515 0 0 0-1.306.418 4.85 4.85 0 0 0-2.174 4.256c.242 2.728 4.38 4.151 5.523 1.253.19-.476.235-1.266.653-1.56a2.22 2.22 0 0 1 .738-.268c.82-.203 1.653-.347 2.493-.43 2.716-.334 5.458-.47 8.186-.595 6.848-.306 13.71-.385 20.55-.385a.294.294 0 1 0 0-.587c-5.718 0-11.443.065-17.155.254-2.931.098-5.875.222-8.787.45-1.865.074-3.72.328-5.536.758-.434.07-.831.284-1.129.607-.503.718-.372 1.743-1.077 2.357a2.31 2.31 0 0 1-2.435.17c-2.774-1.306-1.155-5.438 1.306-6.059a47.343 47.343 0 0 1 5.738-.933c2.872-.36 5.757-.653 8.643-.868 6.75-.53 13.709-1.019 20.452-.288.372.04.372-.548 0-.587z" fill="#001A36"/>
    <path d="M64.286 28.581a3.525 3.525 0 0 0-1.436 5.53 4.1 4.1 0 0 0 3.825 1.305c3.18-.62 3.219-3.401 2.194-4.837-.026-.007-1.306-3.192-4.583-1.998z" fill="#D2D8FF"/>
    <path d="M64.208 28.294a3.812 3.812 0 0 0-2.415 4.243 4.113 4.113 0 0 0 4.465 3.225c1.75-.157 3.388-1.306 3.473-3.153a3.584 3.584 0 0 0-.51-1.998c-.137-.222-.293-.555-.476-.822a4.125 4.125 0 0 0-1.573-1.423 3.916 3.916 0 0 0-2.964-.072c-.352.124-.202.692.157.568a3.388 3.388 0 0 1 2.337-.065c.516.223.966.576 1.305 1.024.207.257.383.537.523.836 0 .04.045.078 0 0 .065.118.143.235.215.36.136.254.237.526.3.809a2.611 2.611 0 0 1-1.756 3.1c-1.743.653-4.021.033-4.759-1.808a3.264 3.264 0 0 1 1.802-4.25c.385-.137.235-.705-.124-.574z" fill="#001A36"/>
    <path d="M65.187 15.884a2.566 2.566 0 0 0-1.07 4.028c.7.782 1.756 1.14 2.787.947 2.318-.457 2.344-2.481 1.6-3.526a2.566 2.566 0 0 0-3.317-1.449z" fill="#D2D8FF"/>
    <path d="M65.109 15.636a2.853 2.853 0 0 0-1.821 3.18 3.068 3.068 0 0 0 3.329 2.408c1.305-.117 2.546-.966 2.611-2.376a2.702 2.702 0 0 0-.385-1.488s-.098-.144-.059-.072v-.079l-.046-.091a2.446 2.446 0 0 0-.209-.36 2.977 2.977 0 0 0-1.207-1.122 2.86 2.86 0 0 0-2.213 0c-.36.118-.203.686.15.562a2.415 2.415 0 0 1 1.658-.046c.373.152.698.402.94.724.143.185.266.384.366.595 0 .039.039.052 0 0l.163.28c.096.18.169.37.215.568a1.84 1.84 0 0 1-1.22 2.167c-1.234.45-2.84.033-3.369-1.26a2.285 2.285 0 0 1 1.254-3.002c.346-.19.195-.758-.157-.588z" fill="#001A36"/>
    <path d="M65.827 33.458c3.01.274 7.834.522 8.486 1.41.653.887.464 4.948 1.136 5.986.392.607.895-.261 1.084-1.534a19.41 19.41 0 0 0 .052-4.185c-.117-1.573-.359-3.264-.829-3.806-.28-.32-9.792-1.867-10.275-.946l.346 3.075z" fill="#fff"/>
    <path d="M65.827 33.751c1.9.17 3.806.275 5.692.555.722.07 1.433.23 2.115.477.529.209.653.587.731 1.123.288 1.481.164 3.048.588 4.504.11.405.365 1.05.9.92.719-.17.895-1.455.98-2.023.146-1.185.174-2.381.085-3.571a18.937 18.937 0 0 0-.425-3.375c-.11-.457-.26-1.143-.73-1.351a3.986 3.986 0 0 0-.83-.222 42.472 42.472 0 0 0-7.474-.98c-.496 0-2.168-.195-2.272.575.004.516.063 1.03.176 1.534l.17 1.54c.04.373.653.373.588 0l-.307-2.748a.91.91 0 0 0 0-.228c0-.079.039-.124-.04 0-.078.124.066.032.157 0a3.96 3.96 0 0 1 1.11-.085c2.348.057 4.686.328 6.985.81.392.071.783.143 1.168.24a2.9 2.9 0 0 1 .34.099h.059c.037.056.07.115.098.176a8.75 8.75 0 0 1 .594 3.003c.11 1.141.143 2.288.097 3.434a9.238 9.238 0 0 1-.215 1.638 3.092 3.092 0 0 1-.235.653c-.104.19-.11.261-.255.124-.143-.137-.182-.522-.215-.698a11.401 11.401 0 0 1-.157-1.038c-.137-1.24-.052-2.716-.568-3.878-.463-1.064-2.2-1.142-3.179-1.306-1.893-.267-3.806-.385-5.705-.554-.392.032-.392.62-.026.652z" fill="#001A36"/>
    <path d="M64.019 68.643c11.221 6.757 27.822.738 27.822.738-.13 5.072-1.37 11.528-8.904 12.606-5.02.711-7.697 1.175-13.591-1.56-5.895-2.736-5.327-11.784-5.327-11.784z" fill="#fff"/>
    <path d="M63.868 68.898c7.651 4.57 17.528 3.747 25.793 1.462.757-.209 1.52-.43 2.258-.698l-.372-.28c-.078 2.773-.437 5.691-1.893 8.113a8.487 8.487 0 0 1-3.212 3.082c-1.677.907-3.544 1.136-5.398 1.377-1.58.251-3.182.33-4.779.235a18.47 18.47 0 0 1-5.673-1.527 8.872 8.872 0 0 1-4.028-2.945 11.404 11.404 0 0 1-1.658-3.662 16.975 16.975 0 0 1-.594-5.412c0-.378-.568-.378-.587 0-.268 4.335 1.116 9.864 5.294 11.953a21.249 21.249 0 0 0 6.025 2.03c1.732.248 3.49.248 5.223 0 3.486-.41 6.965-.972 9.243-3.916 2.037-2.612 2.527-6.104 2.612-9.342a.294.294 0 0 0-.373-.28 40.885 40.885 0 0 1-6.038 1.586 39.166 39.166 0 0 1-13.513.502 22.422 22.422 0 0 1-8.042-2.787.294.294 0 0 0-.288.51zM16.684 66.718c2.95-8.265 6.287-16.425 9.61-24.552.332-.803.652-1.612 1.011-2.409.123-.363.288-.712.49-1.038l-.405.105c.933.515 1.645 1.775 2.246 2.61 1.305 1.77 2.448 3.604 3.597 5.458a140.611 140.611 0 0 1 7.71 14.061 39.822 39.822 0 0 1 2.61 6.685.295.295 0 0 0 .568-.157c-1.207-4.57-3.59-8.936-5.836-13.055a126.982 126.982 0 0 0-7.95-13.024c-.706-.999-1.541-2.474-2.612-3.088a.3.3 0 0 0-.405.105c-.508.88-.92 1.812-1.227 2.78-.842 2.044-1.658 4.094-2.474 6.144-1.91 4.787-3.797 9.598-5.66 14.433-.607 1.593-1.234 3.18-1.808 4.785-.13.36.437.516.568.157h-.033z" fill="#001A36"/>
    <path d="M16.005 66.822c11.222 6.757 27.822.738 27.822.738-.13 5.072-1.37 11.528-8.904 12.599-5.02.718-7.696 1.181-13.598-1.56-5.901-2.742-5.32-11.777-5.32-11.777z" fill="#fff"/>
    <path d="M15.848 67.07c7.651 4.57 17.528 3.754 25.793 1.47.757-.21 1.514-.432 2.252-.7l-.366-.28c-.078 2.774-.444 5.692-1.9 8.108a8.344 8.344 0 0 1-3.211 3.087c-1.671.908-3.538 1.13-5.399 1.378a22.462 22.462 0 0 1-4.772.235 18.276 18.276 0 0 1-5.673-1.534 8.812 8.812 0 0 1-4.027-2.938 11.469 11.469 0 0 1-1.659-3.662 17.004 17.004 0 0 1-.594-5.412c0-.378-.568-.378-.587 0-.268 4.328 1.11 9.864 5.294 11.947a21.266 21.266 0 0 0 6.026 2.036 18.66 18.66 0 0 0 5.222 0c3.486-.411 6.972-.973 9.25-3.917 2.037-2.61 2.526-6.103 2.611-9.341a.294.294 0 0 0-.372-.28 41.073 41.073 0 0 1-6.038 1.579 39.064 39.064 0 0 1-13.52.51 22.764 22.764 0 0 1-8.03-2.801.298.298 0 1 0-.3.515zM61.884 96.531l2.696 1.005c.118.046.17-.143.052-.189l-2.696-1.005c-.117-.04-.17.15-.052.189zM61.727 95.33a21.05 21.05 0 0 0 2.37.868.098.098 0 0 0 .079-.176l-.177-.118c-.104-.065-.202.105-.098.17l.177.118.071-.183a19.797 19.797 0 0 1-2.324-.849c-.11-.052-.208.118-.098.17zM61.544 94.475l1.6.437c.117 0 .241.072.366.091a.17.17 0 0 0 .195-.097c.06-.177-.26-.249-.248-.053.013.196.203.124.196 0v.066l-.065.032c0-.078 0-.124-.052-.124h-.06l-.117-.032-.254-.066-.49-.137-.992-.267a.098.098 0 0 0-.052.189l-.026-.04zM61.545 92.836c.955.36 1.93.666 2.918.92a.098.098 0 1 0 .052-.189 28.553 28.553 0 0 1-2.97-.9c-.118-.04-.17.15-.053.189l.053-.02zM62.034 91.407l-.255-.157-.078.183 2.22.816c.117.045.17-.144.052-.19l-2.22-.816c-.104-.039-.163.125-.072.177l.255.156c.105.066.203-.104.098-.17zM61.675 89.403l1.887.652c.124.046.17-.143.052-.183l-1.887-.652a.098.098 0 0 0-.052.19v-.007zM61.46 87.849l1.958.45c.124 0 .176-.163.053-.19l-1.959-.443a.094.094 0 0 0-.046.183h-.006zM61.97 86.034l1.37.529c.117.046.17-.144.052-.19l-1.37-.528c-.118-.046-.17.143-.053.189zM61.877 83.619a30.681 30.681 0 0 0 4.145 1.658.098.098 0 0 0 .053-.19 29.979 29.979 0 0 1-4.1-1.638c-.117-.052-.215.117-.098.17zM62.093 82.163c.666.3 1.344.568 2.036.803.118.04.17-.15.053-.19a25.12 25.12 0 0 1-1.991-.783c-.111-.052-.21.118-.098.17zM61.825 80.42c.757.255 1.508.529 2.246.823.117.052.17-.138.052-.19a43.788 43.788 0 0 0-2.246-.822c-.117-.04-.17.15-.052.189zM62.04 78.018l1.88.548a.098.098 0 0 0 .053-.19l-1.88-.548a.098.098 0 0 0-.052.19zM62.197 73.97c.396.17.807.301 1.228.392.124 0 .176-.163.052-.19a6.78 6.78 0 0 1-1.234-.391c-.046 0-.104 0-.117.072a.098.098 0 0 0 .072.117zM62.093 72.351c.327.17.67.307 1.025.412a.098.098 0 0 0 .052-.19 5.288 5.288 0 0 1-.98-.391c-.11-.06-.215.11-.097.17zM62.504 64.825c.346.266.726.486 1.13.652a.104.104 0 0 0 .124-.071.098.098 0 0 0-.072-.118 4.712 4.712 0 0 1-1.084-.653.104.104 0 0 0-.137 0 .104.104 0 0 0 .04.137v.053zM62.615 63.206l1.162.444a.098.098 0 0 0 .124-.066.104.104 0 0 0-.072-.124l-1.162-.444a.098.098 0 0 0-.117.072c-.01.05.018.1.065.118zM62.85 60.294l1.012.385a.098.098 0 0 0 .118-.072.105.105 0 0 0-.066-.117l-1.011-.379a.098.098 0 0 0-.124.066.098.098 0 0 0 .071.117zM62.687 58.845l1.469.529c.117.045.17-.144.052-.183l-1.456-.522c-.117-.04-.17.15-.052.189l-.013-.013zM63.085 56.88c0 .059 0 .098.072.104h.059l.137.046.228.078.496.177 1 .34c.117.038.169-.15.052-.19l-1.437-.496-.346-.118a.58.58 0 0 0-.293-.058c-.15.045-.144.306 0 .293.143-.013.124-.209 0-.196l.032.02zM63.065 55.744l.934.333a.104.104 0 0 0 .124-.072.098.098 0 0 0-.072-.117l-.933-.333a.098.098 0 0 0-.118.072.098.098 0 0 0 .065.117zM62.89 54.752l.802.359a.098.098 0 0 0 .13-.04.098.098 0 0 0 0-.13l-.802-.359a.098.098 0 0 0-.13 0 .104.104 0 0 0 0 .137v.033z" fill="#001A36"/>
</svg>
