<svg xmlns="http://www.w3.org/2000/svg" width="237" height="237" viewBox="0 0 237 237">
    <g fill="none" fill-rule="evenodd">
        <g fill-rule="nonzero">
            <g>
                <g>
                    <g fill="#7582FF" opacity=".1">
                        <path d="M32.865 192.65c-8.657-5.051-19.498-15.301-21.614-25.027C9.135 157.896 0 132.64 0 122.63c0-20.966 13.276-26.233 9.42-46.846-.922-4.937-1.957-9.92-1.605-14.937.388-4.33 1.512-8.561 3.322-12.513 9.408-22.013 31.978-37.78 55.89-39.031 11.115-.603 52.49-14.641 68.632-7.065 34.48 16.188 45.959 77.71 53.376 89.2 7.417 11.49 14.504 24.367 13.765 38.075-.74 13.708-9.408 25.914-20.613 33.673-11.206 7.758-17.497 24.003-30.943 26.233-13.447 2.23-82.112 2.946-99.881 4.391-.034 0-17.224-.42-18.498-1.16z" transform="translate(-602.000000, -201.000000) translate(602.000000, 201.000000) translate(16.880088, 20.650892)"/>
                    </g>
                    <path fill="#000" d="M68.7 28.858v3.174c-.5 3.731-3.038 13.549-3.607 13.97-.91.67-9.703 1.353-10.09 1.137-.387-.216-1.763-13.469-1.4-16.666.047-.916.255-1.817.615-2.661.367-.7.897-1.302 1.547-1.752 4.437-3.163 9.044-1.377 11.376 0 .985.584 1.58 1.653 1.559 2.798z" transform="translate(-602.000000, -201.000000) translate(602.000000, 201.000000) translate(16.880088, 20.650892)"/>
                    <path fill="#FFF" d="M65.037 46.002c-1.07-.228-2.276-.706-2.094-1.604.296-1.388 1.673-2.275 2.469-3.413.512-.837.86-1.763 1.024-2.73.466-2.06 1.774-8.066-.49-10.728-2.104-2.468-8.156-3.959-10.602 1.877-1.332 2.888-1.332 6.214 0 9.1.558 1.036 1.377 1.912 1.991 2.913.694.958.94 2.17.671 3.322-.74 1.117-1.84 1.948-3.117 2.355-.193.09 1.41 1.604 3.038 1.718.591 0 3.196.932 4.641.34.58-.227 4.107-2.035 4.55-2.274.694-.171-1-.649-2.081-.876z" transform="translate(-602.000000, -201.000000) translate(602.000000, 201.000000) translate(16.880088, 20.650892)"/>
                    <path fill="#000" d="M65.15 45.592c-.944-.216-2.172-.603-1.513-1.809.469-.679 1.006-1.308 1.604-1.877.882-1.102 1.458-2.416 1.673-3.81.607-2.342.838-4.765.682-7.179-.081-2.021-1.165-3.868-2.89-4.926-1.66-.997-3.651-1.288-5.528-.807-5.506 1.58-6.507 9.976-3.777 14.197.944 1.456 2.742 3.106 2.275 5.028-.268.712-.808 1.289-1.501 1.604-.421.262-1.422.512-1.65.956-.33.66.944 1.376 1.354 1.626 1.002.49 2.078.81 3.185.945 1.231.375 2.546.375 3.777 0 1.001-.398 1.968-.945 2.935-1.434.432-.216 1.786-.603 1.923-1.137.204-.956-2.06-1.252-2.583-1.365-.523-.114-.773.705-.227.819.375.09 1.843.261 2.025.648v-.432c-.49.319-1.017.575-1.57.762-.853.432-1.695.876-2.56 1.274-.957.36-2.002.416-2.992.16-.887-.128-1.765-.315-2.628-.558-.627-.193-1.197-.536-1.66-1.001l-.126-.125c0 .295.205.307.455 0 .33-.125.637-.302.91-.524.85-.428 1.492-1.177 1.787-2.081.591-2.776-2.276-4.756-3.174-7.076-1.673-4.323.182-12.036 5.915-11.695 1.664.074 3.23.811 4.346 2.048 1.479 1.786 1.263 4.641 1.012 6.825-.307 2.56-.728 5.29-2.548 7.224-.683.717-1.752 1.752-1.593 2.867.16 1.115 1.502 1.467 2.4 1.672.57.137.797-.694.262-.819z" transform="translate(-602.000000, -201.000000) translate(602.000000, 201.000000) translate(16.880088, 20.650892)"/>
                    <path fill="#000" d="M56.175 26.549c2.077-1.34 4.586-1.84 7.019-1.4 1.25.277 2.42.842 3.412 1.65.672.49 1.388 1.217 1.218 2.06-.059.266-.18.516-.353.727-.986 1.041-2.394 1.573-3.822 1.445-1.422 0-2.833-.398-4.255-.375-.575-.022-1.148.09-1.672.33-.598.332-1.088.83-1.41 1.433-.968 1.638-.774 4.38-.41 6.905-1.718-1.206-2.39-6.473-1.786-9.544l2.059-3.231z" transform="translate(-602.000000, -201.000000) translate(602.000000, 201.000000) translate(16.880088, 20.650892)"/>
                    <path fill="#FFF" d="M71.805 118.763c.185.354.305.74.353 1.137.694.433 4.277 1.138 5.54 2.742.531.618.531 1.532 0 2.15-.341.42-9.874.58-11.376.49-.332.01-.657-.095-.921-.297-.208-.236-.34-.53-.376-.842-.364-1.695-.648-3.697.558-4.96.564-.52 1.254-.884 2.002-1.057 1.435-.062 2.868.154 4.22.637z" transform="translate(-602.000000, -201.000000) translate(602.000000, 201.000000) translate(16.880088, 20.650892)"/>
                    <path fill="#000" d="M71.362 119.024c.25.387.159 1.024.546 1.309.355.205.738.359 1.137.455 1.151.34 2.261.806 3.31 1.387.547.342 1.218.83 1.218 1.536-.011.23-.074.456-.182.66.08-.091 0 0-.182 0-.68.095-1.363.156-2.048.182-2.138.125-4.277.17-6.416.193h-2.161c-.167.012-.334.012-.5 0-.513-.102-.535-.67-.615-1.137-.176-.764-.245-1.55-.205-2.332.145-1.59 1.537-2.77 3.129-2.65.634.043 1.264.126 1.888.25.28.044.557.105.83.181.103 0 .399.16.342.103.203.153.489.132.669-.048.18-.18.2-.465.047-.669-.33-.253-.724-.41-1.137-.455-.624-.136-1.254-.239-1.889-.307-1.342-.248-2.724.129-3.754 1.024-1.308 1.137-1.274 3.06-1.012 4.664.125.75.205 1.775.944 2.195.453.206.949.296 1.445.262 2.207 0 4.425 0 6.62-.09 1.07 0 2.14-.092 3.209-.194.74-.08 1.376-.069 1.763-.808.887-1.73-.774-3.083-2.162-3.777-.737-.353-1.497-.657-2.275-.91-.526-.137-1.037-.328-1.524-.569l.239.307c-.052-.438-.196-.86-.421-1.24-.33-.591-1.206-.08-.853.478z" transform="translate(-602.000000, -201.000000) translate(602.000000, 201.000000) translate(16.880088, 20.650892)"/>
                    <path fill="#FFF" d="M57.847 118.763c.187.354.31.74.364 1.137.694.433 4.277 1.138 5.54 2.742.531.618.531 1.532 0 2.15-.341.42-9.874.58-11.376.49-.332.01-.657-.095-.921-.297-.213-.233-.344-.528-.376-.842-.364-1.695-.648-3.697.546-4.96.571-.517 1.264-.88 2.014-1.057 1.43-.062 2.86.154 4.209.637z" transform="translate(-602.000000, -201.000000) translate(602.000000, 201.000000) translate(16.880088, 20.650892)"/>
                    <path fill="#000" d="M57.403 119.024c.25.387.16 1.024.546 1.309.357.202.74.355 1.138.455 1.158.34 2.275.806 3.333 1.387.546.342 1.217.83 1.217 1.536-.01.233-.076.46-.193.66.08-.091 0 0-.17 0-.683.102-1.366.148-2.048.182-2.14.125-4.278.17-6.416.193h-2.162c-.167.012-.334.012-.5 0-.512-.102-.535-.67-.615-1.137-.18-.764-.252-1.549-.216-2.332.15-1.582 1.532-2.757 3.117-2.65.634.043 1.265.127 1.889.25.28.044.557.105.83.181.102 0 .398.16.33.103.466.466 1.194-.25.728-.717-.33-.253-.724-.41-1.138-.455-.627-.136-1.261-.239-1.9-.307-1.338-.25-2.717.128-3.742 1.024-1.308 1.137-1.274 3.06-1.013 4.664.126.75.205 1.775.945 2.195.452.208.948.298 1.444.262 2.207 0 4.414 0 6.621-.09 1.07 0 2.139-.092 3.197-.194.74-.08 1.388-.069 1.763-.808.887-1.73-.762-3.083-2.15-3.777-.737-.355-1.497-.659-2.275-.91-.523-.137-1.03-.327-1.513-.569l.239.307c-.052-.438-.196-.86-.421-1.24-.33-.591-1.251-.08-.865.478z" transform="translate(-602.000000, -201.000000) translate(602.000000, 201.000000) translate(16.880088, 20.650892)"/>
                    <path fill="#FFF" d="M52.921 72.599c.216 10.92-1.877 43.285-1.615 44.878.048.445.222.867.5 1.217.395.351.887.574 1.41.637 1.893.226 3.807.192 5.689-.102.3-.196.513-.502.591-.853.376-1.138 3.163-24.538 3.937-34.936 3.128 10.512.625 34.8 1.33 35.368.706.569 4.983.58 5.893.66.387.069.785.013 1.138-.16.332-.29.54-.697.58-1.137.603-3.583-.58-34.23-1.251-45.913-5.006-.979-18.202.34-18.202.34z" transform="translate(-602.000000, -201.000000) translate(602.000000, 201.000000) translate(16.880088, 20.650892)"/>
                    <path fill="#000" d="M52.466 72.599c.25 13.207-.899 26.472-1.479 39.657-.134 1.645-.184 3.297-.148 4.948.216 3.288 4.369 2.81 6.746 2.628 1.138-.091 1.946-.16 2.276-1.4.14-.563.234-1.138.284-1.717.398-2.708.717-5.426 1.047-8.145 1-8.362 1.979-16.734 2.605-25.13l-.842.114c2.013 6.826 1.706 14.55 1.558 21.614-.068 3.22-.204 6.44-.318 9.659 0 .955-.068 1.91 0 2.866-.066.45.006.91.205 1.32.523.682 2.275.591 3.014.648 1.138.091 3.413.603 4.46 0 1.33-.716 1.035-3.412 1.046-4.72.091-6.485-.17-12.992-.387-19.476-.273-7.77-.58-15.551-1.012-23.31-.002-.195-.131-.366-.319-.42-3.618-.467-7.278-.524-10.91-.171-2.468.125-4.936.307-7.382.546-.546 0-.558.91 0 .853 2.343-.228 4.687-.398 7.042-.535 3.667-.37 7.365-.324 11.023.137l-.307-.353c.728 12.98 1.274 26.006 1.399 39.008 0 1.991.057 4.005-.068 6.007.004.24-.015.48-.057.717-.319 1.137-1.07 1.137-2.014 1.046-1.524-.024-3.044-.153-4.55-.387-.455-.08-.25.08-.364-.204-.046-.29-.046-.586 0-.876 0-.922 0-1.843.057-2.776.102-2.958.227-5.904.295-8.873.217-7.383.558-15.38-1.524-22.513-.066-.198-.262-.32-.468-.292-.206.028-.363.198-.374.405-.512 6.928-1.297 13.845-2.093 20.761-.364 3.174-.74 6.337-1.137 9.51-.057 1.538-.282 3.064-.672 4.551-.477 1.229-3.412.83-4.55.785-1.445-.057-2.821-.626-2.867-2.104-.057-1.673.091-3.413.16-5.029.284-6.28.614-12.513.898-18.85.307-6.825.694-13.65.569-20.476-.04-.197-.211-.34-.412-.346-.2-.006-.38.128-.43.323z" transform="translate(-602.000000, -201.000000) translate(602.000000, 201.000000) translate(16.880088, 20.650892)"/>
                    <path fill="#FFF" d="M83.773 78.878c.42-.113 1.137-.614 1.24-1.046.102-.433-5.472-2.537-4.255-4.278.125-.182 2.275-.102 2.275-.318-.068-1.001-2.878-1.308-3.185-1.377-.315-.072-.646.003-.899.205-.651.666-1.19 1.435-1.592 2.275-.063.538.116 1.076.489 1.468 1.365 1.695 5.335 3.253 5.927 3.071z" transform="translate(-602.000000, -201.000000) translate(602.000000, 201.000000) translate(16.880088, 20.650892)"/>
                    <path fill="#000" d="M83.887 79.3c.75-.251 2.184-1.298 1.137-2.026-.625-.455-1.354-.785-2.013-1.194-.783-.385-1.453-.965-1.946-1.684-.053-.098-.084-.207-.09-.318-.01-.05-.01-.1 0-.148v-.068c0-.069-.103.09-.114 0-.012-.091 1.137-.091 1.217-.091.341 0 .876 0 1.137-.262.262-.262 0-.91-.33-1.138-.822-.53-1.765-.843-2.741-.91-.46-.134-.955-.094-1.388.114-.363.264-.675.592-.921.967-.384.441-.702.936-.945 1.467-.195.73.008 1.508.535 2.048.953 1.02 2.118 1.82 3.413 2.344.571.27 1.16.503 1.763.694.377.157.788.216 1.195.17.21-.078.324-.303.265-.519-.059-.216-.273-.35-.493-.311h-.136c-.171-.024-.339-.066-.501-.125-.45-.129-.891-.289-1.32-.478-1.049-.43-2.033-1.004-2.923-1.707-.485-.342-.845-.833-1.024-1.399-.091-.478.296-.933.557-1.285.255-.352.532-.686.83-1.001.251-.25.547-.194.865-.148.82.061 1.619.294 2.344.682.068 0 .182.194.216.205l.228-.353h-.274c-.42 0-.841 0-1.262.08-.421.08-.717 0-.922.364-.18.296-.241.65-.17.99.244.706.721 1.308 1.353 1.706.76.556 1.559 1.058 2.39 1.502l.432.261.182.114s.17.091.068 0c.09 0 0 .103 0 0 0-.102-.114-.239 0-.216-.214.332-.542.574-.922.683-.398.33-.216 1.16.308.99z" transform="translate(-602.000000, -201.000000) translate(602.000000, 201.000000) translate(16.880088, 20.650892)"/>
                    <path fill="#C7CDFF" d="M52.933 59.676c0 2.741-1.286 11.455-.285 14.026 6.484-.113 12.32 0 18.805-.148 1.888 0-.74-15.926-.171-21.25.25-2.355.933 23.89 7.065 25.243 0 0-.91-4.55.67-6.643-1.387 2.548 2.003-32.115-15.539-24.914-2.275.91-3.276-.42-6.826-.352" transform="translate(-602.000000, -201.000000) translate(602.000000, 201.000000) translate(16.880088, 20.650892)"/>
                    <path fill="#231F20" d="M52.466 59.676c0 2.411-.341 4.846-.512 7.258-.148 2.184-.5 4.789.25 6.905.061.22.261.373.49.375 4.641-.068 9.271 0 13.912-.09h3.243c.678.116 1.375.077 2.036-.115.367-.272.606-.683.66-1.137.284-2.03.284-4.09 0-6.12-.182-2.81-.444-5.609-.626-8.407-.08-1.274-.148-2.549-.16-3.823v-1.547c0-.125.103-.5 0-.603.08.148-.875-.08-.943 0-.001.303.033.604.102.899.068.671.125 1.342.182 2.002.358 4.322.974 8.618 1.843 12.866.426 2.292 1.129 4.523 2.093 6.644.545 1.498 1.71 2.688 3.197 3.265.179.046.37-.006.5-.137.13-.13.183-.32.137-.5-.387-1.968-.558-4.55.614-6.246l-.853-.523s.74 0 .682.091c-.056.091 0-.125 0-.205.003-.287-.027-.573-.09-.853-.08-.955-.114-1.922-.16-2.89-.14-2.871-.428-5.735-.864-8.577-.83-4.983-2.64-12.218-8.407-13.526-1.622-.31-3.295-.213-4.87.285-1.285.375-2.274.966-3.696.75-1.458-.31-2.938-.508-4.426-.591-.282 0-.512.229-.512.512 0 .282.23.512.512.512 1.443.078 2.877.272 4.29.58 1.06.138 2.137-.015 3.116-.444 1.565-.644 3.268-.879 4.949-.682 2.9.477 4.789 2.866 5.95 5.403 2.388 5.46 2.604 11.877 2.946 17.724-.04.765.032 1.532.216 2.275.227.58.83.82 1.137.194.145-.245.063-.561-.182-.706-.245-.144-.56-.063-.705.182-1.342 1.968-1.137 4.812-.717 7.042l.626-.626c-1.49-.386-2.275-2.116-2.867-3.412-.821-2.041-1.43-4.16-1.82-6.326-.807-4.257-1.377-8.556-1.706-12.877 0-.523.09-2.446-.512-2.742-.157-.096-.355-.096-.512 0-.5.364-.353 1.343-.375 1.866 0 1.41 0 2.821.125 4.22.204 3.413.546 6.724.74 10.102.073 1.25.073 2.504 0 3.754.022.426-.044.853-.194 1.252 0 0-.17.33 0 .136-.24.228-1.832 0-2.196 0-5.54.068-11.069 0-16.609.114l.5.375c-.75-2.127-.34-4.8-.193-6.996.148-2.195.5-4.55.49-6.894 0-.282-.23-.512-.512-.512-.283 0-.512.23-.512.512l.193.012z" transform="translate(-602.000000, -201.000000) translate(602.000000, 201.000000) translate(16.880088, 20.650892)"/>
                    <path fill="#C7CDFF" d="M56.71 45.638c-20.386.364 10.784 33.377 10.613 33.354-1.524-.148 4.664-3.413 3.151-3.629 0 0-10.238-15.198-13.878-21.398" transform="translate(-602.000000, -201.000000) translate(602.000000, 201.000000) translate(16.880088, 20.650892)"/>
                    <path fill="#231F20" d="M56.71 45.126c-2.651.068-5.837.671-6.997 3.413-1.07 2.536 0 5.585.944 7.963 2.844 6.757 7.668 12.752 12.355 18.315.91 1.138 1.843 2.162 2.787 3.23l.796.9c.478.534.08.295.228-.08l.625-.353c-.182 0 .103.319.25.296.148-.023.342-.307.444-.398.376-.319.797-.614 1.138-.91.341-.296 1.433-.899 1.752-1.536.122-.188.16-.42.102-.637-.08-.216-.569-.512-.375-.318.193.193 0 0 0-.126 0-.125-.285-.432-.433-.648-2.881-4.277-5.725-8.578-8.532-12.9-1.626-2.515-3.253-5.029-4.766-7.611-.158-.202-.44-.256-.662-.127-.22.13-.312.402-.214.639 2.924 5.017 6.177 9.84 9.385 14.675 1.274 1.911 2.537 3.822 3.822 5.688.192.348.413.679.66.99.524.534.342-.148.17-.148-.17 0-.852.75-1.012.864-.352.273-4.072 2.788-1.99 3.163.271.06.543-.099.625-.364.148-.364-.432-.842-.637-1.138l-1.843-2.093c-2.104-2.423-4.14-4.914-6.074-7.474-2.3-2.963-4.374-6.097-6.2-9.374-1.365-2.514-2.833-5.472-2.753-8.407.102-3.538 3.412-4.482 6.404-4.55.66 0 .66-1.047 0-1.024v.08z" transform="translate(-602.000000, -201.000000) translate(602.000000, 201.000000) translate(16.880088, 20.650892)"/>
                    <path fill="#FFF" d="M120.984 120.173c-.188.355-.31.74-.364 1.138-.694.432-4.278 1.137-5.54 2.741-.532.619-.532 1.532 0 2.15.34.421 9.885.592 11.376.49.332.01.657-.094.921-.296.212-.233.344-.528.375-.842.365-1.695.649-3.697-.546-4.948-.566-.526-1.26-.895-2.013-1.07-1.431-.062-2.86.155-4.21.637z" transform="translate(-602.000000, -201.000000) translate(602.000000, 201.000000) translate(16.880088, 20.650892)"/>
                    <path fill="#000" d="M120.54 119.923c-.222.38-.362.802-.41 1.24l.228-.307c-.4.2-.82.36-1.251.478-.66.227-1.32.455-1.957.739-1.217.523-2.833 1.365-2.97 2.855-.077.658.179 1.312.683 1.74.226.105.47.167.717.183.956.136 1.923.17 2.89.216 2.275.114 4.664.17 6.996.148 1.047 0 2.275 0 2.65-1.138.604-1.602.604-3.369 0-4.97-.789-1.418-2.344-2.231-3.958-2.071-.73.06-1.456.167-2.173.318-.492.042-.963.215-1.365.5-.176.205-.164.51.028.7.192.19.498.197.7.017-.068.069.148 0 .239-.068.09-.068.443-.114.67-.17.581-.114 1.138-.205 1.776-.262 1.288-.213 2.572.406 3.208 1.547.275.725.362 1.508.25 2.275 0 .592-.103 2.139-.808 2.275-.66.088-1.327.107-1.99.057-2.117 0-4.233 0-6.36-.148-.819 0-1.65-.08-2.468-.182-.187-.003-.372-.037-.546-.102.193.125-.069-.284-.091-.398-.075-.475.112-.953.489-1.252 1.08-.849 2.329-1.458 3.663-1.786.48-.133.949-.308 1.399-.523.49-.296.353-.91.648-1.365.296-.455-.534-1.103-.887-.546z" transform="translate(-602.000000, -201.000000) translate(602.000000, 201.000000) translate(16.880088, 20.650892)"/>
                    <path fill="#FFF" d="M149.48 136.031c-.187.355-.31.74-.363 1.138-.683.432-4.266 1.138-5.53 2.742-.53.618-.53 1.531 0 2.15.33.42 9.875.591 11.377.489.332.01.657-.094.921-.296.208-.236.339-.53.376-.842.364-1.695.648-3.697-.558-4.948-.56-.528-1.251-.897-2.002-1.07-1.435-.061-2.868.155-4.22.637z" transform="translate(-602.000000, -201.000000) translate(602.000000, 201.000000) translate(16.880088, 20.650892)"/>
                    <path fill="#000" d="M149.037 135.781c-.217.382-.356.804-.41 1.24l.24-.307c-.405.2-.828.36-1.263.478-.66.227-1.309.455-1.957.74-1.206.522-2.833 1.364-2.958 2.855-.082.658.175 1.313.683 1.74.224.107.468.169.716.182.956.137 1.923.17 2.879.216 2.332.114 4.664.17 7.007.148 1.035 0 2.275 0 2.65-1.137.604-1.603.604-3.37 0-4.972-.79-1.415-2.344-2.227-3.958-2.07-.734.06-1.464.166-2.184.318-.492.042-.963.215-1.365.5-.455.467.261 1.138.728.718-.069.068.159 0 .239-.069l.67-.17c.592-.114 1.138-.205 1.775-.262 1.29-.22 2.578.4 3.208 1.547.29.722.376 1.508.25 2.275-.056.592-.102 2.139-.796 2.276-.66.087-1.327.106-1.99.056-2.128 0-4.244 0-6.36-.147-.819 0-1.66-.08-2.48-.182-.186-.006-.37-.04-.546-.103.194.125-.068-.284-.09-.398-.07-.474.115-.95.489-1.251 1.08-.847 2.33-1.456 3.663-1.786.48-.134.949-.31 1.399-.524.5-.295.364-.91.648-1.365.285-.455-.534-1.103-.887-.546z" transform="translate(-602.000000, -201.000000) translate(602.000000, 201.000000) translate(16.880088, 20.650892)"/>
                    <path fill="#FFF" d="M154.418 89.868c-.228 10.92 1.877 43.285 1.604 44.878-.04.445-.21.868-.49 1.217-.4.349-.895.57-1.421.637-1.892.226-3.806.191-5.688-.102-.299-.197-.507-.504-.58-.853-.376-1.138-3.174-24.538-3.937-34.936-5.198.967-14.993 3.049-15.87 6.94-2.058 9.157-.443 12.593-.864 12.945-.42.353-5.324-.273-6.222-.193-.387 0-.808-5.37-.83-14.277 0-7.36 15.755-10.466 16.108-16.643 4.97-.933 18.19.387 18.19.387z" transform="translate(-602.000000, -201.000000) translate(602.000000, 201.000000) translate(16.880088, 20.650892)"/>
                    <path fill="#000" d="M153.997 89.868c-.239 12.513.796 25.027 1.376 37.54.091 1.991.194 3.993.24 5.996.045.438.045.88 0 1.32-.433 2.081-3.732 1.694-5.416 1.592-.785 0-1.615.114-1.945-.74-.046-.16-.08-.323-.102-.489-.171-.74-.24-1.524-.342-2.275-.386-2.844-.728-5.688-1.058-8.543-.932-7.816-1.831-15.654-2.411-23.503-.004-.134-.067-.26-.173-.34-.106-.083-.243-.112-.373-.081-2.998.523-5.958 1.241-8.862 2.15-2.275.75-5.097 1.718-6.621 3.72-.69 1.21-1.08 2.567-1.138 3.959-.293 1.65-.48 3.319-.557 4.994-.048 1.138-.02 2.278.08 3.413.139.553.2 1.124.182 1.695v.159c.147-.193-.273-.057-.376-.068h-1.786c-1.173-.01-2.344-.104-3.504-.285.17 0 0 .228 0-.227s-.125-.785-.159-1.138c-.136-1.274-.205-2.56-.262-3.834-.08-1.9-.125-3.8-.159-5.688-.194-1.604-.07-3.232.364-4.789.944-2.275 3.185-3.834 5.142-5.13 2.355-1.57 4.88-2.913 7.133-4.642 1.638-1.251 3.276-2.821 3.413-4.994l-.319.41c3.658-.461 7.356-.507 11.023-.137 2.355.137 4.71.307 7.054.535.546 0 .546-.797 0-.853-2.458-.243-4.919-.425-7.383-.546-3.636-.353-7.299-.296-10.921.17-.185.056-.31.228-.308.421-.193 2.275-2.468 3.913-4.209 5.108-2.275 1.558-4.698 2.867-6.939 4.46-1.94 1.169-3.515 2.855-4.55 4.868-.42 1.232-.574 2.538-.455 3.834 0 2.139.056 4.289.147 6.427 0 1.4.126 2.787.262 4.175-.007.676.097 1.349.307 1.991.25.523.535.455 1.138.49 1.297.079 2.594.261 3.89.318 1.297.057 2.378.09 2.276-1.445-.245-2.333-.245-4.686 0-7.019.216-1.922.25-4.79 1.626-6.29 1.16-1.199 2.57-2.127 4.13-2.72 3.427-1.25 6.966-2.172 10.568-2.753l-.535-.41c.547 7.452 1.4 14.892 2.276 22.32.375 3.152.75 6.291 1.137 9.431.148 1.138.08 3.868 1.388 4.448 1.34.347 2.733.44 4.107.273 1.524 0 3.413-.17 3.925-1.888.23-1.358.248-2.743.057-4.107-.25-6.37-.615-12.752-.91-19.123-.342-7.383-.786-14.789-.638-22.195-.06-.183-.235-.303-.428-.295-.192.007-.357.142-.402.33z" transform="translate(-602.000000, -201.000000) translate(602.000000, 201.000000) translate(16.880088, 20.650892)"/>
                    <path fill="#FFF" d="M113.635 85.636c-.421-.114-1.138-.626-1.24-1.047-.102-.42 5.472-2.548 4.255-4.277-.126-.182-2.276-.103-2.276-.319.069-1 2.878-1.32 3.186-1.376.31-.08.638-.008.887.193.654.664 1.193 1.433 1.593 2.275.082.537-.086 1.082-.455 1.48-1.388 1.706-5.359 3.253-5.95 3.07z" transform="translate(-602.000000, -201.000000) translate(602.000000, 201.000000) translate(16.880088, 20.650892)"/>
                    <path fill="#000" d="M113.749 85.238c-.253-.085-.485-.22-.683-.399l-.239-.284s-.08.33-.08.25c0-.08 0 0 .148-.102l.364-.228c.694-.398 1.4-.785 2.07-1.24.696-.401 1.285-.963 1.719-1.638.284-.546.33-1.536-.398-1.74-.374-.08-.756-.114-1.138-.103h-.888c.126.398.205.5.25.319.046-.182.137-.148.217-.205.17-.112.353-.2.546-.262.423-.144.856-.254 1.297-.33.262-.062.528-.107.796-.136.467 0 .671.296.944.614.332.383.628.794.888 1.229.232.52.093 1.132-.342 1.502-.894.871-1.954 1.556-3.117 2.013-.501.238-1.018.443-1.547.614l-.603.16h-.215c-.092 0 .079 0 0 0-.535-.125-.763.694-.228.819.337.051.681.016 1-.103.523-.157 1.036-.343 1.537-.557 1.185-.486 2.29-1.15 3.276-1.968.529-.42.924-.986 1.137-1.627.119-.605-.04-1.23-.432-1.706-.32-.472-.674-.92-1.058-1.343-.349-.434-.907-.644-1.456-.546-.848.08-1.682.271-2.48.57-.446.146-.815.465-1.024.886-.17.467.091.751.535.83.444.08.956.07 1.422.103.157.005.313.024.466.057-.054-.03-.104-.069-.148-.114v.08c.005.053.005.106 0 .16-.037.296-.178.57-.398.773-.314.331-.665.625-1.046.876-.785.534-1.65.955-2.446 1.479-.25.148-.535.341-.535.66 0 .693.979 1.274 1.547 1.456.57.182.854-.649.342-.82z" transform="translate(-602.000000, -201.000000) translate(602.000000, 201.000000) translate(16.880088, 20.650892)"/>
                    <path fill="#C7CDFF" d="M154.406 76.944c-.056 2.742 1.275 11.456.273 14.027-6.484-.102-12.32 0-18.804-.148-1.888 0 .75-15.926.17-21.25-.25-2.355-10.852 13.355-16.984 14.789 0 0 .91-4.55-.671-6.644 1.388 2.548 12.616-19.407 25.47-14.413 2.276.876 3.277-.421 6.758-.353" transform="translate(-602.000000, -201.000000) translate(602.000000, 201.000000) translate(16.880088, 20.650892)"/>
                    <path fill="#231F20" d="M153.895 76.944c0 2.276.318 4.55.477 6.894.16 2.344.57 4.87-.182 6.997l.49-.376c-3.925 0-7.85 0-11.775-.08h-5.37c-.55.08-1.11.08-1.66 0 .182.171.148 0 .114 0-.12-.203-.187-.434-.194-.67-.21-1.796-.21-3.61 0-5.404.148-2.275.353-4.608.524-6.917.08-1.058 1.194-8.794-.706-8.498-.864.137-1.74 1.343-2.275 1.923-1.285 1.376-2.514 2.798-3.765 4.186-1.684 1.854-3.413 3.697-5.256 5.381-1.504 1.581-3.365 2.779-5.426 3.492l.694.626c.443-2.275.625-5.074-.717-7.042-.364-.534-1.24 0-.887.524.66 1.069 1.854 0 2.434-.57 1.581-1.535 2.935-3.31 4.414-4.936 3.81-4.198 8.782-9.215 14.789-9.397 1.831 0 3.287.694 5.016.978 1.946.319 4.005-.591 5.961-.591.283 0 .512-.23.512-.512 0-.283-.229-.512-.512-.512-1.774 0-3.503.683-5.244.66-1.41 0-2.776-.82-4.198-.978-2.644-.217-5.293.357-7.61 1.649-4.755 2.48-8.384 6.666-11.854 10.648-.671.774-1.32 1.558-2.059 2.275-.225.213-.46.414-.705.603-.262.205-.216 0-.114.17l-.887.524c1.137 1.718 1 4.277.625 6.245-.044.177.007.364.135.494.127.13.313.185.491.144 3.583-.888 6.564-4.278 8.998-6.826 1.457-1.524 2.856-3.106 4.255-4.676.956-1.137 2.184-2.07 3.06-3.208.091-.113.273-.148.364-.25-.17.193.751-2.64-.33-.205-.057.125.057.398 0 .535-.102.887 0 1.877 0 2.776-.068 2.275-.261 4.55-.432 6.734-.17 2.185-.375 4.55-.455 6.758-.187 1.372-.098 2.769.262 4.106.12.398.446.7.853.785.934.092 1.875.092 2.81 0h3.208c4.288 0 8.566 0 12.843.08.232 0 .435-.153.5-.375.74-2.116.399-4.71.24-6.906-.16-2.411-.524-4.846-.5-7.258 0-.282-.23-.511-.513-.511-.283 0-.512.229-.512.511h.069z" transform="translate(-602.000000, -201.000000) translate(602.000000, 201.000000) translate(16.880088, 20.650892)"/>
                    <path fill="#C7CDFF" d="M150.618 62.884c1.946 0 4.55.09 5.427 1.137 13.833 17.064-26.597 20.716-26.427 20.705 1.513-.16-4.675-3.481-3.162-3.63 0 0 20.681-3.742 24.287-9.942" transform="translate(-602.000000, -201.000000) translate(602.000000, 201.000000) translate(16.880088, 20.650892)"/>
                    <path fill="#231F20" d="M150.618 63.418c1.468 0 3.413-.148 4.733.728.842.772 1.515 1.71 1.98 2.753.77 1.327 1.141 2.848 1.068 4.38-.261 2.856-2.57 4.949-4.857 6.382-5.563 3.493-12.514 4.915-18.862 5.961-1.205.194-2.411.364-3.628.512-.33 0-.717 0-1.047.114-.102 0-.557 0-.25.068v.978c2.036-.364-1.547-2.81-1.912-3.082-.136-.103-.944-.945-1.137-.945-.193 0-.182.364-.137.398.046.035.126 0 .16 0 .578-.03 1.15-.144 1.695-.34 5.507-1.05 10.884-2.69 16.04-4.892 2.457-1.138 5.233-2.526 6.689-4.915.341-.557-.546-1.08-.887-.512-1.275 2.093-3.766 3.356-5.916 4.357-2.825 1.273-5.746 2.32-8.737 3.129-2.355.67-4.72 1.25-7.11 1.763-.568.125-2.468.17-2.764.842-.296.67.728 1.388 1.138 1.74l1.365 1.024c.229.226.48.428.75.603 0 0 .114.16.16.17.045.012.42-.33.25-.295-.215.066-.361.264-.361.489 0 .225.146.423.361.49.446.027.894-.007 1.331-.103 1.138-.137 2.196-.285 3.288-.455 3.493-.518 6.95-1.255 10.352-2.207 5.403-1.547 14.516-4.55 14.97-11.376.05-1.844-.45-3.661-1.433-5.222-.522-1.099-1.303-2.055-2.275-2.787-1.467-.853-3.47-.796-5.108-.796-.282 0-.512.229-.512.512 0 .282.23.512.512.512l.091.022z" transform="translate(-602.000000, -201.000000) translate(602.000000, 201.000000) translate(16.880088, 20.650892)"/>
                    <path fill="#000" d="M137.388 45.023v4.653c.41 3.538 2.207 6.69 3.982 9.715.304.614.725 1.163 1.24 1.616.887.636 2.081.636 2.969 0 .301-.28.624-.535.967-.763.477-.238 3.412-2.377 3.97-3.492 1.156-2.61 1.55-5.492 1.137-8.316-.02-.867-.201-1.724-.534-2.525-.337-.665-.828-1.239-1.434-1.673-5.892-4.368-12.297.785-12.297.785z" transform="translate(-602.000000, -201.000000) translate(602.000000, 201.000000) translate(16.880088, 20.650892)"/>
                    <path fill="#FFF" d="M141.688 63.782c.68-.545 1.019-1.412.887-2.275-.261-1.32-1.547-2.127-2.275-3.242-.47-.798-.787-1.678-.933-2.594-.398-1.956-1.547-7.656.637-10.136 2.025-2.275 7.782-3.606 10 1.946 1.208 2.767 1.133 5.927-.205 8.634-.546.967-1.33 1.786-1.922 2.719-.594.932-.84 2.044-.694 3.14.113.91 1.615 1.217 1.137 1.706-.862.382-1.743.72-2.639 1.012-.99.342-3.993-.91-3.993-.91z" transform="translate(-602.000000, -201.000000) translate(602.000000, 201.000000) translate(16.880088, 20.650892)"/>
                    <path fill="#000" d="M141.984 64.078c1.627-1.4 1.137-3.31-.16-4.72-.84-.82-1.468-1.831-1.83-2.947-.203-.777-.366-1.562-.49-2.355-.558-3.22-1.07-7.713 2.389-9.454 1.332-.691 2.876-.854 4.323-.455 1.905.74 3.309 2.392 3.731 4.392.848 2.512.6 5.266-.682 7.587-1.138 1.775-3.277 3.732-2.446 6.087.261.501.655.922 1.137 1.217-.08 0 .41-.137 0-.068-.726.21-1.437.473-2.127.784-1.263.399-2.844-.295-4.027-.784-.5-.205-.717.625-.216.83 1.247.663 2.65.978 4.06.91.62-.166 1.224-.38 1.81-.637.432-.16 1.137-.296 1.365-.785.284-.705-.626-.99-.967-1.41-1.024-1.275.398-3.345 1.137-4.358 1.69-2.06 2.477-4.712 2.185-7.36-.41-3.856-2.742-7.86-7.122-7.451-1.458.127-2.841.703-3.959 1.65-1.253 1.307-1.915 3.07-1.831 4.88-.031 2.052.19 4.1.66 6.097.228 1.345.823 2.6 1.717 3.63 1.07 1.194 2.276 2.73.706 4.117-.387.364.227.967.637.603z" transform="translate(-602.000000, -201.000000) translate(602.000000, 201.000000) translate(16.880088, 20.650892)"/>
                    <path fill="#000" d="M149.23 45.16c-1.958-1.257-4.309-1.754-6.61-1.4-1.198.219-2.33.71-3.31 1.434-.637.42-1.33 1.07-1.137 1.843.058.242.171.468.33.66.94 1 2.282 1.523 3.652 1.422 1.342 0 2.684-.307 4.027-.273.541-.001 1.077.115 1.57.341.548.307 1 .76 1.308 1.308.773 1.597 1.144 3.358 1.08 5.13 1.179-2.298 1.544-4.929 1.036-7.462l-1.946-3.003z" transform="translate(-602.000000, -201.000000) translate(602.000000, 201.000000) translate(16.880088, 20.650892)"/>
                    <path fill="#C7CDFF" d="M74.137 63.51c-.716 6.254-.83 12.562-.34 18.838 4.208-.102 14.572-.557 15.334 0 0 0-.648 13.162 0 17.44 5.46.113 12.969-.103 18.43 0-.422-6.11.409-11.377 0-17.44 5.976.393 11.973.393 17.95 0 .215-6.285.036-12.576-.534-18.839-10.41.763-50.84 0-50.84 0z" transform="translate(-602.000000, -201.000000) translate(602.000000, 201.000000) translate(16.880088, 20.650892)"/>
                    <path fill="#231F20" d="M73.625 63.51c-.693 6.255-.807 12.561-.34 18.838 0 .283.228.512.511.512 3.413-.08 6.826-.228 10.159-.262 1.365 0 2.741 0 4.107.069.204.05.415.073.625.068h.194c-.17-.467-.262-.603-.262-.41v.637c-.239 5.552-.74 11.376 0 16.905.058.223.26.378.49.375 6.142.114 12.285-.113 18.428 0 .283 0 .512-.229.512-.511-.364-5.814.364-11.627 0-17.44l-.512.512c5.978.393 11.974.393 17.952 0 .282 0 .512-.23.512-.512.185-6.284.007-12.575-.535-18.838 0-.283-.23-.512-.512-.512-7.258.523-14.607.364-21.876.33-7.956 0-15.919-.08-23.89-.24l-5.096-.09c-.283 0-.512.229-.512.512 0 .282.23.511.512.511 13.458.262 26.927.444 40.385.308 3.48 0 6.973 0 10.454-.308l-.512-.511c.542 6.263.72 12.554.535 18.838l.512-.512c-5.977.393-11.974.393-17.951 0-.283 0-.512.23-.512.512.364 5.813-.364 11.626 0 17.44l.512-.512c-6.143-.114-12.287.113-18.43 0l.501.375c-.36-3.439-.436-6.901-.228-10.352.046-2.275.126-4.592.24-6.95-.002-.182-.096-.35-.25-.444-.626-.246-1.299-.348-1.969-.296-1.433-.069-2.878 0-4.323 0-3.094 0-6.2.17-9.305.25l.512.512c-.467-6.277-.353-12.583.34-18.839.115-.591-.91-.591-.978.034z" transform="translate(-602.000000, -201.000000) translate(602.000000, 201.000000) translate(16.880088, 20.650892)"/>
                    <path fill="#FFF" d="M35.175 142.914v16.268l34.128-.524c0-5.05 0-10.136.227-15.175 6.325-.194 12.639-.171 18.964 0 .09-6.7.182-10.955.273-17.656-10.99.899-34.572-.387-34.663 0v17.064l-18.93.023z" transform="translate(-602.000000, -201.000000) translate(602.000000, 201.000000) translate(16.880088, 20.650892)"/>
                    <path fill="#231F20" d="M34.663 142.914v16.268c0 .282.229.511.512.511l34.128-.523c.282 0 .512-.229.512-.512-.046-5.058.03-10.117.227-15.175l-.512.512c6.325-.182 12.639-.16 18.964 0 .28-.006.506-.232.512-.512.08-5.882.193-11.774.273-17.656 0-.283-.23-.512-.512-.512-9.647.762-19.419.24-29.077 0-1.445 0-2.89-.08-4.334-.08-.546 0-1.468-.147-1.74.456-.132.775-.132 1.567 0 2.343v14.88l.511-.512H35.175c-.283 0-.512.23-.512.512 0 .283.229.512.512.512h18.918c.283 0 .512-.23.512-.512v-12.992c.102-1.237.102-2.482 0-3.72-.148-.853 0 .478-.341.092.336.033.675.033 1.012 0 1.376 0 2.764 0 4.14.068 4.551.114 9.01.239 13.527.296 5.256.068 10.557.136 15.813-.285l-.512-.512c-.08 5.882-.194 11.774-.273 17.656l.512-.512c-6.326-.16-12.64-.182-18.964 0-.28.006-.506.232-.512.512-.197 5.066-.273 10.124-.228 15.175l.512-.512-34.128.524.512.512v-16.268c-.028-.252-.237-.446-.491-.455-.254-.008-.476.17-.521.42z" transform="translate(-602.000000, -201.000000) translate(602.000000, 201.000000) translate(16.880088, 20.650892)"/>
                    <path fill="#C7CDFF" d="M125.102 177.099h17.542c-.182-11.376-.364-22.047-.535-33.412-5.04.057-11.376 0-16.438-.227-.194-6.314-.171-11.285 0-17.599-6.7-.09-10.955.091-17.656 0 .887 10.978-.398 32.99 0 32.99h17.064l.023 18.248z" transform="translate(-602.000000, -201.000000) translate(602.000000, 201.000000) translate(16.880088, 20.650892)"/>
                    <path fill="#231F20" d="M125.102 177.61h17.542c.282 0 .512-.229.512-.511-.182-11.141-.36-22.278-.535-33.412 0-.282-.23-.511-.512-.511-5.483 0-10.966 0-16.438-.228l.512.512c-.182-5.87-.16-11.729 0-17.599 0-.282-.23-.512-.512-.512-5.882-.08-11.774.069-17.656 0-.136 0-.266.054-.362.15-.096.096-.15.226-.15.362.751 9.454.216 19.01 0 28.44 0 1.274-.09 2.548 0 3.823 0 .58 0 1.08.615 1.24.895.108 1.8.108 2.696 0h14.368l-.512-.512v18.201c0 .283.229.512.512.512.282 0 .511-.229.511-.512v-18.201c-.006-.28-.231-.506-.511-.512h-16.484c-.22-.017-.44-.017-.66 0 .102-.273.432.842.41-.216-.023-1.058 0-2.39.056-3.572.103-4.346.24-8.703.307-13.049.069-5.221.126-10.466-.284-15.676l-.512.512c5.882.068 11.774-.08 17.656 0l-.512-.512c-.16 5.87-.182 11.729 0 17.599.006.28.231.506.512.512 5.472.227 10.955.284 16.438.227l-.512-.512c.167 11.141.345 22.278.535 33.412l.512-.512h-17.542c-.292 0-.53.237-.53.529 0 .292.238.529.53.529z" transform="translate(-602.000000, -201.000000) translate(602.000000, 201.000000) translate(16.880088, 20.650892)"/>
                    <path fill="#FFF" d="M88.699 193.81H69.462c.182-11.376.17-43.661 0-49.986 6.7-.091 31.58-.182 38.28-.273.08 10.534.387 15.187 0 15.267H88.7v34.992z" transform="translate(-602.000000, -201.000000) translate(602.000000, 201.000000) translate(16.880088, 20.650892)"/>
                    <path fill="#231F20" d="M88.699 193.298H69.462l.512.512c.216-14.14.182-28.292.09-42.432 0-2.514 0-5.04-.09-7.554l-.512.512c10.489-.137 20.977-.137 31.466-.205 2.275 0 4.55 0 6.825-.068l-.511-.512c0 3.982.125 7.963.182 11.945-.046.894-.046 1.79 0 2.684 0 0 0 .785.159.228.068-.239.25 0-.148-.102-.723-.063-1.45-.063-2.173 0H88.7c-.28.006-.506.231-.512.512v35.026c0 .283.229.512.512.512.282 0 .512-.229.512-.512v-35.06l-.512.511h13.116c1.894.13 3.794.13 5.688 0 1.138-.159.899-1.49.899-2.411 0-4.448-.16-8.908-.193-13.367 0-.283-.23-.512-.512-.512-10.49.136-20.978.136-31.466.216h-6.826c-.28.006-.506.232-.512.512.353 13.264.16 26.563.091 39.816 0 3.413 0 6.826-.09 10.159 0 .282.228.512.511.512h19.237c.182-.074.306-.247.318-.443.012-.197-.09-.383-.261-.479z" transform="translate(-602.000000, -201.000000) translate(602.000000, 201.000000) translate(16.880088, 20.650892)"/>
                    <path fill="#FFF" d="M142.337 143.517h19.236c-.17 11.376-.17 43.672 0 49.986-6.7.091-29.816.182-36.505.273-.08-10.523-.398-16.62 0-16.711h17.269v-33.548z" transform="translate(-602.000000, -201.000000) translate(602.000000, 201.000000) translate(16.880088, 20.650892)"/>
                    <path fill="#231F20" d="M142.337 144.029h19.236l-.512-.512c-.216 14.14-.182 28.292-.09 42.444 0 2.514 0 5.028.09 7.542l.512-.512c-12.172.16-24.344.114-36.505.273l.512.512c0-4.084-.125-8.18-.182-12.275v-3.265c.057-.257.076-.522.057-.785-.103-.159-.433 0-.273.126.159.125 1.433 0 1.695 0h15.46c.28-.006.505-.232.511-.512v-33.548c0-.283-.229-.512-.511-.512-.283 0-.512.23-.512.512v33.582l.512-.455h-15.7c-.506-.057-1.017-.057-1.524 0-1.137.284-.728 2.457-.728 3.299 0 4.641.148 9.283.194 13.924 0 .283.229.512.512.512 12.16-.16 24.333-.114 36.505-.273.283 0 .512-.23.512-.512-.353-13.264-.16-26.563-.091-39.816 0-3.413 0-6.826.091-10.159-.006-.28-.232-.506-.512-.512H142.36c-.179.081-.295.258-.3.454-.005.196.103.378.278.468z" transform="translate(-602.000000, -201.000000) translate(602.000000, 201.000000) translate(16.880088, 20.650892)"/>
                    <path fill="#C7CDFF" d="M35.402 193.799s30.454-.114 34.037 0c-.899-7.235.376-34.208 0-34.72-.58-.796-23.764 0-34.31 0-.045 0-1.274 33.65.273 34.72z" transform="translate(-602.000000, -201.000000) translate(602.000000, 201.000000) translate(16.880088, 20.650892)"/>
                    <path fill="#231F20" d="M35.402 194.31c9.454 0 18.907-.068 28.36 0h5.688c.283 0 .512-.229.512-.511-.4-4.6-.498-9.22-.295-13.833.057-5.324.216-10.648.318-15.927 0-1.456.114-2.935 0-4.391 0-.83-.307-1.138-1.137-1.206-1.661-.196-3.334-.272-5.006-.227h-8.384c-6.826.09-13.572.273-20.363.295-.283 0-.512.23-.512.512-.375 10.114-.819 20.306-.341 30.42.03 1.062.117 2.121.261 3.174.069.466.114 1.137.501 1.49s1.229-.307.728-.728c-.5-.421-.432-3.106-.466-3.936-.137-2.776-.137-5.552-.137-8.328 0-6.017.16-12.035.341-18.042 0-1.354.08-2.707.137-4.05l-.512.512c10.693 0 21.432-.75 32.126-.284.548.092 1.104.134 1.66.125.365-.068.149.273 0-.182.01.087.01.175 0 .262-.096 1.336-.096 2.678 0 4.015-.09 4.994-.238 9.988-.318 14.971-.24 5.101-.146 10.212.285 15.3l.511-.511c-10.056-.307-20.146 0-30.203 0h-3.754c-.298 0-.54.242-.54.54 0 .299.242.54.54.54z" transform="translate(-602.000000, -201.000000) translate(602.000000, 201.000000) translate(16.880088, 20.650892)"/>
                    <path fill="#FFF" d="M89.45 193.799s31.75-.114 35.333 0c-.33-8.407.376-34.208 0-34.72-.58-.796-25.027 0-35.607 0 0 0-1.24 33.65.273 34.72z" transform="translate(-602.000000, -201.000000) translate(602.000000, 201.000000) translate(16.880088, 20.650892)"/>
                    <path fill="#231F20" d="M89.45 194.31c9.84 0 19.669-.068 29.509 0h5.824c.283 0 .512-.229.512-.511-.387-10.352.114-20.739.114-31.09.137-1.206.102-2.423-.102-3.618-.24-.763-1.138-.706-1.82-.763-4.813-.364-9.704-.113-14.528 0-6.598.091-13.184.273-19.783.285-.282 0-.511.229-.511.512-.376 10.113-.82 20.306-.353 30.42 0 1.057.102 2.126.262 3.173.002.54.182 1.063.511 1.49.501.421 1.23-.307.729-.728-.501-.42-.433-3.105-.478-3.936-.125-2.776-.137-5.551-.125-8.327 0-6.018.159-12.036.34-18.042 0-1.354.08-2.708.137-4.05l-.512.512c10.75 0 21.524-.592 32.286-.319.716 0 1.444 0 2.161.091.202.045.408.068.614.068.41-.057.16.273.069-.182.107 1.013.134 2.032.08 3.05 0 4.959-.092 9.919-.137 14.879 0 5.529-.182 11.091 0 16.62l.512-.512c-10.432-.318-20.92 0-31.353 0h-3.981c-.213.071-.355.273-.35.498.005.225.156.42.372.48z" transform="translate(-602.000000, -201.000000) translate(602.000000, 201.000000) translate(16.880088, 20.650892)"/>
                    <path fill="#231F20" d="M107.173 161.104c.302 4.716.302 9.447 0 14.163 0 .216.33.216.342 0 .301-4.716.301-9.447 0-14.163 0-.216-.364-.216-.342 0zM107.14 178.18c.09 4.163.113 8.327 0 12.513 0 .094.076.17.17.17.094 0 .17-.076.17-.17.069-4.164 0-8.327 0-12.514 0-.227-.352-.227-.34 0zM109.187 177.02c4.01-.37 8.047-.37 12.058 0 .228 0 .217-.33 0-.342-4.01-.37-8.047-.37-12.058 0-.216 0-.228.364 0 .341zM92.521 176.382c4.255-.341 8.531-.341 12.787 0 .216 0 .216-.318 0-.341-4.256-.341-8.532-.341-12.787 0-.228 0-.228.364 0 .341zM125.273 145.417c.386 3.828.489 7.68.307 11.523 0 .095.076.171.17.171.095 0 .17-.076.17-.17.183-3.844.08-7.696-.306-11.524 0-.217-.364-.217-.341 0zM110.7 142.516c4.061-.205 8.168 0 12.218.17.227 0 .227-.33 0-.34-4.05-.183-8.157-.376-12.218-.172-.216 0-.216.353 0 .342zM127.206 159.238c.846-.143 1.703-.208 2.56-.193h3.857c1.285 0 2.502 0 3.754.08.76-.002 1.52.043 2.275.136.216 0 .307-.296.09-.33-.731-.091-1.468-.137-2.206-.136-1.286 0-2.571-.08-3.868-.091-1.297-.012-2.65 0-3.982 0-.846-.016-1.691.05-2.525.193-.216 0-.125.376.09.33l-.045.011zM144.987 159.489c4.66-.482 9.348-.61 14.027-.387.227 0 .227-.33 0-.341-4.679-.224-9.368-.095-14.027.386-.216 0-.216.364 0 .342zM145.272 176.883c4.55-.342 9.1-.467 13.753-.41.216 0 .216-.33 0-.341-4.55-.057-9.18.068-13.753.41-.217 0-.217.352 0 .34zM142.337 179.363c.25 4.175-.24 8.384.182 12.513 0 .216.352.216.34 0-.42-4.175.07-8.384-.181-12.513 0-.228-.353-.228-.341 0zM88.87 156.804c.098-3.527-.077-7.057-.524-10.557 0-.216-.364-.216-.341 0 .447 3.5.622 7.03.523 10.557 0 .094.076.17.17.17.095 0 .171-.076.171-.17zM72.249 159.716c1.795.061 3.592.008 5.38-.159 2.276-.125 4.494-.273 6.735-.42l1.502-.103c.216 0 .216-.364 0-.342-3.72.262-7.451.512-11.171.66-.808 0-1.638.08-2.446 0-.216 0-.216.319 0 .341v.023zM71.93 175.893c4.671-.5 9.378-.569 14.061-.205.228 0 .216-.318 0-.341-4.683-.364-9.39-.296-14.06.205-.217 0-.217.364 0 .34zM69.621 141.242l.762-12.377c0-.228-.33-.228-.341 0l-.762 12.342c0 .228.33.228.341 0v.035zM53.604 145.269c-.432 3.394-.6 6.817-.5 10.238 0 .216.352.216.34 0-.098-3.42.07-6.844.501-10.238 0-.216-.319-.216-.341 0zM56.527 143.46c3.481.102 6.997-.057 10.478-.228.216 0 .216-.352 0-.34-3.481.17-6.997.329-10.478.227-.094 0-.17.076-.17.17 0 .095.076.17.17.17zM52.102 161.662c0 3.936-.152 7.868-.455 11.796 0 .217.319.217.341 0 .319-3.943.478-7.876.478-11.796 0-.095-.076-.171-.17-.171-.095 0-.171.076-.171.17h-.023zM51.658 176.644c-.136 4.725-.348 9.442-.637 14.151 0 .217.33.217.342 0 .288-4.71.5-9.426.637-14.151 0-.216-.33-.216-.342 0zM53.922 175.87c4.306-.138 8.616-.043 12.912.285.216 0 .216-.33 0-.342-4.295-.335-8.605-.438-12.912-.307-.216 0-.216.353 0 .341v.023zM36.995 175.813c4.298-.345 8.618-.314 12.912.091.216 0 .216-.33 0-.341-4.295-.394-8.615-.413-12.912-.057-.216 0-.228.364 0 .341v-.034zM89.586 80.073c-.137-4.816-.16-9.632-.068-14.448 0-.094-.077-.17-.17-.17-.095 0-.172.076-.172.17-.09 4.809-.068 9.624.069 14.448 0 .094.076.17.17.17.095 0 .171-.076.171-.17zM107.264 80.346v-14.72c0-.095-.076-.171-.17-.171-.095 0-.171.076-.171.17v14.72c0 .095.076.172.17.172.095 0 .171-.077.171-.171zM91.531 81.734c4.534-.544 9.117-.544 13.651 0 .217 0 .217-.307 0-.342-4.534-.544-9.117-.544-13.65 0-.217 0-.228.364 0 .342z" transform="translate(-602.000000, -201.000000) translate(602.000000, 201.000000) translate(16.880088, 20.650892)"/>
                    <path fill="#FFF" d="M120.825 88.821c-.25 0-.49-.853-.126-1.24.706-.728 3.152-2.275 3.413-2.594.28-.34.309-.824.068-1.194-.745-.278-1.505-.517-2.275-.717-.114 0-.694-.853.273-.955.398 0 3.834.295 4.369.386.428.02.847.133 1.228.33.301.248.52.58.626.956.18.491.333.992.455 1.501.045.156.045.322 0 .478-.068.135-.175.246-.307.319-.512.307-6.553 2.958-7.724 2.73z" transform="translate(-602.000000, -201.000000) translate(602.000000, 201.000000) translate(16.880088, 20.650892)"/>
                    <path fill="#000" d="M120.938 88.411c.16 0 0 0 0-.159-.022-.1-.022-.206 0-.307.118-.162.265-.3.433-.41.386-.318.807-.614 1.228-.91l1.138-.841c.303-.185.564-.434.762-.728.373-.523.315-1.239-.137-1.695-.412-.215-.858-.357-1.32-.421-.295-.08-.59-.194-.887-.25 0 0-.182-.092-.056 0v-.103c0-.011.068 0 0 0h.17c.118-.011.236-.011.353 0 .887 0 1.763.136 2.64.227l1.137.126h.364c.364-.01.715.135.967.398.185.287.323.602.41.933.157.363.268.745.33 1.137 0 .262-.262.341-.467.444-.649.318-1.308.603-1.968.876-.99.41-1.98.796-2.992 1.137-.421.137-.842.273-1.274.376l-.455.09h-.205-.091c-.535-.09-.762.729-.228.82.757.039 1.512-.097 2.207-.398 1.047-.33 2.06-.728 3.072-1.138.796-.33 1.592-.66 2.366-1.035.303-.114.567-.31.762-.569.148-.33.148-.706 0-1.035-.103-.44-.236-.874-.398-1.297-.196-.703-.743-1.254-1.445-1.456-.472-.103-.95-.172-1.433-.205-1.013-.125-2.036-.216-3.049-.296-.377-.061-.76-.061-1.137 0-.239.058-.44.217-.552.436-.111.219-.122.475-.029.702.171.512.558.637 1.047.785l1.001.262c.16 0 .307.08.455.136.05-.006.099-.006.148 0 .319.478-.455.91-.74 1.138-.557.398-1.137.785-1.649 1.137-.503.277-.935.666-1.263 1.138-.307.601-.086 1.338.5 1.672.581.296.797-.535.285-.717z" transform="translate(-602.000000, -201.000000) translate(602.000000, 201.000000) translate(16.880088, 20.650892)"/>
                    <path fill="#FFF" d="M73.785 84.566c.25 0 .762-.637.534-1.137-.41-.91-2.195-3.186-2.275-3.595-.145-.416-.002-.877.353-1.138.813-.004 1.625.033 2.434.114.114 0 .945-.569.069-.99-.364-.17-3.72-1.023-4.244-1.137-.408-.128-.838-.166-1.262-.114-.366.135-.684.377-.91.694-.341.397-.657.815-.945 1.251-.103.126-.163.282-.17.444.013.15.072.294.17.41.285.477 5.063 5.016 6.246 5.198z" transform="translate(-602.000000, -201.000000) translate(602.000000, 201.000000) translate(16.880088, 20.650892)"/>
                    <path fill="#000" d="M73.785 84.987c.591 0 1.012-.716 1.012-1.262-.07-.505-.283-.979-.614-1.366-.628-.834-1.213-1.7-1.752-2.593 0 0 0-.103 0 0-.007-.042-.007-.084 0-.125-.02-.153.008-.308.08-.444 0 0 .17-.137 0-.091-.171.045-.091 0 0 0 .132-.017.266-.017.398 0l.955.08c.332.056.67.056 1.001 0 .428-.154.724-.548.751-1.002 0-.511-.534-.762-.967-.898-.921-.296-1.865-.524-2.81-.751-.944-.228-2.275-.774-3.219-.114-.645.538-1.184 1.19-1.593 1.923-.284.473-.188 1.082.228 1.444.476.522.98 1.016 1.513 1.48.876.818 1.775 1.615 2.719 2.366.61.604 1.349 1.063 2.161 1.342.535.102.762-.728.228-.82-.21-.05-.408-.142-.58-.272-.319-.196-.627-.408-.922-.637-.728-.546-1.422-1.138-2.104-1.764-.683-.625-1.23-1.137-1.832-1.695-.182-.182-.364-.352-.535-.546-.17-.193-.148-.182 0 0-.125-.182-.125-.227 0-.42.125-.194.273-.399.41-.58.206-.298.438-.575.694-.831.283-.321.73-.442 1.137-.307.353 0 .706.136 1.047.216.876.216 1.752.432 2.628.682.296.08.614.16.91.262 0 0 .08 0 0 0h.08c.193 0 0 .091.08 0-.149.17-.183.102-.444.091-.558 0-1.138-.114-1.661-.125-.475-.046-.918.242-1.07.694-.398.99.444 1.854.967 2.605.33.466.66.933.967 1.422.135.19.253.392.353.603.04.106.04.224 0 .33 0 .102-.205.239-.125.227-.242-.025-.459.15-.484.393-.025.242.15.458.393.483z" transform="translate(-602.000000, -201.000000) translate(602.000000, 201.000000) translate(16.880088, 20.650892)"/>
                    <path fill="#231F20" d="M39.475 193.219c-.19-1.89-.263-3.79-.216-5.688 0-.095-.077-.171-.171-.171-.094 0-.17.076-.17.17-.047 1.9.025 3.799.215 5.689 0 .216.353.216.342 0zM40.874 193.32c.102-1.088.125-2.183.068-3.275 0-.228-.352-.228-.341 0 .057 1.092.034 2.187-.068 3.276 0 .216.33.216.341 0zM43.559 193.116c.08-1.467.01-2.938-.205-4.391 0-.216-.353-.125-.33.091.212 1.423.277 2.864.193 4.3 0 .216.319.216.342 0zM45.504 193.105v-2.219c0-.094-.076-.17-.17-.17-.095 0-.171.076-.171.17v2.219c0 .094.076.17.17.17.095 0 .171-.076.171-.17zM48.405 193.32c-.068-1.933-.08-3.878 0-5.824 0-.094-.077-.17-.17-.17-.095 0-.171.076-.171.17v5.825c0 .216.352.216.34 0zM50.794 193.32v-1.887c0-.095-.077-.171-.17-.171-.095 0-.171.076-.171.17v1.912c0 .094.076.17.17.17.094 0 .17-.076.17-.17v-.023zM52.694 193.708v-2.219c0-.094-.077-.17-.171-.17-.094 0-.17.076-.17.17v2.219c0 .094.076.17.17.17.094 0 .17-.076.17-.17zM57.335 193.105c-.112-1.195-.138-2.396-.08-3.595 0-.216-.33-.216-.34 0-.06 1.199-.033 2.4.079 3.595 0 .216.364.227.341 0zM59.03 192.752c-.137-.495-.137-1.018 0-1.513.025-.091-.028-.185-.12-.21-.09-.025-.185.028-.21.12-.153.554-.153 1.14 0 1.694.068.205.398.114.33-.09zM64.98 192.9l.227-3.606c0-.216-.33-.216-.341 0l-.228 3.606c0 .216.319.216.342 0zM66.561 193.32c-.026-.381.009-.765.102-1.137.022-.093-.032-.188-.125-.216-.09-.021-.182.035-.205.125-.1.394-.139.8-.113 1.206 0 .045.018.089.05.12.032.033.075.05.12.05.095 0 .171-.076.171-.17v.023zM74.41 193.32c-.068-1.057-.102-2.115-.08-3.173 0-.227-.33-.227-.34 0 0 1.058 0 2.116.08 3.174 0 .216.352.216.34 0zM75.707 193.32c.08-1.444.103-2.889 0-4.345 0-.094-.076-.17-.17-.17-.095 0-.171.076-.171.17v4.346c0 .216.33.216.341 0zM78.847 193.002c-.058-.55-.035-1.106.068-1.65.022-.093-.032-.188-.125-.215-.09-.022-.182.034-.205.125-.111.573-.138 1.16-.08 1.74 0 .095.077.171.171.171.08 0 .182-.08.171-.17zM80.758 193.32l.137-2.013c0-.227-.33-.216-.342 0l-.136 2.014c0 .216.33.216.341 0zM82.635 193.708l.125-4.55c0-.095-.076-.171-.17-.171-.094 0-.17.076-.17.17l-.126 4.55c0 .217.33.217.341 0zM86.879 193.219v-2.276c0-.094-.077-.17-.171-.17-.094 0-.17.076-.17.17v2.276c0 .094.076.17.17.17.094 0 .17-.076.17-.17zM94.921 193.423c0-1.626 0-3.242.103-4.869 0-.216-.33-.216-.342 0-.113 1.627-.147 3.243-.102 4.87 0 .215.353.215.341 0zM97.253 193.844l-.113-2.275c0-.216-.353-.227-.342 0l.114 2.275c0 .228.353.228.341 0zM99.256 193.423c.023-.519.08-1.035.17-1.547.016-.09-.038-.177-.125-.205-.042-.014-.088-.01-.127.012-.04.022-.067.059-.078.102-.088.543-.15 1.09-.182 1.638 0 .095.077.171.171.171.094 0 .17-.076.17-.17zM103.305 193.207l-.227-3.697c0-.216-.353-.216-.341 0l.227 3.697c0 .228.353.228.341 0zM105.08 193.423l.125-1.797c-.005-.092-.079-.165-.17-.17-.046 0-.089.017-.121.05-.032.031-.05.075-.05.12l-.125 1.797c.005.092.079.165.17.171.095 0 .171-.076.171-.17zM110.484 193.423v-4.334c0-.227-.33-.227-.342 0-.06 1.449-.06 2.893 0 4.334 0 .216.353.216.342 0zM112.384 193.423v-2.275c0-.094-.077-.17-.171-.17-.094 0-.17.076-.17.17v2.275c0 .095.076.171.17.171.094 0 .17-.076.17-.17zM114.17 193.64l.238-3.288c0-.216-.33-.216-.34 0l-.24 3.287c0 .217.33.217.342 0zM116.297 193.708v-1.9c0-.061-.033-.117-.085-.148-.053-.03-.118-.03-.171 0-.053.03-.085.087-.085.148v1.9c0 .094.076.17.17.17.094 0 .17-.076.17-.17zM121.063 193.708v-2.219c0-.094-.076-.17-.17-.17-.094 0-.17.076-.17.17v2.219c0 .094.076.17.17.17.094 0 .17-.076.17-.17zM130.164 193.219v-2.549c0-.094-.076-.17-.17-.17-.095 0-.171.076-.171.17v2.549c0 .094.076.17.17.17.095 0 .171-.076.171-.17zM132.269 193.06c-.114-.86-.148-1.729-.103-2.594 0-.228-.33-.228-.34 0-.049.896-.01 1.795.113 2.684.027.093.122.148.216.125.084-.036.132-.126.114-.216zM134.92 193.423v-3.697c0-.094-.077-.17-.171-.17-.095 0-.17.076-.17.17v3.697c0 .095.075.171.17.171.094 0 .17-.076.17-.17zM137.456 193.219v-1.49c0-.095-.076-.171-.17-.171-.095 0-.171.076-.171.17v1.49c0 .095.076.171.17.171.095 0 .171-.076.171-.17zM139.47 192.9v-2.753c0-.094-.077-.17-.17-.17-.095 0-.172.076-.172.17v2.753c0 .094.077.17.171.17.094 0 .17-.076.17-.17zM145.488 193.207l.113-2.855c0-.216-.33-.216-.34 0l-.115 2.855c0 .228.33.228.342 0zM147.513 193.002v-3.492c0-.094-.077-.17-.171-.17-.094 0-.17.076-.17.17v3.492c0 .095.076.171.17.171.094 0 .17-.076.17-.17zM149.742 193.002v-1.695c0-.094-.076-.17-.17-.17-.095 0-.171.076-.171.17v1.695c0 .095.076.171.17.171.095 0 .171-.076.171-.17zM153.53 193.207l.205-2.116c-.005-.092-.079-.165-.17-.17-.095 0-.171.076-.171.17l-.205 2.116c0 .094.077.17.17.17.095 0 .172-.076.172-.17zM156.101 193.105l-.136-3.413c0-.094-.076-.17-.17-.17-.095 0-.171.076-.171.17l.136 3.413c0 .094.077.17.17.17.095 0 .171-.076.171-.17zM157.671 193.219v-1.275c0-.094-.076-.17-.17-.17-.095 0-.17.076-.17.17v1.275c0 .094.075.17.17.17.094 0 .17-.076.17-.17z" transform="translate(-602.000000, -201.000000) translate(602.000000, 201.000000) translate(16.880088, 20.650892)"/>
                </g>
            </g>
        </g>
    </g>
</svg>
