<svg width="16" height="16" viewBox="0 0 16 16" fill="none" xmlns="http://www.w3.org/2000/svg">
    <path d="M8 1.333c.573 0 1.062.362 1.25.87h.084c2.098.595 3.323 2.702 3.38 4.567l.002.137v2.091c0 .336.121.644.34.889l.085.088.425.377c.561.515.578 1.39.051 1.92-.204.206-.45.287-.859.368l-.246.045-.244.038-.289.038-.335.039-.38.04-.208.02a3.334 3.334 0 0 1-6.112 0c-.656-.034-1.161-.09-1.514-.167l-.509-.125c-.237-.063-.362-.117-.538-.295-.5-.505-.51-1.32-.03-1.84l.08-.08.426-.378c.241-.213.39-.521.419-.852l.006-.125V6.907c0-1.913 1.232-4.099 3.383-4.705h.083A1.334 1.334 0 0 1 8 1.333zM9.49 12.86H6.51c.342.383.828.632 1.372.663l.118.004c.546 0 1.041-.22 1.402-.574l.088-.093zM8.127 3.372h-.254c-1.798 0-3.183 1.595-3.253 3.393l-.003.142v2.091c0 .705-.273 1.384-.765 1.873l-.108.102-.408.36c1.608.129 3.18.193 4.717.193 1.537 0 3.073-.064 4.61-.192l-.438-.39a2.662 2.662 0 0 1-.837-1.787l-.005-.159V6.907c0-1.798-1.344-3.449-3.115-3.532l-.14-.003z" fill="#7786FF"/>
</svg>
