<svg xmlns="http://www.w3.org/2000/svg" xmlns:xlink="http://www.w3.org/1999/xlink" width="908" height="338" viewBox="0 0 908 338">
    <defs>
        <path id="ntv5aletka" d="M0 0H908V338H0z"/>
        <path id="hlbowrqqsd" d="M128.414 307.28c66.998 5.01 140.527 12.248 205.932 10.658 122.697-2.985 129.454-16.501 272.47 13.25 46.546 9.683 22.045 24.818 55.684 32.326 24.236 5.41 100.895 10.406 106.917 13.4 10.62 5.279 25.06 20.745 30.245 24.776 9.216 7.164 18.786 14.313 29.87 21.01 12.562 7.589 28.29 14.086 40.807 21.688 114.969 69.82 8.386 13.101 86.266 50.966 3.843 1.869 10.083 11.323 13.758 13.966 71.954 51.754-3.092-1.933 48.051 29.916 2.306 1.436 3.918 3.106 4.85 4.727 11.648 20.252 22.845 41.95 21.524 61.705-1.572 23.505-6.945-3.776-2.08 28.46 2.258 14.97 7.063 30.15 8.784 45.073 3.5 30.346-46.419 41.102-103.155 42.074-10.755.184-21.809-.138-32.871-.604-44.858-1.89-89.597-3.197-134.836-6.463-57.91-4.181-116.095-9.253-174.279-15.855-106.241-12.054-200.766-33.63-303.614-56.496-68.779-15.292-137.829-32.414-197.261-57.303-64.926-27.19-71.354-51.191-98.156-89.443-4.182-5.969-7.049-11.276-7.26-16.95-.625-16.732 3.811-6.46 6.4-33.06 4.132-42.451-4.193-31.478 4.665-60.928.55-1.827 1.634-3.563 2.984-5.211 6.132-7.482 13.468-14.631 19.443-22.155 2.675-3.368 10.454-18.812 19.39-24.336 10.835-6.699 30.983-8.162 46.124-12.485l29.348-12.706z"/>
        <path id="qxcauweirf" d="M165.409 327.691c79.378-1.884 167.089-1.944 242.367-11.26 141.216-17.478 144.435-33.843 320.386-15.882 57.264 5.846 34.028 26.108 75.589 30.92 29.941 3.468 120.515.463 128.518 3.227 14.114 4.876 36.135 21.065 43.522 25.122 13.13 7.21 26.664 14.362 41.8 20.82 17.153 7.316 37.604 13.012 54.711 20.35 157.118 67.39 14.195 14.154 117.407 48.924 5.093 1.716 15.555 11.909 20.717 14.537 101.084 51.47-4.244-1.876 65.918 29.013 3.164 1.393 5.602 3.136 7.237 4.899 20.418 22.029 40.807 45.778 46.02 68.718 6.204 27.294-9.34-3.562 7.306 33.067 7.73 17.012 18.484 33.972 25.574 50.99 14.418 34.605-39.777 52.723-105.217 60.334-12.405 1.443-25.329 2.336-38.312 3.064-52.646 2.95-104.956 6.56-158.515 7.967-68.56 1.801-137.743 2.606-207.447 1.646-127.276-1.753-244.221-15.83-371.256-30.442-84.953-9.773-170.846-21.626-248.241-43.539-84.55-23.938-100.196-50.89-144.328-91.95-6.886-6.406-12.021-12.2-14.204-18.72-6.437-19.23 2.213-7.888-3.868-38.87-9.705-49.443-15.61-35.832-15.402-70.818.018-2.17.683-4.297 1.686-6.352 4.553-9.332 10.616-18.418 14.974-27.78 1.951-4.192 5.696-22.897 14.169-30.292 10.273-8.966 33.13-12.959 49.206-19.677l29.683-18.016z"/>
        <path id="5tk2cskd4h" d="M364.679 440.648c52.856-27.928 111.903-56.453 159.64-91.627 89.552-65.986 86.526-85.918 210.714-122.271 40.418-11.832 31.201 19.091 60.716 11.163 21.264-5.712 81.304-38.565 87.571-37.971 11.052 1.047 31.02 12.588 37.281 14.873 11.13 4.062 22.514 7.926 34.757 10.467 13.873 2.88 29.453 2.82 43.301 5.738 127.194 26.804 14.051 11.73 94.591 18.375 3.974.328 14.255 8.698 18.565 10.056 84.406 26.61-3.454-.788 53.598 12.1 2.573.58 4.768 1.8 6.428 3.306 20.74 18.8 42.008 39.594 52.8 64.379 12.84 29.488-7.42-1.08 15.413 35.793 10.605 17.126 23.23 33.212 33.405 50.553 20.692 35.26-10.055 73.753-51.708 103.768-7.895 5.69-16.315 10.913-24.827 15.965-34.517 20.486-68.598 41.623-104.219 60.623-45.598 24.32-91.932 47.695-139.176 69.2-86.267 39.27-169.488 60.963-259.672 85.312-60.31 16.282-121.915 30.468-180.988 30.29-64.535-.2-83.624-26.23-126.375-59.301-6.67-5.16-11.967-10.181-15.506-16.998-10.438-20.106-1.013-9.822-14.94-43.605-22.227-53.915-21.884-36.292-32.844-76.738-.68-2.51-.908-5.18-.884-7.877.104-12.248 1.304-24.701 1.267-36.92-.016-5.47-3.43-28.273-.072-39.557 4.073-13.681 18.198-25.704 26.892-38.674l14.272-30.422z"/>
        <filter id="zjnlbv3dcc" width="119.6%" height="149.8%" x="-9.8%" y="-24.4%" filterUnits="objectBoundingBox">
            <feOffset dy="2" in="SourceAlpha" result="shadowOffsetOuter1"/>
            <feGaussianBlur in="shadowOffsetOuter1" result="shadowBlurOuter1" stdDeviation="34"/>
            <feColorMatrix in="shadowBlurOuter1" values="0 0 0 0 0.2419233 0 0 0 0 0.289452948 0 0 0 0 0.659505208 0 0 0 0.670836976 0"/>
        </filter>
        <filter id="h6tfjfs9ve" width="115.7%" height="147.7%" x="-7.9%" y="-23.4%" filterUnits="objectBoundingBox">
            <feOffset dy="2" in="SourceAlpha" result="shadowOffsetOuter1"/>
            <feGaussianBlur in="shadowOffsetOuter1" result="shadowBlurOuter1" stdDeviation="34"/>
            <feColorMatrix in="shadowBlurOuter1" values="0 0 0 0 0.2419233 0 0 0 0 0.289452948 0 0 0 0 0.659505208 0 0 0 0.670836976 0"/>
        </filter>
        <filter id="n4gnb5lwdg" width="121.5%" height="134.9%" x="-10.8%" y="-17.1%" filterUnits="objectBoundingBox">
            <feOffset dy="2" in="SourceAlpha" result="shadowOffsetOuter1"/>
            <feGaussianBlur in="shadowOffsetOuter1" result="shadowBlurOuter1" stdDeviation="34"/>
            <feColorMatrix in="shadowBlurOuter1" values="0 0 0 0 0.2419233 0 0 0 0 0.289452948 0 0 0 0 0.659505208 0 0 0 0.670836976 0"/>
        </filter>
    </defs>
    <g fill="none" fill-rule="evenodd">
        <g>
            <mask id="b64uuyqqpb" fill="#fff">
                <use xlink:href="#ntv5aletka"/>
            </mask>
            <g mask="url(#b64uuyqqpb)">
                <g>
                    <g opacity=".8" transform="translate(-102.503 -492.108) matrix(-1 0 0 1 1051.666 0)">
                        <use fill="#000" filter="url(#zjnlbv3dcc)" xlink:href="#hlbowrqqsd"/>
                        <use fill="#7786FF" xlink:href="#hlbowrqqsd"/>
                    </g>
                    <g opacity=".7" transform="translate(-102.503 -492.108) scale(1 -1) rotate(-7 -7606.158 0)">
                        <use fill="#000" filter="url(#h6tfjfs9ve)" xlink:href="#qxcauweirf"/>
                        <use fill="#7786FF" xlink:href="#qxcauweirf"/>
                    </g>
                    <g opacity=".8" transform="translate(-102.503 -492.108) rotate(30 801.058 495.336)">
                        <use fill="#000" filter="url(#n4gnb5lwdg)" xlink:href="#5tk2cskd4h"/>
                        <use fill="#7786FF" xlink:href="#5tk2cskd4h"/>
                    </g>
                </g>
            </g>
        </g>
    </g>
</svg>
