<svg xmlns="http://www.w3.org/2000/svg" xmlns:xlink="http://www.w3.org/1999/xlink" width="327" height="322" viewBox="0 0 327 322">
    <defs>
        <path id="0vnez2xz2a" d="M0 0H327V322H0z"/>
        <path id="7h9c080k3d" d="M128.414 306.933c66.998 5.01 140.527 12.248 205.932 10.658 122.697-2.984 129.454-16.501 272.47 13.25 46.546 9.683 22.045 24.819 55.684 32.327 24.236 5.408 100.895 10.405 106.917 13.398 10.62 5.28 25.06 20.746 30.245 24.777 9.216 7.164 18.786 14.313 29.87 21.01 12.562 7.589 28.29 14.086 40.807 21.688 114.969 69.82 8.386 13.101 86.266 50.966 3.843 1.869 10.083 11.323 13.758 13.966 71.954 51.754-3.092-1.933 48.051 29.916 2.306 1.436 3.918 3.106 4.85 4.727 11.648 20.252 22.845 41.95 21.524 61.705-1.572 23.505-6.945-3.776-2.08 28.46 2.258 14.97 7.063 30.15 8.784 45.073 3.5 30.346-46.419 41.102-103.155 42.074-10.755.184-21.809-.137-32.871-.604-44.858-1.89-89.597-3.197-134.836-6.463-57.91-4.181-116.095-9.253-174.279-15.855-106.241-12.054-200.766-33.63-303.614-56.496-68.779-15.292-137.829-32.414-197.261-57.303-64.926-27.19-71.354-51.19-98.156-89.443-4.182-5.969-7.049-11.276-7.26-16.95-.625-16.732 3.811-6.459 6.4-33.06 4.132-42.451-4.193-31.478 4.665-60.928.55-1.827 1.634-3.563 2.984-5.211 6.132-7.482 13.468-14.63 19.443-22.155 2.675-3.368 10.454-18.811 19.39-24.336 10.835-6.698 30.983-8.161 46.124-12.484l29.348-12.707z"/>
        <path id="mz10grihwf" d="M165.42 327.408c79.377-1.884 167.087-1.944 242.364-11.26 141.215-17.478 144.434-33.843 320.383-15.882 57.264 5.846 34.028 26.108 75.589 30.92 29.94 3.468 120.514.463 128.517 3.227 14.114 4.876 36.134 21.065 43.521 25.121 13.13 7.21 26.664 14.363 41.8 20.82 17.153 7.317 37.604 13.013 54.71 20.35 157.117 67.391 14.195 14.155 117.406 48.925 5.093 1.716 15.556 11.909 20.717 14.537 101.084 51.47-4.244-1.876 65.918 29.013 3.164 1.393 5.602 3.136 7.236 4.899 20.418 22.029 40.807 45.777 46.02 68.718 6.204 27.294-9.34-3.562 7.306 33.067 7.73 17.012 18.484 33.972 25.574 50.99 14.418 34.605-39.777 52.723-105.216 60.334-12.405 1.443-25.328 2.336-38.311 3.064-52.647 2.95-104.956 6.56-158.514 7.967-68.56 1.801-137.742 2.606-207.446 1.646-127.275-1.753-244.219-15.83-371.252-30.443-84.953-9.772-170.845-21.625-248.24-43.538-84.548-23.938-100.194-50.89-144.326-91.95-6.886-6.407-12.02-12.2-14.203-18.72-6.438-19.231 2.212-7.888-3.869-38.87-9.705-49.443-15.609-35.832-15.402-70.818.019-2.17.683-4.297 1.686-6.352 4.553-9.332 10.617-18.418 14.974-27.781 1.951-4.191 5.696-22.896 14.169-30.291 10.273-8.966 33.13-12.959 49.206-19.678l29.682-18.015z"/>
        <path id="twyp3ua5ah" d="M364.679 440.648c52.856-27.928 111.903-56.453 159.64-91.627 89.552-65.986 86.526-85.918 210.714-122.271 40.418-11.832 31.201 19.091 60.716 11.163 21.264-5.712 81.304-38.565 87.571-37.971 11.052 1.047 31.02 12.588 37.281 14.873 11.13 4.062 22.514 7.926 34.757 10.467 13.873 2.88 29.453 2.82 43.301 5.738 127.194 26.804 14.051 11.73 94.591 18.375 3.974.328 14.255 8.698 18.565 10.056 84.406 26.61-3.454-.788 53.598 12.1 2.573.58 4.768 1.8 6.428 3.306 20.74 18.8 42.008 39.594 52.8 64.379 12.84 29.488-7.42-1.08 15.413 35.793 10.605 17.126 23.23 33.212 33.405 50.553 20.692 35.26-10.055 73.753-51.708 103.768-7.895 5.69-16.315 10.913-24.827 15.965-34.517 20.486-68.598 41.623-104.219 60.623-45.598 24.32-91.932 47.695-139.176 69.2-86.267 39.27-169.488 60.963-259.672 85.312-60.31 16.282-121.915 30.468-180.988 30.29-64.535-.2-83.624-26.23-126.375-59.301-6.67-5.16-11.967-10.181-15.506-16.998-10.438-20.106-1.013-9.822-14.94-43.605-22.227-53.915-21.884-36.292-32.844-76.738-.68-2.51-.908-5.18-.884-7.877.104-12.248 1.304-24.701 1.267-36.92-.016-5.47-3.43-28.273-.072-39.557 4.073-13.681 18.198-25.704 26.892-38.674l14.272-30.422z"/>
        <filter id="803urs6asc" width="119.6%" height="149.8%" x="-9.8%" y="-24.4%" filterUnits="objectBoundingBox">
            <feOffset dy="2" in="SourceAlpha" result="shadowOffsetOuter1"/>
            <feGaussianBlur in="shadowOffsetOuter1" result="shadowBlurOuter1" stdDeviation="34"/>
            <feColorMatrix in="shadowBlurOuter1" values="0 0 0 0 0.2419233 0 0 0 0 0.289452948 0 0 0 0 0.659505208 0 0 0 0.670836976 0"/>
        </filter>
        <filter id="gmseka5mde" width="115.7%" height="147.7%" x="-7.9%" y="-23.4%" filterUnits="objectBoundingBox">
            <feOffset dy="2" in="SourceAlpha" result="shadowOffsetOuter1"/>
            <feGaussianBlur in="shadowOffsetOuter1" result="shadowBlurOuter1" stdDeviation="34"/>
            <feColorMatrix in="shadowBlurOuter1" values="0 0 0 0 0.2419233 0 0 0 0 0.289452948 0 0 0 0 0.659505208 0 0 0 0.670836976 0"/>
        </filter>
        <filter id="2ttfkw981g" width="121.5%" height="134.9%" x="-10.8%" y="-17.1%" filterUnits="objectBoundingBox">
            <feOffset dy="2" in="SourceAlpha" result="shadowOffsetOuter1"/>
            <feGaussianBlur in="shadowOffsetOuter1" result="shadowBlurOuter1" stdDeviation="34"/>
            <feColorMatrix in="shadowBlurOuter1" values="0 0 0 0 0.2419233 0 0 0 0 0.289452948 0 0 0 0 0.659505208 0 0 0 0.670836976 0"/>
        </filter>
    </defs>
    <g fill="none" fill-rule="evenodd">
        <g>
            <mask id="2ffnyqa09b" fill="#fff">
                <use xlink:href="#0vnez2xz2a"/>
            </mask>
            <g mask="url(#2ffnyqa09b)">
                <g>
                    <g opacity=".8" transform="translate(-385.503 -495.348) matrix(-1 0 0 1 1051.666 0)">
                        <use fill="#000" filter="url(#803urs6asc)" xlink:href="#7h9c080k3d"/>
                        <use fill="#7786FF" xlink:href="#7h9c080k3d"/>
                    </g>
                    <g opacity=".7" transform="translate(-385.503 -495.348) scale(1 -1) rotate(-7 -7601.524 0)">
                        <use fill="#000" filter="url(#gmseka5mde)" xlink:href="#mz10grihwf"/>
                        <use fill="#7786FF" xlink:href="#mz10grihwf"/>
                    </g>
                    <g opacity=".8" transform="translate(-385.503 -495.348) rotate(30 801.058 495.336)">
                        <use fill="#000" filter="url(#2ttfkw981g)" xlink:href="#twyp3ua5ah"/>
                        <use fill="#7786FF" xlink:href="#twyp3ua5ah"/>
                    </g>
                </g>
            </g>
        </g>
    </g>
</svg>
