<svg width="300" height="300" viewBox="0 0 300 300" fill="none" xmlns="http://www.w3.org/2000/svg">
  <path opacity="0.1" d="M130.245 31.6858C110.435 38.2623 94.27 41.6718 76.5467 54.1829C58.8234 66.6939 52.7775 95.0399 43.1297 116.795C26.4069 154.485 31.1093 204.244 54.464 236.485C59.2808 243.161 64.998 249.238 71.9444 252.177C78.0618 254.759 84.6937 254.731 91.1256 255.587C101.488 257.013 111.522 260.679 121.698 263.433C154.235 272.258 188.662 271.265 220.634 260.58C232.583 256.599 244.932 250.594 251.979 238.311C256.267 230.764 258.011 221.648 259.511 212.718C265.229 178.994 268.316 143.244 258.782 110.789C256.581 103.328 253.651 95.9957 248.963 90.4178C245.218 85.9527 240.516 82.8427 236.185 79.1907C222.635 67.7781 212.845 50.916 199.895 38.4906C186.946 26.0651 130.245 31.6858 130.245 31.6858Z" fill="#7786FF"/>
  <path d="M112.665 154.785C112.43 150.938 111.257 147.206 109.249 143.914L260.412 151.746L280.493 160.619L112.665 154.785Z" fill="#D2D8FF"/>
  <path d="M113.737 154.785C113.455 150.754 112.232 146.846 110.164 143.372L109.249 144.984L128.487 145.983L172.796 148.265L222.049 150.819L255.709 152.559L259.354 152.759C259.648 152.795 259.946 152.795 260.24 152.759C260.755 152.659 259.869 152.531 260.054 152.759C260.907 153.255 261.813 153.652 262.756 153.943L267.858 156.211L278.121 160.748L279.993 161.575L280.536 159.578L263.713 158.979L223.807 157.552L175.211 155.855L133.333 154.428L119.569 153.957C117.396 153.957 115.152 153.644 112.98 153.729H112.694C112.102 153.729 111.622 154.208 111.622 154.799C111.622 155.39 112.102 155.869 112.694 155.869L129.459 156.454L169.38 157.88L217.976 159.578L259.854 161.005L273.618 161.475C275.791 161.475 278.049 161.818 280.208 161.704H280.508C281.508 161.704 282.037 160.149 281.037 159.706L263.699 152.031C262.625 151.404 261.471 150.924 260.269 150.605C259.526 150.505 258.739 150.605 257.982 150.491L227.852 148.993L179.485 146.482L133.133 144.085L117.296 143.287C114.752 143.158 112.122 142.802 109.578 142.887H109.249C108.867 142.894 108.517 143.1 108.327 143.431C108.137 143.761 108.134 144.166 108.32 144.499C110.204 147.64 111.325 151.177 111.593 154.828C111.693 156.126 113.837 156.126 113.737 154.785Z" fill="#001A36"/>
  <path d="M280.493 160.62C269.059 168.508 206.627 185.214 188.518 190.578C167.593 196.854 143.009 202.204 122.084 208.495C120.212 202.889 117.21 194.857 114.009 189.95L280.493 160.62Z" fill="#D2D8FF"/>
  <path d="M279.95 159.692C277.664 161.153 275.236 162.381 272.704 163.359C268.902 164.956 265.028 166.354 261.126 167.638C251.307 171.062 241.359 174.101 231.397 177.068C212.23 182.774 193.006 188.481 173.682 193.659C156.402 198.31 138.95 202.347 121.798 207.482L123.113 208.224C121.146 201.632 118.402 195.297 114.938 189.351L114.294 190.92L130.946 187.981L170.537 181.005L218.776 172.446L260.226 165.142L273.99 162.717C276.186 162.451 278.366 162.07 280.522 161.575H280.808C282.151 161.333 281.58 159.279 280.236 159.521L263.585 162.374L223.979 169.35L175.754 177.91L134.305 185.199L120.541 187.625C118.411 188.01 116.095 188.181 114.009 188.78C113.913 188.788 113.818 188.788 113.723 188.78C113.405 188.871 113.146 189.104 113.023 189.411C112.9 189.718 112.926 190.064 113.094 190.349C116.472 196.199 119.14 202.429 121.041 208.909C121.213 209.472 121.799 209.799 122.37 209.651C137.649 205.072 153.186 201.377 168.608 197.34C179.085 194.601 189.447 191.505 199.852 188.523C219.634 182.817 239.487 177.368 258.982 170.762C263.513 169.222 268.03 167.624 272.475 165.812C275.476 164.69 278.35 163.255 281.051 161.533C282.166 160.762 281.094 158.979 279.95 159.692Z" fill="#001A36"/>
  <path d="M88.0525 154.899C71.7871 169.669 54.826 183.63 37.1694 196.783C38.8274 194.786 141.208 186.098 157.059 183.73C171.195 181.619 215.131 175.285 222.993 173.559C228.881 172.275 234.913 171.718 240.887 170.862C254.422 168.936 267.698 165.5 280.465 160.619L210.429 159.407C171.524 158.736 88.0525 154.899 88.0525 154.899Z" fill="white"/>
  <path d="M87.295 154.143C71.0962 168.837 54.2162 182.741 36.6549 195.856L37.9555 197.539C37.8269 197.668 37.7983 197.653 37.7697 197.653C37.9512 197.628 38.1288 197.58 38.2986 197.511C38.8417 197.368 39.3991 197.268 39.9423 197.168C41.8004 196.855 43.6727 196.598 45.5451 196.355C51.8055 195.556 58.0658 194.929 64.3404 194.23C81.492 192.432 98.5292 190.82 115.638 189.151C128.702 187.881 141.794 186.769 154.815 185.114C171.181 183.017 187.489 180.349 203.783 177.838C210.529 176.811 217.304 175.841 223.979 174.457C231.854 172.803 239.916 172.26 247.834 170.834C255.324 169.481 262.723 167.666 269.988 165.399C273.618 164.257 277.215 163.007 280.779 161.647C281.289 161.499 281.613 161 281.542 160.475C281.47 159.95 281.024 159.557 280.493 159.55C246.905 158.965 213.316 158.622 179.756 157.524C154.815 156.697 129.874 155.669 104.933 154.585L88.0525 153.829C86.6232 153.829 86.6232 155.898 88.0525 155.969C103.498 156.682 118.959 157.348 134.433 157.966C159.718 158.993 185.002 160.035 210.3 160.477L280.493 161.69L280.208 159.592C265.527 165.048 250.251 168.749 234.699 170.62C226.28 171.704 217.976 173.473 209.586 174.785C191.92 177.639 174.211 180.178 156.516 182.746C144.538 184.472 132.318 185.385 120.24 186.569C102.889 188.252 85.5369 189.893 68.1995 191.69C61.4532 192.389 54.7069 193.117 47.9749 193.916C44.4216 194.13 40.8954 194.669 37.441 195.528C37.0658 195.606 36.7165 195.777 36.4262 196.027C35.6401 196.869 36.7121 198.467 37.7269 197.71C55.4597 184.519 72.4874 170.501 88.81 155.655C89.8248 154.699 88.3098 153.273 87.295 154.143Z" fill="#001A36"/>
  <path d="M168.079 111.203C170.409 110.746 254.123 149.235 280.493 160.619C274.033 160.962 114.352 144.399 107.763 143.372L168.079 111.203Z" fill="white"/>
  <path d="M168.365 112.244C168.122 112.244 167.893 112.13 168.193 112.244C168.417 112.331 168.646 112.402 168.879 112.458C169.58 112.687 170.309 112.958 170.98 113.229C173.239 114.113 175.497 115.055 177.727 116.082C185.145 119.249 192.52 122.516 199.895 125.797C218.69 134.1 237.357 142.573 256.095 150.976C264.028 154.528 271.96 158.109 279.95 161.547L280.493 159.55C278.482 159.552 276.473 159.433 274.476 159.193C270.188 158.851 265.814 158.451 261.484 158.052C248.034 156.825 234.584 155.498 221.135 154.157C205.212 152.559 189.261 150.938 173.282 149.293C159.236 147.856 145.186 146.392 131.132 144.899C123.613 144.1 116.067 143.358 108.549 142.402C108.382 142.416 108.215 142.416 108.048 142.402L108.306 144.357L128.73 133.472L161.118 116.182L168.622 112.187C169.851 111.531 168.765 109.691 167.55 110.333L147.125 121.175L114.738 138.436L107.205 142.445C106.845 142.668 106.647 143.08 106.7 143.5C106.752 143.92 107.044 144.271 107.448 144.399C113.808 145.384 120.312 145.826 126.672 146.568C140.117 147.994 153.562 149.421 167.007 150.848C183.015 152.502 199.028 154.133 215.046 155.741C229.129 157.158 243.208 158.532 257.282 159.863C264.714 160.562 272.275 161.632 279.75 161.747H280.465C281.422 161.747 282.051 160.206 280.994 159.749C264.514 152.616 248.12 145.155 231.797 137.794C214.588 129.977 197.365 122.145 179.985 114.755C177.226 113.571 174.468 112.387 171.681 111.303C170.494 110.64 169.166 110.268 167.807 110.219C166.435 110.376 167.021 112.43 168.365 112.244Z" fill="#001A36"/>
  <path d="M79.491 137.58L53.5064 129.021C52.7202 128.764 52.3772 130.005 53.1633 130.262L79.148 138.821C79.9341 139.078 80.2771 137.837 79.491 137.58Z" fill="#001A36"/>
  <path d="M46.1169 168.808L18.7172 168.137C17.8882 168.137 17.8882 169.393 18.7172 169.421L46.1169 170.092C46.9316 170.092 46.9316 168.836 46.1169 168.808Z" fill="#001A36"/>
  <path d="M130.703 228.61C121.243 233.522 111.43 237.723 101.345 241.178C100.573 241.449 100.902 242.69 101.688 242.419C111.88 238.931 121.794 234.682 131.346 229.708C132.089 229.338 131.432 228.282 130.703 228.61Z" fill="#001A36"/>
  <path d="M75.2174 109.049C69.4837 105.853 64.0158 102.203 58.8662 98.1355C58.223 97.622 57.3083 98.5207 57.9515 99.0343C63.1786 103.186 68.7382 106.903 74.5742 110.147C75.2889 110.561 76.0035 109.448 75.2174 109.049Z" fill="#001A36"/>
  <path d="M226.666 121.075C220.193 115.238 214.128 108.965 208.514 102.301C207.985 101.673 207.085 102.587 207.599 103.214C213.242 109.876 219.335 116.144 225.837 121.974C226.452 122.53 227.352 121.617 226.737 121.075H226.666Z" fill="#001A36"/>
  <path d="M125.657 206.056C123.546 203.303 121.891 200.23 120.755 196.954C120.669 196.698 120.255 196.812 120.34 197.068C121.494 200.38 123.163 203.49 125.286 206.284C125.443 206.498 125.815 206.284 125.657 206.056Z" fill="#001A36"/>
  <path d="M129.274 206.712L124.886 199.023C124.826 198.92 124.695 198.885 124.593 198.944C124.49 199.004 124.455 199.134 124.514 199.237L128.902 206.926C128.961 207.029 129.092 207.064 129.195 207.005C129.298 206.945 129.333 206.815 129.274 206.712Z" fill="#001A36"/>
  <path d="M130.989 204.801C130.546 205.129 131.16 205.685 131.517 205.357C131.875 205.029 131.646 204.801 131.517 204.544C131.389 204.287 130.974 203.716 130.717 203.303L127.358 198.096C127.215 197.867 126.844 198.096 126.987 198.31L129.159 201.676L130.203 203.288C130.331 203.502 131.446 204.986 131.203 205.171C131.417 205 131.203 204.629 130.989 204.801Z" fill="#001A36"/>
  <path d="M133.061 203.731C132.661 203.973 133.061 204.515 133.476 204.344C134.105 204.059 133.361 203.074 133.175 202.746L130.746 198.467C130.686 198.364 130.555 198.329 130.453 198.388C130.35 198.447 130.315 198.578 130.374 198.681L131.918 201.42L132.675 202.775C132.761 202.932 133.476 204.016 133.276 204.201C133.36 204.175 133.42 204.099 133.426 204.01C133.431 203.922 133.381 203.839 133.301 203.802C133.22 203.766 133.124 203.782 133.061 203.845V203.731Z" fill="#001A36"/>
  <path d="M140.522 202.247C138.908 201.077 137.595 199.542 136.692 197.768C136.577 197.511 136.206 197.767 136.32 197.981C137.256 199.825 138.624 201.415 140.308 202.618C140.522 202.775 140.736 202.404 140.522 202.247Z" fill="#001A36"/>
  <path d="M143.852 201.206L140.894 197.568C140.708 197.354 140.408 197.653 140.579 197.867L143.538 201.505C143.724 201.719 144.024 201.405 143.852 201.206Z" fill="#001A36"/>
  <path opacity="0.1" d="M141.666 157.21C135.155 158.107 129.485 162.101 126.458 167.924C126.019 168.613 125.8 169.419 125.829 170.235C126.113 171.751 126.929 173.116 128.13 174.086C132.547 178.081 137.621 177.639 141.98 176.94C149.441 175.67 159.689 176.24 167.05 174.7C170.852 173.915 189.79 168.794 192.777 166.497C197.58 162.859 181.886 153.373 184.201 153.073C196.122 151.432 141.666 157.21 141.666 157.21Z" fill="#7786FF"/>
  <path d="M161.633 198.466C160.629 196.625 159.395 194.919 157.96 193.388C157.774 193.188 157.474 193.488 157.659 193.687C159.063 195.196 160.273 196.873 161.261 198.68C161.32 198.783 161.452 198.818 161.554 198.759C161.657 198.7 161.692 198.569 161.633 198.466Z" fill="#001A36"/>
  <path d="M164.177 197.496L162.119 193.787C161.99 193.545 161.619 193.787 161.761 194.001L163.82 197.71C163.948 197.953 164.32 197.71 164.177 197.496Z" fill="#001A36"/>
  <path d="M172.253 194.729L168.493 190.207C168.322 189.993 168.022 190.292 168.193 190.506L171.952 195.028C172.138 195.242 172.438 194.943 172.253 194.729Z" fill="#001A36"/>
  <path d="M177.327 194.101L174.125 190.178C173.953 189.964 173.639 190.278 173.825 190.492L177.026 194.401C177.198 194.615 177.498 194.315 177.327 194.101Z" fill="#001A36"/>
  <path d="M180.714 192.846C180.373 191.561 179.786 190.355 178.985 189.294C178.827 189.08 178.456 189.294 178.613 189.508C179.397 190.537 179.97 191.71 180.3 192.96C180.331 193.074 180.449 193.141 180.564 193.11C180.678 193.078 180.746 192.96 180.714 192.846Z" fill="#001A36"/>
  <path d="M186.931 192.033C186.332 190.424 185.391 188.965 184.173 187.753C183.987 187.567 183.673 187.867 183.873 188.053C185.044 189.224 185.947 190.635 186.517 192.19C186.617 192.446 187.031 192.332 186.931 192.075V192.033Z" fill="#001A36"/>
  <path d="M194.249 190.521L192.377 187.154C192.248 186.911 191.877 187.154 192.005 187.368L193.878 190.735C193.916 190.801 193.987 190.842 194.064 190.842C194.14 190.842 194.211 190.801 194.249 190.735C194.288 190.668 194.288 190.587 194.249 190.521Z" fill="#001A36"/>
  <path d="M202.425 187.81C201.999 186.668 201.291 185.653 200.367 184.857C200.152 184.686 199.852 184.985 200.067 185.171C200.935 185.912 201.603 186.859 202.011 187.924C202.111 188.181 202.525 188.067 202.425 187.81Z" fill="#001A36"/>
  <path d="M204.397 186.697C203.256 184.626 201.81 182.736 200.11 181.091C200.059 181.024 199.974 180.992 199.892 181.01C199.81 181.028 199.746 181.092 199.729 181.174C199.711 181.256 199.742 181.34 199.809 181.39C201.479 183.014 202.9 184.874 204.026 186.911C204.154 187.154 204.526 186.911 204.397 186.697Z" fill="#001A36"/>
  <path d="M206.699 186.769C206.188 185.531 205.424 184.413 204.455 183.487C204.255 183.288 203.94 183.602 204.14 183.787C205.063 184.659 205.793 185.713 206.284 186.883C206.319 186.991 206.431 187.053 206.541 187.025C206.642 187.025 206.742 186.868 206.699 186.769Z" fill="#001A36"/>
  <path d="M208.9 185.927L207.771 183.901C207.642 183.673 207.27 183.901 207.399 184.129L208.528 186.141C208.657 186.383 209.028 186.141 208.9 185.927Z" fill="#001A36"/>
  <path d="M212.459 186.426L213.402 185.827C213.475 185.746 213.475 185.623 213.402 185.542L211.973 182.86C211.914 182.757 211.782 182.722 211.68 182.781C211.577 182.84 211.542 182.971 211.601 183.074L213.03 185.756L213.116 185.456L212.173 186.055C211.944 186.212 212.173 186.583 212.387 186.426H212.459Z" fill="#001A36"/>
  <path d="M117.982 153.644C117.085 151.486 115.994 149.414 114.723 147.452C114.566 147.224 114.194 147.452 114.352 147.666C115.603 149.598 116.679 151.636 117.568 153.758C117.682 154.015 118.096 153.9 117.982 153.644Z" fill="#001A36"/>
  <path d="M121.384 153.872C120.483 152.018 119.452 150.23 118.296 148.522C118.139 148.294 117.768 148.522 117.925 148.736C119.08 150.444 120.112 152.232 121.012 154.086C121.126 154.343 121.498 154.086 121.384 153.872Z" fill="#001A36"/>
  <path d="M122.599 153.644L120.541 149.934C120.412 149.692 120.04 149.934 120.169 150.148L122.227 153.858C122.286 153.96 122.417 153.995 122.52 153.936C122.623 153.877 122.658 153.746 122.599 153.644Z" fill="#001A36"/>
  <path d="M199.352 154.357C200.913 155.085 202.178 156.323 202.94 157.866C204.069 160.591 181.815 162.374 181.4 160.163C180.986 157.952 182.744 154.457 183.644 152.674C183.644 152.674 195.207 152.146 199.352 154.357Z" fill="#D2D8FF"/>
  <path d="M199.081 154.813C199.994 155.284 200.82 155.907 201.525 156.654C201.843 157.019 202.116 157.422 202.339 157.852C202.511 158.152 202.454 158.066 202.439 158.094C202.119 158.397 201.732 158.622 201.31 158.751C199.414 159.402 197.447 159.828 195.45 160.02C193.019 160.351 190.571 160.546 188.118 160.605C186.278 160.758 184.426 160.652 182.615 160.291C181.629 160.049 181.772 159.806 181.929 158.679C182.36 156.679 183.092 154.755 184.101 152.973L183.644 153.23C185.659 153.144 187.675 153.23 189.69 153.23C192.734 153.344 196.308 153.415 199.081 154.828C199.695 155.156 200.238 154.228 199.624 153.915C196.765 152.488 193.292 152.317 190.19 152.174C188.018 152.074 185.817 152.06 183.644 152.174C183.451 152.179 183.274 152.281 183.172 152.445C182.164 154.265 181.409 156.213 180.928 158.237C180.771 159.122 180.514 160.42 181.4 161.09C182.035 161.415 182.732 161.6 183.444 161.632C184.587 161.766 185.738 161.828 186.889 161.818C189.757 161.797 192.622 161.592 195.464 161.204C197.778 161.032 200.049 160.497 202.196 159.621C205.384 158.066 201.282 154.956 199.566 154.014C199.023 153.558 198.48 154.485 199.081 154.813Z" fill="#001A36"/>
  <path d="M197.408 160.177C199.081 160.585 200.567 161.545 201.625 162.902C203.268 165.341 181.815 171.461 180.957 169.421C180.099 167.381 181.157 163.587 181.672 161.632C181.672 161.632 192.963 158.822 197.408 160.177Z" fill="#D2D8FF"/>
  <path d="M197.251 160.691C198.286 160.979 199.257 161.464 200.11 162.117C200.525 162.398 200.872 162.769 201.124 163.202C201.024 163.53 200.467 163.886 200.138 164.1C198.395 165.118 196.539 165.927 194.607 166.511C192.294 167.321 189.936 167.997 187.546 168.537C185.771 169.047 183.933 169.307 182.086 169.307C181.862 169.303 181.641 169.265 181.429 169.193C181.3 169.193 181.429 169.193 181.429 169.193C181.253 168.739 181.175 168.253 181.2 167.767C181.254 165.761 181.591 163.773 182.2 161.861L181.829 162.232C183.787 161.747 185.774 161.361 187.775 161.033C190.776 160.548 194.292 159.92 197.28 160.776C197.556 160.826 197.825 160.657 197.899 160.386C197.973 160.116 197.829 159.833 197.565 159.735C194.521 158.879 191.019 159.45 187.96 159.935C185.802 160.263 183.673 160.677 181.543 161.204C181.363 161.256 181.223 161.396 181.171 161.575C180.576 163.492 180.226 165.477 180.128 167.481C180.128 168.423 180.128 169.892 181.157 170.334C182.729 170.962 185.059 170.334 186.631 169.964C189.454 169.395 192.233 168.633 194.95 167.681C197.162 167.043 199.266 166.082 201.196 164.828C201.725 164.428 202.368 163.858 202.239 163.116C201.993 162.444 201.537 161.869 200.939 161.475C199.935 160.694 198.789 160.113 197.565 159.764C196.894 159.45 196.608 160.477 197.251 160.691Z" fill="#001A36"/>
  <path d="M134.262 163.943C132.767 164.609 131.556 165.781 130.846 167.253C129.826 168.903 128.928 170.624 128.159 172.403C127.859 173.116 127.616 174.058 128.159 174.557C128.369 174.725 128.621 174.833 128.888 174.871L131.26 175.442C131.526 175.548 131.823 175.548 132.089 175.442C132.31 175.279 132.478 175.056 132.575 174.8C133.287 173.384 134.099 172.02 135.005 170.72C135.234 170.42 135.52 170.078 135.863 170.149L135.177 173.002C135.148 173.119 135.148 173.242 135.177 173.359C135.211 173.488 135.301 173.596 135.422 173.654C135.543 173.711 135.683 173.713 135.805 173.658C136.05 173.533 136.254 173.34 136.391 173.102C137.525 171.626 138.179 169.839 138.264 167.981C138.38 166.17 137.277 164.504 135.562 163.901L134.262 163.943Z" fill="white"/>
  <path d="M134.09 163.33C132.623 163.92 131.406 164.999 130.646 166.383C129.622 167.946 128.724 169.587 127.958 171.29C127.43 172.432 126.529 174.4 127.958 175.242C128.762 175.584 129.608 175.815 130.474 175.927C131.26 176.112 132.089 176.355 132.704 175.656C132.976 175.283 133.207 174.881 133.39 174.457C133.619 174.029 133.847 173.601 134.09 173.188C134.333 172.774 134.633 172.303 134.919 171.875C135.205 171.447 135.491 170.748 135.791 170.762L135.162 169.964L134.748 171.733C134.559 172.26 134.453 172.813 134.433 173.373C134.481 173.757 134.725 174.088 135.078 174.248C135.431 174.408 135.841 174.374 136.163 174.158C136.874 173.555 137.424 172.785 137.763 171.918C138.242 171.028 138.566 170.063 138.721 169.065C139.027 167.332 138.497 165.556 137.292 164.272C136.792 163.741 136.127 163.394 135.405 163.287C135.005 163.287 134.576 163.287 134.176 163.287C133.821 163.287 133.533 163.575 133.533 163.929C133.533 164.284 133.821 164.571 134.176 164.571C134.793 164.456 135.431 164.546 135.991 164.828C136.902 165.549 137.43 166.649 137.42 167.809C137.417 169.212 137.021 170.585 136.277 171.775C136.098 172.09 135.903 172.395 135.691 172.688C135.691 172.688 135.405 173.002 135.419 173.031C135.562 173.601 135.734 172.717 135.734 172.731L136.306 170.277C136.353 170.086 136.311 169.883 136.192 169.725C136.073 169.567 135.889 169.471 135.691 169.464C134.791 169.464 134.262 170.306 133.876 170.891C133.49 171.476 132.804 172.574 132.318 173.459C132.163 173.889 131.952 174.297 131.689 174.671C131.417 174.942 130.746 174.671 130.403 174.543L128.888 174.186C128.502 174.086 128.302 174.001 128.33 173.559C128.492 172.683 128.817 171.846 129.288 171.091C129.731 170.178 130.202 169.293 130.717 168.423C131.575 166.996 132.575 165.056 134.305 164.486C135.205 164.3 134.876 163.073 134.09 163.33Z" fill="#001A36"/>
  <path d="M137.492 86.1239L139.15 90.4037C140.351 95.0685 139.579 99.9332 138.807 104.669C138.725 105.597 138.457 106.499 138.021 107.323C137.203 108.561 135.682 109.136 134.247 108.749C133.732 108.542 133.202 108.375 132.661 108.25C131.932 108.25 127.144 106.909 125.929 105.754C122.956 102.9 103.332 99.4909 100.845 95.0543C99.5155 92.6862 106.405 82.5147 108.606 81.3306C113.051 78.934 115.938 86.0383 119.726 84.7402C127.258 82.1581 131.66 82.315 134.133 83.014C135.683 83.4605 136.93 84.6144 137.492 86.1239Z" fill="#001A36"/>
  <path d="M140.536 110.39C140.536 110.39 138.478 108.963 138.278 107.879C137.964 106.082 139.207 104.441 139.593 102.672C139.807 101.437 139.778 100.172 139.507 98.9487C139.079 96.281 137.778 88.5061 133.79 86.4234C130.103 84.4975 122.184 85.6102 122.056 93.7131C121.87 97.7991 123.496 101.759 126.501 104.541C127.644 105.511 129.045 106.153 130.245 107.052C131.446 107.95 131.303 110.775 131.675 112.202C132.418 114.37 140.536 110.39 140.536 110.39Z" fill="white"/>
  <path d="M140.808 109.933C139.522 109.063 138.492 108.065 138.878 106.395C139.264 104.726 140.308 103.029 140.308 101.046C140.175 98.4354 139.694 95.8543 138.878 93.3708C138.298 90.8131 136.993 88.4759 135.119 86.6374C133.52 85.4457 131.531 84.896 129.545 85.0967C127.393 85.1827 125.352 86.0739 123.828 87.5932C122.07 89.6636 121.266 92.3767 121.612 95.0684C121.761 98.4268 123.075 101.629 125.329 104.127C126.658 105.554 128.473 106.167 129.888 107.423C131.06 108.45 130.86 110.404 131.16 111.816C131.603 114.042 134.119 113.371 135.734 112.901C137.494 112.36 139.206 111.672 140.851 110.846C141.465 110.547 140.851 109.619 140.308 109.933C139.04 110.547 137.737 111.086 136.406 111.545C135.582 111.858 134.73 112.092 133.862 112.244C132.775 112.401 132.332 112.373 132.132 111.246C132.041 110.008 131.782 108.789 131.36 107.622C130.76 106.381 129.345 105.825 128.259 105.126C125.323 103.208 123.347 100.13 122.827 96.6662C122.327 93.813 122.456 90.5462 124.543 88.3493C126.014 86.9002 128.007 86.1032 130.074 86.1381C132.062 86.041 133.983 86.868 135.277 88.3778C136.781 90.4729 137.801 92.8749 138.264 95.4108C138.521 96.5093 138.735 97.6363 138.921 98.749C139.296 100.664 139.107 102.645 138.378 104.455C137.835 105.882 137.263 107.437 138.107 108.735C138.675 109.541 139.405 110.222 140.251 110.732C140.837 111.232 141.365 110.318 140.808 109.933Z" fill="#001A36"/>
  <path d="M149.127 122.601C149.127 122.601 157.945 145.255 161.247 142.93L166.035 137.666C163.391 138.65 152.657 108.949 149.369 108.321C146.785 108.043 144.171 108.281 141.68 109.02C134.376 115.397 129.188 110.975 129.188 110.975L123.785 114.456" fill="white"/>
  <path d="M148.512 122.772C150.084 126.824 151.842 130.847 153.772 134.727C154.629 136.425 158.431 145.426 161.576 143.458C162.435 142.73 163.203 141.901 163.863 140.99L166.492 138.137C166.687 137.925 166.722 137.612 166.577 137.364C166.433 137.115 166.144 136.989 165.864 137.052C165.678 137.052 164.677 135.626 164.434 135.241C163.577 133.814 162.848 132.388 162.133 130.961C160.175 127.052 158.403 123.072 156.545 119.12C155.144 115.788 153.461 112.581 151.513 109.534C151.094 108.758 150.445 108.13 149.655 107.736C147.511 106.938 144.396 107.736 142.252 108.193C141.083 108.689 139.998 109.363 139.036 110.19C137.512 111.214 135.739 111.806 133.904 111.902C132.373 111.939 130.869 111.484 129.617 110.604C129.409 110.394 129.084 110.353 128.83 110.504L123.456 113.899C122.77 114.341 123.456 115.454 124.114 115.012L129.517 111.531L128.73 111.431C131.432 113.685 135.477 113.428 138.464 111.973C139.736 111.346 140.765 110.176 141.98 109.591C143.194 109.161 144.466 108.92 145.753 108.878C147.812 108.678 149.212 108.507 150.413 110.19C152.465 113.39 154.23 116.766 155.687 120.276C157.602 124.342 159.417 128.45 161.404 132.445C162.033 133.686 164.048 138.864 166.149 138.279L165.521 137.209L162.891 140.063C162.462 140.519 161.261 142.317 160.718 142.402C160.175 142.488 159.074 141.19 158.717 140.719C157.822 139.506 157.019 138.228 156.316 136.896C153.787 132.213 151.576 127.366 149.698 122.387C149.398 121.631 148.155 121.959 148.455 122.73L148.512 122.772Z" fill="#001A36"/>
  <path d="M121.255 90.0897C123.13 87.5514 125.87 85.7855 128.959 85.1252C130.583 84.8189 132.256 84.8922 133.847 85.3392C134.862 85.5817 136.048 86.0667 136.234 87.1081C136.279 87.4442 136.245 87.7861 136.134 88.1067C135.429 89.823 133.984 91.1288 132.204 91.6589C130.488 92.3009 128.645 92.5719 126.958 93.2709C126.268 93.5261 125.643 93.9305 125.129 94.455C124.582 95.1128 124.227 95.907 124.099 96.7518C123.898 99.1422 124.28 101.546 125.214 103.756C123.313 102.458 120.926 98.592 120.297 94.8116L121.255 90.0897Z" fill="#001A36"/>
  <path d="M171.223 130.105C168.565 124.399 157.488 135.369 157.488 135.369L135.119 141.86L143.181 157.795L171.223 130.105Z" fill="#D2D8FF"/>
  <path d="M135.119 141.86L157.488 135.369C159.989 133.6 173.753 120.462 176.655 129.021L191.419 151.276L183.301 158.194L169.88 135.241" fill="#D2D8FF"/>
  <path d="M135.291 142.488L148.855 138.55L156.43 136.354C157.667 135.965 158.797 135.296 159.732 134.399C162.126 132.318 164.689 130.438 167.393 128.778C169.408 127.609 173.21 125.512 175.211 127.737C175.641 128.356 176.01 129.015 176.312 129.706C176.683 130.348 177.141 130.961 177.555 131.589L182.215 138.593L190.791 151.604L190.891 150.833L182.787 157.738L183.787 157.866L170.352 134.913C170.153 134.66 169.798 134.592 169.52 134.754C169.242 134.916 169.127 135.258 169.251 135.555L182.672 158.508C182.777 158.677 182.952 158.789 183.149 158.814C183.346 158.839 183.544 158.774 183.687 158.637L191.805 151.732C192.008 151.527 192.049 151.212 191.905 150.962L184.23 139.406C181.7 135.612 178.913 131.874 176.769 127.865C173.668 122.074 165.478 128.236 162.247 130.719C160.682 132.183 159.005 133.523 157.231 134.727C155.38 135.463 153.466 136.031 151.513 136.425L134.948 141.247C134.604 141.341 134.403 141.696 134.498 142.038C134.592 142.381 134.948 142.582 135.291 142.488Z" fill="#001A36"/>
  <path d="M145.239 150.234C148.955 150.933 167.178 127.109 171.223 130.105C176.083 133.7 187.66 159.607 187.66 159.607L180.514 167.382C177.355 161.561 168.036 146.297 166.978 144.556C166.092 143.13 163.82 162.888 148.04 162.431C140.979 162.232 139.379 156.725 137.006 149.949C136.328 147.771 135.85 145.536 135.577 143.272" fill="#D2D8FF"/>
  <path d="M145.067 150.847C146.343 150.826 147.561 150.315 148.469 149.421C150.27 147.959 151.979 146.386 153.586 144.713C157.502 140.876 161.247 136.796 165.478 133.301C166.635 132.345 168.522 130.533 170.166 130.447C171.595 130.447 172.739 132.616 173.41 133.572C176.542 138.36 179.327 143.366 181.743 148.551C183.601 152.288 185.402 156.069 187.103 159.963L187.203 159.179L180.057 166.953L181.071 167.082C178.113 161.647 174.854 156.368 171.652 151.076C170.423 149.04 169.18 147 167.922 144.956C167.464 144.214 166.921 143.529 166.164 144.385C165.606 145.381 165.197 146.453 164.949 147.566C164.25 149.545 163.37 151.455 162.319 153.273C159.46 158.209 154.829 161.746 148.926 161.832C144.538 161.918 141.78 159.764 139.922 155.883C138.152 151.813 136.918 147.531 136.248 143.144C136.106 142.331 134.819 142.673 135.005 143.472C135.274 145.531 135.675 147.57 136.206 149.578C136.792 151.461 137.463 153.344 138.221 155.17C139.1 157.876 140.848 160.217 143.195 161.832C148.126 164.685 155.058 162.731 159.117 159.221C162.374 156.109 164.792 152.228 166.149 147.937C166.407 147.267 166.635 146.511 166.893 145.897C166.994 145.703 167.071 145.497 167.121 145.284C167.121 145.284 167.221 145.141 167.207 145.084V144.97C167.036 145.212 166.75 145.184 166.364 144.97C166.626 145.502 166.937 146.008 167.293 146.482L169.194 149.592C172.839 155.584 176.54 161.575 179.899 167.738C180.004 167.907 180.179 168.019 180.376 168.044C180.573 168.069 180.771 168.004 180.914 167.866L188.061 160.092C188.255 159.882 188.295 159.573 188.161 159.321C184.273 150.619 180.228 141.703 174.954 133.743C174.113 132.123 172.945 130.695 171.524 129.549C170.371 129.045 169.037 129.192 168.022 129.934C163.591 132.273 159.946 136.539 156.459 140.034C154.286 142.202 152.171 144.399 149.87 146.454C148.998 147.252 146.754 149.792 145.382 149.606C144.567 149.506 144.224 150.733 145.039 150.847H145.067Z" fill="#001A36"/>
  <path d="M149.155 111.774C150.127 116.952 157.145 135.926 157.145 135.926L136.077 145.013C131.032 140.733 122.77 117.822 122.77 117.822" fill="white"/>
  <path d="M148.526 111.902C149.624 116.666 151.057 121.348 152.814 125.911C154 129.306 155.201 132.687 156.445 136.054L156.745 135.326L135.791 144.456L136.563 144.556C134.846 142.801 133.444 140.765 132.418 138.536C130.831 135.583 129.445 132.545 128.13 129.463C126.444 125.583 124.871 121.631 123.428 117.651C123.142 116.881 121.898 117.209 122.184 117.993C123.671 122.092 125.281 126.134 127.015 130.119C128.359 133.244 129.774 136.339 131.389 139.335C132.459 141.608 133.909 143.682 135.677 145.469C135.887 145.663 136.196 145.703 136.449 145.569L157.516 136.468C157.769 136.327 157.893 136.033 157.817 135.754C156.568 132.388 155.358 129.011 154.186 125.626C152.431 121.057 150.998 116.371 149.898 111.602C149.741 110.804 148.469 111.146 148.655 111.945L148.526 111.902Z" fill="#001A36"/>
  <path d="M128.459 111.431C128.459 111.431 125.686 113.186 123.942 114.284C119.254 117.352 128.43 166.925 131.775 165.755L138.55 165.27C136.32 165.555 128.83 132.759 131.403 124.841" fill="white"/>
  <path d="M128.13 110.889C126.701 111.759 125.372 112.615 124.014 113.514C123.511 113.797 123.099 114.218 122.827 114.727C122.266 116.082 121.998 117.54 122.041 119.006C121.932 124.111 122.281 129.214 123.085 134.256C123.885 140.248 124.914 146.225 126.215 152.146C126.949 156.407 128.152 160.574 129.802 164.571C130.274 165.541 130.731 166.411 131.875 166.469C133.619 166.554 136.463 166.14 138.55 165.998C139.364 165.998 139.393 164.7 138.55 164.714C138.75 164.714 138.678 164.714 138.55 164.571C138.376 164.338 138.232 164.084 138.121 163.815C137.713 162.943 137.369 162.041 137.092 161.119C136.22 158.494 135.534 155.798 134.905 153.102C133.29 146.542 132.21 139.863 131.675 133.129C131.325 130.473 131.466 127.775 132.089 125.169C132.332 124.385 131.089 124.042 130.846 124.827C130.253 127.219 130.079 129.694 130.331 132.145C130.534 135.602 130.925 139.045 131.503 142.459C132.438 149.176 133.983 155.794 136.12 162.232C136.449 163.173 137.149 165.969 138.55 165.941V164.685C136.477 164.828 134.39 164.956 132.318 165.128C132.081 165.163 131.84 165.163 131.603 165.128C131.603 165.128 131.803 165.128 131.732 165.128C131.443 164.852 131.218 164.516 131.074 164.143C129.526 160.616 128.417 156.913 127.773 153.116C125.157 142.704 123.653 132.045 123.285 121.317C123.164 119.507 123.319 117.689 123.742 115.925C123.827 115.534 124.009 115.171 124.271 114.869C125.666 113.754 127.181 112.797 128.788 112.016C129.06 111.822 129.137 111.452 128.965 111.165C128.794 110.878 128.431 110.771 128.13 110.918V110.889Z" fill="#001A36"/>
</svg>
