<?xml version="1.0" encoding="UTF-8"?>
<svg width="375px" height="79px" viewBox="0 0 375 79" version="1.1" xmlns="http://www.w3.org/2000/svg" xmlns:xlink="http://www.w3.org/1999/xlink">
    <title>347D5ECC-1B23-4902-B2A6-AC86126C934D</title>
    <g id="-&gt;-For-dev" stroke="none" stroke-width="1" fill="none" fill-rule="evenodd">
        <g id="02.00.01---full-screen" transform="translate(0.000000, -4649.000000)" fill="#F2F3FF">
            <g id="Group-8" transform="translate(-177.000000, 4070.000000)">
                <g id="Group-6" transform="translate(0.000000, 579.000000)">
                    <path d="M721.999242,-0.0920529844 L722,105 L0,105 L-0.00123455423,87.2586644 C3.19757168,86.9765547 7.31497181,87.2941156 13.1954033,89.4375579 C34.3784257,97.1588596 30.6987441,65.0074737 63.8344439,73.042045 C96.1807589,80.8852104 96.1807589,93.9460032 134.829795,91.7559425 C173.478831,89.5658818 161.175492,78.8704262 206.458729,66.8747119 C222.907247,62.5174321 227.819021,63.5631793 231.972238,64.9871383 L232.372156,65.1259528 C232.571293,65.1957817 232.769467,65.2661166 232.967901,65.3363883 L233.365476,65.4766787 C235.425136,66.1993335 237.59938,66.8747119 241.23548,66.8747119 C265.335502,66.8747119 250.160449,50.4442117 292.299439,50.4442117 C334.438428,50.4442117 325.689772,20.4292588 369.148957,50.4442117 C379.441991,57.5530641 416.190014,84.8136212 445.684984,50.4442117 C462.483231,30.8698291 465.782702,20.4292588 490.899136,31.1565789 C516.774542,42.2080587 504.739566,31.1565789 551.257494,31.1565789 C567.870092,31.1565789 567.568722,50.4442117 604.8821,50.4442117 C640.278728,50.4442117 662.576489,12.2290281 721.999242,-0.0920529844 Z" id="light-purple-stain-overlay" transform="translate(361.000000, 52.500000) scale(1, -1) translate(-361.000000, -52.500000) "></path>
                </g>
            </g>
        </g>
    </g>
</svg>