<svg xmlns="http://www.w3.org/2000/svg" width="1440" height="105" viewBox="0 0 1440 105">
    <g fill="none" fill-rule="evenodd">
        <g fill="#F2F3FF">
            <g>
                <g>
                    <path d="M1439.997 0l.004 105H.002L.001 87.379c6.438-.315 14.75-.032 26.738 2.16 42.238 7.722 34.9-24.435 100.973-16.4 64.497 7.845 64.497 20.909 141.563 18.718 77.065-2.19 52.532-12.888 142.826-24.886 34.914-4.639 43.76-3.154 52.463-1.609l.791.14c4.228.75 8.606 1.47 16.09 1.47 48.055 0 17.796-16.434 101.82-16.434s66.58-30.02 153.236 0c20.524 7.11 93.799 34.376 152.611 0 33.495-19.578 40.074-30.02 90.156-19.292 51.595 11.054 27.597 0 120.353 0 33.125 0 32.524 19.292 106.926 19.292 70.565 0 115.022-38.206 233.45-50.538z" transform="translate(0 -4720) translate(0 4720) matrix(1 0 0 -1 0 105)"/>
                </g>
            </g>
        </g>
    </g>
</svg>
