<?xml version="1.0" encoding="UTF-8"?>
<svg width="16px" height="16px" viewBox="0 0 16 16" version="1.1" xmlns="http://www.w3.org/2000/svg" xmlns:xlink="http://www.w3.org/1999/xlink">
    <title>F08AF175-3463-4D0D-91D9-AA26EC717DA7</title>
    <g id="desktop---batch-1" stroke="none" stroke-width="1" fill="none" fill-rule="evenodd">
        <g id="01.03.01-Common-page---Discussions" transform="translate(-1166.000000, -1283.000000)" fill="$light-gray-2">
            <g id="Group-7" transform="translate(941.000000, 1155.000000)">
                <g id="components/common-profile/latest/proposal---regular" transform="translate(0.000000, 44.000000)">
                    <g id="Group-5" transform="translate(225.000000, 84.000000)">
                        <g id="icons/countdown-24" transform="translate(0.000000, -0.000000)">
                            <g transform="translate(1.333333, 0.666667)" id="Combined-Shape">
                                <path d="M7.75739063,-1.08002496e-12 C8.15744575,-1.08002496e-12 8.48300784,0.311944244 8.48300784,0.69614676 C8.48300784,1.07946808 8.15836541,1.39141232 7.75739063,1.39141232 L7.75739063,1.39141232 L7.32606683,1.39141232 L7.32606683,1.92453737 C8.81132894,2.06464792 10.153123,2.67091244 11.191427,3.5900024 L11.191427,3.5900024 L11.7873712,3.01898582 L11.5868838,2.82864696 C11.4195044,2.66826885 11.4195044,2.40919651 11.5868838,2.24793719 C11.7533435,2.08755908 12.0246452,2.08755908 12.1920246,2.24793719 L12.1920246,2.24793719 L13.0988162,3.11768004 C13.2671153,3.27805816 13.2671153,3.5380117 13.0988162,3.69750861 C12.9332762,3.85788673 12.6619744,3.85788673 12.494595,3.69750861 L12.494595,3.69750861 L12.3143403,3.52567492 L11.7082798,4.10726588 C12.7180741,5.22638789 13.3342509,6.68212769 13.3333323,8.27885925 C13.3333323,11.8062966 10.3499317,14.6666667 6.66666564,14.6666667 C2.98523888,14.6666667 0,11.8062966 0,8.27885925 C0,6.68741488 0.610658847,5.23696227 1.61401548,4.11872146 L1.61401548,4.11872146 L1.98464125,3.73540014 C3.04685657,2.72995274 4.45946499,2.06552912 6.03117579,1.92189378 L6.03117579,1.92189378 L6.05784613,1.92189378 L6.05784613,1.39141232 L5.57961932,1.39141232 C5.17864453,1.39141232 4.85308244,1.08034928 4.85308244,0.69614676 C4.85308244,0.311944244 5.17864453,-1.08002496e-12 5.57961932,-1.08002496e-12 L5.57961932,-1.08002496e-12 Z M6.65838864,2.96082672 C3.60049607,2.96082672 1.12015433,5.33653769 1.12015433,8.26740367 C1.12015433,11.1982696 3.5995764,13.5739806 6.65838864,13.5739806 C9.71628121,13.5739806 12.1966229,11.1982696 12.1966229,8.26740367 C12.1966229,5.33653769 9.71628121,2.96082672 6.65838864,2.96082672 Z M6.69425565,3.82968838 L7.09706977,4.44828967 L7.09706977,7.79243772 C7.34905851,7.93431066 7.51827723,8.193383 7.51736129,8.49299047 C7.51736129,8.94328286 7.13477611,9.30809901 6.66574597,9.30809901 C6.19671583,9.30809901 5.81505405,8.94328286 5.81505405,8.49299047 C5.81505405,8.193383 5.98519244,7.93431066 6.23626151,7.79243772 L6.23626151,7.79243772 L6.23626151,4.44828967 L6.69425565,3.82968838 Z"></path>
                            </g>
                        </g>
                    </g>
                </g>
            </g>
        </g>
    </g>
</svg>