<?xml version="1.0" encoding="UTF-8"?>
<svg width="17px" height="16px" viewBox="0 0 17 16" version="1.1" xmlns="http://www.w3.org/2000/svg" xmlns:xlink="http://www.w3.org/1999/xlink">
    <title>10DB642D-F24D-476A-9C06-AD2839DC4E2F</title>
    <g id="desktop" stroke="none" stroke-width="1" fill="none" fill-rule="evenodd">
        <g id="01.05.01-Common-page---History" transform="translate(-417.000000, -751.000000)" fill="#6EE569">
            <g id="components/common-profile/cards/proposal-card/Countdown" transform="translate(120.000000, 743.000000)">
                <g id="Group" transform="translate(297.110932, 6.000000)">
                    <g id="icons/approved-16" transform="translate(0.836013, 2.000000)">
                        <path d="M8,1 C11.8599548,1 15,4.14004518 15,8 C15,11.8599548 11.8599548,15 8,15 C4.14004518,15 1,11.8599548 1,8 C1,4.14004518 4.14004518,1 8,1 Z M8,1.875 C4.62251282,1.875 1.875,4.62251282 1.875,8 C1.875,11.3774872 4.62251282,14.125 8,14.125 C11.3774872,14.125 14.125,11.3774872 14.125,8 C14.125,4.62251282 11.3774872,1.875 8,1.875 Z M11.4457397,5.79444886 C11.6166382,5.9653473 11.6166382,6.24241637 11.4457397,6.41331481 L7.65403747,10.2050171 C7.56773376,10.2907868 7.45579528,10.3332977 7.34375,10.3332977 C7.23170472,10.3332977 7.11976624,10.2907867 7.03453063,10.2050171 L5.13873291,8.30921937 C4.96783447,8.13821412 4.96783447,7.86114502 5.13873291,7.69024658 C5.30963135,7.51934814 5.58670045,7.51934814 5.7577057,7.69024658 L7.34428405,9.27693177 L10.8268738,5.79444886 C10.9977722,5.62355042 11.2748413,5.62355042 11.4457397,5.79444886 Z" id="Combined-Shape"></path>
                    </g>
                </g>
            </g>
        </g>
    </g>
</svg>