<svg xmlns="http://www.w3.org/2000/svg" xmlns:xlink="http://www.w3.org/1999/xlink" width="40" height="40" viewBox="0 0 40 40">
    <defs>
        <path id="or04d14rda" d="M12.82 0h14.36c4.458 0 6.075.464 7.704 1.336 1.63.871 2.909 2.15 3.78 3.78C39.536 6.746 40 8.362 40 12.819v14.362c0 4.457-.464 6.074-1.336 7.703-.871 1.63-2.15 2.909-3.78 3.78-1.63.872-3.246 1.336-7.703 1.336H12.819c-4.457 0-6.074-.464-7.703-1.336-1.63-.871-2.909-2.15-3.78-3.78C.464 33.254 0 31.638 0 27.181V12.819c0-4.457.464-6.074 1.336-7.703.871-1.63 2.15-2.909 3.78-3.78C6.746.464 8.362 0 12.819 0z"/>
    </defs>
    <g fill="none" fill-rule="evenodd">
        <g>
            <g>
                <g transform="translate(-24 -92) translate(8 76) translate(16 16)">
                    <mask id="0pltxct95b" fill="#fff">
                        <use xlink:href="#or04d14rda"/>
                    </mask>
                    <use fill="#7786FF" xlink:href="#or04d14rda"/>
                    <g mask="url(#0pltxct95b)">
                        <path fill="#FFF" d="M0 0H40V40H0z"/>
                        <g>
                            <g fill="#7786FF">
                                <path d="M0 0L40 0 40 40 0 40z"/>
                            </g>
                            <path fill="#FFF" d="M16.6 33.366c.167-.293.537-.393.827-.224.289.17.388.544.22.837-.111.196-.315.307-.523.307-.104 0-.207-.027-.303-.083-.289-.169-.388-.544-.221-.837zm6.164-.712c.331-.044.635.192.679.528.043.336-.19.643-.522.687-.026.004-.053.005-.079.005-.299 0-.56-.225-.6-.533-.043-.335.19-.643.522-.687zm-4.132-.163c.086-.327.418-.521.74-.434.323.087.515.423.43.75-.073.274-.318.455-.585.455-.051 0-.104-.007-.156-.021-.323-.088-.515-.423-.43-.75zm6.542-.69c.31-.13.663.018.79.33.13.313-.017.672-.326.801-.076.032-.154.047-.232.047-.237 0-.461-.142-.558-.377-.128-.313.018-.671.326-.801zm3.004-.378c.334 0 .605.274.605.613 0 .338-.27.613-.604.613-.335 0-.605-.274-.606-.612 0-.339.27-.614.605-.614zm-12.838.24c.204-.268.583-.319.849-.113.264.206.314.59.11.859-.118.157-.298.24-.48.24-.128 0-.257-.042-.367-.127-.265-.206-.315-.59-.112-.86zm6.898-1.153c.334 0 .605.274.605.612 0 .338-.27.613-.604.613-.335 0-.605-.274-.606-.612 0-.339.27-.613.605-.613zm-4.968.335c.127-.313.481-.461.79-.332.309.13.455.488.327.8-.096.236-.321.379-.558.379-.078 0-.156-.015-.232-.047-.309-.129-.455-.488-.327-.8zm2.96.107c.044-.336.347-.572.679-.529.33.044.565.351.521.687-.039.309-.3.533-.599.533-.026 0-.052-.001-.078-.005-.332-.043-.565-.35-.523-.686zm3.337-.53c.331-.044.635.192.678.528.044.335-.19.643-.521.687-.027.004-.053.005-.08.005-.298 0-.559-.225-.598-.533-.044-.336.19-.643.521-.687zm-4.705.175c.086-.327.418-.521.74-.434.323.087.515.422.43.75-.073.273-.318.454-.585.454-.051 0-.104-.006-.156-.02-.323-.088-.515-.423-.43-.75zm6.01-.438c.323-.087.655.107.741.434.087.327-.105.663-.428.75-.052.014-.104.021-.156.021-.268 0-.512-.18-.584-.454-.087-.327.105-.663.427-.75zm1.26-.433c.31-.13.663.018.791.331.128.312-.018.671-.326.8-.077.033-.155.048-.232.048-.237 0-.462-.142-.559-.378-.128-.313.018-.671.327-.8zm-13.358.035c.264-.207.644-.157.848.111.204.269.154.653-.11.86-.11.085-.24.126-.37.126-.18 0-.36-.082-.479-.238-.203-.269-.154-.653.11-.86zm17.883-.32c.265-.206.645-.156.849.112.203.269.153.653-.111.86-.11.085-.24.126-.368.126-.182 0-.362-.082-.48-.239-.204-.268-.154-.653.11-.86zm-8.083-.366c.333-.013.615.25.627.588.013.331-.236.61-.559.635l-.022.001h-.023c-.324 0-.592-.259-.605-.589-.012-.338.248-.622.582-.635zm-6.254.282c.167-.293.537-.393.827-.223.289.168.388.543.22.837-.111.196-.315.306-.523.306-.103 0-.207-.027-.303-.082-.289-.17-.388-.544-.221-.838zm11.005-.228c.29-.17.66-.07.827.223.167.293.069.667-.22.837-.096.056-.2.083-.304.083-.208 0-.41-.11-.523-.306-.167-.293-.07-.668.22-.837zm-6.763.435c.038-.336.337-.578.669-.54.332.038.57.342.533.678-.035.313-.297.544-.6.544-.023 0-.046-.002-.069-.005-.332-.038-.57-.341-.533-.677zm3.346-.644c.328-.065.645.152.709.485.063.332-.152.653-.48.718-.038.008-.077.011-.115.011-.284 0-.537-.204-.594-.496-.063-.333.152-.654.48-.718zm-4.738.277c.088-.326.42-.518.743-.43.322.09.512.427.424.753-.073.272-.317.452-.583.452-.053 0-.106-.007-.16-.022-.322-.09-.512-.426-.424-.753zm6.032-.638c.314-.114.66.051.773.37.113.318-.05.669-.364.783-.068.025-.137.037-.204.037-.249 0-.481-.155-.57-.406-.113-.318.05-.67.365-.784zM9.71 28.423c.264-.207.644-.156.848.112.204.268.154.652-.11.86-.11.085-.24.126-.369.126-.18 0-.36-.082-.48-.239-.203-.269-.154-.653.11-.859zm5.481.074c.204-.269.583-.32.849-.114.264.206.314.591.11.86-.118.157-.298.24-.48.24-.128 0-.257-.042-.367-.127-.265-.207-.315-.59-.112-.86zm2.659.12c.137-.308.495-.446.8-.308.304.139.44.501.304.81-.1.227-.321.362-.553.362-.082 0-.166-.017-.246-.054-.305-.138-.442-.5-.305-.81zm10.581-.239c.265-.206.645-.155.848.113.204.268.154.653-.11.859-.11.086-.24.127-.368.127-.182 0-.362-.082-.48-.24-.204-.268-.155-.653.11-.859zm-2.006-.375c.293-.162.66-.053.82.244.16.297.053.67-.24.831-.093.051-.192.075-.29.075-.214 0-.422-.115-.532-.32-.16-.296-.052-.668.242-.83zm-4.54-.376h.022c.334.015.592.3.578.639-.014.328-.282.586-.604.586h-.027c-.333-.015-.592-.301-.578-.64.014-.33.285-.588.609-.585zm1.338-.06c.33-.045.635.19.68.526.045.335-.188.644-.519.688-.027.005-.055.006-.082.006-.298 0-.557-.223-.598-.53-.045-.336.188-.645.519-.69zm-6.59.274c.182-.284.556-.366.836-.182.28.184.361.564.18.848-.116.18-.31.28-.51.28-.112 0-.226-.032-.327-.1-.28-.183-.36-.563-.179-.846zm3.246.072c.074-.33.398-.537.724-.462.325.075.53.403.456.733-.064.284-.313.477-.59.477-.044 0-.09-.005-.134-.015-.326-.075-.53-.403-.456-.733zm-5.697-.418c.23-.234.6-.24.837-.019l.019.018c.236.24.236.627 0 .867-.118.12-.273.18-.428.18-.155 0-.309-.06-.427-.18-.237-.239-.237-.626 0-.866zm10.323-.224c.318-.104.66.071.762.394.103.321-.07.666-.388.772-.062.02-.125.03-.187.03-.255 0-.492-.165-.575-.424-.104-.321.07-.667.388-.772zm3.046-.008c.265-.206.645-.155.847.114.203.27.153.654-.113.86-.11.084-.239.125-.367.125-.182 0-.362-.083-.481-.241-.203-.269-.152-.653.114-.858zm-8.994.1c.131-.312.486-.456.794-.323.307.133.45.493.319.804-.099.233-.322.372-.557.372-.08 0-.16-.016-.238-.049-.307-.133-.45-.493-.318-.804zm-3.01-.478c.222-.253.605-.276.854-.05.25.224.272.612.05.864-.12.137-.285.206-.452.206-.143 0-.287-.051-.402-.155-.25-.225-.272-.613-.05-.865zm10.166-.139c.294-.16.662-.049.82.25.159.297.05.668-.245.829-.091.05-.19.073-.286.073-.216 0-.424-.116-.533-.321-.16-.298-.05-.67.244-.83zm-8.359-.164c.184-.282.56-.36.838-.174.278.186.355.567.171.849-.116.179-.309.275-.505.275-.114 0-.23-.032-.333-.102-.278-.185-.355-.565-.171-.848zm-4.044-.212c.265-.207.645-.157.848.111.204.268.154.653-.11.86-.11.085-.24.126-.369.126-.18 0-.36-.082-.48-.238-.203-.27-.154-.653.11-.86zm9.246-.19c.334-.017.618.242.636.58.019.337-.238.626-.571.644l-.033.001c-.32 0-.586-.253-.603-.58-.018-.337.237-.626.571-.644zm-11.65.056c.288-.17.658-.07.826.222.168.293.07.668-.22.838-.096.056-.2.083-.303.083-.208 0-.412-.11-.523-.306-.168-.293-.07-.667.22-.837zm9.677.383c.054-.334.365-.56.694-.507.33.054.554.37.5.703-.047.3-.304.515-.596.515-.032 0-.064-.003-.097-.008-.33-.054-.554-.37-.5-.703zm3.235-.647c.322-.09.655.1.745.426.089.327-.1.664-.422.755-.054.015-.108.022-.162.022-.264 0-.508-.178-.582-.449-.09-.326.099-.664.42-.754zm2.994.04c.26-.212.64-.17.85.095.208.265.165.65-.095.861-.112.09-.245.135-.378.135-.178 0-.353-.08-.473-.231-.208-.264-.166-.65.096-.86zm-7.552.098c.124-.314.475-.468.785-.343.31.125.462.481.338.796-.094.24-.321.386-.562.386-.074 0-.15-.014-.223-.043-.31-.126-.462-.482-.338-.796zm-4.642-.337c.257-.215.638-.178.85.082.214.26.178.647-.08.863-.113.094-.249.14-.385.14-.174 0-.347-.076-.466-.222-.213-.26-.177-.647.08-.863zm10.387-.28c.295-.16.661-.046.818.252.157.3.045.67-.25.83-.09.047-.188.07-.284.07-.216 0-.425-.117-.534-.325-.157-.298-.045-.67.25-.828zm-8.698.104c.23-.245.614-.254.856-.02.24.234.25.622.019.866-.119.126-.278.19-.438.19-.15 0-.3-.057-.417-.17-.242-.233-.25-.621-.02-.866zm-3.717-.459c.29-.169.66-.07.827.223.167.293.07.668-.22.838-.096.056-.2.083-.303.083-.208 0-.412-.11-.524-.306-.168-.293-.069-.668.22-.838zm5.486.186c.187-.28.563-.354.84-.164.276.19.348.572.16.851-.117.175-.307.27-.5.27-.118 0-.236-.035-.34-.107-.276-.19-.348-.57-.16-.85zm7.987-.56c.254-.22.636-.188.852.07.217.258.186.644-.069.863-.113.098-.252.146-.391.146-.172 0-.342-.073-.461-.215-.217-.258-.186-.645.069-.864zm-12.197-.232c.28-.17.64-.083.816.192l.013.02c.171.29.077.667-.21.84-.096.059-.203.087-.31.087-.205 0-.406-.107-.519-.298-.171-.292-.077-.667.21-.84zm1.584-.093c.27-.199.648-.139.845.135.196.273.137.657-.132.856-.108.079-.233.117-.357.117-.186 0-.37-.087-.489-.252-.197-.273-.137-.656.133-.856zm1.635-.14c.242-.233.625-.223.855.023.23.245.22.633-.022.865-.118.113-.267.169-.417.169-.16 0-.32-.064-.439-.191-.23-.246-.22-.634.023-.866zm-7.163-.366c.323-.088.655.106.74.433.088.327-.104.663-.426.75-.053.015-.106.021-.158.021-.266 0-.511-.18-.583-.454-.087-.326.105-.662.427-.75zm2.114-.11c.308-.13.662.018.79.33.129.313-.017.672-.325.802-.076.032-.155.047-.232.047-.237 0-.463-.143-.56-.378-.128-.312.018-.67.327-.8zm-4.225-.21c.33-.044.634.193.679.528.043.336-.19.644-.521.688-.027.003-.054.005-.08.005-.299 0-.56-.225-.6-.533-.043-.336.19-.644.522-.688zm5.499-.424c.31-.126.662.025.788.338.125.315-.025.671-.334.798-.074.03-.151.045-.226.045-.24 0-.467-.144-.562-.383-.125-.313.024-.67.334-.798zm1.5-.043c.3-.148.662-.02.808.285.145.305.02.67-.281.818-.085.042-.175.061-.263.061-.225 0-.44-.127-.545-.346-.145-.304-.02-.67.28-.818zm1.524-.063c.286-.175.657-.082.83.208.173.29.081.666-.205.841-.097.06-.206.089-.312.089-.205 0-.405-.106-.518-.296-.173-.29-.082-.666.205-.842zm-4.677-.638c.323-.088.654.106.74.433.087.327-.104.662-.426.75-.053.015-.106.021-.158.021-.267 0-.511-.18-.583-.454-.087-.326.104-.662.427-.75zm1.308-.67c.325-.077.65.128.727.457.076.33-.126.66-.451.737-.047.01-.093.016-.138.016-.275 0-.524-.19-.589-.473-.076-.33.125-.659.45-.736zm1.445-.018c.322-.09.655.101.744.427.09.326-.1.664-.422.754-.054.015-.108.022-.161.022-.265 0-.508-.178-.582-.45-.09-.325.1-.663.421-.753zm1.449-.025c.317-.108.66.064.766.385.108.32-.062.668-.379.776-.064.022-.13.033-.194.033-.252 0-.487-.162-.572-.417-.107-.32.063-.668.379-.777zm-4.4-.704c.331-.044.635.192.68.527.043.336-.19.644-.521.688-.027.004-.054.005-.08.005-.299 0-.56-.224-.6-.533-.043-.336.19-.643.522-.687zm1.378-.703c.333-.026.624.226.65.564.026.337-.223.632-.557.658l-.046.001c-.314 0-.579-.244-.603-.566-.026-.337.223-.631.556-.657zm1.426-.007c.333-.03.627.218.656.555.03.33-.204.622-.526.663l-.022.002c-.018.002-.037.003-.055.003-.31 0-.573-.24-.601-.558-.03-.337.215-.635.548-.665zm1.421-.009c.332-.037.631.207.667.543.036.336-.204.64-.536.675-.022.003-.044.004-.066.004-.305 0-.568-.233-.601-.547-.036-.336.204-.638.536-.675zm-6.102-.332c.334 0 .605.274.606.612 0 .332-.259.601-.582.613h-.024c-.334 0-.604-.273-.604-.611 0-.338.27-.613.604-.614zm-3.264 0c.334 0 .605.274.606.612 0 .332-.259.601-.582.613h-.024c-.333 0-.604-.273-.604-.611 0-.338.27-.613.604-.614zm5.127-.38c.334 0 .605.274.606.612 0 .331-.259.601-.582.613h-.024c-.333 0-.604-.274-.604-.612 0-.338.27-.612.604-.613zm3.702-.172c.035-.335.333-.58.665-.544.332.036.573.338.537.674-.033.314-.295.548-.6.548-.022 0-.043 0-.065-.003-.333-.036-.573-.338-.537-.675zm-1.434.007c.029-.337.323-.587.655-.557.333.03.58.327.55.664-.028.319-.292.559-.602.559-.018 0-.036 0-.053-.002-.333-.03-.58-.327-.55-.664zm-1.434.005c.025-.338.315-.591.648-.566.333.025.584.32.559.657-.025.321-.29.567-.603.567-.015 0-.03 0-.046-.002-.333-.025-.583-.319-.558-.656zm-1.344-.732c.043-.335.347-.572.678-.529.331.044.565.351.522.686-.04.31-.3.535-.6.535-.025 0-.051-.002-.078-.005-.33-.044-.565-.35-.522-.687zm-3.202-.788c.323-.088.654.106.74.433.087.327-.104.663-.426.75-.053.015-.106.021-.158.021-.267 0-.511-.18-.583-.454-.087-.326.104-.662.427-.75zm7.742-.017c.106-.32.45-.493.766-.386.317.108.487.455.38.776-.084.256-.32.418-.573.418-.063 0-.129-.01-.192-.032-.317-.108-.487-.455-.381-.776zm-1.492.003c.088-.326.421-.518.744-.429.321.09.511.427.423.753-.074.272-.317.45-.583.45-.053 0-.107-.006-.16-.02-.322-.09-.512-.427-.424-.754zm-1.474.004c.075-.33.4-.535.725-.459.326.077.528.406.453.735-.065.284-.314.475-.589.475-.045 0-.09-.005-.137-.016-.325-.076-.528-.405-.452-.735zm-2.906-.34c.086-.328.417-.522.74-.435.323.087.516.422.43.75-.073.273-.317.455-.585.454-.051 0-.104-.006-.156-.02-.323-.087-.514-.422-.429-.75zm1.62-.342c.086-.327.417-.522.74-.435.323.087.515.423.429.75-.072.274-.317.455-.585.455-.05 0-.103-.007-.155-.02-.323-.088-.515-.423-.43-.75zm4.898-.743c.173-.29.544-.383.83-.209.286.175.379.551.207.842-.114.19-.314.297-.52.297-.105 0-.213-.03-.31-.088-.286-.175-.379-.551-.207-.842zm-1.6-.034c.144-.305.505-.433.807-.286.301.146.428.512.282.817-.103.22-.32.347-.545.347-.088 0-.177-.019-.261-.06-.301-.147-.428-.513-.284-.818zm-1.554-.019c.125-.313.477-.466.788-.34.31.127.46.484.335.797-.095.24-.322.384-.561.384-.075 0-.152-.013-.226-.044-.31-.126-.46-.483-.336-.797zm-1.267-.635c.127-.313.481-.462.79-.332.309.129.456.487.328.8-.096.236-.322.378-.56.378-.076 0-.154-.014-.23-.046-.309-.129-.455-.487-.328-.8zm5.353-.553c.23-.247.612-.258.855-.025.242.232.253.62.024.866-.119.127-.28.192-.44.192-.149 0-.298-.055-.416-.168-.242-.232-.253-.62-.023-.865zm-1.747-.127c.196-.273.575-.334.845-.135.27.198.33.582.134.856-.118.165-.302.253-.49.253-.123 0-.247-.039-.355-.117-.27-.2-.33-.583-.134-.857zm-1.661-.072c.17-.292.542-.387.829-.214.287.173.382.548.211.84-.113.192-.314.3-.52.3-.105 0-.212-.029-.309-.087-.287-.173-.381-.549-.211-.84zm12.338-.282c.216-.259.597-.29.853-.072.254.219.286.605.07.863-.12.144-.29.217-.462.217-.138 0-.276-.047-.39-.145-.255-.219-.287-.605-.07-.863zm-7.759-.531c.276-.19.653-.119.84.161.19.28.117.661-.159.851-.104.072-.222.107-.34.107-.193 0-.383-.094-.5-.268-.188-.28-.117-.661.16-.851zm-9.2.273c.127-.313.48-.462.79-.333.308.13.456.488.328.8-.096.236-.322.379-.56.379-.076 0-.155-.015-.23-.046-.309-.13-.456-.488-.328-.8zm2.61-.357c.167-.293.537-.394.826-.224.29.169.389.543.222.836-.112.197-.316.307-.525.307-.102 0-.206-.026-.302-.082-.29-.17-.388-.544-.22-.837zm4.68-.2c.24-.235.624-.226.855.018.23.244.223.632-.019.866-.116.114-.267.17-.418.17-.159 0-.318-.063-.436-.188-.231-.244-.224-.632.018-.866zm8.428.124c.156-.3.522-.413.818-.256.295.159.408.53.252.829-.11.207-.32.326-.536.326-.096 0-.192-.023-.282-.071-.295-.158-.408-.53-.252-.828zm-10.218-.294c.212-.261.593-.298.85-.083.26.214.296.6.083.862-.12.147-.292.223-.467.223-.135 0-.271-.045-.384-.14-.258-.215-.295-.6-.082-.862zm5.06-.28c.31-.126.662.026.787.34.123.315-.028.672-.337.797-.074.03-.15.044-.225.044-.24 0-.467-.145-.561-.385-.125-.314.026-.67.336-.796zm7.118.018c.208-.265.588-.309.85-.098.262.21.305.596.096.86-.118.152-.295.232-.473.232-.132 0-.265-.043-.376-.134-.261-.21-.305-.596-.097-.86zm-3.32.153c.09-.326.422-.518.745-.428.322.09.511.427.422.753-.074.272-.317.45-.583.45-.053 0-.107-.007-.16-.021-.323-.09-.512-.428-.423-.754zm-2.313-.59c.33-.055.64.17.695.505.054.334-.17.649-.499.704-.033.006-.066.008-.099.008-.29 0-.547-.213-.596-.513-.054-.334.17-.65.499-.704zm1.515-.087h.022c.334.018.59.306.573.644-.017.327-.284.581-.605.581h-.03c-.335-.018-.59-.306-.574-.644.017-.33.29-.586.614-.581zm-9.398.195c.203-.268.583-.32.848-.113.266.205.316.59.113.858-.12.158-.3.24-.481.24-.128 0-.258-.04-.368-.126-.265-.206-.315-.59-.112-.859zm4.324-.21c.278-.186.653-.11.838.173.184.282.109.661-.17.849-.102.069-.218.102-.334.102-.195 0-.388-.097-.504-.274-.185-.282-.11-.662.17-.85zm-1.929-.315c.25-.225.632-.204.854.049.223.252.202.639-.047.865-.116.104-.26.155-.403.155-.167 0-.332-.068-.451-.204-.223-.252-.202-.639.047-.865zm9.871.152c.158-.299.525-.41.82-.25.294.16.404.53.246.83-.109.205-.318.322-.533.322-.096 0-.195-.023-.286-.073-.294-.16-.405-.53-.247-.83zm-6.594-.575c.306-.134.662.01.795.321.131.31-.01.671-.318.805-.077.033-.159.05-.238.05-.234 0-.458-.14-.556-.371-.132-.312.01-.671.317-.805zm8.563.027c.197-.263.563-.32.828-.131l.02.014c.265.205.317.59.115.859-.12.158-.3.241-.482.241-.128 0-.256-.04-.366-.125-.266-.205-.317-.59-.115-.858zm-3.322.084c.102-.322.443-.498.761-.395.318.104.493.45.39.772-.082.26-.32.424-.576.424-.06 0-.123-.01-.185-.03-.318-.103-.493-.45-.39-.77zm-9.932-.298c.236-.24.62-.24.856 0 .236.238.237.626.001.866-.119.12-.273.18-.428.18-.155 0-.31-.06-.428-.18-.236-.238-.237-.626 0-.866zm6.149-.296c.325-.075.65.132.724.461.075.33-.129.659-.455.734-.045.01-.09.016-.135.016-.276 0-.525-.192-.589-.476-.075-.33.129-.659.455-.735zm-3.522-.034c.28-.185.655-.104.837.18.182.283.103.662-.177.847-.102.067-.217.1-.33.1-.197 0-.391-.099-.507-.28-.182-.283-.103-.663.177-.847zm5.891.419c.044-.336.349-.572.68-.527.33.044.564.352.52.687-.041.309-.3.533-.599.533-.027 0-.053-.002-.08-.006-.332-.044-.565-.352-.52-.687zm-.85-.594c.333-.015.616.246.631.584.015.33-.232.612-.554.639l-.022.001-.029.001c-.321 0-.589-.256-.603-.585-.016-.338.243-.624.576-.64zm4.33.008c.16-.297.526-.408.82-.246.293.161.402.533.243.83-.11.205-.318.32-.533.32-.096 0-.195-.023-.287-.073-.294-.162-.403-.533-.243-.83zm-13.883-.27c.204-.268.583-.32.849-.113.265.205.315.59.112.858-.12.158-.299.24-.481.24-.128 0-.258-.04-.367-.126-.266-.206-.315-.59-.113-.86zm3.003-.23c.265-.205.644-.156.849.113.199.26.156.633-.092.843l-.019.016c-.11.086-.24.127-.368.127-.181 0-.36-.082-.48-.239-.204-.268-.154-.652.11-.86zm2.849-.075c.305-.139.662-.002.8.306.137.309.002.672-.303.811-.08.037-.165.054-.248.054-.23 0-.451-.134-.552-.36-.138-.31-.002-.672.303-.81zm10.875.025c.203-.268.583-.32.848-.114.265.206.316.59.113.86-.12.156-.299.24-.481.24-.128 0-.258-.042-.367-.127-.266-.205-.316-.59-.113-.859zm-4.194.044c.113-.32.46-.485.774-.372.314.114.478.465.366.783-.089.251-.321.407-.57.407-.067 0-.136-.011-.203-.036-.315-.113-.478-.464-.367-.782zm-5.244-.594c.323-.09.656.1.744.427.089.326-.1.663-.422.753-.053.015-.108.023-.16.023-.266 0-.51-.178-.584-.45-.088-.326.1-.664.422-.753zm-9.07.038c.237-.24.62-.24.856-.001.237.239.237.627.002.866-.12.12-.274.18-.429.18-.155 0-.31-.06-.427-.179-.237-.238-.237-.626-.001-.866zm12.905.264c.063-.332.38-.55.708-.486.328.063.543.384.48.716-.055.294-.308.498-.593.498-.037 0-.075-.003-.114-.01-.328-.064-.543-.385-.48-.718zm-2.334-.598c.331-.039.631.202.67.538.038.336-.2.64-.532.679-.023.003-.047.004-.07.004-.303 0-.564-.23-.6-.542-.038-.337.2-.64.532-.679zm-4.55.056c.288-.17.658-.07.826.222.168.293.07.668-.219.838-.096.056-.2.083-.303.083-.209 0-.412-.11-.524-.305-.168-.293-.07-.668.22-.838zm10.564.207c.166-.293.536-.394.825-.225.29.169.39.544.222.837-.112.196-.315.306-.524.306-.103 0-.207-.026-.301-.082-.29-.168-.39-.543-.222-.836zm-4.512-.324h.023c.333.012.594.296.582.634-.011.323-.268.579-.582.59h-.044c-.334-.012-.595-.296-.583-.634.012-.33.28-.59.604-.59zm-4.718-.553c.308-.13.662.018.79.33.13.312-.017.671-.326.802-.076.031-.154.047-.232.047-.237 0-.462-.142-.558-.377-.129-.313.017-.672.326-.802zm7.928.319c.127-.313.481-.462.79-.333.309.129.455.487.328.8-.096.236-.322.379-.56.379-.076 0-.155-.015-.23-.046-.309-.13-.455-.488-.328-.8zm-12.019-.635c.265-.206.644-.156.848.112.2.26.157.634-.091.844l-.019.015c-.11.086-.24.128-.369.128-.18 0-.36-.082-.48-.24-.203-.268-.154-.652.111-.859zm5.501-.171c.322-.088.654.106.74.432.088.328-.103.663-.426.751-.053.015-.105.021-.157.021-.267 0-.511-.18-.584-.453-.087-.327.104-.663.427-.751zm5.154.425c.087-.327.417-.522.74-.435.324.087.516.422.43.75-.071.273-.316.455-.584.455-.052 0-.104-.007-.156-.021-.323-.087-.515-.422-.43-.749zm-3.693-.72c.331-.045.635.191.679.527.043.335-.19.643-.52.687-.027.004-.054.006-.08.006-.3 0-.56-.225-.6-.533-.043-.335.19-.643.521-.688zm2.294.524c.043-.335.346-.572.677-.53.332.043.566.35.523.686-.039.31-.3.535-.599.535-.026 0-.052-.002-.078-.005-.331-.043-.565-.35-.523-.686zm-.809-.624c.335 0 .606.273.607.612 0 .33-.258.6-.582.613h-.023c-.334 0-.604-.274-.605-.612 0-.338.27-.613.603-.613zm5.407-.078c.128-.312.481-.462.79-.333.309.13.456.488.328.8-.096.237-.321.38-.56.38-.076 0-.154-.016-.23-.047-.309-.129-.455-.487-.328-.8zm3.36-.332c.127-.313.481-.462.79-.333.309.13.455.487.328.8-.096.237-.322.38-.56.38-.076 0-.155-.016-.23-.047-.309-.129-.455-.487-.328-.8zm-12.472-.612c.334 0 .605.273.606.612 0 .33-.258.6-.582.613h-.022c-.335 0-.605-.273-.606-.611 0-.339.27-.613.604-.614zm7.389-.316c.127-.313.48-.462.79-.333.308.129.455.487.328.8-.097.236-.322.379-.56.379-.077 0-.155-.015-.23-.046-.31-.13-.456-.488-.328-.8zm-10.985-.91c.289-.17.659-.07.827.222.168.293.07.668-.22.838-.095.056-.2.083-.302.083-.209 0-.412-.11-.524-.305-.168-.293-.07-.668.219-.838zm7.086-.164c.043-.335.346-.572.677-.529.331.043.565.35.523.686-.04.31-.3.535-.6.535-.025 0-.051-.002-.077-.005-.332-.044-.566-.35-.523-.687z"/>
                        </g>
                    </g>
                </g>
            </g>
        </g>
    </g>
</svg>
