<?xml version="1.0" encoding="UTF-8"?>
<svg width="219px" height="98px" viewBox="0 0 219 98" version="1.1" xmlns="http://www.w3.org/2000/svg" xmlns:xlink="http://www.w3.org/1999/xlink">
    <title>Group Copy 3</title>
    <g id="webpage-after-app-release---English---New-Logo" stroke="none" stroke-width="1" fill="none" fill-rule="evenodd">
        <g id="1-EN" transform="translate(-169.000000, -93.000000)" fill="black">
            <g id="Group-4" transform="translate(169.000000, 93.000000)" >
                <path d="M62.8123496,38.5659389 C68.8434905,38.5659389 72.4543074,43.0608262 73.261082,46.2106291 L68.8434905,46.2106291 C68.1906172,44.8662347 66.6536736,42.2154037 62.8503074,42.2154037 C57.7025468,42.2154037 55.8591806,46.5177417 55.8591806,49.7448403 C55.8591806,53.432953 58.2022088,57.3129248 62.7737017,57.3129248 C65.7702933,57.3129248 67.8062088,55.584122 68.8048426,53.3943051 L73.261082,53.3943051 C71.6475327,58.1196995 67.4990961,60.9623896 62.7737017,60.9623896 C55.7818848,60.9623896 51.8632651,55.2383615 51.8632651,49.7448403 C51.8632651,43.9821643 56.0896876,38.5659389 62.8123496,38.5659389 Z M86.6705186,38.5659389 C93.1247158,38.5659389 98.1572229,43.6370939 98.1572229,49.7061924 C98.1572229,54.8926009 93.8928426,60.9623896 86.6705186,60.9623896 C79.5248003,60.9623896 75.1838144,55.0078544 75.1838144,49.6295868 C75.1838144,43.828953 80.0631102,38.5659389 86.6705186,38.5659389 Z M184.908755,38.5659389 C191.362952,38.5659389 196.395459,43.6370939 196.395459,49.7061924 C196.395459,54.8926009 192.131079,60.9623896 184.908755,60.9623896 C177.763037,60.9623896 173.422051,55.0078544 173.422051,49.6295868 C173.422051,43.828953 178.301347,38.5659389 184.908755,38.5659389 Z M124.973336,38.5657319 C128.546195,38.5657319 131.081772,40.0253798 132.464124,42.407746 C133.232941,43.7900981 133.655307,45.5189009 133.655307,47.5934643 L133.655307,60.4245629 L129.660082,60.4245629 L129.660082,48.5920981 C129.660082,46.7866896 129.429575,42.2151967 124.627575,42.2151967 C119.518462,42.2151967 119.595068,46.7866896 119.55642,48.5541403 L119.55642,60.4245629 L115.561195,60.4245629 L115.561195,48.5920981 C115.599843,46.8253375 115.523237,45.6341544 114.677814,44.2131544 C113.679181,42.6762108 112.180885,42.2151967 110.721237,42.2151967 C105.553914,42.2151967 105.459963,46.8075759 105.458254,48.4651216 L105.458223,60.4245629 L101.462998,60.4245629 L101.462998,39.1419995 L105.15042,39.1419995 L105.15042,41.4470699 L105.227716,41.4470699 C105.995843,40.5636896 107.378885,38.5657319 111.335462,38.5657319 C113.909688,38.5657319 116.867631,39.7948727 117.942871,42.138591 C118.634392,41.0626615 120.209983,38.5657319 124.973336,38.5657319 Z M161.510082,38.5657319 C165.082941,38.5657319 167.618519,40.0253798 169.000871,42.407746 C169.769688,43.7900981 170.192054,45.5189009 170.192054,47.5934643 L170.192054,60.4245629 L166.196828,60.4245629 L166.196828,48.5920981 C166.196828,46.7866896 165.966321,42.2151967 161.164321,42.2151967 C156.055209,42.2151967 156.131814,46.7866896 156.093167,48.5541403 L156.093167,60.4245629 L152.097941,60.4245629 L152.097941,48.5920981 C152.136589,46.8253375 152.059983,45.6341544 151.214561,44.2131544 C150.215927,42.6762108 148.717631,42.2151967 147.257983,42.2151967 C142.186352,42.2151967 142.001929,46.6390627 141.995222,48.3700642 L141.994969,60.4245629 L137.999744,60.4245629 L137.999744,39.1419995 L141.687167,39.1419995 L141.687167,41.4470699 L141.764462,41.4470699 C142.532589,40.5636896 143.915631,38.5657319 147.872209,38.5657319 C150.446434,38.5657319 153.404378,39.7948727 154.479617,42.138591 C155.171138,41.0626615 156.74673,38.5657319 161.510082,38.5657319 Z M209.689021,38.5657319 C212.992726,38.5657319 215.681514,39.987422 217.218458,42.3690981 C218.06319,43.7521403 218.524205,45.4422953 218.562852,47.8239713 L218.562852,60.4245629 L214.567627,60.4245629 L214.567386,48.6718934 C214.560865,46.859363 214.378282,42.2151967 209.265965,42.2151967 C205.924303,42.2151967 203.65719,44.558915 203.65719,48.8226051 L203.65719,60.4245629 L199.661965,60.4245629 L199.661965,39.1419995 L203.388726,39.1419995 L203.388726,41.408422 L203.465331,41.408422 C205.500221,38.7193908 208.497867,38.5740378 209.531595,38.5661808 L209.689021,38.5657319 L209.689021,38.5657319 Z M86.6705186,42.2154037 C82.1756313,42.2154037 79.1797299,45.9414741 79.1797299,49.7448403 C79.1797299,53.5868544 82.2142792,57.3129248 86.6705186,57.3129248 C90.9728567,57.3129248 94.1613074,53.7400657 94.1613074,49.7061924 C94.1613074,45.9414741 91.165406,42.2154037 86.6705186,42.2154037 Z M184.908755,42.2154037 C180.413868,42.2154037 177.417967,45.9414741 177.417967,49.7448403 C177.417967,53.5868544 180.452516,57.3129248 184.908755,57.3129248 C189.211093,57.3129248 192.399544,53.7400657 192.399544,49.7061924 C192.399544,45.9414741 189.403643,42.2154037 184.908755,42.2154037 Z" id="Combined-Shape" fill="#071836"></path>
                <path fill="#e689aa" d="M42.9457482,94.5876389 C43.5247764,93.5869347 44.8070581,93.2446248 45.8105229,93.823653 C46.8112271,94.4006108 47.1542271,95.6828924 46.5745088,96.6863572 C46.1880299,97.3571741 45.482706,97.733991 44.7601285,97.733991 C44.4026355,97.733991 44.042382,97.6428924 43.7124947,97.4531037 C42.7111003,96.8733854 42.3687905,95.5917939 42.9457482,94.5876389 Z M64.3041581,92.152684 C65.450482,92.0022333 66.5036369,92.8110784 66.6540876,93.9601629 C66.8045384,95.1064868 65.9956933,96.1589516 64.8466088,96.3094023 C64.7555102,96.3218248 64.6644116,96.3266558 64.573313,96.3266558 C63.5374116,96.3266558 62.6353975,95.5578389 62.4966792,94.5026136 C62.3469186,93.3555995 63.1550736,92.3031347 64.3041581,92.152684 Z M49.986082,91.5953953 C50.2842229,90.4759868 51.4333074,89.8127615 52.5527158,90.1109023 C53.6693637,90.4090431 54.3353496,91.5553671 54.0372088,92.6747755 C53.7880679,93.6119868 52.9398848,94.2310431 52.0130257,94.2310431 C51.8349693,94.2310431 51.6527722,94.2082685 51.4726454,94.1592685 C50.3532369,93.8611277 49.6879412,92.7141136 49.986082,91.5953953 Z M72.6537581,89.2340784 C73.7241665,88.7903178 74.9491665,89.2955009 75.3929271,90.3659093 C75.8366876,91.4335572 75.3315045,92.6613178 74.2610961,93.1050784 C73.9974623,93.2134305 73.7262369,93.265191 73.4577722,93.265191 C72.6365045,93.265191 71.8573355,92.7793319 71.5219271,91.9732474 C71.0781665,90.9028389 71.5861102,89.6778389 72.6537581,89.2340784 Z M38.5812285,88.7622981 C39.2865524,87.8451009 40.6005806,87.6725657 41.5205384,88.3751291 C42.4377355,89.080453 42.6102707,90.3965516 41.9049468,91.3144389 C41.4936229,91.8513685 40.871806,92.1350164 40.2410172,92.1350164 C39.7972567,92.1350164 39.3486651,91.9921572 38.9683975,91.7009178 C38.0491299,90.996284 37.8765947,89.6815657 38.5812285,88.7622981 Z M83.061151,87.9433079 C84.2178271,87.9433079 85.1571122,88.8805192 85.1571122,90.0392657 C85.1591792,91.1952516 84.2198975,92.1345333 83.0639116,92.1345333 C81.904475,92.1345333 80.9679538,91.1980122 80.9651933,90.0413361 C80.9651933,88.8825896 81.9024045,87.9433079 83.061151,87.9433079 Z M62.4797017,84.817453 C63.6363778,84.817453 64.5756629,85.7546643 64.5756629,86.9134108 C64.5777299,88.0693967 63.6384482,89.0086784 62.4824623,89.0086784 C61.3230257,89.0086784 60.3865045,88.0721572 60.383744,86.9154812 C60.383744,85.7567347 61.3209553,84.817453 62.4797017,84.817453 Z M45.2668299,85.9647431 C45.70852,84.8943347 46.93352,84.386391 48.0039285,84.8280812 C49.0743369,85.2718417 49.5822806,86.4968417 49.13852,87.5672502 C48.805182,88.3733347 48.0239426,88.8619544 47.202675,88.8619544 C46.93352,88.8619544 46.6629848,88.8101939 46.4014214,88.7011516 C45.331013,88.2601516 44.8237595,87.032391 45.2668299,85.9647431 Z M55.5240482,86.3311389 C55.6744989,85.1827446 56.7248933,84.3738995 57.8739778,84.5215896 C59.0203017,84.6720403 59.8319074,85.7224347 59.6814567,86.8715192 C59.5454989,87.9267446 58.6434848,88.6962516 57.605513,88.6962516 C57.5164848,88.6962516 57.4253862,88.6907305 57.3342876,88.6783079 C56.1852031,88.5306178 55.3763581,87.4802234 55.5240482,86.3311389 Z M67.0854257,84.5166896 C68.2317496,84.3662389 69.2849045,85.175084 69.4353553,86.3241685 C69.585806,87.4704924 68.7769609,88.5229572 67.6278764,88.6734079 C67.5367778,88.6858305 67.4449891,88.6906615 67.3538905,88.6906615 C66.3186792,88.6906615 65.415975,87.9218446 65.2779468,86.8666192 C65.1274961,85.7196051 65.9363412,84.6671403 67.0854257,84.5166896 Z M50.7830567,85.1160769 C51.0811975,83.9966685 52.230282,83.3334431 53.3496905,83.631584 C54.4663384,83.9297248 55.1323243,85.0767389 54.8341834,86.1954572 C54.5850426,87.1326685 53.7368595,87.7517248 52.8100003,87.7517248 C52.631944,87.7517248 52.4497468,87.7289502 52.26962,87.6799502 C51.1502116,87.3818093 50.4849158,86.2354854 50.7830567,85.1160769 Z M71.6074355,83.6190924 C72.726844,83.3209516 73.8759285,83.9841769 74.1740693,85.1035854 C74.4749707,86.2202333 73.8117454,87.3693178 72.6923369,87.6702192 C72.5094496,87.7171488 72.330013,87.7413037 72.1498862,87.7413037 C71.2230271,87.7413037 70.3769144,87.1229375 70.1257031,86.1857262 C69.8268722,85.0690784 70.4907876,83.9199939 71.6074355,83.6190924 Z M75.9738876,82.1374291 C77.0442961,81.6936685 78.2692961,82.1988516 78.7130567,83.26926 C79.1568172,84.3369079 78.6516341,85.5646685 77.5812257,86.0084291 C77.3175919,86.1167812 77.0463665,86.1685417 76.7779017,86.1685417 C75.9566341,86.1685417 75.1774651,85.6826826 74.8420567,84.8765981 C74.3982961,83.8068798 74.9062398,82.5811896 75.9738876,82.1374291 Z M29.6877975,82.2553051 C30.6056848,81.5479108 31.9217834,81.720446 32.6271074,82.6376431 C33.3345017,83.5548403 33.1619665,84.8688685 32.2447693,85.5762629 C31.8651919,85.8702629 31.4138398,86.0103615 30.9680088,86.0103615 C30.3413609,86.0103615 29.7202341,85.7294741 29.3061496,85.194615 C28.6008257,84.2746572 28.7712905,82.9606291 29.6877975,82.2553051 Z M91.6511271,81.1615009 C92.5683243,80.4561769 93.885113,80.6294023 94.5904369,81.5459093 C95.2950707,82.4631065 95.1225355,83.7798953 94.2053384,84.4852192 C93.8257609,84.7785291 93.3771693,84.9193178 92.9306482,84.9193178 C92.3019299,84.9193178 91.6780426,84.6384305 91.2667186,84.1008108 C90.5613947,83.1836136 90.7339299,81.8668248 91.6511271,81.1615009 Z M63.6436933,79.9087572 C64.7996792,79.8638981 65.7734679,80.7666023 65.8183271,81.9225882 C65.8624961,83.0792643 64.9597919,84.053053 63.803806,84.0979122 C63.7768905,84.0999826 63.7492848,84.0999826 63.7223693,84.0999826 C62.6029609,84.0999826 61.6733412,83.2124615 61.6291722,82.083391 C61.5850031,80.926715 62.4870172,79.9529262 63.6436933,79.9087572 Z M41.9761003,80.8746093 C42.5551285,79.8739051 43.8374102,79.5315953 44.840875,80.1106234 C45.8415792,80.6875812 46.1845792,81.9698629 45.6048609,82.9733277 C45.218382,83.6441446 44.5130581,84.0209615 43.7904806,84.0209615 C43.4329876,84.0209615 43.0727341,83.9298629 42.7428468,83.7400741 C41.7414524,83.1603558 41.3991426,81.8787643 41.9761003,80.8746093 Z M80.106313,80.0934389 C81.1070172,79.5137206 82.3892989,79.8567206 82.9690172,80.8574248 C83.5480454,81.8588192 83.207806,83.1411009 82.2071017,83.7201291 C81.8744538,83.9126784 81.5142003,84.0037769 81.1567074,84.0037769 C80.4341299,84.0037769 79.7315665,83.6290305 79.3416369,82.9582136 C78.7626088,81.9547488 79.1028482,80.6731572 80.106313,80.0934389 Z M56.6734778,81.5826939 C56.8039144,80.4336093 57.8418862,79.6054403 58.9909707,79.7358769 C60.1421257,79.8663136 60.9682243,80.9042854 60.8377876,82.0561305 C60.717013,83.1258488 59.8094778,83.9146798 58.7563229,83.9146798 C58.6776468,83.9146798 58.5989707,83.9098488 58.5202947,83.9001868 C57.3684496,83.7697502 56.542351,82.7317784 56.6734778,81.5826939 Z M68.2663947,79.378384 C69.4030567,79.1589192 70.5003806,79.9015108 70.7219158,81.0374826 C70.9413806,82.1741446 70.1967186,83.2742291 69.0600567,83.4936939 C68.9275496,83.5206093 68.7943524,83.5330319 68.6611553,83.5330319 C67.6770144,83.5330319 66.7998454,82.8352995 66.6045355,81.8339051 C66.3850707,80.6972431 67.1297327,79.5978488 68.2663947,79.378384 Z M51.8504285,80.3275347 C52.1561609,79.2108868 53.308006,78.5545629 54.4246538,78.8582248 C55.5413017,79.1639572 56.1996961,80.3178727 55.8939637,81.4324502 C55.6399919,82.3641403 54.7945693,82.9783657 53.8746116,82.9783657 C53.6896538,82.9783657 53.5046961,82.9535206 53.3197384,82.90176 C52.2030905,82.5980981 51.5446961,81.4448727 51.8504285,80.3275347 Z M72.7489285,78.1455164 C73.8359003,77.7535164 75.0367454,78.3208122 75.4287454,79.4105446 C75.8207454,80.4975164 75.2562102,81.6983615 74.1664778,82.0903615 C73.93252,82.1745586 73.6930412,82.2159671 73.4590834,82.2159671 C72.5984778,82.2159671 71.7923933,81.6838685 71.4866609,80.8280939 C71.0946609,79.7383615 71.6591961,78.5375164 72.7489285,78.1455164 Z M19.0733623,77.6800854 C19.9905595,76.972691 21.3066581,77.1452262 22.011982,78.0624234 C22.7193764,78.9796206 22.5468412,80.2936488 21.629644,81.0017333 C21.2500665,81.2950431 20.7987144,81.4351417 20.3528834,81.4351417 C19.7262355,81.4351417 19.1051088,81.1542544 18.6910243,80.6193953 C17.9857003,79.6994375 18.1561651,78.3854093 19.0733623,77.6800854 Z M38.0656933,77.9311586 C38.7703271,77.0139615 40.0843553,76.8414262 41.004313,77.5439896 C41.9215102,78.2493136 42.0940454,79.5654122 41.3887214,80.4832995 C40.9773975,81.0202291 40.3562707,81.3038769 39.7247919,81.3038769 C39.2810313,81.3038769 38.8324398,81.1610178 38.4521722,80.8697784 C37.5329045,80.1651446 37.3603693,78.8504262 38.0656933,77.9311586 Z M47.2769341,78.3453122 C47.7503707,77.2900868 48.9905538,76.8166502 50.0457792,77.2900868 C51.1010045,77.7635234 51.5744412,79.0037065 51.1010045,80.0589319 C50.7531736,80.8381009 49.9891876,81.299115 49.1879341,81.299115 C48.9015257,81.299115 48.6109764,81.2397629 48.3321595,81.1141572 C47.2769341,80.6407206 46.8034975,79.4032981 47.2769341,78.3453122 Z M83.9377679,77.5266671 C84.8549651,76.8213431 86.1717538,76.9945685 86.8770778,77.9110755 C87.5817116,78.8282727 87.4091764,80.1450615 86.4919792,80.8503854 C86.1124017,81.1436953 85.6638102,81.284484 85.2172891,81.284484 C84.5885707,81.284484 83.9646834,81.0029065 83.5533595,80.4659769 C82.8480355,79.5487798 83.0205707,78.231991 83.9377679,77.5266671 Z M76.9874285,76.2421769 C78.0033158,75.6873037 79.2752454,76.0620502 79.8301186,77.0779375 C80.3849919,78.0938248 80.0102454,79.368515 78.9943581,79.9206277 C78.6734426,80.0959234 78.3311327,80.17736 77.9908933,80.17736 C77.2483017,80.17736 76.5312454,79.7825995 76.1489074,79.0848671 C75.5940341,78.0689798 75.9687806,76.7970502 76.9874285,76.2421769 Z M61.1833156,74.9563293 L61.3330327,74.9577558 C62.4897088,75.0067558 63.3848214,75.9853755 63.3351313,77.1420516 C63.2861313,78.266291 62.358582,79.1469108 61.2419341,79.1469108 C61.2122581,79.1469108 61.1805116,79.1469108 61.1508355,79.1441502 C59.9941595,79.09446 59.0969764,78.1158403 59.1459764,76.9598544 C59.1977369,75.8031784 60.1770468,74.9059953 61.3330327,74.9577558 Z M65.8921722,74.752922 C67.0384961,74.5976403 68.0937214,75.4016544 68.2490031,76.5500488 C68.4042848,77.6970629 67.5982003,78.7522882 66.4518764,78.9048093 C66.3552567,78.9199924 66.2620876,78.9248234 66.1682285,78.9248234 C65.1350876,78.9248234 64.235144,78.1601474 64.0950454,77.109753 C63.9390736,75.9613586 64.7458482,74.9054431 65.8921722,74.752922 Z M43.0605876,75.6872347 C43.689306,74.7162065 44.9860806,74.4373896 45.9577989,75.0661079 C46.9288271,75.6968967 47.207644,76.9943615 46.5789257,77.9653896 C46.1772637,78.584446 45.5043764,78.922615 44.816306,78.922615 C44.4270665,78.922615 44.032306,78.8135727 43.679644,78.584446 C42.7079257,77.9557277 42.4318693,76.6561924 43.0605876,75.6872347 Z M54.3062257,75.9340981 C54.5629581,74.8043375 55.6844369,74.0969431 56.8135074,74.3536755 C57.9432679,74.6097178 58.6506623,75.7318868 58.3939299,76.8609572 C58.1744651,77.8326755 57.3097186,78.4931403 56.3524933,78.4931403 C56.1972116,78.4931403 56.0419299,78.4758868 55.8866482,78.4413798 C54.7575778,78.1846474 54.0501834,77.0631685 54.3062257,75.9340981 Z M34.5694398,74.5039192 C35.3879468,73.6854122 36.7143975,73.6854122 37.5329045,74.5011586 L37.5329045,74.5011586 C38.3514116,75.3203558 38.3514116,76.6461164 37.534975,77.467384 C37.1257214,77.8766375 36.5887919,78.0816093 36.0511722,78.0816093 C35.516313,78.0816093 34.9807637,77.8766375 34.5715102,77.467384 C33.7509327,76.6516375 33.7509327,75.3251868 34.5694398,74.5039192 Z M70.3353679,73.7397262 C71.4347623,73.3822333 72.6183538,73.9840361 72.9758468,75.0855009 C73.3333398,76.1855854 72.7315369,77.3664164 71.6321426,77.7266699 C71.4147482,77.795684 71.198044,77.830191 70.9834102,77.830191 C70.0986496,77.830191 69.277382,77.2649657 68.9889031,76.3802051 C68.6314102,75.2801206 69.233213,74.0972192 70.3353679,73.7397262 Z M80.8880355,73.7099122 C81.8073031,73.0073488 83.1213313,73.1826446 83.8245848,74.1019122 C84.5271482,75.0239403 84.3518524,76.3379685 83.4298243,77.041222 C83.0502468,77.3317713 82.6037257,77.4697995 82.1599651,77.4697995 C81.5284862,77.4697995 80.9052891,77.1861516 80.493275,76.6464615 C79.7907116,75.7265037 79.9653172,74.4124755 80.8880355,73.7099122 Z M49.7255538,74.0529812 C50.1810468,72.9874037 51.4115679,72.4946431 52.4764553,72.9480657 C53.5420327,73.4042488 54.0347933,74.6347699 53.5813707,75.6996572 C53.2411313,76.4960798 52.4667933,76.9722769 51.6531172,76.9722769 C51.3770609,76.9722769 51.0989341,76.9177558 50.8297792,76.8045727 C49.7648919,76.3483896 49.2714412,75.1178685 49.7255538,74.0529812 Z M39.2981468,72.4180375 C40.0676538,71.5526009 41.3941045,71.4759953 42.2567806,72.2455023 C43.1222172,73.0143192 43.1988229,74.34146 42.4293158,75.2041361 C42.0152313,75.6699812 41.440344,75.9066995 40.8640764,75.9066995 C40.3685553,75.9066995 39.8702736,75.7314037 39.470682,75.3766713 C38.6052454,74.6071643 38.5286398,73.2807136 39.2981468,72.4180375 Z M74.5214172,71.944946 C75.5400651,71.3949037 76.8119947,71.7765516 77.3620369,72.7951995 C77.9120792,73.8131572 77.5325017,75.0830164 76.5138538,75.6330586 C76.1956989,75.8055939 75.8554595,75.88496 75.520051,75.88496 C74.7733186,75.88496 74.0535017,75.4874389 73.6732341,74.7848755 C73.123882,73.7662277 73.5034595,72.4942981 74.5214172,71.944946 Z M45.5582074,71.3824122 C46.1945172,70.416215 47.4961229,70.1498206 48.4630102,70.7882009 C49.4271369,71.4245108 49.6928412,72.7261164 49.0544609,73.6902431 C48.6527989,74.3017079 47.9840524,74.6322854 47.3042637,74.6322854 C46.9095031,74.6322854 46.5078412,74.5211727 46.1524186,74.2844544 C45.1862214,73.6481446 44.9198271,72.3486093 45.5582074,71.3824122 Z M31.5460707,70.6555558 C32.4639581,69.9474713 33.7800567,70.1200065 34.4853806,71.0372037 C35.192775,71.9544009 35.0202398,73.2684291 34.1030426,73.9765136 C33.7234651,74.2698234 33.272113,74.409922 32.826282,74.409922 C32.1996341,74.409922 31.5785074,74.1290347 31.1644229,73.5941755 C30.4590989,72.6742178 30.6288736,71.3601896 31.5460707,70.6555558 Z M63.5818567,70.0090319 C64.7385327,69.9476093 65.7240538,70.8351305 65.7861665,71.989046 C65.8503496,73.1450319 64.9628285,74.1340037 63.8061524,74.1954262 C63.7688848,74.1981868 63.7295468,74.1981868 63.6929693,74.1981868 C62.5859834,74.1981868 61.6611947,73.3327502 61.6018426,72.2161023 C61.54042,71.0594262 62.4251806,70.0704544 63.5818567,70.0090319 Z M23.2162778,70.1969572 C24.216982,69.6179291 25.4992637,69.9581685 26.0810524,70.9588727 C26.6607707,71.9602671 26.3205313,73.2418586 25.3170665,73.8236474 C24.9864891,74.0161967 24.6262355,74.1072953 24.2687426,74.1072953 C23.5461651,74.1072953 22.8415313,73.7325488 22.4543623,73.0617319 C21.8725736,72.0610277 22.2148834,70.778746 23.2162778,70.1969572 Z M56.7471158,71.5086389 C56.9348341,70.3664558 58.0093834,69.5900474 59.1508764,69.7750051 C60.2951299,69.9599629 61.0715384,71.0372727 60.8845102,72.1787657 C60.7195665,73.2070755 59.8292848,73.939315 58.8182285,73.939315 C58.7071158,73.939315 58.5960031,73.9317234 58.48282,73.9123995 C57.3385665,73.7274417 56.5621581,72.6501319 56.7471158,71.5086389 Z M67.9533468,69.2965305 C69.0699947,68.9859671 70.2239102,69.6395305 70.5344736,70.7541079 C70.8429665,71.8707558 70.1894031,73.0246713 69.0748257,73.3352347 C68.8877975,73.3869953 68.6980088,73.4118403 68.513051,73.4118403 C67.5958538,73.4118403 66.7525017,72.802446 66.4964595,71.8755868 C66.185206,70.7610093 66.8387693,69.6050234 67.9533468,69.2965305 Z M78.3260257,69.4295896 C79.2287299,68.7070122 80.5475891,68.8526319 81.2701665,69.7574065 C81.9920538,70.6621812 81.8443637,71.9817305 80.9423496,72.7036178 C80.5551806,73.0121108 80.0941665,73.1625615 79.6352229,73.1625615 C79.0189271,73.1625615 78.4102229,72.8913361 77.9954482,72.3737305 C77.2735609,71.4710262 77.421251,70.1521671 78.3260257,69.4295896 Z M52.1611989,69.7672065 C52.5897764,68.6926572 53.8085651,68.16746 54.8831144,68.5939671 C55.9583538,69.0225446 56.483551,70.2406431 56.0542834,71.3158826 C55.7292271,72.1392206 54.939706,72.6375023 54.106706,72.6375023 C53.8499736,72.6375023 53.5863398,72.5905727 53.3323679,72.4898122 C52.2571285,72.0605446 51.7319313,70.842446 52.1611989,69.7672065 Z M36.0782947,68.6159136 C36.9685764,67.8788431 38.289506,68.0044488 39.0265764,68.8947305 C39.7643369,69.7870826 39.6408017,71.1087023 38.7484496,71.8457727 C38.3564496,72.1687586 37.8850834,72.3268009 37.4144074,72.3268009 C36.8105341,72.3268009 36.2114919,72.0679981 35.7967172,71.5669558 C35.0596468,70.6746037 35.1859426,69.352984 36.0782947,68.6159136 Z M72.0658961,67.6544093 C73.089375,67.1091981 74.3592341,67.4991277 74.9009947,68.519846 C75.4441355,69.5433248 75.0569665,70.8104234 74.0334876,71.3556347 C73.7201637,71.5205784 73.3847553,71.5992544 73.0521074,71.5992544 C72.3026144,71.5992544 71.5779665,71.1975924 71.2004595,70.4874375 C70.6580088,69.4667192 71.0451778,68.19686 72.0658961,67.6544093 Z M41.9312412,68.0119713 C42.7304243,67.1762108 44.056875,67.1437741 44.8953961,67.9457178 C45.7311567,68.7442108 45.7629031,70.0706615 44.9616496,70.906422 C44.5496355,71.3384502 44.0002834,71.5551544 43.4454102,71.5551544 C42.9278045,71.5551544 42.4046778,71.3626051 42.0002553,70.9754361 C41.1624243,70.1769431 41.1327482,68.8504924 41.9312412,68.0119713 Z M29.0539722,66.4437643 C30.0546764,65.8647361 31.3369581,66.2049755 31.9187468,67.2056798 C32.497775,68.206384 32.1575355,69.4886657 31.1540707,70.0704544 C30.8241834,70.2630037 30.4639299,70.3541023 30.1064369,70.3541023 C29.3838595,70.3541023 28.6785355,69.9793558 28.2920567,69.3085389 C27.7095778,68.3078347 28.0525778,67.025553 29.0539722,66.4437643 Z M48.0581045,67.0771755 C48.7068369,66.1185699 50.0112031,65.8694291 50.9677384,66.5174713 C51.9270341,67.1689643 52.176175,68.4733305 51.5274426,69.4298657 C51.1209496,70.0261474 50.4625553,70.3491333 49.7889778,70.3491333 C49.3852454,70.3491333 48.9753017,70.2311192 48.6157384,69.9868093 C47.6564426,69.3387671 47.4073017,68.0344009 48.0581045,67.0771755 Z M75.7322693,65.1617586 C76.6121989,64.4122657 77.9365792,64.5206178 78.6860722,65.4012375 C79.4355651,66.2839277 79.3292834,67.6055474 78.4465933,68.3550403 C78.0525229,68.6897586 77.5714947,68.8553924 77.0911567,68.8553924 C76.4969454,68.8553924 75.9075651,68.603491 75.4934806,68.118322 C74.7432975,67.2356319 74.8495792,65.9112516 75.7322693,65.1617586 Z M33.4718398,64.3700291 C34.4656426,63.7758178 35.7527553,64.1015643 36.344206,65.0953671 L36.344206,65.0953671 C36.9384172,66.0891699 36.6133609,67.3755924 35.6195581,67.9704939 C35.2841496,68.1699446 34.9142341,68.2658741 34.5470792,68.2658741 C33.8348538,68.2658741 33.1391919,67.9007896 32.7471919,67.2451558 C32.1529806,66.2492826 32.4780369,64.9649305 33.4718398,64.3700291 Z M38.9603919,64.0523572 C39.8948426,63.3718784 41.2068003,63.57616 41.8893496,64.5133713 C42.5698285,65.447822 42.3655468,66.7590896 41.4310961,67.4402586 C41.0563496,67.711484 40.6250116,67.8419206 40.195744,67.8419206 C39.5497722,67.8419206 38.9113919,67.5437798 38.5021384,66.981315 C37.8188989,66.0468643 38.0259412,64.7355967 38.9603919,64.0523572 Z M44.6263102,63.5713291 C45.4648313,62.7749065 46.791282,62.8094136 47.5877045,63.6500051 C48.3841271,64.4885262 48.34962,65.8149769 47.5110989,66.6113995 C47.1039158,66.9958079 46.5863102,67.1883572 46.0687045,67.1883572 C45.5138313,67.1883572 44.9589581,66.9688924 44.5476341,66.5347939 C43.7512116,65.6942023 43.7857186,64.3677516 44.6263102,63.5713291 Z M19.8080172,62.3205868 C20.9274257,62.0196854 22.0765102,62.6829108 22.3753412,63.8023192 C22.6755524,64.9189671 22.0123271,66.0680516 20.8956792,66.368953 C20.713482,66.4186431 20.5305947,66.4407277 20.3504679,66.4407277 C19.4263693,66.4407277 18.5781862,65.8237417 18.3290454,64.8872206 C18.028144,63.7698826 18.6913693,62.6214882 19.8080172,62.3205868 Z M27.1331031,61.9467375 C28.200751,61.5002164 29.4285116,62.0060896 29.8722722,63.0758079 C30.3160327,64.1434558 29.8108496,65.3712164 28.7432017,65.8149769 C28.4788778,65.9260896 28.205582,65.9778502 27.9391876,65.9778502 C27.1186102,65.9778502 26.3366806,65.4899206 26.0012722,64.6859065 C25.5575116,63.6154981 26.0626947,62.3904981 27.1331031,61.9467375 Z M12.4934905,61.2274037 C13.6398144,61.076953 14.6929693,61.8851079 14.8454905,63.032122 C14.9959412,64.1805164 14.1870961,65.2336713 13.0407722,65.384122 C12.946913,65.3965446 12.8558144,65.4013755 12.7647158,65.4013755 C11.7288144,65.4013755 10.8268003,64.6346291 10.6887722,63.5794037 C10.5383214,62.4303192 11.344406,61.3778544 12.4934905,61.2274037 Z M31.5466229,59.7767967 C32.6211722,59.3426981 33.8420313,59.8609939 34.2761299,60.9334727 C34.7095384,62.008022 34.1919327,63.2288812 33.1194538,63.6629798 C32.8627214,63.7658108 32.5970172,63.8155009 32.3354538,63.8155009 C31.5072848,63.8155009 30.7205243,63.3227403 30.3899468,62.5063037 C29.9558482,61.4338248 30.4734538,60.2108953 31.5466229,59.7767967 Z M36.7441426,59.6288305 C37.7869454,59.1236474 39.039551,59.5598164 39.5419736,60.6026192 C40.0478468,61.6461122 39.6116778,62.8980277 38.5681848,63.4011403 C38.274875,63.5446896 37.9643116,63.6109431 37.6585792,63.6109431 C36.8794102,63.6109431 36.1326778,63.1747741 35.7696637,62.4273516 C35.2672412,61.3866192 35.7006496,60.1319431 36.7441426,59.6288305 Z M42.0226848,59.4148178 C43.0137271,58.8150854 44.3008398,59.1332403 44.899882,60.1242826 C45.4989243,61.116015 45.1807693,62.4024375 44.1897271,63.0021699 C43.8522482,63.2064516 43.4775017,63.3051417 43.1075862,63.3051417 C42.4001919,63.3051417 41.7072905,62.9428178 41.3125299,62.292015 C40.7134876,61.3002826 41.0316426,60.01386 42.0226848,59.4148178 Z M25.819144,57.2301079 C26.9378623,56.9292065 28.0869468,57.5924319 28.3857778,58.7118403 C28.6859891,59.8284882 28.0227637,60.9775727 26.9061158,61.2784741 C26.7239186,61.3281643 26.5410313,61.3502488 26.3609045,61.3502488 C25.436806,61.3502488 24.5886229,60.7332629 24.339482,59.7967417 C24.0385806,58.6794037 24.701806,57.5310093 25.819144,57.2301079 Z M30.3506778,54.942015 C31.4769876,54.6756206 32.6067482,55.3754234 32.870382,56.5024234 C33.1340158,57.6294234 32.434213,58.7584939 31.307213,59.0221277 C31.1471003,59.0593953 30.9869876,59.0766488 30.8289454,59.0766488 C29.8772412,59.0766488 29.0145651,58.425846 28.7895792,57.4589586 C28.5259454,56.3326488 29.2236778,55.2056488 30.3506778,54.942015 Z M35.3584088,54.8774178 C36.4750567,54.569615 37.6289722,55.2231784 37.9374651,56.3370657 C38.2452679,57.4544037 37.5917045,58.6083192 36.4750567,58.916122 C36.2880285,58.9678826 36.1003102,58.9927277 35.9153524,58.9927277 C34.9981553,58.9927277 34.1548031,58.3840234 33.8987609,57.4544037 C33.5875074,56.3398262 34.2438313,55.1859108 35.3584088,54.8774178 Z M40.3780102,54.7915643 C41.4753341,54.4216488 42.6637567,55.0110291 43.0336722,56.108353 C43.4056581,57.2029164 42.8169679,58.3934093 41.719644,58.7633248 C41.4974186,58.83786 41.2710524,58.8744375 41.0488271,58.8744375 C40.1757989,58.8744375 39.3600524,58.3223248 39.063982,57.4492967 C38.6940665,56.3519727 39.2834468,55.1635502 40.3780102,54.7915643 Z M25.1359045,52.3822826 C26.2822285,52.232522 27.3353834,53.0406769 27.4879045,54.187691 C27.6383553,55.3360854 26.8295102,56.3892403 25.6831862,56.539691 C25.5893271,56.5521136 25.4982285,56.5569446 25.4071299,56.5569446 C24.3712285,56.5569446 23.4692144,55.7901981 23.3311862,54.7349727 C23.1807355,53.5858882 23.98682,52.5327333 25.1359045,52.3822826 Z M29.9094707,49.978453 C31.0633862,49.890115 32.071682,50.752791 32.1607102,51.9067065 C32.2490482,53.060622 31.3863722,54.0689178 30.2324567,54.157946 C30.1758651,54.1600164 30.121344,54.1627769 30.0695834,54.1627769 C28.984682,54.1627769 28.0647243,53.3270164 27.9812172,52.2269319 C27.8921891,51.0730164 28.7555553,50.0674812 29.9094707,49.978453 Z M34.8477045,49.9536769 C36.00162,49.8501558 37.0202679,50.7010995 37.1237891,51.8522544 C37.2273102,53.0061699 36.3763665,54.0248178 35.222451,54.1283389 C35.1610285,54.1359305 35.0968454,54.1380009 35.0326623,54.1380009 C33.9601834,54.1380009 33.0478172,53.3167333 32.9491271,52.2297615 C32.845606,51.075846 33.6965496,50.0578882 34.8477045,49.9536769 Z M39.7738609,49.924691 C40.9229454,49.7983953 41.9588468,50.6320854 42.0816919,51.7811699 C42.2079876,52.9323248 41.3763679,53.9682262 40.225213,54.0910713 C40.1486074,54.1014234 40.0726919,54.1034939 39.9960862,54.1034939 C38.9408609,54.1034939 38.0312553,53.3070713 37.9153116,52.2345924 C37.7917764,51.0834375 38.622706,50.0502967 39.7738609,49.924691 Z M7.32323131,48.7898924 C8.47990737,48.7898924 9.41918906,49.7264136 9.42125948,50.8830896 C9.42125948,52.0418361 8.48473835,52.9811178 7.32806229,52.9811178 L7.32806229,52.9811178 C6.16655525,52.9811178 5.23002804,52.0445967 5.23002804,50.8879206 C5.22727356,49.7319347 6.16448483,48.7919629 7.32323131,48.7898924 Z M18.6311891,48.7898924 C19.7878651,48.7898924 20.7271468,49.7264136 20.7292172,50.8830896 C20.7292172,52.0418361 19.7926961,52.9811178 18.63602,52.9811178 L18.63602,52.9811178 C17.474513,52.9811178 16.5379858,52.0445967 16.5379858,50.8879206 C16.5352313,49.7319347 17.4724426,48.7919629 18.6311891,48.7898924 Z M25.0865595,47.4885629 C26.2432355,47.4885629 27.1825172,48.425084 27.1845876,49.58176 C27.1845876,50.7405065 26.2480665,51.6797882 25.0913905,51.6797882 L25.0913905,51.6797882 C23.9298834,51.6797882 22.9933562,50.7432671 22.9933562,49.586591 C22.9906017,48.4306051 23.927813,47.4906333 25.0865595,47.4885629 Z M40.0658011,45.0294931 L40.215206,45.0402192 C41.367051,45.1630643 42.200051,46.1941347 42.077206,47.3452896 C41.9633327,48.4205291 41.0537271,49.219022 39.9957412,49.219022 C39.9218961,49.219022 39.848051,49.2169516 39.7714454,49.20936 C38.6202905,49.0858248 37.7866003,48.052684 37.9101355,46.9015291 C38.0329806,45.7524446 39.064051,44.916684 40.215206,45.0402192 Z M35.0636481,45.0098642 L35.2130651,45.0176516 C36.3662905,45.1191023 37.2193045,46.13706 37.118544,47.2889051 C37.0226144,48.3807079 36.1074876,49.2019755 35.0329384,49.2019755 C34.9708257,49.2019755 34.9094031,49.199215 34.8479806,49.194384 C33.6940651,49.0936234 32.841051,48.0777361 32.9418116,46.9238206 C33.0432623,45.7699051 34.06122,44.916891 35.2130651,45.0176516 Z M30.0704935,44.9993197 L30.2201031,45.0052291 C31.3740186,45.0921868 32.2415257,46.097722 32.1552581,47.2516375 C32.071751,48.3510319 31.1545538,49.1923136 30.0668919,49.1923136 C30.0151313,49.1923136 29.9613003,49.189553 29.9088496,49.184722 C28.7556243,49.101215 27.8901876,48.0949896 27.9736947,46.9410741 C28.0599623,45.7843981 29.0661876,44.9189615 30.2201031,45.0052291 Z M23.3188327,44.4385544 C23.4665229,43.2922305 24.5196778,42.4806248 25.6660017,42.6290051 C26.8150862,42.7766953 27.6232412,43.82916 27.475551,44.9761741 C27.3402834,46.0334699 26.4375792,46.8029769 25.3996074,46.8029769 C25.3105792,46.8029769 25.2194806,46.798146 25.128382,46.7857234 C23.9820581,46.6380333 23.1711426,45.5876389 23.3188327,44.4385544 Z M12.2237834,41.741553 C13.3431919,41.4406516 14.4915862,42.1038769 14.7904172,43.2232854 C15.0906285,44.3399333 14.4274031,45.4890178 13.3107553,45.7899192 C13.1285581,45.8396093 12.9456707,45.8616939 12.765544,45.8616939 C11.8414454,45.8616939 10.9932623,45.2447079 10.7441214,44.3081868 C10.44322,43.1908488 11.1064454,42.0424544 12.2237834,41.741553 Z M39.0467975,41.6844784 C39.416713,40.5871544 40.6051355,39.9957037 41.7024595,40.3628586 C42.7990933,40.7327741 43.3884736,41.9211967 43.0213186,43.0185206 C42.7280088,43.8936192 41.9115722,44.4484924 41.033713,44.4457421 C40.8149384,44.4457421 40.587882,44.4112248 40.3684172,44.3373798 C39.2710933,43.9702248 38.6796426,42.7818023 39.0467975,41.6844784 Z M33.8788158,41.6941403 C34.1845482,40.5795629 35.3384637,39.9211685 36.4551116,40.2269009 C37.5696891,40.5326333 38.2280834,41.6865488 37.922351,42.8038868 C37.6663088,43.7335065 36.8229567,44.3449713 35.9002384,44.3449713 C35.7180412,44.3449713 35.531013,44.3201262 35.3460553,44.2711262 C34.2314778,43.9653939 33.5730834,42.8114784 33.8788158,41.6941403 Z M28.7701172,41.7066319 C29.0316806,40.5796319 30.1579905,39.8770685 31.2849905,40.1386319 C32.4119905,40.3995051 33.1145538,41.5265051 32.8529905,42.6535051 C32.6286947,43.6224629 31.7660186,44.2760262 30.8143144,44.2760262 C30.6562722,44.2760262 30.4982299,44.2587727 30.3381172,44.2215051 C29.2111172,43.9599417 28.5085538,42.8357023 28.7701172,41.7066319 Z M18.7041369,40.5431924 C19.0022778,39.4230939 20.1486017,38.7577981 21.2680102,39.0559389 C22.3874186,39.3540798 23.0534045,40.5010939 22.7552637,41.6205023 C22.5061229,42.5570234 21.6579398,43.1788403 20.7303905,43.1760889 C20.5530243,43.1760889 20.3708271,43.1539953 20.1907003,43.1070657 C19.0712919,42.8089248 18.4080665,41.6619108 18.7041369,40.5431924 Z M24.314913,39.3744389 C24.6130538,38.2550305 25.7593778,37.5890446 26.8787862,37.8871854 C27.9981947,38.1860164 28.6641806,39.3323403 28.3660398,40.4517488 C28.1168989,41.3882699 27.2687158,42.0100868 26.3411665,42.0073354 C26.1638003,42.0073354 25.9816031,41.9852417 25.8014764,41.9383122 C24.6820679,41.6401713 24.0188426,40.4938474 24.314913,39.3744389 Z M41.2879609,36.8347206 C41.8849327,35.8436784 43.1713553,35.5227629 44.1630876,36.1197347 C45.1541299,36.7160164 45.4743553,38.0031291 44.880144,38.9969319 C44.4860736,39.6504953 43.7931722,40.0128192 43.0802567,40.0128192 C42.7131017,40.0128192 42.3411158,39.9141291 42.0029468,39.7119178 C41.0119045,39.114946 40.6909891,37.8285234 41.2879609,36.8347206 Z M35.7403327,36.7161544 C36.2434454,35.6733516 37.4932905,35.234422 38.5388538,35.7375347 C39.5816567,36.2378868 40.0205862,37.4904924 39.5174736,38.5332953 C39.1579102,39.2827882 38.4084172,39.7217178 37.6292482,39.7217178 C37.3235158,39.7217178 37.0150229,39.6554643 36.721713,39.5146755 C35.6789102,39.0115629 35.2399806,37.7589572 35.7403327,36.7161544 Z M30.3603398,36.6521093 C30.7916778,35.5796305 32.0125369,35.0565037 33.0870862,35.4885319 C34.1595651,35.9226305 34.6826919,37.1427995 34.2513538,38.2152784 C33.9207764,39.0337854 33.1340158,39.5293065 32.3058468,39.5293065 C32.0442834,39.5293065 31.7806496,39.4823769 31.5239172,39.3788558 C30.4493679,38.9475178 29.9290017,37.7273488 30.3603398,36.6521093 Z M25.9691116,34.479684 C26.4108017,33.4099657 27.6358017,32.8992615 28.7062102,33.343022 C29.7759285,33.7847122 30.2866327,35.0097122 29.8428722,36.0801206 C29.5095341,36.8862051 28.7282947,37.3748248 27.9049567,37.3748248 C27.6385623,37.3748248 27.3673369,37.3251347 27.1057736,37.2167826 C26.0353651,36.7750924 25.5281116,35.5500924 25.9691116,34.479684 Z M44.5156116,32.5865586 C45.3092736,31.7432065 46.6357243,31.7059389 47.4763158,32.5023615 C48.3175975,33.2967136 48.354175,34.6231643 47.560513,35.4637558 C47.1484989,35.8999248 46.5936257,36.1221502 46.036682,36.1221502 C45.5211468,36.1221502 45.0035412,35.9323615 44.5970482,35.5472629 C43.7557665,34.7536009 43.7191891,33.4271502 44.5156116,32.5865586 Z M0.15894821,32.6593685 C0.600638351,31.58896 1.82563835,31.078946 2.8960468,31.519946 C3.96576511,31.9616361 4.47370877,33.1866361 4.03270877,34.2570446 C3.69937075,35.0651995 2.91813131,35.5538192 2.09479328,35.5538192 C1.82839891,35.5538192 1.55717356,35.5020586 1.29561018,35.3957769 C0.225891872,34.9547769 -0.28205179,33.7290868 0.15894821,32.6593685 Z M38.4624553,32.1548755 C39.1429341,31.2176643 40.4542017,31.010622 41.391413,31.6911009 C42.3258637,32.3695093 42.5356665,33.6807769 41.8551876,34.6179882 C41.4459341,35.1825234 40.8068637,35.4834248 40.1588214,35.4834248 C39.7323144,35.4834248 39.3009764,35.3529882 38.9283003,35.0838333 C37.9910891,34.4033544 37.7840468,33.0920868 38.4624553,32.1548755 Z M32.7076468,31.9058037 C33.2990975,30.9099305 34.5862102,30.5821136 35.580013,31.1735643 C36.5758862,31.7657051 36.9043933,33.0500572 36.3122524,34.0459305 C35.9202524,34.7043248 35.22252,35.0714798 34.5075341,35.0714798 C34.1452102,35.0714798 33.7752947,34.9755502 33.4398862,34.7760995 C32.444013,34.1867192 32.1182665,32.8996065 32.7076468,31.9058037 Z M75.4559369,30.941746 C76.2033595,30.0569854 77.5249792,29.9479431 78.4097398,30.6953657 C79.2924299,31.4448586 79.400782,32.7664784 78.6540496,33.6491685 C78.2399651,34.1398586 77.6478243,34.3910699 77.053613,34.3910699 C76.5753454,34.3910699 76.0950074,34.2281967 75.7002468,33.8955488 C74.8175567,33.1460558 74.706444,31.8244361 75.4559369,30.941746 Z M48.5735707,29.1248122 C49.5307961,28.4740093 50.8344722,28.7203896 51.4859651,29.6769248 C52.1388384,30.63346 51.8896975,31.9378262 50.9331623,32.5886291 C50.5735989,32.8356995 50.1615848,32.9537136 49.7571623,32.9537136 C49.0863454,32.9537136 48.427951,32.6334882 48.0214581,32.0365164 C47.3706553,31.0799812 47.6170355,29.775615 48.5735707,29.1248122 Z M16.6963792,30.0581586 C17.1373792,28.9884403 18.3630693,28.4777361 19.4334778,28.9221868 C20.5031961,29.3631868 21.0139003,30.5881868 20.5701398,31.6585953 C20.2368017,32.4646798 19.4555623,32.9532995 18.6315341,32.9532995 C18.3658299,32.9532995 18.0946045,32.9036093 17.8330412,32.7952572 C16.7626327,32.3542572 16.2553792,31.1285671 16.6963792,30.0581586 Z M25.7405369,28.8377826 C26.3174947,27.8363882 27.5997764,27.4913178 28.6032412,28.0710361 C29.6039454,28.6500643 29.9490158,29.9295854 29.3699876,30.9330502 C28.9828186,31.6066277 28.2774947,31.9813741 27.5528468,31.9813741 C27.1974243,31.9813741 26.8378609,31.892346 26.5072834,31.7025572 C25.5038186,31.1235291 25.1608186,29.8412474 25.7405369,28.8377826 Z M41.9536017,28.1531629 C42.7893623,27.3519093 44.115813,27.3815854 44.9170665,28.2145854 C45.7162496,29.050346 45.6893341,30.3774868 44.8528834,31.1787403 C44.4484609,31.5679798 43.9260243,31.7625995 43.4035876,31.7625995 C42.8535454,31.7625995 42.3014327,31.5458953 41.8921792,31.1166277 C41.0909257,30.2808671 41.1178412,28.9544164 41.9536017,28.1531629 Z M71.1559454,28.5771854 C71.6963257,27.5543967 72.9661848,27.1644671 73.9889736,27.7041572 C75.0124524,28.2472981 75.4016919,29.5143967 74.8620017,30.5371854 C74.4844947,31.2473403 73.7570862,31.6545234 73.0055229,31.6545234 C72.6749454,31.6545234 72.3395369,31.5758474 72.0289736,31.4102136 C71.0054947,30.8705234 70.6134947,29.6006643 71.1559454,28.5771854 Z M35.7527553,27.5737896 C36.4870651,26.6786769 37.8086848,26.5530713 38.7017271,27.2880713 C39.5968398,28.0223812 39.7224454,29.3440009 38.9874454,30.2391136 C38.5733609,30.7422262 37.9743186,31.0010291 37.3676848,31.0010291 C36.8990792,31.0010291 36.4284031,30.8457474 36.0384736,30.5227615 C35.1433609,29.7877615 35.0156848,28.4661417 35.7527553,27.5737896 Z M53.2855074,26.6147009 C54.3579862,26.1854333 55.5788454,26.7057995 56.0101834,27.7810389 C56.4387609,28.8555882 55.9163243,30.0764474 54.8438454,30.5050248 C54.587113,30.608546 54.3234792,30.6561657 54.0646764,30.6561657 C53.2337468,30.6561657 52.4469862,30.157884 52.1191693,29.3393769 C51.6878313,28.2641375 52.2102679,27.0460389 53.2855074,26.6147009 Z M77.9467243,26.6761924 C78.6665412,25.7714178 79.9854003,25.6209671 80.890175,26.340784 C81.7977102,27.061291 81.9481609,28.3801502 81.2255834,29.2849248 C80.8142595,29.805291 80.2021045,30.0765164 79.5858088,30.0765164 C79.1275553,30.0765164 78.6665412,29.9281361 78.2814426,29.6203333 C77.3766679,28.9005164 77.2262172,27.5809671 77.9467243,26.6761924 Z M66.4469074,27.2011136 C66.7526398,26.0844657 67.9065553,25.4288319 69.0232031,25.7366347 C70.1405412,26.0423671 70.796175,27.1962826 70.487682,28.3136206 C70.2316398,29.2432403 69.3882876,29.8519446 68.4683299,29.8519446 C68.2840623,29.8519446 68.096344,29.8270995 67.9113862,29.7780995 C66.7947384,29.4696065 66.1384144,28.315691 66.4469074,27.2011136 Z M58.428713,25.1821755 C59.570206,24.9923868 60.6502764,25.7667248 60.8373045,26.9102882 C61.0250229,28.0524713 60.2506848,29.1297812 59.1091919,29.3168093 C58.9932482,29.3368234 58.8800651,29.344415 58.766882,29.344415 C57.7578961,29.344415 56.870375,28.6170065 56.7006003,27.5886967 C56.512882,26.4472037 57.28722,25.3692037 58.428713,25.1821755 Z M63.6044291,24.8839537 L63.7541848,24.8863812 C64.9108609,24.9457333 65.798382,25.9319446 65.7390299,27.0879305 C65.6796778,28.2073389 64.7555792,29.0755361 63.6458327,29.0755361 C63.6113257,29.0755361 63.5740581,29.0755361 63.5374806,29.0727755 C62.3808045,29.0134234 61.4932834,28.0272122 61.5526355,26.8712262 C61.6119876,25.7145502 62.5981989,24.8270291 63.7541848,24.8863812 Z M31.1177003,25.5516769 C31.8223341,24.6344798 33.1363623,24.4598741 34.05632,25.1651981 C34.9762778,25.8677615 35.148813,27.1845502 34.4462496,28.1010572 C34.031475,28.6414375 33.4103482,28.9223248 32.7795595,28.9223248 C32.3351088,28.9223248 31.8865172,28.7822262 31.5069398,28.4909868 C30.586982,27.7856629 30.4144468,26.4716347 31.1177003,25.5516769 Z M46.0983116,24.8344826 C47.0624384,24.1961023 48.3619736,24.4569755 49.0024243,25.4238629 C49.6414947,26.3879896 49.3799313,27.6875248 48.4137341,28.3279755 C48.0583116,28.5646939 47.6566496,28.6785671 47.2570581,28.6785671 C46.5793398,28.6785671 45.9133538,28.3479896 45.5089313,27.7413558 C44.870551,26.7751586 45.1321144,25.4756234 46.0983116,24.8344826 Z M39.416644,23.7569657 C40.27932,22.9853882 41.6037003,23.0592333 42.3752778,23.9225995 C43.1468553,24.7852755 43.0730102,26.1089657 42.2103341,26.8812333 C41.8107426,27.2387262 41.3124609,27.4133319 40.8148693,27.4133319 C40.2379116,27.4133319 39.6657848,27.1793741 39.2510102,26.7155995 C38.4794327,25.8529234 38.5539679,24.5285431 39.416644,23.7569657 Z M73.6168496,24.2747784 C74.1641313,23.25406 75.4339905,22.871722 76.4547088,23.4190037 C77.4754271,23.9662854 77.8577651,25.2361446 77.3104834,26.2568629 C76.9329764,26.9621868 76.2083285,27.3617784 75.460906,27.3617784 C75.1282581,27.3617784 74.7880186,27.2831023 74.4726243,27.1126375 C73.4512158,26.5653558 73.0695679,25.2954967 73.6168496,24.2747784 Z M50.7682186,22.3072558 C51.8310355,21.8510727 53.0636271,22.3417629 53.5218806,23.4066502 C53.9780637,24.4694671 53.4873736,25.7020586 52.4224862,26.1582417 C52.1540214,26.2741854 51.872444,26.3287065 51.5963876,26.3287065 C50.7854722,26.3287065 50.0111341,25.8552699 49.6708947,25.0609178 C49.2126412,23.9960305 49.7054017,22.7661995 50.7682186,22.3072558 Z M80.4365454,22.401046 C81.1370384,21.4790178 82.4510665,21.298891 83.3730947,22.0014544 L83.3730947,22.0014544 C84.2951229,22.7019474 84.4724891,24.0159755 83.7726862,24.9380037 C83.3606722,25.478384 82.7347144,25.7641023 82.1032355,25.7641023 C81.6622355,25.7641023 81.2157144,25.6260741 80.8361369,25.3375953 C79.9141088,24.6350319 79.7367426,23.3203136 80.4365454,22.401046 Z M68.9268595,22.6893178 C69.282282,21.5871629 70.463113,20.9832896 71.5652679,21.338022 C72.6674229,21.6934446 73.2712961,22.8742755 72.9165637,23.9764305 C72.6301553,24.8639516 71.8068172,25.4284868 70.9220567,25.4284868 C70.7094933,25.4284868 70.4927891,25.3967403 70.2781553,25.3277262 C69.1760003,24.9723037 68.5721271,23.7894023 68.9268595,22.6893178 Z M34.5173341,21.6685305 C35.3337707,20.8500234 36.6622919,20.847953 37.4814891,21.66646 C38.2999961,22.4822065 38.3020665,23.8114178 37.48632,24.6299248 C37.074306,25.0391784 36.5394468,25.2462206 36.0018271,25.2462206 C35.4642074,25.2462206 34.9293482,25.0419389 34.5200947,24.6326854 C33.7015876,23.8162488 33.6988271,22.4897981 34.5173341,21.6685305 Z M55.8201186,20.6577502 C56.9471186,20.4017079 58.0713581,21.1063417 58.3301609,22.2333417 C58.5889637,23.3624122 57.8836398,24.4866516 56.7545693,24.7454544 C56.5965271,24.7806516 56.4412454,24.797215 56.2859637,24.797215 C55.3294285,24.797215 54.4667524,24.1415812 54.2445271,23.170553 C53.9857243,22.0407924 54.6910482,20.916553 55.8201186,20.6577502 Z M43.6179454,20.53946 C44.5869031,19.9079812 45.8864384,20.1847277 46.5172271,21.1536854 C47.148706,22.1226431 46.87472,23.4214882 45.9036919,24.0529671 C45.5510299,24.2820939 45.1541989,24.3932065 44.7621989,24.3932065 C44.0789595,24.3932065 43.4060722,24.0577981 43.00372,23.4387417 C42.3729313,22.469784 42.6489876,21.1709389 43.6179454,20.53946 Z M64.0307933,21.9719164 C64.181244,20.8228319 65.2364693,20.0167474 66.3827933,20.1699586 C67.5291172,20.3224798 68.3379623,21.3756347 68.184751,22.5219586 C68.0446524,23.577184 67.1447088,24.3439305 66.1115679,24.3439305 C66.0177088,24.3439305 65.9266102,24.3363389 65.832751,24.3239164 C64.6836665,24.1741558 63.877582,23.1182403 64.0307933,21.9719164 Z M61.0818905,19.9431093 C62.2378764,19.8913488 63.2171862,20.7837009 63.2710172,21.9396868 C63.3227778,23.0963629 62.4276651,24.0777431 61.2737496,24.1295037 C61.2392426,24.1315741 61.2074961,24.1315741 61.1757496,24.1315741 C60.0611722,24.1315741 59.1336229,23.2564755 59.0846229,22.1322361 C59.0301017,20.97556 59.9252144,19.9969403 61.0818905,19.9431093 Z M76.0849313,19.9698868 C76.637044,18.9519291 77.9096637,18.574422 78.9276214,19.1265347 C79.9435088,19.6786474 80.3210158,20.9512671 79.768213,21.9692248 C79.3886355,22.6669572 78.6688186,23.0644784 77.9241567,23.0644784 C77.5887482,23.0644784 77.2464384,22.9830417 76.9282834,22.8105065 C75.9096355,22.2577037 75.5328186,20.9878446 76.0849313,19.9698868 Z M27.9869454,19.0444769 C28.6915792,18.1272798 30.0062975,17.9526741 30.9255651,18.6579981 C31.8455229,19.3605615 32.0180581,20.6773502 31.3154947,21.5945474 C30.90072,22.1342375 30.2795933,22.4151248 29.6488045,22.4151248 C29.2043538,22.4151248 28.7557623,22.2750262 28.3761848,21.9837868 C27.4562271,21.2784629 27.2836919,19.9644347 27.9869454,19.0444769 Z M38.3910257,18.2610291 C39.3082229,17.5563953 40.622251,17.7261699 41.3296454,18.6433671 C42.0377299,19.5584939 41.8645045,20.8745924 40.9479975,21.5826769 L40.9479975,21.5826769 C40.5677299,21.8759868 40.1170679,22.018846 39.6705468,22.018846 C39.0445891,22.018846 38.4227722,21.7379586 38.0086876,21.2003389 C37.3033637,20.2831417 37.4738285,18.9691136 38.3910257,18.2610291 Z M48.2607299,18.0022953 C49.3159553,17.5267882 50.5561384,17.9947037 51.0316454,19.0499291 C51.5078426,20.1051544 51.0392369,21.3480981 49.9840116,21.8242953 C49.7031243,21.9499009 49.4118848,22.009253 49.123406,22.009253 C48.324913,22.009253 47.5602369,21.5503093 47.2103355,20.7739009 C46.7341384,19.7186755 47.2055045,18.4784924 48.2607299,18.0022953 Z M85.9409707,18.0871826 C86.6435341,17.1699854 87.9603229,16.9953798 88.8768299,17.6979431 C89.7967876,18.4032671 89.9720834,19.7172953 89.26952,20.6365629 C88.8547454,21.1741826 88.2336186,21.4578305 87.6028299,21.4578305 C87.1583792,21.4578305 86.7097876,21.3177319 86.3302102,21.0264924 C85.4102524,20.3239291 85.2356468,19.0071403 85.9409707,18.0871826 Z M71.4103313,18.2367361 C71.7995707,17.1442431 73.0004158,16.5776375 74.0901482,16.9668769 C75.1798806,17.3561164 75.7471764,18.554891 75.3600074,19.6446234 C75.0515144,20.5024685 74.2454299,21.0373277 73.3848243,21.0373277 C73.1508665,21.0373277 72.9141482,20.9979896 72.6801905,20.9144826 C71.5897679,20.524553 71.0231623,19.3264685 71.4103313,18.2367361 Z M53.2412003,16.2049615 C54.3578482,15.8964685 55.5117637,16.5500319 55.8174961,17.6673699 C56.1259891,18.7812572 55.4724257,19.9351727 54.3557778,20.2436657 C54.17082,20.2954262 53.9810313,20.3202713 53.798144,20.3202713 C52.8788764,20.3202713 52.0355243,19.7108769 51.7787919,18.7812572 C51.4709891,17.6673699 52.1245524,16.5106939 53.2412003,16.2049615 Z M21.8179144,16.334984 C22.634351,15.5164769 23.9628722,15.5144065 24.7820693,16.3329136 C25.6005764,17.14866 25.6026468,18.4778713 24.7869003,19.2963784 C24.3748862,19.7056319 23.8400271,19.9126741 23.3024074,19.9126741 C22.7647876,19.9126741 22.2299285,19.7083924 21.820675,19.2991389 C21.0021679,18.4827023 20.9994074,17.1562516 21.8179144,16.334984 Z M66.5279299,17.2407939 C66.7453243,16.1041319 67.8419581,15.3594699 68.9813806,15.5761741 C70.1180426,15.7928784 70.8627045,16.8902023 70.6460003,18.0268643 C70.453451,19.0303291 69.5755919,19.730822 68.5893806,19.730822 C68.458944,19.730822 68.3278172,19.7183995 68.19462,19.6935544 C67.0579581,19.4768502 66.3112257,18.3774558 66.5279299,17.2407939 Z M58.438651,15.1939741 C59.5877355,15.0607769 60.6277778,15.884115 60.760975,17.0331995 C60.8941722,18.182284 60.0708341,19.2230164 58.9196792,19.3562136 C58.8382426,19.3658755 58.756806,19.3707065 58.6774398,19.3707065 C57.6277355,19.3707065 56.7202003,18.583946 56.5966651,17.5162981 C56.4634679,16.3651431 57.2874961,15.3271713 58.438651,15.1939741 Z M42.6736257,15.3861093 C43.6743299,14.8043206 44.9566116,15.14456 45.5384003,16.1459544 C46.1208792,17.1466586 45.7799496,18.4289403 44.7792454,19.0107291 C44.4465975,19.2032784 44.0835834,19.2943769 43.728851,19.2943769 C43.0062736,19.2943769 42.3009496,18.9196305 41.9144707,18.2515741 C41.332682,17.2501798 41.6729214,15.9658277 42.6736257,15.3861093 Z M79.2751074,16.0941248 C79.8520651,15.09066 81.1343468,14.7455896 82.1357412,15.3225474 C83.139206,15.9015755 83.4842764,17.1838572 82.9045581,18.1845615 C82.5173891,18.8581389 81.8127553,19.2349558 81.0874172,19.2349558 C80.7326848,19.2349558 80.3724313,19.1438572 80.0446144,18.9540685 C79.0411496,18.3771108 78.6960792,17.0948291 79.2751074,16.0941248 Z M63.7222313,14.9843784 C64.8789074,15.0264769 65.783682,15.9981953 65.7415834,17.1541812 C65.6994848,18.2860122 64.7698651,19.1735333 63.6483862,19.1735333 L63.6483862,19.1735333 L63.5717806,19.1735333 C62.4157947,19.1314347 61.51102,18.1604065 61.5524285,17.0037305 C61.5945271,15.8477446 62.5662454,14.9422798 63.7222313,14.9843784 Z M47.2967412,13.0934615 C48.3643891,12.6497009 49.5921496,13.154884 50.0359102,14.2225319 C50.4824313,15.2901798 49.9765581,16.5179403 48.9068398,16.9644615 C48.6425158,17.0728136 48.3712905,17.1245741 48.1028257,17.1245741 C47.2815581,17.1245741 46.5023891,16.638715 46.1676707,15.835391 C45.7211496,14.7649826 46.2263327,13.5392924 47.2967412,13.0934615 Z M74.7657271,14.1835389 C75.2067271,13.1131305 76.4324172,12.6024262 77.5028257,13.0441164 C78.572544,13.4851164 79.0804876,14.7108065 78.6394876,15.781215 C78.3061496,16.5893699 77.5249102,17.0779896 76.700882,17.0779896 C76.4351778,17.0779896 76.1639524,17.0262291 75.9023891,16.9199474 C74.8319806,16.4789474 74.3247271,15.2532572 74.7657271,14.1835389 Z M33.1236637,12.013115 C34.0408609,11.3084812 35.3548891,11.4782558 36.0629736,12.395453 C36.7703679,13.3105798 36.5978327,14.6266784 35.6806355,15.3347629 L35.6806355,15.3347629 C35.3010581,15.6280727 34.849706,15.7709319 34.4031848,15.7709319 C33.7772271,15.7709319 33.1554102,15.4900446 32.7413257,14.9524248 C32.0360017,14.0352277 32.2064665,12.7211995 33.1236637,12.013115 Z M52.1832834,11.4264953 C53.3006214,11.1255939 54.4490158,11.7888192 54.7499172,12.9061572 C55.0508186,14.0255657 54.3903538,15.1746502 53.2709454,15.4748615 C53.0880581,15.5245516 52.9058609,15.5466361 52.7257341,15.5466361 C51.8009454,15.5466361 50.9555229,14.9303403 50.7043116,13.9958896 C50.4034102,12.8792417 51.063875,11.7273967 52.1832834,11.4264953 Z M70.041575,12.8813122 C70.3397158,11.7619037 71.4867299,11.0966079 72.6061384,11.3919882 C73.7255468,11.6901291 74.3908426,12.8371431 74.0954623,13.9565516 C73.8463214,14.8930727 72.9981384,15.5148896 72.0705891,15.5148896 C71.8904623,15.5148896 71.7110257,15.4928051 71.5308989,15.443115 C70.4114905,15.1470446 69.7455045,14.0007206 70.041575,12.8813122 Z M57.2452595,10.41606 C58.3915834,10.2656093 59.4447384,11.0716939 59.5972595,12.2207784 C59.7477102,13.3671023 58.9416257,14.4195671 57.7953017,14.5727784 C57.7014426,14.5852009 57.6075834,14.5900319 57.5164848,14.5900319 C56.4812736,14.5900319 55.5813299,13.8232854 55.4426116,12.76806 C55.2900905,11.621046 56.0989355,10.5685812 57.2452595,10.41606 Z M65.1943017,12.2107713 C65.3419919,11.0644474 66.3923862,10.2528417 67.5394003,10.401222 C68.6884848,10.5461516 69.4994003,11.596546 69.35102,12.7456305 C69.2157524,13.8036164 68.3130482,14.5751939 67.2750764,14.5751939 C67.1867384,14.5751939 67.0949496,14.5676023 67.0066116,14.5579403 C65.8575271,14.4102502 65.0466116,13.3598558 65.1943017,12.2107713 Z M62.3909496,10.0757455 C63.5496961,10.072991 64.4889778,11.0102023 64.4917418,12.1689488 C64.4938088,13.3249347 63.5572876,14.2642164 62.3985412,14.2669769 L62.3985412,14.2669769 C61.2391045,14.2669769 60.3025834,13.3304558 60.2998194,12.1737798 C60.2977524,11.0171037 61.2342736,10.077822 62.3909496,10.0757455 Z M81.1242707,9.81101357 C81.5659609,8.74060512 82.7909609,8.23059103 83.8613693,8.67159103 C84.9310876,9.11328117 85.4390313,10.3382812 84.9980313,11.4086896 C84.6646933,12.2168446 83.8834538,12.7054643 83.0601158,12.7054643 C82.7937214,12.7054643 82.5224961,12.6537037 82.2609327,12.547422 C81.1912144,12.106422 80.6832707,10.8807319 81.1242707,9.81101357 Z M92.7650144,8.67428258 C93.2067045,7.60387413 94.4317045,7.09316991 95.502113,7.53486005 C96.5718313,7.97586005 97.079775,9.20155019 96.638775,10.2712685 C96.3054369,11.0801136 95.5241975,11.5687333 94.7001693,11.5687333 C94.4344651,11.5687333 94.1632398,11.5169727 93.9016764,11.410691 C92.8312679,10.969691 92.3240144,9.74400089 92.7650144,8.67428258 Z M49.5517764,6.58087228 C50.7105229,6.57811779 51.6498045,7.51532906 51.6525685,8.67407554 C51.6546355,9.83006146 50.7181144,10.7693431 49.5593679,10.7721037 L49.5593679,10.7721037 C48.3999313,10.7721037 47.4634102,9.83558258 47.4606462,8.67890653 C47.4585792,7.52223047 48.3951003,6.58294878 49.5517764,6.58087228 Z M75.1527581,5.49797836 C75.5944482,4.42756991 76.8194482,3.91686568 77.8898567,4.35855582 C78.959575,4.79955582 79.4675186,6.02524596 79.0265186,7.09565441 C78.6931806,7.90380934 77.9119412,8.39242906 77.087913,8.39242906 C76.8222088,8.39242906 76.5509834,8.3406685 76.28942,8.23438681 C75.2190116,7.79338681 74.7117581,6.56769667 75.1527581,5.49797836 Z M37.09432,2.38751357 C38.0950243,1.80572484 39.377306,2.14596427 39.9590947,3.14735864 C40.5408834,4.14806286 40.200644,5.43034456 39.1999398,6.01213329 C38.8672919,6.20468258 38.5042778,6.29578117 38.1495454,6.29578117 C37.4269679,6.29578117 36.721644,5.9210347 36.3351651,5.25297836 C35.7526862,4.25158399 36.0936158,2.96723188 37.09432,2.38751357 Z M61.6449764,1.82705019 C61.7933567,0.680726245 62.8430609,-0.130879389 63.990075,0.0175008931 C65.1391595,0.162430471 65.950075,1.21282484 65.8016947,2.36190934 C65.6664271,3.41989526 64.764413,4.19147272 63.725751,4.19147272 C63.637413,4.19147272 63.5463144,4.18388117 63.4572862,4.1742192 C62.3082017,4.02652906 61.4972862,2.9761347 61.6449764,1.82705019 Z" id="Combined-Shape"></path>
            </g>
        </g>
    </g>
</svg>