<svg xmlns="http://www.w3.org/2000/svg" width="24" height="24" viewBox="0 0 24 24">
    <g fill="none" fill-rule="evenodd">
        <g fill="#7786FF" fill-rule="nonzero">
            <g>
                <g>
                    <path d="M24 22.5c0 .828-.672 1.5-1.5 1.5h-21C.672 24 0 23.328 0 22.5S.672 21 1.5 21h21c.828 0 1.5.672 1.5 1.5zm-13.06-4.752c.292.293.676.44 1.06.44s.768-.147 1.06-.44l5.315-5.314c.586-.586.586-1.536 0-2.122-.586-.585-1.535-.585-2.121 0L13.5 13.066V1.5C13.5.672 12.828 0 12 0s-1.5.672-1.5 1.5v11.566l-2.754-2.754c-.586-.585-1.535-.585-2.121 0-.586.586-.586 1.536 0 2.122l5.314 5.314z" transform="translate(-288 -100) translate(8 76) translate(280 24)"/>
                </g>
            </g>
        </g>
    </g>
</svg>
