<?xml version="1.0" encoding="UTF-8"?>
<svg width="131px" height="60px" viewBox="0 0 131 60" version="1.1" xmlns="http://www.w3.org/2000/svg" xmlns:xlink="http://www.w3.org/1999/xlink">
    <title>172CD660-297F-4C8C-8188-DA15D020251B</title>
    <g id="Symbols" stroke="none" stroke-width="1" fill="none" fill-rule="evenodd">
        <g id="Group-14">
            <path d="M35.2733352,23.4804927 C38.9658704,23.4804927 41.1765746,26.2324645 41.6705183,28.1609152 L38.9658704,28.1609152 C38.5661521,27.3378166 37.6251662,25.7148589 35.2965746,25.7148589 C32.1448845,25.7148589 31.0162929,28.3489434 31.0162929,30.324718 C31.0162929,32.5827462 32.4508,34.9582392 35.2496732,34.9582392 C37.0843211,34.9582392 38.3308,33.8997885 38.9422084,32.5590842 L41.6705183,32.5590842 C40.6826309,35.4521828 38.1427718,37.1926054 35.2496732,37.1926054 C30.968969,37.1926054 28.569814,33.6880983 28.569814,30.324718 C28.569814,26.796549 31.1574197,23.4804927 35.2733352,23.4804927 Z M49.8803774,23.4804927 C53.8319267,23.4804927 56.9130535,26.5852814 56.9130535,30.3010561 C56.9130535,33.4764082 54.3022084,37.1926054 49.8803774,37.1926054 C45.5054479,37.1926054 42.8477014,33.5469716 42.8477014,30.2541547 C42.8477014,26.7027462 45.8350253,23.4804927 49.8803774,23.4804927 Z M110.026237,23.4804927 C113.977786,23.4804927 117.058913,26.5852814 117.058913,30.3010561 C117.058913,33.4764082 114.448068,37.1926054 110.026237,37.1926054 C105.651307,37.1926054 102.993561,33.5469716 102.993561,30.2541547 C102.993561,26.7027462 105.980884,23.4804927 110.026237,23.4804927 Z M73.3310817,23.4803659 C75.5185464,23.4803659 77.0709408,24.3740279 77.9172788,25.8326194 C78.3879831,26.6789575 78.6465746,27.7374082 78.6465746,29.007549 L78.6465746,36.8633237 L76.2005183,36.8633237 L76.2005183,29.6189575 C76.2005183,28.5136054 76.0593915,25.7147321 73.1193915,25.7147321 C69.9913633,25.7147321 70.0382648,28.5136054 70.0146028,29.595718 L70.0146028,36.8633237 L67.5685464,36.8633237 L67.5685464,29.6189575 C67.5922084,28.5372673 67.545307,27.8079716 67.0277014,26.9379716 C66.4162929,25.9969856 65.498969,25.7147321 64.605307,25.7147321 C61.5441662,25.7147321 61.3911091,28.3471085 61.3834563,29.4370489 L61.3830535,36.8633237 L58.9369971,36.8633237 L58.9369971,23.8331828 L61.1946028,23.8331828 L61.1946028,25.2444504 L61.2419267,25.2444504 C61.7122084,24.7036054 62.558969,23.4803659 64.9813633,23.4803659 C66.5574197,23.4803659 68.3684056,24.2329011 69.0267155,25.6678307 C69.4500957,25.0090983 70.4147436,23.4803659 73.3310817,23.4803659 Z M95.7005183,23.4803659 C97.8879831,23.4803659 99.4403774,24.3740279 100.286715,25.8326194 C100.75742,26.6789575 101.016011,27.7374082 101.016011,29.007549 L101.016011,36.8633237 L98.5699549,36.8633237 L98.5699549,29.6189575 C98.5699549,28.5136054 98.4288281,25.7147321 95.4888281,25.7147321 C92.3608,25.7147321 92.4077014,28.5136054 92.3840394,29.595718 L92.3840394,36.8633237 L89.9379831,36.8633237 L89.9379831,29.6189575 C89.961645,28.5372673 89.9147436,27.8079716 89.397138,26.9379716 C88.7857295,25.9969856 87.8684056,25.7147321 86.9747436,25.7147321 C83.8330464,25.7147321 83.754504,28.4874776 83.7525405,29.5198162 L83.7524901,36.8633237 L81.3064338,36.8633237 L81.3064338,23.8331828 L83.5640394,23.8331828 L83.5640394,25.2444504 L83.6113633,25.2444504 C84.081645,24.7036054 84.9284056,23.4803659 87.3508,23.4803659 C88.9268563,23.4803659 90.7378422,24.2329011 91.3961521,25.6678307 C91.8195324,25.0090983 92.7841802,23.4803659 95.7005183,23.4803659 Z M125.197828,23.4803659 C127.220504,23.4803659 128.866701,24.3507885 129.807687,25.8089575 C130.32487,26.655718 130.607124,27.6905068 130.630786,29.1486758 L130.630786,36.8633237 L128.18473,36.8633237 L128.184353,29.6217579 C128.177006,28.4815653 128.026392,25.7147321 124.938814,25.7147321 C122.892899,25.7147321 121.50487,27.1496617 121.50487,29.7600842 L121.50487,36.8633237 L119.058814,36.8633237 L119.058814,23.8331828 L121.340504,23.8331828 L121.340504,25.2207885 L121.387406,25.2207885 C122.610373,23.6046818 124.40133,23.4892456 125.065365,23.4810002 L125.197828,23.4803659 L125.197828,23.4803659 Z M49.8803774,25.7148589 C47.1284056,25.7148589 45.2941802,27.9961265 45.2941802,30.324718 C45.2941802,32.6769716 47.1520676,34.9582392 49.8803774,34.9582392 C52.5144619,34.9582392 54.4665746,32.7707744 54.4665746,30.3010561 C54.4665746,27.9961265 52.6323493,25.7148589 49.8803774,25.7148589 Z M110.026237,25.7148589 C107.274265,25.7148589 105.440039,27.9961265 105.440039,30.324718 C105.440039,32.6769716 107.297927,34.9582392 110.026237,34.9582392 C112.660321,34.9582392 114.612434,32.7707744 114.612434,30.3010561 C114.612434,27.9961265 112.778208,25.7148589 110.026237,25.7148589 Z" id="Combined-Shape-Copy-5" fill="#121A2F"></path>
            <g id="Group-13">
                <path d="M36.6030614,56.5432555 C37.3090074,56.4510081 37.9571542,56.9470988 38.0497166,57.6521027 C38.1424885,58.3556457 37.644494,59.0015863 36.9370821,59.0938337 C36.8809583,59.1015557 36.8248344,59.1044776 36.7687106,59.1044776 C36.1310347,59.1044776 35.5754504,58.632388 35.4904269,57.9849865 C35.3978645,57.2814435 35.895859,56.6355029 36.6030614,56.5432555 Z M27.7877628,56.2012097 C27.9714218,55.514363 28.6788337,55.1073892 29.3680263,55.2904231 C30.0557529,55.473457 30.4655827,56.1769999 30.2817143,56.8638466 C30.1284208,57.4386189 29.6063433,57.8184611 29.0356809,57.8184611 C28.9263651,57.8184611 28.8139079,57.8046866 28.7031261,57.7744245 C28.0139336,57.5913906 27.6041038,56.8880563 27.7877628,56.2012097 Z M48.1512777,53.9604743 C48.8630874,53.9604743 49.4415009,54.5352466 49.4415009,55.2463029 C49.4429641,55.9558984 48.8647627,56.5323403 48.1527436,56.5323403 C47.4394681,56.5323403 46.8625232,55.9573593 46.8608479,55.2477639 C46.8608479,54.5369162 47.4377927,53.9604743 48.1512777,53.9604743 Z M20.7663124,54.4628887 C21.2004347,53.9000126 22.009414,53.7941994 22.5756785,54.225383 C23.1404772,54.6580275 23.2466518,55.4659227 22.8125296,56.0285902 C22.5589252,56.3583433 22.176529,56.5324029 21.7878504,56.5324029 C21.5147701,56.5324029 21.2383392,56.444747 21.0046294,56.2660959 C20.4383648,55.8334514 20.3321902,55.0272258 20.7663124,54.4628887 Z M24.8825156,52.74644 C25.1541299,52.0898555 25.9086607,51.778051 26.5674878,52.0489494 C27.2263148,52.3213089 27.538975,53.0730626 27.2656853,53.7298558 C27.0606657,54.2244855 26.579634,54.5239765 26.0741005,54.5239765 C25.9086607,54.5239765 25.7417551,54.4922534 25.5807131,54.4256767 C24.9218861,54.1547782 24.6092259,53.4013548 24.8825156,52.74644 Z M32.512365,51.8507134 L32.6441726,51.8609484 C33.3501186,51.9531958 33.8493696,52.5976754 33.7568071,53.3026793 C33.673459,53.9500808 33.1176653,54.4221705 32.4787329,54.4221705 C32.424075,54.4221705 32.3679511,54.4192486 32.3116178,54.4115265 C31.6044154,54.3207401 31.1064208,53.6762605 31.1975174,52.9712565 C31.2900799,52.2664613 31.9367607,51.7701619 32.6441726,51.8609484 Z M38.3154045,51.8579222 C39.0213504,51.7656748 39.6694972,52.2617655 39.7620597,52.9667694 C39.8546221,53.6703124 39.3568371,54.3162529 38.6494252,54.4085003 C38.5933013,54.4162224 38.536968,54.4191442 38.4808442,54.4191442 C37.8433777,54.4191442 37.2877934,53.9470546 37.20277,53.2996531 C37.1102075,52.5961101 37.6079926,51.9501696 38.3154045,51.8579222 Z M41.099399,51.3072135 C41.7885916,51.1241796 42.4960035,51.5311535 42.6796625,52.2180001 C42.8647875,52.9033858 42.4564236,53.608181 41.767231,53.7928845 C41.6549833,53.8214771 41.5442015,53.8367125 41.4334197,53.8367125 C40.8627574,53.8367125 40.3419364,53.4568702 40.1871769,52.8820979 C40.0035179,52.196921 40.4116724,51.491917 41.099399,51.3072135 Z M43.7878783,50.3980339 C44.4467053,50.1256745 45.2012361,50.4358095 45.4743164,51.0923939 C45.7476061,51.7475175 45.4364118,52.5009409 44.7775848,52.7733003 C44.6150769,52.839877 44.4481713,52.8716001 44.2827315,52.8716001 C43.777198,52.8716001 43.2976322,52.57357 43.0909373,52.0787316 C42.817857,51.4221471 43.1305172,50.6703934 43.7878783,50.3980339 Z M15.2908858,50.4706005 C15.8554751,50.0362864 16.6661297,50.1420996 17.1002519,50.7049757 C17.5360495,51.2678518 17.4296655,52.0740775 16.8648668,52.5081829 C16.631157,52.6882949 16.3534696,52.7744899 16.078714,52.7744899 C15.6931766,52.7744899 15.3105711,52.6020999 15.0555007,52.2738077 C14.6213785,51.7094706 14.7260872,50.903245 15.2908858,50.4706005 Z M36.1962682,49.0303931 C36.9080778,49.0032615 37.5078492,49.5569547 37.5352829,50.2663414 C37.5625071,50.9759368 37.0069228,51.5734579 36.2949038,51.6007982 C36.2783598,51.6022591 36.2616064,51.6022591 36.244853,51.6022591 C35.5556605,51.6022591 34.9833228,51.0575403 34.9560985,50.3646412 C34.9286648,49.6552545 35.4844585,49.0577334 36.1962682,49.0303931 Z M22.8560256,49.6234062 C23.2128728,49.0091887 24.0021669,48.7990233 24.6199481,49.1544471 C25.2362634,49.5086187 25.4473561,50.2952261 25.0905089,50.9109045 C24.852192,51.3224698 24.4180698,51.5539232 23.9732673,51.5539232 C23.7531696,51.5539232 23.531606,51.4979903 23.3282618,51.3813245 C22.711737,51.0259007 22.5008537,50.2392933 22.8560256,49.6234062 Z M33.2001165,48.916271 L33.3318364,48.9244964 C34.0407142,49.004639 34.5491796,49.6416052 34.4687633,50.3480701 C34.3944202,51.0046546 33.8356946,51.4888491 33.1875479,51.4888491 C33.1391725,51.4888491 33.0903782,51.4857185 33.0417934,51.4796661 C32.3329156,51.3995235 31.8244502,50.7625573 31.9048665,50.0575534 C31.9852827,49.3527581 32.6244246,48.8443539 33.3318364,48.9244964 Z M39.0425435,48.7051897 C39.7424163,48.5705753 40.4177873,49.0259686 40.5545369,49.7232504 C40.6896111,50.420741 40.2311965,51.0954828 39.5313236,51.2300972 C39.449232,51.2467936 39.3673498,51.2543069 39.2854676,51.2543069 C38.6798326,51.2543069 38.1393263,50.8262539 38.0193302,50.2120365 C37.884256,49.5145459 38.3426706,48.8398041 39.0425435,48.7051897 Z M8.75528378,47.6633784 C9.32008243,47.2290643 10.1307371,47.3348775 10.5648593,47.8977536 C11.0004474,48.4606297 10.8942728,49.2668554 10.3294742,49.7011695 C10.0957644,49.8810728 9.81807694,49.9672678 9.54332135,49.9672678 C9.15757455,49.9672678 8.77517843,49.7948778 8.52010807,49.4665856 C8.08598586,48.9022485 8.19069454,48.0960229 8.75528378,47.6633784 Z M48.6909882,47.5690022 C49.2557868,47.1363577 50.066232,47.2421709 50.5005637,47.805047 C50.9346859,48.3679232 50.8285113,49.1756097 50.2637126,49.6082542 C50.0300028,49.7883663 49.7535719,49.8745612 49.4788163,49.8745612 C49.091813,49.8745612 48.7077416,49.7021713 48.4541371,49.3722094 C48.0200149,48.809542 48.1263989,48.0016467 48.6909882,47.5690022 Z M44.4117117,46.7808921 C45.037032,46.440495 45.8204624,46.6704874 46.1620221,47.2936792 C46.5035818,47.9170796 46.2728039,48.6990955 45.6472742,49.0380317 C45.450003,49.1453058 45.2391197,49.1953949 45.0294929,49.1953949 C44.5725442,49.1953949 44.130883,48.9532977 43.8957073,48.5252447 C43.5539381,47.9018442 43.7847161,47.1212892 44.4117117,46.7808921 Z M34.7740101,45.9926986 C35.4858198,46.0229607 36.0367969,46.6234037 36.0064313,47.3329991 C35.9760658,48.0227676 35.4054035,48.562895 34.7178863,48.562895 C34.6996669,48.562895 34.6797723,48.562895 34.661553,48.561434 C33.9497433,48.5311719 33.3970909,47.9305202 33.4274564,47.2211335 C33.4592878,46.5115381 34.061991,45.9609755 34.7740101,45.9926986 Z M23.5240461,46.440495 C23.9110494,45.8444349 24.7095578,45.6735059 25.3076538,46.0591919 C25.9057498,46.4465475 26.0772627,47.2423379 25.6900499,47.838398 C25.442728,48.2180316 25.028291,48.4252752 24.6048491,48.4252752 C24.3648568,48.4252752 24.1221421,48.3586984 23.9049763,48.2180316 C23.3068802,47.8323456 23.1368333,47.0350943 23.5240461,46.440495 Z M40.3162199,45.2453694 C40.9930569,45.0258122 41.7218293,45.3950105 41.941927,46.0712132 C42.1620246,46.745955 41.7915653,47.4707859 41.1147284,47.6915953 C40.9811201,47.7339623 40.8475118,47.7550414 40.7153694,47.7550414 C40.1704654,47.7550414 39.6649319,47.4085919 39.487346,46.8655427 C39.2672483,46.1908009 39.6374982,45.4647179 40.3162199,45.2453694 Z M46.8132473,45.2272121 C47.3795119,44.7960285 48.1884912,44.9035114 48.6211475,45.4676397 C49.0538038,46.0334377 48.9459538,46.839872 48.3782233,47.2710556 C48.1445135,47.449498 47.8697579,47.534232 47.5964683,47.534232 C47.2077896,47.534232 46.8237182,47.3601725 46.5703231,47.0289584 C46.1376669,46.4646213 46.2455168,45.6583957 46.8132473,45.2272121 Z M27.6271397,45.4374819 C27.9079684,44.7838193 28.665431,44.4814064 29.3211168,44.7596096 C29.977012,45.0394824 30.2806672,45.7943667 30.0013044,46.4480293 C29.7918871,46.9366066 29.3152531,47.2285842 28.8143268,47.2285842 C28.6442799,47.2285842 28.472767,47.1954002 28.3073273,47.1256929 C27.6514321,46.8458201 27.3477769,46.0909358 27.6271397,45.4374819 Z M42.8936661,44.1438895 C43.5206617,43.8066229 44.3038827,44.0409981 44.6425106,44.6658595 C44.9809291,45.2907209 44.7472193,46.0698149 44.1202237,46.4072902 C43.9244184,46.5131034 43.715001,46.5615228 43.5085155,46.5615228 C43.048635,46.5615228 42.6052984,46.3179646 42.3715886,45.886781 C42.0329607,45.2619197 42.2666705,44.4813647 42.8936661,44.1438895 Z M16.4348073,43.3528575 C16.9996059,42.9185434 17.8102606,43.0243566 18.2443828,43.5872327 C18.6799709,44.1501088 18.5737963,44.9563345 18.0089977,45.3904399 C17.7752879,45.5705519 17.4976005,45.6567469 17.2228449,45.6567469 C16.8370981,45.6567469 16.4547019,45.4843569 16.1996316,45.1560647 C15.7655094,44.5917276 15.8702181,43.785502 16.4348073,43.3528575 Z M36.1583427,42.9563815 C36.8701524,42.918606 37.4774627,43.4631161 37.5153673,44.1712506 C37.5547377,44.8806373 37.0083678,45.4873414 36.2965582,45.5251169 C36.2737317,45.5265779 36.2494393,45.5265779 36.2266128,45.5265779 C35.5449592,45.5265779 34.9757628,44.9956335 34.9393242,44.3102478 C34.9014196,43.6008611 35.4463236,42.994157 36.1583427,42.9563815 Z M11.3060711,43.0716699 C11.9223865,42.7162461 12.71189,42.9249506 13.0699937,43.5391681 C13.4268409,44.1533855 13.2172141,44.9399929 12.5994328,45.2970864 C12.3960886,45.4150044 12.1743156,45.471146 11.9542179,45.471146 C11.5094154,45.471146 11.0752932,45.2411536 10.8369762,44.8295882 C10.4786631,44.2153708 10.6897558,43.4287634 11.3060711,43.0716699 Z M38.8497957,42.5191664 C39.5375224,42.3286191 40.2478661,42.7295406 40.4390642,43.4132566 C40.6287963,44.0986423 40.2265055,44.8065681 39.5404542,44.9971153 C39.4250652,45.0290471 39.3082103,45.0440739 39.1942873,45.0440739 C38.6296981,45.0440739 38.1105524,44.6704927 37.9526517,44.1015642 C37.7614536,43.4178481 38.163535,42.7082527 38.8497957,42.5191664 Z M29.1268822,42.8081387 C29.3909575,42.1484236 30.1408811,41.8261838 30.8028494,42.0878993 C31.4646083,42.3512844 31.7879487,43.0986554 31.5238734,43.7581617 C31.323461,44.2634354 30.8378221,44.5689789 30.3245401,44.5689789 C30.1668489,44.5689789 30.004341,44.5403863 29.8481156,44.4784011 C29.1861473,44.215016 28.8628069,43.467645 29.1268822,42.8081387 Z M19.2249378,42.1016947 C19.772983,41.6492233 20.5865695,41.7264439 21.0405864,42.2726237 C21.4943938,42.8202644 21.4185847,43.6310815 20.8688641,44.0833443 C20.6276153,44.2816136 20.3375723,44.3784525 20.0477386,44.3784525 C19.6758134,44.3784525 19.30682,44.2196283 19.051959,43.9124153 C18.5981516,43.3647745 18.6754266,42.5539574 19.2249378,42.1016947 Z M22.8286966,41.7308893 C23.3204086,41.2181023 24.1371364,41.1984841 24.6533502,41.690192 C25.1680981,42.1802302 25.1875739,42.9941779 24.694396,43.5071737 C24.441001,43.771811 24.1023731,43.9049645 23.7608133,43.9049645 C23.4420801,43.9049645 23.1202056,43.7868377 22.8712083,43.549332 C22.3552039,43.0592937 22.3369846,42.245346 22.8286966,41.7308893 Z M26.600848,41.1576823 C27.0002069,40.5691355 27.8033225,40.4163638 28.3922042,40.8141547 C28.9827612,41.2136151 29.1360547,42.013997 28.7369052,42.6008742 C28.4862326,42.966942 28.08101,43.1652113 27.666573,43.1652113 C27.4175757,43.1652113 27.1656466,43.0925821 26.944083,42.9427322 C26.3535261,42.5449414 26.2002325,41.7445595 26.600848,41.1576823 Z M43.6390872,39.982154 C44.1810594,39.5221692 44.9961118,39.588746 45.4576677,40.1288733 C45.9190142,40.6704616 45.8538854,41.4812787 45.3102379,41.9412635 C45.0675231,42.1470462 44.771407,42.2484766 44.4755002,42.2484766 C44.1096481,42.2484766 43.7469372,42.0940352 43.4918668,41.7960052 C43.0303109,41.2544169 43.0956492,40.4421388 43.6390872,39.982154 Z M17.62034,39.4964777 C18.2322575,39.1318709 19.0244835,39.3316011 19.3888697,39.9412271 L19.3888697,39.9412271 C19.7547218,40.5510617 19.5543094,41.340591 18.9426013,41.7051978 C18.7361157,41.8279161 18.5084791,41.8867708 18.2823083,41.8867708 C17.8435789,41.8867708 17.4155298,41.6628308 17.1740716,41.2604484 C16.8082194,40.6493616 17.0086318,39.8610845 17.62034,39.4964777 Z M20.9994777,39.3014224 C21.5747473,38.8838047 22.3824701,39.0092361 22.8027707,39.5842171 C23.2218149,40.1577372 23.0957456,40.9625019 22.5204761,41.3799109 C22.2899076,41.5464571 22.024157,41.6265997 21.7600816,41.6265997 C21.3623981,41.6265997 20.9691122,41.4435658 20.7171831,41.0985772 C20.296673,40.5252658 20.4242082,39.7205012 20.9994777,39.3014224 Z M4.70452355,37.5678182 C5.41026009,37.4755708 6.05840686,37.9718702 6.15264468,38.6754132 C6.24520716,39.3802084 5.74742206,40.0261489 5.0414761,40.1186051 C4.98367691,40.1261184 4.92755305,40.129249 4.8714292,40.129249 C4.23396271,40.129249 3.67837843,39.6586203 3.59314556,39.0112188 C3.50079249,38.3062149 3.99711167,37.6602743 4.70452355,37.5678182 Z M19.6349351,36.5872408 C20.2770088,36.2773146 21.0480835,36.5450825 21.3578118,37.1849706 C21.669006,37.8248587 21.4003235,38.5933088 20.7582499,38.9019828 C20.5775227,38.9896387 20.3863246,39.0305448 20.1980584,39.0305448 C19.7182832,39.0305448 19.2584027,38.7627769 19.0351637,38.3044617 C18.7256449,37.6660346 18.992652,36.8959148 19.6349351,36.5872408 Z M22.884988,36.4556317 C23.4952302,36.088103 24.2874561,36.2832418 24.6564496,36.8914068 C25.0252335,37.4995718 24.8294283,38.2893098 24.2191861,38.6568385 C24.0112346,38.7824786 23.7804567,38.8430029 23.55282,38.8430029 C23.1170224,38.8430029 22.6906487,38.6205239 22.4477245,38.2212721 C22.0787311,37.6128984 22.2745364,36.8233691 22.884988,36.4556317 Z M12.90847,35.1154147 C13.5976626,34.9307112 14.3050745,35.337685 14.4887335,36.0245316 C14.6738585,36.7099173 14.265704,37.4149213 13.5779774,37.5994161 C13.4657297,37.6296782 13.3532725,37.643244 13.2424908,37.643244 C12.6732943,37.643244 12.1512168,37.2650714 11.9977139,36.6902991 C11.8125889,36.0049134 12.2209528,35.2999095 12.90847,35.1154147 Z M15.6987052,33.7113967 C16.3922956,33.547981 17.0877707,33.9777036 17.2500691,34.6689331 C17.4123676,35.3603712 16.9813866,36.0532703 16.2875869,36.215225 C16.1889513,36.2377651 16.0903157,36.248409 15.9931461,36.248409 C15.4071962,36.248409 14.8759044,35.8491572 14.7376889,35.2560189 C14.5753904,34.5645808 15.0049055,33.8733514 15.6987052,33.7113967 Z M21.8723084,33.6191075 C22.5478889,33.3922457 23.2795932,33.7537219 23.5072298,34.4270028 C23.7365419,35.0988227 23.3736216,35.8294973 22.6982505,36.0563591 C22.561501,36.101648 22.4218196,36.1243968 22.2852795,36.1243968 C21.7479145,36.1243968 21.2455222,35.7854606 21.0633291,35.2499248 C20.8356924,34.5768526 21.1984033,33.847639 21.8723084,33.6191075 Z M12.4881275,32.1409785 C13.193864,32.0487311 13.8420108,32.5450305 13.9362486,33.2485735 C14.0288111,33.9533687 13.531026,34.5995179 12.82508,34.6917653 C12.7674903,34.6992787 12.711157,34.7024093 12.6550331,34.7024093 C12.0175667,34.7024093 11.4619824,34.2317805 11.3767495,33.5843791 C11.2843964,32.8793752 11.7807156,32.2334346 12.4881275,32.1409785 Z M18.4675798,30.6509533 C19.1779236,30.5872985 19.8049192,31.1092685 19.8685821,31.8159421 C19.9324544,32.5238678 19.4087015,33.1487292 18.6981484,33.2121754 C18.6602438,33.2167669 18.6206639,33.2182278 18.5812935,33.2182278 C17.9210005,33.2182278 17.3593431,32.7144151 17.2986121,32.0473954 C17.2349492,31.3392609 17.7584926,30.7146082 18.4675798,30.6509533 Z M21.5005298,30.6328795 C22.2079416,30.5556588 22.8454081,31.066985 22.9212172,31.7719889 C22.9987016,32.4784537 22.487095,33.1137503 21.7782172,33.1895101 C21.7310983,33.1955625 21.6841888,33.1970235 21.6370699,33.1970235 C20.9872478,33.1970235 20.4272657,32.7084461 20.3558544,32.050192 C20.2800453,31.3437272 20.7914425,30.7098915 21.5005298,30.6328795 Z M8.48325061,29.936516 C9.19526968,29.936516 9.77368046,30.511497 9.77514638,31.2210924 C9.77514638,31.9321487 9.19841094,32.508382 8.48639187,32.508382 L8.48639187,32.508382 C7.77144096,32.508382 7.19449332,31.9336097 7.19449332,31.2240143 C7.19303018,30.5144188 7.76976563,29.9381856 8.48325061,29.936516 Z M18.5602591,27.617441 L18.6920962,27.6223375 C19.4026493,27.6843227 19.9278681,28.3089754 19.8654617,29.0156489 C19.806406,29.6857992 19.2432827,30.189612 18.5813144,30.189612 C18.5434099,30.189612 18.5055053,30.188151 18.4676008,30.1850205 C17.7570476,30.1230352 17.2318289,29.4996348 17.2940258,28.791709 C17.3562228,28.0835745 17.9832184,27.5601435 18.6920962,27.6223375 Z M15.4862252,27.6115453 L15.618268,27.6147406 C16.3286117,27.6675429 16.8630449,28.2848909 16.8098529,28.9928167 C16.7581268,29.6675584 16.1935375,30.183476 15.5240302,30.183476 C15.4921988,30.183476 15.4589014,30.1820151 15.4268605,30.1788845 C14.7165168,30.1275432 14.1835496,29.5104039 14.2352757,28.8022694 C14.2884677,28.092674 14.9077149,27.5617297 15.618268,27.6147406 Z M12.682876,26.1460059 L12.8144416,26.1561881 C13.5218535,26.2469746 14.0196386,26.8931238 13.9285421,27.5964581 C13.8451939,28.2455292 13.2896097,28.7176189 12.6504678,28.7176189 C12.5958099,28.7176189 12.5396861,28.7144883 12.4835622,28.7069749 C11.7776162,28.6161885 11.2781558,27.9717088 11.3692524,27.2667049 C11.4603489,26.5633706 12.1084957,26.0656103 12.8144416,26.1561881 Z M4.53812051,25.6119701 C5.22731308,25.4272666 5.93472496,25.8342405 6.118384,26.5210871 C6.30350895,27.2064728 5.89535449,27.9114767 5.20762784,28.0959715 C5.09538013,28.1262337 4.982923,28.1397995 4.87214121,28.1397995 C4.3029448,28.1397995 3.78086729,27.7616269 3.62736435,27.1868546 C3.4422394,26.5014689 3.85060327,25.7964649 4.53812051,25.6119701 Z M21.0526907,25.5769286 C21.2803274,24.9036478 22.0120317,24.5407106 22.6876121,24.7661115 C23.3629832,24.9929734 23.7259035,25.722187 23.4997327,26.3952591 C23.3190055,26.9324646 22.8166132,27.2728617 22.276107,27.2711982 C22.1410328,27.2711982 22.0013514,27.2501129 21.8662772,27.2046153 C21.1909062,26.9794231 20.8265199,26.2500008 21.0526907,25.5769286 Z M14.7255846,25.5905153 C14.8866265,24.8990772 15.5802169,24.4678936 16.2740166,24.6283874 C16.9678164,24.7886725 17.4002633,25.4801106 17.2394307,26.17134 C17.1012153,26.7659393 16.5699234,27.1668607 15.9839736,27.1668607 C15.8868039,27.1668607 15.7898437,27.1562167 15.6909987,27.1334679 C14.9974083,26.9731829 14.564752,26.2834144 14.7255846,25.5905153 Z M11.9825311,24.1592822 C12.1661902,23.4726443 12.8721361,23.0640008 13.5613287,23.2470347 C14.2503119,23.4300686 14.6603511,24.1336116 14.476692,24.8204582 C14.3233985,25.3954392 13.8011116,25.7765337 13.2302398,25.7750769 C13.1211334,25.7750769 13.0086763,25.7615069 12.8978945,25.7327057 C12.2087019,25.5496718 11.800338,24.8461288 11.9825311,24.1592822 Z M19.0170073,22.5284858 C19.3267355,21.8885977 20.0963444,21.6193689 20.739884,21.9278342 C21.3819576,22.2350473 21.652106,23.0034974 21.3425872,23.6433855 C21.1210236,24.1033703 20.6594677,24.3725991 20.1799019,24.3725991 C19.9916357,24.3725991 19.8019036,24.3319017 19.6211764,24.2454981 C18.9791027,23.9370327 18.7087449,23.1683739 19.0170073,22.5284858 Z M15.7046736,22.4892076 C15.9704243,21.8311622 16.7218138,21.5103834 17.3835727,21.7750207 C18.0438657,22.0413277 18.3657402,22.7901596 18.0999895,23.4484137 C17.8966453,23.9505568 17.4124723,24.2546393 16.902541,24.2546393 C16.741499,24.2546393 16.5789912,24.2258381 16.4210905,24.1623919 C15.7593316,23.8977546 15.438923,23.148714 15.7046736,22.4892076 Z M24.4194519,19.9943954 C24.9084415,19.4770168 25.7251692,19.4544767 26.2426396,19.943054 C26.7603193,20.4301704 26.7831458,21.2441181 26.2943656,21.7600357 C26.0409706,22.0278036 25.6992015,22.163879 25.3561758,22.163879 C25.0389085,22.163879 24.7201753,22.0474219 24.4697121,21.811377 C23.9520323,21.3242607 23.9292058,20.510313 24.4194519,19.9943954 Z M20.6928698,19.729758 C21.1119139,19.1549857 21.9194273,19.0278846 22.4963722,19.4452937 C23.0716417,19.8614506 23.2006428,20.6662153 22.7818081,21.2411963 C22.5296695,21.5876458 22.1365931,21.7721406 21.7372342,21.7721406 C21.4746248,21.7721406 21.2090836,21.691998 20.9797716,21.5271215 C20.4030361,21.1095037 20.275501,20.304739 20.6928698,19.729758 Z M17.149842,19.5769654 C17.5142282,18.9658785 18.3066635,18.7644786 18.9183717,19.1276245 C19.5317552,19.4907704 19.7334241,20.2790475 19.3692473,20.8901344 C19.127789,21.2939776 18.698274,21.5193785 18.2580787,21.5193785 C18.0348398,21.5193785 17.8072031,21.4605238 17.6007176,21.3380143 C16.9875435,20.9763293 16.7871311,20.1865914 17.149842,19.5769654 Z M26.9183247,17.8704093 C27.5072064,17.4711575 28.310322,17.6224683 28.7109374,18.2093454 C29.1132282,18.7964313 28.9599347,19.5966045 28.371053,19.996065 C28.14928,20.1473758 27.895885,20.220005 27.6468877,20.220005 C27.2339167,20.220005 26.8286941,20.0231966 26.5782309,19.6571288 C26.177406,19.0702517 26.3292336,18.2698698 26.9183247,17.8704093 Z M7.29204272,18.4434911 C7.56386646,17.7869066 8.31839726,17.4736411 8.97722431,17.7460005 C9.63605136,18.016899 9.95017742,18.7686527 9.67688775,19.4252372 C9.47186814,19.919867 8.99083644,20.2195667 8.48383698,20.2195667 C8.31965376,20.2195667 8.15295753,20.1893045 7.99191557,20.1227278 C7.33308852,19.852038 7.02042838,19.1000755 7.29204272,18.4434911 Z M12.8604506,17.6942835 C13.2156225,17.0800661 14.0049166,16.8684397 14.6226978,17.2238635 C15.2390132,17.5792873 15.4515718,18.3644338 15.094934,18.9803209 C14.8564076,19.3933472 14.4224948,19.6231309 13.976017,19.6231309 C13.7573852,19.6231309 13.5358217,19.568659 13.3324774,19.4522018 C12.7146961,19.096778 12.5036034,18.3099619 12.8604506,17.6942835 Z M45.002164,16.3683001 C45.4455006,15.8131461 46.2576211,15.7206899 46.8146713,16.1625174 C47.3733969,16.604345 47.4659594,17.4134924 47.0211569,17.9688552 C46.7677618,18.2879644 46.3912294,18.4545107 46.0117651,18.4545107 C45.7294705,18.4545107 45.4455006,18.3637242 45.2086495,18.1746379 C44.6515993,17.7328104 44.5590368,16.9234542 45.002164,16.3683001 Z M37.9221815,16.6904773 C38.1104477,16.0050916 38.8210008,15.6027093 39.5087275,15.7917956 C40.1962447,15.979421 40.6000014,16.6873467 40.4102693,17.3727324 C40.2523686,17.9431219 39.7332229,18.3167031 39.1669583,18.3167031 C39.0532447,18.3167031 38.9378557,18.3016763 38.8239327,18.2714142 C38.136206,18.0823279 37.7326587,17.3741934 37.9221815,16.6904773 Z M32.9856905,15.4514611 C33.6884952,15.335004 34.3533953,15.8100155 34.4687843,16.5118888 C34.5841733,17.21251 34.1075393,17.8734772 33.4045252,17.9884734 C33.3333233,18.0005783 33.2635873,18.0051698 33.1936419,18.0051698 C32.5727194,18.0051698 32.0263495,17.5589595 31.9216408,16.9280457 C31.8062518,16.2276333 32.2828858,15.5664573 32.9856905,15.4514611 Z M36.2646639,15.2699716 C36.976683,15.3062862 37.5230529,15.9113207 37.4866143,16.6209161 C37.4501756,17.3077627 36.8809792,17.840168 36.1978598,17.840168 C36.1764992,17.840168 36.1536727,17.840168 36.1310556,17.8387071 C35.4190366,17.8023925 34.8726666,17.197358 34.9091053,16.4877626 C34.9453345,15.7781672 35.5526448,15.233657 36.2646639,15.2699716 Z M21.2803064,14.57701 C21.8115983,14.1034594 22.6268601,14.148957 23.1020282,14.6784404 C23.5771962,15.2079238 23.5315432,16.0202018 23.0002513,16.4937524 C22.7543953,16.7131009 22.4475989,16.8205837 22.1410118,16.8205837 C21.78584,16.8205837 21.4336,16.676995 21.178739,16.392322 C20.703571,15.8628386 20.7490146,15.0505605 21.2803064,14.57701 Z M42.336574,14.8947209 C42.6735266,14.2683986 43.455491,14.0338147 44.0837432,14.369829 C44.7124141,14.7056346 44.9475898,15.4847286 44.6106373,16.1110509 C44.3783934,16.5436954 43.932125,16.7887145 43.472035,16.7887145 C43.2672248,16.7887145 43.057598,16.7405038 42.8634681,16.6359428 C42.2350066,16.3001372 41.9996215,15.5210432 42.336574,14.8947209 Z M28.2692133,13.6874695 C28.9236426,13.4075967 29.6825712,13.7087573 29.9648658,14.3622112 C30.2456945,15.0142042 29.9437147,15.7707582 29.2878194,16.0506309 C29.1223797,16.1215905 28.949401,16.1549832 28.7793541,16.1549832 C28.2798936,16.1549832 27.8032597,15.8644665 27.5936329,15.3773501 C27.3113383,14.7236875 27.6149935,13.9690119 28.2692133,13.6874695 Z M18.264068,13.2956267 C18.7664603,12.7934836 19.584654,12.791814 20.0887216,13.2941658 C20.5925798,13.794848 20.5942551,14.6102566 20.0916534,15.1126084 C19.8382584,15.36368 19.5088449,15.490781 19.1779654,15.490781 C18.8468766,15.490781 18.5176725,15.3653496 18.2657434,15.1140693 C17.7616758,14.6133872 17.7600004,13.7994395 18.264068,13.2956267 Z M31.3796896,12.6753986 C32.0734893,12.5180354 32.7656137,12.9506799 32.9249804,13.642118 C33.084347,14.335017 32.6502248,15.0247855 31.9549591,15.1836097 C31.8577894,15.2048976 31.7622951,15.2155415 31.6665914,15.2155415 C31.0775003,15.2155415 30.5464179,14.8129504 30.4096683,14.2168903 C30.2503017,13.5239912 30.6844239,12.8342227 31.3796896,12.6753986 Z M23.8670508,12.6027694 C24.4636809,12.2154138 25.2636552,12.3848819 25.6521244,12.9794811 C26.0408031,13.5740803 25.8724315,14.3713316 25.2743355,14.7584786 C25.0571697,14.8993541 24.8127796,14.9673918 24.5713214,14.9673918 C24.1508113,14.9673918 23.7363743,14.7616091 23.4890524,14.3819756 C23.1003738,13.7873763 23.2704207,12.990125 23.8670508,12.6027694 Z M37.7511583,12.3650843 L37.8827063,12.3758867 C38.5886523,12.469595 39.0866468,13.1157443 38.9924089,13.8190786 C38.9059196,14.46648 38.3518012,14.9371088 37.7158006,14.9371088 C37.6582109,14.9371088 37.602087,14.9325173 37.5442878,14.9250039 C36.8368759,14.8327565 36.3405568,14.1851463 36.4345852,13.481812 C36.5271476,12.7768081 37.1769697,12.2819696 37.8827063,12.3758867 Z M43.8561902,12.2533145 C44.196284,11.6284531 44.979505,11.3969998 45.6062912,11.735936 C46.2318209,12.0748721 46.4640648,12.8554271 46.1241804,13.4802885 C45.8902612,13.9083415 45.4469246,14.1518997 44.98851,14.1518997 C44.7820244,14.1518997 44.5711411,14.1020193 44.3753359,13.9962061 C43.7483403,13.6572699 43.5160964,12.8781759 43.8561902,12.2533145 Z M14.2431498,11.6857843 C14.6774814,11.1229081 15.4864607,11.0154253 16.0527253,11.4482785 C16.6189899,11.8792534 16.7251645,12.6871486 16.2925082,13.2500248 C16.0376472,13.5812389 15.6550417,13.7538375 15.2663631,13.7538375 C14.9932828,13.7538375 14.7168519,13.6674338 14.4831421,13.4889915 C13.9168775,13.056347 13.8107029,12.2499126 14.2431498,11.6857843 Z M20.648934,11.2049081 C21.2135232,10.7722636 22.022712,10.8766159 22.4583001,11.439492 C22.8938882,12.0006985 22.7877136,12.8085938 22.222915,13.2426992 L22.222915,13.2426992 C21.9892052,13.4228113 21.7115178,13.5104672 21.4367622,13.5104672 C21.0512248,13.5104672 20.6686192,13.3380772 20.4135489,13.008324 C19.9794267,12.4454479 20.0841354,11.6390136 20.648934,11.2049081 Z M49.9239748,11.0984062 C50.3566311,10.5355301 51.1674952,10.4280473 51.7320844,10.8592308 C52.298349,11.2918753 52.4061989,12.0983097 51.9735426,12.6626467 C51.7184723,12.9923999 51.3358668,13.1664595 50.9471881,13.1664595 C50.6741079,13.1664595 50.3976769,13.0800558 50.1639671,12.9016134 C49.5977026,12.4704298 49.490062,11.6625346 49.9239748,11.0984062 Z M40.9781045,11.1897979 C41.2178874,10.5196477 41.9571307,10.1717372 42.6281039,10.4107039 C43.2990772,10.6496706 43.648176,11.3849367 43.409859,12.053626 C43.2201269,12.5801876 42.7238077,12.9084798 42.1939817,12.9084798 C42.0496932,12.9084798 41.9039387,12.8840614 41.7598595,12.8327201 C41.0886768,12.5937534 40.7395781,11.8584873 40.9781045,11.1897979 Z M29.7917824,9.94318487 C30.479509,9.75409856 31.1898527,10.15502 31.3781189,10.8404057 C31.5678511,11.5241217 31.1657697,12.2320475 30.4780431,12.4211338 C30.36412,12.4530656 30.2472651,12.4680924 30.134808,12.4680924 C29.5687528,12.4680924 29.0496072,12.0945112 28.8917065,11.5241217 C28.7019743,10.8404057 29.1040557,10.1308103 29.7917824,9.94318487 Z M37.9723579,10.5786902 C38.1059662,9.88119963 38.7815466,9.4243454 39.482676,9.55749889 C40.1825488,9.69065238 40.6409634,10.3637245 40.5073552,11.0612151 C40.3890343,11.6768935 39.8485281,12.1066161 39.2414271,12.1066161 C39.1610109,12.1066161 39.0803852,12.0991027 38.998503,12.0838673 C38.2988395,11.9507138 37.8387496,11.275972 37.9723579,10.5786902 Z M32.9918264,9.32291499 C33.6990289,9.24131152 34.339846,9.7465852 34.4217282,10.4515891 C34.5036104,11.156593 33.9966109,11.7950202 33.2877331,11.8766237 C33.2376824,11.8826761 33.1876316,11.8858067 33.1390468,11.8858067 C32.492366,11.8858067 31.9336404,11.4030731 31.8578313,10.7481583 C31.7757397,10.0414847 32.2829486,9.40451846 32.9918264,9.32291499 Z M23.2855406,9.44102089 C23.9018559,9.08392743 24.6913594,9.29263196 25.0496726,9.90684941 C25.4077763,10.5210669 25.1983589,11.307883 24.5820436,11.6647677 C24.377024,11.7828945 24.1539945,11.8388273 23.9353627,11.8388273 C23.4905602,11.8388273 23.056438,11.6088349 22.818121,11.1989392 C22.4598079,10.5847217 22.6694347,9.79644471 23.2855406,9.44102089 Z M45.8205461,9.87520981 C46.175718,9.25932272 46.9650121,9.04769632 47.5813274,9.40165921 C48.1991086,9.75708304 48.4116673,10.5438991 48.0550295,11.1581166 C47.8167125,11.5711429 47.3823809,11.8023875 46.9361125,11.8023875 C46.7174807,11.8023875 46.4959172,11.7464547 46.2940388,11.6299975 C45.6762576,11.2760347 45.4636989,10.4894273 45.8205461,9.87520981 Z M17.4059385,7.37131887 C17.9707371,6.93867437 18.7797164,7.04302663 19.2153046,7.60590277 C19.6511021,8.16710927 19.5447181,8.97479582 18.9801289,9.40910996 L18.9801289,9.40910996 C18.7464191,9.58922198 18.4685222,9.67687788 18.1937666,9.67687788 C17.8082292,9.67687788 17.4256237,9.50448794 17.1705533,9.17473477 C16.7364311,8.61185863 16.8413492,7.80542431 17.4059385,7.37131887 Z M40.1355346,7.90380762 C40.3191936,7.21696099 41.0251396,6.80873492 41.7143322,6.99009916 C42.4035248,7.17313304 42.8133545,7.87667603 42.6311614,8.56352266 C42.4778679,9.13850366 41.955581,9.51959815 41.3847092,9.51959815 C41.2741369,9.51959815 41.1631457,9.50603235 41.0523639,9.47577019 C40.3631713,9.29419725 39.9533415,8.59065425 40.1355346,7.90380762 Z M32.2571065,6.39109627 C32.962843,6.29884887 33.6109898,6.79347862 33.7052276,7.49848254 C33.7977901,8.20202554 33.3014709,8.84796608 32.595525,8.94167441 C32.5379352,8.94918778 32.480136,8.95231835 32.4240121,8.95231835 C31.7865456,8.95231835 31.2324273,8.48189832 31.1474038,7.83428814 C31.0533754,7.13074515 31.5511605,6.48480461 32.2571065,6.39109627 Z M38.463239,6.37168705 L38.5947882,6.38187153 C39.3019906,6.47119707 39.8016605,7.11567668 39.7105639,7.82068061 C39.6270064,8.46975172 39.0714221,8.94330231 38.4322803,8.94330231 C38.3776224,8.94330231 38.3214985,8.93871081 38.2668406,8.93265838 C37.5594287,8.8418719 37.0599683,8.1973923 37.1510648,7.49238837 C37.2421614,6.78884538 37.8888422,6.29129376 38.5947882,6.38187153 Z M46.9589599,6.0198109 C47.2305742,5.36322643 47.985105,5.05016963 48.6439321,5.32085941 C49.3027591,5.5917579 49.6154193,6.34351164 49.3435955,7.00009611 C49.1387853,7.4963955 48.6575442,7.79588651 48.1505448,7.79588651 C47.986571,7.79588651 47.8196653,7.76416342 47.6586233,7.6990476 C46.9997963,7.42835782 46.6871362,6.67639538 46.9589599,6.0198109 Z M27.5202321,4.03788723 C28.2339265,4.03642908 28.8121279,4.61120138 28.8135966,5.32225773 C28.8150597,6.03185315 28.2383243,6.60829508 27.5248393,6.60975602 L27.5248393,6.60975602 C26.8113543,6.60975602 26.2346189,6.03498372 26.2329407,5.3253883 C26.2314776,4.61579287 26.8084225,4.03935095 27.5202321,4.03788723 Z M36.2780525,0.000459309816 L36.4096017,0.0106437957 C37.1170136,0.0999693373 37.616474,0.744448946 37.5253774,1.44945287 C37.4418199,2.09852398 36.8862356,2.57207457 36.2470938,2.57207457 C36.1924359,2.57207457 36.136312,2.56748307 36.0816541,2.56143064 C35.3742422,2.47064417 34.8747817,1.82616456 34.9658783,1.12116063 C35.0569749,0.417617642 35.7036557,-0.0799339732 36.4096017,0.0106437957 Z" id="Combined-Shape" fill="#9A9EC3"></path>
                <path d="M23.1148284,58.0652423 C23.4698433,57.4496756 24.2555455,57.2390485 24.8707238,57.595253 C25.4842345,57.9499935 25.6941581,58.7383288 25.3391433,59.3555688 C25.1019108,59.7678291 24.6697642,60 24.2269859,60 C24.0078898,60 23.7873345,59.9437352 23.5847071,59.8270222 C22.9711965,59.4708176 22.7610644,58.6824823 23.1148284,58.0652423 Z M35.0867913,52.0571189 C35.7953617,52.0571189 36.371143,52.6331538 36.371143,53.3457721 C36.3725995,54.0569263 35.7970294,54.6346345 35.0882505,54.6346345 C34.3782209,54.6346345 33.8039016,54.0583904 33.8022338,53.3472363 C33.8022338,52.6348271 34.3765532,52.0571189 35.0867913,52.0571189 Z M45.8895817,49.1521168 C46.5030924,48.7959122 47.2887946,49.0065394 47.6440179,49.6221061 C47.9990327,50.2376728 47.7905683,51.0260081 47.1770577,51.3824218 C46.9729711,51.5005989 46.7524158,51.5566546 46.5333197,51.5566546 C46.0905414,51.5566546 45.659854,51.3263661 45.4211623,50.9138967 C45.0661475,50.2968659 45.2746118,49.5083214 45.8895817,49.1521168 Z M28.5723631,49.2961464 C28.7597726,48.6092552 29.4654245,48.2059889 30.1500215,48.3925623 C30.8346185,48.5805998 31.237997,49.2900807 31.0505875,49.9755079 C30.8950731,50.5484053 30.3766222,50.9261537 29.813143,50.9261537 C29.6997384,50.9261537 29.5863338,50.9108848 29.4731377,50.879092 C28.7885407,50.6925186 28.3851621,49.9830377 28.5723631,49.2961464 Z M20.1238025,47.8224467 C20.5561576,47.2583341 21.3614555,47.1522885 21.9251431,47.5844192 C22.4873715,48.0180141 22.593063,48.8276841 22.1609163,49.3917967 C21.908466,49.7220651 21.52781,49.896507 21.1409002,49.896507 C20.8688542,49.896507 20.5938897,49.8086585 20.3612434,49.629615 C19.7975558,49.1960201 19.6918643,48.3880235 20.1238025,47.8224467 Z M37.1781475,45.8680904 C37.8808809,45.772503 38.5275374,46.2669643 38.6228056,46.9733077 C38.7178654,47.6783962 38.2238048,48.3274289 37.5212799,48.4213431 C37.4622845,48.4305463 37.4047483,48.4334746 37.3474206,48.4334746 C36.7141059,48.4334746 36.1627176,47.9634853 36.0766218,47.31759 C35.9813536,46.6110374 36.4754142,45.9620046 37.1781475,45.8680904 Z M30.0775384,46.5943044 C30.2345121,45.8998832 30.922236,45.4648242 31.6143377,45.6225331 C32.3064394,45.7800328 32.7400453,46.4700615 32.5828632,47.1644827 C32.4484037,47.7618522 31.9180703,48.1680467 31.3316601,48.1680467 C31.2366003,48.1680467 31.1413321,48.1575886 31.0460639,48.136254 C30.3539622,47.9785451 29.9203563,47.2887255 30.0775384,46.5943044 Z M20.8795275,44.4324166 C21.3508655,43.9000967 22.1638765,43.8530351 22.6927506,44.3261618 C23.223084,44.7992885 23.2699885,45.614815 22.7984421,46.1454615 C22.5445325,46.432224 22.1926446,46.5775922 21.839089,46.5775922 C21.5353564,46.5775922 21.2299561,46.4700825 20.985219,46.2517163 C20.4548856,45.7785896 20.4079811,44.9630631 20.8795275,44.4324166 Z M40.9619635,41.503047 C41.5890243,41.1679679 42.3672218,41.4074595 42.6997225,42.0353668 C43.0322231,42.6645291 42.7947822,43.4438704 42.1677214,43.7787404 C41.9759342,43.8803936 41.7703883,43.9289194 41.5663017,43.9289194 C41.1070547,43.9289194 40.6626086,43.6818979 40.4316301,43.2451656 C40.0991295,42.6174674 40.3363619,41.836662 40.9619635,41.503047 Z M14.6008726,40.758615 C15.2143832,40.4024104 16.0000854,40.6115734 16.356768,41.2271401 C16.7117828,41.8427068 16.5033184,42.6312513 15.8883485,42.98892 C15.6859296,43.1070971 15.4651658,43.1633619 15.2460698,43.1633619 C14.8032915,43.1633619 14.3711448,42.9328643 14.1339124,42.5203949 C13.7772298,41.9048282 13.9873619,41.1164928 14.6008726,40.758615 Z M24.1449551,38.9924217 C24.6586113,38.502562 25.4716224,38.5238966 25.9598459,39.0407384 C26.447861,39.5563251 26.4265977,40.3720608 25.9129414,40.8617114 C25.6636181,41.0982747 25.3463353,41.2164518 25.0288441,41.2164518 C24.6888387,41.2164518 24.3490417,41.0815417 24.0965914,40.8146497 C23.6085763,40.297808 23.6296312,39.4820723 24.1449551,38.9924217 Z M8.93453998,38.2231411 C9.62059622,38.0380319 10.3247889,38.4458997 10.5076121,39.1342551 C10.6918946,39.8211464 10.2855976,40.527699 9.60100057,40.7125991 C9.4890552,40.7429277 9.3773183,40.7565233 9.26704065,40.7565233 C8.70043449,40.7565233 8.18052435,40.37752 8.02792843,39.8014851 C7.84364593,39.1145938 8.25015145,38.4080412 8.93453998,38.2231411 Z M16.1285203,36.6590412 C16.7872677,36.3921492 17.5354463,36.7104953 17.8014469,37.3699862 C18.067239,38.0311504 17.7499562,38.7816272 17.092668,39.0483101 C16.9354859,39.1121048 16.7722583,39.1424334 16.6121577,39.1424334 C16.1043384,39.1424334 15.6223688,38.8391471 15.4199499,38.337365 C15.1539494,37.6778741 15.4712322,36.925724 16.1285203,36.6590412 Z M15.1252438,30.6337455 C15.832355,30.5791539 16.4504518,31.1098005 16.504861,31.8192813 C16.5592702,32.5289714 16.0303961,33.1491397 15.3230765,33.2035221 C15.2884714,33.2051954 15.2551171,33.2066595 15.2234306,33.2066595 C14.5586377,33.2066595 13.9947416,32.692746 13.9434593,32.0165221 C13.8890501,31.306832 14.4179242,30.688337 15.1252438,30.6337455 Z M1.28289696,29.9025535 C1.99146736,29.9025535 2.56724595,30.4787975 2.5687052,31.1899517 C2.5687052,31.9025701 1.99459432,32.4800691 1.28581547,32.4800691 L1.28581547,32.4800691 C0.574118105,32.4800691 3.60716381e-06,31.9040342 3.60716381e-06,31.19288 C-0.00166048493,30.4817258 0.572658855,29.9042268 1.28289696,29.9025535 Z M21.3101737,27.5893983 L21.4414641,27.5967825 C22.1473245,27.6727086 22.6580622,28.3064725 22.5823896,29.0144892 C22.512971,29.6754443 21.9553288,30.1667682 21.3070046,30.1667682 C21.2617678,30.1667682 21.2163226,30.165304 21.1696266,30.1607025 C20.4637662,30.0849855 19.953237,29.4495483 20.0287011,28.7415315 C20.1041652,28.0349789 20.7360207,27.5210655 21.4414641,27.5967825 Z M22.0988982,22.5509343 C22.4645447,21.9414334 23.2533739,21.7444018 23.860839,22.1112737 C24.4683042,22.4783548 24.6648861,23.2698276 24.3004904,23.8807927 C24.0588802,24.2825948 23.6342383,24.5053534 23.1975054,24.5053534 C22.9723639,24.5053534 22.7440954,24.4446961 22.5370903,24.3204533 C21.9296251,23.9533722 21.7332517,23.1621086 22.0988982,22.5509343 Z M12.7104134,21.1031499 C12.9810002,20.4451231 13.7318888,20.1311695 14.3877177,20.4041272 C15.0435467,20.6756208 15.3564517,21.4290259 15.0844057,22.0870527 C14.880319,22.582769 14.4014764,22.883127 13.8967842,22.883127 C13.7333481,22.883127 13.567202,22.8527984 13.4071013,22.7860754 C12.7512724,22.514791 12.4398267,21.7611767 12.7104134,21.1031499 Z M43.0396445,18.9273946 C43.4976407,18.3831525 44.3075248,18.3164295 44.8499491,18.7757514 C45.3909141,19.2367467 45.4574142,20.0493449 44.9996265,20.5921229 C44.7457169,20.8939451 44.3831973,21.0485166 44.0188016,21.0485166 C43.7257007,21.0485166 43.4311406,20.9485366 43.1893219,20.7437661 C42.6483569,20.2827708 42.5803975,19.4701726 43.0396445,18.9273946 Z M22.506863,17.2126345 C23.0192684,16.7198465 23.832071,16.7380437 24.323213,17.250493 C24.8128958,17.7646157 24.7962187,18.5801422 24.2838132,19.0729302 C24.0361576,19.312631 23.7157478,19.4322723 23.3953381,19.4322723 C23.0584597,19.4322723 22.7199135,19.2988263 22.4691309,19.0350717 C21.9779888,18.5211582 21.994666,17.7054226 22.506863,17.2126345 Z M29.4519368,16.2665903 C30.109225,16.0028358 30.8571951,16.322646 31.1217364,16.9838102 C31.38461,17.6447653 31.0642003,18.3952421 30.4069121,18.6589967 C30.24973,18.7227914 30.0879616,18.7516559 29.9295287,18.7516559 C29.4202502,18.7516559 28.9380722,18.4454412 28.7371125,17.9419859 C28.4727797,17.2808217 28.792981,16.5320182 29.4519368,16.2665903 Z M15.8656259,15.6129978 C16.2977725,15.0490943 17.1032789,14.9413754 17.6669665,15.3751795 C18.2304457,15.807101 18.3363456,16.616771 17.9056582,17.1808836 C17.6517486,17.5128253 17.2708842,17.6855939 16.8841828,17.6855939 C16.6121368,17.6855939 16.3371723,17.5992096 16.1043176,17.4203752 C15.5406299,16.9867803 15.4349385,16.1785745 15.8656259,15.6129978 Z M39.03815,13.8527866 C39.2557868,13.1750985 39.9797836,12.803625 40.6552082,13.0219912 C41.3306327,13.2403573 41.7008654,13.9665713 41.4832286,14.6442594 C41.3079101,15.1901748 40.8032179,15.5373854 40.2607936,15.5373854 C40.1309203,15.5373854 39.99792,15.5175149 39.866379,15.4750548 C39.1909544,15.2566886 38.8207217,14.5290106 39.03815,13.8527866 Z M26.3723135,10.9706042 C27.0191785,10.6779851 27.7792396,10.9660026 28.0706728,11.6150354 C28.3623144,12.263859 28.075259,13.0281406 27.4286025,13.3205504 C27.2562025,13.3979407 27.0779654,13.4343351 26.9011876,13.4343351 C26.4115048,13.4343351 25.9430854,13.1523834 25.7285756,12.6748643 C25.4369339,12.0258315 25.7254486,11.2632232 26.3723135,10.9706042 Z M35.8483325,9.11495191 C36.5571113,9.14067896 37.1116266,9.73804848 37.0859854,10.4489935 C37.0603443,11.1448788 36.4906112,11.6907942 35.8030957,11.6907942 L35.8030957,11.6907942 L35.7561912,11.6907942 C35.0474124,11.6650672 34.4928971,11.0676976 34.5185383,10.3565435 C34.5441794,9.64559843 35.1397621,9.0890157 35.8483325,9.11495191 Z M42.6165035,8.62205931 C42.8870902,7.96403253 43.6381874,7.65028804 44.2940163,7.92157244 C44.9498452,8.19306601 45.2610825,8.94647112 44.9904957,9.6044979 C44.7864091,10.1018875 44.3075665,10.4020364 43.8028742,10.4020364 C43.6396466,10.4020364 43.4735005,10.3702436 43.3131914,10.3049848 C42.6573625,10.0337004 42.3461252,9.2800861 42.6165035,8.62205931 Z M53.648021,5.23426719 C53.9183993,4.57624041 54.6694964,4.26249591 55.3253254,4.53378032 C55.9811543,4.80527389 56.2923916,5.558679 56.0218048,6.21670578 C55.8177182,6.71409538 55.3388755,7.01424428 54.8341833,7.01424428 C54.6709557,7.01424428 54.5048096,6.98245151 54.3445005,6.91719265 C53.6886716,6.64590825 53.3774343,5.89229397 53.648021,5.23426719 Z M19.5286159,1.36885136 C20.1421265,1.01097348 20.9280372,1.22013647 21.2845113,1.83570317 C21.6411938,2.45126987 21.4327294,3.23981436 20.8192188,3.59748308 C20.6151322,3.71586934 20.3929092,3.77192502 20.1754808,3.77192502 C19.7327025,3.77192502 19.3005559,3.5414274 19.0633234,3.13063128 C18.7066409,2.51506458 18.9153137,1.72505595 19.5286159,1.36885136 Z" id="Combined-Shape" fill="#99CA80"></path>
                <path d="M41.4996075,54.8408658 C42.1561071,54.5686164 42.9079724,54.8786261 43.1802967,55.5349453 C43.4524122,56.1898043 43.142526,56.9429233 42.4860264,57.2151727 C42.3240926,57.2815139 42.1575679,57.3134328 41.9927126,57.3134328 C41.4889649,57.3134328 41.0110933,57.0153145 40.8053372,56.5208846 C40.5330129,55.8645653 40.8445686,55.1131152 41.4996075,54.8408658 Z M28.0818689,52.3150798 C28.2648791,51.6285106 28.969792,51.2217011 29.6565499,51.4046611 C30.341847,51.587621 30.7502291,52.2908798 30.5670102,52.977449 C30.4142582,53.5519892 29.894025,53.931678 29.3251699,53.931678 C29.2164489,53.931678 29.104389,53.917909 28.9939986,53.8876591 C28.3072407,53.7046992 27.8988587,53.001649 28.0818689,52.3150798 Z M53.1544796,49.8897444 C53.7172831,49.4572747 54.5248653,49.5632537 54.9576626,50.1256939 C55.3902512,50.6883427 55.2844516,51.495703 54.7216482,51.9281727 C54.488764,52.108212 54.2133096,52.1943721 53.9395247,52.1943721 C53.5538885,52.1943721 53.1711738,52.0220518 52.9184653,51.6922232 C52.4858767,51.1297831 52.5918849,50.3222141 53.1544796,49.8897444 Z M41.5579955,48.0399505 C42.2251377,47.7994114 42.9617695,48.1473899 43.2021661,48.8158092 C43.4427713,49.4825594 43.0963666,50.2189889 42.4277636,50.459528 C42.2839847,50.5108486 42.1372844,50.5365088 41.9935056,50.5365088 C41.46576,50.5365088 40.9709854,50.2100182 40.783593,49.6851297 C40.5429877,49.0169191 40.8893925,48.280281 41.5579955,48.0399505 Z M25.9309457,48.1625149 C26.2214248,47.5151663 26.9822633,47.2247669 27.6295811,47.5151663 C28.2771076,47.8055657 28.5673782,48.566195 28.2771076,49.213335 C28.0636305,49.691284 27.594732,49.974173 27.1032963,49.974173 C26.9275898,49.974173 26.7491704,49.9378731 26.5782635,49.8606836 C25.9309457,49.5702842 25.6404665,48.8111152 25.9309457,48.1625149 Z M18.1347306,45.8063997 C18.6368088,45.3042508 19.4506514,45.3042508 19.9529383,45.8049394 L19.9529383,45.8049394 C20.4550165,46.3068796 20.4550165,47.1204985 19.954399,47.6241078 C19.7033599,47.8750779 19.3736493,48.0006673 19.0439388,48.0006673 C18.7154803,48.0006673 18.3874391,47.8750779 18.1361913,47.6241078 C17.6324436,47.1236279 17.6324436,46.3100089 18.1347306,45.8063997 Z M24.8764979,43.8918292 C25.2667249,43.2991391 26.0655427,43.1357895 26.6583957,43.5273697 C27.2499966,43.9176981 27.4131825,44.7160878 27.0214947,45.3073175 C26.7748378,45.6824167 26.364995,45.8849869 25.9476399,45.8849869 C25.7055739,45.8849869 25.458917,45.8169767 25.2410576,45.6717771 C24.6482046,45.2816572 24.4848101,44.4847279 24.8764979,43.8918292 Z M31.7408633,43.9690813 C31.8558446,43.2687432 32.5154744,42.7924632 33.2157964,42.9059526 C33.917579,43.019442 34.3939899,43.6801423 34.2792173,44.3802718 C34.1778,45.0109307 33.6316908,45.4600901 33.011501,45.4600901 C32.9434721,45.4600901 32.8754432,45.4555005 32.8059536,45.4434005 C32.1039622,45.3301197 31.6275513,44.6692108 31.7408633,43.9690813 Z M44.9795773,42.694203 C45.5331989,42.2510937 46.3424506,42.3403831 46.7856818,42.895313 C47.2289129,43.4502428 47.1381382,44.2594807 46.5845166,44.7023814 C46.3470415,44.8913914 46.0640747,44.9838101 45.7827773,44.9838101 C45.4046536,44.9838101 45.0311207,44.8173312 44.7769514,44.4998112 C44.3337202,43.9463417 44.424495,43.1373124 44.9795773,42.694203 Z M13.5726423,38.1045788 C14.2274725,37.830869 14.9807985,38.1408787 15.2531228,38.7971979 C15.525447,39.4520569 15.2153521,40.2051759 14.5603132,40.4772167 C14.3985881,40.5454355 14.2306027,40.5771458 14.0672081,40.5771458 C13.5634605,40.5771458 13.0839194,40.2777757 12.878372,39.7845975 C12.6060477,39.1282782 12.9161426,38.3768282 13.5726423,38.1045788 Z M18.6187999,33.7690539 C19.3040971,33.580044 20.0119314,33.9808035 20.2009933,34.6642433 C20.3900552,35.3493522 19.9891856,36.056992 19.3040971,36.246002 C19.1891157,36.2777122 19.0739257,36.2929415 18.9606138,36.2929415 C18.3980191,36.2929415 17.8807073,35.9195113 17.7233645,35.3493522 C17.5326332,34.6659123 17.9349635,33.9580639 18.6187999,33.7690539 Z M12.3170502,29.2368211 C13.0265539,29.2368211 13.6029214,29.8115698 13.6043821,30.5208786 C13.6043821,31.2316477 13.0294754,31.8076482 12.3201803,31.8076482 L12.3201803,31.8076482 C11.6077551,31.8076482 11.0328456,31.2331081 11.0328456,30.5237993 C11.0313876,29.8144905 11.6060857,29.23849 12.3170502,29.2368211 Z M17.7111986,25.6831214 C17.8987997,24.9996815 18.606634,24.5957928 19.2919312,24.7833423 C19.9755589,24.9708919 20.3795587,25.6785318 20.1919576,26.3636406 C20.0346147,26.9337997 19.517303,27.3086903 18.9515781,27.3086903 C18.8395182,27.3086903 18.7245369,27.2936696 18.6112249,27.2634197 C17.9275972,27.0758701 17.5235974,26.3682303 17.7111986,25.6831214 Z M8.40142413,24.9768793 C8.58443436,24.2903101 9.28788647,23.8820403 9.97464437,24.0650003 C10.6611936,24.2479602 11.0697843,24.951219 10.8867741,25.6377882 C10.7340221,26.212537 10.2135802,26.5934775 9.64472513,26.5920214 C9.53579543,26.5920214 9.42394425,26.5784569 9.31355381,26.5496673 C8.62679591,26.3667073 8.21987464,25.6634485 8.40142413,24.9768793 Z M40.580821,17.6382454 C40.9119923,17.0105071 41.6909857,16.7716369 42.3188965,17.1027172 C42.9465987,17.4354665 43.1855345,18.2127855 42.8543632,18.8403152 C42.6229397,19.2759142 42.1767871,19.525424 41.715401,19.525424 C41.5125664,19.525424 41.3070189,19.4770241 41.1162876,19.3756347 C40.4885855,19.0445544 40.2479802,18.265775 40.580821,17.6382454 Z M18.8607407,17.0226696 C19.3114843,16.4737898 20.1221967,16.3966003 20.6697666,16.84722 C21.219006,17.2978397 21.296008,18.1083293 20.8452645,18.6574178 C20.5910952,18.9657585 20.223614,19.1247271 19.8515418,19.1247271 C19.5641928,19.1247271 19.2751744,19.0293877 19.0362386,18.8311984 C18.4869992,18.3805787 18.4085364,17.5700891 18.8607407,17.0226696 Z M25.2077944,15.3425257 C25.7991866,14.9509455 26.596335,15.1111659 26.9896922,15.7040646 C27.3815887,16.2952943 27.2211156,17.0922236 26.6282626,17.4852641 C26.4104033,17.6304638 26.1637464,17.700143 25.9187589,17.700143 C25.5028645,17.700143 25.0944825,17.4973641 24.8463648,17.1253942 C24.454677,16.5327042 24.6149414,15.7357749 25.2077944,15.3425257 Z M46.2743591,13.8499314 C46.7040262,13.2843619 47.5101477,13.1740018 48.0758726,13.6050112 L48.0758726,13.6050112 C48.6418062,14.0345603 48.7505272,14.8404603 48.3210688,15.4060297 C48.0683602,15.7373187 47.6841848,15.9125597 47.2968792,15.9125597 C47.0262244,15.9125597 46.7524394,15.8278598 46.5195552,15.6509499 C45.9536217,15.2199405 45.8449006,14.4140405 46.2743591,13.8499314 Z M34.400292,12.3422538 C35.1095871,12.3105436 35.7101612,12.857963 35.7433409,13.5672718 C35.7750599,14.276372 35.2260292,14.8782414 34.5181948,14.9099517 L34.5181948,14.9099517 L34.4576783,14.9116206 C33.7740506,14.9116206 33.2051955,14.3746322 33.1749373,13.6851423 C33.1415489,12.9758335 33.6907883,12.3754244 34.400292,12.3422538 Z M10.3118465,10.1295859 C10.812464,9.62764562 11.6277673,9.62597666 12.1300542,10.1281256 C12.6321324,10.6286055 12.6338019,11.4436848 12.1329757,11.9458337 C11.8804758,12.1968038 11.552226,12.3238535 11.2225154,12.3238535 C10.8925962,12.3238535 10.564555,12.1984728 10.3135159,11.947294 C9.81122896,11.4468141 9.80955954,10.6331952 10.3118465,10.1295859 Z M25.9428611,8.14124732 C26.5979001,7.86920653 27.3512261,8.17900758 27.6235503,8.8338665 C27.8973353,9.48872541 27.5872404,10.2418445 26.9307408,10.5155542 C26.768807,10.5821041 26.602491,10.6138143 26.4376357,10.6138143 C25.933888,10.6138143 25.4558077,10.3159046 25.2502603,9.82293502 C24.9764753,9.16661577 25.2863615,8.41495707 25.9428611,8.14124732 Z M28.9409945,7.11896645 C29.6262916,6.93454616 30.3312045,7.34135562 30.5156755,8.02646447 C30.7001464,8.71303366 30.2948946,9.41775281 29.6081367,9.60217309 C29.4960768,9.63242303 29.3842257,9.64598334 29.2738352,9.64598334 C28.7066496,9.64598334 28.1876684,9.26796348 28.0334557,8.6948837 C27.8487761,8.00977485 28.2542366,7.30359536 28.9409945,7.11896645 Z M35.2032416,6.29030324 C35.9144148,6.28884568 36.4905736,6.86359442 36.492245,7.57415494 C36.493495,8.28346373 35.9190057,8.85967282 35.2078325,8.86113316 L35.2078325,8.86113316 C34.4970767,8.86113316 33.92217,8.28659304 33.9207064,7.57728424 C33.9192485,6.86797544 34.4939465,6.29176636 35.2032416,6.29030324 Z M43.0327616,3.48256974 C43.3036251,2.82625048 44.0554904,2.51332013 44.7117814,2.78390057 C45.3682811,3.05468964 45.6798367,3.80613972 45.4091819,4.46245898 C45.2048865,4.95855789 44.7255541,5.25792793 44.2203457,5.25792793 C44.0567425,5.25792793 43.8904265,5.22621765 43.7301621,5.16112814 C43.0736624,4.8905477 42.7621068,4.13888899 43.0327616,3.48256974 Z" id="Combined-Shape" fill="#E689AA"></path>
            </g>
        </g>
    </g>
</svg>