<?xml version="1.0" encoding="UTF-8"?>
<svg width="16px" height="16px" viewBox="0 0 16 16" version="1.1" xmlns="http://www.w3.org/2000/svg" xmlns:xlink="http://www.w3.org/1999/xlink">
    <title>4B3381BD-5DFF-4E5A-8796-BDF6E94DE794</title>
    <g id="desktop" stroke="none" stroke-width="1" fill="none" fill-rule="evenodd">
        <g id="01.03.02-Common-page---Discussions-scrolled" transform="translate(-1006.000000, -580.000000)" fill="#FF603E" fill-rule="nonzero">
            <g id="Group" transform="translate(120.000000, 40.000000)">
                <g id="Group-7" transform="translate(821.000000, 412.000000)">
                    <g id="components/common-profile/latest/proposal---regular" transform="translate(0.000000, 44.000000)">
                        <g id="Group-4" transform="translate(16.000000, 84.000000)">
                            <g id="Group-2" transform="translate(49.000000, 0.000000)">
                                <g id="Combined-Shape-2" transform="translate(1.333333, 1.333333)">
                                    <path d="M6.66666667,0 C10.3428141,0 13.3333333,2.99051922 13.3333333,6.66666667 C13.3333333,10.3428141 10.3428141,13.3333333 6.66666667,13.3333333 C2.99051922,13.3333333 0,10.3428141 0,6.66666667 C0,2.99051922 2.99051922,0 6.66666667,0 Z M6.66666667,0.833333333 C3.45001221,0.833333333 0.833333333,3.45001221 0.833333333,6.66666667 C0.833333333,9.88332112 3.45001221,12.5 6.66666667,12.5 C9.88332112,12.5 12.5,9.88332112 12.5,6.66666667 C12.5,3.45001221 9.88332112,0.833333333 6.66666667,0.833333333 Z M9.02445474,4.30887859 C9.18721516,4.47163901 9.18721516,4.73551432 9.02445474,4.89837646 L7.256,6.667 L9.0238444,8.43444823 C9.18670654,8.59720865 9.18670654,8.86108398 9.0238444,9.0238444 C8.94226073,9.10502115 8.83555094,9.14550781 8.72884115,9.14550781 C8.62223307,9.14550781 8.51552328,9.10502115 8.43444823,9.02333578 L6.667,7.256 L4.89939372,9.02333578 C4.81719971,9.10502115 4.71059164,9.14550781 4.60449219,9.14550781 C4.4977824,9.14550781 4.3910726,9.10502115 4.30999755,9.02333578 C4.14723714,8.86057536 4.14723714,8.59670003 4.30999755,8.43393961 L6.077,6.666 L4.30948893,4.8988851 C4.1466268,4.73612469 4.1466268,4.47224935 4.30948893,4.30948893 C4.47224935,4.1466268 4.73612469,4.1466268 4.8988851,4.30948893 L6.666,6.077 L8.43495687,4.30887859 C8.59781901,4.14611818 8.86169432,4.14611818 9.02445474,4.30887859 Z" id="Combined-Shape"></path>
                                </g>
                            </g>
                        </g>
                    </g>
                </g>
            </g>
        </g>
    </g>
</svg>