<?xml version="1.0" encoding="UTF-8"?>
<svg width="24px" height="24px" viewBox="0 0 24 24" version="1.1" xmlns="http://www.w3.org/2000/svg" xmlns:xlink="http://www.w3.org/1999/xlink">
    <title>A452B913-EE66-417B-8200-803EC249B9BF</title>
    <g id="Symbols" stroke="none" stroke-width="1" fill="none" fill-rule="evenodd">
        <g id="icons/user-rejected" fill="#FF603E" fill-rule="nonzero">
            <path d="M21.7538499,12.246174 C22.08205,12.5744061 22.08205,13.1065523 21.7538499,13.4349895 L18.187,17.001 L21.7526192,20.5660362 C22.0810244,20.8942682 22.0810244,21.4264145 21.7526192,21.7546465 C21.5881089,21.9183522 21.3729327,22 21.1577566,22 C20.9427855,22 20.7276094,21.9183522 20.5641246,21.7536208 L16.999,18.189 L13.4358241,21.7536208 C13.270083,21.9183522 13.055112,22 12.8411665,22 C12.6259904,22 12.4108142,21.9183522 12.2473295,21.7536208 C11.9191294,21.4253888 11.9191294,20.8932425 12.2473295,20.5650104 L15.811,17.001 L12.2463039,13.4360153 C11.9178987,13.1077832 11.9178987,12.575637 12.2463039,12.2474049 C12.574504,11.9189677 13.1065984,11.9189677 13.4347985,12.2474049 L16.999,15.812 L20.5651503,12.246174 C20.8935555,11.917942 21.4256499,11.917942 21.7538499,12.246174 Z M6.2850991,9.43219808 C7.0838998,9.88462198 8.0111646,10.1428571 9,10.1428571 C9.95340213,10.1428571 10.8495672,9.90279725 11.6289411,9.48101604 L11.6938111,9.44520575 L12.1858957,9.47177174 C13.6255055,9.55834719 14.7159751,9.70682006 14.9350269,9.91719034 C15.3152827,10.2823756 15.699512,11.7958372 15.8852567,13.2845877 L14.1419443,11.5403371 C13.4233778,10.8212515 12.2577245,10.8212515 11.5389418,11.5405535 L11.4258075,11.6642675 C10.8224252,12.3870426 10.8601598,13.4644428 11.5393836,14.1433085 L14.1913815,16.7958107 C10.7824637,17.1525361 2.85018293,17.0418533 2.24823504,16.463762 C1.50374514,15.7487781 2.6357118,10.6321743 3.00795675,9.91719034 C3.13654202,9.6702121 4.51063341,9.50854801 6.2850991,9.43219808 Z M9,1 C11.147774,1 12.8888889,2.70558191 12.8888889,4.80952381 C12.8888889,6.91346571 11.147774,8.61904762 9,8.61904762 C6.85222597,8.61904762 5.11111111,6.91346571 5.11111111,4.80952381 C5.11111111,2.70558191 6.85222597,1 9,1 Z" id="Shape"></path>
        </g>
    </g>
</svg>