<?xml version="1.0" encoding="UTF-8"?>
<svg width="24px" height="24px" viewBox="0 0 24 24" version="1.1" xmlns="http://www.w3.org/2000/svg" xmlns:xlink="http://www.w3.org/1999/xlink">
    <title>3626E0BF-F9A6-488B-A7B7-330544302B6F</title>
    <g id="desktop" stroke="none" stroke-width="1" fill="none" fill-rule="evenodd">
        <g id="01.04.01-Common-page---Proposals" transform="translate(-266.000000, -913.000000)" fill="#6EE569">
            <g id="Active-Proposal" transform="translate(120.000000, 743.000000)">
                <g id="up" transform="translate(40.000000, 56.000000)">
                    <g id="icons/user-approved" transform="translate(106.000000, 114.000000)">
                        <path d="M22.7265981,11.2471735 C23.091134,11.5767382 23.091134,12.111045 22.7265981,12.4406097 L14.6386864,19.7526205 C14.4545957,19.9180208 14.2158248,20 13.9768259,20 C13.7378271,20 13.4990561,19.9180208 13.3172438,19.7526205 L9.2734019,16.0967181 C8.90886604,15.7669474 8.90886604,15.2326406 9.2734019,14.9030759 C9.63793777,14.5735112 10.2289416,14.5735112 10.5937053,14.9030759 L13.9779651,17.9628782 L21.4065226,11.2471735 C21.7710584,10.9176088 22.3620622,10.9176088 22.7265981,11.2471735 Z M5.2850991,9.43219808 C6.0838998,9.88462198 7.0111646,10.1428571 8,10.1428571 C8.95340213,10.1428571 9.84956716,9.90279725 10.6289411,9.48101604 L10.6938111,9.44520575 L11.1858957,9.47177174 C12.6255055,9.55834719 13.7159751,9.70682006 13.9350269,9.91719034 C14.5497875,10.5075864 15.1749339,14.0992647 14.9549545,15.7356239 L13.978,16.615 L11.2643598,14.1613061 C10.5185625,13.4874767 9.34807892,13.4874767 8.60277224,14.1612836 C7.79911434,14.8878439 7.79911434,16.1114962 8.60254172,16.838302 L8.77727051,16.9961474 L7.59811766,16.9991755 C4.55126712,16.9857076 1.60588394,16.8072364 1.24823504,16.463762 C0.50374514,15.7487781 1.6357118,10.6321743 2.00795675,9.91719034 C2.13654202,9.6702121 3.51063341,9.50854801 5.2850991,9.43219808 Z M8,1 C10.147774,1 11.8888889,2.70558191 11.8888889,4.80952381 C11.8888889,6.91346571 10.147774,8.61904762 8,8.61904762 C5.85222597,8.61904762 4.11111111,6.91346571 4.11111111,4.80952381 C4.11111111,2.70558191 5.85222597,1 8,1 Z" id="Shape"></path>
                    </g>
                </g>
            </g>
        </g>
    </g>
</svg>