<svg xmlns="http://www.w3.org/2000/svg" width="32" height="32" viewBox="0 0 32 32">
    <g fill="none" fill-rule="evenodd" opacity=".8">
        <g fill="#001A36">
            <g>
                <g>
                    <g>
                        <path d="M23.461 18.829c-.05.143-.1.296-.156.447-.468 1.267-1.177 2.39-2.039 3.42-.166.201-.36.383-.56.551-.395.335-.85.537-1.376.556-.395.012-.775-.06-1.14-.208-.266-.109-.526-.23-.795-.327-.872-.317-1.74-.275-2.597.064-.309.122-.614.257-.93.363-.364.123-.743.173-1.13.1-.336-.063-.63-.22-.904-.422-.34-.251-.624-.557-.89-.881-1.263-1.54-2.11-3.28-2.519-5.229-.176-.838-.26-1.683-.209-2.54.061-1.026.3-2.004.849-2.886.688-1.107 1.66-1.833 2.938-2.132.77-.181 1.517-.108 2.25.175.386.148.773.294 1.16.439.357.134.712.134 1.07-.003.395-.15.79-.301 1.187-.448.407-.149.821-.27 1.253-.304.646-.053 1.276.031 1.89.237.869.29 1.576.805 2.11 1.554l.04.06c-1.346.94-2.113 2.18-2.002 3.859.113 1.68 1.017 2.817 2.5 3.555zm-7.555-9.473c.398.01.78-.066 1.147-.212 1.678-.666 2.555-2.441 2.53-3.799-.003-.11-.01-.218-.015-.345-.173.026-.33.038-.481.076-1.225.3-2.168.984-2.787 2.09-.363.649-.564 1.337-.503 2.089.005.08.034.1.11.1z" transform="translate(-546.000000, -563.000000) translate(530.000000, 162.000000) translate(0.000000, 389.000000) translate(16.000000, 12.000000)"/>
                    </g>
                </g>
            </g>
        </g>
    </g>
</svg>
