<svg xmlns="http://www.w3.org/2000/svg" width="32" height="32" viewBox="0 0 32 32">
    <g fill="none" fill-rule="evenodd" opacity=".8">
        <g>
            <g>
                <g>
                    <g>
                        <g>
                            <path fill="#4285F4" d="M17.64 9.205c0-.639-.057-1.252-.164-1.841H9v3.481h4.844c-.209 1.125-.843 2.078-1.796 2.716v2.259h2.908c1.702-1.567 2.684-3.875 2.684-6.615z" transform="translate(-546.000000, -491.000000) translate(530.000000, 162.000000) translate(0.000000, 317.000000) translate(16.000000, 12.000000) translate(7.000000, 7.000000)"/>
                            <path fill="#34A853" d="M9 18c2.43 0 4.467-.806 5.956-2.18l-2.908-2.259c-.806.54-1.837.86-3.048.86-2.344 0-4.328-1.584-5.036-3.711H.957v2.332C2.438 15.983 5.482 18 9 18z" transform="translate(-546.000000, -491.000000) translate(530.000000, 162.000000) translate(0.000000, 317.000000) translate(16.000000, 12.000000) translate(7.000000, 7.000000)"/>
                            <path fill="#FBBC05" d="M3.964 10.71c-.18-.54-.282-1.117-.282-1.71s.102-1.17.282-1.71V4.958H.957C.347 6.173 0 7.548 0 9s.348 2.827.957 4.042l3.007-2.332z" transform="translate(-546.000000, -491.000000) translate(530.000000, 162.000000) translate(0.000000, 317.000000) translate(16.000000, 12.000000) translate(7.000000, 7.000000)"/>
                            <path fill="#EA4335" d="M9 3.58c1.321 0 2.508.454 3.44 1.345l2.582-2.58C13.463.891 11.426 0 9 0 5.482 0 2.438 2.017.957 4.958L3.964 7.29C4.672 5.163 6.656 3.58 9 3.58z" transform="translate(-546.000000, -491.000000) translate(530.000000, 162.000000) translate(0.000000, 317.000000) translate(16.000000, 12.000000) translate(7.000000, 7.000000)"/>
                        </g>
                    </g>
                </g>
            </g>
        </g>
    </g>
</svg>
