<svg width="34" height="34" viewBox="0 0 34 34" fill="none" xmlns="http://www.w3.org/2000/svg">
<path d="M16.9998 0.333252C7.79507 0.333252 0.333008 7.82651 0.333008 17.0697C0.333008 25.3598 6.3417 32.2253 14.2201 33.5548V20.5614H10.1996V15.8856H14.2201V12.4378C14.2201 8.43744 16.6532 6.25746 20.2075 6.25746C21.9098 6.25746 23.3727 6.38484 23.7974 6.44094V10.6224L21.3322 10.6236C19.3997 10.6236 19.0271 11.5456 19.0271 12.899V15.8832H23.6383L23.0369 20.559H19.0271V33.6666C27.2733 32.6588 33.6663 25.6183 33.6663 17.0649C33.6663 7.82651 26.2043 0.333252 16.9998 0.333252Z" fill="#5d6ef9"/>
</svg>
