<svg width="33" height="33" viewBox="0 0 33 33" fill="none" xmlns="http://www.w3.org/2000/svg">
<g clip-path="url(#clip0_4937_2129)">
<path d="M16.7226 0.2229C7.88603 0.2229 0.722656 7.38627 0.722656 16.2229C0.722656 25.0595 7.88603 32.2228 16.7226 32.2228C25.5592 32.2228 32.7227 25.0595 32.7227 16.2229C32.7226 7.38627 25.5591 0.2229 16.7226 0.2229ZM12.4538 23.9581H8.94085V12.6088H12.4538V23.9581ZM10.6806 11.1225C9.53329 11.1225 8.60321 10.1848 8.60321 9.02833C8.60321 7.87172 9.53342 6.93411 10.6806 6.93411C11.8277 6.93411 12.7578 7.87172 12.7578 9.02833C12.7579 10.1849 11.8278 11.1225 10.6806 11.1225ZM25.6186 23.9581H22.1227V18.0007C22.1227 16.3667 21.502 15.4546 20.21 15.4546C18.8039 15.4546 18.0693 16.4045 18.0693 18.0007V23.9581H14.6999V12.6088H18.0693V14.1373C18.0693 14.1373 19.0828 12.2626 21.4893 12.2626C23.8959 12.2626 25.6187 13.732 25.6187 16.7719L25.6186 23.9581Z" fill="url(#paint0_linear_4937_2129)"/>
</g>
<defs>
<linearGradient id="paint0_linear_4937_2129" x1="5.40893" y1="4.90918" x2="28.0363" y2="27.5366" gradientUnits="userSpaceOnUse">
<stop stop-color="#2489BE"/>
<stop offset="1" stop-color="#0575B3"/>
</linearGradient>
<clipPath id="clip0_4937_2129">
<rect width="32" height="32" fill="white" transform="translate(0.722656 0.222656)"/>
</clipPath>
</defs>
</svg>
