<svg width="32" height="33" viewBox="0 0 32 33" fill="none" xmlns="http://www.w3.org/2000/svg">
<g clip-path="url(#clip0_4937_1489)">
<path d="M15.999 32.2227C24.8356 32.2227 31.999 25.0592 31.999 16.2227C31.999 7.38611 24.8356 0.222656 15.999 0.222656C7.16248 0.222656 -0.000976562 7.38611 -0.000976562 16.2227C-0.000976562 25.0592 7.16248 32.2227 15.999 32.2227Z" fill="#34AADF"/>
<path d="M6.65878 16.084C6.65878 16.084 14.6588 12.8008 17.4333 11.6447C18.4969 11.1823 22.1038 9.70246 22.1038 9.70246C22.1038 9.70246 23.7686 9.0551 23.6298 10.6273C23.5836 11.2747 23.2137 13.5406 22.8437 15.9915C22.2888 19.4597 21.6876 23.2516 21.6876 23.2516C21.6876 23.2516 21.5952 24.3152 20.809 24.5002C20.0229 24.6851 18.7281 23.8528 18.4969 23.6678C18.3119 23.5291 15.0287 21.4481 13.8264 20.4308C13.5027 20.1533 13.1328 19.5985 13.8726 18.951C15.5374 17.425 17.5258 15.5291 18.7281 14.3268C19.283 13.7718 19.8379 12.4771 17.5258 14.0493C14.2426 16.3152 11.0056 18.4424 11.0056 18.4424C11.0056 18.4424 10.2657 18.9048 8.87842 18.4886C7.4911 18.0724 5.87262 17.5175 5.87262 17.5175C5.87262 17.5175 4.76279 16.8239 6.65878 16.084Z" fill="white"/>
</g>
<defs>
<clipPath id="clip0_4937_1489">
<rect width="32" height="32" fill="white" transform="translate(-0.000976562 0.222656)"/>
</clipPath>
</defs>
</svg>
