<svg width="29" height="24" viewBox="0 0 29 24" fill="none" xmlns="http://www.w3.org/2000/svg">
<path d="M9.5274 23.2225C20.0939 23.2225 25.8724 14.3747 25.8724 6.7021C25.8724 6.45082 25.8673 6.20069 25.8561 5.9516C26.9805 5.12931 27.9508 4.11117 28.7217 2.94493C27.6923 3.40746 26.5847 3.71876 25.4227 3.85912C26.6088 3.14031 27.5193 2.00314 27.9489 0.647632C26.8212 1.32377 25.5875 1.80041 24.301 2.05701C23.2527 0.928404 21.7603 0.222534 20.1078 0.222534C16.9353 0.222534 14.3627 2.8228 14.3627 6.02802C14.3627 6.48371 14.4132 6.9268 14.5118 7.35196C9.73728 7.10914 5.50359 4.79867 2.67018 1.28548C2.15986 2.17158 1.89144 3.17864 1.89233 4.20383C1.89233 6.21829 2.90648 7.99659 4.44875 9.037C3.53648 9.00884 2.64423 8.75978 1.84703 8.31077C1.84618 8.33515 1.84618 8.3589 1.84618 8.38495C1.84618 11.1969 3.82632 13.5447 6.45491 14.0766C5.96122 14.2125 5.4518 14.2812 4.94012 14.2809C4.5706 14.2809 4.21047 14.2442 3.86047 14.1763C4.59183 16.4833 6.71254 18.1621 9.22691 18.2091C7.2607 19.7667 4.7839 20.6944 2.09197 20.6944C1.63404 20.6948 1.17648 20.668 0.72168 20.614C3.2641 22.2611 6.28298 23.2221 9.52768 23.2221" fill="#1DA1F2"/>
</svg>
