<svg width="33" height="33" viewBox="0 0 33 33" fill="none" xmlns="http://www.w3.org/2000/svg">
<path d="M32.7211 24.1021C32.7211 24.2773 32.7157 24.6573 32.7052 24.9508C32.6794 25.669 32.6225 26.5957 32.5364 27.0179C32.407 27.6525 32.2117 28.2514 31.957 28.7499C31.6557 29.3396 31.2713 29.8678 30.8146 30.3237C30.3589 30.7787 29.8311 31.1615 29.2423 31.4617C28.7412 31.717 28.1385 31.9124 27.5004 32.0413C27.0823 32.1257 26.1626 32.1815 25.449 32.2069C25.1552 32.2174 24.7751 32.2227 24.6006 32.2227L8.84417 32.2202C8.66895 32.2202 8.28903 32.2148 7.99552 32.2042C7.27733 32.1785 6.35062 32.1216 5.92835 32.0355C5.29382 31.9061 4.69487 31.7108 4.19639 31.4561C3.60667 31.1547 3.07847 30.7704 2.62258 30.3136C2.1676 29.8579 1.78474 29.3302 1.48466 28.7414C1.22924 28.2403 1.03381 27.6376 0.904969 26.9995C0.820597 26.5814 0.764756 25.6616 0.739351 24.948C0.728914 24.6543 0.723633 24.2742 0.723633 24.0997L0.726133 8.34322C0.726133 8.16801 0.731476 7.78806 0.742007 7.49454C0.767787 6.77635 0.824691 5.84964 0.910781 5.42741C1.04018 4.79287 1.23549 4.19393 1.49019 3.69542C1.79153 3.10572 2.17592 2.57749 2.63262 2.12161C3.08835 1.66666 3.61607 1.28377 4.20489 0.983655C4.70603 0.728291 5.30872 0.532862 5.94685 0.404024C6.36487 0.319621 7.28467 0.26378 7.99827 0.238406C8.29207 0.227937 8.67214 0.222656 8.84664 0.222656L24.6031 0.225187C24.7783 0.225187 25.1582 0.230531 25.4518 0.241062C26.1699 0.266842 27.0966 0.323746 27.5189 0.409836C28.1534 0.539237 28.7524 0.734541 29.2509 0.989249C29.8406 1.29058 30.3688 1.67497 30.8247 2.13167C31.2796 2.5874 31.6625 3.1151 31.9626 3.70395C32.218 4.20508 32.4134 4.80774 32.5423 5.44587C32.6266 5.86392 32.6824 6.78369 32.7079 7.49732C32.7184 7.79112 32.7236 8.17117 32.7236 8.34572L32.7211 24.1021Z" fill="url(#paint0_linear_4937_1502)"/>
<path d="M25.2011 7.79313C23.0347 5.62487 20.1535 4.43017 17.0839 4.42896C10.7591 4.42896 5.61144 9.57461 5.60891 15.8995C5.6081 17.9212 6.13648 19.8947 7.14063 21.6343L5.5127 27.5787L11.5957 25.9835C13.2718 26.8974 15.1588 27.379 17.0793 27.3798H17.084C23.4082 27.3798 28.5563 22.2335 28.5589 15.9086C28.5601 12.8435 27.3676 9.96138 25.2011 7.79313ZM17.084 25.4424H17.0801C15.3687 25.4418 13.6902 24.9822 12.2258 24.1134L11.8775 23.9068L8.26777 24.8534L9.23129 21.3351L9.00445 20.9744C8.04974 19.4563 7.54552 17.7017 7.54627 15.9002C7.54833 10.6433 11.8269 6.36637 17.0877 6.36637C19.6351 6.36734 22.0298 7.36043 23.8305 9.16257C25.6312 10.9647 26.6223 13.3603 26.6214 15.9079C26.6193 21.1653 22.3408 25.4424 17.084 25.4424ZM22.3155 18.3016C22.0288 18.1582 20.6192 17.4647 20.3563 17.3691C20.0935 17.2734 19.9024 17.2256 19.7112 17.5126C19.5201 17.7995 18.9706 18.4451 18.8033 18.6364C18.6361 18.8277 18.4688 18.8516 18.1821 18.7081C17.8954 18.5647 16.9716 18.262 15.8764 17.2855C15.0241 16.5256 14.4486 15.5869 14.2814 15.2999C14.1141 15.0129 14.2636 14.8578 14.4071 14.7149C14.5361 14.5865 14.6938 14.3801 14.8372 14.2128C14.9805 14.0454 15.0284 13.9258 15.1239 13.7345C15.2195 13.5432 15.1717 13.3758 15.1 13.2324C15.0284 13.0889 14.4549 11.6781 14.216 11.1042C13.9833 10.5453 13.7469 10.6209 13.5709 10.6121C13.4038 10.6038 13.2125 10.6021 13.0213 10.6021C12.8302 10.6021 12.5196 10.6738 12.2568 10.9607C11.994 11.2477 11.2533 11.9411 11.2533 13.3519C11.2533 14.7627 12.2807 16.1257 12.424 16.317C12.5674 16.5083 14.4458 19.4034 17.322 20.645C18.0061 20.9403 18.5401 21.1166 18.9565 21.2487C19.6434 21.4668 20.2684 21.4361 20.7625 21.3623C21.3133 21.28 22.4588 20.6689 22.6978 19.9994C22.9367 19.3298 22.9367 18.756 22.865 18.6364C22.7933 18.5169 22.6022 18.4451 22.3155 18.3016Z" fill="white"/>
<defs>
<linearGradient id="paint0_linear_4937_1502" x1="16.7236" y1="0.222656" x2="16.7236" y2="32.2227" gradientUnits="userSpaceOnUse">
<stop stop-color="#61FD7D"/>
<stop offset="1" stop-color="#2BB826"/>
</linearGradient>
</defs>
</svg>
