<svg width="32" height="32" viewBox="0 0 32 32" fill="none" xmlns="http://www.w3.org/2000/svg">
    <path fill-rule="evenodd" clip-rule="evenodd" d="m22.078 1.875.66.041.656.049c2.156.173 4.35 2.366 4.472 4.476l.045.897c.257 6.019-.074 16.465-.597 17.543-.496 1.022-3.31 1.326-8.301 1.365l-1.648.004-.806-.005c-4.62-.043-7.782-.348-8.511-1.1-.418-.43-.71-2.465-.879-5.145h2.07l.022.387.049.752c.035.492.075.932.117 1.315l.033.276.057.41.025.158.052.271.03.13.276.063.32.057c.396.064.893.123 1.477.174l.704.055c1.369.095 3.046.15 4.793.16l.584.002.53-.001c1.761-.01 3.43-.065 4.764-.161l.39-.03a19.147 19.147 0 0 0 1.662-.196l.17-.032.169-.037.043-.39a66.07 66.07 0 0 0 .172-2.486l.074-1.552.06-1.623.041-1.51.028-1.442c.032-2.15.026-4.238-.023-6.032l-5.402.002.001-4.864-1.035-.025c-3.96-.07-8.347.103-9.543.34l-.174.041-.058.02a4.137 4.137 0 0 0-.079.345l-.026.143-.025.158a23.84 23.84 0 0 0-.184 1.7l-.045.615-.027.438a103.093 103.093 0 0 0-.15 4.586l-.006.634L9.1 14H7c0-5.205.35-10.408 1.048-11.127.978-1.008 8.34-1.328 14.03-.998zm.771 2.116.142-.01.23.017c.492.04 1.037.332 1.497.742.242.292.405.653.45 1.054l.012.169.001.717h-2.625V4.024l.293-.033zM5 12a1 1 0 0 0-1 1v3H1a1 1 0 1 0 0 2h3v3a1 1 0 1 0 2 0v-3h3a1 1 0 1 0 0-2H6v-3a1 1 0 0 0-1-1zm7.25 1.125c0-.483.392-.875.875-.875h8.75a.875.875 0 0 1 0 1.75h-8.75a.875.875 0 0 1-.875-.875zm0 3.5c0-.483.392-.875.875-.875h8.75a.875.875 0 0 1 0 1.75h-8.75a.875.875 0 0 1-.875-.875zm.875 2.625a.875.875 0 0 0 0 1.75h3.5a.875.875 0 0 0 0-1.75h-3.5z" fill="#7786FF"/>
    <rect x="18" y="18" width="12" height="12" rx="6" fill="#7786FF"/>
    <path d="M23.133 26a.41.41 0 0 1-.283-.11l-1.733-1.625a.359.359 0 0 1 0-.53.42.42 0 0 1 .566 0l1.45 1.36 3.184-2.985a.419.419 0 0 1 .566 0 .359.359 0 0 1 0 .53l-3.466 3.25a.415.415 0 0 1-.284.11z" fill="#fff"/>
</svg>
