<svg width="32" height="32" viewBox="0 0 32 32" fill="none" xmlns="http://www.w3.org/2000/svg">
    <path fill-rule="evenodd" clip-rule="evenodd" d="m25.232 2.142.755.048.749.056c2.464.197 4.971 2.704 5.11 5.115l.052 1.025c.295 6.879-.084 18.817-.682 20.05-.567 1.167-3.784 1.515-9.487 1.56L19.846 30l-.921-.006c-5.28-.05-8.894-.398-9.728-1.256-.617-.636-.995-4.34-1.135-8.738h2.388c.031 1.191.076 2.308.134 3.3l.056.859c.04.562.085 1.065.134 1.502l.037.316.065.468.03.181.059.31.034.148.316.072.365.066c.452.073 1.021.14 1.688.198l.805.063a89.37 89.37 0 0 0 5.477.184l.668.002.606-.002c2.012-.01 3.92-.074 5.444-.184l.445-.034a21.87 21.87 0 0 0 1.9-.224l.194-.036.193-.042.05-.446c.06-.634.13-1.629.196-2.841l.085-1.775.07-1.855.046-1.726.031-1.646c.037-2.459.03-4.845-.026-6.894l-6.174.002.002-5.56-1.184-.028c-4.525-.08-9.539.118-10.906.389l-.198.047-.067.023c-.03.107-.06.238-.09.394l-.03.164-.029.18c-.078.505-.149 1.16-.21 1.944l-.05.702-.032.5a117.817 117.817 0 0 0-.171 5.241V14H8.014c.08-5.222.474-9.988 1.182-10.717 1.118-1.152 9.532-1.517 16.035-1.14zm.882 2.42.161-.013.263.02c.563.046 1.186.38 1.71.848.278.334.464.746.516 1.204l.014.193v.82h-3V4.6l.336-.038zM5 12a1 1 0 0 0-1 1v3H1a1 1 0 1 0 0 2h3v3a1 1 0 1 0 2 0v-3h3a1 1 0 1 0 0-2H6v-3a1 1 0 0 0-1-1zm9 3a1 1 0 0 1 1-1h10a1 1 0 1 1 0 2H15a1 1 0 0 1-1-1zm0 4a1 1 0 0 1 1-1h10a1 1 0 1 1 0 2H15a1 1 0 0 1-1-1zm1 3a1 1 0 1 0 0 2h4a1 1 0 1 0 0-2h-4z" fill="#7786FF"/>
</svg>
