<svg width="32" height="32" viewBox="0 0 32 32" fill="none" xmlns="http://www.w3.org/2000/svg">
    <mask id="2mxebevhba" style="mask-type:alpha" maskUnits="userSpaceOnUse" x="0" y="0" width="32" height="32">
        <path fill="#C4C4C4" d="M0 0h32v32H0z"/>
    </mask>
    <g mask="url(#2mxebevhba)" fill="#7786FF">
        <path d="M18.666 1.333c3.997 0 7.238 3.273 7.238 7.31a7.321 7.321 0 0 1-3.327 6.15c3.266.142 5.471.485 6.12 1.127 1.678 1.662 2.806 10.595 1.178 12.208-1.623 1.607-20.918 1.607-22.542 0-1.48-1.465-.195-9.627.948-11.891.483-.957 2.64-1.346 6.432-1.472a7.319 7.319 0 0 1-3.284-6.122c0-4.037 3.24-7.31 7.237-7.31zm-.278 15.818-.557.002c-1.827.01-3.56.07-4.951.172l-.451.036-.298.027c-.58.055-1.067.118-1.441.186l-.178.034-.212.049-.046.13c-.628 1.873-1.456 7.137-1.307 8.363l.02.112.014.043.165.044.262.055.153.028c.42.073.963.14 1.609.198l.68.056.47.033a89.99 89.99 0 0 0 4.355.163l.687.009 1.242.006c2.294 0 4.513-.062 6.284-.178l.47-.033.349-.027c.453-.038.862-.079 1.22-.123l.26-.033.613-.099.262-.055.106-.027.046-.225a6.55 6.55 0 0 0 .077-.84c.03-.842-.035-1.93-.18-3.079-.24-1.894-.687-3.69-.979-4.315l-.063-.122-.176-.05-.194-.044-.4-.074c-.241-.04-.518-.078-.825-.113l-.319-.035-.696-.064c-1.663-.136-3.836-.21-6.071-.21zm.278-13.381c-2.664 0-4.825 2.181-4.825 4.873 0 2.69 2.16 4.872 4.825 4.872s4.825-2.181 4.825-4.872c0-2.692-2.16-4.873-4.825-4.873z"/>
        <path fill-rule="evenodd" clip-rule="evenodd" d="M6 8a.933.933 0 0 0-.933.933v2.8h-2.8a.933.933 0 0 0 0 1.867h2.8v2.8a.933.933 0 1 0 1.866 0v-2.8h2.8a.933.933 0 0 0 0-1.867h-2.8v-2.8A.933.933 0 0 0 6 8z"/>
    </g>
</svg>
