<svg width="32" height="32" viewBox="0 0 32 32" fill="none" xmlns="http://www.w3.org/2000/svg">
    <mask id="hrtmp15k4a" style="mask-type:alpha" maskUnits="userSpaceOnUse" x="0" y="0" width="28" height="28">
        <path fill="#C4C4C4" d="M0 0h28v28H0z"/>
    </mask>
    <g mask="url(#hrtmp15k4a)" fill="#7786FF">
        <path d="M16.333 1.167c3.497 0 6.333 2.863 6.333 6.395a6.406 6.406 0 0 1-2.91 5.383c2.857.123 4.786.424 5.354.985 1.468 1.454 2.456 9.27 1.03 10.682-1.42 1.406-18.303 1.406-19.724 0-1.294-1.282-.17-8.424.83-10.405.423-.837 2.31-1.177 5.628-1.287A6.404 6.404 0 0 1 10 7.562c0-3.532 2.836-6.395 6.333-6.395zm-.244 13.84-.487.002a66.162 66.162 0 0 0-4.332.15l-.395.032-.26.023a15.42 15.42 0 0 0-1.262.163l-.155.03-.185.043-.04.113c-.55 1.64-1.275 6.246-1.144 7.318l.017.098.012.038.145.038.23.049.133.024c.368.064.842.122 1.407.173l.595.05.412.028c1.11.072 2.42.121 3.811.143l.601.007 1.087.006c2.007 0 3.949-.055 5.498-.156l.412-.029.305-.024a27.07 27.07 0 0 0 1.067-.107l.227-.03.537-.085.229-.049.093-.023.04-.197c.034-.197.057-.445.067-.736.027-.736-.03-1.688-.157-2.693-.21-1.658-.6-3.23-.856-3.776l-.056-.107-.154-.043-.17-.04-.35-.064a15.237 15.237 0 0 0-.722-.099l-.278-.03-.61-.056c-1.455-.119-3.356-.184-5.312-.184zM16.333 3.3c-2.332 0-4.222 1.908-4.222 4.263s1.89 4.264 4.222 4.264c2.332 0 4.222-1.909 4.222-4.264 0-2.355-1.89-4.263-4.222-4.263z"/>
        <path fill-rule="evenodd" clip-rule="evenodd" d="M5.25 7a.817.817 0 0 0-.817.817v2.45h-2.45a.817.817 0 1 0 0 1.633h2.45v2.45a.817.817 0 0 0 1.634 0V11.9h2.45a.817.817 0 1 0 0-1.633h-2.45v-2.45A.817.817 0 0 0 5.25 7z"/>
    </g>
    <rect x="18" y="18" width="12" height="12" rx="6" fill="#7786FF"/>
    <path d="M23.133 26a.41.41 0 0 1-.283-.11l-1.733-1.625a.359.359 0 0 1 0-.53.42.42 0 0 1 .566 0l1.45 1.36 3.184-2.985a.419.419 0 0 1 .566 0 .359.359 0 0 1 0 .53l-3.466 3.25a.415.415 0 0 1-.284.11z" fill="#fff"/>
</svg>
