<svg width="16" height="16" viewBox="0 0 16 16" xmlns="http://www.w3.org/2000/svg">
    <path d="M6.941 3.965c.741 0 1.484.163 2.15.472a5.012 5.012 0 0 1 1.376.949c.248.241.468.505.657.788l-1.325 1.29c-.196.19-.457.296-.734.296-.277 0-.537-.105-.733-.295l-.13-.116a1.993 1.993 0 0 0-1.267-.448c-.528 0-1.024.2-1.397.563L3.591 9.36a1.884 1.884 0 0 0 0 2.718c.385.375.89.562 1.396.562.506 0 1.012-.187 1.397-.562a.454.454 0 0 0 .094-.132l.028.014a6.096 6.096 0 0 0 3.821.427l-1.813 1.765a5.024 5.024 0 0 1-3.526 1.421l-.266-.006a5.015 5.015 0 0 1-3.261-1.415A4.759 4.759 0 0 1 0 10.719c0-1.297.519-2.516 1.46-3.433l1.953-1.9a4.973 4.973 0 0 1 1.369-.944 5.136 5.136 0 0 1 2.16-.477zM11.013 0c1.332 0 2.584.505 3.526 1.422A4.758 4.758 0 0 1 16 4.855a4.758 4.758 0 0 1-1.46 3.432l-1.953 1.9a4.97 4.97 0 0 1-1.223.874l-.073.036-.073.035a5.135 5.135 0 0 1-4.308.004 5.005 5.005 0 0 1-.567-.309l-.214-.143a4.973 4.973 0 0 1-1.253-1.285l.436-.425h.001l.888-.865c.196-.19.457-.295.734-.295.276 0 .536.104.732.294.376.365.871.564 1.398.564.528 0 1.024-.2 1.397-.563l1.947-1.895a1.884 1.884 0 0 0 0-2.719 1.99 1.99 0 0 0-1.396-.563c-.528 0-1.024.2-1.397.563a.454.454 0 0 0-.094.132l-.028-.013a6.096 6.096 0 0 0-3.821-.428l1.813-1.764A5.024 5.024 0 0 1 11.013 0z" fill="#7786FF" fill-rule="nonzero"/>
</svg>
