<svg width="173" height="173" viewBox="0 0 173 173" xmlns="http://www.w3.org/2000/svg">
    <g fill-rule="nonzero" fill="none">
        <path d="M52.253 99.393c.629 8.273.702 16.58.218 24.862.01.228-.05.453-.175.644a1.091 1.091 0 0 1-.687.316l-2.183.426a.808.808 0 0 1-.6 0 .83.83 0 0 1-.295-.556 65.004 65.004 0 0 1-1.539-17.55c.296-2.677.24-5.381-.164-8.044a6.483 6.483 0 0 1 4.366-.982" fill="#FFF"/>
        <path d="M51.707 99.393c.342 4.57.52 9.153.535 13.752 0 2.291 0 4.583-.12 6.875 0 1.063-.044 2.121-.131 3.176 0 .622 0 1.2-.568 1.55a5.271 5.271 0 0 1-1.56.295c-.906 0-.961-.098-1.092-.884-.13-.59-.251-1.19-.36-1.78a63.615 63.615 0 0 1-.546-3.47 66.325 66.325 0 0 1-.513-6.734c-.098-4.256.731-8.644-.109-12.846l-.23.557a6.472 6.472 0 0 1 4.137-.917c.633.066.622-.917 0-.982a7.389 7.389 0 0 0-4.638 1.091.513.513 0 0 0-.218.557c.369 2.622.417 5.28.141 7.913-.129 2.593-.1 5.192.088 7.781.175 2.464.489 4.917.938 7.346.295 1.571.186 3.787 2.249 3.437.807-.13 2.182-.141 2.815-.742.633-.6.426-1.211.459-1.866.142-2.641.23-5.293.262-7.935a186.455 186.455 0 0 0-.524-16.13c0-.623-1.026-.633-.982 0l-.033-.044z" fill="#000"/>
        <path d="M38.37 99.327a188.66 188.66 0 0 0-1.146 24.83c-.02.229.034.458.153.655.18.192.425.312.687.338l2.183.513a.808.808 0 0 0 .6 0 .797.797 0 0 0 .317-.546 65.124 65.124 0 0 0 2.183-17.462 30.385 30.385 0 0 1 .458-8.033 6.548 6.548 0 0 0-4.365-1.091" fill="#FFF"/>
        <path d="M37.879 99.327c-.59 5.26-.953 10.536-1.092 15.826a192.843 192.843 0 0 0-.054 7.945c0 .71-.131 1.594.415 2.183.545.59 1.975.677 2.794.84 1.953.404 1.953-1.604 2.302-3.121.548-2.409.96-4.847 1.234-7.302.296-2.579.435-5.174.414-7.77a33.495 33.495 0 0 1 .437-8.164.513.513 0 0 0-.218-.557 7.443 7.443 0 0 0-4.595-1.211c-.633 0-.633 1.026 0 .982a6.483 6.483 0 0 1 4.093 1.092l-.219-.557c-1.004 4.17-.338 8.59-.6 12.835a64.47 64.47 0 0 1-.83 7.094 69.597 69.597 0 0 1-.665 3.274 9.517 9.517 0 0 1-.437 1.768c-.262.611-.13.677-.884.622a7.018 7.018 0 0 1-1.32-.305c-.753-.262-.797-.47-.928-1.157a19.94 19.94 0 0 1 0-3.7c0-2.292 0-4.595.142-6.876.175-4.584.535-9.168 1.037-13.719.076-.633-.906-.622-.982 0l-.044-.022z" fill="#000"/>
        <path d="M53.595 125.336c.182.34.304.71.36 1.09.688.437 4.279 1.18 5.545 2.74a1.67 1.67 0 0 1 0 2.183c-.339.415-9.889.579-11.362.48-.329.01-.651-.09-.917-.283a1.593 1.593 0 0 1-.37-.852c-.372-1.691-.656-3.71.545-4.955a4.486 4.486 0 0 1 2.008-1.091 10.914 10.914 0 0 1 4.191.688z" fill="#FFF"/>
        <path d="M53.17 125.587c.25.382.152 1.004.534 1.298.341.2.708.351 1.092.448a16.71 16.71 0 0 1 3.35 1.397c.546.338 1.223.84 1.223 1.55-.003.242-.07.48-.197.687.098-.087-.087 0-.174 0-.688.11-1.376.142-2.063.186-2.183.12-4.279.174-6.418.185h-2.183a2.587 2.587 0 0 1-.502 0c-.523-.109-.545-.687-.633-1.091a8.36 8.36 0 0 1-.207-2.325 2.947 2.947 0 0 1 3.132-2.74c.638.047 1.272.13 1.9.252.272.054.556.109.829.185.098 0 .393.153.35.11.447.447 1.09-.252.687-.7a2.183 2.183 0 0 0-1.092-.436 18.412 18.412 0 0 0-1.888-.316 4.464 4.464 0 0 0-3.743 1.026c-1.3 1.179-1.266 3.045-1.004 4.65.12.741.196 1.756.927 2.182.45.207.946.297 1.44.262 2.184.054 4.367 0 6.637-.098 1.091 0 2.182-.088 3.197-.197.732-.065 1.376-.065 1.747-.796.884-1.725-.764-3.067-2.183-3.744a18.62 18.62 0 0 0-2.27-.917 8.175 8.175 0 0 1-1.517-.567l.218.294a3.34 3.34 0 0 0-.404-1.244c-.273-.567-1.124-.076-.786.459z" fill="#000"/>
        <path d="M42.07 125.336c.182.34.304.71.36 1.09.698.437 4.278 1.18 5.544 2.74a1.67 1.67 0 0 1 0 2.183c-.338.415-9.888.579-11.35.48-.332.01-.658-.09-.928-.283a1.593 1.593 0 0 1-.371-.852c-.371-1.691-.655-3.71.546-4.955a4.464 4.464 0 0 1 2.019-1.091 10.827 10.827 0 0 1 4.18.688z" fill="#FFF"/>
        <path d="M41.644 125.587c.251.382.164 1.004.546 1.298.339.204.707.355 1.091.448 1.16.344 2.28.813 3.34 1.397.546.338 1.222.84 1.222 1.55.008.244-.06.484-.196.687.098-.087-.076 0-.175 0-.676.11-1.375.142-2.062.186-2.183.12-4.279.174-6.418.185H36.81c-.17.017-.342.017-.513 0-.513-.109-.545-.687-.633-1.091a8.786 8.786 0 0 1-.207-2.325 2.958 2.958 0 0 1 3.143-2.74c.634.046 1.265.13 1.888.252.284.054.557.109.83.185.273.077.393.153.349.11a.494.494 0 1 0 .699-.7 2.26 2.26 0 0 0-1.092-.436 18.412 18.412 0 0 0-1.888-.316 4.464 4.464 0 0 0-3.744 1.026c-1.298 1.179-1.266 3.045-1.004 4.65.12.741.208 1.756.939 2.182.447.207.939.297 1.43.262 2.183.054 4.43 0 6.635-.098 1.092 0 2.183-.088 3.198-.197.742-.065 1.375-.065 1.747-.796.884-1.725-.764-3.067-2.183-3.744a18.467 18.467 0 0 0-2.26-.917 8.273 8.273 0 0 1-1.527-.567l.229.294c-.06-.436-.201-.858-.415-1.244-.273-.567-1.091-.076-.786.459z" fill="#000"/>
        <path d="M54.752 78.482c.065 7.912 2.761 25.244 2.532 26.412-.036.353-.204.68-.47.916-.349.306-22.646-.851-23.563-.742a2.63 2.63 0 0 1-1.091 0 1.091 1.091 0 0 1-.622-.83c-.71-2.542 4.365-16.37 4.77-24.829 5.03-1.026 18.444-.927 18.444-.927z" fill="#C7CDFF"/>
        <path d="M54.992 78.394c.23 6.408.809 12.799 1.735 19.143.262 2.183.6 4.366.72 6.549 0 .59.088 1.091-.392 1.19a7.127 7.127 0 0 1-1.866 0c-4.923-.099-9.823-.339-14.767-.535-1.954-.077-3.907-.175-5.872-.219-.469.033-.94.033-1.408 0-1.473-.25-.917-1.975-.742-2.968 1.386-7.465 4.29-14.636 4.682-22.276l-.36.48a71.301 71.301 0 0 1 11.416-.84c2.445-.065 4.893-.094 7.345-.087a.491.491 0 1 0 0-.982c-6.264 0-12.846-.208-19.023.96a.502.502 0 0 0-.36.47c-.382 7.454-3.187 14.504-4.595 21.827a9.048 9.048 0 0 0-.284 2.86c.197 1.408 1.092 1.571 2.39 1.55 1.496 0 3.013.065 4.519.13 5.37.197 10.75.459 16.13.6.94 0 2.718.394 3.548-.163 1.31-.862.436-4.038.305-5.195-.862-7.454-2.073-14.974-2.182-22.494a.491.491 0 0 0-.939 0zM52.787 35.437v3.187c-.534 3.732-3.088 13.566-3.667 13.98-.906.666-9.713 1.354-10.095 1.092-.382-.262-1.703-13.435-1.397-16.633.04-.922.25-1.83.622-2.674.36-.7.889-1.301 1.539-1.746 4.442-3.165 9.048-1.386 11.416 0a3.187 3.187 0 0 1 1.582 2.794z" fill="#000"/>
        <path d="M49.12 52.604c-1.091-.229-2.27-.709-2.084-1.615.294-1.386 1.67-2.183 2.466-3.383a7.793 7.793 0 0 0 1.026-2.729c.459-2.062 1.78-8.087-.49-10.74-2.107-2.477-8.165-3.972-10.62 1.867a10.914 10.914 0 0 0 .065 9.157c.557 1.091 1.375 1.91 1.997 2.903.694.965.937 2.183.666 3.34-.207.644-1.397 1.604-3.121 2.346-.197.088 1.408 1.605 3.045 1.725.59 0 3.187.927 4.638.338.579-.23 4.115-2.04 4.562-2.183.644-.327-1.091-.796-2.15-1.026z" fill="#FFF"/>
        <path d="M49.23 52.212c-.95-.23-2.183-.623-1.518-1.834a11.558 11.558 0 0 1 1.605-1.888 8.12 8.12 0 0 0 1.67-3.81c.604-2.338.836-4.758.687-7.17a6.057 6.057 0 0 0-2.881-4.922 7.214 7.214 0 0 0-5.523-.808c-5.457 1.583-6.548 9.976-3.776 14.189.95 1.462 2.75 3.11 2.314 5.042-.164.764-.873 1.222-1.506 1.626-.415.251-1.42.513-1.648.939-.328.644.95 1.364 1.353 1.604a9.997 9.997 0 0 0 3.176.95c1.232.37 2.545.37 3.776 0 1.004-.393 1.965-.95 2.925-1.43.437-.218 1.801-.611 1.921-1.168.208-.939-2.063-1.233-2.576-1.342-.513-.11-.73.676-.218.785.513.11 1.092.372 1.594.437.502.066.12.12.393 0 .447-.273 0-.13 0-.13a1.157 1.157 0 0 0-.372.174l-2.444 1.222a7.64 7.64 0 0 1-2.26.928 11.22 11.22 0 0 1-3.448-.448 7.64 7.64 0 0 1-1.441-.37c-.273-.12-1.55-.677-1.56-1.092 0 .415 1.429-.524 1.647-.677.409-.27.776-.597 1.092-.971 1.626-2.107-.786-4.737-1.9-6.407-2.728-4.06-1.615-13.097 4.454-13.326a6.417 6.417 0 0 1 4.769 1.812c1.604 1.648 1.506 4.366 1.299 6.548-.24 2.62-.644 5.708-2.5 7.64-.698.731-1.822 1.78-1.713 2.914.11 1.135 1.506 1.506 2.401 1.714.502.174.72-.611.207-.731z" fill="#000"/>
        <path d="M40.247 33.134a9.68 9.68 0 0 1 7.018-1.408 8.327 8.327 0 0 1 3.481 1.648c.666.491 1.387 1.222 1.223 2.063a1.834 1.834 0 0 1-.36.73 4.671 4.671 0 0 1-3.886 1.496c-1.419 0-2.837-.393-4.256-.382a3.787 3.787 0 0 0-1.67.338 3.558 3.558 0 0 0-1.408 1.43c-.971 1.637-.786 4.366-.415 6.92-1.724-1.212-2.4-6.483-1.79-9.55l2.063-3.285z" fill="#000"/>
        <path d="M28.591 92.299c.153.207.993.087 1.179-.415.36-.939.71-3.809.906-4.191.2-.406.644-.632 1.091-.557.577.576 1.123 1.18 1.637 1.812.087.077 1.091.262.753-.655-.142-.382-1.899-3.361-2.183-3.798a3.089 3.089 0 0 0-.818-.971c-.34-.163-.72-.22-1.092-.164-.523.045-1.044.118-1.56.218a.764.764 0 0 0-.437.197.698.698 0 0 0-.164.415c-.174.545-.01 7.137.688 8.109z" fill="#FFF"/>
        <path d="M28.307 92.583c.409.29.956.29 1.364 0 .408-.323.661-.802.699-1.321.251-1.091.36-2.183.633-3.274a.655.655 0 0 1 .513-.459c.13-.054.207 0 .076 0-.13 0 .077.066.099.088l.316.36c.218.24.426.502.633.753.166.24.373.451.611.622.353.169.77.135 1.092-.087.315-.337.36-.846.109-1.234a24.688 24.688 0 0 0-1.419-2.51c-.218-.36-.426-.72-.655-1.091a3.154 3.154 0 0 0-1.2-1.266 4.366 4.366 0 0 0-2.532 0c-.688.12-1.168.349-1.245 1.091a15.585 15.585 0 0 0 0 2.02c0 1.222.11 2.455.24 3.677.002.896.204 1.78.59 2.587.295.426 1.004 0 .71-.415a4.464 4.464 0 0 1-.426-1.735c-.12-.95-.186-1.9-.24-2.86-.055-.96-.033-1.68-.033-2.51v-.71a.273.273 0 0 0 0-.054c0 .131 0-.12.109-.185.168-.077.35-.121.535-.131.283 0 .567-.088.851-.11a2.183 2.183 0 0 1 1.091 0c.307.198.553.478.71.808.164.24.316.48.458.731.491.797.96 1.594 1.419 2.412l.23.426.087.175V88.588h-.153c-.044 0-.11-.131-.153-.186-.393-.436-.731-.916-1.091-1.342a.993.993 0 0 0-1.201-.251c-1.004.415-1.015 1.692-1.179 2.608-.109.59-.207 1.18-.349 1.758-.03.203-.089.402-.175.589a.6.6 0 0 1-.316.196h-.175a.444.444 0 1 0-.633.623z" fill="#000"/>
        <path d="M50.266 29.347c-.48.13-1.32.709-1.419 1.2-.098.491 6.276 2.947 4.868 4.944-.142.208-2.608.098-2.587.35.077 1.156 3.275 1.527 3.657 1.604.36.091.743.002 1.026-.24a9.473 9.473 0 0 0 1.899-2.587 2.117 2.117 0 0 0-.6-1.659c-1.583-2.008-6.145-3.809-6.844-3.612z" fill="#FFF"/>
        <path d="M50.157 28.954c-.775.25-2.423 1.375-1.331 2.183.73.523 1.56.916 2.313 1.386a5.774 5.774 0 0 1 2.26 1.986.873.873 0 0 1 .12.404c.005.061.005.124 0 .185v.11c0-.022 0 0 .087 0-.47 0-.95.076-1.419.098-.47.021-.971 0-1.255.273-.284.272.066.97.382 1.222a6.472 6.472 0 0 0 3.11 1.091c.51.152 1.057.114 1.54-.109.42-.302.79-.67 1.09-1.091a6.548 6.548 0 0 0 1.092-1.66 2.347 2.347 0 0 0-.6-2.27 10.74 10.74 0 0 0-3.885-2.695 16.775 16.775 0 0 0-2.009-.808 2.707 2.707 0 0 0-1.342-.185c-.502.12-.295.906.218.786h.208c.196.034.39.085.578.152a13.01 13.01 0 0 1 1.539.568 14.025 14.025 0 0 1 3.372 1.997c.574.397.994.979 1.19 1.648.11.579-.338 1.092-.666 1.54-.295.404-.616.79-.96 1.156-.317.316-.688.24-1.092.185a6.887 6.887 0 0 1-2.86-.873c-.086-.054-.206-.25-.283-.283v-.055l-.218.317h.076c.087.01.175.01.262 0 .48 0 .972 0 1.463-.088.49-.087.764 0 .982-.37.207-.325.274-.718.185-1.092a3.59 3.59 0 0 0-1.495-1.91 23.465 23.465 0 0 0-2.74-1.845l-.501-.294-.208-.131s-.174-.11-.087-.066c-.087 0-.065-.12 0 0 .066.12.098.208.055.197.053-.087.111-.171.174-.251a2.27 2.27 0 0 1 .939-.6c.436-.186.23-.972-.284-.808z" fill="#000"/>
        <path d="M37.071 64.937c-.109 2.75-1.473 11.82-.48 14.396 6.494-.11 12.398-.83 18.892-.939 0 0 .077-13.337.655-18.695.251-2.347 7.825.927 10.554-6.32 3.754-9.942-7.018-19.569-8.546-19.972 0 0-.797 3.143-2.772 4.07 2.041 2.653 7.465 8.23 4.802 12.355-3.481 5.38-8.556-.087-12.595 2.761-1.953 1.397-3.416.623-6.766-.349-12.573-3.656-13.883 30.974-14.068 30.92-1.507-.153 5.98.665 5.98.665s4.857-31.956 4.344-18.892z" fill="#FFF"/>
        <path d="M36.656 64.937c-.109 2.478-.469 4.955-.665 7.433-.164 2.183-.557 4.911.207 7.072.052.176.21.299.393.306 6.308-.131 12.584-.819 18.892-.939a.415.415 0 0 0 .404-.415c0-3.107.055-6.217.164-9.331.065-2.27.142-4.54.283-6.81a7.64 7.64 0 0 1 .219-2.554c.25-.503.873-.546 1.386-.612a21.064 21.064 0 0 0 4.573-.818 7.563 7.563 0 0 0 4.234-3.973c2.063-4.366 1.092-9.342-1.211-13.413a26.194 26.194 0 0 0-4.278-5.577 8.95 8.95 0 0 0-3.002-2.347.415.415 0 0 0-.502.295 5.883 5.883 0 0 1-2.586 3.82.415.415 0 0 0-.088.644c2.063 2.652 4.999 5.457 5.381 9.015a4.759 4.759 0 0 1-3.121 4.911c-1.627.546-3.406 0-5.043-.23a7.312 7.312 0 0 0-3.994.274c-.693.429-1.424.794-2.183 1.091-.938.18-1.907.12-2.816-.175-2.183-.61-4.169-1.451-6.374-.622-3.558 1.354-5.391 5.457-6.548 8.797a67.667 67.667 0 0 0-3.11 13.948c-.263 2.03-.484 4.06-.666 6.09-.055.611-.099 1.212-.153 1.823a2.183 2.183 0 0 0 0 .447s.338-.262.185-.273c-.447 0-.578.732-.109.808 2.074.328 4.191.47 6.287.699a.404.404 0 0 0 .393-.295c.469-3.056.95-6.112 1.462-9.157a89.419 89.419 0 0 1 2.303-12.17c.091-.176.16-.363.207-.556a.317.317 0 0 0-.48.055c-.054.34-.054.686 0 1.026v1.713c0 .622.797.524.819 0 .022-.524.458-3.558-.579-3.536-.873 0-1.091 2.521-1.244 3.078-1.091 4.933-1.844 9.953-2.641 14.952-.23 1.44-.459 2.881-.677 4.366l.393-.306c-1.975-.218-4.29-.393-6.068-.666l-.11.797c.808 0 .666-.851.721-1.462.131-1.572.273-3.133.448-4.704a78.898 78.898 0 0 1 2.663-14.45c1.091-3.657 2.946-9.146 7.072-10.402 2.707-.83 5.119 1.092 7.792 1.157 1.769 0 2.936-1.44 4.66-1.615 1.644.012 3.282.187 4.89.524 3.558.36 6.832-2.292 6.385-6.057-.448-3.766-3.416-6.625-5.599-9.43l-.076.644a6.68 6.68 0 0 0 2.957-4.366l-.502.295a8.11 8.11 0 0 1 2.729 2.183 24.928 24.928 0 0 1 3.896 5.031c2.467 4.235 3.776 10.357.371 14.516a7.64 7.64 0 0 1-5.031 2.575c-1.092.153-2.565 0-3.547.612-.982.61-.797 2.051-.862 3.045-.153 2.117-.23 4.234-.295 6.363-.11 3.441-.175 6.886-.197 10.335l.415-.404c-6.308.12-12.584.808-18.892.939l.393.295c-.764-2.183-.328-4.944-.142-7.204.186-2.259.524-4.715.633-7.083.022-.546-.797-.546-.819-.022zM46.85 9.527a7.389 7.389 0 0 0-8.556 2.324c-1.736 2.281-2.358 5.927.196 7.837a6.723 6.723 0 0 0 7.804 0c.425-.306.97-.699 1.091-1.245a1.091 1.091 0 0 0-.764-1.211c-1.222-.47-2.827.699-3.656 1.495a6.614 6.614 0 0 0-.382 9.07c.338.404.917-.175.578-.579a5.795 5.795 0 0 1 .48-8.01c.404-.36 1.441-1.245 2.041-1.19 1.714.153-.196 1.277-.589 1.473-1.26.63-2.7.8-4.07.48a4.246 4.246 0 0 1-3.275-2.652 5.926 5.926 0 0 1 .851-4.365 6.548 6.548 0 0 1 8.066-2.598c.49.186.71-.6.218-.786l-.033-.043z" fill="#000"/>
        <path d="M5.01 151.245a.502.502 0 0 0 .491-.49c.295-3.542.295-7.1 0-10.642l-.36.47c4.147-.655 8.546-.426 12.726-.415a91.329 91.329 0 0 1 12.464.414c.294 0 .654-.12.622-.469a62.21 62.21 0 0 1 0-7.945l-.491.49c9.473-.337 18.968-.294 28.452-.294a.491.491 0 0 0 0-.982c-9.484 0-18.98 0-28.452.295a.513.513 0 0 0-.492.49 62.21 62.21 0 0 0 0 7.946l.623-.48a93.413 93.413 0 0 0-12.726-.448 83.23 83.23 0 0 0-12.988.448.491.491 0 0 0-.36.48c.295 3.541.295 7.1 0 10.641l.491-.49v.981zM92.404 103.411c.295-3.54.295-7.1 0-10.64l-.36.468c4.147-.654 8.556-.425 12.736-.414a91.383 91.383 0 0 1 12.464.414c.284 0 .644-.12.622-.469a62.21 62.21 0 0 1 0-7.945l-.49.49c9.473-.337 18.957-.294 28.441-.294a.502.502 0 0 0 .491-.49V73.42l-.49.49h22.198a.491.491 0 1 0 0-.982h-22.199a.491.491 0 0 0-.491.492v11.11l.491-.491c-9.484 0-18.968 0-28.442.295a.491.491 0 0 0-.491.49 62.21 62.21 0 0 0 0 7.946l.622-.48a93.479 93.479 0 0 0-12.726-.448 83.372 83.372 0 0 0-12.998.448.491.491 0 0 0-.36.48c.294 3.541.294 7.1 0 10.641 0 .633.938.633.982 0z" fill="#231F20"/>
    </g>
</svg>
