<svg width="237" height="237" viewBox="0 0 237 237" xmlns="http://www.w3.org/2000/svg">
    <g fill-rule="nonzero" fill="none">
        <path d="M49.745 213.3c-8.657-5.05-19.498-15.3-21.614-25.027-2.116-9.726-11.25-34.98-11.25-44.992 0-20.966 13.275-26.233 9.418-46.846-.921-4.937-1.956-9.92-1.604-14.937a38.235 38.235 0 0 1 3.322-12.513c9.408-22.013 31.978-37.78 55.89-39.031 11.115-.603 52.49-14.641 68.632-7.065 34.48 16.188 45.959 77.71 53.376 89.2 7.417 11.49 14.504 24.367 13.765 38.075-.74 13.708-9.408 25.914-20.613 33.673-11.206 7.758-17.497 24.003-30.943 26.233-13.446 2.23-82.112 2.946-99.881 4.391-.034 0-17.224-.42-18.498-1.16z" opacity=".1" fill="#7582FF"/>
        <path d="M85.58 49.509v3.174c-.5 3.731-3.038 13.549-3.606 13.97-.91.67-9.704 1.353-10.09 1.137-.388-.216-1.764-13.469-1.4-16.666a7.781 7.781 0 0 1 .614-2.662c.367-.7.898-1.301 1.547-1.752 4.437-3.162 9.044-1.376 11.376 0a3.185 3.185 0 0 1 1.559 2.799z" fill="#000"/>
        <path d="M81.917 66.653c-1.07-.228-2.276-.706-2.094-1.604.296-1.388 1.673-2.276 2.47-3.413a7.702 7.702 0 0 0 1.023-2.73c.466-2.06 1.775-8.066-.49-10.728-2.104-2.469-8.156-3.959-10.602 1.877a10.864 10.864 0 0 0 0 9.1c.558 1.036 1.377 1.912 1.991 2.913.694.958.94 2.17.671 3.322a5.881 5.881 0 0 1-3.117 2.355c-.193.09 1.41 1.604 3.038 1.717.591 0 3.196.933 4.641.342.58-.228 4.107-2.037 4.55-2.275.694-.171-1-.649-2.081-.876z" fill="#FFF"/>
        <path d="M82.03 66.243c-.944-.216-2.172-.603-1.513-1.809a11.968 11.968 0 0 1 1.604-1.877 8.066 8.066 0 0 0 1.673-3.81c.607-2.342.838-4.765.682-7.179a6.063 6.063 0 0 0-2.89-4.926 7.247 7.247 0 0 0-5.528-.807c-5.506 1.58-6.507 9.976-3.777 14.197.944 1.456 2.742 3.105 2.275 5.028a2.878 2.878 0 0 1-1.501 1.604c-.421.262-1.422.512-1.65.956-.33.66.944 1.376 1.354 1.626a10 10 0 0 0 3.185.945 6.473 6.473 0 0 0 3.777 0c1.001-.399 1.968-.945 2.935-1.434.432-.216 1.786-.603 1.923-1.137.204-.956-2.06-1.252-2.583-1.366-.523-.113-.773.706-.227.82.375.09 1.843.261 2.025.648v-.432a6.95 6.95 0 0 1-1.57.762c-.853.432-1.695.876-2.56 1.274a4.96 4.96 0 0 1-2.992.16 20.34 20.34 0 0 1-2.628-.558 4.004 4.004 0 0 1-1.66-1.001l-.126-.125c0 .295.205.307.455 0 .33-.125.637-.302.91-.524a3.572 3.572 0 0 0 1.787-2.082c.591-2.775-2.276-4.755-3.174-7.075-1.673-4.323.182-12.036 5.915-11.695a6.223 6.223 0 0 1 4.346 2.048c1.479 1.786 1.263 4.641 1.012 6.825-.307 2.56-.728 5.29-2.548 7.224-.682.717-1.752 1.752-1.593 2.867.16 1.115 1.502 1.467 2.4 1.672.57.137.797-.694.262-.819z" fill="#000"/>
        <path d="M73.055 47.2a9.738 9.738 0 0 1 7.019-1.4c1.25.277 2.42.842 3.413 1.65.67.49 1.387 1.217 1.217 2.059a1.74 1.74 0 0 1-.353.728 4.687 4.687 0 0 1-3.822 1.445c-1.422 0-2.833-.398-4.255-.376a3.697 3.697 0 0 0-1.672.33 3.56 3.56 0 0 0-1.41 1.434c-.968 1.638-.774 4.38-.41 6.905-1.718-1.206-2.39-6.473-1.786-9.545l2.059-3.23z" fill="#000"/>
        <path d="M88.685 139.414c.186.354.305.74.353 1.137.694.432 4.277 1.138 5.54 2.742a1.65 1.65 0 0 1 0 2.15c-.341.42-9.874.58-11.376.489a1.445 1.445 0 0 1-.921-.296 1.547 1.547 0 0 1-.376-.842c-.364-1.695-.648-3.697.558-4.96a4.425 4.425 0 0 1 2.002-1.058 11.137 11.137 0 0 1 4.22.638z" fill="#FFF"/>
        <path d="M88.242 139.675c.25.387.159 1.024.546 1.308.355.206.738.36 1.137.455 1.151.341 2.261.807 3.31 1.388.547.342 1.218.83 1.218 1.536a1.57 1.57 0 0 1-.182.66c.08-.091 0 0-.182 0-.68.095-1.362.156-2.048.182-2.138.125-4.277.17-6.416.193h-2.161a3.72 3.72 0 0 1-.5 0c-.513-.102-.535-.67-.615-1.137a8.452 8.452 0 0 1-.205-2.332 2.924 2.924 0 0 1 3.129-2.651 15.05 15.05 0 0 1 1.888.25c.28.045.557.105.83.182.103 0 .399.16.342.103a.512.512 0 0 0 .716-.717 2.275 2.275 0 0 0-1.137-.455 17.644 17.644 0 0 0-1.889-.307 4.482 4.482 0 0 0-3.754 1.024c-1.308 1.137-1.274 3.06-1.012 4.664.125.75.205 1.774.944 2.195.453.206.949.296 1.445.262 2.207 0 4.425 0 6.62-.091 1.07 0 2.14-.091 3.209-.193.74-.08 1.376-.069 1.763-.808.887-1.73-.774-3.083-2.161-3.777a18.44 18.44 0 0 0-2.276-.91 7.963 7.963 0 0 1-1.524-.569l.239.307a3.151 3.151 0 0 0-.421-1.24c-.33-.591-1.206-.08-.853.478z" fill="#000"/>
        <path d="M74.727 139.414c.187.354.31.74.364 1.137.694.432 4.277 1.138 5.54 2.742a1.65 1.65 0 0 1 0 2.15c-.341.42-9.874.58-11.376.489a1.445 1.445 0 0 1-.921-.296 1.468 1.468 0 0 1-.376-.842c-.364-1.695-.648-3.697.546-4.96a4.55 4.55 0 0 1 2.014-1.058c1.431-.062 2.86.155 4.21.638z" fill="#FFF"/>
        <path d="M74.283 139.675c.25.387.16 1.024.546 1.308.357.203.74.356 1.138.455 1.158.342 2.275.807 3.333 1.388.546.342 1.217.83 1.217 1.536-.01.233-.075.46-.193.66.08-.091 0 0-.17 0-.683.102-1.366.148-2.048.182-2.139.125-4.278.17-6.416.193h-2.162a3.56 3.56 0 0 1-.5 0c-.512-.102-.535-.67-.615-1.137a8.452 8.452 0 0 1-.216-2.332 2.935 2.935 0 0 1 3.117-2.651c.634.044 1.265.128 1.889.25.28.045.557.105.83.182.102 0 .398.16.33.103.466.466 1.194-.25.728-.717a2.275 2.275 0 0 0-1.138-.455 17.849 17.849 0 0 0-1.9-.307 4.448 4.448 0 0 0-3.742 1.024c-1.308 1.137-1.274 3.06-1.012 4.664.125.75.204 1.774.944 2.195.452.208.949.298 1.444.262 2.207 0 4.414 0 6.621-.091 1.07 0 2.139-.091 3.197-.193.74-.08 1.388-.069 1.763-.808.888-1.73-.762-3.083-2.15-3.777a17.894 17.894 0 0 0-2.275-.91 7.804 7.804 0 0 1-1.513-.569l.239.307a3.151 3.151 0 0 0-.421-1.24c-.33-.591-1.251-.08-.865.478z" fill="#000"/>
        <path d="M69.801 93.25c.216 10.92-1.877 43.285-1.615 44.878.048.445.222.867.5 1.217.395.351.887.573 1.411.637a20.84 20.84 0 0 0 5.688-.102c.301-.196.513-.503.592-.853.375-1.138 3.162-24.538 3.936-34.936 3.128 10.511.625 34.8 1.33 35.368.706.569 4.983.58 5.893.66.387.068.785.013 1.138-.16.332-.29.54-.697.58-1.137.603-3.583-.58-34.23-1.251-45.914-5.006-.978-18.202.342-18.202.342z" fill="#FFF"/>
        <path d="M69.346 93.25c.25 13.207-.899 26.472-1.479 39.656a47.836 47.836 0 0 0-.148 4.949c.217 3.288 4.369 2.81 6.746 2.628 1.138-.091 1.946-.16 2.276-1.4.14-.564.235-1.138.284-1.717.398-2.708.717-5.427 1.047-8.145 1-8.362 1.979-16.734 2.605-25.13l-.842.114c2.013 6.825 1.706 14.55 1.558 21.614-.068 3.22-.204 6.439-.318 9.658 0 .956-.068 1.912 0 2.867-.065.45.006.91.205 1.32.523.682 2.275.591 3.014.648 1.138.091 3.413.603 4.46 0 1.33-.716 1.035-3.413 1.046-4.72.091-6.485-.17-12.992-.387-19.477-.273-7.77-.58-15.55-1.012-23.309a.444.444 0 0 0-.319-.42 48.576 48.576 0 0 0-10.91-.172c-2.468.126-4.936.308-7.382.547-.546 0-.558.91 0 .853 2.343-.228 4.687-.398 7.042-.535a48.917 48.917 0 0 1 11.023.137l-.307-.353c.728 12.98 1.274 26.005 1.4 39.008 0 1.991.056 4.005-.07 6.007.005.24-.014.48-.056.716-.319 1.138-1.07 1.138-2.014 1.047a33.116 33.116 0 0 1-4.55-.387c-.455-.08-.25.08-.364-.205a2.81 2.81 0 0 1 0-.875c0-.922 0-1.843.057-2.776.102-2.958.227-5.904.296-8.873.216-7.384.557-15.38-1.525-22.514a.432.432 0 0 0-.842.114c-.512 6.928-1.296 13.845-2.093 20.761-.364 3.174-.74 6.337-1.137 9.51a21.034 21.034 0 0 1-.672 4.551c-.477 1.229-3.412.83-4.55.785-1.445-.057-2.821-.626-2.867-2.105-.057-1.672.091-3.412.16-5.028.284-6.28.614-12.513.898-18.85.307-6.825.694-13.65.569-20.477a.432.432 0 0 0-.842-.022z" fill="#000"/>
        <path d="M100.653 99.53c.42-.115 1.138-.615 1.24-1.047.102-.433-5.472-2.537-4.255-4.278.125-.182 2.276-.102 2.276-.318-.069-1.001-2.879-1.308-3.186-1.377a1.058 1.058 0 0 0-.898.205 8.52 8.52 0 0 0-1.593 2.275 1.82 1.82 0 0 0 .49 1.468c1.364 1.695 5.334 3.253 5.926 3.071z" fill="#FFF"/>
        <path d="M100.767 99.95c.75-.25 2.184-1.297 1.137-2.025-.625-.455-1.353-.785-2.013-1.194a5.074 5.074 0 0 1-1.946-1.684.762.762 0 0 1-.09-.318.364.364 0 0 1 0-.148v-.069c0-.068-.103.091-.114 0-.012-.09 1.137-.09 1.217-.09.341 0 .876 0 1.138-.262.261-.262 0-.91-.33-1.138a5.779 5.779 0 0 0-2.742-.91 1.945 1.945 0 0 0-1.388.114 3.731 3.731 0 0 0-.921.967 6.098 6.098 0 0 0-.945 1.467c-.195.73.008 1.508.535 2.048a9.59 9.59 0 0 0 3.413 2.343c.571.272 1.16.504 1.763.694a2.4 2.4 0 0 0 1.195.171.432.432 0 0 0-.228-.83h-.136a2.48 2.48 0 0 1-.5-.126c-.451-.128-.892-.288-1.32-.477a12.15 12.15 0 0 1-2.924-1.707 2.719 2.719 0 0 1-1.024-1.399c-.091-.478.296-.933.557-1.285.255-.352.533-.686.83-1.002.251-.25.547-.193.865-.147.82.061 1.619.294 2.344.682.068 0 .182.194.216.205l.228-.353h-.273c-.421 0-.842 0-1.263.08-.421.08-.717 0-.922.364-.18.296-.241.65-.17.99a3.288 3.288 0 0 0 1.353 1.706c.76.556 1.559 1.058 2.39 1.502l.432.261.182.114s.17.091.068 0c.091 0 0 .102 0 0s-.114-.239 0-.216a1.627 1.627 0 0 1-.921.682c-.399.33-.217 1.16.307.99z" fill="#000"/>
        <path d="M69.813 80.327c0 2.741-1.286 11.455-.285 14.026 6.485-.114 12.32 0 18.805-.148 1.888 0-.74-15.926-.17-21.25.25-2.355.932 23.89 7.064 25.243 0 0-.91-4.55.67-6.643C94.51 94.103 97.9 59.44 80.359 66.64c-2.275.91-3.276-.42-6.825-.352" fill="#C7CDFF"/>
        <path d="M69.346 80.327c0 2.411-.341 4.846-.512 7.257-.148 2.185-.5 4.79.25 6.906.062.22.261.373.49.375 4.641-.068 9.271 0 13.913-.09h3.242a4.55 4.55 0 0 0 2.036-.115 1.66 1.66 0 0 0 .66-1.137c.284-2.03.284-4.09 0-6.12-.182-2.81-.444-5.609-.626-8.407a71.549 71.549 0 0 1-.16-3.823v-1.547c0-.125.103-.5 0-.603.08.148-.875-.08-.943 0a3.88 3.88 0 0 0 .102.899c.068.671.125 1.342.182 2.002a109.21 109.21 0 0 0 1.843 12.866 28.747 28.747 0 0 0 2.093 6.644 5.529 5.529 0 0 0 3.197 3.265.523.523 0 0 0 .637-.637c-.387-1.968-.558-4.55.614-6.246l-.853-.523s.74 0 .683.091c-.057.091 0-.125 0-.205a3.697 3.697 0 0 0-.091-.853c-.08-.956-.114-1.922-.16-2.89a83.272 83.272 0 0 0-.864-8.577c-.83-4.983-2.64-12.218-8.407-13.526a9.954 9.954 0 0 0-4.87.284c-1.285.376-2.274.967-3.696.751a28.93 28.93 0 0 0-4.426-.591.512.512 0 1 0 0 1.024c1.443.078 2.877.272 4.29.58a5.881 5.881 0 0 0 3.116-.444 9.965 9.965 0 0 1 4.949-.683c2.9.478 4.79 2.867 5.95 5.404 2.388 5.46 2.605 11.877 2.946 17.724-.04.765.032 1.531.216 2.275.227.58.83.82 1.138.193a.515.515 0 0 0-.888-.523c-1.342 1.968-1.137 4.812-.716 7.042l.625-.626c-1.49-.387-2.275-2.116-2.867-3.413a32.171 32.171 0 0 1-1.82-6.325 116.638 116.638 0 0 1-1.706-12.877c0-.524.09-2.446-.512-2.742a.49.49 0 0 0-.512 0c-.5.364-.353 1.342-.375 1.866 0 1.41 0 2.821.125 4.22.205 3.413.546 6.723.74 10.102.073 1.25.073 2.504 0 3.754.022.426-.043.852-.194 1.252 0 0-.17.33 0 .136-.239.228-1.832 0-2.196 0-5.54.068-11.069 0-16.609.114l.5.375c-.75-2.127-.34-4.8-.193-6.996.148-2.196.501-4.55.49-6.894a.512.512 0 1 0-1.024 0l.193.012z" fill="#231F20"/>
        <path d="M73.59 66.289c-20.386.364 10.784 33.377 10.613 33.354-1.524-.148 4.664-3.413 3.151-3.629 0 0-10.238-15.198-13.878-21.398" fill="#C7CDFF"/>
        <path d="M73.59 65.777c-2.651.068-5.836.67-6.997 3.412-1.07 2.537 0 5.586.944 7.964 2.844 6.757 7.668 12.752 12.355 18.315.91 1.138 1.843 2.161 2.787 3.23l.796.9c.478.534.08.295.228-.08l.625-.353c-.182 0 .103.319.25.296.149-.023.342-.307.444-.398.376-.319.797-.614 1.138-.91.341-.296 1.433-.899 1.752-1.536a.796.796 0 0 0 .102-.637c-.08-.216-.569-.512-.375-.319.193.194 0 0 0-.125s-.285-.432-.432-.648a902.456 902.456 0 0 1-8.532-12.9c-1.627-2.515-3.254-5.029-4.767-7.611a.512.512 0 0 0-.876.512c2.924 5.017 6.177 9.84 9.385 14.675 1.274 1.911 2.537 3.822 3.823 5.688.192.348.412.679.66.99.523.534.34-.148.17-.148s-.853.75-1.012.864c-.353.273-4.073 2.787-1.991 3.163a.535.535 0 0 0 .625-.364c.148-.364-.432-.842-.637-1.138l-1.843-2.093a141.545 141.545 0 0 1-6.074-7.474 74.24 74.24 0 0 1-6.2-9.374c-1.365-2.514-2.833-5.472-2.753-8.407.102-3.538 3.413-4.482 6.404-4.55.66 0 .66-1.047 0-1.024v.08z" fill="#231F20"/>
        <path d="M137.864 140.824c-.187.355-.31.74-.364 1.138-.694.432-4.278 1.137-5.54 2.741a1.65 1.65 0 0 0 0 2.15c.341.421 9.885.592 11.376.49.332.01.657-.095.921-.296.212-.233.344-.528.376-.842.364-1.695.648-3.697-.546-4.949a4.437 4.437 0 0 0-2.014-1.069 11.069 11.069 0 0 0-4.21.637z" fill="#FFF"/>
        <path d="M137.42 140.574c-.222.38-.362.802-.41 1.24l.228-.307c-.4.199-.82.359-1.251.477-.66.228-1.32.456-1.957.74-1.217.523-2.832 1.365-2.969 2.855a1.98 1.98 0 0 0 .683 1.74c.225.105.468.167.716.183.956.136 1.923.17 2.89.216 2.275.114 4.664.17 6.996.148 1.047 0 2.275 0 2.65-1.138a7.053 7.053 0 0 0 0-4.971 4.073 4.073 0 0 0-3.958-2.07c-.73.06-1.456.167-2.173.318a2.764 2.764 0 0 0-1.365.5.512.512 0 0 0 .728.717c-.068.069.148 0 .239-.068.09-.068.443-.114.671-.17.58-.114 1.138-.205 1.775-.262a3.094 3.094 0 0 1 3.208 1.547 4.55 4.55 0 0 1 .25 2.275c0 .592-.102 2.139-.808 2.275a9.692 9.692 0 0 1-1.99.057c-2.117 0-4.232 0-6.36-.148-.819 0-1.65-.08-2.468-.182a1.66 1.66 0 0 1-.546-.102c.193.125-.069-.285-.091-.398a1.331 1.331 0 0 1 .489-1.252 9.658 9.658 0 0 1 3.663-1.786c.48-.133.949-.308 1.4-.523.488-.296.352-.91.648-1.365.295-.455-.535-1.104-.888-.546z" fill="#000"/>
        <path d="M166.36 156.682c-.187.355-.31.74-.363 1.138-.683.432-4.266 1.137-5.529 2.742a1.65 1.65 0 0 0 0 2.15c.33.42 9.874.591 11.376.489.332.01.657-.094.921-.296.208-.236.34-.53.376-.842.364-1.695.648-3.697-.558-4.948a4.334 4.334 0 0 0-2.002-1.07 11.137 11.137 0 0 0-4.22.637z" fill="#FFF"/>
        <path d="M165.917 156.432a3.322 3.322 0 0 0-.41 1.24l.24-.307c-.405.2-.828.36-1.263.478-.66.227-1.309.455-1.957.74-1.206.522-2.833 1.364-2.958 2.854a1.957 1.957 0 0 0 .683 1.741 1.9 1.9 0 0 0 .717.182c.955.137 1.922.17 2.878.216 2.332.114 4.664.17 7.007.148 1.035 0 2.275 0 2.65-1.138a7.053 7.053 0 0 0 0-4.97 4.084 4.084 0 0 0-3.958-2.071c-.734.06-1.464.166-2.184.318a2.764 2.764 0 0 0-1.365.5c-.455.467.261 1.138.728.717-.068.069.159 0 .239-.068l.67-.17a17.058 17.058 0 0 1 1.776-.262c1.29-.22 2.577.4 3.208 1.547.289.721.375 1.508.25 2.275-.057.592-.103 2.139-.797 2.275a9.715 9.715 0 0 1-1.99.057c-2.128 0-4.244 0-6.36-.148-.819 0-1.66-.08-2.48-.182a1.786 1.786 0 0 1-.546-.102c.194.125-.068-.284-.09-.398-.07-.474.115-.95.489-1.251a9.738 9.738 0 0 1 3.663-1.787c.48-.133.949-.308 1.399-.523.5-.296.364-.91.648-1.365.285-.455-.534-1.103-.887-.546z" fill="#000"/>
        <path d="M171.298 110.518c-.228 10.921 1.877 43.286 1.604 44.879-.04.445-.21.868-.49 1.217-.4.349-.894.57-1.421.637a20.875 20.875 0 0 1-5.688-.102 1.354 1.354 0 0 1-.58-.853c-.376-1.138-3.174-24.539-3.937-34.936-5.198.967-14.993 3.049-15.869 6.94-2.06 9.157-.444 12.592-.865 12.945-.42.353-5.324-.273-6.222-.193-.387 0-.808-5.37-.83-14.277 0-7.36 15.755-10.466 16.108-16.643 4.971-.933 18.19.386 18.19.386z" fill="#FFF"/>
        <path d="M170.877 110.518c-.239 12.514.796 25.028 1.377 37.541.09 1.991.193 3.993.238 5.995.046.44.046.881 0 1.32-.432 2.082-3.73 1.695-5.415 1.593-.785 0-1.615.113-1.945-.74a3.413 3.413 0 0 1-.102-.489c-.17-.74-.24-1.524-.342-2.275a427.05 427.05 0 0 1-1.058-8.543c-.932-7.816-1.831-15.654-2.411-23.503a.444.444 0 0 0-.546-.421 69.837 69.837 0 0 0-8.862 2.15c-2.275.75-5.097 1.718-6.621 3.72a8.703 8.703 0 0 0-1.138 3.959 38.77 38.77 0 0 0-.557 4.994 26.301 26.301 0 0 0 .08 3.413c.139.553.2 1.124.182 1.695v.159c.148-.194-.273-.057-.376-.068h-1.786a23.992 23.992 0 0 1-3.504-.285c.171 0 0 .228 0-.227s-.125-.785-.159-1.138c-.136-1.274-.205-2.56-.262-3.834-.08-1.9-.125-3.8-.159-5.688a12.32 12.32 0 0 1 .364-4.789c.944-2.275 3.186-3.834 5.142-5.13 2.355-1.57 4.88-2.913 7.133-4.642 1.638-1.251 3.276-2.821 3.413-4.994l-.319.41a48.917 48.917 0 0 1 11.024-.137c2.354.136 4.71.307 7.053.535.546 0 .546-.797 0-.854a150.295 150.295 0 0 0-7.383-.546 48.69 48.69 0 0 0-10.921.171.432.432 0 0 0-.307.421c-.194 2.275-2.47 3.913-4.21 5.108-2.275 1.558-4.698 2.867-6.939 4.46a12.206 12.206 0 0 0-4.55 4.868 9.271 9.271 0 0 0-.455 3.834c0 2.139.056 4.289.148 6.427 0 1.4.125 2.787.261 4.175a6.177 6.177 0 0 0 .307 1.991c.25.523.535.455 1.138.49 1.297.079 2.594.26 3.89.318 1.297.057 2.378.09 2.276-1.445a33.662 33.662 0 0 1 0-7.019c.216-1.923.25-4.79 1.626-6.29a11.376 11.376 0 0 1 4.13-2.72 57.54 57.54 0 0 1 10.568-2.753l-.534-.41c.546 7.452 1.399 14.892 2.275 22.32.375 3.152.75 6.291 1.137 9.431.148 1.138.08 3.868 1.388 4.448 1.34.347 2.733.44 4.107.273 1.524 0 3.413-.17 3.925-1.888.23-1.358.248-2.743.057-4.107-.25-6.37-.615-12.753-.91-19.123-.342-7.383-.785-14.789-.638-22.195a.432.432 0 0 0-.83.034z" fill="#000"/>
        <path d="M130.515 106.287c-.421-.114-1.138-.626-1.24-1.047-.102-.42 5.472-2.548 4.255-4.277-.126-.182-2.276-.103-2.276-.319.069-1.001 2.879-1.32 3.186-1.376.31-.08.638-.008.887.193a8.339 8.339 0 0 1 1.593 2.275 1.775 1.775 0 0 1-.455 1.48c-1.388 1.705-5.358 3.253-5.95 3.07z" fill="#FFF"/>
        <path d="M130.629 105.888a1.957 1.957 0 0 1-.683-.398l-.239-.284s-.08.33-.08.25c0-.08 0 0 .149-.102l.364-.228c.693-.398 1.399-.785 2.07-1.24a5.04 5.04 0 0 0 1.718-1.638c.284-.546.33-1.536-.398-1.74a4.812 4.812 0 0 0-1.138-.103h-.888c.126.398.205.5.25.319.046-.182.137-.148.217-.205.17-.112.353-.2.546-.262a8.327 8.327 0 0 1 1.297-.33c.262-.062.528-.107.796-.136.467 0 .672.296.945.614.33.383.628.794.887 1.229.232.52.093 1.132-.341 1.501a9.397 9.397 0 0 1-3.117 2.014c-.502.238-1.02.443-1.548.614l-.603.16h-.215c-.092 0 .079 0 0 0-.535-.126-.763.694-.228.819.337.051.681.016 1-.103a14.539 14.539 0 0 0 1.537-.557 12.616 12.616 0 0 0 3.276-1.968c.529-.42.924-.986 1.138-1.627a2.06 2.06 0 0 0-.433-1.706c-.32-.472-.674-.92-1.058-1.343a1.524 1.524 0 0 0-1.456-.546 9.67 9.67 0 0 0-2.48.569 1.752 1.752 0 0 0-1.024.887c-.17.467.091.751.535.83.444.08.956.069 1.422.103.157.005.313.024.466.057a.648.648 0 0 1-.147-.114v.08a.933.933 0 0 1 0 .16c-.038.296-.18.57-.399.773a5.938 5.938 0 0 1-1.046.876c-.785.534-1.65.955-2.446 1.479-.25.147-.535.34-.535.66 0 .693.979 1.273 1.547 1.456.57.182.854-.649.342-.82z" fill="#000"/>
        <path d="M171.287 97.595c-.057 2.742 1.274 11.456.273 14.027-6.485-.102-12.32 0-18.805-.148-1.888 0 .75-15.926.17-21.25-.25-2.355-10.852 13.355-16.984 14.788 0 0 .91-4.55-.67-6.643 1.387 2.548 12.615-19.408 25.47-14.413 2.275.875 3.276-.421 6.757-.353" fill="#C7CDFF"/>
        <path d="M170.775 97.595c0 2.276.318 4.55.477 6.894.16 2.344.57 4.87-.182 6.996l.49-.375c-3.925 0-7.85 0-11.775-.08h-5.37c-.55.08-1.11.08-1.66 0 .182.171.148 0 .114 0a1.388 1.388 0 0 1-.194-.67 23.207 23.207 0 0 1 0-5.404c.148-2.276.353-4.608.524-6.917.08-1.058 1.194-8.794-.706-8.498-.864.137-1.74 1.342-2.275 1.923-1.285 1.376-2.514 2.798-3.765 4.186-1.684 1.854-3.413 3.697-5.256 5.38a13.651 13.651 0 0 1-5.426 3.493l.694.626c.443-2.275.625-5.074-.717-7.042-.364-.534-1.24 0-.887.524.66 1.069 1.854 0 2.434-.57 1.581-1.535 2.935-3.31 4.414-4.936 3.81-4.198 8.782-9.215 14.789-9.397 1.831 0 3.287.694 5.017.978 1.945.319 4.004-.591 5.96-.591a.512.512 0 1 0 0-1.024c-1.774 0-3.503.682-5.244.66-1.41 0-2.775-.82-4.197-.979a13.378 13.378 0 0 0-7.611 1.65c-4.755 2.48-8.384 6.666-11.854 10.648-.671.773-1.32 1.558-2.059 2.275-.224.213-.46.414-.705.603-.262.205-.216 0-.114.17l-.887.524c1.137 1.718 1 4.277.625 6.245a.523.523 0 0 0 .626.637c3.584-.887 6.564-4.277 8.998-6.825 1.457-1.525 2.856-3.106 4.255-4.676.956-1.137 2.184-2.07 3.06-3.208.091-.114.273-.148.364-.25-.17.193.751-2.64-.33-.205-.056.125.057.398 0 .535-.102.887 0 1.877 0 2.776-.068 2.275-.261 4.55-.432 6.734-.17 2.184-.375 4.55-.455 6.758a10.398 10.398 0 0 0 .262 4.106c.12.398.447.699.853.785.934.091 1.875.091 2.81 0h3.208c4.289 0 8.566 0 12.843.08a.523.523 0 0 0 .5-.376c.74-2.115.399-4.71.24-6.905-.16-2.411-.524-4.846-.5-7.258a.512.512 0 1 0-1.025 0h.069z" fill="#231F20"/>
        <path d="M167.498 83.535c1.946 0 4.55.09 5.427 1.137 13.833 17.064-26.597 20.716-26.427 20.705 1.513-.16-4.675-3.482-3.162-3.63 0 0 20.681-3.742 24.287-9.942" fill="#C7CDFF"/>
        <path d="M167.498 84.07c1.468 0 3.413-.149 4.733.727a8.316 8.316 0 0 1 1.98 2.753 7.963 7.963 0 0 1 1.069 4.38c-.262 2.855-2.571 4.949-4.858 6.382-5.563 3.492-12.514 4.914-18.861 5.961a95.987 95.987 0 0 1-3.63.512c-.33 0-.716 0-1.046.114-.102 0-.557 0-.25.068v.978c2.036-.364-1.547-2.81-1.911-3.083-.137-.102-.945-.944-1.138-.944-.193 0-.182.364-.137.398.046.035.126 0 .16 0a5.904 5.904 0 0 0 1.695-.34 78.005 78.005 0 0 0 16.04-4.893c2.457-1.137 5.233-2.525 6.689-4.914.341-.557-.546-1.08-.887-.512-1.274 2.093-3.766 3.356-5.916 4.357a58.348 58.348 0 0 1-8.737 3.128 109.905 109.905 0 0 1-7.11 1.764c-.568.125-2.468.17-2.764.842-.296.67.728 1.387 1.138 1.74l1.365 1.024c.229.226.48.428.75.603 0 0 .114.16.16.17.045.012.42-.33.25-.295a.512.512 0 0 0 0 .978c.446.028.894-.007 1.331-.102a91.696 91.696 0 0 0 3.288-.455 84.182 84.182 0 0 0 10.352-2.207c5.404-1.547 14.516-4.55 14.97-11.376a9.328 9.328 0 0 0-1.433-5.222 7.542 7.542 0 0 0-2.275-2.787c-1.467-.853-3.47-.796-5.108-.796a.512.512 0 1 0 0 1.024l.091.022z" fill="#231F20"/>
        <path d="M154.268 65.674v4.653c.41 3.538 2.207 6.69 3.982 9.715a5.278 5.278 0 0 0 1.24 1.616 2.548 2.548 0 0 0 2.969 0 7.69 7.69 0 0 1 .967-.763c.478-.239 3.413-2.377 3.97-3.492a15.13 15.13 0 0 0 1.138-8.316 7.019 7.019 0 0 0-.535-2.525 4.63 4.63 0 0 0-1.433-1.673c-5.893-4.368-12.298.785-12.298.785z" fill="#000"/>
        <path d="M158.568 84.433a2.446 2.446 0 0 0 .888-2.275c-.262-1.32-1.548-2.127-2.276-3.242a7.383 7.383 0 0 1-.933-2.594c-.398-1.956-1.547-7.656.638-10.136 2.024-2.275 7.78-3.606 9.999 1.945a10.238 10.238 0 0 1-.205 8.635c-.546.967-1.33 1.786-1.922 2.719a4.698 4.698 0 0 0-.694 3.14c.114.91 1.615 1.217 1.137 1.706-.862.381-1.743.72-2.639 1.012-.99.342-3.993-.91-3.993-.91z" fill="#FFF"/>
        <path d="M158.864 84.73c1.627-1.4 1.138-3.311-.16-4.722a7.247 7.247 0 0 1-1.83-2.946 24.037 24.037 0 0 1-.49-2.355c-.557-3.22-1.07-7.713 2.389-9.454a5.95 5.95 0 0 1 4.323-.455 6.052 6.052 0 0 1 3.731 4.391 9.442 9.442 0 0 1-.682 7.588c-1.138 1.775-3.277 3.732-2.446 6.086.261.502.655.923 1.137 1.218-.08 0 .41-.137 0-.069-.726.212-1.437.474-2.127.785-1.263.398-2.844-.295-4.027-.785-.5-.204-.717.626-.216.83a7.85 7.85 0 0 0 4.061.91c.618-.165 1.223-.378 1.809-.636.432-.16 1.137-.296 1.365-.785.284-.705-.626-.99-.967-1.41-1.024-1.275.398-3.345 1.138-4.358a9.897 9.897 0 0 0 2.184-7.36c-.41-3.856-2.742-7.86-7.122-7.451a7.076 7.076 0 0 0-3.958 1.65 6.61 6.61 0 0 0-1.832 4.88c-.03 2.051.19 4.1.66 6.097a7.429 7.429 0 0 0 1.718 3.629c1.069 1.195 2.275 2.73.705 4.118-.387.364.227.967.637.603z" fill="#000"/>
        <path d="M166.11 65.81a9.544 9.544 0 0 0-6.609-1.398 7.963 7.963 0 0 0-3.31 1.433c-.637.42-1.331 1.07-1.138 1.843.058.242.171.468.33.66a4.55 4.55 0 0 0 3.652 1.422c1.342 0 2.684-.308 4.027-.273.541-.001 1.077.115 1.57.34.548.308 1 .76 1.308 1.31a10.875 10.875 0 0 1 1.08 5.13 11.433 11.433 0 0 0 1.036-7.463l-1.946-3.003z" fill="#000"/>
        <path d="M91.017 84.16a98.357 98.357 0 0 0-.34 18.839c4.208-.102 14.572-.557 15.334 0 0 0-.648 13.162 0 17.44 5.46.113 12.969-.103 18.43 0-.422-6.11.409-11.377 0-17.44 5.976.393 11.973.393 17.95 0a150.97 150.97 0 0 0-.534-18.839c-10.41.762-50.84 0-50.84 0z" fill="#C7CDFF"/>
        <path d="M90.506 84.16A102.202 102.202 0 0 0 90.164 103c0 .283.23.512.512.512 3.413-.08 6.826-.228 10.159-.262 1.365 0 2.742 0 4.107.068a2.4 2.4 0 0 0 .625.069h.194c-.17-.467-.262-.603-.262-.41v.637c-.239 5.552-.74 11.376 0 16.905a.5.5 0 0 0 .49.375c6.142.114 12.285-.113 18.428 0 .283 0 .512-.229.512-.512-.364-5.813.364-11.626 0-17.439l-.512.512a136.99 136.99 0 0 0 17.952 0c.282 0 .512-.23.512-.512.185-6.285.007-12.575-.535-18.839a.512.512 0 0 0-.512-.512c-7.258.524-14.607.365-21.876.33-7.956 0-15.919-.08-23.89-.239l-5.096-.09a.512.512 0 0 0 0 1.023c13.458.262 26.927.444 40.385.307 3.48 0 6.973 0 10.454-.307l-.512-.512c.542 6.264.72 12.554.535 18.84l.512-.513a136.99 136.99 0 0 1-17.951 0 .512.512 0 0 0-.512.512c.364 5.813-.364 11.626 0 17.44l.512-.512c-6.143-.114-12.286.113-18.43 0l.501.375a62.898 62.898 0 0 1-.227-10.352c.045-2.275.125-4.592.238-6.95a.523.523 0 0 0-.25-.445 4.448 4.448 0 0 0-1.968-.295c-1.433-.069-2.878 0-4.323 0-3.094 0-6.2.17-9.305.25l.512.512a102.202 102.202 0 0 1 .34-18.839c.115-.591-.91-.591-.977.034z" fill="#231F20"/>
        <path d="M52.055 163.565v16.267l34.128-.523c0-5.05 0-10.136.227-15.175 6.325-.194 12.639-.171 18.964 0 .091-6.7.182-10.956.273-17.656-10.99.899-34.572-.387-34.663 0v17.064l-18.93.023z" fill="#FFF"/>
        <path d="M51.543 163.565v16.267c0 .283.229.512.512.512l34.128-.523c.282 0 .512-.23.512-.512-.046-5.058.03-10.117.227-15.175l-.512.511c6.325-.182 12.639-.159 18.964 0a.523.523 0 0 0 .512-.511c.08-5.882.193-11.775.273-17.656a.512.512 0 0 0-.512-.512c-9.647.762-19.419.239-29.077 0-1.445 0-2.89-.08-4.334-.08-.546 0-1.468-.147-1.74.456a7.042 7.042 0 0 0 0 2.343v14.88l.511-.512H52.055a.512.512 0 1 0 0 1.024h18.918c.283 0 .512-.23.512-.512v-12.992a22.57 22.57 0 0 0 0-3.72c-.148-.853 0 .478-.341.091.336.034.675.034 1.012 0 1.377 0 2.764 0 4.14.069 4.551.113 9.01.239 13.527.295 5.256.069 10.557.137 15.813-.284l-.512-.512c-.08 5.882-.194 11.774-.273 17.656l.512-.512c-6.325-.16-12.64-.182-18.964 0a.523.523 0 0 0-.512.512 316.765 316.765 0 0 0-.228 15.175l.512-.512-34.128.524.512.512v-16.268a.512.512 0 0 0-1.012-.034z" fill="#231F20"/>
        <path d="M141.982 197.75h17.542c-.182-11.376-.364-22.047-.535-33.412-5.04.057-11.376 0-16.438-.227-.194-6.314-.17-11.285 0-17.599-6.7-.09-10.955.091-17.656 0 .888 10.978-.398 32.99 0 32.99h17.064l.023 18.248z" fill="#C7CDFF"/>
        <path d="M141.982 198.262h17.542c.282 0 .512-.23.512-.512-.182-11.141-.36-22.278-.535-33.412a.512.512 0 0 0-.512-.512c-5.483 0-10.966 0-16.438-.227l.512.512c-.182-5.87-.16-11.729 0-17.599a.512.512 0 0 0-.512-.512c-5.882-.08-11.774.068-17.656 0a.512.512 0 0 0-.512.512c.751 9.454.216 19.01 0 28.44 0 1.274-.09 2.548 0 3.822 0 .58 0 1.081.615 1.24.895.109 1.8.109 2.696 0h14.368l-.512-.511v18.201a.512.512 0 1 0 1.024 0v-18.201a.523.523 0 0 0-.512-.512h-16.484a4.255 4.255 0 0 0-.66 0c.102-.273.432.841.41-.217-.023-1.057 0-2.388.056-3.572.103-4.345.24-8.702.308-13.048.068-5.221.125-10.466-.285-15.676l-.512.512c5.882.068 11.774-.08 17.656 0l-.512-.512c-.16 5.87-.182 11.729 0 17.599.006.28.232.506.512.512 5.472.227 10.955.284 16.438.227l-.512-.512c.167 11.141.345 22.278.535 33.412l.512-.512h-17.542a.529.529 0 1 0 0 1.058z" fill="#231F20"/>
        <path d="M105.579 214.461H86.342c.182-11.376.17-43.661 0-49.986 6.7-.091 31.58-.182 38.28-.273.08 10.534.387 15.187 0 15.266H105.58v34.993z" fill="#FFF"/>
        <path d="M105.579 213.95H86.342l.512.511c.216-14.14.182-28.292.09-42.432 0-2.515 0-5.04-.09-7.554l-.512.512c10.489-.137 20.977-.137 31.466-.205 2.275 0 4.55 0 6.826-.068l-.512-.512c0 3.981.125 7.963.182 11.945a26.45 26.45 0 0 0 0 2.684s0 .785.159.228c.068-.239.25 0-.148-.103a12.605 12.605 0 0 0-2.173 0H105.58a.523.523 0 0 0-.512.512v35.027a.512.512 0 1 0 1.024 0v-35.06l-.512.511h13.116c1.894.129 3.794.129 5.688 0 1.138-.16.899-1.49.899-2.412 0-4.448-.16-8.907-.193-13.366a.512.512 0 0 0-.512-.512c-10.489.136-20.978.136-31.466.216h-6.826a.523.523 0 0 0-.512.512c.353 13.264.16 26.563.091 39.816 0 3.413 0 6.825-.09 10.159 0 .282.228.512.511.512h19.237a.512.512 0 0 0 .057-.922z" fill="#231F20"/>
        <path d="M159.217 164.168h19.236c-.17 11.376-.17 43.672 0 49.986-6.7.09-29.816.182-36.505.273-.08-10.523-.398-16.62 0-16.711h17.269v-33.548z" fill="#FFF"/>
        <path d="M159.217 164.68h19.236l-.511-.512c-.217 14.14-.183 28.292-.092 42.444 0 2.514 0 5.028.092 7.542l.511-.512c-12.172.16-24.344.114-36.505.273l.512.512c0-4.084-.125-8.18-.182-12.275v-3.265c.057-.257.076-.522.057-.785-.103-.159-.433 0-.273.125.159.126 1.433 0 1.695 0h15.46a.523.523 0 0 0 .512-.511v-33.548a.512.512 0 0 0-1.024 0v33.582l.512-.455h-15.7a6.826 6.826 0 0 0-1.524 0c-1.137.284-.728 2.457-.728 3.299 0 4.641.148 9.282.194 13.924 0 .283.229.512.512.512 12.16-.16 24.333-.114 36.505-.273.283 0 .512-.23.512-.512-.353-13.265-.16-26.563-.09-39.816 0-3.413 0-6.826.09-10.159a.523.523 0 0 0-.512-.512H159.24a.512.512 0 0 0-.022.922z" fill="#231F20"/>
        <path d="M52.282 214.45s30.454-.114 34.037 0c-.899-7.236.376-34.208 0-34.72-.58-.796-23.764 0-34.31 0-.045 0-1.274 33.65.273 34.72z" fill="#C7CDFF"/>
        <path d="M52.282 214.962c9.454 0 18.907-.069 28.36 0h5.689c.282 0 .511-.23.511-.512-.4-4.6-.498-9.221-.295-13.834.057-5.324.216-10.648.318-15.926 0-1.456.114-2.935 0-4.391 0-.83-.307-1.138-1.137-1.206a34.856 34.856 0 0 0-5.006-.228h-8.384c-6.826.091-13.571.274-20.363.296a.512.512 0 0 0-.512.512c-.375 10.113-.819 20.306-.341 30.42.03 1.062.117 2.121.261 3.174.069.466.114 1.137.501 1.49.387.352 1.229-.307.728-.728-.5-.421-.432-3.106-.466-3.936-.137-2.776-.137-5.552-.137-8.328 0-6.018.16-12.035.341-18.042 0-1.354.08-2.707.137-4.05l-.512.512c10.693 0 21.432-.75 32.126-.284a9.1 9.1 0 0 0 1.66.125c.365-.068.149.273 0-.182.01.087.01.174 0 .261a27.837 27.837 0 0 0 0 4.016c-.09 4.994-.238 9.988-.318 14.971a116.377 116.377 0 0 0 .285 15.3l.512-.511c-10.057-.307-20.147 0-30.204 0h-3.754a.54.54 0 1 0 0 1.08z" fill="#231F20"/>
        <path d="M106.33 214.45s31.75-.114 35.333 0c-.33-8.407.376-34.208 0-34.72-.58-.796-25.027 0-35.606 0 0 0-1.24 33.65.273 34.72z" fill="#FFF"/>
        <path d="M106.33 214.962c9.84 0 19.669-.069 29.509 0h5.824c.283 0 .512-.23.512-.512-.386-10.353.114-20.739.114-31.091a12.832 12.832 0 0 0-.102-3.618c-.24-.762-1.138-.705-1.82-.762-4.812-.364-9.704-.114-14.528 0-6.598.091-13.184.273-19.782.285a.512.512 0 0 0-.512.512c-.376 10.113-.82 20.306-.353 30.419 0 1.058.102 2.127.262 3.174.002.54.182 1.063.512 1.49.5.421 1.228-.307.728-.728-.5-.42-.433-3.106-.478-3.936-.125-2.776-.137-5.551-.125-8.327 0-6.018.159-12.036.341-18.043 0-1.353.08-2.707.136-4.05l-.511.512c10.75 0 21.523-.591 32.285-.318.716 0 1.444 0 2.161.091.202.045.408.068.614.068.41-.057.16.273.069-.182a19.1 19.1 0 0 1 .08 3.049c0 4.96-.092 9.92-.137 14.88 0 5.529-.182 11.091 0 16.62l.512-.512c-10.432-.318-20.92 0-31.353 0h-3.981a.512.512 0 0 0 .023.979z" fill="#231F20"/>
        <path d="M124.053 181.755c.302 4.716.302 9.447 0 14.163 0 .216.33.216.342 0 .301-4.716.301-9.447 0-14.163 0-.216-.364-.216-.342 0zM124.02 198.83c.09 4.164.113 8.328 0 12.514a.17.17 0 1 0 .34 0c.069-4.164 0-8.327 0-12.514 0-.227-.352-.227-.34 0zM126.067 197.67c4.011-.37 8.047-.37 12.059 0 .227 0 .216-.33 0-.341a65.685 65.685 0 0 0-12.06 0c-.215 0-.227.364 0 .341zM109.401 197.033a79.973 79.973 0 0 1 12.787 0c.216 0 .216-.319 0-.341a79.973 79.973 0 0 0-12.787 0c-.227 0-.227.364 0 .341zM142.153 166.067c.386 3.829.489 7.68.307 11.524a.17.17 0 1 0 .341 0c.182-3.843.08-7.695-.307-11.524 0-.216-.364-.216-.341 0zM127.58 163.167c4.061-.205 8.168 0 12.218.17.227 0 .227-.33 0-.341-4.05-.182-8.157-.375-12.218-.17-.216 0-.216.352 0 .34zM144.087 179.89a13.788 13.788 0 0 1 2.56-.194h3.856c1.285 0 2.502 0 3.754.08.76-.003 1.52.043 2.275.136.216 0 .307-.296.09-.33a17.69 17.69 0 0 0-2.206-.136c-1.286 0-2.571-.08-3.868-.091-1.297-.012-2.65 0-3.982 0-.846-.016-1.691.05-2.525.193-.216 0-.125.375.091.33l-.045.011zM161.867 180.14a93.18 93.18 0 0 1 14.027-.387c.227 0 .227-.33 0-.341a93.18 93.18 0 0 0-14.027.386c-.216 0-.216.364 0 .342zM162.152 197.534c4.55-.342 9.1-.467 13.753-.41.216 0 .216-.33 0-.341-4.55-.057-9.18.068-13.753.41-.217 0-.217.352 0 .34zM159.217 200.013c.25 4.175-.24 8.385.182 12.514 0 .216.352.216.34 0-.42-4.175.07-8.384-.181-12.514 0-.227-.353-.227-.341 0zM105.75 177.455a68.256 68.256 0 0 0-.524-10.557c0-.216-.364-.216-.341 0 .447 3.5.622 7.03.523 10.557a.17.17 0 1 0 .341 0zM89.13 180.367c1.794.06 3.591.008 5.38-.16 2.275-.124 4.493-.272 6.735-.42l1.501-.102c.216 0 .216-.364 0-.342-3.72.262-7.451.512-11.171.66-.808 0-1.638.08-2.446 0-.216 0-.216.319 0 .341v.023zM88.81 196.544c4.671-.5 9.378-.57 14.061-.205.228 0 .216-.319 0-.341a76.401 76.401 0 0 0-14.06.205c-.217 0-.217.364 0 .34zM86.501 161.892l.762-12.377c0-.227-.33-.227-.34 0l-.763 12.343c0 .228.33.228.341 0v.034zM70.484 165.92a66.129 66.129 0 0 0-.5 10.238c0 .216.352.216.34 0-.098-3.42.07-6.844.501-10.238 0-.217-.318-.217-.341 0zM73.407 164.11c3.481.103 6.997-.056 10.478-.227.216 0 .216-.352 0-.341-3.481.17-6.997.33-10.478.228a.17.17 0 1 0 0 .34zM68.982 182.312c0 3.937-.152 7.869-.455 11.797 0 .216.319.216.341 0 .319-3.943.478-7.876.478-11.797a.17.17 0 1 0-.341 0h-.023zM68.539 197.295a439.508 439.508 0 0 1-.638 14.151c0 .216.33.216.342 0 .288-4.71.5-9.427.637-14.151 0-.217-.33-.217-.341 0zM70.802 196.521c4.306-.138 8.616-.043 12.912.284.216 0 .216-.33 0-.34a119.323 119.323 0 0 0-12.912-.308c-.216 0-.216.353 0 .341v.023zM53.875 196.464a74.16 74.16 0 0 1 12.912.091c.216 0 .216-.33 0-.341a74.16 74.16 0 0 0-12.912-.057c-.216 0-.228.364 0 .341v-.034zM106.466 100.724c-.136-4.816-.16-9.632-.068-14.448a.17.17 0 0 0-.341 0c-.091 4.808-.069 9.624.068 14.448a.17.17 0 0 0 .341 0zM124.144 100.997v-14.72a.17.17 0 1 0-.34 0v14.72a.17.17 0 1 0 .34 0zM108.411 102.385a57.3 57.3 0 0 1 13.652 0c.216 0 .216-.308 0-.342a57.3 57.3 0 0 0-13.652 0c-.216 0-.227.364 0 .342z" fill="#231F20"/>
        <path d="M137.705 109.472c-.25 0-.49-.853-.126-1.24.706-.728 3.152-2.275 3.413-2.594.281-.34.309-.824.069-1.194a23.446 23.446 0 0 0-2.276-.717c-.113 0-.694-.853.273-.956.398 0 3.834.296 4.369.387.428.02.847.133 1.228.33.301.247.52.58.626.956.18.491.333.992.455 1.501a.853.853 0 0 1 0 .478.75.75 0 0 1-.307.319c-.512.307-6.553 2.957-7.724 2.73z" fill="#FFF"/>
        <path d="M137.818 109.062c.16 0 0 0 0-.159a.705.705 0 0 1 0-.307c.118-.162.265-.3.433-.41.386-.318.807-.614 1.228-.91l1.138-.842c.304-.184.564-.433.762-.728a1.32 1.32 0 0 0-.136-1.695 4.073 4.073 0 0 0-1.32-.42c-.296-.08-.592-.194-.887-.25 0 0-.182-.092-.057 0v-.103c0-.012.068 0 0 0h.17c.118-.012.236-.012.353 0 .887 0 1.763.136 2.64.227l1.137.125h.364c.364-.008.715.136.967.399.185.287.323.602.41.932.157.364.268.746.33 1.138 0 .262-.262.341-.467.444-.649.318-1.308.603-1.968.876-.99.41-1.98.796-2.992 1.137-.421.137-.842.273-1.274.376l-.455.09h-.296c-.535-.09-.762.729-.228.82a4.914 4.914 0 0 0 2.207-.398c1.047-.33 2.06-.728 3.072-1.138.796-.33 1.593-.66 2.366-1.035.303-.114.567-.311.762-.569.148-.33.148-.706 0-1.035-.103-.441-.236-.874-.398-1.297a2.105 2.105 0 0 0-1.445-1.456 9.886 9.886 0 0 0-1.433-.205 69.06 69.06 0 0 0-3.049-.296 3.515 3.515 0 0 0-1.137 0 .842.842 0 0 0-.58 1.138c.17.512.557.637 1.046.785l1.001.261c.16 0 .307.08.455.137a.569.569 0 0 1 .148 0c.319.478-.455.91-.74 1.138-.557.398-1.137.785-1.649 1.137a3.72 3.72 0 0 0-1.263 1.138 1.263 1.263 0 0 0 .5 1.672c.581.296.797-.535.285-.717z" fill="#000"/>
        <path d="M90.665 105.217c.25 0 .762-.637.534-1.137-.409-.91-2.195-3.186-2.275-3.595a1.001 1.001 0 0 1 .353-1.138 23.15 23.15 0 0 1 2.434.114c.114 0 .945-.569.069-.99-.364-.17-3.72-1.024-4.244-1.137a3.003 3.003 0 0 0-1.262-.114 1.945 1.945 0 0 0-.91.694c-.341.397-.656.815-.945 1.251a.75.75 0 0 0-.17.444c.013.15.072.294.17.41.285.477 5.063 5.016 6.246 5.198z" fill="#FFF"/>
        <path d="M90.665 105.638c.591 0 1.012-.717 1.012-1.263a2.662 2.662 0 0 0-.614-1.365 30.465 30.465 0 0 1-1.752-2.593s0-.103 0 0a.398.398 0 0 1 0-.126.74.74 0 0 1 .08-.443s.17-.137 0-.091c-.17.045-.091 0 0 0a1.57 1.57 0 0 1 .398 0l.955.08c.332.056.67.056 1.002 0 .427-.154.723-.548.75-1.002 0-.512-.534-.762-.967-.898-.921-.296-1.865-.524-2.81-.751-.944-.228-2.275-.774-3.219-.114a6.826 6.826 0 0 0-1.593 1.923 1.138 1.138 0 0 0 .228 1.444c.476.522.981 1.015 1.513 1.48.876.818 1.775 1.615 2.719 2.365a5.688 5.688 0 0 0 2.161 1.343c.535.102.763-.728.228-.82a1.57 1.57 0 0 1-.58-.272 10.238 10.238 0 0 1-.922-.637 27.855 27.855 0 0 1-2.104-1.764c-.683-.625-1.229-1.137-1.832-1.695-.182-.182-.364-.352-.535-.546-.17-.193-.147-.182 0 0-.125-.182-.125-.227 0-.42.126-.194.273-.399.41-.58.206-.298.438-.576.694-.831a1.07 1.07 0 0 1 1.138-.307c.352 0 .705.136 1.046.216.876.216 1.752.432 2.628.682.296.08.614.16.91.262 0 0 .08 0 0 0h.08c.193 0 0 .091.08 0-.149.17-.183.102-.444.091-.558 0-1.138-.114-1.661-.125a1.024 1.024 0 0 0-1.07.694c-.398.99.444 1.854.967 2.605.33.466.66.933.967 1.422.135.19.253.392.353.603.04.106.04.223 0 .33 0 .102-.205.239-.125.227a.44.44 0 0 0-.091.876z" fill="#000"/>
        <path d="M56.355 213.87c-.19-1.89-.262-3.79-.216-5.689a.17.17 0 0 0-.342 0 45.743 45.743 0 0 0 .217 5.688c0 .217.352.217.34 0zM57.754 213.972c.102-1.09.125-2.184.068-3.276 0-.228-.352-.228-.341 0a22.513 22.513 0 0 1-.068 3.276c0 .216.33.216.341 0zM60.439 213.767a21.82 21.82 0 0 0-.205-4.391c0-.216-.353-.125-.33.09a20.92 20.92 0 0 1 .194 4.301c0 .216.318.216.34 0zM62.384 213.756v-2.219a.17.17 0 1 0-.341 0v2.219a.17.17 0 1 0 .341 0zM65.285 213.972a76.493 76.493 0 0 1 0-5.825.17.17 0 1 0-.341 0v5.825c0 .216.352.216.341 0zM67.674 213.972v-1.889a.17.17 0 1 0-.341 0v1.912a.17.17 0 1 0 .34 0v-.023zM69.574 214.359v-2.219a.17.17 0 1 0-.342 0v2.219a.17.17 0 1 0 .342 0zM74.215 213.756a25.255 25.255 0 0 1-.08-3.595c0-.216-.33-.216-.34 0-.06 1.199-.033 2.4.079 3.595 0 .216.364.227.341 0zM75.91 213.403a2.844 2.844 0 0 1 0-1.513.171.171 0 1 0-.33-.091 3.174 3.174 0 0 0 0 1.695c.069.205.398.114.33-.091zM81.86 213.55l.227-3.605c0-.216-.33-.216-.341 0l-.227 3.606c0 .216.318.216.34 0zM83.441 213.972a3.64 3.64 0 0 1 .102-1.138.182.182 0 0 0-.125-.216.17.17 0 0 0-.204.125c-.101.394-.14.8-.114 1.206a.17.17 0 0 0 .341 0v.023zM91.29 213.972a36.949 36.949 0 0 1-.08-3.174c0-.228-.329-.228-.34 0 0 1.058 0 2.116.08 3.174 0 .216.352.216.34 0zM92.587 213.972c.08-1.445.103-2.89 0-4.346a.17.17 0 1 0-.34 0v4.346c0 .216.329.216.34 0zM95.727 213.653a5.688 5.688 0 0 1 .068-1.65.182.182 0 0 0-.125-.215.17.17 0 0 0-.205.125 5.95 5.95 0 0 0-.08 1.74c0 .095.077.17.172.17.08 0 .182-.079.17-.17zM97.638 213.972l.137-2.014c0-.227-.33-.216-.341 0l-.137 2.014c0 .216.33.216.341 0zM99.515 214.359l.125-4.55a.17.17 0 1 0-.34 0l-.126 4.55c0 .216.33.216.341 0zM103.759 213.87v-2.276a.17.17 0 1 0-.342 0v2.275a.17.17 0 1 0 .342 0zM111.801 214.074c0-1.627 0-3.242.103-4.869 0-.216-.33-.216-.341 0a49.68 49.68 0 0 0-.103 4.87c0 .215.353.215.341 0zM114.134 214.495l-.114-2.275c0-.216-.353-.228-.342 0l.114 2.275c0 .228.353.228.342 0zM116.136 214.074c.023-.519.08-1.035.17-1.547a.182.182 0 0 0-.125-.205.16.16 0 0 0-.205.114c-.088.543-.149 1.09-.182 1.638a.17.17 0 1 0 .342 0zM120.186 213.858l-.228-3.697c0-.216-.353-.216-.341 0l.227 3.697c0 .228.353.228.342 0zM121.96 214.074l.125-1.797a.182.182 0 0 0-.17-.17.17.17 0 0 0-.17.17l-.126 1.797a.182.182 0 0 0 .17.17.17.17 0 0 0 .171-.17zM127.364 214.074v-4.334c0-.228-.33-.228-.341 0a51.627 51.627 0 0 0 0 4.334c0 .216.352.216.34 0zM129.264 214.074V211.8a.17.17 0 1 0-.342 0v2.275a.17.17 0 0 0 .342 0zM131.05 214.29l.239-3.287c0-.216-.33-.216-.342 0l-.239 3.287c0 .216.33.216.342 0zM133.177 214.359v-1.9a.17.17 0 0 0-.341 0v1.9a.17.17 0 1 0 .34 0zM137.943 214.359v-2.219a.17.17 0 1 0-.34 0v2.219a.17.17 0 1 0 .34 0zM147.044 213.87v-2.549a.17.17 0 1 0-.341 0v2.548a.17.17 0 1 0 .341 0zM149.149 213.71a14.106 14.106 0 0 1-.103-2.594c0-.227-.33-.227-.34 0-.048.897-.01 1.796.113 2.685a.182.182 0 0 0 .216.125.193.193 0 0 0 .114-.216zM151.8 214.074v-3.697a.17.17 0 1 0-.342 0v3.697a.17.17 0 1 0 .341 0zM154.336 213.87v-1.49a.17.17 0 1 0-.341 0v1.49a.17.17 0 0 0 .341 0zM156.35 213.55v-2.752a.17.17 0 0 0-.341 0v2.753a.17.17 0 1 0 .34 0zM162.368 213.858l.114-2.855c0-.216-.33-.216-.342 0l-.114 2.855c0 .228.33.228.342 0zM164.393 213.653v-3.492a.17.17 0 1 0-.342 0v3.492a.17.17 0 1 0 .342 0zM166.622 213.653v-1.695a.17.17 0 1 0-.34 0v1.695a.17.17 0 1 0 .34 0zM170.41 213.858l.205-2.116a.182.182 0 0 0-.17-.17.17.17 0 0 0-.17.17l-.206 2.116a.17.17 0 1 0 .342 0zM172.982 213.756l-.137-3.413a.17.17 0 1 0-.341 0l.136 3.413a.17.17 0 1 0 .342 0zM174.551 213.87v-1.275a.17.17 0 1 0-.34 0v1.274a.17.17 0 1 0 .34 0z" fill="#231F20"/>
    </g>
</svg>
