<svg width="237" height="240" viewBox="0 0 237 240" xmlns="http://www.w3.org/2000/svg" xmlns:xlink="http://www.w3.org/1999/xlink">
    <defs>
        <linearGradient x1="57.852%" y1="22.886%" x2=".966%" y2="88.984%" id="b">
            <stop stop-color="#FFF" stop-opacity="0" offset="0%"/>
            <stop stop-color="#FFF" offset="100%"/>
        </linearGradient>
        <path id="a" d="M0 0h237v239.324H0z"/>
    </defs>
    <g fill="none" fill-rule="evenodd">
        <mask id="c" fill="#fff">
            <use xlink:href="#a"/>
        </mask>
        <path fill="url(#b)" mask="url(#c)" d="M0 0h237v239.324H0z"/>
        <g mask="url(#c)">
            <path d="M103.967 30.396C89.075 35.358 76.924 37.93 63.6 47.37c-13.322 9.439-17.867 30.825-25.12 47.24-12.57 28.436-9.035 65.978 8.52 90.303 3.622 5.037 7.92 9.622 13.14 11.84 4.6 1.948 9.584 1.926 14.42 2.572 7.789 1.076 15.33 3.842 22.98 5.92a128.054 128.054 0 0 0 74.37-2.153c8.983-3.003 18.265-7.534 23.562-16.801 3.223-5.694 4.534-12.572 5.662-19.31 4.298-25.444 6.619-52.417-.548-76.903-1.654-5.63-3.857-11.161-7.38-15.37-2.816-3.369-6.35-5.715-9.606-8.47-10.185-8.611-17.545-21.333-27.279-30.708-9.734-9.375-52.355-5.134-52.355-5.134z" fill="#7582FF" fill-rule="nonzero" opacity=".1"/>
            <path d="M90.751 123.272a17.89 17.89 0 0 0-2.567-8.202l113.628 5.91 15.095 6.694-126.156-4.402z" fill="#D2D8FF" fill-rule="nonzero"/>
            <path d="M91.557 123.272a19.539 19.539 0 0 0-2.686-8.61l-.687 1.216 14.461.753 33.306 1.722 37.024 1.927 25.302 1.313 2.74.15c.221.027.445.027.666 0 .387-.075-.28-.172-.14 0 .641.374 1.323.674 2.031.894l3.836 1.711 7.714 3.423 1.407.624.409-1.507-12.646-.452-29.997-1.076-36.53-1.28-31.48-1.077-10.346-.355c-1.633 0-3.32-.237-4.953-.173h-.215a.807.807 0 0 0 0 1.615l12.603.441 30.008 1.076 36.53 1.281 31.48 1.077 10.346.355c1.633 0 3.33.258 4.953.172h.225c.752 0 1.15-1.173.398-1.507l-13.033-5.79a10.4 10.4 0 0 0-2.578-1.077c-.559-.075-1.15 0-1.72-.086l-22.648-1.13-36.357-1.894-34.843-1.809-11.905-.602c-1.912-.097-3.889-.366-5.801-.302h-.247a.816.816 0 0 0-.699 1.217 17.706 17.706 0 0 1 2.46 7.792c.076.98 1.687.98 1.612-.032z" fill="#231F20" fill-rule="nonzero"/>
            <path d="M216.907 127.674c-8.595 5.952-55.525 18.556-69.137 22.603-15.73 4.736-34.21 8.772-49.938 13.518-1.408-4.23-3.664-10.29-6.07-13.992l125.145-22.129z" fill="#D2D8FF" fill-rule="nonzero"/>
            <path d="M216.5 126.974a30.492 30.492 0 0 1-5.448 2.767c-2.858 1.205-5.77 2.26-8.703 3.229-7.38 2.583-14.859 4.875-22.347 7.114-14.408 4.305-28.859 8.61-43.384 12.518-12.99 3.508-26.108 6.554-39.001 10.43l.988.559a65.61 65.61 0 0 0-6.145-14.24l-.484 1.184 12.517-2.217 29.76-5.263 36.262-6.458 31.157-5.511 10.347-1.83c1.65-.2 3.29-.488 4.91-.86h.215c1.01-.184.58-1.734-.43-1.55l-12.517 2.152-29.771 5.263-36.25 6.458-31.158 5.5-10.347 1.83c-1.6.29-3.341.42-4.91.872a1.287 1.287 0 0 1-.215 0 .806.806 0 0 0-.472 1.184 64.145 64.145 0 0 1 5.973 14.003c.13.424.57.67 1 .56 11.485-3.456 23.164-6.243 34.756-9.29 7.876-2.066 15.665-4.402 23.487-6.651 14.87-4.305 29.793-8.417 44.448-13.4 3.406-1.163 6.8-2.368 10.142-3.735a34.357 34.357 0 0 0 6.446-3.23c.839-.58.033-1.926-.827-1.388z" fill="#231F20" fill-rule="nonzero"/>
            <path d="M72.25 123.358a511.065 511.065 0 0 1-38.248 31.6c1.246-1.506 78.205-8.06 90.12-9.848 10.626-1.592 43.653-6.371 49.562-7.674 4.427-.968 8.96-1.388 13.452-2.034a137.218 137.218 0 0 0 29.75-7.728l-52.646-.915c-29.245-.506-91.99-3.401-91.99-3.401z" fill="#FFF" fill-rule="nonzero"/>
            <path d="M71.68 122.788a518.014 518.014 0 0 1-38.065 31.471l.978 1.27c-.097.097-.119.086-.14.086.136-.019.27-.055.397-.107.409-.108.828-.183 1.236-.259a110.19 110.19 0 0 1 4.212-.613c4.705-.603 9.411-1.076 14.128-1.604 12.893-1.356 25.7-2.572 38.56-3.832 9.82-.957 19.662-1.797 29.45-3.046 12.301-1.582 24.56-3.594 36.808-5.489 5.072-.775 10.164-1.507 15.182-2.55 5.92-1.25 11.98-1.658 17.931-2.734 5.63-1.021 11.192-2.39 16.654-4.101a142.798 142.798 0 0 0 8.111-2.831.807.807 0 0 0-.215-1.582c-25.248-.441-50.496-.7-75.723-1.529-18.749-.624-37.497-1.399-56.245-2.217l-12.689-.57c-1.074 0-1.074 1.56 0 1.614 11.61.538 23.232 1.04 34.865 1.507 19.006.775 38.012 1.56 57.029 1.894l52.763.915-.214-1.582a149.003 149.003 0 0 1-34.21 8.32c-6.328.818-12.57 2.153-18.877 3.143-13.28 2.153-26.59 4.068-39.892 6.006-9.003 1.302-18.19 1.991-27.268 2.884-13.043 1.27-26.087 2.508-39.12 3.864-5.07.528-10.142 1.077-15.202 1.68a43.591 43.591 0 0 0-7.918 1.216 1.696 1.696 0 0 0-.763.376c-.591.635.215 1.84.978 1.27a505.335 505.335 0 0 0 38.399-31.73c.762-.72-.376-1.797-1.14-1.14z" fill="#231F20" fill-rule="nonzero"/>
            <path d="M132.406 90.39c1.751-.344 64.679 28.695 84.501 37.284-4.856.258-124.888-12.238-129.84-13.013l45.339-24.27z" fill="#FFF" fill-rule="nonzero"/>
            <path d="M132.62 91.176c-.182 0-.354-.086-.128 0 .168.065.34.119.516.161.526.173 1.074.377 1.579.582a94.154 94.154 0 0 1 5.071 2.152c5.576 2.39 11.12 4.854 16.664 7.33 14.128 6.264 28.16 12.658 42.245 18.997 5.963 2.68 11.926 5.382 17.932 7.976l.408-1.507a37.377 37.377 0 0 1-4.523-.27c-3.223-.258-6.51-.559-9.766-.86-10.11-.926-20.22-1.927-30.33-2.939-11.97-1.205-23.96-2.429-35.971-3.67a8040.406 8040.406 0 0 1-31.684-3.315c-5.652-.603-11.325-1.162-16.976-1.884-.125.01-.25.01-.376 0l.193 1.475 15.354-8.212 24.346-13.045 5.64-3.014c.924-.495.108-1.884-.806-1.4l-15.353 8.18-24.346 13.024-5.662 3.025a.819.819 0 0 0 .183 1.474c4.78.743 9.67 1.077 14.45 1.636l30.32 3.23c12.033 1.248 24.07 2.478 36.11 3.691 10.587 1.07 21.17 2.106 31.75 3.11 5.586.528 11.27 1.335 16.889 1.421h.537c.72 0 1.193-1.162.397-1.507-12.387-5.381-24.71-11.01-36.98-16.564-12.936-5.898-25.883-11.807-38.947-17.383-2.074-.893-4.148-1.786-6.243-2.604-.892-.5-1.89-.78-2.911-.818-1.032.118-.591 1.668.419 1.528z" fill="#231F20" fill-rule="nonzero"/>
            <path d="m65.815 110.291-19.533-6.458c-.59-.193-.849.743-.258.937l19.533 6.458c.59.194.849-.743.258-.937zM40.727 133.852l-20.596-.506c-.623 0-.623.947 0 .969l20.596.506c.613 0 .613-.947 0-.969zM104.31 178.972a161.114 161.114 0 0 1-22.068 9.482c-.58.204-.333 1.14.258.936a161.243 161.243 0 0 0 22.294-9.59c.559-.28.064-1.076-.484-.828zM62.602 88.765a92.387 92.387 0 0 1-12.291-8.234c-.483-.387-1.171.29-.688.678a91.818 91.818 0 0 0 12.496 8.385c.537.312 1.074-.528.483-.829zM176.446 97.838A143.854 143.854 0 0 1 162.8 83.674c-.398-.474-1.075.215-.688.689a143.852 143.852 0 0 0 13.71 14.153c.461.42 1.138-.269.676-.678h-.053z" fill="#000" fill-rule="nonzero"/>
            <path d="M100.518 161.955a24.49 24.49 0 0 1-3.685-6.867c-.065-.194-.377-.108-.312.086a25.211 25.211 0 0 0 3.717 6.953c.119.162.398 0 .28-.172zM103.236 162.45l-3.298-5.801a.161.161 0 1 0-.28.161l3.299 5.801a.161.161 0 1 0 .279-.161zM104.525 161.008c-.333.247.13.667.398.42.268-.248.096-.42 0-.614-.097-.194-.409-.624-.602-.936l-2.525-3.929c-.107-.172-.387 0-.28.161l1.634 2.54.784 1.217c.097.161.935 1.28.752 1.42.162-.129 0-.408-.16-.28zM106.083 160.2c-.3.183 0 .592.312.463.472-.215-.086-.958-.226-1.205l-1.826-3.23a.161.161 0 1 0-.28.162l1.16 2.067.57 1.022c.064.119.602.937.451 1.077a.161.161 0 1 0-.16-.27v-.085zM111.691 159.081a9.489 9.489 0 0 1-2.879-3.38c-.086-.193-.365 0-.28.162a9.682 9.682 0 0 0 2.998 3.498c.161.118.323-.161.161-.28zM114.195 158.295l-2.224-2.744c-.14-.162-.365.064-.237.226l2.224 2.744c.14.162.366-.075.237-.226z" fill="#231F20" fill-rule="nonzero"/>
            <path d="M112.551 125.102a15.225 15.225 0 0 0-11.432 8.083 3.05 3.05 0 0 0-.472 1.743 4.899 4.899 0 0 0 1.73 2.907c3.32 3.013 7.133 2.68 10.41 2.152 5.609-.958 13.312-.527 18.845-1.69 2.858-.592 17.094-4.456 19.34-6.189 3.61-2.744-8.187-9.902-6.447-10.128 8.96-1.237-31.974 3.122-31.974 3.122z" fill="#7582FF" fill-rule="nonzero" opacity=".1"/>
            <path d="M127.56 156.229a18.662 18.662 0 0 0-2.76-3.832c-.14-.15-.366.076-.226.226a18.706 18.706 0 0 1 2.707 3.767.161.161 0 1 0 .28-.161zM129.473 155.497l-1.547-2.798c-.097-.183-.376 0-.269.161l1.547 2.798c.097.183.376 0 .269-.161zM135.543 153.409l-2.826-3.412c-.128-.161-.354.065-.225.226l2.826 3.412c.14.161.365-.065.225-.226zM139.357 152.935l-2.406-2.96c-.13-.161-.366.076-.226.237l2.407 2.95c.129.16.354-.065.225-.227zM141.904 151.988a7.766 7.766 0 0 0-1.3-2.68c-.119-.161-.398 0-.28.162a7.432 7.432 0 0 1 1.268 2.604.162.162 0 1 0 .312-.086zM146.577 151.375a8.99 8.99 0 0 0-2.073-3.23c-.14-.14-.376.087-.226.227a8.612 8.612 0 0 1 1.988 3.121c.075.194.386.108.311-.086v-.032zM152.078 150.234l-1.407-2.54c-.097-.183-.376 0-.28.161l1.408 2.54a.161.161 0 1 0 .28-.161zM158.224 148.189a5.457 5.457 0 0 0-1.547-2.228c-.162-.13-.387.097-.226.237a5.156 5.156 0 0 1 1.461 2.077c.075.194.387.107.312-.086zM159.706 147.35a17.917 17.917 0 0 0-3.223-4.23.161.161 0 1 0-.225.225 17.864 17.864 0 0 1 3.17 4.166c.096.183.375 0 .278-.162zM161.436 147.403a7.244 7.244 0 0 0-1.687-2.476c-.15-.15-.386.087-.236.227a6.889 6.889 0 0 1 1.612 2.335c.025.082.11.129.193.108.075 0 .15-.119.118-.194zM163.09 146.768l-.848-1.528c-.097-.173-.376 0-.28.172l.85 1.517c.096.183.375 0 .279-.161zM165.766 147.145l.71-.452a.162.162 0 0 0 0-.216l-1.075-2.023a.161.161 0 1 0-.28.161l1.075 2.024.064-.226-.709.452c-.172.118 0 .398.161.28h.054zM94.748 122.41a29.284 29.284 0 0 0-2.45-4.67c-.118-.173-.397 0-.279.161a29.251 29.251 0 0 1 2.418 4.596c.086.194.397.108.311-.086zM97.305 122.583a32.692 32.692 0 0 0-2.32-4.036c-.119-.172-.398 0-.28.161a32.692 32.692 0 0 1 2.32 4.036c.087.194.366 0 .28-.161zM98.218 122.41l-1.547-2.798c-.096-.183-.376 0-.279.162l1.547 2.798a.161.161 0 1 0 .28-.161z" fill="#231F20" fill-rule="nonzero"/>
            <path d="M155.914 122.949a5.7 5.7 0 0 1 2.697 2.648c.848 2.056-15.88 3.4-16.192 1.733-.311-1.669 1.01-4.306 1.687-5.651 0 0 8.692-.398 11.808 1.27z" fill="#CCCDE4" fill-rule="nonzero"/>
            <path d="M155.71 123.293a6.834 6.834 0 0 1 1.837 1.389c.239.276.445.58.612.904.13.226.086.161.075.183a2.148 2.148 0 0 1-.848.495 19.16 19.16 0 0 1-4.405.958c-1.828.25-3.668.397-5.512.441a14.822 14.822 0 0 1-4.136-.237c-.742-.182-.634-.365-.516-1.216a15.29 15.29 0 0 1 1.633-4.305l-.344.194c1.515-.065 3.03 0 4.545 0 2.288.086 4.974.14 7.059 1.205.462.248.87-.452.408-.689-2.149-1.076-4.76-1.205-7.091-1.313a50.023 50.023 0 0 0-4.92 0 .43.43 0 0 0-.355.205 17.24 17.24 0 0 0-1.687 4.37c-.118.667-.312 1.646.354 2.152a3.744 3.744 0 0 0 1.537.41c.86.1 1.724.147 2.589.14 2.156-.017 4.31-.171 6.446-.464a16.628 16.628 0 0 0 5.06-1.194c2.397-1.174-.687-3.52-1.976-4.23-.408-.345-.817.355-.365.602z" fill="#000" fill-rule="nonzero"/>
            <path d="M154.453 127.34a5.736 5.736 0 0 1 3.17 2.056c1.235 1.84-14.892 6.458-15.537 4.919-.644-1.54.15-4.402.537-5.877 0 0 8.488-2.12 11.83-1.098z" fill="#CCCDE4" fill-rule="nonzero"/>
            <path d="M154.334 127.728a6.313 6.313 0 0 1 2.15 1.076c.312.212.573.491.762.818-.075.248-.494.517-.741.678a19.321 19.321 0 0 1-4.158 1.82c-1.739.61-3.51 1.12-5.308 1.528-1.334.385-2.716.58-4.104.58a1.63 1.63 0 0 1-.494-.085c-.097 0 0 0 0 0a2.63 2.63 0 0 1-.172-1.077c.04-1.513.294-3.013.752-4.456l-.28.28a56.635 56.635 0 0 1 4.47-.904c2.256-.366 4.9-.84 7.145-.194a.408.408 0 0 0 .215-.785c-2.289-.646-4.921-.216-7.22.15a53.08 53.08 0 0 0-4.824.958.409.409 0 0 0-.28.28 18.047 18.047 0 0 0-.784 4.456c0 .71 0 1.82.774 2.153 1.181.473 2.933 0 4.115-.28a46.778 46.778 0 0 0 6.253-1.722 17.498 17.498 0 0 0 4.695-2.153c.397-.301.88-.732.784-1.291a2.518 2.518 0 0 0-.978-1.238 7.451 7.451 0 0 0-2.535-1.292c-.505-.237-.72.538-.237.7z" fill="#000" fill-rule="nonzero"/>
            <path d="M106.986 130.182a5.204 5.204 0 0 0-2.568 2.497 30.232 30.232 0 0 0-2.02 3.885c-.226.539-.408 1.249 0 1.626.158.126.347.208.548.237l1.783.43c.2.08.424.08.624 0 .165-.123.292-.291.365-.484a25.217 25.217 0 0 1 1.826-3.079c.172-.226.387-.484.645-.43l-.516 2.153a.571.571 0 0 0 0 .269.344.344 0 0 0 .473.226c.184-.095.337-.24.44-.42a6.874 6.874 0 0 0 1.408-3.864 3.057 3.057 0 0 0-2.03-3.078l-.978.032z" fill="#FFF" fill-rule="nonzero"/>
            <path d="M106.857 129.72a5.15 5.15 0 0 0-2.59 2.302 26.837 26.837 0 0 0-2.02 3.703c-.397.861-1.074 2.346 0 2.981.604.259 1.24.433 1.891.517.591.14 1.215.323 1.676-.205.205-.28.378-.584.516-.904.172-.323.344-.645.527-.958.182-.312.408-.667.623-.99.215-.323.43-.85.655-.84l-.473-.602-.311 1.335a4.14 4.14 0 0 0-.236 1.237.84.84 0 0 0 1.3.592 4.24 4.24 0 0 0 1.203-1.69c.36-.671.603-1.399.72-2.152a4.224 4.224 0 0 0-1.075-3.617 2.437 2.437 0 0 0-1.418-.742h-.924a.484.484 0 0 0 0 .968c.464-.087.943-.019 1.365.194a2.843 2.843 0 0 1 1.074 2.25 5.69 5.69 0 0 1-.86 2.992 7.536 7.536 0 0 1-.44.689s-.215.237-.204.258c.107.43.236-.237.236-.226l.43-1.851a.496.496 0 0 0-.462-.614c-.677 0-1.074.635-1.364 1.077-.29.44-.806 1.27-1.172 1.937a3.877 3.877 0 0 1-.472.915c-.204.204-.71 0-.967-.097l-1.14-.27c-.29-.074-.44-.14-.418-.473.122-.66.366-1.291.72-1.862.333-.689.687-1.356 1.074-2.012.645-1.077 1.397-2.54 2.697-2.971.677-.14.43-1.066-.161-.872z" fill="#231F20" fill-rule="nonzero"/>
            <path d="m109.414 71.468 1.246 3.23c.903 3.519.322 7.19-.258 10.763-.062.7-.263 1.38-.59 2.002a2.587 2.587 0 0 1-2.837 1.076 8.058 8.058 0 0 0-1.193-.377c-.548 0-4.147-1.012-5.06-1.883-2.235-2.153-16.986-4.725-18.856-8.073-1-1.786 4.18-9.46 5.834-10.354 3.341-1.808 5.512 3.552 8.359 2.572 5.662-1.948 8.971-1.83 10.83-1.302a3.828 3.828 0 0 1 2.525 2.346z" fill="#000" fill-rule="nonzero"/>
            <path d="M111.702 89.777s-1.547-1.077-1.697-1.895c-.237-1.356.698-2.594.988-3.928a7.289 7.289 0 0 0-.064-2.81c-.323-2.012-1.3-7.878-4.298-9.45-2.772-1.453-8.724-.613-8.82 5.5a10.504 10.504 0 0 0 3.34 8.17c.86.732 1.913 1.216 2.816 1.894.902.678.795 2.81 1.074 3.886.559 1.636 6.661-1.367 6.661-1.367z" fill="#FFF" fill-rule="nonzero"/>
            <path d="M111.906 89.432c-.967-.656-1.74-1.41-1.45-2.669.29-1.26 1.074-2.54 1.074-4.036-.1-1.97-.46-3.917-1.074-5.79a10.327 10.327 0 0 0-2.826-5.081 5.987 5.987 0 0 0-4.19-1.162 6.441 6.441 0 0 0-4.298 1.883 7.296 7.296 0 0 0-1.665 5.64c.112 2.534 1.1 4.95 2.794 6.835.999 1.076 2.363 1.539 3.427 2.486.88.775.73 2.25.956 3.315.333 1.68 2.224 1.173 3.438.818a24.771 24.771 0 0 0 3.847-1.55c.462-.226 0-.926-.409-.689-.953.463-1.932.87-2.933 1.217-.62.235-1.26.412-1.912.527-.817.118-1.15.097-1.3-.753a10.295 10.295 0 0 0-.58-2.734c-.452-.937-1.515-1.357-2.332-1.884a9.269 9.269 0 0 1-4.083-6.383c-.376-2.152-.279-4.617 1.29-6.274a5.775 5.775 0 0 1 4.158-1.669 4.83 4.83 0 0 1 3.91 1.69 13.165 13.165 0 0 1 2.246 5.306c.193.83.354 1.68.494 2.519a7.633 7.633 0 0 1-.408 4.305c-.408 1.077-.838 2.25-.204 3.23a5.376 5.376 0 0 0 1.611 1.506c.44.377.838-.312.42-.603z" fill="#000" fill-rule="nonzero"/>
            <path d="M118.16 98.99s6.628 17.092 9.11 15.338l3.6-3.972c-1.988.743-10.057-21.666-12.528-22.14a14.716 14.716 0 0 0-5.78.527c-5.49 4.812-9.39 1.475-9.39 1.475l-4.062 2.626" fill="#FFF" fill-rule="nonzero"/>
            <path d="M117.697 99.12a108.593 108.593 0 0 0 3.954 9.019c.645 1.28 3.503 8.072 5.866 6.587a10.52 10.52 0 0 0 1.72-1.862l1.976-2.153a.496.496 0 0 0-.472-.818c-.14 0-.892-1.076-1.075-1.367-.644-1.076-1.192-2.152-1.73-3.229-1.472-2.949-2.804-5.952-4.2-8.933a47.916 47.916 0 0 0-3.782-7.233 3.226 3.226 0 0 0-1.397-1.356c-1.612-.603-3.954 0-5.566.344a9.248 9.248 0 0 0-2.417 1.507 7.608 7.608 0 0 1-3.857 1.292 5.365 5.365 0 0 1-3.223-.98.483.483 0 0 0-.591-.075l-4.04 2.561c-.516.334 0 1.174.494.84l4.062-2.626-.591-.076c2.03 1.701 5.07 1.507 7.316.41.957-.474 1.73-1.357 2.643-1.798a9.397 9.397 0 0 1 2.837-.538c1.547-.15 2.6-.28 3.502.99a48.692 48.692 0 0 1 3.965 7.61c1.44 3.067 2.804 6.167 4.297 9.18.473.937 1.988 4.844 3.567 4.403l-.472-.807-1.977 2.152c-.322.345-1.225 1.7-1.633 1.765-.409.065-1.236-.914-1.504-1.27a22.76 22.76 0 0 1-1.805-2.884 89.65 89.65 0 0 1-4.975-10.946c-.226-.57-1.16-.323-.935.258l.043.032z" fill="#231F20" fill-rule="nonzero"/>
            <path d="M97.209 74.46a9.722 9.722 0 0 1 5.79-3.745 8.033 8.033 0 0 1 3.675.161c.763.183 1.655.55 1.794 1.335a1.65 1.65 0 0 1-.075.754 4.623 4.623 0 0 1-2.955 2.68c-1.289.484-2.675.688-3.943 1.216a3.749 3.749 0 0 0-1.375.893 3.544 3.544 0 0 0-.773 1.733 11.201 11.201 0 0 0 .838 5.285c-1.43-.98-3.224-3.896-3.696-6.749l.72-3.562z" fill="#000" fill-rule="nonzero"/>
            <path d="M134.77 104.651c-1.999-4.305-10.325 3.972-10.325 3.972l-16.815 4.897 6.06 12.023 21.08-20.892z" fill="#D2D8FF" fill-rule="nonzero"/>
            <path d="m107.63 113.52 16.815-4.897c1.88-1.335 12.226-11.247 14.407-4.79l11.099 16.791-6.103 5.22-10.088-17.318" fill="#D2D8FF" fill-rule="nonzero"/>
            <path d="m107.76 113.994 10.195-2.97 5.695-1.658a6.326 6.326 0 0 0 2.481-1.475 43.367 43.367 0 0 1 5.76-4.24c1.514-.883 4.372-2.465 5.876-.786.324.467.6.964.827 1.485.28.484.624.947.935 1.42l3.503 5.286 6.446 9.816.075-.582-6.092 5.21.753.097-10.1-17.318a.483.483 0 0 0-.827.484l10.089 17.318a.494.494 0 0 0 .762.097l6.103-5.21a.485.485 0 0 0 .075-.58l-5.77-8.719c-1.901-2.863-3.996-5.683-5.608-8.707-2.331-4.37-8.488.28-10.916 2.152a31.038 31.038 0 0 1-3.77 3.025c-1.392.555-2.83.984-4.298 1.28l-12.453 3.639a.486.486 0 0 0 .258.936z" fill="#231F20" fill-rule="nonzero"/>
            <path d="M115.237 119.838c2.793.528 16.492-17.447 19.533-15.187 3.653 2.713 12.355 22.259 12.355 22.259l-5.372 5.866c-2.374-4.392-9.38-15.908-10.174-17.221-.667-1.077-2.375 13.83-14.236 13.486-5.308-.15-6.511-4.305-8.295-9.418a28.524 28.524 0 0 1-1.074-5.037" fill="#D2D8FF" fill-rule="nonzero"/>
            <path d="M115.108 120.301a3.725 3.725 0 0 0 2.557-1.076 42.296 42.296 0 0 0 3.846-3.552c2.944-2.895 5.76-5.974 8.94-8.61.87-.722 2.288-2.089 3.524-2.153 1.074 0 1.933 1.636 2.438 2.357a90.458 90.458 0 0 1 6.264 11.301c1.397 2.82 2.75 5.673 4.03 8.61l.074-.591-5.372 5.866.763.097c-2.224-4.101-4.673-8.083-7.08-12.077a664.404 664.404 0 0 0-2.804-4.617c-.344-.56-.752-1.076-1.322-.43a8.89 8.89 0 0 0-.913 2.4 25.757 25.757 0 0 1-1.977 4.305c-2.149 3.724-5.63 6.393-10.067 6.458-3.298.064-5.372-1.56-6.769-4.488a38.898 38.898 0 0 1-2.761-9.612c-.107-.613-1.074-.355-.935.248a36.74 36.74 0 0 0 .903 4.606 49.32 49.32 0 0 0 1.515 4.22 9.76 9.76 0 0 0 3.739 5.026c3.706 2.153 8.917.678 11.968-1.97a20.219 20.219 0 0 0 5.286-8.513c.194-.506.366-1.077.56-1.54.075-.146.133-.302.171-.462 0 0 .075-.108.065-.151v-.086c-.13.183-.344.161-.634 0 .197.4.43.783.698 1.14l1.429 2.347c2.74 4.52 5.522 9.041 8.047 13.69a.494.494 0 0 0 .763.098l5.372-5.866a.507.507 0 0 0 .075-.581c-2.922-6.566-5.963-13.293-9.927-19.299a9.952 9.952 0 0 0-2.579-3.164 2.65 2.65 0 0 0-2.632.29c-3.33 1.766-6.07 4.984-8.692 7.62-1.633 1.637-3.223 3.294-4.953 4.844-.655.603-2.342 2.519-3.374 2.379-.612-.076-.87.85-.257.936h.021z" fill="#231F20" fill-rule="nonzero"/>
            <path d="M118.18 90.82c.731 3.908 6.007 18.223 6.007 18.223l-15.837 6.856c-3.793-3.229-10.003-20.515-10.003-20.515" fill="#FFF" fill-rule="nonzero"/>
            <path d="M117.708 90.918a78.611 78.611 0 0 0 3.223 10.57 461.205 461.205 0 0 0 2.73 7.652l.225-.55-15.75 6.89.58.075a16.146 16.146 0 0 1-3.116-4.542c-1.193-2.228-2.235-4.521-3.224-6.846a155.126 155.126 0 0 1-3.534-8.912c-.215-.581-1.15-.333-.935.259a157.687 157.687 0 0 0 3.631 9.148c1.01 2.357 2.074 4.693 3.288 6.953a16.694 16.694 0 0 0 3.223 4.628c.158.147.39.177.58.076l15.837-6.867a.474.474 0 0 0 .226-.538 373.352 373.352 0 0 1-2.73-7.642 79.247 79.247 0 0 1-3.222-10.58c-.119-.603-1.075-.345-.935.258l-.097-.032z" fill="#231F20" fill-rule="nonzero"/>
            <path d="M102.624 90.562s-2.085 1.324-3.396 2.153c-3.524 2.314 3.374 39.716 5.888 38.834l5.093-.366c-1.676.215-7.306-24.53-5.372-30.503" fill="#FFF" fill-rule="nonzero"/>
            <path d="M102.376 90.153a95.542 95.542 0 0 0-3.094 1.98 2.28 2.28 0 0 0-.892.916 7.848 7.848 0 0 0-.59 3.229c-.083 3.85.18 7.701.784 11.506a164.86 164.86 0 0 0 2.353 13.497 44.351 44.351 0 0 0 2.696 9.374c.355.732.699 1.389 1.558 1.432 1.311.065 3.45-.248 5.018-.355.612 0 .634-.98 0-.969.15 0 .096 0 0-.108a2.692 2.692 0 0 1-.323-.57 14.956 14.956 0 0 1-.773-2.034c-.655-1.98-1.171-4.015-1.644-6.05a94.549 94.549 0 0 1-2.428-15.068 16.594 16.594 0 0 1 .312-6.006c.182-.592-.753-.85-.935-.258a16.173 16.173 0 0 0-.387 5.522c.153 2.608.447 5.205.881 7.781a84.457 84.457 0 0 0 3.47 14.918c.247.71.774 2.82 1.827 2.799v-.947c-1.558.107-3.127.204-4.685.333-.178.027-.359.027-.537 0h.097a2.045 2.045 0 0 1-.494-.742 35.566 35.566 0 0 1-2.482-8.32 114.971 114.971 0 0 1-3.374-23.992c-.09-1.365.026-2.737.344-4.068.064-.295.2-.569.398-.797a18.088 18.088 0 0 1 3.395-2.152.485.485 0 0 0-.495-.829v-.022z" fill="#231F20" fill-rule="nonzero"/>
        </g>
    </g>
</svg>
