<svg width="116" height="116" viewBox="0 0 116 116" xmlns="http://www.w3.org/2000/svg">
    <g transform="translate(10.44 15.467)" fill-rule="nonzero" fill="none">
        <path d="M39.902 2.725c-8.128 2.25-14.757 3.424-22.023 7.715-7.267 4.29-9.751 13.969-13.703 21.402-6.86 12.899-4.922 29.931 4.646 40.961 1.978 2.281 4.327 4.364 7.172 5.367 2.51.887 5.22.876 7.867 1.169 4.249.47 8.352 1.738 12.528 2.683a83.41 83.41 0 0 0 40.575-.976c4.901-1.363 9.99-3.414 12.851-7.621 1.749-2.58 2.475-5.706 3.09-8.76 2.334-11.541 3.608-23.777-.302-34.88-.898-2.552-2.088-5.068-4.02-6.974-1.54-1.53-3.47-2.61-5.22-3.842-5.585-3.915-9.594-9.667-14.908-13.921-5.314-4.255-13.05-6.828-18.85-3.252l-9.703.929z" opacity=".1" fill="#7582FF"/>
        <path d="M32.557 74.985a27.666 27.666 0 0 0-13.697.762c-.46.113-.883.34-1.232.658-.439.496-.256 1.175.1 1.707 1.419 2.15 4.864 2.944 7.95 3.503a747.66 747.66 0 0 0 15.915 2.704c2.746.438 5.544.866 8.352.663 4.416-.324 16.125-1.78 17.711-1.624 6.296.621 11.636 1.754 16.85.616.935-.203-6.096-8.498-6.785-8.555-14.663-1.107-45.164-.434-45.164-.434z" fill="#D2D8FF"/>
        <path d="M43.357 24.832h.032a2.292 2.292 0 0 0 2.202-.522c1.138-.893 3.273-5.889 3.383-6.703.154-.755 0-1.54-.428-2.182a3.383 3.383 0 0 0-2.224-1.294c-1.106-.298-2.297-.596-3.19-.371-.72.188-1.043.72-1.456 1.17-4.071 4.478-2.975 8.351-1.174 9.176.894.43 1.865.677 2.855.726z" fill="#FFF"/>
        <path d="M48.844 17.748a2.824 2.824 0 0 0-.522-2.182c-.611-.752-1.916-1.472-2.845-1.368a1.738 1.738 0 0 0-1.044.522c-.846.747-3.936 2.861-3.78 6.901a2.12 2.12 0 0 0 .063.7c.124.316.3.609.522.866a4.207 4.207 0 0 0 1.931 1.52c.796.255 1.666.09 2.313-.44 1.206-.845 3.278-5.715 3.362-6.519z" fill="#D2D8FF"/>
        <path d="M49.178 17.54a3.236 3.236 0 0 0-1.384-3.133c-.924-.652-2.192-1.044-3.168-.297a12.157 12.157 0 0 0-3.242 3.586 7.73 7.73 0 0 0-.919 3.294 2.97 2.97 0 0 0 .35 1.92 5.914 5.914 0 0 0 1.243 1.405c.903.803 2.22.938 3.267.334a4.52 4.52 0 0 0 1.488-1.681 25.411 25.411 0 0 0 1.566-3.132 9.24 9.24 0 0 0 .783-2.192c.042-.298-.412-.428-.449-.126a6.676 6.676 0 0 1-.485 1.462 29.904 29.904 0 0 1-1.044 2.328c-.648 1.3-1.52 3.362-3.268 3.325-1.185 0-2.459-1.174-2.897-2.244a4.082 4.082 0 0 1-.063-1.744c.059-.57.187-1.131.381-1.67a9.255 9.255 0 0 1 2.809-3.837l.584-.522a1.68 1.68 0 0 1 1.77-.37c.645.202 1.222.58 1.665 1.09.464.62.653 1.404.522 2.167-.01.334.46.334.49.036z" fill="#231F20"/>
        <path d="M46.354 13.812c-1.342-.355-3.132-.908-4.26.178a12.638 12.638 0 0 0-2.772 3.868c-.788 1.759-1.169 4.217.256 5.778.28.303.627.537 1.013.684.882.409 1.836.64 2.808.679a.235.235 0 1 0 0-.47 6.577 6.577 0 0 1-2.87-.747 2.27 2.27 0 0 1-.857-.762 4.353 4.353 0 0 1-.522-3.095 9.459 9.459 0 0 1 2.224-4.427c.485-.584 1.018-1.388 1.78-1.602.965-.272 2.124.12 3.059.37a.236.236 0 1 0 .125-.454h.016z" fill="#231F20"/>
        <path d="M44.333 14.501a6.958 6.958 0 0 0-1.07-.308 9.339 9.339 0 0 0-1.085-.099.235.235 0 1 0 0 .47c.332.017.663.054.991.11.355.078.704.18 1.044.307a.24.24 0 0 0 .293-.161.245.245 0 0 0-.167-.293l-.006-.026zM43.389 15.362a7.559 7.559 0 0 0-.862-.339c-.282-.089-.563-.151-.85-.23a.236.236 0 0 0-.126.455c.277.073.559.14.83.224.264.081.522.18.773.298a.24.24 0 0 0 .318-.084.235.235 0 0 0-.083-.324zM42.538 16.37a14.36 14.36 0 0 0-1.66-.61.236.236 0 0 0-.125.453c.266.09.522.167.803.261.255.086.504.187.747.303a.25.25 0 0 0 .324-.083.24.24 0 0 0-.09-.324zM41.588 17.69c-.522-.208-1.002-.396-1.524-.626a.235.235 0 1 0-.235.407c.522.24 1.08.465 1.633.674a.235.235 0 0 0 .288-.162.245.245 0 0 0-.162-.292zM40.987 19.283l-.767-.298-.725-.308a.235.235 0 0 0-.344.26.23.23 0 0 0 .109.142 23.33 23.33 0 0 0 1.602.653.235.235 0 0 0 .125-.45zM40.784 20.703a5.987 5.987 0 0 1-1.718-.726c-.266-.146-.522.26-.234.407a6.332 6.332 0 0 0 1.827.773.25.25 0 0 0 .292-.167.24.24 0 0 0-.167-.287zM40.81 22.065c-.566-.19-1.12-.41-1.66-.663a.235.235 0 1 0-.235.407c.576.28 1.169.524 1.775.731a.235.235 0 1 0 .125-.449l-.005-.026zM41.797 23.459c-.8-.226-1.575-.533-2.313-.914-.271-.14-.522.266-.24.402.775.401 1.588.724 2.427.966a.236.236 0 0 0 .126-.454z" fill="#231F20"/>
        <path d="M49.068 16.991a12.173 12.173 0 0 1-1.284-1.096c-.435-.36-.89-.694-1.363-1.002a.08.08 0 0 0-.083.135c.49.318.959.667 1.404 1.044.391.375.806.724 1.242 1.044.09.058.168-.078.084-.135v.01zM48.98 17.633a2.553 2.553 0 0 1-.59-.522 12.252 12.252 0 0 0-.58-.584c-.424-.382-.876-.73-1.352-1.044a.08.08 0 1 0-.084.135c.492.324.956.687 1.389 1.086.193.183.376.37.553.569.168.202.365.378.585.522.083.052.162-.084.078-.13v-.032zM48.744 18.27c-.38-.277-.689-.637-1.044-.945-.36-.312-.74-.6-1.138-.861-.083-.058-.161.078-.078.136.408.268.797.565 1.164.887.321.324.66.63 1.013.919.083.057.162-.079.078-.136h.005zM48.416 18.792c-.72-.433-1.31-1.044-2.088-1.42-.09-.042-.168.089-.079.136.757.365 1.347.986 2.088 1.42.084.052.162-.084.079-.136zM48.248 19.47a13.24 13.24 0 0 1-1.461-1.043c-.084-.063-.162.073-.078.135.47.36.96.7 1.461 1.044.084.053.162-.083.078-.135zM48.024 20.03a7.673 7.673 0 0 1-1.295-.716c-.078-.057-.156.078-.078.136.4.28.827.521 1.274.72.094.042.172-.094.078-.136l.021-.005zM47.565 20.556a6.212 6.212 0 0 0-.81-.522c-.088-.047-.166.09-.078.136.282.154.553.329.81.522.037.02.083.006.104-.031a.073.073 0 0 0 0-.105h-.026zM47.502 21.068l-.522-.277a.089.089 0 0 0-.11.032.073.073 0 0 0 0 .104l.522.277a.073.073 0 0 0 .105-.032.078.078 0 0 0 0-.104h.005zM47.194 21.475h-.089l-.125-.073-.042-.031-.073-.079a.084.084 0 0 0-.115 0c-.03.03-.03.08 0 .11a.94.94 0 0 0 .428.277.078.078 0 0 0 .094-.058.073.073 0 0 0-.052-.094l-.026-.052z" fill="#241F20"/>
        <path d="M18.098 44.156c2.03-1.952 3.23-4.588 4.64-7.037 1.41-2.448 3.21-4.875 5.842-5.888a21.522 21.522 0 0 0-14.021-2.521c-.94.151-1.937.407-2.537 1.138-.893 1.086-.548 2.704-.063 4.02a29.66 29.66 0 0 0 5.58 9.333l.559.955z" fill="#C7CDFF"/>
        <path d="M48.395 67.28v-.083h-.783v.24c0 .052.01.104.03.152.019.047.047.09.084.125a.318.318 0 0 0 .126.078.308.308 0 0 0 .151.037h.105a.407.407 0 0 0 .172-.1l.062-.078a.449.449 0 0 0 .053-.198v-.24a.298.298 0 0 0-.037-.152.256.256 0 0 0-.078-.125.282.282 0 0 0-.125-.083.256.256 0 0 0-.131-.037h-.104a.365.365 0 0 0-.173.104l-.062.079a.365.365 0 0 0-.052.198v.084c0 .052.01.103.03.151.019.048.047.09.084.125a.318.318 0 0 0 .126.079.308.308 0 0 0 .151.036h.104a.36.36 0 0 0 .173-.1l.062-.077a.449.449 0 0 0 .053-.199l-.021-.015z" fill="#000"/>
        <path d="M59.21 63.48c.522 2.459-.255 7.883-1.675 9.95a9.506 9.506 0 0 1-6.165 3.951c-1.185.204-2.547.12-3.388-.746-.924-.96-.856-2.47-.725-3.795l.386-4.03c.083-.887.23-1.88.945-2.406a3.09 3.09 0 0 1 1.43-.465c2.182-.313 9.192-2.459 9.192-2.459z" fill="#FFF"/>
        <path d="M58.986 63.543c.19 1.295.19 2.61 0 3.905-.14 1.42-.435 2.82-.882 4.176-1.008 2.923-3.806 5.021-6.823 5.528a4.113 4.113 0 0 1-2.61-.277 2.678 2.678 0 0 1-1.263-2.292c-.032-.837.012-1.676.13-2.505.095-1.01.19-2.017.288-3.023.078-.798.125-1.806.767-2.38.522-.475 1.32-.475 1.989-.605 1.044-.204 2.051-.475 3.064-.752a153.9 153.9 0 0 0 5.601-1.618.235.235 0 0 0-.125-.45c-1.88.575-3.77 1.12-5.67 1.635-1.111.297-2.228.61-3.36.798-.773.13-1.567.25-2.089.914a4.025 4.025 0 0 0-.631 2.03c-.12 1.107-.215 2.219-.319 3.325a13.65 13.65 0 0 0-.115 2.918 3.038 3.038 0 0 0 2.84 2.809c3.163.329 6.849-1.932 8.253-4.73a15.295 15.295 0 0 0 1.315-4.823c.263-1.554.277-3.14.042-4.698-.005-.308-.46-.182-.402.115z" fill="#000"/>
        <path d="M49.345 66.294h9.865a.392.392 0 0 0 0-.783h-9.865a.392.392 0 1 0 0 .783zM48.024 67.964h11.25a.392.392 0 0 0 0-.783h-11.25a.391.391 0 1 0 0 .783z" fill="#000"/>
        <path d="M20.937 65.809a9.396 9.396 0 0 0 7.622 11.123c1.19.204 2.552.12 3.387-.746.924-.96.862-2.47.731-3.795l-.386-4.009c-.084-.887-.23-1.88-.945-2.406a3.085 3.085 0 0 0-1.43-.46 68.265 68.265 0 0 0-6.572-.631l-2.407.924z" fill="#FFF"/>
        <path d="M20.713 65.772a9.782 9.782 0 0 0 2.192 8.268c1.739 1.979 4.698 3.592 7.397 3.195a2.934 2.934 0 0 0 2.516-2.13c.392-1.388.068-2.944-.062-4.348-.09-.903-.157-1.806-.267-2.704a4.025 4.025 0 0 0-.522-1.717c-.772-1.222-2.667-1.149-3.94-1.295-1.013-.12-2.031-.219-3.05-.287-.61-.047-1.34-.224-1.92 0-.741.272-1.467.574-2.198.861-.277.11-.156.564.125.455l1.566-.622c.248-.12.504-.219.768-.297a7.386 7.386 0 0 1 1.879.099c1.602.12 3.22.271 4.813.522.778.13 1.425.407 1.733 1.18.195.619.306 1.261.329 1.91.14 1.472.344 2.96.407 4.437.052 1.326-.209 2.798-1.613 3.31-1.175.433-2.547.156-3.696-.24a9.166 9.166 0 0 1-6.034-10.472c.083-.323-.366-.449-.423-.125z" fill="#000"/>
        <path d="M24.398 66.941h7.308a.078.078 0 1 0 0-.156h-7.308a.078.078 0 1 0 0 .156z" fill="#000"/>
        <path d="M18.098 44.605c2.03-1.952 3.23-4.588 4.64-7.037 1.41-2.448 3.21-4.875 5.842-5.888a21.522 21.522 0 0 0-14.021-2.537c-.94.152-1.937.407-2.537 1.138-.893 1.086-.548 2.699-.063 4.02 1.263 3.424 6.139 10.304 6.139 10.304z" fill="#C7CDFF"/>
        <path d="M11.74 32.13c-.418-.633.282-1.802.892-2.24 3.132-2.24 13.134-1.196 17.023 1.341-1.52.423-6.123 3.492-6.212 3.409-4.985-4.75-11.703-2.51-11.703-2.51z" fill="#FFF"/>
        <path d="M11.938 32.009c-.454-.872.642-1.88 1.336-2.229a7.177 7.177 0 0 1 1.78-.58 18.792 18.792 0 0 1 4.96-.255c3.168.183 6.785.746 9.52 2.49l.058-.428a16.036 16.036 0 0 0-3.492 1.8c-.6.356-1.19.721-1.785 1.081-.199.12-.397.246-.6.36a.726.726 0 0 1-.215.12c-.23.037.074 0-.036-.041-.36-.204-.673-.585-1.044-.83-.447-.327-.92-.617-1.415-.867a11.312 11.312 0 0 0-2.49-.918 13.248 13.248 0 0 0-4.536-.261c-.784.07-1.56.222-2.312.454-.287.094-.167.522.125.449a12.465 12.465 0 0 1 6.436-.225 10.44 10.44 0 0 1 3.967 1.801c.237.162.465.336.684.522.126.11.319.381.522.418.204.036.522-.183.695-.293.522-.308 1.044-.631 1.566-.945 1.273-.772 2.61-1.743 4.082-2.166a.235.235 0 0 0 .052-.428c-2.35-1.508-5.33-2.088-8.055-2.412-2.725-.323-5.815-.485-8.346.606-1.044.449-2.532 1.749-1.859 3.038.141.245.543.01.402-.261z" fill="#000"/>
        <path d="M66.816 63.48c.496 2.459-.261 7.883-1.676 9.95a9.516 9.516 0 0 1-6.154 3.951c-1.185.204-2.553.12-3.388-.746-.924-.96-.856-2.47-.73-3.795l.386-4.03c.088-.887.23-1.88.95-2.406a3.09 3.09 0 0 1 1.43-.465c2.177-.313 9.182-2.459 9.182-2.459z" fill="#FFF"/>
        <path d="M66.602 63.543c.19 1.295.19 2.61 0 3.905a19.053 19.053 0 0 1-.882 4.176c-1.002 2.923-3.8 5.021-6.818 5.528a4.129 4.129 0 0 1-2.61-.277 2.694 2.694 0 0 1-1.263-2.292c-.027-.837.017-1.675.13-2.505.1-1.008.194-2.015.293-3.023.078-.798.12-1.806.767-2.38.522-.475 1.321-.475 1.99-.605 1.043-.204 2.05-.475 3.063-.752a158.046 158.046 0 0 0 5.601-1.618.235.235 0 0 0-.125-.45 194.554 194.554 0 0 1-5.674 1.635c-1.107.297-2.224.61-3.356.798-.778.13-1.566.25-2.062.914a3.978 3.978 0 0 0-.632 2.03c-.12 1.107-.214 2.219-.324 3.325a13.65 13.65 0 0 0-.11 2.918 3.038 3.038 0 0 0 2.84 2.809c3.164.329 6.844-1.932 8.253-4.73a15.284 15.284 0 0 0 1.31-4.823c.266-1.553.28-3.14.042-4.698-.042-.308-.49-.182-.433.115z" fill="#000"/>
        <path d="M14.198 48.624a12.883 12.883 0 0 0-2.771 3.106 9.109 9.109 0 0 0-1.138 5.22c.016 1.28.327 2.54.908 3.68.945 1.733 2.683 2.871 4.41 3.821 5.649 3.106 12.22 3.545 15.838 8.874.966 1.43.188 4.547 1.342 5.826 1.153 1.279 5.528 1.874 7.167 1.341 2.27-.736 2.088-3.048 3.58-4.927 2.089-2.642 5.565-3.231 8.838-4.01 2.976-.71 6.134-1.32 8.624-3.095 4.489-3.194 13.441-9.918 9.651-23.276-.433-1.524-1.32-2.886-1.821-4.384-.903-2.715-.742-5.649-.564-8.504-2.088 0-3.22 3.043-5.32 3.054-1.085 0-1.967-.82-2.771-1.566-4.286-3.884-10.44-4.876-16.182-5.262-2.887-.167-12.914.71-19.262 5.408-6.347 4.698-6.27 11.186-10.529 14.694z" fill="#FFF"/>
        <path d="M14.031 48.457c-1.764 1.478-3.278 3.32-3.768 5.612a10.242 10.242 0 0 0 .626 6.483c.976 1.952 2.913 3.195 4.771 4.176a45.184 45.184 0 0 0 5.669 2.412c1.945.66 3.832 1.479 5.643 2.448a14.407 14.407 0 0 1 2.521 1.822 7.83 7.83 0 0 1 1.926 2.354c.7 1.566.084 3.476.867 5.042.647 1.29 2.48 1.666 3.758 1.89 1.4.245 3.132.46 4.448-.183 1.618-.783 1.92-2.657 2.74-4.082 1.122-1.962 3.179-3.022 5.262-3.654 2.083-.631 4.348-1.044 6.514-1.608a18.301 18.301 0 0 0 6.264-2.61 48.187 48.187 0 0 0 2.678-2.035 23.521 23.521 0 0 0 5.56-6.39 17.952 17.952 0 0 0 2.25-10.08c-.1-2.149-.561-4.266-1.363-6.263a29.624 29.624 0 0 1-1.493-3.597 16.01 16.01 0 0 1-.522-4.045c0-1.274.057-2.553.136-3.827a.245.245 0 0 0-.235-.235c-1.916.068-2.798 2.02-4.359 2.809-1.394.704-2.568-.345-3.57-1.232a16.516 16.516 0 0 0-2.856-2.057c-4.113-2.333-9.187-3.132-13.864-3.294a35.235 35.235 0 0 0-10.471 1.498c-4.484 1.264-8.874 3.373-11.824 7.1a32.301 32.301 0 0 0-3.554 6.102c-.977 2-2.02 3.993-3.754 5.444-.23.199.105.522.334.334 3.054-2.563 4.088-6.676 6.15-9.949 2.651-4.218 6.848-6.729 11.484-8.227a37.495 37.495 0 0 1 10.962-1.858c2.122.022 4.24.229 6.326.616 2.5.377 4.93 1.13 7.204 2.234a16.396 16.396 0 0 1 3.555 2.438c.877.783 1.884 1.686 3.132 1.524 2.088-.256 2.923-2.96 5.032-3.033l-.235-.235c-.146 2.396-.287 4.829.203 7.188.491 2.36 1.874 4.385 2.443 6.724a19.037 19.037 0 0 1-.36 11.207 19.836 19.836 0 0 1-4.97 7.308c-1.878 1.8-4.107 3.654-6.493 4.74-3.972 1.78-8.545 1.785-12.465 3.654a7.903 7.903 0 0 0-3.863 3.8c-.726 1.566-1.242 3.236-3.2 3.492a10.842 10.842 0 0 1-4.943-.61 2.725 2.725 0 0 1-1.634-1.206c-.402-.82-.381-1.822-.439-2.72a6.786 6.786 0 0 0-.412-2.276c-.4-.77-.93-1.467-1.566-2.057a15.592 15.592 0 0 0-4.531-3.095c-3.612-1.718-7.553-2.678-10.998-4.766-2.057-1.253-3.654-2.887-4.077-5.34-.413-2.375-.13-4.938 1.263-6.953a13.207 13.207 0 0 1 2.432-2.61c.251-.183-.104-.517-.334-.324z" fill="#000"/>
        <path d="M30.704 35.277c.23 5.977 3.654 11.63 8.577 14.992.093-1.728-.637-3.06-.804-4.777a11.484 11.484 0 0 0-.486-2.61 13.927 13.927 0 0 0-1.973-3.492c-1.3-1.848-2.866-3.857-5.11-4.108l-.204-.005zM10.962 56.616a5.935 5.935 0 0 0 1.342 4.364 3.8 3.8 0 0 0 3.544 1.138c.381-.068.74-.23 1.044-.47.694-.58 1.044-1.696 1.117-2.74.308-3.195-1.117-6.896-3.435-7.345-2.317-.449-3.32.329-3.612 5.053z" fill="#C7CDFF"/>
        <path d="M37.03 40.648a20.723 20.723 0 0 1 1.457 4.818c.345 1.566.679 2.548 1.044 4.13a8.389 8.389 0 0 0 3.325-5.356c.439-2.292.308-4.646.162-6.974 0-.43-.093-.856-.271-1.248a2.72 2.72 0 0 0-1.87-1.122c-3.189-.762-6.535-.214-9.771.334 0-.026 4.703 2.928 5.925 5.418z" fill="#FFF"/>
        <path d="M36.827 40.768a20.812 20.812 0 0 1 1.41 4.64c.313 1.426.73 2.825 1.044 4.25a.24.24 0 0 0 .391.104 9.172 9.172 0 0 0 2.845-3.57c.63-1.693.927-3.493.872-5.299 0-1.044-.042-2.088-.105-3.132-.047-.767-.036-1.633-.584-2.239a3.56 3.56 0 0 0-1.88-.913 14.93 14.93 0 0 0-2.85-.35c-2.327.01-4.647.25-6.927.715-.208.037-.208.334-.052.433.848.54 1.667 1.123 2.454 1.749 1.268 1.007 2.636 2.145 3.382 3.612.141.266.522.032.407-.24-.767-1.498-2.156-2.673-3.455-3.7A30.276 30.276 0 0 0 31.226 35l-.057.428a33.706 33.706 0 0 1 7.047-.684c1.063.023 2.118.199 3.132.522.614.153 1.11.607 1.315 1.206.119.596.175 1.204.167 1.811.12 2.219.193 4.531-.397 6.693a8.556 8.556 0 0 1-3.132 4.468l.397.104c-.334-1.503-.767-2.98-1.096-4.484a20.729 20.729 0 0 0-1.404-4.52c-.094-.287-.501-.047-.37.224z" fill="#000"/>
        <ellipse fill="#000" cx="22.263" cy="46.907" rx="1" ry="1.342"/>
        <ellipse fill="#000" cx="14.595" cy="56.872" rx="1" ry="1.007"/>
        <ellipse fill="#000" cx="12.914" cy="56.204" rx="1" ry="1.007"/>
        <ellipse fill="#000" cx="19.799" cy="45.79" rx="1" ry="1.342"/>
        <path d="m50.253 33.888-5.742-1.174c-.35 1.644-.423 10.758-.261 12.434.142 1.051.421 2.08.83 3.059l2.03 5.559a15.582 15.582 0 0 0 1.958 4.03c1.148 1.566 2.793 2.521 4.41 3.44 1.62.919 3.347 1.853 5.043 2.73.64.411 1.385.627 2.146.621 1.853-.198 2.552-2.688 3.873-4.108 1.32-1.42 3.497-1.905 4.38-3.69 1.096-2.224-.48-4.86-.58-7.382-.036-1.002.167-2.025 0-3.006a7.177 7.177 0 0 0-1.31-2.663c-1.869-2.73-3.821-5.434-6.222-7.626-2.401-2.192-7.397-3.179-10.519-3.534-.036 0 1.488 1.488-.036 1.31z" opacity=".28" fill="#C7CDFF"/>
        <path d="M38.962 33.131c2.12-.334 4.275-.37 6.405-.11 1.437.15 2.853.454 4.223.909.386.13.825.392 1.237.224a.736.736 0 0 0 .439-.82c-.13-.787-1.274-1.11-1.9-1.325a16.908 16.908 0 0 0-3.728-.81c-2.132-.24-4.287-.2-6.41.121-.595.094-1.373.266-1.508.966-.136.7.637.992 1.242.866.298-.062.172-.522-.125-.454-.298.068-.616.063-.663-.24-.063-.386.522-.559.778-.616a12.304 12.304 0 0 1 1.764-.245 24.743 24.743 0 0 1 5.418.104c1.03.138 2.046.373 3.033.7.378.116.747.263 1.102.438.163.075.31.182.433.313.292.397 0 .522-.376.522a2.474 2.474 0 0 1-.485-.177 21.59 21.59 0 0 0-5.873-1.044 22.728 22.728 0 0 0-5.12.235c-.309.041-.178.496.114.443zM70.386 44.37h-2.208a.078.078 0 1 0 0 .157h2.208a.078.078 0 1 0 0-.157zM70.93 45.701h-2.752a.078.078 0 1 0 0 .157h2.751a.078.078 0 1 0 0-.157zM71.222 46.912h-4.96a.078.078 0 1 0 0 .157h4.96a.078.078 0 1 0 0-.157zM71.55 48.201h-5.287a.078.078 0 1 0 0 .157h5.288a.078.078 0 1 0 0-.157zM71.425 49.59h-6.123a.078.078 0 1 0 0 .157h6.123a.078.078 0 1 0 0-.157zM71.342 53.766h-8.984v.157h.402a.078.078 0 1 0 0-.157h-.402a.078.078 0 1 0 0 .157h8.984a.078.078 0 1 0 0-.157zM71.55 50.916h-3.977c-1.316 0-2.61.036-3.946-.089-.1 0-.1.152 0 .157 1.31.125 2.61.083 3.946.088h3.978a.078.078 0 1 0 0-.156zM71.676 52.325H62.76a.078.078 0 1 0 0 .157h8.916a.078.078 0 1 0 0-.157zM71.3 55.243h-7.094a.078.078 0 1 0 0 .157h7.12a.078.078 0 1 0 0-.157H71.3zM70.637 56.538h-4.698a.078.078 0 0 0 0 .156h4.698a.078.078 0 0 0 0-.156zM70.428 58.036h-3.502a.078.078 0 1 0 0 .157h3.502a.078.078 0 1 0 0-.157zM69.802 59.242H67.26a.078.078 0 1 0 0 .156h2.542a.078.078 0 1 0 0-.156zM66.774 62.922l-.25.245a.303.303 0 0 0-.079.13.287.287 0 0 0-.036.147.298.298 0 0 0 .036.151c.015.05.042.095.079.13l.083.058a.36.36 0 0 0 .193.052h.105a.46.46 0 0 0 .177-.099l.246-.25c.04-.035.069-.08.083-.13a.235.235 0 0 0 .031-.147.25.25 0 0 0-.03-.151.235.235 0 0 0-.084-.126l-.079-.062a.365.365 0 0 0-.198-.053h-.104a.428.428 0 0 0-.173.105zM40.429 49.235h2.96a.078.078 0 1 0 0-.157h-2.96a.078.078 0 1 0 0 .157zM41.431 47.899h3.983a.078.078 0 1 0 0-.157h-3.983a.078.078 0 1 0 0 .157zM42.366 46.677c.864-.12 1.738-.152 2.61-.099.099 0 .099-.151 0-.157a13.603 13.603 0 0 0-2.647.105c-.1 0-.057.167.042.151h-.005zM39.724 50.691h2.417a.078.078 0 1 0 0-.156h-2.417a.078.078 0 1 0 0 .156zM39.891 51.902h1.248a.078.078 0 1 0 0-.156H39.89a.078.078 0 1 0 0 .156zM39.975 52.983h.62a.078.078 0 1 0 0-.157h-.62a.078.078 0 1 0 0 .157zM42.888 45.278h1.482a.078.078 0 1 0 0-.156h-1.462a.078.078 0 1 0 0 .156h-.02zM28.188 69.875l2.918 2.918c.073.073.183-.042.11-.11l-2.918-2.918c-.068-.073-.183.042-.11.11zM43.023 75.737l-2.735-.924-.386-.13c-.094-.032-.136.12-.042.15l2.73.925.391.13c.094.032.136-.12.042-.151zM43.618 75.08l-2.38-1.217-.334-.167c-.089-.047-.167.089-.078.136l2.375 1.21.329.173c.088.042.172-.094.078-.136h.01zM44.307 74.124l-2.672-2.062-.387-.292c-.078-.063-.156.073-.078.13l2.678 2.062.386.298c.079.062.157-.073.079-.136h-.006zM45.445 73.393l-3.455-2.667-.522-.381c-.079-.058-.157.078-.079.135l3.503 2.668.522.38c.078.064.157-.072.078-.135h-.047zM46.573 72.558l-3.894-3.46-.522-.486c-.079-.063-.188.047-.115.115l3.894 3.455.548.486c.073.067.183-.042.11-.11h-.021zM48.024 72.12l-3.132-2.918-.438-.408c-.074-.067-.183.042-.11.11l3.132 2.918.433.407c.073.068.183-.042.11-.11h.005zM49.13 71.853l-2.52-3.278-.36-.47c-.063-.078-.2 0-.137.079l2.522 3.278.36.47c.057.078.193 0 .136-.079zM50.352 71.316l-1.806-2.871-.256-.402c-.052-.084-.188 0-.135.078l1.821 2.871.256.402c.052.083.188 0 .136-.078h-.016zM51.824 71.159l-1.717-2.61-.246-.381c-.052-.084-.187 0-.135.078l1.717 2.61.245.376c.058.084.194 0 .136-.078v.005zM53.04 70.992l-1.372-2.297-.199-.323c-.052-.084-.188 0-.136.078l1.379 2.297.193.329a.08.08 0 1 0 .135-.084zM54.512 70.757l-1.08-1.676-.157-.24c-.052-.083-.188 0-.13.079l1.08 1.675.152.24c.057.084.193 0 .135-.078zM55.854 70.381l-.992-.903-.14-.13c-.074-.063-.183.047-.11.115l.991.897.141.13c.073.069.188-.04.11-.109zM56.856 70.105l-.798-.679-.11-.094a.078.078 0 0 0-.11 0 .073.073 0 0 0 0 .11l.794.668.115.094a.078.078 0 0 0 .11-.11v.01zM57.942 69.426l-.715-.391-.1-.058c-.088-.047-.172.089-.083.136l.715.397.105.052c.083.052.167-.084.078-.136zM26.069 68.935a.078.078 0 1 0 0-.156.078.078 0 0 0 0 .156zM31.894 74.014a.078.078 0 1 0 0-.156.078.078 0 0 0 0 .156zM32.113 75.262a.078.078 0 1 0 0-.157.078.078 0 0 0 0 .157zM21.825 67.176a3.821 3.821 0 0 0 1.983-1.425c.063-.083-.073-.162-.13-.078a3.654 3.654 0 0 1-1.895 1.352c-.094.031-.057.183.042.151zM23.61 67.787a4.427 4.427 0 0 0 2.041-1.952c.047-.094-.089-.173-.136-.084a4.228 4.228 0 0 1-1.988 1.9c-.09.042 0 .178.083.136zM25.17 68.382c.027.204.293.115.392.026.212-.189.41-.39.595-.605.383-.42.732-.868 1.044-1.342.058-.083-.078-.162-.135-.078-.26.394-.546.77-.856 1.127-.152.178-.314.345-.475.522l-.246.24a.292.292 0 0 1-.104.073c-.031 0-.063.027-.063 0 0-.026-.167-.057-.151.042v-.005zM27.113 69.457a7.22 7.22 0 0 0 2.302-2.364c.057-.084-.079-.162-.13-.079a7.141 7.141 0 0 1-2.25 2.308c-.084.052 0 .188.078.135z" fill="#000"/>
        <path d="M28.997 70.47a.172.172 0 0 0 .209.151.752.752 0 0 0 .36-.214 6.734 6.734 0 0 0 1.984-2.688c.036-.094-.115-.13-.152-.042a6.593 6.593 0 0 1-1.55 2.271c-.11.104-.224.204-.34.303l-.187.151s-.162.094-.167.068c-.006-.026-.167-.1-.157 0zM30.495 71.384c.7-.7 1.3-1.494 1.78-2.36.047-.089-.088-.167-.135-.083a10.09 10.09 0 0 1-1.754 2.333c-.073.068.036.177.11.11zM31.21 72.474a6.786 6.786 0 0 0 2.365-2.996c.042-.094-.11-.136-.151-.042a6.656 6.656 0 0 1-2.292 2.903c-.083.057 0 .193.078.135zM32.082 73.32a4.61 4.61 0 0 0 1.655-1.482c.057-.084-.078-.162-.136-.079a4.458 4.458 0 0 1-1.597 1.425c-.089.047 0 .183.078.136z" fill="#000"/>
        <path d="m70.439 79.104-10.3-45.445-1.482.448.93 3.32-3.691 1.457-.694-3.947-1.624.387 9.396 46.599 1.931-.684-.876-4.782 3.528-1.748.987 5.334 1.895-.94zM56.616 40.883l3.55-1.425 1.143 4.635-3.602 1.566-1.09-4.776zm1.566 7.308c.987-.585 2.516-.987 3.55-1.425.465 1.523.849 3.07 1.148 4.635l-3.602 1.566-1.096-4.776zm1.326 7.141c.987-.585 2.51-.981 3.55-1.42.463 1.524.845 3.071 1.143 4.636l-3.602 1.566c-.047-1.128-1.091-4.782-1.091-4.782zm2.537 11.949c-.057-1.18-1.091-4.803-1.091-4.803.981-.584 2.51-.981 3.55-1.42a45.936 45.936 0 0 1 1.143 4.636l-3.602 1.587zm1.462 7.177c-.058-1.18-1.091-4.802-1.091-4.802.986-.585 2.51-.982 3.55-1.42.465 1.523.847 3.07 1.142 4.635l-3.601 1.587z" fill="#FFF"/>
        <path d="m70.663 79.041-1.044-4.51-2.432-10.847-2.981-13.16-2.568-11.332-.846-3.727a13.05 13.05 0 0 0-.407-1.79.345.345 0 0 1 0-.08.24.24 0 0 0-.292-.16l-1.483.448a.235.235 0 0 0-.167.287l.935 3.32.161-.292-3.685 1.461.292.162-.694-3.946a.245.245 0 0 0-.292-.162l-1.624.381a.245.245 0 0 0-.167.292l.919 4.651 2.24 11.119 2.709 13.431 2.359 11.656.773 3.847c.08.612.201 1.217.365 1.812a.49.49 0 0 1 0 .083.23.23 0 0 0 .287.167l1.931-.689a.235.235 0 0 0 .162-.287l-.877-4.781-.104.266 3.529-1.749-.345-.14.981 5.334a.245.245 0 0 0 .345.141l1.9-.94c.266-.135.031-.522-.24-.407l-1.895.94.345.14-.971-5.334a.24.24 0 0 0-.345-.14l-3.529 1.748a.235.235 0 0 0-.104.266l.877 4.782.162-.288-1.932.684.288.162-.935-4.651-2.234-11.103-2.71-13.431-2.353-11.672-.773-3.847-.24-1.185a2.265 2.265 0 0 0-.13-.626.47.47 0 0 1 0-.084l-.162.287 1.623-.38-.287-.168.694 3.946a.24.24 0 0 0 .287.167l3.69-1.461a.24.24 0 0 0 .168-.287l-.935-3.32-.167.292 1.488-.454-.287-.162 1.044 4.51 2.453 10.832 2.986 13.175 2.569 11.333.84 3.727c.093.605.23 1.204.407 1.79a.345.345 0 0 1 0 .079c.042.292.496.177.428-.126z" fill="#000"/>
        <path d="m56.679 41.108 3.55-1.426-.288-.161 1.133 4.635.11-.266-3.607 1.566.35.14L56.83 40.8c-.068-.298-.522-.173-.454.125l1.096 4.797a.24.24 0 0 0 .345.14l3.602-1.565a.245.245 0 0 0 .11-.266l-1.15-4.636a.24.24 0 0 0-.286-.167l-3.55 1.425c-.266.115-.167.585.136.455zM58.287 48.405a10.195 10.195 0 0 1 1.748-.762l.893-.313.444-.162c.11-.064.228-.117.35-.157l-.168-.068c-.036-.03 0-.036 0 0a.522.522 0 0 0 .042.12c.042.131.078.267.115.397.115.418.22.84.323 1.258.225.924.444 1.848.622 2.777l.11-.266-3.603 1.566.345.141-1.091-4.797c-.068-.298-.522-.172-.454.125l1.09 4.797a.24.24 0 0 0 .345.141L63 51.636a.235.235 0 0 0 .11-.266 38.248 38.248 0 0 0-1.044-4.286 1.53 1.53 0 0 0-.141-.402c-.1-.135-.214-.125-.355-.078-.23.078-.454.178-.684.261-.98.297-1.93.683-2.84 1.154a.235.235 0 0 0 .24.386zM59.644 55.54a10.597 10.597 0 0 1 1.748-.756c.298-.11.596-.209.893-.313l.444-.167c.078 0 .292-.162.35-.152l-.162-.068c-.037-.036 0-.041 0 0a.81.81 0 0 0 .041.12c.042.136.079.267.115.402.115.418.22.836.324 1.258a49.7 49.7 0 0 1 .626 2.777l.105-.266-3.602 1.566.355.204a15.446 15.446 0 0 0-.57-2.871c-.166-.668-.344-1.331-.521-1.994a.236.236 0 0 0-.454.125c.184.64.358 1.282.522 1.926.28.918.47 1.86.569 2.814a.24.24 0 0 0 .355.203l3.601-1.566a.235.235 0 0 0 .105-.266 38.335 38.335 0 0 0-1.044-4.29 1.331 1.331 0 0 0-.141-.397c-.094-.141-.209-.13-.35-.079-.23.079-.454.178-.684.261-.981.297-1.933.684-2.845 1.154a.235.235 0 0 0 .22.376zM62.3 67.286a15.446 15.446 0 0 0-.568-2.871c-.167-.668-.345-1.331-.522-1.994l-.11.266a10.597 10.597 0 0 1 1.749-.757l.892-.313.444-.167c.078-.026.292-.162.35-.152l-.162-.067c-.036-.037-.026-.042-.026-.026a.81.81 0 0 0 .042.12c.041.135.078.266.115.402.114.417.219.835.323 1.258a49.7 49.7 0 0 1 .627 2.777l.104-.267-3.602 1.566c-.276.12-.036.522.24.408l3.602-1.566a.235.235 0 0 0 .105-.267 44.93 44.93 0 0 0-1.018-4.29 1.498 1.498 0 0 0-.141-.397c-.094-.141-.21-.13-.35-.079-.23.079-.454.178-.684.261-.981.297-1.934.684-2.845 1.154a.235.235 0 0 0-.11.261c.182.644.356 1.286.523 1.926.277.918.468 1.86.569 2.814 0 .297.47.303.454 0zM63.762 74.463a15.436 15.436 0 0 0-.563-2.87c-.173-.669-.35-1.332-.522-1.995l-.105.266a10.54 10.54 0 0 1 1.744-.756c.297-.11.6-.21.892-.319l.45-.162c.072-.026.286-.161.349-.151l-.167-.068c-.037-.036 0-.042 0-.026a.46.46 0 0 0 .036.12 49.35 49.35 0 0 1 .444 1.66 54.8 54.8 0 0 1 .621 2.777l.11-.266-3.607 1.566c-.272.12-.037.522.24.407l3.602-1.566a.245.245 0 0 0 .11-.266 40.768 40.768 0 0 0-1.045-4.291 1.331 1.331 0 0 0-.14-.397c-.094-.14-.21-.13-.35-.078-.23.078-.454.177-.684.256-.98.3-1.933.689-2.845 1.159a.235.235 0 0 0-.11.26c.183.643.355 1.28.522 1.927.28.917.471 1.86.57 2.813-.006.298.464.303.448 0z" fill="#000"/>
        <path d="M65.161 16.991c0-.083-.271-.177-.407-.063-.25.22-.793 1.003-.908 1.081a.334.334 0 0 1-.397 0 6.786 6.786 0 0 1-.198-.778c0-.042-.272-.245-.319.068 0 .136.037 1.274.058 1.451-.002.14.026.28.083.407a.642.642 0 0 0 .308.225c.159.068.32.127.486.177a.266.266 0 0 0 .156 0 .24.24 0 0 0 .11-.094c.11-.151 1.086-2.082 1.028-2.474z" fill="#FFF"/>
        <path d="M65.35 16.939a.46.46 0 0 0-.523-.245.846.846 0 0 0-.412.328 22.27 22.27 0 0 0-.658.815s.047 0 0 0a.465.465 0 0 1-.115 0s0 .052 0 0a.402.402 0 0 0-.031-.126c-.026-.104-.042-.203-.068-.308a1.133 1.133 0 0 0-.089-.328.423.423 0 0 0-.417-.188.407.407 0 0 0-.266.412 9.307 9.307 0 0 0 0 .934v.423a.987.987 0 0 0 .198.648c.214.18.468.305.741.365.21.105.466.033.59-.167.116-.192.22-.391.313-.595.178-.366.345-.736.496-1.112.068-.162.128-.327.178-.496.04-.116.06-.238.057-.36a.204.204 0 0 0-.198-.193.188.188 0 0 0-.194.193.569.569 0 0 1 0 .094.209.209 0 1 0 0 .026.71.71 0 0 1 0 .089c-.03.115-.067.23-.11.344-.109.287-.234.574-.365.856-.13.282-.234.522-.36.736-.036.068-.073.141-.115.204v.026c-.057.084 0 0 0 0a.694.694 0 0 1-.177-.052l-.22-.084a.867.867 0 0 1-.276-.14.36.36 0 0 1-.094-.272v-.334c0-.308-.036-.616-.042-.924v-.261c0-.068 0-.037-.036 0-.037.036-.032 0-.032 0 .042.031 0 0 .027 0a.261.261 0 0 1 0 .063c.047.193.078.386.13.574.036.171.18.298.355.313.386.047.59-.318.793-.58.12-.15.24-.302.366-.448.04-.06.09-.113.146-.157h.057c.068 0 .063.052.037-.026.01.297.391.193.313-.047z" fill="#000"/>
        <path d="M58.026 26.058a.903.903 0 0 0 .391-.85c-.073-.497-.553-.83-.814-1.27a2.819 2.819 0 0 1-.308-.99c-.115-.742-.444-2.908.449-3.78.892-.872 3.074-1.17 3.82.966a3.753 3.753 0 0 1-.255 3.23c-.23.35-.522.638-.799.972a1.41 1.41 0 0 0-.329 1.158c.063.235.204.522 0 .684a.423.423 0 0 1-.203.105c-.381.125-1.952-.225-1.952-.225z" fill="#FFF"/>
        <path d="M58.125 26.23a1.159 1.159 0 0 0 .156-1.738 3.44 3.44 0 0 1-.673-1.044 5.742 5.742 0 0 1-.172-.892c-.146-1.044-.355-2.746.668-3.446a2.15 2.15 0 0 1 2.907.366c.483.72.69 1.588.585 2.448a2.95 2.95 0 0 1-.37 1.216c-.272.39-.567.763-.883 1.117a1.65 1.65 0 0 0-.37 1.2c.03.215.255.523 0 .659a.757.757 0 0 1-.324 0 9.125 9.125 0 0 1-1.566-.24c-.245-.053-.35.323-.104.375.486.113.98.195 1.477.246.256.045.52.018.762-.079.34-.177.287-.522.198-.835-.172-.631.21-1.09.606-1.566.31-.324.56-.703.736-1.117.32-.863.338-1.808.052-2.683a2.553 2.553 0 0 0-4.223-1.185 2.83 2.83 0 0 0-.626 1.832 9.918 9.918 0 0 0 .151 2.114c.06.501.257.976.569 1.373.35.434.887 1.044.25 1.52-.203.166.011.506.194.36z" fill="#000"/>
        <path d="m56.72 19.314.173 1.566a8.608 8.608 0 0 0 1.77 3.174c.138.206.315.383.521.522a.95.95 0 0 0 1.044-.1c.099-.103.205-.2.319-.287.167-.075.342-.132.522-.172.392-.177.687-.517.809-.929a5.83 5.83 0 0 0 .063-3.085 2.365 2.365 0 0 0-.288-.84 1.655 1.655 0 0 0-.569-.522c-2.26-1.31-4.363.673-4.363.673z" fill="#000"/>
        <path d="M64.206 25.468c-1.044 3.346-1.822 3.132-1.89 6.593a7.762 7.762 0 0 1-.26 2.61c-2.057-.036-3.31 0-5.367-.036-.595 0-1.373-4.985-1.566-6.703-.151-1.41-4.103-8.702-3.873-9.652a3.21 3.21 0 0 0 1.66-.365c1.013 1.884 3.017 7.172 5.7 7.83a3.753 3.753 0 0 0 2.146-.115c2.349-.809 2.056-6.206 2.088-6.212l1.44-.146s.37 4.818-.078 6.196z" fill="#D2D8FF"/>
        <path d="M49.856 15.53c.084-.147.345-.366.522-.35.178.015.392 2.255 1.149 1.978.078 0 .26-.82.339-.793.36.125.198 1.185.188 1.305a.386.386 0 0 1-.162.308 3.21 3.21 0 0 1-.987.36.684.684 0 0 1-.49-.324 4.28 4.28 0 0 1-.559-2.484z" fill="#FFF"/>
        <path d="M50.023 15.629a.632.632 0 0 1 .21-.199s.12-.068.12-.057c0 .01-.157-.084-.126-.063.031.021 0 0 0 0v.052l.047.152c.078.282.146.564.235.84.082.298.226.576.423.815.161.172.522.323.715.12.087-.12.147-.257.177-.402l.078-.24a.61.61 0 0 0 .063-.157c-.036.057-.1.073-.188.052 0 0 0-.078 0 0 0 0 .032.047.032.052a.548.548 0 0 1 .041.178c.018.173.018.348 0 .522 0 .115 0 .23-.031.34-.031.109-.167.203-.303.265a2.75 2.75 0 0 1-.522.204c-.203.047-.355-.104-.46-.266a3.482 3.482 0 0 1-.448-1.32 4.776 4.776 0 0 1-.068-.606 1.843 1.843 0 0 1 0-.24v-.011c0-.063 0 .037 0 0v-.031c0-.032 0 .036 0 0 .12-.225-.214-.423-.334-.199a.767.767 0 0 0-.068.392c.006.206.025.412.058.616.057.49.19.967.396 1.414.103.235.27.435.48.58a.783.783 0 0 0 .674.036c.218-.07.43-.159.631-.266a.61.61 0 0 0 .371-.522 3.654 3.654 0 0 0 0-1.013.637.637 0 0 0-.25-.459c-.199-.115-.335 0-.402.188-.068.188-.12.355-.188.522v.099c.088-.057.104-.078.057-.057-.047.02-.068 0-.094 0a.345.345 0 0 1-.104-.084.987.987 0 0 1-.115-.162 2.438 2.438 0 0 1-.198-.464c-.115-.334-.178-.679-.293-1.013-.036-.12-.089-.245-.23-.266-.27-.047-.563.235-.699.444-.136.208.178.422.313.214z" fill="#000"/>
        <path d="M64.206 25.667c-.454 1.383-1.211 2.657-1.629 4.045a8.827 8.827 0 0 0-.318 2.088c-.063 1.117.078 2.266-.292 3.341l.151-.167H57.42a2.808 2.808 0 0 1-.84 0c-.162-.11-.24-.465-.298-.632a26.904 26.904 0 0 1-.987-4.849 13.353 13.353 0 0 0-.23-1.566 12.126 12.126 0 0 0-.573-1.498c-.632-1.462-1.332-2.892-2-4.338a44.386 44.386 0 0 1-1.002-2.281 3.132 3.132 0 0 1-.397-1.373l-.188.146a3.304 3.304 0 0 0 1.827-.407l-.266-.073c.71 1.32 1.295 2.699 2.03 4.004.737 1.305 1.65 2.787 2.955 3.654 1.19.804 3.132.918 4.234-.12.903-.862 1.19-2.255 1.352-3.44.085-.637.134-1.279.146-1.921a2.297 2.297 0 0 1 0-.57c.073-.203-.052.053.068.032.402-.078.84-.083 1.247-.125l-.193-.199c.058.851.089 1.707.11 2.558 0 1.2.125 2.558-.225 3.722a.195.195 0 1 0 .376.104c.26-1.199.342-2.43.24-3.654 0-.9-.036-1.804-.11-2.709 0-.094-.088-.203-.198-.193l-.877.089a2.088 2.088 0 0 0-.673.068c-.12.068-.115.099-.151.219-.034.298-.034.6 0 .898 0 1.225-.203 2.442-.6 3.602-.214.599-.62 1.11-1.154 1.456a3.356 3.356 0 0 1-3.017.031c-1.373-.694-2.297-2.187-3.044-3.476-.809-1.394-1.43-2.876-2.197-4.286a.193.193 0 0 0-.267-.073c-.496.276-1.062.4-1.628.355a.188.188 0 0 0-.188.141c-.021.386.054.772.22 1.122.229.642.521 1.269.787 1.895.71 1.566 1.478 3.132 2.182 4.698.282.594.528 1.204.736 1.827.137.566.23 1.142.277 1.723a22.738 22.738 0 0 0 1.044 5.079c.318.82.684.7 1.566.71 1.566 0 3.08 0 4.614.026a.198.198 0 0 0 .188-.146c.6-1.733.084-3.654.611-5.424.418-1.388 1.18-2.662 1.629-4.045.083-.204-.293-.308-.35-.068z" fill="#000"/>
        <path d="M56.376 34.786a44.307 44.307 0 0 0 1.53 10.69c.213.68.355 1.38.422 2.089-.011.533.006 1.066.052 1.597a.783.783 0 0 0 .162.402.898.898 0 0 0 .47.209l1.415.323c.114.042.24.042.355 0a.48.48 0 0 0 .193-.282c.1-.39.13-.794.089-1.195-.22-3.435-1.472-6.786-1.217-10.236 1.044 3.471.84 7.182 1.4 10.758.01.301.134.588.344.804.207.136.451.207.7.204l.897.073a.433.433 0 0 0 .559-.444c.133-1.194.074-2.4-.173-3.576-.58-3.828-.98-7.671-1.195-11.53-1.67-.32-6.003.114-6.003.114z" fill="#FFF"/>
        <path d="M56.162 34.786c.048 2.162.248 4.318.6 6.452.178 1.075.397 2.144.658 3.205.34 1.053.573 2.137.7 3.236 0 .585-.188 1.566.292 2.036a2 2 0 0 0 1.002.355c.395.141.808.222 1.227.24.72-.073.631-1.19.6-1.696a24.826 24.826 0 0 0-.376-2.913c-.423-2.427-.997-4.844-.84-7.308l-.386.052c.541 2.086.863 4.222.96 6.374.078 1.044.157 2.088.277 3.132.073.632 0 1.68.558 2.14.219.155.479.242.747.25.405.084.82.11 1.232.079.652-.13.59-1.086.6-1.566a18.891 18.891 0 0 0-.324-3.059c-.17-1.173-.327-2.347-.47-3.523a118.548 118.548 0 0 1-.657-7.575.198.198 0 0 0-.146-.188c-1.958-.334-4.093-.073-6.056.126-.25 0-.25.412 0 .391 1.921-.193 4.035-.464 5.951-.136l-.14-.193c.135 2.402.339 4.803.615 7.188.13 1.128.272 2.255.433 3.378.239 1.223.372 2.465.397 3.711 0 .407.068.93-.444 1.08a2.683 2.683 0 0 1-.783-.067c-.986-.094-.98-.867-1.08-1.655-.141-1.122-.225-2.25-.308-3.377a32.333 32.333 0 0 0-.971-6.64.198.198 0 0 0-.386.052c-.146 2.27.318 4.49.725 6.713.24 1.163.403 2.34.491 3.523.058.3.058.609 0 .909-.245.58-.653.318-1.075.224a4.745 4.745 0 0 1-.705-.162c-.454-.188-.522-.412-.522-.877-.031-.522 0-1.075-.057-1.613-.077-.482-.184-.96-.319-1.43a48.422 48.422 0 0 1-.799-3.419 44.584 44.584 0 0 1-.788-7.449.217.217 0 1 0-.433 0z" fill="#000"/>
        <path d="M58.934 50.451c-.042.715-.078 1.43-.11 2.14 0 .1 0 .225.094.267a.277.277 0 0 0 .146 0l.872-.094c.256 0 .553-.084.663-.308a.741.741 0 0 0 .042-.37l-.058-.893c0-.316-.061-.628-.182-.92a.861.861 0 0 0-.742-.521.663.663 0 0 0-.522.282l-.203.417z" fill="#CCCDE4"/>
        <path d="M58.74 50.451c0 .397-.046.794-.067 1.196 0 .193 0 .386-.026.58a2.396 2.396 0 0 0 0 .521c.057.412.47.324.772.292.32-.012.636-.06.945-.14a.663.663 0 0 0 .486-.632c0-.366-.042-.747-.063-1.107-.042-.616-.204-1.394-.908-1.566a.861.861 0 0 0-.903.355c-.075.132-.141.268-.199.407-.11.225.23.423.34.199.11-.225.193-.522.522-.59a.61.61 0 0 1 .553.303c.13.227.203.484.209.746 0 .292.036.585.057.877.02.292.089.522-.167.621-.22.07-.448.107-.679.11l-.438.047s-.151 0-.125.031c.026.031 0-.13 0-.162.026-.694.068-1.388.11-2.088-.011-.25-.403-.25-.418 0z" fill="#000"/>
        <path d="m61.126 52.357 1.676-.522c.054-.008.1-.041.125-.09a.214.214 0 0 0 0-.083 10.8 10.8 0 0 0-.036-1.362.799.799 0 0 0-.21-.57.428.428 0 0 0-.39 0c-.59.262-.991.825-1.045 1.468l-.12 1.159z" fill="#CCCDE4"/>
        <path d="m61.178 52.545 1.133-.35.496-.152c.178-.052.303-.135.324-.334.031-.38.031-.762 0-1.143.02-.32-.06-.637-.23-.908a.673.673 0 0 0-.846-.042c-.24.125-.45.303-.61.522-.241.364-.382.786-.408 1.222l-.099.97c.003.108.091.194.199.194a.193.193 0 0 0 .193-.193l.073-.69a4.27 4.27 0 0 1 .12-.793c.12-.45.448-.814.882-.981.1 0 .183 0 .235.073a.945.945 0 0 1 .078.339c.032.334.042.663.042.997v.355c0-.042-.078 0-.1.026l-.49.152-1.086.334a.206.206 0 0 0 .094.402z" fill="#000"/>
        <path d="M58.986 35.945c0 .571-.069 1.141-.204 1.696a.282.282 0 0 1-.067.157.266.266 0 0 1-.152.052c-.174.02-.35.011-.522-.026a.475.475 0 0 1-.24-.104.522.522 0 0 1-.125-.298c-.101-.489-.166-.984-.193-1.482.5-.033 1.003-.032 1.503.005z" fill="#C7CDFF"/>
        <path d="M59.043 51.287c.442-.04.885-.04 1.326 0a.193.193 0 0 0 .193-.194.198.198 0 0 0-.193-.198 7.496 7.496 0 0 0-1.326 0 .198.198 0 0 0-.193.198c0 .107.087.194.193.194zM61.481 51.156a1.91 1.91 0 0 1 .69-.084H62.634a.193.193 0 0 0 .266.074.204.204 0 0 0 .073-.267c-.136-.26-.475-.245-.72-.25-.294-.02-.589.01-.872.089a.198.198 0 0 0-.141.24c.033.103.14.165.245.14l-.005.058z" fill="#000"/>
        <path d="M77.381 54.847a.914.914 0 0 0 .454-.857c-.047-.522-.522-.897-.772-1.362a2.803 2.803 0 0 1-.266-1.044c-.079-.778-.298-3.038.673-3.9.97-.86 3.252-1.043 3.91 1.212a3.9 3.9 0 0 1-.439 3.34c-.255.35-.605.632-.882.966-.303.316-.452.75-.407 1.185.052.246.188.522 0 .715a.569.569 0 0 1-.224.094c-.434.1-2.047-.35-2.047-.35z" fill="#FFF"/>
        <path d="M77.501 55.05a1.232 1.232 0 0 0 .256-1.837 3.377 3.377 0 0 1-.637-1.102 5.648 5.648 0 0 1-.125-.94c-.089-1.09-.22-2.834.872-3.492a2.208 2.208 0 0 1 2.954.522c.46.773.623 1.685.46 2.569-.069.418-.22.82-.444 1.18-.282.433-.705.746-1.044 1.153a1.68 1.68 0 0 0-.407 1.206c.026.203.219.522-.052.632a.872.872 0 0 1-.33 0 9.767 9.767 0 0 1-1.565-.34.236.236 0 0 0-.126.454c.504.143 1.017.253 1.535.33.267.062.546.046.804-.048.376-.182.334-.553.256-.898-.141-.647.292-1.096.715-1.53.357-.337.647-.739.856-1.184.355-.874.413-1.84.167-2.751a2.683 2.683 0 0 0-4.374-1.456 2.98 2.98 0 0 0-.752 1.89c-.069.756-.051 1.518.052 2.27.042.524.232 1.026.548 1.446.334.449.778 1.075.141 1.503-.245.183-.005.595.24.423z" fill="#000"/>
        <path d="M84.01 54.664c-1.325 3.414-2.14 3.132-2.395 6.739-.068.919-.037 1.869-.423 2.709-2.224-.157-3.576-.193-5.794-.35-.648-.047-.402-4.87-1.326-7.057a9.793 9.793 0 0 1-.778-4.49c.107-.857.302-1.702.58-2.52l.777-2.61c.726.24 1.002-.084 1.728.156-.726 1.691-.93 3.497-1.242 5.298-.018.394.139.776.428 1.044.297.21.757.063 1.075.246.118.09.226.191.324.302.29.239.63.405.997.486.767.24 1.691.46 2.323 0 .161-.115.287-.266.459-.366.418-.234.997-.114 1.404-.37.804-.522.69-5.59.752-5.59l1.566-.074s.099 5.027-.454 6.447z" fill="#FFF"/>
        <path d="M83.781 54.601c-.522 1.368-1.378 2.61-1.89 3.967a8.968 8.968 0 0 0-.443 2.088c-.13 1.144-.037 2.339-.486 3.42l.23-.173a235.065 235.065 0 0 0-3.315-.193l-1.743-.104c-.397-.026-.585.083-.757-.23-.261-.449-.209-1.274-.256-1.78-.073-.799-.14-1.603-.245-2.401a11.755 11.755 0 0 0-.439-2.161c-.37-.94-.654-1.912-.85-2.903-.345-2.39.61-4.698 1.289-6.932l-.287.162c.579.162 1.153 0 1.727.162l-.161-.292a15.389 15.389 0 0 0-.888 3.189c-.099.522-.183 1.091-.276 1.64-.088.331-.1.68-.037 1.017.068.288.223.549.444.746.344.267.804.12 1.153.34.255.209.525.397.81.563a6.07 6.07 0 0 0 1.44.418c.345.068.7.068 1.044 0 .475-.104.752-.48 1.18-.658.522-.214 1.174-.052 1.508-.595.522-.82.48-2.119.522-3.048.032-.606.047-1.206.063-1.812a2.354 2.354 0 0 1 0-.522v-.067c-.094.104.125.146.167.161.392.048.789.03 1.175-.052l-.235-.235v2.61c-.037 1.211 0 2.61-.428 3.738-.105.282.35.407.454.125.417-1.148.397-2.51.438-3.711a34.4 34.4 0 0 0 0-2.746.245.245 0 0 0-.235-.235l-1.044.047c-.156 0-.522-.052-.642.057-.12.11-.094.147-.125.267-.052.422-.063.849-.031 1.273 0 .695-.052 1.384-.115 2.088a4.73 4.73 0 0 1-.35 1.786c-.198.355-.59.323-.955.386-.522.1-.747.418-1.2.642-.606.303-1.379.063-1.98-.125a2.36 2.36 0 0 1-.892-.428 3.247 3.247 0 0 0-.37-.34c-.522-.292-1.164 0-1.358-.746-.14-.564.136-1.373.235-1.942.185-1.25.51-2.476.966-3.654a.235.235 0 0 0-.162-.287c-.58-.162-1.153 0-1.728-.162a.245.245 0 0 0-.292.167c-.522 1.801-1.331 3.69-1.388 5.59-.02.906.088 1.81.323 2.684.199.757.548 1.461.747 2.218a26.1 26.1 0 0 1 .563 4.176c.047.522 0 1.916.564 2.235.329.102.675.138 1.018.104l1.629.1c1.106.057 2.208.12 3.314.192a.235.235 0 0 0 .225-.172c.715-1.728.271-3.711.93-5.481.521-1.368 1.351-2.61 1.889-3.967.12-.36-.334-.48-.444-.204z" fill="#000"/>
        <path d="M76.358 71.775c.079 2.734.339 5.46.778 8.159.004.077.034.15.083.209a.34.34 0 0 0 .235.078l.747.063c.067.016.139.005.198-.032a.266.266 0 0 0 .073-.193c.233-1.932.201-3.886-.094-5.81a10.033 10.033 0 0 1-.224-2.641 2.145 2.145 0 0 0-1.472-.172" fill="#FFF"/>
        <path d="M76.123 71.775a62.53 62.53 0 0 0 .731 7.877c.037.24.037.522.245.694.21.173.679.141.95.162.742.052.679-.522.731-1.127.144-1.675.093-3.36-.151-5.022a11.63 11.63 0 0 1-.24-2.751.23.23 0 0 0-.115-.204 2.553 2.553 0 0 0-1.655-.193c-.297.063-.172.522.125.454a1.994 1.994 0 0 1 1.29.147l-.115-.204c-.13 1.394.292 2.793.402 4.176.062.74.083 1.482.063 2.224 0 .344 0 .689-.047 1.044 0 .25 0 .934-.21 1.007a1.2 1.2 0 0 1-.448-.036c-.34-.068-.324-.183-.37-.48a44.948 44.948 0 0 1-.152-1.045 56.36 56.36 0 0 1-.277-2.276 60.994 60.994 0 0 1-.287-4.442c0-.303-.48-.303-.47 0v-.005z" fill="#000"/>
        <path d="m79.407 71.389 1.044 8.936c0 .067.026.13.073.178a.256.256 0 0 0 .156.031h.715a43.603 43.603 0 0 0-.24-9.187l-1.19-.073" fill="#FFF"/>
        <path d="m79.172 71.389.678 5.742.34 2.824c0 .235 0 .595.23.746.229.152.714.047.991.042a.24.24 0 0 0 .235-.235 44.318 44.318 0 0 0-.24-9.187.245.245 0 0 0-.235-.235l-1.19-.073c-.303 0-.303.454 0 .47l1.19.073-.235-.235c.398 3.046.479 6.125.24 9.187l.235-.235a1.952 1.952 0 0 1-.626 0c-.11.037-.146 0-.105-.151l-.041-.366-.13-1.09-.293-2.464-.574-4.834c-.037-.298-.522-.303-.47 0v.02z" fill="#000"/>
        <path d="M75.429 63.71c0 2.61.14 8.597.22 8.984a.48.48 0 0 0 .15.302c.12.1 5.22-.553 5.539-.522a.825.825 0 0 0 .376 0 .355.355 0 0 0 .203-.271c.235-.84-.271-5.387-.391-8.19-1.66-.329-6.097-.303-6.097-.303z" fill="#C7CDFF"/>
        <path d="M83.52 44.86c-.063-.078-.345 0-.391.183-.09.371.161 1.619.11 1.765-.053.146-.465.125-.612.094a8.352 8.352 0 0 1-.631-.658c-.032-.031-.376-.078-.23.266.058.141.767 1.243.887 1.404.08.138.187.258.314.355a.522.522 0 0 0 .396.037c1.66-.553.428-3.09.157-3.445z" fill="#FFF"/>
        <path d="M83.682 44.694a.49.49 0 0 0-.668.083.82.82 0 0 0-.136.606c0 .433.11.856.13 1.289a.444.444 0 0 0 0 .084c0 .067 0-.12.058-.09.057.032-.1 0-.12 0a1.242 1.242 0 0 1-.199 0c-.041 0-.073-.025 0 0a.7.7 0 0 1-.088-.088l-.282-.313c-.146-.167-.266-.313-.522-.292a.381.381 0 0 0-.35.475c.043.144.11.28.198.402.108.187.223.361.345.522.104.167.214.334.324.522.11.199.257.376.433.522.468.217 1.025.06 1.31-.371.248-.333.367-.745.334-1.159a4.254 4.254 0 0 0-.308-1.341 3.79 3.79 0 0 0-.417-.836.25.25 0 0 0-.324-.083.235.235 0 0 0-.084.323c.305.448.511.955.606 1.488.125.606.083 1.373-.606 1.608-.245.078-.36-.136-.48-.313-.12-.178-.156-.23-.235-.345-.193-.303-.391-.6-.569-.908a.746.746 0 0 0-.062-.11c-.026-.041.041-.088-.042.037 0 0-.073.036-.031 0 .041-.037-.032 0 0 0 .02.03.045.059.073.083.094.1.182.204.276.308a.73.73 0 0 0 .397.303c.221.051.453.033.663-.052.334-.183.167-.715.13-1.013a7.997 7.997 0 0 1-.062-.689 1.368 1.368 0 0 1 0-.146v-.089a.224.224 0 0 1 .026-.062H83.457c0 .03-.026 0-.078-.037.198.22.527-.12.303-.318z" fill="#000"/>
        <path d="M79.652 80.195a.757.757 0 0 0-.115.37l-.083.559c-.074.27-.036.557.104.799.123.128.28.217.454.255.467.14.955.195 1.44.162a.465.465 0 0 0 .304-.094.522.522 0 0 0 .125-.282c.12-.558.214-1.221-.183-1.633a5.048 5.048 0 0 0-2.046-.136z" fill="#FFF"/>
        <path d="M79.454 80.075c-.102.18-.16.383-.167.59-.032.208-.068.417-.09.626a.945.945 0 0 0 .418.976c.382.187.798.29 1.222.303.21.018.421.018.632 0 .206.003.4-.095.522-.261.085-.162.134-.34.146-.522a3.33 3.33 0 0 0 .068-.559c.029-.36-.071-.719-.282-1.012a.684.684 0 0 0-.465-.235 6.233 6.233 0 0 0-.7-.078c-.25 0-.521-.027-.756 0-.157 0-.407 0-.522.12-.21.224.125.553.329.334 0 0-.058.041-.032.026-.078.047-.047 0-.031 0H80.503c.183 0 .402 0 .6.042H81.322c.068 0 .13.03.194.047.062.015 0 0 0 0s.047.047.052.057a.82.82 0 0 1 .14.324c.056.268.056.545 0 .814l-.046.214c0 .047 0 .14-.053.172-.052.032-.281.042-.375.042a3.837 3.837 0 0 1-1.044-.136.861.861 0 0 1-.413-.193.522.522 0 0 1-.088-.402c0-.177.041-.35.062-.522a1.3 1.3 0 0 1 .13-.522.24.24 0 0 0-.083-.323.235.235 0 0 0-.344.078z" fill="#000"/>
        <path d="M81.05 46.855h.032a2.318 2.318 0 0 0 1.88-1.274c.746-1.237.98-6.666.798-7.47a2.902 2.902 0 0 0-1.185-1.89 3.414 3.414 0 0 0-2.542-.422c-1.138.11-2.36.25-3.132.778-.61.428-.73 1.044-.95 1.607-2.229 5.627.167 8.874 2.135 9 1 .092 2.01-.02 2.965-.33z" fill="#FFF"/>
        <path d="M83.692 38.289a2.85 2.85 0 0 0-1.284-1.848c-.814-.522-2.291-.71-3.132-.287-.344.19-.614.489-.767.85-.522.998-2.673 4.067-1.102 7.789.066.226.168.44.303.631.233.251.507.461.81.622.692.47 1.506.727 2.343.74a2.464 2.464 0 0 0 2.01-1.226c.798-1.19 1.018-6.488.82-7.271z" fill="#D2D8FF"/>
        <path d="M83.932 37.991a3.236 3.236 0 0 0-2.234-2.406c-.981-.298-2.333-.355-3.048.522a9.84 9.84 0 0 0-1.128 2.056 9.422 9.422 0 0 0-.872 3.075 7.934 7.934 0 0 0 .684 3.941c.313.536.788.959 1.358 1.206.549.33 1.163.54 1.8.61a2.73 2.73 0 0 0 2.61-1.372c.33-.652.532-1.36.595-2.088.165-1.09.268-2.188.308-3.289a8.973 8.973 0 0 0-.052-2.276c-.068-.292-.522-.167-.454.126.074.488.093.984.058 1.477 0 .762-.042 1.524-.126 2.286-.12 1.31-.156 3.054-1.148 4.046-.992.991-2.344.642-3.404 0a4.254 4.254 0 0 1-.751-.522 2.114 2.114 0 0 1-.522-.96 7.538 7.538 0 0 1-.454-1.917 9.13 9.13 0 0 1 1.336-5.22c.162-.287.297-.6.485-.866a1.88 1.88 0 0 1 1.775-.626 2.902 2.902 0 0 1 2.767 2.239.235.235 0 0 0 .417-.042z" fill="#231F20"/>
        <path d="M79.991 35.496c-1.315.136-3.132.22-3.868 1.514a11.354 11.354 0 0 0-.814 2.14 11.917 11.917 0 0 0-.475 2.339c-.183 1.952.277 4.473 2.15 5.517.364.201.77.316 1.186.334 1 .088 2.006-.03 2.96-.344.281-.105.156-.559-.126-.454a6.786 6.786 0 0 1-2.939.323 2.234 2.234 0 0 1-1.044-.402 4.286 4.286 0 0 1-1.602-2.714 9.448 9.448 0 0 1 .485-4.87c.277-.81.522-1.854 1.305-2.308a7.146 7.146 0 0 1 2.798-.626c.297-.026.303-.522 0-.47l-.016.021z" fill="#231F20"/>
        <path d="M78.342 36.838a7.673 7.673 0 0 0-1.143.094 7.83 7.83 0 0 0-1.044.26.235.235 0 0 0 .125.45c.329-.095.663-.194 1.002-.256a8.389 8.389 0 0 1 1.044-.079.235.235 0 1 0 0-.47h.016zM77.7 37.976a7.01 7.01 0 0 0-.877 0c-.287 0-.574.057-.862.083a.245.245 0 0 0-.234.235c0 .13.105.235.234.235.288-.026.575-.068.862-.084a7.01 7.01 0 0 1 .877 0 .235.235 0 1 0 0-.47zM77.256 39.218a14.329 14.329 0 0 0-1.707 0 .235.235 0 1 0 0 .47c.568-.04 1.138-.045 1.707-.016a.235.235 0 1 0 0-.47v.016zM76.896 40.794c-.57 0-1.133 0-1.702-.052a.235.235 0 0 0-.235.235.24.24 0 0 0 .235.235 30.87 30.87 0 0 0 1.702.052.235.235 0 0 0 0-.47zM76.896 42.49c-.559 0-1.112 0-1.67-.041a.235.235 0 0 0-.235.235.24.24 0 0 0 .234.235c.559 0 1.112.042 1.67.042a.235.235 0 0 0 0-.47zM77.146 43.9c-.6.07-1.208.045-1.8-.073a.245.245 0 0 0-.288.162.235.235 0 0 0 .167.292 6.415 6.415 0 0 0 2.031.089.235.235 0 0 0 .162-.287.24.24 0 0 0-.287-.167l.015-.016zM77.715 45.158c-.621.02-1.244.001-1.863-.057a.235.235 0 0 0-.235.235c.005.127.107.23.235.235.62.058 1.242.077 1.863.057a.235.235 0 1 0 0-.47zM79.13 46.119a13.05 13.05 0 0 1-2.553-.047.235.235 0 0 0-.234.235.24.24 0 0 0 .234.235c.848.099 1.703.114 2.553.047a.245.245 0 0 0 .235-.235.235.235 0 0 0-.235-.235z" fill="#231F20"/>
        <path d="M83.63 37.506a12.528 12.528 0 0 1-1.535-.554 12.565 12.565 0 0 0-1.68-.475c-.1 0-.142.13-.043.152.571.119 1.133.278 1.681.475.5.215 1.013.4 1.535.553.099 0 .14-.13.042-.151zM83.781 38.132a2.636 2.636 0 0 1-.783-.287 10.664 10.664 0 0 0-2.365-.85c-.094 0-.135.124-.041.15.56.13 1.107.305 1.639.523a7.83 7.83 0 0 0 1.487.615c.1 0 .141-.135.042-.15h.021zM83.776 38.79c-.444-.12-.856-.345-1.29-.522a10.534 10.534 0 0 0-1.383-.413c-.099 0-.14.13-.042.152.471.103.933.24 1.384.412.433.162.845.386 1.289.522a.079.079 0 1 0 .042-.151zM83.66 39.411c-.834-.151-1.607-.522-2.452-.6-.105 0-.105.146 0 .156.83.079 1.592.444 2.411.595.094 0 .141-.13.042-.151zM83.744 40.11a22.062 22.062 0 0 1-1.727-.443.079.079 0 1 0-.042.151c.569.172 1.148.319 1.728.444.099 0 .14-.13.041-.152zM83.692 40.716a7.355 7.355 0 0 1-1.425-.22.079.079 0 1 0-.042.152c.48.125.972.2 1.467.225.1 0 .1-.152 0-.157zM83.483 41.369a6.588 6.588 0 0 0-.955-.194.078.078 0 0 0-.052.063c0 .043.035.078.078.078.31.036.615.1.914.188a.079.079 0 1 0 .042-.151l-.027.016zM83.577 41.87l-.579-.073c-.042 0-.078.041-.078.078a.078.078 0 0 0 .078.078l.585.073c.041 0 .078-.042.078-.078a.078.078 0 0 0-.078-.078h-.006zM83.463 42.355a.924.924 0 0 1-.12 0h-.089l-.11-.031h-.047a.084.084 0 0 0-.11 0 .084.084 0 0 0 .027.11c.151.082.323.12.496.109a.073.073 0 0 0 .078-.078.078.078 0 0 0-.078-.079l-.047-.03z" fill="#241F20"/>
        <path d="M76.682 80.195a1.138 1.138 0 0 0-.12.37c-.225.141-1.41.387-1.827.904a.553.553 0 0 0 0 .71c.115.14 3.262.193 3.748.161a.475.475 0 0 0 .302-.094.522.522 0 0 0 .126-.282c.12-.558.214-1.221-.183-1.633a1.519 1.519 0 0 0-.663-.355c-.47-.017-.94.057-1.383.219z" fill="#FFF"/>
        <path d="M76.478 80.075a1.122 1.122 0 0 0-.14.428l.109-.141c-.13.062-.264.113-.402.151-.22.073-.444.157-.663.25-.423.184-.966.481-1.007 1.003a.7.7 0 0 0 .255.626c.08.04.167.064.256.068.32.043.643.067.966.073.772.037 1.54.058 2.312.053.376 0 .799 0 .94-.434a2.401 2.401 0 0 0 0-1.696 1.415 1.415 0 0 0-1.368-.715 7.136 7.136 0 0 0-.736.104.934.934 0 0 0-.48.183c-.209.214.12.548.334.334-.052.052 0 0-.031 0h.083l.22-.052a5.34 5.34 0 0 1 .568-.084.94.94 0 0 1 1.003.475c.086.228.111.475.073.715 0 .178 0 .637-.214.695a2.401 2.401 0 0 1-.642 0c-.7 0-1.4 0-2.088-.053-.272 0-.522-.026-.815-.057h-.167l.068.037s-.047-.105-.052-.12a.381.381 0 0 1 .146-.345 3.07 3.07 0 0 1 1.18-.574c.165-.048.325-.109.48-.183.188-.104.13-.308.235-.47.146-.287-.261-.527-.423-.271zM74.954 63.684c0 1.984.042 3.967.104 5.95.026.82.047 1.64.094 2.46 0 .365 0 1.007.434 1.117.51.04 1.024.005 1.524-.105l2.485-.26c.522-.053 1.075-.147 1.607-.147.397 0 .726 0 .856-.449.061-.269.086-.544.073-.82 0-2.479-.36-4.959-.48-7.438a.24.24 0 0 0-.172-.224 33.314 33.314 0 0 0-6.29-.319.235.235 0 1 0 0 .47c.804 0 1.613 0 2.422.026a24.216 24.216 0 0 1 3.743.277l-.173-.23c.105 2.135.34 4.26.45 6.39 0 .375.03.75.03 1.127v.402c-.025.26-.12.292-.396.323-.423.047-.85.058-1.274.105-1.352.135-2.704.329-4.06.402-.053 0-.178.031-.225 0-.047-.032-.026-.141-.026-.126 0-.182-.032-.375-.042-.558-.037-.736-.063-1.472-.084-2.208-.062-2.052-.12-4.114-.11-6.17a.245.245 0 0 0-.49.005zM76.405 47.758l.084 1.65c.219 1.247 1.362 2.155 1.665 3.387.303 1.232-.287 4.698.292 5.398.439.522 2.516.553 2.809.323.83-.647-.162-4.103.308-5.94.284-1.251.362-2.54.23-3.816a2.61 2.61 0 0 0-.251-.893 1.696 1.696 0 0 0-.564-.574c-2.286-1.461-4.573.465-4.573.465z" fill="#000"/>
        <path d="M74.171 44.078c.094-.146.376-.36.522-.334.146.026.277 2.359 1.08 2.119.084 0 .314-.84.392-.81.37.152.141 1.238.125 1.363a.397.397 0 0 1-.182.313 3.34 3.34 0 0 1-1.044.319.7.7 0 0 1-.491-.36 4.474 4.474 0 0 1-.402-2.61z" fill="#FFF"/>
        <path d="M74.375 44.193a.652.652 0 0 1 .24-.188c.062-.032.104 0 0-.058 0 0-.136-.099-.079-.047-.036-.036 0-.047 0 0v.058c0 .052 0 .104.037.151.063.292.115.585.193.872.073.311.206.606.392.866.165.241.477.333.746.22.141-.084.193-.298.25-.439.058-.14.068-.183.11-.277a.345.345 0 0 1 .037-.078c.036-.094 0 0-.073 0h-.126c-.041 0 0 0 0 .037.02.078.033.159.037.24a3.07 3.07 0 0 1-.031.522 1.79 1.79 0 0 1-.063.355c-.052.12-.24.162-.35.203a1.921 1.921 0 0 1-.584.167c-.21 0-.345-.245-.428-.412a3.795 3.795 0 0 1-.319-1.242 4.735 4.735 0 0 1-.042-.669 1.77 1.77 0 0 1 0-.234v-.053a.073.073 0 0 1 0-.031c0-.037-.026.052 0 0 .157-.256-.25-.522-.407-.235a.976.976 0 0 0-.089.423c-.01.202-.01.404 0 .605.033.509.144 1.009.33 1.483.092.267.259.502.48.679.213.14.478.174.72.093a5.22 5.22 0 0 0 .694-.25.679.679 0 0 0 .428-.522c0-.084 0 .073 0 0a.402.402 0 0 1 0-.078c0-.105.032-.21.042-.314a2.365 2.365 0 0 0 0-.636.694.694 0 0 0-.266-.522c-.204-.126-.37 0-.454.193-.084.193-.147.37-.214.522a.522.522 0 0 0-.047.094c0 .031-.037 0 0 0h.03c.043 0 .048-.032 0 0-.046.031.058.036 0 0h-.036c.058 0-.057 0 0 0h-.041s.031.031 0 0a.418.418 0 0 1-.068-.068 1.42 1.42 0 0 1-.105-.167 2.694 2.694 0 0 1-.172-.475c-.104-.355-.151-.715-.245-1.07-.037-.13-.089-.272-.235-.314-.303-.083-.647.22-.81.444-.161.225.34.397.518.152z" fill="#000"/>
        <path d="M41.369 11.661c-.225-2.39-1.734-4.358-3.169-6.185-.063-.079-.172.031-.115.11 1.41 1.79 2.902 3.732 3.132 6.075 0 .105.167.105.157 0h-.005zM39.578 14.235a1.43 1.43 0 0 0-.522-1.096 6.755 6.755 0 0 0-3.325-1.973.079.079 0 0 0-.042.151 6.755 6.755 0 0 1 3.132 1.775c.298.303.7.684.642 1.143 0 .1.146.1.157 0h-.042zM52.169 10.153a14.094 14.094 0 0 1 11.41-4.484c.1 0 .1-.151 0-.157a14.214 14.214 0 0 0-11.52 4.531c-.068.073.042.188.11.11zM52.592 12.476a7.987 7.987 0 0 1 5.81.34c.093.04.172-.095.078-.137a8.117 8.117 0 0 0-5.93-.355c-.094.032-.052.183.042.152z" fill="#231F20"/>
    </g>
</svg>
