<svg width="40" height="40" viewBox="0 0 40 40" fill="none" xmlns="http://www.w3.org/2000/svg">
    <circle cx="20" cy="20" r="20" fill="#D2D8FF"/>
    <path fill-rule="evenodd" clip-rule="evenodd"
          d="M15.2275 23.4028C11.5651 26.7284 7.66377 26.5341 5.41893 28.7714C4.85488 29.3322 4.3864 30.4783 4 31.8897C7.59884 36.805 13.4244 40 20.0002 40C26.5758 40 32.4012 36.8052 36 31.8901C35.6138 30.4787 35.1456 29.3322 34.5817 28.7714C32.3369 26.5341 28.4356 26.7284 24.772 23.4028C24.7944 23.3756 23.9267 22.5593 23.8944 22.5917V20.4923C24.8763 19.1272 25.5301 17.2749 25.9152 15.431C25.9545 15.5146 26.0058 15.5725 26.0674 15.5829C26.2966 15.6219 26.5841 15.0971 26.7056 14.4087C26.8235 13.7425 26.7416 13.1783 26.5277 13.1052C26.8545 11.4879 26.685 8.90623 26.0161 6.91744C25.34 4.90329 22.4142 4.06483 20.1419 4.00348V4H20.1231H20.0152H19.9999H19.9846H19.8769H19.8572V4.00348C17.5854 4.06483 14.6595 4.90329 13.9844 6.91744C13.3147 8.90623 13.146 11.4879 13.4722 13.1052C13.2572 13.1783 13.176 13.7425 13.2942 14.4087C13.4166 15.0971 13.7021 15.6219 13.9323 15.5829C13.9949 15.5725 14.0444 15.5146 14.0846 15.431C14.4697 17.2749 15.124 19.1272 16.1054 20.4923V22.5917C16.0729 22.5593 15.2044 23.3756 15.2275 23.4028Z"
          fill="#7786FF"/>
</svg>
