<svg width="42" height="48" viewBox="0 0 42 48" fill="none" xmlns="http://www.w3.org/2000/svg">
<path d="M3.18672e-07 14.0643V33.2973C-0.000294616 34.0784 0.20414 34.8458 0.592773 35.5222C0.981405 36.1986 1.54053 36.7602 2.2138 37.1505L18.7862 46.767C19.4596 47.1566 20.223 47.3616 21 47.3616C21.777 47.3616 22.5404 47.1566 23.2138 46.767L39.7863 37.1505C40.4591 36.7597 41.0178 36.198 41.4064 35.5217C41.7949 34.8454 41.9996 34.0783 42 33.2973V14.0643C41.9996 13.2833 41.7949 12.5162 41.4064 11.8399C41.0178 11.1636 40.4591 10.6019 39.7863 10.2111L23.2138 0.594585C22.5404 0.205021 21.777 0 21 0C20.223 0 19.4596 0.205021 18.7862 0.594585L2.2138 10.2111C1.54053 10.6014 0.981405 11.163 0.592773 11.8394C0.20414 12.5158 -0.000294616 13.2832 3.18672e-07 14.0643Z" fill="#D2D8FF"/>
<path d="M20.7209 34.5345C26.7152 34.5345 31.5746 29.6751 31.5746 23.6808C31.5746 17.6865 26.7152 12.8271 20.7209 12.8271C14.7266 12.8271 9.86719 17.6865 9.86719 23.6808C9.86719 29.6751 14.7266 34.5345 20.7209 34.5345Z" fill="white" stroke="#979BBA" stroke-width="1.5" stroke-linecap="round" stroke-linejoin="round"/>
<path d="M20.1178 12.827C18.4219 14.0832 17.0439 15.7194 16.0944 17.6042C15.145 19.4891 14.6504 21.5702 14.6504 23.6807C14.6504 25.7912 15.145 27.8724 16.0944 29.7572C17.0439 31.6421 18.4219 33.2782 20.1178 34.5344" stroke="#979BBA" stroke-width="1.5" stroke-linecap="round" stroke-linejoin="round"/>
<path d="M21.3237 12.827C23.0197 14.0832 24.3976 15.7194 25.3471 17.6042C26.2966 19.4891 26.7912 21.5702 26.7912 23.6807C26.7912 25.7912 26.2966 27.8724 25.3471 29.7572C24.3976 31.6421 23.0197 33.2782 21.3237 34.5344" stroke="#979BBA" stroke-width="1.5" stroke-linecap="round" stroke-linejoin="round"/>
<path d="M20.7207 12.827V34.5344" stroke="#979BBA" stroke-width="1.5" stroke-linecap="round" stroke-linejoin="round"/>
</svg>
