<svg width="42" height="48" viewBox="0 0 42 48" fill="none" xmlns="http://www.w3.org/2000/svg">
<path d="M3.18672e-07 14.0643V33.2973C-0.000294616 34.0784 0.20414 34.8458 0.592773 35.5222C0.981405 36.1986 1.54053 36.7602 2.2138 37.1505L18.7862 46.767C19.4596 47.1566 20.223 47.3616 21 47.3616C21.777 47.3616 22.5404 47.1566 23.2138 46.767L39.7863 37.1505C40.4591 36.7597 41.0178 36.198 41.4064 35.5217C41.7949 34.8454 41.9996 34.0783 42 33.2973V14.0643C41.9996 13.2833 41.7949 12.5162 41.4064 11.8399C41.0178 11.1636 40.4591 10.6019 39.7863 10.2111L23.2138 0.594585C22.5404 0.205021 21.777 0 21 0C20.223 0 19.4596 0.205021 18.7862 0.594585L2.2138 10.2111C1.54053 10.6014 0.981405 11.163 0.592773 11.8394C0.20414 12.5158 -0.000294616 13.2832 3.18672e-07 14.0643Z" fill="#EBD2FF"/>
<path d="M23.7632 12.7036V17.8016C23.7632 18.1396 23.8975 18.4637 24.1365 18.7028C24.3755 18.9418 24.6997 19.076 25.0377 19.076H30.1356" stroke="#979BBA" stroke-width="1.5" stroke-linecap="round" stroke-linejoin="round"/>
<path d="M27.5868 35.6444H14.8419C14.1659 35.6444 13.5176 35.3758 13.0395 34.8978C12.5615 34.4198 12.293 33.7714 12.293 33.0954V15.2526C12.293 14.5766 12.5615 13.9282 13.0395 13.4502C13.5176 12.9722 14.1659 12.7036 14.8419 12.7036H23.7634L30.1358 19.076V33.0954C30.1358 33.7714 29.8672 34.4198 29.3892 34.8978C28.9112 35.3758 28.2628 35.6444 27.5868 35.6444Z" fill="white" stroke="#979BBA" stroke-width="1.5" stroke-linecap="round" stroke-linejoin="round"/>
<path d="M17.3906 17.8016H18.6651" stroke="#979BBA" stroke-width="1.5" stroke-linecap="round" stroke-linejoin="round"/>
<path d="M17.3906 25.4486H25.0375" stroke="#979BBA" stroke-width="1.5" stroke-linecap="round" stroke-linejoin="round"/>
<path d="M22.4883 30.5464H25.0373" stroke="#979BBA" stroke-width="1.5" stroke-linecap="round" stroke-linejoin="round"/>
</svg>
