<svg width="42" height="48" viewBox="0 0 42 48" fill="none" xmlns="http://www.w3.org/2000/svg">
<path d="M3.18672e-07 14.0643V33.2973C-0.000294616 34.0784 0.20414 34.8458 0.592773 35.5222C0.981405 36.1986 1.54053 36.7602 2.2138 37.1505L18.7862 46.767C19.4596 47.1566 20.223 47.3616 21 47.3616C21.777 47.3616 22.5404 47.1566 23.2138 46.767L39.7863 37.1505C40.4591 36.7597 41.0178 36.198 41.4064 35.5217C41.7949 34.8454 41.9996 34.0783 42 33.2973V14.0643C41.9996 13.2833 41.7949 12.5162 41.4064 11.8399C41.0178 11.1636 40.4591 10.6019 39.7863 10.2111L23.2138 0.594585C22.5404 0.205021 21.777 0 21 0C20.223 0 19.4596 0.205021 18.7862 0.594585L2.2138 10.2111C1.54053 10.6014 0.981405 11.163 0.592773 11.8394C0.20414 12.5158 -0.000294616 13.2832 3.18672e-07 14.0643Z" fill="#FFD2D2"/>
<rect x="13.1973" y="16.4041" width="14.8005" height="17.7606" rx="2" fill="white"/>
<path d="M17.2673 16.0339H15.0472C14.4584 16.0339 13.8937 16.2678 13.4774 16.6842C13.061 17.1005 12.8271 17.6652 12.8271 18.254V31.5745C12.8271 32.1633 13.061 32.7279 13.4774 33.1443C13.8937 33.5606 14.4584 33.7945 15.0472 33.7945H26.1476C26.7364 33.7945 27.3011 33.5606 27.7174 33.1443C28.1338 32.7279 28.3677 32.1633 28.3677 31.5745V18.254C28.3677 17.6652 28.1338 17.1005 27.7174 16.6842C27.3011 16.2678 26.7364 16.0339 26.1476 16.0339H23.9275" stroke="#979BBA" stroke-width="1.5" stroke-linecap="round" stroke-linejoin="round"/>
<path d="M21.7072 13.814H19.4872C18.2611 13.814 17.2671 14.8079 17.2671 16.034C17.2671 17.2602 18.2611 18.2541 19.4872 18.2541H21.7072C22.9334 18.2541 23.9273 17.2602 23.9273 16.034C23.9273 14.8079 22.9334 13.814 21.7072 13.814Z" fill="#D2D8FF" stroke="#979BBA" stroke-width="1.5" stroke-linecap="round" stroke-linejoin="round"/>
<path d="M22.8176 22.6942H20.0425C19.6009 22.6942 19.1774 22.8696 18.8651 23.1819C18.5529 23.4942 18.3774 23.9177 18.3774 24.3593C18.3774 24.8009 18.5529 25.2244 18.8651 25.5366C19.1774 25.8489 19.6009 26.0243 20.0425 26.0243H21.1525C21.5941 26.0243 22.0176 26.1998 22.3299 26.512C22.6422 26.8243 22.8176 27.2478 22.8176 27.6894C22.8176 28.131 22.6422 28.5545 22.3299 28.8668C22.0176 29.179 21.5941 29.3544 21.1525 29.3544H18.3774" stroke="#979BBA" stroke-width="1.5" stroke-linecap="round" stroke-linejoin="round"/>
<path d="M20.5972 21.5842V22.6943M20.5972 29.3545V30.4645V29.3545Z" stroke="#979BBA" stroke-width="1.5" stroke-linecap="round" stroke-linejoin="round"/>
</svg>
