<svg width="205" height="203" fill="none" xmlns="http://www.w3.org/2000/svg"><g clip-path="url(#a)"><path d="M180.376 174.467c-5.329 5.476-10.095 8.697-13.746 11.128-35.593 23.703-76.275 16.87-88.86 14.534-20.297-3.767-37.429-6.426-52.15-19.688C-7.828 150.303-6.2 87.434 19.358 48.496 22.396 43.878 47.908 6.15 88.684.835c1.013-.132 1.742-.206 2.393-.273 6.308-.673 45.397-4.18 77.287 22.45a94.787 94.787 0 0 1 18.711 21.17c24.884 38.347 24.975 97.736-6.699 130.285Z" fill="#F2F3FF"/><path d="m178.098 91.427-6.585 14.967 1.808.791 6.585-14.967-1.808-.791Z" fill="#CFD1E8"/><path d="m163.724 77.585.408 2.397a1.916 1.916 0 0 0 1.576 1.561l1.911.313a1.603 1.603 0 0 1 1.181.892 16.88 16.88 0 0 0 2.079 3.289 1.601 1.601 0 0 1 .294 1.45l-.544 1.855a1.904 1.904 0 0 0 .733 2.094l1.987 1.403a1.922 1.922 0 0 0 2.225 0l1.572-1.124a1.609 1.609 0 0 1 1.468-.205 17.19 17.19 0 0 0 3.804.865 1.597 1.597 0 0 1 1.232.814l.931 1.684a1.906 1.906 0 0 0 1.998.965l2.407-.407a1.915 1.915 0 0 0 1.566-1.575l.314-1.902a1.59 1.59 0 0 1 .891-1.178 17.072 17.072 0 0 0 3.3-2.073 1.603 1.603 0 0 1 1.452-.293l1.859.542a1.915 1.915 0 0 0 2.099-.73l1.411-1.983a1.91 1.91 0 0 0 0-2.218l-1.13-1.569a1.599 1.599 0 0 1-.203-1.464c.433-1.228.724-2.5.867-3.793a1.594 1.594 0 0 1 .817-1.229l1.688-.929a1.91 1.91 0 0 0 .968-1.993l-.411-2.4a1.91 1.91 0 0 0-1.577-1.561l-1.91-.313a1.613 1.613 0 0 1-1.181-.889 16.896 16.896 0 0 0-2.076-3.292 1.607 1.607 0 0 1-.297-1.447l.544-1.855a1.902 1.902 0 0 0-.729-2.093l-1.992-1.408a1.913 1.913 0 0 0-2.22 0l-1.576 1.128a1.618 1.618 0 0 1-1.469.202 17.11 17.11 0 0 0-3.8-.865 1.601 1.601 0 0 1-1.232-.814l-.931-1.683a1.921 1.921 0 0 0-2.001-.966l-2.403.41a1.913 1.913 0 0 0-1.566 1.572l-.314 1.905a1.61 1.61 0 0 1-.895 1.178 16.928 16.928 0 0 0-3.297 2.07 1.615 1.615 0 0 1-1.455.296l-1.859-.541a1.922 1.922 0 0 0-2.1.727l-1.407 1.986a1.905 1.905 0 0 0 0 2.214l1.127 1.572a1.598 1.598 0 0 1 .206 1.464 16.997 16.997 0 0 0-.867 3.79 1.594 1.594 0 0 1-.817 1.229l-1.687.929a1.905 1.905 0 0 0-.969 1.996Zm6.412-1.31a14.11 14.11 0 0 1 1.855-7.992 14.16 14.16 0 0 1 5.994-5.62 14.206 14.206 0 0 1 15.614 2.015 14.123 14.123 0 0 1 4.362 6.955 14.097 14.097 0 0 1-.245 8.2 14.138 14.138 0 0 1-4.771 6.684 14.194 14.194 0 0 1-7.689 2.916 14.208 14.208 0 0 1-10.287-3.456 14.11 14.11 0 0 1-4.819-9.701h-.014Z" fill="#CFD1E8"/><path d="m172.924 32.334-1.927.427 5.803 26.085 1.927-.427-5.803-26.084ZM157.916 22.259l-19.112 2.117.217 1.95 19.112-2.118-.217-1.95Z" fill="#CFD1E8"/><path d="m157.217 21.06.304 1.771a1.403 1.403 0 0 0 1.164 1.155l1.411.232a1.184 1.184 0 0 1 .874.673c.417.866.932 1.682 1.535 2.43a1.182 1.182 0 0 1 .22 1.07l-.402 1.37a1.406 1.406 0 0 0 .54 1.549l1.468 1.04a1.417 1.417 0 0 0 1.644 0l1.164-.831a1.175 1.175 0 0 1 1.084-.148c.91.318 1.853.53 2.811.636a1.186 1.186 0 0 1 .911.602l.675 1.252a1.413 1.413 0 0 0 1.479.714l1.775-.303a1.409 1.409 0 0 0 1.157-1.161l.233-1.407a1.186 1.186 0 0 1 .675-.872c.868-.416 1.686-.93 2.437-1.532a1.176 1.176 0 0 1 1.073-.215l1.374.4a1.42 1.42 0 0 0 1.552-.538l1.043-1.467a1.41 1.41 0 0 0 0-1.64l-.833-1.16a1.169 1.169 0 0 1-.152-1.081c.321-.907.536-1.848.641-2.804a1.192 1.192 0 0 1 .604-.909l1.256-.673a1.415 1.415 0 0 0 .715-1.478l-.304-1.77a1.416 1.416 0 0 0-1.164-1.155l-1.411-.232a1.178 1.178 0 0 1-.874-.656 12.68 12.68 0 0 0-1.536-2.434 1.18 1.18 0 0 1-.219-1.07l.402-1.37a1.406 1.406 0 0 0-.54-1.549l-1.468-1.036a1.417 1.417 0 0 0-1.644 0l-1.164.831a1.186 1.186 0 0 1-1.084.151 12.72 12.72 0 0 0-2.811-.639 1.17 1.17 0 0 1-.911-.603l-.675-1.252a1.416 1.416 0 0 0-1.482-.713l-1.775.303a1.422 1.422 0 0 0-1.158 1.16l-.233 1.411a1.179 1.179 0 0 1-.675.869c-.869.415-1.688.93-2.44 1.531a1.186 1.186 0 0 1-1.073.219l-1.374-.4a1.415 1.415 0 0 0-1.552.538l-1.043 1.467a1.404 1.404 0 0 0 0 1.636l.834 1.162a1.186 1.186 0 0 1 .151 1.083c-.32.906-.535 1.846-.641 2.8a1.18 1.18 0 0 1-.604.91l-1.255.673a1.412 1.412 0 0 0-.709 1.46Zm4.748-.965a10.446 10.446 0 0 1 1.367-5.92 10.478 10.478 0 0 1 4.434-4.163 10.513 10.513 0 0 1 11.56 1.486 10.458 10.458 0 0 1 3.229 5.15c.543 1.997.479 4.11-.183 6.07a10.468 10.468 0 0 1-3.534 4.947 10.51 10.51 0 0 1-9.754 1.633 10.5 10.5 0 0 1-3.55-2.032 10.454 10.454 0 0 1-3.569-7.171ZM54.453 28.485l-.572 1.89 23.966 7.22.573-1.89-23.967-7.22Z" fill="#CFD1E8"/><path d="m8.539 16.24-.837 2.858A2.33 2.33 0 0 0 8.6 21.66l1.934 1.363a1.958 1.958 0 0 1 .82 1.609 21.01 21.01 0 0 0 .52 4.712 1.954 1.954 0 0 1-.453 1.754l-1.593 1.75a2.33 2.33 0 0 0-.317 2.693l1.434 2.609a2.34 2.34 0 0 0 2.45 1.181l2.336-.4a1.97 1.97 0 0 1 1.725.558 20.915 20.915 0 0 0 3.712 2.983 1.952 1.952 0 0 1 .918 1.554l.115 2.357a2.352 2.352 0 0 0 1.687 2.13l2.866.832a2.368 2.368 0 0 0 2.568-.892l1.35-1.929a1.963 1.963 0 0 1 1.617-.821c1.59.008 3.175-.166 4.725-.519a1.964 1.964 0 0 1 1.755.452l1.755 1.588a2.345 2.345 0 0 0 2.7.337l2.615-1.434a2.335 2.335 0 0 0 1.185-2.44l-.402-2.333a1.957 1.957 0 0 1 .564-1.72 21.026 21.026 0 0 0 2.987-3.703 1.952 1.952 0 0 1 1.559-.915l2.362-.114a2.366 2.366 0 0 0 2.137-1.684l.833-2.857a2.35 2.35 0 0 0-.894-2.562l-1.934-1.346a1.96 1.96 0 0 1-.823-1.609 20.624 20.624 0 0 0-.52-4.712 1.955 1.955 0 0 1 .452-1.754l1.593-1.75a2.333 2.333 0 0 0 .338-2.693l-1.435-2.609a2.36 2.36 0 0 0-2.45-1.181l-2.339.4a1.96 1.96 0 0 1-1.721-.558 21.046 21.046 0 0 0-3.713-2.982 1.947 1.947 0 0 1-.92-1.556l-.116-2.356a2.332 2.332 0 0 0-1.687-2.13L38.029.13a2.369 2.369 0 0 0-2.568.892l-1.35 1.929a1.952 1.952 0 0 1-1.613.821 20.786 20.786 0 0 0-4.725.519 1.97 1.97 0 0 1-1.758-.451l-1.756-1.59a2.345 2.345 0 0 0-2.7-.336L18.944 3.35a2.332 2.332 0 0 0-1.181 2.44l.398 2.333a1.953 1.953 0 0 1-.56 1.72 20.72 20.72 0 0 0-2.987 3.703 1.964 1.964 0 0 1-1.563.915l-2.362.114a2.343 2.343 0 0 0-2.15 1.667Zm7.762 1.993a17.324 17.324 0 0 1 6.333-7.819 17.393 17.393 0 0 1 19.288-.151 17.325 17.325 0 0 1 6.456 7.719 17.271 17.271 0 0 1 1.068 9.995 17.3 17.3 0 0 1-4.68 8.902 17.375 17.375 0 0 1-8.849 4.81c-3.362.695-6.855.38-10.038-.904a17.365 17.365 0 0 1-5.664-3.708 17.313 17.313 0 0 1-3.81-5.589 17.273 17.273 0 0 1-.104-13.255Z" fill="#CFD1E8"/><path d="M32.08 30.89a1.182 1.182 0 0 1 .529-1.291 1.19 1.19 0 0 1 1.394.105c8.907 7.544 30.55 30.388 27.55 72.348-3.763 52.647 8.124 71.193 22.312 82.159 0 0-18.957-4.544-31.684-23.329C20.93 114.755 37.145 50.664 32.079 30.889Z" fill="#CFD1E8"/><path d="M39.376 46.908C40.726 52.68 41.974 58.477 43 64.31c1.026 5.833 1.941 11.68 2.636 17.556.695 5.877 1.239 11.781 1.55 17.668.31 5.887.421 11.811.485 17.746.065 5.934.159 11.905.837 17.89.679 5.984 2.066 11.965 4.52 17.523.61 1.386 1.252 2.763 1.967 4.093a105.626 105.626 0 0 0 2.214 3.951 62.475 62.475 0 0 0 18.563 19.64 1.152 1.152 0 0 0 1.281.046 1.155 1.155 0 0 0 .375-1.585 1.17 1.17 0 0 0-.306-.329c-1.185-.865-2.363-1.74-3.484-2.669-.573-.454-1.123-.932-1.687-1.4-.564-.468-1.1-.959-1.627-1.464a60.091 60.091 0 0 1-5.946-6.396 66.184 66.184 0 0 1-9.025-14.897 57.825 57.825 0 0 1-2.825-8.223 64.958 64.958 0 0 1-1.593-8.583c-.702-5.81-.813-11.724-.955-17.651-.142-5.928-.338-11.889-.77-17.84a249.24 249.24 0 0 0-.786-8.896c-.148-1.481-.337-2.962-.503-4.44-.165-1.477-.385-2.952-.594-4.422-.85-5.89-1.882-11.75-3.095-17.578-1.242-5.816-2.636-11.598-4.256-17.314a.305.305 0 0 0-.378-.215.311.311 0 0 0-.222.387Z" fill="#fff" style="mix-blend-mode:soft-light"/><path d="M50.905 184.279a2.98 2.98 0 0 1-3.303 2.255 2.978 2.978 0 0 1-1.344-.535c-9.515-6.789-34.678-28.419-37.152-68.632C7.016 83.411 2.649 65.195.09 57.063a1.863 1.863 0 0 1 .7-2.073 1.877 1.877 0 0 1 2.192.01c16.1 11.727 65.553 54.683 47.922 129.279Z" fill="#BED2FA"/><path d="M48.056 184.625a.834.834 0 0 1-1.049.02.832.832 0 0 1-.21-.245c-.252-.451-25.312-45.686-30.374-92.769a.824.824 0 0 1 .734-.91.83.83 0 0 1 .913.732c5.008 46.742 29.909 91.691 30.159 92.142a.817.817 0 0 1-.172 1.03Z" fill="#fff" style="mix-blend-mode:soft-light"/><path d="m47.324 159.044 69.812-125.55 40.577 110.535-110.389 15.015Zm69.167-117.296L53.689 154.702l99.299-13.507-36.497-99.447Z" fill="#B5A6CD"/><path d="M159.006 177.813c20.354 0 36.855-16.457 36.855-36.756 0-20.3-16.501-36.757-36.855-36.757-20.355 0-36.855 16.457-36.855 36.757 0 20.299 16.5 36.756 36.855 36.756Z" fill="#fff"/><path d="m110.956 135.61-.337 5.521a4.326 4.326 0 0 0 .647 2.565 4.35 4.35 0 0 0 2.022 1.713l4.05 1.683a3.64 3.64 0 0 1 2.147 2.585 38.62 38.62 0 0 0 2.875 8.364 3.632 3.632 0 0 1-.104 3.366l-2.174 3.824a4.336 4.336 0 0 0 .52 5.015l3.668 4.147a4.354 4.354 0 0 0 4.921 1.144l4.077-1.683a3.649 3.649 0 0 1 3.355.317 39.089 39.089 0 0 0 7.961 3.891 3.644 3.644 0 0 1 2.306 2.45l1.171 4.231c.24.871.748 1.645 1.451 2.215a4.362 4.362 0 0 0 2.47.963l5.535.336a4.364 4.364 0 0 0 2.574-.646 4.337 4.337 0 0 0 1.719-2.016l1.688-4.039a3.646 3.646 0 0 1 2.595-2.141 38.952 38.952 0 0 0 8.387-2.868 3.645 3.645 0 0 1 3.375.104l3.834 2.168a4.353 4.353 0 0 0 5.025-.518l4.162-3.659a4.342 4.342 0 0 0 1.144-4.911l-1.688-4.063a3.64 3.64 0 0 1 .318-3.345 38.754 38.754 0 0 0 3.905-7.941 3.648 3.648 0 0 1 2.453-2.299l4.243-1.168a4.345 4.345 0 0 0 3.189-3.911l.337-5.52a4.35 4.35 0 0 0-2.673-4.281l-4.05-1.683a3.643 3.643 0 0 1-2.146-2.585 38.684 38.684 0 0 0-2.876-8.365 3.632 3.632 0 0 1 .105-3.366l2.177-3.823a4.345 4.345 0 0 0-.523-5.016l-3.665-4.14a4.359 4.359 0 0 0-4.921-1.144l-4.077 1.683a3.672 3.672 0 0 1-3.355-.317 38.716 38.716 0 0 0-7.961-3.894 3.635 3.635 0 0 1-2.302-2.447l-1.171-4.234a4.356 4.356 0 0 0-3.925-3.178l-5.535-.337a4.346 4.346 0 0 0-4.29 2.662l-1.688 4.04a3.655 3.655 0 0 1-2.592 2.141 38.976 38.976 0 0 0-8.39 2.868 3.657 3.657 0 0 1-3.375-.105l-3.83-2.171a4.364 4.364 0 0 0-5.029.522l-4.161 3.655a4.334 4.334 0 0 0-1.145 4.911l1.688 4.063a3.624 3.624 0 0 1-.317 3.366 38.62 38.62 0 0 0-3.905 7.94 3.631 3.631 0 0 1-2.454 2.296l-4.242 1.168a4.36 4.36 0 0 0-2.221 1.44 4.334 4.334 0 0 0-.972 2.457Zm14.907.455a32.155 32.155 0 0 1 8.288-16.756 32.287 32.287 0 0 1 16.225-9.339 32.346 32.346 0 0 1 18.694 1.224 32.258 32.258 0 0 1 14.861 11.375 32.122 32.122 0 0 1 6.02 17.693 32.122 32.122 0 0 1-4.85 18.046 32.243 32.243 0 0 1-14.086 12.318 32.344 32.344 0 0 1-30.357-1.987 32.22 32.22 0 0 1-9.189-8.585 32.125 32.125 0 0 1-5.606-23.989Z" fill="#F5BD22"/><path d="M119.879 124.308a.526.526 0 0 1 .979-.021c.675 1.626 2.187 4.423 4.701 5.167.129.037.247.078.365.118a1.211 1.211 0 0 0-.287-1.074c-.884-1.036.26-2.746.26-2.746.192.84.692 1.579 1.4 2.073.986.623 1.62 2.208 1.182 3.629-.675 5.156-1.759 12.002 6.368 15.887 8.127 3.884 16.966-11.377 16.966-11.377l-3.162 17.277s-7.361 6.988-17.857-.225c-10.496-7.213-5.781-20.216-5.781-20.216s-7.564-1.993-5.134-8.492Z" fill="#FC9290"/><path d="M150.051 111.379s-3.408-9.475 8.1-8.297c0 0 5.323-1.569 6.244 3.514 0 0 3.79 1.861 1.785 6.611 0 0 9.906-5.315 15.586 3.214 5.68 8.53 2.147 14.063-2.059 15.914 0 0 3.763 1.347 2.592 5.544-1.171 4.197-9.304 8.102-14.931 3.861 0 0-14.033 3.669-15.015-6.419 0 0-7.172-3.44-1.249-12.622 5.923-9.183-1.053-11.32-1.053-11.32Z" fill="#2C3A64"/><path d="M152.283 134.049c2.166-.956 8.559-3.03 15.525 1.935a3.873 3.873 0 0 1 1.596 3.703c-.898 6.351-3.038 25.059 1.836 32.427 0 0-5.876 8.358-14.081 3.245 0 0-5.17-14.097-10.347-19.92-3.574-4.022 2.733-17.126 4.347-20.3a2.338 2.338 0 0 1 1.124-1.09Z" fill="#93B3F4"/><path d="M156.957 121.073s4.509 8.967 5.281 13.077a7.184 7.184 0 0 1-7.286-.253s-1.546-9.327-2.282-10.939l4.287-1.885Z" fill="#FC9290"/><path d="M150.723 108.844s-7.172 13.239-1.525 16.113c5.646 2.875 10.753-6.533 10.753-6.533s1.181-6.9-1.215-8.89c-2.397-1.989-8.013-.69-8.013-.69Z" fill="#FC9290"/><path d="M154.385 105.438s-3.881 1.448-4.212 3.319c-.331 1.871 6.105 2.767 7.864 2.629l2.322 7.105s3.294-7.371 1.151-11.107c-2.144-3.737-7.125-1.946-7.125-1.946Z" fill="#2C3A64"/><path d="M158.151 117.744s2.893-4.339 4.563-1.956c1.671 2.384-2.487 4.847-4.164 3.787l-.399-1.831ZM168.85 137.098s11.742 7.476 15.896 19.186c4.155 11.71-13.837 15.265-13.837 15.265s-2.811-2.437-5.616-1.091c-2.805 1.346-.83-4.766 2.595-5.18 3.426-.414 2.184 2.487 6.75-.31 4.452-2.726 6.538-9.687-6.75-18.176a5.475 5.475 0 0 1-1.863-1.962c-3.122-5.581-1.751-9.667 2.825-7.732Z" fill="#FC9290"/><path d="M60.915 193.155c21.795 0 39.464-17.622 39.464-39.358 0-21.737-17.669-39.358-39.464-39.358-21.795 0-39.464 17.621-39.464 39.358 0 21.736 17.669 39.358 39.464 39.358Z" fill="#fff"/><path d="m12.589 148.546-.362 5.722c-.058.932.177 1.86.671 2.653a4.504 4.504 0 0 0 2.09 1.773l4.202 1.744a3.749 3.749 0 0 1 2.22 2.672 39.782 39.782 0 0 0 2.974 8.647 3.744 3.744 0 0 1-.111 3.474l-2.248 3.952a4.475 4.475 0 0 0 .54 5.183l3.79 4.288a4.51 4.51 0 0 0 5.09 1.185l4.212-1.73a3.763 3.763 0 0 1 3.47.337 40.266 40.266 0 0 0 8.23 4.039 3.768 3.768 0 0 1 2.363 2.531l1.212 4.376c.25.899.773 1.698 1.5 2.287a4.514 4.514 0 0 0 2.55.998l5.737.36a4.5 4.5 0 0 0 4.438-2.753l1.749-4.191a3.762 3.762 0 0 1 2.7-2.215 40.111 40.111 0 0 0 8.67-2.965 3.763 3.763 0 0 1 3.483.111l3.962 2.242a4.52 4.52 0 0 0 5.198-.539l4.3-3.78a4.494 4.494 0 0 0 1.184-5.076l-1.735-4.204a3.743 3.743 0 0 1 .338-3.457 40.251 40.251 0 0 0 4.05-8.209 3.747 3.747 0 0 1 2.534-2.356l4.388-1.209a4.482 4.482 0 0 0 3.294-4.039l.361-5.722a4.485 4.485 0 0 0-.671-2.653 4.503 4.503 0 0 0-2.09-1.773l-4.202-1.747a3.747 3.747 0 0 1-2.217-2.673 40.244 40.244 0 0 0-2.973-8.647 3.75 3.75 0 0 1 .108-3.473l2.247-3.952a4.473 4.473 0 0 0-.54-5.183l-3.79-4.289a4.517 4.517 0 0 0-5.09-1.181l-4.211 1.73a3.781 3.781 0 0 1-3.47-.337 40.266 40.266 0 0 0-8.231-4.039 3.753 3.753 0 0 1-2.363-2.528l-1.211-4.375a4.481 4.481 0 0 0-4.05-3.285l-5.738-.361a4.514 4.514 0 0 0-2.66.669 4.494 4.494 0 0 0-1.778 2.085l-1.748 4.19a3.764 3.764 0 0 1-2.68 2.212 40.508 40.508 0 0 0-8.674 2.965 3.764 3.764 0 0 1-3.48-.108l-3.962-2.241a4.507 4.507 0 0 0-5.2.538l-4.3 3.78a4.496 4.496 0 0 0-1.185 5.076l1.735 4.201a3.75 3.75 0 0 1-.337 3.46 40.021 40.021 0 0 0-4.05 8.209 3.759 3.759 0 0 1-2.538 2.357l-4.388 1.208a4.495 4.495 0 0 0-2.303 1.489 4.47 4.47 0 0 0-1.004 2.547Zm15.41.468a33.234 33.234 0 0 1 8.568-17.324 33.381 33.381 0 0 1 16.775-9.657 33.44 33.44 0 0 1 19.327 1.265 33.349 33.349 0 0 1 15.365 11.76 33.204 33.204 0 0 1 1.21 36.951 33.33 33.33 0 0 1-14.563 12.735 33.433 33.433 0 0 1-19.203 2.52 33.397 33.397 0 0 1-12.184-4.573 33.33 33.33 0 0 1-9.502-8.876 33.235 33.235 0 0 1-5.37-11.828 33.182 33.182 0 0 1-.423-12.977v.004Z" fill="#B5A6CD"/><path d="M81.692 171.872c1.944 1.562 4.276 2.157 7.003.747l1.238 2.801s-1.242 6.193-7.472 6.755a7.754 7.754 0 0 1-1.833-.067c-2.902-4.487-.746-8.213 1.064-10.236Z" fill="#FC9290"/><path d="m71.435 175.914 2.973-17.674c.118.185 2.524 9.808 7.283 13.632-1.809 2.019-3.952 5.742-1.063 10.236-5.039-.785-9.193-6.194-9.193-6.194Z" fill="#93B3F4"/><path d="M48.4 149.303s10.962-3.642 25.107-1.622c1.475.212 5.295 8.155 4.725 13.672-.965 9.351-6.075 25.039-6.26 25.087-5.9 1.561-25.333.245-25.333.245l1.761-37.382Z" fill="#93B3F4"/><path d="m59.204 137.825.61 9.472a2.053 2.053 0 0 0 1.431 1.865c1.847.545 5.333 1.201 8.748-.172a1.344 1.344 0 0 0 .736-1.683l-4.519-14.473-7.006 4.991Z" fill="#FC9290"/><path d="M65.511 123.274s5.093 5.123 6.535 8.291c1.44 3.167 2.956 4.995-.544 7.102s-7.384 1.464-10.351-1.098c0 0-4.62-3.928-4.81-6.196-.188-2.269 9.17-8.099 9.17-8.099Z" fill="#FC9290"/><path d="m61.526 134.756.476-.186s-3.514-3.241-2.07-4.608c1.445-1.366 7.71-5.385 8.24-8.361.512-2.871-1.918-5.385-4.132-5.486a.275.275 0 0 0-.277.242l-.04.357a.273.273 0 0 1-.49.131.279.279 0 0 0-.123-.092.278.278 0 0 0-.154-.01.27.27 0 0 0-.208.21c-.17.895-.928 2.538-3.96 4.403-4.296 2.645-6.631 5.698-5.463 8.919a.276.276 0 0 1-.05.273.276.276 0 0 1-.264.088c-.422-.074-1.013.04-1.499.935-.857 1.559.74 4.124 4.415 5.319a.264.264 0 0 1 .19.293.269.269 0 0 1-.045.117c-.378.525-.827 1.599 1.532 1.882 2.36.283 3.547-.283 3.949-.569a.27.27 0 0 0 .088-.337l-1.276-2.76a.273.273 0 0 1 .056-.309.284.284 0 0 1 .092-.061l1.013-.39Z" fill="#2C3A64"/><path d="M61.864 135.301s-2.562-3.541-3.902-1.751c-1.34 1.791 2.636 4.06 4.118 3.656l-.216-1.905Z" fill="#FC9290"/><path d="M48.485 176.534c-.594-4.178 3.743-10.317 5.535-12.646a3.885 3.885 0 0 0 .81-2.319c.05-5.914-2.44-9.714-6.43-12.266 0 0-14.478 16.83-10.8 29.769.368 1.31.977 2.54 1.796 3.628.587-4.877 6.24-5.941 9.089-6.166Z" fill="#93B3F4"/><path d="m48.755 174.928-.554-.064c.47-4.093 4.074-9.149 5.6-11.134l.441.336c-1.491 1.939-5.035 6.894-5.487 10.862Z" fill="#BED2FA"/><path d="M48.596 177.113a4.769 4.769 0 0 1-.111-.579c-2.849.225-8.502 1.289-9.082 6.166 6.463 8.523 24.276 5.446 24.276 5.446v-3.315s-13.682-2.535-15.083-7.718Z" fill="#FC9290"/><path d="M61.965 188.133s.968-6.625 7.263-3.996c4.725 1.979 4.273 3.632 4.273 3.632l-11.536.364Z" fill="#FC9290"/><path d="m92.144 158.644-3.166 19.266a.88.88 0 0 1-.628.704c-1.204.336-4.262.986-7.256-.037a1.2 1.2 0 0 1-.79-.936l-3.354-19.415 15.194.418Z" fill="#CFD1E8"/><path d="m92.144 157.348-.723-1.609a.476.476 0 0 0-.391-.28c-1.407-.117-7.884-.622-12.13-.037a.73.73 0 0 0-.57.445l-.564 1.346 14.377.135Z" fill="#BED2FA"/><path d="m92.718 157.388.135 1.326a.582.582 0 0 1-.534.64c-2.453.165-11.853.71-15.67-.505a.548.548 0 0 1-.358-.673l.18-.673a.86.86 0 0 1 .833-.647l14.887.051a.533.533 0 0 1 .526.481Z" fill="#CFD1E8"/><path d="M91.367 163.376s-8.697 1.394-13.53 0l-.07-.424-.26.269a.575.575 0 0 0-.146.492l1.414 7.688s6.092 1.46 11.59.094l1.374-7.779a.752.752 0 0 0-.142-.613l-.152-.201-.078.474Z" fill="#BED2FA"/><path d="M85.718 171.804a.167.167 0 0 1-.162-.168l.131-7.031a.163.163 0 0 1 .105-.152.174.174 0 0 1 .127.004.166.166 0 0 1 .099.154l-.132 7.032a.166.166 0 0 1-.05.113.165.165 0 0 1-.115.048h-.003Zm-1.668-.02a.167.167 0 0 1-.162-.168l.132-6.954a.161.161 0 0 1 .165-.162.166.166 0 0 1 .162.169l-.128 6.95a.165.165 0 0 1-.165.165h-.004Zm3.335-.077a.168.168 0 0 1-.162-.168l.132-7.045a.153.153 0 0 1 .01-.065.158.158 0 0 1 .092-.091.161.161 0 0 1 .066-.009.167.167 0 0 1 .162.168l-.131 7.048a.163.163 0 0 1-.103.151.193.193 0 0 1-.063.011h-.003Zm-5.312-.047a.166.166 0 0 1-.152-.105.16.16 0 0 1-.01-.064l.124-6.846a.18.18 0 0 1 .17-.161.17.17 0 0 1 .062.013.17.17 0 0 1 .088.091.17.17 0 0 1 .011.064l-.128 6.846a.16.16 0 0 1-.047.114.16.16 0 0 1-.115.048h-.003Zm6.625-.111a.166.166 0 0 1-.152-.105.16.16 0 0 1-.01-.064l.155-7.014a.164.164 0 0 1 .05-.117.17.17 0 0 1 .055-.035.168.168 0 0 1 .226.158l-.156 7.015a.169.169 0 0 1-.165.162h-.003Zm-8.536-.283-.5-6.799a.163.163 0 0 1 .094-.159.17.17 0 0 1 .062-.016.156.156 0 0 1 .16.089.15.15 0 0 1 .016.062l.5 6.799a.165.165 0 0 1-.153.175.143.143 0 0 1-.065-.006.157.157 0 0 1-.097-.082.162.162 0 0 1-.017-.063Zm9.514.104a.162.162 0 0 1-.111-.056.167.167 0 0 1-.04-.119l.597-7.014a.166.166 0 0 1 .291-.093.167.167 0 0 1 .04.12l-.598 7.014a.168.168 0 0 1-.054.106.176.176 0 0 1-.111.046l-.013-.004Zm-10.8-.336-.857-6.874a.167.167 0 0 1 .035-.124.17.17 0 0 1 .302.084l.858 6.873a.164.164 0 0 1-.142.185h-.02a.166.166 0 0 1-.122-.032.167.167 0 0 1-.064-.109l.01-.003Z" fill="#fff" style="mix-blend-mode:soft-light"/><path d="M91.752 167.89s-2.68-1.646-4.451-.397c-1.688 1.185 1.063 8.341 2.055 9.041.992.7 4.38-4.854 2.396-8.644Z" fill="#FC9290"/><path d="M108.809 83.735c20.355 0 36.855-16.457 36.855-36.757 0-20.3-16.5-36.756-36.855-36.756-20.354 0-36.854 16.457-36.854 36.756 0 20.3 16.5 36.757 36.854 36.757Z" fill="#fff"/><path d="m151.236 37.453-4.134-1.138a3.555 3.555 0 0 1-2.39-2.238 37.702 37.702 0 0 0-3.803-7.742 3.532 3.532 0 0 1-.307-3.258l1.633-3.958a4.221 4.221 0 0 0-1.117-4.783l-4.05-3.565a4.25 4.25 0 0 0-4.897-.505l-3.733 2.114a3.553 3.553 0 0 1-3.284.1 37.954 37.954 0 0 0-8.167-2.793 3.543 3.543 0 0 1-2.525-2.083l-1.636-3.942a4.246 4.246 0 0 0-4.182-2.595l-5.4.337a4.245 4.245 0 0 0-2.407.938A4.226 4.226 0 0 0 99.424 4.5l-1.141 4.124a3.538 3.538 0 0 1-2.245 2.383 37.883 37.883 0 0 0-7.762 3.79 3.55 3.55 0 0 1-3.267.31l-3.969-1.63a4.253 4.253 0 0 0-4.796 1.114l-3.57 4.04a4.226 4.226 0 0 0-.51 4.884l2.12 3.722a3.529 3.529 0 0 1 .1 3.272 37.813 37.813 0 0 0-2.8 8.149 3.524 3.524 0 0 1-2.09 2.518l-3.959 1.646a4.233 4.233 0 0 0-1.97 1.667 4.215 4.215 0 0 0-.632 2.5l.338 5.385c.056.878.385 1.717.941 2.4a4.243 4.243 0 0 0 2.164 1.41l4.134 1.138a3.553 3.553 0 0 1 2.39 2.238 37.71 37.71 0 0 0 3.803 7.742 3.535 3.535 0 0 1 .307 3.258l-1.633 3.959a4.22 4.22 0 0 0 1.117 4.783l4.05 3.56a4.248 4.248 0 0 0 4.897.51l3.733-2.115a3.559 3.559 0 0 1 3.284-.1 38.146 38.146 0 0 0 8.167 2.793 3.544 3.544 0 0 1 2.525 2.084l1.65 3.948a4.253 4.253 0 0 0 4.182 2.595l5.399-.337a4.242 4.242 0 0 0 2.407-.936 4.227 4.227 0 0 0 1.414-2.157l1.141-4.123a3.542 3.542 0 0 1 2.244-2.383 38.078 38.078 0 0 0 7.763-3.794 3.549 3.549 0 0 1 3.267-.306l3.969 1.629a4.25 4.25 0 0 0 4.795-1.114l3.571-4.04a4.222 4.222 0 0 0 .51-4.883l-2.12-3.726a3.533 3.533 0 0 1-.101-3.272 37.689 37.689 0 0 0 2.801-8.146 3.53 3.53 0 0 1 2.089-2.52l3.959-1.643a4.226 4.226 0 0 0 2.602-4.17l-.337-5.386a4.224 4.224 0 0 0-3.119-3.817Zm-37.307 40.29a31.508 31.508 0 0 1-18.09-2.378 31.406 31.406 0 0 1-13.718-12 31.283 31.283 0 0 1 1.146-34.812 31.42 31.42 0 0 1 14.477-11.077 31.511 31.511 0 0 1 18.208-1.19 31.45 31.45 0 0 1 15.803 9.1 31.32 31.32 0 0 1 8.071 16.321 31.265 31.265 0 0 1-.402 12.226 31.31 31.31 0 0 1-5.062 11.142 31.399 31.399 0 0 1-8.953 8.36 31.486 31.486 0 0 1-11.48 4.308Z" fill="#BED2FA"/><path d="M113.028 40.812s13.585 24.5 33.045 26.275l1.039 2.918s-26.821 5.22-40.557-16.813l6.473-12.38Z" fill="#B5A6CD"/><path d="M145.685 68.783a1.872 1.872 0 0 1 .72-2.457c.271-.16.578-.251.893-.263h.209c2.288.084 4.61-.266 5.468-.851a.61.61 0 0 1 .695-.02.6.6 0 0 1 .175.171c.237.384.051 1.03-2.119 1.976 0 0 4.802 1.865 8.67.034 3.77-1.788-1.687 7.67-13.162 3.133a2.518 2.518 0 0 1-1.32-1.225l-.229-.498Z" fill="#FC9290"/><path d="M108.543 80.729s12.592-34.407 2.68-42.223c0 0-14.85-2.39-25.65 1.683l1.232 31.553s7.914 13.914 21.738 8.987Z" fill="#B5A6CD"/><path d="M108.28 31.233s-1.931 4.675-2.424 8.35a2.47 2.47 0 0 1-2.058 2.108c-2.306.383-6.13.595-8.458-1.522a1.732 1.732 0 0 1-.456-1.865c.959-2.692 5.94-13.817 8.657-15.523l4.739 8.452ZM88.627 65.616v.06c-.04 5.82 7.85 6.375 7.85 6.375s2.255-3.743 5.151-3.864c2.895-.12 6.915 4.581 6.915 4.581l-6.412 1.01s-12.252 7.331-20.652-1.377c1.472-5.405 5.022-6.59 7.148-6.785Z" fill="#FC9290"/><path d="M85.56 40.203c7.96 2.814 6.807 9.05 6.807 9.05s-3.672 10.53-3.74 16.363c-2.136.195-5.676 1.38-7.161 6.802-.2-.205-.395-.42-.591-.643-10.037-11.599 4.684-31.572 4.684-31.572Z" fill="#B5A6CD"/><path d="M88.627 65.925a.311.311 0 0 0 .31-.306c.052-4.537 2.32-11.983 3.292-14.972a.31.31 0 0 0-.436-.372.31.31 0 0 0-.155.18c-.979 3.03-3.267 10.536-3.318 15.147a.31.31 0 0 0 .304.313l.004.01Z" fill="#9185AA"/><path d="M116.984 19.445c0 .232-5.214 14.72-5.214 14.72l-8.228-3.148 2.895-14.473s10.547-.997 10.547 2.901Z" fill="#FC9290"/><path d="m107.878 20.095-2.119 7.492a.939.939 0 0 0-.044.293c0 .613.152 2.713 2.298 2.427 1.951-.26 3.733-.468 4.867.067a1.08 1.08 0 0 1 .563 1.346 47.355 47.355 0 0 1-2.966 6.675 1.087 1.087 0 0 1-1.397.445c-1.546-.7-4.766-2.272-7.057-4.14a1.083 1.083 0 0 1-.385-1.044c.358-1.915 1.434-7.742 1.481-9.425.044-1.568-1.721-2.766-2.497-3.214a1.069 1.069 0 0 1-.506-.673c-.243-1.01-.45-3.296 2.474-3.797a1.094 1.094 0 0 0 .884-1.296c-.247-1.208-.169-2.986 2.129-3.638 2.299-.653 3.807.737 4.557 1.81a1.083 1.083 0 0 0 1.35.36.862.862 0 0 1 .965.176 1.073 1.073 0 0 0 .839.226 1.076 1.076 0 0 0 .734-.465c.675-1.01 1.917-2 4.012-1.323 3.713 1.198 3.541 5.476 2.177 7.799-1.363 2.322-5.319.794-7.192-.744-1.424-1.172-3.594-.471-4.549-.068a1.086 1.086 0 0 0-.618.71Z" fill="#2C3A64"/><path d="M102.789 27.018s1.785-4.207.337-5.51c-1.448-1.302-3.486-.855-3.419 2.39.074 4.04 3.082 3.12 3.082 3.12Z" fill="#FC9290"/></g><defs><clipPath id="a"><path fill="#fff" d="M0 0h205v203H0z"/></clipPath></defs></svg>