<svg width="358" height="201" fill="none" xmlns="http://www.w3.org/2000/svg"><path d="M39.965 200.547s-34.159-29.92-27.519-79.163c6.864-50.998 43.018-78.13 90.183-67.823 38.545 8.419 63.375 3.019 103.233-21.044 65.361-39.456 149.596 3.26 127.564 79.711-10.652 36.994 34.097 55.276-3.371 88.407l-290.09-.088Z" fill="#F2F3FF"/><path d="M205.715 23.468S233.994-5.17 242.362 1.034c8.367 6.204-36.647 22.434-36.647 22.434ZM203.774 28.867s53.443-25.95 66.653-13.49c13.211 12.459-14.526 11.714-24.823 10.59-10.296-1.124-41.83 2.9-41.83 2.9ZM201.317 22.989s.213-1.373.5-3.384c.558-3.923 1.399-10.266 1.479-13.56.121-4.98 4.008-8.637 8.545-3.707 4.538 4.93-8.881 19.235-8.881 19.235l-1.643 1.416Z" fill="#BDBEE6"/><path d="M331.638 129.158c-2.506-6.493-13.544-3.223-13.544-3.223s-6.419 12.497-8.613 13.009c-2.194.513 3.406-11.759 3.406-11.759-4.351.035-14.775 6.478-14.775 6.478s2.13 13.57-.13 13.517c-2.261-.052-1.269-12.11-1.269-12.11-4.038 1.69-7.418 6.972-7.418 6.972-4.024 8.444 6.999 13.199 6.999 13.199s.634 4.717-1.716 10.453a16.2 16.2 0 0 0-1.044 2.846l1.136-.119c.062-.315.133-.621.216-.915.059-.185.144-.446.251-.766.274-.711.456-1.245.568-1.624.816-2.249 2.024-5.192 2.963-5.879-.12-.153-.22-.32-.298-.498l.298.498c2.381 3.972 12.183 3.647 17.485 1.963 5.303-1.683 2.782-2.966-.397-5.146-3.179-2.179-9.232-.882-11.125-1.66-1.894-.778.629-2.034 4.272-2.134 3.643-.1 5.825 3.32 11.722 3.273 5.896-.048 9.191-11.521 9.191-11.521-3.901 1.677-11.362.209-11.783-1.155-.421-1.363 10.292-2.347 11.915-2.94 1.624-.593 4.195-4.266 1.69-10.759Z" fill="#CFD1E8"/><path d="M160.861 46.983c4.355-8.483 18.919-2.42 18.919-2.42s6.936 17.962 9.852 18.972c2.916 1.01-2.938-16.514-2.938-16.514 5.918.68 19.194 10.975 19.194 10.975s-4.859 18.181-1.784 18.447c3.074.266 3.489-16.313 3.489-16.313 5.257 2.89 9.098 10.579 9.098 10.579 4.261 12.094-11.451 16.965-11.451 16.965s-1.548 6.337.821 14.494c.462 1.309.8 2.659 1.011 4.032l-1.529-.328a15.685 15.685 0 0 0-.164-1.28v-.017a46.965 46.965 0 0 0-.236-1.081c-.27-1.017-.443-1.762-.538-2.296-.788-3.18-2.007-7.351-3.186-8.44a3.04 3.04 0 0 0 .474-.633l-.474.633c-3.82 5.066-17.127 3.197-24.108.133-6.98-3.064-3.358-4.446 1.288-6.953 4.646-2.506 12.697.14 15.409-.652 2.713-.792-.563-2.865-5.51-3.533-4.947-.67-8.422 3.687-16.446 2.753-8.024-.934-10.853-17.053-10.853-17.053 5.068 2.846 15.445 1.935 16.219.14.774-1.795-13.682-4.696-15.807-5.741-2.126-1.046-5.106-6.387-.75-14.87Z" fill="#BDBEE6"/><path d="M198.025 198.021c-.128 1.727-2.561 1.746-5.321 1.423-2.76-.322-2.026.377-5.891.432-3.866.054-5.208-1.226-5.385-1.779-.168-.491 1.694-.903 3.685-1.389l.753-.188c2.246-.571 3.733-2.257 5.655-3.728 1.82-1.392 4.168-6.433 4.168-6.433l5.281-.237s-2.225 4.517-3.061 6.464c-.49 1.148-.282 2.554-.068 3.636.142.588.204 1.194.184 1.799Z" fill="#FC9290"/><path d="M192.704 199.447c-2.76-.323-2.026.377-5.891.431-3.866.055-5.208-1.226-5.385-1.778-.168-.491 1.694-.904 3.685-1.39l.024.036a10.827 10.827 0 0 0 5.681 1.017c2.603-.261 5.242-1.345 7.032-1.539.142.588.204 1.193.185 1.798-.147 1.726-2.571 1.745-5.331 1.425Z" fill="#030231"/><path d="M234.494 198.372c-.124 1.727-2.557 1.748-5.319 1.423-2.762-.325-2.026.382-5.892.439-3.865.057-5.207-1.221-5.387-1.774-.166-.491 1.695-.906 3.685-1.394.251-.06.502-.124.753-.188 2.247-.573 3.731-2.26 5.653-3.732 1.818-1.395 0-9.652 0-9.652l5.808-.567s-.279 6.953-.274 10.114c0 1.248.575 2.445.788 3.527a6.72 6.72 0 0 1 .185 1.804Z" fill="#FC9290"/><path d="M229.175 199.81c-2.76-.318-2.026.381-5.892.438-3.865.057-5.207-1.221-5.387-1.774-.166-.49 1.695-.905 3.685-1.394l.024.038a10.816 10.816 0 0 0 5.681 1.01c2.604-.263 5.241-1.349 7.03-1.546.142.588.204 1.193.185 1.798-.13 1.726-2.564 1.747-5.326 1.43Z" fill="#030231"/><path d="M217.534 55.672c-.999-4.122.45-6.04 1.759-7.06.62-1.518 1.328-2.609 2.052-3.024 1.318-.751 2.899-.832 4.007-.766a1.868 1.868 0 0 0-.845-.403c.687-.102 2.218.579 2.218.579 9.544-3.683 11.042 10.396 10.843 13.666-.198 3.27-.172 7.115 4.791 9.7 9.468 4.915-3.148 23.446-3.148 23.446.237-2.642-11.932-16.6-18.283-20.77-1.545-2.278-2.095-6.307-2.13-6.625.265 3.194.812 4.98 1.299 5.995-2.89-2.668-3.32-9.078-2.563-14.738Z" fill="#9291C9"/><path d="M221.321 71.25c-.031.014 3.077 1.626 5.397.986 2.192-.598 3.624-3.446 3.593-3.453-.928-.185-1.184-1.463-1.184-6.953l-.419.08-7.056 1.402s.161 2.225.166 4.321c.005 1.76-.102 3.43-.497 3.617Z" fill="#FC9290"/><path d="M221.652 63.312s.161 2.225.166 4.321c3.948-.111 6.036-3.72 6.89-5.722l-7.056 1.401Z" fill="#EE7572"/><path d="M192.943 189.162a1.743 1.743 0 0 0 .228 1.518 1.738 1.738 0 0 0 1.341.742l2.756.13 2.918.088a2.333 2.333 0 0 0 1.894-.863c2.329-2.86 9.494-12.398 13.842-26.254.123-.389.251-.783.388-1.186 2.872-8.385 8.822-18.912 11.959-28.441a160.229 160.229 0 0 0 1.723-5.577c2.31-8.044 2.98-13.328 3.598-18.972l-22.648.181s-4.77 37.131-17.999 78.634Z" fill="#35488B"/><path d="M214.104 97.497c.057 10.797-1.581 15.428-1.581 15.428s9.705 4.935 21.223 1.302c.135-.043 8.244-2.343 8.244-2.343-.192-.436-1.794-7.662-1.981-8.063-2.433-5.234-3.099-7.432-3.387-9.042a34.252 34.252 0 0 1-.28-9.045 72.635 72.635 0 0 1 2.796-14.205c-3.141-.711-6.081-1.975-9.35-3.201-.753.949-3.051 1.918-5.044 1.873-2.296-.052-3.039-1.036-2.921-2.11-2.445 1.363-4.398 2.651-4.398 2.651-2.078 3.619-6.296 7.133-6.601 12.682-.076 1.357 3.28 13.769 3.28 14.073Z" fill="#fff"/><path d="M233.583 98.699c.989 1.404 2.887 9.936 7.61 11.008-2.434-6.08-4.282-8.746-4.571-10.617a46.172 46.172 0 0 1-.28-10.508c-1.581-2.774-2.759-4.678-2.759-4.678-.126-.449-2.512-7.845-3.279-1.234-.767 6.612 2.173 14.459 3.279 16.029Z" fill="#EA8888"/><path d="M220.334 65.297s9.343.154 9.35-5.677c.007-5.831 1.216-9.737-4.748-10.08-5.965-.345-7.128 1.877-7.601 3.822-.473 1.944.568 11.736 2.999 11.935Z" fill="#FC9290"/><path d="M220.68 49.397s2.558 6.84 6.483 7.85c3.924 1.01 5.629-.043 5.629-.043a11.133 11.133 0 0 1-3.636-6.572s-6.547-4.491-8.476-1.235Z" fill="#9291C9"/><path d="M221.321 49.952s-1.91 1.527-2.367 3.012c-.457 1.484-.675 4.54-1.565 4.436 0 0-1.926-4.65.237-7.28 2.275-2.789 3.695-.168 3.695-.168Z" fill="#9291C9"/><path d="m205.635 104.99-4.412 13.477 2.516 1.01 7.295-11.907-5.399-2.58Z" fill="#FC9290"/><path d="M217.534 69.95s-5.207 2.068-6.71 5.293c-1.504 3.225-3.788 24.855-4.694 27.077-.907 2.222-1.591 3.982-1.591 3.982s2.625 2.212 5.262 2.371c2.637.159 7.733-38.723 7.733-38.723Z" fill="#B5A6CD"/><path d="M221.823 68.09s-5.404 13.378-5.565 16.086c-.161 2.708-.634 44.275-.634 44.275s.317 1.911-3.34 1.114c-3.657-.796-4.609-1.593-4.609-1.593s3.496-25.642 2.542-34.559c-.953-8.917 7.315-23.463 7.315-23.463l4.291-1.86Z" fill="#B5A6CD"/><path d="m197.268 191.552 3.167.097a1.829 1.829 0 0 0 1.47-.664c2.13-2.582 9.551-12.25 14.01-26.462.123-.389.251-.783.388-1.186 2.871-8.385 8.822-18.912 11.958-28.441a156.85 156.85 0 0 0 1.724-5.577l-3.336-2.535s-10.012 16.244-13.113 31.54c-2.691 13.275-13.475 29.254-16.268 33.228Z" fill="#2C3A64"/><path d="M226.292 159.744c-.055 7.034.279 22.709 1.134 30.371a1.379 1.379 0 0 0 1.372 1.231h2.367c.995 0 1.74 0 2.235-.014a.911.911 0 0 0 .878-.735c2.348-11.981 4.024-21.934 5.262-30.535 1.03-7.197 1.946-13.368 2.651-18.682.705-5.314 1.2-9.823 1.378-13.605.026-.595.047-1.186.059-1.738.012-.553.014-1.115 0-1.66l-19.552-1.89c.246 13.016 2.256 32.936 2.216 37.257Z" fill="#35488B"/><path d="M231.173 191.346h2.076a1.105 1.105 0 0 0 1.065-.892c2.336-11.911 4.007-21.817 5.233-30.38 1.03-7.197 1.946-13.368 2.651-18.682.706-5.315 1.201-9.823 1.378-13.605l-7.181 4.23s4.584 1.62 2.84 13.883c-1.745 12.262-5.629 43.71-8.062 45.446Z" fill="#2C3A64"/><path d="M230.247 127.654s1.378 4.98 6.154 4.352c4.777-.629 11.552-3.503 11.552-3.503s-2.038-6.453-4.574-14.94c-3.077-10.261-6.864-23.477-8.653-31.832a50.751 50.751 0 0 1-.973-5.691l-3.958-7.69s-5.898 13.265-6.216 16.6c-.317 3.334 6.668 42.704 6.668 42.704Z" fill="#B5A6CD"/><path d="m235.009 84.475-5.221-16.111c.014 0 6.594 1.96 9.906 3.637 0 0 2.069 2.673 3.349 8.839 0 0 1.352 14.802-1.657 20.218 0 0-9.536 1.912-24.797-3.346V94.21s16.69.875 20.12 1.273l-1.7-11.008Z" fill="#FC9290"/><path d="M230.46 91.98c.213 5.415 1.484 15.925 12.822 21.552l.09.043c-3.077-10.261-6.864-23.477-8.653-31.832-2.083 3.119-4.375 7.257-4.259 10.238Z" fill="#9387AF"/><path d="M229.788 68.364s9.679.683 12.01 5.885c2.332 5.203 3.077 22.508.107 27.606 0 0-4.086 1.165-11.31-.189l-.267-.05s-2.306-5.654-.237-6.768c0 0 6.095.317 5.458-1.7-.637-2.019-5.761-24.784-5.761-24.784Z" fill="#B5A6CD"/><path d="m205.519 96.375.284.918 15.885-4.952a.607.607 0 0 0 .107-.562.458.458 0 0 0-.393-.356l-15.883 4.952Z" fill="#9E332E"/><path d="m204.371 97.24 1.148-.867.287.92-1.435-.053Z" fill="#9E332E"/><path d="M201.848 118.1s-4.024 2.231-4.559 3.929c-.535 1.698-.166 5.26.473 5.205.639-.054 1.596-3.822 2.131-4.088.534-.266 1.271-1.062 1.271-.474 0 .588-.531 1.66-.266 1.807.266.147 1.113-1.487 1.698-1.807.584-.32.828-2.946 1.394-3.65.566-.704-2.142-.922-2.142-.922ZM216.587 94.21s-3.605-2.225-5.115-1.88c-1.51.343-5.364 3.137-3.513 3.741 1.851.605 3.354-.03 4.067.41.712.442 1.24 1.243 4.561 1.231 3.321-.011 0-3.502 0-3.502Z" fill="#FC9290"/><path d="M194.148 117.037h-63.891v76.325h63.891v-76.325Z" fill="#93B3F4"/><path d="m167.1 178.944 13.973-6.746-8.366-17.392-13.973 6.746 8.366 17.392Z" fill="#BED2FA"/><path d="M194.148 156.83v22.294l-2.77-1.601-3.217-1.862-2.591-1.501-.805-.462-1.657-.961 1.044-1.809 5.813-10.091 2.779-4.818 1.404.811Z" fill="#6D89CF"/><path d="m179.762 185.896 5.863-14.387-17.84-7.297-5.863 14.387 17.84 7.297Z" fill="#6D89CF"/><path d="m155.362 188.814 12.582-9.088-11.269-15.661-12.582 9.088 11.269 15.661Z" fill="#BED2FA"/><path d="M194.148 167.321v19.861l-3.046 2.43-8.477-10.664-.35-.443-.781-.982-.055-.069 2.656-2.115.003-.003 1.472-1.176 7.809-6.225.769-.614Z" fill="#6D89CF"/><path d="M194.148 169.534v3.239l-5.986 2.888-3.854 1.862-1.37.661-.663.321-.836.403-.667-1.385-2.034-4.231-2.743-5.701-2.921-6.078 2.341-1.128 11.632-5.616 2.918 6.068 3.414 7.098.769 1.599Z" fill="#6D89CF"/><path d="M194.148 177.523h-50.056v15.748h50.056v-15.748Z" fill="#6D89CF"/><path d="M114.623 193.362h62.085v-76.325h-62.085v76.325Z" fill="#BED2FA"/><path d="m137.629 178.942 13.974-6.747-8.366-17.391-13.973 6.746 8.365 17.392Z" fill="#DDE8FD"/><path d="m150.379 172.284 12.065 9.767 12.111-15.016-12.064-9.767-12.112 15.016Z" fill="#DDE8FD"/><path d="m150.295 185.896 5.863-14.387-17.84-7.298-5.863 14.387 17.84 7.298Z" fill="#fff"/><path d="m127.586 187.562 12.564-9.013-11.176-15.638-12.564 9.013 11.176 15.638ZM151.977 177.456l9.66 12.158 15.077-12.023-9.66-12.159-15.077 12.024Z" fill="#fff"/><path d="m151.962 178.942 13.974-6.746-8.366-17.392-13.973 6.747 8.365 17.391Z" fill="#fff"/><path d="M114.623 193.269h62.085V177.52h-62.085v15.749Z" fill="#fff"/><path d="m176.71 159.758-3.636 1.755 3.634 7.558.002-9.313Z" fill="#DDE8FD"/><path d="M176.708 117.037h-62.085v13.247h62.085v-13.247Z" fill="#B5A6CD"/><path d="M194.37 117.037h-17.662v13.247h17.662v-13.247Z" fill="#9387AF"/><path d="M132.068 120.786h1.394l1.501 4.051 1.5-4.051h1.361l-2.319 5.794h-1.115l-2.322-5.794ZM138.09 123.672a3.053 3.053 0 0 1 3.597-3.09 3.06 3.06 0 0 1 1.15 5.547 3.043 3.043 0 0 1-1.706.517 2.956 2.956 0 0 1-2.146-.844 2.98 2.98 0 0 1-.895-2.13Zm4.781 0a1.748 1.748 0 0 0-1.74-1.807c-1.018 0-1.723.804-1.723 1.807a1.745 1.745 0 0 0 1.74 1.807c1.018-.009 1.723-.813 1.723-1.807ZM146.405 121.953h-1.747v-1.167h4.758v1.167h-1.747v4.586h-1.264v-4.586ZM150.384 120.786h4.331v1.127h-3.077v1.167h2.708v1.126h-2.708v1.207h3.118v1.126h-4.372v-5.753Z" fill="#fff"/><path d="M176.708 193.269h-3.148v6.607h3.148v-6.607ZM194.155 193.269h-3.151v6.607h3.151v-6.607ZM117.776 193.269h-3.151v6.607h3.151v-6.607Z" fill="#35488B"/><path d="m147.86 110.51 21.804-1.8-2.365-28.755-21.804 1.8 2.365 28.755Z" fill="#fff"/><path d="m148.787 109.417 19.811-1.635-2.204-26.797-19.811 1.636 2.204 26.796Z" fill="#DDE8FD"/><path d="m149.272 95.304 10.328-.853-.014-.17-10.328.853.014.17ZM149.337 96.097l10.328-.853-.014-.17-10.328.853.014.17ZM149.4 96.906l10.328-.852-.014-.17-10.328.852.014.17ZM149.296 92.703l5.56-.459-.031-.373-5.56.459.031.373ZM149.295 93.671l6.77-.558-.03-.374-6.771.56.031.372Z" fill="#BFD2FA"/><path d="m161.723 95.905 4.751-.392-.391-4.76-4.751.392.391 4.76Z" fill="#fff"/><path d="m165.258 92.697-1.134 1.87-1.756-2.695 1.901 1.463.989-.638Z" fill="#3A49CD"/><path d="m150.046 104.752 10.328-.852-.014-.171-10.328.853.014.17ZM150.104 105.552l10.328-.852-.014-.17-10.328.852.014.17ZM150.171 106.355l10.328-.853-.014-.17-10.328.853.014.17ZM150.075 102.132l5.56-.459-.031-.373-5.56.459.031.373ZM150.069 103.12l6.77-.559-.03-.374-6.771.559.031.374Z" fill="#BFD2FA"/><path d="m162.487 105.369 4.751-.392-.391-4.76-4.751.392.391 4.76Z" fill="#fff"/><path d="m166.03 102.145-1.134 1.873-1.756-2.699 1.9 1.466.99-.64Z" fill="#3A49CD"/><path d="m148.309 87.639 10.328-.853-.014-.17-10.328.853.014.17ZM148.375 88.432l10.328-.853-.014-.17-10.328.853.014.17ZM148.444 89.225l10.328-.852-.014-.17-10.328.852.014.17ZM148.343 85.01l5.56-.46-.031-.373-5.56.46.031.373ZM148.338 85.997l6.77-.559-.031-.373-6.77.559.031.373Z" fill="#BFD2FA"/><path d="m160.765 88.23 4.751-.392-.391-4.76-4.751.392.391 4.76Z" fill="#fff"/><path d="m164.3 85.023-1.134 1.873-1.759-2.698 1.903 1.465.99-.64Z" fill="#3A49CD"/><path d="M143.761 85.744c.379-.268.672-.863 1.06-1.307.248-.252.529-.47.834-.647 0 0 .056.77.116 1.396 1.145-.429 2.868-.822 5.617-.294a2.057 2.057 0 0 1 1.353.892c.28.436.384.984-.317 1.423-1.403.875-.996.35-2.947 1.624-1.95 1.274-4.338 1.599-5.763.712l-1.915-.32-.237-3.154s1.091-.14 2.199-.325ZM93.592 59.281s4.514 5.364 10.261 3.12c0 0 1.235-2.997 1.254-5.216V56.4c.031-2.488.114-3.882.114-3.882-.263-.11-8.786-3.617-8.78-3.32.15 6.732-2.85 10.083-2.85 10.083Z" fill="#FC9290"/><path d="M97.301 50.808c.824 1.525 3.643 4.506 7.811 5.604.031-2.488.114-3.883.114-3.883-.237-.066-8.173-2.172-7.925-1.721Z" fill="#EE7572"/><path d="M107.018 52.271s-9.59 2.258-10.889-3.747c-1.3-6.004-3.432-9.754 2.632-11.45 6.065-1.695 7.762.333 8.685 2.23.923 1.897 2.031 12.225-.428 12.967Z" fill="#FC9290"/><path d="M96.447 50.158c-.133.085-2.195.712-6.103-7.079-.613-1.223-1.03-3.87.4-6.21 1.43-2.341 6.498-4.179 10.709-4.98 4.211-.802 5.224 1.574 6.216 3.96 1.039 2.504 4.047 4.567 4.047 4.567-3.633 2.033-8.007-.875-9.522-.398-1.515.477-2.05 2.872-2.164 3.638-.113.766-.289 1.406-2.194.711-1.906-.695-.862 2.706-.556 3.353.01.012.258 1.739-.834 2.438Z" fill="#634143"/><path d="M71.75 199.869h-5.807c-1.217 0-2.568-1.221-2.907-3.458-.338-2.236-2.84-3.455-3.382-5.283-.542-1.829 2.232-4.406 2.232-4.406l.473-.598.474-.621 4.599 1.083s.113 1.096.184 2.495c.06 1.065.065 2.132.017 3.197-.135 2.44.684 5.068 2.84 5.542 2.157.474 1.276 2.049 1.276 2.049ZM112.161 199.869H96.776a1.61 1.61 0 0 1-.327-.095c-1.027-.517-.71-4.458-.582-5.675.023-.237.04-.358.04-.358s5.411-4.335 6.154-1.015c.024.102.05.204.081.306.947 3.107 5.136 4.506 7.574 4.911 1.842.301 2.322 1.378 2.445 1.926Z" fill="#030231"/><path d="M109.061 110.964s-.822 10.273-1.787 22.619c-1.314 16.773-2.893 37.376-3.049 41.279-.27 6.778-1.354 17.62-1.354 17.62s-2.568 2.575-7.71 1.489c0 0-4.582-15.476-5.891-31.851l-.06-.808c-1.218-16.669-3.11-51.771-3.11-51.771l22.961 1.423Z" fill="#B5A6CD"/><path d="M109.061 110.964s-.822 10.273-1.787 22.619L89.27 162.12l-.06-.808c-1.218-16.669-3.11-51.771-3.11-51.771l22.961 1.423Z" fill="#9387AF"/><path d="M105.306 112.185s-14.81 37.201-24.55 54.683-12.782 22.36-12.782 22.36-5.582-2.236-6.088-3.761c0 0 3.723-33.75 10.247-41.974 3.685-4.651 8.014-18.602 8.218-23.477.203-4.876 1.318-14.535 1.318-14.535l23.637 6.704Z" fill="#B5A6CD"/><path d="m71.53 105.424-.16 2.393s1.577 4.252-2.84 6.431c0 0-1.894.764-1.965-.711-.07-1.475.166-.92 0-2.995-.165-2.075.66-4.032 2.031-4.696l1.125-1.299 1.808.877Z" fill="#FC9290"/><path d="M69.804 107.167c1.64.527 1.893.408 1.893.408s7.98-14.556 8.789-15.888c.81-1.333 16.94-16.32 16.94-16.32L93.293 59.88S74.94 83.688 72.959 87.105c-3.276 5.644-5.193 18.756-5.193 18.756a4.804 4.804 0 0 0 2.038 1.306Z" fill="#2C3A64"/><path d="M112.187 81.447c-.056 3.182-.236 6.758-.49 10.389-.016.216-.03.432-.047.647-.159 2.248-.84 10.098-.876 10.413-.809 8.239-1.657 14.746-1.815 14.845a.906.906 0 0 1-.63.162c-2.156-.271-8.59.22-13.856-.927-4.446-.949-8.273-2.721-12.328-5.123-.537-.318-1.766-1.162-1.657-1.793.097-.694.28-1.695.51-2.957.797-4.38 2.177-11.919 2.648-20.738.09-1.642.222-3.263.397-4.861a74.037 74.037 0 0 1 2.147-11.62c1.806-6.515 4.46-11.504 7.79-13.456.436-.237 2.774 1.25 4.926 2.63a9.468 9.468 0 0 0 6.107 1.451l1.789 1.98c2.166 2.524 4.474 5.884 5.104 10.658.047.353.087.728.12 1.126a69.51 69.51 0 0 1 .161 7.174Z" fill="#35488B"/><path d="M112.187 81.447c-.057 3.182-.236 6.758-.49 10.389-.016.216-.03.432-.047.647-12.309-7.723-14.214-21.857-14.214-21.857 6.06.265 10.874 1.66 14.583 3.657a69.61 69.61 0 0 1 .168 7.164Z" fill="#2C3A64"/><path d="M143.307 87.532c.128-1.83-.819-2.135-.819-2.135s-18.57-3.372-20.148-3.87c-1.579-.498-15.078-14.565-15.078-14.565s-5.175-5.846-9.412-4.556c-3.68 1.122-5.12 3.999-5.61 6.74a8.076 8.076 0 0 0 .595 4.72 8.057 8.057 0 0 0 3.148 3.564c6.336 3.893 19.024 11.565 22.013 12.445 6.649 1.951 24.518.156 24.518.156a5.792 5.792 0 0 0 .793-2.5Z" fill="#35488B"/><path d="M306.643 95.365s-.379-3.766 1.588-3.638c1.967.128 2.488 1.031 2.27 1.757-.218.726-2.131 3.119-2.131 3.119l-1.727-1.238Z" fill="#FC9290"/><path d="M303.57 115.396c-3.432.138-10.308-1.88-12.902-2.948a51.728 51.728 0 0 1-6.415-3.163c-.49-.285-.947-.567-1.396-.847-4.682-2.959-6.865-5.523-6.865-5.523s8.775-7.588 12.309-5.608c4.151 2.336 11.309 9.879 12.519 9.106 1.361-.873 5.162-11.568 5.162-11.568 2.5-.474 3.042 1.423 3.042 1.423s-.582 18.934-5.454 19.128Z" fill="#B5A6CD"/><path d="M289.079 195.254s-.359 4.169.519 4.603l11.255-.024s0-1.302-1.806-1.591c-1.806-.289-4.985-1.349-5.522-3.711-.538-2.362-4.446.723-4.446.723Z" fill="#030231"/><path d="M297.343 144.807c-.057 2.724-.187 5.535-.443 8.062-1.216 11.99-1.642 26.475-1.818 29.269-.303 4.847-1.259 12.594-1.259 12.594s-1.894 1.803-5.591.949c0 0-3.063-11.146-3.747-22.901 0-.194-.021-.387-.031-.581-.08-1.553-.163-3.32-.236-5.243-.561-12.825-1.184-31.877-1.184-31.877l14.124-3.32s.322 6.251.185 13.048Z" fill="#35488B"/><path d="M297.343 144.807c-3.579 6.187-10.415 17.584-13.137 22.142-.561-12.825-1.184-31.877-1.184-31.877l14.124-3.32s.334 6.258.197 13.055Z" fill="#030231"/><path d="M267.883 142.791s-.876 3.443-.734 4.209c.142.766 1.001 3.356 1.534 4.001.532.645.556-2.796.909-3.337.352-.54.163 1.283.447 1.423.284.14.76-1.38.971-1.923.21-.543-.758-2.433-.848-3.794-.09-1.362-2.279-.579-2.279-.579Z" fill="#FC9290"/><path d="M261.04 190.516s-2.003 1.833-1.612 3.135c.391 1.302 2.199 2.167 2.443 3.759.244 1.591 1.221 2.459 2.102 2.459h4.192s.648-1.119-.916-1.459c-1.565-.339-2.152-2.205-2.055-3.941a30.742 30.742 0 0 0-.147-4.048l-3.314-.771-.693.866Z" fill="#030231"/><path d="M294.936 135.361s-13.223 28.341-20.257 40.789c-7.035 12.447-9.232 15.905-9.232 15.905s-4.024-1.589-4.398-2.675c0 0 2.692-24.006 7.404-29.859 2.663-3.308 5.79-13.23 5.937-16.702.147-3.471 3.236-11.752 3.236-11.752l17.31 4.294Z" fill="#35488B"/><path d="M297.395 133.886s-4.306 4.643-11.622 6.045c-3.21.614-9.729 1.209-11.345-1.079-.379-.538-.381-1.335-.299-2.578.218-3.23 1.03-9.486-2.632-22.028a21.663 21.663 0 0 1-.71-3.353c-.798-6.422 1.894-10.98 5.077-13.012 7.741-4.959 11.523-1.535 11.523-1.535s4.431 2.075 6.457 8.12c4.053 12.092 3.551 29.42 3.551 29.42Z" fill="#B5A6CD"/><path d="M278.175 96.584s4.431 1.44 8.474-.226c0 0 .778-.408.139-1.287.046-.463.068-.928.064-1.392.034-.747.027-1.495-.021-2.241l-2.978-1.943-2.826-1.868c.734 5.886-2.852 8.957-2.852 8.957Z" fill="#FC9290"/><path d="M281.181 89.894s2.118 3.163 5.681 3.794a34.217 34.217 0 0 0-.045-2.903l-2.955-1.28-2.681.389Z" fill="#EF7674"/><path d="M289.477 90.681s-7.174 2.682-8.758-1.745c-1.583-4.428-3.595-7.062.916-8.962 4.512-1.9 6.015-.529 6.914.818.9 1.347 2.751 9.078.928 9.89Z" fill="#FC9290"/><path d="M276.236 80.472c-.083-.064-.251-.095-.599-.047a1.42 1.42 0 0 1 .609-.309c-.024-.495.063-1.399.849-1.769a1.052 1.052 0 0 0-.355.85c.765-1.187 2.675-2.299 8.443-2.975 7.603-.889 6.084 4.402 5.227 5.165-.857.764-3.605-.322-5.383.18-1.777.503-1.605 3.183-2.147 3.662-.542.48-.426-.201-1.33-.412-.904-.211-.71 1.185-.293 2.027.416.842-.49 2.253-.49 2.253l-1.397-1.015c-1.394-1.013-3.517-6.059-3.214-7.283.03-.109.056-.218.08-.327Z" fill="#2C3A64"/><path d="M274.129 136.274c.218-3.23 1.03-9.485-2.632-22.028a21.663 21.663 0 0 1-.71-3.353c2.72-.899 7.676 1.1 7.676 1.1s1.174 16.591-4.334 24.281Z" fill="#9387AF"/><path d="M276.196 97.677s-5.617 3.187-7.535 10.297c-1.574 5.826-4.007 14.491-4.301 17.202-.293 2.71 2.971 18.575 2.971 18.575s.459.337 1.586.112a2.628 2.628 0 0 0 1.581-.949s.781-10.574.58-15.568c-.085-2.075 9.584-15.192 14.803-16.882 2.046-.664-9.685-12.787-9.685-12.787Z" fill="#B5A6CD"/><path d="M280.085 93.901s-.947.46-2.755 2.884c0 0 3.384 4.254 8.284 3.7 0 0-.601-2.206-.57-3.607-.012-.003-4.098-.456-4.959-2.977Z" fill="#9387AF"/><path d="M285.032 96.875s2.603.683 3.238 2.564c0 0 .554-1.617.066-2.53-.488-.913-1.548-1.84-1.548-1.84s.357 1.156-1.756 1.806Z" fill="#9387AF"/><path d="M320.973 86.38a110.996 110.996 0 0 0-20.844 1.783l-1.17-2.946-1.28-3.227s11.21-4.835 17.949-11.568l5.345 15.957Z" fill="#fff"/><path d="m315.474 70.266 5.556 16.429a1.475 1.475 0 0 0 1.054-1.323c.013-.2-.015-.402-.082-.591l-4.888-13.804a1.229 1.229 0 0 0-.665-.713 1.222 1.222 0 0 0-.975.002Z" fill="#B5A6CD"/><path d="M320.973 86.38a110.996 110.996 0 0 0-20.844 1.783l-1.17-2.946c10.491-2.146 22.014 1.162 22.014 1.162Z" fill="#BED2FA"/><path d="m303.22 87.57-3.032.531c.047 0-2.808.555-3.743-1.978a1.993 1.993 0 0 1-.179-.548c-.727-3.16 1.003-3.742 1.003-3.742l3.892-1.52 1.235 4.385v.014l.824 2.858Z" fill="#B5A6CD"/><path d="m303.22 87.57-3.032.531c.047 0-2.807.555-3.742-1.978 1.709-1.247 5.951-1.423 5.951-1.423v.015l.823 2.855Z" fill="#9387AF"/><path d="M310.172 98.606a2.003 2.003 0 0 1-2.066-.85 2.015 2.015 0 0 1-.301-.724l-1.913-9.588a2.017 2.017 0 0 1 1.572-2.371 2.007 2.007 0 0 1 2.367 1.574l1.915 9.59a2.02 2.02 0 0 1-.298 1.511 2.009 2.009 0 0 1-1.276.858Z" fill="#BED2FA"/><path d="M309.914 89.322s-1.48.59-1.21 1.243c.27.652 2.152 1.55 2.45 1.034.298-.517-.31-2.827-1.24-2.277ZM306.615 94.772a20.344 20.344 0 0 1-.296-2.213c-.017-.695-.218-1.221-.055-1.242.164-.022.253.102.32.327.066.225.473 1.577.473 1.577l-.128 1.34-.314.21Z" fill="#FC9290"/></svg>