<svg width="91" height="24" viewBox="0 0 91 24" fill="none" xmlns="http://www.w3.org/2000/svg">
    <g clip-path="url(#clip0_3764_2339)">
        <path fill-rule="evenodd" clip-rule="evenodd"
              d="M11.6614 6.34053C12.8495 6.3307 14.0092 6.71046 14.9684 7.4235C15.9276 8.13654 16.6353 9.1449 16.9866 10.2991H14.72C14.473 9.68241 14.0492 9.15561 13.5037 8.7873C12.9581 8.419 12.3162 8.22624 11.6614 8.23413C9.04096 8.23413 8.10568 10.4619 8.10568 12.1327C8.10568 14.0435 9.29374 16.0485 11.6277 16.0485C12.2789 16.0604 12.9187 15.8743 13.4651 15.514C14.0116 15.1537 14.4397 14.6357 14.6948 14.0264H16.9698C16.6121 15.0018 15.9992 15.8594 15.1972 16.5065C14.3953 17.1536 13.4347 17.5657 12.4193 17.6982C11.4039 17.8307 10.3721 17.6787 9.43548 17.2585C8.49882 16.8383 7.69282 16.1659 7.10448 15.314C6.51615 14.462 6.16784 13.4628 6.09715 12.4242C6.02647 11.3856 6.2361 10.3471 6.70341 9.42086C7.17072 8.49458 7.87795 7.71571 8.74876 7.16831C9.61957 6.62092 10.6209 6.3258 11.6446 6.31482L11.6614 6.34053ZM23.8116 6.34053C24.5727 6.32234 25.3298 6.45767 26.0391 6.73869C26.7485 7.01972 27.3961 7.44086 27.9445 7.97782C28.4929 8.51478 28.9312 9.1569 29.2342 9.86711C29.5372 10.5773 29.6988 11.3415 29.7098 12.1156C29.6471 13.6547 29.0004 15.1093 27.9054 16.1738C26.8105 17.2383 25.3525 17.8299 23.8377 17.8243C22.3228 17.8188 20.8691 17.2165 19.7817 16.1441C18.6943 15.0716 18.0579 13.6123 18.0061 12.0728C18.0393 10.5333 18.6669 9.06901 19.7533 7.99636C20.8396 6.92371 22.2974 6.3289 23.8116 6.34053ZM73.8616 6.34053C74.6192 6.32806 75.3717 6.4676 76.0762 6.75119C76.7807 7.03479 77.4233 7.45686 77.9672 7.99325C78.5111 8.52964 78.9457 9.16984 79.246 9.8772C79.5464 10.5846 79.7067 11.3452 79.7176 12.1156C79.655 13.6547 79.0083 15.1093 77.9133 16.1738C76.8184 17.2383 75.3604 17.8299 73.8455 17.8243C72.3307 17.8188 70.877 17.2165 69.7896 16.1441C68.7022 15.0716 68.0658 13.6123 68.014 12.0728C68.0472 10.5258 68.6806 9.055 69.7761 7.98114C70.8716 6.90728 72.3402 6.31754 73.8616 6.34053ZM43.326 6.34053C44.0803 6.28462 44.8351 6.44044 45.5082 6.79099C46.1813 7.14154 46.7468 7.67335 47.143 8.3284C47.5696 9.15714 47.7786 10.0839 47.7497 11.0188V17.6679H45.719V11.533C45.719 10.599 45.601 8.23413 43.1912 8.23413C40.5876 8.23413 40.6635 10.599 40.6129 11.5158V17.6679H38.5738V11.533C38.6646 10.7471 38.5083 9.95222 38.1273 9.26234C37.9083 8.92788 37.6074 8.65716 37.2543 8.47687C36.9012 8.29658 36.508 8.21292 36.1135 8.23413C33.5183 8.23413 33.434 10.539 33.4256 11.4301V17.6679H31.3949V6.64043H33.2571V7.83142C33.6115 7.3364 34.0831 6.94027 34.628 6.67968C35.1729 6.41908 35.7737 6.30244 36.3747 6.34053C37.0489 6.30778 37.7192 6.46285 38.3131 6.789C38.9071 7.11516 39.4022 7.60002 39.745 8.1913C40.1109 7.56208 40.647 7.05307 41.2894 6.72494C41.9318 6.39681 42.6533 6.26338 43.3682 6.34053H43.326ZM61.9389 6.34053C62.6932 6.28462 63.448 6.44044 64.1211 6.79099C64.7942 7.14154 65.3597 7.67335 65.7559 8.3284C66.1825 9.15714 66.3915 10.0839 66.3625 11.0188V17.6679H64.3319V11.533C64.3319 10.599 64.2139 8.23413 61.8041 8.23413C59.2089 8.23413 59.2763 10.599 59.2258 11.5158V17.6679H57.1867V11.533C57.2775 10.7471 57.1212 9.95222 56.7401 9.26234C56.5212 8.92788 56.2203 8.65716 55.8672 8.47687C55.5141 8.29658 55.1209 8.21292 54.7263 8.23413C52.1986 8.23413 52.0553 10.3848 52.0469 11.3273V17.6679H50.0162V6.64043H51.8952V7.83142C52.2497 7.3364 52.7212 6.94027 53.2661 6.67968C53.8111 6.41908 54.4118 6.30244 55.0128 6.34053C55.6871 6.30778 56.3573 6.46285 56.9512 6.789C57.5452 7.11516 58.0403 7.60002 58.3832 8.1913C58.7415 7.57895 59.2615 7.08096 59.884 6.75383C60.5065 6.42671 61.2067 6.28353 61.9052 6.34053H61.9389ZM86.4837 6.34053C87.2352 6.30747 87.9825 6.47134 88.6538 6.81643C89.3251 7.16153 89.898 7.67625 90.3174 8.31124C90.7995 9.17105 91.0386 10.1496 91.0084 11.1388V17.6679H88.9693V11.6701C88.9693 10.8132 88.9693 8.24271 86.273 8.24271C84.5878 8.24271 83.4166 9.45085 83.4166 11.6701V17.6679H81.3775V6.64043H83.2734V7.78001H83.3155C83.6748 7.31701 84.1333 6.94356 84.656 6.68815C85.1788 6.43274 85.752 6.30212 86.332 6.30625L86.4837 6.34053ZM23.8116 8.23413C23.0496 8.22905 22.3032 8.45452 21.6675 8.88188C21.0318 9.30925 20.5354 9.91919 20.2415 10.6342C19.9476 11.3492 19.8694 12.1369 20.0168 12.8972C20.1642 13.6575 20.5307 14.356 21.0696 14.904C21.6084 15.452 22.2953 15.8246 23.043 15.9746C23.7907 16.1245 24.5653 16.045 25.2684 15.7461C25.9715 15.4472 26.5713 14.9424 26.9916 14.2959C27.4118 13.6495 27.6336 12.8905 27.6286 12.1156C27.6286 11.0862 27.2264 10.0989 26.5106 9.37099C25.7948 8.64307 24.8239 8.23413 23.8116 8.23413ZM73.8616 8.23413C73.0996 8.22905 72.3532 8.45452 71.7175 8.88188C71.0818 9.30925 70.5854 9.91919 70.2915 10.6342C69.9976 11.3492 69.9194 12.1369 70.0668 12.8972C70.2143 13.6575 70.5807 14.356 71.1196 14.904C71.6584 15.452 72.3454 15.8246 73.093 15.9746C73.8407 16.1245 74.6153 16.045 75.3184 15.7461C76.0215 15.4472 76.6213 14.9424 77.0416 14.2959C77.4618 13.6495 77.6836 12.8905 77.6786 12.1156C77.6786 11.0862 77.2764 10.0989 76.5606 9.37099C75.8448 8.64307 74.8739 8.23413 73.8616 8.23413Z"
              fill="#979BBA"/>
        <g clip-path="url(#clip1_3764_2339)">
            <path fill-rule="evenodd" clip-rule="evenodd"
                  d="M11.6446 6.34092C12.8324 6.33246 13.9913 6.71275 14.9503 7.42559C15.9092 8.13843 16.6172 9.14602 16.9698 10.2995H14.7116C14.4684 9.68119 14.0469 9.1522 13.5025 8.7821C12.9581 8.412 12.3162 8.21811 11.6614 8.22595C9.04096 8.22595 8.09726 10.4623 8.09726 12.1331C8.09726 14.0439 9.29373 16.0489 11.6193 16.0489C12.273 16.063 12.9159 15.8769 13.4643 15.5148C14.0127 15.1527 14.4415 14.6312 14.6948 14.0182H16.9698C16.6121 14.9937 15.9992 15.8512 15.1972 16.4983C14.3953 17.1454 13.4347 17.5575 12.4193 17.69C11.4039 17.8226 10.3721 17.6705 9.43548 17.2503C8.49882 16.8301 7.69282 16.1578 7.10448 15.3058C6.51615 14.4538 6.16784 13.4546 6.09715 12.416C6.02647 11.3774 6.2361 10.3389 6.70341 9.41267C7.17072 8.4864 7.87795 7.70753 8.74876 7.16013C9.61957 6.61273 10.6209 6.31762 11.6446 6.30664V6.34092Z"
                  fill="#979BBA"/>
        </g>
        <path d="M17.0793 22.2007C15.4164 23.1082 13.5571 23.5795 11.6699 23.5716C10.1861 23.5823 8.71522 23.2915 7.34353 22.7162C5.97183 22.1409 4.72698 21.2927 3.68209 20.2214C1.58821 18.0142 0.418121 15.0669 0.418121 12C0.418121 8.93317 1.58821 5.98592 3.68209 3.77869C5.40582 2.02587 7.63941 0.884976 10.0513 0.525333C12.4632 0.16569 14.9249 0.606481 17.0709 1.78227L17.2815 1.41384C15.0541 0.19249 12.4982 -0.264636 9.99464 0.110538C7.49103 0.485712 5.17353 1.67311 3.38719 3.49594C1.21417 5.78224 -0.000488281 8.83755 -0.000488281 12.0172C-0.000488281 15.1968 1.21417 18.2521 3.38719 20.5384C4.47032 21.6501 5.76095 22.5304 7.18329 23.1278C8.60563 23.7252 10.131 24.0276 11.6699 24.0172C13.6316 24.0267 15.5641 23.5347 17.29 22.5863L17.0793 22.2007Z"
              fill="#979BBA"/>
        <path d="M16.0683 20.4099C14.685 21.184 13.1309 21.5879 11.552 21.5838C10.2689 21.6067 8.99595 21.3484 7.81973 20.8265C6.64351 20.3046 5.59157 19.5313 4.73541 18.5592C3.15065 16.7521 2.27231 14.417 2.26662 11.9958C2.24312 9.45427 3.21294 7.00723 4.96292 5.19252C6.39773 3.74535 8.25353 2.80769 10.2544 2.51901C12.2552 2.23033 14.2942 2.60602 16.0683 3.59022L16.4896 2.85335C14.5578 1.76844 12.3324 1.34904 10.1466 1.65797C7.96086 1.96689 5.93229 2.98753 4.36468 4.56702C2.45984 6.54185 1.4024 9.20395 1.42403 11.9701C1.4334 14.6015 2.38605 17.1392 4.10347 19.1075C5.04041 20.1682 6.19008 21.0122 7.47497 21.5828C8.75987 22.1533 10.1501 22.4371 11.552 22.4149C13.2781 22.4166 14.9766 21.9745 16.4896 21.1297L16.0683 20.4099Z"
              fill="#979BBA"/>
        <path d="M14.9391 18.4307C13.9036 18.9979 12.7449 19.2925 11.5688 19.2875C10.6007 19.3039 9.6406 19.1081 8.75367 18.7133C7.86675 18.3185 7.07386 17.7341 6.42896 16.9998C5.23253 15.6191 4.56807 13.8446 4.5584 12.0044C4.54512 10.0844 5.27795 8.23672 6.59747 6.86337C7.24924 6.19288 8.02631 5.66175 8.88296 5.30123C9.73961 4.94071 10.6585 4.75811 11.5856 4.76414C12.7619 4.75803 13.9209 5.05267 14.956 5.62097L15.5879 4.50707C14.3697 3.84496 13.009 3.50052 11.6278 3.50458C10.5312 3.49707 9.44438 3.71308 8.43134 4.13986C7.4183 4.56665 6.49963 5.19554 5.7296 5.98941C4.17195 7.60918 3.30853 9.79034 3.32821 12.0558C3.33205 14.213 4.11119 16.2943 5.51896 17.908C6.28226 18.7777 7.22053 19.4704 8.27016 19.939C9.3198 20.4077 10.4563 20.6413 11.6025 20.6242C12.9898 20.6252 14.3559 20.2779 15.5795 19.6131L14.9391 18.4307Z"
              fill="#979BBA"/>
    </g>
    <defs>
        <clipPath id="clip0_3764_2339">
            <rect width="91" height="24" fill="white"/>
        </clipPath>
        <clipPath id="clip1_3764_2339">
            <rect width="10.9031" height="11.6016" fill="white" transform="translate(6.06665 6.34082)"/>
        </clipPath>
    </defs>
</svg>
