<svg width="20" height="28" viewBox="0 0 20 28" fill="none" xmlns="http://www.w3.org/2000/svg">
    <path fill-rule="evenodd" clip-rule="evenodd"
          d="M20 9.75862L17.9 11.8079L19.95 13.8572L17.9 15.8578L20 17.8583L10 27.6169L0 17.8583L2.05 15.8578L0 13.8572L2.1 11.8079L0 9.75862L10 0L20 9.75862ZM10 1.31741L1.3 9.75862L2.7 11.1248L10 4.04983L17.25 11.1248L18.65 9.75862L10 1.31741ZM10 18.2486L5.5 13.8572L10 9.46586L14.5 13.8572L10 18.2486ZM16.55 15.809L15.15 14.4428L10 19.5172L4.8 14.4916L3.4 15.8578L10 22.2984L16.55 15.809ZM10 8.09966L4.8 13.1741L3.4 11.8079L10 5.36724L16.6 11.8079L15.15 13.1741L10 8.09966ZM2.7 12.4422L1.3 13.8084L2.7 15.1747L4.1 13.8084L2.7 12.4422ZM18.65 17.8583L10 26.3483L1.3 17.8583L2.7 16.4921L9.95 23.5671L17.2 16.4921L18.65 17.8583ZM17.25 12.4422L15.85 13.8084L17.25 15.1747L18.65 13.8084L17.25 12.4422Z"
          fill="#979BBA"/>
</svg>
