<svg width="147" height="46" viewBox="0 0 147 46" fill="none" xmlns="http://www.w3.org/2000/svg">
    <g clip-path="url(#clip0_2972_36428)">
        <path fill-rule="evenodd" clip-rule="evenodd"
              d="M22.6063 14.2206C24.4737 14.2055 26.2963 14.788 27.8039 15.8817C29.3115 16.9754 30.4238 18.5221 30.976 20.2925H27.4136C27.0254 19.3466 26.3592 18.5386 25.5018 17.9736C24.6444 17.4087 23.6354 17.113 22.6063 17.1251C18.4877 17.1251 17.0177 20.5423 17.0177 23.1051C17.0177 26.036 18.885 29.1246 22.5533 29.1246C23.5783 29.1418 24.5849 28.8544 25.444 28.2993C26.303 27.7442 26.9751 26.9469 27.3739 26.0097H30.9496C30.3874 27.506 29.4241 28.8214 28.1636 29.814C26.9032 30.8066 25.3935 31.4386 23.7975 31.6419C22.2015 31.8452 20.5799 31.612 19.1077 30.9675C17.6356 30.323 16.3687 29.2916 15.444 27.9848C14.5193 26.6779 13.9719 25.1452 13.8608 23.5522C13.7497 21.9591 14.0792 20.3662 14.8137 18.9454C15.5482 17.5246 16.6597 16.3299 18.0284 15.4903C19.3971 14.6507 20.9709 14.198 22.5798 14.1812L22.6063 14.2206ZM41.7031 14.2206C42.8993 14.1927 44.0892 14.4002 45.2041 14.8313C46.319 15.2623 47.3369 15.9084 48.1988 16.732C49.0607 17.5556 49.7497 18.5406 50.2259 19.6299C50.7021 20.7193 50.9562 21.8915 50.9733 23.0788C50.8749 25.4396 49.8584 27.6708 48.1375 29.3036C46.4165 30.9364 44.1249 31.8439 41.744 31.8354C39.3631 31.8269 37.0782 30.903 35.3691 29.258C33.66 27.6129 32.6598 25.3746 32.5785 23.0131C32.6306 20.6518 33.617 18.4058 35.3245 16.7604C37.0319 15.1151 39.3232 14.2027 41.7031 14.2206V14.2206ZM120.368 14.2206C121.559 14.2014 122.741 14.4155 123.849 14.8505C124.956 15.2855 125.966 15.9329 126.821 16.7557C127.676 17.5784 128.359 18.5604 128.831 19.6454C129.303 20.7304 129.555 21.8971 129.572 23.0788C129.474 25.4396 128.457 27.6708 126.736 29.3036C125.015 30.9364 122.724 31.8439 120.343 31.8354C117.962 31.8269 115.677 30.903 113.968 29.258C112.259 27.6129 111.258 25.3746 111.177 23.0131C111.229 20.6403 112.225 18.3843 113.947 16.7371C115.668 15.0899 117.977 14.1853 120.368 14.2206V14.2206ZM72.3744 14.2206C73.5599 14.1348 74.7463 14.3738 75.8042 14.9115C76.8621 15.4492 77.7509 16.2649 78.3736 17.2697C79.0442 18.5409 79.3726 19.9624 79.3271 21.3966V31.5954H76.1355V22.1851C76.1355 20.7525 75.9501 17.1251 72.1625 17.1251C68.0704 17.1251 68.1895 20.7526 68.1101 22.1589V31.5954H64.9052V22.1851C65.0497 20.9839 64.8038 19.7682 64.2033 18.7154C63.8617 18.199 63.3898 17.7805 62.8344 17.5014C62.2791 17.2224 61.6598 17.0927 61.0382 17.1251C56.9593 17.1251 56.8268 20.6605 56.8136 22.0274V31.5954H53.622V14.6805H56.5487V16.5074C57.1059 15.7481 57.847 15.1405 58.7034 14.7408C59.5599 14.3411 60.5041 14.1622 61.4487 14.2206C62.5085 14.1704 63.5619 14.4082 64.4954 14.9085C65.429 15.4088 66.2071 16.1525 66.746 17.0594C67.3211 16.0943 68.1637 15.3135 69.1733 14.8102C70.183 14.3069 71.3171 14.1022 72.4406 14.2206H72.3744ZM101.629 14.2206C102.814 14.1348 104.001 14.3738 105.059 14.9115C106.116 15.4492 107.005 16.2649 107.628 17.2697C108.299 18.5409 108.627 19.9624 108.581 21.3966V31.5954H105.39V22.1851C105.39 20.7525 105.204 17.1251 101.417 17.1251C97.3379 17.1251 97.4439 20.7526 97.3644 22.1589V31.5954H94.1595V22.1851C94.304 20.9839 94.0581 19.7682 93.4576 18.7154C93.116 18.199 92.6441 17.7805 92.0887 17.5014C91.5334 17.2224 90.9141 17.0927 90.2925 17.1251C86.3195 17.1251 86.0944 20.424 86.0812 21.8828V31.5954H82.8895V14.6805H85.8428V16.5074C86.3999 15.7481 87.141 15.1405 87.9975 14.7408C88.854 14.3411 89.7982 14.1622 90.7428 14.2206C91.8025 14.1704 92.856 14.4082 93.7895 14.9085C94.723 15.4088 95.5012 16.1525 96.0401 17.0594C96.6033 16.1202 97.4205 15.3563 98.3989 14.8545C99.3774 14.3528 100.478 14.1332 101.576 14.2206H101.629ZM140.206 14.2206C141.388 14.1699 142.562 14.4212 143.617 14.9506C144.672 15.4799 145.573 16.2694 146.232 17.2434C146.99 18.5623 147.365 20.0632 147.318 21.5806V31.5954H144.113V22.3954C144.113 21.0812 144.113 17.1383 139.875 17.1383C137.227 17.1383 135.386 18.9914 135.386 22.3954V31.5954H132.181V14.6805H135.161V16.4812H135.227C135.792 15.771 136.512 15.1981 137.334 14.8064C138.155 14.4146 139.056 14.2143 139.968 14.2206H140.206ZM41.7031 17.1251C40.5016 17.1147 39.3242 17.4595 38.3209 18.1154C37.3175 18.7714 36.5336 19.7089 36.069 20.8085C35.6044 21.9081 35.4801 23.1201 35.7119 24.2901C35.9437 25.4601 36.5212 26.5352 37.3708 27.3783C38.2204 28.2215 39.3036 28.7945 40.4825 29.0246C41.6615 29.2547 42.8827 29.1313 43.9907 28.6702C45.0987 28.2091 46.0434 27.4311 46.7044 26.4354C47.3653 25.4396 47.7127 24.2712 47.7023 23.0788C47.7023 21.4998 47.0702 19.9854 45.9451 18.8689C44.8201 17.7524 43.2941 17.1251 41.7031 17.1251V17.1251ZM120.368 17.1251C119.166 17.1147 117.989 17.4595 116.986 18.1154C115.982 18.7714 115.198 19.7089 114.734 20.8085C114.269 21.9081 114.145 23.1201 114.377 24.2901C114.609 25.4601 115.186 26.5352 116.036 27.3783C116.885 28.2215 117.968 28.7945 119.147 29.0246C120.326 29.2547 121.548 29.1313 122.656 28.6702C123.764 28.2091 124.708 27.4311 125.369 26.4354C126.03 25.4396 126.378 24.2712 126.367 23.0788C126.367 21.4998 125.735 19.9854 124.61 18.8689C123.485 17.7524 121.959 17.1251 120.368 17.1251V17.1251Z"
              fill="#001A36"/>
        <path d="M30.6449 37.3387C28.2294 38.65 25.5185 39.3328 22.7652 39.3233C20.5237 39.3715 18.2982 38.9384 16.241 38.0537C14.1839 37.169 12.3436 35.8536 10.8463 34.1976C8.08969 31.1175 6.55942 27.1456 6.54223 23.0261C6.50656 18.7056 8.19698 14.547 11.2436 11.4604C13.744 9.00066 16.9775 7.40726 20.4633 6.91711C23.9492 6.42696 27.5014 7.06622 30.5919 8.73985L31.3203 7.42557C27.9429 5.57193 24.0499 4.85799 20.228 5.39137C16.4061 5.92475 12.8624 7.67654 10.1311 10.3827C6.80924 13.74 4.96591 18.2685 5.00601 22.9736C5.02346 27.4513 6.68557 31.7689 9.68088 35.1176C11.3106 36.9203 13.3117 38.3543 15.5486 39.3225C17.7855 40.2908 20.2059 40.7707 22.646 40.7296C25.6993 40.7674 28.7104 40.0203 31.3866 38.561L30.6449 37.3387Z"
              fill="#001A36"/>
        <path d="M28.7379 33.9745C26.9489 34.9211 24.9515 35.4132 22.9241 35.407C21.2312 35.4331 19.5527 35.0941 18.0047 34.4133C16.4567 33.7326 15.0762 32.7263 13.9585 31.4641C11.8705 29.1201 10.7126 26.1025 10.7006 22.9739C10.6669 19.6928 11.9429 16.5318 14.2498 14.1813C16.1283 12.3516 18.545 11.1627 21.1498 10.787C23.7546 10.4113 26.4123 10.8682 28.7379 12.0916L29.8371 10.199C27.0773 8.72337 23.9114 8.17057 20.8098 8.62281C17.7082 9.07505 14.8364 10.5082 12.6209 12.7093C9.90549 15.4634 8.40065 19.1734 8.43604 23.0264C8.4472 26.6926 9.803 30.2292 12.2501 32.9756C13.5777 34.4556 15.2115 35.6339 17.0399 36.43C18.8683 37.2261 20.8483 37.6214 22.8447 37.5888C25.2569 37.6036 27.6342 37.0161 29.7577 35.8802L28.7379 33.9745Z"
              fill="#001A36"/>
    </g>
    <defs>
        <clipPath id="clip0_2972_36428">
            <rect width="147" height="46" fill="white"/>
        </clipPath>
    </defs>
</svg>
