<svg width="111" height="35" viewBox="0 0 111 35" fill="none" xmlns="http://www.w3.org/2000/svg">
    <path d="M21.2543 25.3167C20.0202 25.9676 18.6446 26.3039 17.2493 26.2959C16.0878 26.3176 14.9352 26.0882 13.8705 25.6235C12.8058 25.1587 11.854 24.4695 11.0802 23.603C9.64783 21.9803 8.85433 19.8921 8.84754 17.7277C8.82387 15.4522 9.70024 13.2595 11.2858 11.6271C12.5761 10.3527 14.2383 9.52156 16.032 9.254C17.8257 8.98644 19.6581 9.29625 21.2641 10.1387L21.4404 10.2268L22.4196 8.53273L22.2336 8.43483C20.7081 7.61423 19.001 7.18997 17.2689 7.201C15.8978 7.19029 14.5386 7.45523 13.272 7.98006C12.0053 8.50489 10.857 9.27891 9.89532 10.2562C7.94524 12.2515 6.8644 14.9378 6.88909 17.7277C6.90017 20.3781 7.8707 22.9348 9.62113 24.925C10.578 25.995 11.7531 26.8476 13.0673 27.4253C14.3814 28.003 15.8041 28.2924 17.2395 28.274V28.0683V28.274C18.9716 28.2746 20.677 27.8474 22.2042 27.0303L22.3902 26.9324L21.411 25.2285L21.2543 25.3167Z" fill="#6E7B8E"/>
    <path d="M17.1703 30.1835C15.4747 30.211 13.7929 29.8758 12.2374 29.2003C10.682 28.5248 9.28895 27.5245 8.15166 26.2666C6.0655 23.9175 4.90631 20.889 4.89082 17.7474C4.87241 14.455 6.15321 11.2882 8.45522 8.93432C10.3395 7.06581 12.7725 5.84953 15.3979 5.46364C18.0234 5.07775 20.7034 5.54252 23.0457 6.78981L22.6736 7.43608C20.4725 6.26201 17.9527 5.82529 15.4849 6.19017C13.0171 6.55505 10.7315 7.70228 8.9644 9.46308C6.78997 11.6814 5.58238 14.6705 5.60567 17.7767C5.61691 20.7369 6.70656 23.5916 8.67065 25.8064C9.73662 26.994 11.0456 27.9383 12.5088 28.5753C13.972 29.2123 15.5552 29.527 17.1507 29.4981C19.0654 29.4987 20.9513 29.0314 22.6442 28.1369L23.0163 28.7832C21.2085 29.7476 19.1899 30.2489 17.1409 30.2422L17.1703 30.1835Z" fill="#AAB5C1"/>
    <path d="M17.3953 32.23C15.4051 32.2566 13.4321 31.858 11.6083 31.061C9.78455 30.2639 8.15193 29.0867 6.81962 27.608C4.37269 24.8471 3.01509 21.2895 3.00065 17.6003C2.96423 13.726 4.46829 9.99578 7.18196 7.23029C9.36258 5.06688 12.1707 3.64745 15.2058 3.17443C18.2409 2.70141 21.3478 3.19895 24.0834 4.59617L23.8679 4.96828C21.2162 3.61387 18.2044 3.13174 15.2625 3.59071C12.3205 4.04968 9.59866 5.42634 7.48552 7.52411C4.84862 10.2113 3.38686 13.8356 3.42171 17.6003C3.4305 21.1859 4.75053 24.6444 7.13298 27.324C8.42448 28.7657 10.0112 29.9125 11.7854 30.6864C13.5596 31.4603 15.4796 31.8431 17.4149 31.8089C19.6577 31.8083 21.8687 31.2782 23.8679 30.2617L24.0834 30.624C22.0184 31.6781 19.7333 32.2284 17.4149 32.23H17.3953Z" fill="#D4DFE8"/>
    <path d="M17.5425 10.7261C18.5464 10.7056 19.5429 10.9004 20.4651 11.2974C21.3874 11.6943 22.2139 12.2842 22.8891 13.0273L20.9306 15.064C20.5008 14.5963 19.9764 14.2252 19.3923 13.9754C18.8082 13.7255 18.1777 13.6026 17.5425 13.6148C16.4699 13.6667 15.4583 14.1294 14.7175 14.907C13.9767 15.6845 13.5635 16.7173 13.5635 17.7912C13.5635 18.8651 13.9767 19.8979 14.7175 20.6754C15.4583 21.4529 16.4699 21.9157 17.5425 21.9676C18.1786 21.9798 18.81 21.8559 19.3943 21.6043C19.9786 21.3527 20.5024 20.9791 20.9306 20.5085L22.8891 22.5453C22.1051 23.4589 21.1034 24.16 19.9766 24.5837C18.8497 25.0075 17.6342 25.1402 16.4425 24.9696C15.2508 24.799 14.1214 24.3306 13.1587 23.6077C12.196 22.8848 11.4312 21.9308 10.9351 20.834C10.4389 19.7371 10.2274 18.5328 10.3201 17.3326C10.4128 16.1323 10.8067 14.9747 11.4654 13.9671C12.1241 12.9594 13.0263 12.1341 14.0886 11.5676C15.1508 11.0011 16.3388 10.7117 17.5425 10.7261Z" fill="#121A2F"/>
    <path d="M30.5764 10.7554C31.9633 10.7958 33.3076 11.244 34.4412 12.0439C35.5749 12.8438 36.4478 13.9601 36.9507 15.2532C37.4537 16.5463 37.5645 17.959 37.2693 19.3147C36.9741 20.6704 36.286 21.9091 35.2909 22.876C34.2958 23.843 33.0379 24.4952 31.6742 24.7514C30.3106 25.0076 28.9017 24.8563 27.6236 24.3164C26.3454 23.7765 25.2547 22.872 24.4876 21.7158C23.7205 20.5597 23.3111 19.203 23.3105 17.8156C23.3155 16.8724 23.5083 15.9396 23.8778 15.0718C24.2472 14.204 24.7859 13.4185 25.4624 12.7612C26.1388 12.1039 26.9394 11.588 27.8175 11.2436C28.6956 10.8992 29.6335 10.7332 30.5764 10.7554ZM30.5764 21.9871C31.4062 21.9987 32.2207 21.7632 32.9162 21.3105C33.6117 20.8578 34.1568 20.2083 34.482 19.4447C34.8072 18.6812 34.8979 17.8382 34.7424 17.023C34.587 16.2078 34.1925 15.4573 33.6092 14.8671C33.0258 14.2768 32.28 13.8735 31.4667 13.7084C30.6534 13.5434 29.8094 13.6241 29.0421 13.9402C28.2748 14.2564 27.6189 14.7938 27.158 15.4839C26.6971 16.174 26.452 16.9857 26.4539 17.8156C26.442 18.3625 26.5402 18.9062 26.7426 19.4144C26.9449 19.9227 27.2474 20.3851 27.6319 20.7742C28.0164 21.1633 28.4752 21.4711 28.981 21.6795C29.4868 21.8879 30.0294 21.9924 30.5764 21.9871Z" fill="#121A2F"/>
    <path d="M39.3789 11.1572H42.532V13.0569C42.8894 12.3889 43.4249 11.8329 44.0789 11.4505C44.7329 11.0682 45.4801 10.8744 46.2375 10.8906C46.995 10.9068 47.7331 11.1324 48.3702 11.5424C49.0072 11.9524 49.5183 12.5309 49.8468 13.2136C50.6694 11.5489 52.2851 10.8928 54.2142 10.8928C57.1519 10.8928 58.8361 12.9491 58.8361 16.2295V24.4747H55.6634V16.6409C55.6634 14.8391 54.8213 13.7032 53.2839 13.7032C51.7465 13.7032 50.64 14.9761 50.64 16.7975V24.4649H47.4967V16.631C47.4967 14.8293 46.6546 13.6934 45.1172 13.6934C43.5798 13.6934 42.532 14.9663 42.532 16.7877V24.4551H39.3789V11.1572Z" fill="#121A2F"/>
    <path d="M60.8242 11.157H63.9675V13.0567C64.3265 12.3891 64.863 11.8337 65.5177 11.4518C66.1725 11.0699 66.92 10.8763 67.6778 10.8925C68.4356 10.9088 69.1742 11.1341 69.812 11.5436C70.4498 11.9532 70.9621 12.531 71.2921 13.2134C72.1147 11.5487 73.7206 10.8926 75.6497 10.8926C78.5874 10.8926 80.2814 12.9489 80.2814 16.2293V24.4745H77.1087V16.6407C77.1087 14.8389 76.2568 13.703 74.7292 13.703C73.2016 13.703 72.0853 14.9759 72.0853 16.7973V24.4647H68.942V16.6309C68.942 14.8291 68.0901 13.6932 66.5625 13.6932C65.0349 13.6932 63.9675 14.9661 63.9675 16.7875V24.4549H60.8242V11.157Z" fill="#121A2F"/>
    <path d="M88.9573 10.7556C90.3437 10.7979 91.687 11.2477 92.8193 12.0487C93.9517 12.8498 94.823 13.9667 95.3245 15.2599C95.826 16.5531 95.9354 17.9655 95.6391 19.3205C95.3429 20.6756 94.654 21.9134 93.6586 22.8793C92.6632 23.8453 91.4053 24.4966 90.0419 24.752C88.6786 25.0074 87.2702 24.8556 85.9926 24.3155C84.715 23.7753 83.6248 22.8709 82.8582 21.7149C82.0915 20.559 81.6823 19.2029 81.6816 17.8158C81.6866 16.8718 81.8797 15.9382 82.2498 15.0697C82.6199 14.2012 83.1594 13.4154 83.8369 12.7579C84.5144 12.1005 85.3162 11.5848 86.1954 11.241C87.0746 10.8972 88.0135 10.7322 88.9573 10.7556ZM88.9573 21.9873C89.7871 21.999 90.6016 21.7635 91.2971 21.3107C91.9926 20.858 92.5377 20.2085 92.8629 19.445C93.1881 18.6815 93.2788 17.8385 93.1233 17.0233C92.9679 16.2081 92.5734 15.4576 91.99 14.8673C91.4067 14.277 90.6609 13.8737 89.8476 13.7086C89.0343 13.5436 88.1903 13.6243 87.423 13.9405C86.6557 14.2567 85.9998 14.794 85.5389 15.4842C85.078 16.1743 84.8329 16.9859 84.8347 17.8158C84.8243 18.3623 84.9234 18.9055 85.1262 19.4131C85.3291 19.9208 85.6316 20.3826 86.0158 20.7715C86.4001 21.1603 86.8583 21.4682 87.3635 21.677C87.8687 21.8858 88.4106 21.9913 88.9573 21.9873Z" fill="#121A2F"/>
    <path d="M97.7598 11.1568H100.903V13.0565C101.306 12.3524 101.899 11.7759 102.614 11.3931C103.329 11.0104 104.138 10.8369 104.947 10.8925C108.149 10.8925 110 12.9488 110 16.2292V24.4743H106.827V16.6405C106.867 16.2543 106.821 15.8642 106.694 15.4973C106.568 15.1304 106.362 14.7955 106.093 14.516C105.824 14.2364 105.497 14.0189 105.135 13.8784C104.773 13.738 104.385 13.6781 103.997 13.7028C103.585 13.6802 103.173 13.7447 102.787 13.8922C102.401 14.0397 102.051 14.2668 101.759 14.5588C101.467 14.8508 101.24 15.2011 101.092 15.5868C100.945 15.9724 100.88 16.3849 100.903 16.7972V24.4645H97.7598V11.1568Z" fill="#121A2F"/>
</svg>
