<svg width="353" height="306" viewBox="0 0 353 306" fill="none" xmlns="http://www.w3.org/2000/svg">
<path d="M103.056 194.149C104.406 211.891 104.562 229.703 103.524 247.466C103.547 247.954 103.416 248.437 103.15 248.847C102.755 249.242 102.232 249.483 101.675 249.526L96.9943 250.438C96.5811 250.604 96.1201 250.604 95.707 250.438C95.3476 250.139 95.1206 249.71 95.075 249.245C92.2722 236.907 91.162 224.246 91.7749 211.609C92.4086 205.868 92.2905 200.07 91.4238 194.36C94.1956 192.568 97.5141 191.822 100.786 192.253" fill="white"/>
<path d="M101.886 194.149C102.619 203.948 103.002 213.778 103.033 223.639C103.033 228.555 103.033 233.47 102.775 238.385C102.775 240.663 102.682 242.933 102.495 245.196C102.495 246.53 102.495 247.77 101.277 248.519C100.2 248.898 99.0717 249.111 97.9305 249.151C95.9879 249.151 95.8709 248.94 95.59 247.255C95.3091 245.991 95.0517 244.704 94.8176 243.44C94.3495 240.959 93.975 238.478 93.6474 235.997C93.0357 231.206 92.6685 226.386 92.5473 221.556C92.3367 212.428 94.1155 203.019 92.3133 194.008L91.8218 195.202C94.4743 193.57 97.5986 192.878 100.692 193.236C102.05 193.376 102.026 191.27 100.692 191.13C97.2091 190.79 93.7114 191.613 90.7451 193.47C90.3494 193.727 90.1611 194.207 90.277 194.664C91.069 200.287 91.1712 205.985 90.5813 211.633C90.3043 217.194 90.3668 222.767 90.7685 228.32C91.1452 233.604 91.8172 238.863 92.7814 244.072C93.4133 247.443 93.1793 252.194 97.6028 251.445C99.3348 251.164 102.284 251.141 103.641 249.853C104.999 248.566 104.554 247.255 104.624 245.851C104.929 240.187 105.116 234.499 105.186 228.835C105.311 217.289 104.936 205.758 104.063 194.242C104.063 192.908 101.863 192.885 101.956 194.242L101.886 194.149Z" fill="black"/>
<path d="M73.2847 194.008C71.2959 211.683 70.4749 229.471 70.8271 247.255C70.7858 247.746 70.9005 248.237 71.1548 248.659C71.5424 249.071 72.0663 249.329 72.6293 249.385L77.3104 250.485C77.7235 250.65 78.1845 250.65 78.5977 250.485C78.9753 250.205 79.2208 249.781 79.2764 249.314C82.5239 237.101 84.0987 224.503 83.9575 211.866C83.5201 206.106 83.8506 200.313 84.9405 194.64C82.1942 192.778 78.8776 191.949 75.5784 192.299" fill="white"/>
<path d="M72.2314 194.008C70.9676 205.289 70.1874 216.601 69.8909 227.945C69.7271 233.633 69.7037 239.297 69.7739 244.984C69.7739 246.506 69.493 248.401 70.6633 249.665C71.8336 250.929 74.8996 251.116 76.655 251.467C80.8446 252.333 80.8446 248.027 81.5935 244.774C82.7685 239.608 83.6515 234.38 84.2383 229.115C84.8742 223.584 85.1712 218.019 85.1277 212.451C84.7238 206.599 85.0382 200.719 86.0639 194.944C86.1799 194.487 85.9916 194.007 85.5958 193.75C82.6834 191.831 79.2224 190.918 75.7422 191.152C74.3847 191.152 74.3847 193.352 75.7422 193.259C78.8474 193.034 81.9381 193.858 84.5192 195.599L84.0511 194.405C81.8978 203.346 83.3255 212.825 82.7638 221.93C82.4525 227.03 81.8586 232.109 80.985 237.143C80.5637 239.484 80.0956 241.824 79.5573 244.165C79.3671 245.456 79.0536 246.726 78.6211 247.957C78.0594 249.267 78.3402 249.408 76.7253 249.291C75.7623 249.164 74.8139 248.945 73.8932 248.635C72.2783 248.074 72.1846 247.629 71.9038 246.154C71.6579 243.515 71.6579 240.859 71.9038 238.22C71.9038 233.305 71.9038 228.366 72.208 223.475C72.5825 213.645 73.3549 203.814 74.4315 194.054C74.5954 192.697 72.4889 192.72 72.3251 194.054L72.2314 194.008Z" fill="black"/>
<path d="M105.935 249.782C106.326 250.512 106.587 251.304 106.707 252.123C108.182 253.059 115.882 254.651 118.597 257.998C119.758 259.342 119.758 261.334 118.597 262.679C117.872 263.568 97.392 263.919 94.2323 263.708C93.5274 263.731 92.8353 263.516 92.2663 263.1C91.8256 262.584 91.5486 261.948 91.4705 261.274C90.6747 257.647 90.0662 253.317 92.6407 250.648C93.8501 249.509 95.3338 248.703 96.9473 248.308C100.011 248.206 103.064 248.707 105.935 249.782Z" fill="white"/>
<path d="M105.022 250.321C105.561 251.14 105.35 252.474 106.169 253.106C106.9 253.535 107.688 253.858 108.51 254.066C111.006 254.8 113.416 255.805 115.695 257.062C116.865 257.787 118.316 258.864 118.316 260.385C118.311 260.906 118.165 261.415 117.895 261.86C118.106 261.672 117.708 261.86 117.521 261.86C116.046 262.094 114.572 262.164 113.097 262.258C108.416 262.515 103.922 262.632 99.3348 262.655C97.7901 262.655 96.2219 262.655 94.6538 262.655C94.2957 262.69 93.9352 262.69 93.5771 262.655C92.4537 262.421 92.4069 261.181 92.2196 260.315C91.839 258.682 91.6893 257.004 91.7749 255.33C92.0126 251.855 95.0168 249.227 98.4922 249.455C99.8592 249.554 101.219 249.733 102.565 249.993C103.15 250.11 103.758 250.227 104.344 250.391C104.554 250.391 105.186 250.719 105.093 250.625C106.052 251.585 107.433 250.087 106.567 249.127C105.887 248.607 105.078 248.283 104.227 248.191C102.889 247.895 101.538 247.668 100.177 247.512C97.3059 246.983 94.3498 247.793 92.1494 249.712C89.3642 252.24 89.4344 256.242 89.9961 259.683C90.2536 261.275 90.4174 263.451 91.9856 264.364C92.9517 264.808 94.0144 265.001 95.0751 264.926C99.7561 265.043 104.437 264.926 109.305 264.715C111.646 264.715 113.986 264.528 116.163 264.294C117.731 264.153 119.112 264.153 119.908 262.585C121.804 258.887 118.27 256.008 115.227 254.557C113.649 253.796 112.023 253.139 110.359 252.591C109.237 252.294 108.147 251.886 107.105 251.374L107.573 252.006C107.463 251.068 107.169 250.161 106.707 249.338C106.122 248.121 104.297 249.174 105.022 250.321Z" fill="black"/>
<path d="M81.2191 249.783C81.6099 250.512 81.8712 251.304 81.9915 252.123C83.4894 253.06 91.1663 254.651 93.8813 257.998C95.0423 259.342 95.0423 261.335 93.8813 262.679C93.1558 263.568 72.6762 263.92 69.5399 263.709C68.8278 263.731 68.1283 263.517 67.5504 263.1C67.1098 262.584 66.8328 261.949 66.7547 261.275C65.9589 257.647 65.3503 253.317 67.9249 250.649C69.1396 249.505 70.6322 248.698 72.2549 248.308C75.3109 248.205 78.3573 248.706 81.2191 249.783Z" fill="white"/>
<path d="M80.3062 250.321C80.8445 251.14 80.6573 252.474 81.4765 253.106C82.2036 253.543 82.9928 253.866 83.817 254.066C86.3048 254.805 88.7059 255.809 90.979 257.062C92.1493 257.787 93.6004 258.864 93.6004 260.385C93.6176 260.909 93.4703 261.424 93.1791 261.86C93.3898 261.672 93.0153 261.86 92.8046 261.86C91.3535 262.094 89.8556 262.164 88.381 262.258C83.7 262.515 79.2062 262.632 74.6187 262.655C73.074 262.655 71.5293 262.655 69.9377 262.655C69.5719 262.691 69.2035 262.691 68.8377 262.655C67.7376 262.421 67.6674 261.181 67.4802 260.315C67.1109 258.68 66.9613 257.004 67.0355 255.33C67.2854 251.851 70.2964 249.227 73.7762 249.455C75.1355 249.552 76.4877 249.732 77.8253 249.993C78.4338 250.11 79.0189 250.227 79.6041 250.391C80.1892 250.555 80.4467 250.719 80.353 250.625C80.7667 251.039 81.4373 251.039 81.851 250.625C82.2646 250.211 82.2646 249.541 81.851 249.127C81.1671 248.614 80.3596 248.291 79.5104 248.191C78.1734 247.895 76.8219 247.668 75.4613 247.512C72.5898 246.983 69.6338 247.793 67.4333 249.712C64.6481 252.24 64.7183 256.242 65.2801 259.683C65.5375 261.275 65.7248 263.451 67.2929 264.364C68.2511 264.807 69.3059 265 70.359 264.926C75.04 265.043 79.8615 264.926 84.5894 264.715C86.9299 264.715 89.2704 264.528 91.4471 264.294C93.0387 264.153 94.3962 264.153 95.192 262.585C97.0878 258.887 93.5536 256.008 90.5109 254.557C88.941 253.796 87.3225 253.139 85.666 252.591C84.5364 252.294 83.4388 251.887 82.3893 251.374L82.8808 252.006C82.7517 251.069 82.4501 250.165 81.9914 249.338C81.4063 248.121 79.6509 249.174 80.3062 250.321Z" fill="black"/>
<path d="M108.416 149.304C108.557 166.273 114.338 203.441 113.846 205.945C113.769 206.703 113.41 207.405 112.84 207.911C112.091 208.566 64.2738 206.085 62.3078 206.319C61.5362 206.483 60.7388 206.483 59.9672 206.319C59.2513 205.989 58.7498 205.32 58.6331 204.541C57.1118 199.087 67.9952 169.433 68.8612 151.294C79.651 149.094 108.416 149.304 108.416 149.304Z" fill="#C7CDFF"/>
<path d="M108.931 149.117C109.422 162.859 110.665 176.563 112.652 190.17C113.214 194.851 113.94 199.532 114.197 204.213C114.197 205.477 114.384 206.553 113.354 206.764C112.026 206.939 110.681 206.939 109.352 206.764C98.7964 206.553 88.2875 206.038 77.6849 205.617C73.4954 205.453 69.3058 205.243 65.0929 205.149C64.0877 205.219 63.0788 205.219 62.0736 205.149C58.9139 204.611 60.1076 200.913 60.482 198.783C63.4545 182.774 69.6803 167.396 70.5229 151.013L69.7505 152.042C77.8497 150.787 86.0367 150.184 94.2324 150.24C99.4752 150.1 104.726 150.037 109.984 150.053C110.566 150.053 111.037 149.581 111.037 149C111.037 148.418 110.566 147.947 109.984 147.947C96.5495 147.947 82.4362 147.502 69.1888 150.006C68.74 150.138 68.4279 150.545 68.4164 151.013C67.5972 166.998 61.5821 182.118 58.5628 197.823C58.0346 199.822 57.8292 201.892 57.9543 203.955C58.3756 206.975 60.2948 207.326 63.08 207.279C66.2865 207.279 69.5399 207.419 72.7698 207.56C84.2852 207.981 95.824 208.543 107.363 208.847C109.376 208.847 113.191 209.69 114.969 208.496C117.778 206.647 115.906 199.836 115.625 197.355C113.776 181.369 111.178 165.243 110.944 149.117C110.808 148.675 110.399 148.374 109.937 148.374C109.475 148.374 109.067 148.675 108.931 149.117Z" fill="black"/>
<path d="M104.203 56.9933V63.8276C103.056 71.8322 97.5794 92.9203 96.3389 93.8097C94.3963 95.2375 75.5083 96.712 74.6891 96.1503C73.8699 95.5885 71.0379 67.3384 71.6932 60.4807C71.778 58.503 72.2304 56.5584 73.0273 54.7464C73.7996 53.2436 74.9337 51.9567 76.3275 51.0016C85.8534 44.214 95.7304 48.0291 100.809 51.0016C102.938 52.2413 104.234 54.5304 104.203 56.9933Z" fill="black"/>
<path d="M96.3389 93.8105C93.9983 93.319 91.4706 92.2891 91.8684 90.3465C92.5004 87.374 95.4494 85.6654 97.158 83.0909C98.2529 81.2962 98.9993 79.311 99.3581 77.2396C100.341 72.816 103.173 59.8963 98.3049 54.2088C93.7877 48.8958 80.7978 45.6893 75.5316 58.2111C72.6974 64.4608 72.7487 71.6395 75.672 77.8481C76.8657 80.1886 78.6211 81.944 79.9552 84.0739C81.443 86.143 81.9636 88.7544 81.3829 91.2359C80.9382 92.6168 78.387 94.6765 74.689 96.268C74.2677 96.4553 77.7083 99.7086 81.2191 99.966C82.4829 99.966 88.0534 101.955 91.1663 100.692C92.4068 100.2 99.9901 96.3148 100.95 96.0106C102.331 95.3084 98.6092 94.302 96.3389 93.8105Z" fill="white"/>
<path d="M96.573 92.9672C94.5368 92.4757 91.892 91.6331 93.3197 89.0352C94.3182 87.5661 95.4716 86.2086 96.7603 84.9861C98.6428 82.6203 99.877 79.8051 100.341 76.8176C101.636 71.801 102.134 66.6117 101.816 61.4404C101.645 57.1116 99.3278 53.1527 95.6368 50.8846C92.0814 48.7418 87.8139 48.1177 83.7938 49.1526C72.0912 52.5464 69.7506 70.545 75.6956 79.5794C77.7318 82.7157 81.5937 86.2499 80.6575 90.3927C80.3064 92.031 78.7851 93.014 77.4275 93.88C76.5381 94.4184 74.3849 94.9801 73.8934 95.8929C73.1912 97.2738 75.9296 98.8185 76.7956 99.3335C78.9368 100.387 81.2387 101.075 83.6065 101.37C86.2474 102.165 89.0639 102.165 91.7047 101.37C93.858 100.527 95.9177 99.3335 97.9774 98.3036C98.9136 97.8355 101.839 96.9929 102.097 95.7993C102.541 93.7864 97.6731 93.1545 96.573 92.9204C95.473 92.6864 95.0049 94.3716 96.1049 94.6056C97.205 94.8397 98.4455 95.4014 99.5221 95.5418C100.599 95.6822 99.7796 95.7993 100.365 95.5418C101.324 94.9567 100.365 95.261 100.365 95.261C100.079 95.3374 99.8097 95.4642 99.5689 95.6354L94.3261 98.2568C92.8283 99.1755 91.1924 99.8472 89.4812 100.246C86.981 100.313 84.4857 99.989 82.0852 99.2867C81.0319 99.1225 79.9972 98.856 78.9957 98.4909C78.4106 98.2334 75.6722 97.0398 75.6488 96.1504C75.6488 97.0398 78.7148 95.0269 79.1829 94.6992C80.0591 94.1209 80.8474 93.4193 81.5235 92.6162C85.0108 88.0989 79.8383 82.4583 77.451 78.8773C71.5996 70.1705 73.987 50.791 87.0003 50.2995C90.8001 50.1255 94.5024 51.5318 97.2284 54.1848C100.669 57.7189 100.458 63.5469 100.014 68.2279C99.4987 73.8452 98.6327 80.4688 94.6538 84.6116C93.1559 86.1797 90.7451 88.4266 90.9792 90.8608C91.2132 93.2949 94.2091 94.0907 96.1283 94.5354C97.205 94.9099 97.6731 93.2247 96.573 92.9672Z" fill="black"/>
<path d="M77.3103 52.0555C81.7569 49.1634 87.1418 48.0831 92.3599 49.0362C95.0906 49.6146 97.6478 50.825 99.8261 52.5704C101.254 53.6236 102.799 55.1918 102.448 56.994C102.311 57.5681 102.047 58.104 101.675 58.5622C99.5539 60.878 96.4694 62.065 93.3429 61.7687C90.3002 61.7687 87.2575 60.9261 84.2149 60.9495C82.9816 60.9162 81.7569 61.1643 80.6339 61.675C79.3541 62.3862 78.306 63.4506 77.6146 64.7411C75.5315 68.2519 75.9294 74.1032 76.7252 79.5801C73.0272 76.9821 71.576 65.6773 72.8867 59.1005L77.3103 52.0555Z" fill="black"/>
<path d="M52.3136 178.934C52.6413 179.379 54.4435 179.122 54.8414 178.045C55.6138 176.032 56.3628 169.877 56.784 169.057C57.2149 168.186 58.1664 167.701 59.1246 167.864C60.3614 169.097 61.5333 170.394 62.6354 171.749C62.8226 171.913 64.9759 172.311 64.2503 170.345C63.946 169.526 60.1778 163.136 59.5693 162.2C59.1348 161.391 58.537 160.682 57.8139 160.117C57.0865 159.768 56.2711 159.645 55.4734 159.766C54.3502 159.863 53.233 160.019 52.1264 160.234C51.7773 160.27 51.4491 160.418 51.1902 160.655C50.9791 160.905 50.8558 161.218 50.8391 161.544C50.4646 162.715 50.8157 176.851 52.3136 178.934Z" fill="white"/>
<path d="M51.7052 179.543C52.5813 180.165 53.7547 180.165 54.6309 179.543C55.505 178.851 56.0484 177.824 56.1288 176.711C56.6671 174.371 56.9012 172.03 57.4863 169.69C57.6375 169.18 58.0632 168.8 58.5864 168.707C58.8672 168.59 59.0311 168.707 58.7502 168.707C58.4693 168.707 58.914 168.847 58.9608 168.894L59.6396 169.666C60.1077 170.181 60.5524 170.743 60.9971 171.281C61.3539 171.798 61.7973 172.25 62.3078 172.615C63.0651 172.977 63.9581 172.906 64.6483 172.428C65.3252 171.705 65.4218 170.614 64.8824 169.783C63.9739 167.931 62.9579 166.134 61.8397 164.4C61.3716 163.628 60.9269 162.855 60.4354 162.06C59.8495 160.931 58.9572 159.99 57.8608 159.345C56.0905 158.808 54.201 158.808 52.4308 159.345C50.9562 159.602 49.9264 160.094 49.7626 161.685C49.669 163.127 49.669 164.573 49.7626 166.015C49.7626 168.637 49.9966 171.281 50.2775 173.903C50.2814 175.823 50.7131 177.718 51.5414 179.45C52.1733 180.363 53.6947 179.45 53.0627 178.56C52.5108 177.394 52.2003 176.128 52.1499 174.839C51.8925 172.803 51.752 170.766 51.635 168.707C51.518 166.647 51.5648 165.102 51.5648 163.324C51.5648 162.832 51.5648 162.317 51.5648 161.802C51.5687 161.763 51.5687 161.724 51.5648 161.685C51.5648 161.966 51.5648 161.428 51.7988 161.287C52.1603 161.123 52.5492 161.028 52.9457 161.006C53.5542 161.006 54.1628 160.819 54.7713 160.772C55.5389 160.574 56.3442 160.574 57.1118 160.772C57.7701 161.197 58.2969 161.797 58.6332 162.504C58.9842 163.019 59.3119 163.534 59.6162 164.073C60.6694 165.781 61.6758 167.49 62.6589 169.245L63.1504 170.158L63.3376 170.532C63.3376 170.79 63.3376 170.532 63.3376 170.813C63.3376 171.094 63.3376 171.118 63.3376 170.977H63.2674C63.2674 170.977 63.1036 170.977 63.0099 170.977C62.9163 170.977 62.7759 170.696 62.6823 170.579C61.8397 169.643 61.1141 168.613 60.3417 167.7C59.7101 166.949 58.6469 166.727 57.7672 167.162C55.6139 168.051 55.5905 170.79 55.2394 172.756C55.0054 174.02 54.7947 175.284 54.4904 176.524C54.4258 176.961 54.2998 177.387 54.116 177.788C53.9401 177.997 53.7024 178.144 53.4372 178.209C53.25 178.209 52.9223 178.209 53.0627 178.209C52.8244 177.967 52.4748 177.87 52.1457 177.955C51.8165 178.04 51.5578 178.294 51.4669 178.622C51.3761 178.95 51.4669 179.301 51.7052 179.543Z" fill="black"/>
<path d="M98.7966 43.9339C97.7667 44.2148 95.9645 45.4552 95.7539 46.5085C95.5432 47.5617 109.212 52.8279 106.193 57.111C105.888 57.5557 100.599 57.3217 100.646 57.86C100.809 60.341 107.667 61.1367 108.486 61.3006C109.26 61.4962 110.08 61.3043 110.686 60.7857C112.349 59.1817 113.727 57.3058 114.759 55.2386C114.868 53.922 114.398 52.6231 113.472 51.681C110.078 47.3745 100.294 43.5126 98.7966 43.9339Z" fill="white"/>
<path d="M98.5625 43.0908C96.9007 43.6291 93.3665 46.0398 95.707 47.7718C97.2752 48.8953 99.054 49.7378 100.669 50.7443C102.632 51.7111 104.304 53.1809 105.514 55.004C105.669 55.2673 105.757 55.5647 105.771 55.87C105.783 56.0024 105.783 56.1355 105.771 56.2679C105.771 56.2679 105.771 56.5488 105.771 56.502C105.771 56.4552 105.771 56.502 105.959 56.502C104.952 56.502 103.922 56.6658 102.916 56.7126C101.909 56.7594 100.833 56.7126 100.224 57.2977C99.6157 57.8829 100.365 59.3808 101.043 59.9191C103.028 61.262 105.326 62.0683 107.714 62.2597C108.806 62.5859 109.979 62.5027 111.014 62.0256C111.917 61.3786 112.708 60.588 113.355 59.6851C114.311 58.6251 115.1 57.4254 115.695 56.1275C116.167 54.3913 115.676 52.5351 114.408 51.2592C112.094 48.737 109.248 46.7621 106.076 45.4781C104.679 44.8087 103.24 44.2301 101.769 43.7461C100.859 43.3715 99.868 43.2346 98.8901 43.3482C97.8135 43.6057 98.2582 45.2909 99.3582 45.0334H99.8029C100.225 45.1067 100.64 45.2163 101.043 45.3611C102.168 45.6969 103.27 46.1034 104.344 46.5781C106.943 47.6603 109.377 49.1021 111.576 50.8613C112.806 51.7124 113.706 52.96 114.127 54.3955C114.361 55.636 113.401 56.736 112.699 57.6956C112.065 58.5648 111.377 59.3934 110.64 60.1766C109.961 60.8553 109.165 60.6915 108.299 60.5745C106.143 60.4069 104.049 59.7677 102.167 58.7021C101.98 58.585 101.722 58.1637 101.558 58.0935V57.9765L101.09 58.6552C101.09 58.6552 101.231 58.6552 101.254 58.6552C101.441 58.6759 101.629 58.6759 101.816 58.6552C102.846 58.6552 103.899 58.6552 104.952 58.468C106.005 58.2808 106.59 58.468 107.059 57.6722C107.503 56.9781 107.646 56.1336 107.456 55.3317C106.895 53.6358 105.762 52.1878 104.25 51.2358C102.387 49.781 100.424 48.4592 98.3752 47.2803L97.2986 46.6484L96.8539 46.3675C96.8539 46.3675 96.4794 46.1334 96.6666 46.2271C96.4794 46.2271 96.5262 45.9696 96.6666 46.2271C96.8071 46.4845 96.8773 46.6718 96.7837 46.6484C96.8981 46.4619 97.0231 46.2822 97.1581 46.11C97.7117 45.5204 98.4035 45.078 99.171 44.8227C100.107 44.4249 99.6625 42.7397 98.5625 43.0908Z" fill="black"/>
<path d="M70.4996 120.258C70.2656 126.156 67.3399 145.606 69.4698 151.13C83.3959 150.896 96.0581 149.351 109.984 149.117C109.984 149.117 110.148 120.516 111.389 109.024C111.927 103.992 128.17 111.013 134.021 95.4722C142.073 74.15 118.972 53.5066 115.695 52.6406C115.695 52.6406 113.987 59.3813 109.75 61.3708C114.127 67.0583 125.759 79.0183 120.049 87.8655C112.582 99.4043 101.699 87.6783 93.0388 93.787C88.8493 96.7829 85.713 95.1211 78.5276 93.0381C51.5648 85.1973 48.7561 159.462 48.3582 159.345C45.1283 159.017 61.1843 160.773 61.1843 160.773C61.1843 160.773 71.5996 92.2423 70.4996 120.258Z" fill="white"/>
<path d="M69.6101 120.258C69.376 125.571 68.6037 130.884 68.1824 136.197C67.8313 140.878 66.9887 146.729 68.6271 151.363C68.7376 151.74 69.077 152.004 69.4697 152.019C82.9979 151.738 96.4559 150.263 109.984 150.006C110.466 149.993 110.85 149.599 110.85 149.117C110.85 142.454 110.967 135.783 111.201 129.105C111.342 124.237 111.505 119.368 111.81 114.5C111.656 112.661 111.814 110.81 112.278 109.023C112.816 107.947 114.15 107.853 115.25 107.713C118.574 107.491 121.863 106.902 125.057 105.957C129.097 104.439 132.365 101.373 134.138 97.4378C138.562 88.0757 136.479 77.4029 131.54 68.6728C129.033 64.292 125.947 60.2691 122.366 56.7127C120.606 54.5928 118.411 52.8765 115.929 51.6806C115.458 51.5616 114.978 51.8431 114.852 52.3125C114.196 55.6845 112.193 58.6429 109.305 60.5043C109.072 60.6429 108.915 60.8806 108.878 61.1496C108.842 61.4186 108.93 61.6895 109.118 61.8852C113.542 67.5727 119.838 73.5879 120.657 81.218C121.082 85.843 118.331 90.172 113.963 91.7503C110.476 92.9206 106.661 91.7503 103.15 91.2588C100.296 90.6531 97.3289 90.8557 94.5835 91.8439C93.0972 92.7642 91.5304 93.5476 89.9024 94.1845C87.8902 94.5699 85.8131 94.4411 83.8639 93.81C79.1828 92.4993 74.9231 90.6971 70.1952 92.4759C62.5651 95.3781 58.633 104.179 56.1521 111.341C52.879 121.048 50.643 131.074 49.4816 141.252C48.9199 145.606 48.444 149.959 48.0539 154.313C47.9369 155.623 47.8432 156.911 47.7262 158.221C47.6933 158.54 47.6933 158.862 47.7262 159.181C47.7262 159.181 48.4518 158.619 48.1241 158.596C47.1645 158.596 46.8836 160.164 47.89 160.328C52.337 161.03 56.8777 161.334 61.3715 161.826C61.7629 161.83 62.1083 161.571 62.214 161.194C63.2205 154.64 64.2503 148.087 65.3503 141.557C66.3914 132.754 68.0415 124.034 70.2889 115.46C70.4842 115.081 70.6335 114.68 70.7336 114.266C70.5882 114.129 70.3899 114.063 70.1915 114.086C69.9931 114.108 69.8146 114.217 69.7037 114.383C69.5881 115.112 69.5881 115.854 69.7037 116.583C69.7037 117.8 69.7037 118.924 69.7037 120.258C69.7037 121.592 71.4123 121.381 71.4591 120.258C71.5059 119.134 72.4421 112.628 70.2186 112.675C68.3462 112.675 67.8781 118.081 67.5504 119.275C65.2099 129.854 63.595 140.62 61.8864 151.34C61.3949 154.43 60.9034 157.519 60.4352 160.702L61.2778 160.047C57.0415 159.579 52.0796 159.204 48.2645 158.619L48.0305 160.328C49.7625 160.328 49.4582 158.502 49.5752 157.191C49.8561 153.821 50.1603 150.474 50.5348 147.104C51.4704 136.619 53.3823 126.245 56.2457 116.115C58.5862 108.274 62.5651 96.5016 71.4123 93.81C77.2168 92.0312 82.3894 96.1505 88.1236 96.2909C91.9153 96.2909 94.4197 93.2014 98.1177 92.827C101.642 92.8522 105.154 93.2285 108.603 93.9504C116.233 94.7228 123.255 89.0353 122.295 80.9605C121.336 72.8857 114.969 66.7535 110.288 60.7384L110.125 62.1193C113.433 60.0006 115.727 56.6157 116.467 52.7572L115.391 53.3891C117.658 54.5057 119.655 56.1032 121.242 58.0702C124.477 61.295 127.285 64.9212 129.598 68.86C134.887 77.9412 137.696 91.0716 130.394 99.989C127.635 103.142 123.774 105.119 119.604 105.513C117.263 105.84 114.103 105.513 111.997 106.823C109.891 108.134 110.288 111.223 110.148 113.353C109.82 117.894 109.656 122.435 109.516 126.999C109.282 134.379 109.142 141.767 109.095 149.163L109.984 148.297C96.4559 148.555 82.9979 150.029 69.4697 150.31L70.3123 150.942C68.6739 146.261 69.6101 140.34 70.008 135.495C70.4059 130.65 71.1314 125.384 71.3655 120.305C71.4123 119.134 69.6569 119.134 69.6101 120.258Z" fill="black"/>
<path d="M91.4706 1.42964C84.9258 -1.17107 77.4499 0.860007 73.1209 6.41496C69.3995 11.3067 68.0654 19.124 73.5422 23.2199C78.5497 26.7885 85.2694 26.7885 90.2769 23.2199C91.1898 22.5646 92.36 21.722 92.6175 20.5517C92.7954 19.3984 92.0965 18.2902 90.9791 17.9537C88.3577 16.9473 84.9171 19.4517 83.1383 21.1603C77.757 26.4033 77.3978 34.9331 82.3192 40.61C83.0447 41.476 84.2852 40.2355 83.5596 39.3695C79.2411 34.2933 79.6954 26.7141 84.5895 22.1901C85.4555 21.4177 87.679 19.5219 88.9663 19.6389C92.6409 19.9666 88.545 22.3773 87.7024 22.7986C85.0016 24.1499 81.9133 24.5142 78.9722 23.8285C75.7897 23.3098 73.1189 21.1464 71.9506 18.141C71.3206 14.9016 71.9753 11.5442 73.7763 8.77889C77.4016 2.93947 84.7209 0.582245 91.0727 3.20844C92.126 3.60633 92.5941 1.92115 91.5408 1.52327L91.4706 1.42964Z" fill="black"/>
<path d="M1.74401 305.347C2.32048 305.334 2.78485 304.87 2.79725 304.293C3.42921 296.7 3.42921 289.067 2.79725 281.473L2.02488 282.48C10.9189 281.075 20.3512 281.567 29.3154 281.59C38.2348 281.277 47.1652 281.575 56.0442 282.48C56.6761 282.48 57.4485 282.222 57.3783 281.473C57.0152 275.799 57.0152 270.108 57.3783 264.434L56.325 265.487C76.6408 264.762 97.0033 264.855 117.342 264.855C117.924 264.855 118.396 264.384 118.396 263.802C118.396 263.221 117.924 262.749 117.342 262.749C97.0033 262.749 76.6408 262.749 56.325 263.381C55.7535 263.405 55.2956 263.863 55.2718 264.434C54.9087 270.108 54.9087 275.799 55.2718 281.473L56.6059 280.443C47.5415 279.503 38.4235 279.183 29.3154 279.484C20.0205 279.077 10.708 279.398 1.46315 280.443C1.00146 280.571 0.684089 280.994 0.690778 281.473C1.32274 289.067 1.32274 296.7 0.690778 304.293L1.74401 303.24V305.347Z" fill="#231F20"/>
<path d="M189.161 202.766C189.793 195.173 189.793 187.54 189.161 179.946L188.388 180.953C197.282 179.548 206.738 180.04 215.702 180.063C224.622 179.751 233.552 180.048 242.431 180.953C243.04 180.953 243.812 180.695 243.765 179.946C243.402 174.272 243.402 168.581 243.765 162.907L242.712 163.96C263.028 163.235 283.367 163.329 303.706 163.329C304.282 163.316 304.747 162.852 304.759 162.275V138.449L303.706 139.502H351.312C351.894 139.502 352.366 139.03 352.366 138.449C352.366 137.867 351.894 137.396 351.312 137.396H303.706C303.124 137.396 302.653 137.867 302.653 138.449V162.275L303.706 161.222C283.367 161.222 263.028 161.222 242.712 161.854C242.13 161.854 241.659 162.326 241.659 162.907C241.296 168.581 241.296 174.272 241.659 179.946L242.993 178.916C233.928 177.977 224.81 177.656 215.702 177.957C206.4 177.55 197.079 177.871 187.827 178.916C187.365 179.044 187.048 179.467 187.054 179.946C187.686 187.54 187.686 195.173 187.054 202.766C187.054 204.124 189.067 204.124 189.161 202.766Z" fill="#231F20"/>
</svg>
