<svg width="698" height="358" fill="none" xmlns="http://www.w3.org/2000/svg"><g clip-path="url(#a)"><path d="M34.866 357.891s-74.981-159.76 72.799-159.76c78.079 0 45.913-43.833 98.999-94.56 53.085-50.728 238.737-91.257 278.24 6.7 39.502 97.958-58.139 172.331 36.221 159.572 113.394-15.331 158.188 88.046 158.188 88.046l-644.447.002Z" fill="#F2F3FF"/><path d="M642.142 337.621c-6.997-5.116-21.296-1.661-31.847 2.033a48.33 48.33 0 0 0-5.801-6.733c22.731-14.651 54.131-45.897 37.489-48.543-14.466-2.298-33.991 25.827-44.423 42.947-10.835-7.293-27.436-12.654-52.783-10.793-65.78 4.824-117.174-37.632-155.056-23.471-30.118 11.258-57.722 17.566-84.347 15.411 1.146-19.458 1.395-57.66-13.877-61.622-15.501-4.023-.295 39.362 8.156 61.038a124.333 124.333 0 0 1-5.934-.91c-5.474-10.796-14.493-24.925-24.402-25.408-9.326-.456 2.183 12.247 13.509 23.009-32.553-6.839-71.17 19.638-71.809 50.953h406.437s-.719-4.57-3.907-10.594c15.702-.332 36.195-1.765 28.595-7.317Z" fill="#BDBEE6"/><path d="M299.685 331.313H192.566v24.2h107.119v-24.2Z" fill="#7489CB"/><path d="M266.654 331.313H159.538v24.203h107.116v-24.203Z" fill="#A3BCEE"/><path d="M341.824 355.508h79.761V243.965h-79.761v111.543Z" fill="#877BA3"/><path d="M317.228 355.508h79.761V243.965h-79.761v111.543Z" fill="#92A3C9"/><path d="m396.989 243.965 24.594 16.749v-16.749h-24.594Z" fill="#877BA3"/><path d="M150.774 268.673s-14.914 11.098-17.824 10.424c-2.91-.674 10.902-11.98 10.902-11.98-5.196-2.499-21.352-.931-21.352-.931s-5.38 17.361-8.035 15.992c-2.655-1.37 5.549-15.127 5.549-15.127-5.787-.353-12.888 3.938-12.888 3.938-9.718 7.678.639 19.769.639 19.769s-1.994 5.973-8.132 11.411c0 0-8.753 6.486-9.374 18.075l1.592.141s2.522-10.793 7.103-15.897c.18-.185.438-.451.759-.772a32.323 32.323 0 0 0 1.62-1.592c2.281-2.195 5.432-4.987 6.952-5.257a2.934 2.934 0 0 1-.066-.765l.066.765c.531 6.103 12.366 11.446 19.655 12.542 7.289 1.096 5.039-1.9 2.525-6.343-2.515-4.442-10.459-6.435-12.273-8.492-1.814-2.057 1.936-2.052 6.329-.045 4.392 2.006 4.992 7.359 12.036 10.734 7.045 3.376 17.644-8.322 17.644-8.322-5.615-.284-13.63-6.385-13.341-8.251.289-1.865 13.609 3.219 15.885 3.45 2.276.231 7.459-2.59 8.26-11.764.801-9.174-14.231-11.703-14.231-11.703Z" fill="#A6B3D7"/><path d="M71.557 275.564s16.474-9.232 8.785-21.761c0 0-6.148-7.696-12.732-9.67 0 0 3.515 18.68 0 19.107-3.514.427-2.416-21.1-2.416-21.1s-17.355-8.352-24.164-7.696c0 0 10.764 18.242 7.25 17.801-3.515-.44-15.597-18.9-15.597-18.9s-17.792-3.299-20.649 7.253c-2.857 10.551 1.759 15.824 4.395 16.483 2.637.658 19.549.44 19.11 2.638-.437 2.197-11.86 5.713-18.232 3.736 0 0 7.029 17.361 16.254 16.483 9.225-.878 12.082-6.592 17.795-7.033 5.714-.44 9.883 1.099 7.03 2.638-2.855 1.539-12.523.504-17.136 4.427-4.612 3.922-8.347 6.342.22 8.099 8.568 1.757 23.944.661 27.018-5.934l3.07-6.571Z" fill="#BDBEE6"/><path d="M75.95 291.607c-4.613-8.572-4.393-16.042-4.393-16.042-5.278-16.706-51.404-31.645-51.404-31.645 58.654 23.736 48.328 38.242 48.328 38.242 1.591.923 3.952 5.321 5.596 8.696.234.574.605 1.37 1.157 2.45.223.486.4.886.53 1.165 3.019 7.558 1.42 20.615 1.42 20.615l1.827.485c4.053-13.157-3.061-23.966-3.061-23.966Z" fill="#A6B3D7"/><path d="M97.766 262.834s-21.716-12.168-11.58-28.682c0 0 8.105-10.141 16.792-12.739 0 0-4.631 24.625 0 25.212 4.631.586 3.183-27.812 3.183-27.812s22.877-11.009 31.853-10.141c0 0-14.191 24.047-9.549 23.468 4.642-.579 20.559-24.917 20.559-24.917s23.455-4.344 27.219 9.554c3.764 13.898-2.315 20.859-5.79 21.727-3.475.868-25.771.581-25.198 3.479.573 2.898 15.649 7.532 24.033 4.923 0 0-9.264 22.889-21.426 21.729-12.161-1.159-15.928-8.691-23.455-9.269-7.528-.579-13.032 1.446-9.268 3.476 3.764 2.03 16.506.663 22.588 5.838 6.082 5.175 11.002 8.36-.292 10.677s-31.563.87-35.614-7.821l-4.055-8.702Z" fill="#BDBEE6"/><path d="M165.525 221.113s-60.81 19.702-67.759 41.721c0 0 .292 9.848-5.79 21.148 0 0-9.38 14.249-4.032 31.581l2.414-.648s-2.109-17.21 1.87-27.175c.164-.366.398-.894.692-1.536.727-1.423 1.218-2.471 1.525-3.227 2.167-4.448 5.292-10.247 7.377-11.462 0 .005-13.61-19.102 63.703-50.402Z" fill="#A6B3D7"/><path d="M97.047 353.183a42.519 42.519 0 0 0 30.08-12.466 42.566 42.566 0 0 0 12.46-30.096H54.494a42.582 42.582 0 0 0 12.464 30.101 42.541 42.541 0 0 0 30.09 12.461Z" fill="#92A3C9"/><path d="M107.503 352.86a42.582 42.582 0 0 1-17.821-1.578 42.586 42.586 0 0 1-26.227-23.164 42.623 42.623 0 0 1-3.775-17.497h10.578A42.588 42.588 0 0 0 80.9 338.784a42.549 42.549 0 0 0 26.602 14.076Z" fill="#899CA9"/><path d="M134.916 350.256H59.155a5.248 5.248 0 0 0-5.247 5.252h86.255a5.255 5.255 0 0 0-5.247-5.252Z" fill="#92A3C9"/><path d="M139.892 310.621H53.749a.65.65 0 0 0-.653.653.655.655 0 0 0 .653.653h86.143a.652.652 0 0 0 0-1.306Z" fill="#877BA3"/><path d="M468.157 86.49c-1.234-.188-4.95 3.249-4.95 3.249-7.933.918-19.532 3.025-23.707 3.83-2.963.57-10.923-2.145-18.7-5.263-9.249-3.716-18.235-7.988-18.235-7.988-5.133-.266-10.96 9.105-.552 15.06 1.591.91 7.557 2.463 14.432 3.88 9.482 1.956 20.689 3.652 24.498 3.057 4.429-.692 16.975-5.284 24.426-8.797h.019l.082-.04c.448-.21 2.273-1.024 3.493-.95 1.398.082 4.509-2.476 4.605-3.158.095-.682-4.178-2.694-5.411-2.88Z" fill="#F4995D"/><path d="m458.47 204.501-4.369.889s-19.991-22.473-23.076-31.929c-1.65-5.042-12.201-7.239-23.235-10.084-9.599-2.481-19.559-5.475-24.315-11.313-10.225-12.542 6.419-27.956 6.419-27.956s17.7 10.525 32.967 21.398c10.671 7.598 20.159 15.366 21.586 19.829 3.472 10.849 10.832 31.485 14.023 39.166Z" fill="#9291C9"/><path d="M452.621 211.915h2.459c.822-.13 1.43-.369 2.273-.477 1.284-.17 1.873.358 1.99.477l.023.024h10.438c.265-.374 0-1.242-.236-1.881a1.471 1.471 0 0 0-.976-.895c-1.106-.321-3.289-.607-5.289-2.417-1.122-1.017-5.427-3.737-5.427-3.737h-.024c-.096 0-.531.141-2.504 1.794-1.011.855-2.737-1.205-2.737-1.205a2.45 2.45 0 0 0-.565.767 2.611 2.611 0 0 0-.226 1.592c.157.943-.345 2.691-.748 3.872a25.418 25.418 0 0 1-.445 1.226s-.12.595 1.994.86Z" fill="#836F86"/><path d="m422.861 145.498-15.071 17.871c-9.599-2.481-19.559-5.475-24.315-11.313-10.225-12.542 6.419-27.956 6.419-27.956s17.7 10.526 32.967 21.398Z" fill="#8887B8"/><path d="M409.167 136.175s-1.215 3.832-3.183 9.599c-2.502 7.293-6.226 17.675-10.265 27.305a223.966 223.966 0 0 1-2.703 6.197c-3.361 7.409-6.798 13.763-9.814 16.984-5.443 5.802-18.67 43.106-18.67 43.106l-3.297-.913s-4.597-31.845 11.67-49.979a1.14 1.14 0 0 0 .329-.677c.218-2.683.992-14.696 2.679-26.872.414-2.988.883-5.982 1.409-8.851l.103-.546c2.475-13.269 4.846-19.172 7.907-22.138l22.511 6.409 1.324.376Z" fill="#9291C9"/><path d="M360.842 243.942h2.459c.822-.13 1.429-.369 2.273-.481 1.283-.167 1.872.358 1.989.481l.024.023h10.437c.265-.376 0-1.244-.236-1.884a1.486 1.486 0 0 0-.976-.894c-1.109-.321-3.289-.605-5.289-2.415-1.125-1.016-5.43-3.739-5.43-3.739h-.021c-.095 0-.53.14-2.504 1.794-1.01.854-2.737-1.205-2.737-1.205a2.47 2.47 0 0 0-.565.767 2.615 2.615 0 0 0-.225 1.605c.156.94-.345 2.689-.746 3.872a24.272 24.272 0 0 1-.451 1.224s-.116.586 1.998.852Z" fill="#836F86"/><path d="M365.669 92.841s-3.766 9.217-8.109 18.189c-3.652 7.545-7.71 14.915-10.283 16.489-3.628 2.216-13.623 8.471-20.108 13.139 0 0-5.058-.04-5.835.928-.778.969-2.6 5.327-2.069 5.767.53.441 4.551.236 5.527-.767.854-.873 2.751-1.502 3.223-1.648l.088-.029h.021c7.878-2.426 20.238-7.478 23.978-9.949 3.222-2.123 10.363-10.929 16.058-18.76 4.129-5.679 7.498-10.846 8.06-12.59 3.682-11.419-6.933-14.407-10.551-10.769Z" fill="#FFB27D"/><path d="M385.366 56.69a19.616 19.616 0 0 0-1.347-1.743 4.198 4.198 0 0 0 1.66-.25c1.326-.546 1.926-4.744 1.727-5.991-.199-1.248-2.035-4.846-4.3-5.205-2.265-.358-4.604 2.155-4.604 2.155.419-1.815 4.244-2.863 4.244-2.863-7.891 1.457-7.488 6.722-7.427 7.21-7.223-2.577-11.464 11.035-11.464 11.035l18.713 11.034s.048-3.006 1.833-2.813c2.782.306 5.1-6.539.965-12.568Z" fill="#2C3A64"/><path d="M386.56 85.251c-4.295 2.025-9.992-.891-9.963-.923.369-.367.239-1.47-.098-2.92-.337-1.504-1.135-3.56-2.607-6.013a25.29 25.29 0 0 0-.982-1.592l.491-.183 8.342-3.344s1.35 2.423 2.761 4.63c1.196 1.842 2.453 3.501 3.005 3.437.032-.02 5.549 3.78-.949 6.908Z" fill="#FFB27D"/><path d="M381.743 71.106c-.215 2.975-1.226 8.347-5.244 10.31-.337-1.504-1.135-3.56-2.607-6.013l7.851-4.297Z" fill="#F4995D"/><path d="M373.404 78.79s10.862-4.284 8.09-11.009c-2.772-6.725-3.234-11.81-10.284-9.357-7.05 2.452-7.334 5.573-6.954 8.036.379 2.462 6.257 13.269 9.148 12.33Z" fill="#FFB27D"/><path d="M377.454 66.247c5.016-.708 6.48-2.736 6.48-2.736a13.893 13.893 0 0 1-7.321-5.851s-5.636-1.903-9.814 1.276c-.266.346-.448.75-.53 1.178-.958-.313-2.388-.23-3.228 2.476-1.247 4.066 3.182 8.508 3.182 8.508 1.077-.305-.137-3.93-.307-5.864-.125-1.423.644-3.246 1.061-4.109.53.69 5.822 7.34 12.28 7.606a27.241 27.241 0 0 1-6.519-3.5c1.544.759 3.185 1.231 4.716 1.016Z" fill="#2C3A64"/><path d="M407.236 99.11a68.956 68.956 0 0 0-.295-1.009 25.403 25.403 0 0 0 2.74-8.227c.738-4.97-.53-8.04-.53-8.04s-7.533-3.998-10.859-4.512l-.043-.014-.132-.013c-3.358-.462-10.629 1.022-10.629 1.022s1.403 3.736-2.551 6.226c-3.955 2.489-8.183-.64-8.183-.64-.127.088-.265.18-.401.281 0 0-10.408 6.874-11.341 8.442-.934 1.569-4.939 9.347-4.939 9.347s1.27 6.526 15.331 7.072c1.156 2.806 2.042 5.542 2.329 7.824 1.116 8.861-.181 15.848 1.122 21.021 1.302 5.172 24.763 2.224 29.012 1.228 4.249-.995 3.292-5.535 3.62-9.943.42-5.526-2.867-25.18-4.251-30.066Z" fill="#A3BCEE"/><path d="M409.681 89.885a25.492 25.492 0 0 1-2.759 8.253c-.368-1.627-1.856-7.58-4.294-10.278 0 0 4.079.369 7.053 2.025Z" fill="#999BD3"/><path d="M314.153 147.953s4.372-5.308 5.305-5.926c.934-.618 5.069-1.725 5.305-1.505.236.221.247.531-.265.996-.512.464-2.464 1.592-2.186 1.719.279.128 6.17-2.805 7.021-1.818.852.988-.482 5.058-2.753 7.012-2.27 1.953-9.045 2.786-9.469 3.06-3.607 2.311-2.958-3.538-2.958-3.538Z" fill="#F4995D"/><path d="M237.199 135.716s6.281 7.452 14.275 4.334c0 0 1.722-4.161 1.745-7.232v-1.09c.043-3.45.16-5.396.16-5.396-.364-.151-12.226-5.023-12.215-4.62.21 9.347-3.965 14.004-3.965 14.004Z" fill="#FFB27D"/><path d="M242.36 123.941c1.143 2.123 5.069 6.271 10.875 7.787.043-3.45.159-5.396.159-5.396-.339-.087-11.373-3.017-11.034-2.391Z" fill="#F4995D"/><path d="M255.877 125.974s-13.339 3.137-15.164-5.204c-1.824-8.341-4.774-13.553 3.663-15.907 8.438-2.354 10.796.462 12.082 3.097 1.287 2.635 2.841 16.984-.581 18.014Z" fill="#FFB27D"/><path d="M241.169 123.044c-.183.117-3.052.998-8.487-9.835-.854-1.701-1.435-5.379.554-8.63 1.989-3.251 9.042-5.806 14.901-6.918 5.86-1.112 7.265 2.186 8.645 5.501 1.448 3.479 5.631 6.345 5.631 6.345-5.04 2.824-11.14-1.215-13.246-.552-2.106.664-2.852 3.981-3.011 5.056-.159 1.075-.4 1.95-3.053.998-2.652-.953-1.199 3.76-.774 4.66 0 0 .36 2.399-1.16 3.375Z" fill="#634143"/><path d="M206.81 331.313h-8.077c-1.692 0-3.575-1.719-4.045-4.864-.469-3.145-3.952-4.867-4.705-7.431-.754-2.563 3.106-6.202 3.106-6.202l.644-.841.671-.876 6.398 1.526s.159 1.545.265 3.514c.069 1.42.106 3.062.027 4.511-.189 3.45.947 7.134 3.957 7.802 3.011.669 1.759 2.861 1.759 2.861ZM263.033 331.39h-21.407a1.747 1.747 0 0 1-.454-.135c-1.43-.738-.981-6.369-.812-8.116.035-.323.059-.512.059-.512s7.527-6.202 8.562-1.451c.034.146.071.291.111.435 1.308 4.442 7.162 6.462 10.525 7.024 2.578.436 3.247 1.983 3.416 2.755Z" fill="#2C3A64"/><path d="M258.721 207.523s-1.144 14.272-2.488 31.427c-1.828 23.306-4.024 51.932-4.244 57.354-.374 9.416-1.881 24.479-1.881 24.479s-3.575 3.58-10.729 2.07c0 0-6.366-21.496-8.193-44.253-.03-.374-.059-.748-.085-1.125-1.695-23.16-4.329-71.918-4.329-71.918l31.949 1.966Z" fill="#B5A6CD"/><path d="M258.721 207.523s-1.143 14.272-2.488 31.427l-25.044 39.65c-.03-.374-.059-.748-.085-1.125-1.695-23.16-4.329-71.918-4.329-71.918l31.946 1.966Z" fill="#A193B7"/><path d="M253.498 209.219s-20.607 51.686-34.158 75.976c-13.551 24.291-17.771 31.068-17.771 31.068s-7.761-3.105-8.467-5.225c0 0 5.18-46.893 14.254-58.323 5.127-6.459 11.14-25.843 11.435-32.623.294-6.781 1.833-20.193 1.833-20.193l32.874 9.32Z" fill="#B5A6CD"/><path d="M206.327 200.61s-.53 6.457-.926 7.447c-.395.99-3.005 4.063-3.318 4.018-.313-.046-.483-.287-.329-.913.154-.627 1.061-2.559.767-2.508-.295.05-3.268 5.493-4.456 5.185-1.189-.308-2.348-4.174-1.642-6.9.705-2.725 5.504-7.024 5.687-7.465 1.565-3.739 4.217 1.136 4.217 1.136Z" fill="#F4995D"/><path d="M204.104 202.255c2.281.733 2.653.568 2.653.568s11.1-20.222 12.225-22.074c1.124-1.852 23.572-22.677 23.572-22.677l-5.769-21.522s-25.535 33.063-28.294 37.816c-4.551 7.842-7.225 26.058-7.225 26.058a6.686 6.686 0 0 0 2.838 1.831Z" fill="#6A7DC2"/><path d="M263.07 166.514c-.079 4.418-.336 9.386-.684 14.434l-.064.897c-.22 3.126-.461 6.26-.734 9.315a292.539 292.539 0 0 1-.353 3.628l-.019.159c0 .446-.063.929-.111 1.369-1.127 11.443-2.308 20.488-2.525 20.626a1.274 1.274 0 0 1-.878.223c-3-.377-11.952.305-19.278-1.29-6.183-1.306-11.509-3.779-17.151-7.115-.748-.443-2.456-1.616-2.315-2.492.135-.963.387-2.357.708-4.108 1.111-6.088 3.029-16.56 3.684-28.815.128-2.283.313-4.538.555-6.754a102.367 102.367 0 0 1 2.989-16.13c2.512-9.052 6.204-15.984 10.835-18.696.605-.337 3.862 1.735 6.851 3.654a13.202 13.202 0 0 0 8.488 2.014l2.488 2.755c3.016 3.506 6.225 8.174 7.101 14.806.066.49.122 1.011.169 1.565.251 3.312.333 6.635.244 9.955Z" fill="#8393D2"/><path d="M263.071 166.514c-.08 4.418-.337 9.386-.685 14.434l-.063.897c-17.135-10.729-19.774-30.368-19.774-30.368 8.429.369 15.119 2.309 20.288 5.082.248 3.312.325 6.635.234 9.955Z" fill="#6A7DC2"/><path d="M316.756 148.484c-.884-2.389-2.258-2.237-2.258-2.237s-25.479 6.353-27.765 6.634c-2.287.281-27.434-9.819-27.434-9.819s-9.899-4.445-14.536-.388c-4.029 3.527-4.212 7.994-3.27 11.746a11.214 11.214 0 0 0 9.477 8.357c10.26 1.308 30.729 3.769 35.012 3.171 9.549-1.326 31.187-13.826 31.187-13.826a8.049 8.049 0 0 0-.413-3.638Z" fill="#8393D2"/><path d="M567.975 195.204s3.539 3.283 2.849 5.616c-.69 2.332-3.886 3.885-4.318 6.738-.433 2.853-2.157 4.405-3.714 4.405h-7.405s-1.146-2.006 1.618-2.611c2.764-.605 3.803-3.954 3.631-7.065-.172-3.11.265-7.255.265-7.255l5.87-1.383 1.204 1.555ZM523.86 211.573c-.358.18-1.621.305-3.353.387h-16.755c.058-.496.448-2.274 3.183-2.717 3.095-.502 8.456-2.304 9.649-6.263a3.96 3.96 0 0 0 .104-.388c.949-4.232 7.856 1.293 7.856 1.293s.022.17.051.459c.167 1.555.575 6.576-.735 7.229Z" fill="#2C3A64"/><path d="M507.76 98.37s1.048 13.093 2.281 28.833c1.676 21.379 3.692 47.644 3.891 52.617.345 8.641 1.727 22.459 1.727 22.459s3.278 3.283 9.843 1.901c0 0 5.835-19.729 7.517-40.604.026-.342.053-.687.077-1.03 1.554-21.249 3.978-65.992 3.978-65.992l-29.314 1.815Z" fill="#35488B"/><path d="M507.76 98.37s1.048 13.093 2.281 28.833l22.978 36.376c.026-.343.053-.688.077-1.03 1.554-21.249 3.978-65.993 3.978-65.993L507.76 98.37Z" fill="#2C3A64"/><path d="M512.55 99.924s18.906 47.421 31.338 69.705c12.432 22.285 16.315 28.505 16.315 28.505s7.125-2.85 7.772-4.793c0 0-4.753-43.023-13.079-53.511-4.706-5.926-10.231-23.709-10.49-29.93-.26-6.221-1.685-18.526-1.685-18.526l-30.171 8.55Z" fill="#35488B"/><path d="M454.234 74.204s-5.127-1.173-5.992-1.112c-.865.06-3.881 1.326-3.92 1.565-.04.24.1.446.623.48.522.035 2.239-.185 2.122.025-.117.21-5.056 1.178-5.109 2.176-.053.998 2.653 2.847 4.944 2.97 2.292.121 6.791-2.538 7.178-2.572 3.281-.284.154-3.532.154-3.532Z" fill="#FFB27D"/><path d="M452.04 75.507c-.737-2.344-.565-2.715-.565-2.715s20.79-11.247 22.692-12.388c1.901-1.142 23.397-24.012 23.397-24.012l22.015 6.061S485.527 68.405 480.646 71.2c-8.063 4.618-26.739 7.232-26.739 7.232a6.833 6.833 0 0 1-1.867-2.924Z" fill="#A696C0"/><path d="M504.221 25.27s-7.713 13.58-15.254 15.352c0 0 .313-4.562 2.149-7.683a84.146 84.146 0 0 1-1.984-2.43 45.9 45.9 0 0 1-2.799-3.923l2.557-6.884 1.738-4.67a22.458 22.458 0 0 0 2.713 3.911c4.942 5.684 10.88 6.327 10.88 6.327Z" fill="#FFB27D"/><path d="M493.341 18.943s.921 6.807-4.209 11.565a45.902 45.902 0 0 1-2.799-3.922l2.557-6.884c2.746-.825 4.451-.759 4.451-.759Z" fill="#F4995D"/><path d="M484.302 27.59s11.527-4.496 8.617-11.635c-2.909-7.139-3.379-12.526-10.875-9.957-7.495 2.569-7.792 5.873-7.403 8.492.39 2.62 6.586 14.084 9.661 13.1Z" fill="#FFB27D"/><path d="M543.841 94.956c-4.65 6.688-39.413 15.626-38.991 10.995a49.89 49.89 0 0 0 0-9.13 57.2 57.2 0 0 0-.368-3.154c-.884-6.083-2.982-13.907-7.661-22.959a111.54 111.54 0 0 0-1.095-2.054 70.8 70.8 0 0 1-4.82-10.835c-2.408-6.964-3.379-13.628-2.164-17.983 0-.02 0-.042.019-.06 7.267-3.363 10.079-16.401 10.079-16.401s24.789 4.453 38.677 37.514c-.01 0 10.369 28.247 6.324 34.067Z" fill="#B5A6CD"/><path d="M504.834 96.822a57.243 57.243 0 0 0-.369-3.155c-.883-6.083-2.981-13.906-7.66-22.959.796-4.872 1.913-8.924 3.13-10.747 4.944-7.415 7.825-8.575 7.825-8.575s7.413 31.288-2.926 45.436Z" fill="#A696C0"/><path d="M465.756 89.378s-6.859.358-7.923.743-4.4 3.05-4.363 3.37c.037.322.286.531.955.38.668-.151 2.745-1.035 2.681-.735-.063.3-5.925 3.29-5.639 4.559.287 1.269 4.353 2.627 7.271 1.964 2.917-.664 7.623-5.613 8.095-5.794 4.008-1.53-1.077-4.487-1.077-4.487Z" fill="#FFB27D"/><path d="M464.462 91.979c-1.374-2.222-.382-3.233-.382-3.233s21.185-16.597 22.845-18.274c1.66-1.677 9.353-28.374 9.353-28.374s2.652-10.804 8.848-11.996c5.387-1.035 9.111 1.632 11.549 4.759a11.499 11.499 0 0 1 .777 12.926c-5.408 9.121-16.321 27.223-19.506 30.315-7.093 6.884-30.821 16.504-30.821 16.504a8.227 8.227 0 0 1-2.663-2.627Z" fill="#B5A6CD"/><path d="M494.572 2.688c.08-.159.316-.329.886-.504a2.385 2.385 0 0 0-1.159-.042c-.324-.796-1.112-2.137-2.586-2.147a1.824 1.824 0 0 1 1.159 1.061C490.851-.228 487.103-.6 477.753 2.52c-12.331 4.108-6.17 11.27-4.302 11.844 1.867.573 5.305-3.11 8.403-3.615 3.098-.504 4.774 3.81 5.946 4.17 1.173.357.51-.624 1.746-1.609s1.944 1.327 1.917 2.954c-.026 1.626 2.388 3.163 2.388 3.163l1.413-2.593c1.411-2.593 1.027-12.003-.323-13.699a5.22 5.22 0 0 1-.369-.446Z" fill="#9291C9"/><path d="M697.082 355.508H.918a.918.918 0 0 0-.918.918v.656c0 .507.41.918.918.918h696.164a.918.918 0 0 0 .918-.918v-.656a.918.918 0 0 0-.918-.918Z" fill="#2C3A64"/><path d="M299.684 331.04v13.962l-33.03-13.962h33.03Z" fill="#9DA9CE"/><path d="M582.349 211.96H473.116v143.548h109.233V211.96Z" fill="#7489CB"/><path d="M548.668 211.96H439.433v143.548h109.235V211.96Z" fill="#A3BCEE"/><path d="M582.349 211.96v21.467l-33.681-21.467h33.681Z" fill="#7489CB"/></g><defs><clipPath id="a"><path fill="#fff" d="M0 0h698v358H0z"/></clipPath></defs></svg>