<svg width="311" height="204" fill="none" xmlns="http://www.w3.org/2000/svg"><g clip-path="url(#a)"><path d="M34.637 203.573S4.96 177.652 10.729 134.982C16.7 90.793 48.1 67.282 89.063 76.206c33.482 7.293 55.053 2.616 89.678-18.233 56.779-34.19 129.964 2.824 110.817 69.068-9.264 32.056 29.621 47.896-2.927 76.602l-251.994-.07Z" fill="#F2F3FF"/><path d="m207.129 75.954-8.636-12.773a7.963 7.963 0 0 1-1.365-4.456V47.252h-73.703v11.483c0 1.588-.475 3.14-1.365 4.456l-8.636 12.773a7.954 7.954 0 0 0-1.364 4.457v87.25a20.182 20.182 0 0 0 5.922 14.271 20.21 20.21 0 0 0 14.286 5.907h56.029a20.21 20.21 0 0 0 14.279-5.916 20.181 20.181 0 0 0 5.914-14.272v-87.25a7.96 7.96 0 0 0-1.361-4.457Z" fill="#fff"/><path d="M188.291 188.477h-56.023a20.86 20.86 0 0 1-14.723-6.104 20.83 20.83 0 0 1-6.108-14.712v-87.25a8.555 8.555 0 0 1 1.473-4.81l8.635-12.77a7.309 7.309 0 0 0 1.257-4.108V47.252a.628.628 0 0 1 .629-.628h73.703a.628.628 0 0 1 .627.628v11.47a7.3 7.3 0 0 0 1.259 4.108l8.636 12.772a8.562 8.562 0 0 1 1.472 4.809v87.25a20.83 20.83 0 0 1-6.11 14.714 20.86 20.86 0 0 1-14.727 6.102ZM124.053 47.88v10.843a8.555 8.555 0 0 1-1.474 4.81l-8.636 12.772a7.302 7.302 0 0 0-1.257 4.106v87.25a19.58 19.58 0 0 0 5.743 13.828 19.609 19.609 0 0 0 13.839 5.734h56.029a19.602 19.602 0 0 0 13.835-5.737 19.578 19.578 0 0 0 5.739-13.825v-87.25a7.302 7.302 0 0 0-1.257-4.106l-8.636-12.773a8.562 8.562 0 0 1-1.472-4.81V47.88h-72.453Z" fill="#2C3A64"/><path d="M198.392 43.41H121.29a.19.19 0 0 0-.191.191v10.043a.19.19 0 0 0 .191.192h77.102a.192.192 0 0 0 .191-.192V43.601a.192.192 0 0 0-.191-.191Z" fill="#BDBEE6"/><path d="M170.216 160.461c-3.74-.768-8.309-1.225-13.265-1.225-4.957 0-9.526.457-13.263 1.225h-9.502v5.272c0 3.589 10.192 6.496 22.765 6.496 12.572 0 22.766-2.907 22.766-6.496v-5.272h-9.501Z" fill="#F5BD22"/><path d="M179.717 160.357c0 3.282-10.192 5.942-22.766 5.942-12.575 0-22.765-2.66-22.765-5.942s10.192-5.942 22.765-5.942c12.572 0 22.766 2.66 22.766 5.942Z" fill="#F5BD22"/><path d="M156.951 166.55c-6.03 0-11.723-.598-16.027-1.715a.248.248 0 0 1-.181-.305.244.244 0 0 1 .307-.179c4.264 1.095 9.911 1.697 15.901 1.697 12.203 0 22.513-2.606 22.513-5.691 0-1.308-1.908-2.604-5.372-3.649a.254.254 0 0 1-.121-.4.249.249 0 0 1 .267-.08c3.747 1.128 5.731 2.558 5.731 4.129 0 3.473-10.111 6.193-23.018 6.193ZM135.661 167.348a.252.252 0 0 1-.252-.251v-4.63a.252.252 0 0 1 .503 0v4.63a.252.252 0 0 1-.251.251ZM134.186 165.655a.254.254 0 0 1-.251-.251v-4.63a.251.251 0 1 1 .502 0v4.636a.252.252 0 0 1-.251.245ZM139.086 169.043a.254.254 0 0 1-.178-.073.26.26 0 0 1-.073-.179v-4.63a.252.252 0 0 1 .503 0v4.638a.252.252 0 0 1-.252.244Z" fill="#2C3A64"/><path d="M143.971 170.285a.25.25 0 0 1-.251-.251v-4.624a.251.251 0 1 1 .503 0v4.63a.254.254 0 0 1-.252.245ZM151.876 171.358a.254.254 0 0 1-.178-.073.26.26 0 0 1-.073-.179v-4.63a.252.252 0 0 1 .503 0v4.63a.252.252 0 0 1-.252.252ZM176.545 168.155a.255.255 0 0 1-.252-.251v-4.63a.252.252 0 0 1 .503 0v4.63a.251.251 0 0 1-.251.251ZM138.037 157.3a.248.248 0 0 1-.142-.044.25.25 0 0 1-.089-.307.26.26 0 0 1 .139-.133c5.013-1.932 13.411-2.471 13.495-2.477.135-.033.257.098.267.236a.251.251 0 0 1-.235.265c-.084 0-8.405.54-13.345 2.444a.251.251 0 0 1-.09.016Z" fill="#2C3A64"/><path d="M170.216 155.117c-3.74-.702-8.309-1.119-13.265-1.119-4.957 0-9.526.417-13.263 1.119h-9.502v4.823c0 3.282 10.192 5.944 22.765 5.944 12.572 0 22.766-2.662 22.766-5.944v-4.823h-9.501Z" fill="#F5BD22"/><path d="M156.951 161.059c12.572 0 22.764-2.66 22.764-5.942s-10.192-5.942-22.764-5.942c-12.573 0-22.765 2.66-22.765 5.942s10.192 5.942 22.765 5.942Z" fill="#F5BD22"/><path d="M156.951 161.312c-6.03 0-11.723-.61-16.027-1.715a.248.248 0 0 1-.181-.305.226.226 0 0 1 .041-.089.233.233 0 0 1 .074-.066.234.234 0 0 1 .093-.032.255.255 0 0 1 .099.008c4.264 1.093 9.911 1.697 15.901 1.697 12.203 0 22.513-2.608 22.513-5.693 0-1.308-1.908-2.604-5.372-3.649a.248.248 0 0 1-.141-.123.248.248 0 0 1-.017-.187.25.25 0 0 1 .304-.17c3.747 1.13 5.731 2.558 5.731 4.129 0 3.473-10.111 6.195-23.018 6.195ZM135.661 162.108a.252.252 0 0 1-.252-.251v-4.622a.252.252 0 0 1 .503 0v4.629a.249.249 0 0 1-.251.244ZM134.186 160.425a.252.252 0 0 1-.251-.251v-4.63a.251.251 0 1 1 .502 0v4.63a.241.241 0 0 1-.073.178.245.245 0 0 1-.178.073ZM139.086 163.815a.252.252 0 0 1-.251-.252v-4.63a.252.252 0 0 1 .503 0v4.63a.254.254 0 0 1-.252.252Z" fill="#2C3A64"/><path d="M143.971 165.045a.242.242 0 0 1-.096-.019.252.252 0 0 1-.155-.232v-4.63a.251.251 0 1 1 .503 0v4.63a.252.252 0 0 1-.252.251ZM151.876 166.119a.25.25 0 0 1-.251-.251v-4.63a.252.252 0 0 1 .503 0v4.63a.254.254 0 0 1-.252.251ZM161.272 164.845a.25.25 0 0 1-.251-.251v-3.356a.252.252 0 0 1 .503 0v3.356a.254.254 0 0 1-.252.251ZM178.035 160.712a.25.25 0 0 1-.251-.251v-3.111a.25.25 0 0 1 .429-.177.252.252 0 0 1 .074.177v3.111a.26.26 0 0 1-.019.096.245.245 0 0 1-.233.155ZM173.316 164.299a.247.247 0 0 1-.177-.074.247.247 0 0 1-.074-.177v-4.62a.25.25 0 0 1 .429-.178.252.252 0 0 1 .074.178v4.63a.25.25 0 0 1-.252.241ZM179.717 161.023a.251.251 0 0 1-.253-.251v-4.632a.254.254 0 0 1 .505 0v4.632a.253.253 0 0 1-.252.251ZM138.037 152.062a.254.254 0 0 1-.163-.056.253.253 0 0 1-.06-.318.252.252 0 0 1 .131-.112c5.012-1.932 13.411-2.471 13.494-2.477.136-.038.258.098.268.234a.245.245 0 0 1-.062.182.259.259 0 0 1-.174.085c-.083 0-8.404.54-13.344 2.444a.277.277 0 0 1-.09.018Z" fill="#2C3A64"/><path d="M152.661 169.88c-3.289-.652-7.313-1.041-11.675-1.041-4.362 0-8.38.399-11.677 1.041h-8.364v4.484c0 3.053 8.979 5.528 20.041 5.528 11.062 0 20.039-2.475 20.039-5.528v-4.484h-8.364Z" fill="#F5BD22"/><path d="M140.986 175.056c11.068 0 20.041-2.342 20.041-5.232 0-2.889-8.973-5.232-20.041-5.232s-20.041 2.343-20.041 5.232c0 2.89 8.973 5.232 20.041 5.232Z" fill="#F5BD22"/><path d="M140.986 175.307c-5.31 0-10.322-.536-14.117-1.511a.249.249 0 0 1-.159-.3.244.244 0 0 1 .106-.147.246.246 0 0 1 .179-.037c3.755.963 8.723 1.493 13.991 1.493 11.836 0 19.788-2.576 19.788-4.985 0-1.12-1.714-2.281-4.707-3.19a.274.274 0 0 1-.091-.044.263.263 0 0 1-.096-.172.259.259 0 0 1 .057-.188.253.253 0 0 1 .275-.077c3.312.997 5.064 2.265 5.064 3.663 0 3.087-8.913 5.495-20.29 5.495ZM122.246 176.009a.252.252 0 0 1-.251-.251v-4.075a.251.251 0 1 1 .502 0v4.075a.251.251 0 0 1-.251.251ZM120.945 174.518a.254.254 0 0 1-.252-.251v-4.072a.251.251 0 0 1 .252-.251c.066 0 .13.026.178.073a.253.253 0 0 1 .073.178v4.076a.25.25 0 0 1-.075.174.257.257 0 0 1-.176.073ZM125.259 177.503a.252.252 0 0 1-.252-.251v-4.078a.252.252 0 0 1 .503 0v4.078a.252.252 0 0 1-.251.251Z" fill="#2C3A64"/><path d="M129.559 178.593a.246.246 0 0 1-.233-.154.25.25 0 0 1-.019-.097v-4.075a.252.252 0 0 1 .503 0v4.075a.252.252 0 0 1-.251.251ZM136.517 179.541a.254.254 0 0 1-.252-.252v-4.077a.252.252 0 0 1 .503 0v4.077a.252.252 0 0 1-.251.252ZM144.789 179.541a.252.252 0 0 1-.251-.252v-4.077a.251.251 0 1 1 .502 0v4.077a.255.255 0 0 1-.251.252ZM155.392 177.937a.251.251 0 0 1-.251-.251v-4.075a.251.251 0 1 1 .502 0v4.075a.25.25 0 0 1-.018.097.248.248 0 0 1-.055.081.248.248 0 0 1-.081.055.25.25 0 0 1-.097.018ZM161.025 175.056a.25.25 0 0 1-.177-.074.257.257 0 0 1-.075-.177v-4.078a.252.252 0 0 1 .503 0v4.078a.251.251 0 0 1-.251.251ZM124.335 167.164a.254.254 0 0 1-.246-.204.258.258 0 0 1 .027-.168.248.248 0 0 1 .127-.112c4.418-1.703 11.814-2.18 11.888-2.184h.016a.252.252 0 0 1 .016.501c-.074 0-7.395.476-11.738 2.151a.28.28 0 0 1-.09.016Z" fill="#2C3A64"/><path d="M191.442 172.747c-3.212-.644-7.141-1.027-11.399-1.027-4.258 0-8.181.383-11.4 1.027h-8.166v4.427c0 3.011 8.761 5.451 19.566 5.451 10.804 0 19.566-2.44 19.566-5.451v-4.427h-8.167Z" fill="#F5BD22"/><path d="M180.043 177.788c10.806 0 19.566-2.286 19.566-5.106 0-2.821-8.76-5.107-19.566-5.107s-19.566 2.286-19.566 5.107c0 2.82 8.76 5.106 19.566 5.106Z" fill="#F5BD22"/><path d="M180.043 178.039c-5.188 0-10.083-.522-13.782-1.473a.254.254 0 0 1-.067-.46.25.25 0 0 1 .191-.025c3.661.939 8.512 1.456 13.658 1.456 11.553 0 19.315-2.511 19.315-4.856 0-1.09-1.675-2.221-4.59-3.1a.254.254 0 0 1-.169-.313.243.243 0 0 1 .121-.149.24.24 0 0 1 .094-.029.27.27 0 0 1 .098.01c3.238.975 4.95 2.214 4.95 3.589-.002 2.997-8.707 5.35-19.819 5.35ZM161.748 178.727a.252.252 0 0 1-.252-.251v-3.988a.252.252 0 0 1 .503 0v3.988a.252.252 0 0 1-.251.251ZM160.478 177.269a.244.244 0 0 1-.232-.154.25.25 0 0 1-.019-.097v-3.988a.252.252 0 0 1 .503 0v3.988a.252.252 0 0 1-.252.251ZM164.688 180.183a.252.252 0 0 1-.251-.252v-3.977a.252.252 0 1 1 .503 0v3.977a.25.25 0 0 1-.252.252Z" fill="#2C3A64"/><path d="M168.887 181.249a.25.25 0 0 1-.252-.251v-3.988a.252.252 0 0 1 .503 0v3.988a.25.25 0 0 1-.251.251ZM175.681 182.173a.252.252 0 0 1-.252-.252v-3.988a.252.252 0 0 1 .503 0v3.988a.25.25 0 0 1-.251.252ZM183.748 182.173a.252.252 0 0 1-.251-.252v-3.988a.25.25 0 1 1 .502 0v3.988a.25.25 0 0 1-.073.179.25.25 0 0 1-.178.073ZM198.164 178.831a.25.25 0 0 1-.251-.251v-3.988a.251.251 0 1 1 .502 0v3.988a.25.25 0 0 1-.251.251ZM194.108 180.609a.255.255 0 0 1-.252-.251v-3.988a.252.252 0 0 1 .503 0v3.988a.251.251 0 0 1-.251.251ZM199.609 177.794a.25.25 0 0 1-.252-.251v-3.978a.252.252 0 0 1 .503 0v3.978a.25.25 0 0 1-.251.251ZM163.794 170.089a.255.255 0 0 1-.158-.057.253.253 0 0 1-.061-.311.246.246 0 0 1 .124-.114c5.084-2.114 15.128-2.273 15.563-2.279a.251.251 0 1 1 0 .502c-.103 0-10.375.164-15.364 2.239a.218.218 0 0 1-.104.02Z" fill="#2C3A64"/><path d="M181.667 95.343c-4.218-4.532-13.181-6.346-21.39 3.169-8.211-9.515-17.172-7.7-21.39-3.169-4.39 4.724-5.238 12.805.924 19.603 6.265 6.912 20.466 21.679 20.466 21.679s14.199-14.767 20.466-21.679c6.162-6.798 5.32-14.879.924-19.603Z" fill="#E36822"/><path d="M124.135 54.087a.254.254 0 0 1-.251-.251V43.41a.251.251 0 1 1 .503 0v10.426a.245.245 0 0 1-.02.096.245.245 0 0 1-.136.136.25.25 0 0 1-.096.02ZM130.12 54.087a.251.251 0 0 1-.252-.251V43.41a.252.252 0 0 1 .503 0v10.426a.255.255 0 0 1-.251.251ZM136.102 54.087a.251.251 0 0 1-.252-.251V43.41a.252.252 0 0 1 .503 0v10.426a.255.255 0 0 1-.251.251ZM142.083 54.087a.25.25 0 0 1-.251-.251V43.41a.252.252 0 0 1 .503 0v10.426a.255.255 0 0 1-.252.251ZM148.065 54.087a.254.254 0 0 1-.251-.251V43.41a.25.25 0 1 1 .503 0v10.426a.263.263 0 0 1-.019.096.264.264 0 0 1-.136.136.258.258 0 0 1-.097.02ZM154.047 54.087a.254.254 0 0 1-.251-.251V43.41a.25.25 0 1 1 .503 0v10.426a.263.263 0 0 1-.019.096.264.264 0 0 1-.136.136.258.258 0 0 1-.097.02ZM160.031 54.087a.251.251 0 0 1-.251-.251V43.41a.251.251 0 1 1 .503 0v10.426a.256.256 0 0 1-.252.251ZM166.014 54.087a.254.254 0 0 1-.252-.251V43.41a.252.252 0 0 1 .503 0v10.426a.244.244 0 0 1-.074.178.25.25 0 0 1-.177.073ZM171.996 54.087a.254.254 0 0 1-.252-.251V43.41a.252.252 0 0 1 .503 0v10.426a.248.248 0 0 1-.074.178.25.25 0 0 1-.177.073ZM177.979 54.087a.25.25 0 0 1-.251-.251V43.41a.252.252 0 0 1 .503 0v10.426a.255.255 0 0 1-.252.251ZM183.961 54.087a.25.25 0 0 1-.251-.251V43.41a.25.25 0 1 1 .503 0v10.426a.255.255 0 0 1-.252.251ZM189.943 54.087a.254.254 0 0 1-.251-.251V43.41a.25.25 0 1 1 .503 0v10.426a.263.263 0 0 1-.019.096.264.264 0 0 1-.136.136.258.258 0 0 1-.097.02ZM195.919 54.087a.254.254 0 0 1-.251-.251V43.41a.25.25 0 1 1 .503 0v10.426a.248.248 0 0 1-.074.178.25.25 0 0 1-.178.073Z" fill="#fff"/><path d="M274.831 104.84c1.781 1.97 1.696 3.157 2.282 5.689.433 1.862.621 3.816 1.369 4.161.698.319 1.397-.295 1.097-1.437-.259-.997-.219-1.813.102-2.882a3.97 3.97 0 0 0 .18-1.666l-5.03-3.865Z" fill="#FC9290"/><path d="M278.849 115.023c-.162 0-.323-.036-.471-.105-.694-.317-.935-1.53-1.243-3.065a39.43 39.43 0 0 0-.265-1.268c-.114-.487-.2-.923-.283-1.326-.342-1.689-.547-2.708-1.942-4.251a.253.253 0 0 1 .004-.368.243.243 0 0 1 .089-.052.25.25 0 0 1 .278.083c1.489 1.645 1.718 2.777 2.064 4.49.079.399.167.83.279 1.312.1.429.185.864.269 1.282.246 1.227.499 2.497.96 2.706a.524.524 0 0 0 .567-.048c.239-.199.307-.61.181-1.098-.267-1.033-.237-1.879.106-3.015.163-.501.222-1.03.172-1.554a.252.252 0 0 1 .389-.239.249.249 0 0 1 .105.154c.07.604.006 1.217-.185 1.794-.313 1.039-.343 1.809-.1 2.744.174.68.046 1.282-.347 1.609a.965.965 0 0 1-.627.215Z" fill="#FC9290"/><path d="M258.255 187.893s.094 1.137-.263 1.697-1.327 1.071-1.684 2.548a8.15 8.15 0 0 0-.2 2.704s6.81.544 8.963-.054c.663-.183 2.04-1.324 2.092-1.782.051-.459-.561-6.066-.561-6.066l-8.347.953Z" fill="#BDBEE6"/><path d="M261.765 193.723c-2.41 0-5.467-.163-5.653-.171a.253.253 0 0 1-.237-.265.24.24 0 0 1 .081-.175.242.242 0 0 1 .182-.063c.066 0 6.553.349 8.083.05 1.471-.283 2.654-1.732 2.666-1.744a.248.248 0 0 1 .353-.04.252.252 0 0 1 .038.353c-.052.065-1.309 1.607-2.961 1.924-.846.11-1.699.154-2.552.131Z" fill="#2C3A64"/><path d="M257.11 107.7s4.222 27.701 7.888 46.933c3.779 19.819 5.367 33.745 5.367 33.745s-5.639.492-9.761.099c-4.122-.392-5.026-.51-5.026-.51s-5.106-25.291-8.251-37.296c-3.288-12.552-4.845-22.332-4.845-22.332l-8.38 22.316s4.988 8.424 6.852 19.02c1.864 10.595 2.548 20.272 2.548 20.272l-14.277-1.468s-10.505-33.336-10.701-37.455c-.552-11.603 9.989-43.568 9.632-42.67.004-.01 15.224-5.354 28.954-.654Z" fill="#B5A6CD"/><path d="M229.229 188.477s-9.302 2.961-9.693 3.745c-.391.783 0 2.486 0 2.486l20.376.022-.622-5.22-10.061-1.033Z" fill="#BDBEE6"/><path d="M267.174 188.82a.243.243 0 0 1-.158-.056.244.244 0 0 1-.087-.143c-.056-.277-5.489-28.039-8.861-43.916-3.372-15.878-5.653-35.43-5.681-35.624a.253.253 0 0 1 .499-.059c.024.199 2.3 19.702 5.671 35.573 3.37 15.872 8.805 43.647 8.861 43.926a.258.258 0 0 1-.039.189.255.255 0 0 1-.205.11ZM239.288 189.763a.253.253 0 0 1-.166-.062.257.257 0 0 1-.082-.157c-.018-.132-1.746-13.273-4.445-24.202-1.01-4.088-2.377-7.709-3.472-10.618-.962-2.548-1.656-4.386-1.596-5.286.243-4.386 10.375-25.757 10.814-26.664a.25.25 0 0 1 .335-.12.25.25 0 0 1 .12.335c-.106.221-10.529 22.182-10.775 26.475-.044.798.671 2.686 1.575 5.085 1.043 2.765 2.472 6.556 3.49 10.673 2.707 10.967 4.439 24.127 4.455 24.258a.25.25 0 0 1-.215.281l-.038.002Z" fill="#fff"/><path d="M263.493 190.196a.269.269 0 0 1-.1-.022c-.018 0-1.859-.797-2.951-.724-1.031.08-1.313.262-1.315.264a.258.258 0 0 1-.185.042.258.258 0 0 1-.162-.098.247.247 0 0 1 .04-.341c.056-.046.399-.275 1.584-.367 1.227-.096 3.111.728 3.193.766a.244.244 0 0 1 .133.137.243.243 0 0 1 .017.096.246.246 0 0 1-.115.206.254.254 0 0 1-.139.041ZM227.683 191.032a.254.254 0 0 1-.234-.158 2.607 2.607 0 0 0-1.396-1.444.25.25 0 0 1 .163-.474 3.11 3.11 0 0 1 1.706 1.731.246.246 0 0 1-.113.315.244.244 0 0 1-.118.03h-.008Z" fill="#2C3A64"/><path d="M242.484 128.588a.251.251 0 0 1-.229-.148c-.032-.067-2.993-6.751-2.993-12.097a.25.25 0 0 1 .429-.177.252.252 0 0 1 .074.177c0 5.242 2.923 11.826 2.951 11.89a.264.264 0 0 1 .006.193.248.248 0 0 1-.132.14.272.272 0 0 1-.106.022Z" fill="#fff"/><path d="M198.637 34.981c.626-.432 1.047.443 1.047.443s-.249-1.196.425-1.434c.675-.237 1.046.85 1.046.85s-.2-1.12.519-1.42c.656-.275 1.153.933 1.153.933s-.054-1.168.798-.997c.96.188 1.018 3.54 1.597 5.508.568 1.91.101 2.139 1.105 4.137 1.004 1.998 8.059 16.418 8.688 17.002.973.903 7.183 5.033 7.183 5.033l-.842 12.103s-12.152-9.055-13.868-12.362c-1.145-2.21-4.23-10.752-5.218-15.978-.63-3.338-1.744-5.018-2.594-7.126-1.019-2.552-1.789-6.175-1.039-6.692Z" fill="#FC9290"/><path d="M221.376 77.382a.243.243 0 0 1-.15-.05c-.499-.37-12.219-9.124-13.941-12.448-1.16-2.237-4.24-10.745-5.242-16.045-.455-2.414-1.165-3.946-1.852-5.427-.257-.557-.502-1.083-.734-1.651-.846-2.086-1.995-6.273-.962-6.979a.8.8 0 0 1 .9-.046c.042-.417.2-.83.633-.975a.838.838 0 0 1 .906.26 1.106 1.106 0 0 1 .644-.823.755.755 0 0 1 .599-.001c.212.1.395.252.532.442a.923.923 0 0 1 .252-.36.818.818 0 0 1 .724-.166c.798.156 1.042 1.637 1.325 3.354.112.784.27 1.56.473 2.327.17.568.288 1.15.353 1.738.084.668.15 1.197.734 2.357.176.35.533 1.073 1.008 2.034 1.946 3.934 7.111 14.384 7.628 14.899.948.879 7.1 4.966 7.161 5.006a.26.26 0 0 1 .112.228l-.842 12.1a.252.252 0 0 1-.148.211.23.23 0 0 1-.113.015Zm-22.595-42.195c-.495.34-.03 3.5 1.143 6.38.225.559.467 1.079.722 1.63.701 1.509 1.425 3.07 1.892 5.544.956 5.069 4.028 13.663 5.188 15.908 1.502 2.899 11.373 10.456 13.426 12.001l.798-11.495c-.899-.598-6.185-4.131-7.103-4.985-.485-.452-4.005-7.497-7.734-15.044-.477-.959-.832-1.68-1.007-2.027-.623-1.243-.699-1.835-.785-2.52a9.027 9.027 0 0 0-.337-1.66 20.513 20.513 0 0 1-.485-2.392c-.199-1.273-.471-2.856-.926-2.943a.324.324 0 0 0-.301.051c-.167.146-.199.529-.199.692a.253.253 0 0 1-.367.231.252.252 0 0 1-.116-.125c-.07-.167-.335-.676-.621-.798a.247.247 0 0 0-.199 0c-.517.218-.371 1.137-.369 1.147a.254.254 0 0 1-.184.282.252.252 0 0 1-.299-.152s-.33-.838-.729-.7c-.445.153-.263 1.134-.261 1.144a.252.252 0 0 1-.473.161c-.044-.091-.213-.36-.399-.412a.304.304 0 0 0-.267.066l-.008.016Z" fill="#FC9290"/><path d="M207.492 33.412s.04 1.595.144 2.612c.033.455.1.907.199 1.352l-.343-3.964Z" fill="#fff"/><path d="M207.829 37.627a.25.25 0 0 1-.241-.181c-.1-.46-.167-.926-.2-1.396-.103-1.007-.143-2.564-.145-2.628a.245.245 0 0 1 .068-.18.256.256 0 0 1 .175-.077c.066 0 .129.026.175.072a.248.248 0 0 1 .075.173c0 .016.044 1.595.143 2.592.037.442.104.88.2 1.312a.254.254 0 0 1-.176.31.247.247 0 0 1-.074.003Z" fill="#2C3A64"/><path d="M201.117 34.774s.214 1.595.427 2.58c.078.43.186.853.325 1.266l-.752-3.846Z" fill="#fff"/><path d="M201.869 38.87a.25.25 0 0 1-.231-.154 9.03 9.03 0 0 1-.331-1.316c-.212-.997-.421-2.534-.429-2.592a.25.25 0 0 1 .402-.234c.053.04.088.1.097.166 0 .016.215 1.595.423 2.56.075.415.18.824.313 1.225a.253.253 0 0 1-.003.19.252.252 0 0 1-.135.136.267.267 0 0 1-.106.019Z" fill="#2C3A64"/><path d="M202.817 34.37s.214 1.594.427 2.58c.076.422.182.839.32 1.245l-.747-3.826Z" fill="#fff"/><path d="M203.563 38.447a.25.25 0 0 1-.231-.152 8.613 8.613 0 0 1-.333-1.294c-.212-.997-.421-2.532-.431-2.592a.242.242 0 0 1 .049-.186.256.256 0 0 1 .073-.064.259.259 0 0 1 .093-.031.26.26 0 0 1 .284.213c0 .016.215 1.595.423 2.563.074.405.176.804.305 1.196a.25.25 0 0 1-.001.191.25.25 0 0 1-.231.156Z" fill="#2C3A64"/><path d="M276.411 107.45c-.812-2.327-10.787-13.957-11.531-14.38-1.397-.797-2.448-2.145-9.039-6.326l4.067-8.638s8.636 5.876 11.05 8.717c1.612 1.897 6.712 9.44 8.847 14.311 1.365 3.11 2.828 4.498 4.134 6.36 1.579 2.249 3.145 5.605 2.529 6.279-.515.56-1.12-.199-1.12-.199s.513 1.114-.092 1.491c-.604.377-1.211-.598-1.211-.598s.443 1.047-.187 1.499c-.577.417-1.333-.65-1.333-.65s.315 1.127-.555 1.157c-.976.032-1.796-3.22-2.793-5.007l-2.766-4.016Z" fill="#FC9290"/><path d="M281.956 116.732c-.798 0-1.367-1.378-2.021-2.971a19.76 19.76 0 0 0-.984-2.163.255.255 0 0 1 .189-.374.25.25 0 0 1 .248.126c.382.719.72 1.46 1.012 2.22.487 1.196 1.093 2.66 1.554 2.66a.32.32 0 0 0 .282-.12c.131-.179.083-.56.039-.718a.255.255 0 0 1 .015-.17.254.254 0 0 1 .291-.138.25.25 0 0 1 .141.097c.106.147.479.584.785.636a.26.26 0 0 0 .199-.046c.455-.327.106-1.196.102-1.196a.249.249 0 0 1-.006-.182.248.248 0 0 1 .298-.161.253.253 0 0 1 .149.105s.517.74.868.519c.399-.247 0-1.165 0-1.175a.249.249 0 0 1-.011-.176.251.251 0 0 1 .107-.141.252.252 0 0 1 .174-.032c.061.01.116.041.155.088a.844.844 0 0 0 .493.311.36.36 0 0 0 .245-.125c.399-.443-.758-3.416-2.548-5.964-.345-.493-.696-.945-1.067-1.424-1.022-1.314-2.08-2.674-3.091-4.985-2.153-4.91-7.237-12.4-8.808-14.246-2.141-2.518-9.34-7.531-10.758-8.508l-3.847 8.175c4.144 2.638 6.091 4.157 7.263 5.068.5.414 1.028.793 1.58 1.135.918.528 10.845 12.231 11.643 14.514a.25.25 0 1 1-.475.165c-.838-2.442-10.839-13.907-11.414-14.248a14.415 14.415 0 0 1-1.636-1.173c-1.181-.921-3.158-2.46-7.41-5.16a.25.25 0 0 1-.094-.32l4.066-8.637a.257.257 0 0 1 .162-.136.25.25 0 0 1 .207.037c.354.24 8.692 5.927 11.101 8.76 1.584 1.865 6.716 9.42 8.887 14.373.985 2.251 2.023 3.589 3.025 4.875.377.485.73.941 1.083 1.444 1.293 1.84 3.356 5.664 2.508 6.592a.844.844 0 0 1-.634.287.847.847 0 0 1-.234-.042c.054.417-.016.855-.399 1.093a.842.842 0 0 1-.94-.05 1.105 1.105 0 0 1-.443.947.768.768 0 0 1-.574.133 1.374 1.374 0 0 1-.619-.315.969.969 0 0 1-.163.411.826.826 0 0 1-.669.325h-.026Z" fill="#FC9290"/><path d="M285.348 113.568s-.565-1.498-.998-2.419a9.333 9.333 0 0 0-.632-1.21l1.63 3.629Z" fill="#fff"/><path d="M285.348 113.827a.252.252 0 0 1-.235-.164c0-.014-.567-1.499-.998-2.392a9.791 9.791 0 0 0-.611-1.177.252.252 0 0 1 .343-.354.242.242 0 0 1 .07.069c.248.4.466.817.653 1.248.429.918.98 2.375.997 2.437a.243.243 0 0 1-.005.192.248.248 0 0 1-.14.131.264.264 0 0 1-.074.01Z" fill="#2C3A64"/><path d="M284.097 114.531s-.565-1.5-.998-2.419a9.217 9.217 0 0 0-.599-1.16l1.597 3.579Z" fill="#fff"/><path d="M284.097 114.782a.253.253 0 0 1-.235-.163c0-.014-.567-1.5-.986-2.393a9.04 9.04 0 0 0-.581-1.123.253.253 0 0 1-.044-.187.25.25 0 0 1 .29-.207c.066.01.124.047.163.101.239.382.449.782.627 1.196.429.92.978 2.375.997 2.437a.252.252 0 0 1-.231.339Z" fill="#2C3A64"/><path d="M282.531 115.306s-.565-1.499-.998-2.418a8.808 8.808 0 0 0-.598-1.143l1.596 3.561Z" fill="#fff"/><path d="M282.531 115.562a.253.253 0 0 1-.143-.046.252.252 0 0 1-.093-.118c0-.014-.566-1.499-.985-2.393a8.967 8.967 0 0 0-.569-1.102.256.256 0 0 1-.022-.172.256.256 0 0 1 .096-.146.254.254 0 0 1 .325.023c.236.378.442.774.617 1.184.429.919.977 2.377.997 2.439a.253.253 0 0 1-.147.323.28.28 0 0 1-.076.008Z" fill="#2C3A64"/><path d="m259.072 89.515-4.767-3.421s-.268-.35.541 10.196c.339 4.441 2.264 11.41 2.264 11.41-4.136 2.47-28.499 4.221-29.203 2.137-.705-2.084-3.853-26.599-3.774-27.23.08-.633-7.805-6.126-7.805-6.126a30.21 30.21 0 0 1 .373-6.676c.616-3.655 2.684-6.979 2.684-6.979l12.869 6.768s1.094 5.728 5.136 5.6c4.043-.127 6.846-4.496 6.846-4.496l9.734 3.15 9.412 5.556s-1.992 6.121-4.31 10.111Z" fill="#35488B"/><path d="M204.652 38.979c10.473-3.573 16.064-14.953 12.489-25.419-3.575-10.465-14.964-16.052-25.436-12.48-10.473 3.574-16.064 14.954-12.489 25.419 3.575 10.465 14.964 16.053 25.436 12.48Z" fill="#F5BD22"/><path d="M198.152 36.802a16.798 16.798 0 0 1-11.704-4.764 16.77 16.77 0 0 1-.621-23.392 16.794 16.794 0 0 1 23.382-1.264 16.773 16.773 0 0 1 1.908 23.322 16.794 16.794 0 0 1-12.965 6.098Zm.038-33.057a16.295 16.295 0 0 0-12.57 5.91 16.275 16.275 0 0 0 1.843 22.629 16.296 16.296 0 0 0 22.688-1.223 16.272 16.272 0 0 0-.604-22.696 16.297 16.297 0 0 0-11.357-4.62Z" fill="#2C3A64"/><path d="M195.359 27.695c-.047-.424.214-.667.782-.73.383-.028.768-.01 1.147.057.336.061.677.086 1.018.071.198-.02.394-.058.586-.111l-1.321-8.34-.668-.463c-.378-.266-.691-.485-.94-.656a22.008 22.008 0 0 1-1.093-.844 8.196 8.196 0 0 1-1.062-.997c-.605-.734-.942-1.424-1.011-2.072-.07-.647.187-1.319.77-2.015.586-.698 1.458-1.283 2.616-1.755a6.722 6.722 0 0 0-.122-.786.76.76 0 0 1 .088-.574.372.372 0 0 1 .299-.171c.135-.01.271.007.399.05a.797.797 0 0 1 .567.747l.036.315a14.12 14.12 0 0 1 2.061-.399 4.533 4.533 0 0 1 1.596.07c.372.068.712.25.974.523l-.599.58c-.257.028-.662.046-1.209.054s-.998.026-1.323.046l-.185.02c-.377.043-.751.11-1.12.199l1.349 7.395c2.129 1.4 3.459 2.604 3.991 3.611.27.547.436 1.138.491 1.745.074.674-.103 1.426-.531 2.255a4.52 4.52 0 0 1-2.077 1.966l.183 1.685c0 .054 0 .102.016.15.076.697-.249 1.084-.977 1.164-.443.048-.693-.173-.747-.66l-.02-.187-.245-1.57a7.775 7.775 0 0 1-.7.1c-.322.036-.687.054-1.096.06a5.82 5.82 0 0 1-1.249-.122c-.431-.078-.652-.215-.674-.41Zm1.913-10.936c-.133-.83-.434-2.741-.904-5.73a3.657 3.657 0 0 0-1.374 1.124c-.288.39-.415.875-.358 1.356.104.96.983 2.043 2.636 3.25Zm3.209 9.333c.43-.41.761-.911.969-1.467.189-.44.275-.918.252-1.396-.115-1.045-.895-2.143-2.343-3.294l1.122 6.157Z" fill="#2C3A64"/><path d="M244.236 70.698s-2.021-1.595-2.476-3.656c-.585-2.644.363-5.749.363-5.749l-5.97.509a26.466 26.466 0 0 1-.798 5.166c-.728 2.837-3.374 3.894-3.374 3.894s2.063 4.4 5.268 4.4c3.204 0 6.987-4.564 6.987-4.564Z" fill="#FC9290"/><path d="M237.245 75.51c-3.324 0-5.408-4.36-5.493-4.544a.243.243 0 0 1-.024-.1.263.263 0 0 1 .017-.1.263.263 0 0 1 .14-.141c.026 0 2.536-1.05 3.223-3.725.433-1.673.701-3.385.798-5.11a.251.251 0 0 1 .068-.165.252.252 0 0 1 .161-.077l5.972-.51a.253.253 0 0 1 .268.202.248.248 0 0 1-.006.12c0 .03-.924 3.076-.359 5.624.431 1.95 2.366 3.5 2.394 3.513a.27.27 0 0 1 .094.171.26.26 0 0 1-.058.188c-.17.19-3.911 4.654-7.195 4.654Zm-4.925-4.532c.469.879 2.327 4.03 4.925 4.03 2.685 0 5.884-3.436 6.634-4.286-.537-.472-1.975-1.874-2.364-3.63-.483-2.182.04-4.623.271-5.524l-5.387.46a27.69 27.69 0 0 1-.798 4.998c-.631 2.438-2.58 3.605-3.281 3.952Z" fill="#FC9290"/><path d="M238.248 50.52s-4.806 7.65-5.453 9.371c-.646 1.721-.704 3.286 1.499 5.384 2.202 2.098 6.205-.714 7.877-4.227a49.683 49.683 0 0 0 2.664-7.059l-6.587-3.469Z" fill="#FC9290"/><path d="M236.122 66.238a2.82 2.82 0 0 1-1.996-.797c-2.257-2.148-2.257-3.813-1.562-5.653.648-1.719 5.279-9.097 5.477-9.41a.257.257 0 0 1 .329-.09l6.585 3.464a.25.25 0 0 1 .124.29 50.749 50.749 0 0 1-2.678 7.096c-1.197 2.536-3.568 4.651-5.615 5.03a3.659 3.659 0 0 1-.664.07Zm2.216-15.389c-.756 1.21-4.735 7.605-5.307 9.124-.643 1.701-.627 3.148 1.436 5.113.599.56 1.337.763 2.225.598 1.902-.351 4.111-2.35 5.252-4.752a50.196 50.196 0 0 0 2.594-6.821l-6.2-3.262Z" fill="#FC9290"/><path d="M237.193 49.084c-.836 1.055-.858 3.39 1.554 4.848 1.686 1.012 4.216.996 4.274 1.864.058.867-1.867 3.916-.764 5.063 1.103 1.146 6.295-3.935 5.557-7.229-.738-3.294-7.427-8.581-10.621-4.546Z" fill="#2C3A64"/><path d="M242.257 60.858s1.36-.137 1.039 1.095c-.321 1.232-1.823.798-1.875.399-.052-.399.836-1.494.836-1.494Z" fill="#FC9290"/><path d="M242.279 63.016h-.106c-.451-.028-.953-.26-.997-.632-.06-.46.598-1.328.89-1.68a.252.252 0 0 1 .169-.09c.078 0 .776-.065 1.15.372.219.253.271.598.157 1.033a1.248 1.248 0 0 1-1.263.997Zm.102-1.91c-.399.508-.728 1.058-.712 1.21a.952.952 0 0 0 .706.2.742.742 0 0 0 .678-.619.64.64 0 0 0-.054-.58.859.859 0 0 0-.618-.211Z" fill="#FC9290"/><path d="M234.685 56.143s-6.156 8.217-1.878 11.385c4.278 3.168 7.099-1.326 8.091-2.736.479-.645.909-1.325 1.287-2.033l-.9-.599s-1.664 1.773-2.498 1.434c-1.113-.453-1.173-1.621-2.275-2.67-1.101-1.049-2.071-.668-2.719-1.104-.994-.674.892-3.677.892-3.677Z" fill="#2C3A64"/><path d="M238.462 56.22s-2.494 2.716-2.536 2.902c-.042.185 1.073.893 1.073.893l1.463-3.794ZM236.243 62.543a1.724 1.724 0 0 1-.63-.111 2.117 2.117 0 0 1-.854-.617.252.252 0 0 1 .328-.368.26.26 0 0 1 .073.065c.171.2.389.355.634.451.269.09.557.1.832.032a.252.252 0 0 1 .142.483 2.056 2.056 0 0 1-.525.065ZM207.971 46.295c-1.295-2.32-.944-3.456-.948-6.056 0-1.912.254-3.858-.399-4.36-.608-.469-1.422-.026-1.396 1.154.028 1.037-.2 1.814-.749 2.792a3.962 3.962 0 0 0-.548 1.595l4.04 4.875Z" fill="#FC9290"/><path d="M207.971 46.546a.255.255 0 0 1-.219-.127c-1.082-1.939-1.05-3.093-.998-4.84.012-.399.024-.847.022-1.34 0-.442.012-.885.026-1.312.036-1.25.074-2.542-.327-2.851a.52.52 0 0 0-.563-.08c-.279.142-.437.527-.423 1.03.028 1.068-.199 1.885-.782 2.914-.273.45-.448.953-.515 1.476a.264.264 0 0 1-.265.235.254.254 0 0 1-.173-.083.265.265 0 0 1-.049-.084.244.244 0 0 1-.014-.096 4.18 4.18 0 0 1 .581-1.695c.539-.943.74-1.687.714-2.654-.018-.702.242-1.258.699-1.49a1.016 1.016 0 0 1 1.097.13c.599.467.569 1.701.523 3.262a39.34 39.34 0 0 0-.026 1.296c0 .5-.012.945-.022 1.354-.048 1.725-.076 2.766.938 4.586a.255.255 0 0 1 .022.191.242.242 0 0 1-.12.15.243.243 0 0 1-.126.028Z" fill="#FC9290"/><path d="M247.078 95.341a.252.252 0 0 1-.154-.45c4.444-3.432 6.519-8.626 6.539-8.68a.25.25 0 0 1 .326-.142.253.253 0 0 1 .143.326c-.022.053-2.147 5.383-6.703 8.895a.246.246 0 0 1-.151.051ZM231.295 107.761h-.018a4.116 4.116 0 0 1-2.516-1.082.25.25 0 0 1 .184-.427c.067.001.13.028.177.076a3.665 3.665 0 0 0 2.195.933.252.252 0 0 1 .222.258.256.256 0 0 1-.073.168.245.245 0 0 1-.167.074h-.004ZM249.053 53.872a.25.25 0 0 1-.247-.212c-.316-1.854-2.265-2.193-2.349-2.207a.25.25 0 0 1-.199-.287.248.248 0 0 1 .287-.2c.024 0 2.394.4 2.764 2.619a.256.256 0 0 1-.04.186.254.254 0 0 1-.16.105l-.056-.004ZM239.816 194.16h-20.41a.251.251 0 0 1 0-.502h20.41a.251.251 0 1 1 0 .502ZM42.93 194.86a.631.631 0 0 1-.544-.316.63.63 0 0 1 .003-.629l69.082-117.78a.629.629 0 0 1 1.083.637L43.476 194.549a.622.622 0 0 1-.547.311ZM71.459 194.92a.634.634 0 0 1-.546-.316.624.624 0 0 1 .005-.629l69.08-117.78a.63.63 0 0 1 1.14.167.63.63 0 0 1-.056.47L72.009 194.613a.627.627 0 0 1-.55.307Z" fill="#2C3A64"/><path d="m79.352 179.654-27.535-.064a.246.246 0 0 1-.233-.154.254.254 0 0 1 .233-.348l27.535.064a.25.25 0 0 1 .251.251.254.254 0 0 1-.25.251ZM91.234 159.613l-27.525-.063a.252.252 0 0 1-.178-.429.252.252 0 0 1 .178-.074l27.535.064a.251.251 0 1 1 0 .502h-.01ZM104.448 137.096l-27.536-.064a.261.261 0 0 1-.178-.073.254.254 0 0 1 0-.356.245.245 0 0 1 .178-.073l27.536.064a.25.25 0 1 1 0 .502ZM117.317 115.689l-27.535-.064a.252.252 0 0 1-.252-.251.253.253 0 0 1 .252-.251l27.535.064a.251.251 0 1 1 0 .502ZM129.782 94.793l-27.535-.064a.251.251 0 1 1 0-.502l27.535.063a.251.251 0 1 1 0 .503ZM102.991 17.142s5.661 0 5.892-3.908c.232-3.908-3.284-6.283-6.856-4.828-3.572 1.456-5.03 4.546-6.257 5.695-1.227 1.148-7.477.177-9.428 3.653-2.626 4.68 1.568 6.89 1.031 9.42-.786 3.71-7.225 4.541-9.019 9.745-2.61 7.577 3.965 11.166 11.591 8.646C106 40.27 102.991 17.142 102.991 17.142Z" fill="#2C3A64"/><path d="m121.095 38.303-1.754-9.628s4.719-1.54 7.287-2.285c4.308-1.44 14.167-7.398 15.911-8.311 1.925-1.015 1.686-1.462 3.218-2.652 1.58-1.226 3.526-3.848 4.39-3.454.77.353.066 1.247.066 1.247s1.077-.676 1.442-.086c.399.642-.399 1.42-.399 1.42s.924-.627 1.311-.082c.387.544-.475 1.376-.475 1.376s.828-.455 1.08.24c.301.836-2.363 3.269-4.624 4.699-1.871 1.184-3.477 2.153-6.097 4.173-3.991 3.069-9.753 7.643-11.663 8.85-2.131 1.355-9.693 4.493-9.693 4.493Z" fill="#FC9290"/><path d="M121.094 38.554a.247.247 0 0 1-.203-.103.256.256 0 0 1-.044-.102l-1.748-9.629a.25.25 0 0 1 .17-.283c.048-.016 4.753-1.549 7.295-2.289 3.326-1.11 10.056-4.985 13.672-7.052 1.047-.598 1.795-1.037 2.195-1.238 1.121-.599 1.472-.971 1.915-1.45.386-.43.81-.825 1.267-1.178a19.364 19.364 0 0 0 1.692-1.578c1.197-1.196 2.235-2.24 2.957-1.906a.793.793 0 0 1 .485.546.934.934 0 0 1 0 .421c.214-.072.443-.089.664-.048a.734.734 0 0 1 .471.337 1.075 1.075 0 0 1 .048 1.011.824.824 0 0 1 .86.313c.254.355.154.774-.048 1.129a.783.783 0 0 1 .218.05.798.798 0 0 1 .465.498c.417 1.153-2.871 3.823-4.723 4.997l-.599.37a62.777 62.777 0 0 0-5.489 3.79c-.956.737-2.013 1.558-3.097 2.392-3.501 2.722-7.123 5.537-8.58 6.464-2.131 1.348-9.427 4.387-9.737 4.51a.228.228 0 0 1-.106.028Zm-1.466-9.708 1.658 9.106c1.397-.588 7.512-3.174 9.378-4.352 1.443-.914 5.054-3.721 8.546-6.437a775.032 775.032 0 0 1 3.099-2.402 62.567 62.567 0 0 1 5.523-3.815l.598-.37c2.562-1.624 4.719-3.855 4.52-4.401a.296.296 0 0 0-.17-.2.853.853 0 0 0-.552.094.253.253 0 0 1-.311-.079.247.247 0 0 1-.048-.163.248.248 0 0 1 .067-.157c.186-.171.665-.732.441-1.045-.223-.313-.956.14-.964.144a.253.253 0 0 1-.391-.222.257.257 0 0 1 .074-.165s.643-.646.357-1.108a.24.24 0 0 0-.157-.112c-.296-.07-.798.185-.938.279a.25.25 0 0 1-.318-.046.252.252 0 0 1-.013-.321c.078-.1.287-.434.233-.656-.014-.056-.05-.137-.199-.2-.399-.199-1.555.964-2.395 1.805a19.828 19.828 0 0 1-1.74 1.617c-.436.337-.84.714-1.207 1.125-.457.494-.852.921-2.051 1.551-.377.2-1.169.654-2.173 1.23-3.631 2.086-10.39 5.968-13.768 7.097-2.254.636-6.155 1.898-7.097 2.203h-.002Z" fill="#FC9290"/><path d="M152.1 15.848s-1.069 1.134-1.796 1.794c-.32.309-.662.593-1.023.852l2.819-2.646Z" fill="#FC9290"/><path d="M149.279 18.753a.253.253 0 0 1-.243-.18.247.247 0 0 1 .105-.283c.351-.252.685-.528.998-.827.714-.65 1.773-1.777 1.795-1.795a.253.253 0 0 1 .349-.003.248.248 0 0 1 .079.17.256.256 0 0 1-.062.178c-.044.046-1.084 1.15-1.812 1.817-.331.317-.685.61-1.058.877a.251.251 0 0 1-.151.046ZM151.332 14.522s-1.068 1.134-1.796 1.794a8.67 8.67 0 0 1-.976.818l2.772-2.612Z" fill="#FC9290"/><path d="M148.556 17.393a.243.243 0 0 1-.211-.12.234.234 0 0 1-.035-.091.246.246 0 0 1 .114-.254c.332-.243.646-.51.94-.797.715-.652 1.774-1.779 1.796-1.795a.251.251 0 0 1 .365.345c-.044.046-1.083 1.15-1.814 1.817-.315.306-.653.589-1.011.845a.253.253 0 0 1-.144.05ZM150.214 13.24s-1.069 1.134-1.795 1.794c-.3.289-.62.555-.958.798l2.753-2.592Z" fill="#FC9290"/><path d="M147.457 16.099a.252.252 0 0 1-.132-.467c.325-.238.633-.498.922-.777.714-.65 1.774-1.777 1.796-1.795a.25.25 0 0 1 .349-.003.252.252 0 0 1 .016.348c-.044.046-1.084 1.15-1.814 1.817a8.11 8.11 0 0 1-.998.833.258.258 0 0 1-.139.044Z" fill="#FC9290"/><path d="M107.012 28.043s16.263-.997 18.017-1.636a487.21 487.21 0 0 1 4.085-1.457l2.422 15.752s-18.197-.275-22.852-2.393c-4.655-2.117-1.672-10.266-1.672-10.266Z" fill="#35488B"/><path d="M84.98 120.985s-2.024 13.603-1.769 14.091c.256.489 14.528-.072 14.528-.072a2.945 2.945 0 0 0-.798-2.217c-.95-.981-7.07-2.151-7.862-2.823-.792-.672 2.158-10.369 2.158-10.369l-6.258 1.39Z" fill="#fff"/><path d="M87.048 135.529c-3.877 0-3.99-.226-4.054-.337-.258-.487.98-9.132 1.742-14.243a.25.25 0 0 1 .2-.199l6.25-1.396a.266.266 0 0 1 .129.007.248.248 0 0 1 .165.312c-1.397 4.568-2.594 9.603-2.225 10.119.3.253 1.758.666 3.166 1.067 2.03.576 4.127 1.17 4.703 1.767a3.18 3.18 0 0 1 .875 2.42.251.251 0 0 1-.24.222c-5.188.191-8.54.261-10.71.261Zm-3.605-.626c1.035.253 8.978.054 14.055-.144a2.708 2.708 0 0 0-.74-1.794c-.481-.497-2.698-1.127-4.48-1.631-1.842-.523-2.993-.858-3.362-1.175-.798-.672.997-7.076 1.953-10.229l-5.663 1.266c-.758 5.105-1.81 12.67-1.763 13.707Z" fill="#2C3A64"/><path d="m82.325 129.254.26 6.767h17.868s1.085-2.239-1.854-3.461c-3.148-1.31-3.653-2.174-5.234-2.939-3.468-1.683-2.857-2.592-4.038-2.501-1.181.092-1.429 1.558-1.429 1.558l-5.573.576Z" fill="#BDBEE6"/><path d="m82.53 134.602 18.118.598-18.117-.598Z" fill="#fff"/><path d="m100.648 135.441-18.117-.598a.259.259 0 0 1-.175-.079.253.253 0 0 1-.069-.18.257.257 0 0 1 .26-.244l18.117.589a.251.251 0 1 1 0 .502l-.016.01ZM93.958 133.489a.248.248 0 0 1-.251-.239c0-.08.013-.521.584-1.414a3.216 3.216 0 0 1 1.585-1.262.25.25 0 0 1 .151.478 2.75 2.75 0 0 0-1.313 1.053c-.49.772-.505 1.131-.505 1.135a.254.254 0 0 1-.249.249h-.002ZM91.31 132.263a.246.246 0 0 1-.249-.24c0-.079.012-.52.583-1.413a3.2 3.2 0 0 1 1.584-1.262.248.248 0 0 1 .314.162.25.25 0 0 1-.162.314 2.751 2.751 0 0 0-1.313 1.055c-.491.77-.505 1.131-.505 1.135a.254.254 0 0 1-.25.249h-.001Z" fill="#2C3A64"/><path d="M90.831 131.868a.529.529 0 0 0-.075.587.53.53 0 0 0 .514.293.533.533 0 1 0-.439-.88Z" fill="#fff"/><path d="M91.232 133a.784.784 0 0 1-.051-1.565.76.76 0 0 1 .569.2.784.784 0 0 1-.464 1.371l-.054-.006Zm0-1.064h-.02a.283.283 0 0 0-.253.352.283.283 0 0 0 .086.138.24.24 0 0 0 .2.07.264.264 0 0 0 .11-.027.282.282 0 0 0 .064-.467.287.287 0 0 0-.185-.066h-.002Z" fill="#2C3A64"/><path d="M51.964 102.236s-10.09 6.714-10.453 7.129c-.363.414 4.683 13.175 4.683 13.175a2.948 2.948 0 0 0 1.782-1.547c.574-1.236-.531-7.363-.188-8.344.343-.981 7.726-5.079 7.726-5.079l-3.55-5.334Z" fill="#fff"/><path d="M46.194 122.786c-.05 0-.1-.015-.142-.044a.247.247 0 0 1-.092-.116c-5.104-12.897-4.754-13.295-4.639-13.427.367-.419 8.814-6.048 10.504-7.178a.265.265 0 0 1 .2-.038.254.254 0 0 1 .159.108l3.55 5.327a.26.26 0 0 1-.01.294.26.26 0 0 1-.078.067c-3.592 1.994-7.417 4.387-7.61 4.943-.134.381 0 1.889.135 3.348.2 2.098.4 4.269.042 5.019a3.194 3.194 0 0 1-1.947 1.685.22.22 0 0 1-.072.012Zm-4.452-13.296c.048.917 2.794 8.139 4.59 12.727a2.714 2.714 0 0 0 1.41-1.336c.292-.628.082-2.921-.085-4.763-.174-1.904-.274-3.097-.112-3.559.337-.963 5.952-4.16 7.602-5.083l-3.258-4.893c-3.877 2.586-9.514 6.379-10.147 6.907Z" fill="#2C3A64"/><path d="m45.803 105.654-5.446 2.869 5.823 16.865s2.518.247 2.594-2.933c.091-3.406.716-4.188.866-5.938.325-3.837 1.396-3.589.884-4.662-.513-1.073-1.968-.774-1.968-.774l-2.753-5.427Z" fill="#BDBEE6"/><path d="m41.106 108.202 5.962 17.11-5.962-17.11Z" fill="#fff"/><path d="M47.068 125.563a.25.25 0 0 1-.237-.169l-5.959-17.11a.25.25 0 0 1 .154-.319.268.268 0 0 1 .097-.015.254.254 0 0 1 .222.17l5.96 17.108a.252.252 0 0 1-.155.319.23.23 0 0 1-.082.016ZM49.462 119.603a.254.254 0 0 1-.2-.091 2.749 2.749 0 0 0-1.456-.848c-.896-.183-1.237-.066-1.241-.064a.254.254 0 0 1-.321-.333.245.245 0 0 1 .131-.133c.074-.03.493-.172 1.53.038a3.207 3.207 0 0 1 1.749 1.025.247.247 0 0 1-.038.35.247.247 0 0 1-.154.056ZM49.662 116.698a.247.247 0 0 1-.2-.092 2.743 2.743 0 0 0-1.456-.845c-.896-.185-1.237-.068-1.241-.066a.252.252 0 0 1-.322-.331.245.245 0 0 1 .132-.133c.074-.032.493-.172 1.53.038a3.202 3.202 0 0 1 1.748 1.022.25.25 0 0 1-.2.399l.009.008Z" fill="#2C3A64"/><path d="M46.64 114.963a.533.533 0 1 0-.364 1.002.533.533 0 0 0 .365-1.002Z" fill="#fff"/><path d="M46.455 116.248a.786.786 0 0 1-.734-1.053.778.778 0 0 1 1.5.407.783.783 0 0 1-.774.646h.008Zm0-1.065a.283.283 0 0 0-.245.423.282.282 0 0 0 .15.123.281.281 0 0 0 .365-.165.283.283 0 0 0-.166-.365.252.252 0 0 0-.102-.016h-.002Z" fill="#2C3A64"/><path d="M108.324 30.381s3.059 3.19 2.812 5.992c-.248 2.802-3.392 14.777-3.705 19.291-.314 4.514-.162 7.03-.162 7.03s-7.076.898-12.493-.9a11.86 11.86 0 0 1-7.147-6.598s4.294-15.964 8.48-22.769c4.186-6.805 5.749-5.05 5.749-5.05s1.554 2.57 6.466 3.004Z" fill="#35488B"/><path d="M95.367 126.486s6.185-24.844 7.997-37.75c1.812-12.907 3.193-25.196 3.193-25.196l-18.956-8.344s-1.906 1.196-5.092 9.237c-3.187 8.042-6.373 19.778-6.373 19.778a151.972 151.972 0 0 0-15.262 8.044c-7.714 4.693-13.417 12.234-13.417 12.234l5.535 10.895S85.36 97.451 86.871 96.278c1.51-1.172-5.328 30.595-5.328 30.595l13.824-.387Z" fill="#B5A6CD"/><path d="M86.889 96.53h-.042a.252.252 0 0 1-.2-.29c1.265-7.516.493-30.143.485-30.373a.25.25 0 0 1 .242-.259.264.264 0 0 1 .259.243c0 .228.784 22.906-.489 30.473a.253.253 0 0 1-.255.206Z" fill="#2C3A64"/><path d="m107.67 46.143 19.864 12.706-.93 4.486s-16.847-4.524-21.093-7.148c-4.246-2.624 2.159-10.044 2.159-10.044Z" fill="#FC9290"/><path d="M126.604 63.586a.229.229 0 0 1-.064 0c-.69-.185-16.934-4.564-21.151-7.178a3.136 3.136 0 0 1-1.526-2.263c-.527-3.326 3.448-7.972 3.616-8.171a.25.25 0 0 1 .327-.048l19.873 12.711a.253.253 0 0 1 .11.263l-.928 4.487a.242.242 0 0 1-.114.161.24.24 0 0 1-.143.038Zm-18.878-17.112c-.702.858-3.791 4.832-3.372 7.577a2.608 2.608 0 0 0 1.295 1.912c3.879 2.393 18.632 6.469 20.767 7.05l.84-4.057-19.53-12.482Z" fill="#FC9290"/><path d="m117.262 51.908-7.702 17.867s-9.977-13.16-11.049-17.445c-1.071-4.285-5.367-23.35 3.193-23.7 6.253-.252 5.986 14.893 8.267 17.894 1.195 1.585 7.291 5.384 7.291 5.384Z" fill="#35488B"/><path d="M126.797 57.85c.551-.267.96-1.356 1.834-1.713.6-.226 1.187-.487 1.758-.78.599-.313 1.02-.359 1.277-.03.898 1.139-1.874 2.61-1.874 2.61l-2.995-.087Z" fill="#FC9290"/><path d="m129.792 58.189-2.993-.088a.252.252 0 0 1-.218-.363.245.245 0 0 1 .117-.116c.236-.164.439-.37.598-.61.327-.413.697-.883 1.255-1.11l.216-.088a14.24 14.24 0 0 0 1.518-.682c.274-.144 1.106-.58 1.597.038.096.12.164.262.199.413.034.15.034.307 0 .458-.223 1.06-1.965 2.012-2.163 2.118a.27.27 0 0 1-.126.03Zm-2.352-.57 2.293.065c.516-.285 1.706-1.067 1.849-1.745a.523.523 0 0 0-.112-.458c-.063-.08-.231-.29-.963.097-.508.265-1.03.499-1.565.702l-.215.088c-.435.18-.762.598-1.05.957-.079.102-.157.2-.237.293Z" fill="#FC9290"/><path d="M126.302 58.055s4.59-1.924 5.238-1.846c.649.077 1.183 1.984 1.09 3.68-.094 1.697-.032 2.473-.621 2.866-2.135 1.423-5.403.66-5.966.428l.259-5.128Z" fill="#FC9290"/><path d="M128.777 63.845a9.083 9.083 0 0 1-2.83-.43.255.255 0 0 1-.133-.332.254.254 0 0 1 .333-.133c.415.172 3.647.985 5.73-.399.379-.253.419-.71.477-1.994l.034-.674c.096-1.752-.475-3.37-.87-3.417-.395-.048-2.885.895-5.11 1.828a.254.254 0 0 1-.329-.133.247.247 0 0 1-.001-.193.25.25 0 0 1 .135-.136c.758-.32 4.493-1.869 5.309-1.869h.056c.94.112 1.397 2.373 1.311 3.944l-.032.67c-.06 1.278-.092 1.982-.7 2.393-1.026.67-2.269.875-3.38.875Z" fill="#FC9290"/><path d="M131.54 56.209c.627.08 1.969.438 2.291.61.321.171 1.396.797 1.642 1.066.245.27.666.627.708.886.042.259-.632.636-.997.399-.366-.238-1.275-.32-1.493-.54-.217-.222-1.333-.284-1.333-.284l-.818-2.137Z" fill="#FC9290"/><path d="M135.461 59.495a.771.771 0 0 1-.421-.118 2.962 2.962 0 0 0-.703-.237c-.361-.094-.672-.174-.832-.337-.097-.082-.646-.182-1.169-.212a.251.251 0 0 1-.224-.166.245.245 0 0 1-.013-.097.22.22 0 0 1 .02-.098.243.243 0 0 1 .146-.13.236.236 0 0 1 .099-.01c.365.02 1.243.099 1.498.362.19.093.391.16.599.2.296.058.582.16.848.302a.4.4 0 0 0 .325 0 .55.55 0 0 0 .298-.2 2.982 2.982 0 0 0-.417-.474 8.325 8.325 0 0 1-.236-.247c-.187-.211-1.121-.77-1.57-1.01a11.095 11.095 0 0 0-2.195-.583.252.252 0 0 1-.122-.448.253.253 0 0 1 .186-.05c.614.077 1.995.434 2.376.638.014 0 1.397.753 1.712 1.122.062.072.138.148.216.225.251.256.511.519.552.786a.596.596 0 0 1-.331.566 1.197 1.197 0 0 1-.642.216Z" fill="#FC9290"/><path d="M131.588 57.654c.626.08 1.969.439 2.291.61.321.172 1.255 1.538 1.33 1.898.076.361.274.874.182 1.121-.092.247-.862.241-1.067-.151-.206-.393-.374-.84-.599-1.061-.226-.221-1.333-.285-1.333-.285l-.804-2.132Z" fill="#FC9290"/><path d="M134.984 61.702a.986.986 0 0 1-.884-.453c-.062-.117-.12-.241-.177-.36a2.704 2.704 0 0 0-.368-.643c-.097-.08-.644-.18-1.171-.209a.25.25 0 0 1-.235-.265.243.243 0 0 1 .265-.236c.365.02 1.243.096 1.499.36.194.233.35.495.464.777.054.114.11.231.168.343a.414.414 0 0 0 .279.168.56.56 0 0 0 .352-.02 2.914 2.914 0 0 0-.128-.62 6.142 6.142 0 0 1-.084-.33c-.064-.307-.966-1.595-1.197-1.728-.71-.27-1.445-.466-2.195-.584a.25.25 0 0 1-.209-.183.245.245 0 0 1-.006-.097.257.257 0 0 1 .028-.094.246.246 0 0 1 .251-.123c.598.076 1.995.439 2.376.638.381.2 1.371 1.647 1.461 2.068.018.094.046.2.076.3.091.346.199.705.094.96a.604.604 0 0 1-.569.329l-.09.002Z" fill="#FC9290"/><path d="M131.48 59.04c.627.08 1.968.439 2.291.612.323.174 1.145 1.643 1.165 2.014.02.37.136.903 0 1.135-.135.23-.89.105-1.033-.314-.144-.418-.068-.81-.286-1.028-.217-.22-1.334-.286-1.334-.286l-.803-2.133Z" fill="#FC9290"/><path d="M134.649 63.165h-.098c-.347-.032-.754-.227-.878-.598a2.785 2.785 0 0 1-.112-.534.79.79 0 0 0-.115-.399c-.096-.082-.645-.18-1.17-.211a.253.253 0 0 1-.184-.079.248.248 0 0 1 .022-.366.252.252 0 0 1 .192-.056c.365.02 1.241.098 1.499.36.159.194.248.436.253.687.016.148.046.294.09.437a.408.408 0 0 0 .249.21.57.57 0 0 0 .352.033c.013-.21.002-.422-.032-.63a5.869 5.869 0 0 1-.032-.341c-.016-.303-.798-1.669-1.034-1.795a11.007 11.007 0 0 0-2.195-.584.259.259 0 0 1-.167-.095.249.249 0 0 1-.05-.186.244.244 0 0 1 .281-.215c.615.078 1.996.434 2.379.638.383.203 1.271 1.776 1.297 2.221 0 .096.016.2.028.313.039.353.079.72-.052.957a.558.558 0 0 1-.523.233Z" fill="#FC9290"/><path d="M131.197 60.621c.626.08 2.342.54 2.614.784.664.598.87 2.528.299 3.144-.383.415-.926.012-.9-.598.018-.443.13-.646-.088-.867-.217-.222-1.113-.335-1.113-.335l-.812-2.128Z" fill="#FC9290"/><path d="M133.761 64.97a.673.673 0 0 1-.259-.054.975.975 0 0 1-.543-.969c0-.126.016-.233.028-.327.028-.25.024-.285-.044-.355s-.535-.2-.966-.263a.252.252 0 0 1-.217-.281.243.243 0 0 1 .183-.21.25.25 0 0 1 .098-.006c.231.03.998.148 1.261.41.263.26.214.498.184.76 0 .087-.02.18-.026.292a.494.494 0 0 0 .235.487c.03.012.118.05.232-.074.185-.2.285-.658.261-1.197-.032-.68-.255-1.336-.545-1.595-.187-.167-1.784-.634-2.476-.722a.258.258 0 0 1-.168-.095.243.243 0 0 1-.043-.088.232.232 0 0 1-.006-.098.24.24 0 0 1 .094-.169.242.242 0 0 1 .187-.048c.577.076 2.394.532 2.747.845.479.43.683 1.318.711 1.948.032.682-.112 1.25-.399 1.554a.728.728 0 0 1-.529.255ZM139.819 19.622c2.263-1.302 2.261-2.058 3.739-4.115 1.086-1.512 1.995-3.19 2.794-3.228.746-.026 1.141.785.447 1.702a4.746 4.746 0 0 0-.986 2.628 3.896 3.896 0 0 1-.463 1.566l-5.531 1.447Z" fill="#FC9290"/><path d="M139.819 19.875a.25.25 0 0 1-.243-.318.25.25 0 0 1 .117-.152c1.638-.941 2.035-1.563 2.755-2.692.248-.389.527-.827.904-1.354.25-.345.487-.7.717-1.04.85-1.265 1.522-2.264 2.266-2.292a.982.982 0 0 1 .95.525c.232.442.122 1.033-.291 1.579a4.541 4.541 0 0 0-.938 2.504 4.072 4.072 0 0 1-.501 1.673.252.252 0 0 1-.425-.269c.243-.45.388-.946.427-1.456.118-1.15.399-1.924 1.036-2.753.293-.399.385-.782.247-1.049a.513.513 0 0 0-.487-.251c-.489.018-1.197 1.06-1.867 2.068a35.71 35.71 0 0 1-.725 1.054c-.369.515-.646.947-.89 1.33-.738 1.157-1.183 1.855-2.929 2.86a.248.248 0 0 1-.123.033ZM101.612 22.434s.148 2.78-.475 4.735c-.622 1.956 7.319 4.63 7.319 4.63s-2.594-5.136-2.105-6.604c.489-1.467-4.739-2.761-4.739-2.761Z" fill="#FC9290"/><path d="M108.454 32.05a.279.279 0 0 1-.08-.012c-1.365-.46-8.141-2.861-7.476-4.945.598-1.89.465-4.62.463-4.647a.256.256 0 0 1 .091-.2.251.251 0 0 1 .22-.05c.419.106 4.122 1.053 4.833 2.343a.89.89 0 0 1 .083.742c-.375 1.125 1.383 5.01 2.092 6.414a.256.256 0 0 1-.012.244.25.25 0 0 1-.214.12v-.009Zm-6.585-9.29c.018.812 0 2.894-.498 4.485-.375 1.174 3.627 3.059 6.584 4.117-.682-1.421-2.274-4.968-1.849-6.247a.407.407 0 0 0-.046-.342c-.461-.85-2.923-1.671-4.185-2.012h-.006Z" fill="#2C3A64"/><path d="M100.489 20.326c.977 3.348 4.838 5.166 7.183 4.482 2.344-.684 2.298-3.615 1.323-6.96-.976-3.346-3.674-5.508-6.024-4.822-2.351.686-3.458 3.952-2.482 7.3Z" fill="#FC9290"/><path d="M106.606 25.203c-2.458 0-5.507-1.888-6.357-4.807-1.013-3.476.178-6.89 2.658-7.611 1.217-.357 2.55-.02 3.753.943 1.203.963 2.095 2.38 2.582 4.048 1.219 4.187.716 6.63-1.492 7.274a4.1 4.1 0 0 1-1.144.153Zm-5.876-4.95c.916 3.132 4.545 4.984 6.878 4.31 1.89-.55 2.277-2.791 1.151-6.65-.457-1.569-1.315-2.919-2.412-3.788-1.098-.87-2.245-1.16-3.298-.854-2.215.645-3.255 3.779-2.319 6.98v.001Z" fill="#FC9290"/><path d="M107.896 15.467s3.543-2.562.997-5.61c-3.621-4.334-8.071-.797-8.071-.797s.493 1.595-1.502 4.84c-1.06 1.718-1.507 4.617-1.507 4.617s-3.112.565-.662 2.18c2.45 1.615 4.515 1.76 4.515 1.76s-1.397-1.579-.271-2.233c2.239-1.3 2.44-4.35 2.44-4.35s2.315.101 4.061-.407Z" fill="#2C3A64"/><path d="M101.508 20.436s-1.624-.086-1.339 1.31c.222 1.088 1.69.997 1.97.684l-.631-1.994Z" fill="#FC9290"/><path d="M101.429 22.89c-.169 0-.338-.02-.501-.064a1.31 1.31 0 0 1-.998-1.03 1.26 1.26 0 0 1 .226-1.123c.459-.53 1.333-.486 1.372-.486a.245.245 0 0 1 .174.081.252.252 0 0 1 .064.182.25.25 0 0 1-.081.177.239.239 0 0 1-.185.06c-.185-.01-.718.03-.963.315a.766.766 0 0 0-.116.692.812.812 0 0 0 .645.648c.415.11.822 0 .891-.08a.256.256 0 0 1 .356-.022.252.252 0 0 1 .02.355 1.25 1.25 0 0 1-.904.295Z" fill="#FC9290"/><path d="M106.353 65.642a.25.25 0 0 1-.214-.118c-.033-.054-3.28-5.308-5.257-8.883-1.996-3.613-3.73-18.324-3.803-18.942a.251.251 0 0 1 .221-.277.246.246 0 0 1 .28.22c.017.153 1.795 15.237 3.743 18.764 1.969 3.565 5.21 8.807 5.243 8.861a.246.246 0 0 1 .006.254.256.256 0 0 1-.219.129v-.008ZM109.522 45.298a.26.26 0 0 1-.244-.183c-.054-.2-.123-.455-.199-.764-.693-2.616-2.528-9.571-5.677-12.512a.251.251 0 1 1 .343-.365c3.255 3.043 5.05 9.844 5.819 12.75.079.304.147.56.199.755a.252.252 0 0 1-.241.319ZM111.014 39.272h-.05a.253.253 0 0 1-.2-.196.252.252 0 0 1 .001-.099c.189-1.064.23-2.15.121-3.226a13.606 13.606 0 0 0-3.465-7.523.246.246 0 0 1-.069-.174.25.25 0 0 1 .241-.25.253.253 0 0 1 .177.063c.125.12 3.037 2.99 3.619 7.822.118 1.13.075 2.272-.127 3.39a.257.257 0 0 1-.248.193Z" fill="#2C3A64"/><path d="M80.631 43.66a.248.248 0 0 1-.211-.117c-.058-.091-1.397-2.289-.024-6.239.718-2.085 2.815-3.653 4.842-5.17 1.838-1.376 3.576-2.676 4.13-4.227.6-1.657.276-3.02-.027-4.339-.304-1.318-.589-2.542.036-3.904.97-2.12 3.591-2.82 5.706-3.39.619-.165 1.197-.32 1.666-.494.836-.315 1.375-1.535 1.946-2.825.698-1.58 1.418-3.21 2.845-3.524a.248.248 0 0 1 .299.2.255.255 0 0 1-.036.192.258.258 0 0 1-.163.107c-1.177.259-1.846 1.77-2.492 3.234-.615 1.396-1.197 2.706-2.231 3.094-.485.182-1.082.341-1.714.509-2.007.536-4.505 1.196-5.387 3.104-.555 1.209-.3 2.31 0 3.59.305 1.323.652 2.825.012 4.62-.599 1.692-2.395 3.036-4.302 4.46-1.968 1.47-3.991 2.99-4.671 4.933-1.278 3.704-.036 5.782-.024 5.808a.25.25 0 0 1-.214.383l.014-.004Z" fill="#fff"/><path d="M84.363 18.436a.251.251 0 0 1-.242-.321c1.505-5.158 6.69-5.308 9.476-5.384 1.463-.042 1.878-.56 2.566-1.418.688-.857 1.676-2.091 4.306-3.19 5.166-2.157 7.76.997 7.782 1.037a.25.25 0 0 1 .051.187.251.251 0 0 1-.282.22.253.253 0 0 1-.168-.096c-.094-.118-2.395-2.887-7.199-.885-2.513 1.047-3.393 2.151-4.109 3.039-.716.887-1.247 1.557-2.943 1.595-3.68.105-7.714.598-9.007 5.028a.25.25 0 0 1-.231.188Z" fill="#2C3A64"/><path d="M82.71 177.772s-2.52-9.246 4.47-13.587c3.392-2.105 9.534-2.65 13.105-4.625 3.572-1.976 2.915-4.846 5.348-7.264 2.432-2.419 8.63-.573 11.726-1.33 3.097-.758 5.487-4.503 7.878-3.191 2.39 1.312 3.378 5.982-.617 9.286-3.994 3.304-2.45 5.583-4.094 9.336-1.644 3.752-11.272 2.069-13.095 5.563-1.824 3.493-.182 9.371-2.971 11.734-2.79 2.363-16.687 5.292-21.75-5.922Z" fill="#BDBEE6"/><path d="M71.459 194.547a.254.254 0 0 1-.22-.13.251.251 0 0 1-.022-.191c.034-.118 3.592-11.942 17.032-21.83 8.41-6.193 13.421-8.412 17.843-10.368 2.378-1.053 4.625-2.048 7.207-3.557 7.273-4.245 8.368-6.295 8.38-6.315a.251.251 0 0 1 .451.219c-.04.086-1.099 2.166-8.58 6.53-2.608 1.522-4.866 2.523-7.259 3.59-4.389 1.946-9.378 4.153-17.748 10.314-13.285 9.782-16.813 21.449-16.847 21.564a.248.248 0 0 1-.237.174Z" fill="#2C3A64"/><path d="M61.235 170.145a10.516 10.516 0 0 1-9.474 1.171c-5.407-1.936-5.685-10.153-7.45-11.948-1.767-1.794-7.74-2.931-9.215-6.719-1.475-3.789 1.299-6.87 1.151-8.058-.147-1.188-2.33-5.282.21-7.005 2.54-1.722 5.387 1.751 6.67 5.081 1.283 3.33 3.12 1.896 5.473 3.015 2.353 1.118 2.289 7.431 4.745 8.404 2.456.973 11.292.752 11.433 6.779.142 6.028-4.06 5.442-3.543 9.28Z" fill="#BDBEE6"/><path d="M71.457 195.045a.208.208 0 0 1-.05 0 .25.25 0 0 1-.2-.281c.044-.951-2.195-16.304-9.777-24.066a91.28 91.28 0 0 0-8.82-7.994c-2.26-1.836-4.211-3.422-6.783-6.325-5.126-5.782-7.09-12.575-7.11-12.643a.256.256 0 0 1 .015-.198.26.26 0 0 1 .064-.079.253.253 0 0 1 .404.139c.02.068 1.956 6.756 7.004 12.448 2.548 2.873 4.485 4.447 6.728 6.267a92.622 92.622 0 0 1 8.863 8.034c7.846 8.027 10.035 23.913 9.915 24.503a.249.249 0 0 1-.253.195ZM115.232 163.49a.246.246 0 0 1-.121-.032c-3.037-1.689-9.977-.445-10.047-.433a.235.235 0 0 1-.19-.036.234.234 0 0 1-.103-.163.249.249 0 0 1 .199-.292c.294-.053 7.184-1.286 10.376.487a.247.247 0 0 1 .109.121.251.251 0 0 1-.231.35l.008-.002Z" fill="#2C3A64"/><path d="M58.052 167.294a.247.247 0 0 1-.215-.124c-.068-.111-1.613-2.791-.016-6.606a.254.254 0 0 1 .33-.131.25.25 0 0 1 .132.331c-1.494 3.567-.03 6.129-.013 6.155a.251.251 0 0 1-.09.343.248.248 0 0 1-.128.032ZM43.704 153.518a.253.253 0 0 1-.168-.064c-2.969-2.642-5.263-1.81-5.287-1.794a.245.245 0 0 1-.324-.144.252.252 0 0 1 .146-.325c.104-.04 2.604-.945 5.8 1.898a.25.25 0 0 1 .02.353.246.246 0 0 1-.187.076ZM96.596 176.055a.242.242 0 0 1-.138-.042c-.056-.034-5.83-3.726-11.032-.717a.247.247 0 0 1-.187.018.25.25 0 0 1-.065-.453c5.472-3.17 11.5.694 11.56.734a.249.249 0 0 1 .101.281.251.251 0 0 1-.24.179Z" fill="#2C3A64"/></g><defs><clipPath id="a"><path fill="#fff" d="M0 0h311v204H0z"/></clipPath></defs></svg>