<svg width="176" height="174" viewBox="0 0 176 174" fill="none" xmlns="http://www.w3.org/2000/svg">
<path opacity="0.1" d="M97.7417 6.46452C101.901 8.52909 116.654 17.51 120.448 17.5886C135.885 17.9082 150.562 34.061 162.023 51.5066C166.018 57.5873 169.879 64.0809 172.271 71.5576C174.711 79.1768 175.482 87.4253 175.44 95.3543C175.347 113.183 171.197 130.098 163.78 142.913C159.64 150.07 154.345 156.067 147.808 158.063C142.97 159.538 137.743 158.742 132.684 158.968C123.538 159.376 114.974 163.102 106.262 165.914C87.8738 171.852 70.6411 176.728 49.9425 170.765C-8.94722 153.851 -1.87602 76.1734 3.41896 65.9636C9.8692 53.5122 19.5301 30.271 29.5424 24.0281C34.2839 21.0738 57.7214 -13.3898 97.7417 6.46452Z" fill="#7786FF"/>
<path d="M169.91 15.498L170.076 15.5554V15.5152L169.91 15.498Z" fill="#D2D8FF"/>
<path d="M29.0011 167.08C30.963 147.889 31.9939 128.58 32.0834 109.271C32.0834 106.53 32.0834 103.721 31.2102 101.154C30.5054 99.0735 27.3231 94.8561 26.5499 92.8012C25.3717 89.66 25.9398 88.1893 25.924 84.7918L25.8293 61.9574C25.8293 59.2722 25.8661 56.3616 27.36 54.2298C28.596 54.2298 29.0957 55.9619 29.2377 57.3045L31.3417 77.1308L32.6882 48.7262C32.7461 47.5783 33.1248 46.0615 34.1715 46.0769C36.023 48.3419 36.2124 51.6625 36.3071 54.7115L36.9488 75.7216C38.1533 70.177 37.8956 64.3915 38.2743 58.6983C38.653 53.0051 41.1304 41.9056 43.2449 42.8126C45.3594 43.7196 44.3705 63.6843 42.9977 74.0049C43.3238 64.8425 46.2115 46.5227 49.136 47.8448C52.0605 49.1669 43.713 69.4954 45.5961 80.2669C47.5685 78.3863 48.226 75.3731 49.1254 72.6879C50.0249 70.0027 51.7922 67.1638 54.3854 66.964C55.3479 77.2128 47.5896 85.7654 44.5388 95.5274C42.7189 101.349 41.9667 109.117 41.8615 115.277C41.5564 133.797 40.415 150.476 42.2455 168.894" fill="white"/>
<path d="M85.7036 166.476C87.0995 139.316 88.1464 112.135 88.8443 84.934C88.9438 80.927 89.038 76.915 88.8443 72.9183C88.5093 66.6107 86.5725 60.754 85.9339 54.4721C85.2796 48.062 85.0964 41.6007 84.9132 35.1497C84.8347 32.4801 84.5625 27.93 86.4574 27.5714C88.3523 27.2127 88.0277 31.6142 87.9649 33.8943C87.8707 38.83 88.475 43.7548 89.7604 48.5283C90.6241 43.7272 90.3152 38.7621 90.577 33.8636C90.8387 28.9651 92.5818 19.9418 94.6756 20.2595C96.7694 20.5772 95.042 38.2292 94.6756 47.2063C94.4871 36.8816 96.0209 16.3243 98.8004 16.9751C101.58 17.6258 100.502 37.9012 98.0676 47.9493L100.957 31.3887C101.48 28.381 103.422 22.3347 105.05 24.1281C106.678 25.9215 104.956 42.1336 103.93 51.0493C108.416 49.4506 109.275 41.0422 113.912 40.2173C114.687 45.4488 112.866 50.7214 110.547 55.3073C108.228 59.8932 105.433 64.2076 103.951 69.2239C102.794 73.1437 102.506 77.3249 102.25 81.4497C100.453 109.976 99.5716 138.551 99.6065 167.173" fill="white"/>
<path d="M118.013 167.174L119.852 142.158C120.026 139.781 120.19 137.342 119.513 135.067C118.531 131.772 115.138 129.333 113.299 126.469C108.792 119.449 102.525 103.739 104.845 102.76C109.833 104.394 114.029 108.494 115.904 113.618C116.84 109.436 116.084 105.071 115.878 100.782C115.672 96.4932 117.173 88.0181 119.022 88.715C120.871 89.4119 121.225 103.646 122.324 111.112L122.853 93.178C122.943 90.1036 124.745 83.9548 126.282 85.4049C127.82 86.855 126.663 102.647 126.747 111.271C129.315 110.103 127.883 86.6757 130.414 87.3981C132.945 88.1206 131.735 103.964 132.396 112.244C133.453 106.137 133.949 94.3975 135.63 93.921C137.31 93.4445 137.305 95.658 137.468 96.939C138.483 104.768 139.45 111.901 138.034 119.659C137.352 123.374 134.398 127.017 133.749 130.737C133.067 134.672 133.04 138.7 133.014 142.701C132.961 150.586 132.91 158.471 132.861 166.359" fill="#D2D8FF"/>
<path d="M157.963 165.334L155.908 104.235C155.792 102.904 155.884 101.565 156.182 100.262C156.709 98.3825 159.192 97.2284 160.32 95.6914C164.411 90.1304 166.271 82.9813 166.719 75.9088C167.168 68.8363 166.287 61.7587 165.412 54.7321C165.217 53.1593 164.358 51.081 162.934 51.561C160.531 58.6437 164.389 67.1869 161.047 73.81C159.281 71.3385 159.872 67.8456 160.33 64.7715C160.988 60.325 161.181 55.8255 160.905 51.3414C160.71 48.2163 159.719 44.4068 156.856 43.794C156.488 43.6847 156.089 43.733 155.76 43.9268C155.233 44.2945 155.206 45.086 155.233 45.7549L155.723 61.0183C155.871 65.6141 155.881 70.6338 153.161 74.1726C154.651 66.776 155.138 59.2227 154.611 51.704C154.368 48.2316 151.833 40.7403 150.135 43.2732C148.438 45.806 149.656 61.5953 149.418 70.7563C149.418 70.7563 147.837 60.9519 147.895 55.779C147.895 53.3738 146.456 41.7616 143.151 45.0553C139.845 48.349 144.996 69.015 142.745 74.4381C140.852 69.7095 136.714 60.6506 134.516 61.9221C132.318 63.1936 140.947 81.5668 142.95 91.9279C143.657 95.5995 143.599 99.3834 143.52 103.132C143.077 124.303 142.028 145.454 140.979 166.6" fill="white"/>
<path d="M27.2823 166.48C28.8024 153.319 29.8346 140.118 30.3787 126.875C30.6473 120.331 30.8264 113.781 30.8158 107.231C30.8158 104.317 30.5947 101.418 29.3097 98.7438C28.6567 97.3889 27.8247 96.126 27.1401 94.7864C26.4703 93.457 25.9987 92.0419 25.7393 90.5835C25.2759 88.0526 25.3443 85.4706 25.3022 82.9141C25.3022 81.3802 25.2232 79.8464 25.1706 78.3125C25.0389 74.4522 24.902 70.597 24.8757 66.7368C24.8757 63.3571 24.823 59.911 25.3391 56.562C25.4113 55.5821 25.6891 54.6269 26.1553 53.755C26.4766 53.2437 26.8662 53.2437 27.3033 53.755C28.0459 54.6293 28.3144 55.9536 28.5672 57.0273C28.9559 58.8075 29.2477 60.6063 29.4414 62.4163C29.8943 66.2613 30.1312 70.1267 30.4946 73.9818C30.5631 74.6925 30.6315 75.4032 30.7158 76.1088C30.7158 76.3206 30.8926 76.4923 31.1107 76.4923C31.3289 76.4923 31.5057 76.3206 31.5057 76.1088C31.7637 71.2362 31.7005 66.3431 31.8059 61.4602C31.8585 58.9037 31.9375 56.3064 32.1166 53.7346C32.2114 51.7105 32.4685 49.6968 32.8854 47.7115C33.0487 47.011 33.412 45.2573 34.2493 45.155C34.3641 45.1597 34.4753 45.1951 34.5706 45.2573C34.713 45.3589 34.8344 45.4855 34.9287 45.6306C35.2543 46.1435 35.4909 46.7049 35.6291 47.2923C36.1045 49.1364 36.4041 51.0191 36.5243 52.9165C36.7402 55.3349 36.8508 57.7584 36.9193 60.1871C37.0509 64.6609 37.0035 69.1399 37.093 73.6137C37.093 73.9767 37.093 74.3397 37.1246 74.6976C37.1272 74.8875 37.2725 75.047 37.4663 75.0726C37.6601 75.0982 37.844 74.9822 37.8988 74.7999C38.7782 71.1953 39.1258 67.4321 39.6524 63.7713C40.358 58.8526 41.0532 53.9237 42.0748 49.0562C42.41 47.2652 42.8782 45.5 43.4756 43.7745C43.6479 43.232 43.8979 42.7157 44.2181 42.2407C44.3061 42.128 44.4049 42.0236 44.513 41.9288C44.5648 41.8807 44.6382 41.8614 44.7078 41.8776C45.0133 41.9543 45.2345 42.4605 45.3293 42.844C45.5321 43.6218 45.6434 44.4194 45.661 45.2215C45.7514 47.7145 45.6916 50.2104 45.482 52.6966C45.0765 58.8015 44.3603 64.8859 44.097 71.001C44.097 71.6503 44.0496 72.3048 44.0391 72.9592C44.0416 73.13 44.1602 73.2785 44.3298 73.3236C44.4995 73.3686 44.6794 73.2993 44.771 73.1535C45.2584 72.1544 45.6004 71.0944 45.7874 70.0039C46.1929 68.286 46.5247 66.5578 46.8406 64.8296C47.5989 60.8773 48.2888 56.8995 49.3262 53.0034C49.6544 51.5533 50.1398 50.1411 50.7744 48.7903C50.9595 48.3764 51.2281 48.0026 51.5643 47.6911C51.709 47.513 51.9743 47.4811 52.1594 47.6195C52.4754 47.8291 52.5754 48.3813 52.6281 48.7341C52.7071 49.4837 52.7071 50.2393 52.6281 50.9889C52.4275 53.3192 52.0757 55.6348 51.5749 57.9221C50.1477 65.029 48.3467 72.0542 47.0091 79.1766C46.9681 79.3436 47.0448 79.5169 47.1978 79.603C47.3508 79.6891 47.5439 79.6675 47.6727 79.5498C48.3729 78.8411 48.946 78.0237 49.3684 77.1314C50.1004 75.8327 50.7639 74.5033 51.4748 73.1893C52.1857 71.8753 52.9335 70.4334 53.7814 69.1245C54.3975 68.1684 55.0926 67.0793 56.0774 66.4402C56.5619 66.1283 57.336 65.9289 57.5993 66.4965C57.8626 67.064 57.6362 68.0303 57.4782 68.6797C56.7515 71.5378 55.3717 74.2681 54.0763 76.9218C52.4227 80.3423 50.6796 83.7271 49.0366 87.1476C47.3936 90.5682 45.8137 93.999 44.9238 97.6547C43.6546 102.865 43.5809 108.259 43.4808 113.587C43.3755 119.313 43.2702 125.04 43.2386 130.771C43.1701 142.127 43.3913 153.503 44.4445 164.823C44.578 166.252 44.7236 167.675 44.8816 169.093C44.9396 169.578 45.7295 169.604 45.6715 169.093C44.3708 157.461 44.0127 145.752 44.018 134.054C44.018 128.199 44.1075 122.345 44.2181 116.491C44.3182 110.867 44.2181 105.155 45.3029 99.6181C46.0876 95.5635 47.7043 91.8004 49.4684 88.0731C51.1378 84.5554 52.923 81.099 54.6187 77.6018C55.951 74.8612 57.3781 72.0542 58.1786 69.1143C58.5103 67.8923 58.9948 65.4023 56.9674 65.3665C55.9984 65.3665 55.1769 66.0925 54.5766 66.7572C53.647 67.8446 52.8402 69.0257 52.1699 70.28C50.7007 72.8365 49.5369 75.6128 47.9096 78.0722C47.6952 78.4173 47.4349 78.7336 47.1355 79.0129L47.7938 79.3862C49.0524 72.6831 50.706 66.067 52.1015 59.3946C52.6654 56.8834 53.096 54.3457 53.3917 51.7916C53.5286 50.4827 53.7919 48.6625 53.0546 47.4559C52.8512 47.0973 52.4807 46.8572 52.0616 46.8125C51.6424 46.7677 51.2271 46.9238 50.9482 47.2309C50.0635 48.0643 49.6422 49.4141 49.2736 50.5134C47.9886 54.3328 47.3093 58.3567 46.5563 62.2732C46.1455 64.4462 45.7453 66.6243 45.2713 68.7922C44.9922 70.0755 44.7816 71.5838 44.1128 72.7445L44.85 72.9388C44.9659 66.6856 45.7189 60.4581 46.1824 54.2203C46.3825 51.4849 46.5773 48.7341 46.5036 45.9885C46.4959 45.0562 46.4114 44.1261 46.2508 43.207C46.1802 42.5878 45.9402 41.9981 45.5557 41.4993C43.5493 39.3365 42.1222 45.4669 41.901 46.3361C40.6845 51.173 39.9894 56.1479 39.268 61.0716C38.6465 65.2949 38.1779 69.5591 37.3406 73.7415C37.2826 74.0227 37.2247 74.2988 37.1562 74.5698L37.9356 74.6721C37.7829 70.2391 37.8672 65.796 37.7618 61.3784C37.6986 58.8219 37.6039 56.2246 37.3985 53.6528C37.2787 51.5883 36.9882 49.5365 36.5296 47.5172C36.2768 46.5202 35.9082 45.0017 34.8391 44.5108C33.7701 44.02 32.9644 45.0681 32.6116 45.9066C31.9217 47.5172 31.7321 49.3425 31.5584 51.0605C31.2793 53.5914 31.1634 56.1428 31.0844 58.6839C30.9106 63.9911 30.9686 69.3035 30.7737 74.6056C30.7737 75.1067 30.7526 75.6077 30.7105 76.1088H31.5004C31.0581 72.3968 30.8738 68.6592 30.5104 64.937C30.3208 62.9839 30.0996 61.0256 29.7784 59.0878C29.5705 57.5559 29.1909 56.0505 28.6462 54.5986C28.3355 53.8317 27.8457 52.804 26.9031 52.6455C26.1132 52.5075 25.5866 53.1108 25.2864 53.7397C24.8539 54.7767 24.5858 55.8714 24.4912 56.9864C24.2753 58.643 24.1858 60.3149 24.1331 61.9817C23.9067 69.2779 24.4754 76.5587 24.5228 83.8498C24.5386 86.8102 24.5386 89.8779 25.4655 92.777C26.3923 95.676 28.5093 98.0996 29.3624 101.05C30.2629 104.153 30.0312 107.497 29.9996 110.688C29.968 114.059 29.9013 117.432 29.7995 120.806C29.4063 134.383 28.49 147.934 27.0506 161.459C26.8768 163.136 26.6872 164.813 26.4924 166.49C26.4397 167.002 27.2296 166.976 27.2823 166.49V166.48Z" fill="#001A36"/>
<path d="M83.8009 166.528C84.5723 153.958 85.2516 141.381 85.8389 128.798C86.4261 116.269 86.9195 103.734 87.3191 91.1949C87.5172 84.9764 87.8873 78.7118 87.4495 72.4933C87.0168 66.3874 85.792 60.3736 85.0622 54.2984C84.3221 48.0901 84.0928 41.8358 83.8843 35.5968C83.7557 33.5356 83.9312 31.467 84.4055 29.4551C84.5358 28.9689 84.7808 27.9913 85.2447 27.8173C85.1144 27.8685 85.1821 27.7098 85.2447 27.8838C85.3072 28.0578 85.375 28.1551 85.4219 28.2881C85.7602 29.39 86.0009 30.5184 86.1412 31.661C86.4174 33.35 86.6624 35.0441 86.8657 36.7382C87.3139 40.111 87.684 43.5145 88.3981 46.8413C88.518 47.3941 88.6483 47.9366 88.8151 48.474C88.8669 48.636 89.0199 48.7463 89.1929 48.7463C89.3659 48.7463 89.5189 48.636 89.5708 48.474C90.2276 45.3212 90.2693 41.9893 90.4934 38.7854C90.7957 34.5271 91.0615 30.2535 91.588 25.9901C91.7391 24.4555 92.0092 22.9344 92.3959 21.4401C92.4971 21.0045 92.6734 20.5891 92.9171 20.2117C92.9744 20.1401 93.0943 20.0429 93.0526 20.0582C93.0109 20.0736 93.0891 20.0224 93.1516 20.0582C93.4241 20.4075 93.5936 20.8235 93.6416 21.261C93.7873 22.0351 93.8761 22.8185 93.9074 23.6051C94.0377 25.8263 94.0064 28.0578 93.9856 30.2586C93.9335 35.8271 93.6207 41.5645 94.6267 47.0767C94.7101 47.5425 95.346 47.3634 95.3929 46.9744C95.9558 42.4858 96.2008 37.9614 96.5656 33.4523C96.9096 29.1275 97.1807 24.7106 98.1293 20.4677C98.343 19.5413 98.5776 17.9495 99.3959 17.3047C100.001 16.8184 100.391 17.8625 100.537 18.3999C100.884 20.0504 101 21.7396 100.881 23.4208C100.829 25.8161 100.636 28.2165 100.417 30.5862C99.8963 36.3082 99.0936 41.9996 98.5828 47.7216C98.5853 47.9117 98.7291 48.0714 98.921 48.097C99.1128 48.1226 99.2948 48.0065 99.349 47.824C99.9744 44.8094 100.746 41.8204 101.549 38.8519C102.508 35.3051 103.514 31.7531 104.796 28.3086C105.199 27.1171 105.723 25.9683 106.359 24.8795C106.52 24.6305 106.71 24.4019 106.928 24.1988C106.99 24.1425 107.006 24.2295 106.928 24.1629C107.017 24.2309 107.088 24.3209 107.131 24.424C107.652 25.4834 107.47 26.9472 107.412 28.0732C107.313 30.1204 107.047 32.2189 106.761 34.2763C106.041 39.4559 105.072 44.5996 104.363 49.7791C104.361 49.9049 104.422 50.0237 104.526 50.0972C104.63 50.1707 104.764 50.1896 104.884 50.1476C108.048 49.124 110.404 46.2681 112.546 43.9291C113.114 43.3098 116.945 38.5653 117.759 40.7303C118.212 41.8972 117.389 43.5555 116.914 44.5893C116.114 46.2829 115.212 47.9287 114.214 49.5181C113.26 51.0894 112.26 52.635 111.327 54.2165C110.046 56.442 108.979 58.779 108.137 61.1976C106.339 66.1929 104.566 71.2394 103.967 76.5213C103.326 82.1154 103.071 87.7811 102.716 93.3804C101.986 104.9 101.432 116.432 101.053 127.979C100.678 139.467 100.477 150.961 100.449 162.46C100.449 163.903 100.449 165.346 100.449 166.79C100.449 167.002 100.624 167.173 100.84 167.173C101.056 167.173 101.231 167.002 101.231 166.79C101.231 154.994 101.404 143.2 101.752 131.408C102.099 119.616 102.634 107.834 103.357 96.0622C103.712 90.2532 104.056 84.4339 104.561 78.6299C104.755 75.7563 105.238 72.9086 106.005 70.1287C106.782 67.5441 107.678 64.9748 108.559 62.426C109.41 59.8271 110.509 57.3132 111.843 54.9177C112.791 53.2799 113.823 51.6933 114.808 50.0811C115.848 48.4317 116.786 46.7226 117.618 44.963C118.139 43.7602 118.801 42.3425 118.66 40.9913C118.636 40.0979 117.902 39.3801 116.992 39.3586C115.95 39.4047 114.996 40.3259 114.292 40.9964C111.775 43.3815 109.742 46.3193 106.844 48.3051C106.189 48.7711 105.467 49.1386 104.702 49.3953L105.197 49.7638C105.869 44.8197 106.792 39.9063 107.496 34.9622C107.808 32.7972 108.095 30.622 108.225 28.4366C108.304 27.1161 108.444 25.5704 107.975 24.3011C107.725 23.6204 107.141 23.1137 106.453 23.6204C105.765 24.1271 105.291 25.2736 104.931 26.0873C103.537 29.4832 102.379 32.9681 101.465 36.5181C100.423 40.1826 99.4532 43.8728 98.687 47.6039L99.4532 47.7063C99.9327 42.3169 100.662 36.9582 101.189 31.5689C101.444 29.0098 101.668 26.3893 101.741 23.7944C101.864 22.003 101.765 20.2035 101.444 18.4358C101.262 17.6117 100.829 16.3322 99.7503 16.3885C98.7496 16.4192 98.27 17.6425 97.9886 18.4051C97.4385 20.0919 97.063 21.8289 96.8679 23.5897C96.5239 25.9543 96.2894 28.3342 96.0809 30.7141C95.6014 36.1291 95.3564 41.5697 94.6788 46.9641L95.445 46.8618C94.5016 41.672 94.7778 36.2519 94.83 30.9956C94.83 28.6157 94.8977 26.2255 94.7726 23.8303C94.7049 22.5661 94.7726 20.8259 93.996 19.7358C93.4748 18.9988 92.6929 19.1369 92.2603 19.8432C91.6244 20.8669 91.4577 22.2385 91.2596 23.4259C90.5507 27.6279 90.2901 31.9066 89.9878 36.1496C89.8158 38.5756 89.6542 41.0067 89.4666 43.4326C89.3862 45.0341 89.2034 46.6289 88.9193 48.2079H89.6751C88.716 45.137 88.4398 41.8358 88.0176 38.6779C87.585 35.4381 87.2931 32.1267 86.5321 28.9535C86.407 28.4417 86.2506 27.3618 85.6669 27.0751C84.4368 26.4661 83.8269 28.9484 83.6758 29.6342C83.253 31.7328 83.1024 33.8756 83.2275 36.0114C83.337 39.2307 83.4517 42.4551 83.6445 45.6744C84.025 52.0413 84.9632 58.3008 85.8806 64.6114C86.3392 67.7949 86.7302 70.9937 86.8761 74.213C87.022 77.4323 86.9595 80.6567 86.8761 83.876C86.5113 96.8044 86.0369 109.729 85.4532 122.651C84.8763 135.682 84.2005 148.707 83.4256 161.728C83.3266 163.319 83.2328 164.906 83.1337 166.498C83.1024 167.01 83.8895 167.01 83.9156 166.498L83.8009 166.528Z" fill="#001A36"/>
<path d="M116.317 166.672L117.534 150.497L118.14 142.476C118.322 140.038 118.599 137.554 118.166 135.126C117.821 133.616 117.295 132.151 116.599 130.762C115.701 128.714 114.777 126.711 113.863 124.693C111.577 119.648 109.284 114.603 107.227 109.466C106.413 107.417 105.614 105.368 104.998 103.289C104.784 102.618 104.622 101.934 104.512 101.24C104.472 100.998 104.458 100.752 104.47 100.507C104.467 100.394 104.498 100.282 104.559 100.185C104.528 100.226 104.502 100.185 104.559 100.185C104.686 100.154 104.819 100.154 104.946 100.185C105.313 100.322 105.639 100.549 105.891 100.845C106.768 101.795 107.532 102.84 108.167 103.96C109.733 106.48 111.117 109.25 113.153 111.458C113.514 111.856 113.92 112.212 114.365 112.518C114.47 112.578 114.597 112.587 114.71 112.542C114.822 112.496 114.907 112.403 114.939 112.288C115.529 109.66 115.566 106.859 115.753 104.185C116.009 100.497 116.234 96.8043 116.61 93.1269C116.751 91.7388 116.902 90.3457 117.179 88.973C117.261 88.5189 117.38 88.0719 117.534 87.6362C117.579 87.5121 117.635 87.3921 117.701 87.2777C117.769 87.1599 117.805 87.2162 117.732 87.1957C117.659 87.1753 117.691 87.1701 117.732 87.2214C117.826 87.375 117.952 87.5031 118.035 87.6721C118.269 88.193 118.444 88.7375 118.557 89.2957C118.923 91.1254 119.183 92.9739 119.335 94.8324C119.857 99.7904 120.124 104.789 120.86 109.727C120.928 110.167 121.617 110.039 121.633 109.624L122.103 93.3932C122.102 91.5136 122.312 89.6397 122.729 87.8052C123.058 86.535 123.45 84.7987 124.442 83.846C125.058 83.2519 125.282 84.0714 125.402 84.5836C125.609 85.6474 125.717 86.7274 125.726 87.8104C125.867 91.1549 125.757 94.5098 125.663 97.8543C125.559 101.834 125.397 105.809 125.434 109.788C125.434 109.925 125.508 110.051 125.629 110.119C125.749 110.188 125.897 110.189 126.018 110.121C126.77 109.763 127 108.641 127.162 107.934C127.456 106.505 127.65 105.057 127.741 103.601C128.06 99.8467 128.138 96.077 128.384 92.333C128.458 90.8151 128.613 89.302 128.848 87.8001C128.923 87.3099 129.045 86.8279 129.214 86.3609C129.264 86.2223 129.331 86.0899 129.412 85.9665C129.444 85.9233 129.483 85.8853 129.527 85.8538C129.59 85.8897 129.626 85.8538 129.699 85.9358C129.833 86.0686 129.942 86.2228 130.023 86.3916C130.283 86.9493 130.459 87.5411 130.545 88.1484C130.862 90.1825 131.022 92.237 131.026 94.2946C131.172 99.7853 130.911 105.302 131.349 110.782C131.381 111.181 132.039 111.34 132.122 110.884C132.963 106.177 133.192 101.388 133.955 96.6712C134.087 95.7741 134.27 94.885 134.503 94.0078C134.579 93.4767 134.797 92.9749 135.135 92.5532C135.364 92.4222 135.647 92.4222 135.876 92.5532C136.299 92.7888 136.398 93.4649 136.466 93.89C136.712 95.3088 136.837 96.7634 137.02 98.1924C137.938 105.45 138.586 112.877 137.082 120.104C136.33 123.689 135.156 127.136 134.555 130.732C134.029 134.346 133.791 137.995 133.845 141.646C133.779 150.008 133.723 158.374 133.678 166.743C133.678 166.955 133.853 167.127 134.07 167.127C134.286 167.127 134.461 166.955 134.461 166.743L134.618 143.157C134.618 139.285 134.618 135.392 135.213 131.551C135.808 127.71 137.04 124.078 137.824 120.314C139.39 112.846 138.69 105.199 137.73 97.7007C137.552 96.328 137.453 94.9144 137.208 93.5571C137.046 92.7069 136.628 91.7337 135.605 91.7132C134.122 91.6774 133.819 93.4803 133.568 94.5763C132.378 99.8775 132.331 105.373 131.375 110.71L132.143 110.813C131.741 105.762 131.934 100.671 131.845 95.6058C131.844 93.381 131.715 91.158 131.459 88.9474C131.313 87.8462 131.177 86.1816 130.237 85.4031C128.352 83.8665 127.961 88.7938 127.882 89.5569C127.48 93.3215 127.423 97.1219 127.198 100.902C127.124 102.847 126.95 104.787 126.676 106.715C126.586 107.37 126.438 108.016 126.233 108.646C126.161 108.982 125.977 109.285 125.71 109.507L126.3 109.839C126.233 102.454 126.922 95.0578 126.588 87.6721C126.571 86.5483 126.447 85.4284 126.217 84.3275C126.05 83.6463 125.663 82.7909 124.802 82.9036C123.611 83.0368 123.011 84.7936 122.666 85.7002C122.05 87.3321 121.659 89.0373 121.502 90.7708C121.377 92.1588 121.398 93.5725 121.356 94.9656L121.22 99.7853L120.933 109.676L121.7 109.573C121.006 104.917 120.75 100.205 120.27 95.5239C120.066 93.5315 119.852 91.5237 119.45 89.562C119.267 88.676 119.064 87.1343 118.197 86.5965C116.631 85.6233 116.255 90.2689 116.166 90.904C115.644 94.6019 115.456 98.3409 115.2 102.059C115.059 104.108 114.923 106.126 114.751 108.154C114.677 109.487 114.513 110.813 114.26 112.124L114.84 111.898C113.804 111.088 112.928 110.099 112.255 108.979C111.342 107.642 110.527 106.244 109.686 104.882C108.966 103.641 108.171 102.444 107.306 101.296C106.783 100.595 106.052 99.6931 105.113 99.5036C102.1 98.9043 105.066 105.942 105.389 106.818C107.306 112.021 109.603 117.097 111.879 122.158C113.597 125.973 115.503 129.748 117.001 133.656C117.512 135.129 117.744 136.681 117.685 138.235C117.685 140.868 117.356 143.511 117.163 146.138L115.921 162.692L115.613 166.789C115.576 167.302 116.359 167.302 116.396 166.789L116.317 166.672Z" fill="#001A36"/>
<path d="M160.31 165.719L158.894 127.921L158.183 108.894L158.01 104.172C157.952 102.702 157.804 101.181 158.12 99.7313C158.689 97.1397 160.894 95.3369 162.384 93.237C165.311 89.1089 166.674 84.0948 167.422 79.1882C168.006 74.9606 168.349 70.7048 168.448 66.4403C168.59 62.5786 168.701 58.6246 168.09 54.7885C167.906 53.6156 167.669 52.2738 166.943 51.2853C166.501 50.686 165.658 50.1636 164.937 50.6553C164.216 51.147 164.09 52.3455 163.995 53.1393C163.816 54.6758 163.826 56.2123 163.8 57.7488C163.747 61.5389 163.8 65.4775 162.684 69.1548C162.45 69.9543 162.133 70.7283 161.737 71.4647H162.421C161.937 70.8296 161.894 69.667 161.831 68.868C161.679 67.2086 161.642 65.544 161.621 63.8846C161.563 59.7053 161.621 55.526 161.552 51.3467C161.515 49.5234 161.458 47.6899 161.279 45.8717C161.22 44.6362 160.981 43.4153 160.568 42.2455C160.305 41.6207 159.731 40.837 158.931 41.2212C158.21 41.5438 157.931 42.5374 157.731 43.2084C156.82 46.307 156.651 49.6719 156.383 52.873C156.062 56.704 155.856 60.5555 155.462 64.3712C155.355 65.7223 155.168 67.0664 154.904 68.3968C154.834 68.7754 154.725 69.1461 154.577 69.5031C154.519 69.6209 154.419 69.7233 154.419 69.7438C154.419 69.7643 154.498 69.7438 154.588 69.7438C154.588 69.7438 154.546 69.7438 154.498 69.6311C154.44 69.5126 154.392 69.3892 154.356 69.2624C154.236 68.824 154.151 68.377 154.104 67.9256C153.919 66.4762 153.861 65.0114 153.809 63.5568C153.661 59.6234 153.646 55.6848 153.488 51.777C153.414 49.9127 153.314 48.0484 153.119 46.1892C153.014 44.7772 152.772 43.378 152.398 42.0099C152.177 41.2724 151.829 40.2378 151.003 39.9612C150.176 39.6847 149.74 40.3044 149.497 40.9395C149.154 42.0283 148.977 43.1603 148.971 44.2993C148.871 45.9946 148.882 47.7001 148.913 49.421C148.982 53.3237 149.203 57.2264 149.303 61.1291C149.345 62.6656 149.376 64.2482 149.303 65.8001C149.293 66.6286 149.152 67.4508 148.887 68.238C148.887 68.238 148.855 68.238 148.939 68.238C149.024 68.238 148.987 68.2841 148.939 68.1919C148.78 67.9421 148.649 67.6759 148.55 67.3981C148.178 66.226 147.902 65.0272 147.723 63.8129C147.086 60.197 146.671 56.5504 146.144 52.9191C145.686 49.8461 145.328 46.5324 144.175 43.5976C143.912 42.9318 143.523 41.9382 142.728 41.7128C141.833 41.4619 141.149 42.4145 140.859 43.0906C140.227 44.4888 140.175 46.1329 140.159 47.6386C140.169 49.7996 140.292 51.9586 140.527 54.1073C140.959 58.6451 141.664 63.1983 141.664 67.7668C141.664 69.2214 141.664 70.8399 141.054 72.2176H141.738C140.351 68.9373 138.68 65.7778 136.742 62.7732C136.025 61.5632 135.089 60.4892 133.979 59.6029C133.352 59.1624 132.357 58.7988 131.699 59.4031C131.257 59.8077 131.268 60.5248 131.315 61.0677C131.433 62.0854 131.655 63.0891 131.978 64.0639C132.894 67.1061 134.084 70.0665 135.258 73.0268C136.632 76.53 138.016 80.023 139.243 83.5775C140.543 87.3675 141.607 91.1627 141.833 95.173C141.986 97.8875 141.891 100.612 141.833 103.327C141.766 106.133 141.687 108.938 141.596 111.742C141.41 117.437 141.191 123.131 140.938 128.822C140.443 140.09 139.838 151.332 139.227 162.585C139.148 163.988 139.069 165.386 138.995 166.789C138.969 167.302 139.759 167.302 139.785 166.789C140.385 155.834 140.985 144.879 141.496 133.918C142.007 122.958 142.443 112.018 142.68 101.058C142.775 96.479 142.591 92.0026 141.338 87.5673C140.38 84.1767 139.143 80.8579 137.88 77.5646C136.616 74.2714 135.311 71.0601 134.095 67.7822C133.61 66.4711 133.137 65.1497 132.736 63.8078C132.4 62.8755 132.169 61.9104 132.047 60.9294C132.009 60.6512 132.021 60.3686 132.084 60.0946C132.142 59.9102 132.152 59.8436 132.394 59.7975C133.337 59.6234 134.284 60.8218 134.789 61.4416C137.016 64.0895 138.58 67.3469 140.054 70.4352C140.38 71.1318 140.701 71.8335 141.012 72.5351C141.084 72.6516 141.214 72.7227 141.354 72.7227C141.494 72.7227 141.623 72.6516 141.696 72.5351C142.236 71.1001 142.479 69.5754 142.412 68.0485C142.406 65.8997 142.286 63.7526 142.054 61.6157C141.622 57.1086 140.933 52.5862 140.906 48.0484C140.906 46.5119 140.906 44.8422 141.496 43.4389C141.647 43.0499 141.901 42.7069 142.233 42.4452C142.35 42.357 142.518 42.3751 142.612 42.4862C143.254 43.0547 143.533 44.1354 143.77 44.9498C144.177 46.4188 144.504 47.9079 144.749 49.4107C145.412 53.1393 145.87 56.8986 146.418 60.6426C146.65 62.2047 146.886 63.7668 147.197 65.3084C147.343 66.3376 147.639 67.3414 148.076 68.2893C148.345 68.8014 148.939 69.2777 149.466 68.7451C149.992 68.2124 149.992 67.0857 150.061 66.384C150.308 63.0907 150.061 59.7258 149.94 56.453C149.792 52.7193 149.592 48.9754 149.724 45.2468C149.711 43.998 149.847 42.7519 150.129 41.5336C150.195 41.2366 150.326 40.957 150.513 40.7141C150.556 40.668 150.624 40.6527 150.587 40.6578C150.692 40.6578 150.729 40.6578 150.856 40.7449C151.419 41.1239 151.682 42.2814 151.845 43.0138C152.159 44.5348 152.364 46.0749 152.461 47.6233C152.772 51.5465 152.814 55.4799 152.903 59.4031C152.972 62.4761 152.903 65.6721 153.43 68.7297C153.519 69.2726 153.651 70.3277 154.325 70.5069C154.998 70.6862 155.377 69.7797 155.509 69.2829C155.809 68.1368 156.009 66.9684 156.109 65.7899C156.309 64.0639 156.451 62.3327 156.588 60.6016C156.888 56.7347 157.115 52.8627 157.552 49.0061C157.704 47.4585 157.942 45.9198 158.262 44.3966C158.436 43.6284 158.646 42.563 159.183 42.0253C159.289 41.9228 159.378 41.9382 159.441 41.9945C159.672 42.234 159.84 42.5239 159.931 42.8396C160.294 44.0812 160.504 45.3603 160.557 46.6501C160.878 50.6604 160.815 54.6963 160.815 58.7117C160.815 62.2713 160.694 65.8821 161.094 69.4314C161.184 70.215 161.236 71.2649 161.742 71.9308C161.816 72.0447 161.945 72.1137 162.084 72.1137C162.223 72.1137 162.352 72.0447 162.426 71.9308C164.142 68.7912 164.379 64.9858 164.532 61.503C164.6 59.6951 164.6 57.882 164.642 56.074C164.611 54.7802 164.726 53.4869 164.984 52.2174C165.132 51.6335 165.374 51.0138 165.99 51.444C166.816 52.0228 167.043 53.4313 167.222 54.3224C167.948 57.9639 167.822 61.8052 167.711 65.4928C167.59 69.5902 167.385 73.7387 166.853 77.8156C166.216 82.7222 165.027 87.7465 162.337 91.9975C161.015 94.082 159.031 95.7671 157.946 97.9848C156.741 100.453 157.209 103.383 157.304 106.021L157.988 124.408L159.357 161.181L159.531 165.791C159.531 166.303 160.336 166.303 160.32 165.791L160.31 165.719Z" fill="#001A36"/>
<path d="M72.6509 165.784C73.3992 154.92 73.7049 128.578 74.1212 126.144C74.6379 123.791 75.2799 121.466 76.0448 119.178C77.7471 113.565 77.3887 107.951 77.842 102.088C78.369 95.403 77.2781 82.7679 75.112 82.5995C72.946 82.4311 72.8037 99.71 72.2345 105.471L71.9868 86.1206C71.9868 84.5437 71.9394 82.9159 71.3544 81.4615C70.7694 80.0071 70.1476 77.4301 67.9921 78.7416C65.8366 80.0531 67.7655 96.3573 66.5112 105.058C65.6363 99.8171 66.2898 94.4436 66.4479 89.1212C66.606 83.7987 65.4255 73.7202 63.4387 73.7202C61.4519 73.7202 61.1198 78.4201 61.2779 81.1451L62.0685 94.5406C62.2951 98.3883 62.5059 102.374 61.2147 105.982L60.4453 85.6664C60.3767 83.8191 60.2924 81.9157 59.5599 80.2368C59.1962 79.4101 58.4479 78.5528 57.6099 78.7773C56.772 79.0019 56.4927 80.1858 56.4241 81.14L54.6534 105.124C53.9683 102.318 44.793 93.4128 44.2818 94.7243C43.5387 96.6226 46.042 99.3783 47.2857 100.965C50.0789 104.537 50.6639 109.513 52.6718 113.616C53.515 115.351 56.0658 116.861 56.8141 118.647C57.7206 120.831 57.8365 123.276 57.9156 125.654C58.4004 139.804 57.2779 154.231 56.1712 168.32" fill="#D2D8FF"/>
<path d="M74.9009 166.527C75.6435 156.507 75.8734 146.456 75.5897 136.413C75.5166 133.937 75.3288 131.457 75.407 128.981C75.5359 126.537 76.0481 124.127 76.9256 121.836C77.7337 119.686 78.3227 117.463 78.6843 115.2C78.9659 112.883 79.1123 110.552 79.1226 108.218C79.2635 101.185 80.1298 94.1358 79.4149 87.1075C79.3245 85.8995 79.1148 84.703 78.7886 83.5346C78.5956 82.9017 78.3085 82.0851 77.6719 81.7482C76.4716 81.1153 76.0333 82.8813 75.8663 83.6673C75.5027 85.6383 75.2847 87.6324 75.214 89.634C75.0574 92.1299 74.9635 94.6309 74.833 97.1268C74.7767 99.1753 74.613 101.22 74.3425 103.252C74.2826 103.777 74.1492 104.293 73.9459 104.783C73.922 104.829 73.8902 104.87 73.8519 104.905C73.7841 104.814 74.2225 104.936 74.2225 104.936C74.2225 104.936 74.2225 104.936 74.2225 104.905C74.1977 104.847 74.1768 104.788 74.1598 104.727C73.8561 103.429 73.6538 102.11 73.5545 100.781C73.304 98.5866 73.0953 96.3816 72.8761 94.1817C72.4273 89.7361 72.0829 85.219 71.1592 80.8345C71.0351 80.1762 70.8606 79.5278 70.6373 78.895C70.5291 78.4614 70.2867 78.0711 69.9433 77.7772C68.9831 77.1494 68.4821 78.7163 68.3308 79.339C67.9745 81.1763 67.7997 83.0428 67.8089 84.9127C67.7254 87.4648 67.7359 89.976 67.7567 92.5076C67.7567 94.932 67.8141 97.3514 67.8089 99.7758C67.8089 101.23 67.9237 102.838 67.5897 104.273C67.5897 104.349 67.5428 104.426 67.5271 104.502C67.5115 104.579 67.501 104.528 67.5271 104.528C67.5532 104.528 67.6211 104.456 67.7359 104.461C67.8507 104.466 67.8663 104.518 67.955 104.533C68.0438 104.548 67.955 104.533 67.955 104.533C67.955 104.318 67.7828 103.788 67.7359 103.471C67.5219 101.899 67.4384 100.307 67.3445 98.7244C67.0575 93.9725 66.8748 89.2155 66.5774 84.4636C66.4417 82.2637 66.2903 80.0638 66.0555 77.8742C65.9654 76.4499 65.7241 75.0387 65.3354 73.6633C65.2579 73.2875 65.054 72.9478 64.7561 72.6986C64.062 72.2801 63.1592 73.0049 62.7887 73.5255C61.9694 74.6739 61.7868 76.2511 61.6772 77.6088C61.5867 78.7981 61.5867 79.9923 61.6772 81.1816C62.0164 86.0611 62.4026 90.9406 62.5591 95.8304C62.6787 98.2116 62.6543 100.598 62.4861 102.976C62.4671 103.685 62.3386 104.387 62.1051 105.059C62.0743 105.138 62.0359 105.215 61.9903 105.288C61.9675 105.323 61.9393 105.354 61.9068 105.38C61.9068 105.324 62.0164 105.467 61.9329 105.339C61.7356 104.942 61.5985 104.519 61.5258 104.084C61.3747 103.261 61.2701 102.432 61.2127 101.598C61.0249 99.2705 60.9727 96.9328 60.9309 94.6003C60.8579 90.1393 61.0144 85.6477 60.7431 81.1918C60.7387 80.6768 60.6793 80.1636 60.5656 79.6606C60.2473 78.5275 58.9062 77.2923 57.6485 77.8384C57.0058 78.1786 56.5648 78.7953 56.4587 79.5024C56.2673 80.5509 56.1591 81.6123 56.1351 82.6771L55.5402 90.2771L54.3765 104.87L55.1436 104.768C54.8802 104.021 54.4767 103.328 53.9538 102.726C53.2499 101.827 52.4863 100.975 51.6681 100.174C50.0354 98.5057 48.2365 97.0011 46.2983 95.6823C45.5312 95.1719 43.616 94.0133 43.5742 95.7487C43.6326 96.6562 43.8907 97.5407 44.3309 98.3416C44.9124 99.5821 45.5604 100.792 46.2722 101.965C47.7281 104.451 49.3407 106.86 50.7027 109.402C51.8925 111.633 53.1397 113.832 54.3556 116.037C54.8775 117.007 55.3993 117.972 55.869 118.967C56.7301 120.856 56.9127 122.938 57.0379 124.98C57.2519 129.477 57.2049 133.989 57.0379 138.485C56.6779 147.576 55.7333 156.63 54.9192 165.69C54.8218 166.816 54.7244 167.948 54.627 169.084C54.5852 169.595 55.368 169.595 55.4098 169.084C56.1456 160.407 57.0849 151.73 57.5963 143.023C57.852 138.659 58.0034 134.285 57.9616 129.915C57.9616 127.813 57.9199 125.705 57.7424 123.612C57.6431 121.868 57.2371 120.153 56.5422 118.544C55.4985 116.298 54.22 114.144 53.0249 111.975C51.9029 109.933 50.8175 107.891 49.612 105.936C48.1508 103.522 46.5957 101.144 45.3485 98.6121C44.8589 97.7781 44.5316 96.8626 44.3831 95.912C44.3831 95.8099 44.4353 95.6058 44.3831 95.519C44.3309 95.4322 44.3413 95.5445 44.2996 95.5445C44.479 95.5783 44.654 95.6313 44.8214 95.7028C46.6166 96.5092 48.203 97.9996 49.6381 99.2756C51.2037 100.7 52.8788 102.246 53.9851 104.063C54.1632 104.334 54.302 104.628 54.3974 104.936C54.4516 105.118 54.6339 105.234 54.8259 105.208C55.018 105.183 55.162 105.024 55.1645 104.834L56.3595 89.8637L56.9544 82.376C57.0379 81.3552 56.9544 80.12 57.3928 79.1502C57.529 78.6774 58.002 78.3763 58.4991 78.4458C59.0527 78.6379 59.4979 79.0493 59.7255 79.5789C59.8065 79.7393 59.8594 79.9118 59.882 80.0893C59.9133 80.2629 59.9342 80.5589 59.9551 80.7835C60.0125 81.5542 60.0334 82.3147 60.049 83.1008C60.1064 85.3517 60.1012 87.6077 60.1169 89.8586C60.1429 94.3961 60.002 99.0459 60.67 103.553C60.7692 104.227 60.9205 106.074 61.9433 106.105C63.1018 106.105 63.1853 103.931 63.2636 103.211C63.4463 100.908 63.4829 98.5968 63.3732 96.2897C63.2949 93.5335 63.1384 90.7722 62.9609 88.0211C62.82 85.8417 62.653 83.6673 62.4965 81.493C62.407 80.4303 62.3774 79.3637 62.4078 78.2978C62.4704 76.8942 62.5748 75.1741 63.3941 73.9695C63.5239 73.7612 63.7029 73.5862 63.9159 73.4591C64.0183 73.4136 64.1249 73.3777 64.2342 73.352C64.3438 73.3162 64.4482 73.352 64.3491 73.352C64.2499 73.352 64.2969 73.2754 64.323 73.352C64.3491 73.4285 64.323 73.352 64.396 73.4591C64.5817 73.8553 64.7116 74.2742 64.7822 74.7045C65.102 76.342 65.3181 77.9971 65.4293 79.6606C65.852 84.3972 66.0451 89.1542 66.2851 93.901C66.3947 96.0192 66.4991 98.1425 66.6452 100.266C66.6971 101.609 66.8383 102.947 67.0679 104.273C67.0832 104.585 67.2128 104.882 67.4332 105.11C67.8141 105.39 68.1481 105.048 68.2734 104.706C68.4098 104.229 68.4817 103.737 68.4873 103.242C68.5447 102.43 68.5604 101.608 68.5708 100.797C68.6334 95.9426 68.4456 91.0989 68.5447 86.2347C68.533 84.2166 68.6708 82.2003 68.957 80.2016C69.0116 79.645 69.1671 79.1023 69.4162 78.599C69.4443 78.5426 69.4813 78.4909 69.5258 78.4458C69.5571 78.4101 69.5676 78.4101 69.5676 78.4101C69.5676 78.4101 69.458 78.3182 69.5676 78.4714C70.1311 79.288 70.3608 80.7631 70.5643 81.8401C70.9505 83.9276 71.2114 86.0458 71.4566 88.1589C71.9785 92.6505 72.3281 97.1574 72.8761 101.649C73.0118 102.767 73.0483 104.068 73.4762 105.135C73.6275 105.503 73.9407 105.783 74.3425 105.503C74.6681 105.186 74.8741 104.77 74.9269 104.324C75.2827 102.578 75.48 100.805 75.5166 99.0255C75.668 96.5756 75.7567 94.1256 75.8872 91.6756C75.9967 89.4758 76.1063 87.2555 76.409 85.0709C76.4917 84.3537 76.6455 83.646 76.8682 82.9578C76.9306 82.7819 77.0074 82.6112 77.0978 82.4474C77.1605 82.3505 77.1605 82.3709 77.2022 82.3505C77.15 82.376 77.1709 82.3198 77.244 82.3505C77.7658 82.7077 77.9798 83.4632 78.1415 84.0756C78.4386 85.3185 78.6271 86.5837 78.7051 87.8578C78.9408 91.104 78.9809 94.3609 78.8252 97.6117C78.7678 99.1429 78.653 100.705 78.5434 102.251C78.3764 104.574 78.3764 106.906 78.319 109.234C78.2991 111.59 78.0985 113.941 77.7188 116.267C77.2961 118.569 76.4299 120.718 75.7045 122.933C74.9832 125.144 74.6153 127.451 74.6138 129.773C74.6138 132.217 74.7652 134.667 74.8278 137.112C74.96 142.094 74.96 147.077 74.8278 152.062C74.7095 156.88 74.4712 161.69 74.1129 166.491C74.0763 167.002 74.8591 167.002 74.8956 166.491L74.9009 166.527Z" fill="#001A36"/>
<path d="M28.1644 162.272C30.0781 163.192 32.1574 163.69 34.2689 163.734C34.4443 163.734 34.4443 163.457 34.2689 163.451C32.2052 163.411 30.1725 162.927 28.3014 162.029C28.1425 161.95 28.0055 162.198 28.1644 162.272Z" fill="#001A36"/>
<path d="M27.0315 158.803C29.8941 159.869 32.9131 160.564 35.9967 160.867C36.1619 160.867 36.1619 160.65 35.9967 160.636C32.9362 160.332 29.94 159.641 27.0986 158.582C26.9489 158.527 26.8817 158.748 27.0315 158.803Z" fill="#001A36"/>
<path d="M27.6348 157.103L35.9531 159.142C36.022 159.161 36.0942 159.123 36.1143 159.055C36.1344 158.987 36.0948 158.917 36.0259 158.897L27.6816 156.858C27.5204 156.817 27.4477 157.067 27.614 157.103H27.6348Z" fill="#001A36"/>
<path d="M27.6073 154.797C30.4644 155.895 33.486 156.588 36.5692 156.853C36.7341 156.853 36.7341 156.631 36.5692 156.616C33.509 156.35 30.5102 155.66 27.6743 154.569C27.5197 154.512 27.4527 154.74 27.6073 154.797Z" fill="#001A36"/>
<path d="M28.747 151.951L35.9726 153.985C36.0366 153.996 36.098 153.954 36.1149 153.888C36.1319 153.823 36.0988 153.754 36.0384 153.729L28.8127 151.695C28.7488 151.684 28.6874 151.726 28.6704 151.792C28.6535 151.858 28.6865 151.926 28.747 151.951Z" fill="#001A36"/>
<path d="M28.1616 148.529C30.061 149.628 32.1365 150.314 34.2733 150.547C34.4428 150.547 34.4428 150.279 34.2733 150.256C32.1817 150.028 30.1506 149.355 28.294 148.273C28.2296 148.233 28.1478 148.257 28.1113 148.328C28.0747 148.399 28.0972 148.488 28.1616 148.529Z" fill="#001A36"/>
<path d="M28.1549 145.034C29.853 145.921 31.7495 146.434 33.6972 146.533C33.8704 146.533 33.8704 146.289 33.6972 146.284C31.7957 146.187 29.9439 145.688 28.2848 144.825C28.2216 144.798 28.147 144.82 28.1121 144.876C28.0772 144.931 28.0934 145.002 28.1495 145.039L28.1549 145.034Z" fill="#001A36"/>
<path d="M28.7393 142.194C29.9431 142.713 31.233 143.018 32.5475 143.093C32.7233 143.093 32.7233 142.831 32.5475 142.826C31.2804 142.753 30.037 142.46 28.8767 141.958C28.7173 141.894 28.5744 142.124 28.7393 142.194Z" fill="#001A36"/>
<path d="M29.3569 139.894C30.2389 139.835 31.1245 139.945 31.9598 140.219C32.1081 140.269 32.1703 140.048 32.022 140.003C31.1665 139.723 30.26 139.609 29.3569 139.669C29.2038 139.669 29.199 139.903 29.3569 139.894Z" fill="#001A36"/>
<path d="M46.3807 91.8189L43.1802 89.7849C43.1205 89.7576 43.0502 89.7804 43.0173 89.8378C42.9844 89.8952 42.9996 89.9685 43.0526 90.0075L46.2531 92.0466C46.3909 92.1346 46.5185 91.912 46.3807 91.8189Z" fill="#001A36"/>
<path d="M45.7984 92.9867L40.914 90.932C40.7542 90.8672 40.6211 91.0816 40.7755 91.1464L45.6652 93.2012C45.8197 93.266 45.9528 93.0516 45.7984 92.9867Z" fill="#001A36"/>
<path d="M44.606 94.6975L37.9971 93.2149C37.9285 93.2052 37.8627 93.2426 37.8446 93.3017C37.8264 93.3608 37.8618 93.4224 37.9266 93.4445L44.5626 94.9318C44.6311 94.9416 44.697 94.9041 44.7151 94.8451C44.7333 94.786 44.6979 94.7243 44.6331 94.7023L44.606 94.6975Z" fill="#001A36"/>
<path d="M44.0518 97.4881C42.2425 97.0193 40.4008 96.74 38.5488 96.6533C38.4744 96.6533 38.4141 96.7236 38.4141 96.8102C38.4141 96.8969 38.4744 96.9671 38.5488 96.9671C40.3773 97.0548 42.1955 97.332 43.9817 97.7956C44.1488 97.8396 44.2188 97.5383 44.0518 97.4944V97.4881Z" fill="#001A36"/>
<path d="M44.5835 98.9468C42.6809 98.9524 40.7996 99.274 39.0547 99.8919C38.8913 99.9496 39.0547 100.14 39.1909 100.083C40.8941 99.4842 42.7286 99.1733 44.5835 99.1686C44.6587 99.1686 44.7197 99.119 44.7197 99.0577C44.7197 98.9964 44.6587 98.9468 44.5835 98.9468Z" fill="#001A36"/>
<path d="M55.1629 163.69C59.1338 163.854 63.1126 163.553 66.9853 162.799C67.1504 162.768 67.0781 162.556 66.9182 162.591C63.066 163.333 59.1101 163.624 55.1629 163.457C54.9978 163.457 54.9978 163.669 55.1629 163.673V163.69Z" fill="#001A36"/>
<path d="M55.7459 162.013C58.6 162.015 61.4328 161.524 64.1191 160.562C64.2836 160.503 64.2146 160.244 64.0501 160.302C61.3867 161.26 58.577 161.75 55.7459 161.749C55.6727 161.749 55.6133 161.808 55.6133 161.881C55.6133 161.954 55.6727 162.013 55.7459 162.013Z" fill="#001A36"/>
<path d="M56.3089 159.72C58.5786 159.52 60.8183 159.033 62.9817 158.268C63.1334 158.214 63.0677 157.953 62.9109 158.007C60.7701 158.763 58.5544 159.247 56.3089 159.448C56.147 159.448 56.147 159.731 56.3089 159.72Z" fill="#001A36"/>
<path d="M55.1976 155.705C57.4394 155.351 59.6598 154.863 61.8477 154.245C61.9035 154.215 61.9312 154.149 61.914 154.086C61.8967 154.024 61.8392 153.982 61.7766 153.987C59.591 154.61 57.3722 155.099 55.1315 155.452C54.9688 155.478 55.04 155.731 55.1976 155.705Z" fill="#001A36"/>
<path d="M56.3487 153.409L61.8294 151.98C61.9897 151.934 61.9225 151.657 61.757 151.697L56.2815 153.133C56.116 153.173 56.1884 153.45 56.3487 153.409Z" fill="#001A36"/>
<path d="M56.3932 150.533L60.1337 149.051C60.2944 148.987 60.1337 148.774 59.9952 148.839L56.2546 150.321C56.0939 150.385 56.2546 150.602 56.3932 150.533Z" fill="#001A36"/>
<path d="M55.777 145.956L59.5426 145.056C59.6053 145.033 59.6396 144.968 59.622 144.906C59.6045 144.844 59.5407 144.805 59.4743 144.815L55.7087 145.715C55.5407 145.75 55.6142 145.996 55.777 145.956Z" fill="#001A36"/>
<path d="M56.4062 143.064C57.2783 142.323 58.4028 142.049 59.4762 142.314C59.6288 142.352 59.6927 142.091 59.5402 142.053C58.3817 141.767 57.1681 142.066 56.2291 142.868C56.1061 142.977 56.2832 143.167 56.4062 143.064Z" fill="#001A36"/>
<path d="M56.4032 140.154C56.648 139.531 57.2291 139.222 57.7677 139.43C57.9074 139.492 57.9679 139.213 57.8282 139.156C57.1884 138.911 56.4985 139.275 56.203 140.012C56.1712 140.079 56.1899 140.166 56.2449 140.206C56.2712 140.226 56.3032 140.232 56.3332 140.222C56.3632 140.212 56.3886 140.188 56.4032 140.154Z" fill="#001A36"/>
<path d="M54.114 117.259C54.7899 116.645 55.7059 116.335 56.6343 116.406C56.8009 116.406 56.8009 116.166 56.6343 116.156C55.6369 116.085 54.6547 116.422 53.9317 117.084C53.812 117.194 53.9942 117.369 54.114 117.259Z" fill="#001A36"/>
<path d="M55.1909 118.426C56.4 118.1 57.6762 118.001 58.9339 118.133C59.0919 118.133 59.0919 117.938 58.9339 117.921C57.6536 117.79 56.3555 117.896 55.1267 118.231C54.9736 118.273 55.0378 118.477 55.1909 118.434V118.426Z" fill="#001A36"/>
<path d="M55.7525 120.143C56.6078 119.903 57.4904 119.833 58.3647 119.937C58.5184 119.937 58.5184 119.667 58.3647 119.65C57.4693 119.542 56.5649 119.615 55.6901 119.868C55.6328 119.894 55.6014 119.968 55.6175 120.039C55.6335 120.11 55.6918 120.155 55.7525 120.143Z" fill="#001A36"/>
<path d="M106.598 67.1818L102.236 64.559C102.176 64.5302 102.104 64.5543 102.07 64.6147C102.037 64.6751 102.052 64.7523 102.106 64.7935L106.442 67.3944C106.587 67.4817 106.723 67.2472 106.577 67.1599L106.598 67.1818Z" fill="#001A36"/>
<path d="M105.975 68.279L102.786 67.4186C102.629 67.3734 102.558 67.645 102.715 67.6903L105.909 68.5563C106.066 68.5959 106.137 68.3242 105.975 68.279Z" fill="#001A36"/>
<path d="M105.908 69.7324C104.868 69.9719 103.803 70.0318 102.748 69.9102C102.587 69.9102 102.587 70.1739 102.748 70.1968C103.827 70.3204 104.916 70.2566 105.978 70.0076C106.134 69.9732 106.069 69.6923 105.908 69.7324Z" fill="#001A36"/>
<path d="M105.383 72.0055C104.05 72.1238 102.752 72.4398 101.544 72.9392C101.391 73.0027 101.544 73.1976 101.676 73.1341C102.837 72.652 104.085 72.3454 105.367 72.2276C105.536 72.2276 105.536 71.9828 105.367 72.001L105.383 72.0055Z" fill="#001A36"/>
<path d="M100.779 127.046C99.3127 127.011 97.8464 127.127 96.4107 127.394C96.2523 127.425 96.3187 127.642 96.4822 127.61C97.8945 127.349 99.3368 127.235 100.779 127.272C100.85 127.272 100.907 127.221 100.907 127.159C100.907 127.097 100.85 127.046 100.779 127.046Z" fill="#001A36"/>
<path d="M100.741 129.342C98.6134 130.067 96.3909 130.57 94.1219 130.84C93.9555 130.84 94.0283 131.07 94.1894 131.053C96.4622 130.784 98.6883 130.281 100.819 129.555C100.975 129.506 100.907 129.289 100.751 129.342H100.741Z" fill="#001A36"/>
<path d="M100.746 132.203L96.4147 133.087C96.2511 133.119 96.3176 133.376 96.4812 133.344L100.813 132.46C100.976 132.428 100.91 132.171 100.746 132.203Z" fill="#001A36"/>
<path d="M100.777 135.068C98.2379 135.29 95.7702 135.992 93.516 137.131C93.3656 137.206 93.516 137.419 93.6456 137.345C95.8608 136.224 98.2863 135.534 100.782 135.316C100.948 135.316 100.948 135.053 100.782 135.068H100.777Z" fill="#001A36"/>
<path d="M101.355 137.935C98.5801 138.269 95.7977 138.561 93.0083 138.814C92.8384 138.814 92.8384 139.091 93.0083 139.08C95.7977 138.831 98.5801 138.538 101.355 138.201C101.52 138.201 101.525 137.913 101.355 137.935Z" fill="#001A36"/>
<path d="M100.76 140.228C99.7262 140.45 98.6632 140.574 97.5931 140.598C97.5233 140.598 97.4668 140.643 97.4668 140.699C97.4668 140.755 97.5233 140.8 97.5931 140.8C98.6854 140.776 99.7704 140.65 100.826 140.423C100.886 140.404 100.919 140.352 100.902 140.302C100.885 140.252 100.824 140.22 100.76 140.228Z" fill="#001A36"/>
<path d="M100.148 142.535L98.098 143.429C98.0418 143.468 98.0228 143.544 98.0541 143.606C98.0896 143.664 98.1617 143.683 98.22 143.652L100.27 142.752C100.299 142.737 100.32 142.709 100.328 142.676C100.337 142.644 100.332 142.609 100.314 142.581C100.279 142.523 100.207 142.503 100.148 142.535Z" fill="#001A36"/>
<path d="M116.565 130.478L119.154 130.086C119.328 130.06 119.255 129.881 119.08 129.91L116.486 130.302C116.312 130.327 116.385 130.503 116.565 130.478Z" fill="#001A36"/>
<path d="M116.549 132.195C118.124 131.848 119.785 131.736 121.425 131.866C121.587 131.866 121.587 131.696 121.425 131.681C119.76 131.548 118.074 131.662 116.476 132.018C116.318 132.051 116.387 132.232 116.549 132.195Z" fill="#001A36"/>
<path d="M118.309 133.234C119.286 132.879 120.404 132.915 121.345 133.332C121.499 133.402 121.631 133.208 121.483 133.142C120.455 132.687 119.235 132.652 118.171 133.045C118.018 133.102 118.171 133.292 118.309 133.234Z" fill="#001A36"/>
<path d="M118.267 135.304C119.126 135.21 119.999 135.323 120.78 135.629C120.929 135.687 121.057 135.508 120.908 135.45C120.068 135.119 119.125 134.998 118.2 135.104C118.037 135.104 118.108 135.321 118.267 135.304Z" fill="#001A36"/>
<path d="M133.464 151.695L127.974 152.538C127.813 152.538 127.813 152.863 127.974 152.839L133.464 151.996C133.625 151.996 133.63 151.671 133.464 151.695Z" fill="#001A36"/>
<path d="M134.013 153.414C131.635 153.41 129.311 154.124 127.334 155.465C127.202 155.552 127.334 155.777 127.465 155.685C129.41 154.372 131.697 153.678 134.033 153.69C134.103 153.69 134.159 153.633 134.159 153.562C134.159 153.491 134.103 153.434 134.033 153.434L134.013 153.414Z" fill="#001A36"/>
<path d="M134 155.71C131.672 156.224 129.427 157.104 127.338 158.322C127.196 158.404 127.338 158.638 127.47 158.557C129.539 157.352 131.761 156.481 134.066 155.972C134.228 155.939 134.162 155.677 134 155.71Z" fill="#001A36"/>
<path d="M133.418 158.579C131.731 159.131 130.084 159.811 128.489 160.614C128.337 160.691 128.489 160.929 128.62 160.851C130.197 160.061 131.825 159.39 133.491 158.844C133.561 158.823 133.601 158.746 133.581 158.673C133.56 158.6 133.488 158.557 133.418 158.579Z" fill="#001A36"/>
<path d="M133.984 161.44C131.06 162.105 128.245 163.182 125.622 164.637C125.475 164.715 125.622 164.946 125.752 164.862C128.363 163.427 131.162 162.369 134.068 161.718C134.23 161.681 134.162 161.424 134 161.461L133.984 161.44Z" fill="#001A36"/>
<path d="M158.776 96.4409L156.174 93.8264C156.055 93.708 155.866 93.8806 155.985 93.999L158.588 96.6136C158.706 96.732 158.895 96.5593 158.776 96.4409Z" fill="#001A36"/>
<path d="M157.608 97.5447L153.837 94.9567C153.702 94.8587 153.573 95.0984 153.712 95.191L157.483 97.779C157.618 97.8716 157.742 97.6373 157.608 97.5447Z" fill="#001A36"/>
<path d="M157.536 99.5202L150.914 99.902C150.747 99.902 150.742 100.104 150.914 100.093L157.536 99.7111C157.708 99.7111 157.714 99.5126 157.536 99.5202Z" fill="#001A36"/>
<path d="M140.027 159.577H146.638C146.712 159.577 146.773 159.513 146.773 159.433C146.773 159.354 146.712 159.29 146.638 159.29H140.027C139.953 159.29 139.893 159.354 139.893 159.433C139.893 159.513 139.953 159.577 140.027 159.577Z" fill="#001A36"/>
<path d="M139.457 157.857H145.49C145.566 157.857 145.627 157.793 145.627 157.714C145.627 157.634 145.566 157.57 145.49 157.57H139.457C139.382 157.57 139.32 157.634 139.32 157.714C139.32 157.793 139.382 157.857 139.457 157.857Z" fill="#001A36"/>
<path d="M139.444 154.56L148.37 154.265C148.535 154.265 148.535 153.981 148.37 153.987L139.444 154.282C139.279 154.282 139.279 154.566 139.444 154.56Z" fill="#001A36"/>
<path d="M140.596 152.124H146.071C146.142 152.124 146.2 152.059 146.2 151.98C146.2 151.901 146.142 151.837 146.071 151.837H140.596C140.525 151.837 140.467 151.901 140.467 151.98C140.467 152.059 140.525 152.124 140.596 152.124Z" fill="#001A36"/>
<path d="M138.876 148.251L145.495 147.97C145.667 147.97 145.673 147.671 145.495 147.683L138.876 147.964C138.703 147.964 138.703 148.256 138.876 148.251Z" fill="#001A36"/>
<path d="M139.45 145.959C141.265 145.718 143.095 145.625 144.924 145.68C145.097 145.68 145.097 145.408 144.924 145.402C143.095 145.347 141.265 145.44 139.45 145.68C139.277 145.68 139.277 145.981 139.45 145.959Z" fill="#001A36"/>
<path d="M140.649 143.662C141.665 143.436 142.713 143.324 143.764 143.331C143.843 143.331 143.907 143.278 143.907 143.212C143.907 143.147 143.843 143.094 143.764 143.094C142.686 143.089 141.611 143.203 140.569 143.435C140.494 143.453 140.451 143.519 140.473 143.582C140.495 143.645 140.574 143.681 140.649 143.662Z" fill="#001A36"/>
<path d="M38.0798 90.92C36.4495 89.5754 28.7164 85.3934 29.2684 83.3024C29.7289 81.8051 31.195 80.8408 32.7661 81.0017C34.3014 81.2578 35.6019 82.2658 36.2226 83.6807C36.2226 83.6807 36.7384 79.6929 38.2861 78.7574C39.9199 77.8435 41.9899 78.3608 42.991 79.9332C44.0795 81.6868 43.5069 84.0846 42.3874 85.8075C41.2679 87.5304 38.0798 90.92 38.0798 90.92Z" fill="#7786FF"/>
<path d="M61.8688 113.091C61.3939 112.508 61.2293 111.721 61.4289 110.989C61.6134 110.283 62.1624 109.739 62.856 109.576C63.3495 109.501 63.8528 109.607 64.278 109.875C64.9848 110.429 65.6132 111.082 66.145 111.814C66.6951 111.084 67.2073 110.324 67.6796 109.539C68.089 108.669 68.9483 108.117 69.8893 108.12C70.9123 108.22 71.7768 109.423 71.654 110.606C71.5553 111.318 71.234 111.978 70.7384 112.487C70.2781 113.012 67.0146 116.659 66.4929 118.44L61.8688 113.091Z" fill="#7786FF"/>
<path d="M125.766 117.399C124.784 116.171 123.499 115.055 121.927 114.784C120.355 114.513 118.516 115.367 118.166 116.892C117.889 118.12 118.626 119.379 119.603 120.193C120.58 121.007 121.791 121.503 122.888 122.158C124.867 123.339 126.48 125.027 127.553 127.04C127.553 127.04 131.376 117.281 131.293 116.089C131.316 115.498 131.033 114.936 130.541 114.595C130.311 114.491 130.062 114.437 129.809 114.436C128.899 114.372 127.997 114.644 127.281 115.198C126.67 115.856 126.16 116.597 125.766 117.399Z" fill="#7786FF"/>
<path d="M151.452 78.4253C150.846 77.7301 150.102 77.1648 149.265 76.7644C148.416 76.3632 147.435 76.3314 146.56 76.6767C145.251 77.3237 144.693 78.8732 145.294 80.1893C145.75 80.9289 146.387 81.5442 147.146 81.9791L152.635 85.7599C153.38 84.2243 154.268 82.76 155.288 81.386C155.994 80.4317 156.789 79.4827 157.035 78.3273C157.281 77.1719 156.732 75.7483 155.565 75.4852C154.56 75.2531 153.571 75.9495 152.949 76.7438C152.491 77.3386 151.991 77.9005 151.452 78.4253Z" fill="#7786FF"/>
<path d="M93.3297 50.4176C93.1755 50.3051 92.9911 50.2344 92.7968 50.2134C92.6255 50.2227 92.4591 50.2705 92.3118 50.3528C91.2086 50.8807 90.3293 52.0461 90.6544 53.1666C90.7381 53.425 90.8526 53.6739 90.9955 53.9086C92.0081 55.7164 94.9499 59.3867 94.9499 59.3867C95.5574 58.824 98.787 57.3449 99.6504 56.9763C100.55 56.6528 101.303 56.0495 101.782 55.2682C102.283 54.4649 102.071 53.4393 101.287 52.8678C100.365 52.0162 96.4421 52.1307 95.9252 53.9534C95.8719 53.9285 94.1824 50.9604 93.3297 50.4176Z" fill="#7786FF"/>
</svg>
