<?xml version="1.0" encoding="UTF-8"?>
<svg width="40px" height="40px" viewBox="0 0 40 40" version="1.1" xmlns="http://www.w3.org/2000/svg" xmlns:xlink="http://www.w3.org/1999/xlink">
    <title>AB52B916-0CEC-4871-8E5C-8EE5FC4BF5D4</title>
    <g id="desktop---batch-1" stroke="none" stroke-width="1" fill="none" fill-rule="evenodd">
        <g id="01.02.03-Common-page---Agenda---Share-popup" transform="translate(-1188.000000, -733.000000)" fill="#5c6ad7">
            <g id="ui/popup/share" transform="translate(1164.000000, 687.000000)">
                <g id="facebook" transform="translate(24.000000, 46.000000)">
                    <path d="M40,20 C40,8.95429688 31.0457031,0 20,0 C8.95429688,0 0,8.95429688 0,20 C0,29.9825781 7.31371094,38.2566406 16.875,39.7570312 L16.875,25.78125 L11.796875,25.78125 L11.796875,20 L16.875,20 L16.875,15.59375 C16.875,10.58125 19.8608594,7.8125 24.4292969,7.8125 C26.6174609,7.8125 28.90625,8.203125 28.90625,8.203125 L28.90625,13.125 L26.3842969,13.125 C23.8998047,13.125 23.125,14.6666797 23.125,16.2483203 L23.125,20 L28.671875,20 L27.7851563,25.78125 L23.125,25.78125 L23.125,39.7570312 C32.6862891,38.2566406 40,29.9825781 40,20" id="Fill-1"></path>
                </g>
            </g>
        </g>
    </g>
</svg>