<?xml version="1.0" encoding="UTF-8"?>
<svg width="40px" height="40px" viewBox="0 0 40 40" version="1.1" xmlns="http://www.w3.org/2000/svg" xmlns:xlink="http://www.w3.org/1999/xlink">
    <title>9E79B19E-4396-4FD9-A07E-C0CC364401DF</title>
    <g id="desktop---batch-1" stroke="none" stroke-width="1" fill="none" fill-rule="evenodd">
        <g id="01.02.03-Common-page---Agenda---Share-popup" transform="translate(-1348.000000, -733.000000)" fill="#5c6ad7">
            <g id="ui/popup/share" transform="translate(1164.000000, 687.000000)">
                <g id="social-media" transform="translate(24.000000, 46.000000)">
                    <g id="telegram" transform="translate(160.000000, 0.000000)">
                        <path d="M20,0 C31.045695,0 40,8.954305 40,20 C40,31.045695 31.045695,40 20,40 C8.954305,40 0,31.045695 0,20 C0,8.954305 8.954305,0 20,0 Z M29.8216667,13.7033333 C30.1116667,12.35 29.33,11.8083333 28.435,12.1316667 L28.435,12.1316667 L9.15166667,19.5666667 C7.83,20.0833333 7.85333333,20.815 8.925,21.155 L8.925,21.155 L13.8616667,22.695 L25.3133333,15.485 C25.845,15.1316667 26.3383333,15.3316667 25.935,15.6866667 L25.935,15.6866667 L16.6683333,24.0583333 L16.3133333,29.1466667 C16.83,29.1466667 17.055,28.9216667 17.3216667,28.655 L17.3216667,28.655 L19.7333333,26.3316667 L24.7333333,30.0166667 C25.645,30.5333333 26.2966667,30.2666667 26.54,29.17 L26.54,29.17 L29.8233333,13.7016667 Z" id="Combined-Shape"></path>
                    </g>
                </g>
            </g>
        </g>
    </g>
</svg>