<svg xmlns="http://www.w3.org/2000/svg" width="48" height="48" viewBox="0 0 48 48">
    <g fill="none" fill-rule="evenodd">
        <g>
            <g>
                <g>
                    <g>
                        <g transform="translate(-761.000000, -160.000000) translate(326.000000, 81.000000) translate(243.000000, 79.000000) translate(8.000000, 0.000000) translate(184.000000, 0.000000)">
                            <circle cx="24" cy="24" r="23.5" fill="#F4F6FF" stroke="#7786FF"/>
                            <g fill="#7786FF" fill-rule="nonzero">
                                <path d="M22.227 4.43c.142.136.262.553.36 1.17l.058.394.056.48.05.527.022.28.041.588.035.623.041.987.02.687.019 1.06.005 1.08-.008 1.083-.021 1.068-.035 1.037-.03.666-.036.638-.042.607-.047.569-.054.527-.06.48-.058.394c-.103.618-.226 1.036-.369 1.172-.132.163-.574.293-1.244.394l-.388.052-.21.025-.486.047-.53.041-.57.036-.922.043-.653.021-.681.017-1.064.015-1.104.005-1.132-.004-1.147-.014-1.15-.023-1.517-.042-1.47-.054-1.393-.064-1.59-.094-.851-.061-.758-.065-.448-.044-.398-.046-.42-.058-.33-.059-.042-.232-.08-.493-.071-.526c-.023-.18-.045-.366-.065-.556l-.057-.583-.05-.606-.044-.626-.038-.643-.03-.656-.025-.666-.019-.673-.018-1.016-.005-.676v-.67l.006-.664.01-.652.033-1.256.023-.599.058-1.12.052-.759.04-.462.042-.422.045-.38.047-.334.025-.149.051-.259c.052-.232.108-.383.165-.438.105-.1.409-.19.87-.27l.374-.057.663-.08.504-.049L4.73 4l.59-.041.626-.037.66-.033 1.042-.042 1.467-.043 1.141-.022 1.55-.015h1.168l1.156.008 1.132.017 1.093.026 1.042.035.659.029.925.05.57.04.772.065.455.05.19.024.348.05.155.027.273.055c.246.058.412.12.483.189zm-1.91 3.342c-.228-.434-.736-.617-1.18-.445l-.109.05-.933.616-.572.37-.53.338-.72.446-.429.258-.387.224-.435.24-.487.248-.444.214-.493.227-.543.24-.591.254-.641.267-1.314-.605-.859-.408-.75-.368-.44-.224-.393-.206-.315-.173-.547-.315-.635-.382-.724-.448-1.103-.702c-.464-.249-1.042-.068-1.29.403-.231.437-.097.971.295 1.244l1.349.841.823.502.493.294.655.38.38.212.36.193.637.322.752.362.566.264.618.281 1.022.456c.09.048.185.08.281.097.132.033.272.03.413-.02.056-.015.111-.036.164-.061l.078-.043.656-.284.896-.397.54-.246.493-.231.446-.216.4-.2.353-.186.336-.187.578-.34.435-.265.474-.297.786-.505.573-.376.613-.408c.465-.252.644-.836.398-1.305z" transform="translate(12.000000, 12.000000)"/>
                            </g>
                        </g>
                    </g>
                </g>
            </g>
        </g>
    </g>
</svg>
