<svg xmlns="http://www.w3.org/2000/svg" width="48" height="48" viewBox="0 0 48 48">
    <g fill="none" fill-rule="evenodd">
        <g>
            <g>
                <g>
                    <g>
                        <g transform="translate(-825.000000, -160.000000) translate(326.000000, 81.000000) translate(243.000000, 79.000000) translate(8.000000, 0.000000) translate(248.000000, 0.000000)">
                            <circle cx="24" cy="24" r="23.5" fill="#F4F6FF" stroke="#7786FF"/>
                            <g fill="#7786FF" fill-rule="nonzero">
                                <path d="M18.458 3.092c1.182.526 1.736 1.907 1.7 3.348l.426.046c.741.088 1.26.18 1.468.273.468.209.788 1.568.96 3.37C22.688 10.045 22.35 10 22 10h-5c-2.21 0-4 1.79-4 4s1.79 4 4 4h5c.317 0 .626-.037.922-.107-.184 1.478-.474 2.608-.87 2.96-1.477 1.316-18.467 1.316-19.944 0C.63 19.539.63 8.076 2.108 6.76c.247-.22.928-.385 1.9-.503.072-1.118.55-2.21 1.433-2.997 1.634-1.456 10.767-1.169 13.017-.167zM22 12c.425 0 .82.133 1.144.36.03 1.09.018 2.227-.036 3.305-.317.212-.698.335-1.108.335h-5c-1.105 0-2-.895-2-2s.895-2 2-2h5zM6.771 4.752c-.395.353-.64.83-.731 1.337 3.524-.186 8.61-.059 12.122.183 0-.644-.18-1.203-.518-1.353-1.61-.717-9.96-.98-10.873-.167z" transform="translate(12.000000, 12.000000)"/>
                            </g>
                        </g>
                    </g>
                </g>
            </g>
        </g>
    </g>
</svg>
