<svg xmlns="http://www.w3.org/2000/svg" width="48" height="48" viewBox="0 0 48 48">
    <g fill="none" fill-rule="evenodd">
        <g>
            <g>
                <g>
                    <g>
                        <g transform="translate(-633.000000, -159.000000) translate(326.000000, 81.000000) translate(243.000000, 78.000000) translate(8.000000, 0.000000) translate(56.000000, 0.000000)">
                            <circle cx="24" cy="24" r="23.5" fill="#F4F6FF" stroke="#7786FF"/>
                            <g fill="#7786FF" fill-rule="nonzero">
                                <path d="M19 14c1.657 0 3 1.343 3 3 0 .869-.37 1.651-.96 2.2l.617 3.085c.084.419-.188.826-.607.91-.189.038-.385.004-.55-.095l-.986-.591c-.316-.19-.712-.19-1.028 0l-.986.591c-.366.22-.842.101-1.062-.265-.099-.165-.133-.362-.095-.55l.617-3.086C16.37 18.651 16 17.87 16 17c0-1.657 1.343-3 3-3zM19.442.77c.502.532.613 6.026.536 11.327-.316-.064-.643-.097-.978-.097-2.761 0-5 2.239-5 5l.007.263c.045.872.316 1.702.773 2.42l.033.048-.431 2.162c-.07.35-.071.707-.007 1.052l-.595.02c-4.618.133-10.468-.112-11.055-.734-.967-1.026-.967-20.436 0-21.462.967-1.025 15.75-1.025 16.717 0zM11 13H6l-.117.007c-.497.057-.883.48-.883.993s.386.936.883.993L6 15h5l.117-.007c.497-.057.883-.48.883-.993 0-.552-.448-1-1-1zm5-4H6l-.117.007C5.386 9.064 5 9.487 5 10s.386.936.883.993L6 11h10l.117-.007c.497-.057.883-.48.883-.993 0-.552-.448-1-1-1zm0-4H6l-.117.007C5.386 5.064 5 5.487 5 6s.386.936.883.993L6 7h10l.117-.007c.497-.057.883-.48.883-.993 0-.552-.448-1-1-1z" transform="translate(12.000000, 12.000000)"/>
                            </g>
                        </g>
                    </g>
                </g>
            </g>
        </g>
    </g>
</svg>
