<svg width="89" height="110" viewBox="0 0 89 110" fill="none" xmlns="http://www.w3.org/2000/svg">
  <path d="M34.3197 104.872C31.7822 104.425 29.1771 104.551 26.6945 105.241C26.4432 105.289 26.2075 105.398 26.0082 105.558C25.7668 105.8 25.8684 106.124 26.0654 106.384C26.8534 107.426 28.766 107.814 30.4753 108.081C33.411 108.547 36.3552 108.985 39.3078 109.396C40.8351 109.658 42.385 109.764 43.9337 109.714C46.3802 109.562 52.887 108.774 53.7575 108.932C58.3644 109.739 59.7306 105.12 59.3302 105.082C51.2412 104.554 34.3197 104.872 34.3197 104.872Z" fill="#D2D8FF"/>
  <path d="M48.8581 78.0759C49.4109 85.4048 49.4746 92.7625 49.0488 100.1C49.0589 100.305 49.0033 100.507 48.8899 100.678C48.7187 100.845 48.4931 100.944 48.2545 100.958L46.2846 101.333C46.1087 101.387 45.9191 101.376 45.7509 101.301C45.5994 101.179 45.5051 100.999 45.4903 100.805C44.3319 95.7082 43.8723 90.4772 44.1242 85.2562C44.2385 82.8734 44.4991 80.4587 43.9844 78.1331C45.1344 77.386 46.5145 77.0771 47.8732 77.2625" fill="white"/>
  <path d="M48.5724 78.0759C49.0478 84.4186 49.1602 90.7833 48.9092 97.1388C48.9092 97.8696 48.8457 98.6067 48.8075 99.3374C48.8075 99.7314 48.8075 100.405 48.4326 100.653C48.0417 100.791 47.633 100.872 47.219 100.894C46.9005 101.001 46.5693 101.065 46.234 101.085C45.6876 100.983 45.6812 100.271 45.5986 99.8585C45.4398 99.1086 45.3 98.3525 45.1729 97.5963C44.6399 94.4472 44.3742 91.2587 44.3786 88.0649C44.3786 84.7543 44.9695 81.3738 44.2896 78.1013L44.1625 78.4254C45.2771 77.7255 46.599 77.4315 47.9052 77.593C48.2674 77.6374 48.2611 77.0655 47.9052 77.0211C46.4959 76.8544 45.072 77.175 43.8702 77.9297C43.7594 77.9966 43.7073 78.1295 43.7431 78.2538C44.4421 81.6534 43.7431 85.2435 43.8067 88.6749C43.844 92.0866 44.18 95.4886 44.8107 98.8418C44.8973 99.6317 45.0634 100.411 45.3063 101.167C45.4244 101.517 45.7645 101.742 46.1324 101.714C46.8391 101.642 47.5384 101.51 48.2229 101.32C48.6741 101.231 49.0998 101.123 49.2714 100.646C49.4285 99.9205 49.4841 99.1763 49.4366 98.4351C49.4811 97.4883 49.5129 96.5288 49.5446 95.6011C49.5955 93.8219 49.6209 92.0384 49.6209 90.2507C49.6209 86.2094 49.4641 82.1723 49.1507 78.1394C49.1507 77.7772 48.5534 77.7709 48.5788 78.1394L48.5724 78.0759Z" fill="black"/>
  <path d="M36.6005 78.0124C35.7759 85.3169 35.4363 92.668 35.5838 100.017C35.5689 100.221 35.6154 100.425 35.7173 100.602C35.8875 100.773 36.1124 100.879 36.3527 100.901L38.3035 101.352C38.4757 101.416 38.665 101.416 38.8372 101.352C38.9891 101.233 39.0892 101.06 39.1168 100.869C40.4638 95.8168 41.1179 90.6052 41.0612 85.377C41.0612 82.9942 40.8706 80.5668 41.4679 78.2602C40.3455 77.4697 38.9774 77.1069 37.6108 77.2372" fill="white"/>
  <path d="M36.3399 78.0123C35.5428 85.1064 35.199 92.244 35.3105 99.3819C35.3105 99.8839 35.2343 100.5 35.6283 100.875C36.0222 101.25 36.8546 101.307 37.3884 101.434C37.8205 101.53 38.5068 101.828 38.9516 101.6C39.3964 101.371 39.4408 100.748 39.5489 100.329C40.4001 96.9782 40.953 93.5589 41.201 90.1109C41.3408 88.2046 41.3725 86.2475 41.3344 84.3094C41.2109 82.3026 41.3498 80.2882 41.7475 78.3173C41.7757 78.192 41.7223 78.0624 41.614 77.9933C40.4363 77.2022 39.0247 76.8348 37.6108 76.9512C37.2486 76.9829 37.2486 77.5548 37.6108 77.523C38.9228 77.4102 40.2336 77.7536 41.3217 78.4953L41.1692 78.1839C40.4639 81.0433 40.7943 83.9981 40.7498 86.9084C40.6984 90.059 40.3882 93.2002 39.8221 96.3C39.695 97.0054 39.5552 97.7043 39.3964 98.4033C39.3074 98.8036 39.2184 99.2039 39.1231 99.5979C39.0834 100.009 38.9805 100.412 38.8181 100.793C38.4432 101.295 37.1914 100.888 36.6767 100.697C36.3353 100.598 36.0458 100.37 35.8697 100.062C35.8477 99.8505 35.8477 99.6376 35.8697 99.4263C35.8697 99.007 35.8697 98.5876 35.8697 98.1555C35.8401 95.0122 35.9015 91.8647 36.054 88.713C36.2234 85.1461 36.5094 81.5898 36.9118 78.0441C36.9563 77.6819 36.3844 77.6819 36.3399 78.0441V78.0123Z" fill="black"/>
  <path d="M50.091 101.059C50.2538 101.369 50.3613 101.704 50.4087 102.051C51.0442 102.438 54.2213 103.099 55.3206 104.484C55.7867 105.034 55.7867 105.841 55.3206 106.391C55.0219 106.759 46.558 106.912 45.2617 106.823C44.9677 106.833 44.6789 106.743 44.442 106.569C44.258 106.356 44.1428 106.092 44.1116 105.812C43.7875 104.313 43.5334 102.534 44.6009 101.422C45.1017 100.957 45.7149 100.631 46.3801 100.475C46.9329 100.322 49.875 100.78 50.091 101.059Z" fill="white"/>
  <path d="M49.8431 101.206C50.0401 101.523 49.9829 102.063 50.2625 102.305C50.5617 102.485 50.8878 102.616 51.2283 102.693C52.2723 103.003 53.2783 103.429 54.2276 103.963C54.7613 104.294 55.384 104.77 55.384 105.463C55.384 105.87 55.276 106.181 54.9456 106.245C54.3269 106.34 53.7031 106.397 53.0774 106.416C51.1711 106.524 49.2648 106.569 47.3585 106.581C46.7231 106.581 46.0877 106.581 45.4523 106.581C45.2881 106.583 45.1242 106.568 44.963 106.537C44.4356 106.422 44.3847 105.901 44.3275 105.444C44.171 104.754 44.109 104.047 44.1433 103.341C44.2453 101.826 45.5504 100.676 47.0662 100.767C47.6443 100.806 48.2193 100.88 48.7883 100.99C49.0679 101.047 49.6969 101.091 49.9003 101.288C50.1036 101.485 50.5357 101.148 50.3006 100.888C50.0166 100.682 49.6835 100.555 49.3347 100.519C48.7692 100.399 48.2037 100.31 47.6318 100.246C46.4032 100.035 45.1509 100.458 44.3021 101.371C43.3109 102.534 43.5015 104.211 43.7811 105.596C43.9272 106.334 44.1115 106.956 44.9312 107.102C45.2529 107.15 45.5783 107.169 45.9034 107.16C48.0067 107.191 50.1163 107.16 52.2196 107.039C53.0965 107.001 53.9734 106.963 54.8439 106.842C55.0501 106.834 55.2529 106.786 55.4412 106.702C55.8464 106.342 56.0405 105.801 55.9559 105.266C55.7844 103.836 53.9924 103.125 52.8296 102.673C52.1942 102.438 51.5587 102.248 50.9678 102.038C50.8795 101.989 50.7856 101.951 50.6882 101.924C50.661 101.915 50.6353 101.902 50.612 101.886C50.72 101.943 50.6628 102.083 50.6755 101.886C50.6535 101.548 50.5392 101.222 50.3451 100.945C50.1354 100.608 49.6397 100.894 49.8431 101.206Z" fill="black"/>
  <path d="M39.8794 101.059C40.0462 101.368 40.156 101.703 40.2035 102.051C40.8389 102.438 44.016 103.099 45.109 104.484C45.5804 105.032 45.5804 105.843 45.109 106.391C44.804 106.759 36.34 106.912 35.0438 106.823C34.7497 106.833 34.461 106.743 34.224 106.569C34.04 106.356 33.9248 106.092 33.8936 105.812C33.5696 104.313 33.3217 102.534 34.3829 101.422C34.8845 100.958 35.4974 100.632 36.1621 100.475C36.7213 100.322 39.6633 100.78 39.8794 101.059Z" fill="white"/>
  <path d="M39.6315 101.206C39.8348 101.523 39.7776 102.063 40.0572 102.305C40.3537 102.486 40.6778 102.617 41.0167 102.693C42.0607 103.003 43.0667 103.429 44.0159 103.963C44.5497 104.294 45.1724 104.77 45.1788 105.463C45.1788 105.87 45.0644 106.181 44.734 106.245C44.1154 106.34 43.4915 106.397 42.8658 106.416C40.9595 106.524 39.0532 106.569 37.1469 106.581C36.5115 106.581 35.8761 106.581 35.2406 106.581C35.0786 106.583 34.9168 106.568 34.7577 106.537C34.2303 106.422 34.1795 105.901 34.0905 105.444C33.9287 104.755 33.8646 104.047 33.8999 103.341C34.0019 101.823 35.311 100.673 36.8292 100.767C37.4051 100.806 37.978 100.881 38.5449 100.99C38.8245 101.047 39.4599 101.091 39.6569 101.288C39.7694 101.388 39.9403 101.384 40.0476 101.278C40.155 101.173 40.1619 101.002 40.0636 100.888C39.7766 100.683 39.4418 100.556 39.0914 100.519C38.5287 100.399 37.9603 100.308 37.3884 100.246C36.1598 100.035 34.9076 100.458 34.0587 101.371C33.0675 102.534 33.2645 104.211 33.5377 105.596C33.6838 106.334 33.8681 106.956 34.6878 107.102C35.0096 107.15 35.3349 107.169 35.66 107.16C37.7633 107.191 39.8793 107.16 41.9762 107.039C42.8531 107.001 43.7364 106.963 44.6005 106.842C44.9896 106.857 45.3597 106.674 45.5842 106.356C45.8086 106.038 45.8569 105.628 45.7125 105.266C45.541 103.836 43.7491 103.125 42.5862 102.673C41.9508 102.438 41.3154 102.248 40.7308 102.038C40.6402 101.989 40.5442 101.951 40.4448 101.924C40.4448 101.924 40.3876 101.892 40.3686 101.886C40.4766 101.943 40.4194 102.083 40.4385 101.886C40.4137 101.548 40.2996 101.224 40.108 100.945C39.9301 100.608 39.4345 100.894 39.6315 101.206Z" fill="black"/>
  <path d="M51.7621 58.3076C51.8066 65.2974 54.1513 80.6875 53.948 81.7296C53.9043 82.04 53.7537 82.3253 53.5222 82.5366C53.1982 82.8035 33.1567 81.8059 32.3243 81.9012C31.9833 81.9711 31.6308 81.9602 31.2949 81.8694C31.0008 81.7345 30.7918 81.4637 30.7357 81.145C30.1002 78.8892 34.6817 66.6699 35.0248 59.1337C39.6126 58.2504 51.7621 58.3076 51.7621 58.3076Z" fill="#D2D8FF"/>
  <path d="M51.476 58.3077C51.5269 64.0266 52.3656 69.7836 53.0456 75.4643C53.2743 77.3706 53.5793 79.2769 53.681 81.2277C53.681 81.7106 53.681 82.2126 53.2108 82.2825C52.6567 82.327 52.1 82.327 51.5459 82.2825C47.0979 82.1999 42.6499 81.9775 38.2019 81.8059C36.4989 81.736 34.8023 81.6598 33.1184 81.6216C32.572 81.6216 31.4091 81.7805 31.1168 81.342C30.7102 80.7066 31.0469 79.5438 31.1613 78.902C32.3813 72.2872 34.9739 65.9201 35.317 59.1401L35.1073 59.4197C38.4116 58.7842 41.862 58.7842 45.2107 58.6762C47.3966 58.619 49.5825 58.5873 51.7683 58.5936C51.9263 58.5936 52.0543 58.4656 52.0543 58.3077C52.0543 58.1497 51.9263 58.0217 51.7683 58.0217C49.5189 58.0217 47.2695 58.0217 45.0264 58.1043C41.6841 58.1996 38.2527 58.2378 34.9548 58.8669C34.833 58.9027 34.7483 59.0131 34.7451 59.1401C34.4211 65.6596 32.0255 71.8487 30.7229 78.203C30.4973 79.0634 30.3904 79.9507 30.4052 80.8401C30.4152 81.2098 30.5445 81.5664 30.7737 81.8567C31.2058 82.346 31.8285 82.2316 32.4068 82.1999C33.7285 82.1363 35.0819 82.2698 36.3973 82.3143C41.1376 82.4985 45.8715 82.7273 50.6119 82.848C51.3235 82.848 52.0352 82.8861 52.7469 82.8798C53.0786 82.9285 53.4172 82.8845 53.7255 82.7527C54.3609 82.3397 54.2656 81.4818 54.2148 80.8464C54.1449 79.9568 54.0432 79.0672 53.9415 78.1776C53.1854 71.5945 52.1115 64.9606 52.0352 58.3267C52.0118 58.1937 51.8984 58.0952 51.7634 58.0906C51.6283 58.086 51.5085 58.1765 51.476 58.3077V58.3077Z" fill="black"/>
  <path d="M46.7166 0.369039C44.9026 -0.35012 42.8316 0.214228 41.6332 1.75428C40.6038 3.10775 40.2352 5.27457 41.7476 6.41199C43.1369 7.39717 44.9969 7.39717 46.3862 6.41199C46.634 6.22771 46.9645 5.9926 47.0216 5.66853C47.0565 5.35491 46.869 5.05911 46.5705 4.95685C45.8461 4.67726 44.8929 5.36988 44.3973 5.8401C42.9069 7.29516 42.8067 9.65891 44.1686 11.2349C44.3655 11.47 44.7023 11.1332 44.5053 10.8981C43.3047 9.48841 43.4309 7.38231 44.7913 6.12604C45.0327 5.90364 45.6555 5.37624 46.0113 5.41436C47.0471 5.50332 45.8969 6.18323 45.6618 6.30396C44.9123 6.67711 44.0557 6.77603 43.2408 6.58355C42.3563 6.44001 41.6127 5.84126 41.2837 5.00769C41.1012 4.09806 41.2838 3.15314 41.792 2.377C42.8059 0.760169 44.8367 0.10827 46.6023 0.832904C46.8882 0.947282 47.0089 0.483417 46.7293 0.375394L46.7166 0.369039Z" fill="black"/>
  <path d="M50.9549 20.5059L50.8024 23.4289C50.2305 26.8539 47.5807 35.8007 47.0406 36.1693C46.1828 36.7539 38.0683 37.1034 37.7252 36.9064C37.2741 36.6458 36.5814 24.4519 36.969 21.5162C37.0329 20.6747 37.2504 19.852 37.6108 19.0889C37.9694 18.4586 38.4752 17.9244 39.085 17.5321C43.2662 14.7616 47.4473 16.5472 49.576 17.8689C50.4801 18.4325 51.0078 19.4418 50.9549 20.5059Z" fill="black"/>
  <path d="M47.009 36.1692C46.0367 35.9278 44.9375 35.4449 45.1408 34.6251C45.4522 33.3543 46.7484 32.6299 47.5173 31.5814C48.0107 30.8284 48.3597 29.9902 48.5467 29.1096C49.036 27.2033 50.453 21.7386 48.4387 19.2223C46.5769 16.8776 41.0486 15.3208 38.6149 20.6075C37.414 23.2001 37.1089 26.4217 38.3862 29.0206C38.8627 29.9929 39.5871 30.8189 40.1209 31.7594C40.7319 32.6631 40.9198 33.7879 40.6356 34.8412C40.4259 35.4321 39.3012 36.2773 37.6935 36.9063C37.5093 36.9826 38.9644 38.425 40.4322 38.5839C40.9724 38.6411 43.3425 39.5434 44.6896 39.0477C45.2298 38.8508 48.5022 37.3003 48.9534 37.1415C49.5507 36.8809 47.9748 36.4171 47.009 36.1692Z" fill="white"/>
  <path d="M47.0727 35.9404C46.1704 35.699 44.9822 35.305 45.5795 34.1485C45.9562 33.5542 46.4212 33.0207 46.9584 32.5663C47.8889 31.5952 48.5275 30.3819 48.8011 29.0651C49.3807 27.0803 49.6885 25.0261 49.7161 22.9586C49.7161 21.0523 49.1697 19.2349 47.5493 18.0721C46.134 17.0525 44.3727 16.6344 42.6501 16.9093C40.5024 17.2969 39.0409 18.9617 38.2021 20.8998C37.0901 23.5559 36.8741 26.7902 38.2784 29.3828C39.0917 30.876 40.604 32.2422 40.5278 34.0722C40.4855 34.7314 40.1157 35.3256 39.5429 35.6545C39.26 35.8562 38.9627 36.0367 38.6533 36.1946C38.3546 36.3534 37.7446 36.4805 37.5222 36.722C37.1409 37.135 38.0178 37.7196 38.2847 37.9166C39.1752 38.4817 40.1723 38.858 41.2141 39.0223C42.3451 39.3146 43.6414 39.6577 44.7852 39.2574C45.6684 38.946 46.5136 38.4885 47.365 38.1009C47.8098 37.8975 48.261 37.6879 48.7121 37.4655C48.8901 37.3828 49.2014 37.3129 49.2713 37.1033C49.5255 36.3789 47.4159 36.0103 47.0473 35.915C46.921 35.8799 46.7901 35.9539 46.755 36.0802C46.7199 36.2065 46.7939 36.3374 46.9202 36.3725C47.4794 36.5187 48.0195 36.7538 48.5787 36.9063C48.763 36.9571 48.7948 36.8681 48.7376 36.9063C48.6228 36.9778 48.4988 37.0334 48.369 37.0715C47.6001 37.4146 46.844 37.7705 46.0815 38.1136C45.3853 38.5197 44.6171 38.7873 43.8193 38.9015C42.7919 38.8723 41.7728 38.7078 40.7883 38.4122C39.728 38.2737 38.7465 37.7785 38.0051 37.0079C37.9225 36.9063 38.0051 37.0079 38.2085 36.9508C38.542 36.8455 38.8571 36.689 39.1426 36.4869C39.5854 36.2485 39.9955 35.9538 40.3626 35.61C42.2053 33.8117 39.975 31.162 38.99 29.6052C37.3761 26.9999 37.5349 23.683 38.7295 20.9379C39.6001 18.9363 41.2331 17.3604 43.5016 17.2969C45.1627 17.2567 46.7687 17.8945 47.9496 19.0634C49.4302 20.582 49.3285 23.0602 49.0998 25.0174C48.9556 26.1077 48.7433 27.1879 48.4643 28.2517C48.1466 29.567 47.8289 30.8951 46.8757 31.9181C46.1514 32.6997 45.0203 33.4813 44.8551 34.6251C44.6899 35.7688 46.056 36.1755 46.8948 36.3979C47.0211 36.4471 47.1634 36.3845 47.2125 36.2581C47.2617 36.1318 47.1991 35.9895 47.0727 35.9404Z" fill="black"/>
  <path d="M39.4727 17.9896C41.4255 16.8218 43.7493 16.4401 45.9731 16.922C47.1339 17.207 48.21 17.7647 49.1121 18.5487C49.7476 19.019 50.383 19.7116 50.1733 20.455C50.1053 20.6915 49.9835 20.9089 49.8175 21.0905C48.881 22.0579 47.5442 22.5286 46.2082 22.3613C44.8992 22.2851 43.6093 21.9102 42.3003 21.8784C41.773 21.8444 41.2449 21.9314 40.7562 22.1326C40.1982 22.421 39.7333 22.8616 39.4155 23.4034C38.4687 24.884 38.5576 27.4194 38.8182 29.7577C37.2677 28.5949 36.8229 23.7211 37.471 20.9189L39.4727 17.9896Z" fill="black"/>
  <path d="M68.4168 30.9079C68.1881 30.5076 67.4129 30.1644 67.0316 29.9039C65.3922 28.7919 64.026 31.9055 63.7083 35.3241C63.7083 35.5592 63.0729 33.0239 62.825 33.0938C61.8147 33.4178 62.1896 36.3662 62.1896 36.6967C62.1901 37.0398 62.3527 37.3625 62.6281 37.5672C62.8632 37.7197 64.636 38.6474 65.335 38.6411C65.903 38.5753 66.4115 38.2581 66.7202 37.7769C68.1118 35.9341 68.7473 31.4798 68.4168 30.9079Z" fill="white"/>
  <path d="M68.6266 30.7871C68.3724 30.4659 68.0515 30.2036 67.6862 30.0183C67.3878 29.8077 67.0657 29.6328 66.7267 29.4972C66.1833 29.361 65.6099 29.5488 65.2525 29.9801C64.7226 30.591 64.3342 31.3114 64.115 32.0898C63.9518 32.5829 63.8202 33.0859 63.7211 33.5957C63.6575 33.8923 63.6067 34.1909 63.5686 34.4917C63.5686 34.6124 63.5304 34.7395 63.5177 34.8603C63.505 34.981 63.4478 35.2415 63.5177 35.1716L63.8037 35.1335C63.9244 35.2161 63.8609 35.1907 63.8037 35.0636C63.7465 34.9365 63.7147 34.7967 63.6766 34.6633C63.5749 34.3456 63.4732 34.0278 63.3652 33.7038C63.2572 33.3797 63.0666 32.649 62.5582 32.9349C62.0499 33.2208 61.9228 33.9834 61.8783 34.5298C61.8212 35.1852 61.8212 35.8443 61.8783 36.4997C61.8652 37.1101 62.2072 37.6728 62.7552 37.9421C63.4474 38.3521 64.197 38.6563 64.9792 38.8444C66.7711 39.1748 67.6544 36.6268 68.042 35.3114C68.3147 34.3895 68.5061 33.4454 68.6139 32.4901C68.7446 31.9273 68.7249 31.3399 68.5567 30.7871C68.4169 30.5139 68.0039 30.7871 68.1437 31.0286C68.2299 31.4093 68.2299 31.8044 68.1437 32.1851C68.0811 32.8719 67.9707 33.5534 67.8132 34.2248C67.6621 34.9552 67.4495 35.6716 67.1778 36.3662C66.9343 37.1399 66.4402 37.8106 65.7735 38.2725C65.1381 38.6157 64.2866 38.1581 63.6893 37.8786C63.092 37.599 62.4184 37.402 62.3803 36.6839C62.3358 36.2391 62.3041 35.7943 62.2977 35.3495C62.2455 34.7667 62.3281 34.1797 62.5392 33.6339C62.5392 33.564 62.7616 33.4051 62.7743 33.3543L62.6408 33.2844C62.6538 33.302 62.6645 33.3213 62.6726 33.3416C62.6726 33.3797 62.7361 33.4623 62.7552 33.5004C62.8632 33.761 62.9458 34.0342 63.0348 34.3011C63.1238 34.568 63.2064 34.8666 63.3017 35.1462C63.3252 35.3024 63.4014 35.4459 63.5177 35.5529C63.611 35.6048 63.7273 35.5893 63.8037 35.5147C63.9943 35.3495 63.9435 34.7713 63.9752 34.5489C64.0384 34.0805 64.1275 33.6159 64.2421 33.1573C64.4164 32.3497 64.7143 31.5738 65.1254 30.857C65.3795 30.4377 65.7989 29.8848 66.3517 29.923C66.633 29.9814 66.8964 30.1056 67.1206 30.2852C67.5143 30.4571 67.8656 30.713 68.15 31.035C68.3788 31.2828 68.7918 31.0477 68.6266 30.7871Z" fill="black"/>
  <path d="M19.8825 30.0754C20.1049 29.6688 20.8738 29.3129 21.2487 29.046C22.8691 27.9086 24.2924 30.9905 24.6673 34.4091C24.6673 34.6378 25.3028 32.0961 25.5124 32.1596C26.5291 32.4646 26.1987 35.4194 26.1924 35.7562C26.2015 36.0971 26.0453 36.4214 25.773 36.6267C25.5379 36.7856 23.7841 37.7451 23.0851 37.7514C22.517 37.6953 22.004 37.3875 21.6872 36.9127C20.2447 35.089 19.5648 30.6537 19.8825 30.0754Z" fill="white"/>
  <path d="M20.0857 30.1961C20.3487 29.8799 20.6786 29.6259 21.0516 29.4527C21.2799 29.2713 21.5409 29.1354 21.8205 29.0524C22.3924 28.9634 22.8372 29.5289 23.0913 29.9547C23.5044 30.6438 23.8107 31.3915 24 32.1723C24.1207 32.6235 24.2224 33.0874 24.2986 33.5512C24.3228 33.8392 24.3631 34.1256 24.4194 34.4091C24.4194 34.4726 24.4194 34.5361 24.4956 34.5933C24.5735 34.6657 24.6897 34.6786 24.7816 34.6251C25.0421 34.4472 25.0929 33.8816 25.1755 33.6084C25.2581 33.3352 25.328 33.0874 25.417 32.8268C25.4551 32.7252 25.4869 32.6171 25.5314 32.5155C25.5577 32.4906 25.5811 32.4629 25.6013 32.4329C25.6095 32.4146 25.6202 32.3975 25.6331 32.382C25.6331 32.4265 25.6013 32.4519 25.4996 32.4456C25.4996 32.4773 25.6839 32.6171 25.7093 32.6616C25.7736 32.771 25.8227 32.8885 25.8555 33.0111C25.937 33.3119 25.9839 33.621 25.9952 33.9325C26.0302 34.4657 26.0302 35.0006 25.9952 35.5338C25.9964 35.7814 25.9376 36.0256 25.8237 36.2454C25.6365 36.4571 25.4011 36.6205 25.1374 36.722C24.5516 37.0902 23.9068 37.3546 23.2311 37.5036C22.3987 37.6116 21.8078 36.7474 21.4519 36.0993C21.1004 35.4239 20.8234 34.7123 20.6259 33.977C20.4005 33.2028 20.2348 32.4126 20.1302 31.6132C20.0225 31.1491 20.0225 30.6666 20.1302 30.2025C20.2637 29.9293 19.857 29.6814 19.7172 29.961C19.5753 30.4137 19.5534 30.8954 19.6536 31.359C19.7407 32.1786 19.8915 32.9902 20.1048 33.7863C20.3091 34.6348 20.6031 35.4591 20.9817 36.2454C21.3757 36.9889 21.992 37.8467 22.888 37.9675C23.6124 38.0628 24.4257 37.5989 25.0485 37.2876C25.6712 36.9762 26.3193 36.6521 26.4273 35.8134C26.4781 35.2663 26.4972 34.7168 26.4845 34.1676C26.5284 33.5005 26.3689 32.8358 26.027 32.2613C25.8936 32.0897 25.6267 31.8546 25.3916 31.9563C25.1565 32.058 25.1056 32.3503 25.0357 32.5409C24.9087 32.8904 24.807 33.2462 24.699 33.6021C24.6545 33.7609 24.61 33.9198 24.5592 34.0723C24.5083 34.2248 24.4067 34.3328 24.5592 34.2248L24.8515 34.2629C24.9214 34.3201 24.8515 34.0659 24.8515 34.0405C24.8515 33.888 24.807 33.7355 24.7816 33.583C24.7392 33.3119 24.6884 33.0386 24.6291 32.7633C24.5232 32.2206 24.381 31.6856 24.2033 31.162C23.9711 30.3881 23.572 29.6745 23.0341 29.0714C22.6636 28.6521 22.0883 28.4776 21.5472 28.6203C21.232 28.7546 20.9334 28.9252 20.6576 29.1286C20.2705 29.3223 19.9335 29.6028 19.6727 29.9483C19.5075 30.2152 19.9205 30.4503 20.0857 30.1961Z" fill="black"/>
  <path d="M22.6466 52.0423C26.9421 58.1615 37.4775 37.2939 35.5522 48.738C35.1328 51.2226 33.8683 58.6444 34.7833 61.0082C40.7309 60.9065 46.0749 60.252 52.0226 60.1504C53.7573 60.1186 50.4022 51.9914 50.9233 47.0796C51.1266 45.2432 56.6421 56.3441 60.4547 53.2941C64.4325 50.0724 67.4445 40.039 67.1077 38.5711C67.1077 38.5711 63.9305 38.6982 62.3038 37.5227C60.6771 40.4965 60.3213 43.1145 58.4912 44.9699C55.8224 47.6896 52.7088 33.1255 46.6277 35.6609C44.5944 36.506 40.2162 35.4448 37.2107 34.39C32.2988 32.6172 27.4441 46.8953 26.5545 43.68C25.2836 38.8889 25.919 37.4147 25.7983 37.4019L21.6299 36.9826C21.6299 36.9826 21.7252 50.7396 22.6466 52.0423Z" fill="white"/>
  <path d="M22.3989 52.1821C25.0042 55.7977 29.4586 50.8286 31.3521 48.8842C32.0575 48.1598 32.7437 47.4291 33.4745 46.7301C33.8875 46.3425 34.4594 45.6816 35.0376 45.5609C35.4888 45.4592 35.4888 46.0375 35.4952 46.4251C35.4642 47.6135 35.3217 48.7964 35.0694 49.9581C34.7581 51.9089 34.4721 53.866 34.3069 55.8358C34.1671 57.507 33.932 59.4768 34.5229 61.0845C34.5551 61.2088 34.6678 61.2953 34.7962 61.2942C38.4181 61.2243 42.0337 60.951 45.643 60.7159C47.4603 60.6016 49.2777 60.5062 51.1013 60.4554C51.7368 60.4554 52.4612 60.6016 52.728 59.8899C52.8742 59.2865 52.8742 58.6569 52.728 58.0535C52.5819 57.0241 52.3531 56.0074 52.1435 54.9843C51.6351 52.5824 51.0632 50.0915 51.1903 47.6197C51.2177 47.4388 51.2326 47.2562 51.2348 47.0732C51.2348 47.0732 51.0632 47.194 51.0505 47.1558C51.0886 47.2511 51.3619 47.4227 51.4381 47.5117C51.8639 47.9692 52.2388 48.4775 52.62 48.9668C53.6246 50.3371 54.7704 51.5979 56.0386 52.7286C57.0109 53.5419 58.3135 54.387 59.6415 53.9994C61.2873 53.561 62.501 51.5467 63.3207 50.1868C64.6276 47.9855 65.6746 45.6399 66.4407 43.1971C66.7747 42.2069 67.0464 41.1967 67.254 40.1724C67.4037 39.6158 67.4468 39.0358 67.3811 38.4631C67.3452 38.3413 67.2348 38.2566 67.1079 38.2534C65.5574 38.3106 63.7528 38.1327 62.4501 37.2431C62.3845 37.2039 62.3059 37.1925 62.2319 37.2116C62.1579 37.2307 62.0946 37.2787 62.0562 37.3448C61.1666 39.0033 60.5947 40.7888 59.794 42.4854C59.4559 43.241 59.006 43.9414 58.4596 44.5633C58.2754 44.7603 58.0847 44.989 57.7924 44.989C57.3095 44.989 56.8774 44.4362 56.6042 44.1058C56.139 43.4991 55.7144 42.8622 55.3333 42.1995C54.3972 40.5323 53.3351 38.9391 52.1562 37.4337C51.1522 36.2582 49.8241 35.1144 48.1974 35.0636C47.1871 35.0636 46.2911 35.5656 45.3253 35.6482C43.639 35.71 41.954 35.4954 40.3371 35.0127C39.5429 34.8094 38.7613 34.5743 37.986 34.3138C37.525 34.121 37.0397 33.9927 36.5436 33.9325C35.8266 33.9262 35.1236 34.1318 34.5229 34.5235C31.3458 36.4298 29.9224 40.3059 27.762 43.1336C27.584 43.3687 27.1964 43.9151 26.9804 43.8135C26.7643 43.7118 26.8152 43.267 26.7898 43.178C26.6627 42.6888 26.5483 42.1931 26.4466 41.6975C26.2736 40.8873 26.161 40.0653 26.1098 39.2384C26.0793 38.8153 26.0793 38.3906 26.1098 37.9675C26.1476 37.8093 26.1668 37.6472 26.167 37.4846C26.0844 37.0461 25.6587 37.1414 25.2711 37.1033L21.6999 36.7411C21.542 36.7411 21.414 36.8691 21.414 37.0271C21.3746 41.3121 21.5548 45.5962 21.9541 49.8628C21.9567 50.6782 22.1321 51.4839 22.4688 52.2266C22.6722 52.5379 23.1678 52.2266 22.9645 51.9406C22.6826 51.3043 22.5376 50.6159 22.5387 49.92C22.3989 48.7126 22.3227 47.499 22.2528 46.2853C22.1193 43.7436 22.0494 41.24 22.0113 38.711C22.0113 38.1518 22.0113 37.5862 22.0113 37.0271L21.7254 37.313L24.8517 37.6307C25.1313 37.6307 25.7095 37.8023 25.6142 37.5291C25.6266 37.6091 25.6266 37.6905 25.6142 37.7705C25.5397 38.6176 25.5632 39.4705 25.6841 40.3122C25.7731 41.0176 25.9001 41.7165 26.0527 42.4155C26.1218 43.0244 26.2869 43.6185 26.5419 44.1757C26.6247 44.3238 26.7633 44.4327 26.9268 44.478C27.0903 44.5234 27.2652 44.5015 27.4125 44.4171C27.8664 44.1093 28.2427 43.7004 28.5118 43.2225C29.0074 42.5235 29.4586 41.7928 29.9161 41.0684C30.9497 39.278 32.1864 37.6128 33.6016 36.1057C34.1628 35.4281 34.8864 34.9035 35.7048 34.5807C36.7914 34.3074 37.8717 34.9301 38.882 35.2161C40.4739 35.7319 42.1162 36.077 43.7812 36.2455C44.4159 36.3032 45.055 36.2926 45.6875 36.2137C46.2403 36.1375 46.7232 35.896 47.2633 35.7689C49.1061 35.3241 50.6438 36.6712 51.7114 37.9866C52.8908 39.5375 53.9649 41.1657 54.9266 42.8603C55.4922 43.7563 56.5025 45.7515 57.8242 45.6181C58.7964 45.5228 59.4827 44.2011 59.883 43.464C60.8997 41.6149 61.4716 39.5561 62.4692 37.6943L62.0752 37.7959C63.4605 38.7427 65.3795 38.9461 67.0252 38.8889L66.7457 38.6792C66.7935 39.1926 66.7417 39.7104 66.5932 40.2042C66.4127 41.0631 66.1857 41.9116 65.9132 42.7459C65.2716 44.8927 64.4225 46.9719 63.3779 48.9541C62.8506 49.954 62.2316 50.9028 61.5288 51.7881C61.0392 52.5212 60.3578 53.1058 59.5589 53.4784C58.1737 53.9232 56.7567 52.7159 55.8353 51.839C54.6886 50.6888 53.6268 49.4571 52.6582 48.1535C52.3659 47.7913 51.5589 46.4187 50.9298 46.6348C50.4405 46.8 50.5739 47.7531 50.5739 48.109C50.5771 49.2459 50.6727 50.3807 50.8599 51.5022C51.1903 53.6626 51.7622 55.7786 52.099 57.9391C52.1562 58.3013 52.4675 59.6039 52.0608 59.8772C51.8448 60.0297 51.1712 59.8772 50.9171 59.9153L49.5382 59.9598C48.5278 60.0043 47.5239 60.0551 46.5135 60.1186C42.5993 60.3537 38.6914 60.6778 34.7708 60.7541L35.044 60.9638C34.5102 59.4896 34.7136 57.704 34.828 56.1726C34.9741 54.2663 35.2346 52.4045 35.5333 50.5363C35.7772 49.3233 35.9491 48.0969 36.048 46.8635C36.048 46.3425 36.1115 45.5482 35.6604 45.1669C34.7326 44.3854 33.1568 46.2535 32.6103 46.7936C31.1334 48.3945 29.57 49.9133 27.9272 51.3433C26.4975 52.4935 24.2734 53.885 22.8819 51.9279C22.6785 51.5975 22.1829 51.8834 22.3989 52.1821Z" fill="#231F20"/>
  <path d="M58.8154 29.2557C58.7022 29.5885 58.6631 29.942 58.7011 30.2915C58.9484 31.0911 59.5658 31.7226 60.3595 31.9881C66.7139 34.4917 78.8442 39.2384 78.8442 39.2384C79.7444 39.604 80.7748 39.4157 81.4876 38.7554C82.5361 37.4846 85.4654 29.8594 88.274 22.1262L82.193 16.7441L75.8386 15.5686L72.0261 12.0229L65.7289 10.2437C62.3929 18.9808 59.0887 28.1755 58.8154 29.2557Z" fill="white"/>
  <path d="M58.536 29.1732C58.1039 30.9333 59.2413 31.8483 60.7473 32.4456L64.9348 34.1041L73.9897 37.6498C75.5655 38.2853 77.1287 38.9207 78.7173 39.4989C79.8147 39.9529 81.0799 39.6386 81.8372 38.7237C82.4512 37.741 82.9623 36.6976 83.3623 35.6101C85.2686 31.2065 86.8889 26.6823 88.522 22.1771C88.556 22.0802 88.5284 21.9725 88.4521 21.9038L84.093 18.0404C83.5766 17.4943 83.0131 16.9946 82.4091 16.5472C81.8685 16.3285 81.295 16.2017 80.7125 16.1723L77.0779 15.5368L76.0231 15.3398C75.8578 15.3398 75.9532 15.3398 76.0231 15.378C75.9104 15.2928 75.8061 15.197 75.7117 15.092L73.2526 12.7981C72.8901 12.3427 72.4381 11.9664 71.9245 11.6925C69.9356 10.9871 67.826 10.536 65.7926 9.96409C65.6423 9.92683 65.4891 10.0132 65.4431 10.1611C63.88 14.2787 62.3486 18.4047 60.849 22.5393C60.0547 24.7252 59.1333 26.9237 58.5296 29.1732C58.4875 29.3258 58.5771 29.4837 58.7298 29.5258C58.8825 29.5679 59.0403 29.4783 59.0825 29.3257C59.7179 27.0762 60.6075 24.8777 61.3954 22.6918C62.9035 18.553 64.4349 14.4269 65.9896 10.3136L65.6401 10.5169L70.9015 11.9975C71.2065 12.0801 71.5369 12.1627 71.8229 12.258C71.9626 12.3025 71.9245 12.2898 71.8229 12.2199C71.9157 12.2937 72.0028 12.3744 72.0834 12.4613L74.3963 14.6218C74.7827 15.0905 75.2342 15.5013 75.7371 15.8418C76.4282 16.0484 77.1399 16.1783 77.8594 16.2294L81.1637 16.8649C81.4496 16.9157 81.7419 16.9538 82.0279 17.0237C82.1994 17.0682 81.9326 16.9411 81.9961 16.9793C82.0705 17.0376 82.1406 17.1014 82.2058 17.1699C83.68 18.5805 85.2686 19.8832 86.8 21.2366L87.6578 21.9992C87.7654 22.0739 87.8636 22.1613 87.9501 22.2597C88.128 22.5774 87.912 22.0055 87.8738 22.3677C87.7266 22.9737 87.5135 23.5618 87.2384 24.1215L86.7046 25.5703C86.281 26.6886 85.8574 27.807 85.4338 28.9254C84.2773 31.9754 83.2161 35.2225 81.5894 38.0629C80.5155 39.9247 78.5076 38.8317 77.0143 38.2471L68.3661 34.8285L63.3208 32.846L61.065 31.9564C59.8386 31.4734 58.7139 30.8507 59.0888 29.3257C59.1778 28.9698 58.6249 28.8173 58.536 29.1732Z" fill="#231F20"/>
  <path d="M77.7007 34.8285C77.9618 34.9895 78.2648 35.0691 78.5713 35.0572C79.0796 34.9746 79.3402 34.4218 79.5244 33.9452L81.4307 28.8618C81.6273 28.4887 81.675 28.0549 81.5642 27.6481C81.3432 27.278 80.9882 27.0073 80.5729 26.8919L77.9803 25.8308C77.6959 25.6852 77.3781 25.6173 77.059 25.6338C76.4235 25.7291 76.1058 26.4217 75.8898 27.0254L74.0216 32.2232C73.9461 32.3977 73.9072 32.5859 73.9072 32.776C73.9553 33.0844 74.1562 33.3474 74.441 33.475C74.746 33.583 77.0844 34.5171 77.7007 34.8285Z" fill="#D2D8FF"/>
  <path d="M77.5606 35.0699C78.3676 35.4702 79.0856 35.4131 79.5558 34.5743C79.7812 34.1116 79.9744 33.6339 80.1341 33.1446L80.8203 31.3781L81.4558 29.6179C81.712 29.1109 81.8756 28.5622 81.9387 27.9976C81.9387 27.0317 80.9728 26.7267 80.2357 26.4154L78.5963 25.7418C78.1231 25.4688 77.5859 25.3263 77.0395 25.3288C76.2135 25.4559 75.8513 26.3137 75.6035 27.0127C75.1798 28.1649 74.7562 29.3193 74.3326 30.4758C74.1356 31.0222 73.9259 31.5687 73.7416 32.1215C73.5589 32.5054 73.5927 32.9574 73.8306 33.3098C74.2863 33.7284 74.8386 34.0275 75.4382 34.1803C76.1309 34.4663 76.8425 34.7395 77.5225 35.0699C77.8465 35.2351 78.1579 34.7395 77.8084 34.5806C76.9124 34.1358 75.9656 33.7864 75.0443 33.3987C74.9108 33.3416 74.771 33.2907 74.6376 33.2272C74.4556 33.158 74.3128 33.0127 74.2469 32.8295C74.1809 32.6463 74.1983 32.4434 74.2945 32.274C74.5995 31.3717 74.9299 30.4821 75.254 29.5862C75.578 28.6902 75.8894 27.8197 76.2008 26.9555C76.3096 26.5997 76.5114 26.2795 76.7854 26.0277C77.2111 25.7227 77.7321 26.0277 78.1579 26.1866C79.0221 26.5361 79.9498 26.822 80.7822 27.2732C81.2024 27.426 81.4289 27.8817 81.2969 28.3089C81.1644 28.7615 81.0031 29.2051 80.814 29.637L79.6766 32.6362C79.4859 33.1446 79.3207 33.6783 79.0856 34.1676C79.0106 34.3447 78.9004 34.5047 78.7615 34.6378C78.4565 34.8856 78.1261 34.7331 77.8084 34.5806C77.4907 34.4281 77.2302 34.9111 77.5606 35.0699Z" fill="#231F20"/>
  <path d="M68.5697 19.146C69.2496 17.2397 70.0121 15.3716 70.781 13.5034C70.8445 13.3445 70.7111 13.2048 70.584 13.1476L69.5864 12.7345L68.9509 12.474C68.8079 12.3938 68.6441 12.3584 68.4807 12.3723C68.2837 12.4232 68.2202 12.6773 68.1503 12.8426C67.9978 13.1984 67.8453 13.5542 67.6991 13.9101C67.3009 14.859 66.9049 15.81 66.5109 16.7632C66.3584 17.1254 66.2122 17.4939 66.0597 17.8625C66.0025 18.015 65.8564 18.2437 65.9009 18.4153C65.9454 18.5869 66.1614 18.6504 66.3139 18.7076L67.051 18.9618L68.2329 19.343C68.5887 19.451 68.7349 18.8982 68.3854 18.7902L67.3687 18.4534L66.6697 18.2247L66.4092 18.1293C66.3139 18.0912 66.3139 18.0722 66.3647 18.1293L66.4473 18.3263C66.4473 18.4661 66.4473 18.3645 66.4473 18.3263C66.4473 18.2882 66.4982 18.1929 66.5236 18.1293L66.8095 17.4304L67.6292 15.4415C67.8961 14.806 68.163 14.1706 68.4362 13.5352L68.6841 12.9633C68.7116 12.9221 68.733 12.8772 68.7476 12.8298V12.8298V12.8298C68.8048 12.7345 68.7095 12.779 68.4617 12.9569C68.5017 12.9763 68.5446 12.9892 68.5887 12.9951C69.2242 13.2048 69.8024 13.478 70.4061 13.7258L70.2027 13.3763C69.4339 15.2445 68.6714 17.119 67.9914 19.0189C67.8898 19.343 68.4426 19.4955 68.5697 19.146Z" fill="#231F20"/>
  <path d="M65.7038 26.4472C66.3837 24.5409 67.1525 22.6728 67.9151 20.8046C67.9786 20.6457 67.8452 20.5059 67.7181 20.4488L66.7204 20.0421L66.085 19.7815C65.944 19.7023 65.7824 19.6669 65.6212 19.6799C65.4242 19.7307 65.3606 19.9849 65.2907 20.1501C65.1319 20.5059 64.9857 20.8618 64.8332 21.2176C64.4329 22.1644 64.0389 23.1239 63.645 24.0644L63.2002 25.17C63.1366 25.3225 62.9905 25.5513 63.0413 25.7228C63.0921 25.8944 63.2955 25.9579 63.4543 26.0151C63.6132 26.0723 63.9436 26.1867 64.1851 26.2629L65.3733 26.6506C65.7228 26.7586 65.8753 26.2058 65.5258 26.0977L64.5219 25.7737L63.8292 25.5449L63.5687 25.4496C63.467 25.4115 63.4734 25.3924 63.5179 25.4496L63.6005 25.6466C63.6005 25.7864 63.6005 25.6847 63.6005 25.6466C63.6254 25.58 63.6466 25.5121 63.664 25.4432C63.7593 25.2145 63.8483 24.9794 63.9436 24.7506C64.2168 24.1152 64.4901 23.4226 64.7697 22.7617C65.0493 22.1009 65.3034 21.4909 65.5767 20.8554C65.6593 20.6648 65.7355 20.4742 65.8245 20.2835C65.8462 20.2403 65.8653 20.1957 65.8817 20.1501V20.1501V20.1501C65.9325 20.0548 65.8372 20.0993 65.5894 20.2772C65.6317 20.2965 65.6767 20.3094 65.7228 20.3153C66.3583 20.525 66.9365 20.7982 67.5338 21.0461L67.3368 20.6966C66.5679 22.5647 65.7991 24.4393 65.1192 26.3392C65.0302 26.6442 65.5703 26.7904 65.7038 26.4472Z" fill="#231F20"/>
  <path d="M0.438477 20.4932C4.3845 28.6775 8.52751 36.8365 8.73721 37.1605C9.67764 38.6474 11.4251 38.5839 12.5498 38.1772C13.6745 37.7705 25.538 32.4965 30.0623 30.4567C31.8224 29.6624 31.4475 28.0929 31.0663 27.0889C29.986 24.2232 27.4443 18.5233 24.6992 12.671L16.9724 13.5987L12.7086 16.3946L5.44567 16.7378L0.438477 20.4932Z" fill="white"/>
  <path d="M11.927 24.6552C12.4561 24.5328 13.008 24.5503 13.5283 24.7061C13.7873 24.386 13.9286 23.9867 13.9286 23.575C13.9286 20.3979 11.3869 19.127 9.63943 19.5718C9.63943 19.5718 6.35425 20.6393 6.97697 23.7021C7.0707 24.462 7.42295 25.1664 7.9746 25.6974C8.4221 26.0245 8.94007 26.2421 9.48692 26.3328H9.66484C10.2286 25.5545 11.0185 24.9687 11.927 24.6552Z" fill="#D2D8FF"/>
  <path d="M13.5282 24.7061C12.9518 25.3839 12.2128 25.9042 11.3804 26.2184C10.8381 26.4443 10.2403 26.5018 9.66477 26.3836C9.21764 27.0993 9.0736 27.9635 9.26445 28.7855C9.36606 29.5484 9.72733 30.253 10.2875 30.7808C10.7332 31.1111 11.252 31.3291 11.7998 31.4162C12.4335 31.5731 13.1005 31.5264 13.7061 31.2828C15.6124 30.4122 16.2478 29.4718 16.2478 28.6394C16.2034 26.3963 14.9134 25.1 13.5282 24.7061Z" fill="#D2D8FF"/>
  <path d="M22.7865 22.7807C23.6698 24.598 24.4768 26.4535 25.2774 28.309C25.3573 28.4429 25.5297 28.4881 25.665 28.4106C26.0081 28.2708 26.3513 28.1247 26.6881 27.9722C26.9041 27.8832 27.1159 27.7879 27.3235 27.6862C27.4636 27.6396 27.5887 27.5562 27.6857 27.4448C27.7937 27.2605 27.6476 27.0317 27.5777 26.8602L27.1392 25.8181C26.7368 24.8649 26.3322 23.9118 25.9255 22.9586C25.773 22.6028 25.6142 22.2469 25.4617 21.8848C25.3918 21.7322 25.3282 21.4654 25.1694 21.3701C25.0105 21.2747 24.8453 21.3701 24.6992 21.4463C24.553 21.5226 24.2353 21.6751 24.0065 21.7958L22.8755 22.3931C22.5514 22.5647 22.8373 23.0285 23.1614 22.8824L24.0891 22.3931L24.7563 22.0563L25.0042 21.9292C25.0931 21.8911 25.0995 21.9292 25.0042 21.9292L24.8072 21.8466C24.7182 21.745 24.8072 21.8466 24.8072 21.8466C24.8072 21.8466 24.8707 21.9864 24.8961 22.05C24.9978 22.2724 25.0931 22.4948 25.1884 22.7172L26.0463 24.7124L26.8533 26.6187C26.9295 26.8157 27.0121 27.0063 27.0884 27.2033C27.1036 27.2514 27.1227 27.2982 27.1456 27.3431V27.3431C27.1456 27.4511 27.2091 27.3431 27.2536 27.0508C27.2094 27.0681 27.1669 27.0894 27.1265 27.1144C26.5483 27.4066 25.9446 27.6481 25.3473 27.9023L25.7413 28.004C24.9343 26.1485 24.1336 24.2867 23.244 22.4757C23.1169 22.1643 22.6213 22.4503 22.7865 22.7807Z" fill="#231F20"/>
  <path d="M19.5583 15.6258C20.4479 17.4431 21.2485 19.2986 22.0492 21.1541C22.0876 21.2201 22.1509 21.2681 22.2249 21.2872C22.2989 21.3063 22.3775 21.295 22.4431 21.2557L23.4598 20.8236C23.6822 20.7283 23.8983 20.633 24.0953 20.5313C24.238 20.4863 24.3655 20.4027 24.4638 20.2899C24.5718 20.1056 24.4257 19.8768 24.3558 19.7053L23.9173 18.6632C23.5191 17.71 23.1146 16.759 22.7037 15.8101L22.2335 14.7298C22.1699 14.5773 22.1 14.3105 21.9475 14.2151C21.795 14.1198 21.6234 14.2151 21.4773 14.2914C21.3311 14.3676 21.0134 14.5202 20.7847 14.6409L19.6473 15.2382C19.3232 15.4098 19.6473 15.8736 19.9396 15.7275L20.8673 15.2382L21.5027 14.9014L21.7569 14.7743C21.8395 14.7362 21.8458 14.7743 21.7569 14.7743L21.6107 14.6409C21.5218 14.5392 21.6107 14.6409 21.6107 14.6409C21.6365 14.7103 21.6662 14.7782 21.6997 14.8442C21.795 15.0666 21.8967 15.289 21.992 15.5178C22.2779 16.1532 22.5639 16.8395 22.8435 17.5067C23.1231 18.1739 23.3836 18.7775 23.6505 19.413C23.7331 19.61 23.8157 19.8006 23.8919 19.9976C23.9022 20.0463 23.9193 20.0934 23.9428 20.1374V20.1374V20.1374C23.9428 20.2454 24.0063 20.1374 24.0508 19.8451C24.019 19.8451 23.9491 19.8959 23.9237 19.9086C23.3455 20.2009 22.7354 20.4424 22.1445 20.6965L22.5321 20.7982C21.7251 19.0127 20.9372 17.1826 20.0539 15.3399C19.8951 15.0094 19.3994 15.2763 19.5583 15.6258Z" fill="#231F20"/>
  <path d="M0.190469 20.6393C2.60511 25.6338 5.06634 30.605 7.57418 35.5529C8.10794 36.6013 8.55909 37.8531 9.69016 38.3996C10.961 38.9969 12.2319 38.6411 13.4392 38.1391C16.6418 36.7856 19.8189 35.3432 22.9961 33.9262L28.3845 31.5115C29.8079 30.8761 31.7206 30.3423 31.6507 28.4487C31.5304 27.5074 31.2488 26.5939 30.8182 25.7482C30.3353 24.5472 29.8206 23.3589 29.3059 22.177C27.8889 18.9427 26.4147 15.7274 24.9278 12.5248C24.8779 12.4355 24.7822 12.3816 24.68 12.385L18.8658 13.084C18.1964 13.097 17.53 13.1779 16.8769 13.3255C16.6491 13.4265 16.4355 13.5568 16.2415 13.7131L14.7355 14.7107L13.2803 15.6639C13.1088 15.7719 12.9309 15.8736 12.772 15.9943C12.6131 16.115 12.3907 16.1786 12.6767 16.115C11.9586 16.2106 11.2335 16.2425 10.5099 16.2103L6.76718 16.3883C6.24327 16.3388 5.71474 16.3906 5.21037 16.5408C4.8475 16.7613 4.50699 17.0167 4.19368 17.3033L2.5225 18.5741L0.26672 20.2707C-0.0192237 20.4868 0.26672 20.9824 0.559019 20.76L2.68771 19.1651C3.63967 18.5352 4.55216 17.8477 5.42007 17.1063C5.51538 17.0173 5.62976 16.9919 5.42007 17.0428C5.51709 17.0301 5.61534 17.0301 5.71236 17.0428C6.19529 17.0428 6.67822 16.9983 7.15479 16.9729L11.2597 16.7822C11.8503 16.8325 12.4447 16.7522 13.0008 16.5471C14.0365 15.9752 15.0024 15.2318 15.9936 14.5836C16.3495 14.3485 16.699 14.088 17.0739 13.8783C17.1946 13.8084 16.8642 13.9164 17.0739 13.8783C17.2836 13.8402 17.3598 13.8465 17.4933 13.8338L21.0898 13.37C22.1827 13.2429 23.3329 12.9887 24.4385 12.9696C24.4703 12.9696 24.6673 12.9125 24.699 12.9696C24.5847 12.8807 24.7816 13.4907 24.8071 13.5415C24.9596 13.8783 25.1121 14.2087 25.2709 14.5455C25.8725 15.8333 26.4592 17.136 27.0311 18.4534C28.0096 20.6266 28.9882 22.7998 29.9096 24.9984C30.4116 26.2057 31.765 28.436 30.7293 29.6688C30.1514 30.1667 29.4763 30.5389 28.7467 30.7617L26.7324 31.664C25.1566 32.3757 23.5553 33.081 21.9985 33.78C19.228 34.9746 16.4575 36.2455 13.668 37.421C12.683 37.8468 11.6664 38.3106 10.5607 38.0882C9.28984 37.8213 8.83233 36.7475 8.29857 35.7054C6.32873 31.8928 4.41608 28.0039 2.5225 24.1278C1.90401 22.8866 1.29188 21.6306 0.686105 20.3597C0.527247 20.0229 0.0316108 20.3089 0.190469 20.6393Z" fill="#231F20"/>
  <path d="M12.003 24.9349C12.4845 24.832 12.9838 24.8473 13.4581 24.9793C13.5821 25.0132 13.7132 24.9581 13.7759 24.8459C14.6591 23.575 14.119 21.6687 13.2103 20.5822C12.46 19.6675 11.3231 19.1591 10.1412 19.2096C9.50228 19.2756 8.89359 19.5151 8.38105 19.9022C7.43981 20.4978 6.80604 21.4751 6.64633 22.5774C6.55757 23.4412 6.71856 24.3123 7.11019 25.0874C7.63049 25.973 8.54121 26.5581 9.56295 26.6632C9.68813 26.6895 9.81667 26.6366 9.88702 26.5298C10.397 25.7792 11.141 25.2184 12.003 24.9349C12.3525 24.8205 12.2063 24.2677 11.8505 24.382C10.8564 24.7178 10.001 25.3722 9.4168 26.2438L9.74087 26.1104C8.90413 26.04 8.14562 25.5905 7.68208 24.8904C7.33253 24.2574 7.16124 23.5415 7.18644 22.8189C7.25303 21.8806 7.74444 21.0242 8.52085 20.4932C8.89975 20.2018 9.33123 19.986 9.79171 19.8578C10.7247 19.6753 11.6892 19.9411 12.397 20.5758C13.4264 21.4654 14.1508 23.378 13.3056 24.5854L13.6234 24.4519C13.0511 24.2944 12.4491 24.2791 11.8696 24.4074C11.4947 24.4583 11.6472 25.0111 12.003 24.9349Z" fill="#231F20"/>
  <path d="M13.2867 24.5599C12.9188 24.9965 12.4672 25.3551 11.9587 25.6147C11.3015 26.0374 10.5156 26.213 9.74101 26.1103C9.6155 26.0801 9.48477 26.1339 9.41694 26.2438C8.76673 27.4281 8.75242 28.8593 9.37881 30.0564C10.0142 31.378 11.6664 31.9626 13.058 31.7593C13.7807 31.6071 14.4616 31.2991 15.0532 30.857C15.5 30.57 15.8847 30.1962 16.1843 29.7577C16.7371 28.8681 16.5211 27.6544 16.1462 26.733C15.6968 25.6116 14.7613 24.7556 13.6044 24.4074C13.4528 24.3698 13.2992 24.4609 13.2593 24.6118C13.2193 24.7628 13.3079 24.9179 13.4583 24.9602C14.2816 25.2043 14.9784 25.7577 15.4027 26.5043C15.659 26.9614 15.8231 27.4645 15.8856 27.9848C15.9761 28.3907 15.9608 28.813 15.8411 29.2112C15.5107 30.0691 14.5703 30.6028 13.7696 30.9714C12.6513 31.5115 10.9102 31.3018 10.1286 30.247C9.34904 29.1616 9.26491 27.7241 9.91257 26.5551L9.58851 26.6886C10.0239 26.7617 10.4684 26.7617 10.9038 26.6886C11.3523 26.5895 11.7816 26.4178 12.1747 26.1802C12.8076 25.8648 13.3647 25.4161 13.8078 24.8649C14.0048 24.5599 13.5028 24.2739 13.2867 24.5599Z" fill="#231F20"/>
  <path d="M13.528 24.706C13.0077 24.5503 12.4558 24.5327 11.9267 24.6552C11.0067 24.9799 10.2113 25.5842 9.65186 26.3835C10.2274 26.5018 10.8251 26.4442 11.3675 26.2183C12.2045 25.9061 12.9481 25.3856 13.528 24.706Z" fill="#D2D8FF"/>
  <path d="M13.6044 24.4265C13.0341 24.256 12.4288 24.2407 11.8506 24.382C11.6801 24.4387 11.5144 24.5088 11.355 24.5917C10.5784 24.9546 9.91826 25.5267 9.44867 26.2438C9.40666 26.321 9.40158 26.4129 9.43485 26.4942C9.46811 26.5755 9.53619 26.6376 9.62023 26.6632C10.0697 26.7458 10.5305 26.7458 10.9801 26.6632C11.427 26.556 11.8553 26.3825 12.2509 26.1485C12.8648 25.8426 13.4064 25.4094 13.8395 24.8776C13.9169 24.7423 13.8717 24.5699 13.7378 24.49C13.6025 24.4126 13.4301 24.4578 13.3502 24.5917C12.9837 25.0298 12.5319 25.3887 12.0222 25.6465C11.6779 25.8415 11.3078 25.987 10.9229 26.0786C10.543 26.1517 10.1526 26.1517 9.77274 26.0786L9.9443 26.498C10.3669 25.8738 10.9541 25.3789 11.6409 25.0682C11.764 24.9999 11.8939 24.9445 12.0285 24.903C12.5106 24.7842 13.016 24.7996 13.49 24.9475C13.6068 24.9296 13.7005 24.8416 13.7258 24.7262C13.7512 24.6108 13.7029 24.4917 13.6044 24.4265Z" fill="#231F20"/>
</svg>
