<svg width="16" height="16" viewBox="0 0 16 16" fill="none" xmlns="http://www.w3.org/2000/svg">
    <path d="M0 8a8 8 0 1 1 16 0A8 8 0 1 1 0 8z" fill="#FF603E"/>
    <path fill-rule="evenodd" clip-rule="evenodd" d="M5.294 4.227a.745.745 0 0 0-1.072 0 .79.79 0 0 0 0 1.099l2.712 2.78-2.506 2.568a.79.79 0 0 0 0 1.099.745.745 0 0 0 1.072 0l2.506-2.57L10.5 11.76a.745.745 0 0 0 1.072 0 .79.79 0 0 0 0-1.098L9.078 8.105l2.7-2.766a.79.79 0 0 0 0-1.098.745.745 0 0 0-1.072 0l-2.7 2.766-2.712-2.78z" fill="#fff"/>
</svg>
