<svg width="16" height="16" viewBox="0 0 16 16" fill="none" xmlns="http://www.w3.org/2000/svg">
<circle cx="8" cy="8" r="7.5" fill="white" stroke="#D5D5E4"/>
<path fill-rule="evenodd" clip-rule="evenodd" d="M5.85707 5.14919C5.66002 4.95214 5.34192 4.95075 5.14658 5.14609C4.95124 5.34143 4.95263 5.65953 5.14968 5.85659L7.29376 8.00067L5.15179 10.1427C4.95481 10.3396 4.95349 10.6577 5.14883 10.853C5.34417 11.0484 5.6622 11.047 5.85918 10.8501L8.00115 8.70807L10.1449 10.8518C10.3419 11.0488 10.66 11.0502 10.8554 10.8549C11.0507 10.6595 11.0493 10.3414 10.8523 10.1444L8.70855 8.00067L10.8523 5.85687C11.0493 5.6599 11.0506 5.34186 10.8553 5.14652C10.66 4.95118 10.3419 4.9525 10.1449 5.14948L8.00115 7.29328L5.85707 5.14919Z" fill="#FF603E"/>
</svg>
