<svg width="161" height="160" viewBox="0 0 161 160" fill="none" xmlns="http://www.w3.org/2000/svg">
    <circle opacity=".1" cx="80.55" cy="80.12" r="68" fill="#7582FF"/>
    <path d="M73.19 116.05c3.316.794 6.791.603 10-.55a18.588 18.588 0 0 0 7.27-4.64c-2-1.17-4-2.72-4.77-4.75-1.45-4.09.91-8.52 3.22-11.76 1.37-1.92 2.88-3.76 4.08-5.79a24.24 24.24 0 0 0 2.56-6.34c2-8.14.47-18.13-4.42-25a16.37 16.37 0 0 0-15.26-6.92c-4.85.5-10.23 2.87-13.05 7-3.72 5.45-3.23 13.22-2.48 19.45.34 2.91.87 5.8 1.48 8.66.83 3.85 1.72 7.72 4.34 10.79 2.2 2.58 5.78 5.18 6.16 8.82.33 3.08-3.8 4.26-6.15 4.79a11.781 11.781 0 0 0 7.02 6.24z" fill="#fff"/>
    <path d="M66.25 109.41c3-.69 6.19-2.08 5.67-4.58-.85-4-4.83-6.42-7.13-9.8a22.581 22.581 0 0 1-3-7.87c-1.33-6-5.12-23.34 1.41-31 6.1-7.16 23.61-11.46 30.69 5.4 3.48 8.28 4.09 18.42-.2 26.43-1.6 3-4 5.52-5.74 8.41-1.74 2.89-3 6.44-2 9.63.41 1.26 2.11 2.93 4.7 4.54l.24-.3c-.19-.12-.38-.22-.57-.35a10.995 10.995 0 0 1-3.83-3.58c-1.17-2.25-.43-5.29.53-7.48a34.549 34.549 0 0 1 4.14-6.43 27.84 27.84 0 0 0 5.53-12.57 33.77 33.77 0 0 0-.75-13.2c-1.72-6.79-5.39-13.61-12.31-16.16a19.6 19.6 0 0 0-15.65 1.44 16.53 16.53 0 0 0-5.48 4.54 18.34 18.34 0 0 0-3.1 8.9c-.79 6.66.28 13.51 1.67 20 .78 3.66 1.58 7.45 3.89 10.49 1.26 1.65 2.81 3 4.17 4.61 1.16 1.36 3.3 4.07 2.16 5.93-1 1.71-3.64 2.29-5.46 2.69a.38.38 0 0 1 .42.31z" fill="#000"/>
    <path d="M66.25 109.41a.38.38 0 0 0-.42-.28c0 .11.09.23.15.34l.27-.06z" fill="#000"/>
    <path d="M66.15 109.78c2.35-.53 6.48-1.71 6.15-4.79-.38-3.64-4-6.24-6.16-8.82-2.62-3.07-3.51-6.94-4.34-10.79-.61-2.86-1.14-5.75-1.48-8.66-.75-6.23-1.24-14 2.48-19.45 2.82-4.13 8.2-6.5 13.05-7a16.37 16.37 0 0 1 15.24 6.88c4.89 6.91 6.46 16.9 4.42 25a24.24 24.24 0 0 1-2.56 6.34c-1.2 2-2.71 3.87-4.08 5.79-2.31 3.24-4.67 7.67-3.22 11.76.72 2 2.8 3.58 4.77 4.75.1-.1.2-.2.29-.31-2.59-1.61-4.29-3.28-4.7-4.54-1-3.19.16-6.74 2-9.63 1.84-2.89 4.14-5.41 5.74-8.41 4.29-8 3.68-18.15.2-26.43C86.84 44.68 69.33 49 63.23 56.14c-6.53 7.68-2.74 25.06-1.41 31a22.581 22.581 0 0 0 3 7.87c2.3 3.38 6.28 5.79 7.13 9.8.52 2.5-2.7 3.89-5.67 4.58a.36.36 0 0 1-.13.39z" fill="#000"/>
    <path d="M66.15 109.78a.36.36 0 0 0 .1-.37l-.27.06c.05.107.107.21.17.31z" fill="#000"/>
    <path d="M95.5 112.73c.2.67-.89 1.48-1.29 1.83a16.379 16.379 0 0 1-4.26 2.66c-1.5.522-3.047.894-4.62 1.11-1.56.33-3.11.72-4.69 1-3 .51-6 .71-8.75-.59-2.58-1.2-5.11-2.5-7.66-3.78-1.18-.59-2.35-1.18-3.54-1.76-.45-.22-1.57-.52-1.71-1.09-.21-.84 1.11-1.28 1.66-1.5a28.59 28.59 0 0 1 4.33-1.26c-.07-.17-.14-.35-.22-.52-4.42.43-8.87.84-13.24 1.68-1.9.37-4.32.68-5.5 2.4-1.18 1.72-1.43 4.29-1.9 6.28a339.87 339.87 0 0 0-2.94 13.69c-.15.79-.27 1.58-.41 2.37a68.198 68.198 0 0 0 10.65 6.32c1-5.6 2.12-11.17 3.55-16.68a.45.45 0 0 1 .86.24 201.642 201.642 0 0 0-3.56 16.82 68 68 0 0 0 50.91 2.3l.71-6.77c.05-.57 1-.58.9 0-.227 2.147-.45 4.297-.67 6.45a67.391 67.391 0 0 0 15.3-8c0-.82-.04-1.64-.12-2.46-.38-6-1.52-13.25-5.65-18a8.369 8.369 0 0 0-3.94-2.62 22.293 22.293 0 0 0-3.82-.56c-1.83-.21-3.66-.46-5.49-.72-2.8-.38-5.59-.79-8.39-1.21l-.27.33c.61.36 1.23.7 1.87 1 .43.25 1.69.52 1.9 1.04z" fill="#D2D8FF"/>
    <path d="M78.05 117.37a13.1 13.1 0 0 1-8.48-2.11 14.503 14.503 0 0 1-4.31-5.26c-1.429.3-2.835.698-4.21 1.19a3.536 3.536 0 0 0-1 .45c-.31.25-.32.1-.17.32s.62.3.78.37c1 .5 2 1 3.07 1.53 2.49 1.24 5 2.5 7.49 3.72.862.464 1.77.836 2.71 1.11a15.12 15.12 0 0 0 5.65 0c1.59-.23 3.17-.59 4.74-.95 1.27-.28 2.59-.36 3.84-.72a14.6 14.6 0 0 0 5.17-2.76c.35-.28 1.12-.78 1.26-1.22a.28.28 0 0 1 0-.1.178.178 0 0 1-.06-.05s-.59-.19-.75-.26a34.675 34.675 0 0 1-1.56-.78l-1-.57c-.33.35-.68.69-1 1a19.343 19.343 0 0 1-12.17 5.09z" fill="#D2D8FF"/>
    <path d="M86.27 117.78c-1.71.12-9.23 2.68-13.42 1-1.67-.68-11.87-5.9-13.17-6.46-1.69-.73 2.36-1.93 5.41-2.64-.06-.11-.11-.23-.17-.34a28.59 28.59 0 0 0-4.33 1.26c-.55.22-1.87.66-1.66 1.5.14.57 1.26.87 1.71 1.09 1.19.58 2.36 1.17 3.54 1.76 2.55 1.28 5.08 2.58 7.66 3.78 2.78 1.3 5.78 1.1 8.75.59 1.58-.26 3.13-.65 4.69-1a23.968 23.968 0 0 0 4.62-1.11 16.379 16.379 0 0 0 4.26-2.66c.4-.35 1.49-1.16 1.29-1.83-.16-.52-1.42-.79-1.85-1-.64-.31-1.26-.65-1.87-1l-.25.3a35.828 35.828 0 0 0 3.57 1.8c.57.23-4.06 4.62-8.78 4.96z" fill="#D2D8FF"/>
    <path d="m91.22 111.31 1 .57c.507.273 1.027.533 1.56.78.16.07.72.22.75.26a.178.178 0 0 0 .06.05c0-.05 0 0 0 0a.28.28 0 0 0 0 .1c-.14.44-.91.94-1.26 1.22a14.6 14.6 0 0 1-5.17 2.76c-1.25.36-2.57.44-3.84.72-1.57.36-3.15.72-4.74.95a15.12 15.12 0 0 1-5.65 0 13.955 13.955 0 0 1-2.71-1.11c-2.51-1.22-5-2.48-7.49-3.72-1-.52-2-1-3.07-1.53-.16-.07-.68-.21-.78-.37-.1-.16-.14-.07.17-.32a3.536 3.536 0 0 1 1-.45c1.374-.502 2.78-.91 4.21-1.22l-.17-.35c-3 .71-7.1 1.91-5.41 2.64 1.3.56 11.5 5.78 13.17 6.46 4.19 1.69 11.71-.87 13.42-1 4.72-.34 9.35-4.73 8.78-5A36.03 36.03 0 0 1 91.5 111l-.28.31z" fill="#D2D8FF"/>
    <path d="M55.82 125.13a.45.45 0 0 0-.86-.24c-1.46 5.51-2.6 11.11-3.55 16.68l.85.38a197.477 197.477 0 0 1 3.56-16.82zM104.78 137.48c.06-.58-.85-.57-.9 0l-.71 6.77.94-.32c.22-2.153.443-4.303.67-6.45zM115.3 116.17a9.85 9.85 0 0 0-6.23-4.37c-2-.38-4-.48-6-.74-3.72-.49-7.44-1-11.15-1.59a.49.49 0 0 0-.51.21c-.14.2-.3.38-.46.57l.21.13c.182-.196.399-.355.64-.47.39-.13 11.16 1.67 14.9 2 1.347.068 2.678.331 3.95.78 2.66 1.08 4.52 3.69 5.79 6.41 2.39 5.08 3.19 10.73 3.38 16.46l.44-.3c0-.47 0-.94-.06-1.41-.33-5.99-1.39-12.61-4.9-17.68zM44.5 115.53c.2-1.138.643-2.22 1.3-3.17a6.997 6.997 0 0 1 4.09-2 137.01 137.01 0 0 1 15.1-2c.12.31.25.6.38.9l.43-.1c-.14-.3-.28-.6-.4-.91a.47.47 0 0 0-.44-.33c-4.14.41-8.3.8-12.41 1.5-1.881.206-3.724.68-5.47 1.41a5.68 5.68 0 0 0-2.85 3.87 191.245 191.245 0 0 0-4.36 20l.46.33a291.812 291.812 0 0 1 4.17-19.5zM65.69 109.92c1.78 3.47 4.76 6.22 8.4 6.78 9.27 1.42 14.24-3.51 16.51-5.75l-.16-.09a18.588 18.588 0 0 1-7.27 4.64 17.512 17.512 0 0 1-10 .55 11.781 11.781 0 0 1-7-6.24h-.18l-.3.11z" fill="#231F20"/>
    <path d="m65.5 109.57.35-.08h.09c-.06-.11-.1-.23-.15-.34a.33.33 0 0 0-.29.42zM90.89 110.66l.29-.28-.21-.13-.24.3.16.11z" fill="#231F20"/>
    <path d="M65.5 109.57a.329.329 0 0 1 .25-.44l-.43.1c0 .11.11.23.17.34h.01zM90.6 111l.29-.29-.16-.11c-.09.11-.19.21-.29.31l.16.09zM65.99 109.85a.368.368 0 0 1-.45-.28c0 .12.11.24.16.35l.29-.07zM65.99 109.85h.18a.343.343 0 0 1-.18 0z" fill="#231F20"/>
    <path d="M65.99 109.85a.339.339 0 0 0 .16-.07c-.063-.1-.12-.203-.17-.31h-.09l-.35.08a.371.371 0 0 0 .45.3zM91.7 110.34h.3a2.53 2.53 0 0 0 .21-.25l-.51.25z" fill="#231F20"/>
    <path d="M92 110.38h-.3l.51-.21a2.53 2.53 0 0 1-.21.25c2.8.42 5.59.83 8.39 1.21 1.83.26 3.66.51 5.49.72 1.287.076 2.565.263 3.82.56a8.369 8.369 0 0 1 3.94 2.62c4.13 4.71 5.27 11.93 5.65 18 .053.82.093 1.64.12 2.46l.43-.31c-.19-5.73-1-11.38-3.38-16.46-1.27-2.72-3.13-5.33-5.79-6.41a13.989 13.989 0 0 0-3.95-.78c-3.74-.37-14.51-2.17-14.9-2a2.114 2.114 0 0 0-.64.47c.18.11.36.23.55.33l.27-.45zM64.55 108.45l.15.36h.28l-.43-.36z" fill="#231F20"/>
    <path d="M41.17 132.88c.847-4.6 1.81-9.17 2.89-13.71.47-2 .72-4.57 1.9-6.28s3.6-2 5.5-2.4c4.37-.84 8.82-1.25 13.24-1.68l-.15-.36.43.33h-.28c.08.17.15.35.22.52l.44-.1c-.13-.3-.26-.59-.38-.9a137.01 137.01 0 0 0-15.1 2 6.997 6.997 0 0 0-4.09 2 7.998 7.998 0 0 0-1.3 3.17 274.217 274.217 0 0 0-4.14 19.43l.41.29c.14-.73.26-1.52.41-2.31zM74.09 116.7c-3.64-.56-6.62-3.31-8.4-6.78l-.43.1a14.496 14.496 0 0 0 4.31 5.24 13.1 13.1 0 0 0 8.48 2.11 19.343 19.343 0 0 0 12.14-5.05c.35-.32.7-.66 1-1l-.62-.36c-2.24 2.23-7.21 7.16-16.48 5.74zM91.5 111l.25-.3c-.19-.1-.37-.22-.55-.33l-.29.28.59.35z" fill="#231F20"/>
    <path d="m65.09 109.67.44-.1c-.06-.11-.12-.23-.17-.34l-.44.1c.06.11.11.23.17.34z" fill="#231F20"/>
    <path d="M65.69 109.92c0-.11-.11-.23-.16-.35l-.44.1.17.35.43-.1zM91.22 111.31l.26-.3-.59-.35-.29.29.62.36z" fill="#231F20"/>
</svg>
