<svg width="41" height="41" viewBox="0 0 41 41" fill="none" xmlns="http://www.w3.org/2000/svg">
    <circle cx="20.277" cy="20.777" r="16.667" fill="#fff"/>
    <path d="M20.277 4.11c-9.204 0-16.666 7.494-16.666 16.737 0 8.29 6.008 15.156 13.887 16.485V24.34h-4.02v-4.676h4.02v-3.448c0-4 2.433-6.18 5.987-6.18 1.703 0 3.165.127 3.59.183V14.4l-2.465.001c-1.933 0-2.305.922-2.305 2.275v2.985h4.611l-.601 4.675h-4.01v13.108c8.246-1.008 14.639-8.048 14.639-16.602 0-9.238-7.462-16.731-16.667-16.731z" fill="#0077FB"/>
</svg>
