<svg width="41" height="41" viewBox="0 0 41 41" fill="none" xmlns="http://www.w3.org/2000/svg">
    <path fill-rule="evenodd" clip-rule="evenodd" d="M34.89 21.597c0-1.082-.097-2.122-.277-3.12H20.25v5.9h8.207c-.353 1.905-1.428 3.52-3.043 4.602v3.826h4.929c2.883-2.654 4.547-6.564 4.547-11.208z" fill="#4285F4"/>
    <path fill-rule="evenodd" clip-rule="evenodd" d="M20.25 36.5c4.117 0 7.57-1.366 10.093-3.695l-4.929-3.826c-1.365.915-3.112 1.456-5.164 1.456-3.972 0-7.334-2.683-8.533-6.287H6.622v3.95C9.132 33.084 14.29 36.5 20.25 36.5z" fill="#34A853"/>
    <path fill-rule="evenodd" clip-rule="evenodd" d="M11.717 24.148a9.167 9.167 0 0 1-.478-2.898c0-1.005.173-1.983.478-2.898v-3.95H6.622A15.244 15.244 0 0 0 5 21.25c0 2.46.59 4.79 1.622 6.849l5.095-3.951z" fill="#FBBC05"/>
    <path fill-rule="evenodd" clip-rule="evenodd" d="M20.25 12.065c2.239 0 4.25.77 5.83 2.28l4.374-4.373C27.813 7.512 24.36 6 20.25 6 14.289 6 9.131 9.417 6.622 14.401l5.095 3.951c1.2-3.604 4.561-6.287 8.533-6.287z" fill="#EA4335"/>
</svg>
